<?xml version="1.0" encoding="UTF-8" standalone="no"?>
<!DOCTYPE svg PUBLIC "-//W3C//DTD SVG 1.1//EN"
 "http://www.w3.org/Graphics/SVG/1.1/DTD/svg11.dtd">
<!-- Generated by graphviz version 2.30.1 (20140110.0959)
 -->
<!-- Title: add_ref.cc Pages: 1 -->
<!--zoomable 196 -->
<svg id="main" version="1.1" xmlns="http://www.w3.org/2000/svg" xmlns:xlink="http://www.w3.org/1999/xlink" xml:space="preserve" onload="init(evt)">
        <defs>
                <circle id="rim" cx="0" cy="0" r="7"/>
                <circle id="rim2" cx="0" cy="0" r="3.5"/>
                <g id="zoomPlus">
                        <use xlink:href="#rim" fill="#404040">
                                <set attributeName="fill" to="#808080" begin="zoomplus.mouseover" end="zoomplus.mouseout"/>
                        </use>
                        <path d="M-4,0h8M0,-4v8" fill="none" stroke="white" stroke-width="1.5" pointer-events="none"/>
                </g>
                <g id="zoomMin">
                        <use xlink:href="#rim" fill="#404040">
                                <set attributeName="fill" to="#808080" begin="zoomminus.mouseover" end="zoomminus.mouseout"/>
                        </use>
                        <path d="M-4,0h8" fill="none" stroke="white" stroke-width="1.5" pointer-events="none"/>
                </g>
                <g id="dirArrow">
                        <path fill="none" stroke="white" stroke-width="1.5" d="M0,-3.0v7 M-2.5,-0.5L0,-3.0L2.5,-0.5"/>
                </g>
               <g id="resetDef">
                       <use xlink:href="#rim2" fill="#404040">
                               <set attributeName="fill" to="#808080" begin="reset.mouseover" end="reset.mouseout"/>
                       </use>
               </g>
        </defs>

<script type="text/javascript">
var viewWidth = 521;
var viewHeight = 196;
var sectionId = 'dynsection-0';
</script>
<script xlink:href="svgpan.js"/>
<svg id="graph" class="graph">
<g id="viewport">
<title>add_ref.cc</title>
<!-- Node1 -->
<g id="node1" class="node"><title>Node1</title>
<polygon fill="#bfbfbf" stroke="black" points="266.355,-168.5 266.355,-187.5 328.355,-187.5 328.355,-168.5 266.355,-168.5"/>
<text text-anchor="middle" x="297.355" y="-175.5" font-family="Helvetica,sans-Serif" font-size="10.00">add_ref.cc</text>
</g>
<!-- Node2 -->
<g id="node2" class="node"><title>Node2</title>
<polygon fill="none" stroke="#bfbfbf" points="82.8548,-0.5 82.8548,-19.5 125.855,-19.5 125.855,-0.5 82.8548,-0.5"/>
<text text-anchor="middle" x="104.355" y="-7.5" font-family="Helvetica,sans-Serif" font-size="10.00">cstdio</text>
</g>
<!-- Node1&#45;&gt;Node2 -->
<g id="edge1" class="edge"><title>Node1&#45;&gt;Node2</title>
<path fill="none" stroke="midnightblue" d="M266.215,-174.308C223.659,-169.775 145.626,-158.38 84.3548,-132 44.1563,-114.693 23.6793,-114.76 3.35479,-76 -13.1706,-44.4848 37.2187,-26.1021 72.653,-17.3479"/>
<polygon fill="midnightblue" stroke="midnightblue" points="73.6801,-20.7027 82.6306,-15.0336 72.0983,-13.8837 73.6801,-20.7027"/>
</g>
<!-- Node3 -->
<g id="node3" class="node"><title>Node3</title>
<g id="a_node3"><a xlink:href="iwl_8h_source.html" target="_top" xlink:title="libiwl/iwl.h">
<polygon fill="none" stroke="black" points="93.3548,-112.5 93.3548,-131.5 155.355,-131.5 155.355,-112.5 93.3548,-112.5"/>
<text text-anchor="middle" x="124.355" y="-119.5" font-family="Helvetica,sans-Serif" font-size="10.00">libiwl/iwl.h</text>
</a>
</g>
</g>
<!-- Node1&#45;&gt;Node3 -->
<g id="edge2" class="edge"><title>Node1&#45;&gt;Node3</title>
<path fill="none" stroke="midnightblue" d="M269.942,-168.444C240.586,-159.28 193.835,-144.688 161.259,-134.519"/>
<polygon fill="midnightblue" stroke="midnightblue" points="162.228,-131.155 151.639,-131.516 160.142,-137.837 162.228,-131.155"/>
</g>
<!-- Node7 -->
<g id="node7" class="node"><title>Node7</title>
<g id="a_node7"><a xlink:href="ccdensity_2MOInfo_8h.html" target="_top" xlink:title="Enter brief description of file here.">
<polygon fill="none" stroke="black" points="306.855,-112.5 306.855,-131.5 363.855,-131.5 363.855,-112.5 306.855,-112.5"/>
<text text-anchor="middle" x="335.355" y="-119.5" font-family="Helvetica,sans-Serif" font-size="10.00">MOInfo.h</text>
</a>
</g>
</g>
<!-- Node1&#45;&gt;Node7 -->
<g id="edge8" class="edge"><title>Node1&#45;&gt;Node7</title>
<path fill="none" stroke="midnightblue" d="M303.63,-168.083C308.997,-160.455 316.872,-149.264 323.433,-139.941"/>
<polygon fill="midnightblue" stroke="midnightblue" points="326.304,-141.943 329.197,-131.751 320.579,-137.915 326.304,-141.943"/>
</g>
<!-- Node8 -->
<g id="node8" class="node"><title>Node8</title>
<g id="a_node8"><a xlink:href="ccdensity_2Params_8h.html" target="_top" xlink:title="Enter brief description of file here.">
<polygon fill="none" stroke="black" points="381.855,-112.5 381.855,-131.5 440.855,-131.5 440.855,-112.5 381.855,-112.5"/>
<text text-anchor="middle" x="411.355" y="-119.5" font-family="Helvetica,sans-Serif" font-size="10.00">Params.h</text>
</a>
</g>
</g>
<!-- Node1&#45;&gt;Node8 -->
<g id="edge9" class="edge"><title>Node1&#45;&gt;Node8</title>
<path fill="none" stroke="midnightblue" d="M315.418,-168.444C333.93,-159.675 362.935,-145.935 384.21,-135.858"/>
<polygon fill="midnightblue" stroke="midnightblue" points="385.837,-138.96 393.376,-131.516 382.84,-132.634 385.837,-138.96"/>
</g>
<!-- Node10 -->
<g id="node10" class="node"><title>Node10</title>
<g id="a_node10"><a xlink:href="Frozen_8h.html" target="_top" xlink:title="Enter brief description of file here.">
<polygon fill="none" stroke="black" points="458.855,-112.5 458.855,-131.5 513.855,-131.5 513.855,-112.5 458.855,-112.5"/>
<text text-anchor="middle" x="486.355" y="-119.5" font-family="Helvetica,sans-Serif" font-size="10.00">Frozen.h</text>
</a>
</g>
</g>
<!-- Node1&#45;&gt;Node10 -->
<g id="edge11" class="edge"><title>Node1&#45;&gt;Node10</title>
<path fill="none" stroke="midnightblue" d="M327.302,-168.444C360.176,-159.051 413.013,-143.955 448.676,-133.765"/>
<polygon fill="midnightblue" stroke="midnightblue" points="450.046,-137.014 458.699,-130.902 448.123,-130.283 450.046,-137.014"/>
</g>
<!-- Node11 -->
<g id="node11" class="node"><title>Node11</title>
<g id="a_node11"><a xlink:href="ccdensity_2globals_8h.html" target="_top" xlink:title="Enter brief description of file here.">
<polygon fill="none" stroke="black" points="232.355,-112.5 232.355,-131.5 288.355,-131.5 288.355,-112.5 232.355,-112.5"/>
<text text-anchor="middle" x="260.355" y="-119.5" font-family="Helvetica,sans-Serif" font-size="10.00">globals.h</text>
</a>
</g>
</g>
<!-- Node1&#45;&gt;Node11 -->
<g id="edge12" class="edge"><title>Node1&#45;&gt;Node11</title>
<path fill="none" stroke="midnightblue" d="M291.245,-168.083C286.073,-160.534 278.509,-149.495 272.16,-140.23"/>
<polygon fill="midnightblue" stroke="midnightblue" points="274.891,-138.022 266.351,-131.751 269.116,-141.979 274.891,-138.022"/>
</g>
<!-- Node3&#45;&gt;Node2 -->
<g id="edge3" class="edge"><title>Node3&#45;&gt;Node2</title>
<path fill="none" stroke="midnightblue" d="M121.412,-112.482C118.428,-103.513 113.898,-88.926 111.355,-76 108.338,-60.6682 106.542,-43.0281 105.526,-29.9966"/>
<polygon fill="midnightblue" stroke="midnightblue" points="109.009,-29.6373 104.822,-19.9048 102.026,-30.124 109.009,-29.6373"/>
</g>
<!-- Node4 -->
<g id="node4" class="node"><title>Node4</title>
<g id="a_node4"><a xlink:href="psio_8h_source.html" target="_top" xlink:title="libpsio/psio.h">
<polygon fill="none" stroke="black" points="120.355,-56.5 120.355,-75.5 194.355,-75.5 194.355,-56.5 120.355,-56.5"/>
<text text-anchor="middle" x="157.355" y="-63.5" font-family="Helvetica,sans-Serif" font-size="10.00">libpsio/psio.h</text>
</a>
</g>
</g>
<!-- Node3&#45;&gt;Node4 -->
<g id="edge4" class="edge"><title>Node3&#45;&gt;Node4</title>
<path fill="none" stroke="midnightblue" d="M129.804,-112.083C134.369,-104.613 141.023,-93.7244 146.648,-84.5199"/>
<polygon fill="midnightblue" stroke="midnightblue" points="149.779,-86.109 152.007,-75.7511 143.806,-82.4588 149.779,-86.109"/>
</g>
<!-- Node6 -->
<g id="node6" class="node"><title>Node6</title>
<g id="a_node6"><a xlink:href="libiwl_2config_8h_source.html" target="_top" xlink:title="config.h">
<polygon fill="none" stroke="black" points="12.8548,-56.5 12.8548,-75.5 63.8548,-75.5 63.8548,-56.5 12.8548,-56.5"/>
<text text-anchor="middle" x="38.3548" y="-63.5" font-family="Helvetica,sans-Serif" font-size="10.00">config.h</text>
</a>
</g>
</g>
<!-- Node3&#45;&gt;Node6 -->
<g id="edge7" class="edge"><title>Node3&#45;&gt;Node6</title>
<path fill="none" stroke="midnightblue" d="M110.537,-112.324C97.1218,-103.9 76.5307,-90.9709 60.7692,-81.0741"/>
<polygon fill="midnightblue" stroke="midnightblue" points="62.468,-78.0081 52.1379,-75.6545 58.7456,-83.9364 62.468,-78.0081"/>
</g>
<!-- Node4&#45;&gt;Node2 -->
<g id="edge5" class="edge"><title>Node4&#45;&gt;Node2</title>
<path fill="none" stroke="midnightblue" d="M148.603,-56.083C140.885,-48.2195 129.45,-36.5688 120.138,-27.0813"/>
<polygon fill="midnightblue" stroke="midnightblue" points="122.446,-24.4363 112.944,-19.7511 117.451,-29.3396 122.446,-24.4363"/>
</g>
<!-- Node5 -->
<g id="node5" class="node"><title>Node5</title>
<g id="a_node5"><a xlink:href="libpsio_2config_8h_source.html" target="_top" xlink:title="libpsio/config.h">
<polygon fill="none" stroke="black" points="144.355,-0.5 144.355,-19.5 226.355,-19.5 226.355,-0.5 144.355,-0.5"/>
<text text-anchor="middle" x="185.355" y="-7.5" font-family="Helvetica,sans-Serif" font-size="10.00">libpsio/config.h</text>
</a>
</g>
</g>
<!-- Node4&#45;&gt;Node5 -->
<g id="edge6" class="edge"><title>Node4&#45;&gt;Node5</title>
<path fill="none" stroke="midnightblue" d="M161.978,-56.083C165.811,-48.6913 171.379,-37.9533 176.119,-28.8111"/>
<polygon fill="midnightblue" stroke="midnightblue" points="179.321,-30.2398 180.817,-19.7511 173.107,-27.0175 179.321,-30.2398"/>
</g>
<!-- Node9 -->
<g id="node9" class="node"><title>Node9</title>
<polygon fill="none" stroke="#bfbfbf" points="451.855,-56.5 451.855,-75.5 492.855,-75.5 492.855,-56.5 451.855,-56.5"/>
<text text-anchor="middle" x="472.355" y="-63.5" font-family="Helvetica,sans-Serif" font-size="10.00">string</text>
</g>
<!-- Node8&#45;&gt;Node9 -->
<g id="edge10" class="edge"><title>Node8&#45;&gt;Node9</title>
<path fill="none" stroke="midnightblue" d="M421.155,-112.324C430.173,-104.341 443.761,-92.3128 454.673,-82.6529"/>
<polygon fill="midnightblue" stroke="midnightblue" points="457.208,-85.083 462.376,-75.8339 452.568,-79.8416 457.208,-85.083"/>
</g>
<!-- Node12 -->
<g id="node12" class="node"><title>Node12</title>
<g id="a_node12"><a xlink:href="psifiles_8h_source.html" target="_top" xlink:title="psifiles.h">
<polygon fill="none" stroke="black" points="432.355,-0.5 432.355,-19.5 488.355,-19.5 488.355,-0.5 432.355,-0.5"/>
<text text-anchor="middle" x="460.355" y="-7.5" font-family="Helvetica,sans-Serif" font-size="10.00">psifiles.h</text>
</a>
</g>
</g>
<!-- Node11&#45;&gt;Node12 -->
<g id="edge13" class="edge"><title>Node11&#45;&gt;Node12</title>
<path fill="none" stroke="midnightblue" d="M288.515,-114.072C324.46,-104.901 384.279,-88.4398 403.355,-76 422.537,-63.4906 439.101,-42.803 449.355,-28.1293"/>
<polygon fill="midnightblue" stroke="midnightblue" points="452.479,-29.7553 455.145,-19.5015 446.666,-25.8543 452.479,-29.7553"/>
</g>
<!-- Node13 -->
<g id="node13" class="node"><title>Node13</title>
<g id="a_node13"><a xlink:href="lib_2libdpd_2dpd_8h.html" target="_top" xlink:title="Enter brief description of file here.">
<polygon fill="none" stroke="black" points="325.855,-56.5 325.855,-75.5 394.855,-75.5 394.855,-56.5 325.855,-56.5"/>
<text text-anchor="middle" x="360.355" y="-63.5" font-family="Helvetica,sans-Serif" font-size="10.00">libdpd/dpd.h</text>
</a>
</g>
</g>
<!-- Node11&#45;&gt;Node13 -->
<g id="edge14" class="edge"><title>Node11&#45;&gt;Node13</title>
<path fill="none" stroke="midnightblue" d="M276.422,-112.324C292.313,-103.743 316.862,-90.486 335.313,-80.5224"/>
<polygon fill="midnightblue" stroke="midnightblue" points="337.192,-83.4857 344.328,-75.6545 333.866,-77.3264 337.192,-83.4857"/>
</g>
<!-- Node11&#45;&gt;Node4 -->
<g id="edge20" class="edge"><title>Node11&#45;&gt;Node4</title>
<path fill="none" stroke="midnightblue" d="M243.806,-112.324C227.363,-103.703 201.92,-90.3643 182.886,-80.3855"/>
<polygon fill="midnightblue" stroke="midnightblue" points="184.344,-77.198 173.862,-75.6545 181.094,-83.3977 184.344,-77.198"/>
</g>
<!-- Node16 -->
<g id="node16" class="node"><title>Node16</title>
<g id="a_node16"><a xlink:href="libciomr_8h_source.html" target="_top" xlink:title="libciomr/libciomr.h">
<polygon fill="none" stroke="black" points="212.855,-56.5 212.855,-75.5 307.855,-75.5 307.855,-56.5 212.855,-56.5"/>
<text text-anchor="middle" x="260.355" y="-63.5" font-family="Helvetica,sans-Serif" font-size="10.00">libciomr/libciomr.h</text>
</a>
</g>
</g>
<!-- Node11&#45;&gt;Node16 -->
<g id="edge21" class="edge"><title>Node11&#45;&gt;Node16</title>
<path fill="none" stroke="midnightblue" d="M260.355,-112.083C260.355,-105.006 260.355,-94.8611 260.355,-85.9865"/>
<polygon fill="midnightblue" stroke="midnightblue" points="263.855,-85.751 260.355,-75.7511 256.855,-85.7511 263.855,-85.751"/>
</g>
<!-- Node13&#45;&gt;Node2 -->
<g id="edge15" class="edge"><title>Node13&#45;&gt;Node2</title>
<path fill="none" stroke="midnightblue" d="M325.771,-57.9076C322.588,-57.2604 319.412,-56.6167 316.355,-56 239.095,-40.4152 216.76,-39.5021 136.104,-20.0056"/>
<polygon fill="midnightblue" stroke="midnightblue" points="136.516,-16.5034 125.971,-17.5336 134.857,-23.304 136.516,-16.5034"/>
</g>
<!-- Node13&#45;&gt;Node12 -->
<g id="edge16" class="edge"><title>Node13&#45;&gt;Node12</title>
<path fill="none" stroke="midnightblue" d="M376.422,-56.324C392.313,-47.7428 416.862,-34.486 435.313,-24.5224"/>
<polygon fill="midnightblue" stroke="midnightblue" points="437.192,-27.4857 444.328,-19.6545 433.866,-21.3264 437.192,-27.4857"/>
</g>
<!-- Node13&#45;&gt;Node5 -->
<g id="edge17" class="edge"><title>Node13&#45;&gt;Node5</title>
<path fill="none" stroke="midnightblue" d="M332.626,-56.4435C302.929,-47.2801 255.639,-32.6876 222.685,-22.5192"/>
<polygon fill="midnightblue" stroke="midnightblue" points="223.542,-19.1206 212.954,-19.5164 221.478,-25.8094 223.542,-19.1206"/>
</g>
<!-- Node14 -->
<g id="node14" class="node"><title>Node14</title>
<polygon fill="none" stroke="#bfbfbf" points="306.355,-0.5 306.355,-19.5 414.355,-19.5 414.355,-0.5 306.355,-0.5"/>
<text text-anchor="middle" x="360.355" y="-7.5" font-family="Helvetica,sans-Serif" font-size="10.00">boost/shared_ptr.hpp</text>
</g>
<!-- Node13&#45;&gt;Node14 -->
<g id="edge18" class="edge"><title>Node13&#45;&gt;Node14</title>
<path fill="none" stroke="midnightblue" d="M360.355,-56.083C360.355,-49.0059 360.355,-38.8611 360.355,-29.9865"/>
<polygon fill="midnightblue" stroke="midnightblue" points="363.855,-29.751 360.355,-19.7511 356.855,-29.7511 363.855,-29.751"/>
</g>
<!-- Node15 -->
<g id="node15" class="node"><title>Node15</title>
<polygon fill="none" stroke="#bfbfbf" points="244.355,-0.5 244.355,-19.5 288.355,-19.5 288.355,-0.5 244.355,-0.5"/>
<text text-anchor="middle" x="266.355" y="-7.5" font-family="Helvetica,sans-Serif" font-size="10.00">vector</text>
</g>
<!-- Node13&#45;&gt;Node15 -->
<g id="edge19" class="edge"><title>Node13&#45;&gt;Node15</title>
<path fill="none" stroke="midnightblue" d="M345.252,-56.324C330.451,-47.8215 307.661,-34.7288 290.373,-24.7975"/>
<polygon fill="midnightblue" stroke="midnightblue" points="291.835,-21.6009 281.42,-19.6545 288.348,-27.6707 291.835,-21.6009"/>
</g>
<!-- Node16&#45;&gt;Node2 -->
<g id="edge22" class="edge"><title>Node16&#45;&gt;Node2</title>
<path fill="none" stroke="midnightblue" d="M235.636,-56.4435C208.584,-47.0794 165.153,-32.0456 135.721,-21.8574"/>
<polygon fill="midnightblue" stroke="midnightblue" points="136.538,-18.4367 125.944,-18.473 134.248,-25.0516 136.538,-18.4367"/>
</g>
</g>
</svg>
        <g id="navigator" transform="translate(0 0)" fill="#404254">
                <rect fill="#f2f5e9" fill-opacity="0.5" stroke="#606060" stroke-width=".5" x="0" y="0" width="60" height="60"/>
                <use id="zoomplus" xlink:href="#zoomPlus" x="17" y="9" onmousedown="handleZoom(evt,'in')"/>
                <use id="zoomminus" xlink:href="#zoomMin" x="42" y="9" onmousedown="handleZoom(evt,'out')"/>
                <use id="reset" xlink:href="#resetDef" x="30" y="36" onmousedown="handleReset()"/>
                <g id="arrowUp" xlink:href="#dirArrow" transform="translate(30 24)" onmousedown="handlePan(0,-1)">
                  <use xlink:href="#rim" fill="#404040">
                        <set attributeName="fill" to="#808080" begin="arrowUp.mouseover" end="arrowUp.mouseout"/>
                  </use>
                  <path fill="none" stroke="white" stroke-width="1.5" d="M0,-3.0v7 M-2.5,-0.5L0,-3.0L2.5,-0.5"/>
                </g>
                <g id="arrowRight" xlink:href="#dirArrow" transform="rotate(90) translate(36 -43)" onmousedown="handlePan(1,0)">
                  <use xlink:href="#rim" fill="#404040">
                        <set attributeName="fill" to="#808080" begin="arrowRight.mouseover" end="arrowRight.mouseout"/>
                  </use>
                  <path fill="none" stroke="white" stroke-width="1.5" d="M0,-3.0v7 M-2.5,-0.5L0,-3.0L2.5,-0.5"/>
                </g>
                <g id="arrowDown" xlink:href="#dirArrow" transform="rotate(180) translate(-30 -48)" onmousedown="handlePan(0,1)">
                  <use xlink:href="#rim" fill="#404040">
                        <set attributeName="fill" to="#808080" begin="arrowDown.mouseover" end="arrowDown.mouseout"/>
                  </use>
                  <path fill="none" stroke="white" stroke-width="1.5" d="M0,-3.0v7 M-2.5,-0.5L0,-3.0L2.5,-0.5"/>
                </g>
                <g id="arrowLeft" xlink:href="#dirArrow" transform="rotate(270) translate(-36 17)" onmousedown="handlePan(-1,0)">
                  <use xlink:href="#rim" fill="#404040">
                        <set attributeName="fill" to="#808080" begin="arrowLeft.mouseover" end="arrowLeft.mouseout"/>
                  </use>
                  <path fill="none" stroke="white" stroke-width="1.5" d="M0,-3.0v7 M-2.5,-0.5L0,-3.0L2.5,-0.5"/>
                </g>
        </g>
        <svg viewBox="0 0 15 15" width="100%" height="30px" preserveAspectRatio="xMaxYMin meet">
         <g id="arrow_out" transform="scale(0.3 0.3)">
          <a xlink:href="add__ref_8cc__incl_org.svg" target="_base">
           <rect id="button" ry="5" rx="5" y="6" x="6" height="38" width="38"
                fill="#f2f5e9" fill-opacity="0.5" stroke="#606060" stroke-width="1.0"/>
           <path id="arrow"
             d="M 11.500037,31.436501 C 11.940474,20.09759 22.043105,11.32322 32.158766,21.979434 L 37.068811,17.246167 C 37.068811,17.246167 37.088388,32 37.088388,32 L 22.160133,31.978069 C 22.160133,31.978069 26.997745,27.140456 26.997745,27.140456 C 18.528582,18.264221 13.291696,25.230495 11.500037,31.436501 z"
             style="fill:#404040;"/>
          </a>
         </g>
        </svg>
</svg>
