<?xml version="1.0" encoding="UTF-8" standalone="no"?>
<!DOCTYPE svg PUBLIC "-//W3C//DTD SVG 1.1//EN"
 "http://www.w3.org/Graphics/SVG/1.1/DTD/svg11.dtd">
<!-- Generated by graphviz version 2.30.1 (20140110.0959)
 -->
<!-- Title: transpert.cc Pages: 1 -->
<svg width="588pt" height="196pt"
 viewBox="0.00 0.00 588.40 196.00" xmlns="http://www.w3.org/2000/svg" xmlns:xlink="http://www.w3.org/1999/xlink">
<g id="graph0" class="graph" transform="scale(1 1) rotate(0) translate(4 192)">
<title>transpert.cc</title>
<!-- Node1 -->
<g id="node1" class="node"><title>Node1</title>
<polygon fill="#bfbfbf" stroke="black" points="212.4,-168.5 212.4,-187.5 280.4,-187.5 280.4,-168.5 212.4,-168.5"/>
<text text-anchor="middle" x="246.4" y="-175.5" font-family="Helvetica,sans-Serif" font-size="10.00">transpert.cc</text>
</g>
<!-- Node2 -->
<g id="node2" class="node"><title>Node2</title>
<polygon fill="none" stroke="#bfbfbf" points="137.9,-0.5 137.9,-19.5 180.9,-19.5 180.9,-0.5 137.9,-0.5"/>
<text text-anchor="middle" x="159.4" y="-7.5" font-family="Helvetica,sans-Serif" font-size="10.00">cstdio</text>
</g>
<!-- Node1&#45;&gt;Node2 -->
<g id="edge1" class="edge"><title>Node1&#45;&gt;Node2</title>
<path fill="none" stroke="midnightblue" d="M212.37,-175.772C152.495,-172.819 32.1873,-163.072 6.39976,-132 -9.58311,-112.742 8.53559,-73.5671 26.3998,-56 53.6436,-29.2092 97.3883,-18.3554 127.213,-13.9663"/>
<polygon fill="midnightblue" stroke="midnightblue" points="128.05,-17.3869 137.514,-12.6243 127.146,-10.4455 128.05,-17.3869"/>
</g>
<!-- Node3 -->
<g id="node3" class="node"><title>Node3</title>
<polygon fill="none" stroke="#bfbfbf" points="15.8998,-112.5 15.8998,-131.5 60.8998,-131.5 60.8998,-112.5 15.8998,-112.5"/>
<text text-anchor="middle" x="38.3998" y="-119.5" font-family="Helvetica,sans-Serif" font-size="10.00">cstdlib</text>
</g>
<!-- Node1&#45;&gt;Node3 -->
<g id="edge2" class="edge"><title>Node1&#45;&gt;Node3</title>
<path fill="none" stroke="midnightblue" d="M212.268,-168.529C178.774,-160.161 126,-146.824 71.0287,-132.121"/>
<polygon fill="midnightblue" stroke="midnightblue" points="71.6724,-128.67 61.107,-129.459 69.8582,-135.431 71.6724,-128.67"/>
</g>
<!-- Node4 -->
<g id="node4" class="node"><title>Node4</title>
<polygon fill="none" stroke="#bfbfbf" points="79.3998,-112.5 79.3998,-131.5 125.4,-131.5 125.4,-112.5 79.3998,-112.5"/>
<text text-anchor="middle" x="102.4" y="-119.5" font-family="Helvetica,sans-Serif" font-size="10.00">cstring</text>
</g>
<!-- Node1&#45;&gt;Node4 -->
<g id="edge3" class="edge"><title>Node1&#45;&gt;Node4</title>
<path fill="none" stroke="midnightblue" d="M223.583,-168.444C199.568,-159.438 161.571,-145.189 134.531,-135.049"/>
<polygon fill="midnightblue" stroke="midnightblue" points="135.702,-131.751 125.11,-131.516 133.245,-138.305 135.702,-131.751"/>
</g>
<!-- Node5 -->
<g id="node5" class="node"><title>Node5</title>
<g id="a_node5"><a xlink:href="libciomr_8h_source.html" target="_top" xlink:title="libciomr/libciomr.h">
<polygon fill="none" stroke="black" points="35.8998,-56.5 35.8998,-75.5 130.9,-75.5 130.9,-56.5 35.8998,-56.5"/>
<text text-anchor="middle" x="83.3998" y="-63.5" font-family="Helvetica,sans-Serif" font-size="10.00">libciomr/libciomr.h</text>
</a>
</g>
</g>
<!-- Node1&#45;&gt;Node5 -->
<g id="edge4" class="edge"><title>Node1&#45;&gt;Node5</title>
<path fill="none" stroke="midnightblue" d="M231.427,-168.396C216.313,-159.595 192.409,-145.356 172.4,-132 147.871,-115.627 120.616,-95.4073 102.81,-81.908"/>
<polygon fill="midnightblue" stroke="midnightblue" points="104.499,-78.7948 94.4238,-75.5173 100.256,-84.3624 104.499,-78.7948"/>
</g>
<!-- Node6 -->
<g id="node6" class="node"><title>Node6</title>
<g id="a_node6"><a xlink:href="qt_8h.html" target="_top" xlink:title="Header file for the Quantum Trio LibraryDavid Sherrill 1994.">
<polygon fill="none" stroke="black" points="181.4,-112.5 181.4,-131.5 235.4,-131.5 235.4,-112.5 181.4,-112.5"/>
<text text-anchor="middle" x="208.4" y="-119.5" font-family="Helvetica,sans-Serif" font-size="10.00">libqt/qt.h</text>
</a>
</g>
</g>
<!-- Node1&#45;&gt;Node6 -->
<g id="edge6" class="edge"><title>Node1&#45;&gt;Node6</title>
<path fill="none" stroke="midnightblue" d="M240.125,-168.083C234.757,-160.455 226.882,-149.264 220.321,-139.941"/>
<polygon fill="midnightblue" stroke="midnightblue" points="223.175,-137.915 214.558,-131.751 217.451,-141.943 223.175,-137.915"/>
</g>
<!-- Node8 -->
<g id="node8" class="node"><title>Node8</title>
<g id="a_node8"><a xlink:href="iwl_8h_source.html" target="_top" xlink:title="libiwl/iwl.h">
<polygon fill="none" stroke="black" points="253.4,-112.5 253.4,-131.5 315.4,-131.5 315.4,-112.5 253.4,-112.5"/>
<text text-anchor="middle" x="284.4" y="-119.5" font-family="Helvetica,sans-Serif" font-size="10.00">libiwl/iwl.h</text>
</a>
</g>
</g>
<!-- Node1&#45;&gt;Node8 -->
<g id="edge9" class="edge"><title>Node1&#45;&gt;Node8</title>
<path fill="none" stroke="midnightblue" d="M252.675,-168.083C258.042,-160.455 265.917,-149.264 272.478,-139.941"/>
<polygon fill="midnightblue" stroke="midnightblue" points="275.349,-141.943 278.242,-131.751 269.624,-137.915 275.349,-141.943"/>
</g>
<!-- Node12 -->
<g id="node12" class="node"><title>Node12</title>
<g id="a_node12"><a xlink:href="psifiles_8h_source.html" target="_top" xlink:title="psifiles.h">
<polygon fill="none" stroke="black" points="447.4,-56.5 447.4,-75.5 503.4,-75.5 503.4,-56.5 447.4,-56.5"/>
<text text-anchor="middle" x="475.4" y="-63.5" font-family="Helvetica,sans-Serif" font-size="10.00">psifiles.h</text>
</a>
</g>
</g>
<!-- Node1&#45;&gt;Node12 -->
<g id="edge15" class="edge"><title>Node1&#45;&gt;Node12</title>
<path fill="none" stroke="midnightblue" d="M261.188,-168.392C287.722,-153 342.499,-121.487 362.4,-112 388.468,-99.5722 418.934,-87.5801 441.658,-79.1049"/>
<polygon fill="midnightblue" stroke="midnightblue" points="443.029,-82.3297 451.199,-75.5835 440.605,-75.7627 443.029,-82.3297"/>
</g>
<!-- Node13 -->
<g id="node13" class="node"><title>Node13</title>
<g id="a_node13"><a xlink:href="attic_2response_2MOInfo_8h.html" target="_top" xlink:title="MOInfo structure with checkpoint information about MO&#39;s.">
<polygon fill="none" stroke="black" points="371.9,-112.5 371.9,-131.5 428.9,-131.5 428.9,-112.5 371.9,-112.5"/>
<text text-anchor="middle" x="400.4" y="-119.5" font-family="Helvetica,sans-Serif" font-size="10.00">MOInfo.h</text>
</a>
</g>
</g>
<!-- Node1&#45;&gt;Node13 -->
<g id="edge16" class="edge"><title>Node1&#45;&gt;Node13</title>
<path fill="none" stroke="midnightblue" d="M270.802,-168.444C296.596,-159.399 337.476,-145.064 366.418,-134.916"/>
<polygon fill="midnightblue" stroke="midnightblue" points="367.834,-138.128 376.112,-131.516 365.517,-131.523 367.834,-138.128"/>
</g>
<!-- Node14 -->
<g id="node14" class="node"><title>Node14</title>
<g id="a_node14"><a xlink:href="attic_2response_2Params_8h.html" target="_top" xlink:title="Enter brief description of file here.">
<polygon fill="none" stroke="black" points="521.9,-112.5 521.9,-131.5 580.9,-131.5 580.9,-112.5 521.9,-112.5"/>
<text text-anchor="middle" x="551.4" y="-119.5" font-family="Helvetica,sans-Serif" font-size="10.00">Params.h</text>
</a>
</g>
</g>
<!-- Node1&#45;&gt;Node14 -->
<g id="edge17" class="edge"><title>Node1&#45;&gt;Node14</title>
<path fill="none" stroke="midnightblue" d="M280.53,-171.888C329.429,-164.421 422.461,-149.678 511.62,-132.055"/>
<polygon fill="midnightblue" stroke="midnightblue" points="512.505,-135.448 521.628,-130.061 511.137,-128.583 512.505,-135.448"/>
</g>
<!-- Node16 -->
<g id="node16" class="node"><title>Node16</title>
<g id="a_node16"><a xlink:href="attic_2response_2globals_8h.html" target="_top" xlink:title="Enter brief description of file here.">
<polygon fill="none" stroke="black" points="447.4,-112.5 447.4,-131.5 503.4,-131.5 503.4,-112.5 447.4,-112.5"/>
<text text-anchor="middle" x="475.4" y="-119.5" font-family="Helvetica,sans-Serif" font-size="10.00">globals.h</text>
</a>
</g>
</g>
<!-- Node1&#45;&gt;Node16 -->
<g id="edge19" class="edge"><title>Node1&#45;&gt;Node16</title>
<path fill="none" stroke="midnightblue" d="M280.56,-168.964C318.777,-159.972 382.528,-144.962 437.4,-132 437.499,-131.977 437.598,-131.953 437.697,-131.93"/>
<polygon fill="midnightblue" stroke="midnightblue" points="438.253,-135.395 447.179,-129.688 436.642,-128.583 438.253,-135.395"/>
</g>
<!-- Node5&#45;&gt;Node2 -->
<g id="edge5" class="edge"><title>Node5&#45;&gt;Node2</title>
<path fill="none" stroke="midnightblue" d="M95.6105,-56.324C107.176,-48.1066 124.775,-35.6017 138.56,-25.8069"/>
<polygon fill="midnightblue" stroke="midnightblue" points="140.842,-28.4791 146.967,-19.8339 136.788,-22.7729 140.842,-28.4791"/>
</g>
<!-- Node6&#45;&gt;Node2 -->
<g id="edge7" class="edge"><title>Node6&#45;&gt;Node2</title>
<path fill="none" stroke="midnightblue" d="M201.332,-112.177C194.626,-103.436 184.668,-89.4463 178.4,-76 171.415,-61.0149 166.37,-42.8792 163.242,-29.5761"/>
<polygon fill="midnightblue" stroke="midnightblue" points="166.639,-28.7237 161.065,-19.7133 159.803,-30.2327 166.639,-28.7237"/>
</g>
<!-- Node7 -->
<g id="node7" class="node"><title>Node7</title>
<polygon fill="none" stroke="#bfbfbf" points="187.9,-56.5 187.9,-75.5 228.9,-75.5 228.9,-56.5 187.9,-56.5"/>
<text text-anchor="middle" x="208.4" y="-63.5" font-family="Helvetica,sans-Serif" font-size="10.00">string</text>
</g>
<!-- Node6&#45;&gt;Node7 -->
<g id="edge8" class="edge"><title>Node6&#45;&gt;Node7</title>
<path fill="none" stroke="midnightblue" d="M208.4,-112.083C208.4,-105.006 208.4,-94.8611 208.4,-85.9865"/>
<polygon fill="midnightblue" stroke="midnightblue" points="211.9,-85.751 208.4,-75.7511 204.9,-85.7511 211.9,-85.751"/>
</g>
<!-- Node8&#45;&gt;Node2 -->
<g id="edge10" class="edge"><title>Node8&#45;&gt;Node2</title>
<path fill="none" stroke="midnightblue" d="M279.606,-112.102C272.034,-98.6681 256.218,-72.9774 237.4,-56 222.884,-42.9047 203.939,-31.8657 188.355,-23.9986"/>
<polygon fill="midnightblue" stroke="midnightblue" points="189.678,-20.7504 179.155,-19.5202 186.614,-27.0442 189.678,-20.7504"/>
</g>
<!-- Node9 -->
<g id="node9" class="node"><title>Node9</title>
<g id="a_node9"><a xlink:href="psio_8h_source.html" target="_top" xlink:title="libpsio/psio.h">
<polygon fill="none" stroke="black" points="285.4,-56.5 285.4,-75.5 359.4,-75.5 359.4,-56.5 285.4,-56.5"/>
<text text-anchor="middle" x="322.4" y="-63.5" font-family="Helvetica,sans-Serif" font-size="10.00">libpsio/psio.h</text>
</a>
</g>
</g>
<!-- Node8&#45;&gt;Node9 -->
<g id="edge11" class="edge"><title>Node8&#45;&gt;Node9</title>
<path fill="none" stroke="midnightblue" d="M290.675,-112.083C296.042,-104.455 303.917,-93.2645 310.478,-83.9408"/>
<polygon fill="midnightblue" stroke="midnightblue" points="313.349,-85.9434 316.242,-75.7511 307.624,-81.9149 313.349,-85.9434"/>
</g>
<!-- Node11 -->
<g id="node11" class="node"><title>Node11</title>
<g id="a_node11"><a xlink:href="libiwl_2config_8h_source.html" target="_top" xlink:title="config.h">
<polygon fill="none" stroke="black" points="377.9,-56.5 377.9,-75.5 428.9,-75.5 428.9,-56.5 377.9,-56.5"/>
<text text-anchor="middle" x="403.4" y="-63.5" font-family="Helvetica,sans-Serif" font-size="10.00">config.h</text>
</a>
</g>
</g>
<!-- Node8&#45;&gt;Node11 -->
<g id="edge14" class="edge"><title>Node8&#45;&gt;Node11</title>
<path fill="none" stroke="midnightblue" d="M303.256,-112.444C322.666,-103.636 353.13,-89.8116 375.364,-79.722"/>
<polygon fill="midnightblue" stroke="midnightblue" points="376.972,-82.836 384.632,-75.5164 374.079,-76.4615 376.972,-82.836"/>
</g>
<!-- Node9&#45;&gt;Node2 -->
<g id="edge12" class="edge"><title>Node9&#45;&gt;Node2</title>
<path fill="none" stroke="midnightblue" d="M296.572,-56.4435C267.86,-46.9316 221.49,-31.5697 190.728,-21.3787"/>
<polygon fill="midnightblue" stroke="midnightblue" points="191.536,-17.9593 180.942,-18.1368 189.334,-24.6041 191.536,-17.9593"/>
</g>
<!-- Node10 -->
<g id="node10" class="node"><title>Node10</title>
<g id="a_node10"><a xlink:href="libpsio_2config_8h_source.html" target="_top" xlink:title="libpsio/config.h">
<polygon fill="none" stroke="black" points="281.4,-0.5 281.4,-19.5 363.4,-19.5 363.4,-0.5 281.4,-0.5"/>
<text text-anchor="middle" x="322.4" y="-7.5" font-family="Helvetica,sans-Serif" font-size="10.00">libpsio/config.h</text>
</a>
</g>
</g>
<!-- Node9&#45;&gt;Node10 -->
<g id="edge13" class="edge"><title>Node9&#45;&gt;Node10</title>
<path fill="none" stroke="midnightblue" d="M322.4,-56.083C322.4,-49.0059 322.4,-38.8611 322.4,-29.9865"/>
<polygon fill="midnightblue" stroke="midnightblue" points="325.9,-29.751 322.4,-19.7511 318.9,-29.7511 325.9,-29.751"/>
</g>
<!-- Node15 -->
<g id="node15" class="node"><title>Node15</title>
<polygon fill="none" stroke="#bfbfbf" points="526.9,-56.5 526.9,-75.5 575.9,-75.5 575.9,-56.5 526.9,-56.5"/>
<text text-anchor="middle" x="551.4" y="-63.5" font-family="Helvetica,sans-Serif" font-size="10.00">string.h</text>
</g>
<!-- Node14&#45;&gt;Node15 -->
<g id="edge18" class="edge"><title>Node14&#45;&gt;Node15</title>
<path fill="none" stroke="midnightblue" d="M551.4,-112.083C551.4,-105.006 551.4,-94.8611 551.4,-85.9865"/>
<polygon fill="midnightblue" stroke="midnightblue" points="554.9,-85.751 551.4,-75.7511 547.9,-85.7511 554.9,-85.751"/>
</g>
<!-- Node16&#45;&gt;Node12 -->
<g id="edge20" class="edge"><title>Node16&#45;&gt;Node12</title>
<path fill="none" stroke="midnightblue" d="M475.4,-112.083C475.4,-105.006 475.4,-94.8611 475.4,-85.9865"/>
<polygon fill="midnightblue" stroke="midnightblue" points="478.9,-85.751 475.4,-75.7511 471.9,-85.7511 478.9,-85.751"/>
</g>
</g>
</svg>
