<?xml version="1.0" encoding="UTF-8" standalone="no"?>
<!DOCTYPE svg PUBLIC "-//W3C//DTD SVG 1.1//EN"
 "http://www.w3.org/Graphics/SVG/1.1/DTD/svg11.dtd">
<!-- Generated by graphviz version 2.30.1 (20140110.0959)
 -->
<!-- Title: get_moinfo.cc Pages: 1 -->
<svg width="714pt" height="140pt"
 viewBox="0.00 0.00 714.19 140.00" xmlns="http://www.w3.org/2000/svg" xmlns:xlink="http://www.w3.org/1999/xlink">
<g id="graph0" class="graph" transform="scale(1 1) rotate(0) translate(4 136)">
<title>get_moinfo.cc</title>
<!-- Node1 -->
<g id="node1" class="node"><title>Node1</title>
<polygon fill="#bfbfbf" stroke="black" points="318.189,-112.5 318.189,-131.5 396.189,-131.5 396.189,-112.5 318.189,-112.5"/>
<text text-anchor="middle" x="357.189" y="-119.5" font-family="Helvetica,sans-Serif" font-size="10.00">get_moinfo.cc</text>
</g>
<!-- Node2 -->
<g id="node2" class="node"><title>Node2</title>
<polygon fill="none" stroke="#bfbfbf" points="51.6893,-0.5 51.6893,-19.5 94.6893,-19.5 94.6893,-0.5 51.6893,-0.5"/>
<text text-anchor="middle" x="73.1893" y="-7.5" font-family="Helvetica,sans-Serif" font-size="10.00">cstdio</text>
</g>
<!-- Node1&#45;&gt;Node2 -->
<g id="edge1" class="edge"><title>Node1&#45;&gt;Node2</title>
<path fill="none" stroke="midnightblue" d="M317.934,-118.86C230.466,-113.69 25.6197,-99.2084 5.18931,-76 -11.8218,-56.6757 17.9023,-36.5033 43.2545,-23.8548"/>
<polygon fill="midnightblue" stroke="midnightblue" points="44.7755,-27.0072 52.3023,-19.5508 41.7685,-20.6859 44.7755,-27.0072"/>
</g>
<!-- Node3 -->
<g id="node3" class="node"><title>Node3</title>
<polygon fill="none" stroke="#bfbfbf" points="292.689,-56.5 292.689,-75.5 337.689,-75.5 337.689,-56.5 292.689,-56.5"/>
<text text-anchor="middle" x="315.189" y="-63.5" font-family="Helvetica,sans-Serif" font-size="10.00">cstdlib</text>
</g>
<!-- Node1&#45;&gt;Node3 -->
<g id="edge2" class="edge"><title>Node1&#45;&gt;Node3</title>
<path fill="none" stroke="midnightblue" d="M350.254,-112.083C344.26,-104.377 335.437,-93.0333 328.142,-83.6531"/>
<polygon fill="midnightblue" stroke="midnightblue" points="330.898,-81.4958 321.996,-75.7511 325.372,-85.7934 330.898,-81.4958"/>
</g>
<!-- Node4 -->
<g id="node4" class="node"><title>Node4</title>
<g id="a_node4"><a xlink:href="libciomr_8h_source.html" target="_top" xlink:title="libciomr/libciomr.h">
<polygon fill="none" stroke="black" points="14.6893,-56.5 14.6893,-75.5 109.689,-75.5 109.689,-56.5 14.6893,-56.5"/>
<text text-anchor="middle" x="62.1893" y="-63.5" font-family="Helvetica,sans-Serif" font-size="10.00">libciomr/libciomr.h</text>
</a>
</g>
</g>
<!-- Node1&#45;&gt;Node4 -->
<g id="edge3" class="edge"><title>Node1&#45;&gt;Node4</title>
<path fill="none" stroke="midnightblue" d="M318.016,-113.829C267.006,-104.492 177.476,-88.1033 119.008,-77.4007"/>
<polygon fill="midnightblue" stroke="midnightblue" points="119.294,-73.895 108.827,-75.5371 118.034,-80.7806 119.294,-73.895"/>
</g>
<!-- Node5 -->
<g id="node5" class="node"><title>Node5</title>
<g id="a_node5"><a xlink:href="psio_8h_source.html" target="_top" xlink:title="libpsio/psio.h">
<polygon fill="none" stroke="black" points="128.189,-56.5 128.189,-75.5 202.189,-75.5 202.189,-56.5 128.189,-56.5"/>
<text text-anchor="middle" x="165.189" y="-63.5" font-family="Helvetica,sans-Serif" font-size="10.00">libpsio/psio.h</text>
</a>
</g>
</g>
<!-- Node1&#45;&gt;Node5 -->
<g id="edge5" class="edge"><title>Node1&#45;&gt;Node5</title>
<path fill="none" stroke="midnightblue" d="M326.766,-112.444C293.904,-103.201 241.405,-88.4356 205.215,-78.2572"/>
<polygon fill="midnightblue" stroke="midnightblue" points="206.044,-74.8547 195.47,-75.5164 204.149,-81.5932 206.044,-74.8547"/>
</g>
<!-- Node7 -->
<g id="node7" class="node"><title>Node7</title>
<g id="a_node7"><a xlink:href="chkpt_8h_source.html" target="_top" xlink:title="libchkpt/chkpt.h">
<polygon fill="none" stroke="black" points="356.189,-56.5 356.189,-75.5 442.189,-75.5 442.189,-56.5 356.189,-56.5"/>
<text text-anchor="middle" x="399.189" y="-63.5" font-family="Helvetica,sans-Serif" font-size="10.00">libchkpt/chkpt.h</text>
</a>
</g>
</g>
<!-- Node1&#45;&gt;Node7 -->
<g id="edge8" class="edge"><title>Node1&#45;&gt;Node7</title>
<path fill="none" stroke="midnightblue" d="M364.125,-112.083C370.118,-104.377 378.941,-93.0333 386.237,-83.6531"/>
<polygon fill="midnightblue" stroke="midnightblue" points="389.006,-85.7934 392.383,-75.7511 383.481,-81.4958 389.006,-85.7934"/>
</g>
<!-- Node8 -->
<g id="node8" class="node"><title>Node8</title>
<g id="a_node8"><a xlink:href="qt_8h.html" target="_top" xlink:title="Header file for the Quantum Trio LibraryDavid Sherrill 1994.">
<polygon fill="none" stroke="black" points="220.189,-56.5 220.189,-75.5 274.189,-75.5 274.189,-56.5 220.189,-56.5"/>
<text text-anchor="middle" x="247.189" y="-63.5" font-family="Helvetica,sans-Serif" font-size="10.00">libqt/qt.h</text>
</a>
</g>
</g>
<!-- Node1&#45;&gt;Node8 -->
<g id="edge9" class="edge"><title>Node1&#45;&gt;Node8</title>
<path fill="none" stroke="midnightblue" d="M339.516,-112.324C321.795,-103.625 294.286,-90.1202 273.901,-80.113"/>
<polygon fill="midnightblue" stroke="midnightblue" points="275.338,-76.9195 264.819,-75.6545 272.253,-83.2031 275.338,-76.9195"/>
</g>
<!-- Node10 -->
<g id="node10" class="node"><title>Node10</title>
<g id="a_node10"><a xlink:href="psifiles_8h_source.html" target="_top" xlink:title="psifiles.h">
<polygon fill="none" stroke="black" points="470.189,-0.5 470.189,-19.5 526.189,-19.5 526.189,-0.5 470.189,-0.5"/>
<text text-anchor="middle" x="498.189" y="-7.5" font-family="Helvetica,sans-Serif" font-size="10.00">psifiles.h</text>
</a>
</g>
</g>
<!-- Node1&#45;&gt;Node10 -->
<g id="edge12" class="edge"><title>Node1&#45;&gt;Node10</title>
<path fill="none" stroke="midnightblue" d="M383.522,-112.439C403.568,-105.017 431.05,-92.8129 451.189,-76 467.171,-62.658 480.516,-42.7316 488.852,-28.4613"/>
<polygon fill="midnightblue" stroke="midnightblue" points="491.962,-30.071 493.795,-19.6359 485.855,-26.6506 491.962,-30.071"/>
</g>
<!-- Node11 -->
<g id="node11" class="node"><title>Node11</title>
<g id="a_node11"><a xlink:href="attic_2response_2MOInfo_8h.html" target="_top" xlink:title="MOInfo structure with checkpoint information about MO&#39;s.">
<polygon fill="none" stroke="black" points="572.689,-56.5 572.689,-75.5 629.689,-75.5 629.689,-56.5 572.689,-56.5"/>
<text text-anchor="middle" x="601.189" y="-63.5" font-family="Helvetica,sans-Serif" font-size="10.00">MOInfo.h</text>
</a>
</g>
</g>
<!-- Node1&#45;&gt;Node11 -->
<g id="edge13" class="edge"><title>Node1&#45;&gt;Node11</title>
<path fill="none" stroke="midnightblue" d="M396.343,-112.66C435.792,-104.21 498.669,-90.6126 562.701,-76.0802"/>
<polygon fill="midnightblue" stroke="midnightblue" points="563.594,-79.4666 572.568,-73.8353 562.041,-72.641 563.594,-79.4666"/>
</g>
<!-- Node12 -->
<g id="node12" class="node"><title>Node12</title>
<g id="a_node12"><a xlink:href="attic_2response_2Params_8h.html" target="_top" xlink:title="Enter brief description of file here.">
<polygon fill="none" stroke="black" points="647.689,-56.5 647.689,-75.5 706.689,-75.5 706.689,-56.5 647.689,-56.5"/>
<text text-anchor="middle" x="677.189" y="-63.5" font-family="Helvetica,sans-Serif" font-size="10.00">Params.h</text>
</a>
</g>
</g>
<!-- Node1&#45;&gt;Node12 -->
<g id="edge14" class="edge"><title>Node1&#45;&gt;Node12</title>
<path fill="none" stroke="midnightblue" d="M396.432,-115.576C448.972,-108.125 545.284,-93.8081 637.376,-76.0439"/>
<polygon fill="midnightblue" stroke="midnightblue" points="638.276,-79.4344 647.423,-74.0885 636.939,-72.5633 638.276,-79.4344"/>
</g>
<!-- Node14 -->
<g id="node14" class="node"><title>Node14</title>
<g id="a_node14"><a xlink:href="attic_2response_2globals_8h.html" target="_top" xlink:title="Enter brief description of file here.">
<polygon fill="none" stroke="black" points="498.189,-56.5 498.189,-75.5 554.189,-75.5 554.189,-56.5 498.189,-56.5"/>
<text text-anchor="middle" x="526.189" y="-63.5" font-family="Helvetica,sans-Serif" font-size="10.00">globals.h</text>
</a>
</g>
</g>
<!-- Node1&#45;&gt;Node14 -->
<g id="edge16" class="edge"><title>Node1&#45;&gt;Node14</title>
<path fill="none" stroke="midnightblue" d="M383.968,-112.444C412.522,-103.32 457.922,-88.8133 489.726,-78.6509"/>
<polygon fill="midnightblue" stroke="midnightblue" points="491.076,-81.8941 499.536,-75.5164 488.945,-75.2262 491.076,-81.8941"/>
</g>
<!-- Node4&#45;&gt;Node2 -->
<g id="edge4" class="edge"><title>Node4&#45;&gt;Node2</title>
<path fill="none" stroke="midnightblue" d="M64.0057,-56.083C65.4634,-48.9272 67.5599,-38.6353 69.3819,-29.6911"/>
<polygon fill="midnightblue" stroke="midnightblue" points="72.8401,-30.2485 71.4067,-19.7511 65.981,-28.8512 72.8401,-30.2485"/>
</g>
<!-- Node5&#45;&gt;Node2 -->
<g id="edge6" class="edge"><title>Node5&#45;&gt;Node2</title>
<path fill="none" stroke="midnightblue" d="M150.408,-56.324C135.922,-47.8215 113.616,-34.7288 96.6961,-24.7975"/>
<polygon fill="midnightblue" stroke="midnightblue" points="98.3299,-21.6981 87.934,-19.6545 94.7865,-27.735 98.3299,-21.6981"/>
</g>
<!-- Node6 -->
<g id="node6" class="node"><title>Node6</title>
<g id="a_node6"><a xlink:href="libpsio_2config_8h_source.html" target="_top" xlink:title="libpsio/config.h">
<polygon fill="none" stroke="black" points="124.189,-0.5 124.189,-19.5 206.189,-19.5 206.189,-0.5 124.189,-0.5"/>
<text text-anchor="middle" x="165.189" y="-7.5" font-family="Helvetica,sans-Serif" font-size="10.00">libpsio/config.h</text>
</a>
</g>
</g>
<!-- Node5&#45;&gt;Node6 -->
<g id="edge7" class="edge"><title>Node5&#45;&gt;Node6</title>
<path fill="none" stroke="midnightblue" d="M165.189,-56.083C165.189,-49.0059 165.189,-38.8611 165.189,-29.9865"/>
<polygon fill="midnightblue" stroke="midnightblue" points="168.689,-29.751 165.189,-19.7511 161.689,-29.7511 168.689,-29.751"/>
</g>
<!-- Node8&#45;&gt;Node2 -->
<g id="edge10" class="edge"><title>Node8&#45;&gt;Node2</title>
<path fill="none" stroke="midnightblue" d="M220.002,-56.5625C188.645,-46.8312 137.197,-30.8645 104.278,-20.6483"/>
<polygon fill="midnightblue" stroke="midnightblue" points="105.288,-17.297 94.6996,-17.6756 103.213,-23.9824 105.288,-17.297"/>
</g>
<!-- Node9 -->
<g id="node9" class="node"><title>Node9</title>
<polygon fill="none" stroke="#bfbfbf" points="226.689,-0.5 226.689,-19.5 267.689,-19.5 267.689,-0.5 226.689,-0.5"/>
<text text-anchor="middle" x="247.189" y="-7.5" font-family="Helvetica,sans-Serif" font-size="10.00">string</text>
</g>
<!-- Node8&#45;&gt;Node9 -->
<g id="edge11" class="edge"><title>Node8&#45;&gt;Node9</title>
<path fill="none" stroke="midnightblue" d="M247.189,-56.083C247.189,-49.0059 247.189,-38.8611 247.189,-29.9865"/>
<polygon fill="midnightblue" stroke="midnightblue" points="250.689,-29.751 247.189,-19.7511 243.689,-29.7511 250.689,-29.751"/>
</g>
<!-- Node13 -->
<g id="node13" class="node"><title>Node13</title>
<polygon fill="none" stroke="#bfbfbf" points="652.689,-0.5 652.689,-19.5 701.689,-19.5 701.689,-0.5 652.689,-0.5"/>
<text text-anchor="middle" x="677.189" y="-7.5" font-family="Helvetica,sans-Serif" font-size="10.00">string.h</text>
</g>
<!-- Node12&#45;&gt;Node13 -->
<g id="edge15" class="edge"><title>Node12&#45;&gt;Node13</title>
<path fill="none" stroke="midnightblue" d="M677.189,-56.083C677.189,-49.0059 677.189,-38.8611 677.189,-29.9865"/>
<polygon fill="midnightblue" stroke="midnightblue" points="680.689,-29.751 677.189,-19.7511 673.689,-29.7511 680.689,-29.751"/>
</g>
<!-- Node14&#45;&gt;Node10 -->
<g id="edge17" class="edge"><title>Node14&#45;&gt;Node10</title>
<path fill="none" stroke="midnightblue" d="M521.566,-56.083C517.733,-48.6913 512.165,-37.9533 507.425,-28.8111"/>
<polygon fill="midnightblue" stroke="midnightblue" points="510.437,-27.0175 502.727,-19.7511 504.223,-30.2398 510.437,-27.0175"/>
</g>
</g>
</svg>
