<?xml version="1.0" encoding="UTF-8" standalone="no"?>
<!DOCTYPE svg PUBLIC "-//W3C//DTD SVG 1.1//EN"
 "http://www.w3.org/Graphics/SVG/1.1/DTD/svg11.dtd">
<!-- Generated by graphviz version 2.30.1 (20140110.0959)
 -->
<!-- Title: opdm.cc Pages: 1 -->
<!--zoomable 320 -->
<svg id="main" version="1.1" xmlns="http://www.w3.org/2000/svg" xmlns:xlink="http://www.w3.org/1999/xlink" xml:space="preserve" onload="init(evt)">
        <defs>
                <circle id="rim" cx="0" cy="0" r="7"/>
                <circle id="rim2" cx="0" cy="0" r="3.5"/>
                <g id="zoomPlus">
                        <use xlink:href="#rim" fill="#404040">
                                <set attributeName="fill" to="#808080" begin="zoomplus.mouseover" end="zoomplus.mouseout"/>
                        </use>
                        <path d="M-4,0h8M0,-4v8" fill="none" stroke="white" stroke-width="1.5" pointer-events="none"/>
                </g>
                <g id="zoomMin">
                        <use xlink:href="#rim" fill="#404040">
                                <set attributeName="fill" to="#808080" begin="zoomminus.mouseover" end="zoomminus.mouseout"/>
                        </use>
                        <path d="M-4,0h8" fill="none" stroke="white" stroke-width="1.5" pointer-events="none"/>
                </g>
                <g id="dirArrow">
                        <path fill="none" stroke="white" stroke-width="1.5" d="M0,-3.0v7 M-2.5,-0.5L0,-3.0L2.5,-0.5"/>
                </g>
               <g id="resetDef">
                       <use xlink:href="#rim2" fill="#404040">
                               <set attributeName="fill" to="#808080" begin="reset.mouseover" end="reset.mouseout"/>
                       </use>
               </g>
        </defs>

<script type="text/javascript">
var viewWidth = 1758;
var viewHeight = 320;
var sectionId = 'dynsection-0';
</script>
<script xlink:href="svgpan.js"/>
<svg id="graph" class="graph">
<g id="viewport">
<title>opdm.cc</title>
<!-- Node1 -->
<g id="node1" class="node"><title>Node1</title>
<polygon fill="#bfbfbf" stroke="black" points="291,-292.5 291,-311.5 345,-311.5 345,-292.5 291,-292.5"/>
<text text-anchor="middle" x="318" y="-299.5" font-family="Helvetica,sans-Serif" font-size="10.00">opdm.cc</text>
</g>
<!-- Node2 -->
<g id="node2" class="node"><title>Node2</title>
<polygon fill="none" stroke="#bfbfbf" points="0,-236.5 0,-255.5 44,-255.5 44,-236.5 0,-236.5"/>
<text text-anchor="middle" x="22" y="-243.5" font-family="Helvetica,sans-Serif" font-size="10.00">cmath</text>
</g>
<!-- Node1&#45;&gt;Node2 -->
<g id="edge1" class="edge"><title>Node1&#45;&gt;Node2</title>
<path fill="none" stroke="midnightblue" d="M290.926,-296.987C243.52,-289.81 142.487,-273.847 58,-256 56.7236,-255.73 55.4239,-255.447 54.1125,-255.154"/>
<polygon fill="midnightblue" stroke="midnightblue" points="54.5613,-251.664 44.0253,-252.779 52.957,-258.478 54.5613,-251.664"/>
</g>
<!-- Node3 -->
<g id="node3" class="node"><title>Node3</title>
<polygon fill="none" stroke="#bfbfbf" points="1705.5,-0.5 1705.5,-19.5 1750.5,-19.5 1750.5,-0.5 1705.5,-0.5"/>
<text text-anchor="middle" x="1728" y="-7.5" font-family="Helvetica,sans-Serif" font-size="10.00">cstdlib</text>
</g>
<!-- Node1&#45;&gt;Node3 -->
<g id="edge2" class="edge"><title>Node1&#45;&gt;Node3</title>
<path fill="none" stroke="midnightblue" d="M345.142,-300.345C540.471,-295.458 1724,-262.884 1724,-191 1724,-191 1724,-191 1724,-133 1724,-96.3942 1725.82,-53.6435 1727.01,-29.7061"/>
<polygon fill="midnightblue" stroke="midnightblue" points="1730.51,-29.7419 1727.53,-19.5757 1723.52,-29.3832 1730.51,-29.7419"/>
</g>
<!-- Node4 -->
<g id="node4" class="node"><title>Node4</title>
<g id="a_node4"><a xlink:href="lib_2libdpd_2dpd_8h.html" target="_top" xlink:title="Enter brief description of file here.">
<polygon fill="none" stroke="black" points="492.5,-180.5 492.5,-199.5 561.5,-199.5 561.5,-180.5 492.5,-180.5"/>
<text text-anchor="middle" x="527" y="-187.5" font-family="Helvetica,sans-Serif" font-size="10.00">libdpd/dpd.h</text>
</a>
</g>
</g>
<!-- Node1&#45;&gt;Node4 -->
<g id="edge3" class="edge"><title>Node1&#45;&gt;Node4</title>
<path fill="none" stroke="midnightblue" d="M334.4,-292.368C370.722,-273.251 458.165,-227.229 501.614,-204.361"/>
<polygon fill="midnightblue" stroke="midnightblue" points="503.457,-207.346 510.676,-199.591 500.197,-201.152 503.457,-207.346"/>
</g>
<!-- Node6 -->
<g id="node6" class="node"><title>Node6</title>
<g id="a_node6"><a xlink:href="psifiles_8h_source.html" target="_top" xlink:title="psifiles.h">
<polygon fill="none" stroke="black" points="196,-124.5 196,-143.5 252,-143.5 252,-124.5 196,-124.5"/>
<text text-anchor="middle" x="224" y="-131.5" font-family="Helvetica,sans-Serif" font-size="10.00">psifiles.h</text>
</a>
</g>
</g>
<!-- Node1&#45;&gt;Node6 -->
<g id="edge9" class="edge"><title>Node1&#45;&gt;Node6</title>
<path fill="none" stroke="midnightblue" d="M290.99,-298.241C241.245,-291.538 136.115,-269.452 91,-200 66.4139,-162.151 138.148,-145.642 185.622,-139.006"/>
<polygon fill="midnightblue" stroke="midnightblue" points="186.169,-142.465 195.632,-137.701 185.264,-135.523 186.169,-142.465"/>
</g>
<!-- Node10 -->
<g id="node10" class="node"><title>Node10</title>
<g id="a_node10"><a xlink:href="attic_2mp2_2globals_8h.html" target="_top" xlink:title="Enter brief description of file here.">
<polygon fill="none" stroke="black" points="290,-236.5 290,-255.5 346,-255.5 346,-236.5 290,-236.5"/>
<text text-anchor="middle" x="318" y="-243.5" font-family="Helvetica,sans-Serif" font-size="10.00">globals.h</text>
</a>
</g>
</g>
<!-- Node1&#45;&gt;Node10 -->
<g id="edge10" class="edge"><title>Node1&#45;&gt;Node10</title>
<path fill="none" stroke="midnightblue" d="M318,-292.083C318,-285.006 318,-274.861 318,-265.986"/>
<polygon fill="midnightblue" stroke="midnightblue" points="321.5,-265.751 318,-255.751 314.5,-265.751 321.5,-265.751"/>
</g>
<!-- Node5 -->
<g id="node5" class="node"><title>Node5</title>
<polygon fill="none" stroke="#bfbfbf" points="467.5,-0.5 467.5,-19.5 510.5,-19.5 510.5,-0.5 467.5,-0.5"/>
<text text-anchor="middle" x="489" y="-7.5" font-family="Helvetica,sans-Serif" font-size="10.00">cstdio</text>
</g>
<!-- Node4&#45;&gt;Node5 -->
<g id="edge4" class="edge"><title>Node4&#45;&gt;Node5</title>
<path fill="none" stroke="midnightblue" d="M523.998,-180.461C520.921,-171.475 516.152,-156.874 513,-144 503.135,-103.699 495.447,-55.6151 491.636,-29.7291"/>
<polygon fill="midnightblue" stroke="midnightblue" points="495.094,-29.1911 490.204,-19.7926 488.166,-30.1896 495.094,-29.1911"/>
</g>
<!-- Node4&#45;&gt;Node6 -->
<g id="edge5" class="edge"><title>Node4&#45;&gt;Node6</title>
<path fill="none" stroke="midnightblue" d="M492.432,-181.828C489.246,-181.198 486.065,-180.58 483,-180 404.71,-165.195 312.748,-149.655 262.172,-141.267"/>
<polygon fill="midnightblue" stroke="midnightblue" points="262.465,-137.768 252.028,-139.589 261.322,-144.674 262.465,-137.768"/>
</g>
<!-- Node7 -->
<g id="node7" class="node"><title>Node7</title>
<g id="a_node7"><a xlink:href="libpsio_2config_8h_source.html" target="_top" xlink:title="libpsio/config.h">
<polygon fill="none" stroke="black" points="379,-124.5 379,-143.5 461,-143.5 461,-124.5 379,-124.5"/>
<text text-anchor="middle" x="420" y="-131.5" font-family="Helvetica,sans-Serif" font-size="10.00">libpsio/config.h</text>
</a>
</g>
</g>
<!-- Node4&#45;&gt;Node7 -->
<g id="edge6" class="edge"><title>Node4&#45;&gt;Node7</title>
<path fill="none" stroke="midnightblue" d="M509.809,-180.324C492.649,-171.664 466.054,-158.242 446.253,-148.249"/>
<polygon fill="midnightblue" stroke="midnightblue" points="447.653,-145.035 437.149,-143.655 444.499,-151.285 447.653,-145.035"/>
</g>
<!-- Node8 -->
<g id="node8" class="node"><title>Node8</title>
<polygon fill="none" stroke="#bfbfbf" points="555,-124.5 555,-143.5 663,-143.5 663,-124.5 555,-124.5"/>
<text text-anchor="middle" x="609" y="-131.5" font-family="Helvetica,sans-Serif" font-size="10.00">boost/shared_ptr.hpp</text>
</g>
<!-- Node4&#45;&gt;Node8 -->
<g id="edge7" class="edge"><title>Node4&#45;&gt;Node8</title>
<path fill="none" stroke="midnightblue" d="M540.175,-180.324C552.847,-171.979 572.233,-159.212 587.206,-149.352"/>
<polygon fill="midnightblue" stroke="midnightblue" points="589.431,-152.078 595.858,-143.655 585.581,-146.231 589.431,-152.078"/>
</g>
<!-- Node9 -->
<g id="node9" class="node"><title>Node9</title>
<polygon fill="none" stroke="#bfbfbf" points="927,-0.5 927,-19.5 971,-19.5 971,-0.5 927,-0.5"/>
<text text-anchor="middle" x="949" y="-7.5" font-family="Helvetica,sans-Serif" font-size="10.00">vector</text>
</g>
<!-- Node4&#45;&gt;Node9 -->
<g id="edge8" class="edge"><title>Node4&#45;&gt;Node9</title>
<path fill="none" stroke="midnightblue" d="M525.08,-180.288C520.397,-156.466 511.172,-89.775 546,-56 572.494,-30.3066 825.987,-16.5118 916.818,-12.3623"/>
<polygon fill="midnightblue" stroke="midnightblue" points="916.985,-15.8584 926.818,-11.9146 916.671,-8.86541 916.985,-15.8584"/>
</g>
<!-- Node11 -->
<g id="node11" class="node"><title>Node11</title>
<g id="a_node11"><a xlink:href="psio_8h_source.html" target="_top" xlink:title="libpsio/psio.h">
<polygon fill="none" stroke="black" points="400,-180.5 400,-199.5 474,-199.5 474,-180.5 400,-180.5"/>
<text text-anchor="middle" x="437" y="-187.5" font-family="Helvetica,sans-Serif" font-size="10.00">libpsio/psio.h</text>
</a>
</g>
</g>
<!-- Node10&#45;&gt;Node11 -->
<g id="edge11" class="edge"><title>Node10&#45;&gt;Node11</title>
<path fill="none" stroke="midnightblue" d="M336.856,-236.444C356.266,-227.636 386.73,-213.812 408.965,-203.722"/>
<polygon fill="midnightblue" stroke="midnightblue" points="410.572,-206.836 418.232,-199.516 407.68,-200.462 410.572,-206.836"/>
</g>
<!-- Node12 -->
<g id="node12" class="node"><title>Node12</title>
<g id="a_node12"><a xlink:href="libciomr_8h_source.html" target="_top" xlink:title="libciomr/libciomr.h">
<polygon fill="none" stroke="black" points="100.5,-180.5 100.5,-199.5 195.5,-199.5 195.5,-180.5 100.5,-180.5"/>
<text text-anchor="middle" x="148" y="-187.5" font-family="Helvetica,sans-Serif" font-size="10.00">libciomr/libciomr.h</text>
</a>
</g>
</g>
<!-- Node10&#45;&gt;Node12 -->
<g id="edge14" class="edge"><title>Node10&#45;&gt;Node12</title>
<path fill="none" stroke="midnightblue" d="M291.063,-236.444C262.34,-227.32 216.671,-212.813 184.679,-202.651"/>
<polygon fill="midnightblue" stroke="midnightblue" points="185.401,-199.208 174.811,-199.516 183.282,-205.88 185.401,-199.208"/>
</g>
<!-- Node10&#45;&gt;Node6 -->
<g id="edge16" class="edge"><title>Node10&#45;&gt;Node6</title>
<path fill="none" stroke="midnightblue" d="M294.817,-236.484C278.116,-229.216 256.268,-217.189 243,-200 232.683,-186.635 227.962,-167.81 225.805,-153.856"/>
<polygon fill="midnightblue" stroke="midnightblue" points="229.275,-153.399 224.567,-143.908 222.329,-154.263 229.275,-153.399"/>
</g>
<!-- Node13 -->
<g id="node13" class="node"><title>Node13</title>
<g id="a_node13"><a xlink:href="psi4-dec_8h_source.html" target="_top" xlink:title="psi4&#45;dec.h">
<polygon fill="none" stroke="black" points="902,-180.5 902,-199.5 964,-199.5 964,-180.5 902,-180.5"/>
<text text-anchor="middle" x="933" y="-187.5" font-family="Helvetica,sans-Serif" font-size="10.00">psi4&#45;dec.h</text>
</a>
</g>
</g>
<!-- Node10&#45;&gt;Node13 -->
<g id="edge17" class="edge"><title>Node10&#45;&gt;Node13</title>
<path fill="none" stroke="midnightblue" d="M346.023,-242.539C444.463,-233.896 774.774,-204.893 891.617,-194.634"/>
<polygon fill="midnightblue" stroke="midnightblue" points="892.266,-198.09 901.922,-193.729 891.654,-191.117 892.266,-198.09"/>
</g>
<!-- Node35 -->
<g id="node35" class="node"><title>Node35</title>
<g id="a_node35"><a xlink:href="bin_2attic_2mp2_2moinfo_8h.html" target="_top" xlink:title="Enter brief description of file here.">
<polygon fill="none" stroke="black" points="328,-180.5 328,-199.5 382,-199.5 382,-180.5 328,-180.5"/>
<text text-anchor="middle" x="355" y="-187.5" font-family="Helvetica,sans-Serif" font-size="10.00">moinfo.h</text>
</a>
</g>
</g>
<!-- Node10&#45;&gt;Node35 -->
<g id="edge51" class="edge"><title>Node10&#45;&gt;Node35</title>
<path fill="none" stroke="midnightblue" d="M324.11,-236.083C329.282,-228.534 336.846,-217.495 343.194,-208.23"/>
<polygon fill="midnightblue" stroke="midnightblue" points="346.239,-209.979 349.004,-199.751 340.464,-206.022 346.239,-209.979"/>
</g>
<!-- Node36 -->
<g id="node36" class="node"><title>Node36</title>
<g id="a_node36"><a xlink:href="mp2_2params_8h.html" target="_top" xlink:title="Enter brief description of file here.">
<polygon fill="none" stroke="black" points="252.5,-180.5 252.5,-199.5 309.5,-199.5 309.5,-180.5 252.5,-180.5"/>
<text text-anchor="middle" x="281" y="-187.5" font-family="Helvetica,sans-Serif" font-size="10.00">params.h</text>
</a>
</g>
</g>
<!-- Node10&#45;&gt;Node36 -->
<g id="edge52" class="edge"><title>Node10&#45;&gt;Node36</title>
<path fill="none" stroke="midnightblue" d="M311.89,-236.083C306.718,-228.534 299.154,-217.495 292.806,-208.23"/>
<polygon fill="midnightblue" stroke="midnightblue" points="295.536,-206.022 286.996,-199.751 289.761,-209.979 295.536,-206.022"/>
</g>
<!-- Node11&#45;&gt;Node5 -->
<g id="edge12" class="edge"><title>Node11&#45;&gt;Node5</title>
<path fill="none" stroke="midnightblue" d="M414.212,-180.471C398.674,-173.316 379.293,-161.435 370,-144 365.819,-136.156 366.492,-132.168 370,-124 389.274,-79.1184 436.105,-43.6704 464.938,-25.1503"/>
<polygon fill="midnightblue" stroke="midnightblue" points="466.976,-28.0037 473.609,-19.7416 463.272,-22.0644 466.976,-28.0037"/>
</g>
<!-- Node11&#45;&gt;Node7 -->
<g id="edge13" class="edge"><title>Node11&#45;&gt;Node7</title>
<path fill="none" stroke="midnightblue" d="M434.193,-180.083C431.915,-172.849 428.629,-162.409 425.792,-153.397"/>
<polygon fill="midnightblue" stroke="midnightblue" points="429.096,-152.239 422.755,-143.751 422.419,-154.341 429.096,-152.239"/>
</g>
<!-- Node12&#45;&gt;Node5 -->
<g id="edge15" class="edge"><title>Node12&#45;&gt;Node5</title>
<path fill="none" stroke="midnightblue" d="M151.103,-180.144C156.384,-166.293 168.39,-139.492 187,-124 269.596,-55.2442 398.143,-26.0629 457.277,-15.767"/>
<polygon fill="midnightblue" stroke="midnightblue" points="457.869,-19.2167 467.153,-14.1122 456.712,-12.313 457.869,-19.2167"/>
</g>
<!-- Node13&#45;&gt;Node8 -->
<g id="edge18" class="edge"><title>Node13&#45;&gt;Node8</title>
<path fill="none" stroke="midnightblue" d="M901.934,-183.822C848.643,-174.941 738.894,-156.649 669.901,-145.15"/>
<polygon fill="midnightblue" stroke="midnightblue" points="670.468,-141.696 660.029,-143.505 669.317,-148.601 670.468,-141.696"/>
</g>
<!-- Node14 -->
<g id="node14" class="node"><title>Node14</title>
<polygon fill="none" stroke="#bfbfbf" points="1014,-62.5 1014,-81.5 1146,-81.5 1146,-62.5 1014,-62.5"/>
<text text-anchor="middle" x="1080" y="-69.5" font-family="Helvetica,sans-Serif" font-size="10.00">boost/current_function.hpp</text>
</g>
<!-- Node13&#45;&gt;Node14 -->
<g id="edge19" class="edge"><title>Node13&#45;&gt;Node14</title>
<path fill="none" stroke="midnightblue" d="M944.049,-180.281C969.072,-160.535 1030.3,-112.218 1061.33,-87.7346"/>
<polygon fill="midnightblue" stroke="midnightblue" points="1063.54,-90.4471 1069.22,-81.5048 1059.2,-84.9519 1063.54,-90.4471"/>
</g>
<!-- Node15 -->
<g id="node15" class="node"><title>Node15</title>
<polygon fill="none" stroke="#bfbfbf" points="1508.5,-0.5 1508.5,-19.5 1549.5,-19.5 1549.5,-0.5 1508.5,-0.5"/>
<text text-anchor="middle" x="1529" y="-7.5" font-family="Helvetica,sans-Serif" font-size="10.00">string</text>
</g>
<!-- Node13&#45;&gt;Node15 -->
<g id="edge20" class="edge"><title>Node13&#45;&gt;Node15</title>
<path fill="none" stroke="midnightblue" d="M964.065,-188.703C1040.19,-187.402 1241.72,-180.487 1405,-144 1476.89,-127.935 1518.61,-148.25 1561,-88 1574.34,-69.0448 1558.48,-43.6841 1544.72,-27.3425"/>
<polygon fill="midnightblue" stroke="midnightblue" points="1547.16,-24.8212 1537.89,-19.7007 1541.95,-29.4878 1547.16,-24.8212"/>
</g>
<!-- Node16 -->
<g id="node16" class="node"><title>Node16</title>
<polygon fill="none" stroke="#bfbfbf" points="852.5,-124.5 852.5,-143.5 881.5,-143.5 881.5,-124.5 852.5,-124.5"/>
<text text-anchor="middle" x="867" y="-131.5" font-family="Helvetica,sans-Serif" font-size="10.00">list</text>
</g>
<!-- Node13&#45;&gt;Node16 -->
<g id="edge21" class="edge"><title>Node13&#45;&gt;Node16</title>
<path fill="none" stroke="midnightblue" d="M922.396,-180.324C912.544,-172.263 897.649,-160.077 885.785,-150.369"/>
<polygon fill="midnightblue" stroke="midnightblue" points="887.753,-147.457 877.797,-143.834 883.32,-152.875 887.753,-147.457"/>
</g>
<!-- Node17 -->
<g id="node17" class="node"><title>Node17</title>
<polygon fill="none" stroke="#bfbfbf" points="1164.5,-62.5 1164.5,-81.5 1199.5,-81.5 1199.5,-62.5 1164.5,-62.5"/>
<text text-anchor="middle" x="1182" y="-69.5" font-family="Helvetica,sans-Serif" font-size="10.00">map</text>
</g>
<!-- Node13&#45;&gt;Node17 -->
<g id="edge22" class="edge"><title>Node13&#45;&gt;Node17</title>
<path fill="none" stroke="midnightblue" d="M953.154,-180.476C992.444,-163.716 1081.84,-124.89 1155,-88 1155.98,-87.5051 1156.98,-86.9932 1157.98,-86.4703"/>
<polygon fill="midnightblue" stroke="midnightblue" points="1159.83,-89.4493 1166.98,-81.6251 1156.51,-83.2867 1159.83,-89.4493"/>
</g>
<!-- Node18 -->
<g id="node18" class="node"><title>Node18</title>
<g id="a_node18"><a xlink:href="liboptions_8h_source.html" target="_top" xlink:title="liboptions/liboptions.h">
<polygon fill="none" stroke="black" points="1286,-124.5 1286,-143.5 1396,-143.5 1396,-124.5 1286,-124.5"/>
<text text-anchor="middle" x="1341" y="-131.5" font-family="Helvetica,sans-Serif" font-size="10.00">liboptions/liboptions.h</text>
</a>
</g>
</g>
<!-- Node13&#45;&gt;Node18 -->
<g id="edge23" class="edge"><title>Node13&#45;&gt;Node18</title>
<path fill="none" stroke="midnightblue" d="M964.001,-184.897C1030.25,-176.128 1186.84,-155.403 1275.97,-143.607"/>
<polygon fill="midnightblue" stroke="midnightblue" points="1276.51,-147.066 1285.97,-142.284 1275.59,-140.126 1276.51,-147.066"/>
</g>
<!-- Node26 -->
<g id="node26" class="node"><title>Node26</title>
<g id="a_node26"><a xlink:href="include_2exception_8h_source.html" target="_top" xlink:title="exception.h">
<polygon fill="none" stroke="black" points="899.5,-124.5 899.5,-143.5 966.5,-143.5 966.5,-124.5 899.5,-124.5"/>
<text text-anchor="middle" x="933" y="-131.5" font-family="Helvetica,sans-Serif" font-size="10.00">exception.h</text>
</a>
</g>
</g>
<!-- Node13&#45;&gt;Node26 -->
<g id="edge38" class="edge"><title>Node13&#45;&gt;Node26</title>
<path fill="none" stroke="midnightblue" d="M933,-180.083C933,-173.006 933,-162.861 933,-153.986"/>
<polygon fill="midnightblue" stroke="midnightblue" points="936.5,-153.751 933,-143.751 929.5,-153.751 936.5,-153.751"/>
</g>
<!-- Node31 -->
<g id="node31" class="node"><title>Node31</title>
<g id="a_node31"><a xlink:href="typedefs_8h_source.html" target="_top" xlink:title="libmints/typedefs.h">
<polygon fill="none" stroke="black" points="681.5,-124.5 681.5,-143.5 780.5,-143.5 780.5,-124.5 681.5,-124.5"/>
<text text-anchor="middle" x="731" y="-131.5" font-family="Helvetica,sans-Serif" font-size="10.00">libmints/typedefs.h</text>
</a>
</g>
</g>
<!-- Node13&#45;&gt;Node31 -->
<g id="edge44" class="edge"><title>Node13&#45;&gt;Node31</title>
<path fill="none" stroke="midnightblue" d="M901.88,-180.681C867.238,-171.42 811.082,-156.408 772.667,-146.139"/>
<polygon fill="midnightblue" stroke="midnightblue" points="773.387,-142.708 762.822,-143.507 771.579,-149.471 773.387,-142.708"/>
</g>
<!-- Node18&#45;&gt;Node15 -->
<g id="edge24" class="edge"><title>Node18&#45;&gt;Node15</title>
<path fill="none" stroke="midnightblue" d="M1396.1,-128.425C1449.74,-122.693 1525.75,-110.733 1544,-88 1557.54,-71.1302 1548.5,-45.554 1539.7,-28.5684"/>
<polygon fill="midnightblue" stroke="midnightblue" points="1542.66,-26.6941 1534.71,-19.6909 1536.55,-30.1234 1542.66,-26.6941"/>
</g>
<!-- Node18&#45;&gt;Node9 -->
<g id="edge25" class="edge"><title>Node18&#45;&gt;Node9</title>
<path fill="none" stroke="midnightblue" d="M1319.98,-124.439C1300.65,-116.2 1271.52,-102.832 1248,-88 1228.74,-75.8546 1228.76,-65.3536 1208,-56 1131.67,-21.6017 1031.73,-13.3948 981.222,-11.5059"/>
<polygon fill="midnightblue" stroke="midnightblue" points="981.324,-8.00753 971.219,-11.1916 981.105,-15.0041 981.324,-8.00753"/>
</g>
<!-- Node18&#45;&gt;Node17 -->
<g id="edge26" class="edge"><title>Node18&#45;&gt;Node17</title>
<path fill="none" stroke="midnightblue" d="M1314.45,-124.434C1288.55,-115.885 1248.19,-102.032 1214,-88 1212.36,-87.3274 1210.68,-86.6156 1209,-85.8822"/>
<polygon fill="midnightblue" stroke="midnightblue" points="1210.02,-82.5025 1199.47,-81.5649 1207.13,-88.8789 1210.02,-82.5025"/>
</g>
<!-- Node19 -->
<g id="node19" class="node"><title>Node19</title>
<polygon fill="none" stroke="#bfbfbf" points="1256.5,-62.5 1256.5,-81.5 1323.5,-81.5 1323.5,-62.5 1256.5,-62.5"/>
<text text-anchor="middle" x="1290" y="-69.5" font-family="Helvetica,sans-Serif" font-size="10.00">exception.h</text>
</g>
<!-- Node18&#45;&gt;Node19 -->
<g id="edge27" class="edge"><title>Node18&#45;&gt;Node19</title>
<path fill="none" stroke="midnightblue" d="M1333.69,-124.403C1325.97,-115.314 1313.59,-100.756 1303.98,-89.4489"/>
<polygon fill="midnightblue" stroke="midnightblue" points="1306.44,-86.9332 1297.29,-81.5806 1301.1,-91.4668 1306.44,-86.9332"/>
</g>
<!-- Node20 -->
<g id="node20" class="node"><title>Node20</title>
<g id="a_node20"><a xlink:href="libutil_8h_source.html" target="_top" xlink:title="libutil/libutil.h">
<polygon fill="none" stroke="black" points="1462.5,-62.5 1462.5,-81.5 1535.5,-81.5 1535.5,-62.5 1462.5,-62.5"/>
<text text-anchor="middle" x="1499" y="-69.5" font-family="Helvetica,sans-Serif" font-size="10.00">libutil/libutil.h</text>
</a>
</g>
</g>
<!-- Node18&#45;&gt;Node20 -->
<g id="edge28" class="edge"><title>Node18&#45;&gt;Node20</title>
<path fill="none" stroke="midnightblue" d="M1363.64,-124.403C1390.74,-114.111 1436.31,-96.8064 1467,-85.1504"/>
<polygon fill="midnightblue" stroke="midnightblue" points="1468.3,-88.4028 1476.4,-81.5806 1465.81,-81.8587 1468.3,-88.4028"/>
</g>
<!-- Node22 -->
<g id="node22" class="node"><title>Node22</title>
<g id="a_node22"><a xlink:href="libutil_2ref_8h_source.html" target="_top" xlink:title="libutil/ref.h">
<polygon fill="none" stroke="black" points="1630,-62.5 1630,-81.5 1692,-81.5 1692,-62.5 1630,-62.5"/>
<text text-anchor="middle" x="1661" y="-69.5" font-family="Helvetica,sans-Serif" font-size="10.00">libutil/ref.h</text>
</a>
</g>
</g>
<!-- Node18&#45;&gt;Node22 -->
<g id="edge32" class="edge"><title>Node18&#45;&gt;Node22</title>
<path fill="none" stroke="midnightblue" d="M1386.51,-124.467C1448.82,-112.784 1559.78,-91.9793 1619.77,-80.7314"/>
<polygon fill="midnightblue" stroke="midnightblue" points="1620.46,-84.1618 1629.65,-78.8788 1619.17,-77.2817 1620.46,-84.1618"/>
</g>
<!-- Node25 -->
<g id="node25" class="node"><title>Node25</title>
<polygon fill="none" stroke="#bfbfbf" points="1342,-57 1342,-87 1444,-87 1444,-57 1342,-57"/>
<text text-anchor="start" x="1350" y="-75" font-family="Helvetica,sans-Serif" font-size="10.00">boost/python/object</text>
<text text-anchor="middle" x="1393" y="-64" font-family="Helvetica,sans-Serif" font-size="10.00">_fwd.hpp</text>
</g>
<!-- Node18&#45;&gt;Node25 -->
<g id="edge37" class="edge"><title>Node18&#45;&gt;Node25</title>
<path fill="none" stroke="midnightblue" d="M1348.45,-124.403C1355.1,-116.733 1365.12,-105.167 1373.98,-94.9478"/>
<polygon fill="midnightblue" stroke="midnightblue" points="1376.84,-96.99 1380.74,-87.1408 1371.55,-92.4055 1376.84,-96.99"/>
</g>
<!-- Node20&#45;&gt;Node15 -->
<g id="edge29" class="edge"><title>Node20&#45;&gt;Node15</title>
<path fill="none" stroke="midnightblue" d="M1503.3,-62.4035C1507.66,-53.6707 1514.56,-39.8893 1520.1,-28.7936"/>
<polygon fill="midnightblue" stroke="midnightblue" points="1523.37,-30.0901 1524.71,-19.5806 1517.11,-26.9596 1523.37,-30.0901"/>
</g>
<!-- Node20&#45;&gt;Node9 -->
<g id="edge30" class="edge"><title>Node20&#45;&gt;Node9</title>
<path fill="none" stroke="midnightblue" d="M1476.34,-62.4864C1468.99,-60.0287 1460.74,-57.5852 1453,-56 1277.57,-20.0489 1061.96,-12.8193 981.386,-11.3657"/>
<polygon fill="midnightblue" stroke="midnightblue" points="981.422,-7.86593 971.367,-11.2028 981.308,-14.865 981.422,-7.86593"/>
</g>
<!-- Node21 -->
<g id="node21" class="node"><title>Node21</title>
<polygon fill="none" stroke="#bfbfbf" points="1428,-0.5 1428,-19.5 1490,-19.5 1490,-0.5 1428,-0.5"/>
<text text-anchor="middle" x="1459" y="-7.5" font-family="Helvetica,sans-Serif" font-size="10.00">sys/time.h</text>
</g>
<!-- Node20&#45;&gt;Node21 -->
<g id="edge31" class="edge"><title>Node20&#45;&gt;Node21</title>
<path fill="none" stroke="midnightblue" d="M1493.27,-62.4035C1487.33,-53.4925 1477.88,-39.3247 1470.41,-28.1177"/>
<polygon fill="midnightblue" stroke="midnightblue" points="1473.18,-25.9596 1464.72,-19.5806 1467.36,-29.8426 1473.18,-25.9596"/>
</g>
<!-- Node23 -->
<g id="node23" class="node"><title>Node23</title>
<polygon fill="none" stroke="#bfbfbf" points="1567.5,-0.5 1567.5,-19.5 1616.5,-19.5 1616.5,-0.5 1567.5,-0.5"/>
<text text-anchor="middle" x="1592" y="-7.5" font-family="Helvetica,sans-Serif" font-size="10.00">cstddef</text>
</g>
<!-- Node22&#45;&gt;Node23 -->
<g id="edge33" class="edge"><title>Node22&#45;&gt;Node23</title>
<path fill="none" stroke="midnightblue" d="M1651.11,-62.4035C1640.35,-53.047 1622.93,-37.8948 1609.78,-26.4599"/>
<polygon fill="midnightblue" stroke="midnightblue" points="1611.71,-23.5013 1601.87,-19.5806 1607.12,-28.7835 1611.71,-23.5013"/>
</g>
<!-- Node22&#45;&gt;Node5 -->
<g id="edge34" class="edge"><title>Node22&#45;&gt;Node5</title>
<path fill="none" stroke="midnightblue" d="M1629.8,-66.2104C1606.27,-62.7919 1573.19,-58.3918 1544,-56 1101.2,-19.7132 987.17,-63.3318 545,-20 537.096,-19.2254 528.613,-18.0455 520.702,-16.7926"/>
<polygon fill="midnightblue" stroke="midnightblue" points="521.165,-13.3217 510.726,-15.1314 520.016,-20.2266 521.165,-13.3217"/>
</g>
<!-- Node22&#45;&gt;Node3 -->
<g id="edge35" class="edge"><title>Node22&#45;&gt;Node3</title>
<path fill="none" stroke="midnightblue" d="M1670.6,-62.4035C1681.05,-53.047 1697.97,-37.8948 1710.74,-26.4599"/>
<polygon fill="midnightblue" stroke="midnightblue" points="1713.3,-28.8592 1718.42,-19.5806 1708.63,-23.6445 1713.3,-28.8592"/>
</g>
<!-- Node24 -->
<g id="node24" class="node"><title>Node24</title>
<polygon fill="none" stroke="#bfbfbf" points="1635,-0.5 1635,-19.5 1687,-19.5 1687,-0.5 1635,-0.5"/>
<text text-anchor="middle" x="1661" y="-7.5" font-family="Helvetica,sans-Serif" font-size="10.00">assert.h</text>
</g>
<!-- Node22&#45;&gt;Node24 -->
<g id="edge36" class="edge"><title>Node22&#45;&gt;Node24</title>
<path fill="none" stroke="midnightblue" d="M1661,-62.4035C1661,-53.9381 1661,-40.7283 1661,-29.8199"/>
<polygon fill="midnightblue" stroke="midnightblue" points="1664.5,-29.5806 1661,-19.5806 1657.5,-29.5806 1664.5,-29.5806"/>
</g>
<!-- Node27 -->
<g id="node27" class="node"><title>Node27</title>
<polygon fill="none" stroke="#bfbfbf" points="789.5,-62.5 789.5,-81.5 848.5,-81.5 848.5,-62.5 789.5,-62.5"/>
<text text-anchor="middle" x="819" y="-69.5" font-family="Helvetica,sans-Serif" font-size="10.00">exception</text>
</g>
<!-- Node26&#45;&gt;Node27 -->
<g id="edge39" class="edge"><title>Node26&#45;&gt;Node27</title>
<path fill="none" stroke="midnightblue" d="M916.667,-124.403C897.789,-114.468 866.493,-97.9966 844.424,-86.3812"/>
<polygon fill="midnightblue" stroke="midnightblue" points="845.782,-83.1409 835.303,-81.5806 842.522,-89.3353 845.782,-83.1409"/>
</g>
<!-- Node28 -->
<g id="node28" class="node"><title>Node28</title>
<polygon fill="none" stroke="#bfbfbf" points="866.5,-62.5 866.5,-81.5 925.5,-81.5 925.5,-62.5 866.5,-62.5"/>
<text text-anchor="middle" x="896" y="-69.5" font-family="Helvetica,sans-Serif" font-size="10.00">stdexcept</text>
</g>
<!-- Node26&#45;&gt;Node28 -->
<g id="edge40" class="edge"><title>Node26&#45;&gt;Node28</title>
<path fill="none" stroke="midnightblue" d="M927.699,-124.403C922.204,-115.493 913.467,-101.325 906.556,-90.1177"/>
<polygon fill="midnightblue" stroke="midnightblue" points="909.519,-88.2552 901.291,-81.5806 903.561,-91.9294 909.519,-88.2552"/>
</g>
<!-- Node29 -->
<g id="node29" class="node"><title>Node29</title>
<polygon fill="none" stroke="#bfbfbf" points="944,-62.5 944,-81.5 996,-81.5 996,-62.5 944,-62.5"/>
<text text-anchor="middle" x="970" y="-69.5" font-family="Helvetica,sans-Serif" font-size="10.00">sstream</text>
</g>
<!-- Node26&#45;&gt;Node29 -->
<g id="edge41" class="edge"><title>Node26&#45;&gt;Node29</title>
<path fill="none" stroke="midnightblue" d="M938.301,-124.403C943.796,-115.493 952.533,-101.325 959.444,-90.1177"/>
<polygon fill="midnightblue" stroke="midnightblue" points="962.439,-91.9294 964.709,-81.5806 956.481,-88.2552 962.439,-91.9294"/>
</g>
<!-- Node30 -->
<g id="node30" class="node"><title>Node30</title>
<polygon fill="none" stroke="#bfbfbf" points="722.5,-62.5 722.5,-81.5 771.5,-81.5 771.5,-62.5 722.5,-62.5"/>
<text text-anchor="middle" x="747" y="-69.5" font-family="Helvetica,sans-Serif" font-size="10.00">string.h</text>
</g>
<!-- Node26&#45;&gt;Node30 -->
<g id="edge42" class="edge"><title>Node26&#45;&gt;Node30</title>
<path fill="none" stroke="midnightblue" d="M899.691,-124.455C868.627,-116.177 821.176,-102.741 781,-88 778.884,-87.2236 776.712,-86.3797 774.539,-85.5012"/>
<polygon fill="midnightblue" stroke="midnightblue" points="775.749,-82.2125 765.176,-81.5305 773.016,-88.6569 775.749,-82.2125"/>
</g>
<!-- Node26&#45;&gt;Node14 -->
<g id="edge43" class="edge"><title>Node26&#45;&gt;Node14</title>
<path fill="none" stroke="midnightblue" d="M954.062,-124.403C979.059,-114.2 1020.94,-97.1055 1049.49,-85.4544"/>
<polygon fill="midnightblue" stroke="midnightblue" points="1051.04,-88.6001 1058.98,-81.5806 1048.4,-82.1192 1051.04,-88.6001"/>
</g>
<!-- Node32 -->
<g id="node32" class="node"><title>Node32</title>
<g id="a_node32"><a xlink:href="compiler_8h_source.html" target="_top" xlink:title="compiler.h">
<polygon fill="none" stroke="black" points="555,-62.5 555,-81.5 617,-81.5 617,-62.5 555,-62.5"/>
<text text-anchor="middle" x="586" y="-69.5" font-family="Helvetica,sans-Serif" font-size="10.00">compiler.h</text>
</a>
</g>
</g>
<!-- Node31&#45;&gt;Node32 -->
<g id="edge45" class="edge"><title>Node31&#45;&gt;Node32</title>
<path fill="none" stroke="midnightblue" d="M710.225,-124.403C685.568,-114.2 644.255,-97.1055 616.098,-85.4544"/>
<polygon fill="midnightblue" stroke="midnightblue" points="617.315,-82.1701 606.736,-81.5806 614.638,-88.6382 617.315,-82.1701"/>
</g>
<!-- Node34 -->
<g id="node34" class="node"><title>Node34</title>
<g id="a_node34"><a xlink:href="dimension_8h_source.html" target="_top" xlink:title="dimension.h">
<polygon fill="none" stroke="black" points="635.5,-62.5 635.5,-81.5 704.5,-81.5 704.5,-62.5 635.5,-62.5"/>
<text text-anchor="middle" x="670" y="-69.5" font-family="Helvetica,sans-Serif" font-size="10.00">dimension.h</text>
</a>
</g>
</g>
<!-- Node31&#45;&gt;Node34 -->
<g id="edge47" class="edge"><title>Node31&#45;&gt;Node34</title>
<path fill="none" stroke="midnightblue" d="M722.26,-124.403C712.838,-115.136 697.636,-100.183 686.051,-88.7876"/>
<polygon fill="midnightblue" stroke="midnightblue" points="688.307,-86.0978 678.724,-81.5806 683.399,-91.0883 688.307,-86.0978"/>
</g>
<!-- Node33 -->
<g id="node33" class="node"><title>Node33</title>
<polygon fill="none" stroke="#bfbfbf" points="554,-0.5 554,-19.5 618,-19.5 618,-0.5 554,-0.5"/>
<text text-anchor="middle" x="586" y="-7.5" font-family="Helvetica,sans-Serif" font-size="10.00">psiconfig.h</text>
</g>
<!-- Node32&#45;&gt;Node33 -->
<g id="edge46" class="edge"><title>Node32&#45;&gt;Node33</title>
<path fill="none" stroke="midnightblue" d="M586,-62.4035C586,-53.9381 586,-40.7283 586,-29.8199"/>
<polygon fill="midnightblue" stroke="midnightblue" points="589.5,-29.5806 586,-19.5806 582.5,-29.5806 589.5,-29.5806"/>
</g>
<!-- Node34&#45;&gt;Node15 -->
<g id="edge48" class="edge"><title>Node34&#45;&gt;Node15</title>
<path fill="none" stroke="midnightblue" d="M691.157,-62.4358C698.297,-59.9117 706.388,-57.4419 714,-56 1053.89,8.37732 1152.82,-76.9658 1498.15,-19.6532"/>
<polygon fill="midnightblue" stroke="midnightblue" points="1498.9,-23.0763 1508.18,-17.9606 1497.73,-16.1739 1498.9,-23.0763"/>
</g>
<!-- Node34&#45;&gt;Node5 -->
<g id="edge49" class="edge"><title>Node34&#45;&gt;Node5</title>
<path fill="none" stroke="midnightblue" d="M644.887,-62.3846C638.716,-60.2824 632.123,-58.0491 626,-56 589.844,-43.8994 548.22,-30.27 520.431,-21.2135"/>
<polygon fill="midnightblue" stroke="midnightblue" points="521.447,-17.8634 510.854,-18.095 519.279,-24.5194 521.447,-17.8634"/>
</g>
<!-- Node34&#45;&gt;Node9 -->
<g id="edge50" class="edge"><title>Node34&#45;&gt;Node9</title>
<path fill="none" stroke="midnightblue" d="M693.107,-62.4478C699.79,-60.1587 707.135,-57.8181 714,-56 785.527,-37.0582 871.29,-22.6896 916.848,-15.7006"/>
<polygon fill="midnightblue" stroke="midnightblue" points="917.374,-19.161 926.737,-14.203 916.326,-12.2399 917.374,-19.161"/>
</g>
</g>
</svg>
        <g id="navigator" transform="translate(0 0)" fill="#404254">
                <rect fill="#f2f5e9" fill-opacity="0.5" stroke="#606060" stroke-width=".5" x="0" y="0" width="60" height="60"/>
                <use id="zoomplus" xlink:href="#zoomPlus" x="17" y="9" onmousedown="handleZoom(evt,'in')"/>
                <use id="zoomminus" xlink:href="#zoomMin" x="42" y="9" onmousedown="handleZoom(evt,'out')"/>
                <use id="reset" xlink:href="#resetDef" x="30" y="36" onmousedown="handleReset()"/>
                <g id="arrowUp" xlink:href="#dirArrow" transform="translate(30 24)" onmousedown="handlePan(0,-1)">
                  <use xlink:href="#rim" fill="#404040">
                        <set attributeName="fill" to="#808080" begin="arrowUp.mouseover" end="arrowUp.mouseout"/>
                  </use>
                  <path fill="none" stroke="white" stroke-width="1.5" d="M0,-3.0v7 M-2.5,-0.5L0,-3.0L2.5,-0.5"/>
                </g>
                <g id="arrowRight" xlink:href="#dirArrow" transform="rotate(90) translate(36 -43)" onmousedown="handlePan(1,0)">
                  <use xlink:href="#rim" fill="#404040">
                        <set attributeName="fill" to="#808080" begin="arrowRight.mouseover" end="arrowRight.mouseout"/>
                  </use>
                  <path fill="none" stroke="white" stroke-width="1.5" d="M0,-3.0v7 M-2.5,-0.5L0,-3.0L2.5,-0.5"/>
                </g>
                <g id="arrowDown" xlink:href="#dirArrow" transform="rotate(180) translate(-30 -48)" onmousedown="handlePan(0,1)">
                  <use xlink:href="#rim" fill="#404040">
                        <set attributeName="fill" to="#808080" begin="arrowDown.mouseover" end="arrowDown.mouseout"/>
                  </use>
                  <path fill="none" stroke="white" stroke-width="1.5" d="M0,-3.0v7 M-2.5,-0.5L0,-3.0L2.5,-0.5"/>
                </g>
                <g id="arrowLeft" xlink:href="#dirArrow" transform="rotate(270) translate(-36 17)" onmousedown="handlePan(-1,0)">
                  <use xlink:href="#rim" fill="#404040">
                        <set attributeName="fill" to="#808080" begin="arrowLeft.mouseover" end="arrowLeft.mouseout"/>
                  </use>
                  <path fill="none" stroke="white" stroke-width="1.5" d="M0,-3.0v7 M-2.5,-0.5L0,-3.0L2.5,-0.5"/>
                </g>
        </g>
        <svg viewBox="0 0 15 15" width="100%" height="30px" preserveAspectRatio="xMaxYMin meet">
         <g id="arrow_out" transform="scale(0.3 0.3)">
          <a xlink:href="attic_2mp2_2opdm_8cc__incl_org.svg" target="_base">
           <rect id="button" ry="5" rx="5" y="6" x="6" height="38" width="38"
                fill="#f2f5e9" fill-opacity="0.5" stroke="#606060" stroke-width="1.0"/>
           <path id="arrow"
             d="M 11.500037,31.436501 C 11.940474,20.09759 22.043105,11.32322 32.158766,21.979434 L 37.068811,17.246167 C 37.068811,17.246167 37.088388,32 37.088388,32 L 22.160133,31.978069 C 22.160133,31.978069 26.997745,27.140456 26.997745,27.140456 C 18.528582,18.264221 13.291696,25.230495 11.500037,31.436501 z"
             style="fill:#404040;"/>
          </a>
         </g>
        </svg>
</svg>
