<?xml version="1.0" encoding="UTF-8" standalone="no"?>
<!DOCTYPE svg PUBLIC "-//W3C//DTD SVG 1.1//EN"
 "http://www.w3.org/Graphics/SVG/1.1/DTD/svg11.dtd">
<!-- Generated by graphviz version 2.30.1 (20140110.0959)
 -->
<!-- Title: globals.h Pages: 1 -->
<svg width="1110pt" height="84pt"
 viewBox="0.00 0.00 1110.00 84.00" xmlns="http://www.w3.org/2000/svg" xmlns:xlink="http://www.w3.org/1999/xlink">
<g id="graph0" class="graph" transform="scale(1 1) rotate(0) translate(4 80)">
<title>globals.h</title>
<!-- Node1 -->
<g id="node1" class="node"><title>Node1</title>
<polygon fill="#bfbfbf" stroke="black" points="523,-56.5 523,-75.5 579,-75.5 579,-56.5 523,-56.5"/>
<text text-anchor="middle" x="551" y="-63.5" font-family="Helvetica,sans-Serif" font-size="10.00">globals.h</text>
</g>
<!-- Node2 -->
<g id="node2" class="node"><title>Node2</title>
<g id="a_node2"><a xlink:href="attic_2cis_2build__A_8cc.html" target="_top" xlink:title="Enter brief description of file here.">
<polygon fill="none" stroke="black" points="0,-0.5 0,-19.5 62,-19.5 62,-0.5 0,-0.5"/>
<text text-anchor="middle" x="31" y="-7.5" font-family="Helvetica,sans-Serif" font-size="10.00">build_A.cc</text>
</a>
</g>
</g>
<!-- Node1&#45;&gt;Node2 -->
<g id="edge1" class="edge"><title>Node1&#45;&gt;Node2</title>
<path fill="none" stroke="midnightblue" d="M512.697,-63.0759C431.082,-58.6111 234.169,-45.8963 71,-20 68.188,-19.5537 65.2781,-19.0272 62.3697,-18.4563"/>
<polygon fill="midnightblue" stroke="midnightblue" points="512.806,-66.5867 522.979,-63.6278 513.181,-59.5968 512.806,-66.5867"/>
</g>
<!-- Node3 -->
<g id="node3" class="node"><title>Node3</title>
<g id="a_node3"><a xlink:href="bin_2attic_2cis_2cache_8cc.html" target="_top" xlink:title="Enter brief description of file here.">
<polygon fill="none" stroke="black" points="80,-0.5 80,-19.5 136,-19.5 136,-0.5 80,-0.5"/>
<text text-anchor="middle" x="108" y="-7.5" font-family="Helvetica,sans-Serif" font-size="10.00">cache.cc</text>
</a>
</g>
</g>
<!-- Node1&#45;&gt;Node3 -->
<g id="edge2" class="edge"><title>Node1&#45;&gt;Node3</title>
<path fill="none" stroke="midnightblue" d="M512.767,-62.4057C440.514,-57.14 279.132,-43.6464 145,-20 142.135,-19.495 139.162,-18.8977 136.203,-18.2548"/>
<polygon fill="midnightblue" stroke="midnightblue" points="512.542,-65.8984 522.767,-63.1231 513.043,-58.9164 512.542,-65.8984"/>
</g>
<!-- Node4 -->
<g id="node4" class="node"><title>Node4</title>
<g id="a_node4"><a xlink:href="cis_8cc.html" target="_top" xlink:title="Enter brief description of file here.">
<polygon fill="none" stroke="black" points="154.5,-0.5 154.5,-19.5 197.5,-19.5 197.5,-0.5 154.5,-0.5"/>
<text text-anchor="middle" x="176" y="-7.5" font-family="Helvetica,sans-Serif" font-size="10.00">cis.cc</text>
</a>
</g>
</g>
<!-- Node1&#45;&gt;Node4 -->
<g id="edge3" class="edge"><title>Node1&#45;&gt;Node4</title>
<path fill="none" stroke="midnightblue" d="M512.508,-62.0259C448.403,-56.6175 315.949,-43.5015 206,-20 203.235,-19.409 200.355,-18.6867 197.522,-17.9109"/>
<polygon fill="midnightblue" stroke="midnightblue" points="512.308,-65.5213 522.563,-62.858 512.886,-58.5451 512.308,-65.5213"/>
</g>
<!-- Node5 -->
<g id="node5" class="node"><title>Node5</title>
<g id="a_node5"><a xlink:href="d__corr_8cc.html" target="_top" xlink:title="Enter brief description of file here.">
<polygon fill="none" stroke="black" points="215.5,-0.5 215.5,-19.5 272.5,-19.5 272.5,-0.5 215.5,-0.5"/>
<text text-anchor="middle" x="244" y="-7.5" font-family="Helvetica,sans-Serif" font-size="10.00">d_corr.cc</text>
</a>
</g>
</g>
<!-- Node1&#45;&gt;Node5 -->
<g id="edge4" class="edge"><title>Node1&#45;&gt;Node5</title>
<path fill="none" stroke="midnightblue" d="M512.697,-59.5222C460.215,-51.8106 363.103,-36.8037 281,-20 278.28,-19.4433 275.456,-18.827 272.637,-18.1856"/>
<polygon fill="midnightblue" stroke="midnightblue" points="512.488,-63.0288 522.889,-61.0104 513.5,-56.1022 512.488,-63.0288"/>
</g>
<!-- Node6 -->
<g id="node6" class="node"><title>Node6</title>
<g id="a_node6"><a xlink:href="attic_2cis_2denom_8cc.html" target="_top" xlink:title="Enter brief description of file here.">
<polygon fill="none" stroke="black" points="290.5,-0.5 290.5,-19.5 349.5,-19.5 349.5,-0.5 290.5,-0.5"/>
<text text-anchor="middle" x="320" y="-7.5" font-family="Helvetica,sans-Serif" font-size="10.00">denom.cc</text>
</a>
</g>
</g>
<!-- Node1&#45;&gt;Node6 -->
<g id="edge5" class="edge"><title>Node1&#45;&gt;Node6</title>
<path fill="none" stroke="midnightblue" d="M512.829,-56.0769C467.045,-45.3741 391.274,-27.6616 349.653,-17.9318"/>
<polygon fill="midnightblue" stroke="midnightblue" points="512.141,-59.5103 522.675,-58.3785 513.734,-52.6941 512.141,-59.5103"/>
</g>
<!-- Node7 -->
<g id="node7" class="node"><title>Node7</title>
<g id="a_node7"><a xlink:href="attic_2cis_2diag_8cc.html" target="_top" xlink:title="Enter brief description of file here.">
<polygon fill="none" stroke="black" points="368,-0.5 368,-19.5 416,-19.5 416,-0.5 368,-0.5"/>
<text text-anchor="middle" x="392" y="-7.5" font-family="Helvetica,sans-Serif" font-size="10.00">diag.cc</text>
</a>
</g>
</g>
<!-- Node1&#45;&gt;Node7 -->
<g id="edge6" class="edge"><title>Node1&#45;&gt;Node7</title>
<path fill="none" stroke="midnightblue" d="M516.054,-53.1314C485.728,-42.8323 442.63,-28.1949 416.035,-19.1629"/>
<polygon fill="midnightblue" stroke="midnightblue" points="515.212,-56.5417 525.806,-56.4435 517.463,-49.9136 515.212,-56.5417"/>
</g>
<!-- Node8 -->
<g id="node8" class="node"><title>Node8</title>
<g id="a_node8"><a xlink:href="Fab_8cc.html" target="_top" xlink:title="Compute CI singles for excited states.">
<polygon fill="none" stroke="black" points="434.5,-0.5 434.5,-19.5 481.5,-19.5 481.5,-0.5 434.5,-0.5"/>
<text text-anchor="middle" x="458" y="-7.5" font-family="Helvetica,sans-Serif" font-size="10.00">Fab.cc</text>
</a>
</g>
</g>
<!-- Node1&#45;&gt;Node8 -->
<g id="edge7" class="edge"><title>Node1&#45;&gt;Node8</title>
<path fill="none" stroke="midnightblue" d="M527.194,-51.1774C510.081,-41.2407 487.535,-28.1492 472.905,-19.6545"/>
<polygon fill="midnightblue" stroke="midnightblue" points="525.653,-54.3293 536.058,-56.324 529.168,-48.2758 525.653,-54.3293"/>
</g>
<!-- Node9 -->
<g id="node9" class="node"><title>Node9</title>
<g id="a_node9"><a xlink:href="Fij_8cc.html" target="_top" xlink:title="Enter brief description of file here.">
<polygon fill="none" stroke="black" points="499.5,-0.5 499.5,-19.5 540.5,-19.5 540.5,-0.5 499.5,-0.5"/>
<text text-anchor="middle" x="520" y="-7.5" font-family="Helvetica,sans-Serif" font-size="10.00">Fij.cc</text>
</a>
</g>
</g>
<!-- Node1&#45;&gt;Node9 -->
<g id="edge8" class="edge"><title>Node1&#45;&gt;Node9</title>
<path fill="none" stroke="midnightblue" d="M540.824,-47.2747C535.526,-38.0454 529.283,-27.1703 525.024,-19.7511"/>
<polygon fill="midnightblue" stroke="midnightblue" points="537.867,-49.153 545.881,-56.083 543.938,-45.6679 537.867,-49.153"/>
</g>
<!-- Node10 -->
<g id="node10" class="node"><title>Node10</title>
<g id="a_node10"><a xlink:href="Fkc_8cc.html" target="_top" xlink:title="Enter brief description of file here.">
<polygon fill="none" stroke="black" points="558.5,-0.5 558.5,-19.5 605.5,-19.5 605.5,-0.5 558.5,-0.5"/>
<text text-anchor="middle" x="582" y="-7.5" font-family="Helvetica,sans-Serif" font-size="10.00">Fkc.cc</text>
</a>
</g>
</g>
<!-- Node1&#45;&gt;Node10 -->
<g id="edge9" class="edge"><title>Node1&#45;&gt;Node10</title>
<path fill="none" stroke="midnightblue" d="M561.176,-47.2747C566.474,-38.0454 572.717,-27.1703 576.976,-19.7511"/>
<polygon fill="midnightblue" stroke="midnightblue" points="558.062,-45.6679 556.119,-56.083 564.133,-49.153 558.062,-45.6679"/>
</g>
<!-- Node11 -->
<g id="node11" class="node"><title>Node11</title>
<g id="a_node11"><a xlink:href="attic_2cis_2get__moinfo_8cc.html" target="_top" xlink:title="Enter brief description of file here.">
<polygon fill="none" stroke="black" points="624,-0.5 624,-19.5 702,-19.5 702,-0.5 624,-0.5"/>
<text text-anchor="middle" x="663" y="-7.5" font-family="Helvetica,sans-Serif" font-size="10.00">get_moinfo.cc</text>
</a>
</g>
</g>
<!-- Node1&#45;&gt;Node11 -->
<g id="edge10" class="edge"><title>Node1&#45;&gt;Node11</title>
<path fill="none" stroke="midnightblue" d="M578.249,-51.8622C599.016,-41.8492 627.023,-28.3458 645.05,-19.6545"/>
<polygon fill="midnightblue" stroke="midnightblue" points="576.482,-48.8282 568.995,-56.324 579.523,-55.1336 576.482,-48.8282"/>
</g>
<!-- Node12 -->
<g id="node12" class="node"><title>Node12</title>
<g id="a_node12"><a xlink:href="bin_2attic_2cis_2get__params_8cc.html" target="_top" xlink:title="Enter brief description of file here.">
<polygon fill="none" stroke="black" points="720.5,-0.5 720.5,-19.5 801.5,-19.5 801.5,-0.5 720.5,-0.5"/>
<text text-anchor="middle" x="761" y="-7.5" font-family="Helvetica,sans-Serif" font-size="10.00">get_params.cc</text>
</a>
</g>
</g>
<!-- Node1&#45;&gt;Node12 -->
<g id="edge11" class="edge"><title>Node1&#45;&gt;Node12</title>
<path fill="none" stroke="midnightblue" d="M589.126,-55.1962C628.67,-45.0276 689.89,-29.2854 727.594,-19.59"/>
<polygon fill="midnightblue" stroke="midnightblue" points="588.135,-51.8371 579.322,-57.7173 589.878,-58.6166 588.135,-51.8371"/>
</g>
<!-- Node13 -->
<g id="node13" class="node"><title>Node13</title>
<g id="a_node13"><a xlink:href="bin_2attic_2cis_2local_8cc.html" target="_top" xlink:title="Enter brief description of file here.">
<polygon fill="none" stroke="black" points="820,-0.5 820,-19.5 870,-19.5 870,-0.5 820,-0.5"/>
<text text-anchor="middle" x="845" y="-7.5" font-family="Helvetica,sans-Serif" font-size="10.00">local.cc</text>
</a>
</g>
</g>
<!-- Node1&#45;&gt;Node13 -->
<g id="edge12" class="edge"><title>Node1&#45;&gt;Node13</title>
<path fill="none" stroke="midnightblue" d="M589.292,-59.3242C639.999,-51.5853 732.104,-36.7544 810,-20 813.19,-19.314 816.527,-18.5353 819.822,-17.7299"/>
<polygon fill="midnightblue" stroke="midnightblue" points="588.482,-55.9068 579.12,-60.8661 589.531,-62.8278 588.482,-55.9068"/>
</g>
<!-- Node14 -->
<g id="node14" class="node"><title>Node14</title>
<g id="a_node14"><a xlink:href="attic_2cis_2mp2_8cc.html" target="_top" xlink:title="Enter brief description of file here.">
<polygon fill="none" stroke="black" points="888.5,-0.5 888.5,-19.5 937.5,-19.5 937.5,-0.5 888.5,-0.5"/>
<text text-anchor="middle" x="913" y="-7.5" font-family="Helvetica,sans-Serif" font-size="10.00">mp2.cc</text>
</a>
</g>
</g>
<!-- Node1&#45;&gt;Node14 -->
<g id="edge13" class="edge"><title>Node1&#45;&gt;Node14</title>
<path fill="none" stroke="midnightblue" d="M589.296,-61.2841C650.769,-54.9751 775.109,-40.7958 879,-20 881.994,-19.4008 885.115,-18.6923 888.2,-17.9401"/>
<polygon fill="midnightblue" stroke="midnightblue" points="588.871,-57.8092 579.274,-62.2997 589.576,-64.7735 588.871,-57.8092"/>
</g>
<!-- Node15 -->
<g id="node15" class="node"><title>Node15</title>
<g id="a_node15"><a xlink:href="U_8cc.html" target="_top" xlink:title="Enter brief description of file here.">
<polygon fill="none" stroke="black" points="956,-0.5 956,-19.5 994,-19.5 994,-0.5 956,-0.5"/>
<text text-anchor="middle" x="975" y="-7.5" font-family="Helvetica,sans-Serif" font-size="10.00">U.cc</text>
</a>
</g>
</g>
<!-- Node1&#45;&gt;Node15 -->
<g id="edge14" class="edge"><title>Node1&#45;&gt;Node15</title>
<path fill="none" stroke="midnightblue" d="M589.306,-63.0267C660.305,-58.8425 816.866,-47.1432 946,-20 949.199,-19.3277 952.549,-18.4531 955.79,-17.5137"/>
<polygon fill="midnightblue" stroke="midnightblue" points="588.847,-59.5471 579.063,-63.6128 589.247,-66.5357 588.847,-59.5471"/>
</g>
<!-- Node16 -->
<g id="node16" class="node"><title>Node16</title>
<g id="a_node16"><a xlink:href="bin_2attic_2cis_2v_8cc.html" target="_top" xlink:title="Enter brief description of file here.">
<polygon fill="none" stroke="black" points="1012.5,-0.5 1012.5,-19.5 1047.5,-19.5 1047.5,-0.5 1012.5,-0.5"/>
<text text-anchor="middle" x="1030" y="-7.5" font-family="Helvetica,sans-Serif" font-size="10.00">v.cc</text>
</a>
</g>
</g>
<!-- Node1&#45;&gt;Node16 -->
<g id="edge15" class="edge"><title>Node1&#45;&gt;Node16</title>
<path fill="none" stroke="midnightblue" d="M589.477,-64.0474C668.036,-61.4742 852.191,-52.2212 1003,-20 1006.09,-19.3393 1009.33,-18.4464 1012.44,-17.4788"/>
<polygon fill="midnightblue" stroke="midnightblue" points="588.995,-60.5606 579.107,-64.3679 589.211,-67.5572 588.995,-60.5606"/>
</g>
<!-- Node17 -->
<g id="node17" class="node"><title>Node17</title>
<g id="a_node17"><a xlink:href="attic_2cis_2Z_8cc.html" target="_top" xlink:title="Enter brief description of file here.">
<polygon fill="none" stroke="black" points="1066,-0.5 1066,-19.5 1102,-19.5 1102,-0.5 1066,-0.5"/>
<text text-anchor="middle" x="1084" y="-7.5" font-family="Helvetica,sans-Serif" font-size="10.00">Z.cc</text>
</a>
</g>
</g>
<!-- Node1&#45;&gt;Node17 -->
<g id="edge16" class="edge"><title>Node1&#45;&gt;Node17</title>
<path fill="none" stroke="midnightblue" d="M589.44,-64.4744C674.422,-62.6827 884.337,-54.7865 1056,-20 1059.2,-19.351 1062.55,-18.464 1065.78,-17.4985"/>
<polygon fill="midnightblue" stroke="midnightblue" points="589.165,-60.979 579.234,-64.6724 589.3,-67.9777 589.165,-60.979"/>
</g>
</g>
</svg>
