<?xml version="1.0" encoding="UTF-8" standalone="no"?>
<!DOCTYPE svg PUBLIC "-//W3C//DTD SVG 1.1//EN"
 "http://www.w3.org/Graphics/SVG/1.1/DTD/svg11.dtd">
<!-- Generated by graphviz version 2.30.1 (20140110.0959)
 -->
<!-- Title: mp2.cc Pages: 1 -->
<svg width="592pt" height="140pt"
 viewBox="0.00 0.00 592.00 140.00" xmlns="http://www.w3.org/2000/svg" xmlns:xlink="http://www.w3.org/1999/xlink">
<g id="graph0" class="graph" transform="scale(1 1) rotate(0) translate(4 136)">
<title>mp2.cc</title>
<!-- Node1 -->
<g id="node1" class="node"><title>Node1</title>
<polygon fill="#bfbfbf" stroke="black" points="213.5,-112.5 213.5,-131.5 262.5,-131.5 262.5,-112.5 213.5,-112.5"/>
<text text-anchor="middle" x="238" y="-119.5" font-family="Helvetica,sans-Serif" font-size="10.00">mp2.cc</text>
</g>
<!-- Node2 -->
<g id="node2" class="node"><title>Node2</title>
<polygon fill="none" stroke="#bfbfbf" points="0,-56.5 0,-75.5 44,-75.5 44,-56.5 0,-56.5"/>
<text text-anchor="middle" x="22" y="-63.5" font-family="Helvetica,sans-Serif" font-size="10.00">cmath</text>
</g>
<!-- Node1&#45;&gt;Node2 -->
<g id="edge1" class="edge"><title>Node1&#45;&gt;Node2</title>
<path fill="none" stroke="midnightblue" d="M213.374,-115.373C179.644,-107.588 116.96,-92.8418 54.36,-76.2795"/>
<polygon fill="midnightblue" stroke="midnightblue" points="54.8821,-72.7966 44.3183,-73.6065 53.0815,-79.5611 54.8821,-72.7966"/>
</g>
<!-- Node3 -->
<g id="node3" class="node"><title>Node3</title>
<polygon fill="none" stroke="#bfbfbf" points="62.5,-56.5 62.5,-75.5 107.5,-75.5 107.5,-56.5 62.5,-56.5"/>
<text text-anchor="middle" x="85" y="-63.5" font-family="Helvetica,sans-Serif" font-size="10.00">cstdlib</text>
</g>
<!-- Node1&#45;&gt;Node3 -->
<g id="edge2" class="edge"><title>Node1&#45;&gt;Node3</title>
<path fill="none" stroke="midnightblue" d="M213.757,-112.444C187.677,-103.239 146.077,-88.5565 117.251,-78.3826"/>
<polygon fill="midnightblue" stroke="midnightblue" points="118.228,-75.0161 107.634,-74.9883 115.899,-81.617 118.228,-75.0161"/>
</g>
<!-- Node4 -->
<g id="node4" class="node"><title>Node4</title>
<g id="a_node4"><a xlink:href="lib_2libdpd_2dpd_8h.html" target="_top" xlink:title="Enter brief description of file here.">
<polygon fill="none" stroke="black" points="313.5,-56.5 313.5,-75.5 382.5,-75.5 382.5,-56.5 313.5,-56.5"/>
<text text-anchor="middle" x="348" y="-63.5" font-family="Helvetica,sans-Serif" font-size="10.00">libdpd/dpd.h</text>
</a>
</g>
</g>
<!-- Node1&#45;&gt;Node4 -->
<g id="edge3" class="edge"><title>Node1&#45;&gt;Node4</title>
<path fill="none" stroke="midnightblue" d="M255.673,-112.324C273.394,-103.625 300.903,-90.1202 321.288,-80.113"/>
<polygon fill="midnightblue" stroke="midnightblue" points="322.936,-83.2031 330.37,-75.6545 319.851,-76.9195 322.936,-83.2031"/>
</g>
<!-- Node6 -->
<g id="node6" class="node"><title>Node6</title>
<g id="a_node6"><a xlink:href="psifiles_8h_source.html" target="_top" xlink:title="psifiles.h">
<polygon fill="none" stroke="black" points="120,-0.5 120,-19.5 176,-19.5 176,-0.5 120,-0.5"/>
<text text-anchor="middle" x="148" y="-7.5" font-family="Helvetica,sans-Serif" font-size="10.00">psifiles.h</text>
</a>
</g>
</g>
<!-- Node1&#45;&gt;Node6 -->
<g id="edge9" class="edge"><title>Node1&#45;&gt;Node6</title>
<path fill="none" stroke="midnightblue" d="M232.273,-112.308C223.76,-99.5721 207.04,-75.2625 191,-56 182.616,-45.9316 172.528,-35.3058 164.23,-26.9094"/>
<polygon fill="midnightblue" stroke="midnightblue" points="166.489,-24.2188 156.938,-19.6332 161.545,-29.174 166.489,-24.2188"/>
</g>
<!-- Node10 -->
<g id="node10" class="node"><title>Node10</title>
<g id="a_node10"><a xlink:href="attic_2cis_2MOInfo_8h.html" target="_top" xlink:title="Enter brief description of file here.">
<polygon fill="none" stroke="black" points="238.5,-56.5 238.5,-75.5 295.5,-75.5 295.5,-56.5 238.5,-56.5"/>
<text text-anchor="middle" x="267" y="-63.5" font-family="Helvetica,sans-Serif" font-size="10.00">MOInfo.h</text>
</a>
</g>
</g>
<!-- Node1&#45;&gt;Node10 -->
<g id="edge10" class="edge"><title>Node1&#45;&gt;Node10</title>
<path fill="none" stroke="midnightblue" d="M242.789,-112.083C246.758,-104.691 252.525,-93.9533 257.435,-84.8111"/>
<polygon fill="midnightblue" stroke="midnightblue" points="260.653,-86.217 262.3,-75.7511 254.486,-82.9051 260.653,-86.217"/>
</g>
<!-- Node11 -->
<g id="node11" class="node"><title>Node11</title>
<g id="a_node11"><a xlink:href="attic_2cis_2Params_8h.html" target="_top" xlink:title="Enter brief description of file here.">
<polygon fill="none" stroke="black" points="431.5,-56.5 431.5,-75.5 490.5,-75.5 490.5,-56.5 431.5,-56.5"/>
<text text-anchor="middle" x="461" y="-63.5" font-family="Helvetica,sans-Serif" font-size="10.00">Params.h</text>
</a>
</g>
</g>
<!-- Node1&#45;&gt;Node11 -->
<g id="edge11" class="edge"><title>Node1&#45;&gt;Node11</title>
<path fill="none" stroke="midnightblue" d="M262.717,-115.015C301.092,-105.722 375.36,-87.7379 421.31,-76.6111"/>
<polygon fill="midnightblue" stroke="midnightblue" points="422.326,-79.9662 431.222,-74.2109 420.679,-73.1628 422.326,-79.9662"/>
</g>
<!-- Node13 -->
<g id="node13" class="node"><title>Node13</title>
<g id="a_node13"><a xlink:href="attic_2cis_2Local_8h.html" target="_top" xlink:title="Enter brief description of file here.">
<polygon fill="none" stroke="black" points="524,-56.5 524,-75.5 572,-75.5 572,-56.5 524,-56.5"/>
<text text-anchor="middle" x="548" y="-63.5" font-family="Helvetica,sans-Serif" font-size="10.00">Local.h</text>
</a>
</g>
</g>
<!-- Node1&#45;&gt;Node13 -->
<g id="edge13" class="edge"><title>Node1&#45;&gt;Node13</title>
<path fill="none" stroke="midnightblue" d="M262.847,-116.809C309.267,-108.958 412.309,-91.4342 499,-76 503.803,-75.1448 508.869,-74.2296 513.848,-73.3223"/>
<polygon fill="midnightblue" stroke="midnightblue" points="514.629,-76.7375 523.834,-71.4927 513.367,-69.8521 514.629,-76.7375"/>
</g>
<!-- Node14 -->
<g id="node14" class="node"><title>Node14</title>
<g id="a_node14"><a xlink:href="attic_2cis_2globals_8h.html" target="_top" xlink:title="Enter brief description of file here.">
<polygon fill="none" stroke="black" points="126,-56.5 126,-75.5 182,-75.5 182,-56.5 126,-56.5"/>
<text text-anchor="middle" x="154" y="-63.5" font-family="Helvetica,sans-Serif" font-size="10.00">globals.h</text>
</a>
</g>
</g>
<!-- Node1&#45;&gt;Node14 -->
<g id="edge15" class="edge"><title>Node1&#45;&gt;Node14</title>
<path fill="none" stroke="midnightblue" d="M224.504,-112.324C211.4,-103.9 191.288,-90.9709 175.893,-81.0741"/>
<polygon fill="midnightblue" stroke="midnightblue" points="177.767,-78.118 167.463,-75.6545 173.982,-84.0063 177.767,-78.118"/>
</g>
<!-- Node5 -->
<g id="node5" class="node"><title>Node5</title>
<polygon fill="none" stroke="#bfbfbf" points="482.5,-0.5 482.5,-19.5 525.5,-19.5 525.5,-0.5 482.5,-0.5"/>
<text text-anchor="middle" x="504" y="-7.5" font-family="Helvetica,sans-Serif" font-size="10.00">cstdio</text>
</g>
<!-- Node4&#45;&gt;Node5 -->
<g id="edge4" class="edge"><title>Node4&#45;&gt;Node5</title>
<path fill="none" stroke="midnightblue" d="M372.719,-56.4435C399.771,-47.0794 443.202,-32.0456 472.634,-21.8574"/>
<polygon fill="midnightblue" stroke="midnightblue" points="474.106,-25.0516 482.411,-18.473 471.817,-18.4367 474.106,-25.0516"/>
</g>
<!-- Node4&#45;&gt;Node6 -->
<g id="edge5" class="edge"><title>Node4&#45;&gt;Node6</title>
<path fill="none" stroke="midnightblue" d="M316.309,-56.4435C281.071,-46.9293 224.156,-31.5622 186.412,-21.3713"/>
<polygon fill="midnightblue" stroke="midnightblue" points="186.875,-17.8711 176.309,-18.6433 185.051,-24.6291 186.875,-17.8711"/>
</g>
<!-- Node7 -->
<g id="node7" class="node"><title>Node7</title>
<g id="a_node7"><a xlink:href="libpsio_2config_8h_source.html" target="_top" xlink:title="libpsio/config.h">
<polygon fill="none" stroke="black" points="194,-0.5 194,-19.5 276,-19.5 276,-0.5 194,-0.5"/>
<text text-anchor="middle" x="235" y="-7.5" font-family="Helvetica,sans-Serif" font-size="10.00">libpsio/config.h</text>
</a>
</g>
</g>
<!-- Node4&#45;&gt;Node7 -->
<g id="edge6" class="edge"><title>Node4&#45;&gt;Node7</title>
<path fill="none" stroke="midnightblue" d="M330.095,-56.4435C311.746,-47.6751 282.995,-33.9355 261.906,-23.8579"/>
<polygon fill="midnightblue" stroke="midnightblue" points="263.353,-20.6703 252.821,-19.5164 260.335,-26.9862 263.353,-20.6703"/>
</g>
<!-- Node8 -->
<g id="node8" class="node"><title>Node8</title>
<polygon fill="none" stroke="#bfbfbf" points="294,-0.5 294,-19.5 402,-19.5 402,-0.5 294,-0.5"/>
<text text-anchor="middle" x="348" y="-7.5" font-family="Helvetica,sans-Serif" font-size="10.00">boost/shared_ptr.hpp</text>
</g>
<!-- Node4&#45;&gt;Node8 -->
<g id="edge7" class="edge"><title>Node4&#45;&gt;Node8</title>
<path fill="none" stroke="midnightblue" d="M348,-56.083C348,-49.0059 348,-38.8611 348,-29.9865"/>
<polygon fill="midnightblue" stroke="midnightblue" points="351.5,-29.751 348,-19.7511 344.5,-29.7511 351.5,-29.751"/>
</g>
<!-- Node9 -->
<g id="node9" class="node"><title>Node9</title>
<polygon fill="none" stroke="#bfbfbf" points="420,-0.5 420,-19.5 464,-19.5 464,-0.5 420,-0.5"/>
<text text-anchor="middle" x="442" y="-7.5" font-family="Helvetica,sans-Serif" font-size="10.00">vector</text>
</g>
<!-- Node4&#45;&gt;Node9 -->
<g id="edge8" class="edge"><title>Node4&#45;&gt;Node9</title>
<path fill="none" stroke="midnightblue" d="M363.103,-56.324C377.903,-47.8215 400.694,-34.7288 417.982,-24.7975"/>
<polygon fill="midnightblue" stroke="midnightblue" points="420.007,-27.6707 426.935,-19.6545 416.52,-21.6009 420.007,-27.6707"/>
</g>
<!-- Node12 -->
<g id="node12" class="node"><title>Node12</title>
<polygon fill="none" stroke="#bfbfbf" points="543.5,-0.5 543.5,-19.5 584.5,-19.5 584.5,-0.5 543.5,-0.5"/>
<text text-anchor="middle" x="564" y="-7.5" font-family="Helvetica,sans-Serif" font-size="10.00">string</text>
</g>
<!-- Node11&#45;&gt;Node12 -->
<g id="edge12" class="edge"><title>Node11&#45;&gt;Node12</title>
<path fill="none" stroke="midnightblue" d="M477.549,-56.324C493.992,-47.7034 519.435,-34.3643 538.468,-24.3855"/>
<polygon fill="midnightblue" stroke="midnightblue" points="540.261,-27.3977 547.492,-19.6545 537.011,-21.198 540.261,-27.3977"/>
</g>
<!-- Node13&#45;&gt;Node12 -->
<g id="edge14" class="edge"><title>Node13&#45;&gt;Node12</title>
<path fill="none" stroke="midnightblue" d="M550.642,-56.083C552.786,-48.8486 555.879,-38.4087 558.549,-29.3968"/>
<polygon fill="midnightblue" stroke="midnightblue" points="561.922,-30.3334 561.407,-19.7511 555.21,-28.3447 561.922,-30.3334"/>
</g>
<!-- Node14&#45;&gt;Node6 -->
<g id="edge16" class="edge"><title>Node14&#45;&gt;Node6</title>
<path fill="none" stroke="midnightblue" d="M153.009,-56.083C152.214,-48.9272 151.071,-38.6353 150.077,-29.6911"/>
<polygon fill="midnightblue" stroke="midnightblue" points="153.555,-29.3034 148.972,-19.7511 146.598,-30.0765 153.555,-29.3034"/>
</g>
</g>
</svg>
