<?xml version="1.0" encoding="UTF-8" standalone="no"?>
<!DOCTYPE svg PUBLIC "-//W3C//DTD SVG 1.1//EN"
 "http://www.w3.org/Graphics/SVG/1.1/DTD/svg11.dtd">
<!-- Generated by graphviz version 2.30.1 (20140110.0959)
 -->
<!-- Title: mp2.cc Pages: 1 -->
<svg width="2299pt" height="432pt"
 viewBox="0.00 0.00 2299.00 432.00" xmlns="http://www.w3.org/2000/svg" xmlns:xlink="http://www.w3.org/1999/xlink">
<g id="graph0" class="graph" transform="scale(1 1) rotate(0) translate(4 428)">
<title>mp2.cc</title>
<!-- Node1 -->
<g id="node1" class="node"><title>Node1</title>
<polygon fill="#bfbfbf" stroke="black" points="724.5,-404.5 724.5,-423.5 773.5,-423.5 773.5,-404.5 724.5,-404.5"/>
<text text-anchor="middle" x="749" y="-411.5" font-family="Helvetica,sans-Serif" font-size="10.00">mp2.cc</text>
</g>
<!-- Node2 -->
<g id="node2" class="node"><title>Node2</title>
<polygon fill="none" stroke="#bfbfbf" points="541.5,-0.5 541.5,-19.5 584.5,-19.5 584.5,-0.5 541.5,-0.5"/>
<text text-anchor="middle" x="563" y="-7.5" font-family="Helvetica,sans-Serif" font-size="10.00">cstdio</text>
</g>
<!-- Node1&#45;&gt;Node2 -->
<g id="edge1" class="edge"><title>Node1&#45;&gt;Node2</title>
<path fill="none" stroke="midnightblue" d="M724.458,-411.624C637.178,-406.07 347,-381.689 347,-303 347,-303 347,-303 347,-133 347,-49.3048 471.469,-22.3751 531.436,-14.2575"/>
<polygon fill="midnightblue" stroke="midnightblue" points="532.015,-17.7124 541.499,-12.9906 531.141,-10.7672 532.015,-17.7124"/>
</g>
<!-- Node3 -->
<g id="node3" class="node"><title>Node3</title>
<polygon fill="none" stroke="#bfbfbf" points="1556,-180.5 1556,-199.5 1602,-199.5 1602,-180.5 1556,-180.5"/>
<text text-anchor="middle" x="1579" y="-187.5" font-family="Helvetica,sans-Serif" font-size="10.00">cstring</text>
</g>
<!-- Node1&#45;&gt;Node3 -->
<g id="edge2" class="edge"><title>Node1&#45;&gt;Node3</title>
<path fill="none" stroke="midnightblue" d="M773.646,-413.235C923.911,-414.501 1713.45,-418.687 1807,-368 1840.56,-349.817 1868.72,-323.391 1847,-292 1793.21,-214.24 1671.45,-196.273 1612.38,-192.175"/>
<polygon fill="midnightblue" stroke="midnightblue" points="1612.31,-188.664 1602.12,-191.56 1611.89,-195.652 1612.31,-188.664"/>
</g>
<!-- Node4 -->
<g id="node4" class="node"><title>Node4</title>
<polygon fill="none" stroke="#bfbfbf" points="1591.5,-0.5 1591.5,-19.5 1636.5,-19.5 1636.5,-0.5 1591.5,-0.5"/>
<text text-anchor="middle" x="1614" y="-7.5" font-family="Helvetica,sans-Serif" font-size="10.00">cstdlib</text>
</g>
<!-- Node1&#45;&gt;Node4 -->
<g id="edge3" class="edge"><title>Node1&#45;&gt;Node4</title>
<path fill="none" stroke="midnightblue" d="M773.715,-413.097C926.191,-413.549 1735.71,-413.767 1835,-368 1968.66,-306.388 2050.66,-159.483 1946,-56 1904.31,-14.779 1722.41,-10.5734 1646.97,-10.6479"/>
<polygon fill="midnightblue" stroke="midnightblue" points="1646.63,-7.14906 1636.64,-10.6861 1646.66,-14.149 1646.63,-7.14906"/>
</g>
<!-- Node5 -->
<g id="node5" class="node"><title>Node5</title>
<polygon fill="none" stroke="#bfbfbf" points="1970,-348.5 1970,-367.5 2014,-367.5 2014,-348.5 1970,-348.5"/>
<text text-anchor="middle" x="1992" y="-355.5" font-family="Helvetica,sans-Serif" font-size="10.00">cmath</text>
</g>
<!-- Node1&#45;&gt;Node5 -->
<g id="edge4" class="edge"><title>Node1&#45;&gt;Node5</title>
<path fill="none" stroke="midnightblue" d="M773.933,-412.776C924.687,-411.314 1715.95,-402.103 1956,-368 1957.26,-367.822 1958.53,-367.617 1959.82,-367.392"/>
<polygon fill="midnightblue" stroke="midnightblue" points="1960.59,-370.806 1969.67,-365.345 1959.17,-363.952 1960.59,-370.806"/>
</g>
<!-- Node6 -->
<g id="node6" class="node"><title>Node6</title>
<g id="a_node6"><a xlink:href="libciomr_8h_source.html" target="_top" xlink:title="libciomr/libciomr.h">
<polygon fill="none" stroke="black" points="-0.5,-180.5 -0.5,-199.5 94.5,-199.5 94.5,-180.5 -0.5,-180.5"/>
<text text-anchor="middle" x="47" y="-187.5" font-family="Helvetica,sans-Serif" font-size="10.00">libciomr/libciomr.h</text>
</a>
</g>
</g>
<!-- Node1&#45;&gt;Node6 -->
<g id="edge5" class="edge"><title>Node1&#45;&gt;Node6</title>
<path fill="none" stroke="midnightblue" d="M724.22,-412.475C638.789,-410.385 357.23,-401.085 274,-368 181.135,-331.085 94.8426,-243.842 61.5171,-207.421"/>
<polygon fill="midnightblue" stroke="midnightblue" points="63.8439,-204.775 54.5472,-199.693 58.6458,-209.463 63.8439,-204.775"/>
</g>
<!-- Node7 -->
<g id="node7" class="node"><title>Node7</title>
<g id="a_node7"><a xlink:href="lib_2libdpd_2dpd_8h.html" target="_top" xlink:title="Enter brief description of file here.">
<polygon fill="none" stroke="black" points="467.5,-180.5 467.5,-199.5 536.5,-199.5 536.5,-180.5 467.5,-180.5"/>
<text text-anchor="middle" x="502" y="-187.5" font-family="Helvetica,sans-Serif" font-size="10.00">libdpd/dpd.h</text>
</a>
</g>
</g>
<!-- Node1&#45;&gt;Node7 -->
<g id="edge7" class="edge"><title>Node1&#45;&gt;Node7</title>
<path fill="none" stroke="midnightblue" d="M724.379,-406.701C700.701,-399.832 664.67,-387.188 638,-368 576.73,-323.919 529.966,-244.455 511.103,-208.966"/>
<polygon fill="midnightblue" stroke="midnightblue" points="514.064,-207.075 506.345,-199.818 507.854,-210.305 514.064,-207.075"/>
</g>
<!-- Node12 -->
<g id="node12" class="node"><title>Node12</title>
<g id="a_node12"><a xlink:href="chkpt_8h_source.html" target="_top" xlink:title="libchkpt/chkpt.h">
<polygon fill="none" stroke="black" points="2032,-348.5 2032,-367.5 2118,-367.5 2118,-348.5 2032,-348.5"/>
<text text-anchor="middle" x="2075" y="-355.5" font-family="Helvetica,sans-Serif" font-size="10.00">libchkpt/chkpt.h</text>
</a>
</g>
</g>
<!-- Node1&#45;&gt;Node12 -->
<g id="edge13" class="edge"><title>Node1&#45;&gt;Node12</title>
<path fill="none" stroke="midnightblue" d="M773.759,-412.586C926.83,-409.958 1746.45,-394.874 2021.59,-367.963"/>
<polygon fill="midnightblue" stroke="midnightblue" points="2022.33,-371.405 2031.93,-366.919 2021.63,-364.441 2022.33,-371.405"/>
</g>
<!-- Node13 -->
<g id="node13" class="node"><title>Node13</title>
<g id="a_node13"><a xlink:href="psio_8hpp_source.html" target="_top" xlink:title="libpsio/psio.hpp">
<polygon fill="none" stroke="black" points="815,-180.5 815,-199.5 899,-199.5 899,-180.5 815,-180.5"/>
<text text-anchor="middle" x="857" y="-187.5" font-family="Helvetica,sans-Serif" font-size="10.00">libpsio/psio.hpp</text>
</a>
</g>
</g>
<!-- Node1&#45;&gt;Node13 -->
<g id="edge14" class="edge"><title>Node1&#45;&gt;Node13</title>
<path fill="none" stroke="midnightblue" d="M753.234,-404.297C769.226,-371.425 826.161,-254.391 848.199,-209.09"/>
<polygon fill="midnightblue" stroke="midnightblue" points="851.451,-210.407 852.678,-199.884 845.156,-207.345 851.451,-210.407"/>
</g>
<!-- Node18 -->
<g id="node18" class="node"><title>Node18</title>
<g id="a_node18"><a xlink:href="qt_8h.html" target="_top" xlink:title="Header file for the Quantum Trio LibraryDavid Sherrill 1994.">
<polygon fill="none" stroke="black" points="629,-62.5 629,-81.5 683,-81.5 683,-62.5 629,-62.5"/>
<text text-anchor="middle" x="656" y="-69.5" font-family="Helvetica,sans-Serif" font-size="10.00">libqt/qt.h</text>
</a>
</g>
</g>
<!-- Node1&#45;&gt;Node18 -->
<g id="edge20" class="edge"><title>Node1&#45;&gt;Node18</title>
<path fill="none" stroke="midnightblue" d="M737.457,-404.433C716.196,-387.571 673,-347.799 673,-303 673,-303 673,-303 673,-245 673,-199.619 661.979,-189.206 658,-144 656.447,-126.359 656.007,-106.167 655.92,-91.8381"/>
<polygon fill="midnightblue" stroke="midnightblue" points="659.42,-91.7607 655.911,-81.7638 652.42,-91.7668 659.42,-91.7607"/>
</g>
<!-- Node19 -->
<g id="node19" class="node"><title>Node19</title>
<g id="a_node19"><a xlink:href="iwl_8h_source.html" target="_top" xlink:title="libiwl/iwl.h">
<polygon fill="none" stroke="black" points="551,-236.5 551,-255.5 613,-255.5 613,-236.5 551,-236.5"/>
<text text-anchor="middle" x="582" y="-243.5" font-family="Helvetica,sans-Serif" font-size="10.00">libiwl/iwl.h</text>
</a>
</g>
</g>
<!-- Node1&#45;&gt;Node19 -->
<g id="edge23" class="edge"><title>Node1&#45;&gt;Node19</title>
<path fill="none" stroke="midnightblue" d="M724.317,-404.827C704.915,-397.484 678.07,-385.199 659,-368 625.847,-338.1 601.363,-290.728 589.667,-265.026"/>
<polygon fill="midnightblue" stroke="midnightblue" points="592.809,-263.476 585.571,-255.738 586.404,-266.3 592.809,-263.476"/>
</g>
<!-- Node22 -->
<g id="node22" class="node"><title>Node22</title>
<polygon fill="none" stroke="#bfbfbf" points="2136,-348.5 2136,-367.5 2206,-367.5 2206,-348.5 2136,-348.5"/>
<text text-anchor="middle" x="2171" y="-355.5" font-family="Helvetica,sans-Serif" font-size="10.00">physconst.h</text>
</g>
<!-- Node1&#45;&gt;Node22 -->
<g id="edge29" class="edge"><title>Node1&#45;&gt;Node22</title>
<path fill="none" stroke="midnightblue" d="M773.664,-412.765C933.824,-411.156 1828.73,-400.854 2125.25,-367.968"/>
<polygon fill="midnightblue" stroke="midnightblue" points="2126.01,-371.405 2135.54,-366.789 2125.21,-364.45 2126.01,-371.405"/>
</g>
<!-- Node8 -->
<g id="node8" class="node"><title>Node8</title>
<g id="a_node8"><a xlink:href="psifiles_8h_source.html" target="_top" xlink:title="psifiles.h">
<polygon fill="none" stroke="black" points="263,-124.5 263,-143.5 319,-143.5 319,-124.5 263,-124.5"/>
<text text-anchor="middle" x="291" y="-131.5" font-family="Helvetica,sans-Serif" font-size="10.00">psifiles.h</text>
</a>
</g>
</g>
<!-- Node1&#45;&gt;Node8 -->
<g id="edge30" class="edge"><title>Node1&#45;&gt;Node8</title>
<path fill="none" stroke="midnightblue" d="M724.265,-411.829C639.459,-407.611 363.967,-392.154 333,-368 308.718,-349.06 309,-333.795 309,-303 309,-303 309,-303 309,-245 309,-212.537 301.27,-175.384 295.942,-153.628"/>
<polygon fill="midnightblue" stroke="midnightblue" points="299.288,-152.587 293.428,-143.76 292.505,-154.315 299.288,-152.587"/>
</g>
<!-- Node23 -->
<g id="node23" class="node"><title>Node23</title>
<g id="a_node23"><a xlink:href="wavefunction_8h_source.html" target="_top" xlink:title="libmints/wavefunction.h">
<polygon fill="none" stroke="black" points="1679.5,-348.5 1679.5,-367.5 1798.5,-367.5 1798.5,-348.5 1679.5,-348.5"/>
<text text-anchor="middle" x="1739" y="-355.5" font-family="Helvetica,sans-Serif" font-size="10.00">libmints/wavefunction.h</text>
</a>
</g>
</g>
<!-- Node1&#45;&gt;Node23 -->
<g id="edge31" class="edge"><title>Node1&#45;&gt;Node23</title>
<path fill="none" stroke="midnightblue" d="M773.967,-411.638C900.114,-404.757 1469.19,-373.717 1669.21,-362.807"/>
<polygon fill="midnightblue" stroke="midnightblue" points="1669.51,-366.296 1679.31,-362.256 1669.13,-359.306 1669.51,-366.296"/>
</g>
<!-- Node47 -->
<g id="node47" class="node"><title>Node47</title>
<g id="a_node47"><a xlink:href="mp2wave_8h_source.html" target="_top" xlink:title="mp2wave.h">
<polygon fill="none" stroke="black" points="2224.5,-348.5 2224.5,-367.5 2291.5,-367.5 2291.5,-348.5 2224.5,-348.5"/>
<text text-anchor="middle" x="2258" y="-355.5" font-family="Helvetica,sans-Serif" font-size="10.00">mp2wave.h</text>
</a>
</g>
</g>
<!-- Node1&#45;&gt;Node47 -->
<g id="edge76" class="edge"><title>Node1&#45;&gt;Node47</title>
<path fill="none" stroke="midnightblue" d="M773.601,-412.837C939.586,-411.647 1898.56,-403.366 2214.24,-367.807"/>
<polygon fill="midnightblue" stroke="midnightblue" points="2214.76,-371.27 2224.29,-366.639 2213.95,-364.317 2214.76,-371.27"/>
</g>
<!-- Node48 -->
<g id="node48" class="node"><title>Node48</title>
<g id="a_node48"><a xlink:href="attic_2mp2_2globals_8h.html" target="_top" xlink:title="Enter brief description of file here.">
<polygon fill="none" stroke="black" points="225,-236.5 225,-255.5 281,-255.5 281,-236.5 225,-236.5"/>
<text text-anchor="middle" x="253" y="-243.5" font-family="Helvetica,sans-Serif" font-size="10.00">globals.h</text>
</a>
</g>
</g>
<!-- Node1&#45;&gt;Node48 -->
<g id="edge77" class="edge"><title>Node1&#45;&gt;Node48</title>
<path fill="none" stroke="midnightblue" d="M724.2,-412.087C634.285,-408.568 328.896,-394.73 295,-368 263.528,-343.181 255.553,-293.325 253.589,-265.994"/>
<polygon fill="midnightblue" stroke="midnightblue" points="257.074,-265.605 253.064,-255.798 250.083,-265.965 257.074,-265.605"/>
</g>
<!-- Node6&#45;&gt;Node2 -->
<g id="edge6" class="edge"><title>Node6&#45;&gt;Node2</title>
<path fill="none" stroke="midnightblue" d="M61.9691,-180.439C103.575,-157.003 224.679,-91.2064 333,-56 401.96,-33.5868 486.369,-20.5715 531.299,-14.7313"/>
<polygon fill="midnightblue" stroke="midnightblue" points="531.834,-18.1916 541.316,-13.4639 530.955,-11.247 531.834,-18.1916"/>
</g>
<!-- Node7&#45;&gt;Node2 -->
<g id="edge8" class="edge"><title>Node7&#45;&gt;Node2</title>
<path fill="none" stroke="midnightblue" d="M504.942,-180.415C514.3,-153.11 543.524,-67.8317 556.583,-29.7237"/>
<polygon fill="midnightblue" stroke="midnightblue" points="560.013,-30.5131 559.944,-19.9185 553.391,-28.2437 560.013,-30.5131"/>
</g>
<!-- Node7&#45;&gt;Node8 -->
<g id="edge9" class="edge"><title>Node7&#45;&gt;Node8</title>
<path fill="none" stroke="midnightblue" d="M468.566,-180.444C430.618,-170.731 368.839,-154.921 329.068,-144.743"/>
<polygon fill="midnightblue" stroke="midnightblue" points="329.768,-141.309 319.213,-142.22 328.033,-148.09 329.768,-141.309"/>
</g>
<!-- Node9 -->
<g id="node9" class="node"><title>Node9</title>
<g id="a_node9"><a xlink:href="libpsio_2config_8h_source.html" target="_top" xlink:title="libpsio/config.h">
<polygon fill="none" stroke="black" points="415,-124.5 415,-143.5 497,-143.5 497,-124.5 415,-124.5"/>
<text text-anchor="middle" x="456" y="-131.5" font-family="Helvetica,sans-Serif" font-size="10.00">libpsio/config.h</text>
</a>
</g>
</g>
<!-- Node7&#45;&gt;Node9 -->
<g id="edge10" class="edge"><title>Node7&#45;&gt;Node9</title>
<path fill="none" stroke="midnightblue" d="M494.404,-180.083C487.773,-172.298 477.979,-160.801 469.942,-151.367"/>
<polygon fill="midnightblue" stroke="midnightblue" points="472.604,-149.094 463.455,-143.751 467.275,-153.633 472.604,-149.094"/>
</g>
<!-- Node10 -->
<g id="node10" class="node"><title>Node10</title>
<polygon fill="none" stroke="#bfbfbf" points="667,-124.5 667,-143.5 775,-143.5 775,-124.5 667,-124.5"/>
<text text-anchor="middle" x="721" y="-131.5" font-family="Helvetica,sans-Serif" font-size="10.00">boost/shared_ptr.hpp</text>
</g>
<!-- Node7&#45;&gt;Node10 -->
<g id="edge11" class="edge"><title>Node7&#45;&gt;Node10</title>
<path fill="none" stroke="midnightblue" d="M536.701,-180.444C574.585,-171.102 635.349,-156.119 676.662,-145.933"/>
<polygon fill="midnightblue" stroke="midnightblue" points="677.59,-149.309 686.461,-143.516 675.914,-142.512 677.59,-149.309"/>
</g>
<!-- Node11 -->
<g id="node11" class="node"><title>Node11</title>
<polygon fill="none" stroke="#bfbfbf" points="1239,-0.5 1239,-19.5 1283,-19.5 1283,-0.5 1239,-0.5"/>
<text text-anchor="middle" x="1261" y="-7.5" font-family="Helvetica,sans-Serif" font-size="10.00">vector</text>
</g>
<!-- Node7&#45;&gt;Node11 -->
<g id="edge12" class="edge"><title>Node7&#45;&gt;Node11</title>
<path fill="none" stroke="midnightblue" d="M536.662,-184.64C551.255,-182.948 568.432,-181.147 584,-180 1007.16,-148.834 1119.79,-215.646 1538,-144 1579.29,-136.926 1693.17,-121.736 1718,-88 1726.43,-76.5466 1727.55,-66.5379 1718,-56 1689.52,-24.5819 1392.76,-14.3049 1293.29,-11.729"/>
<polygon fill="midnightblue" stroke="midnightblue" points="1293.31,-8.22854 1283.22,-11.4775 1293.13,-15.2264 1293.31,-8.22854"/>
</g>
<!-- Node14 -->
<g id="node14" class="node"><title>Node14</title>
<polygon fill="none" stroke="#bfbfbf" points="834.5,-0.5 834.5,-19.5 875.5,-19.5 875.5,-0.5 834.5,-0.5"/>
<text text-anchor="middle" x="855" y="-7.5" font-family="Helvetica,sans-Serif" font-size="10.00">string</text>
</g>
<!-- Node13&#45;&gt;Node14 -->
<g id="edge15" class="edge"><title>Node13&#45;&gt;Node14</title>
<path fill="none" stroke="midnightblue" d="M847.796,-180.297C834.186,-167.547 807.74,-143.22 784,-124 762.997,-106.996 747.204,-112.111 735,-88 728.577,-75.3108 726.899,-67.6896 735,-56 754.891,-27.2974 795.497,-16.8747 823.941,-13.1063"/>
<polygon fill="midnightblue" stroke="midnightblue" points="824.629,-16.5514 834.179,-11.9635 823.852,-9.59456 824.629,-16.5514"/>
</g>
<!-- Node15 -->
<g id="node15" class="node"><title>Node15</title>
<polygon fill="none" stroke="#bfbfbf" points="777.5,-62.5 777.5,-81.5 812.5,-81.5 812.5,-62.5 777.5,-62.5"/>
<text text-anchor="middle" x="795" y="-69.5" font-family="Helvetica,sans-Serif" font-size="10.00">map</text>
</g>
<!-- Node13&#45;&gt;Node15 -->
<g id="edge16" class="edge"><title>Node13&#45;&gt;Node15</title>
<path fill="none" stroke="midnightblue" d="M852.34,-180.281C842.147,-161.21 817.709,-115.488 804.261,-90.3272"/>
<polygon fill="midnightblue" stroke="midnightblue" points="807.346,-88.6743 799.546,-81.5048 801.173,-91.9739 807.346,-88.6743"/>
</g>
<!-- Node16 -->
<g id="node16" class="node"><title>Node16</title>
<polygon fill="none" stroke="#bfbfbf" points="869,-124.5 869,-143.5 899,-143.5 899,-124.5 869,-124.5"/>
<text text-anchor="middle" x="884" y="-131.5" font-family="Helvetica,sans-Serif" font-size="10.00">set</text>
</g>
<!-- Node13&#45;&gt;Node16 -->
<g id="edge17" class="edge"><title>Node13&#45;&gt;Node16</title>
<path fill="none" stroke="midnightblue" d="M861.459,-180.083C865.154,-172.691 870.523,-161.953 875.094,-152.811"/>
<polygon fill="midnightblue" stroke="midnightblue" points="878.283,-154.261 879.624,-143.751 872.022,-151.13 878.283,-154.261"/>
</g>
<!-- Node17 -->
<g id="node17" class="node"><title>Node17</title>
<polygon fill="none" stroke="#bfbfbf" points="917.5,-124.5 917.5,-143.5 960.5,-143.5 960.5,-124.5 917.5,-124.5"/>
<text text-anchor="middle" x="939" y="-131.5" font-family="Helvetica,sans-Serif" font-size="10.00">queue</text>
</g>
<!-- Node13&#45;&gt;Node17 -->
<g id="edge18" class="edge"><title>Node13&#45;&gt;Node17</title>
<path fill="none" stroke="midnightblue" d="M870.175,-180.324C882.847,-171.979 902.233,-159.212 917.206,-149.352"/>
<polygon fill="midnightblue" stroke="midnightblue" points="919.431,-152.078 925.858,-143.655 915.581,-146.231 919.431,-152.078"/>
</g>
<!-- Node13&#45;&gt;Node9 -->
<g id="edge19" class="edge"><title>Node13&#45;&gt;Node9</title>
<path fill="none" stroke="midnightblue" d="M814.844,-183.323C740.849,-173.359 587.858,-152.756 507.642,-141.954"/>
<polygon fill="midnightblue" stroke="midnightblue" points="507.669,-138.426 497.292,-140.56 506.735,-145.364 507.669,-138.426"/>
</g>
<!-- Node18&#45;&gt;Node2 -->
<g id="edge21" class="edge"><title>Node18&#45;&gt;Node2</title>
<path fill="none" stroke="midnightblue" d="M642.675,-62.4035C627.62,-52.6905 602.884,-36.7319 584.963,-25.1697"/>
<polygon fill="midnightblue" stroke="midnightblue" points="586.6,-22.0609 576.3,-19.5806 582.805,-27.9429 586.6,-22.0609"/>
</g>
<!-- Node18&#45;&gt;Node14 -->
<g id="edge22" class="edge"><title>Node18&#45;&gt;Node14</title>
<path fill="none" stroke="midnightblue" d="M678.454,-62.449C684.449,-60.2582 690.945,-57.9671 697,-56 740.868,-41.7495 792.364,-27.5457 824.344,-19.0164"/>
<polygon fill="midnightblue" stroke="midnightblue" points="825.633,-22.2956 834.402,-16.3495 823.839,-15.5294 825.633,-22.2956"/>
</g>
<!-- Node19&#45;&gt;Node2 -->
<g id="edge24" class="edge"><title>Node19&#45;&gt;Node2</title>
<path fill="none" stroke="midnightblue" d="M581.301,-236.394C578.555,-202.573 568.463,-78.2815 564.558,-30.1838"/>
<polygon fill="midnightblue" stroke="midnightblue" points="568.023,-29.6178 563.725,-19.9339 561.046,-30.1844 568.023,-29.6178"/>
</g>
<!-- Node20 -->
<g id="node20" class="node"><title>Node20</title>
<g id="a_node20"><a xlink:href="psio_8h_source.html" target="_top" xlink:title="libpsio/psio.h">
<polygon fill="none" stroke="black" points="375,-180.5 375,-199.5 449,-199.5 449,-180.5 375,-180.5"/>
<text text-anchor="middle" x="412" y="-187.5" font-family="Helvetica,sans-Serif" font-size="10.00">libpsio/psio.h</text>
</a>
</g>
</g>
<!-- Node19&#45;&gt;Node20 -->
<g id="edge25" class="edge"><title>Node19&#45;&gt;Node20</title>
<path fill="none" stroke="midnightblue" d="M555.063,-236.444C526.34,-227.32 480.671,-212.813 448.679,-202.651"/>
<polygon fill="midnightblue" stroke="midnightblue" points="449.401,-199.208 438.811,-199.516 447.282,-205.88 449.401,-199.208"/>
</g>
<!-- Node21 -->
<g id="node21" class="node"><title>Node21</title>
<g id="a_node21"><a xlink:href="libiwl_2config_8h_source.html" target="_top" xlink:title="config.h">
<polygon fill="none" stroke="black" points="593.5,-180.5 593.5,-199.5 644.5,-199.5 644.5,-180.5 593.5,-180.5"/>
<text text-anchor="middle" x="619" y="-187.5" font-family="Helvetica,sans-Serif" font-size="10.00">config.h</text>
</a>
</g>
</g>
<!-- Node19&#45;&gt;Node21 -->
<g id="edge28" class="edge"><title>Node19&#45;&gt;Node21</title>
<path fill="none" stroke="midnightblue" d="M588.11,-236.083C593.282,-228.534 600.846,-217.495 607.194,-208.23"/>
<polygon fill="midnightblue" stroke="midnightblue" points="610.239,-209.979 613.004,-199.751 604.464,-206.022 610.239,-209.979"/>
</g>
<!-- Node20&#45;&gt;Node2 -->
<g id="edge26" class="edge"><title>Node20&#45;&gt;Node2</title>
<path fill="none" stroke="midnightblue" d="M408.428,-180.448C403.595,-167.465 396.595,-142.357 406,-124 432.357,-72.5562 494.243,-39.2072 531.968,-22.876"/>
<polygon fill="midnightblue" stroke="midnightblue" points="533.586,-25.9932 541.46,-18.9048 530.884,-19.5355 533.586,-25.9932"/>
</g>
<!-- Node20&#45;&gt;Node9 -->
<g id="edge27" class="edge"><title>Node20&#45;&gt;Node9</title>
<path fill="none" stroke="midnightblue" d="M419.266,-180.083C425.545,-172.377 434.788,-161.033 442.431,-151.653"/>
<polygon fill="midnightblue" stroke="midnightblue" points="445.266,-153.714 448.869,-143.751 439.839,-149.293 445.266,-153.714"/>
</g>
<!-- Node24 -->
<g id="node24" class="node"><title>Node24</title>
<polygon fill="none" stroke="#bfbfbf" points="1786,-292.5 1786,-311.5 1838,-311.5 1838,-292.5 1786,-292.5"/>
<text text-anchor="middle" x="1812" y="-299.5" font-family="Helvetica,sans-Serif" font-size="10.00">stddef.h</text>
</g>
<!-- Node23&#45;&gt;Node24 -->
<g id="edge32" class="edge"><title>Node23&#45;&gt;Node24</title>
<path fill="none" stroke="midnightblue" d="M1750.73,-348.324C1761.84,-340.107 1778.74,-327.602 1791.98,-317.807"/>
<polygon fill="midnightblue" stroke="midnightblue" points="1794.1,-320.595 1800.06,-311.834 1789.94,-314.967 1794.1,-320.595"/>
</g>
<!-- Node23&#45;&gt;Node11 -->
<g id="edge33" class="edge"><title>Node23&#45;&gt;Node11</title>
<path fill="none" stroke="midnightblue" d="M1767.65,-348.481C1823.61,-329.878 1942,-280.004 1942,-191 1942,-191 1942,-191 1942,-133 1942,-97.7513 1950,-78.6639 1923,-56 1898.62,-35.5354 1422.82,-16.8626 1293.31,-12.1437"/>
<polygon fill="midnightblue" stroke="midnightblue" points="1293.34,-8.64283 1283.22,-11.7791 1293.09,-15.6383 1293.34,-8.64283"/>
</g>
<!-- Node25 -->
<g id="node25" class="node"><title>Node25</title>
<g id="a_node25"><a xlink:href="typedefs_8h_source.html" target="_top" xlink:title="typedefs.h">
<polygon fill="none" stroke="black" points="1683,-124.5 1683,-143.5 1745,-143.5 1745,-124.5 1683,-124.5"/>
<text text-anchor="middle" x="1714" y="-131.5" font-family="Helvetica,sans-Serif" font-size="10.00">typedefs.h</text>
</a>
</g>
</g>
<!-- Node23&#45;&gt;Node25 -->
<g id="edge34" class="edge"><title>Node23&#45;&gt;Node25</title>
<path fill="none" stroke="midnightblue" d="M1738.02,-348.297C1734.34,-315.633 1721.3,-199.866 1716.13,-153.957"/>
<polygon fill="midnightblue" stroke="midnightblue" points="1719.6,-153.429 1715,-143.884 1712.64,-154.213 1719.6,-153.429"/>
</g>
<!-- Node29 -->
<g id="node29" class="node"><title>Node29</title>
<polygon fill="none" stroke="#bfbfbf" points="1766.5,-62.5 1766.5,-81.5 1833.5,-81.5 1833.5,-62.5 1766.5,-62.5"/>
<text text-anchor="middle" x="1800" y="-69.5" font-family="Helvetica,sans-Serif" font-size="10.00">exception.h</text>
</g>
<!-- Node23&#45;&gt;Node29 -->
<g id="edge41" class="edge"><title>Node23&#45;&gt;Node29</title>
<path fill="none" stroke="midnightblue" d="M1740.89,-348.189C1749.4,-308.598 1784.17,-146.689 1796.02,-91.5166"/>
<polygon fill="midnightblue" stroke="midnightblue" points="1799.45,-92.2203 1798.13,-81.7082 1792.61,-90.7502 1799.45,-92.2203"/>
</g>
<!-- Node30 -->
<g id="node30" class="node"><title>Node30</title>
<g id="a_node30"><a xlink:href="parallel_8h_source.html" target="_top" xlink:title="libparallel/parallel.h">
<polygon fill="none" stroke="black" points="1255.5,-292.5 1255.5,-311.5 1354.5,-311.5 1354.5,-292.5 1255.5,-292.5"/>
<text text-anchor="middle" x="1305" y="-299.5" font-family="Helvetica,sans-Serif" font-size="10.00">libparallel/parallel.h</text>
</a>
</g>
</g>
<!-- Node23&#45;&gt;Node30 -->
<g id="edge42" class="edge"><title>Node23&#45;&gt;Node30</title>
<path fill="none" stroke="midnightblue" d="M1679.11,-349.548C1596.18,-339.23 1447.28,-320.702 1364.54,-310.408"/>
<polygon fill="midnightblue" stroke="midnightblue" points="1364.89,-306.925 1354.54,-309.164 1364.03,-313.872 1364.89,-306.925"/>
</g>
<!-- Node26 -->
<g id="node26" class="node"><title>Node26</title>
<g id="a_node26"><a xlink:href="compiler_8h_source.html" target="_top" xlink:title="compiler.h">
<polygon fill="none" stroke="black" points="1852,-62.5 1852,-81.5 1914,-81.5 1914,-62.5 1852,-62.5"/>
<text text-anchor="middle" x="1883" y="-69.5" font-family="Helvetica,sans-Serif" font-size="10.00">compiler.h</text>
</a>
</g>
</g>
<!-- Node25&#45;&gt;Node26 -->
<g id="edge35" class="edge"><title>Node25&#45;&gt;Node26</title>
<path fill="none" stroke="midnightblue" d="M1738.57,-124.465C1764.36,-115.482 1806.08,-100.884 1842,-88 1844.59,-87.0723 1847.26,-86.1066 1849.95,-85.1323"/>
<polygon fill="midnightblue" stroke="midnightblue" points="1851.4,-88.3281 1859.6,-81.6181 1849.01,-81.7505 1851.4,-88.3281"/>
</g>
<!-- Node28 -->
<g id="node28" class="node"><title>Node28</title>
<g id="a_node28"><a xlink:href="dimension_8h_source.html" target="_top" xlink:title="dimension.h">
<polygon fill="none" stroke="black" points="989.5,-62.5 989.5,-81.5 1058.5,-81.5 1058.5,-62.5 989.5,-62.5"/>
<text text-anchor="middle" x="1024" y="-69.5" font-family="Helvetica,sans-Serif" font-size="10.00">dimension.h</text>
</a>
</g>
</g>
<!-- Node25&#45;&gt;Node28 -->
<g id="edge37" class="edge"><title>Node25&#45;&gt;Node28</title>
<path fill="none" stroke="midnightblue" d="M1682.81,-131.32C1561.89,-124.737 1127.66,-100.457 1067,-88 1063.02,-87.1824 1058.9,-86.0883 1054.87,-84.8618"/>
<polygon fill="midnightblue" stroke="midnightblue" points="1055.71,-81.4549 1045.12,-81.622 1053.5,-88.0976 1055.71,-81.4549"/>
</g>
<!-- Node27 -->
<g id="node27" class="node"><title>Node27</title>
<polygon fill="none" stroke="#bfbfbf" points="1899,-0.5 1899,-19.5 1963,-19.5 1963,-0.5 1899,-0.5"/>
<text text-anchor="middle" x="1931" y="-7.5" font-family="Helvetica,sans-Serif" font-size="10.00">psiconfig.h</text>
</g>
<!-- Node26&#45;&gt;Node27 -->
<g id="edge36" class="edge"><title>Node26&#45;&gt;Node27</title>
<path fill="none" stroke="midnightblue" d="M1889.88,-62.4035C1897.15,-53.3143 1908.8,-38.7559 1917.84,-27.4489"/>
<polygon fill="midnightblue" stroke="midnightblue" points="1920.62,-29.5757 1924.14,-19.5806 1915.16,-25.2029 1920.62,-29.5757"/>
</g>
<!-- Node28&#45;&gt;Node14 -->
<g id="edge38" class="edge"><title>Node28&#45;&gt;Node14</title>
<path fill="none" stroke="midnightblue" d="M999.786,-62.4035C969.596,-51.685 917.983,-33.3608 885.229,-21.732"/>
<polygon fill="midnightblue" stroke="midnightblue" points="886.308,-18.4014 875.713,-18.3539 883.966,-24.998 886.308,-18.4014"/>
</g>
<!-- Node28&#45;&gt;Node2 -->
<g id="edge39" class="edge"><title>Node28&#45;&gt;Node2</title>
<path fill="none" stroke="midnightblue" d="M989.368,-64.1673C974.78,-61.4186 957.599,-58.3504 942,-56 813.834,-36.6881 660.252,-20.6154 594.924,-14.107"/>
<polygon fill="midnightblue" stroke="midnightblue" points="595.151,-10.6124 584.854,-13.11 594.461,-17.5783 595.151,-10.6124"/>
</g>
<!-- Node28&#45;&gt;Node11 -->
<g id="edge40" class="edge"><title>Node28&#45;&gt;Node11</title>
<path fill="none" stroke="midnightblue" d="M1047.05,-62.4024C1053.46,-60.1638 1060.46,-57.8605 1067,-56 1134.89,-36.686 1155.7,-37.8461 1228.53,-19.9783"/>
<polygon fill="midnightblue" stroke="midnightblue" points="1229.81,-23.2672 1238.66,-17.4529 1228.11,-16.475 1229.81,-23.2672"/>
</g>
<!-- Node30&#45;&gt;Node10 -->
<g id="edge43" class="edge"><title>Node30&#45;&gt;Node10</title>
<path fill="none" stroke="midnightblue" d="M1255.28,-298.325C1162.89,-291.784 960.117,-269.988 806,-200 779.209,-187.833 753.031,-165.84 736.964,-150.837"/>
<polygon fill="midnightblue" stroke="midnightblue" points="739.175,-148.108 729.533,-143.717 734.333,-153.163 739.175,-148.108"/>
</g>
<!-- Node30&#45;&gt;Node27 -->
<g id="edge44" class="edge"><title>Node30&#45;&gt;Node27</title>
<path fill="none" stroke="midnightblue" d="M1336.51,-292.492C1415.68,-270.804 1628.9,-210.443 1801,-144 1856.66,-122.512 1888.24,-136.488 1923,-88 1935.09,-71.1377 1935.51,-46.6119 1933.93,-29.7969"/>
<polygon fill="midnightblue" stroke="midnightblue" points="1937.37,-29.0604 1932.65,-19.5767 1930.42,-29.9359 1937.37,-29.0604"/>
</g>
<!-- Node30&#45;&gt;Node2 -->
<g id="edge45" class="edge"><title>Node30&#45;&gt;Node2</title>
<path fill="none" stroke="midnightblue" d="M1255.24,-299.873C1178.78,-297.148 1028.32,-287.833 905,-256 842.104,-239.764 829.086,-226.986 770,-200 719.377,-176.879 700.31,-180.154 658,-144 618.229,-110.016 586.471,-56.0026 571.812,-28.4333"/>
<polygon fill="midnightblue" stroke="midnightblue" points="574.917,-26.819 567.201,-19.5587 568.705,-30.0462 574.917,-26.819"/>
</g>
<!-- Node31 -->
<g id="node31" class="node"><title>Node31</title>
<g id="a_node31"><a xlink:href="libparallel_2local_8h_source.html" target="_top" xlink:title="libparallel/local.h">
<polygon fill="none" stroke="black" points="1260.5,-236.5 1260.5,-255.5 1349.5,-255.5 1349.5,-236.5 1260.5,-236.5"/>
<text text-anchor="middle" x="1305" y="-243.5" font-family="Helvetica,sans-Serif" font-size="10.00">libparallel/local.h</text>
</a>
</g>
</g>
<!-- Node30&#45;&gt;Node31 -->
<g id="edge46" class="edge"><title>Node30&#45;&gt;Node31</title>
<path fill="none" stroke="midnightblue" d="M1305,-292.083C1305,-285.006 1305,-274.861 1305,-265.986"/>
<polygon fill="midnightblue" stroke="midnightblue" points="1308.5,-265.751 1305,-255.751 1301.5,-265.751 1308.5,-265.751"/>
</g>
<!-- Node32 -->
<g id="node32" class="node"><title>Node32</title>
<g id="a_node32"><a xlink:href="psi4-dec_8h_source.html" target="_top" xlink:title="psi4&#45;dec.h">
<polygon fill="none" stroke="black" points="1126,-180.5 1126,-199.5 1188,-199.5 1188,-180.5 1126,-180.5"/>
<text text-anchor="middle" x="1157" y="-187.5" font-family="Helvetica,sans-Serif" font-size="10.00">psi4&#45;dec.h</text>
</a>
</g>
</g>
<!-- Node31&#45;&gt;Node32 -->
<g id="edge47" class="edge"><title>Node31&#45;&gt;Node32</title>
<path fill="none" stroke="midnightblue" d="M1281.55,-236.444C1256.87,-227.438 1217.81,-213.189 1190.02,-203.049"/>
<polygon fill="midnightblue" stroke="midnightblue" points="1190.94,-199.656 1180.34,-199.516 1188.54,-206.232 1190.94,-199.656"/>
</g>
<!-- Node31&#45;&gt;Node3 -->
<g id="edge74" class="edge"><title>Node31&#45;&gt;Node3</title>
<path fill="none" stroke="midnightblue" d="M1348.42,-236.444C1403.36,-225.615 1496.77,-207.206 1546.15,-197.474"/>
<polygon fill="midnightblue" stroke="midnightblue" points="1546.85,-200.903 1555.99,-195.535 1545.5,-194.035 1546.85,-200.903"/>
</g>
<!-- Node46 -->
<g id="node46" class="node"><title>Node46</title>
<g id="a_node46"><a xlink:href="openmp_8h_source.html" target="_top" xlink:title="libparallel/openmp.h">
<polygon fill="none" stroke="black" points="1253.5,-180.5 1253.5,-199.5 1356.5,-199.5 1356.5,-180.5 1253.5,-180.5"/>
<text text-anchor="middle" x="1305" y="-187.5" font-family="Helvetica,sans-Serif" font-size="10.00">libparallel/openmp.h</text>
</a>
</g>
</g>
<!-- Node31&#45;&gt;Node46 -->
<g id="edge75" class="edge"><title>Node31&#45;&gt;Node46</title>
<path fill="none" stroke="midnightblue" d="M1305,-236.083C1305,-229.006 1305,-218.861 1305,-209.986"/>
<polygon fill="midnightblue" stroke="midnightblue" points="1308.5,-209.751 1305,-199.751 1301.5,-209.751 1308.5,-209.751"/>
</g>
<!-- Node32&#45;&gt;Node10 -->
<g id="edge48" class="edge"><title>Node32&#45;&gt;Node10</title>
<path fill="none" stroke="midnightblue" d="M1125.99,-185.16C1055.23,-176.395 880.601,-154.767 785.404,-142.977"/>
<polygon fill="midnightblue" stroke="midnightblue" points="785.678,-139.484 775.324,-141.728 784.817,-146.431 785.678,-139.484"/>
</g>
<!-- Node33 -->
<g id="node33" class="node"><title>Node33</title>
<polygon fill="none" stroke="#bfbfbf" points="1286,-62.5 1286,-81.5 1418,-81.5 1418,-62.5 1286,-62.5"/>
<text text-anchor="middle" x="1352" y="-69.5" font-family="Helvetica,sans-Serif" font-size="10.00">boost/current_function.hpp</text>
</g>
<!-- Node32&#45;&gt;Node33 -->
<g id="edge49" class="edge"><title>Node32&#45;&gt;Node33</title>
<path fill="none" stroke="midnightblue" d="M1171.34,-180.47C1204.79,-160.569 1288.25,-110.922 1328.95,-86.711"/>
<polygon fill="midnightblue" stroke="midnightblue" points="1330.84,-89.6628 1337.64,-81.5423 1327.26,-83.6468 1330.84,-89.6628"/>
</g>
<!-- Node32&#45;&gt;Node14 -->
<g id="edge50" class="edge"><title>Node32&#45;&gt;Node14</title>
<path fill="none" stroke="midnightblue" d="M1125.83,-182.291C1094.15,-174.923 1044.04,-161.739 1003,-144 986.907,-137.044 985.442,-130.085 969,-124 883.887,-92.4992 826.242,-157.601 768,-88 758.873,-77.0928 760.606,-68.1491 768,-56 780.196,-35.9606 804.512,-24.4513 824.343,-18.0979"/>
<polygon fill="midnightblue" stroke="midnightblue" points="825.592,-21.3799 834.217,-15.2276 823.638,-14.6581 825.592,-21.3799"/>
</g>
<!-- Node34 -->
<g id="node34" class="node"><title>Node34</title>
<polygon fill="none" stroke="#bfbfbf" points="1186.5,-124.5 1186.5,-143.5 1215.5,-143.5 1215.5,-124.5 1186.5,-124.5"/>
<text text-anchor="middle" x="1201" y="-131.5" font-family="Helvetica,sans-Serif" font-size="10.00">list</text>
</g>
<!-- Node32&#45;&gt;Node34 -->
<g id="edge51" class="edge"><title>Node32&#45;&gt;Node34</title>
<path fill="none" stroke="midnightblue" d="M1164.27,-180.083C1170.54,-172.377 1179.79,-161.033 1187.43,-151.653"/>
<polygon fill="midnightblue" stroke="midnightblue" points="1190.27,-153.714 1193.87,-143.751 1184.84,-149.293 1190.27,-153.714"/>
</g>
<!-- Node32&#45;&gt;Node15 -->
<g id="edge52" class="edge"><title>Node32&#45;&gt;Node15</title>
<path fill="none" stroke="midnightblue" d="M1136.26,-180.467C1114.48,-171.486 1079.28,-156.889 1049,-144 1028.49,-135.268 1024.28,-130.657 1003,-124 924.722,-99.5084 898.999,-116.257 822,-88 820.584,-87.4804 819.154,-86.894 817.728,-86.2616"/>
<polygon fill="midnightblue" stroke="midnightblue" points="819.122,-83.0441 808.62,-81.6445 815.957,-89.2877 819.122,-83.0441"/>
</g>
<!-- Node35 -->
<g id="node35" class="node"><title>Node35</title>
<g id="a_node35"><a xlink:href="liboptions_8h_source.html" target="_top" xlink:title="liboptions/liboptions.h">
<polygon fill="none" stroke="black" points="1058,-124.5 1058,-143.5 1168,-143.5 1168,-124.5 1058,-124.5"/>
<text text-anchor="middle" x="1113" y="-131.5" font-family="Helvetica,sans-Serif" font-size="10.00">liboptions/liboptions.h</text>
</a>
</g>
</g>
<!-- Node32&#45;&gt;Node35 -->
<g id="edge53" class="edge"><title>Node32&#45;&gt;Node35</title>
<path fill="none" stroke="midnightblue" d="M1149.73,-180.083C1143.46,-172.377 1134.21,-161.033 1126.57,-151.653"/>
<polygon fill="midnightblue" stroke="midnightblue" points="1129.16,-149.293 1120.13,-143.751 1123.73,-153.714 1129.16,-149.293"/>
</g>
<!-- Node41 -->
<g id="node41" class="node"><title>Node41</title>
<g id="a_node41"><a xlink:href="include_2exception_8h_source.html" target="_top" xlink:title="exception.h">
<polygon fill="none" stroke="black" points="1462.5,-124.5 1462.5,-143.5 1529.5,-143.5 1529.5,-124.5 1462.5,-124.5"/>
<text text-anchor="middle" x="1496" y="-131.5" font-family="Helvetica,sans-Serif" font-size="10.00">exception.h</text>
</a>
</g>
</g>
<!-- Node32&#45;&gt;Node41 -->
<g id="edge67" class="edge"><title>Node32&#45;&gt;Node41</title>
<path fill="none" stroke="midnightblue" d="M1188.28,-184.017C1248.93,-174.356 1382.63,-153.059 1452.12,-141.99"/>
<polygon fill="midnightblue" stroke="midnightblue" points="1452.97,-145.399 1462.3,-140.369 1451.87,-138.486 1452.97,-145.399"/>
</g>
<!-- Node32&#45;&gt;Node25 -->
<g id="edge73" class="edge"><title>Node32&#45;&gt;Node25</title>
<path fill="none" stroke="midnightblue" d="M1188.4,-185.61C1204.93,-183.86 1225.56,-181.735 1244,-180 1432.73,-162.246 1481.31,-170.631 1669,-144 1670.1,-143.843 1671.22,-143.677 1672.35,-143.502"/>
<polygon fill="midnightblue" stroke="midnightblue" points="1673.34,-146.884 1682.61,-141.749 1672.16,-139.984 1673.34,-146.884"/>
</g>
<!-- Node35&#45;&gt;Node14 -->
<g id="edge54" class="edge"><title>Node35&#45;&gt;Node14</title>
<path fill="none" stroke="midnightblue" d="M1075.89,-124.438C1048.31,-117.146 1010.37,-105.11 980,-88 960.763,-77.1621 960.364,-68.2589 942,-56 923.503,-43.6524 901.2,-32.1765 883.806,-23.9041"/>
<polygon fill="midnightblue" stroke="midnightblue" points="885.245,-20.7134 874.704,-19.6528 882.283,-27.0557 885.245,-20.7134"/>
</g>
<!-- Node35&#45;&gt;Node11 -->
<g id="edge55" class="edge"><title>Node35&#45;&gt;Node11</title>
<path fill="none" stroke="midnightblue" d="M1168.3,-124.984C1192.98,-118.742 1220.57,-107.659 1239,-88 1253.75,-72.258 1258.71,-47.3057 1260.32,-30.0945"/>
<polygon fill="midnightblue" stroke="midnightblue" points="1263.84,-29.8249 1260.98,-19.6242 1256.85,-29.3837 1263.84,-29.8249"/>
</g>
<!-- Node35&#45;&gt;Node15 -->
<g id="edge56" class="edge"><title>Node35&#45;&gt;Node15</title>
<path fill="none" stroke="midnightblue" d="M1057.69,-125.519C979.538,-114.784 843.822,-95.4809 822,-88 820.542,-87.5001 819.07,-86.9232 817.607,-86.2931"/>
<polygon fill="midnightblue" stroke="midnightblue" points="818.806,-82.9781 808.299,-81.6109 815.66,-89.2315 818.806,-82.9781"/>
</g>
<!-- Node35&#45;&gt;Node29 -->
<g id="edge57" class="edge"><title>Node35&#45;&gt;Node29</title>
<path fill="none" stroke="midnightblue" d="M1168.13,-124.987C1171.13,-124.632 1174.1,-124.3 1177,-124 1416.7,-99.2048 1478.86,-117.729 1718,-88 1730.45,-86.4517 1743.88,-84.2311 1756.19,-81.9714"/>
<polygon fill="midnightblue" stroke="midnightblue" points="1757.05,-85.3719 1766.22,-80.0779 1755.75,-78.4933 1757.05,-85.3719"/>
</g>
<!-- Node36 -->
<g id="node36" class="node"><title>Node36</title>
<g id="a_node36"><a xlink:href="libutil_8h_source.html" target="_top" xlink:title="libutil/libutil.h">
<polygon fill="none" stroke="black" points="1076.5,-62.5 1076.5,-81.5 1149.5,-81.5 1149.5,-62.5 1076.5,-62.5"/>
<text text-anchor="middle" x="1113" y="-69.5" font-family="Helvetica,sans-Serif" font-size="10.00">libutil/libutil.h</text>
</a>
</g>
</g>
<!-- Node35&#45;&gt;Node36 -->
<g id="edge58" class="edge"><title>Node35&#45;&gt;Node36</title>
<path fill="none" stroke="midnightblue" d="M1113,-124.403C1113,-115.938 1113,-102.728 1113,-91.8199"/>
<polygon fill="midnightblue" stroke="midnightblue" points="1116.5,-91.5806 1113,-81.5806 1109.5,-91.5806 1116.5,-91.5806"/>
</g>
<!-- Node38 -->
<g id="node38" class="node"><title>Node38</title>
<g id="a_node38"><a xlink:href="libutil_2ref_8h_source.html" target="_top" xlink:title="libutil/ref.h">
<polygon fill="none" stroke="red" points="1168,-62.5 1168,-81.5 1230,-81.5 1230,-62.5 1168,-62.5"/>
<text text-anchor="middle" x="1199" y="-69.5" font-family="Helvetica,sans-Serif" font-size="10.00">libutil/ref.h</text>
</a>
</g>
</g>
<!-- Node35&#45;&gt;Node38 -->
<g id="edge62" class="edge"><title>Node35&#45;&gt;Node38</title>
<path fill="none" stroke="midnightblue" d="M1125.32,-124.403C1139.12,-114.78 1161.7,-99.0242 1178.23,-87.4891"/>
<polygon fill="midnightblue" stroke="midnightblue" points="1180.5,-90.1729 1186.7,-81.5806 1176.5,-84.432 1180.5,-90.1729"/>
</g>
<!-- Node40 -->
<g id="node40" class="node"><title>Node40</title>
<polygon fill="none" stroke="#bfbfbf" points="831,-57 831,-87 933,-87 933,-57 831,-57"/>
<text text-anchor="start" x="839" y="-75" font-family="Helvetica,sans-Serif" font-size="10.00">boost/python/object</text>
<text text-anchor="middle" x="882" y="-64" font-family="Helvetica,sans-Serif" font-size="10.00">_fwd.hpp</text>
</g>
<!-- Node35&#45;&gt;Node40 -->
<g id="edge66" class="edge"><title>Node35&#45;&gt;Node40</title>
<path fill="none" stroke="midnightblue" d="M1079.9,-124.403C1044.3,-115.155 986.89,-100.244 943.052,-88.8577"/>
<polygon fill="midnightblue" stroke="midnightblue" points="943.913,-85.4651 933.354,-86.3386 942.153,-92.2403 943.913,-85.4651"/>
</g>
<!-- Node36&#45;&gt;Node14 -->
<g id="edge59" class="edge"><title>Node36&#45;&gt;Node14</title>
<path fill="none" stroke="midnightblue" d="M1088.32,-62.4182C1081.46,-60.1796 1073.98,-57.8724 1067,-56 1003.15,-38.8647 927.079,-24.0526 885.641,-16.4467"/>
<polygon fill="midnightblue" stroke="midnightblue" points="886.102,-12.9734 875.637,-14.6275 884.85,-19.8604 886.102,-12.9734"/>
</g>
<!-- Node36&#45;&gt;Node11 -->
<g id="edge60" class="edge"><title>Node36&#45;&gt;Node11</title>
<path fill="none" stroke="midnightblue" d="M1134.2,-62.4035C1159.37,-52.2004 1201.54,-35.1055 1230.28,-23.4544"/>
<polygon fill="midnightblue" stroke="midnightblue" points="1231.88,-26.5813 1239.83,-19.5806 1229.25,-20.0941 1231.88,-26.5813"/>
</g>
<!-- Node37 -->
<g id="node37" class="node"><title>Node37</title>
<polygon fill="none" stroke="#bfbfbf" points="1082,-0.5 1082,-19.5 1144,-19.5 1144,-0.5 1082,-0.5"/>
<text text-anchor="middle" x="1113" y="-7.5" font-family="Helvetica,sans-Serif" font-size="10.00">sys/time.h</text>
</g>
<!-- Node36&#45;&gt;Node37 -->
<g id="edge61" class="edge"><title>Node36&#45;&gt;Node37</title>
<path fill="none" stroke="midnightblue" d="M1113,-62.4035C1113,-53.9381 1113,-40.7283 1113,-29.8199"/>
<polygon fill="midnightblue" stroke="midnightblue" points="1116.5,-29.5806 1113,-19.5806 1109.5,-29.5806 1116.5,-29.5806"/>
</g>
<!-- Node39 -->
<g id="node39" class="node"><title>Node39</title>
<polygon fill="none" stroke="#bfbfbf" points="1171.5,-0.5 1171.5,-19.5 1220.5,-19.5 1220.5,-0.5 1171.5,-0.5"/>
<text text-anchor="middle" x="1196" y="-7.5" font-family="Helvetica,sans-Serif" font-size="10.00">cstddef</text>
</g>
<!-- Node38&#45;&gt;Node39 -->
<g id="edge63" class="edge"><title>Node38&#45;&gt;Node39</title>
<path fill="none" stroke="midnightblue" d="M1198.57,-62.4035C1198.15,-53.9381 1197.49,-40.7283 1196.94,-29.8199"/>
<polygon fill="midnightblue" stroke="midnightblue" points="1200.42,-29.3933 1196.43,-19.5806 1193.43,-29.7429 1200.42,-29.3933"/>
</g>
<!-- Node38&#45;&gt;Node2 -->
<g id="edge64" class="edge"><title>Node38&#45;&gt;Node2</title>
<path fill="none" stroke="midnightblue" d="M1178.89,-62.3923C1172.34,-59.9295 1164.96,-57.5069 1158,-56 1048.98,-32.4082 702.321,-16.6637 594.99,-12.2588"/>
<polygon fill="midnightblue" stroke="midnightblue" points="594.931,-8.75365 584.798,-11.8452 594.648,-15.7479 594.931,-8.75365"/>
</g>
<!-- Node38&#45;&gt;Node4 -->
<g id="edge65" class="edge"><title>Node38&#45;&gt;Node4</title>
<path fill="none" stroke="midnightblue" d="M1230.05,-64.6058C1244.32,-61.7766 1261.48,-58.5258 1277,-56 1388.29,-37.8834 1521.14,-21.747 1581.41,-14.7234"/>
<polygon fill="midnightblue" stroke="midnightblue" points="1581.92,-18.1868 1591.45,-13.5584 1581.12,-11.2333 1581.92,-18.1868"/>
</g>
<!-- Node42 -->
<g id="node42" class="node"><title>Node42</title>
<polygon fill="none" stroke="#bfbfbf" points="1573.5,-62.5 1573.5,-81.5 1632.5,-81.5 1632.5,-62.5 1573.5,-62.5"/>
<text text-anchor="middle" x="1603" y="-69.5" font-family="Helvetica,sans-Serif" font-size="10.00">exception</text>
</g>
<!-- Node41&#45;&gt;Node42 -->
<g id="edge68" class="edge"><title>Node41&#45;&gt;Node42</title>
<path fill="none" stroke="midnightblue" d="M1511.33,-124.403C1528.97,-114.512 1558.16,-98.1442 1578.86,-86.5378"/>
<polygon fill="midnightblue" stroke="midnightblue" points="1580.69,-89.5244 1587.7,-81.5806 1577.26,-83.4188 1580.69,-89.5244"/>
</g>
<!-- Node43 -->
<g id="node43" class="node"><title>Node43</title>
<polygon fill="none" stroke="#bfbfbf" points="1650.5,-62.5 1650.5,-81.5 1709.5,-81.5 1709.5,-62.5 1650.5,-62.5"/>
<text text-anchor="middle" x="1680" y="-69.5" font-family="Helvetica,sans-Serif" font-size="10.00">stdexcept</text>
</g>
<!-- Node41&#45;&gt;Node43 -->
<g id="edge69" class="edge"><title>Node41&#45;&gt;Node43</title>
<path fill="none" stroke="midnightblue" d="M1525.62,-124.432C1555.06,-115.772 1601.41,-101.741 1641,-88 1643.61,-87.0947 1646.3,-86.127 1649,-85.1355"/>
<polygon fill="midnightblue" stroke="midnightblue" points="1650.51,-88.3071 1658.64,-81.5092 1648.05,-81.7557 1650.51,-88.3071"/>
</g>
<!-- Node44 -->
<g id="node44" class="node"><title>Node44</title>
<polygon fill="none" stroke="#bfbfbf" points="1436,-62.5 1436,-81.5 1488,-81.5 1488,-62.5 1436,-62.5"/>
<text text-anchor="middle" x="1462" y="-69.5" font-family="Helvetica,sans-Serif" font-size="10.00">sstream</text>
</g>
<!-- Node41&#45;&gt;Node44 -->
<g id="edge70" class="edge"><title>Node41&#45;&gt;Node44</title>
<path fill="none" stroke="midnightblue" d="M1491.13,-124.403C1486.13,-115.582 1478.21,-101.608 1471.89,-90.4548"/>
<polygon fill="midnightblue" stroke="midnightblue" points="1474.84,-88.5553 1466.86,-81.5806 1468.75,-92.0064 1474.84,-88.5553"/>
</g>
<!-- Node45 -->
<g id="node45" class="node"><title>Node45</title>
<polygon fill="none" stroke="#bfbfbf" points="1506.5,-62.5 1506.5,-81.5 1555.5,-81.5 1555.5,-62.5 1506.5,-62.5"/>
<text text-anchor="middle" x="1531" y="-69.5" font-family="Helvetica,sans-Serif" font-size="10.00">string.h</text>
</g>
<!-- Node41&#45;&gt;Node45 -->
<g id="edge71" class="edge"><title>Node41&#45;&gt;Node45</title>
<path fill="none" stroke="midnightblue" d="M1501.01,-124.403C1506.16,-115.582 1514.31,-101.608 1520.82,-90.4548"/>
<polygon fill="midnightblue" stroke="midnightblue" points="1523.98,-91.982 1525.99,-81.5806 1517.93,-88.4548 1523.98,-91.982"/>
</g>
<!-- Node41&#45;&gt;Node33 -->
<g id="edge72" class="edge"><title>Node41&#45;&gt;Node33</title>
<path fill="none" stroke="midnightblue" d="M1475.37,-124.403C1450.88,-114.2 1409.85,-97.1055 1381.89,-85.4544"/>
<polygon fill="midnightblue" stroke="midnightblue" points="1383.17,-82.196 1372.59,-81.5806 1380.48,-88.6576 1383.17,-82.196"/>
</g>
<!-- Node48&#45;&gt;Node20 -->
<g id="edge78" class="edge"><title>Node48&#45;&gt;Node20</title>
<path fill="none" stroke="midnightblue" d="M278.194,-236.444C304.943,-227.359 347.403,-212.939 377.305,-202.783"/>
<polygon fill="midnightblue" stroke="midnightblue" points="378.581,-206.046 386.924,-199.516 376.329,-199.418 378.581,-206.046"/>
</g>
<!-- Node48&#45;&gt;Node6 -->
<g id="edge79" class="edge"><title>Node48&#45;&gt;Node6</title>
<path fill="none" stroke="midnightblue" d="M224.789,-237.605C189.844,-228.445 129.981,-212.752 89.4744,-202.134"/>
<polygon fill="midnightblue" stroke="midnightblue" points="90.1807,-198.701 79.62,-199.551 88.4056,-205.472 90.1807,-198.701"/>
</g>
<!-- Node48&#45;&gt;Node8 -->
<g id="edge80" class="edge"><title>Node48&#45;&gt;Node8</title>
<path fill="none" stroke="midnightblue" d="M255.982,-236.368C262.142,-218.537 276.389,-177.295 284.688,-153.272"/>
<polygon fill="midnightblue" stroke="midnightblue" points="288.075,-154.186 288.032,-143.591 281.459,-151.9 288.075,-154.186"/>
</g>
<!-- Node48&#45;&gt;Node32 -->
<g id="edge81" class="edge"><title>Node48&#45;&gt;Node32</title>
<path fill="none" stroke="midnightblue" d="M281.046,-243.325C411.56,-235.529 959.668,-202.788 1115.51,-193.478"/>
<polygon fill="midnightblue" stroke="midnightblue" points="1115.85,-196.965 1125.62,-192.874 1115.43,-189.977 1115.85,-196.965"/>
</g>
<!-- Node49 -->
<g id="node49" class="node"><title>Node49</title>
<g id="a_node49"><a xlink:href="bin_2attic_2mp2_2moinfo_8h.html" target="_top" xlink:title="Enter brief description of file here.">
<polygon fill="none" stroke="black" points="113,-180.5 113,-199.5 167,-199.5 167,-180.5 113,-180.5"/>
<text text-anchor="middle" x="140" y="-187.5" font-family="Helvetica,sans-Serif" font-size="10.00">moinfo.h</text>
</a>
</g>
</g>
<!-- Node48&#45;&gt;Node49 -->
<g id="edge82" class="edge"><title>Node48&#45;&gt;Node49</title>
<path fill="none" stroke="midnightblue" d="M235.095,-236.444C216.746,-227.675 187.995,-213.935 166.906,-203.858"/>
<polygon fill="midnightblue" stroke="midnightblue" points="168.353,-200.67 157.821,-199.516 165.335,-206.986 168.353,-200.67"/>
</g>
<!-- Node50 -->
<g id="node50" class="node"><title>Node50</title>
<g id="a_node50"><a xlink:href="mp2_2params_8h.html" target="_top" xlink:title="Enter brief description of file here.">
<polygon fill="none" stroke="black" points="185.5,-180.5 185.5,-199.5 242.5,-199.5 242.5,-180.5 185.5,-180.5"/>
<text text-anchor="middle" x="214" y="-187.5" font-family="Helvetica,sans-Serif" font-size="10.00">params.h</text>
</a>
</g>
</g>
<!-- Node48&#45;&gt;Node50 -->
<g id="edge83" class="edge"><title>Node48&#45;&gt;Node50</title>
<path fill="none" stroke="midnightblue" d="M246.56,-236.083C241.051,-228.455 232.969,-217.264 226.235,-207.941"/>
<polygon fill="midnightblue" stroke="midnightblue" points="229.013,-205.809 220.32,-199.751 223.338,-209.907 229.013,-205.809"/>
</g>
</g>
</svg>
