<?xml version="1.0" encoding="UTF-8" standalone="no"?>
<!DOCTYPE svg PUBLIC "-//W3C//DTD SVG 1.1//EN"
 "http://www.w3.org/Graphics/SVG/1.1/DTD/svg11.dtd">
<!-- Generated by graphviz version 2.30.1 (20140110.0959)
 -->
<!-- Title: get_params.cc Pages: 1 -->
<svg width="1725pt" height="264pt"
 viewBox="0.00 0.00 1724.60 264.00" xmlns="http://www.w3.org/2000/svg" xmlns:xlink="http://www.w3.org/1999/xlink">
<g id="graph0" class="graph" transform="scale(1 1) rotate(0) translate(4 260)">
<title>get_params.cc</title>
<!-- Node1 -->
<g id="node1" class="node"><title>Node1</title>
<polygon fill="#bfbfbf" stroke="black" points="1133.1,-236.5 1133.1,-255.5 1214.1,-255.5 1214.1,-236.5 1133.1,-236.5"/>
<text text-anchor="middle" x="1173.6" y="-243.5" font-family="Helvetica,sans-Serif" font-size="10.00">get_params.cc</text>
</g>
<!-- Node2 -->
<g id="node2" class="node"><title>Node2</title>
<polygon fill="none" stroke="#bfbfbf" points="130.101,-0.5 130.101,-19.5 173.101,-19.5 173.101,-0.5 130.101,-0.5"/>
<text text-anchor="middle" x="151.601" y="-7.5" font-family="Helvetica,sans-Serif" font-size="10.00">cstdio</text>
</g>
<!-- Node1&#45;&gt;Node2 -->
<g id="edge1" class="edge"><title>Node1&#45;&gt;Node2</title>
<path fill="none" stroke="midnightblue" d="M1133.06,-244.916C968.229,-244.312 348.1,-239.412 156.601,-200 87.7154,-185.823 48.5741,-201.864 8.60064,-144 -27.969,-91.0629 68.2581,-43.5246 120.496,-22.4703"/>
<polygon fill="midnightblue" stroke="midnightblue" points="121.974,-25.6502 130.001,-18.7351 119.413,-19.1352 121.974,-25.6502"/>
</g>
<!-- Node3 -->
<g id="node3" class="node"><title>Node3</title>
<polygon fill="none" stroke="#bfbfbf" points="1671.1,-0.5 1671.1,-19.5 1716.1,-19.5 1716.1,-0.5 1671.1,-0.5"/>
<text text-anchor="middle" x="1693.6" y="-7.5" font-family="Helvetica,sans-Serif" font-size="10.00">cstdlib</text>
</g>
<!-- Node1&#45;&gt;Node3 -->
<g id="edge2" class="edge"><title>Node1&#45;&gt;Node3</title>
<path fill="none" stroke="midnightblue" d="M1183.98,-236.259C1203.07,-220.338 1243.3,-187.55 1259.6,-180 1429.46,-101.336 1533.69,-215.645 1670.6,-88 1686.67,-73.0157 1691.67,-47.3236 1693.14,-29.7711"/>
<polygon fill="midnightblue" stroke="midnightblue" points="1696.65,-29.7769 1693.68,-19.6063 1689.66,-29.4079 1696.65,-29.7769"/>
</g>
<!-- Node4 -->
<g id="node4" class="node"><title>Node4</title>
<polygon fill="none" stroke="#bfbfbf" points="1268.6,-180.5 1268.6,-199.5 1314.6,-199.5 1314.6,-180.5 1268.6,-180.5"/>
<text text-anchor="middle" x="1291.6" y="-187.5" font-family="Helvetica,sans-Serif" font-size="10.00">cstring</text>
</g>
<!-- Node1&#45;&gt;Node4 -->
<g id="edge3" class="edge"><title>Node1&#45;&gt;Node4</title>
<path fill="none" stroke="midnightblue" d="M1192.3,-236.444C1211.55,-227.636 1241.75,-213.812 1263.8,-203.722"/>
<polygon fill="midnightblue" stroke="midnightblue" points="1265.35,-206.86 1272.99,-199.516 1262.44,-200.495 1265.35,-206.86"/>
</g>
<!-- Node5 -->
<g id="node5" class="node"><title>Node5</title>
<polygon fill="none" stroke="#bfbfbf" points="1332.6,-180.5 1332.6,-199.5 1376.6,-199.5 1376.6,-180.5 1332.6,-180.5"/>
<text text-anchor="middle" x="1354.6" y="-187.5" font-family="Helvetica,sans-Serif" font-size="10.00">cmath</text>
</g>
<!-- Node1&#45;&gt;Node5 -->
<g id="edge4" class="edge"><title>Node1&#45;&gt;Node5</title>
<path fill="none" stroke="midnightblue" d="M1202.28,-236.444C1234.98,-226.687 1288.31,-210.776 1322.41,-200.604"/>
<polygon fill="midnightblue" stroke="midnightblue" points="1323.75,-203.857 1332.33,-197.644 1321.75,-197.149 1323.75,-203.857"/>
</g>
<!-- Node6 -->
<g id="node6" class="node"><title>Node6</title>
<g id="a_node6"><a xlink:href="libciomr_8h_source.html" target="_top" xlink:title="libciomr/libciomr.h">
<polygon fill="none" stroke="black" points="18.1006,-124.5 18.1006,-143.5 113.101,-143.5 113.101,-124.5 18.1006,-124.5"/>
<text text-anchor="middle" x="65.6006" y="-131.5" font-family="Helvetica,sans-Serif" font-size="10.00">libciomr/libciomr.h</text>
</a>
</g>
</g>
<!-- Node1&#45;&gt;Node6 -->
<g id="edge5" class="edge"><title>Node1&#45;&gt;Node6</title>
<path fill="none" stroke="midnightblue" d="M1132.95,-244.948C974.622,-244.455 399.182,-239.899 221.601,-200 172.78,-189.031 119.773,-163.83 89.8249,-148.227"/>
<polygon fill="midnightblue" stroke="midnightblue" points="91.4218,-145.112 80.946,-143.528 88.1478,-151.299 91.4218,-145.112"/>
</g>
<!-- Node7 -->
<g id="node7" class="node"><title>Node7</title>
<g id="a_node7"><a xlink:href="psifiles_8h_source.html" target="_top" xlink:title="psifiles.h">
<polygon fill="none" stroke="black" points="286.601,-62.5 286.601,-81.5 342.601,-81.5 342.601,-62.5 286.601,-62.5"/>
<text text-anchor="middle" x="314.601" y="-69.5" font-family="Helvetica,sans-Serif" font-size="10.00">psifiles.h</text>
</a>
</g>
</g>
<!-- Node1&#45;&gt;Node7 -->
<g id="edge7" class="edge"><title>Node1&#45;&gt;Node7</title>
<path fill="none" stroke="midnightblue" d="M1133.03,-240.314C1032.32,-228.292 763.102,-193.762 542.601,-144 456.308,-124.526 435.14,-117.099 351.601,-88 349.195,-87.1621 346.718,-86.2556 344.239,-85.3176"/>
<polygon fill="midnightblue" stroke="midnightblue" points="345.405,-82.0156 334.818,-81.6212 342.848,-88.532 345.405,-82.0156"/>
</g>
<!-- Node8 -->
<g id="node8" class="node"><title>Node8</title>
<g id="a_node8"><a xlink:href="liboptions_8h_source.html" target="_top" xlink:title="liboptions/liboptions.h">
<polygon fill="none" stroke="black" points="1219.6,-124.5 1219.6,-143.5 1329.6,-143.5 1329.6,-124.5 1219.6,-124.5"/>
<text text-anchor="middle" x="1274.6" y="-131.5" font-family="Helvetica,sans-Serif" font-size="10.00">liboptions/liboptions.h</text>
</a>
</g>
</g>
<!-- Node1&#45;&gt;Node8 -->
<g id="edge8" class="edge"><title>Node1&#45;&gt;Node8</title>
<path fill="none" stroke="midnightblue" d="M1180.11,-236.282C1189.78,-223.512 1208.72,-199.162 1226.6,-180 1236.24,-169.665 1247.78,-158.807 1257.13,-150.346"/>
<polygon fill="midnightblue" stroke="midnightblue" points="1259.55,-152.875 1264.67,-143.601 1254.89,-147.656 1259.55,-152.875"/>
</g>
<!-- Node19 -->
<g id="node19" class="node"><title>Node19</title>
<g id="a_node19"><a xlink:href="psi4-dec_8h_source.html" target="_top" xlink:title="psi4&#45;dec.h">
<polygon fill="none" stroke="black" points="981.601,-180.5 981.601,-199.5 1043.6,-199.5 1043.6,-180.5 981.601,-180.5"/>
<text text-anchor="middle" x="1012.6" y="-187.5" font-family="Helvetica,sans-Serif" font-size="10.00">psi4&#45;dec.h</text>
</a>
</g>
</g>
<!-- Node1&#45;&gt;Node19 -->
<g id="edge23" class="edge"><title>Node1&#45;&gt;Node19</title>
<path fill="none" stroke="midnightblue" d="M1148.09,-236.444C1121,-227.359 1078.01,-212.939 1047.73,-202.783"/>
<polygon fill="midnightblue" stroke="midnightblue" points="1048.59,-199.378 1037.99,-199.516 1046.36,-206.015 1048.59,-199.378"/>
</g>
<!-- Node32 -->
<g id="node32" class="node"><title>Node32</title>
<g id="a_node32"><a xlink:href="ccdensity_2MOInfo_8h.html" target="_top" xlink:title="Enter brief description of file here.">
<polygon fill="none" stroke="black" points="1395.1,-180.5 1395.1,-199.5 1452.1,-199.5 1452.1,-180.5 1395.1,-180.5"/>
<text text-anchor="middle" x="1423.6" y="-187.5" font-family="Helvetica,sans-Serif" font-size="10.00">MOInfo.h</text>
</a>
</g>
</g>
<!-- Node1&#45;&gt;Node32 -->
<g id="edge43" class="edge"><title>Node1&#45;&gt;Node32</title>
<path fill="none" stroke="midnightblue" d="M1214.3,-236.655C1254.94,-228.257 1319.44,-214.753 1384.9,-200.116"/>
<polygon fill="midnightblue" stroke="midnightblue" points="1385.99,-203.458 1394.98,-197.853 1384.46,-196.628 1385.99,-203.458"/>
</g>
<!-- Node33 -->
<g id="node33" class="node"><title>Node33</title>
<g id="a_node33"><a xlink:href="ccdensity_2Params_8h.html" target="_top" xlink:title="Enter brief description of file here.">
<polygon fill="none" stroke="black" points="1115.1,-180.5 1115.1,-199.5 1174.1,-199.5 1174.1,-180.5 1115.1,-180.5"/>
<text text-anchor="middle" x="1144.6" y="-187.5" font-family="Helvetica,sans-Serif" font-size="10.00">Params.h</text>
</a>
</g>
</g>
<!-- Node1&#45;&gt;Node33 -->
<g id="edge44" class="edge"><title>Node1&#45;&gt;Node33</title>
<path fill="none" stroke="midnightblue" d="M1168.81,-236.083C1164.84,-228.691 1159.08,-217.953 1154.17,-208.811"/>
<polygon fill="midnightblue" stroke="midnightblue" points="1157.12,-206.905 1149.3,-199.751 1150.95,-210.217 1157.12,-206.905"/>
</g>
<!-- Node34 -->
<g id="node34" class="node"><title>Node34</title>
<g id="a_node34"><a xlink:href="Frozen_8h.html" target="_top" xlink:title="Enter brief description of file here.">
<polygon fill="none" stroke="black" points="1470.1,-180.5 1470.1,-199.5 1525.1,-199.5 1525.1,-180.5 1470.1,-180.5"/>
<text text-anchor="middle" x="1497.6" y="-187.5" font-family="Helvetica,sans-Serif" font-size="10.00">Frozen.h</text>
</a>
</g>
</g>
<!-- Node1&#45;&gt;Node34 -->
<g id="edge46" class="edge"><title>Node1&#45;&gt;Node34</title>
<path fill="none" stroke="midnightblue" d="M1214.19,-239.719C1268.05,-232.472 1366.3,-218.432 1459.86,-200.004"/>
<polygon fill="midnightblue" stroke="midnightblue" points="1460.65,-203.415 1469.78,-198.031 1459.28,-196.55 1460.65,-203.415"/>
</g>
<!-- Node35 -->
<g id="node35" class="node"><title>Node35</title>
<g id="a_node35"><a xlink:href="ccdensity_2globals_8h.html" target="_top" xlink:title="Enter brief description of file here.">
<polygon fill="none" stroke="black" points="230.601,-180.5 230.601,-199.5 286.601,-199.5 286.601,-180.5 230.601,-180.5"/>
<text text-anchor="middle" x="258.601" y="-187.5" font-family="Helvetica,sans-Serif" font-size="10.00">globals.h</text>
</a>
</g>
</g>
<!-- Node1&#45;&gt;Node35 -->
<g id="edge47" class="edge"><title>Node1&#45;&gt;Node35</title>
<path fill="none" stroke="midnightblue" d="M1132.81,-242.592C980.386,-233.597 445.48,-202.029 297.053,-193.269"/>
<polygon fill="midnightblue" stroke="midnightblue" points="296.836,-189.751 286.647,-192.655 296.424,-196.738 296.836,-189.751"/>
</g>
<!-- Node6&#45;&gt;Node2 -->
<g id="edge6" class="edge"><title>Node6&#45;&gt;Node2</title>
<path fill="none" stroke="midnightblue" d="M67.1437,-124.162C70.1319,-109.007 77.8488,-77.6105 93.6006,-56 102.634,-43.6072 115.989,-32.9226 127.608,-25.0783"/>
<polygon fill="midnightblue" stroke="midnightblue" points="129.532,-28.002 136.054,-19.6521 125.749,-22.1126 129.532,-28.002"/>
</g>
<!-- Node9 -->
<g id="node9" class="node"><title>Node9</title>
<polygon fill="none" stroke="#bfbfbf" points="1124.1,-0.5 1124.1,-19.5 1165.1,-19.5 1165.1,-0.5 1124.1,-0.5"/>
<text text-anchor="middle" x="1144.6" y="-7.5" font-family="Helvetica,sans-Serif" font-size="10.00">string</text>
</g>
<!-- Node8&#45;&gt;Node9 -->
<g id="edge9" class="edge"><title>Node8&#45;&gt;Node9</title>
<path fill="none" stroke="midnightblue" d="M1274.2,-124.218C1273.03,-108.584 1268.46,-75.7229 1250.6,-56 1230.85,-34.1811 1198.76,-22.5753 1175.06,-16.6517"/>
<polygon fill="midnightblue" stroke="midnightblue" points="1175.68,-13.204 1165.15,-14.3806 1174.11,-20.027 1175.68,-13.204"/>
</g>
<!-- Node10 -->
<g id="node10" class="node"><title>Node10</title>
<polygon fill="none" stroke="#bfbfbf" points="820.601,-0.5 820.601,-19.5 864.601,-19.5 864.601,-0.5 820.601,-0.5"/>
<text text-anchor="middle" x="842.601" y="-7.5" font-family="Helvetica,sans-Serif" font-size="10.00">vector</text>
</g>
<!-- Node8&#45;&gt;Node10 -->
<g id="edge10" class="edge"><title>Node8&#45;&gt;Node10</title>
<path fill="none" stroke="midnightblue" d="M1270.99,-124.489C1263.54,-108.068 1244.74,-72.2027 1216.6,-56 1158.68,-22.648 954.852,-13.8676 875.015,-11.6828"/>
<polygon fill="midnightblue" stroke="midnightblue" points="874.687,-8.17339 864.601,-11.4165 874.508,-15.1711 874.687,-8.17339"/>
</g>
<!-- Node11 -->
<g id="node11" class="node"><title>Node11</title>
<polygon fill="none" stroke="#bfbfbf" points="1173.1,-62.5 1173.1,-81.5 1208.1,-81.5 1208.1,-62.5 1173.1,-62.5"/>
<text text-anchor="middle" x="1190.6" y="-69.5" font-family="Helvetica,sans-Serif" font-size="10.00">map</text>
</g>
<!-- Node8&#45;&gt;Node11 -->
<g id="edge11" class="edge"><title>Node8&#45;&gt;Node11</title>
<path fill="none" stroke="midnightblue" d="M1262.57,-124.403C1249.09,-114.78 1227.03,-99.0242 1210.89,-87.4891"/>
<polygon fill="midnightblue" stroke="midnightblue" points="1212.79,-84.5449 1202.61,-81.5806 1208.72,-90.2411 1212.79,-84.5449"/>
</g>
<!-- Node12 -->
<g id="node12" class="node"><title>Node12</title>
<polygon fill="none" stroke="#bfbfbf" points="1394.1,-62.5 1394.1,-81.5 1461.1,-81.5 1461.1,-62.5 1394.1,-62.5"/>
<text text-anchor="middle" x="1427.6" y="-69.5" font-family="Helvetica,sans-Serif" font-size="10.00">exception.h</text>
</g>
<!-- Node8&#45;&gt;Node12 -->
<g id="edge12" class="edge"><title>Node8&#45;&gt;Node12</title>
<path fill="none" stroke="midnightblue" d="M1296.52,-124.403C1322.65,-114.156 1366.51,-96.9561 1396.23,-85.3021"/>
<polygon fill="midnightblue" stroke="midnightblue" points="1397.69,-88.4899 1405.72,-81.5806 1395.13,-81.9731 1397.69,-88.4899"/>
</g>
<!-- Node13 -->
<g id="node13" class="node"><title>Node13</title>
<g id="a_node13"><a xlink:href="libutil_8h_source.html" target="_top" xlink:title="libutil/libutil.h">
<polygon fill="none" stroke="black" points="1303.1,-62.5 1303.1,-81.5 1376.1,-81.5 1376.1,-62.5 1303.1,-62.5"/>
<text text-anchor="middle" x="1339.6" y="-69.5" font-family="Helvetica,sans-Serif" font-size="10.00">libutil/libutil.h</text>
</a>
</g>
</g>
<!-- Node8&#45;&gt;Node13 -->
<g id="edge13" class="edge"><title>Node8&#45;&gt;Node13</title>
<path fill="none" stroke="midnightblue" d="M1283.91,-124.403C1294.05,-115.047 1310.46,-99.8948 1322.85,-88.4599"/>
<polygon fill="midnightblue" stroke="midnightblue" points="1325.33,-90.9352 1330.31,-81.5806 1320.58,-85.7916 1325.33,-90.9352"/>
</g>
<!-- Node15 -->
<g id="node15" class="node"><title>Node15</title>
<g id="a_node15"><a xlink:href="libutil_2ref_8h_source.html" target="_top" xlink:title="libutil/ref.h">
<polygon fill="none" stroke="black" points="1599.6,-62.5 1599.6,-81.5 1661.6,-81.5 1661.6,-62.5 1599.6,-62.5"/>
<text text-anchor="middle" x="1630.6" y="-69.5" font-family="Helvetica,sans-Serif" font-size="10.00">libutil/ref.h</text>
</a>
</g>
</g>
<!-- Node8&#45;&gt;Node15 -->
<g id="edge17" class="edge"><title>Node8&#45;&gt;Node15</title>
<path fill="none" stroke="midnightblue" d="M1329.83,-128.796C1393.46,-123.113 1500.8,-110.94 1590.6,-88 1594.01,-87.1292 1597.53,-86.066 1601,-84.9117"/>
<polygon fill="midnightblue" stroke="midnightblue" points="1602.29,-88.1673 1610.53,-81.5013 1599.93,-81.577 1602.29,-88.1673"/>
</g>
<!-- Node18 -->
<g id="node18" class="node"><title>Node18</title>
<polygon fill="none" stroke="#bfbfbf" points="1479.6,-57 1479.6,-87 1581.6,-87 1581.6,-57 1479.6,-57"/>
<text text-anchor="start" x="1487.6" y="-75" font-family="Helvetica,sans-Serif" font-size="10.00">boost/python/object</text>
<text text-anchor="middle" x="1530.6" y="-64" font-family="Helvetica,sans-Serif" font-size="10.00">_fwd.hpp</text>
</g>
<!-- Node8&#45;&gt;Node18 -->
<g id="edge22" class="edge"><title>Node8&#45;&gt;Node18</title>
<path fill="none" stroke="midnightblue" d="M1312.39,-124.449C1351.7,-115.513 1415.02,-101.008 1469.6,-88 1469.7,-87.9763 1469.8,-87.9526 1469.9,-87.9288"/>
<polygon fill="midnightblue" stroke="midnightblue" points="1470.45,-91.3956 1479.36,-85.6569 1468.82,-84.5891 1470.45,-91.3956"/>
</g>
<!-- Node13&#45;&gt;Node9 -->
<g id="edge14" class="edge"><title>Node13&#45;&gt;Node9</title>
<path fill="none" stroke="midnightblue" d="M1311.66,-62.4035C1275.47,-51.2668 1212.59,-31.9192 1175.16,-20.4023"/>
<polygon fill="midnightblue" stroke="midnightblue" points="1175.91,-16.9706 1165.32,-17.3749 1173.85,-23.661 1175.91,-16.9706"/>
</g>
<!-- Node13&#45;&gt;Node10 -->
<g id="edge15" class="edge"><title>Node13&#45;&gt;Node10</title>
<path fill="none" stroke="midnightblue" d="M1302.87,-64.3242C1286.85,-61.5384 1267.83,-58.3997 1250.6,-56 1111.25,-36.5879 944.16,-20.3521 875.008,-13.9397"/>
<polygon fill="midnightblue" stroke="midnightblue" points="875.048,-10.4287 864.769,-12.9959 874.406,-17.3991 875.048,-10.4287"/>
</g>
<!-- Node14 -->
<g id="node14" class="node"><title>Node14</title>
<polygon fill="none" stroke="#bfbfbf" points="1308.6,-0.5 1308.6,-19.5 1370.6,-19.5 1370.6,-0.5 1308.6,-0.5"/>
<text text-anchor="middle" x="1339.6" y="-7.5" font-family="Helvetica,sans-Serif" font-size="10.00">sys/time.h</text>
</g>
<!-- Node13&#45;&gt;Node14 -->
<g id="edge16" class="edge"><title>Node13&#45;&gt;Node14</title>
<path fill="none" stroke="midnightblue" d="M1339.6,-62.4035C1339.6,-53.9381 1339.6,-40.7283 1339.6,-29.8199"/>
<polygon fill="midnightblue" stroke="midnightblue" points="1343.1,-29.5806 1339.6,-19.5806 1336.1,-29.5806 1343.1,-29.5806"/>
</g>
<!-- Node16 -->
<g id="node16" class="node"><title>Node16</title>
<polygon fill="none" stroke="#bfbfbf" points="1533.1,-0.5 1533.1,-19.5 1582.1,-19.5 1582.1,-0.5 1533.1,-0.5"/>
<text text-anchor="middle" x="1557.6" y="-7.5" font-family="Helvetica,sans-Serif" font-size="10.00">cstddef</text>
</g>
<!-- Node15&#45;&gt;Node16 -->
<g id="edge18" class="edge"><title>Node15&#45;&gt;Node16</title>
<path fill="none" stroke="midnightblue" d="M1620.14,-62.4035C1608.65,-52.9579 1589.97,-37.6056 1576.01,-26.1342"/>
<polygon fill="midnightblue" stroke="midnightblue" points="1577.99,-23.2264 1568.04,-19.5806 1573.54,-28.6342 1577.99,-23.2264"/>
</g>
<!-- Node15&#45;&gt;Node2 -->
<g id="edge19" class="edge"><title>Node15&#45;&gt;Node2</title>
<path fill="none" stroke="midnightblue" d="M1611.44,-62.363C1604.96,-59.834 1597.59,-57.3797 1590.6,-56 1572.73,-52.4703 393.371,-18.0313 183.398,-11.9236"/>
<polygon fill="midnightblue" stroke="midnightblue" points="183.433,-8.42327 173.335,-11.631 183.23,-15.4203 183.433,-8.42327"/>
</g>
<!-- Node15&#45;&gt;Node3 -->
<g id="edge20" class="edge"><title>Node15&#45;&gt;Node3</title>
<path fill="none" stroke="midnightblue" d="M1639.63,-62.4035C1649.36,-53.1361 1665.06,-38.1828 1677.02,-26.7876"/>
<polygon fill="midnightblue" stroke="midnightblue" points="1679.76,-29.0117 1684.59,-19.5806 1674.94,-23.9427 1679.76,-29.0117"/>
</g>
<!-- Node17 -->
<g id="node17" class="node"><title>Node17</title>
<polygon fill="none" stroke="#bfbfbf" points="1600.6,-0.5 1600.6,-19.5 1652.6,-19.5 1652.6,-0.5 1600.6,-0.5"/>
<text text-anchor="middle" x="1626.6" y="-7.5" font-family="Helvetica,sans-Serif" font-size="10.00">assert.h</text>
</g>
<!-- Node15&#45;&gt;Node17 -->
<g id="edge21" class="edge"><title>Node15&#45;&gt;Node17</title>
<path fill="none" stroke="midnightblue" d="M1630.03,-62.4035C1629.46,-53.9381 1628.58,-40.7283 1627.86,-29.8199"/>
<polygon fill="midnightblue" stroke="midnightblue" points="1631.33,-29.3256 1627.17,-19.5806 1624.35,-29.7913 1631.33,-29.3256"/>
</g>
<!-- Node20 -->
<g id="node20" class="node"><title>Node20</title>
<polygon fill="none" stroke="#bfbfbf" points="360.601,-62.5 360.601,-81.5 468.601,-81.5 468.601,-62.5 360.601,-62.5"/>
<text text-anchor="middle" x="414.601" y="-69.5" font-family="Helvetica,sans-Serif" font-size="10.00">boost/shared_ptr.hpp</text>
</g>
<!-- Node19&#45;&gt;Node20 -->
<g id="edge24" class="edge"><title>Node19&#45;&gt;Node20</title>
<path fill="none" stroke="midnightblue" d="M981.324,-181.942C949.206,-174.256 898.054,-160.784 855.601,-144 837.485,-136.838 835.268,-129.567 816.601,-124 671.406,-80.6997 626.936,-113.599 477.601,-88 470.825,-86.8386 463.693,-85.3763 456.76,-83.8231"/>
<polygon fill="midnightblue" stroke="midnightblue" points="457.344,-80.3656 446.811,-81.507 455.757,-87.1833 457.344,-80.3656"/>
</g>
<!-- Node21 -->
<g id="node21" class="node"><title>Node21</title>
<polygon fill="none" stroke="#bfbfbf" points="946.601,-62.5 946.601,-81.5 1078.6,-81.5 1078.6,-62.5 946.601,-62.5"/>
<text text-anchor="middle" x="1012.6" y="-69.5" font-family="Helvetica,sans-Serif" font-size="10.00">boost/current_function.hpp</text>
</g>
<!-- Node19&#45;&gt;Node21 -->
<g id="edge25" class="edge"><title>Node19&#45;&gt;Node21</title>
<path fill="none" stroke="midnightblue" d="M1012.6,-180.281C1012.6,-161.547 1012.6,-117.098 1012.6,-91.6822"/>
<polygon fill="midnightblue" stroke="midnightblue" points="1016.1,-91.5047 1012.6,-81.5048 1009.1,-91.5048 1016.1,-91.5047"/>
</g>
<!-- Node19&#45;&gt;Node9 -->
<g id="edge26" class="edge"><title>Node19&#45;&gt;Node9</title>
<path fill="none" stroke="midnightblue" d="M1019.03,-180.357C1032,-162.906 1062.24,-122.212 1087.6,-88 1103,-67.2263 1120.72,-43.2825 1132.26,-27.6826"/>
<polygon fill="midnightblue" stroke="midnightblue" points="1135.15,-29.6699 1138.28,-19.5488 1129.52,-25.5071 1135.15,-29.6699"/>
</g>
<!-- Node22 -->
<g id="node22" class="node"><title>Node22</title>
<polygon fill="none" stroke="#bfbfbf" points="779.101,-124.5 779.101,-143.5 808.101,-143.5 808.101,-124.5 779.101,-124.5"/>
<text text-anchor="middle" x="793.601" y="-131.5" font-family="Helvetica,sans-Serif" font-size="10.00">list</text>
</g>
<!-- Node19&#45;&gt;Node22 -->
<g id="edge27" class="edge"><title>Node19&#45;&gt;Node22</title>
<path fill="none" stroke="midnightblue" d="M981.501,-182.32C943.736,-174.05 878.19,-159.19 822.601,-144 821.139,-143.601 819.639,-143.177 818.129,-142.741"/>
<polygon fill="midnightblue" stroke="midnightblue" points="818.881,-139.312 808.297,-139.774 816.86,-146.013 818.881,-139.312"/>
</g>
<!-- Node19&#45;&gt;Node11 -->
<g id="edge28" class="edge"><title>Node19&#45;&gt;Node11</title>
<path fill="none" stroke="midnightblue" d="M1041.67,-180.403C1064.35,-172.893 1096.02,-160.589 1120.6,-144 1143.36,-128.641 1164.79,-105.056 1177.8,-89.336"/>
<polygon fill="midnightblue" stroke="midnightblue" points="1180.56,-91.493 1184.12,-81.5141 1175.11,-87.0952 1180.56,-91.493"/>
</g>
<!-- Node19&#45;&gt;Node8 -->
<g id="edge29" class="edge"><title>Node19&#45;&gt;Node8</title>
<path fill="none" stroke="midnightblue" d="M1043.68,-182.593C1088,-173.46 1169.87,-156.585 1223.27,-145.58"/>
<polygon fill="midnightblue" stroke="midnightblue" points="1224.13,-148.975 1233.22,-143.529 1222.72,-142.119 1224.13,-148.975"/>
</g>
<!-- Node23 -->
<g id="node23" class="node"><title>Node23</title>
<g id="a_node23"><a xlink:href="include_2exception_8h_source.html" target="_top" xlink:title="exception.h">
<polygon fill="none" stroke="black" points="865.101,-124.5 865.101,-143.5 932.101,-143.5 932.101,-124.5 865.101,-124.5"/>
<text text-anchor="middle" x="898.601" y="-131.5" font-family="Helvetica,sans-Serif" font-size="10.00">exception.h</text>
</a>
</g>
</g>
<!-- Node19&#45;&gt;Node23 -->
<g id="edge30" class="edge"><title>Node19&#45;&gt;Node23</title>
<path fill="none" stroke="midnightblue" d="M994.537,-180.444C976.026,-171.675 947.02,-157.935 925.745,-147.858"/>
<polygon fill="midnightblue" stroke="midnightblue" points="927.115,-144.634 916.58,-143.516 924.119,-150.96 927.115,-144.634"/>
</g>
<!-- Node28 -->
<g id="node28" class="node"><title>Node28</title>
<g id="a_node28"><a xlink:href="typedefs_8h_source.html" target="_top" xlink:title="libmints/typedefs.h">
<polygon fill="none" stroke="black" points="552.101,-124.5 552.101,-143.5 651.101,-143.5 651.101,-124.5 552.101,-124.5"/>
<text text-anchor="middle" x="601.601" y="-131.5" font-family="Helvetica,sans-Serif" font-size="10.00">libmints/typedefs.h</text>
</a>
</g>
</g>
<!-- Node19&#45;&gt;Node28 -->
<g id="edge36" class="edge"><title>Node19&#45;&gt;Node28</title>
<path fill="none" stroke="midnightblue" d="M981.372,-184.897C913.168,-175.936 749.926,-154.488 661.298,-142.844"/>
<polygon fill="midnightblue" stroke="midnightblue" points="661.503,-139.34 651.133,-141.508 660.591,-146.281 661.503,-139.34"/>
</g>
<!-- Node24 -->
<g id="node24" class="node"><title>Node24</title>
<polygon fill="none" stroke="#bfbfbf" points="869.101,-62.5 869.101,-81.5 928.101,-81.5 928.101,-62.5 869.101,-62.5"/>
<text text-anchor="middle" x="898.601" y="-69.5" font-family="Helvetica,sans-Serif" font-size="10.00">exception</text>
</g>
<!-- Node23&#45;&gt;Node24 -->
<g id="edge31" class="edge"><title>Node23&#45;&gt;Node24</title>
<path fill="none" stroke="midnightblue" d="M898.601,-124.403C898.601,-115.938 898.601,-102.728 898.601,-91.8199"/>
<polygon fill="midnightblue" stroke="midnightblue" points="902.101,-91.5806 898.601,-81.5806 895.101,-91.5806 902.101,-91.5806"/>
</g>
<!-- Node25 -->
<g id="node25" class="node"><title>Node25</title>
<polygon fill="none" stroke="#bfbfbf" points="654.101,-62.5 654.101,-81.5 713.101,-81.5 713.101,-62.5 654.101,-62.5"/>
<text text-anchor="middle" x="683.601" y="-69.5" font-family="Helvetica,sans-Serif" font-size="10.00">stdexcept</text>
</g>
<!-- Node23&#45;&gt;Node25 -->
<g id="edge32" class="edge"><title>Node23&#45;&gt;Node25</title>
<path fill="none" stroke="midnightblue" d="M864.857,-125.609C829.182,-117.507 771.427,-103.573 722.601,-88 719.815,-87.1114 716.939,-86.1307 714.071,-85.1089"/>
<polygon fill="midnightblue" stroke="midnightblue" points="715.084,-81.7515 704.491,-81.551 712.646,-88.3136 715.084,-81.7515"/>
</g>
<!-- Node26 -->
<g id="node26" class="node"><title>Node26</title>
<polygon fill="none" stroke="#bfbfbf" points="731.601,-62.5 731.601,-81.5 783.601,-81.5 783.601,-62.5 731.601,-62.5"/>
<text text-anchor="middle" x="757.601" y="-69.5" font-family="Helvetica,sans-Serif" font-size="10.00">sstream</text>
</g>
<!-- Node23&#45;&gt;Node26 -->
<g id="edge33" class="edge"><title>Node23&#45;&gt;Node26</title>
<path fill="none" stroke="midnightblue" d="M878.271,-124.394C856.926,-115.352 822.391,-100.707 792.601,-88 790.776,-87.2219 788.899,-86.4201 787.006,-85.611"/>
<polygon fill="midnightblue" stroke="midnightblue" points="788.156,-82.2959 777.585,-81.5787 785.401,-88.7312 788.156,-82.2959"/>
</g>
<!-- Node27 -->
<g id="node27" class="node"><title>Node27</title>
<polygon fill="none" stroke="#bfbfbf" points="802.101,-62.5 802.101,-81.5 851.101,-81.5 851.101,-62.5 802.101,-62.5"/>
<text text-anchor="middle" x="826.601" y="-69.5" font-family="Helvetica,sans-Serif" font-size="10.00">string.h</text>
</g>
<!-- Node23&#45;&gt;Node27 -->
<g id="edge34" class="edge"><title>Node23&#45;&gt;Node27</title>
<path fill="none" stroke="midnightblue" d="M888.285,-124.403C876.95,-114.958 858.527,-99.6056 844.762,-88.1342"/>
<polygon fill="midnightblue" stroke="midnightblue" points="846.82,-85.2937 836.897,-81.5806 842.339,-90.6713 846.82,-85.2937"/>
</g>
<!-- Node23&#45;&gt;Node21 -->
<g id="edge35" class="edge"><title>Node23&#45;&gt;Node21</title>
<path fill="none" stroke="midnightblue" d="M914.934,-124.403C933.812,-114.468 965.107,-97.9966 987.176,-86.3812"/>
<polygon fill="midnightblue" stroke="midnightblue" points="989.078,-89.3353 996.298,-81.5806 985.818,-83.1409 989.078,-89.3353"/>
</g>
<!-- Node29 -->
<g id="node29" class="node"><title>Node29</title>
<g id="a_node29"><a xlink:href="compiler_8h_source.html" target="_top" xlink:title="compiler.h">
<polygon fill="none" stroke="black" points="486.601,-62.5 486.601,-81.5 548.601,-81.5 548.601,-62.5 486.601,-62.5"/>
<text text-anchor="middle" x="517.601" y="-69.5" font-family="Helvetica,sans-Serif" font-size="10.00">compiler.h</text>
</a>
</g>
</g>
<!-- Node28&#45;&gt;Node29 -->
<g id="edge37" class="edge"><title>Node28&#45;&gt;Node29</title>
<path fill="none" stroke="midnightblue" d="M589.565,-124.403C576.092,-114.78 554.035,-99.0242 537.885,-87.4891"/>
<polygon fill="midnightblue" stroke="midnightblue" points="539.785,-84.5449 529.613,-81.5806 535.716,-90.2411 539.785,-84.5449"/>
</g>
<!-- Node31 -->
<g id="node31" class="node"><title>Node31</title>
<g id="a_node31"><a xlink:href="dimension_8h_source.html" target="_top" xlink:title="dimension.h">
<polygon fill="none" stroke="black" points="567.101,-62.5 567.101,-81.5 636.101,-81.5 636.101,-62.5 567.101,-62.5"/>
<text text-anchor="middle" x="601.601" y="-69.5" font-family="Helvetica,sans-Serif" font-size="10.00">dimension.h</text>
</a>
</g>
</g>
<!-- Node28&#45;&gt;Node31 -->
<g id="edge39" class="edge"><title>Node28&#45;&gt;Node31</title>
<path fill="none" stroke="midnightblue" d="M601.601,-124.403C601.601,-115.938 601.601,-102.728 601.601,-91.8199"/>
<polygon fill="midnightblue" stroke="midnightblue" points="605.101,-91.5806 601.601,-81.5806 598.101,-91.5806 605.101,-91.5806"/>
</g>
<!-- Node30 -->
<g id="node30" class="node"><title>Node30</title>
<polygon fill="none" stroke="#bfbfbf" points="485.601,-0.5 485.601,-19.5 549.601,-19.5 549.601,-0.5 485.601,-0.5"/>
<text text-anchor="middle" x="517.601" y="-7.5" font-family="Helvetica,sans-Serif" font-size="10.00">psiconfig.h</text>
</g>
<!-- Node29&#45;&gt;Node30 -->
<g id="edge38" class="edge"><title>Node29&#45;&gt;Node30</title>
<path fill="none" stroke="midnightblue" d="M517.601,-62.4035C517.601,-53.9381 517.601,-40.7283 517.601,-29.8199"/>
<polygon fill="midnightblue" stroke="midnightblue" points="521.101,-29.5806 517.601,-19.5806 514.101,-29.5806 521.101,-29.5806"/>
</g>
<!-- Node31&#45;&gt;Node9 -->
<g id="edge40" class="edge"><title>Node31&#45;&gt;Node9</title>
<path fill="none" stroke="midnightblue" d="M622.738,-62.4668C629.609,-60.008 637.336,-57.5689 644.601,-56 819.129,-18.3079 1034.53,-12.124 1113.61,-11.1575"/>
<polygon fill="midnightblue" stroke="midnightblue" points="1113.88,-14.655 1123.85,-11.053 1113.81,-7.65532 1113.88,-14.655"/>
</g>
<!-- Node31&#45;&gt;Node2 -->
<g id="edge41" class="edge"><title>Node31&#45;&gt;Node2</title>
<path fill="none" stroke="midnightblue" d="M579.486,-62.4096C572.568,-60.0084 564.847,-57.6165 557.601,-56 420.613,-25.443 252.778,-15.2375 183.666,-12.1794"/>
<polygon fill="midnightblue" stroke="midnightblue" points="183.58,-8.67277 173.441,-11.748 183.285,-15.6666 183.58,-8.67277"/>
</g>
<!-- Node31&#45;&gt;Node10 -->
<g id="edge42" class="edge"><title>Node31&#45;&gt;Node10</title>
<path fill="none" stroke="midnightblue" d="M624.657,-62.4232C631.068,-60.1846 638.065,-57.8762 644.601,-56 702.453,-39.3919 771.213,-24.92 810.595,-17.1227"/>
<polygon fill="midnightblue" stroke="midnightblue" points="811.281,-20.555 820.421,-15.1955 809.934,-13.6859 811.281,-20.555"/>
</g>
<!-- Node33&#45;&gt;Node9 -->
<g id="edge45" class="edge"><title>Node33&#45;&gt;Node9</title>
<path fill="none" stroke="midnightblue" d="M1144.6,-180.415C1144.6,-153.227 1144.6,-68.5626 1144.6,-30.2169"/>
<polygon fill="midnightblue" stroke="midnightblue" points="1148.1,-29.9184 1144.6,-19.9185 1141.1,-29.9185 1148.1,-29.9184"/>
</g>
<!-- Node35&#45;&gt;Node7 -->
<g id="edge48" class="edge"><title>Node35&#45;&gt;Node7</title>
<path fill="none" stroke="midnightblue" d="M270.037,-180.32C280.012,-172.096 294.036,-158.822 301.601,-144 309.953,-127.634 313.002,-106.724 314.083,-91.8441"/>
<polygon fill="midnightblue" stroke="midnightblue" points="317.581,-91.9772 314.581,-81.8158 310.589,-91.6298 317.581,-91.9772"/>
</g>
<!-- Node36 -->
<g id="node36" class="node"><title>Node36</title>
<g id="a_node36"><a xlink:href="lib_2libdpd_2dpd_8h.html" target="_top" xlink:title="Enter brief description of file here.">
<polygon fill="none" stroke="black" points="224.101,-124.5 224.101,-143.5 293.101,-143.5 293.101,-124.5 224.101,-124.5"/>
<text text-anchor="middle" x="258.601" y="-131.5" font-family="Helvetica,sans-Serif" font-size="10.00">libdpd/dpd.h</text>
</a>
</g>
</g>
<!-- Node35&#45;&gt;Node36 -->
<g id="edge49" class="edge"><title>Node35&#45;&gt;Node36</title>
<path fill="none" stroke="midnightblue" d="M258.601,-180.083C258.601,-173.006 258.601,-162.861 258.601,-153.986"/>
<polygon fill="midnightblue" stroke="midnightblue" points="262.101,-153.751 258.601,-143.751 255.101,-153.751 262.101,-153.751"/>
</g>
<!-- Node38 -->
<g id="node38" class="node"><title>Node38</title>
<g id="a_node38"><a xlink:href="psio_8h_source.html" target="_top" xlink:title="libpsio/psio.h">
<polygon fill="none" stroke="black" points="131.601,-124.5 131.601,-143.5 205.601,-143.5 205.601,-124.5 131.601,-124.5"/>
<text text-anchor="middle" x="168.601" y="-131.5" font-family="Helvetica,sans-Serif" font-size="10.00">libpsio/psio.h</text>
</a>
</g>
</g>
<!-- Node35&#45;&gt;Node38 -->
<g id="edge55" class="edge"><title>Node35&#45;&gt;Node38</title>
<path fill="none" stroke="midnightblue" d="M244.141,-180.324C230.101,-171.9 208.552,-158.971 192.058,-149.074"/>
<polygon fill="midnightblue" stroke="midnightblue" points="193.401,-145.798 183.025,-143.655 189.799,-151.801 193.401,-145.798"/>
</g>
<!-- Node35&#45;&gt;Node6 -->
<g id="edge58" class="edge"><title>Node35&#45;&gt;Node6</title>
<path fill="none" stroke="midnightblue" d="M230.537,-181.148C197.854,-172.004 143.595,-156.822 106.291,-146.385"/>
<polygon fill="midnightblue" stroke="midnightblue" points="106.824,-142.9 96.2504,-143.576 104.937,-149.641 106.824,-142.9"/>
</g>
<!-- Node36&#45;&gt;Node2 -->
<g id="edge50" class="edge"><title>Node36&#45;&gt;Node2</title>
<path fill="none" stroke="midnightblue" d="M253.123,-124.486C243.513,-109.82 222.629,-79.1413 201.601,-56 192.003,-45.438 180.175,-34.7056 170.433,-26.3722"/>
<polygon fill="midnightblue" stroke="midnightblue" points="172.427,-23.4771 162.517,-19.731 167.928,-28.8397 172.427,-23.4771"/>
</g>
<!-- Node36&#45;&gt;Node7 -->
<g id="edge51" class="edge"><title>Node36&#45;&gt;Node7</title>
<path fill="none" stroke="midnightblue" d="M266.624,-124.403C275.19,-115.225 288.962,-100.47 299.558,-89.1173"/>
<polygon fill="midnightblue" stroke="midnightblue" points="302.328,-91.2793 306.592,-81.5806 297.21,-86.503 302.328,-91.2793"/>
</g>
<!-- Node37 -->
<g id="node37" class="node"><title>Node37</title>
<g id="a_node37"><a xlink:href="libpsio_2config_8h_source.html" target="_top" xlink:title="libpsio/config.h">
<polygon fill="none" stroke="black" points="110.601,-62.5 110.601,-81.5 192.601,-81.5 192.601,-62.5 110.601,-62.5"/>
<text text-anchor="middle" x="151.601" y="-69.5" font-family="Helvetica,sans-Serif" font-size="10.00">libpsio/config.h</text>
</a>
</g>
</g>
<!-- Node36&#45;&gt;Node37 -->
<g id="edge52" class="edge"><title>Node36&#45;&gt;Node37</title>
<path fill="none" stroke="midnightblue" d="M243.27,-124.403C225.631,-114.512 196.441,-98.1442 175.743,-86.5378"/>
<polygon fill="midnightblue" stroke="midnightblue" points="177.337,-83.4188 166.903,-81.5806 173.913,-89.5244 177.337,-83.4188"/>
</g>
<!-- Node36&#45;&gt;Node20 -->
<g id="edge53" class="edge"><title>Node36&#45;&gt;Node20</title>
<path fill="none" stroke="midnightblue" d="M280.952,-124.403C307.595,-114.156 352.315,-96.9561 382.615,-85.3021"/>
<polygon fill="midnightblue" stroke="midnightblue" points="384.214,-88.4372 392.291,-81.5806 381.701,-81.9037 384.214,-88.4372"/>
</g>
<!-- Node36&#45;&gt;Node10 -->
<g id="edge54" class="edge"><title>Node36&#45;&gt;Node10</title>
<path fill="none" stroke="midnightblue" d="M257.792,-124.178C256.839,-107.87 257.452,-73.1152 277.601,-56 298.032,-38.6446 693.187,-18.2243 810.213,-12.5369"/>
<polygon fill="midnightblue" stroke="midnightblue" points="810.521,-16.0262 820.34,-12.0479 810.183,-9.03438 810.521,-16.0262"/>
</g>
<!-- Node38&#45;&gt;Node2 -->
<g id="edge56" class="edge"><title>Node38&#45;&gt;Node2</title>
<path fill="none" stroke="midnightblue" d="M145.812,-124.471C130.275,-117.316 110.893,-105.435 101.601,-88 94.9113,-75.4491 95.8145,-68.992 101.601,-56 107.169,-43.4981 118.116,-33.0124 128.352,-25.3167"/>
<polygon fill="midnightblue" stroke="midnightblue" points="130.452,-28.1193 136.648,-19.5256 126.445,-22.3794 130.452,-28.1193"/>
</g>
<!-- Node38&#45;&gt;Node37 -->
<g id="edge57" class="edge"><title>Node38&#45;&gt;Node37</title>
<path fill="none" stroke="midnightblue" d="M166.165,-124.403C163.741,-115.849 159.945,-102.45 156.836,-91.4762"/>
<polygon fill="midnightblue" stroke="midnightblue" points="160.125,-90.2477 154.032,-81.5806 153.39,-92.156 160.125,-90.2477"/>
</g>
</g>
</svg>
