<?xml version="1.0" encoding="UTF-8" standalone="no"?>
<!DOCTYPE svg PUBLIC "-//W3C//DTD SVG 1.1//EN"
 "http://www.w3.org/Graphics/SVG/1.1/DTD/svg11.dtd">
<!-- Generated by graphviz version 2.30.1 (20140110.0959)
 -->
<!-- Title: local.cc Pages: 1 -->
<!--zoomable 196 -->
<svg id="main" version="1.1" xmlns="http://www.w3.org/2000/svg" xmlns:xlink="http://www.w3.org/1999/xlink" xml:space="preserve" onload="init(evt)">
        <defs>
                <circle id="rim" cx="0" cy="0" r="7"/>
                <circle id="rim2" cx="0" cy="0" r="3.5"/>
                <g id="zoomPlus">
                        <use xlink:href="#rim" fill="#404040">
                                <set attributeName="fill" to="#808080" begin="zoomplus.mouseover" end="zoomplus.mouseout"/>
                        </use>
                        <path d="M-4,0h8M0,-4v8" fill="none" stroke="white" stroke-width="1.5" pointer-events="none"/>
                </g>
                <g id="zoomMin">
                        <use xlink:href="#rim" fill="#404040">
                                <set attributeName="fill" to="#808080" begin="zoomminus.mouseover" end="zoomminus.mouseout"/>
                        </use>
                        <path d="M-4,0h8" fill="none" stroke="white" stroke-width="1.5" pointer-events="none"/>
                </g>
                <g id="dirArrow">
                        <path fill="none" stroke="white" stroke-width="1.5" d="M0,-3.0v7 M-2.5,-0.5L0,-3.0L2.5,-0.5"/>
                </g>
               <g id="resetDef">
                       <use xlink:href="#rim2" fill="#404040">
                               <set attributeName="fill" to="#808080" begin="reset.mouseover" end="reset.mouseout"/>
                       </use>
               </g>
        </defs>

<script type="text/javascript">
var viewWidth = 1324;
var viewHeight = 196;
var sectionId = 'dynsection-0';
</script>
<script xlink:href="svgpan.js"/>
<svg id="graph" class="graph">
<g id="viewport">
<title>local.cc</title>
<!-- Node1 -->
<g id="node1" class="node"><title>Node1</title>
<polygon fill="#bfbfbf" stroke="black" points="650,-168.5 650,-187.5 700,-187.5 700,-168.5 650,-168.5"/>
<text text-anchor="middle" x="675" y="-175.5" font-family="Helvetica,sans-Serif" font-size="10.00">local.cc</text>
</g>
<!-- Node2 -->
<g id="node2" class="node"><title>Node2</title>
<polygon fill="none" stroke="#bfbfbf" points="274.5,-0.5 274.5,-19.5 317.5,-19.5 317.5,-0.5 274.5,-0.5"/>
<text text-anchor="middle" x="296" y="-7.5" font-family="Helvetica,sans-Serif" font-size="10.00">cstdio</text>
</g>
<!-- Node1&#45;&gt;Node2 -->
<g id="edge1" class="edge"><title>Node1&#45;&gt;Node2</title>
<path fill="none" stroke="midnightblue" d="M649.996,-176.983C563.15,-176.569 275.44,-172.132 194,-132 157.288,-113.909 117.452,-88.7481 142,-56 156.677,-36.4199 223.753,-22.519 264.385,-15.7252"/>
<polygon fill="midnightblue" stroke="midnightblue" points="265.031,-19.1663 274.343,-14.1135 263.912,-12.2562 265.031,-19.1663"/>
</g>
<!-- Node3 -->
<g id="node3" class="node"><title>Node3</title>
<polygon fill="none" stroke="#bfbfbf" points="794.5,-112.5 794.5,-131.5 839.5,-131.5 839.5,-112.5 794.5,-112.5"/>
<text text-anchor="middle" x="817" y="-119.5" font-family="Helvetica,sans-Serif" font-size="10.00">cstdlib</text>
</g>
<!-- Node1&#45;&gt;Node3 -->
<g id="edge2" class="edge"><title>Node1&#45;&gt;Node3</title>
<path fill="none" stroke="midnightblue" d="M697.5,-168.444C721.077,-159.478 758.322,-145.314 784.964,-135.183"/>
<polygon fill="midnightblue" stroke="midnightblue" points="786.502,-138.342 794.605,-131.516 784.014,-131.8 786.502,-138.342"/>
</g>
<!-- Node4 -->
<g id="node4" class="node"><title>Node4</title>
<polygon fill="none" stroke="#bfbfbf" points="858,-112.5 858,-131.5 904,-131.5 904,-112.5 858,-112.5"/>
<text text-anchor="middle" x="881" y="-119.5" font-family="Helvetica,sans-Serif" font-size="10.00">cstring</text>
</g>
<!-- Node1&#45;&gt;Node4 -->
<g id="edge3" class="edge"><title>Node1&#45;&gt;Node4</title>
<path fill="none" stroke="midnightblue" d="M700.237,-170.535C733.947,-161.876 795.521,-145.981 848,-132 848.1,-131.973 848.201,-131.946 848.302,-131.92"/>
<polygon fill="midnightblue" stroke="midnightblue" points="849.183,-135.307 857.93,-129.329 847.364,-128.547 849.183,-135.307"/>
</g>
<!-- Node5 -->
<g id="node5" class="node"><title>Node5</title>
<polygon fill="none" stroke="#bfbfbf" points="922,-112.5 922,-131.5 966,-131.5 966,-112.5 922,-112.5"/>
<text text-anchor="middle" x="944" y="-119.5" font-family="Helvetica,sans-Serif" font-size="10.00">cmath</text>
</g>
<!-- Node1&#45;&gt;Node5 -->
<g id="edge4" class="edge"><title>Node1&#45;&gt;Node5</title>
<path fill="none" stroke="midnightblue" d="M700.181,-173.053C742.136,-166.303 829.15,-151.565 911.91,-132.082"/>
<polygon fill="midnightblue" stroke="midnightblue" points="912.8,-135.468 921.717,-129.746 911.178,-128.659 912.8,-135.468"/>
</g>
<!-- Node6 -->
<g id="node6" class="node"><title>Node6</title>
<g id="a_node6"><a xlink:href="libciomr_8h_source.html" target="_top" xlink:title="libciomr/libciomr.h">
<polygon fill="none" stroke="black" points="-0.5,-56.5 -0.5,-75.5 94.5,-75.5 94.5,-56.5 -0.5,-56.5"/>
<text text-anchor="middle" x="47" y="-63.5" font-family="Helvetica,sans-Serif" font-size="10.00">libciomr/libciomr.h</text>
</a>
</g>
</g>
<!-- Node1&#45;&gt;Node6 -->
<g id="edge5" class="edge"><title>Node1&#45;&gt;Node6</title>
<path fill="none" stroke="midnightblue" d="M649.721,-177.352C552.964,-178.339 206.687,-178.489 109,-132 87.0764,-121.567 68.8879,-99.7832 57.9999,-84.3135"/>
<polygon fill="midnightblue" stroke="midnightblue" points="60.6713,-82.0129 52.1959,-75.6554 54.8569,-85.9106 60.6713,-82.0129"/>
</g>
<!-- Node7 -->
<g id="node7" class="node"><title>Node7</title>
<g id="a_node7"><a xlink:href="psio_8h_source.html" target="_top" xlink:title="libpsio/psio.h">
<polygon fill="none" stroke="black" points="259,-56.5 259,-75.5 333,-75.5 333,-56.5 259,-56.5"/>
<text text-anchor="middle" x="296" y="-63.5" font-family="Helvetica,sans-Serif" font-size="10.00">libpsio/psio.h</text>
</a>
</g>
</g>
<!-- Node1&#45;&gt;Node7 -->
<g id="edge7" class="edge"><title>Node1&#45;&gt;Node7</title>
<path fill="none" stroke="midnightblue" d="M649.903,-175.135C586.226,-170.114 419.907,-155.107 370,-132 345.648,-120.725 323.343,-98.846 309.727,-83.6017"/>
<polygon fill="midnightblue" stroke="midnightblue" points="312.283,-81.2065 303.099,-75.9246 306.985,-85.7811 312.283,-81.2065"/>
</g>
<!-- Node9 -->
<g id="node9" class="node"><title>Node9</title>
<g id="a_node9"><a xlink:href="iwl_8h_source.html" target="_top" xlink:title="libiwl/iwl.h">
<polygon fill="none" stroke="black" points="203,-112.5 203,-131.5 265,-131.5 265,-112.5 203,-112.5"/>
<text text-anchor="middle" x="234" y="-119.5" font-family="Helvetica,sans-Serif" font-size="10.00">libiwl/iwl.h</text>
</a>
</g>
</g>
<!-- Node1&#45;&gt;Node9 -->
<g id="edge10" class="edge"><title>Node1&#45;&gt;Node9</title>
<path fill="none" stroke="midnightblue" d="M649.871,-173.988C590.093,-166.814 434.717,-148.11 305,-132 295.3,-130.795 284.856,-129.481 275.042,-128.238"/>
<polygon fill="midnightblue" stroke="midnightblue" points="275.461,-124.764 265.1,-126.977 274.58,-131.708 275.461,-124.764"/>
</g>
<!-- Node11 -->
<g id="node11" class="node"><title>Node11</title>
<polygon fill="none" stroke="#bfbfbf" points="984,-112.5 984,-131.5 1052,-131.5 1052,-112.5 984,-112.5"/>
<text text-anchor="middle" x="1018" y="-119.5" font-family="Helvetica,sans-Serif" font-size="10.00">libint/libint.h</text>
</g>
<!-- Node1&#45;&gt;Node11 -->
<g id="edge14" class="edge"><title>Node1&#45;&gt;Node11</title>
<path fill="none" stroke="midnightblue" d="M700.366,-173.696C750.574,-167.049 866.364,-151.19 973.738,-132.143"/>
<polygon fill="midnightblue" stroke="midnightblue" points="974.539,-135.555 983.767,-130.35 973.307,-128.665 974.539,-135.555"/>
</g>
<!-- Node12 -->
<g id="node12" class="node"><title>Node12</title>
<g id="a_node12"><a xlink:href="chkpt_8h_source.html" target="_top" xlink:title="libchkpt/chkpt.h">
<polygon fill="none" stroke="black" points="1070,-112.5 1070,-131.5 1156,-131.5 1156,-112.5 1070,-112.5"/>
<text text-anchor="middle" x="1113" y="-119.5" font-family="Helvetica,sans-Serif" font-size="10.00">libchkpt/chkpt.h</text>
</a>
</g>
</g>
<!-- Node1&#45;&gt;Node12 -->
<g id="edge15" class="edge"><title>Node1&#45;&gt;Node12</title>
<path fill="none" stroke="midnightblue" d="M700.354,-174.535C760.71,-168.562 917.854,-152.398 1059.71,-132.116"/>
<polygon fill="midnightblue" stroke="midnightblue" points="1060.5,-135.539 1069.9,-130.649 1059.5,-128.61 1060.5,-135.539"/>
</g>
<!-- Node13 -->
<g id="node13" class="node"><title>Node13</title>
<polygon fill="none" stroke="#bfbfbf" points="1174.5,-112.5 1174.5,-131.5 1241.5,-131.5 1241.5,-112.5 1174.5,-112.5"/>
<text text-anchor="middle" x="1208" y="-119.5" font-family="Helvetica,sans-Serif" font-size="10.00">exception.h</text>
</g>
<!-- Node1&#45;&gt;Node13 -->
<g id="edge16" class="edge"><title>Node1&#45;&gt;Node13</title>
<path fill="none" stroke="midnightblue" d="M700.109,-175.714C771.236,-171.857 980.273,-159.034 1164.14,-131.952"/>
<polygon fill="midnightblue" stroke="midnightblue" points="1164.89,-135.379 1174.26,-130.443 1163.86,-128.456 1164.89,-135.379"/>
</g>
<!-- Node14 -->
<g id="node14" class="node"><title>Node14</title>
<g id="a_node14"><a xlink:href="qt_8h.html" target="_top" xlink:title="Header file for the Quantum Trio LibraryDavid Sherrill 1994.">
<polygon fill="none" stroke="black" points="579,-112.5 579,-131.5 633,-131.5 633,-112.5 579,-112.5"/>
<text text-anchor="middle" x="606" y="-119.5" font-family="Helvetica,sans-Serif" font-size="10.00">libqt/qt.h</text>
</a>
</g>
</g>
<!-- Node1&#45;&gt;Node14 -->
<g id="edge17" class="edge"><title>Node1&#45;&gt;Node14</title>
<path fill="none" stroke="midnightblue" d="M663.914,-168.324C653.514,-160.185 637.739,-147.839 625.278,-138.087"/>
<polygon fill="midnightblue" stroke="midnightblue" points="627.32,-135.241 617.288,-131.834 623.006,-140.753 627.32,-135.241"/>
</g>
<!-- Node16 -->
<g id="node16" class="node"><title>Node16</title>
<g id="a_node16"><a xlink:href="lib_2libdpd_2dpd_8h.html" target="_top" xlink:title="Enter brief description of file here.">
<polygon fill="none" stroke="black" points="491.5,-112.5 491.5,-131.5 560.5,-131.5 560.5,-112.5 491.5,-112.5"/>
<text text-anchor="middle" x="526" y="-119.5" font-family="Helvetica,sans-Serif" font-size="10.00">libdpd/dpd.h</text>
</a>
</g>
</g>
<!-- Node1&#45;&gt;Node16 -->
<g id="edge20" class="edge"><title>Node1&#45;&gt;Node16</title>
<path fill="none" stroke="midnightblue" d="M651.391,-168.444C626.542,-159.438 587.226,-145.189 559.246,-135.049"/>
<polygon fill="midnightblue" stroke="midnightblue" points="560.093,-131.633 549.499,-131.516 557.708,-138.214 560.093,-131.633"/>
</g>
<!-- Node17 -->
<g id="node17" class="node"><title>Node17</title>
<g id="a_node17"><a xlink:href="psifiles_8h_source.html" target="_top" xlink:title="psifiles.h">
<polygon fill="none" stroke="black" points="389,-56.5 389,-75.5 445,-75.5 445,-56.5 389,-56.5"/>
<text text-anchor="middle" x="417" y="-63.5" font-family="Helvetica,sans-Serif" font-size="10.00">psifiles.h</text>
</a>
</g>
</g>
<!-- Node1&#45;&gt;Node17 -->
<g id="edge26" class="edge"><title>Node1&#45;&gt;Node17</title>
<path fill="none" stroke="midnightblue" d="M649.98,-175.545C611.601,-172.384 536.885,-162.501 482,-132 460.513,-120.059 441.351,-98.9559 429.495,-84.039"/>
<polygon fill="midnightblue" stroke="midnightblue" points="431.96,-81.5005 423.102,-75.6877 426.402,-85.7556 431.96,-81.5005"/>
</g>
<!-- Node20 -->
<g id="node20" class="node"><title>Node20</title>
<g id="a_node20"><a xlink:href="ccresponse_2MOInfo_8h.html" target="_top" xlink:title="Enter brief description of file here.">
<polygon fill="none" stroke="black" points="1259.5,-112.5 1259.5,-131.5 1316.5,-131.5 1316.5,-112.5 1259.5,-112.5"/>
<text text-anchor="middle" x="1288" y="-119.5" font-family="Helvetica,sans-Serif" font-size="10.00">MOInfo.h</text>
</a>
</g>
</g>
<!-- Node1&#45;&gt;Node20 -->
<g id="edge27" class="edge"><title>Node1&#45;&gt;Node20</title>
<path fill="none" stroke="midnightblue" d="M700.1,-176.418C779.331,-174.291 1031.26,-165.312 1249.43,-131.82"/>
<polygon fill="midnightblue" stroke="midnightblue" points="1250.12,-135.255 1259.46,-130.259 1249.04,-128.338 1250.12,-135.255"/>
</g>
<!-- Node21 -->
<g id="node21" class="node"><title>Node21</title>
<g id="a_node21"><a xlink:href="ccresponse_2Params_8h.html" target="_top" xlink:title="Enter brief description of file here.">
<polygon fill="none" stroke="black" points="717.5,-112.5 717.5,-131.5 776.5,-131.5 776.5,-112.5 717.5,-112.5"/>
<text text-anchor="middle" x="747" y="-119.5" font-family="Helvetica,sans-Serif" font-size="10.00">Params.h</text>
</a>
</g>
</g>
<!-- Node1&#45;&gt;Node21 -->
<g id="edge28" class="edge"><title>Node1&#45;&gt;Node21</title>
<path fill="none" stroke="midnightblue" d="M686.568,-168.324C697.42,-160.185 713.881,-147.839 726.883,-138.087"/>
<polygon fill="midnightblue" stroke="midnightblue" points="729.321,-140.634 735.221,-131.834 725.121,-135.034 729.321,-140.634"/>
</g>
<!-- Node22 -->
<g id="node22" class="node"><title>Node22</title>
<g id="a_node22"><a xlink:href="ccresponse_2Local_8h.html" target="_top" xlink:title="Enter brief description of file here.">
<polygon fill="none" stroke="black" points="651,-112.5 651,-131.5 699,-131.5 699,-112.5 651,-112.5"/>
<text text-anchor="middle" x="675" y="-119.5" font-family="Helvetica,sans-Serif" font-size="10.00">Local.h</text>
</a>
</g>
</g>
<!-- Node1&#45;&gt;Node22 -->
<g id="edge30" class="edge"><title>Node1&#45;&gt;Node22</title>
<path fill="none" stroke="midnightblue" d="M675,-168.083C675,-161.006 675,-150.861 675,-141.986"/>
<polygon fill="midnightblue" stroke="midnightblue" points="678.5,-141.751 675,-131.751 671.5,-141.751 678.5,-141.751"/>
</g>
<!-- Node23 -->
<g id="node23" class="node"><title>Node23</title>
<g id="a_node23"><a xlink:href="ccresponse_2globals_8h.html" target="_top" xlink:title="Enter brief description of file here.">
<polygon fill="none" stroke="black" points="379,-112.5 379,-131.5 435,-131.5 435,-112.5 379,-112.5"/>
<text text-anchor="middle" x="407" y="-119.5" font-family="Helvetica,sans-Serif" font-size="10.00">globals.h</text>
</a>
</g>
</g>
<!-- Node1&#45;&gt;Node23 -->
<g id="edge32" class="edge"><title>Node1&#45;&gt;Node23</title>
<path fill="none" stroke="midnightblue" d="M649.894,-172.125C608.155,-163.992 521.872,-147.062 449,-132 447.727,-131.737 446.432,-131.468 445.124,-131.195"/>
<polygon fill="midnightblue" stroke="midnightblue" points="445.509,-127.699 435.002,-129.06 444.065,-134.548 445.509,-127.699"/>
</g>
<!-- Node6&#45;&gt;Node2 -->
<g id="edge6" class="edge"><title>Node6&#45;&gt;Node2</title>
<path fill="none" stroke="midnightblue" d="M86.4548,-56.4435C135.817,-45.7385 219.344,-27.6241 264.599,-17.8098"/>
<polygon fill="midnightblue" stroke="midnightblue" points="265.412,-21.2149 274.443,-15.6749 263.929,-14.3739 265.412,-21.2149"/>
</g>
<!-- Node7&#45;&gt;Node2 -->
<g id="edge8" class="edge"><title>Node7&#45;&gt;Node2</title>
<path fill="none" stroke="midnightblue" d="M296,-56.083C296,-49.0059 296,-38.8611 296,-29.9865"/>
<polygon fill="midnightblue" stroke="midnightblue" points="299.5,-29.751 296,-19.7511 292.5,-29.7511 299.5,-29.751"/>
</g>
<!-- Node8 -->
<g id="node8" class="node"><title>Node8</title>
<g id="a_node8"><a xlink:href="libpsio_2config_8h_source.html" target="_top" xlink:title="libpsio/config.h">
<polygon fill="none" stroke="black" points="497,-0.5 497,-19.5 579,-19.5 579,-0.5 497,-0.5"/>
<text text-anchor="middle" x="538" y="-7.5" font-family="Helvetica,sans-Serif" font-size="10.00">libpsio/config.h</text>
</a>
</g>
</g>
<!-- Node7&#45;&gt;Node8 -->
<g id="edge9" class="edge"><title>Node7&#45;&gt;Node8</title>
<path fill="none" stroke="midnightblue" d="M333.018,-56.7398C375.082,-47.3537 443.864,-32.0055 490.014,-21.7077"/>
<polygon fill="midnightblue" stroke="midnightblue" points="490.79,-25.1207 499.787,-19.5268 489.265,-18.2887 490.79,-25.1207"/>
</g>
<!-- Node9&#45;&gt;Node2 -->
<g id="edge11" class="edge"><title>Node9&#45;&gt;Node2</title>
<path fill="none" stroke="midnightblue" d="M234.609,-112.45C235.849,-99.4717 239.511,-74.3673 250,-56 256.532,-44.5613 266.805,-34.1136 275.987,-26.1705"/>
<polygon fill="midnightblue" stroke="midnightblue" points="278.46,-28.6696 283.975,-19.6234 274.022,-23.2558 278.46,-28.6696"/>
</g>
<!-- Node9&#45;&gt;Node7 -->
<g id="edge12" class="edge"><title>Node9&#45;&gt;Node7</title>
<path fill="none" stroke="midnightblue" d="M243.961,-112.324C253.127,-104.341 266.937,-92.3128 278.028,-82.6529"/>
<polygon fill="midnightblue" stroke="midnightblue" points="280.615,-85.041 285.857,-75.8339 276.018,-79.7624 280.615,-85.041"/>
</g>
<!-- Node10 -->
<g id="node10" class="node"><title>Node10</title>
<g id="a_node10"><a xlink:href="libiwl_2config_8h_source.html" target="_top" xlink:title="config.h">
<polygon fill="none" stroke="black" points="151.5,-56.5 151.5,-75.5 202.5,-75.5 202.5,-56.5 151.5,-56.5"/>
<text text-anchor="middle" x="177" y="-63.5" font-family="Helvetica,sans-Serif" font-size="10.00">config.h</text>
</a>
</g>
</g>
<!-- Node9&#45;&gt;Node10 -->
<g id="edge13" class="edge"><title>Node9&#45;&gt;Node10</title>
<path fill="none" stroke="midnightblue" d="M224.842,-112.324C216.499,-104.42 203.968,-92.5482 193.823,-82.9377"/>
<polygon fill="midnightblue" stroke="midnightblue" points="195.991,-80.1705 186.325,-75.8339 191.177,-85.2522 195.991,-80.1705"/>
</g>
<!-- Node14&#45;&gt;Node2 -->
<g id="edge18" class="edge"><title>Node14&#45;&gt;Node2</title>
<path fill="none" stroke="midnightblue" d="M621.829,-112.408C643.102,-99.796 676.355,-75.6395 659,-56 637.174,-31.3007 411.988,-17.0658 327.655,-12.5677"/>
<polygon fill="midnightblue" stroke="midnightblue" points="327.803,-9.07071 317.634,-12.0439 327.438,-16.0612 327.803,-9.07071"/>
</g>
<!-- Node15 -->
<g id="node15" class="node"><title>Node15</title>
<polygon fill="none" stroke="#bfbfbf" points="765.5,-56.5 765.5,-75.5 806.5,-75.5 806.5,-56.5 765.5,-56.5"/>
<text text-anchor="middle" x="786" y="-63.5" font-family="Helvetica,sans-Serif" font-size="10.00">string</text>
</g>
<!-- Node14&#45;&gt;Node15 -->
<g id="edge19" class="edge"><title>Node14&#45;&gt;Node15</title>
<path fill="none" stroke="midnightblue" d="M633.338,-112.799C666.226,-102.932 721.277,-86.4168 755.511,-76.1468"/>
<polygon fill="midnightblue" stroke="midnightblue" points="756.846,-79.4003 765.419,-73.1743 754.835,-72.6955 756.846,-79.4003"/>
</g>
<!-- Node16&#45;&gt;Node2 -->
<g id="edge21" class="edge"><title>Node16&#45;&gt;Node2</title>
<path fill="none" stroke="midnightblue" d="M559.744,-112.456C590.432,-103.922 632.359,-90.0807 642,-76 647.022,-68.6655 647.866,-62.6784 642,-56 621.388,-32.5342 409.422,-17.6712 327.799,-12.7798"/>
<polygon fill="midnightblue" stroke="midnightblue" points="327.81,-9.27455 317.622,-12.1814 327.399,-16.2625 327.81,-9.27455"/>
</g>
<!-- Node16&#45;&gt;Node17 -->
<g id="edge22" class="edge"><title>Node16&#45;&gt;Node17</title>
<path fill="none" stroke="midnightblue" d="M508.487,-112.324C490.928,-103.625 463.669,-90.1202 443.469,-80.113"/>
<polygon fill="midnightblue" stroke="midnightblue" points="444.984,-76.9575 434.469,-75.6545 441.876,-83.23 444.984,-76.9575"/>
</g>
<!-- Node16&#45;&gt;Node8 -->
<g id="edge23" class="edge"><title>Node16&#45;&gt;Node8</title>
<path fill="none" stroke="midnightblue" d="M560.634,-112.835C602.437,-102.635 668.032,-85.3829 675,-76 700.57,-41.5675 638.114,-24.6357 589.312,-16.8748"/>
<polygon fill="midnightblue" stroke="midnightblue" points="589.55,-13.3715 579.143,-15.3549 588.515,-20.2947 589.55,-13.3715"/>
</g>
<!-- Node18 -->
<g id="node18" class="node"><title>Node18</title>
<polygon fill="none" stroke="#bfbfbf" points="463,-56.5 463,-75.5 571,-75.5 571,-56.5 463,-56.5"/>
<text text-anchor="middle" x="517" y="-63.5" font-family="Helvetica,sans-Serif" font-size="10.00">boost/shared_ptr.hpp</text>
</g>
<!-- Node16&#45;&gt;Node18 -->
<g id="edge24" class="edge"><title>Node16&#45;&gt;Node18</title>
<path fill="none" stroke="midnightblue" d="M524.514,-112.083C523.321,-104.927 521.606,-94.6353 520.115,-85.6911"/>
<polygon fill="midnightblue" stroke="midnightblue" points="523.555,-85.0396 518.459,-75.7511 516.65,-86.1904 523.555,-85.0396"/>
</g>
<!-- Node19 -->
<g id="node19" class="node"><title>Node19</title>
<polygon fill="none" stroke="#bfbfbf" points="589,-56.5 589,-75.5 633,-75.5 633,-56.5 589,-56.5"/>
<text text-anchor="middle" x="611" y="-63.5" font-family="Helvetica,sans-Serif" font-size="10.00">vector</text>
</g>
<!-- Node16&#45;&gt;Node19 -->
<g id="edge25" class="edge"><title>Node16&#45;&gt;Node19</title>
<path fill="none" stroke="midnightblue" d="M539.657,-112.324C552.916,-103.9 573.268,-90.9709 588.846,-81.0741"/>
<polygon fill="midnightblue" stroke="midnightblue" points="590.813,-83.9711 597.377,-75.6545 587.06,-78.0626 590.813,-83.9711"/>
</g>
<!-- Node21&#45;&gt;Node15 -->
<g id="edge29" class="edge"><title>Node21&#45;&gt;Node15</title>
<path fill="none" stroke="midnightblue" d="M753.44,-112.083C758.949,-104.455 767.031,-93.2645 773.765,-83.9408"/>
<polygon fill="midnightblue" stroke="midnightblue" points="776.662,-85.9071 779.68,-75.7511 770.987,-81.8087 776.662,-85.9071"/>
</g>
<!-- Node22&#45;&gt;Node15 -->
<g id="edge31" class="edge"><title>Node22&#45;&gt;Node15</title>
<path fill="none" stroke="midnightblue" d="M692.834,-112.324C710.716,-103.625 738.475,-90.1202 759.046,-80.113"/>
<polygon fill="midnightblue" stroke="midnightblue" points="760.749,-83.1765 768.21,-75.6545 757.687,-76.8819 760.749,-83.1765"/>
</g>
<!-- Node23&#45;&gt;Node17 -->
<g id="edge33" class="edge"><title>Node23&#45;&gt;Node17</title>
<path fill="none" stroke="midnightblue" d="M408.651,-112.083C409.976,-104.927 411.882,-94.6353 413.539,-85.6911"/>
<polygon fill="midnightblue" stroke="midnightblue" points="417,-86.2212 415.379,-75.7511 410.117,-84.9466 417,-86.2212"/>
</g>
<!-- Node23&#45;&gt;Node2 -->
<g id="edge34" class="edge"><title>Node23&#45;&gt;Node2</title>
<path fill="none" stroke="midnightblue" d="M398.199,-112.138C385.732,-99.5978 362.197,-75.9761 342,-56 332.148,-46.2558 321.045,-35.3905 312.215,-26.7777"/>
<polygon fill="midnightblue" stroke="midnightblue" points="314.452,-24.0701 304.847,-19.5981 309.566,-29.0837 314.452,-24.0701"/>
</g>
</g>
</svg>
        <g id="navigator" transform="translate(0 0)" fill="#404254">
                <rect fill="#f2f5e9" fill-opacity="0.5" stroke="#606060" stroke-width=".5" x="0" y="0" width="60" height="60"/>
                <use id="zoomplus" xlink:href="#zoomPlus" x="17" y="9" onmousedown="handleZoom(evt,'in')"/>
                <use id="zoomminus" xlink:href="#zoomMin" x="42" y="9" onmousedown="handleZoom(evt,'out')"/>
                <use id="reset" xlink:href="#resetDef" x="30" y="36" onmousedown="handleReset()"/>
                <g id="arrowUp" xlink:href="#dirArrow" transform="translate(30 24)" onmousedown="handlePan(0,-1)">
                  <use xlink:href="#rim" fill="#404040">
                        <set attributeName="fill" to="#808080" begin="arrowUp.mouseover" end="arrowUp.mouseout"/>
                  </use>
                  <path fill="none" stroke="white" stroke-width="1.5" d="M0,-3.0v7 M-2.5,-0.5L0,-3.0L2.5,-0.5"/>
                </g>
                <g id="arrowRight" xlink:href="#dirArrow" transform="rotate(90) translate(36 -43)" onmousedown="handlePan(1,0)">
                  <use xlink:href="#rim" fill="#404040">
                        <set attributeName="fill" to="#808080" begin="arrowRight.mouseover" end="arrowRight.mouseout"/>
                  </use>
                  <path fill="none" stroke="white" stroke-width="1.5" d="M0,-3.0v7 M-2.5,-0.5L0,-3.0L2.5,-0.5"/>
                </g>
                <g id="arrowDown" xlink:href="#dirArrow" transform="rotate(180) translate(-30 -48)" onmousedown="handlePan(0,1)">
                  <use xlink:href="#rim" fill="#404040">
                        <set attributeName="fill" to="#808080" begin="arrowDown.mouseover" end="arrowDown.mouseout"/>
                  </use>
                  <path fill="none" stroke="white" stroke-width="1.5" d="M0,-3.0v7 M-2.5,-0.5L0,-3.0L2.5,-0.5"/>
                </g>
                <g id="arrowLeft" xlink:href="#dirArrow" transform="rotate(270) translate(-36 17)" onmousedown="handlePan(-1,0)">
                  <use xlink:href="#rim" fill="#404040">
                        <set attributeName="fill" to="#808080" begin="arrowLeft.mouseover" end="arrowLeft.mouseout"/>
                  </use>
                  <path fill="none" stroke="white" stroke-width="1.5" d="M0,-3.0v7 M-2.5,-0.5L0,-3.0L2.5,-0.5"/>
                </g>
        </g>
        <svg viewBox="0 0 15 15" width="100%" height="30px" preserveAspectRatio="xMaxYMin meet">
         <g id="arrow_out" transform="scale(0.3 0.3)">
          <a xlink:href="bin_2ccresponse_2local_8cc__incl_org.svg" target="_base">
           <rect id="button" ry="5" rx="5" y="6" x="6" height="38" width="38"
                fill="#f2f5e9" fill-opacity="0.5" stroke="#606060" stroke-width="1.0"/>
           <path id="arrow"
             d="M 11.500037,31.436501 C 11.940474,20.09759 22.043105,11.32322 32.158766,21.979434 L 37.068811,17.246167 C 37.068811,17.246167 37.088388,32 37.088388,32 L 22.160133,31.978069 C 22.160133,31.978069 26.997745,27.140456 26.997745,27.140456 C 18.528582,18.264221 13.291696,25.230495 11.500037,31.436501 z"
             style="fill:#404040;"/>
          </a>
         </g>
        </svg>
</svg>
