<?xml version="1.0" encoding="UTF-8" standalone="no"?>
<!DOCTYPE svg PUBLIC "-//W3C//DTD SVG 1.1//EN"
 "http://www.w3.org/Graphics/SVG/1.1/DTD/svg11.dtd">
<!-- Generated by graphviz version 2.30.1 (20140110.0959)
 -->
<!-- Title: get_params.cc Pages: 1 -->
<svg width="2108pt" height="264pt"
 viewBox="0.00 0.00 2107.64 264.00" xmlns="http://www.w3.org/2000/svg" xmlns:xlink="http://www.w3.org/1999/xlink">
<g id="graph0" class="graph" transform="scale(1 1) rotate(0) translate(4 260)">
<title>get_params.cc</title>
<!-- Node1 -->
<g id="node1" class="node"><title>Node1</title>
<polygon fill="#bfbfbf" stroke="black" points="1588.14,-236.5 1588.14,-255.5 1669.14,-255.5 1669.14,-236.5 1588.14,-236.5"/>
<text text-anchor="middle" x="1628.64" y="-243.5" font-family="Helvetica,sans-Serif" font-size="10.00">get_params.cc</text>
</g>
<!-- Node2 -->
<g id="node2" class="node"><title>Node2</title>
<polygon fill="none" stroke="#bfbfbf" points="277.136,-0.5 277.136,-19.5 320.136,-19.5 320.136,-0.5 277.136,-0.5"/>
<text text-anchor="middle" x="298.636" y="-7.5" font-family="Helvetica,sans-Serif" font-size="10.00">cstdio</text>
</g>
<!-- Node1&#45;&gt;Node2 -->
<g id="edge1" class="edge"><title>Node1&#45;&gt;Node2</title>
<path fill="none" stroke="midnightblue" d="M1588.14,-244.752C1363.63,-243.25 276.752,-234.246 131.636,-200 73.9627,-186.389 42.5476,-193.932 10.6364,-144 -51.3583,-46.9959 179.903,-19.7314 266.85,-12.9922"/>
<polygon fill="midnightblue" stroke="midnightblue" points="267.227,-16.4741 276.944,-12.2525 266.715,-9.49281 267.227,-16.4741"/>
</g>
<!-- Node3 -->
<g id="node3" class="node"><title>Node3</title>
<polygon fill="none" stroke="#bfbfbf" points="1823.14,-0.5 1823.14,-19.5 1868.14,-19.5 1868.14,-0.5 1823.14,-0.5"/>
<text text-anchor="middle" x="1845.64" y="-7.5" font-family="Helvetica,sans-Serif" font-size="10.00">cstdlib</text>
</g>
<!-- Node1&#45;&gt;Node3 -->
<g id="edge2" class="edge"><title>Node1&#45;&gt;Node3</title>
<path fill="none" stroke="midnightblue" d="M1669.18,-239.814C1698.52,-234.254 1737.59,-222.905 1764.64,-200 1817.96,-154.835 1837.1,-68.2348 1843.15,-29.9735"/>
<polygon fill="midnightblue" stroke="midnightblue" points="1846.66,-30.1494 1844.63,-19.7506 1839.73,-29.145 1846.66,-30.1494"/>
</g>
<!-- Node4 -->
<g id="node4" class="node"><title>Node4</title>
<polygon fill="none" stroke="#bfbfbf" points="1811.64,-180.5 1811.64,-199.5 1857.64,-199.5 1857.64,-180.5 1811.64,-180.5"/>
<text text-anchor="middle" x="1834.64" y="-187.5" font-family="Helvetica,sans-Serif" font-size="10.00">cstring</text>
</g>
<!-- Node1&#45;&gt;Node4 -->
<g id="edge3" class="edge"><title>Node1&#45;&gt;Node4</title>
<path fill="none" stroke="midnightblue" d="M1661.28,-236.444C1699.71,-226.37 1763.17,-209.735 1801.72,-199.63"/>
<polygon fill="midnightblue" stroke="midnightblue" points="1802.63,-203.008 1811.42,-197.086 1800.86,-196.237 1802.63,-203.008"/>
</g>
<!-- Node5 -->
<g id="node5" class="node"><title>Node5</title>
<polygon fill="none" stroke="#bfbfbf" points="1404.14,-0.5 1404.14,-19.5 1445.14,-19.5 1445.14,-0.5 1404.14,-0.5"/>
<text text-anchor="middle" x="1424.64" y="-7.5" font-family="Helvetica,sans-Serif" font-size="10.00">string</text>
</g>
<!-- Node1&#45;&gt;Node5 -->
<g id="edge4" class="edge"><title>Node1&#45;&gt;Node5</title>
<path fill="none" stroke="midnightblue" d="M1633.7,-236.151C1650.42,-205.704 1699.82,-104.488 1647.64,-56 1620.04,-30.3543 1509.72,-17.9408 1455.31,-13.2803"/>
<polygon fill="midnightblue" stroke="midnightblue" points="1455.46,-9.78147 1445.21,-12.45 1454.89,-16.7579 1455.46,-9.78147"/>
</g>
<!-- Node6 -->
<g id="node6" class="node"><title>Node6</title>
<polygon fill="none" stroke="#bfbfbf" points="1875.64,-180.5 1875.64,-199.5 1919.64,-199.5 1919.64,-180.5 1875.64,-180.5"/>
<text text-anchor="middle" x="1897.64" y="-187.5" font-family="Helvetica,sans-Serif" font-size="10.00">cmath</text>
</g>
<!-- Node1&#45;&gt;Node6 -->
<g id="edge5" class="edge"><title>Node1&#45;&gt;Node6</title>
<path fill="none" stroke="midnightblue" d="M1669.31,-238.528C1714.86,-231.013 1791.03,-217.642 1865.36,-200.13"/>
<polygon fill="midnightblue" stroke="midnightblue" points="1866.44,-203.47 1875.35,-197.746 1864.81,-196.661 1866.44,-203.47"/>
</g>
<!-- Node7 -->
<g id="node7" class="node"><title>Node7</title>
<g id="a_node7"><a xlink:href="libciomr_8h_source.html" target="_top" xlink:title="libciomr/libciomr.h">
<polygon fill="none" stroke="black" points="20.1364,-124.5 20.1364,-143.5 115.136,-143.5 115.136,-124.5 20.1364,-124.5"/>
<text text-anchor="middle" x="67.6364" y="-131.5" font-family="Helvetica,sans-Serif" font-size="10.00">libciomr/libciomr.h</text>
</a>
</g>
</g>
<!-- Node1&#45;&gt;Node7 -->
<g id="edge6" class="edge"><title>Node1&#45;&gt;Node7</title>
<path fill="none" stroke="midnightblue" d="M1587.97,-244.915C1367.38,-244.295 319.08,-239.291 180.636,-200 144.631,-189.781 107.988,-165.64 86.5567,-149.828"/>
<polygon fill="midnightblue" stroke="midnightblue" points="88.438,-146.863 78.3495,-143.627 84.2179,-152.448 88.438,-146.863"/>
</g>
<!-- Node8 -->
<g id="node8" class="node"><title>Node8</title>
<g id="a_node8"><a xlink:href="psifiles_8h_source.html" target="_top" xlink:title="psifiles.h">
<polygon fill="none" stroke="black" points="214.636,-62.5 214.636,-81.5 270.636,-81.5 270.636,-62.5 214.636,-62.5"/>
<text text-anchor="middle" x="242.636" y="-69.5" font-family="Helvetica,sans-Serif" font-size="10.00">psifiles.h</text>
</a>
</g>
</g>
<!-- Node1&#45;&gt;Node8 -->
<g id="edge8" class="edge"><title>Node1&#45;&gt;Node8</title>
<path fill="none" stroke="midnightblue" d="M1587.79,-243.81C1464.08,-240.004 1082.71,-226.777 767.636,-200 555.827,-181.999 475.257,-252.798 292.636,-144 272.257,-131.859 258.041,-107.821 250.11,-91.097"/>
<polygon fill="midnightblue" stroke="midnightblue" points="253.241,-89.522 245.986,-81.8008 246.842,-92.361 253.241,-89.522"/>
</g>
<!-- Node9 -->
<g id="node9" class="node"><title>Node9</title>
<g id="a_node9"><a xlink:href="qt_8h.html" target="_top" xlink:title="Header file for the Quantum Trio LibraryDavid Sherrill 1994.">
<polygon fill="none" stroke="black" points="490.636,-62.5 490.636,-81.5 544.636,-81.5 544.636,-62.5 490.636,-62.5"/>
<text text-anchor="middle" x="517.636" y="-69.5" font-family="Helvetica,sans-Serif" font-size="10.00">libqt/qt.h</text>
</a>
</g>
</g>
<!-- Node1&#45;&gt;Node9 -->
<g id="edge9" class="edge"><title>Node1&#45;&gt;Node9</title>
<path fill="none" stroke="midnightblue" d="M1588.13,-243.969C1422.82,-239.301 799.475,-217.102 618.636,-144 585.747,-130.705 553.169,-104.924 534.246,-88.3591"/>
<polygon fill="midnightblue" stroke="midnightblue" points="536.571,-85.7429 526.786,-81.6808 531.902,-90.9584 536.571,-85.7429"/>
</g>
<!-- Node10 -->
<g id="node10" class="node"><title>Node10</title>
<g id="a_node10"><a xlink:href="liboptions_8h_source.html" target="_top" xlink:title="liboptions/liboptions.h">
<polygon fill="none" stroke="black" points="1319.64,-124.5 1319.64,-143.5 1429.64,-143.5 1429.64,-124.5 1319.64,-124.5"/>
<text text-anchor="middle" x="1374.64" y="-131.5" font-family="Helvetica,sans-Serif" font-size="10.00">liboptions/liboptions.h</text>
</a>
</g>
</g>
<!-- Node1&#45;&gt;Node10 -->
<g id="edge12" class="edge"><title>Node1&#45;&gt;Node10</title>
<path fill="none" stroke="midnightblue" d="M1608.71,-236.368C1564.1,-217.051 1456.05,-170.259 1403.84,-147.648"/>
<polygon fill="midnightblue" stroke="midnightblue" points="1405.04,-144.354 1394.47,-143.591 1402.26,-150.777 1405.04,-144.354"/>
</g>
<!-- Node20 -->
<g id="node20" class="node"><title>Node20</title>
<g id="a_node20"><a xlink:href="chkpt_8h_source.html" target="_top" xlink:title="libchkpt/chkpt.h">
<polygon fill="none" stroke="black" points="1937.64,-180.5 1937.64,-199.5 2023.64,-199.5 2023.64,-180.5 1937.64,-180.5"/>
<text text-anchor="middle" x="1980.64" y="-187.5" font-family="Helvetica,sans-Serif" font-size="10.00">libchkpt/chkpt.h</text>
</a>
</g>
</g>
<!-- Node1&#45;&gt;Node20 -->
<g id="edge27" class="edge"><title>Node1&#45;&gt;Node20</title>
<path fill="none" stroke="midnightblue" d="M1669.44,-239.176C1725.29,-231.14 1828.92,-215.996 1927.39,-200.172"/>
<polygon fill="midnightblue" stroke="midnightblue" points="1928.2,-203.587 1937.52,-198.54 1927.09,-196.676 1928.2,-203.587"/>
</g>
<!-- Node21 -->
<g id="node21" class="node"><title>Node21</title>
<g id="a_node21"><a xlink:href="psi4-dec_8h_source.html" target="_top" xlink:title="psi4&#45;dec.h">
<polygon fill="none" stroke="black" points="984.636,-180.5 984.636,-199.5 1046.64,-199.5 1046.64,-180.5 984.636,-180.5"/>
<text text-anchor="middle" x="1015.64" y="-187.5" font-family="Helvetica,sans-Serif" font-size="10.00">psi4&#45;dec.h</text>
</a>
</g>
</g>
<!-- Node1&#45;&gt;Node21 -->
<g id="edge28" class="edge"><title>Node1&#45;&gt;Node21</title>
<path fill="none" stroke="midnightblue" d="M1587.94,-241.415C1476.81,-231.625 1169.02,-204.512 1057.05,-194.648"/>
<polygon fill="midnightblue" stroke="midnightblue" points="1057.1,-191.139 1046.84,-193.748 1056.49,-198.112 1057.1,-191.139"/>
</g>
<!-- Node34 -->
<g id="node34" class="node"><title>Node34</title>
<g id="a_node34"><a xlink:href="cclambda_2MOInfo_8h.html" target="_top" xlink:title="Enter brief description of file here.">
<polygon fill="none" stroke="black" points="2042.14,-180.5 2042.14,-199.5 2099.14,-199.5 2099.14,-180.5 2042.14,-180.5"/>
<text text-anchor="middle" x="2070.64" y="-187.5" font-family="Helvetica,sans-Serif" font-size="10.00">MOInfo.h</text>
</a>
</g>
</g>
<!-- Node1&#45;&gt;Node34 -->
<g id="edge48" class="edge"><title>Node1&#45;&gt;Node34</title>
<path fill="none" stroke="midnightblue" d="M1669.29,-242.117C1740.68,-236.698 1893.32,-223.522 2032.11,-199.877"/>
<polygon fill="midnightblue" stroke="midnightblue" points="2032.82,-203.307 2042.08,-198.157 2031.63,-196.409 2032.82,-203.307"/>
</g>
<!-- Node35 -->
<g id="node35" class="node"><title>Node35</title>
<g id="a_node35"><a xlink:href="cclambda_2Params_8h.html" target="_top" xlink:title="Enter brief description of file here.">
<polygon fill="none" stroke="black" points="1599.14,-124.5 1599.14,-143.5 1658.14,-143.5 1658.14,-124.5 1599.14,-124.5"/>
<text text-anchor="middle" x="1628.64" y="-131.5" font-family="Helvetica,sans-Serif" font-size="10.00">Params.h</text>
</a>
</g>
</g>
<!-- Node1&#45;&gt;Node35 -->
<g id="edge49" class="edge"><title>Node1&#45;&gt;Node35</title>
<path fill="none" stroke="midnightblue" d="M1628.64,-236.368C1628.64,-218.617 1628.64,-177.666 1628.64,-153.597"/>
<polygon fill="midnightblue" stroke="midnightblue" points="1632.14,-153.591 1628.64,-143.591 1625.14,-153.591 1632.14,-153.591"/>
</g>
<!-- Node36 -->
<g id="node36" class="node"><title>Node36</title>
<g id="a_node36"><a xlink:href="cclambda_2Local_8h.html" target="_top" xlink:title="Enter brief description of file here.">
<polygon fill="none" stroke="black" points="1707.64,-180.5 1707.64,-199.5 1755.64,-199.5 1755.64,-180.5 1707.64,-180.5"/>
<text text-anchor="middle" x="1731.64" y="-187.5" font-family="Helvetica,sans-Serif" font-size="10.00">Local.h</text>
</a>
</g>
</g>
<!-- Node1&#45;&gt;Node36 -->
<g id="edge51" class="edge"><title>Node1&#45;&gt;Node36</title>
<path fill="none" stroke="midnightblue" d="M1645.19,-236.324C1661.63,-227.703 1687.07,-214.364 1706.1,-204.386"/>
<polygon fill="midnightblue" stroke="midnightblue" points="1707.9,-207.398 1715.13,-199.655 1704.65,-201.198 1707.9,-207.398"/>
</g>
<!-- Node37 -->
<g id="node37" class="node"><title>Node37</title>
<g id="a_node37"><a xlink:href="cclambda_2globals_8h.html" target="_top" xlink:title="Enter brief description of file here.">
<polygon fill="none" stroke="black" points="189.636,-180.5 189.636,-199.5 245.636,-199.5 245.636,-180.5 189.636,-180.5"/>
<text text-anchor="middle" x="217.636" y="-187.5" font-family="Helvetica,sans-Serif" font-size="10.00">globals.h</text>
</a>
</g>
</g>
<!-- Node1&#45;&gt;Node37 -->
<g id="edge53" class="edge"><title>Node1&#45;&gt;Node37</title>
<path fill="none" stroke="midnightblue" d="M1587.96,-244.641C1390.04,-242.745 526.504,-232.714 259.636,-200 258.387,-199.847 257.12,-199.675 255.844,-199.487"/>
<polygon fill="midnightblue" stroke="midnightblue" points="256.435,-196.038 245.987,-197.791 255.248,-202.936 256.435,-196.038"/>
</g>
<!-- Node7&#45;&gt;Node2 -->
<g id="edge7" class="edge"><title>Node7&#45;&gt;Node2</title>
<path fill="none" stroke="midnightblue" d="M68.2843,-124.34C69.9682,-108.302 75.9249,-73.9793 96.6364,-56 121.84,-34.121 216.85,-20.2979 267.072,-14.361"/>
<polygon fill="midnightblue" stroke="midnightblue" points="267.532,-17.8313 277.068,-13.2138 266.734,-10.8769 267.532,-17.8313"/>
</g>
<!-- Node9&#45;&gt;Node2 -->
<g id="edge10" class="edge"><title>Node9&#45;&gt;Node2</title>
<path fill="none" stroke="midnightblue" d="M498.412,-62.3493C493.045,-60.1105 487.167,-57.8204 481.636,-56 429.591,-38.8709 367.326,-24.8952 330.484,-17.2774"/>
<polygon fill="midnightblue" stroke="midnightblue" points="330.849,-13.7798 320.351,-15.2104 329.45,-20.6386 330.849,-13.7798"/>
</g>
<!-- Node9&#45;&gt;Node5 -->
<g id="edge11" class="edge"><title>Node9&#45;&gt;Node5</title>
<path fill="none" stroke="midnightblue" d="M534.818,-62.4322C540.65,-59.9079 547.298,-57.4388 553.636,-56 636.829,-37.1164 1248.53,-16.6069 1393.77,-11.968"/>
<polygon fill="midnightblue" stroke="midnightblue" points="1393.9,-15.4658 1403.78,-11.6499 1393.67,-8.46937 1393.9,-15.4658"/>
</g>
<!-- Node10&#45;&gt;Node5 -->
<g id="edge13" class="edge"><title>Node10&#45;&gt;Node5</title>
<path fill="none" stroke="midnightblue" d="M1362.14,-124.302C1351.76,-116.251 1337.75,-103.245 1331.64,-88 1326.34,-74.7994 1324.08,-68.0493 1331.64,-56 1345.29,-34.223 1372.8,-22.7257 1394.38,-16.8233"/>
<polygon fill="midnightblue" stroke="midnightblue" points="1395.23,-20.2172 1404.1,-14.4214 1393.55,-13.4214 1395.23,-20.2172"/>
</g>
<!-- Node11 -->
<g id="node11" class="node"><title>Node11</title>
<polygon fill="none" stroke="#bfbfbf" points="954.636,-0.5 954.636,-19.5 998.636,-19.5 998.636,-0.5 954.636,-0.5"/>
<text text-anchor="middle" x="976.636" y="-7.5" font-family="Helvetica,sans-Serif" font-size="10.00">vector</text>
</g>
<!-- Node10&#45;&gt;Node11 -->
<g id="edge14" class="edge"><title>Node10&#45;&gt;Node11</title>
<path fill="none" stroke="midnightblue" d="M1364.52,-124.408C1344.8,-108.169 1299.26,-73.0747 1254.64,-56 1169.84,-23.5493 1061.78,-14.4988 1008.83,-11.9753"/>
<polygon fill="midnightblue" stroke="midnightblue" points="1008.83,-8.47247 998.693,-11.5411 1008.53,-15.4661 1008.83,-8.47247"/>
</g>
<!-- Node12 -->
<g id="node12" class="node"><title>Node12</title>
<polygon fill="none" stroke="#bfbfbf" points="1211.14,-62.5 1211.14,-81.5 1246.14,-81.5 1246.14,-62.5 1211.14,-62.5"/>
<text text-anchor="middle" x="1228.64" y="-69.5" font-family="Helvetica,sans-Serif" font-size="10.00">map</text>
</g>
<!-- Node10&#45;&gt;Node12 -->
<g id="edge15" class="edge"><title>Node10&#45;&gt;Node12</title>
<path fill="none" stroke="midnightblue" d="M1351.75,-124.449C1328.61,-115.689 1291.9,-101.481 1260.64,-88 1259.01,-87.2984 1257.34,-86.5643 1255.67,-85.8139"/>
<polygon fill="midnightblue" stroke="midnightblue" points="1256.7,-82.4384 1246.15,-81.451 1253.78,-88.8011 1256.7,-82.4384"/>
</g>
<!-- Node13 -->
<g id="node13" class="node"><title>Node13</title>
<polygon fill="none" stroke="#bfbfbf" points="1341.14,-62.5 1341.14,-81.5 1408.14,-81.5 1408.14,-62.5 1341.14,-62.5"/>
<text text-anchor="middle" x="1374.64" y="-69.5" font-family="Helvetica,sans-Serif" font-size="10.00">exception.h</text>
</g>
<!-- Node10&#45;&gt;Node13 -->
<g id="edge16" class="edge"><title>Node10&#45;&gt;Node13</title>
<path fill="none" stroke="midnightblue" d="M1374.64,-124.403C1374.64,-115.938 1374.64,-102.728 1374.64,-91.8199"/>
<polygon fill="midnightblue" stroke="midnightblue" points="1378.14,-91.5806 1374.64,-81.5806 1371.14,-91.5806 1378.14,-91.5806"/>
</g>
<!-- Node14 -->
<g id="node14" class="node"><title>Node14</title>
<g id="a_node14"><a xlink:href="libutil_8h_source.html" target="_top" xlink:title="libutil/libutil.h">
<polygon fill="none" stroke="black" points="1547.14,-62.5 1547.14,-81.5 1620.14,-81.5 1620.14,-62.5 1547.14,-62.5"/>
<text text-anchor="middle" x="1583.64" y="-69.5" font-family="Helvetica,sans-Serif" font-size="10.00">libutil/libutil.h</text>
</a>
</g>
</g>
<!-- Node10&#45;&gt;Node14 -->
<g id="edge17" class="edge"><title>Node10&#45;&gt;Node14</title>
<path fill="none" stroke="midnightblue" d="M1407.23,-124.472C1440.23,-115.729 1492.66,-101.535 1537.64,-88 1541.04,-86.9766 1544.57,-85.8821 1548.1,-84.7679"/>
<polygon fill="midnightblue" stroke="midnightblue" points="1549.46,-88.0063 1557.91,-81.6182 1547.32,-81.341 1549.46,-88.0063"/>
</g>
<!-- Node16 -->
<g id="node16" class="node"><title>Node16</title>
<g id="a_node16"><a xlink:href="libutil_2ref_8h_source.html" target="_top" xlink:title="libutil/ref.h">
<polygon fill="none" stroke="black" points="1752.64,-62.5 1752.64,-81.5 1814.64,-81.5 1814.64,-62.5 1752.64,-62.5"/>
<text text-anchor="middle" x="1783.64" y="-69.5" font-family="Helvetica,sans-Serif" font-size="10.00">libutil/ref.h</text>
</a>
</g>
</g>
<!-- Node10&#45;&gt;Node16 -->
<g id="edge21" class="edge"><title>Node10&#45;&gt;Node16</title>
<path fill="none" stroke="midnightblue" d="M1429.8,-124.908C1512.82,-112.728 1668.06,-89.955 1742.18,-79.0814"/>
<polygon fill="midnightblue" stroke="midnightblue" points="1743.12,-82.4806 1752.51,-77.5661 1742.11,-75.5547 1743.12,-82.4806"/>
</g>
<!-- Node19 -->
<g id="node19" class="node"><title>Node19</title>
<polygon fill="none" stroke="#bfbfbf" points="1426.64,-57 1426.64,-87 1528.64,-87 1528.64,-57 1426.64,-57"/>
<text text-anchor="start" x="1434.64" y="-75" font-family="Helvetica,sans-Serif" font-size="10.00">boost/python/object</text>
<text text-anchor="middle" x="1477.64" y="-64" font-family="Helvetica,sans-Serif" font-size="10.00">_fwd.hpp</text>
</g>
<!-- Node10&#45;&gt;Node19 -->
<g id="edge26" class="edge"><title>Node10&#45;&gt;Node19</title>
<path fill="none" stroke="midnightblue" d="M1389.39,-124.403C1403.73,-116.049 1426.01,-103.075 1444.59,-92.2517"/>
<polygon fill="midnightblue" stroke="midnightblue" points="1446.48,-95.1987 1453.36,-87.1408 1442.96,-89.1501 1446.48,-95.1987"/>
</g>
<!-- Node14&#45;&gt;Node5 -->
<g id="edge18" class="edge"><title>Node14&#45;&gt;Node5</title>
<path fill="none" stroke="midnightblue" d="M1560.86,-62.4035C1532.96,-51.8774 1485.63,-34.0161 1454.75,-22.3646"/>
<polygon fill="midnightblue" stroke="midnightblue" points="1455.94,-19.073 1445.35,-18.817 1453.47,-25.6223 1455.94,-19.073"/>
</g>
<!-- Node14&#45;&gt;Node11 -->
<g id="edge19" class="edge"><title>Node14&#45;&gt;Node11</title>
<path fill="none" stroke="midnightblue" d="M1560.99,-62.4445C1553.64,-59.9845 1545.38,-57.5503 1537.64,-56 1339.64,-16.3529 1095.72,-11.3918 1009.06,-10.9522"/>
<polygon fill="midnightblue" stroke="midnightblue" points="1008.83,-7.45152 998.814,-10.9182 1008.8,-14.4515 1008.83,-7.45152"/>
</g>
<!-- Node15 -->
<g id="node15" class="node"><title>Node15</title>
<polygon fill="none" stroke="#bfbfbf" points="1552.64,-0.5 1552.64,-19.5 1614.64,-19.5 1614.64,-0.5 1552.64,-0.5"/>
<text text-anchor="middle" x="1583.64" y="-7.5" font-family="Helvetica,sans-Serif" font-size="10.00">sys/time.h</text>
</g>
<!-- Node14&#45;&gt;Node15 -->
<g id="edge20" class="edge"><title>Node14&#45;&gt;Node15</title>
<path fill="none" stroke="midnightblue" d="M1583.64,-62.4035C1583.64,-53.9381 1583.64,-40.7283 1583.64,-29.8199"/>
<polygon fill="midnightblue" stroke="midnightblue" points="1587.14,-29.5806 1583.64,-19.5806 1580.14,-29.5806 1587.14,-29.5806"/>
</g>
<!-- Node17 -->
<g id="node17" class="node"><title>Node17</title>
<polygon fill="none" stroke="#bfbfbf" points="1756.14,-0.5 1756.14,-19.5 1805.14,-19.5 1805.14,-0.5 1756.14,-0.5"/>
<text text-anchor="middle" x="1780.64" y="-7.5" font-family="Helvetica,sans-Serif" font-size="10.00">cstddef</text>
</g>
<!-- Node16&#45;&gt;Node17 -->
<g id="edge22" class="edge"><title>Node16&#45;&gt;Node17</title>
<path fill="none" stroke="midnightblue" d="M1783.21,-62.4035C1782.78,-53.9381 1782.12,-40.7283 1781.58,-29.8199"/>
<polygon fill="midnightblue" stroke="midnightblue" points="1785.06,-29.3933 1781.07,-19.5806 1778.07,-29.7429 1785.06,-29.3933"/>
</g>
<!-- Node16&#45;&gt;Node2 -->
<g id="edge23" class="edge"><title>Node16&#45;&gt;Node2</title>
<path fill="none" stroke="midnightblue" d="M1752.51,-67.4059C1721.25,-63.9331 1671.67,-58.7992 1628.64,-56 1151.16,-24.9395 1030.84,-36.4719 552.636,-20 472.69,-17.2462 378.595,-13.8793 330.482,-12.1486"/>
<polygon fill="midnightblue" stroke="midnightblue" points="330.5,-8.64706 320.381,-11.7849 330.249,-15.6425 330.5,-8.64706"/>
</g>
<!-- Node16&#45;&gt;Node3 -->
<g id="edge24" class="edge"><title>Node16&#45;&gt;Node3</title>
<path fill="none" stroke="midnightblue" d="M1792.52,-62.4035C1802.1,-53.1361 1817.55,-38.1828 1829.32,-26.7876"/>
<polygon fill="midnightblue" stroke="midnightblue" points="1832.02,-29.05 1836.77,-19.5806 1827.15,-24.0197 1832.02,-29.05"/>
</g>
<!-- Node18 -->
<g id="node18" class="node"><title>Node18</title>
<polygon fill="none" stroke="#bfbfbf" points="1685.64,-0.5 1685.64,-19.5 1737.64,-19.5 1737.64,-0.5 1685.64,-0.5"/>
<text text-anchor="middle" x="1711.64" y="-7.5" font-family="Helvetica,sans-Serif" font-size="10.00">assert.h</text>
</g>
<!-- Node16&#45;&gt;Node18 -->
<g id="edge25" class="edge"><title>Node16&#45;&gt;Node18</title>
<path fill="none" stroke="midnightblue" d="M1773.32,-62.4035C1761.99,-52.9579 1743.56,-37.6056 1729.8,-26.1342"/>
<polygon fill="midnightblue" stroke="midnightblue" points="1731.86,-23.2937 1721.93,-19.5806 1727.37,-28.6713 1731.86,-23.2937"/>
</g>
<!-- Node22 -->
<g id="node22" class="node"><title>Node22</title>
<polygon fill="none" stroke="#bfbfbf" points="364.636,-62.5 364.636,-81.5 472.636,-81.5 472.636,-62.5 364.636,-62.5"/>
<text text-anchor="middle" x="418.636" y="-69.5" font-family="Helvetica,sans-Serif" font-size="10.00">boost/shared_ptr.hpp</text>
</g>
<!-- Node21&#45;&gt;Node22 -->
<g id="edge29" class="edge"><title>Node21&#45;&gt;Node22</title>
<path fill="none" stroke="midnightblue" d="M984.598,-187.888C917.176,-184.95 752.625,-174.948 618.636,-144 556.022,-129.537 485.891,-101.825 447.55,-85.6306"/>
<polygon fill="midnightblue" stroke="midnightblue" points="448.633,-82.2872 438.061,-81.5826 445.886,-88.7258 448.633,-82.2872"/>
</g>
<!-- Node23 -->
<g id="node23" class="node"><title>Node23</title>
<polygon fill="none" stroke="#bfbfbf" points="730.636,-62.5 730.636,-81.5 862.636,-81.5 862.636,-62.5 730.636,-62.5"/>
<text text-anchor="middle" x="796.636" y="-69.5" font-family="Helvetica,sans-Serif" font-size="10.00">boost/current_function.hpp</text>
</g>
<!-- Node21&#45;&gt;Node23 -->
<g id="edge30" class="edge"><title>Node21&#45;&gt;Node23</title>
<path fill="none" stroke="midnightblue" d="M1006.74,-180.363C992.377,-166.812 962.754,-140.414 933.636,-124 903.116,-106.795 865.674,-93.3156 837.65,-84.5464"/>
<polygon fill="midnightblue" stroke="midnightblue" points="838.368,-81.1062 827.782,-81.5307 836.323,-87.8005 838.368,-81.1062"/>
</g>
<!-- Node21&#45;&gt;Node5 -->
<g id="edge31" class="edge"><title>Node21&#45;&gt;Node5</title>
<path fill="none" stroke="midnightblue" d="M1029.43,-180.256C1055.98,-163.274 1115.82,-124.303 1163.64,-88 1181.22,-74.6489 1181.75,-65.594 1201.64,-56 1265.39,-25.2424 1349.17,-15.4953 1393.7,-12.4153"/>
<polygon fill="midnightblue" stroke="midnightblue" points="1394.11,-15.8963 1403.88,-11.7814 1393.68,-8.90984 1394.11,-15.8963"/>
</g>
<!-- Node24 -->
<g id="node24" class="node"><title>Node24</title>
<polygon fill="none" stroke="#bfbfbf" points="896.136,-124.5 896.136,-143.5 925.136,-143.5 925.136,-124.5 896.136,-124.5"/>
<text text-anchor="middle" x="910.636" y="-131.5" font-family="Helvetica,sans-Serif" font-size="10.00">list</text>
</g>
<!-- Node21&#45;&gt;Node24 -->
<g id="edge32" class="edge"><title>Node21&#45;&gt;Node24</title>
<path fill="none" stroke="midnightblue" d="M998.766,-180.324C981.33,-171.357 953.965,-157.283 934.355,-147.198"/>
<polygon fill="midnightblue" stroke="midnightblue" points="935.922,-144.068 925.428,-142.607 932.72,-150.293 935.922,-144.068"/>
</g>
<!-- Node21&#45;&gt;Node12 -->
<g id="edge33" class="edge"><title>Node21&#45;&gt;Node12</title>
<path fill="none" stroke="midnightblue" d="M1046.82,-189.196C1086.09,-187.826 1153.63,-179.895 1196.64,-144 1212.49,-130.766 1220.82,-108.047 1224.96,-91.8738"/>
<polygon fill="midnightblue" stroke="midnightblue" points="1228.42,-92.4437 1227.19,-81.9196 1221.59,-90.9092 1228.42,-92.4437"/>
</g>
<!-- Node21&#45;&gt;Node10 -->
<g id="edge34" class="edge"><title>Node21&#45;&gt;Node10</title>
<path fill="none" stroke="midnightblue" d="M1046.87,-184.302C1105.15,-175.535 1231.6,-156.515 1309.29,-144.829"/>
<polygon fill="midnightblue" stroke="midnightblue" points="1310.08,-148.25 1319.45,-143.301 1309.04,-141.327 1310.08,-148.25"/>
</g>
<!-- Node25 -->
<g id="node25" class="node"><title>Node25</title>
<g id="a_node25"><a xlink:href="include_2exception_8h_source.html" target="_top" xlink:title="exception.h">
<polygon fill="none" stroke="black" points="982.136,-124.5 982.136,-143.5 1049.14,-143.5 1049.14,-124.5 982.136,-124.5"/>
<text text-anchor="middle" x="1015.64" y="-131.5" font-family="Helvetica,sans-Serif" font-size="10.00">exception.h</text>
</a>
</g>
</g>
<!-- Node21&#45;&gt;Node25 -->
<g id="edge35" class="edge"><title>Node21&#45;&gt;Node25</title>
<path fill="none" stroke="midnightblue" d="M1015.64,-180.083C1015.64,-173.006 1015.64,-162.861 1015.64,-153.986"/>
<polygon fill="midnightblue" stroke="midnightblue" points="1019.14,-153.751 1015.64,-143.751 1012.14,-153.751 1019.14,-153.751"/>
</g>
<!-- Node30 -->
<g id="node30" class="node"><title>Node30</title>
<g id="a_node30"><a xlink:href="typedefs_8h_source.html" target="_top" xlink:title="libmints/typedefs.h">
<polygon fill="none" stroke="black" points="628.136,-124.5 628.136,-143.5 727.136,-143.5 727.136,-124.5 628.136,-124.5"/>
<text text-anchor="middle" x="677.636" y="-131.5" font-family="Helvetica,sans-Serif" font-size="10.00">libmints/typedefs.h</text>
</a>
</g>
</g>
<!-- Node21&#45;&gt;Node30 -->
<g id="edge41" class="edge"><title>Node21&#45;&gt;Node30</title>
<path fill="none" stroke="midnightblue" d="M984.444,-184.017C928.368,-175.058 809.658,-156.092 737.45,-144.556"/>
<polygon fill="midnightblue" stroke="midnightblue" points="737.573,-141.031 727.146,-142.91 736.469,-147.944 737.573,-141.031"/>
</g>
<!-- Node26 -->
<g id="node26" class="node"><title>Node26</title>
<polygon fill="none" stroke="#bfbfbf" points="948.136,-62.5 948.136,-81.5 1007.14,-81.5 1007.14,-62.5 948.136,-62.5"/>
<text text-anchor="middle" x="977.636" y="-69.5" font-family="Helvetica,sans-Serif" font-size="10.00">exception</text>
</g>
<!-- Node25&#45;&gt;Node26 -->
<g id="edge36" class="edge"><title>Node25&#45;&gt;Node26</title>
<path fill="none" stroke="midnightblue" d="M1010.19,-124.403C1004.55,-115.493 995.575,-101.325 988.478,-90.1177"/>
<polygon fill="midnightblue" stroke="midnightblue" points="991.378,-88.1561 983.071,-81.5806 985.464,-91.9015 991.378,-88.1561"/>
</g>
<!-- Node27 -->
<g id="node27" class="node"><title>Node27</title>
<polygon fill="none" stroke="#bfbfbf" points="1025.14,-62.5 1025.14,-81.5 1084.14,-81.5 1084.14,-62.5 1025.14,-62.5"/>
<text text-anchor="middle" x="1054.64" y="-69.5" font-family="Helvetica,sans-Serif" font-size="10.00">stdexcept</text>
</g>
<!-- Node25&#45;&gt;Node27 -->
<g id="edge37" class="edge"><title>Node25&#45;&gt;Node27</title>
<path fill="none" stroke="midnightblue" d="M1021.22,-124.403C1027.02,-115.493 1036.23,-101.325 1043.51,-90.1177"/>
<polygon fill="midnightblue" stroke="midnightblue" points="1046.54,-91.8725 1049.06,-81.5806 1040.67,-88.0576 1046.54,-91.8725"/>
</g>
<!-- Node28 -->
<g id="node28" class="node"><title>Node28</title>
<polygon fill="none" stroke="#bfbfbf" points="1102.64,-62.5 1102.64,-81.5 1154.64,-81.5 1154.64,-62.5 1102.64,-62.5"/>
<text text-anchor="middle" x="1128.64" y="-69.5" font-family="Helvetica,sans-Serif" font-size="10.00">sstream</text>
</g>
<!-- Node25&#45;&gt;Node28 -->
<g id="edge38" class="edge"><title>Node25&#45;&gt;Node28</title>
<path fill="none" stroke="midnightblue" d="M1031.83,-124.403C1050.54,-114.468 1081.56,-97.9966 1103.44,-86.3812"/>
<polygon fill="midnightblue" stroke="midnightblue" points="1105.29,-89.3616 1112.48,-81.5806 1102,-83.179 1105.29,-89.3616"/>
</g>
<!-- Node29 -->
<g id="node29" class="node"><title>Node29</title>
<polygon fill="none" stroke="#bfbfbf" points="881.136,-62.5 881.136,-81.5 930.136,-81.5 930.136,-62.5 881.136,-62.5"/>
<text text-anchor="middle" x="905.636" y="-69.5" font-family="Helvetica,sans-Serif" font-size="10.00">string.h</text>
</g>
<!-- Node25&#45;&gt;Node29 -->
<g id="edge39" class="edge"><title>Node25&#45;&gt;Node29</title>
<path fill="none" stroke="midnightblue" d="M999.876,-124.403C981.661,-114.468 951.463,-97.9966 930.169,-86.3812"/>
<polygon fill="midnightblue" stroke="midnightblue" points="931.822,-83.2965 921.367,-81.5806 928.47,-89.4418 931.822,-83.2965"/>
</g>
<!-- Node25&#45;&gt;Node23 -->
<g id="edge40" class="edge"><title>Node25&#45;&gt;Node23</title>
<path fill="none" stroke="midnightblue" d="M984.259,-124.403C945.717,-113.844 880.231,-95.9027 837.713,-84.2538"/>
<polygon fill="midnightblue" stroke="midnightblue" points="838.525,-80.8474 827.956,-81.5806 836.675,-87.5986 838.525,-80.8474"/>
</g>
<!-- Node31 -->
<g id="node31" class="node"><title>Node31</title>
<g id="a_node31"><a xlink:href="compiler_8h_source.html" target="_top" xlink:title="compiler.h">
<polygon fill="none" stroke="black" points="562.636,-62.5 562.636,-81.5 624.636,-81.5 624.636,-62.5 562.636,-62.5"/>
<text text-anchor="middle" x="593.636" y="-69.5" font-family="Helvetica,sans-Serif" font-size="10.00">compiler.h</text>
</a>
</g>
</g>
<!-- Node30&#45;&gt;Node31 -->
<g id="edge42" class="edge"><title>Node30&#45;&gt;Node31</title>
<path fill="none" stroke="midnightblue" d="M665.601,-124.403C652.128,-114.78 630.07,-99.0242 613.921,-87.4891"/>
<polygon fill="midnightblue" stroke="midnightblue" points="615.821,-84.5449 605.649,-81.5806 611.752,-90.2411 615.821,-84.5449"/>
</g>
<!-- Node33 -->
<g id="node33" class="node"><title>Node33</title>
<g id="a_node33"><a xlink:href="dimension_8h_source.html" target="_top" xlink:title="dimension.h">
<polygon fill="none" stroke="black" points="643.136,-62.5 643.136,-81.5 712.136,-81.5 712.136,-62.5 643.136,-62.5"/>
<text text-anchor="middle" x="677.636" y="-69.5" font-family="Helvetica,sans-Serif" font-size="10.00">dimension.h</text>
</a>
</g>
</g>
<!-- Node30&#45;&gt;Node33 -->
<g id="edge44" class="edge"><title>Node30&#45;&gt;Node33</title>
<path fill="none" stroke="midnightblue" d="M677.636,-124.403C677.636,-115.938 677.636,-102.728 677.636,-91.8199"/>
<polygon fill="midnightblue" stroke="midnightblue" points="681.137,-91.5806 677.636,-81.5806 674.137,-91.5806 681.137,-91.5806"/>
</g>
<!-- Node32 -->
<g id="node32" class="node"><title>Node32</title>
<polygon fill="none" stroke="#bfbfbf" points="561.636,-0.5 561.636,-19.5 625.636,-19.5 625.636,-0.5 561.636,-0.5"/>
<text text-anchor="middle" x="593.636" y="-7.5" font-family="Helvetica,sans-Serif" font-size="10.00">psiconfig.h</text>
</g>
<!-- Node31&#45;&gt;Node32 -->
<g id="edge43" class="edge"><title>Node31&#45;&gt;Node32</title>
<path fill="none" stroke="midnightblue" d="M593.636,-62.4035C593.636,-53.9381 593.636,-40.7283 593.636,-29.8199"/>
<polygon fill="midnightblue" stroke="midnightblue" points="597.137,-29.5806 593.636,-19.5806 590.137,-29.5806 597.137,-29.5806"/>
</g>
<!-- Node33&#45;&gt;Node5 -->
<g id="edge45" class="edge"><title>Node33&#45;&gt;Node5</title>
<path fill="none" stroke="midnightblue" d="M699.257,-62.359C706.287,-59.8945 714.196,-57.4792 721.636,-56 853.223,-29.8409 1275.62,-15.4675 1393.71,-11.8923"/>
<polygon fill="midnightblue" stroke="midnightblue" points="1393.97,-15.3862 1403.86,-11.589 1393.76,-8.38929 1393.97,-15.3862"/>
</g>
<!-- Node33&#45;&gt;Node2 -->
<g id="edge46" class="edge"><title>Node33&#45;&gt;Node2</title>
<path fill="none" stroke="midnightblue" d="M655.046,-62.3564C648.244,-60.011 640.707,-57.6633 633.636,-56 523.976,-30.2032 390.398,-17.7907 330.441,-13.1956"/>
<polygon fill="midnightblue" stroke="midnightblue" points="330.691,-9.70461 320.458,-12.4512 330.17,-16.6852 330.691,-9.70461"/>
</g>
<!-- Node33&#45;&gt;Node11 -->
<g id="edge47" class="edge"><title>Node33&#45;&gt;Node11</title>
<path fill="none" stroke="midnightblue" d="M700.726,-62.3833C707.409,-60.0932 714.758,-57.7682 721.636,-56 800.734,-35.6671 895.987,-21.5306 944.632,-15.0356"/>
<polygon fill="midnightblue" stroke="midnightblue" points="945.104,-18.5037 954.563,-13.7299 944.192,-11.5635 945.104,-18.5037"/>
</g>
<!-- Node35&#45;&gt;Node5 -->
<g id="edge50" class="edge"><title>Node35&#45;&gt;Node5</title>
<path fill="none" stroke="midnightblue" d="M1631.81,-124.233C1636.84,-108.624 1644.54,-75.8001 1628.64,-56 1607.27,-29.4066 1507.15,-17.5974 1455.55,-13.2046"/>
<polygon fill="midnightblue" stroke="midnightblue" points="1455.57,-9.69504 1445.33,-12.3771 1455.01,-16.6722 1455.57,-9.69504"/>
</g>
<!-- Node36&#45;&gt;Node5 -->
<g id="edge52" class="edge"><title>Node36&#45;&gt;Node5</title>
<path fill="none" stroke="midnightblue" d="M1732.58,-180.278C1734.61,-156.43 1736.66,-89.6768 1700.64,-56 1682.88,-39.3994 1523.97,-21.23 1455.64,-14.1077"/>
<polygon fill="midnightblue" stroke="midnightblue" points="1455.79,-10.605 1445.49,-13.0614 1455.08,-17.5682 1455.79,-10.605"/>
</g>
<!-- Node37&#45;&gt;Node8 -->
<g id="edge54" class="edge"><title>Node37&#45;&gt;Node8</title>
<path fill="none" stroke="midnightblue" d="M219.515,-180.281C223.571,-161.463 233.219,-116.697 238.684,-91.3399"/>
<polygon fill="midnightblue" stroke="midnightblue" points="242.118,-92.0177 240.803,-81.5048 235.275,-90.5429 242.118,-92.0177"/>
</g>
<!-- Node38 -->
<g id="node38" class="node"><title>Node38</title>
<g id="a_node38"><a xlink:href="lib_2libdpd_2dpd_8h.html" target="_top" xlink:title="Enter brief description of file here.">
<polygon fill="none" stroke="black" points="302.136,-124.5 302.136,-143.5 371.136,-143.5 371.136,-124.5 302.136,-124.5"/>
<text text-anchor="middle" x="336.636" y="-131.5" font-family="Helvetica,sans-Serif" font-size="10.00">libdpd/dpd.h</text>
</a>
</g>
</g>
<!-- Node37&#45;&gt;Node38 -->
<g id="edge55" class="edge"><title>Node37&#45;&gt;Node38</title>
<path fill="none" stroke="midnightblue" d="M236.492,-180.444C255.902,-171.636 286.366,-157.812 308.601,-147.722"/>
<polygon fill="midnightblue" stroke="midnightblue" points="310.209,-150.836 317.869,-143.516 307.316,-144.462 310.209,-150.836"/>
</g>
<!-- Node37&#45;&gt;Node7 -->
<g id="edge61" class="edge"><title>Node37&#45;&gt;Node7</title>
<path fill="none" stroke="midnightblue" d="M193.868,-180.444C168.744,-171.399 128.925,-157.064 100.736,-146.916"/>
<polygon fill="midnightblue" stroke="midnightblue" points="101.888,-143.611 91.2932,-143.516 99.5165,-150.197 101.888,-143.611"/>
</g>
<!-- Node40 -->
<g id="node40" class="node"><title>Node40</title>
<g id="a_node40"><a xlink:href="psio_8h_source.html" target="_top" xlink:title="libpsio/psio.h">
<polygon fill="none" stroke="black" points="133.636,-124.5 133.636,-143.5 207.636,-143.5 207.636,-124.5 133.636,-124.5"/>
<text text-anchor="middle" x="170.636" y="-131.5" font-family="Helvetica,sans-Serif" font-size="10.00">libpsio/psio.h</text>
</a>
</g>
</g>
<!-- Node37&#45;&gt;Node40 -->
<g id="edge62" class="edge"><title>Node37&#45;&gt;Node40</title>
<path fill="none" stroke="midnightblue" d="M209.875,-180.083C203.1,-172.298 193.093,-160.801 184.881,-151.367"/>
<polygon fill="midnightblue" stroke="midnightblue" points="187.458,-148.996 178.253,-143.751 182.178,-153.592 187.458,-148.996"/>
</g>
<!-- Node38&#45;&gt;Node2 -->
<g id="edge56" class="edge"><title>Node38&#45;&gt;Node2</title>
<path fill="none" stroke="midnightblue" d="M333.904,-124.226C327.741,-104.442 312.655,-56.0071 304.35,-29.3436"/>
<polygon fill="midnightblue" stroke="midnightblue" points="307.66,-28.2012 301.345,-19.6944 300.977,-30.2829 307.66,-28.2012"/>
</g>
<!-- Node38&#45;&gt;Node8 -->
<g id="edge57" class="edge"><title>Node38&#45;&gt;Node8</title>
<path fill="none" stroke="midnightblue" d="M323.169,-124.403C307.952,-114.691 282.95,-98.7319 264.836,-87.1697"/>
<polygon fill="midnightblue" stroke="midnightblue" points="266.392,-84.0108 256.079,-81.5806 262.625,-89.9112 266.392,-84.0108"/>
</g>
<!-- Node39 -->
<g id="node39" class="node"><title>Node39</title>
<g id="a_node39"><a xlink:href="libpsio_2config_8h_source.html" target="_top" xlink:title="libpsio/config.h">
<polygon fill="none" stroke="black" points="114.636,-62.5 114.636,-81.5 196.636,-81.5 196.636,-62.5 114.636,-62.5"/>
<text text-anchor="middle" x="155.636" y="-69.5" font-family="Helvetica,sans-Serif" font-size="10.00">libpsio/config.h</text>
</a>
</g>
</g>
<!-- Node38&#45;&gt;Node39 -->
<g id="edge58" class="edge"><title>Node38&#45;&gt;Node39</title>
<path fill="none" stroke="midnightblue" d="M310.704,-124.403C279.387,-114.022 226.547,-96.5062 191.381,-84.849"/>
<polygon fill="midnightblue" stroke="midnightblue" points="192.115,-81.405 181.521,-81.5806 189.912,-88.0494 192.115,-81.405"/>
</g>
<!-- Node38&#45;&gt;Node22 -->
<g id="edge59" class="edge"><title>Node38&#45;&gt;Node22</title>
<path fill="none" stroke="midnightblue" d="M348.385,-124.403C361.538,-114.78 383.07,-99.0242 398.835,-87.4891"/>
<polygon fill="midnightblue" stroke="midnightblue" points="400.906,-90.3103 406.91,-81.5806 396.772,-84.6611 400.906,-90.3103"/>
</g>
<!-- Node38&#45;&gt;Node11 -->
<g id="edge60" class="edge"><title>Node38&#45;&gt;Node11</title>
<path fill="none" stroke="midnightblue" d="M335.816,-124.164C334.844,-107.834 335.427,-73.0431 355.636,-56 378.344,-36.8498 820.019,-17.4044 944.33,-12.2934"/>
<polygon fill="midnightblue" stroke="midnightblue" points="944.524,-15.7885 954.373,-11.8834 944.238,-8.79437 944.524,-15.7885"/>
</g>
<!-- Node40&#45;&gt;Node2 -->
<g id="edge63" class="edge"><title>Node40&#45;&gt;Node2</title>
<path fill="none" stroke="midnightblue" d="M148.828,-124.447C133.691,-117.221 114.682,-105.264 105.636,-88 99.0358,-75.4022 96.795,-67.1401 105.636,-56 125.414,-31.0811 217.333,-18.6815 266.844,-13.7173"/>
<polygon fill="midnightblue" stroke="midnightblue" points="267.393,-17.1809 277.013,-12.7427 266.725,-10.2128 267.393,-17.1809"/>
</g>
<!-- Node40&#45;&gt;Node39 -->
<g id="edge64" class="edge"><title>Node40&#45;&gt;Node39</title>
<path fill="none" stroke="midnightblue" d="M168.487,-124.403C166.349,-115.849 162.999,-102.45 160.255,-91.4762"/>
<polygon fill="midnightblue" stroke="midnightblue" points="163.602,-90.4331 157.782,-81.5806 156.811,-92.1309 163.602,-90.4331"/>
</g>
</g>
</svg>
