<?xml version="1.0" encoding="UTF-8" standalone="no"?>
<!DOCTYPE svg PUBLIC "-//W3C//DTD SVG 1.1//EN"
 "http://www.w3.org/Graphics/SVG/1.1/DTD/svg11.dtd">
<!-- Generated by graphviz version 2.30.1 (20140110.0959)
 -->
<!-- Title: get_params.cc Pages: 1 -->
<!--zoomable 264 -->
<svg id="main" version="1.1" xmlns="http://www.w3.org/2000/svg" xmlns:xlink="http://www.w3.org/1999/xlink" xml:space="preserve" onload="init(evt)">
        <defs>
                <circle id="rim" cx="0" cy="0" r="7"/>
                <circle id="rim2" cx="0" cy="0" r="3.5"/>
                <g id="zoomPlus">
                        <use xlink:href="#rim" fill="#404040">
                                <set attributeName="fill" to="#808080" begin="zoomplus.mouseover" end="zoomplus.mouseout"/>
                        </use>
                        <path d="M-4,0h8M0,-4v8" fill="none" stroke="white" stroke-width="1.5" pointer-events="none"/>
                </g>
                <g id="zoomMin">
                        <use xlink:href="#rim" fill="#404040">
                                <set attributeName="fill" to="#808080" begin="zoomminus.mouseover" end="zoomminus.mouseout"/>
                        </use>
                        <path d="M-4,0h8" fill="none" stroke="white" stroke-width="1.5" pointer-events="none"/>
                </g>
                <g id="dirArrow">
                        <path fill="none" stroke="white" stroke-width="1.5" d="M0,-3.0v7 M-2.5,-0.5L0,-3.0L2.5,-0.5"/>
                </g>
               <g id="resetDef">
                       <use xlink:href="#rim2" fill="#404040">
                               <set attributeName="fill" to="#808080" begin="reset.mouseover" end="reset.mouseout"/>
                       </use>
               </g>
        </defs>

<script type="text/javascript">
var viewWidth = 1698;
var viewHeight = 264;
var sectionId = 'dynsection-0';
</script>
<script xlink:href="svgpan.js"/>
<svg id="graph" class="graph">
<g id="viewport">
<title>get_params.cc</title>
<!-- Node1 -->
<g id="node1" class="node"><title>Node1</title>
<polygon fill="#bfbfbf" stroke="black" points="692.5,-236.5 692.5,-255.5 773.5,-255.5 773.5,-236.5 692.5,-236.5"/>
<text text-anchor="middle" x="733" y="-243.5" font-family="Helvetica,sans-Serif" font-size="10.00">get_params.cc</text>
</g>
<!-- Node2 -->
<g id="node2" class="node"><title>Node2</title>
<polygon fill="none" stroke="#bfbfbf" points="1318.5,-0.5 1318.5,-19.5 1361.5,-19.5 1361.5,-0.5 1318.5,-0.5"/>
<text text-anchor="middle" x="1340" y="-7.5" font-family="Helvetica,sans-Serif" font-size="10.00">cstdio</text>
</g>
<!-- Node1&#45;&gt;Node2 -->
<g id="edge1" class="edge"><title>Node1&#45;&gt;Node2</title>
<path fill="none" stroke="midnightblue" d="M773.559,-243.102C858.787,-237.721 1060.98,-217.569 1211,-144 1265.47,-117.29 1309.69,-57.7548 1329.21,-28.2531"/>
<polygon fill="midnightblue" stroke="midnightblue" points="1332.17,-30.1097 1334.66,-19.8096 1326.29,-26.314 1332.17,-30.1097"/>
</g>
<!-- Node3 -->
<g id="node3" class="node"><title>Node3</title>
<polygon fill="none" stroke="#bfbfbf" points="-0.5,-0.5 -0.5,-19.5 44.5,-19.5 44.5,-0.5 -0.5,-0.5"/>
<text text-anchor="middle" x="22" y="-7.5" font-family="Helvetica,sans-Serif" font-size="10.00">cstdlib</text>
</g>
<!-- Node1&#45;&gt;Node3 -->
<g id="edge2" class="edge"><title>Node1&#45;&gt;Node3</title>
<path fill="none" stroke="midnightblue" d="M692.178,-244.724C557.532,-243.468 133.307,-236.613 85,-200 30.7922,-158.915 22.6909,-69.4204 21.8478,-30.1366"/>
<polygon fill="midnightblue" stroke="midnightblue" points="25.3446,-29.6421 21.7762,-19.6663 18.3448,-29.69 25.3446,-29.6421"/>
</g>
<!-- Node4 -->
<g id="node4" class="node"><title>Node4</title>
<polygon fill="none" stroke="#bfbfbf" points="421.5,-0.5 421.5,-19.5 462.5,-19.5 462.5,-0.5 421.5,-0.5"/>
<text text-anchor="middle" x="442" y="-7.5" font-family="Helvetica,sans-Serif" font-size="10.00">string</text>
</g>
<!-- Node1&#45;&gt;Node4 -->
<g id="edge3" class="edge"><title>Node1&#45;&gt;Node4</title>
<path fill="none" stroke="midnightblue" d="M692.306,-239.617C577.794,-223.515 257.449,-171.6 201,-88 193.041,-76.2132 191.913,-66.9407 201,-56 227.369,-24.2511 352.088,-14.7803 411.017,-12.0542"/>
<polygon fill="midnightblue" stroke="midnightblue" points="411.375,-15.5422 421.216,-11.6198 411.077,-8.54856 411.375,-15.5422"/>
</g>
<!-- Node5 -->
<g id="node5" class="node"><title>Node5</title>
<polygon fill="none" stroke="#bfbfbf" points="632,-180.5 632,-199.5 676,-199.5 676,-180.5 632,-180.5"/>
<text text-anchor="middle" x="654" y="-187.5" font-family="Helvetica,sans-Serif" font-size="10.00">cmath</text>
</g>
<!-- Node1&#45;&gt;Node5 -->
<g id="edge4" class="edge"><title>Node1&#45;&gt;Node5</title>
<path fill="none" stroke="midnightblue" d="M720.307,-236.324C708.099,-227.979 689.422,-215.212 674.997,-205.352"/>
<polygon fill="midnightblue" stroke="midnightblue" points="676.892,-202.408 666.661,-199.655 672.942,-208.187 676.892,-202.408"/>
</g>
<!-- Node6 -->
<g id="node6" class="node"><title>Node6</title>
<g id="a_node6"><a xlink:href="liboptions_8h_source.html" target="_top" xlink:title="liboptions/liboptions.h">
<polygon fill="none" stroke="black" points="349,-124.5 349,-143.5 459,-143.5 459,-124.5 349,-124.5"/>
<text text-anchor="middle" x="404" y="-131.5" font-family="Helvetica,sans-Serif" font-size="10.00">liboptions/liboptions.h</text>
</a>
</g>
</g>
<!-- Node1&#45;&gt;Node6 -->
<g id="edge5" class="edge"><title>Node1&#45;&gt;Node6</title>
<path fill="none" stroke="midnightblue" d="M729.195,-236.121C722.528,-221.732 707.289,-193.566 685,-180 675.818,-174.411 549.224,-155.62 469.12,-144.163"/>
<polygon fill="midnightblue" stroke="midnightblue" points="469.504,-140.682 459.11,-142.734 468.515,-147.612 469.504,-140.682"/>
</g>
<!-- Node16 -->
<g id="node16" class="node"><title>Node16</title>
<g id="a_node16"><a xlink:href="libciomr_8h_source.html" target="_top" xlink:title="libciomr/libciomr.h">
<polygon fill="none" stroke="black" points="1362.5,-62.5 1362.5,-81.5 1457.5,-81.5 1457.5,-62.5 1362.5,-62.5"/>
<text text-anchor="middle" x="1410" y="-69.5" font-family="Helvetica,sans-Serif" font-size="10.00">libciomr/libciomr.h</text>
</a>
</g>
</g>
<!-- Node1&#45;&gt;Node16 -->
<g id="edge20" class="edge"><title>Node1&#45;&gt;Node16</title>
<path fill="none" stroke="midnightblue" d="M773.717,-245.101C910.063,-245.051 1344.58,-241.601 1390,-200 1419.95,-172.574 1417.43,-119.987 1413.47,-91.8536"/>
<polygon fill="midnightblue" stroke="midnightblue" points="1416.88,-91.0581 1411.83,-81.7476 1409.97,-92.179 1416.88,-91.0581"/>
</g>
<!-- Node17 -->
<g id="node17" class="node"><title>Node17</title>
<g id="a_node17"><a xlink:href="psi4-dec_8h_source.html" target="_top" xlink:title="psi4&#45;dec.h">
<polygon fill="none" stroke="black" points="732,-180.5 732,-199.5 794,-199.5 794,-180.5 732,-180.5"/>
<text text-anchor="middle" x="763" y="-187.5" font-family="Helvetica,sans-Serif" font-size="10.00">psi4&#45;dec.h</text>
</a>
</g>
</g>
<!-- Node1&#45;&gt;Node17 -->
<g id="edge22" class="edge"><title>Node1&#45;&gt;Node17</title>
<path fill="none" stroke="midnightblue" d="M737.954,-236.083C742.104,-228.613 748.153,-217.724 753.267,-208.52"/>
<polygon fill="midnightblue" stroke="midnightblue" points="756.341,-210.192 758.138,-199.751 750.222,-206.793 756.341,-210.192"/>
</g>
<!-- Node30 -->
<g id="node30" class="node"><title>Node30</title>
<g id="a_node30"><a xlink:href="cchbar_2MOInfo_8h.html" target="_top" xlink:title="Enter brief description of file here.">
<polygon fill="none" stroke="black" points="1324.5,-180.5 1324.5,-199.5 1381.5,-199.5 1381.5,-180.5 1324.5,-180.5"/>
<text text-anchor="middle" x="1353" y="-187.5" font-family="Helvetica,sans-Serif" font-size="10.00">MOInfo.h</text>
</a>
</g>
</g>
<!-- Node1&#45;&gt;Node30 -->
<g id="edge42" class="edge"><title>Node1&#45;&gt;Node30</title>
<path fill="none" stroke="midnightblue" d="M773.771,-243.621C868.391,-240.029 1110.07,-228.598 1310,-200 1311.46,-199.791 1312.95,-199.562 1314.45,-199.317"/>
<polygon fill="midnightblue" stroke="midnightblue" points="1315.19,-202.74 1324.41,-197.518 1313.95,-195.851 1315.19,-202.74"/>
</g>
<!-- Node31 -->
<g id="node31" class="node"><title>Node31</title>
<g id="a_node31"><a xlink:href="cchbar_2Params_8h.html" target="_top" xlink:title="Enter brief description of file here.">
<polygon fill="none" stroke="black" points="94.5,-180.5 94.5,-199.5 153.5,-199.5 153.5,-180.5 94.5,-180.5"/>
<text text-anchor="middle" x="124" y="-187.5" font-family="Helvetica,sans-Serif" font-size="10.00">Params.h</text>
</a>
</g>
</g>
<!-- Node1&#45;&gt;Node31 -->
<g id="edge43" class="edge"><title>Node1&#45;&gt;Node31</title>
<path fill="none" stroke="midnightblue" d="M692.392,-243.471C599.276,-239.593 363.346,-227.652 168,-200 166.552,-199.795 165.081,-199.572 163.597,-199.334"/>
<polygon fill="midnightblue" stroke="midnightblue" points="164.192,-195.885 153.736,-197.596 162.977,-202.779 164.192,-195.885"/>
</g>
<!-- Node32 -->
<g id="node32" class="node"><title>Node32</title>
<g id="a_node32"><a xlink:href="cchbar_2globals_8h.html" target="_top" xlink:title="Enter brief description of file here.">
<polygon fill="none" stroke="black" points="1485,-124.5 1485,-143.5 1541,-143.5 1541,-124.5 1485,-124.5"/>
<text text-anchor="middle" x="1513" y="-131.5" font-family="Helvetica,sans-Serif" font-size="10.00">globals.h</text>
</a>
</g>
</g>
<!-- Node1&#45;&gt;Node32 -->
<g id="edge45" class="edge"><title>Node1&#45;&gt;Node32</title>
<path fill="none" stroke="midnightblue" d="M773.836,-245.309C903.331,-245.827 1303.35,-243.754 1424,-200 1453.06,-189.461 1480.89,-166.335 1497.47,-150.708"/>
<polygon fill="midnightblue" stroke="midnightblue" points="1499.92,-153.204 1504.66,-143.726 1495.04,-148.182 1499.92,-153.204"/>
</g>
<!-- Node6&#45;&gt;Node4 -->
<g id="edge6" class="edge"><title>Node6&#45;&gt;Node4</title>
<path fill="none" stroke="midnightblue" d="M406.733,-124.226C412.895,-104.442 427.981,-56.0071 436.286,-29.3436"/>
<polygon fill="midnightblue" stroke="midnightblue" points="439.66,-30.2829 439.292,-19.6944 432.976,-28.2012 439.66,-30.2829"/>
</g>
<!-- Node7 -->
<g id="node7" class="node"><title>Node7</title>
<polygon fill="none" stroke="#bfbfbf" points="855,-0.5 855,-19.5 899,-19.5 899,-0.5 855,-0.5"/>
<text text-anchor="middle" x="877" y="-7.5" font-family="Helvetica,sans-Serif" font-size="10.00">vector</text>
</g>
<!-- Node6&#45;&gt;Node7 -->
<g id="edge7" class="edge"><title>Node6&#45;&gt;Node7</title>
<path fill="none" stroke="midnightblue" d="M459.376,-124.551C493.713,-117.834 537.988,-106.427 574,-88 593.96,-77.7868 592.601,-65.3056 613,-56 690.799,-20.51 793.073,-12.7878 844.5,-11.2528"/>
<polygon fill="midnightblue" stroke="midnightblue" points="844.761,-14.7477 854.675,-11.0114 844.594,-7.74966 844.761,-14.7477"/>
</g>
<!-- Node8 -->
<g id="node8" class="node"><title>Node8</title>
<polygon fill="none" stroke="#bfbfbf" points="622.5,-62.5 622.5,-81.5 657.5,-81.5 657.5,-62.5 622.5,-62.5"/>
<text text-anchor="middle" x="640" y="-69.5" font-family="Helvetica,sans-Serif" font-size="10.00">map</text>
</g>
<!-- Node6&#45;&gt;Node8 -->
<g id="edge8" class="edge"><title>Node6&#45;&gt;Node8</title>
<path fill="none" stroke="midnightblue" d="M458.149,-124.427C499.782,-117.032 558.382,-104.869 608,-88 609.917,-87.3483 611.871,-86.6153 613.822,-85.8329"/>
<polygon fill="midnightblue" stroke="midnightblue" points="615.596,-88.8768 623.349,-81.6557 612.785,-82.4659 615.596,-88.8768"/>
</g>
<!-- Node9 -->
<g id="node9" class="node"><title>Node9</title>
<polygon fill="none" stroke="#bfbfbf" points="210.5,-62.5 210.5,-81.5 277.5,-81.5 277.5,-62.5 210.5,-62.5"/>
<text text-anchor="middle" x="244" y="-69.5" font-family="Helvetica,sans-Serif" font-size="10.00">exception.h</text>
</g>
<!-- Node6&#45;&gt;Node9 -->
<g id="edge9" class="edge"><title>Node6&#45;&gt;Node9</title>
<path fill="none" stroke="midnightblue" d="M381.076,-124.403C353.63,-114.111 307.484,-96.8064 276.401,-85.1504"/>
<polygon fill="midnightblue" stroke="midnightblue" points="277.474,-81.8147 266.882,-81.5806 275.016,-88.369 277.474,-81.8147"/>
</g>
<!-- Node10 -->
<g id="node10" class="node"><title>Node10</title>
<g id="a_node10"><a xlink:href="libutil_8h_source.html" target="_top" xlink:title="libutil/libutil.h">
<polygon fill="none" stroke="black" points="492.5,-62.5 492.5,-81.5 565.5,-81.5 565.5,-62.5 492.5,-62.5"/>
<text text-anchor="middle" x="529" y="-69.5" font-family="Helvetica,sans-Serif" font-size="10.00">libutil/libutil.h</text>
</a>
</g>
</g>
<!-- Node6&#45;&gt;Node10 -->
<g id="edge10" class="edge"><title>Node6&#45;&gt;Node10</title>
<path fill="none" stroke="midnightblue" d="M421.909,-124.403C442.887,-114.334 477.85,-97.5522 502.093,-85.9151"/>
<polygon fill="midnightblue" stroke="midnightblue" points="503.623,-89.0633 511.124,-81.5806 500.594,-82.7526 503.623,-89.0633"/>
</g>
<!-- Node12 -->
<g id="node12" class="node"><title>Node12</title>
<g id="a_node12"><a xlink:href="libutil_2ref_8h_source.html" target="_top" xlink:title="libutil/ref.h">
<polygon fill="none" stroke="black" points="54,-62.5 54,-81.5 116,-81.5 116,-62.5 54,-62.5"/>
<text text-anchor="middle" x="85" y="-69.5" font-family="Helvetica,sans-Serif" font-size="10.00">libutil/ref.h</text>
</a>
</g>
</g>
<!-- Node6&#45;&gt;Node12 -->
<g id="edge14" class="edge"><title>Node6&#45;&gt;Node12</title>
<path fill="none" stroke="midnightblue" d="M358.634,-124.467C296.519,-112.784 185.907,-91.9793 126.105,-80.7314"/>
<polygon fill="midnightblue" stroke="midnightblue" points="126.73,-77.2877 116.256,-78.8788 125.436,-84.167 126.73,-77.2877"/>
</g>
<!-- Node15 -->
<g id="node15" class="node"><title>Node15</title>
<polygon fill="none" stroke="#bfbfbf" points="296,-57 296,-87 398,-87 398,-57 296,-57"/>
<text text-anchor="start" x="304" y="-75" font-family="Helvetica,sans-Serif" font-size="10.00">boost/python/object</text>
<text text-anchor="middle" x="347" y="-64" font-family="Helvetica,sans-Serif" font-size="10.00">_fwd.hpp</text>
</g>
<!-- Node6&#45;&gt;Node15 -->
<g id="edge19" class="edge"><title>Node6&#45;&gt;Node15</title>
<path fill="none" stroke="midnightblue" d="M395.833,-124.403C388.474,-116.657 377.341,-104.938 367.562,-94.6447"/>
<polygon fill="midnightblue" stroke="midnightblue" points="369.859,-91.9802 360.434,-87.1408 364.784,-96.8015 369.859,-91.9802"/>
</g>
<!-- Node10&#45;&gt;Node4 -->
<g id="edge11" class="edge"><title>Node10&#45;&gt;Node4</title>
<path fill="none" stroke="midnightblue" d="M516.535,-62.4035C502.581,-52.7797 479.735,-37.0242 463.009,-25.4891"/>
<polygon fill="midnightblue" stroke="midnightblue" points="464.661,-22.3767 454.442,-19.5806 460.687,-28.1392 464.661,-22.3767"/>
</g>
<!-- Node10&#45;&gt;Node7 -->
<g id="edge12" class="edge"><title>Node10&#45;&gt;Node7</title>
<path fill="none" stroke="midnightblue" d="M555.556,-62.4485C563.373,-60.133 571.981,-57.7782 580,-56 675.226,-34.8845 789.837,-20.6032 844.68,-14.4408"/>
<polygon fill="midnightblue" stroke="midnightblue" points="845.274,-17.8965 854.828,-13.317 844.504,-10.939 845.274,-17.8965"/>
</g>
<!-- Node11 -->
<g id="node11" class="node"><title>Node11</title>
<polygon fill="none" stroke="#bfbfbf" points="498,-0.5 498,-19.5 560,-19.5 560,-0.5 498,-0.5"/>
<text text-anchor="middle" x="529" y="-7.5" font-family="Helvetica,sans-Serif" font-size="10.00">sys/time.h</text>
</g>
<!-- Node10&#45;&gt;Node11 -->
<g id="edge13" class="edge"><title>Node10&#45;&gt;Node11</title>
<path fill="none" stroke="midnightblue" d="M529,-62.4035C529,-53.9381 529,-40.7283 529,-29.8199"/>
<polygon fill="midnightblue" stroke="midnightblue" points="532.5,-29.5806 529,-19.5806 525.5,-29.5806 532.5,-29.5806"/>
</g>
<!-- Node13 -->
<g id="node13" class="node"><title>Node13</title>
<polygon fill="none" stroke="#bfbfbf" points="62.5,-0.5 62.5,-19.5 111.5,-19.5 111.5,-0.5 62.5,-0.5"/>
<text text-anchor="middle" x="87" y="-7.5" font-family="Helvetica,sans-Serif" font-size="10.00">cstddef</text>
</g>
<!-- Node12&#45;&gt;Node13 -->
<g id="edge15" class="edge"><title>Node12&#45;&gt;Node13</title>
<path fill="none" stroke="midnightblue" d="M85.2866,-62.4035C85.5687,-53.9381 86.0091,-40.7283 86.3727,-29.8199"/>
<polygon fill="midnightblue" stroke="midnightblue" points="89.8788,-29.6917 86.714,-19.5806 82.8827,-29.4584 89.8788,-29.6917"/>
</g>
<!-- Node12&#45;&gt;Node2 -->
<g id="edge16" class="edge"><title>Node12&#45;&gt;Node2</title>
<path fill="none" stroke="midnightblue" d="M116.424,-66.1136C139.712,-62.6932 172.259,-58.3333 201,-56 678.364,-17.2462 800.952,-62.4659 1278,-20 1287.87,-19.1218 1298.56,-17.7296 1308.24,-16.3001"/>
<polygon fill="midnightblue" stroke="midnightblue" points="1308.91,-19.738 1318.26,-14.757 1307.85,-12.8195 1308.91,-19.738"/>
</g>
<!-- Node12&#45;&gt;Node3 -->
<g id="edge17" class="edge"><title>Node12&#45;&gt;Node3</title>
<path fill="none" stroke="midnightblue" d="M75.9736,-62.4035C66.2429,-53.1361 50.542,-38.1828 38.577,-26.7876"/>
<polygon fill="midnightblue" stroke="midnightblue" points="40.6648,-23.9427 31.0096,-19.5806 35.8372,-29.0117 40.6648,-23.9427"/>
</g>
<!-- Node14 -->
<g id="node14" class="node"><title>Node14</title>
<polygon fill="none" stroke="#bfbfbf" points="130,-0.5 130,-19.5 182,-19.5 182,-0.5 130,-0.5"/>
<text text-anchor="middle" x="156" y="-7.5" font-family="Helvetica,sans-Serif" font-size="10.00">assert.h</text>
</g>
<!-- Node12&#45;&gt;Node14 -->
<g id="edge18" class="edge"><title>Node12&#45;&gt;Node14</title>
<path fill="none" stroke="midnightblue" d="M95.1726,-62.4035C106.35,-52.9579 124.517,-37.6056 138.091,-26.1342"/>
<polygon fill="midnightblue" stroke="midnightblue" points="140.467,-28.7085 145.846,-19.5806 135.949,-23.3619 140.467,-28.7085"/>
</g>
<!-- Node16&#45;&gt;Node2 -->
<g id="edge21" class="edge"><title>Node16&#45;&gt;Node2</title>
<path fill="none" stroke="midnightblue" d="M1399.97,-62.4035C1388.95,-52.9579 1371.04,-37.6056 1357.66,-26.1342"/>
<polygon fill="midnightblue" stroke="midnightblue" points="1359.88,-23.4311 1350.01,-19.5806 1355.33,-28.7459 1359.88,-23.4311"/>
</g>
<!-- Node18 -->
<g id="node18" class="node"><title>Node18</title>
<polygon fill="none" stroke="#bfbfbf" points="1396,-0.5 1396,-19.5 1504,-19.5 1504,-0.5 1396,-0.5"/>
<text text-anchor="middle" x="1450" y="-7.5" font-family="Helvetica,sans-Serif" font-size="10.00">boost/shared_ptr.hpp</text>
</g>
<!-- Node17&#45;&gt;Node18 -->
<g id="edge23" class="edge"><title>Node17&#45;&gt;Node18</title>
<path fill="none" stroke="midnightblue" d="M794.295,-187.68C882.788,-183.66 1133.43,-170.214 1211,-144 1281.7,-120.109 1288.33,-91.4493 1354,-56 1375.89,-44.1816 1401.43,-32.2985 1420.66,-23.7136"/>
<polygon fill="midnightblue" stroke="midnightblue" points="1422.09,-26.9083 1429.82,-19.661 1419.26,-20.507 1422.09,-26.9083"/>
</g>
<!-- Node19 -->
<g id="node19" class="node"><title>Node19</title>
<polygon fill="none" stroke="#bfbfbf" points="676,-62.5 676,-81.5 808,-81.5 808,-62.5 676,-62.5"/>
<text text-anchor="middle" x="742" y="-69.5" font-family="Helvetica,sans-Serif" font-size="10.00">boost/current_function.hpp</text>
</g>
<!-- Node17&#45;&gt;Node19 -->
<g id="edge24" class="edge"><title>Node17&#45;&gt;Node19</title>
<path fill="none" stroke="midnightblue" d="M761.422,-180.281C758.03,-161.547 749.983,-117.098 745.382,-91.6822"/>
<polygon fill="midnightblue" stroke="midnightblue" points="748.765,-90.7213 743.54,-81.5048 741.877,-91.9683 748.765,-90.7213"/>
</g>
<!-- Node17&#45;&gt;Node4 -->
<g id="edge25" class="edge"><title>Node17&#45;&gt;Node4</title>
<path fill="none" stroke="midnightblue" d="M731.861,-180.822C667.281,-163.385 521.572,-121.412 483,-88 464.894,-72.3154 453.51,-46.6178 447.454,-29.2681"/>
<polygon fill="midnightblue" stroke="midnightblue" points="450.769,-28.1441 444.359,-19.7083 444.109,-30.3002 450.769,-28.1441"/>
</g>
<!-- Node20 -->
<g id="node20" class="node"><title>Node20</title>
<polygon fill="none" stroke="#bfbfbf" points="770.5,-124.5 770.5,-143.5 799.5,-143.5 799.5,-124.5 770.5,-124.5"/>
<text text-anchor="middle" x="785" y="-131.5" font-family="Helvetica,sans-Serif" font-size="10.00">list</text>
</g>
<!-- Node17&#45;&gt;Node20 -->
<g id="edge26" class="edge"><title>Node17&#45;&gt;Node20</title>
<path fill="none" stroke="midnightblue" d="M766.633,-180.083C769.612,-172.77 773.926,-162.181 777.625,-153.103"/>
<polygon fill="midnightblue" stroke="midnightblue" points="780.903,-154.333 781.435,-143.751 774.42,-151.691 780.903,-154.333"/>
</g>
<!-- Node17&#45;&gt;Node8 -->
<g id="edge27" class="edge"><title>Node17&#45;&gt;Node8</title>
<path fill="none" stroke="midnightblue" d="M753.755,-180.281C732.996,-160.704 682.458,-113.041 656.295,-88.3676"/>
<polygon fill="midnightblue" stroke="midnightblue" points="658.694,-85.8196 649.018,-81.5048 653.892,-90.9121 658.694,-85.8196"/>
</g>
<!-- Node17&#45;&gt;Node6 -->
<g id="edge28" class="edge"><title>Node17&#45;&gt;Node6</title>
<path fill="none" stroke="midnightblue" d="M731.57,-182.485C727.024,-181.609 722.397,-180.754 718,-180 671.573,-172.037 546.98,-154.622 469.42,-143.943"/>
<polygon fill="midnightblue" stroke="midnightblue" points="469.652,-140.442 459.269,-142.547 468.698,-147.377 469.652,-140.442"/>
</g>
<!-- Node21 -->
<g id="node21" class="node"><title>Node21</title>
<g id="a_node21"><a xlink:href="include_2exception_8h_source.html" target="_top" xlink:title="exception.h">
<polygon fill="none" stroke="black" points="853.5,-124.5 853.5,-143.5 920.5,-143.5 920.5,-124.5 853.5,-124.5"/>
<text text-anchor="middle" x="887" y="-131.5" font-family="Helvetica,sans-Serif" font-size="10.00">exception.h</text>
</a>
</g>
</g>
<!-- Node17&#45;&gt;Node21 -->
<g id="edge29" class="edge"><title>Node17&#45;&gt;Node21</title>
<path fill="none" stroke="midnightblue" d="M782.648,-180.444C802.965,-171.596 834.903,-157.687 858.098,-147.586"/>
<polygon fill="midnightblue" stroke="midnightblue" points="859.673,-150.718 867.444,-143.516 856.878,-144.3 859.673,-150.718"/>
</g>
<!-- Node26 -->
<g id="node26" class="node"><title>Node26</title>
<g id="a_node26"><a xlink:href="typedefs_8h_source.html" target="_top" xlink:title="libmints/typedefs.h">
<polygon fill="none" stroke="black" points="1103.5,-124.5 1103.5,-143.5 1202.5,-143.5 1202.5,-124.5 1103.5,-124.5"/>
<text text-anchor="middle" x="1153" y="-131.5" font-family="Helvetica,sans-Serif" font-size="10.00">libmints/typedefs.h</text>
</a>
</g>
</g>
<!-- Node17&#45;&gt;Node26 -->
<g id="edge35" class="edge"><title>Node17&#45;&gt;Node26</title>
<path fill="none" stroke="midnightblue" d="M794.256,-184.672C859.13,-175.69 1009.34,-154.892 1093.36,-143.258"/>
<polygon fill="midnightblue" stroke="midnightblue" points="1093.84,-146.724 1103.27,-141.886 1092.88,-139.79 1093.84,-146.724"/>
</g>
<!-- Node22 -->
<g id="node22" class="node"><title>Node22</title>
<polygon fill="none" stroke="#bfbfbf" points="893.5,-62.5 893.5,-81.5 952.5,-81.5 952.5,-62.5 893.5,-62.5"/>
<text text-anchor="middle" x="923" y="-69.5" font-family="Helvetica,sans-Serif" font-size="10.00">exception</text>
</g>
<!-- Node21&#45;&gt;Node22 -->
<g id="edge30" class="edge"><title>Node21&#45;&gt;Node22</title>
<path fill="none" stroke="midnightblue" d="M892.158,-124.403C897.451,-115.582 905.835,-101.608 912.527,-90.4548"/>
<polygon fill="midnightblue" stroke="midnightblue" points="915.708,-91.9563 917.852,-81.5806 909.705,-88.3548 915.708,-91.9563"/>
</g>
<!-- Node23 -->
<g id="node23" class="node"><title>Node23</title>
<polygon fill="none" stroke="#bfbfbf" points="970.5,-62.5 970.5,-81.5 1029.5,-81.5 1029.5,-62.5 970.5,-62.5"/>
<text text-anchor="middle" x="1000" y="-69.5" font-family="Helvetica,sans-Serif" font-size="10.00">stdexcept</text>
</g>
<!-- Node21&#45;&gt;Node23 -->
<g id="edge31" class="edge"><title>Node21&#45;&gt;Node23</title>
<path fill="none" stroke="midnightblue" d="M903.19,-124.403C921.902,-114.468 952.923,-97.9966 974.799,-86.3812"/>
<polygon fill="midnightblue" stroke="midnightblue" points="976.649,-89.3616 983.84,-81.5806 973.366,-83.179 976.649,-89.3616"/>
</g>
<!-- Node24 -->
<g id="node24" class="node"><title>Node24</title>
<polygon fill="none" stroke="#bfbfbf" points="1048,-62.5 1048,-81.5 1100,-81.5 1100,-62.5 1048,-62.5"/>
<text text-anchor="middle" x="1074" y="-69.5" font-family="Helvetica,sans-Serif" font-size="10.00">sstream</text>
</g>
<!-- Node21&#45;&gt;Node24 -->
<g id="edge32" class="edge"><title>Node21&#45;&gt;Node24</title>
<path fill="none" stroke="midnightblue" d="M919.13,-124.482C949.916,-116.072 997.544,-102.412 1038,-88 1040.26,-87.1948 1042.58,-86.3251 1044.91,-85.4242"/>
<polygon fill="midnightblue" stroke="midnightblue" points="1046.37,-88.6105 1054.34,-81.6302 1043.76,-82.1166 1046.37,-88.6105"/>
</g>
<!-- Node25 -->
<g id="node25" class="node"><title>Node25</title>
<polygon fill="none" stroke="#bfbfbf" points="826.5,-62.5 826.5,-81.5 875.5,-81.5 875.5,-62.5 826.5,-62.5"/>
<text text-anchor="middle" x="851" y="-69.5" font-family="Helvetica,sans-Serif" font-size="10.00">string.h</text>
</g>
<!-- Node21&#45;&gt;Node25 -->
<g id="edge33" class="edge"><title>Node21&#45;&gt;Node25</title>
<path fill="none" stroke="midnightblue" d="M881.842,-124.403C876.549,-115.582 868.165,-101.608 861.473,-90.4548"/>
<polygon fill="midnightblue" stroke="midnightblue" points="864.295,-88.3548 856.148,-81.5806 858.292,-91.9563 864.295,-88.3548"/>
</g>
<!-- Node21&#45;&gt;Node19 -->
<g id="edge34" class="edge"><title>Node21&#45;&gt;Node19</title>
<path fill="none" stroke="midnightblue" d="M866.225,-124.403C841.568,-114.2 800.255,-97.1055 772.098,-85.4544"/>
<polygon fill="midnightblue" stroke="midnightblue" points="773.315,-82.1701 762.736,-81.5806 770.638,-88.6382 773.315,-82.1701"/>
</g>
<!-- Node27 -->
<g id="node27" class="node"><title>Node27</title>
<g id="a_node27"><a xlink:href="compiler_8h_source.html" target="_top" xlink:title="compiler.h">
<polygon fill="none" stroke="black" points="1206,-62.5 1206,-81.5 1268,-81.5 1268,-62.5 1206,-62.5"/>
<text text-anchor="middle" x="1237" y="-69.5" font-family="Helvetica,sans-Serif" font-size="10.00">compiler.h</text>
</a>
</g>
</g>
<!-- Node26&#45;&gt;Node27 -->
<g id="edge36" class="edge"><title>Node26&#45;&gt;Node27</title>
<path fill="none" stroke="midnightblue" d="M1165.04,-124.403C1178.51,-114.78 1200.57,-99.0242 1216.72,-87.4891"/>
<polygon fill="midnightblue" stroke="midnightblue" points="1218.88,-90.2411 1224.99,-81.5806 1214.82,-84.5449 1218.88,-90.2411"/>
</g>
<!-- Node29 -->
<g id="node29" class="node"><title>Node29</title>
<g id="a_node29"><a xlink:href="dimension_8h_source.html" target="_top" xlink:title="dimension.h">
<polygon fill="none" stroke="black" points="1118.5,-62.5 1118.5,-81.5 1187.5,-81.5 1187.5,-62.5 1118.5,-62.5"/>
<text text-anchor="middle" x="1153" y="-69.5" font-family="Helvetica,sans-Serif" font-size="10.00">dimension.h</text>
</a>
</g>
</g>
<!-- Node26&#45;&gt;Node29 -->
<g id="edge38" class="edge"><title>Node26&#45;&gt;Node29</title>
<path fill="none" stroke="midnightblue" d="M1153,-124.403C1153,-115.938 1153,-102.728 1153,-91.8199"/>
<polygon fill="midnightblue" stroke="midnightblue" points="1156.5,-91.5806 1153,-81.5806 1149.5,-91.5806 1156.5,-91.5806"/>
</g>
<!-- Node28 -->
<g id="node28" class="node"><title>Node28</title>
<polygon fill="none" stroke="#bfbfbf" points="1205,-0.5 1205,-19.5 1269,-19.5 1269,-0.5 1205,-0.5"/>
<text text-anchor="middle" x="1237" y="-7.5" font-family="Helvetica,sans-Serif" font-size="10.00">psiconfig.h</text>
</g>
<!-- Node27&#45;&gt;Node28 -->
<g id="edge37" class="edge"><title>Node27&#45;&gt;Node28</title>
<path fill="none" stroke="midnightblue" d="M1237,-62.4035C1237,-53.9381 1237,-40.7283 1237,-29.8199"/>
<polygon fill="midnightblue" stroke="midnightblue" points="1240.5,-29.5806 1237,-19.5806 1233.5,-29.5806 1240.5,-29.5806"/>
</g>
<!-- Node29&#45;&gt;Node4 -->
<g id="edge39" class="edge"><title>Node29&#45;&gt;Node4</title>
<path fill="none" stroke="midnightblue" d="M1131.83,-62.49C1124.69,-59.9696 1116.6,-57.4882 1109,-56 838.12,-2.98347 762.914,-54.029 489,-20 483.775,-19.3509 478.257,-18.4716 472.91,-17.5159"/>
<polygon fill="midnightblue" stroke="midnightblue" points="473.441,-14.0542 462.964,-15.6242 472.133,-20.931 473.441,-14.0542"/>
</g>
<!-- Node29&#45;&gt;Node2 -->
<g id="edge40" class="edge"><title>Node29&#45;&gt;Node2</title>
<path fill="none" stroke="midnightblue" d="M1177.63,-62.4876C1183.94,-60.3408 1190.71,-58.0611 1197,-56 1235.27,-43.4558 1279.53,-29.6334 1308.55,-20.6622"/>
<polygon fill="midnightblue" stroke="midnightblue" points="1309.62,-23.9946 1318.14,-17.7013 1307.56,-17.3059 1309.62,-23.9946"/>
</g>
<!-- Node29&#45;&gt;Node7 -->
<g id="edge41" class="edge"><title>Node29&#45;&gt;Node7</title>
<path fill="none" stroke="midnightblue" d="M1129.89,-62.4584C1123.21,-60.1695 1115.86,-57.8263 1109,-56 1038.71,-37.2955 954.508,-22.916 909.376,-15.8417"/>
<polygon fill="midnightblue" stroke="midnightblue" points="909.719,-12.3533 899.301,-14.2827 908.648,-19.271 909.719,-12.3533"/>
</g>
<!-- Node31&#45;&gt;Node4 -->
<g id="edge44" class="edge"><title>Node31&#45;&gt;Node4</title>
<path fill="none" stroke="midnightblue" d="M124.004,-180.192C124.53,-156.124 129.539,-88.8612 168,-56 204.119,-25.1399 347.039,-15.1245 410.895,-12.1494"/>
<polygon fill="midnightblue" stroke="midnightblue" points="411.31,-15.6347 421.147,-11.7011 411.004,-8.64141 411.31,-15.6347"/>
</g>
<!-- Node33 -->
<g id="node33" class="node"><title>Node33</title>
<g id="a_node33"><a xlink:href="psifiles_8h_source.html" target="_top" xlink:title="psifiles.h">
<polygon fill="none" stroke="black" points="1634,-0.5 1634,-19.5 1690,-19.5 1690,-0.5 1634,-0.5"/>
<text text-anchor="middle" x="1662" y="-7.5" font-family="Helvetica,sans-Serif" font-size="10.00">psifiles.h</text>
</a>
</g>
</g>
<!-- Node32&#45;&gt;Node33 -->
<g id="edge46" class="edge"><title>Node32&#45;&gt;Node33</title>
<path fill="none" stroke="midnightblue" d="M1541.09,-131.429C1571.51,-128.163 1619.26,-118.204 1646,-88 1660.05,-72.1362 1662.94,-47.2098 1663.05,-30.0379"/>
<polygon fill="midnightblue" stroke="midnightblue" points="1666.53,-29.5005 1662.77,-19.5952 1659.53,-29.6831 1666.53,-29.5005"/>
</g>
<!-- Node34 -->
<g id="node34" class="node"><title>Node34</title>
<g id="a_node34"><a xlink:href="lib_2libdpd_2dpd_8h.html" target="_top" xlink:title="Enter brief description of file here.">
<polygon fill="none" stroke="black" points="1568.5,-62.5 1568.5,-81.5 1637.5,-81.5 1637.5,-62.5 1568.5,-62.5"/>
<text text-anchor="middle" x="1603" y="-69.5" font-family="Helvetica,sans-Serif" font-size="10.00">libdpd/dpd.h</text>
</a>
</g>
</g>
<!-- Node32&#45;&gt;Node34 -->
<g id="edge47" class="edge"><title>Node32&#45;&gt;Node34</title>
<path fill="none" stroke="midnightblue" d="M1525.89,-124.403C1540.46,-114.691 1564.4,-98.7319 1581.75,-87.1697"/>
<polygon fill="midnightblue" stroke="midnightblue" points="1583.75,-90.0398 1590.13,-81.5806 1579.87,-84.2155 1583.75,-90.0398"/>
</g>
<!-- Node32&#45;&gt;Node16 -->
<g id="edge53" class="edge"><title>Node32&#45;&gt;Node16</title>
<path fill="none" stroke="midnightblue" d="M1498.24,-124.403C1481.34,-114.557 1453.42,-98.2915 1433.51,-86.6949"/>
<polygon fill="midnightblue" stroke="midnightblue" points="1435.13,-83.5898 1424.73,-81.5806 1431.61,-89.6384 1435.13,-83.5898"/>
</g>
<!-- Node36 -->
<g id="node36" class="node"><title>Node36</title>
<g id="a_node36"><a xlink:href="psio_8h_source.html" target="_top" xlink:title="libpsio/psio.h">
<polygon fill="none" stroke="black" points="1476,-62.5 1476,-81.5 1550,-81.5 1550,-62.5 1476,-62.5"/>
<text text-anchor="middle" x="1513" y="-69.5" font-family="Helvetica,sans-Serif" font-size="10.00">libpsio/psio.h</text>
</a>
</g>
</g>
<!-- Node32&#45;&gt;Node36 -->
<g id="edge54" class="edge"><title>Node32&#45;&gt;Node36</title>
<path fill="none" stroke="midnightblue" d="M1513,-124.403C1513,-115.938 1513,-102.728 1513,-91.8199"/>
<polygon fill="midnightblue" stroke="midnightblue" points="1516.5,-91.5806 1513,-81.5806 1509.5,-91.5806 1516.5,-91.5806"/>
</g>
<!-- Node34&#45;&gt;Node2 -->
<g id="edge48" class="edge"><title>Node34&#45;&gt;Node2</title>
<path fill="none" stroke="midnightblue" d="M1579.42,-62.3513C1572.86,-60.1125 1565.7,-57.8219 1559,-56 1541.14,-51.1423 1428.35,-28.5489 1371.98,-17.3403"/>
<polygon fill="midnightblue" stroke="midnightblue" points="1372.32,-13.8385 1361.83,-15.3228 1370.96,-20.7044 1372.32,-13.8385"/>
</g>
<!-- Node34&#45;&gt;Node33 -->
<g id="edge49" class="edge"><title>Node34&#45;&gt;Node33</title>
<path fill="none" stroke="midnightblue" d="M1611.45,-62.4035C1620.57,-53.1361 1635.27,-38.1828 1646.48,-26.7876"/>
<polygon fill="midnightblue" stroke="midnightblue" points="1649.05,-29.1649 1653.56,-19.5806 1644.06,-24.2569 1649.05,-29.1649"/>
</g>
<!-- Node35 -->
<g id="node35" class="node"><title>Node35</title>
<g id="a_node35"><a xlink:href="libpsio_2config_8h_source.html" target="_top" xlink:title="libpsio/config.h">
<polygon fill="none" stroke="black" points="1530,-0.5 1530,-19.5 1612,-19.5 1612,-0.5 1530,-0.5"/>
<text text-anchor="middle" x="1571" y="-7.5" font-family="Helvetica,sans-Serif" font-size="10.00">libpsio/config.h</text>
</a>
</g>
</g>
<!-- Node34&#45;&gt;Node35 -->
<g id="edge50" class="edge"><title>Node34&#45;&gt;Node35</title>
<path fill="none" stroke="midnightblue" d="M1598.42,-62.4035C1593.71,-53.5816 1586.26,-39.6075 1580.31,-28.4548"/>
<polygon fill="midnightblue" stroke="midnightblue" points="1583.37,-26.7571 1575.58,-19.5806 1577.19,-30.0512 1583.37,-26.7571"/>
</g>
<!-- Node34&#45;&gt;Node18 -->
<g id="edge51" class="edge"><title>Node34&#45;&gt;Node18</title>
<path fill="none" stroke="midnightblue" d="M1581.08,-62.4035C1554.95,-52.1559 1511.09,-34.9561 1481.37,-23.3021"/>
<polygon fill="midnightblue" stroke="midnightblue" points="1482.47,-19.9731 1471.88,-19.5806 1479.91,-26.4899 1482.47,-19.9731"/>
</g>
<!-- Node34&#45;&gt;Node7 -->
<g id="edge52" class="edge"><title>Node34&#45;&gt;Node7</title>
<path fill="none" stroke="midnightblue" d="M1581.38,-62.3678C1574.35,-59.9038 1566.44,-57.4865 1559,-56 1432.2,-30.6629 1026.99,-15.8514 909.323,-12.0078"/>
<polygon fill="midnightblue" stroke="midnightblue" points="909.269,-8.50434 899.161,-11.6799 909.043,-15.5007 909.269,-8.50434"/>
</g>
<!-- Node36&#45;&gt;Node2 -->
<g id="edge55" class="edge"><title>Node36&#45;&gt;Node2</title>
<path fill="none" stroke="midnightblue" d="M1488.21,-62.4035C1457.48,-51.7438 1405.05,-33.5613 1371.5,-21.9238"/>
<polygon fill="midnightblue" stroke="midnightblue" points="1372.33,-18.5078 1361.73,-18.5378 1370.04,-25.1214 1372.33,-18.5078"/>
</g>
<!-- Node36&#45;&gt;Node35 -->
<g id="edge56" class="edge"><title>Node36&#45;&gt;Node35</title>
<path fill="none" stroke="midnightblue" d="M1521.31,-62.4035C1530.27,-53.1361 1544.72,-38.1828 1555.74,-26.7876"/>
<polygon fill="midnightblue" stroke="midnightblue" points="1558.27,-29.2031 1562.71,-19.5806 1553.24,-24.3379 1558.27,-29.2031"/>
</g>
</g>
</svg>
        <g id="navigator" transform="translate(0 0)" fill="#404254">
                <rect fill="#f2f5e9" fill-opacity="0.5" stroke="#606060" stroke-width=".5" x="0" y="0" width="60" height="60"/>
                <use id="zoomplus" xlink:href="#zoomPlus" x="17" y="9" onmousedown="handleZoom(evt,'in')"/>
                <use id="zoomminus" xlink:href="#zoomMin" x="42" y="9" onmousedown="handleZoom(evt,'out')"/>
                <use id="reset" xlink:href="#resetDef" x="30" y="36" onmousedown="handleReset()"/>
                <g id="arrowUp" xlink:href="#dirArrow" transform="translate(30 24)" onmousedown="handlePan(0,-1)">
                  <use xlink:href="#rim" fill="#404040">
                        <set attributeName="fill" to="#808080" begin="arrowUp.mouseover" end="arrowUp.mouseout"/>
                  </use>
                  <path fill="none" stroke="white" stroke-width="1.5" d="M0,-3.0v7 M-2.5,-0.5L0,-3.0L2.5,-0.5"/>
                </g>
                <g id="arrowRight" xlink:href="#dirArrow" transform="rotate(90) translate(36 -43)" onmousedown="handlePan(1,0)">
                  <use xlink:href="#rim" fill="#404040">
                        <set attributeName="fill" to="#808080" begin="arrowRight.mouseover" end="arrowRight.mouseout"/>
                  </use>
                  <path fill="none" stroke="white" stroke-width="1.5" d="M0,-3.0v7 M-2.5,-0.5L0,-3.0L2.5,-0.5"/>
                </g>
                <g id="arrowDown" xlink:href="#dirArrow" transform="rotate(180) translate(-30 -48)" onmousedown="handlePan(0,1)">
                  <use xlink:href="#rim" fill="#404040">
                        <set attributeName="fill" to="#808080" begin="arrowDown.mouseover" end="arrowDown.mouseout"/>
                  </use>
                  <path fill="none" stroke="white" stroke-width="1.5" d="M0,-3.0v7 M-2.5,-0.5L0,-3.0L2.5,-0.5"/>
                </g>
                <g id="arrowLeft" xlink:href="#dirArrow" transform="rotate(270) translate(-36 17)" onmousedown="handlePan(-1,0)">
                  <use xlink:href="#rim" fill="#404040">
                        <set attributeName="fill" to="#808080" begin="arrowLeft.mouseover" end="arrowLeft.mouseout"/>
                  </use>
                  <path fill="none" stroke="white" stroke-width="1.5" d="M0,-3.0v7 M-2.5,-0.5L0,-3.0L2.5,-0.5"/>
                </g>
        </g>
        <svg viewBox="0 0 15 15" width="100%" height="30px" preserveAspectRatio="xMaxYMin meet">
         <g id="arrow_out" transform="scale(0.3 0.3)">
          <a xlink:href="bin_2cchbar_2get__params_8cc__incl_org.svg" target="_base">
           <rect id="button" ry="5" rx="5" y="6" x="6" height="38" width="38"
                fill="#f2f5e9" fill-opacity="0.5" stroke="#606060" stroke-width="1.0"/>
           <path id="arrow"
             d="M 11.500037,31.436501 C 11.940474,20.09759 22.043105,11.32322 32.158766,21.979434 L 37.068811,17.246167 C 37.068811,17.246167 37.088388,32 37.088388,32 L 22.160133,31.978069 C 22.160133,31.978069 26.997745,27.140456 26.997745,27.140456 C 18.528582,18.264221 13.291696,25.230495 11.500037,31.436501 z"
             style="fill:#404040;"/>
          </a>
         </g>
        </svg>
</svg>
