<?xml version="1.0" encoding="UTF-8" standalone="no"?>
<!DOCTYPE svg PUBLIC "-//W3C//DTD SVG 1.1//EN"
 "http://www.w3.org/Graphics/SVG/1.1/DTD/svg11.dtd">
<!-- Generated by graphviz version 2.30.1 (20140110.0959)
 -->
<!-- Title: BT2_AO.cc Pages: 1 -->
<svg width="1870pt" height="320pt"
 viewBox="0.00 0.00 1870.00 320.00" xmlns="http://www.w3.org/2000/svg" xmlns:xlink="http://www.w3.org/1999/xlink">
<g id="graph0" class="graph" transform="scale(1 1) rotate(0) translate(4 316)">
<title>BT2_AO.cc</title>
<!-- Node1 -->
<g id="node1" class="node"><title>Node1</title>
<polygon fill="#bfbfbf" stroke="black" points="761,-292.5 761,-311.5 829,-311.5 829,-292.5 761,-292.5"/>
<text text-anchor="middle" x="795" y="-299.5" font-family="Helvetica,sans-Serif" font-size="10.00">BT2_AO.cc</text>
</g>
<!-- Node2 -->
<g id="node2" class="node"><title>Node2</title>
<polygon fill="none" stroke="#bfbfbf" points="245.5,-0.5 245.5,-19.5 288.5,-19.5 288.5,-0.5 245.5,-0.5"/>
<text text-anchor="middle" x="267" y="-7.5" font-family="Helvetica,sans-Serif" font-size="10.00">cstdio</text>
</g>
<!-- Node1&#45;&gt;Node2 -->
<g id="edge1" class="edge"><title>Node1&#45;&gt;Node2</title>
<path fill="none" stroke="midnightblue" d="M760.988,-297.934C709.52,-292.707 609.138,-280.203 527,-256 466.655,-238.219 301.583,-196.552 267,-144 244.019,-109.077 253.544,-57.0264 261.091,-29.5432"/>
<polygon fill="midnightblue" stroke="midnightblue" points="264.525,-30.2738 264.008,-19.6916 257.813,-28.2866 264.525,-30.2738"/>
</g>
<!-- Node3 -->
<g id="node3" class="node"><title>Node3</title>
<polygon fill="none" stroke="#bfbfbf" points="1589.5,-0.5 1589.5,-19.5 1634.5,-19.5 1634.5,-0.5 1589.5,-0.5"/>
<text text-anchor="middle" x="1612" y="-7.5" font-family="Helvetica,sans-Serif" font-size="10.00">cstdlib</text>
</g>
<!-- Node1&#45;&gt;Node3 -->
<g id="edge2" class="edge"><title>Node1&#45;&gt;Node3</title>
<path fill="none" stroke="midnightblue" d="M829.054,-300.461C971.8,-298.012 1517.8,-286.7 1588,-256 1620.83,-241.642 1632,-232.983 1646,-200 1671.15,-140.762 1639.04,-63.4006 1621.72,-28.9273"/>
<polygon fill="midnightblue" stroke="midnightblue" points="1624.63,-26.9257 1616.9,-19.6731 1618.42,-30.1591 1624.63,-26.9257"/>
</g>
<!-- Node4 -->
<g id="node4" class="node"><title>Node4</title>
<polygon fill="none" stroke="#bfbfbf" points="1679,-236.5 1679,-255.5 1725,-255.5 1725,-236.5 1679,-236.5"/>
<text text-anchor="middle" x="1702" y="-243.5" font-family="Helvetica,sans-Serif" font-size="10.00">cstring</text>
</g>
<!-- Node1&#45;&gt;Node4 -->
<g id="edge3" class="edge"><title>Node1&#45;&gt;Node4</title>
<path fill="none" stroke="midnightblue" d="M829.219,-301.517C946.457,-302.804 1342.5,-303.141 1665,-256 1666.25,-255.817 1667.52,-255.611 1668.8,-255.387"/>
<polygon fill="midnightblue" stroke="midnightblue" points="1669.54,-258.808 1678.64,-253.38 1668.14,-251.949 1669.54,-258.808"/>
</g>
<!-- Node5 -->
<g id="node5" class="node"><title>Node5</title>
<polygon fill="none" stroke="#bfbfbf" points="1743,-236.5 1743,-255.5 1787,-255.5 1787,-236.5 1743,-236.5"/>
<text text-anchor="middle" x="1765" y="-243.5" font-family="Helvetica,sans-Serif" font-size="10.00">cmath</text>
</g>
<!-- Node1&#45;&gt;Node5 -->
<g id="edge4" class="edge"><title>Node1&#45;&gt;Node5</title>
<path fill="none" stroke="midnightblue" d="M829.333,-300.433C973.989,-297.88 1535.07,-286.302 1732.81,-255.735"/>
<polygon fill="midnightblue" stroke="midnightblue" points="1733.48,-259.173 1742.79,-254.124 1732.36,-252.263 1733.48,-259.173"/>
</g>
<!-- Node6 -->
<g id="node6" class="node"><title>Node6</title>
<g id="a_node6"><a xlink:href="libciomr_8h_source.html" target="_top" xlink:title="libciomr/libciomr.h">
<polygon fill="none" stroke="black" points="200.5,-180.5 200.5,-199.5 295.5,-199.5 295.5,-180.5 200.5,-180.5"/>
<text text-anchor="middle" x="248" y="-187.5" font-family="Helvetica,sans-Serif" font-size="10.00">libciomr/libciomr.h</text>
</a>
</g>
</g>
<!-- Node1&#45;&gt;Node6 -->
<g id="edge5" class="edge"><title>Node1&#45;&gt;Node6</title>
<path fill="none" stroke="midnightblue" d="M760.7,-300.905C663.775,-300.156 389.732,-294.59 310,-256 288.146,-245.422 269.942,-223.67 259.032,-208.247"/>
<polygon fill="midnightblue" stroke="midnightblue" points="261.706,-205.953 253.214,-199.618 255.902,-209.866 261.706,-205.953"/>
</g>
<!-- Node7 -->
<g id="node7" class="node"><title>Node7</title>
<g id="a_node7"><a xlink:href="psio_8h_source.html" target="_top" xlink:title="libpsio/psio.h">
<polygon fill="none" stroke="black" points="0,-180.5 0,-199.5 74,-199.5 74,-180.5 0,-180.5"/>
<text text-anchor="middle" x="37" y="-187.5" font-family="Helvetica,sans-Serif" font-size="10.00">libpsio/psio.h</text>
</a>
</g>
</g>
<!-- Node1&#45;&gt;Node7 -->
<g id="edge7" class="edge"><title>Node1&#45;&gt;Node7</title>
<path fill="none" stroke="midnightblue" d="M760.595,-300.001C630.541,-296.05 173.238,-280.53 113,-256 87.4933,-245.613 64.4166,-223.142 50.5515,-207.55"/>
<polygon fill="midnightblue" stroke="midnightblue" points="53.0037,-205.033 43.8394,-199.716 47.6879,-209.588 53.0037,-205.033"/>
</g>
<!-- Node9 -->
<g id="node9" class="node"><title>Node9</title>
<g id="a_node9"><a xlink:href="iwl_8h_source.html" target="_top" xlink:title="libiwl/iwl.h">
<polygon fill="none" stroke="black" points="122,-236.5 122,-255.5 184,-255.5 184,-236.5 122,-236.5"/>
<text text-anchor="middle" x="153" y="-243.5" font-family="Helvetica,sans-Serif" font-size="10.00">libiwl/iwl.h</text>
</a>
</g>
</g>
<!-- Node1&#45;&gt;Node9 -->
<g id="edge10" class="edge"><title>Node1&#45;&gt;Node9</title>
<path fill="none" stroke="midnightblue" d="M760.75,-298.239C675.135,-291.32 444.902,-272.602 253,-256 233.692,-254.33 212.294,-252.413 194.262,-250.778"/>
<polygon fill="midnightblue" stroke="midnightblue" points="194.351,-247.272 184.076,-249.853 193.718,-254.243 194.351,-247.272"/>
</g>
<!-- Node11 -->
<g id="node11" class="node"><title>Node11</title>
<g id="a_node11"><a xlink:href="lib_2libdpd_2dpd_8h.html" target="_top" xlink:title="Enter brief description of file here.">
<polygon fill="none" stroke="black" points="417.5,-180.5 417.5,-199.5 486.5,-199.5 486.5,-180.5 417.5,-180.5"/>
<text text-anchor="middle" x="452" y="-187.5" font-family="Helvetica,sans-Serif" font-size="10.00">libdpd/dpd.h</text>
</a>
</g>
</g>
<!-- Node1&#45;&gt;Node11 -->
<g id="edge14" class="edge"><title>Node1&#45;&gt;Node11</title>
<path fill="none" stroke="midnightblue" d="M760.81,-296.993C717.023,-291.184 639.245,-278.567 576,-256 538.41,-242.587 498.026,-219.639 473.897,-204.905"/>
<polygon fill="midnightblue" stroke="midnightblue" points="475.537,-201.804 465.193,-199.514 471.851,-207.755 475.537,-201.804"/>
</g>
<!-- Node15 -->
<g id="node15" class="node"><title>Node15</title>
<g id="a_node15"><a xlink:href="qt_8h.html" target="_top" xlink:title="Header file for the Quantum Trio LibraryDavid Sherrill 1994.">
<polygon fill="none" stroke="black" points="1470,-62.5 1470,-81.5 1524,-81.5 1524,-62.5 1470,-62.5"/>
<text text-anchor="middle" x="1497" y="-69.5" font-family="Helvetica,sans-Serif" font-size="10.00">libqt/qt.h</text>
</a>
</g>
</g>
<!-- Node1&#45;&gt;Node15 -->
<g id="edge20" class="edge"><title>Node1&#45;&gt;Node15</title>
<path fill="none" stroke="midnightblue" d="M822,-292.425C911.8,-263.871 1208.59,-169.216 1453,-88 1455.97,-87.0138 1459.05,-85.9825 1462.13,-84.9424"/>
<polygon fill="midnightblue" stroke="midnightblue" points="1463.55,-88.1587 1471.89,-81.6341 1461.3,-81.529 1463.55,-88.1587"/>
</g>
<!-- Node12 -->
<g id="node12" class="node"><title>Node12</title>
<g id="a_node12"><a xlink:href="psifiles_8h_source.html" target="_top" xlink:title="psifiles.h">
<polygon fill="none" stroke="black" points="452,-124.5 452,-143.5 508,-143.5 508,-124.5 452,-124.5"/>
<text text-anchor="middle" x="480" y="-131.5" font-family="Helvetica,sans-Serif" font-size="10.00">psifiles.h</text>
</a>
</g>
</g>
<!-- Node1&#45;&gt;Node12 -->
<g id="edge23" class="edge"><title>Node1&#45;&gt;Node12</title>
<path fill="none" stroke="midnightblue" d="M778.508,-292.309C726.839,-265.08 567.842,-181.292 505.477,-148.426"/>
<polygon fill="midnightblue" stroke="midnightblue" points="506.808,-145.171 496.329,-143.605 503.544,-151.364 506.808,-145.171"/>
</g>
<!-- Node17 -->
<g id="node17" class="node"><title>Node17</title>
<g id="a_node17"><a xlink:href="ccenergy_2Params_8h.html" target="_top" xlink:title="Enter brief description of file here.">
<polygon fill="none" stroke="black" points="1578.5,-180.5 1578.5,-199.5 1637.5,-199.5 1637.5,-180.5 1578.5,-180.5"/>
<text text-anchor="middle" x="1608" y="-187.5" font-family="Helvetica,sans-Serif" font-size="10.00">Params.h</text>
</a>
</g>
</g>
<!-- Node1&#45;&gt;Node17 -->
<g id="edge24" class="edge"><title>Node1&#45;&gt;Node17</title>
<path fill="none" stroke="midnightblue" d="M829.15,-300.767C969.758,-299.571 1499.55,-292.651 1564,-256 1582.09,-245.71 1594.26,-224.558 1601.13,-209.17"/>
<polygon fill="midnightblue" stroke="midnightblue" points="1604.48,-210.221 1605.05,-199.641 1598.01,-207.559 1604.48,-210.221"/>
</g>
<!-- Node18 -->
<g id="node18" class="node"><title>Node18</title>
<g id="a_node18"><a xlink:href="ccenergy_2MOInfo_8h.html" target="_top" xlink:title="Enter brief description of file here.">
<polygon fill="none" stroke="black" points="1805.5,-236.5 1805.5,-255.5 1862.5,-255.5 1862.5,-236.5 1805.5,-236.5"/>
<text text-anchor="middle" x="1834" y="-243.5" font-family="Helvetica,sans-Serif" font-size="10.00">MOInfo.h</text>
</a>
</g>
</g>
<!-- Node1&#45;&gt;Node18 -->
<g id="edge26" class="edge"><title>Node1&#45;&gt;Node18</title>
<path fill="none" stroke="midnightblue" d="M829.222,-300.324C979.599,-297.224 1583.25,-283.386 1795.37,-255.732"/>
<polygon fill="midnightblue" stroke="midnightblue" points="1796.04,-259.174 1805.48,-254.362 1795.1,-252.237 1796.04,-259.174"/>
</g>
<!-- Node19 -->
<g id="node19" class="node"><title>Node19</title>
<g id="a_node19"><a xlink:href="ccenergy_2globals_8h.html" target="_top" xlink:title="Enter brief description of file here.">
<polygon fill="none" stroke="black" points="767,-236.5 767,-255.5 823,-255.5 823,-236.5 767,-236.5"/>
<text text-anchor="middle" x="795" y="-243.5" font-family="Helvetica,sans-Serif" font-size="10.00">globals.h</text>
</a>
</g>
</g>
<!-- Node1&#45;&gt;Node19 -->
<g id="edge27" class="edge"><title>Node1&#45;&gt;Node19</title>
<path fill="none" stroke="midnightblue" d="M795,-292.083C795,-285.006 795,-274.861 795,-265.986"/>
<polygon fill="midnightblue" stroke="midnightblue" points="798.5,-265.751 795,-255.751 791.5,-265.751 798.5,-265.751"/>
</g>
<!-- Node6&#45;&gt;Node2 -->
<g id="edge6" class="edge"><title>Node6&#45;&gt;Node2</title>
<path fill="none" stroke="midnightblue" d="M244.4,-180.222C240.944,-171.285 235.967,-156.942 234,-144 228.124,-105.333 221.832,-93.17 234,-56 237.49,-45.3397 244.573,-35.1174 251.286,-27.1175"/>
<polygon fill="midnightblue" stroke="midnightblue" points="253.904,-29.4395 257.98,-19.66 248.695,-24.7633 253.904,-29.4395"/>
</g>
<!-- Node7&#45;&gt;Node2 -->
<g id="edge8" class="edge"><title>Node7&#45;&gt;Node2</title>
<path fill="none" stroke="midnightblue" d="M42.7892,-180.328C58.6415,-157.171 105.113,-93.1268 158,-56 181.792,-39.298 212.723,-27.28 235.555,-19.8882"/>
<polygon fill="midnightblue" stroke="midnightblue" points="236.604,-23.2273 245.11,-16.9103 234.522,-16.5444 236.604,-23.2273"/>
</g>
<!-- Node8 -->
<g id="node8" class="node"><title>Node8</title>
<g id="a_node8"><a xlink:href="libpsio_2config_8h_source.html" target="_top" xlink:title="libpsio/config.h">
<polygon fill="none" stroke="black" points="276,-124.5 276,-143.5 358,-143.5 358,-124.5 276,-124.5"/>
<text text-anchor="middle" x="317" y="-131.5" font-family="Helvetica,sans-Serif" font-size="10.00">libpsio/config.h</text>
</a>
</g>
</g>
<!-- Node7&#45;&gt;Node8 -->
<g id="edge9" class="edge"><title>Node7&#45;&gt;Node8</title>
<path fill="none" stroke="midnightblue" d="M74.1551,-181.72C77.1474,-181.137 80.1241,-180.558 83,-180 145.997,-167.78 218.564,-153.847 265.974,-144.764"/>
<polygon fill="midnightblue" stroke="midnightblue" points="266.827,-148.164 275.99,-142.845 265.51,-141.289 266.827,-148.164"/>
</g>
<!-- Node9&#45;&gt;Node2 -->
<g id="edge11" class="edge"><title>Node9&#45;&gt;Node2</title>
<path fill="none" stroke="midnightblue" d="M154.974,-236.145C161.504,-208.077 184.278,-119.215 224,-56 230.797,-45.1836 240.486,-34.7607 248.947,-26.6745"/>
<polygon fill="midnightblue" stroke="midnightblue" points="251.545,-29.0406 256.548,-19.7012 246.813,-23.8824 251.545,-29.0406"/>
</g>
<!-- Node9&#45;&gt;Node7 -->
<g id="edge12" class="edge"><title>Node9&#45;&gt;Node7</title>
<path fill="none" stroke="midnightblue" d="M134.619,-236.444C115.784,-227.675 86.2688,-213.935 64.6207,-203.858"/>
<polygon fill="midnightblue" stroke="midnightblue" points="65.8375,-200.564 55.2946,-199.516 62.8833,-206.91 65.8375,-200.564"/>
</g>
<!-- Node10 -->
<g id="node10" class="node"><title>Node10</title>
<g id="a_node10"><a xlink:href="libiwl_2config_8h_source.html" target="_top" xlink:title="config.h">
<polygon fill="none" stroke="black" points="92.5,-180.5 92.5,-199.5 143.5,-199.5 143.5,-180.5 92.5,-180.5"/>
<text text-anchor="middle" x="118" y="-187.5" font-family="Helvetica,sans-Serif" font-size="10.00">config.h</text>
</a>
</g>
</g>
<!-- Node9&#45;&gt;Node10 -->
<g id="edge13" class="edge"><title>Node9&#45;&gt;Node10</title>
<path fill="none" stroke="midnightblue" d="M147.22,-236.083C142.328,-228.534 135.173,-217.495 129.167,-208.23"/>
<polygon fill="midnightblue" stroke="midnightblue" points="132.048,-206.239 123.672,-199.751 126.174,-210.046 132.048,-206.239"/>
</g>
<!-- Node11&#45;&gt;Node2 -->
<g id="edge15" class="edge"><title>Node11&#45;&gt;Node2</title>
<path fill="none" stroke="midnightblue" d="M441.494,-180.478C425.661,-167.749 394.597,-143.21 367,-124 342.408,-106.882 330.607,-109.751 310,-88 293.587,-70.676 281.221,-45.9051 274.057,-29.1765"/>
<polygon fill="midnightblue" stroke="midnightblue" points="277.129,-27.4407 270.111,-19.5039 270.648,-30.0851 277.129,-27.4407"/>
</g>
<!-- Node11&#45;&gt;Node12 -->
<g id="edge16" class="edge"><title>Node11&#45;&gt;Node12</title>
<path fill="none" stroke="midnightblue" d="M456.624,-180.083C460.456,-172.691 466.024,-161.953 470.765,-152.811"/>
<polygon fill="midnightblue" stroke="midnightblue" points="473.966,-154.24 475.462,-143.751 467.752,-151.018 473.966,-154.24"/>
</g>
<!-- Node11&#45;&gt;Node8 -->
<g id="edge17" class="edge"><title>Node11&#45;&gt;Node8</title>
<path fill="none" stroke="midnightblue" d="M430.609,-180.444C408.293,-171.517 373.097,-157.439 347.792,-147.317"/>
<polygon fill="midnightblue" stroke="midnightblue" points="348.876,-143.981 338.291,-143.516 346.276,-150.48 348.876,-143.981"/>
</g>
<!-- Node13 -->
<g id="node13" class="node"><title>Node13</title>
<polygon fill="none" stroke="#bfbfbf" points="526,-124.5 526,-143.5 634,-143.5 634,-124.5 526,-124.5"/>
<text text-anchor="middle" x="580" y="-131.5" font-family="Helvetica,sans-Serif" font-size="10.00">boost/shared_ptr.hpp</text>
</g>
<!-- Node11&#45;&gt;Node13 -->
<g id="edge18" class="edge"><title>Node11&#45;&gt;Node13</title>
<path fill="none" stroke="midnightblue" d="M472.282,-180.444C493.347,-171.557 526.517,-157.563 550.486,-147.451"/>
<polygon fill="midnightblue" stroke="midnightblue" points="551.96,-150.628 559.813,-143.516 549.239,-144.179 551.96,-150.628"/>
</g>
<!-- Node14 -->
<g id="node14" class="node"><title>Node14</title>
<polygon fill="none" stroke="#bfbfbf" points="725,-0.5 725,-19.5 769,-19.5 769,-0.5 725,-0.5"/>
<text text-anchor="middle" x="747" y="-7.5" font-family="Helvetica,sans-Serif" font-size="10.00">vector</text>
</g>
<!-- Node11&#45;&gt;Node14 -->
<g id="edge19" class="edge"><title>Node11&#45;&gt;Node14</title>
<path fill="none" stroke="midnightblue" d="M445.576,-180.404C435.597,-167.363 415.388,-142.18 395,-124 374.02,-105.292 356.046,-112.898 343,-88 336.399,-75.4022 333.516,-66.5987 343,-56 367.699,-28.3974 623.584,-15.8038 714.867,-12.1654"/>
<polygon fill="midnightblue" stroke="midnightblue" points="715.055,-15.6609 724.911,-11.775 714.783,-8.66618 715.055,-15.6609"/>
</g>
<!-- Node15&#45;&gt;Node2 -->
<g id="edge21" class="edge"><title>Node15&#45;&gt;Node2</title>
<path fill="none" stroke="midnightblue" d="M1469.74,-64.4283C1455.59,-61.3016 1437.96,-57.8494 1422,-56 944.925,-0.72007 820.867,-56.6447 342,-20 327.761,-18.9104 312.066,-17.1194 298.73,-15.4208"/>
<polygon fill="midnightblue" stroke="midnightblue" points="298.983,-11.9241 288.613,-14.0936 298.073,-18.8647 298.983,-11.9241"/>
</g>
<!-- Node16 -->
<g id="node16" class="node"><title>Node16</title>
<polygon fill="none" stroke="#bfbfbf" points="1476.5,-0.5 1476.5,-19.5 1517.5,-19.5 1517.5,-0.5 1476.5,-0.5"/>
<text text-anchor="middle" x="1497" y="-7.5" font-family="Helvetica,sans-Serif" font-size="10.00">string</text>
</g>
<!-- Node15&#45;&gt;Node16 -->
<g id="edge22" class="edge"><title>Node15&#45;&gt;Node16</title>
<path fill="none" stroke="midnightblue" d="M1497,-62.4035C1497,-53.9381 1497,-40.7283 1497,-29.8199"/>
<polygon fill="midnightblue" stroke="midnightblue" points="1500.5,-29.5806 1497,-19.5806 1493.5,-29.5806 1500.5,-29.5806"/>
</g>
<!-- Node17&#45;&gt;Node16 -->
<g id="edge25" class="edge"><title>Node17&#45;&gt;Node16</title>
<path fill="none" stroke="midnightblue" d="M1610.68,-180.252C1617.11,-157.448 1630.92,-95.2386 1604,-56 1586.84,-30.9918 1552.88,-19.8351 1527.8,-14.8867"/>
<polygon fill="midnightblue" stroke="midnightblue" points="1528.12,-11.3903 1517.67,-13.1239 1526.92,-18.2867 1528.12,-11.3903"/>
</g>
<!-- Node19&#45;&gt;Node12 -->
<g id="edge28" class="edge"><title>Node19&#45;&gt;Node12</title>
<path fill="none" stroke="midnightblue" d="M770.545,-236.46C714.837,-217.006 578.381,-169.355 514.297,-146.977"/>
<polygon fill="midnightblue" stroke="midnightblue" points="515.252,-143.603 504.657,-143.61 512.944,-150.212 515.252,-143.603"/>
</g>
<!-- Node20 -->
<g id="node20" class="node"><title>Node20</title>
<g id="a_node20"><a xlink:href="psi4-dec_8h_source.html" target="_top" xlink:title="psi4&#45;dec.h">
<polygon fill="none" stroke="black" points="811,-180.5 811,-199.5 873,-199.5 873,-180.5 811,-180.5"/>
<text text-anchor="middle" x="842" y="-187.5" font-family="Helvetica,sans-Serif" font-size="10.00">psi4&#45;dec.h</text>
</a>
</g>
</g>
<!-- Node19&#45;&gt;Node20 -->
<g id="edge29" class="edge"><title>Node19&#45;&gt;Node20</title>
<path fill="none" stroke="midnightblue" d="M802.761,-236.083C809.537,-228.298 819.543,-216.801 827.755,-207.367"/>
<polygon fill="midnightblue" stroke="midnightblue" points="830.458,-209.592 834.383,-199.751 825.178,-204.996 830.458,-209.592"/>
</g>
<!-- Node19&#45;&gt;Node16 -->
<g id="edge63" class="edge"><title>Node19&#45;&gt;Node16</title>
<path fill="none" stroke="midnightblue" d="M823.313,-244.839C917.271,-243.454 1226.11,-232.044 1461,-144 1504.41,-127.729 1526.69,-128.638 1549,-88 1555.84,-75.5327 1554.91,-68.9351 1549,-56 1543.22,-43.3602 1531.95,-32.911 1521.37,-25.2737"/>
<polygon fill="midnightblue" stroke="midnightblue" points="1523.04,-22.1817 1512.78,-19.5333 1519.15,-28.0009 1523.04,-22.1817"/>
</g>
<!-- Node19&#45;&gt;Node6 -->
<g id="edge64" class="edge"><title>Node19&#45;&gt;Node6</title>
<path fill="none" stroke="midnightblue" d="M766.743,-242.21C680.949,-233.741 422.25,-208.202 305.85,-196.711"/>
<polygon fill="midnightblue" stroke="midnightblue" points="306.004,-193.209 295.709,-195.71 305.316,-200.175 306.004,-193.209"/>
</g>
<!-- Node20&#45;&gt;Node13 -->
<g id="edge30" class="edge"><title>Node20&#45;&gt;Node13</title>
<path fill="none" stroke="midnightblue" d="M810.916,-182.593C766.601,-173.46 684.729,-156.585 631.331,-145.58"/>
<polygon fill="midnightblue" stroke="midnightblue" points="631.88,-142.119 621.379,-143.529 630.467,-148.975 631.88,-142.119"/>
</g>
<!-- Node21 -->
<g id="node21" class="node"><title>Node21</title>
<polygon fill="none" stroke="#bfbfbf" points="520,-62.5 520,-81.5 652,-81.5 652,-62.5 520,-62.5"/>
<text text-anchor="middle" x="586" y="-69.5" font-family="Helvetica,sans-Serif" font-size="10.00">boost/current_function.hpp</text>
</g>
<!-- Node20&#45;&gt;Node21 -->
<g id="edge31" class="edge"><title>Node20&#45;&gt;Node21</title>
<path fill="none" stroke="midnightblue" d="M833.234,-180.114C819.059,-166.223 789.684,-139.367 760,-124 722.979,-104.835 677.698,-91.8508 642.61,-83.781"/>
<polygon fill="midnightblue" stroke="midnightblue" points="643.057,-80.2947 632.534,-81.5337 641.533,-87.1268 643.057,-80.2947"/>
</g>
<!-- Node20&#45;&gt;Node16 -->
<g id="edge32" class="edge"><title>Node20&#45;&gt;Node16</title>
<path fill="none" stroke="midnightblue" d="M873.197,-189.598C996.408,-191.229 1446.65,-190.033 1533,-88 1548.48,-69.704 1529.83,-43.6286 1514.12,-27.0101"/>
<polygon fill="midnightblue" stroke="midnightblue" points="1516.35,-24.2908 1506.81,-19.6871 1511.4,-29.2367 1516.35,-24.2908"/>
</g>
<!-- Node22 -->
<g id="node22" class="node"><title>Node22</title>
<polygon fill="none" stroke="#bfbfbf" points="1161.5,-124.5 1161.5,-143.5 1190.5,-143.5 1190.5,-124.5 1161.5,-124.5"/>
<text text-anchor="middle" x="1176" y="-131.5" font-family="Helvetica,sans-Serif" font-size="10.00">list</text>
</g>
<!-- Node20&#45;&gt;Node22 -->
<g id="edge33" class="edge"><title>Node20&#45;&gt;Node22</title>
<path fill="none" stroke="midnightblue" d="M873.234,-186.696C927.928,-182.186 1044.58,-170.45 1151.46,-143.589"/>
<polygon fill="midnightblue" stroke="midnightblue" points="1152.62,-146.904 1161.44,-141.029 1150.88,-140.124 1152.62,-146.904"/>
</g>
<!-- Node23 -->
<g id="node23" class="node"><title>Node23</title>
<polygon fill="none" stroke="#bfbfbf" points="962.5,-62.5 962.5,-81.5 997.5,-81.5 997.5,-62.5 962.5,-62.5"/>
<text text-anchor="middle" x="980" y="-69.5" font-family="Helvetica,sans-Serif" font-size="10.00">map</text>
</g>
<!-- Node20&#45;&gt;Node23 -->
<g id="edge34" class="edge"><title>Node20&#45;&gt;Node23</title>
<path fill="none" stroke="midnightblue" d="M852.372,-180.281C875.763,-160.619 932.854,-112.63 962.096,-88.0498"/>
<polygon fill="midnightblue" stroke="midnightblue" points="964.479,-90.6185 969.882,-81.5048 959.975,-85.2601 964.479,-90.6185"/>
</g>
<!-- Node24 -->
<g id="node24" class="node"><title>Node24</title>
<g id="a_node24"><a xlink:href="liboptions_8h_source.html" target="_top" xlink:title="liboptions/liboptions.h">
<polygon fill="none" stroke="black" points="1033,-124.5 1033,-143.5 1143,-143.5 1143,-124.5 1033,-124.5"/>
<text text-anchor="middle" x="1088" y="-131.5" font-family="Helvetica,sans-Serif" font-size="10.00">liboptions/liboptions.h</text>
</a>
</g>
</g>
<!-- Node20&#45;&gt;Node24 -->
<g id="edge35" class="edge"><title>Node20&#45;&gt;Node24</title>
<path fill="none" stroke="midnightblue" d="M873.156,-182.161C915.006,-172.974 989.814,-156.553 1039.18,-145.717"/>
<polygon fill="midnightblue" stroke="midnightblue" points="1039.98,-149.124 1049,-143.561 1038.48,-142.287 1039.98,-149.124"/>
</g>
<!-- Node32 -->
<g id="node32" class="node"><title>Node32</title>
<g id="a_node32"><a xlink:href="include_2exception_8h_source.html" target="_top" xlink:title="exception.h">
<polygon fill="none" stroke="black" points="808.5,-124.5 808.5,-143.5 875.5,-143.5 875.5,-124.5 808.5,-124.5"/>
<text text-anchor="middle" x="842" y="-131.5" font-family="Helvetica,sans-Serif" font-size="10.00">exception.h</text>
</a>
</g>
</g>
<!-- Node20&#45;&gt;Node32 -->
<g id="edge50" class="edge"><title>Node20&#45;&gt;Node32</title>
<path fill="none" stroke="midnightblue" d="M842,-180.083C842,-173.006 842,-162.861 842,-153.986"/>
<polygon fill="midnightblue" stroke="midnightblue" points="845.5,-153.751 842,-143.751 838.5,-153.751 845.5,-153.751"/>
</g>
<!-- Node37 -->
<g id="node37" class="node"><title>Node37</title>
<g id="a_node37"><a xlink:href="typedefs_8h_source.html" target="_top" xlink:title="libmints/typedefs.h">
<polygon fill="none" stroke="black" points="652.5,-124.5 652.5,-143.5 751.5,-143.5 751.5,-124.5 652.5,-124.5"/>
<text text-anchor="middle" x="702" y="-131.5" font-family="Helvetica,sans-Serif" font-size="10.00">libmints/typedefs.h</text>
</a>
</g>
</g>
<!-- Node20&#45;&gt;Node37 -->
<g id="edge56" class="edge"><title>Node20&#45;&gt;Node37</title>
<path fill="none" stroke="midnightblue" d="M819.817,-180.444C796.572,-171.478 759.851,-157.314 733.585,-147.183"/>
<polygon fill="midnightblue" stroke="midnightblue" points="734.669,-143.85 724.08,-143.516 732.15,-150.381 734.669,-143.85"/>
</g>
<!-- Node24&#45;&gt;Node16 -->
<g id="edge36" class="edge"><title>Node24&#45;&gt;Node16</title>
<path fill="none" stroke="midnightblue" d="M1143.15,-125.218C1146.15,-124.804 1149.11,-124.396 1152,-124 1271.94,-107.571 1313.82,-142.347 1422,-88 1436.52,-80.7064 1465.98,-47.7115 1483.35,-27.3523"/>
<polygon fill="midnightblue" stroke="midnightblue" points="1486.19,-29.4106 1489.97,-19.5124 1480.84,-24.8938 1486.19,-29.4106"/>
</g>
<!-- Node24&#45;&gt;Node14 -->
<g id="edge37" class="edge"><title>Node24&#45;&gt;Node14</title>
<path fill="none" stroke="midnightblue" d="M1079.94,-124.263C1062.89,-105.975 1023.3,-64.6349 1006,-56 930.899,-18.5107 830.027,-11.6619 779.176,-10.7773"/>
<polygon fill="midnightblue" stroke="midnightblue" points="779.148,-7.27688 769.111,-10.6702 779.074,-14.2765 779.148,-7.27688"/>
</g>
<!-- Node24&#45;&gt;Node23 -->
<g id="edge38" class="edge"><title>Node24&#45;&gt;Node23</title>
<path fill="none" stroke="midnightblue" d="M1072.53,-124.403C1054.72,-114.512 1025.26,-98.1442 1004.37,-86.5378"/>
<polygon fill="midnightblue" stroke="midnightblue" points="1005.89,-83.3775 995.445,-81.5806 1002.49,-89.4966 1005.89,-83.3775"/>
</g>
<!-- Node25 -->
<g id="node25" class="node"><title>Node25</title>
<polygon fill="none" stroke="#bfbfbf" points="1054.5,-62.5 1054.5,-81.5 1121.5,-81.5 1121.5,-62.5 1054.5,-62.5"/>
<text text-anchor="middle" x="1088" y="-69.5" font-family="Helvetica,sans-Serif" font-size="10.00">exception.h</text>
</g>
<!-- Node24&#45;&gt;Node25 -->
<g id="edge39" class="edge"><title>Node24&#45;&gt;Node25</title>
<path fill="none" stroke="midnightblue" d="M1088,-124.403C1088,-115.938 1088,-102.728 1088,-91.8199"/>
<polygon fill="midnightblue" stroke="midnightblue" points="1091.5,-91.5806 1088,-81.5806 1084.5,-91.5806 1091.5,-91.5806"/>
</g>
<!-- Node26 -->
<g id="node26" class="node"><title>Node26</title>
<g id="a_node26"><a xlink:href="libutil_8h_source.html" target="_top" xlink:title="libutil/libutil.h">
<polygon fill="none" stroke="black" points="1340.5,-62.5 1340.5,-81.5 1413.5,-81.5 1413.5,-62.5 1340.5,-62.5"/>
<text text-anchor="middle" x="1377" y="-69.5" font-family="Helvetica,sans-Serif" font-size="10.00">libutil/libutil.h</text>
</a>
</g>
</g>
<!-- Node24&#45;&gt;Node26 -->
<g id="edge40" class="edge"><title>Node24&#45;&gt;Node26</title>
<path fill="none" stroke="midnightblue" d="M1143.46,-124.869C1193.01,-117.099 1267.38,-104.187 1331,-88 1334.92,-87.0032 1338.99,-85.851 1343.02,-84.6372"/>
<polygon fill="midnightblue" stroke="midnightblue" points="1344.34,-87.8897 1352.83,-81.5461 1342.24,-81.2132 1344.34,-87.8897"/>
</g>
<!-- Node28 -->
<g id="node28" class="node"><title>Node28</title>
<g id="a_node28"><a xlink:href="libutil_2ref_8h_source.html" target="_top" xlink:title="libutil/ref.h">
<polygon fill="none" stroke="black" points="1260,-62.5 1260,-81.5 1322,-81.5 1322,-62.5 1260,-62.5"/>
<text text-anchor="middle" x="1291" y="-69.5" font-family="Helvetica,sans-Serif" font-size="10.00">libutil/ref.h</text>
</a>
</g>
</g>
<!-- Node24&#45;&gt;Node28 -->
<g id="edge44" class="edge"><title>Node24&#45;&gt;Node28</title>
<path fill="none" stroke="midnightblue" d="M1122.29,-124.485C1155.46,-116.025 1207.02,-102.284 1251,-88 1253.78,-87.0978 1256.65,-86.1183 1259.51,-85.1066"/>
<polygon fill="midnightblue" stroke="midnightblue" points="1260.92,-88.3196 1269.12,-81.6084 1258.52,-81.7424 1260.92,-88.3196"/>
</g>
<!-- Node31 -->
<g id="node31" class="node"><title>Node31</title>
<polygon fill="none" stroke="#bfbfbf" points="1140,-57 1140,-87 1242,-87 1242,-57 1140,-57"/>
<text text-anchor="start" x="1148" y="-75" font-family="Helvetica,sans-Serif" font-size="10.00">boost/python/object</text>
<text text-anchor="middle" x="1191" y="-64" font-family="Helvetica,sans-Serif" font-size="10.00">_fwd.hpp</text>
</g>
<!-- Node24&#45;&gt;Node31 -->
<g id="edge49" class="edge"><title>Node24&#45;&gt;Node31</title>
<path fill="none" stroke="midnightblue" d="M1102.76,-124.403C1117.1,-116.049 1139.37,-103.075 1157.95,-92.2517"/>
<polygon fill="midnightblue" stroke="midnightblue" points="1159.85,-95.1987 1166.72,-87.1408 1156.32,-89.1501 1159.85,-95.1987"/>
</g>
<!-- Node26&#45;&gt;Node16 -->
<g id="edge41" class="edge"><title>Node26&#45;&gt;Node16</title>
<path fill="none" stroke="midnightblue" d="M1394.19,-62.4035C1414.24,-52.3787 1447.6,-35.7006 1470.86,-24.0699"/>
<polygon fill="midnightblue" stroke="midnightblue" points="1472.46,-27.1833 1479.84,-19.5806 1469.33,-20.9223 1472.46,-27.1833"/>
</g>
<!-- Node26&#45;&gt;Node14 -->
<g id="edge42" class="edge"><title>Node26&#45;&gt;Node14</title>
<path fill="none" stroke="midnightblue" d="M1354.36,-62.4299C1347,-59.9692 1338.74,-57.5382 1331,-56 1123.95,-14.8769 868.675,-10.8571 779.538,-10.8073"/>
<polygon fill="midnightblue" stroke="midnightblue" points="779.263,-7.30757 769.267,-10.8194 779.271,-14.3076 779.263,-7.30757"/>
</g>
<!-- Node27 -->
<g id="node27" class="node"><title>Node27</title>
<polygon fill="none" stroke="#bfbfbf" points="1346,-0.5 1346,-19.5 1408,-19.5 1408,-0.5 1346,-0.5"/>
<text text-anchor="middle" x="1377" y="-7.5" font-family="Helvetica,sans-Serif" font-size="10.00">sys/time.h</text>
</g>
<!-- Node26&#45;&gt;Node27 -->
<g id="edge43" class="edge"><title>Node26&#45;&gt;Node27</title>
<path fill="none" stroke="midnightblue" d="M1377,-62.4035C1377,-53.9381 1377,-40.7283 1377,-29.8199"/>
<polygon fill="midnightblue" stroke="midnightblue" points="1380.5,-29.5806 1377,-19.5806 1373.5,-29.5806 1380.5,-29.5806"/>
</g>
<!-- Node29 -->
<g id="node29" class="node"><title>Node29</title>
<polygon fill="none" stroke="#bfbfbf" points="1272.5,-0.5 1272.5,-19.5 1321.5,-19.5 1321.5,-0.5 1272.5,-0.5"/>
<text text-anchor="middle" x="1297" y="-7.5" font-family="Helvetica,sans-Serif" font-size="10.00">cstddef</text>
</g>
<!-- Node28&#45;&gt;Node29 -->
<g id="edge45" class="edge"><title>Node28&#45;&gt;Node29</title>
<path fill="none" stroke="midnightblue" d="M1291.86,-62.4035C1292.71,-53.9381 1294.03,-40.7283 1295.12,-29.8199"/>
<polygon fill="midnightblue" stroke="midnightblue" points="1298.63,-29.8793 1296.14,-19.5806 1291.66,-29.1827 1298.63,-29.8793"/>
</g>
<!-- Node28&#45;&gt;Node2 -->
<g id="edge46" class="edge"><title>Node28&#45;&gt;Node2</title>
<path fill="none" stroke="midnightblue" d="M1271.84,-62.397C1265.35,-59.8704 1257.98,-57.4088 1251,-56 1052.84,-16.0004 543.52,-36.0559 342,-20 327.765,-18.8658 312.07,-17.0682 298.733,-15.3767"/>
<polygon fill="midnightblue" stroke="midnightblue" points="298.984,-11.8798 288.616,-14.0576 298.079,-18.8211 298.984,-11.8798"/>
</g>
<!-- Node28&#45;&gt;Node3 -->
<g id="edge47" class="edge"><title>Node28&#45;&gt;Node3</title>
<path fill="none" stroke="midnightblue" d="M1311.51,-62.413C1317.69,-60.0692 1324.55,-57.7082 1331,-56 1419.25,-32.639 1526.49,-19.5579 1579.34,-14.0871"/>
<polygon fill="midnightblue" stroke="midnightblue" points="1579.87,-17.5518 1589.46,-13.0638 1579.16,-10.5872 1579.87,-17.5518"/>
</g>
<!-- Node30 -->
<g id="node30" class="node"><title>Node30</title>
<polygon fill="none" stroke="#bfbfbf" points="1202,-0.5 1202,-19.5 1254,-19.5 1254,-0.5 1202,-0.5"/>
<text text-anchor="middle" x="1228" y="-7.5" font-family="Helvetica,sans-Serif" font-size="10.00">assert.h</text>
</g>
<!-- Node28&#45;&gt;Node30 -->
<g id="edge48" class="edge"><title>Node28&#45;&gt;Node30</title>
<path fill="none" stroke="midnightblue" d="M1281.97,-62.4035C1272.24,-53.1361 1256.54,-38.1828 1244.58,-26.7876"/>
<polygon fill="midnightblue" stroke="midnightblue" points="1246.66,-23.9427 1237.01,-19.5806 1241.84,-29.0117 1246.66,-23.9427"/>
</g>
<!-- Node33 -->
<g id="node33" class="node"><title>Node33</title>
<polygon fill="none" stroke="#bfbfbf" points="737.5,-62.5 737.5,-81.5 796.5,-81.5 796.5,-62.5 737.5,-62.5"/>
<text text-anchor="middle" x="767" y="-69.5" font-family="Helvetica,sans-Serif" font-size="10.00">exception</text>
</g>
<!-- Node32&#45;&gt;Node33 -->
<g id="edge51" class="edge"><title>Node32&#45;&gt;Node33</title>
<path fill="none" stroke="midnightblue" d="M831.254,-124.403C819.447,-114.958 800.257,-99.6056 785.918,-88.1342"/>
<polygon fill="midnightblue" stroke="midnightblue" points="787.721,-85.0945 777.726,-81.5806 783.348,-90.5606 787.721,-85.0945"/>
</g>
<!-- Node34 -->
<g id="node34" class="node"><title>Node34</title>
<polygon fill="none" stroke="#bfbfbf" points="814.5,-62.5 814.5,-81.5 873.5,-81.5 873.5,-62.5 814.5,-62.5"/>
<text text-anchor="middle" x="844" y="-69.5" font-family="Helvetica,sans-Serif" font-size="10.00">stdexcept</text>
</g>
<!-- Node32&#45;&gt;Node34 -->
<g id="edge52" class="edge"><title>Node32&#45;&gt;Node34</title>
<path fill="none" stroke="midnightblue" d="M842.287,-124.403C842.569,-115.938 843.009,-102.728 843.373,-91.8199"/>
<polygon fill="midnightblue" stroke="midnightblue" points="846.879,-91.6917 843.714,-81.5806 839.883,-91.4584 846.879,-91.6917"/>
</g>
<!-- Node35 -->
<g id="node35" class="node"><title>Node35</title>
<polygon fill="none" stroke="#bfbfbf" points="892,-62.5 892,-81.5 944,-81.5 944,-62.5 892,-62.5"/>
<text text-anchor="middle" x="918" y="-69.5" font-family="Helvetica,sans-Serif" font-size="10.00">sstream</text>
</g>
<!-- Node32&#45;&gt;Node35 -->
<g id="edge53" class="edge"><title>Node32&#45;&gt;Node35</title>
<path fill="none" stroke="midnightblue" d="M852.889,-124.403C864.966,-114.869 884.667,-99.3154 899.24,-87.8106"/>
<polygon fill="midnightblue" stroke="midnightblue" points="901.451,-90.5242 907.131,-81.5806 897.114,-85.03 901.451,-90.5242"/>
</g>
<!-- Node36 -->
<g id="node36" class="node"><title>Node36</title>
<polygon fill="none" stroke="#bfbfbf" points="670.5,-62.5 670.5,-81.5 719.5,-81.5 719.5,-62.5 670.5,-62.5"/>
<text text-anchor="middle" x="695" y="-69.5" font-family="Helvetica,sans-Serif" font-size="10.00">string.h</text>
</g>
<!-- Node32&#45;&gt;Node36 -->
<g id="edge54" class="edge"><title>Node32&#45;&gt;Node36</title>
<path fill="none" stroke="midnightblue" d="M819.151,-124.372C796.036,-115.552 759.34,-101.298 728,-88 726.367,-87.3071 724.694,-86.5849 723.008,-85.8483"/>
<polygon fill="midnightblue" stroke="midnightblue" points="723.986,-82.4522 713.428,-81.5753 721.135,-88.8451 723.986,-82.4522"/>
</g>
<!-- Node32&#45;&gt;Node21 -->
<g id="edge55" class="edge"><title>Node32&#45;&gt;Node21</title>
<path fill="none" stroke="midnightblue" d="M808.269,-125.094C763.177,-114.526 683.06,-95.7484 632.331,-83.8587"/>
<polygon fill="midnightblue" stroke="midnightblue" points="632.82,-80.3787 622.285,-81.5044 631.223,-87.194 632.82,-80.3787"/>
</g>
<!-- Node38 -->
<g id="node38" class="node"><title>Node38</title>
<g id="a_node38"><a xlink:href="compiler_8h_source.html" target="_top" xlink:title="compiler.h">
<polygon fill="none" stroke="black" points="352,-62.5 352,-81.5 414,-81.5 414,-62.5 352,-62.5"/>
<text text-anchor="middle" x="383" y="-69.5" font-family="Helvetica,sans-Serif" font-size="10.00">compiler.h</text>
</a>
</g>
</g>
<!-- Node37&#45;&gt;Node38 -->
<g id="edge57" class="edge"><title>Node37&#45;&gt;Node38</title>
<path fill="none" stroke="midnightblue" d="M652.366,-125.256C575.167,-113.174 433.981,-90.9135 423,-88 419.774,-87.1441 416.446,-86.1256 413.152,-85.0282"/>
<polygon fill="midnightblue" stroke="midnightblue" points="414.101,-81.6505 403.506,-81.5825 411.746,-88.2425 414.101,-81.6505"/>
</g>
<!-- Node40 -->
<g id="node40" class="node"><title>Node40</title>
<g id="a_node40"><a xlink:href="dimension_8h_source.html" target="_top" xlink:title="dimension.h">
<polygon fill="none" stroke="black" points="432.5,-62.5 432.5,-81.5 501.5,-81.5 501.5,-62.5 432.5,-62.5"/>
<text text-anchor="middle" x="467" y="-69.5" font-family="Helvetica,sans-Serif" font-size="10.00">dimension.h</text>
</a>
</g>
</g>
<!-- Node37&#45;&gt;Node40 -->
<g id="edge59" class="edge"><title>Node37&#45;&gt;Node40</title>
<path fill="none" stroke="midnightblue" d="M660.717,-124.487C621.829,-116.183 562.076,-102.685 511,-88 507.456,-86.9811 503.776,-85.8482 500.121,-84.6743"/>
<polygon fill="midnightblue" stroke="midnightblue" points="501.208,-81.3475 490.615,-81.5217 499.005,-87.9917 501.208,-81.3475"/>
</g>
<!-- Node39 -->
<g id="node39" class="node"><title>Node39</title>
<polygon fill="none" stroke="#bfbfbf" points="351,-0.5 351,-19.5 415,-19.5 415,-0.5 351,-0.5"/>
<text text-anchor="middle" x="383" y="-7.5" font-family="Helvetica,sans-Serif" font-size="10.00">psiconfig.h</text>
</g>
<!-- Node38&#45;&gt;Node39 -->
<g id="edge58" class="edge"><title>Node38&#45;&gt;Node39</title>
<path fill="none" stroke="midnightblue" d="M383,-62.4035C383,-53.9381 383,-40.7283 383,-29.8199"/>
<polygon fill="midnightblue" stroke="midnightblue" points="386.5,-29.5806 383,-19.5806 379.5,-29.5806 386.5,-29.5806"/>
</g>
<!-- Node40&#45;&gt;Node16 -->
<g id="edge60" class="edge"><title>Node40&#45;&gt;Node16</title>
<path fill="none" stroke="midnightblue" d="M488.152,-62.4085C495.292,-59.8826 503.383,-57.4186 511,-56 907.172,17.7844 1015.17,-50.5457 1417,-20 1433.26,-18.7639 1451.32,-16.785 1466.16,-14.9971"/>
<polygon fill="midnightblue" stroke="midnightblue" points="1466.82,-18.4413 1476.32,-13.7424 1465.97,-11.4941 1466.82,-18.4413"/>
</g>
<!-- Node40&#45;&gt;Node2 -->
<g id="edge61" class="edge"><title>Node40&#45;&gt;Node2</title>
<path fill="none" stroke="midnightblue" d="M442.401,-62.3827C436.096,-60.2379 429.313,-57.9854 423,-56 380.119,-42.5144 330.126,-28.3678 298.522,-19.6169"/>
<polygon fill="midnightblue" stroke="midnightblue" points="299.117,-16.1502 288.546,-16.8648 297.255,-22.8982 299.117,-16.1502"/>
</g>
<!-- Node40&#45;&gt;Node14 -->
<g id="edge62" class="edge"><title>Node40&#45;&gt;Node14</title>
<path fill="none" stroke="midnightblue" d="M490.106,-62.4443C496.789,-60.1552 504.134,-57.8154 511,-56 583.015,-36.9591 669.406,-22.5847 715.067,-15.6325"/>
<polygon fill="midnightblue" stroke="midnightblue" points="715.602,-19.0916 724.97,-14.1443 714.561,-12.1693 715.602,-19.0916"/>
</g>
</g>
</svg>
