<?xml version="1.0" encoding="UTF-8" standalone="no"?>
<!DOCTYPE svg PUBLIC "-//W3C//DTD SVG 1.1//EN"
 "http://www.w3.org/Graphics/SVG/1.1/DTD/svg11.dtd">
<!-- Generated by graphviz version 2.30.1 (20140110.0959)
 -->
<!-- Title: buf4_mat_irrep_init.cc Pages: 1 -->
<svg width="512pt" height="140pt"
 viewBox="0.00 0.00 512.08 140.00" xmlns="http://www.w3.org/2000/svg" xmlns:xlink="http://www.w3.org/1999/xlink">
<g id="graph0" class="graph" transform="scale(1 1) rotate(0) translate(4 136)">
<title>buf4_mat_irrep_init.cc</title>
<!-- Node1 -->
<g id="node1" class="node"><title>Node1</title>
<polygon fill="#bfbfbf" stroke="black" points="50.579,-112.5 50.579,-131.5 163.579,-131.5 163.579,-112.5 50.579,-112.5"/>
<text text-anchor="middle" x="107.079" y="-119.5" font-family="Helvetica,sans-Serif" font-size="10.00">buf4_mat_irrep_init.cc</text>
</g>
<!-- Node2 -->
<g id="node2" class="node"><title>Node2</title>
<polygon fill="none" stroke="#bfbfbf" points="39.579,-0.5 39.579,-19.5 82.579,-19.5 82.579,-0.5 39.579,-0.5"/>
<text text-anchor="middle" x="61.079" y="-7.5" font-family="Helvetica,sans-Serif" font-size="10.00">cstdio</text>
</g>
<!-- Node1&#45;&gt;Node2 -->
<g id="edge1" class="edge"><title>Node1&#45;&gt;Node2</title>
<path fill="none" stroke="midnightblue" d="M59.7464,-112.422C38.9765,-106.051 16.5272,-95.0229 4.07899,-76 -8.52084,-56.7454 14.4141,-37.2406 34.8408,-24.691"/>
<polygon fill="midnightblue" stroke="midnightblue" points="36.7258,-27.6439 43.6212,-19.5999 33.2146,-21.5882 36.7258,-27.6439"/>
</g>
<!-- Node3 -->
<g id="node3" class="node"><title>Node3</title>
<g id="a_node3"><a xlink:href="libciomr_8h_source.html" target="_top" xlink:title="libciomr/libciomr.h">
<polygon fill="none" stroke="black" points="13.579,-56.5 13.579,-75.5 108.579,-75.5 108.579,-56.5 13.579,-56.5"/>
<text text-anchor="middle" x="61.079" y="-63.5" font-family="Helvetica,sans-Serif" font-size="10.00">libciomr/libciomr.h</text>
</a>
</g>
</g>
<!-- Node1&#45;&gt;Node3 -->
<g id="edge2" class="edge"><title>Node1&#45;&gt;Node3</title>
<path fill="none" stroke="midnightblue" d="M99.483,-112.083C92.8515,-104.298 83.058,-92.8015 75.0208,-83.3665"/>
<polygon fill="midnightblue" stroke="midnightblue" points="77.6827,-81.0939 68.5336,-75.7511 72.354,-85.6332 77.6827,-81.0939"/>
</g>
<!-- Node4 -->
<g id="node4" class="node"><title>Node4</title>
<g id="a_node4"><a xlink:href="qt_8h.html" target="_top" xlink:title="Header file for the Quantum Trio LibraryDavid Sherrill 1994.">
<polygon fill="none" stroke="black" points="127.079,-56.5 127.079,-75.5 181.079,-75.5 181.079,-56.5 127.079,-56.5"/>
<text text-anchor="middle" x="154.079" y="-63.5" font-family="Helvetica,sans-Serif" font-size="10.00">libqt/qt.h</text>
</a>
</g>
</g>
<!-- Node1&#45;&gt;Node4 -->
<g id="edge4" class="edge"><title>Node1&#45;&gt;Node4</title>
<path fill="none" stroke="midnightblue" d="M114.84,-112.083C121.616,-104.298 131.622,-92.8015 139.834,-83.3665"/>
<polygon fill="midnightblue" stroke="midnightblue" points="142.537,-85.592 146.462,-75.7511 137.257,-80.9963 142.537,-85.592"/>
</g>
<!-- Node6 -->
<g id="node6" class="node"><title>Node6</title>
<g id="a_node6"><a xlink:href="lib_2libdpd_2dpd_8h.html" target="_top" xlink:title="Enter brief description of file here.">
<polygon fill="none" stroke="black" points="243.579,-56.5 243.579,-75.5 284.579,-75.5 284.579,-56.5 243.579,-56.5"/>
<text text-anchor="middle" x="264.079" y="-63.5" font-family="Helvetica,sans-Serif" font-size="10.00">dpd.h</text>
</a>
</g>
</g>
<!-- Node1&#45;&gt;Node6 -->
<g id="edge7" class="edge"><title>Node1&#45;&gt;Node6</title>
<path fill="none" stroke="midnightblue" d="M131.956,-112.444C159.491,-102.973 203.886,-87.7032 233.516,-77.512"/>
<polygon fill="midnightblue" stroke="midnightblue" points="235.011,-80.6991 243.329,-74.1368 232.735,-74.0797 235.011,-80.6991"/>
</g>
<!-- Node3&#45;&gt;Node2 -->
<g id="edge3" class="edge"><title>Node3&#45;&gt;Node2</title>
<path fill="none" stroke="midnightblue" d="M61.079,-56.083C61.079,-49.0059 61.079,-38.8611 61.079,-29.9865"/>
<polygon fill="midnightblue" stroke="midnightblue" points="64.5791,-29.751 61.079,-19.7511 57.5791,-29.7511 64.5791,-29.751"/>
</g>
<!-- Node4&#45;&gt;Node2 -->
<g id="edge5" class="edge"><title>Node4&#45;&gt;Node2</title>
<path fill="none" stroke="midnightblue" d="M139.137,-56.324C124.494,-47.8215 101.945,-34.7288 84.8413,-24.7975"/>
<polygon fill="midnightblue" stroke="midnightblue" points="86.3894,-21.6491 75.984,-19.6545 82.8744,-27.7027 86.3894,-21.6491"/>
</g>
<!-- Node5 -->
<g id="node5" class="node"><title>Node5</title>
<polygon fill="none" stroke="#bfbfbf" points="100.579,-0.5 100.579,-19.5 141.579,-19.5 141.579,-0.5 100.579,-0.5"/>
<text text-anchor="middle" x="121.079" y="-7.5" font-family="Helvetica,sans-Serif" font-size="10.00">string</text>
</g>
<!-- Node4&#45;&gt;Node5 -->
<g id="edge6" class="edge"><title>Node4&#45;&gt;Node5</title>
<path fill="none" stroke="midnightblue" d="M148.63,-56.083C144.065,-48.6127 137.411,-37.7244 131.786,-28.5199"/>
<polygon fill="midnightblue" stroke="midnightblue" points="134.628,-26.4588 126.427,-19.7511 128.655,-30.109 134.628,-26.4588"/>
</g>
<!-- Node6&#45;&gt;Node2 -->
<g id="edge8" class="edge"><title>Node6&#45;&gt;Node2</title>
<path fill="none" stroke="midnightblue" d="M243.507,-59.9107C212.677,-52.2277 152.447,-37.0031 92.325,-20.2805"/>
<polygon fill="midnightblue" stroke="midnightblue" points="93.2544,-16.9062 82.6813,-17.5847 91.3698,-23.6477 93.2544,-16.9062"/>
</g>
<!-- Node7 -->
<g id="node7" class="node"><title>Node7</title>
<g id="a_node7"><a xlink:href="psifiles_8h_source.html" target="_top" xlink:title="psifiles.h">
<polygon fill="none" stroke="black" points="348.079,-0.5 348.079,-19.5 404.079,-19.5 404.079,-0.5 348.079,-0.5"/>
<text text-anchor="middle" x="376.079" y="-7.5" font-family="Helvetica,sans-Serif" font-size="10.00">psifiles.h</text>
</a>
</g>
</g>
<!-- Node6&#45;&gt;Node7 -->
<g id="edge9" class="edge"><title>Node6&#45;&gt;Node7</title>
<path fill="none" stroke="midnightblue" d="M282.074,-56.324C300.117,-47.6247 328.126,-34.1202 348.882,-24.113"/>
<polygon fill="midnightblue" stroke="midnightblue" points="350.641,-27.1502 358.129,-19.6545 347.601,-20.8449 350.641,-27.1502"/>
</g>
<!-- Node8 -->
<g id="node8" class="node"><title>Node8</title>
<g id="a_node8"><a xlink:href="libpsio_2config_8h_source.html" target="_top" xlink:title="libpsio/config.h">
<polygon fill="none" stroke="black" points="422.079,-0.5 422.079,-19.5 504.079,-19.5 504.079,-0.5 422.079,-0.5"/>
<text text-anchor="middle" x="463.079" y="-7.5" font-family="Helvetica,sans-Serif" font-size="10.00">libpsio/config.h</text>
</a>
</g>
</g>
<!-- Node6&#45;&gt;Node8 -->
<g id="edge10" class="edge"><title>Node6&#45;&gt;Node8</title>
<path fill="none" stroke="midnightblue" d="M284.626,-59.4244C316.827,-50.6865 379.819,-33.5933 421.684,-22.2329"/>
<polygon fill="midnightblue" stroke="midnightblue" points="422.845,-25.5444 431.579,-19.5476 421.012,-18.7887 422.845,-25.5444"/>
</g>
<!-- Node9 -->
<g id="node9" class="node"><title>Node9</title>
<polygon fill="none" stroke="#bfbfbf" points="160.079,-0.5 160.079,-19.5 268.079,-19.5 268.079,-0.5 160.079,-0.5"/>
<text text-anchor="middle" x="214.079" y="-7.5" font-family="Helvetica,sans-Serif" font-size="10.00">boost/shared_ptr.hpp</text>
</g>
<!-- Node6&#45;&gt;Node9 -->
<g id="edge11" class="edge"><title>Node6&#45;&gt;Node9</title>
<path fill="none" stroke="midnightblue" d="M255.823,-56.083C248.614,-48.2982 237.969,-36.8015 229.233,-27.3665"/>
<polygon fill="midnightblue" stroke="midnightblue" points="231.544,-24.7108 222.182,-19.7511 226.408,-29.4666 231.544,-24.7108"/>
</g>
<!-- Node10 -->
<g id="node10" class="node"><title>Node10</title>
<polygon fill="none" stroke="#bfbfbf" points="286.079,-0.5 286.079,-19.5 330.079,-19.5 330.079,-0.5 286.079,-0.5"/>
<text text-anchor="middle" x="308.079" y="-7.5" font-family="Helvetica,sans-Serif" font-size="10.00">vector</text>
</g>
<!-- Node6&#45;&gt;Node10 -->
<g id="edge12" class="edge"><title>Node6&#45;&gt;Node10</title>
<path fill="none" stroke="midnightblue" d="M271.345,-56.083C277.624,-48.3768 286.867,-37.0333 294.51,-27.6531"/>
<polygon fill="midnightblue" stroke="midnightblue" points="297.345,-29.7143 300.948,-19.7511 291.918,-25.2926 297.345,-29.7143"/>
</g>
</g>
</svg>
