<?xml version="1.0" encoding="UTF-8" standalone="no"?>
<!DOCTYPE svg PUBLIC "-//W3C//DTD SVG 1.1//EN"
 "http://www.w3.org/Graphics/SVG/1.1/DTD/svg11.dtd">
<!-- Generated by graphviz version 2.30.1 (20140110.0959)
 -->
<!-- Title: buf_flush.cc Pages: 1 -->
<svg width="454pt" height="196pt"
 viewBox="0.00 0.00 454.03 196.00" xmlns="http://www.w3.org/2000/svg" xmlns:xlink="http://www.w3.org/1999/xlink">
<g id="graph0" class="graph" transform="scale(1 1) rotate(0) translate(4 192)">
<title>buf_flush.cc</title>
<!-- Node1 -->
<g id="node1" class="node"><title>Node1</title>
<polygon fill="#bfbfbf" stroke="black" points="71.0254,-168.5 71.0254,-187.5 141.025,-187.5 141.025,-168.5 71.0254,-168.5"/>
<text text-anchor="middle" x="106.025" y="-175.5" font-family="Helvetica,sans-Serif" font-size="10.00">buf_flush.cc</text>
</g>
<!-- Node2 -->
<g id="node2" class="node"><title>Node2</title>
<polygon fill="none" stroke="#bfbfbf" points="51.5254,-0.5 51.5254,-19.5 94.5254,-19.5 94.5254,-0.5 51.5254,-0.5"/>
<text text-anchor="middle" x="73.0254" y="-7.5" font-family="Helvetica,sans-Serif" font-size="10.00">cstdio</text>
</g>
<!-- Node1&#45;&gt;Node2 -->
<g id="edge1" class="edge"><title>Node1&#45;&gt;Node2</title>
<path fill="none" stroke="midnightblue" d="M70.8149,-170.966C48.3968,-165.105 21.0285,-153.747 7.02543,-132 -16.5723,-95.3526 26.8276,-49.5956 53.8287,-26.2474"/>
<polygon fill="midnightblue" stroke="midnightblue" points="56.1647,-28.8565 61.5895,-19.7558 51.6735,-23.4872 56.1647,-28.8565"/>
</g>
<!-- Node3 -->
<g id="node3" class="node"><title>Node3</title>
<g id="a_node3"><a xlink:href="libciomr_8h_source.html" target="_top" xlink:title="libciomr/libciomr.h">
<polygon fill="none" stroke="black" points="16.5254,-112.5 16.5254,-131.5 111.525,-131.5 111.525,-112.5 16.5254,-112.5"/>
<text text-anchor="middle" x="64.0254" y="-119.5" font-family="Helvetica,sans-Serif" font-size="10.00">libciomr/libciomr.h</text>
</a>
</g>
</g>
<!-- Node1&#45;&gt;Node3 -->
<g id="edge2" class="edge"><title>Node1&#45;&gt;Node3</title>
<path fill="none" stroke="midnightblue" d="M99.09,-168.083C93.0963,-160.377 84.2736,-149.033 76.9778,-139.653"/>
<polygon fill="midnightblue" stroke="midnightblue" points="79.734,-137.496 70.8318,-131.751 74.2085,-141.793 79.734,-137.496"/>
</g>
<!-- Node4 -->
<g id="node4" class="node"><title>Node4</title>
<g id="a_node4"><a xlink:href="iwl_8h_source.html" target="_top" xlink:title="iwl.h">
<polygon fill="none" stroke="black" points="129.525,-112.5 129.525,-131.5 166.525,-131.5 166.525,-112.5 129.525,-112.5"/>
<text text-anchor="middle" x="148.025" y="-119.5" font-family="Helvetica,sans-Serif" font-size="10.00">iwl.h</text>
</a>
</g>
</g>
<!-- Node1&#45;&gt;Node4 -->
<g id="edge4" class="edge"><title>Node1&#45;&gt;Node4</title>
<path fill="none" stroke="midnightblue" d="M112.961,-168.083C118.955,-160.377 127.777,-149.033 135.073,-139.653"/>
<polygon fill="midnightblue" stroke="midnightblue" points="137.842,-141.793 141.219,-131.751 132.317,-137.496 137.842,-141.793"/>
</g>
<!-- Node8 -->
<g id="node8" class="node"><title>Node8</title>
<g id="a_node8"><a xlink:href="iwl_8hpp_source.html" target="_top" xlink:title="iwl.hpp">
<polygon fill="none" stroke="black" points="222.525,-112.5 222.525,-131.5 269.525,-131.5 269.525,-112.5 222.525,-112.5"/>
<text text-anchor="middle" x="246.025" y="-119.5" font-family="Helvetica,sans-Serif" font-size="10.00">iwl.hpp</text>
</a>
</g>
</g>
<!-- Node1&#45;&gt;Node8 -->
<g id="edge10" class="edge"><title>Node1&#45;&gt;Node8</title>
<path fill="none" stroke="midnightblue" d="M128.209,-168.444C151.454,-159.478 188.174,-145.314 214.441,-135.183"/>
<polygon fill="midnightblue" stroke="midnightblue" points="215.875,-138.381 223.946,-131.516 213.356,-131.85 215.875,-138.381"/>
</g>
<!-- Node3&#45;&gt;Node2 -->
<g id="edge3" class="edge"><title>Node3&#45;&gt;Node2</title>
<path fill="none" stroke="midnightblue" d="M62.0728,-112.121C59.5983,-99.5621 55.9987,-75.9175 59.0254,-56 60.3929,-47.001 63.2158,-37.3251 65.9709,-29.2601"/>
<polygon fill="midnightblue" stroke="midnightblue" points="69.2907,-30.3722 69.4255,-19.7782 62.7136,-27.9759 69.2907,-30.3722"/>
</g>
<!-- Node4&#45;&gt;Node2 -->
<g id="edge5" class="edge"><title>Node4&#45;&gt;Node2</title>
<path fill="none" stroke="midnightblue" d="M132.772,-112.402C120.093,-104.501 102.49,-91.6583 92.0254,-76 82.7368,-62.1012 77.905,-43.5898 75.4447,-29.8773"/>
<polygon fill="midnightblue" stroke="midnightblue" points="78.8593,-29.0513 73.89,-19.6942 71.9394,-30.1079 78.8593,-29.0513"/>
</g>
<!-- Node5 -->
<g id="node5" class="node"><title>Node5</title>
<g id="a_node5"><a xlink:href="psio_8h_source.html" target="_top" xlink:title="libpsio/psio.h">
<polygon fill="none" stroke="black" points="101.025,-56.5 101.025,-75.5 175.025,-75.5 175.025,-56.5 101.025,-56.5"/>
<text text-anchor="middle" x="138.025" y="-63.5" font-family="Helvetica,sans-Serif" font-size="10.00">libpsio/psio.h</text>
</a>
</g>
</g>
<!-- Node4&#45;&gt;Node5 -->
<g id="edge6" class="edge"><title>Node4&#45;&gt;Node5</title>
<path fill="none" stroke="midnightblue" d="M146.374,-112.083C145.049,-104.927 143.143,-94.6353 141.487,-85.6911"/>
<polygon fill="midnightblue" stroke="midnightblue" points="144.908,-84.9466 139.646,-75.7511 138.025,-86.2212 144.908,-84.9466"/>
</g>
<!-- Node7 -->
<g id="node7" class="node"><title>Node7</title>
<g id="a_node7"><a xlink:href="libiwl_2config_8h_source.html" target="_top" xlink:title="config.h">
<polygon fill="none" stroke="black" points="193.525,-56.5 193.525,-75.5 244.525,-75.5 244.525,-56.5 193.525,-56.5"/>
<text text-anchor="middle" x="219.025" y="-63.5" font-family="Helvetica,sans-Serif" font-size="10.00">config.h</text>
</a>
</g>
</g>
<!-- Node4&#45;&gt;Node7 -->
<g id="edge9" class="edge"><title>Node4&#45;&gt;Node7</title>
<path fill="none" stroke="midnightblue" d="M159.433,-112.324C170.134,-104.185 186.366,-91.8395 199.188,-82.0874"/>
<polygon fill="midnightblue" stroke="midnightblue" points="201.57,-84.6734 207.41,-75.8339 197.332,-79.1018 201.57,-84.6734"/>
</g>
<!-- Node5&#45;&gt;Node2 -->
<g id="edge7" class="edge"><title>Node5&#45;&gt;Node2</title>
<path fill="none" stroke="midnightblue" d="M127.582,-56.324C117.879,-48.2631 103.21,-36.0765 91.5257,-26.3695"/>
<polygon fill="midnightblue" stroke="midnightblue" points="93.5873,-23.532 83.6588,-19.8339 89.1142,-28.9163 93.5873,-23.532"/>
</g>
<!-- Node6 -->
<g id="node6" class="node"><title>Node6</title>
<g id="a_node6"><a xlink:href="libpsio_2config_8h_source.html" target="_top" xlink:title="libpsio/config.h">
<polygon fill="none" stroke="black" points="143.025,-0.5 143.025,-19.5 225.025,-19.5 225.025,-0.5 143.025,-0.5"/>
<text text-anchor="middle" x="184.025" y="-7.5" font-family="Helvetica,sans-Serif" font-size="10.00">libpsio/config.h</text>
</a>
</g>
</g>
<!-- Node5&#45;&gt;Node6 -->
<g id="edge8" class="edge"><title>Node5&#45;&gt;Node6</title>
<path fill="none" stroke="midnightblue" d="M145.621,-56.083C152.253,-48.2982 162.046,-36.8015 170.084,-27.3665"/>
<polygon fill="midnightblue" stroke="midnightblue" points="172.75,-29.6332 176.571,-19.7511 167.422,-25.0939 172.75,-29.6332"/>
</g>
<!-- Node8&#45;&gt;Node2 -->
<g id="edge11" class="edge"><title>Node8&#45;&gt;Node2</title>
<path fill="none" stroke="midnightblue" d="M250.425,-112.374C256.639,-98.8383 265.878,-72.4608 253.025,-56 243.86,-44.2618 154.005,-25.9998 104.822,-16.7648"/>
<polygon fill="midnightblue" stroke="midnightblue" points="105.171,-13.2699 94.6999,-14.8839 103.892,-20.1521 105.171,-13.2699"/>
</g>
<!-- Node9 -->
<g id="node9" class="node"><title>Node9</title>
<g id="a_node9"><a xlink:href="psio_8hpp_source.html" target="_top" xlink:title="libpsio/psio.hpp">
<polygon fill="none" stroke="black" points="301.025,-56.5 301.025,-75.5 385.025,-75.5 385.025,-56.5 301.025,-56.5"/>
<text text-anchor="middle" x="343.025" y="-63.5" font-family="Helvetica,sans-Serif" font-size="10.00">libpsio/psio.hpp</text>
</a>
</g>
</g>
<!-- Node8&#45;&gt;Node9 -->
<g id="edge12" class="edge"><title>Node8&#45;&gt;Node9</title>
<path fill="none" stroke="midnightblue" d="M261.61,-112.324C277.025,-103.743 300.838,-90.486 318.735,-80.5224"/>
<polygon fill="midnightblue" stroke="midnightblue" points="320.444,-83.5767 327.479,-75.6545 317.04,-77.4606 320.444,-83.5767"/>
</g>
<!-- Node8&#45;&gt;Node7 -->
<g id="edge18" class="edge"><title>Node8&#45;&gt;Node7</title>
<path fill="none" stroke="midnightblue" d="M241.567,-112.083C237.871,-104.691 232.502,-93.9533 227.931,-84.8111"/>
<polygon fill="midnightblue" stroke="midnightblue" points="231.004,-83.1301 223.401,-75.7511 224.743,-86.2606 231.004,-83.1301"/>
</g>
<!-- Node10 -->
<g id="node10" class="node"><title>Node10</title>
<polygon fill="none" stroke="#bfbfbf" points="352.525,-0.5 352.525,-19.5 393.525,-19.5 393.525,-0.5 352.525,-0.5"/>
<text text-anchor="middle" x="373.025" y="-7.5" font-family="Helvetica,sans-Serif" font-size="10.00">string</text>
</g>
<!-- Node9&#45;&gt;Node10 -->
<g id="edge13" class="edge"><title>Node9&#45;&gt;Node10</title>
<path fill="none" stroke="midnightblue" d="M347.979,-56.083C352.129,-48.6127 358.179,-37.7244 363.292,-28.5199"/>
<polygon fill="midnightblue" stroke="midnightblue" points="366.367,-30.1924 368.164,-19.7511 360.248,-26.7929 366.367,-30.1924"/>
</g>
<!-- Node11 -->
<g id="node11" class="node"><title>Node11</title>
<polygon fill="none" stroke="#bfbfbf" points="411.525,-0.5 411.525,-19.5 446.525,-19.5 446.525,-0.5 411.525,-0.5"/>
<text text-anchor="middle" x="429.025" y="-7.5" font-family="Helvetica,sans-Serif" font-size="10.00">map</text>
</g>
<!-- Node9&#45;&gt;Node11 -->
<g id="edge14" class="edge"><title>Node9&#45;&gt;Node11</title>
<path fill="none" stroke="midnightblue" d="M356.843,-56.324C370.258,-47.9002 390.85,-34.9709 406.611,-25.0741"/>
<polygon fill="midnightblue" stroke="midnightblue" points="408.635,-27.9364 415.242,-19.6545 404.912,-22.0081 408.635,-27.9364"/>
</g>
<!-- Node12 -->
<g id="node12" class="node"><title>Node12</title>
<polygon fill="none" stroke="#bfbfbf" points="243.025,-0.5 243.025,-19.5 273.025,-19.5 273.025,-0.5 243.025,-0.5"/>
<text text-anchor="middle" x="258.025" y="-7.5" font-family="Helvetica,sans-Serif" font-size="10.00">set</text>
</g>
<!-- Node9&#45;&gt;Node12 -->
<g id="edge15" class="edge"><title>Node9&#45;&gt;Node12</title>
<path fill="none" stroke="midnightblue" d="M329.369,-56.324C316.109,-47.9002 295.757,-34.9709 280.179,-25.0741"/>
<polygon fill="midnightblue" stroke="midnightblue" points="281.966,-22.0626 271.648,-19.6545 278.212,-27.9711 281.966,-22.0626"/>
</g>
<!-- Node13 -->
<g id="node13" class="node"><title>Node13</title>
<polygon fill="none" stroke="#bfbfbf" points="291.525,-0.5 291.525,-19.5 334.525,-19.5 334.525,-0.5 291.525,-0.5"/>
<text text-anchor="middle" x="313.025" y="-7.5" font-family="Helvetica,sans-Serif" font-size="10.00">queue</text>
</g>
<!-- Node9&#45;&gt;Node13 -->
<g id="edge16" class="edge"><title>Node9&#45;&gt;Node13</title>
<path fill="none" stroke="midnightblue" d="M338.072,-56.083C333.921,-48.6127 327.872,-37.7244 322.759,-28.5199"/>
<polygon fill="midnightblue" stroke="midnightblue" points="325.803,-26.7929 317.887,-19.7511 319.684,-30.1924 325.803,-26.7929"/>
</g>
<!-- Node9&#45;&gt;Node6 -->
<g id="edge17" class="edge"><title>Node9&#45;&gt;Node6</title>
<path fill="none" stroke="midnightblue" d="M317.831,-56.4435C291.083,-47.3591 248.623,-32.9388 218.72,-22.7831"/>
<polygon fill="midnightblue" stroke="midnightblue" points="219.696,-19.4182 209.102,-19.5164 217.445,-26.0464 219.696,-19.4182"/>
</g>
</g>
</svg>
