<?xml version="1.0" encoding="UTF-8" standalone="no"?>
<!DOCTYPE svg PUBLIC "-//W3C//DTD SVG 1.1//EN"
 "http://www.w3.org/Graphics/SVG/1.1/DTD/svg11.dtd">
<!-- Generated by graphviz version 2.30.1 (20140110.0959)
 -->
<!-- Title: build_Z_ROHF.cc Pages: 1 -->
<svg width="776pt" height="196pt"
 viewBox="0.00 0.00 776.00 196.00" xmlns="http://www.w3.org/2000/svg" xmlns:xlink="http://www.w3.org/1999/xlink">
<g id="graph0" class="graph" transform="scale(1 1) rotate(0) translate(4 192)">
<title>build_Z_ROHF.cc</title>
<!-- Node1 -->
<g id="node1" class="node"><title>Node1</title>
<polygon fill="#bfbfbf" stroke="black" points="442.5,-168.5 442.5,-187.5 537.5,-187.5 537.5,-168.5 442.5,-168.5"/>
<text text-anchor="middle" x="490" y="-175.5" font-family="Helvetica,sans-Serif" font-size="10.00">build_Z_ROHF.cc</text>
</g>
<!-- Node2 -->
<g id="node2" class="node"><title>Node2</title>
<g id="a_node2"><a xlink:href="lib_2libdpd_2dpd_8h.html" target="_top" xlink:title="Enter brief description of file here.">
<polygon fill="none" stroke="black" points="172.5,-56.5 172.5,-75.5 241.5,-75.5 241.5,-56.5 172.5,-56.5"/>
<text text-anchor="middle" x="207" y="-63.5" font-family="Helvetica,sans-Serif" font-size="10.00">libdpd/dpd.h</text>
</a>
</g>
</g>
<!-- Node1&#45;&gt;Node2 -->
<g id="edge1" class="edge"><title>Node1&#45;&gt;Node2</title>
<path fill="none" stroke="midnightblue" d="M442.156,-176.942C393.147,-174.851 316.361,-165.783 260,-132 240.945,-120.578 225.777,-99.6817 216.631,-84.6618"/>
<polygon fill="midnightblue" stroke="midnightblue" points="219.544,-82.7067 211.511,-75.7989 213.483,-86.2086 219.544,-82.7067"/>
</g>
<!-- Node8 -->
<g id="node8" class="node"><title>Node8</title>
<g id="a_node8"><a xlink:href="qt_8h.html" target="_top" xlink:title="Header file for the Quantum Trio LibraryDavid Sherrill 1994.">
<polygon fill="none" stroke="black" points="426,-112.5 426,-131.5 480,-131.5 480,-112.5 426,-112.5"/>
<text text-anchor="middle" x="453" y="-119.5" font-family="Helvetica,sans-Serif" font-size="10.00">libqt/qt.h</text>
</a>
</g>
</g>
<!-- Node1&#45;&gt;Node8 -->
<g id="edge7" class="edge"><title>Node1&#45;&gt;Node8</title>
<path fill="none" stroke="midnightblue" d="M483.89,-168.083C478.718,-160.534 471.154,-149.495 464.806,-140.23"/>
<polygon fill="midnightblue" stroke="midnightblue" points="467.536,-138.022 458.996,-131.751 461.761,-141.979 467.536,-138.022"/>
</g>
<!-- Node10 -->
<g id="node10" class="node"><title>Node10</title>
<g id="a_node10"><a xlink:href="libciomr_8h_source.html" target="_top" xlink:title="libciomr/libciomr.h">
<polygon fill="none" stroke="black" points="352.5,-56.5 352.5,-75.5 447.5,-75.5 447.5,-56.5 352.5,-56.5"/>
<text text-anchor="middle" x="400" y="-63.5" font-family="Helvetica,sans-Serif" font-size="10.00">libciomr/libciomr.h</text>
</a>
</g>
</g>
<!-- Node1&#45;&gt;Node10 -->
<g id="edge10" class="edge"><title>Node1&#45;&gt;Node10</title>
<path fill="none" stroke="midnightblue" d="M467.289,-168.44C450.958,-161.149 429.665,-149.113 417,-132 407.134,-118.668 402.983,-100.094 401.243,-86.2136"/>
<polygon fill="midnightblue" stroke="midnightblue" points="404.692,-85.5063 400.275,-75.8761 397.722,-86.1589 404.692,-85.5063"/>
</g>
<!-- Node11 -->
<g id="node11" class="node"><title>Node11</title>
<polygon fill="none" stroke="#bfbfbf" points="576,-112.5 576,-131.5 620,-131.5 620,-112.5 576,-112.5"/>
<text text-anchor="middle" x="598" y="-119.5" font-family="Helvetica,sans-Serif" font-size="10.00">cmath</text>
</g>
<!-- Node1&#45;&gt;Node11 -->
<g id="edge12" class="edge"><title>Node1&#45;&gt;Node11</title>
<path fill="none" stroke="midnightblue" d="M507.352,-168.324C524.672,-159.664 551.515,-146.242 571.502,-136.249"/>
<polygon fill="midnightblue" stroke="midnightblue" points="573.312,-139.257 580.691,-131.655 570.181,-132.996 573.312,-139.257"/>
</g>
<!-- Node12 -->
<g id="node12" class="node"><title>Node12</title>
<g id="a_node12"><a xlink:href="ccdensity_2MOInfo_8h.html" target="_top" xlink:title="Enter brief description of file here.">
<polygon fill="none" stroke="black" points="638.5,-112.5 638.5,-131.5 695.5,-131.5 695.5,-112.5 638.5,-112.5"/>
<text text-anchor="middle" x="667" y="-119.5" font-family="Helvetica,sans-Serif" font-size="10.00">MOInfo.h</text>
</a>
</g>
</g>
<!-- Node1&#45;&gt;Node12 -->
<g id="edge13" class="edge"><title>Node1&#45;&gt;Node12</title>
<path fill="none" stroke="midnightblue" d="M518.046,-168.444C548.082,-159.28 595.913,-144.688 629.243,-134.519"/>
<polygon fill="midnightblue" stroke="midnightblue" points="630.542,-137.782 639.085,-131.516 628.499,-131.087 630.542,-137.782"/>
</g>
<!-- Node13 -->
<g id="node13" class="node"><title>Node13</title>
<g id="a_node13"><a xlink:href="ccdensity_2Params_8h.html" target="_top" xlink:title="Enter brief description of file here.">
<polygon fill="none" stroke="black" points="498.5,-112.5 498.5,-131.5 557.5,-131.5 557.5,-112.5 498.5,-112.5"/>
<text text-anchor="middle" x="528" y="-119.5" font-family="Helvetica,sans-Serif" font-size="10.00">Params.h</text>
</a>
</g>
</g>
<!-- Node1&#45;&gt;Node13 -->
<g id="edge14" class="edge"><title>Node1&#45;&gt;Node13</title>
<path fill="none" stroke="midnightblue" d="M496.275,-168.083C501.642,-160.455 509.518,-149.264 516.079,-139.941"/>
<polygon fill="midnightblue" stroke="midnightblue" points="518.949,-141.943 521.842,-131.751 513.225,-137.915 518.949,-141.943"/>
</g>
<!-- Node14 -->
<g id="node14" class="node"><title>Node14</title>
<g id="a_node14"><a xlink:href="Frozen_8h.html" target="_top" xlink:title="Enter brief description of file here.">
<polygon fill="none" stroke="black" points="713.5,-112.5 713.5,-131.5 768.5,-131.5 768.5,-112.5 713.5,-112.5"/>
<text text-anchor="middle" x="741" y="-119.5" font-family="Helvetica,sans-Serif" font-size="10.00">Frozen.h</text>
</a>
</g>
</g>
<!-- Node1&#45;&gt;Node14 -->
<g id="edge16" class="edge"><title>Node1&#45;&gt;Node14</title>
<path fill="none" stroke="midnightblue" d="M532.719,-168.428C573.863,-160.079 638.103,-146.806 703.125,-132.144"/>
<polygon fill="midnightblue" stroke="midnightblue" points="704.162,-135.498 713.142,-129.875 702.616,-128.671 704.162,-135.498"/>
</g>
<!-- Node15 -->
<g id="node15" class="node"><title>Node15</title>
<g id="a_node15"><a xlink:href="ccdensity_2globals_8h.html" target="_top" xlink:title="Enter brief description of file here.">
<polygon fill="none" stroke="black" points="269,-112.5 269,-131.5 325,-131.5 325,-112.5 269,-112.5"/>
<text text-anchor="middle" x="297" y="-119.5" font-family="Helvetica,sans-Serif" font-size="10.00">globals.h</text>
</a>
</g>
</g>
<!-- Node1&#45;&gt;Node15 -->
<g id="edge17" class="edge"><title>Node1&#45;&gt;Node15</title>
<path fill="none" stroke="midnightblue" d="M459.419,-168.444C425.705,-159.011 371.431,-143.825 335.008,-133.634"/>
<polygon fill="midnightblue" stroke="midnightblue" points="335.814,-130.225 325.241,-130.902 333.928,-136.967 335.814,-130.225"/>
</g>
<!-- Node3 -->
<g id="node3" class="node"><title>Node3</title>
<polygon fill="none" stroke="#bfbfbf" points="367.5,-0.5 367.5,-19.5 410.5,-19.5 410.5,-0.5 367.5,-0.5"/>
<text text-anchor="middle" x="389" y="-7.5" font-family="Helvetica,sans-Serif" font-size="10.00">cstdio</text>
</g>
<!-- Node2&#45;&gt;Node3 -->
<g id="edge2" class="edge"><title>Node2&#45;&gt;Node3</title>
<path fill="none" stroke="midnightblue" d="M235.838,-56.4435C268.993,-46.6063 323.237,-30.5122 357.481,-20.3518"/>
<polygon fill="midnightblue" stroke="midnightblue" points="358.83,-23.6026 367.421,-17.4026 356.838,-16.8917 358.83,-23.6026"/>
</g>
<!-- Node4 -->
<g id="node4" class="node"><title>Node4</title>
<g id="a_node4"><a xlink:href="psifiles_8h_source.html" target="_top" xlink:title="psifiles.h">
<polygon fill="none" stroke="black" points="0,-0.5 0,-19.5 56,-19.5 56,-0.5 0,-0.5"/>
<text text-anchor="middle" x="28" y="-7.5" font-family="Helvetica,sans-Serif" font-size="10.00">psifiles.h</text>
</a>
</g>
</g>
<!-- Node2&#45;&gt;Node4 -->
<g id="edge3" class="edge"><title>Node2&#45;&gt;Node4</title>
<path fill="none" stroke="midnightblue" d="M178.637,-56.4435C148.262,-47.2801 99.8903,-32.6876 66.184,-22.5192"/>
<polygon fill="midnightblue" stroke="midnightblue" points="66.8151,-19.0538 56.2304,-19.5164 64.7933,-25.7555 66.8151,-19.0538"/>
</g>
<!-- Node5 -->
<g id="node5" class="node"><title>Node5</title>
<g id="a_node5"><a xlink:href="libpsio_2config_8h_source.html" target="_top" xlink:title="libpsio/config.h">
<polygon fill="none" stroke="black" points="262,-0.5 262,-19.5 344,-19.5 344,-0.5 262,-0.5"/>
<text text-anchor="middle" x="303" y="-7.5" font-family="Helvetica,sans-Serif" font-size="10.00">libpsio/config.h</text>
</a>
</g>
</g>
<!-- Node2&#45;&gt;Node5 -->
<g id="edge4" class="edge"><title>Node2&#45;&gt;Node5</title>
<path fill="none" stroke="midnightblue" d="M222.424,-56.324C237.54,-47.8215 260.815,-34.7288 278.471,-24.7975"/>
<polygon fill="midnightblue" stroke="midnightblue" points="280.614,-27.6077 287.614,-19.6545 277.183,-21.5066 280.614,-27.6077"/>
</g>
<!-- Node6 -->
<g id="node6" class="node"><title>Node6</title>
<polygon fill="none" stroke="#bfbfbf" points="74,-0.5 74,-19.5 182,-19.5 182,-0.5 74,-0.5"/>
<text text-anchor="middle" x="128" y="-7.5" font-family="Helvetica,sans-Serif" font-size="10.00">boost/shared_ptr.hpp</text>
</g>
<!-- Node2&#45;&gt;Node6 -->
<g id="edge5" class="edge"><title>Node2&#45;&gt;Node6</title>
<path fill="none" stroke="midnightblue" d="M194.307,-56.324C182.099,-47.979 163.422,-35.2122 148.997,-25.3524"/>
<polygon fill="midnightblue" stroke="midnightblue" points="150.892,-22.4082 140.661,-19.6545 146.942,-28.1871 150.892,-22.4082"/>
</g>
<!-- Node7 -->
<g id="node7" class="node"><title>Node7</title>
<polygon fill="none" stroke="#bfbfbf" points="200,-0.5 200,-19.5 244,-19.5 244,-0.5 200,-0.5"/>
<text text-anchor="middle" x="222" y="-7.5" font-family="Helvetica,sans-Serif" font-size="10.00">vector</text>
</g>
<!-- Node2&#45;&gt;Node7 -->
<g id="edge6" class="edge"><title>Node2&#45;&gt;Node7</title>
<path fill="none" stroke="midnightblue" d="M209.477,-56.083C211.486,-48.8486 214.386,-38.4087 216.89,-29.3968"/>
<polygon fill="midnightblue" stroke="midnightblue" points="220.265,-30.323 219.569,-19.7511 213.52,-28.4495 220.265,-30.323"/>
</g>
<!-- Node8&#45;&gt;Node3 -->
<g id="edge8" class="edge"><title>Node8&#45;&gt;Node3</title>
<path fill="none" stroke="midnightblue" d="M456.031,-112.394C460.074,-99.3425 465.67,-74.1439 456,-56 448.289,-41.5325 433.632,-30.8897 419.988,-23.5975"/>
<polygon fill="midnightblue" stroke="midnightblue" points="421.32,-20.3523 410.802,-19.0786 418.23,-26.6334 421.32,-20.3523"/>
</g>
<!-- Node9 -->
<g id="node9" class="node"><title>Node9</title>
<polygon fill="none" stroke="#bfbfbf" points="506.5,-56.5 506.5,-75.5 547.5,-75.5 547.5,-56.5 506.5,-56.5"/>
<text text-anchor="middle" x="527" y="-63.5" font-family="Helvetica,sans-Serif" font-size="10.00">string</text>
</g>
<!-- Node8&#45;&gt;Node9 -->
<g id="edge9" class="edge"><title>Node8&#45;&gt;Node9</title>
<path fill="none" stroke="midnightblue" d="M464.889,-112.324C476.15,-104.107 493.287,-91.6017 506.709,-81.8069"/>
<polygon fill="midnightblue" stroke="midnightblue" points="508.88,-84.5559 514.894,-75.8339 504.753,-78.9014 508.88,-84.5559"/>
</g>
<!-- Node10&#45;&gt;Node3 -->
<g id="edge11" class="edge"><title>Node10&#45;&gt;Node3</title>
<path fill="none" stroke="midnightblue" d="M398.184,-56.083C396.726,-48.9272 394.629,-38.6353 392.807,-29.6911"/>
<polygon fill="midnightblue" stroke="midnightblue" points="396.208,-28.8512 390.783,-19.7511 389.349,-30.2485 396.208,-28.8512"/>
</g>
<!-- Node13&#45;&gt;Node9 -->
<g id="edge15" class="edge"><title>Node13&#45;&gt;Node9</title>
<path fill="none" stroke="midnightblue" d="M527.835,-112.083C527.704,-105.006 527.516,-94.8611 527.352,-85.9865"/>
<polygon fill="midnightblue" stroke="midnightblue" points="530.847,-85.6845 527.162,-75.7511 523.848,-85.8142 530.847,-85.6845"/>
</g>
<!-- Node15&#45;&gt;Node4 -->
<g id="edge18" class="edge"><title>Node15&#45;&gt;Node4</title>
<path fill="none" stroke="midnightblue" d="M268.913,-112.689C241.542,-104.328 198.916,-90.6107 163,-76 123.943,-60.1116 80.2226,-38.2841 53.4028,-24.4084"/>
<polygon fill="midnightblue" stroke="midnightblue" points="54.8125,-21.1964 44.3265,-19.6818 51.5793,-27.405 54.8125,-21.1964"/>
</g>
<!-- Node15&#45;&gt;Node2 -->
<g id="edge19" class="edge"><title>Node15&#45;&gt;Node2</title>
<path fill="none" stroke="midnightblue" d="M282.54,-112.324C268.5,-103.9 246.952,-90.9709 230.457,-81.0741"/>
<polygon fill="midnightblue" stroke="midnightblue" points="231.8,-77.7983 221.424,-75.6545 228.198,-83.8007 231.8,-77.7983"/>
</g>
<!-- Node16 -->
<g id="node16" class="node"><title>Node16</title>
<g id="a_node16"><a xlink:href="psio_8h_source.html" target="_top" xlink:title="libpsio/psio.h">
<polygon fill="none" stroke="black" points="260,-56.5 260,-75.5 334,-75.5 334,-56.5 260,-56.5"/>
<text text-anchor="middle" x="297" y="-63.5" font-family="Helvetica,sans-Serif" font-size="10.00">libpsio/psio.h</text>
</a>
</g>
</g>
<!-- Node15&#45;&gt;Node16 -->
<g id="edge20" class="edge"><title>Node15&#45;&gt;Node16</title>
<path fill="none" stroke="midnightblue" d="M297,-112.083C297,-105.006 297,-94.8611 297,-85.9865"/>
<polygon fill="midnightblue" stroke="midnightblue" points="300.5,-85.751 297,-75.7511 293.5,-85.7511 300.5,-85.751"/>
</g>
<!-- Node15&#45;&gt;Node10 -->
<g id="edge23" class="edge"><title>Node15&#45;&gt;Node10</title>
<path fill="none" stroke="midnightblue" d="M313.549,-112.324C329.992,-103.703 355.435,-90.3643 374.468,-80.3855"/>
<polygon fill="midnightblue" stroke="midnightblue" points="376.261,-83.3977 383.492,-75.6545 373.011,-77.198 376.261,-83.3977"/>
</g>
<!-- Node16&#45;&gt;Node3 -->
<g id="edge21" class="edge"><title>Node16&#45;&gt;Node3</title>
<path fill="none" stroke="midnightblue" d="M311.781,-56.324C326.267,-47.8215 348.573,-34.7288 365.493,-24.7975"/>
<polygon fill="midnightblue" stroke="midnightblue" points="367.403,-27.735 374.255,-19.6545 363.859,-21.6981 367.403,-27.735"/>
</g>
<!-- Node16&#45;&gt;Node5 -->
<g id="edge22" class="edge"><title>Node16&#45;&gt;Node5</title>
<path fill="none" stroke="midnightblue" d="M297.991,-56.083C298.786,-48.9272 299.929,-38.6353 300.923,-29.6911"/>
<polygon fill="midnightblue" stroke="midnightblue" points="304.402,-30.0765 302.028,-19.7511 297.445,-29.3034 304.402,-30.0765"/>
</g>
</g>
</svg>
