<?xml version="1.0" encoding="UTF-8" standalone="no"?>
<!DOCTYPE svg PUBLIC "-//W3C//DTD SVG 1.1//EN"
 "http://www.w3.org/Graphics/SVG/1.1/DTD/svg11.dtd">
<!-- Generated by graphviz version 2.30.1 (20140110.0959)
 -->
<!-- Title: build_libderiv.h Pages: 1 -->
<svg width="896pt" height="84pt"
 viewBox="0.00 0.00 896.00 84.00" xmlns="http://www.w3.org/2000/svg" xmlns:xlink="http://www.w3.org/1999/xlink">
<g id="graph0" class="graph" transform="scale(1 1) rotate(0) translate(4 80)">
<title>build_libderiv.h</title>
<!-- Node1 -->
<g id="node1" class="node"><title>Node1</title>
<polygon fill="#bfbfbf" stroke="black" points="382.5,-56.5 382.5,-75.5 463.5,-75.5 463.5,-56.5 382.5,-56.5"/>
<text text-anchor="middle" x="423" y="-63.5" font-family="Helvetica,sans-Serif" font-size="10.00">build_libderiv.h</text>
</g>
<!-- Node2 -->
<g id="node2" class="node"><title>Node2</title>
<g id="a_node2"><a xlink:href="build__libderiv_8c.html" target="_top" xlink:title="Enter brief description of file here.">
<polygon fill="none" stroke="black" points="-0.5,-0.5 -0.5,-19.5 80.5,-19.5 80.5,-0.5 -0.5,-0.5"/>
<text text-anchor="middle" x="40" y="-7.5" font-family="Helvetica,sans-Serif" font-size="10.00">build_libderiv.c</text>
</a>
</g>
</g>
<!-- Node1&#45;&gt;Node2 -->
<g id="edge1" class="edge"><title>Node1&#45;&gt;Node2</title>
<path fill="none" stroke="midnightblue" d="M372.388,-58.8604C307.036,-50.7722 189.83,-35.7222 90,-20 86.9506,-19.5197 83.8004,-19.0026 80.6339,-18.4676"/>
<polygon fill="midnightblue" stroke="midnightblue" points="372.068,-62.3473 382.421,-60.0978 372.925,-55.4 372.068,-62.3473"/>
</g>
<!-- Node3 -->
<g id="node3" class="node"><title>Node3</title>
<g id="a_node3"><a xlink:href="emit__d1hrr__build_8c.html" target="_top" xlink:title="Enter brief description of file here.">
<polygon fill="none" stroke="black" points="99,-0.5 99,-19.5 195,-19.5 195,-0.5 99,-0.5"/>
<text text-anchor="middle" x="147" y="-7.5" font-family="Helvetica,sans-Serif" font-size="10.00">emit_d1hrr_build.c</text>
</a>
</g>
</g>
<!-- Node1&#45;&gt;Node3 -->
<g id="edge2" class="edge"><title>Node1&#45;&gt;Node3</title>
<path fill="none" stroke="midnightblue" d="M372.25,-55.0706C320.161,-44.8794 239.956,-29.1871 190.628,-19.536"/>
<polygon fill="midnightblue" stroke="midnightblue" points="371.789,-58.5468 382.275,-57.0321 373.133,-51.677 371.789,-58.5468"/>
</g>
<!-- Node4 -->
<g id="node4" class="node"><title>Node4</title>
<g id="a_node4"><a xlink:href="emit__d1hrr__build__macro_8c.html" target="_top" xlink:title="Enter brief description of file here.">
<polygon fill="none" stroke="black" points="213,-0.5 213,-19.5 341,-19.5 341,-0.5 213,-0.5"/>
<text text-anchor="middle" x="277" y="-7.5" font-family="Helvetica,sans-Serif" font-size="10.00">emit_d1hrr_build_macro.c</text>
</a>
</g>
</g>
<!-- Node1&#45;&gt;Node4 -->
<g id="edge3" class="edge"><title>Node1&#45;&gt;Node4</title>
<path fill="none" stroke="midnightblue" d="M390.301,-52.9058C362.852,-42.7536 324.332,-28.5063 300.026,-19.5164"/>
<polygon fill="midnightblue" stroke="midnightblue" points="389.273,-56.2572 399.866,-56.4435 391.701,-49.6919 389.273,-56.2572"/>
</g>
<!-- Node5 -->
<g id="node5" class="node"><title>Node5</title>
<g id="a_node5"><a xlink:href="emit__deriv12__managers_8c.html" target="_top" xlink:title="Enter brief description of file here.">
<polygon fill="none" stroke="black" points="359,-0.5 359,-19.5 487,-19.5 487,-0.5 359,-0.5"/>
<text text-anchor="middle" x="423" y="-7.5" font-family="Helvetica,sans-Serif" font-size="10.00">emit_deriv12_managers.c</text>
</a>
</g>
</g>
<!-- Node1&#45;&gt;Node5 -->
<g id="edge4" class="edge"><title>Node1&#45;&gt;Node5</title>
<path fill="none" stroke="midnightblue" d="M423,-45.8045C423,-36.9102 423,-26.7798 423,-19.7511"/>
<polygon fill="midnightblue" stroke="midnightblue" points="419.5,-46.083 423,-56.083 426.5,-46.083 419.5,-46.083"/>
</g>
<!-- Node6 -->
<g id="node6" class="node"><title>Node6</title>
<g id="a_node6"><a xlink:href="emit__deriv1__managers_8c.html" target="_top" xlink:title="Enter brief description of file here.">
<polygon fill="none" stroke="black" points="505.5,-0.5 505.5,-19.5 628.5,-19.5 628.5,-0.5 505.5,-0.5"/>
<text text-anchor="middle" x="567" y="-7.5" font-family="Helvetica,sans-Serif" font-size="10.00">emit_deriv1_managers.c</text>
</a>
</g>
</g>
<!-- Node1&#45;&gt;Node6 -->
<g id="edge5" class="edge"><title>Node1&#45;&gt;Node6</title>
<path fill="none" stroke="midnightblue" d="M455.251,-52.9058C482.324,-42.7536 520.317,-28.5063 544.29,-19.5164"/>
<polygon fill="midnightblue" stroke="midnightblue" points="453.952,-49.6551 445.817,-56.4435 456.409,-56.2094 453.952,-49.6551"/>
</g>
<!-- Node7 -->
<g id="node7" class="node"><title>Node7</title>
<g id="a_node7"><a xlink:href="emit__deriv__build_8c.html" target="_top" xlink:title="Enter brief description of file here.">
<polygon fill="none" stroke="black" points="646.5,-0.5 646.5,-19.5 741.5,-19.5 741.5,-0.5 646.5,-0.5"/>
<text text-anchor="middle" x="694" y="-7.5" font-family="Helvetica,sans-Serif" font-size="10.00">emit_deriv_build.c</text>
</a>
</g>
</g>
<!-- Node1&#45;&gt;Node7 -->
<g id="edge6" class="edge"><title>Node1&#45;&gt;Node7</title>
<path fill="none" stroke="midnightblue" d="M473.407,-54.9558C524.476,-44.7797 602.635,-29.2055 650.908,-19.5865"/>
<polygon fill="midnightblue" stroke="midnightblue" points="472.695,-51.5289 463.571,-56.9157 474.063,-58.3939 472.695,-51.5289"/>
</g>
<!-- Node8 -->
<g id="node8" class="node"><title>Node8</title>
<g id="a_node8"><a xlink:href="emit__deriv__build__macro_8c.html" target="_top" xlink:title="Enter brief description of file here.">
<polygon fill="none" stroke="black" points="760,-0.5 760,-19.5 888,-19.5 888,-0.5 760,-0.5"/>
<text text-anchor="middle" x="824" y="-7.5" font-family="Helvetica,sans-Serif" font-size="10.00">emit_deriv_build_macro.c</text>
</a>
</g>
</g>
<!-- Node1&#45;&gt;Node8 -->
<g id="edge7" class="edge"><title>Node1&#45;&gt;Node8</title>
<path fill="none" stroke="midnightblue" d="M473.971,-58.1361C546.986,-48.3036 681.273,-30.2202 760.603,-19.5373"/>
<polygon fill="midnightblue" stroke="midnightblue" points="473.1,-54.7217 463.657,-59.525 474.034,-61.659 473.1,-54.7217"/>
</g>
</g>
</svg>
