<?xml version="1.0" encoding="UTF-8" standalone="no"?>
<!DOCTYPE svg PUBLIC "-//W3C//DTD SVG 1.1//EN"
 "http://www.w3.org/Graphics/SVG/1.1/DTD/svg11.dtd">
<!-- Generated by graphviz version 2.30.1 (20140110.0959)
 -->
<!-- Title: cc2_L2.cc Pages: 1 -->
<svg width="464pt" height="196pt"
 viewBox="0.00 0.00 463.92 196.00" xmlns="http://www.w3.org/2000/svg" xmlns:xlink="http://www.w3.org/1999/xlink">
<g id="graph0" class="graph" transform="scale(1 1) rotate(0) translate(4 192)">
<title>cc2_L2.cc</title>
<!-- Node1 -->
<g id="node1" class="node"><title>Node1</title>
<polygon fill="#bfbfbf" stroke="black" points="226.921,-168.5 226.921,-187.5 288.921,-187.5 288.921,-168.5 226.921,-168.5"/>
<text text-anchor="middle" x="257.921" y="-175.5" font-family="Helvetica,sans-Serif" font-size="10.00">cc2_L2.cc</text>
</g>
<!-- Node2 -->
<g id="node2" class="node"><title>Node2</title>
<polygon fill="none" stroke="#bfbfbf" points="44.4209,-0.5 44.4209,-19.5 87.4209,-19.5 87.4209,-0.5 44.4209,-0.5"/>
<text text-anchor="middle" x="65.9209" y="-7.5" font-family="Helvetica,sans-Serif" font-size="10.00">cstdio</text>
</g>
<!-- Node1&#45;&gt;Node2 -->
<g id="edge1" class="edge"><title>Node1&#45;&gt;Node2</title>
<path fill="none" stroke="midnightblue" d="M226.515,-175.24C170.546,-170.209 54.6796,-150.808 3.92092,-76 -9.54687,-56.1512 15.5493,-36.6897 37.7314,-24.3151"/>
<polygon fill="midnightblue" stroke="midnightblue" points="39.4151,-27.3841 46.6256,-19.6214 36.148,-21.1933 39.4151,-27.3841"/>
</g>
<!-- Node3 -->
<g id="node3" class="node"><title>Node3</title>
<g id="a_node3"><a xlink:href="lib_2libdpd_2dpd_8h.html" target="_top" xlink:title="Enter brief description of file here.">
<polygon fill="none" stroke="black" points="257.421,-56.5 257.421,-75.5 326.421,-75.5 326.421,-56.5 257.421,-56.5"/>
<text text-anchor="middle" x="291.921" y="-63.5" font-family="Helvetica,sans-Serif" font-size="10.00">libdpd/dpd.h</text>
</a>
</g>
</g>
<!-- Node1&#45;&gt;Node3 -->
<g id="edge2" class="edge"><title>Node1&#45;&gt;Node3</title>
<path fill="none" stroke="midnightblue" d="M260.398,-168.137C263.929,-155.596 270.675,-131.974 276.921,-112 279.689,-103.147 282.926,-93.3722 285.682,-85.2013"/>
<polygon fill="midnightblue" stroke="midnightblue" points="289.042,-86.1902 288.949,-75.5958 282.415,-83.9359 289.042,-86.1902"/>
</g>
<!-- Node8 -->
<g id="node8" class="node"><title>Node8</title>
<g id="a_node8"><a xlink:href="cclambda_2MOInfo_8h.html" target="_top" xlink:title="Enter brief description of file here.">
<polygon fill="none" stroke="black" points="286.421,-112.5 286.421,-131.5 343.421,-131.5 343.421,-112.5 286.421,-112.5"/>
<text text-anchor="middle" x="314.921" y="-119.5" font-family="Helvetica,sans-Serif" font-size="10.00">MOInfo.h</text>
</a>
</g>
</g>
<!-- Node1&#45;&gt;Node8 -->
<g id="edge8" class="edge"><title>Node1&#45;&gt;Node8</title>
<path fill="none" stroke="midnightblue" d="M267.079,-168.324C275.422,-160.42 287.953,-148.548 298.098,-138.938"/>
<polygon fill="midnightblue" stroke="midnightblue" points="300.744,-141.252 305.596,-131.834 295.93,-136.171 300.744,-141.252"/>
</g>
<!-- Node9 -->
<g id="node9" class="node"><title>Node9</title>
<g id="a_node9"><a xlink:href="cclambda_2Params_8h.html" target="_top" xlink:title="Enter brief description of file here.">
<polygon fill="none" stroke="black" points="361.421,-112.5 361.421,-131.5 420.421,-131.5 420.421,-112.5 361.421,-112.5"/>
<text text-anchor="middle" x="390.921" y="-119.5" font-family="Helvetica,sans-Serif" font-size="10.00">Params.h</text>
</a>
</g>
</g>
<!-- Node1&#45;&gt;Node9 -->
<g id="edge9" class="edge"><title>Node1&#45;&gt;Node9</title>
<path fill="none" stroke="midnightblue" d="M278.995,-168.444C300.981,-159.517 335.655,-145.439 360.585,-135.317"/>
<polygon fill="midnightblue" stroke="midnightblue" points="361.997,-138.521 369.945,-131.516 359.363,-132.035 361.997,-138.521"/>
</g>
<!-- Node11 -->
<g id="node11" class="node"><title>Node11</title>
<g id="a_node11"><a xlink:href="cclambda_2globals_8h.html" target="_top" xlink:title="Enter brief description of file here.">
<polygon fill="none" stroke="black" points="173.921,-112.5 173.921,-131.5 229.921,-131.5 229.921,-112.5 173.921,-112.5"/>
<text text-anchor="middle" x="201.921" y="-119.5" font-family="Helvetica,sans-Serif" font-size="10.00">globals.h</text>
</a>
</g>
</g>
<!-- Node1&#45;&gt;Node11 -->
<g id="edge11" class="edge"><title>Node1&#45;&gt;Node11</title>
<path fill="none" stroke="midnightblue" d="M248.924,-168.324C240.726,-160.42 228.415,-148.548 218.449,-138.938"/>
<polygon fill="midnightblue" stroke="midnightblue" points="220.71,-136.256 211.082,-131.834 215.851,-141.295 220.71,-136.256"/>
</g>
<!-- Node3&#45;&gt;Node2 -->
<g id="edge3" class="edge"><title>Node3&#45;&gt;Node2</title>
<path fill="none" stroke="midnightblue" d="M257.421,-56.8389C219.523,-47.8615 156.866,-32.9829 102.921,-20 101.041,-19.5475 99.1075,-19.081 97.1574,-18.6095"/>
<polygon fill="midnightblue" stroke="midnightblue" points="97.9813,-15.2079 87.4381,-16.2526 96.3317,-22.0107 97.9813,-15.2079"/>
</g>
<!-- Node4 -->
<g id="node4" class="node"><title>Node4</title>
<g id="a_node4"><a xlink:href="psifiles_8h_source.html" target="_top" xlink:title="psifiles.h">
<polygon fill="none" stroke="black" points="211.921,-0.5 211.921,-19.5 267.921,-19.5 267.921,-0.5 211.921,-0.5"/>
<text text-anchor="middle" x="239.921" y="-7.5" font-family="Helvetica,sans-Serif" font-size="10.00">psifiles.h</text>
</a>
</g>
</g>
<!-- Node3&#45;&gt;Node4 -->
<g id="edge4" class="edge"><title>Node3&#45;&gt;Node4</title>
<path fill="none" stroke="midnightblue" d="M283.334,-56.083C275.762,-48.2195 264.543,-36.5688 255.407,-27.0813"/>
<polygon fill="midnightblue" stroke="midnightblue" points="257.805,-24.5266 248.348,-19.7511 252.763,-29.3821 257.805,-24.5266"/>
</g>
<!-- Node5 -->
<g id="node5" class="node"><title>Node5</title>
<g id="a_node5"><a xlink:href="libpsio_2config_8h_source.html" target="_top" xlink:title="libpsio/config.h">
<polygon fill="none" stroke="black" points="111.921,-0.5 111.921,-19.5 193.921,-19.5 193.921,-0.5 111.921,-0.5"/>
<text text-anchor="middle" x="152.921" y="-7.5" font-family="Helvetica,sans-Serif" font-size="10.00">libpsio/config.h</text>
</a>
</g>
</g>
<!-- Node3&#45;&gt;Node5 -->
<g id="edge5" class="edge"><title>Node3&#45;&gt;Node5</title>
<path fill="none" stroke="midnightblue" d="M269.896,-56.4435C246.817,-47.4776 210.359,-33.314 184.28,-23.1827"/>
<polygon fill="midnightblue" stroke="midnightblue" points="185.432,-19.8753 174.843,-19.5164 182.897,-26.4002 185.432,-19.8753"/>
</g>
<!-- Node6 -->
<g id="node6" class="node"><title>Node6</title>
<polygon fill="none" stroke="#bfbfbf" points="347.921,-0.5 347.921,-19.5 455.921,-19.5 455.921,-0.5 347.921,-0.5"/>
<text text-anchor="middle" x="401.921" y="-7.5" font-family="Helvetica,sans-Serif" font-size="10.00">boost/shared_ptr.hpp</text>
</g>
<!-- Node3&#45;&gt;Node6 -->
<g id="edge6" class="edge"><title>Node3&#45;&gt;Node6</title>
<path fill="none" stroke="midnightblue" d="M309.594,-56.324C327.315,-47.6247 354.824,-34.1202 375.209,-24.113"/>
<polygon fill="midnightblue" stroke="midnightblue" points="376.857,-27.2031 384.291,-19.6545 373.772,-20.9195 376.857,-27.2031"/>
</g>
<!-- Node7 -->
<g id="node7" class="node"><title>Node7</title>
<polygon fill="none" stroke="#bfbfbf" points="285.921,-0.5 285.921,-19.5 329.921,-19.5 329.921,-0.5 285.921,-0.5"/>
<text text-anchor="middle" x="307.921" y="-7.5" font-family="Helvetica,sans-Serif" font-size="10.00">vector</text>
</g>
<!-- Node3&#45;&gt;Node7 -->
<g id="edge7" class="edge"><title>Node3&#45;&gt;Node7</title>
<path fill="none" stroke="midnightblue" d="M294.563,-56.083C296.707,-48.8486 299.8,-38.4087 302.47,-29.3968"/>
<polygon fill="midnightblue" stroke="midnightblue" points="305.843,-30.3334 305.328,-19.7511 299.131,-28.3447 305.843,-30.3334"/>
</g>
<!-- Node10 -->
<g id="node10" class="node"><title>Node10</title>
<polygon fill="none" stroke="#bfbfbf" points="370.421,-56.5 370.421,-75.5 411.421,-75.5 411.421,-56.5 370.421,-56.5"/>
<text text-anchor="middle" x="390.921" y="-63.5" font-family="Helvetica,sans-Serif" font-size="10.00">string</text>
</g>
<!-- Node9&#45;&gt;Node10 -->
<g id="edge10" class="edge"><title>Node9&#45;&gt;Node10</title>
<path fill="none" stroke="midnightblue" d="M390.921,-112.083C390.921,-105.006 390.921,-94.8611 390.921,-85.9865"/>
<polygon fill="midnightblue" stroke="midnightblue" points="394.421,-85.751 390.921,-75.7511 387.421,-85.7511 394.421,-85.751"/>
</g>
<!-- Node11&#45;&gt;Node4 -->
<g id="edge12" class="edge"><title>Node11&#45;&gt;Node4</title>
<path fill="none" stroke="midnightblue" d="M204.903,-112.368C211.063,-94.5366 225.31,-53.2953 233.609,-29.2717"/>
<polygon fill="midnightblue" stroke="midnightblue" points="236.996,-30.1862 236.953,-19.5914 230.38,-27.9005 236.996,-30.1862"/>
</g>
<!-- Node11&#45;&gt;Node3 -->
<g id="edge13" class="edge"><title>Node11&#45;&gt;Node3</title>
<path fill="none" stroke="midnightblue" d="M216.381,-112.324C230.421,-103.9 251.969,-90.9709 268.464,-81.0741"/>
<polygon fill="midnightblue" stroke="midnightblue" points="270.723,-83.8007 277.497,-75.6545 267.121,-77.7983 270.723,-83.8007"/>
</g>
<!-- Node12 -->
<g id="node12" class="node"><title>Node12</title>
<g id="a_node12"><a xlink:href="libciomr_8h_source.html" target="_top" xlink:title="libciomr/libciomr.h">
<polygon fill="none" stroke="black" points="13.4209,-56.5 13.4209,-75.5 108.421,-75.5 108.421,-56.5 13.4209,-56.5"/>
<text text-anchor="middle" x="60.9209" y="-63.5" font-family="Helvetica,sans-Serif" font-size="10.00">libciomr/libciomr.h</text>
</a>
</g>
</g>
<!-- Node11&#45;&gt;Node12 -->
<g id="edge14" class="edge"><title>Node11&#45;&gt;Node12</title>
<path fill="none" stroke="midnightblue" d="M179.579,-112.444C156.168,-103.478 119.185,-89.314 92.7313,-79.1827"/>
<polygon fill="midnightblue" stroke="midnightblue" points="93.7486,-75.8245 83.1583,-75.5164 91.245,-82.3615 93.7486,-75.8245"/>
</g>
<!-- Node13 -->
<g id="node13" class="node"><title>Node13</title>
<g id="a_node13"><a xlink:href="psio_8h_source.html" target="_top" xlink:title="libpsio/psio.h">
<polygon fill="none" stroke="black" points="126.921,-56.5 126.921,-75.5 200.921,-75.5 200.921,-56.5 126.921,-56.5"/>
<text text-anchor="middle" x="163.921" y="-63.5" font-family="Helvetica,sans-Serif" font-size="10.00">libpsio/psio.h</text>
</a>
</g>
</g>
<!-- Node11&#45;&gt;Node13 -->
<g id="edge16" class="edge"><title>Node11&#45;&gt;Node13</title>
<path fill="none" stroke="midnightblue" d="M195.646,-112.083C190.278,-104.455 182.403,-93.2645 175.842,-83.9408"/>
<polygon fill="midnightblue" stroke="midnightblue" points="178.696,-81.9149 170.079,-75.7511 172.972,-85.9434 178.696,-81.9149"/>
</g>
<!-- Node12&#45;&gt;Node2 -->
<g id="edge15" class="edge"><title>Node12&#45;&gt;Node2</title>
<path fill="none" stroke="midnightblue" d="M61.7466,-56.083C62.4019,-49.0059 63.3412,-38.8611 64.1629,-29.9865"/>
<polygon fill="midnightblue" stroke="midnightblue" points="67.6737,-30.0312 65.1106,-19.7511 60.7035,-29.3858 67.6737,-30.0312"/>
</g>
<!-- Node13&#45;&gt;Node2 -->
<g id="edge17" class="edge"><title>Node13&#45;&gt;Node2</title>
<path fill="none" stroke="midnightblue" d="M148.176,-56.324C132.602,-47.7428 108.544,-34.486 90.4616,-24.5224"/>
<polygon fill="midnightblue" stroke="midnightblue" points="92.0748,-21.4152 81.6272,-19.6545 88.6965,-27.546 92.0748,-21.4152"/>
</g>
<!-- Node13&#45;&gt;Node5 -->
<g id="edge18" class="edge"><title>Node13&#45;&gt;Node5</title>
<path fill="none" stroke="midnightblue" d="M162.104,-56.083C160.647,-48.9272 158.55,-38.6353 156.728,-29.6911"/>
<polygon fill="midnightblue" stroke="midnightblue" points="160.129,-28.8512 154.704,-19.7511 153.27,-30.2485 160.129,-28.8512"/>
</g>
</g>
</svg>
