<?xml version="1.0" encoding="UTF-8" standalone="no"?>
<!DOCTYPE svg PUBLIC "-//W3C//DTD SVG 1.1//EN"
 "http://www.w3.org/Graphics/SVG/1.1/DTD/svg11.dtd">
<!-- Generated by graphviz version 2.30.1 (20140110.0959)
 -->
<!-- Title: cc2_WmbijT2.cc Pages: 1 -->
<!--zoomable 320 -->
<svg id="main" version="1.1" xmlns="http://www.w3.org/2000/svg" xmlns:xlink="http://www.w3.org/1999/xlink" xml:space="preserve" onload="init(evt)">
        <defs>
                <circle id="rim" cx="0" cy="0" r="7"/>
                <circle id="rim2" cx="0" cy="0" r="3.5"/>
                <g id="zoomPlus">
                        <use xlink:href="#rim" fill="#404040">
                                <set attributeName="fill" to="#808080" begin="zoomplus.mouseover" end="zoomplus.mouseout"/>
                        </use>
                        <path d="M-4,0h8M0,-4v8" fill="none" stroke="white" stroke-width="1.5" pointer-events="none"/>
                </g>
                <g id="zoomMin">
                        <use xlink:href="#rim" fill="#404040">
                                <set attributeName="fill" to="#808080" begin="zoomminus.mouseover" end="zoomminus.mouseout"/>
                        </use>
                        <path d="M-4,0h8" fill="none" stroke="white" stroke-width="1.5" pointer-events="none"/>
                </g>
                <g id="dirArrow">
                        <path fill="none" stroke="white" stroke-width="1.5" d="M0,-3.0v7 M-2.5,-0.5L0,-3.0L2.5,-0.5"/>
                </g>
               <g id="resetDef">
                       <use xlink:href="#rim2" fill="#404040">
                               <set attributeName="fill" to="#808080" begin="reset.mouseover" end="reset.mouseout"/>
                       </use>
               </g>
        </defs>

<script type="text/javascript">
var viewWidth = 1415;
var viewHeight = 320;
var sectionId = 'dynsection-0';
</script>
<script xlink:href="svgpan.js"/>
<svg id="graph" class="graph">
<g id="viewport">
<title>cc2_WmbijT2.cc</title>
<!-- Node1 -->
<g id="node1" class="node"><title>Node1</title>
<polygon fill="#bfbfbf" stroke="black" points="169,-292.5 169,-311.5 259,-311.5 259,-292.5 169,-292.5"/>
<text text-anchor="middle" x="214" y="-299.5" font-family="Helvetica,sans-Serif" font-size="10.00">cc2_WmbijT2.cc</text>
</g>
<!-- Node2 -->
<g id="node2" class="node"><title>Node2</title>
<polygon fill="none" stroke="#bfbfbf" points="101.5,-0.5 101.5,-19.5 144.5,-19.5 144.5,-0.5 101.5,-0.5"/>
<text text-anchor="middle" x="123" y="-7.5" font-family="Helvetica,sans-Serif" font-size="10.00">cstdio</text>
</g>
<!-- Node1&#45;&gt;Node2 -->
<g id="edge1" class="edge"><title>Node1&#45;&gt;Node2</title>
<path fill="none" stroke="midnightblue" d="M168.676,-293.051C116.528,-280.997 38,-252.616 38,-191 38,-191 38,-191 38,-133 38,-87.5425 78.2186,-46.8968 103.326,-25.9519"/>
<polygon fill="midnightblue" stroke="midnightblue" points="105.588,-28.6239 111.181,-19.6256 101.197,-23.172 105.588,-28.6239"/>
</g>
<!-- Node3 -->
<g id="node3" class="node"><title>Node3</title>
<polygon fill="none" stroke="#bfbfbf" points="8.5,-0.5 8.5,-19.5 53.5,-19.5 53.5,-0.5 8.5,-0.5"/>
<text text-anchor="middle" x="31" y="-7.5" font-family="Helvetica,sans-Serif" font-size="10.00">cstdlib</text>
</g>
<!-- Node1&#45;&gt;Node3 -->
<g id="edge2" class="edge"><title>Node1&#45;&gt;Node3</title>
<path fill="none" stroke="midnightblue" d="M168.878,-297.584C106.092,-290.094 0,-266.297 0,-191 0,-191 0,-191 0,-133 0,-95.0976 14.2288,-52.5551 23.4066,-29.0566"/>
<polygon fill="midnightblue" stroke="midnightblue" points="26.6921,-30.2679 27.1988,-19.6852 20.2032,-27.6421 26.6921,-30.2679"/>
</g>
<!-- Node4 -->
<g id="node4" class="node"><title>Node4</title>
<g id="a_node4"><a xlink:href="lib_2libdpd_2dpd_8h.html" target="_top" xlink:title="Enter brief description of file here.">
<polygon fill="none" stroke="black" points="179.5,-180.5 179.5,-199.5 248.5,-199.5 248.5,-180.5 179.5,-180.5"/>
<text text-anchor="middle" x="214" y="-187.5" font-family="Helvetica,sans-Serif" font-size="10.00">libdpd/dpd.h</text>
</a>
</g>
</g>
<!-- Node1&#45;&gt;Node4 -->
<g id="edge3" class="edge"><title>Node1&#45;&gt;Node4</title>
<path fill="none" stroke="midnightblue" d="M214,-292.368C214,-274.617 214,-233.666 214,-209.597"/>
<polygon fill="midnightblue" stroke="midnightblue" points="217.5,-209.591 214,-199.591 210.5,-209.591 217.5,-209.591"/>
</g>
<!-- Node9 -->
<g id="node9" class="node"><title>Node9</title>
<g id="a_node9"><a xlink:href="ccenergy_2Params_8h.html" target="_top" xlink:title="Enter brief description of file here.">
<polygon fill="none" stroke="black" points="933.5,-236.5 933.5,-255.5 992.5,-255.5 992.5,-236.5 933.5,-236.5"/>
<text text-anchor="middle" x="963" y="-243.5" font-family="Helvetica,sans-Serif" font-size="10.00">Params.h</text>
</a>
</g>
</g>
<!-- Node1&#45;&gt;Node9 -->
<g id="edge9" class="edge"><title>Node1&#45;&gt;Node9</title>
<path fill="none" stroke="midnightblue" d="M259.167,-297.744C394.524,-287.985 795.358,-259.086 923.285,-249.863"/>
<polygon fill="midnightblue" stroke="midnightblue" points="923.692,-253.343 933.415,-249.133 923.189,-246.361 923.692,-253.343"/>
</g>
<!-- Node11 -->
<g id="node11" class="node"><title>Node11</title>
<g id="a_node11"><a xlink:href="ccenergy_2globals_8h.html" target="_top" xlink:title="Enter brief description of file here.">
<polygon fill="none" stroke="black" points="424,-236.5 424,-255.5 480,-255.5 480,-236.5 424,-236.5"/>
<text text-anchor="middle" x="452" y="-243.5" font-family="Helvetica,sans-Serif" font-size="10.00">globals.h</text>
</a>
</g>
</g>
<!-- Node1&#45;&gt;Node11 -->
<g id="edge11" class="edge"><title>Node1&#45;&gt;Node11</title>
<path fill="none" stroke="midnightblue" d="M251.712,-292.444C296.096,-282.373 369.38,-265.746 413.923,-255.639"/>
<polygon fill="midnightblue" stroke="midnightblue" points="414.803,-259.029 423.781,-253.403 413.255,-252.202 414.803,-259.029"/>
</g>
<!-- Node4&#45;&gt;Node2 -->
<g id="edge4" class="edge"><title>Node4&#45;&gt;Node2</title>
<path fill="none" stroke="midnightblue" d="M207.02,-180.208C196.652,-167.347 176.321,-142.883 157,-124 139.175,-106.579 124.546,-110.583 114,-88 105.301,-69.3723 110.187,-45.5601 115.544,-29.3823"/>
<polygon fill="midnightblue" stroke="midnightblue" points="118.99,-30.1529 119.166,-19.5595 112.422,-27.731 118.99,-30.1529"/>
</g>
<!-- Node5 -->
<g id="node5" class="node"><title>Node5</title>
<g id="a_node5"><a xlink:href="psifiles_8h_source.html" target="_top" xlink:title="psifiles.h">
<polygon fill="none" stroke="black" points="242,-124.5 242,-143.5 298,-143.5 298,-124.5 242,-124.5"/>
<text text-anchor="middle" x="270" y="-131.5" font-family="Helvetica,sans-Serif" font-size="10.00">psifiles.h</text>
</a>
</g>
</g>
<!-- Node4&#45;&gt;Node5 -->
<g id="edge5" class="edge"><title>Node4&#45;&gt;Node5</title>
<path fill="none" stroke="midnightblue" d="M222.997,-180.324C231.194,-172.42 243.506,-160.548 253.472,-150.938"/>
<polygon fill="midnightblue" stroke="midnightblue" points="256.07,-153.295 260.839,-143.834 251.211,-148.256 256.07,-153.295"/>
</g>
<!-- Node6 -->
<g id="node6" class="node"><title>Node6</title>
<g id="a_node6"><a xlink:href="libpsio_2config_8h_source.html" target="_top" xlink:title="libpsio/config.h">
<polygon fill="none" stroke="black" points="66,-124.5 66,-143.5 148,-143.5 148,-124.5 66,-124.5"/>
<text text-anchor="middle" x="107" y="-131.5" font-family="Helvetica,sans-Serif" font-size="10.00">libpsio/config.h</text>
</a>
</g>
</g>
<!-- Node4&#45;&gt;Node6 -->
<g id="edge6" class="edge"><title>Node4&#45;&gt;Node6</title>
<path fill="none" stroke="midnightblue" d="M196.809,-180.324C179.649,-171.664 153.054,-158.242 133.253,-148.249"/>
<polygon fill="midnightblue" stroke="midnightblue" points="134.653,-145.035 124.149,-143.655 131.499,-151.285 134.653,-145.035"/>
</g>
<!-- Node7 -->
<g id="node7" class="node"><title>Node7</title>
<polygon fill="none" stroke="#bfbfbf" points="316,-124.5 316,-143.5 424,-143.5 424,-124.5 316,-124.5"/>
<text text-anchor="middle" x="370" y="-131.5" font-family="Helvetica,sans-Serif" font-size="10.00">boost/shared_ptr.hpp</text>
</g>
<!-- Node4&#45;&gt;Node7 -->
<g id="edge7" class="edge"><title>Node4&#45;&gt;Node7</title>
<path fill="none" stroke="midnightblue" d="M238.719,-180.444C264.848,-171.399 306.259,-157.064 335.576,-146.916"/>
<polygon fill="midnightblue" stroke="midnightblue" points="337.092,-150.095 345.397,-143.516 334.802,-143.48 337.092,-150.095"/>
</g>
<!-- Node8 -->
<g id="node8" class="node"><title>Node8</title>
<polygon fill="none" stroke="#bfbfbf" points="468,-0.5 468,-19.5 512,-19.5 512,-0.5 468,-0.5"/>
<text text-anchor="middle" x="490" y="-7.5" font-family="Helvetica,sans-Serif" font-size="10.00">vector</text>
</g>
<!-- Node4&#45;&gt;Node8 -->
<g id="edge8" class="edge"><title>Node4&#45;&gt;Node8</title>
<path fill="none" stroke="midnightblue" d="M214.411,-180.419C216.064,-156.345 224.302,-87.8591 265,-56 294.555,-32.8643 402.509,-19.4063 457.433,-13.9142"/>
<polygon fill="midnightblue" stroke="midnightblue" points="458.056,-17.3703 467.671,-12.9215 457.38,-10.403 458.056,-17.3703"/>
</g>
<!-- Node10 -->
<g id="node10" class="node"><title>Node10</title>
<polygon fill="none" stroke="#bfbfbf" points="721.5,-0.5 721.5,-19.5 762.5,-19.5 762.5,-0.5 721.5,-0.5"/>
<text text-anchor="middle" x="742" y="-7.5" font-family="Helvetica,sans-Serif" font-size="10.00">string</text>
</g>
<!-- Node9&#45;&gt;Node10 -->
<g id="edge10" class="edge"><title>Node9&#45;&gt;Node10</title>
<path fill="none" stroke="midnightblue" d="M992.681,-243.991C1082.78,-240.627 1348.58,-228.36 1374,-200 1416.72,-152.346 1417.87,-102.601 1374,-56 1328.6,-7.77341 844.493,-29.8661 779,-20 776.906,-19.6846 774.757,-19.3072 772.599,-18.8882"/>
<polygon fill="midnightblue" stroke="midnightblue" points="773.131,-15.4219 762.614,-16.7022 771.634,-22.26 773.131,-15.4219"/>
</g>
<!-- Node11&#45;&gt;Node5 -->
<g id="edge12" class="edge"><title>Node11&#45;&gt;Node5</title>
<path fill="none" stroke="midnightblue" d="M437.719,-236.368C406.355,-217.412 331.219,-172.001 293.068,-148.942"/>
<polygon fill="midnightblue" stroke="midnightblue" points="294.584,-145.769 284.215,-143.591 290.963,-151.759 294.584,-145.769"/>
</g>
<!-- Node12 -->
<g id="node12" class="node"><title>Node12</title>
<g id="a_node12"><a xlink:href="psi4-dec_8h_source.html" target="_top" xlink:title="psi4&#45;dec.h">
<polygon fill="none" stroke="black" points="635,-180.5 635,-199.5 697,-199.5 697,-180.5 635,-180.5"/>
<text text-anchor="middle" x="666" y="-187.5" font-family="Helvetica,sans-Serif" font-size="10.00">psi4&#45;dec.h</text>
</a>
</g>
</g>
<!-- Node11&#45;&gt;Node12 -->
<g id="edge13" class="edge"><title>Node11&#45;&gt;Node12</title>
<path fill="none" stroke="midnightblue" d="M480.418,-237.829C517.468,-228.48 582.535,-212.061 624.945,-201.36"/>
<polygon fill="midnightblue" stroke="midnightblue" points="625.842,-204.743 634.682,-198.903 624.13,-197.956 625.842,-204.743"/>
</g>
<!-- Node11&#45;&gt;Node10 -->
<g id="edge47" class="edge"><title>Node11&#45;&gt;Node10</title>
<path fill="none" stroke="midnightblue" d="M480.248,-245.342C620.595,-246.31 1239.37,-241.765 1320,-88 1326.6,-75.4044 1329.72,-66.3851 1320,-56 1278.84,-12.0095 838.545,-29.1533 779,-20 776.907,-19.6783 774.759,-19.2961 772.601,-18.8738"/>
<polygon fill="midnightblue" stroke="midnightblue" points="773.136,-15.4078 762.618,-16.6798 771.633,-22.2447 773.136,-15.4078"/>
</g>
<!-- Node33 -->
<g id="node33" class="node"><title>Node33</title>
<g id="a_node33"><a xlink:href="libciomr_8h_source.html" target="_top" xlink:title="libciomr/libciomr.h">
<polygon fill="none" stroke="black" points="404.5,-180.5 404.5,-199.5 499.5,-199.5 499.5,-180.5 404.5,-180.5"/>
<text text-anchor="middle" x="452" y="-187.5" font-family="Helvetica,sans-Serif" font-size="10.00">libciomr/libciomr.h</text>
</a>
</g>
</g>
<!-- Node11&#45;&gt;Node33 -->
<g id="edge48" class="edge"><title>Node11&#45;&gt;Node33</title>
<path fill="none" stroke="midnightblue" d="M452,-236.083C452,-229.006 452,-218.861 452,-209.986"/>
<polygon fill="midnightblue" stroke="midnightblue" points="455.5,-209.751 452,-199.751 448.5,-209.751 455.5,-209.751"/>
</g>
<!-- Node12&#45;&gt;Node7 -->
<g id="edge14" class="edge"><title>Node12&#45;&gt;Node7</title>
<path fill="none" stroke="midnightblue" d="M634.882,-183.323C585.53,-174.32 488.572,-156.631 426.65,-145.335"/>
<polygon fill="midnightblue" stroke="midnightblue" points="427.114,-141.862 416.648,-143.51 425.858,-148.748 427.114,-141.862"/>
</g>
<!-- Node13 -->
<g id="node13" class="node"><title>Node13</title>
<polygon fill="none" stroke="#bfbfbf" points="1162,-62.5 1162,-81.5 1294,-81.5 1294,-62.5 1162,-62.5"/>
<text text-anchor="middle" x="1228" y="-69.5" font-family="Helvetica,sans-Serif" font-size="10.00">boost/current_function.hpp</text>
</g>
<!-- Node12&#45;&gt;Node13 -->
<g id="edge15" class="edge"><title>Node12&#45;&gt;Node13</title>
<path fill="none" stroke="midnightblue" d="M697.025,-188.085C762.85,-185.552 920.957,-176.325 1049,-144 1105.05,-129.849 1167.06,-102.418 1201.4,-86.106"/>
<polygon fill="midnightblue" stroke="midnightblue" points="1203.23,-89.1099 1210.72,-81.6239 1200.19,-82.8005 1203.23,-89.1099"/>
</g>
<!-- Node12&#45;&gt;Node10 -->
<g id="edge16" class="edge"><title>Node12&#45;&gt;Node10</title>
<path fill="none" stroke="midnightblue" d="M697.395,-189.376C815.251,-190.032 1228.36,-185.272 1303,-88 1311.66,-76.7168 1312.71,-66.3956 1303,-56 1263.17,-13.3428 836.672,-28.9289 779,-20 776.907,-19.676 774.759,-19.2922 772.602,-18.8686"/>
<polygon fill="midnightblue" stroke="midnightblue" points="773.137,-15.4027 762.619,-16.6719 771.633,-22.2392 773.137,-15.4027"/>
</g>
<!-- Node14 -->
<g id="node14" class="node"><title>Node14</title>
<polygon fill="none" stroke="#bfbfbf" points="480.5,-124.5 480.5,-143.5 509.5,-143.5 509.5,-124.5 480.5,-124.5"/>
<text text-anchor="middle" x="495" y="-131.5" font-family="Helvetica,sans-Serif" font-size="10.00">list</text>
</g>
<!-- Node12&#45;&gt;Node14 -->
<g id="edge17" class="edge"><title>Node12&#45;&gt;Node14</title>
<path fill="none" stroke="midnightblue" d="M636.264,-180.483C608.369,-172.364 565.307,-159.505 519.233,-143.924"/>
<polygon fill="midnightblue" stroke="midnightblue" points="520.266,-140.578 509.672,-140.665 518.008,-147.204 520.266,-140.578"/>
</g>
<!-- Node15 -->
<g id="node15" class="node"><title>Node15</title>
<polygon fill="none" stroke="#bfbfbf" points="648.5,-62.5 648.5,-81.5 683.5,-81.5 683.5,-62.5 648.5,-62.5"/>
<text text-anchor="middle" x="666" y="-69.5" font-family="Helvetica,sans-Serif" font-size="10.00">map</text>
</g>
<!-- Node12&#45;&gt;Node15 -->
<g id="edge18" class="edge"><title>Node12&#45;&gt;Node15</title>
<path fill="none" stroke="midnightblue" d="M666,-180.281C666,-161.547 666,-117.098 666,-91.6822"/>
<polygon fill="midnightblue" stroke="midnightblue" points="669.5,-91.5047 666,-81.5048 662.5,-91.5048 669.5,-91.5047"/>
</g>
<!-- Node16 -->
<g id="node16" class="node"><title>Node16</title>
<g id="a_node16"><a xlink:href="liboptions_8h_source.html" target="_top" xlink:title="liboptions/liboptions.h">
<polygon fill="none" stroke="black" points="528,-124.5 528,-143.5 638,-143.5 638,-124.5 528,-124.5"/>
<text text-anchor="middle" x="583" y="-131.5" font-family="Helvetica,sans-Serif" font-size="10.00">liboptions/liboptions.h</text>
</a>
</g>
</g>
<!-- Node12&#45;&gt;Node16 -->
<g id="edge19" class="edge"><title>Node12&#45;&gt;Node16</title>
<path fill="none" stroke="midnightblue" d="M652.665,-180.324C639.838,-171.979 620.215,-159.212 605.06,-149.352"/>
<polygon fill="midnightblue" stroke="midnightblue" points="606.593,-146.174 596.302,-143.655 602.776,-152.042 606.593,-146.174"/>
</g>
<!-- Node24 -->
<g id="node24" class="node"><title>Node24</title>
<g id="a_node24"><a xlink:href="include_2exception_8h_source.html" target="_top" xlink:title="exception.h">
<polygon fill="none" stroke="black" points="973.5,-124.5 973.5,-143.5 1040.5,-143.5 1040.5,-124.5 973.5,-124.5"/>
<text text-anchor="middle" x="1007" y="-131.5" font-family="Helvetica,sans-Serif" font-size="10.00">exception.h</text>
</a>
</g>
</g>
<!-- Node12&#45;&gt;Node24 -->
<g id="edge34" class="edge"><title>Node12&#45;&gt;Node24</title>
<path fill="none" stroke="midnightblue" d="M697.165,-184.065C758.078,-174.419 893.065,-153.042 963.033,-141.962"/>
<polygon fill="midnightblue" stroke="midnightblue" points="963.946,-145.362 973.276,-140.34 962.852,-138.448 963.946,-145.362"/>
</g>
<!-- Node29 -->
<g id="node29" class="node"><title>Node29</title>
<g id="a_node29"><a xlink:href="typedefs_8h_source.html" target="_top" xlink:title="libmints/typedefs.h">
<polygon fill="none" stroke="black" points="694.5,-124.5 694.5,-143.5 793.5,-143.5 793.5,-124.5 694.5,-124.5"/>
<text text-anchor="middle" x="744" y="-131.5" font-family="Helvetica,sans-Serif" font-size="10.00">libmints/typedefs.h</text>
</a>
</g>
</g>
<!-- Node12&#45;&gt;Node29 -->
<g id="edge40" class="edge"><title>Node12&#45;&gt;Node29</title>
<path fill="none" stroke="midnightblue" d="M678.532,-180.324C690.586,-171.979 709.027,-159.212 723.269,-149.352"/>
<polygon fill="midnightblue" stroke="midnightblue" points="725.269,-152.224 731.499,-143.655 721.285,-146.469 725.269,-152.224"/>
</g>
<!-- Node16&#45;&gt;Node10 -->
<g id="edge20" class="edge"><title>Node16&#45;&gt;Node10</title>
<path fill="none" stroke="midnightblue" d="M587.366,-124.208C595.53,-108.559 614.519,-75.6734 639,-56 660.535,-38.6935 689.754,-26.766 711.57,-19.5611"/>
<polygon fill="midnightblue" stroke="midnightblue" points="712.832,-22.8332 721.319,-16.4907 710.729,-16.1566 712.832,-22.8332"/>
</g>
<!-- Node16&#45;&gt;Node8 -->
<g id="edge21" class="edge"><title>Node16&#45;&gt;Node8</title>
<path fill="none" stroke="midnightblue" d="M559.562,-124.417C543.02,-117.175 521.634,-105.212 509,-88 496.423,-70.8645 492.105,-46.3949 490.659,-29.6678"/>
<polygon fill="midnightblue" stroke="midnightblue" points="494.142,-29.2825 490.051,-19.5096 487.155,-29.701 494.142,-29.2825"/>
</g>
<!-- Node16&#45;&gt;Node15 -->
<g id="edge22" class="edge"><title>Node16&#45;&gt;Node15</title>
<path fill="none" stroke="midnightblue" d="M594.892,-124.403C608.205,-114.78 630,-99.0242 645.957,-87.4891"/>
<polygon fill="midnightblue" stroke="midnightblue" points="648.076,-90.2756 654.13,-81.5806 643.975,-84.6026 648.076,-90.2756"/>
</g>
<!-- Node17 -->
<g id="node17" class="node"><title>Node17</title>
<polygon fill="none" stroke="#bfbfbf" points="274.5,-62.5 274.5,-81.5 341.5,-81.5 341.5,-62.5 274.5,-62.5"/>
<text text-anchor="middle" x="308" y="-69.5" font-family="Helvetica,sans-Serif" font-size="10.00">exception.h</text>
</g>
<!-- Node16&#45;&gt;Node17 -->
<g id="edge23" class="edge"><title>Node16&#45;&gt;Node17</title>
<path fill="none" stroke="midnightblue" d="M527.645,-124.569C480.318,-116.814 410.615,-104.09 351,-88 347.431,-87.0369 343.732,-85.9253 340.069,-84.7515"/>
<polygon fill="midnightblue" stroke="midnightblue" points="341.165,-81.4277 330.571,-81.5589 338.935,-88.0628 341.165,-81.4277"/>
</g>
<!-- Node18 -->
<g id="node18" class="node"><title>Node18</title>
<g id="a_node18"><a xlink:href="libutil_8h_source.html" target="_top" xlink:title="libutil/libutil.h">
<polygon fill="none" stroke="black" points="518.5,-62.5 518.5,-81.5 591.5,-81.5 591.5,-62.5 518.5,-62.5"/>
<text text-anchor="middle" x="555" y="-69.5" font-family="Helvetica,sans-Serif" font-size="10.00">libutil/libutil.h</text>
</a>
</g>
</g>
<!-- Node16&#45;&gt;Node18 -->
<g id="edge24" class="edge"><title>Node16&#45;&gt;Node18</title>
<path fill="none" stroke="midnightblue" d="M578.988,-124.403C574.913,-115.671 568.482,-101.889 563.304,-90.7936"/>
<polygon fill="midnightblue" stroke="midnightblue" points="566.405,-89.1623 559.004,-81.5806 560.062,-92.1225 566.405,-89.1623"/>
</g>
<!-- Node20 -->
<g id="node20" class="node"><title>Node20</title>
<g id="a_node20"><a xlink:href="libutil_2ref_8h_source.html" target="_top" xlink:title="libutil/ref.h">
<polygon fill="none" stroke="black" points="156,-62.5 156,-81.5 218,-81.5 218,-62.5 156,-62.5"/>
<text text-anchor="middle" x="187" y="-69.5" font-family="Helvetica,sans-Serif" font-size="10.00">libutil/ref.h</text>
</a>
</g>
</g>
<!-- Node16&#45;&gt;Node20 -->
<g id="edge28" class="edge"><title>Node16&#45;&gt;Node20</title>
<path fill="none" stroke="midnightblue" d="M527.69,-125.325C443.51,-113.621 290.299,-92.22 265,-88 253.007,-85.9995 240.022,-83.5977 228.152,-81.3082"/>
<polygon fill="midnightblue" stroke="midnightblue" points="228.546,-77.8191 218.06,-79.3381 227.204,-84.6894 228.546,-77.8191"/>
</g>
<!-- Node23 -->
<g id="node23" class="node"><title>Node23</title>
<polygon fill="none" stroke="#bfbfbf" points="360,-57 360,-87 462,-87 462,-57 360,-57"/>
<text text-anchor="start" x="368" y="-75" font-family="Helvetica,sans-Serif" font-size="10.00">boost/python/object</text>
<text text-anchor="middle" x="411" y="-64" font-family="Helvetica,sans-Serif" font-size="10.00">_fwd.hpp</text>
</g>
<!-- Node16&#45;&gt;Node23 -->
<g id="edge33" class="edge"><title>Node16&#45;&gt;Node23</title>
<path fill="none" stroke="midnightblue" d="M558.357,-124.403C533.018,-115.564 492.852,-101.553 460.85,-90.3895"/>
<polygon fill="midnightblue" stroke="midnightblue" points="461.801,-87.0144 451.206,-87.0253 459.495,-93.6238 461.801,-87.0144"/>
</g>
<!-- Node18&#45;&gt;Node10 -->
<g id="edge25" class="edge"><title>Node18&#45;&gt;Node10</title>
<path fill="none" stroke="midnightblue" d="M581.793,-62.4035C616.078,-51.4029 675.332,-32.3908 711.37,-20.8279"/>
<polygon fill="midnightblue" stroke="midnightblue" points="712.864,-24.0242 721.317,-17.6363 710.726,-17.3589 712.864,-24.0242"/>
</g>
<!-- Node18&#45;&gt;Node8 -->
<g id="edge26" class="edge"><title>Node18&#45;&gt;Node8</title>
<path fill="none" stroke="midnightblue" d="M545.687,-62.4035C535.551,-53.047 519.136,-37.8948 506.748,-26.4599"/>
<polygon fill="midnightblue" stroke="midnightblue" points="509.018,-23.7916 499.296,-19.5806 504.27,-28.9352 509.018,-23.7916"/>
</g>
<!-- Node19 -->
<g id="node19" class="node"><title>Node19</title>
<polygon fill="none" stroke="#bfbfbf" points="530,-0.5 530,-19.5 592,-19.5 592,-0.5 530,-0.5"/>
<text text-anchor="middle" x="561" y="-7.5" font-family="Helvetica,sans-Serif" font-size="10.00">sys/time.h</text>
</g>
<!-- Node18&#45;&gt;Node19 -->
<g id="edge27" class="edge"><title>Node18&#45;&gt;Node19</title>
<path fill="none" stroke="midnightblue" d="M555.86,-62.4035C556.706,-53.9381 558.027,-40.7283 559.118,-29.8199"/>
<polygon fill="midnightblue" stroke="midnightblue" points="562.629,-29.8793 560.142,-19.5806 555.664,-29.1827 562.629,-29.8793"/>
</g>
<!-- Node21 -->
<g id="node21" class="node"><title>Node21</title>
<polygon fill="none" stroke="#bfbfbf" points="162.5,-0.5 162.5,-19.5 211.5,-19.5 211.5,-0.5 162.5,-0.5"/>
<text text-anchor="middle" x="187" y="-7.5" font-family="Helvetica,sans-Serif" font-size="10.00">cstddef</text>
</g>
<!-- Node20&#45;&gt;Node21 -->
<g id="edge29" class="edge"><title>Node20&#45;&gt;Node21</title>
<path fill="none" stroke="midnightblue" d="M187,-62.4035C187,-53.9381 187,-40.7283 187,-29.8199"/>
<polygon fill="midnightblue" stroke="midnightblue" points="190.5,-29.5806 187,-19.5806 183.5,-29.5806 190.5,-29.5806"/>
</g>
<!-- Node20&#45;&gt;Node2 -->
<g id="edge30" class="edge"><title>Node20&#45;&gt;Node2</title>
<path fill="none" stroke="midnightblue" d="M177.83,-62.4035C167.85,-53.047 151.688,-37.8948 139.491,-26.4599"/>
<polygon fill="midnightblue" stroke="midnightblue" points="141.842,-23.8666 132.153,-19.5806 137.054,-28.9734 141.842,-23.8666"/>
</g>
<!-- Node20&#45;&gt;Node3 -->
<g id="edge31" class="edge"><title>Node20&#45;&gt;Node3</title>
<path fill="none" stroke="midnightblue" d="M164.649,-62.4035C138.005,-52.1559 93.2857,-34.9561 62.9855,-23.3021"/>
<polygon fill="midnightblue" stroke="midnightblue" points="63.8994,-19.9037 53.3095,-19.5806 61.3865,-26.4372 63.8994,-19.9037"/>
</g>
<!-- Node22 -->
<g id="node22" class="node"><title>Node22</title>
<polygon fill="none" stroke="#bfbfbf" points="230,-0.5 230,-19.5 282,-19.5 282,-0.5 230,-0.5"/>
<text text-anchor="middle" x="256" y="-7.5" font-family="Helvetica,sans-Serif" font-size="10.00">assert.h</text>
</g>
<!-- Node20&#45;&gt;Node22 -->
<g id="edge32" class="edge"><title>Node20&#45;&gt;Node22</title>
<path fill="none" stroke="midnightblue" d="M196.886,-62.4035C207.646,-53.047 225.071,-37.8948 238.221,-26.4599"/>
<polygon fill="midnightblue" stroke="midnightblue" points="240.883,-28.7835 246.132,-19.5806 236.29,-23.5013 240.883,-28.7835"/>
</g>
<!-- Node25 -->
<g id="node25" class="node"><title>Node25</title>
<polygon fill="none" stroke="#bfbfbf" points="1084.5,-62.5 1084.5,-81.5 1143.5,-81.5 1143.5,-62.5 1084.5,-62.5"/>
<text text-anchor="middle" x="1114" y="-69.5" font-family="Helvetica,sans-Serif" font-size="10.00">exception</text>
</g>
<!-- Node24&#45;&gt;Node25 -->
<g id="edge35" class="edge"><title>Node24&#45;&gt;Node25</title>
<path fill="none" stroke="midnightblue" d="M1022.33,-124.403C1039.97,-114.512 1069.16,-98.1442 1089.86,-86.5378"/>
<polygon fill="midnightblue" stroke="midnightblue" points="1091.69,-89.5244 1098.7,-81.5806 1088.26,-83.4188 1091.69,-89.5244"/>
</g>
<!-- Node26 -->
<g id="node26" class="node"><title>Node26</title>
<polygon fill="none" stroke="#bfbfbf" points="869.5,-62.5 869.5,-81.5 928.5,-81.5 928.5,-62.5 869.5,-62.5"/>
<text text-anchor="middle" x="899" y="-69.5" font-family="Helvetica,sans-Serif" font-size="10.00">stdexcept</text>
</g>
<!-- Node24&#45;&gt;Node26 -->
<g id="edge36" class="edge"><title>Node24&#45;&gt;Node26</title>
<path fill="none" stroke="midnightblue" d="M991.526,-124.403C973.722,-114.512 944.259,-98.1442 923.368,-86.5378"/>
<polygon fill="midnightblue" stroke="midnightblue" points="924.886,-83.3775 914.445,-81.5806 921.487,-89.4966 924.886,-83.3775"/>
</g>
<!-- Node27 -->
<g id="node27" class="node"><title>Node27</title>
<polygon fill="none" stroke="#bfbfbf" points="947,-62.5 947,-81.5 999,-81.5 999,-62.5 947,-62.5"/>
<text text-anchor="middle" x="973" y="-69.5" font-family="Helvetica,sans-Serif" font-size="10.00">sstream</text>
</g>
<!-- Node24&#45;&gt;Node27 -->
<g id="edge37" class="edge"><title>Node24&#45;&gt;Node27</title>
<path fill="none" stroke="midnightblue" d="M1002.13,-124.403C997.13,-115.582 989.211,-101.608 982.891,-90.4548"/>
<polygon fill="midnightblue" stroke="midnightblue" points="985.838,-88.5553 977.862,-81.5806 979.747,-92.0064 985.838,-88.5553"/>
</g>
<!-- Node28 -->
<g id="node28" class="node"><title>Node28</title>
<polygon fill="none" stroke="#bfbfbf" points="1017.5,-62.5 1017.5,-81.5 1066.5,-81.5 1066.5,-62.5 1017.5,-62.5"/>
<text text-anchor="middle" x="1042" y="-69.5" font-family="Helvetica,sans-Serif" font-size="10.00">string.h</text>
</g>
<!-- Node24&#45;&gt;Node28 -->
<g id="edge38" class="edge"><title>Node24&#45;&gt;Node28</title>
<path fill="none" stroke="midnightblue" d="M1012.01,-124.403C1017.16,-115.582 1025.31,-101.608 1031.82,-90.4548"/>
<polygon fill="midnightblue" stroke="midnightblue" points="1034.98,-91.982 1036.99,-81.5806 1028.93,-88.4548 1034.98,-91.982"/>
</g>
<!-- Node24&#45;&gt;Node13 -->
<g id="edge39" class="edge"><title>Node24&#45;&gt;Node13</title>
<path fill="none" stroke="midnightblue" d="M1038.66,-124.403C1077.56,-113.844 1143.64,-95.9027 1186.55,-84.2538"/>
<polygon fill="midnightblue" stroke="midnightblue" points="1187.66,-87.5785 1196.39,-81.5806 1185.83,-80.823 1187.66,-87.5785"/>
</g>
<!-- Node30 -->
<g id="node30" class="node"><title>Node30</title>
<g id="a_node30"><a xlink:href="compiler_8h_source.html" target="_top" xlink:title="compiler.h">
<polygon fill="none" stroke="black" points="789,-62.5 789,-81.5 851,-81.5 851,-62.5 789,-62.5"/>
<text text-anchor="middle" x="820" y="-69.5" font-family="Helvetica,sans-Serif" font-size="10.00">compiler.h</text>
</a>
</g>
</g>
<!-- Node29&#45;&gt;Node30 -->
<g id="edge41" class="edge"><title>Node29&#45;&gt;Node30</title>
<path fill="none" stroke="midnightblue" d="M754.889,-124.403C766.966,-114.869 786.667,-99.3154 801.24,-87.8106"/>
<polygon fill="midnightblue" stroke="midnightblue" points="803.451,-90.5242 809.131,-81.5806 799.114,-85.03 803.451,-90.5242"/>
</g>
<!-- Node32 -->
<g id="node32" class="node"><title>Node32</title>
<g id="a_node32"><a xlink:href="dimension_8h_source.html" target="_top" xlink:title="dimension.h">
<polygon fill="none" stroke="black" points="701.5,-62.5 701.5,-81.5 770.5,-81.5 770.5,-62.5 701.5,-62.5"/>
<text text-anchor="middle" x="736" y="-69.5" font-family="Helvetica,sans-Serif" font-size="10.00">dimension.h</text>
</a>
</g>
</g>
<!-- Node29&#45;&gt;Node32 -->
<g id="edge43" class="edge"><title>Node29&#45;&gt;Node32</title>
<path fill="none" stroke="midnightblue" d="M742.854,-124.403C741.725,-115.938 739.964,-102.728 738.509,-91.8199"/>
<polygon fill="midnightblue" stroke="midnightblue" points="741.935,-91.0303 737.144,-81.5806 734.997,-91.9555 741.935,-91.0303"/>
</g>
<!-- Node31 -->
<g id="node31" class="node"><title>Node31</title>
<polygon fill="none" stroke="#bfbfbf" points="788,-0.5 788,-19.5 852,-19.5 852,-0.5 788,-0.5"/>
<text text-anchor="middle" x="820" y="-7.5" font-family="Helvetica,sans-Serif" font-size="10.00">psiconfig.h</text>
</g>
<!-- Node30&#45;&gt;Node31 -->
<g id="edge42" class="edge"><title>Node30&#45;&gt;Node31</title>
<path fill="none" stroke="midnightblue" d="M820,-62.4035C820,-53.9381 820,-40.7283 820,-29.8199"/>
<polygon fill="midnightblue" stroke="midnightblue" points="823.5,-29.5806 820,-19.5806 816.5,-29.5806 823.5,-29.5806"/>
</g>
<!-- Node32&#45;&gt;Node10 -->
<g id="edge44" class="edge"><title>Node32&#45;&gt;Node10</title>
<path fill="none" stroke="midnightblue" d="M736.86,-62.4035C737.706,-53.9381 739.027,-40.7283 740.118,-29.8199"/>
<polygon fill="midnightblue" stroke="midnightblue" points="743.629,-29.8793 741.142,-19.5806 736.664,-29.1827 743.629,-29.8793"/>
</g>
<!-- Node32&#45;&gt;Node2 -->
<g id="edge45" class="edge"><title>Node32&#45;&gt;Node2</title>
<path fill="none" stroke="midnightblue" d="M714.377,-62.3714C707.347,-59.9075 699.439,-57.4895 692,-56 459.802,-9.50573 391.123,-61.3093 154.744,-19.938"/>
<polygon fill="midnightblue" stroke="midnightblue" points="155.277,-16.4778 144.817,-18.1634 154.045,-23.3686 155.277,-16.4778"/>
</g>
<!-- Node32&#45;&gt;Node8 -->
<g id="edge46" class="edge"><title>Node32&#45;&gt;Node8</title>
<path fill="none" stroke="midnightblue" d="M712.415,-62.3727C705.855,-60.134 698.693,-57.8381 692,-56 620.179,-36.2756 598.14,-38.601 522.327,-20.172"/>
<polygon fill="midnightblue" stroke="midnightblue" points="522.845,-16.6945 512.297,-17.6901 521.163,-23.4896 522.845,-16.6945"/>
</g>
<!-- Node33&#45;&gt;Node2 -->
<g id="edge49" class="edge"><title>Node33&#45;&gt;Node2</title>
<path fill="none" stroke="midnightblue" d="M452.248,-180.26C452.132,-166.07 449.643,-138.185 433,-124 335.494,-40.8983 245.24,-170.233 147,-88 130.008,-73.777 124.853,-47.7145 123.393,-29.885"/>
<polygon fill="midnightblue" stroke="midnightblue" points="126.884,-29.6068 122.885,-19.7957 119.893,-29.9592 126.884,-29.6068"/>
</g>
</g>
</svg>
        <g id="navigator" transform="translate(0 0)" fill="#404254">
                <rect fill="#f2f5e9" fill-opacity="0.5" stroke="#606060" stroke-width=".5" x="0" y="0" width="60" height="60"/>
                <use id="zoomplus" xlink:href="#zoomPlus" x="17" y="9" onmousedown="handleZoom(evt,'in')"/>
                <use id="zoomminus" xlink:href="#zoomMin" x="42" y="9" onmousedown="handleZoom(evt,'out')"/>
                <use id="reset" xlink:href="#resetDef" x="30" y="36" onmousedown="handleReset()"/>
                <g id="arrowUp" xlink:href="#dirArrow" transform="translate(30 24)" onmousedown="handlePan(0,-1)">
                  <use xlink:href="#rim" fill="#404040">
                        <set attributeName="fill" to="#808080" begin="arrowUp.mouseover" end="arrowUp.mouseout"/>
                  </use>
                  <path fill="none" stroke="white" stroke-width="1.5" d="M0,-3.0v7 M-2.5,-0.5L0,-3.0L2.5,-0.5"/>
                </g>
                <g id="arrowRight" xlink:href="#dirArrow" transform="rotate(90) translate(36 -43)" onmousedown="handlePan(1,0)">
                  <use xlink:href="#rim" fill="#404040">
                        <set attributeName="fill" to="#808080" begin="arrowRight.mouseover" end="arrowRight.mouseout"/>
                  </use>
                  <path fill="none" stroke="white" stroke-width="1.5" d="M0,-3.0v7 M-2.5,-0.5L0,-3.0L2.5,-0.5"/>
                </g>
                <g id="arrowDown" xlink:href="#dirArrow" transform="rotate(180) translate(-30 -48)" onmousedown="handlePan(0,1)">
                  <use xlink:href="#rim" fill="#404040">
                        <set attributeName="fill" to="#808080" begin="arrowDown.mouseover" end="arrowDown.mouseout"/>
                  </use>
                  <path fill="none" stroke="white" stroke-width="1.5" d="M0,-3.0v7 M-2.5,-0.5L0,-3.0L2.5,-0.5"/>
                </g>
                <g id="arrowLeft" xlink:href="#dirArrow" transform="rotate(270) translate(-36 17)" onmousedown="handlePan(-1,0)">
                  <use xlink:href="#rim" fill="#404040">
                        <set attributeName="fill" to="#808080" begin="arrowLeft.mouseover" end="arrowLeft.mouseout"/>
                  </use>
                  <path fill="none" stroke="white" stroke-width="1.5" d="M0,-3.0v7 M-2.5,-0.5L0,-3.0L2.5,-0.5"/>
                </g>
        </g>
        <svg viewBox="0 0 15 15" width="100%" height="30px" preserveAspectRatio="xMaxYMin meet">
         <g id="arrow_out" transform="scale(0.3 0.3)">
          <a xlink:href="cc2__WmbijT2_8cc__incl_org.svg" target="_base">
           <rect id="button" ry="5" rx="5" y="6" x="6" height="38" width="38"
                fill="#f2f5e9" fill-opacity="0.5" stroke="#606060" stroke-width="1.0"/>
           <path id="arrow"
             d="M 11.500037,31.436501 C 11.940474,20.09759 22.043105,11.32322 32.158766,21.979434 L 37.068811,17.246167 C 37.068811,17.246167 37.088388,32 37.088388,32 L 22.160133,31.978069 C 22.160133,31.978069 26.997745,27.140456 26.997745,27.140456 C 18.528582,18.264221 13.291696,25.230495 11.500037,31.436501 z"
             style="fill:#404040;"/>
          </a>
         </g>
        </svg>
</svg>
