<?xml version="1.0" encoding="UTF-8" standalone="no"?>
<!DOCTYPE svg PUBLIC "-//W3C//DTD SVG 1.1//EN"
 "http://www.w3.org/Graphics/SVG/1.1/DTD/svg11.dtd">
<!-- Generated by graphviz version 2.30.1 (20140110.0959)
 -->
<!-- Title: cc2_LHX1Y1.cc Pages: 1 -->
<!--zoomable 140 -->
<svg id="main" version="1.1" xmlns="http://www.w3.org/2000/svg" xmlns:xlink="http://www.w3.org/1999/xlink" xml:space="preserve" onload="init(evt)">
        <defs>
                <circle id="rim" cx="0" cy="0" r="7"/>
                <circle id="rim2" cx="0" cy="0" r="3.5"/>
                <g id="zoomPlus">
                        <use xlink:href="#rim" fill="#404040">
                                <set attributeName="fill" to="#808080" begin="zoomplus.mouseover" end="zoomplus.mouseout"/>
                        </use>
                        <path d="M-4,0h8M0,-4v8" fill="none" stroke="white" stroke-width="1.5" pointer-events="none"/>
                </g>
                <g id="zoomMin">
                        <use xlink:href="#rim" fill="#404040">
                                <set attributeName="fill" to="#808080" begin="zoomminus.mouseover" end="zoomminus.mouseout"/>
                        </use>
                        <path d="M-4,0h8" fill="none" stroke="white" stroke-width="1.5" pointer-events="none"/>
                </g>
                <g id="dirArrow">
                        <path fill="none" stroke="white" stroke-width="1.5" d="M0,-3.0v7 M-2.5,-0.5L0,-3.0L2.5,-0.5"/>
                </g>
               <g id="resetDef">
                       <use xlink:href="#rim2" fill="#404040">
                               <set attributeName="fill" to="#808080" begin="reset.mouseover" end="reset.mouseout"/>
                       </use>
               </g>
        </defs>

<script type="text/javascript">
var viewWidth = 876;
var viewHeight = 140;
var sectionId = 'dynsection-0';
</script>
<script xlink:href="svgpan.js"/>
<svg id="graph" class="graph">
<g id="viewport">
<title>cc2_LHX1Y1.cc</title>
<!-- Node1 -->
<g id="node1" class="node"><title>Node1</title>
<polygon fill="#bfbfbf" stroke="black" points="412,-112.5 412,-131.5 500,-131.5 500,-112.5 412,-112.5"/>
<text text-anchor="middle" x="456" y="-119.5" font-family="Helvetica,sans-Serif" font-size="10.00">cc2_LHX1Y1.cc</text>
</g>
<!-- Node2 -->
<g id="node2" class="node"><title>Node2</title>
<polygon fill="none" stroke="#bfbfbf" points="-0.5,-56.5 -0.5,-75.5 44.5,-75.5 44.5,-56.5 -0.5,-56.5"/>
<text text-anchor="middle" x="22" y="-63.5" font-family="Helvetica,sans-Serif" font-size="10.00">cstdlib</text>
</g>
<!-- Node1&#45;&gt;Node2 -->
<g id="edge1" class="edge"><title>Node1&#45;&gt;Node2</title>
<path fill="none" stroke="midnightblue" d="M411.974,-117.829C338.453,-112.127 186.202,-98.5874 59,-76 57.5355,-75.7399 56.0425,-75.4561 54.5375,-75.1546"/>
<polygon fill="midnightblue" stroke="midnightblue" points="55.1206,-71.6993 44.6028,-72.975 53.6204,-78.5367 55.1206,-71.6993"/>
</g>
<!-- Node3 -->
<g id="node3" class="node"><title>Node3</title>
<polygon fill="none" stroke="#bfbfbf" points="149.5,-0.5 149.5,-19.5 192.5,-19.5 192.5,-0.5 149.5,-0.5"/>
<text text-anchor="middle" x="171" y="-7.5" font-family="Helvetica,sans-Serif" font-size="10.00">cstdio</text>
</g>
<!-- Node1&#45;&gt;Node3 -->
<g id="edge2" class="edge"><title>Node1&#45;&gt;Node3</title>
<path fill="none" stroke="midnightblue" d="M411.978,-118.773C319.727,-113.655 112.902,-99.6451 92,-76 72.8709,-54.3604 109.921,-33.9847 139.497,-21.9989"/>
<polygon fill="midnightblue" stroke="midnightblue" points="141.085,-25.1377 149.149,-18.2661 138.559,-18.609 141.085,-25.1377"/>
</g>
<!-- Node4 -->
<g id="node4" class="node"><title>Node4</title>
<polygon fill="none" stroke="#bfbfbf" points="685,-56.5 685,-75.5 731,-75.5 731,-56.5 685,-56.5"/>
<text text-anchor="middle" x="708" y="-63.5" font-family="Helvetica,sans-Serif" font-size="10.00">cstring</text>
</g>
<!-- Node1&#45;&gt;Node4 -->
<g id="edge3" class="edge"><title>Node1&#45;&gt;Node4</title>
<path fill="none" stroke="midnightblue" d="M500.036,-112.965C542.51,-104.998 608.803,-91.9949 675.188,-76.0611"/>
<polygon fill="midnightblue" stroke="midnightblue" points="676.085,-79.445 684.98,-73.6892 674.437,-72.6418 676.085,-79.445"/>
</g>
<!-- Node5 -->
<g id="node5" class="node"><title>Node5</title>
<polygon fill="none" stroke="#bfbfbf" points="749,-56.5 749,-75.5 793,-75.5 793,-56.5 749,-56.5"/>
<text text-anchor="middle" x="771" y="-63.5" font-family="Helvetica,sans-Serif" font-size="10.00">cmath</text>
</g>
<!-- Node1&#45;&gt;Node5 -->
<g id="edge4" class="edge"><title>Node1&#45;&gt;Node5</title>
<path fill="none" stroke="midnightblue" d="M500.11,-115.755C554.255,-108.931 649.001,-95.7489 738.927,-76.01"/>
<polygon fill="midnightblue" stroke="midnightblue" points="739.735,-79.4158 748.735,-73.8261 738.214,-72.5831 739.735,-79.4158"/>
</g>
<!-- Node6 -->
<g id="node6" class="node"><title>Node6</title>
<g id="a_node6"><a xlink:href="lib_2libdpd_2dpd_8h.html" target="_top" xlink:title="Enter brief description of file here.">
<polygon fill="none" stroke="black" points="381.5,-56.5 381.5,-75.5 450.5,-75.5 450.5,-56.5 381.5,-56.5"/>
<text text-anchor="middle" x="416" y="-63.5" font-family="Helvetica,sans-Serif" font-size="10.00">libdpd/dpd.h</text>
</a>
</g>
</g>
<!-- Node1&#45;&gt;Node6 -->
<g id="edge5" class="edge"><title>Node1&#45;&gt;Node6</title>
<path fill="none" stroke="midnightblue" d="M449.395,-112.083C443.745,-104.455 435.455,-93.2645 428.549,-83.9408"/>
<polygon fill="midnightblue" stroke="midnightblue" points="431.247,-81.7034 422.482,-75.7511 425.622,-85.87 431.247,-81.7034"/>
</g>
<!-- Node11 -->
<g id="node11" class="node"><title>Node11</title>
<g id="a_node11"><a xlink:href="libciomr_8h_source.html" target="_top" xlink:title="libciomr/libciomr.h">
<polygon fill="none" stroke="black" points="101.5,-56.5 101.5,-75.5 196.5,-75.5 196.5,-56.5 101.5,-56.5"/>
<text text-anchor="middle" x="149" y="-63.5" font-family="Helvetica,sans-Serif" font-size="10.00">libciomr/libciomr.h</text>
</a>
</g>
</g>
<!-- Node1&#45;&gt;Node11 -->
<g id="edge11" class="edge"><title>Node1&#45;&gt;Node11</title>
<path fill="none" stroke="midnightblue" d="M411.687,-113.206C357.611,-103.694 266.052,-87.5889 206.569,-77.1261"/>
<polygon fill="midnightblue" stroke="midnightblue" points="207.036,-73.6547 196.581,-75.3693 205.823,-80.5488 207.036,-73.6547"/>
</g>
<!-- Node12 -->
<g id="node12" class="node"><title>Node12</title>
<g id="a_node12"><a xlink:href="psio_8h_source.html" target="_top" xlink:title="libpsio/psio.h">
<polygon fill="none" stroke="black" points="215,-56.5 215,-75.5 289,-75.5 289,-56.5 215,-56.5"/>
<text text-anchor="middle" x="252" y="-63.5" font-family="Helvetica,sans-Serif" font-size="10.00">libpsio/psio.h</text>
</a>
</g>
</g>
<!-- Node1&#45;&gt;Node12 -->
<g id="edge13" class="edge"><title>Node1&#45;&gt;Node12</title>
<path fill="none" stroke="midnightblue" d="M423.676,-112.444C388.611,-103.162 332.502,-88.3093 294.035,-78.127"/>
<polygon fill="midnightblue" stroke="midnightblue" points="294.736,-74.692 284.173,-75.5164 292.945,-81.4589 294.736,-74.692"/>
</g>
<!-- Node13 -->
<g id="node13" class="node"><title>Node13</title>
<g id="a_node13"><a xlink:href="qt_8h.html" target="_top" xlink:title="Header file for the Quantum Trio LibraryDavid Sherrill 1994.">
<polygon fill="none" stroke="black" points="469,-56.5 469,-75.5 523,-75.5 523,-56.5 469,-56.5"/>
<text text-anchor="middle" x="496" y="-63.5" font-family="Helvetica,sans-Serif" font-size="10.00">libqt/qt.h</text>
</a>
</g>
</g>
<!-- Node1&#45;&gt;Node13 -->
<g id="edge16" class="edge"><title>Node1&#45;&gt;Node13</title>
<path fill="none" stroke="midnightblue" d="M462.605,-112.083C468.255,-104.455 476.545,-93.2645 483.451,-83.9408"/>
<polygon fill="midnightblue" stroke="midnightblue" points="486.378,-85.87 489.518,-75.7511 480.753,-81.7034 486.378,-85.87"/>
</g>
<!-- Node15 -->
<g id="node15" class="node"><title>Node15</title>
<g id="a_node15"><a xlink:href="ccresponse_2MOInfo_8h.html" target="_top" xlink:title="Enter brief description of file here.">
<polygon fill="none" stroke="black" points="811.5,-56.5 811.5,-75.5 868.5,-75.5 868.5,-56.5 811.5,-56.5"/>
<text text-anchor="middle" x="840" y="-63.5" font-family="Helvetica,sans-Serif" font-size="10.00">MOInfo.h</text>
</a>
</g>
</g>
<!-- Node1&#45;&gt;Node15 -->
<g id="edge19" class="edge"><title>Node1&#45;&gt;Node15</title>
<path fill="none" stroke="midnightblue" d="M500.194,-116.729C564.328,-110.207 687.092,-96.5083 801.456,-75.9176"/>
<polygon fill="midnightblue" stroke="midnightblue" points="802.222,-79.3357 811.433,-74.0997 800.967,-72.4491 802.222,-79.3357"/>
</g>
<!-- Node16 -->
<g id="node16" class="node"><title>Node16</title>
<g id="a_node16"><a xlink:href="ccresponse_2Params_8h.html" target="_top" xlink:title="Enter brief description of file here.">
<polygon fill="none" stroke="black" points="541.5,-56.5 541.5,-75.5 600.5,-75.5 600.5,-56.5 541.5,-56.5"/>
<text text-anchor="middle" x="571" y="-63.5" font-family="Helvetica,sans-Serif" font-size="10.00">Params.h</text>
</a>
</g>
</g>
<!-- Node1&#45;&gt;Node16 -->
<g id="edge20" class="edge"><title>Node1&#45;&gt;Node16</title>
<path fill="none" stroke="midnightblue" d="M474.222,-112.444C492.896,-103.675 522.156,-89.9355 543.617,-79.8579"/>
<polygon fill="midnightblue" stroke="midnightblue" points="545.299,-82.935 552.863,-75.5164 542.324,-76.5988 545.299,-82.935"/>
</g>
<!-- Node17 -->
<g id="node17" class="node"><title>Node17</title>
<g id="a_node17"><a xlink:href="ccresponse_2Local_8h.html" target="_top" xlink:title="Enter brief description of file here.">
<polygon fill="none" stroke="black" points="619,-56.5 619,-75.5 667,-75.5 667,-56.5 619,-56.5"/>
<text text-anchor="middle" x="643" y="-63.5" font-family="Helvetica,sans-Serif" font-size="10.00">Local.h</text>
</a>
</g>
</g>
<!-- Node1&#45;&gt;Node17 -->
<g id="edge22" class="edge"><title>Node1&#45;&gt;Node17</title>
<path fill="none" stroke="midnightblue" d="M485.631,-112.444C519.187,-102.753 573.768,-86.9921 609.023,-76.8115"/>
<polygon fill="midnightblue" stroke="midnightblue" points="610.223,-80.108 618.86,-73.971 608.281,-73.3828 610.223,-80.108"/>
</g>
<!-- Node18 -->
<g id="node18" class="node"><title>Node18</title>
<g id="a_node18"><a xlink:href="ccresponse_2globals_8h.html" target="_top" xlink:title="Enter brief description of file here.">
<polygon fill="none" stroke="black" points="307,-56.5 307,-75.5 363,-75.5 363,-56.5 307,-56.5"/>
<text text-anchor="middle" x="335" y="-63.5" font-family="Helvetica,sans-Serif" font-size="10.00">globals.h</text>
</a>
</g>
</g>
<!-- Node1&#45;&gt;Node18 -->
<g id="edge24" class="edge"><title>Node1&#45;&gt;Node18</title>
<path fill="none" stroke="midnightblue" d="M436.827,-112.444C417.091,-103.636 386.115,-89.8116 363.507,-79.722"/>
<polygon fill="midnightblue" stroke="midnightblue" points="364.641,-76.3957 354.083,-75.5164 361.789,-82.788 364.641,-76.3957"/>
</g>
<!-- Node6&#45;&gt;Node3 -->
<g id="edge6" class="edge"><title>Node6&#45;&gt;Node3</title>
<path fill="none" stroke="midnightblue" d="M381.494,-57.8928C330.94,-47.4602 239.492,-28.506 202.573,-19.9071"/>
<polygon fill="midnightblue" stroke="midnightblue" points="203.166,-16.4497 192.624,-17.5031 201.522,-23.2539 203.166,-16.4497"/>
</g>
<!-- Node7 -->
<g id="node7" class="node"><title>Node7</title>
<g id="a_node7"><a xlink:href="psifiles_8h_source.html" target="_top" xlink:title="psifiles.h">
<polygon fill="none" stroke="black" points="311,-0.5 311,-19.5 367,-19.5 367,-0.5 311,-0.5"/>
<text text-anchor="middle" x="339" y="-7.5" font-family="Helvetica,sans-Serif" font-size="10.00">psifiles.h</text>
</a>
</g>
</g>
<!-- Node6&#45;&gt;Node7 -->
<g id="edge7" class="edge"><title>Node6&#45;&gt;Node7</title>
<path fill="none" stroke="midnightblue" d="M403.629,-56.324C391.842,-48.0577 373.868,-35.4527 359.864,-25.6322"/>
<polygon fill="midnightblue" stroke="midnightblue" points="361.538,-22.5307 351.341,-19.6545 357.518,-28.2619 361.538,-22.5307"/>
</g>
<!-- Node8 -->
<g id="node8" class="node"><title>Node8</title>
<g id="a_node8"><a xlink:href="libpsio_2config_8h_source.html" target="_top" xlink:title="libpsio/config.h">
<polygon fill="none" stroke="black" points="211,-0.5 211,-19.5 293,-19.5 293,-0.5 211,-0.5"/>
<text text-anchor="middle" x="252" y="-7.5" font-family="Helvetica,sans-Serif" font-size="10.00">libpsio/config.h</text>
</a>
</g>
</g>
<!-- Node6&#45;&gt;Node8 -->
<g id="edge8" class="edge"><title>Node6&#45;&gt;Node8</title>
<path fill="none" stroke="midnightblue" d="M390.014,-56.4435C362.304,-47.3196 318.248,-32.8133 287.384,-22.6509"/>
<polygon fill="midnightblue" stroke="midnightblue" points="288.458,-19.3196 277.865,-19.5164 286.268,-25.9684 288.458,-19.3196"/>
</g>
<!-- Node9 -->
<g id="node9" class="node"><title>Node9</title>
<polygon fill="none" stroke="#bfbfbf" points="385,-0.5 385,-19.5 493,-19.5 493,-0.5 385,-0.5"/>
<text text-anchor="middle" x="439" y="-7.5" font-family="Helvetica,sans-Serif" font-size="10.00">boost/shared_ptr.hpp</text>
</g>
<!-- Node6&#45;&gt;Node9 -->
<g id="edge9" class="edge"><title>Node6&#45;&gt;Node9</title>
<path fill="none" stroke="midnightblue" d="M419.798,-56.083C422.913,-48.77 427.423,-38.1814 431.289,-29.1034"/>
<polygon fill="midnightblue" stroke="midnightblue" points="434.574,-30.3229 435.273,-19.7511 428.134,-27.5798 434.574,-30.3229"/>
</g>
<!-- Node10 -->
<g id="node10" class="node"><title>Node10</title>
<polygon fill="none" stroke="#bfbfbf" points="511,-0.5 511,-19.5 555,-19.5 555,-0.5 511,-0.5"/>
<text text-anchor="middle" x="533" y="-7.5" font-family="Helvetica,sans-Serif" font-size="10.00">vector</text>
</g>
<!-- Node6&#45;&gt;Node10 -->
<g id="edge10" class="edge"><title>Node6&#45;&gt;Node10</title>
<path fill="none" stroke="midnightblue" d="M434.539,-56.4435C453.623,-47.6356 483.575,-33.8116 505.436,-23.722"/>
<polygon fill="midnightblue" stroke="midnightblue" points="506.935,-26.8849 514.548,-19.5164 504.001,-20.5292 506.935,-26.8849"/>
</g>
<!-- Node11&#45;&gt;Node3 -->
<g id="edge12" class="edge"><title>Node11&#45;&gt;Node3</title>
<path fill="none" stroke="midnightblue" d="M152.633,-56.083C155.612,-48.77 159.926,-38.1814 163.625,-29.1034"/>
<polygon fill="midnightblue" stroke="midnightblue" points="166.903,-30.3326 167.435,-19.7511 160.42,-27.6914 166.903,-30.3326"/>
</g>
<!-- Node12&#45;&gt;Node3 -->
<g id="edge14" class="edge"><title>Node12&#45;&gt;Node3</title>
<path fill="none" stroke="midnightblue" d="M238.986,-56.324C226.468,-47.979 207.318,-35.2122 192.529,-25.3524"/>
<polygon fill="midnightblue" stroke="midnightblue" points="194.244,-22.2894 183.982,-19.6545 190.361,-28.1137 194.244,-22.2894"/>
</g>
<!-- Node12&#45;&gt;Node8 -->
<g id="edge15" class="edge"><title>Node12&#45;&gt;Node8</title>
<path fill="none" stroke="midnightblue" d="M252,-56.083C252,-49.0059 252,-38.8611 252,-29.9865"/>
<polygon fill="midnightblue" stroke="midnightblue" points="255.5,-29.751 252,-19.7511 248.5,-29.7511 255.5,-29.751"/>
</g>
<!-- Node13&#45;&gt;Node3 -->
<g id="edge17" class="edge"><title>Node13&#45;&gt;Node3</title>
<path fill="none" stroke="midnightblue" d="M468.99,-58.1015C465.637,-57.3422 462.247,-56.6207 459,-56 348.812,-34.9353 316.536,-43.6284 202.403,-19.7832"/>
<polygon fill="midnightblue" stroke="midnightblue" points="203.089,-16.3509 192.58,-17.6937 201.633,-23.1977 203.089,-16.3509"/>
</g>
<!-- Node14 -->
<g id="node14" class="node"><title>Node14</title>
<polygon fill="none" stroke="#bfbfbf" points="573.5,-0.5 573.5,-19.5 614.5,-19.5 614.5,-0.5 573.5,-0.5"/>
<text text-anchor="middle" x="594" y="-7.5" font-family="Helvetica,sans-Serif" font-size="10.00">string</text>
</g>
<!-- Node13&#45;&gt;Node14 -->
<g id="edge18" class="edge"><title>Node13&#45;&gt;Node14</title>
<path fill="none" stroke="midnightblue" d="M511.745,-56.324C527.319,-47.7428 551.377,-34.486 569.459,-24.5224"/>
<polygon fill="midnightblue" stroke="midnightblue" points="571.224,-27.546 578.294,-19.6545 567.846,-21.4152 571.224,-27.546"/>
</g>
<!-- Node16&#45;&gt;Node14 -->
<g id="edge21" class="edge"><title>Node16&#45;&gt;Node14</title>
<path fill="none" stroke="midnightblue" d="M574.798,-56.083C577.913,-48.77 582.423,-38.1814 586.289,-29.1034"/>
<polygon fill="midnightblue" stroke="midnightblue" points="589.574,-30.3229 590.273,-19.7511 583.134,-27.5798 589.574,-30.3229"/>
</g>
<!-- Node17&#45;&gt;Node14 -->
<g id="edge23" class="edge"><title>Node17&#45;&gt;Node14</title>
<path fill="none" stroke="midnightblue" d="M634.909,-56.083C627.845,-48.2982 617.412,-36.8015 608.851,-27.3665"/>
<polygon fill="midnightblue" stroke="midnightblue" points="611.253,-24.8047 601.941,-19.7511 606.069,-29.5087 611.253,-24.8047"/>
</g>
<!-- Node18&#45;&gt;Node7 -->
<g id="edge25" class="edge"><title>Node18&#45;&gt;Node7</title>
<path fill="none" stroke="midnightblue" d="M335.661,-56.083C336.185,-49.0059 336.936,-38.8611 337.594,-29.9865"/>
<polygon fill="midnightblue" stroke="midnightblue" points="341.103,-29.9823 338.352,-19.7511 334.123,-29.4652 341.103,-29.9823"/>
</g>
<!-- Node18&#45;&gt;Node3 -->
<g id="edge26" class="edge"><title>Node18&#45;&gt;Node3</title>
<path fill="none" stroke="midnightblue" d="M309.014,-56.4435C280.126,-46.9316 233.471,-31.5697 202.521,-21.3787"/>
<polygon fill="midnightblue" stroke="midnightblue" points="203.268,-17.94 192.675,-18.1368 201.079,-24.5888 203.268,-17.94"/>
</g>
</g>
</svg>
        <g id="navigator" transform="translate(0 0)" fill="#404254">
                <rect fill="#f2f5e9" fill-opacity="0.5" stroke="#606060" stroke-width=".5" x="0" y="0" width="60" height="60"/>
                <use id="zoomplus" xlink:href="#zoomPlus" x="17" y="9" onmousedown="handleZoom(evt,'in')"/>
                <use id="zoomminus" xlink:href="#zoomMin" x="42" y="9" onmousedown="handleZoom(evt,'out')"/>
                <use id="reset" xlink:href="#resetDef" x="30" y="36" onmousedown="handleReset()"/>
                <g id="arrowUp" xlink:href="#dirArrow" transform="translate(30 24)" onmousedown="handlePan(0,-1)">
                  <use xlink:href="#rim" fill="#404040">
                        <set attributeName="fill" to="#808080" begin="arrowUp.mouseover" end="arrowUp.mouseout"/>
                  </use>
                  <path fill="none" stroke="white" stroke-width="1.5" d="M0,-3.0v7 M-2.5,-0.5L0,-3.0L2.5,-0.5"/>
                </g>
                <g id="arrowRight" xlink:href="#dirArrow" transform="rotate(90) translate(36 -43)" onmousedown="handlePan(1,0)">
                  <use xlink:href="#rim" fill="#404040">
                        <set attributeName="fill" to="#808080" begin="arrowRight.mouseover" end="arrowRight.mouseout"/>
                  </use>
                  <path fill="none" stroke="white" stroke-width="1.5" d="M0,-3.0v7 M-2.5,-0.5L0,-3.0L2.5,-0.5"/>
                </g>
                <g id="arrowDown" xlink:href="#dirArrow" transform="rotate(180) translate(-30 -48)" onmousedown="handlePan(0,1)">
                  <use xlink:href="#rim" fill="#404040">
                        <set attributeName="fill" to="#808080" begin="arrowDown.mouseover" end="arrowDown.mouseout"/>
                  </use>
                  <path fill="none" stroke="white" stroke-width="1.5" d="M0,-3.0v7 M-2.5,-0.5L0,-3.0L2.5,-0.5"/>
                </g>
                <g id="arrowLeft" xlink:href="#dirArrow" transform="rotate(270) translate(-36 17)" onmousedown="handlePan(-1,0)">
                  <use xlink:href="#rim" fill="#404040">
                        <set attributeName="fill" to="#808080" begin="arrowLeft.mouseover" end="arrowLeft.mouseout"/>
                  </use>
                  <path fill="none" stroke="white" stroke-width="1.5" d="M0,-3.0v7 M-2.5,-0.5L0,-3.0L2.5,-0.5"/>
                </g>
        </g>
        <svg viewBox="0 0 15 15" width="100%" height="30px" preserveAspectRatio="xMaxYMin meet">
         <g id="arrow_out" transform="scale(0.3 0.3)">
          <a xlink:href="cc2__LHX1Y1_8cc__incl_org.svg" target="_base">
           <rect id="button" ry="5" rx="5" y="6" x="6" height="38" width="38"
                fill="#f2f5e9" fill-opacity="0.5" stroke="#606060" stroke-width="1.0"/>
           <path id="arrow"
             d="M 11.500037,31.436501 C 11.940474,20.09759 22.043105,11.32322 32.158766,21.979434 L 37.068811,17.246167 C 37.068811,17.246167 37.088388,32 37.088388,32 L 22.160133,31.978069 C 22.160133,31.978069 26.997745,27.140456 26.997745,27.140456 C 18.528582,18.264221 13.291696,25.230495 11.500037,31.436501 z"
             style="fill:#404040;"/>
          </a>
         </g>
        </svg>
</svg>
