<?xml version="1.0" encoding="UTF-8" standalone="no"?>
<!DOCTYPE svg PUBLIC "-//W3C//DTD SVG 1.1//EN"
 "http://www.w3.org/Graphics/SVG/1.1/DTD/svg11.dtd">
<!-- Generated by graphviz version 2.30.1 (20140110.0959)
 -->
<!-- Title: cc3_HC1.cc Pages: 1 -->
<!--zoomable 196 -->
<svg id="main" version="1.1" xmlns="http://www.w3.org/2000/svg" xmlns:xlink="http://www.w3.org/1999/xlink" xml:space="preserve" onload="init(evt)">
        <defs>
                <circle id="rim" cx="0" cy="0" r="7"/>
                <circle id="rim2" cx="0" cy="0" r="3.5"/>
                <g id="zoomPlus">
                        <use xlink:href="#rim" fill="#404040">
                                <set attributeName="fill" to="#808080" begin="zoomplus.mouseover" end="zoomplus.mouseout"/>
                        </use>
                        <path d="M-4,0h8M0,-4v8" fill="none" stroke="white" stroke-width="1.5" pointer-events="none"/>
                </g>
                <g id="zoomMin">
                        <use xlink:href="#rim" fill="#404040">
                                <set attributeName="fill" to="#808080" begin="zoomminus.mouseover" end="zoomminus.mouseout"/>
                        </use>
                        <path d="M-4,0h8" fill="none" stroke="white" stroke-width="1.5" pointer-events="none"/>
                </g>
                <g id="dirArrow">
                        <path fill="none" stroke="white" stroke-width="1.5" d="M0,-3.0v7 M-2.5,-0.5L0,-3.0L2.5,-0.5"/>
                </g>
               <g id="resetDef">
                       <use xlink:href="#rim2" fill="#404040">
                               <set attributeName="fill" to="#808080" begin="reset.mouseover" end="reset.mouseout"/>
                       </use>
               </g>
        </defs>

<script type="text/javascript">
var viewWidth = 503;
var viewHeight = 196;
var sectionId = 'dynsection-0';
</script>
<script xlink:href="svgpan.js"/>
<svg id="graph" class="graph">
<g id="viewport">
<title>cc3_HC1.cc</title>
<!-- Node1 -->
<g id="node1" class="node"><title>Node1</title>
<polygon fill="#bfbfbf" stroke="black" points="177.138,-168.5 177.138,-187.5 248.138,-187.5 248.138,-168.5 177.138,-168.5"/>
<text text-anchor="middle" x="212.638" y="-175.5" font-family="Helvetica,sans-Serif" font-size="10.00">cc3_HC1.cc</text>
</g>
<!-- Node2 -->
<g id="node2" class="node"><title>Node2</title>
<polygon fill="none" stroke="#bfbfbf" points="87.138,-0.5 87.138,-19.5 130.138,-19.5 130.138,-0.5 87.138,-0.5"/>
<text text-anchor="middle" x="108.638" y="-7.5" font-family="Helvetica,sans-Serif" font-size="10.00">cstdio</text>
</g>
<!-- Node1&#45;&gt;Node2 -->
<g id="edge1" class="edge"><title>Node1&#45;&gt;Node2</title>
<path fill="none" stroke="midnightblue" d="M176.972,-174.382C124.216,-169.684 29.3664,-157.799 8.63803,-132 -23.0457,-92.5656 43.7901,-46.7032 82.9345,-24.4664"/>
<polygon fill="midnightblue" stroke="midnightblue" points="84.6942,-27.4928 91.7501,-19.5893 81.3055,-21.3677 84.6942,-27.4928"/>
</g>
<!-- Node3 -->
<g id="node3" class="node"><title>Node3</title>
<polygon fill="none" stroke="#bfbfbf" points="18.138,-112.5 18.138,-131.5 63.138,-131.5 63.138,-112.5 18.138,-112.5"/>
<text text-anchor="middle" x="40.638" y="-119.5" font-family="Helvetica,sans-Serif" font-size="10.00">cstdlib</text>
</g>
<!-- Node1&#45;&gt;Node3 -->
<g id="edge2" class="edge"><title>Node1&#45;&gt;Node3</title>
<path fill="none" stroke="midnightblue" d="M185.384,-168.444C154.955,-158.89 105.731,-143.436 73.2738,-133.246"/>
<polygon fill="midnightblue" stroke="midnightblue" points="73.9594,-129.793 63.3701,-130.137 71.8626,-136.472 73.9594,-129.793"/>
</g>
<!-- Node4 -->
<g id="node4" class="node"><title>Node4</title>
<g id="a_node4"><a xlink:href="qt_8h.html" target="_top" xlink:title="Header file for the Quantum Trio LibraryDavid Sherrill 1994.">
<polygon fill="none" stroke="black" points="81.638,-112.5 81.638,-131.5 135.638,-131.5 135.638,-112.5 81.638,-112.5"/>
<text text-anchor="middle" x="108.638" y="-119.5" font-family="Helvetica,sans-Serif" font-size="10.00">libqt/qt.h</text>
</a>
</g>
</g>
<!-- Node1&#45;&gt;Node4 -->
<g id="edge3" class="edge"><title>Node1&#45;&gt;Node4</title>
<path fill="none" stroke="midnightblue" d="M195.929,-168.324C179.326,-159.703 153.636,-146.364 134.418,-136.386"/>
<polygon fill="midnightblue" stroke="midnightblue" points="135.794,-133.156 125.306,-131.655 132.568,-139.369 135.794,-133.156"/>
</g>
<!-- Node6 -->
<g id="node6" class="node"><title>Node6</title>
<g id="a_node6"><a xlink:href="lib_2libdpd_2dpd_8h.html" target="_top" xlink:title="Enter brief description of file here.">
<polygon fill="none" stroke="black" points="345.138,-56.5 345.138,-75.5 414.138,-75.5 414.138,-56.5 345.138,-56.5"/>
<text text-anchor="middle" x="379.638" y="-63.5" font-family="Helvetica,sans-Serif" font-size="10.00">libdpd/dpd.h</text>
</a>
</g>
</g>
<!-- Node1&#45;&gt;Node6 -->
<g id="edge6" class="edge"><title>Node1&#45;&gt;Node6</title>
<path fill="none" stroke="midnightblue" d="M248.317,-175.884C282.344,-172.871 332.714,-163.01 362.638,-132 374.398,-119.814 378.287,-100.543 379.45,-86.1432"/>
<polygon fill="midnightblue" stroke="midnightblue" points="382.959,-86.0103 379.897,-75.8677 375.966,-85.7061 382.959,-86.0103"/>
</g>
<!-- Node11 -->
<g id="node11" class="node"><title>Node11</title>
<g id="a_node11"><a xlink:href="cceom_2MOInfo_8h.html" target="_top" xlink:title="Enter brief description of file here.">
<polygon fill="none" stroke="black" points="220.138,-112.5 220.138,-131.5 277.138,-131.5 277.138,-112.5 220.138,-112.5"/>
<text text-anchor="middle" x="248.638" y="-119.5" font-family="Helvetica,sans-Serif" font-size="10.00">MOInfo.h</text>
</a>
</g>
</g>
<!-- Node1&#45;&gt;Node11 -->
<g id="edge12" class="edge"><title>Node1&#45;&gt;Node11</title>
<path fill="none" stroke="midnightblue" d="M218.583,-168.083C223.615,-160.534 230.975,-149.495 237.152,-140.23"/>
<polygon fill="midnightblue" stroke="midnightblue" points="240.169,-142.013 242.804,-131.751 234.345,-138.13 240.169,-142.013"/>
</g>
<!-- Node12 -->
<g id="node12" class="node"><title>Node12</title>
<g id="a_node12"><a xlink:href="cceom_2Params_8h.html" target="_top" xlink:title="Enter brief description of file here.">
<polygon fill="none" stroke="black" points="295.138,-112.5 295.138,-131.5 354.138,-131.5 354.138,-112.5 295.138,-112.5"/>
<text text-anchor="middle" x="324.638" y="-119.5" font-family="Helvetica,sans-Serif" font-size="10.00">Params.h</text>
</a>
</g>
</g>
<!-- Node1&#45;&gt;Node12 -->
<g id="edge13" class="edge"><title>Node1&#45;&gt;Node12</title>
<path fill="none" stroke="midnightblue" d="M230.633,-168.324C248.676,-159.625 276.685,-146.12 297.441,-136.113"/>
<polygon fill="midnightblue" stroke="midnightblue" points="299.2,-139.15 306.688,-131.655 296.16,-132.845 299.2,-139.15"/>
</g>
<!-- Node13 -->
<g id="node13" class="node"><title>Node13</title>
<g id="a_node13"><a xlink:href="cceom_2Local_8h.html" target="_top" xlink:title="Enter brief description of file here.">
<polygon fill="none" stroke="black" points="153.638,-112.5 153.638,-131.5 201.638,-131.5 201.638,-112.5 153.638,-112.5"/>
<text text-anchor="middle" x="177.638" y="-119.5" font-family="Helvetica,sans-Serif" font-size="10.00">Local.h</text>
</a>
</g>
</g>
<!-- Node1&#45;&gt;Node13 -->
<g id="edge15" class="edge"><title>Node1&#45;&gt;Node13</title>
<path fill="none" stroke="midnightblue" d="M206.858,-168.083C201.966,-160.534 194.811,-149.495 188.805,-140.23"/>
<polygon fill="midnightblue" stroke="midnightblue" points="191.686,-138.239 183.31,-131.751 185.812,-142.046 191.686,-138.239"/>
</g>
<!-- Node14 -->
<g id="node14" class="node"><title>Node14</title>
<g id="a_node14"><a xlink:href="cceom_2globals_8h.html" target="_top" xlink:title="Enter brief description of file here.">
<polygon fill="none" stroke="black" points="410.638,-112.5 410.638,-131.5 466.638,-131.5 466.638,-112.5 410.638,-112.5"/>
<text text-anchor="middle" x="438.638" y="-119.5" font-family="Helvetica,sans-Serif" font-size="10.00">globals.h</text>
</a>
</g>
</g>
<!-- Node1&#45;&gt;Node14 -->
<g id="edge17" class="edge"><title>Node1&#45;&gt;Node14</title>
<path fill="none" stroke="midnightblue" d="M248.199,-168.503C289.655,-158.598 357.905,-142.29 400.454,-132.124"/>
<polygon fill="midnightblue" stroke="midnightblue" points="401.512,-135.469 410.425,-129.741 399.886,-128.661 401.512,-135.469"/>
</g>
<!-- Node4&#45;&gt;Node2 -->
<g id="edge4" class="edge"><title>Node4&#45;&gt;Node2</title>
<path fill="none" stroke="midnightblue" d="M108.638,-112.368C108.638,-94.617 108.638,-53.6664 108.638,-29.5974"/>
<polygon fill="midnightblue" stroke="midnightblue" points="112.138,-29.5914 108.638,-19.5914 105.138,-29.5915 112.138,-29.5914"/>
</g>
<!-- Node5 -->
<g id="node5" class="node"><title>Node5</title>
<polygon fill="none" stroke="#bfbfbf" points="157.138,-56.5 157.138,-75.5 198.138,-75.5 198.138,-56.5 157.138,-56.5"/>
<text text-anchor="middle" x="177.638" y="-63.5" font-family="Helvetica,sans-Serif" font-size="10.00">string</text>
</g>
<!-- Node4&#45;&gt;Node5 -->
<g id="edge5" class="edge"><title>Node4&#45;&gt;Node5</title>
<path fill="none" stroke="midnightblue" d="M119.724,-112.324C130.124,-104.185 145.899,-91.8395 158.36,-82.0874"/>
<polygon fill="midnightblue" stroke="midnightblue" points="160.632,-84.7533 166.35,-75.8339 156.318,-79.2407 160.632,-84.7533"/>
</g>
<!-- Node6&#45;&gt;Node2 -->
<g id="edge7" class="edge"><title>Node6&#45;&gt;Node2</title>
<path fill="none" stroke="midnightblue" d="M344.773,-59.3003C298.234,-51.4892 213.348,-36.5304 141.638,-20 141.175,-19.8933 140.709,-19.7845 140.24,-19.6737"/>
<polygon fill="midnightblue" stroke="midnightblue" points="140.784,-16.2016 130.232,-17.1531 139.074,-22.9896 140.784,-16.2016"/>
</g>
<!-- Node7 -->
<g id="node7" class="node"><title>Node7</title>
<g id="a_node7"><a xlink:href="psifiles_8h_source.html" target="_top" xlink:title="psifiles.h">
<polygon fill="none" stroke="black" points="438.638,-0.5 438.638,-19.5 494.638,-19.5 494.638,-0.5 438.638,-0.5"/>
<text text-anchor="middle" x="466.638" y="-7.5" font-family="Helvetica,sans-Serif" font-size="10.00">psifiles.h</text>
</a>
</g>
</g>
<!-- Node6&#45;&gt;Node7 -->
<g id="edge8" class="edge"><title>Node6&#45;&gt;Node7</title>
<path fill="none" stroke="midnightblue" d="M393.616,-56.324C407.188,-47.9002 428.018,-34.9709 443.963,-25.0741"/>
<polygon fill="midnightblue" stroke="midnightblue" points="446.044,-27.9019 452.695,-19.6545 442.352,-21.9544 446.044,-27.9019"/>
</g>
<!-- Node8 -->
<g id="node8" class="node"><title>Node8</title>
<g id="a_node8"><a xlink:href="libpsio_2config_8h_source.html" target="_top" xlink:title="libpsio/config.h">
<polygon fill="none" stroke="black" points="338.638,-0.5 338.638,-19.5 420.638,-19.5 420.638,-0.5 338.638,-0.5"/>
<text text-anchor="middle" x="379.638" y="-7.5" font-family="Helvetica,sans-Serif" font-size="10.00">libpsio/config.h</text>
</a>
</g>
</g>
<!-- Node6&#45;&gt;Node8 -->
<g id="edge9" class="edge"><title>Node6&#45;&gt;Node8</title>
<path fill="none" stroke="midnightblue" d="M379.638,-56.083C379.638,-49.0059 379.638,-38.8611 379.638,-29.9865"/>
<polygon fill="midnightblue" stroke="midnightblue" points="383.138,-29.751 379.638,-19.7511 376.138,-29.7511 383.138,-29.751"/>
</g>
<!-- Node9 -->
<g id="node9" class="node"><title>Node9</title>
<polygon fill="none" stroke="#bfbfbf" points="150.638,-0.5 150.638,-19.5 258.638,-19.5 258.638,-0.5 150.638,-0.5"/>
<text text-anchor="middle" x="204.638" y="-7.5" font-family="Helvetica,sans-Serif" font-size="10.00">boost/shared_ptr.hpp</text>
</g>
<!-- Node6&#45;&gt;Node9 -->
<g id="edge10" class="edge"><title>Node6&#45;&gt;Node9</title>
<path fill="none" stroke="midnightblue" d="M351.909,-56.4435C322.212,-47.2801 274.922,-32.6876 241.969,-22.5192"/>
<polygon fill="midnightblue" stroke="midnightblue" points="242.825,-19.1206 232.238,-19.5164 240.761,-25.8094 242.825,-19.1206"/>
</g>
<!-- Node10 -->
<g id="node10" class="node"><title>Node10</title>
<polygon fill="none" stroke="#bfbfbf" points="276.638,-0.5 276.638,-19.5 320.638,-19.5 320.638,-0.5 276.638,-0.5"/>
<text text-anchor="middle" x="298.638" y="-7.5" font-family="Helvetica,sans-Serif" font-size="10.00">vector</text>
</g>
<!-- Node6&#45;&gt;Node10 -->
<g id="edge11" class="edge"><title>Node6&#45;&gt;Node10</title>
<path fill="none" stroke="midnightblue" d="M366.624,-56.324C354.106,-47.979 334.956,-35.2122 320.167,-25.3524"/>
<polygon fill="midnightblue" stroke="midnightblue" points="321.882,-22.2894 311.62,-19.6545 317.999,-28.1137 321.882,-22.2894"/>
</g>
<!-- Node12&#45;&gt;Node5 -->
<g id="edge14" class="edge"><title>Node12&#45;&gt;Node5</title>
<path fill="none" stroke="midnightblue" d="M301.345,-112.444C276.11,-103.173 235.748,-88.3464 208.032,-78.1652"/>
<polygon fill="midnightblue" stroke="midnightblue" points="209.038,-74.8062 198.445,-74.6433 206.625,-81.3769 209.038,-74.8062"/>
</g>
<!-- Node13&#45;&gt;Node5 -->
<g id="edge16" class="edge"><title>Node13&#45;&gt;Node5</title>
<path fill="none" stroke="midnightblue" d="M177.638,-112.083C177.638,-105.006 177.638,-94.8611 177.638,-85.9865"/>
<polygon fill="midnightblue" stroke="midnightblue" points="181.138,-85.751 177.638,-75.7511 174.138,-85.7511 181.138,-85.751"/>
</g>
<!-- Node14&#45;&gt;Node7 -->
<g id="edge18" class="edge"><title>Node14&#45;&gt;Node7</title>
<path fill="none" stroke="midnightblue" d="M440.835,-112.368C445.354,-94.617 455.777,-53.6664 461.904,-29.5974"/>
<polygon fill="midnightblue" stroke="midnightblue" points="465.376,-30.1458 464.451,-19.5914 458.592,-28.419 465.376,-30.1458"/>
</g>
<!-- Node14&#45;&gt;Node6 -->
<g id="edge19" class="edge"><title>Node14&#45;&gt;Node6</title>
<path fill="none" stroke="midnightblue" d="M429.159,-112.324C420.437,-104.341 407.295,-92.3128 396.74,-82.6529"/>
<polygon fill="midnightblue" stroke="midnightblue" points="399.03,-80.0036 389.29,-75.8339 394.304,-85.1674 399.03,-80.0036"/>
</g>
</g>
</svg>
        <g id="navigator" transform="translate(0 0)" fill="#404254">
                <rect fill="#f2f5e9" fill-opacity="0.5" stroke="#606060" stroke-width=".5" x="0" y="0" width="60" height="60"/>
                <use id="zoomplus" xlink:href="#zoomPlus" x="17" y="9" onmousedown="handleZoom(evt,'in')"/>
                <use id="zoomminus" xlink:href="#zoomMin" x="42" y="9" onmousedown="handleZoom(evt,'out')"/>
                <use id="reset" xlink:href="#resetDef" x="30" y="36" onmousedown="handleReset()"/>
                <g id="arrowUp" xlink:href="#dirArrow" transform="translate(30 24)" onmousedown="handlePan(0,-1)">
                  <use xlink:href="#rim" fill="#404040">
                        <set attributeName="fill" to="#808080" begin="arrowUp.mouseover" end="arrowUp.mouseout"/>
                  </use>
                  <path fill="none" stroke="white" stroke-width="1.5" d="M0,-3.0v7 M-2.5,-0.5L0,-3.0L2.5,-0.5"/>
                </g>
                <g id="arrowRight" xlink:href="#dirArrow" transform="rotate(90) translate(36 -43)" onmousedown="handlePan(1,0)">
                  <use xlink:href="#rim" fill="#404040">
                        <set attributeName="fill" to="#808080" begin="arrowRight.mouseover" end="arrowRight.mouseout"/>
                  </use>
                  <path fill="none" stroke="white" stroke-width="1.5" d="M0,-3.0v7 M-2.5,-0.5L0,-3.0L2.5,-0.5"/>
                </g>
                <g id="arrowDown" xlink:href="#dirArrow" transform="rotate(180) translate(-30 -48)" onmousedown="handlePan(0,1)">
                  <use xlink:href="#rim" fill="#404040">
                        <set attributeName="fill" to="#808080" begin="arrowDown.mouseover" end="arrowDown.mouseout"/>
                  </use>
                  <path fill="none" stroke="white" stroke-width="1.5" d="M0,-3.0v7 M-2.5,-0.5L0,-3.0L2.5,-0.5"/>
                </g>
                <g id="arrowLeft" xlink:href="#dirArrow" transform="rotate(270) translate(-36 17)" onmousedown="handlePan(-1,0)">
                  <use xlink:href="#rim" fill="#404040">
                        <set attributeName="fill" to="#808080" begin="arrowLeft.mouseover" end="arrowLeft.mouseout"/>
                  </use>
                  <path fill="none" stroke="white" stroke-width="1.5" d="M0,-3.0v7 M-2.5,-0.5L0,-3.0L2.5,-0.5"/>
                </g>
        </g>
        <svg viewBox="0 0 15 15" width="100%" height="30px" preserveAspectRatio="xMaxYMin meet">
         <g id="arrow_out" transform="scale(0.3 0.3)">
          <a xlink:href="cc3__HC1_8cc__incl_org.svg" target="_base">
           <rect id="button" ry="5" rx="5" y="6" x="6" height="38" width="38"
                fill="#f2f5e9" fill-opacity="0.5" stroke="#606060" stroke-width="1.0"/>
           <path id="arrow"
             d="M 11.500037,31.436501 C 11.940474,20.09759 22.043105,11.32322 32.158766,21.979434 L 37.068811,17.246167 C 37.068811,17.246167 37.088388,32 37.088388,32 L 22.160133,31.978069 C 22.160133,31.978069 26.997745,27.140456 26.997745,27.140456 C 18.528582,18.264221 13.291696,25.230495 11.500037,31.436501 z"
             style="fill:#404040;"/>
          </a>
         </g>
        </svg>
</svg>
