<?xml version="1.0" encoding="UTF-8" standalone="no"?>
<!DOCTYPE svg PUBLIC "-//W3C//DTD SVG 1.1//EN"
 "http://www.w3.org/Graphics/SVG/1.1/DTD/svg11.dtd">
<!-- Generated by graphviz version 2.30.1 (20140110.0959)
 -->
<!-- Title: cc3_HC1ET1.cc Pages: 1 -->
<svg width="423pt" height="196pt"
 viewBox="0.00 0.00 423.00 196.00" xmlns="http://www.w3.org/2000/svg" xmlns:xlink="http://www.w3.org/1999/xlink">
<g id="graph0" class="graph" transform="scale(1 1) rotate(0) translate(4 192)">
<title>cc3_HC1ET1.cc</title>
<!-- Node1 -->
<g id="node1" class="node"><title>Node1</title>
<polygon fill="#bfbfbf" stroke="black" points="160.5,-168.5 160.5,-187.5 249.5,-187.5 249.5,-168.5 160.5,-168.5"/>
<text text-anchor="middle" x="205" y="-175.5" font-family="Helvetica,sans-Serif" font-size="10.00">cc3_HC1ET1.cc</text>
</g>
<!-- Node2 -->
<g id="node2" class="node"><title>Node2</title>
<g id="a_node2"><a xlink:href="qt_8h.html" target="_top" xlink:title="Header file for the Quantum Trio LibraryDavid Sherrill 1994.">
<polygon fill="none" stroke="black" points="0,-112.5 0,-131.5 54,-131.5 54,-112.5 0,-112.5"/>
<text text-anchor="middle" x="27" y="-119.5" font-family="Helvetica,sans-Serif" font-size="10.00">libqt/qt.h</text>
</a>
</g>
</g>
<!-- Node1&#45;&gt;Node2 -->
<g id="edge1" class="edge"><title>Node1&#45;&gt;Node2</title>
<path fill="none" stroke="midnightblue" d="M176.795,-168.444C146.323,-159.199 97.6384,-144.43 64.0868,-134.251"/>
<polygon fill="midnightblue" stroke="midnightblue" points="64.7825,-130.805 54.1971,-131.251 62.7503,-137.503 64.7825,-130.805"/>
</g>
<!-- Node5 -->
<g id="node5" class="node"><title>Node5</title>
<g id="a_node5"><a xlink:href="lib_2libdpd_2dpd_8h.html" target="_top" xlink:title="Enter brief description of file here.">
<polygon fill="none" stroke="black" points="265.5,-56.5 265.5,-75.5 334.5,-75.5 334.5,-56.5 265.5,-56.5"/>
<text text-anchor="middle" x="300" y="-63.5" font-family="Helvetica,sans-Serif" font-size="10.00">libdpd/dpd.h</text>
</a>
</g>
</g>
<!-- Node1&#45;&gt;Node5 -->
<g id="edge4" class="edge"><title>Node1&#45;&gt;Node5</title>
<path fill="none" stroke="midnightblue" d="M228.845,-168.408C245.722,-161.162 267.645,-149.197 281,-132 291.356,-118.665 296.072,-99.836 298.217,-85.8736"/>
<polygon fill="midnightblue" stroke="midnightblue" points="301.695,-86.2705 299.445,-75.9173 294.747,-85.4138 301.695,-86.2705"/>
</g>
<!-- Node10 -->
<g id="node10" class="node"><title>Node10</title>
<g id="a_node10"><a xlink:href="cceom_2MOInfo_8h.html" target="_top" xlink:title="Enter brief description of file here.">
<polygon fill="none" stroke="black" points="138.5,-112.5 138.5,-131.5 195.5,-131.5 195.5,-112.5 138.5,-112.5"/>
<text text-anchor="middle" x="167" y="-119.5" font-family="Helvetica,sans-Serif" font-size="10.00">MOInfo.h</text>
</a>
</g>
</g>
<!-- Node1&#45;&gt;Node10 -->
<g id="edge10" class="edge"><title>Node1&#45;&gt;Node10</title>
<path fill="none" stroke="midnightblue" d="M198.725,-168.083C193.358,-160.455 185.482,-149.264 178.921,-139.941"/>
<polygon fill="midnightblue" stroke="midnightblue" points="181.775,-137.915 173.158,-131.751 176.051,-141.943 181.775,-137.915"/>
</g>
<!-- Node11 -->
<g id="node11" class="node"><title>Node11</title>
<g id="a_node11"><a xlink:href="cceom_2Params_8h.html" target="_top" xlink:title="Enter brief description of file here.">
<polygon fill="none" stroke="black" points="213.5,-112.5 213.5,-131.5 272.5,-131.5 272.5,-112.5 213.5,-112.5"/>
<text text-anchor="middle" x="243" y="-119.5" font-family="Helvetica,sans-Serif" font-size="10.00">Params.h</text>
</a>
</g>
</g>
<!-- Node1&#45;&gt;Node11 -->
<g id="edge11" class="edge"><title>Node1&#45;&gt;Node11</title>
<path fill="none" stroke="midnightblue" d="M211.275,-168.083C216.642,-160.455 224.518,-149.264 231.079,-139.941"/>
<polygon fill="midnightblue" stroke="midnightblue" points="233.949,-141.943 236.842,-131.751 228.225,-137.915 233.949,-141.943"/>
</g>
<!-- Node12 -->
<g id="node12" class="node"><title>Node12</title>
<g id="a_node12"><a xlink:href="cceom_2Local_8h.html" target="_top" xlink:title="Enter brief description of file here.">
<polygon fill="none" stroke="black" points="72,-112.5 72,-131.5 120,-131.5 120,-112.5 72,-112.5"/>
<text text-anchor="middle" x="96" y="-119.5" font-family="Helvetica,sans-Serif" font-size="10.00">Local.h</text>
</a>
</g>
</g>
<!-- Node1&#45;&gt;Node12 -->
<g id="edge13" class="edge"><title>Node1&#45;&gt;Node12</title>
<path fill="none" stroke="midnightblue" d="M187.487,-168.324C169.928,-159.625 142.669,-146.12 122.469,-136.113"/>
<polygon fill="midnightblue" stroke="midnightblue" points="123.984,-132.958 113.469,-131.655 120.876,-139.23 123.984,-132.958"/>
</g>
<!-- Node13 -->
<g id="node13" class="node"><title>Node13</title>
<g id="a_node13"><a xlink:href="cceom_2globals_8h.html" target="_top" xlink:title="Enter brief description of file here.">
<polygon fill="none" stroke="black" points="329,-112.5 329,-131.5 385,-131.5 385,-112.5 329,-112.5"/>
<text text-anchor="middle" x="357" y="-119.5" font-family="Helvetica,sans-Serif" font-size="10.00">globals.h</text>
</a>
</g>
</g>
<!-- Node1&#45;&gt;Node13 -->
<g id="edge15" class="edge"><title>Node1&#45;&gt;Node13</title>
<path fill="none" stroke="midnightblue" d="M229.085,-168.444C254.545,-159.399 294.894,-145.064 323.459,-134.916"/>
<polygon fill="midnightblue" stroke="midnightblue" points="324.777,-138.162 333.028,-131.516 322.433,-131.566 324.777,-138.162"/>
</g>
<!-- Node3 -->
<g id="node3" class="node"><title>Node3</title>
<polygon fill="none" stroke="#bfbfbf" points="8.5,-0.5 8.5,-19.5 51.5,-19.5 51.5,-0.5 8.5,-0.5"/>
<text text-anchor="middle" x="30" y="-7.5" font-family="Helvetica,sans-Serif" font-size="10.00">cstdio</text>
</g>
<!-- Node2&#45;&gt;Node3 -->
<g id="edge2" class="edge"><title>Node2&#45;&gt;Node3</title>
<path fill="none" stroke="midnightblue" d="M27.2354,-112.368C27.7195,-94.617 28.8364,-53.6664 29.4928,-29.5974"/>
<polygon fill="midnightblue" stroke="midnightblue" points="32.9917,-29.6832 29.7657,-19.5914 25.9943,-29.4922 32.9917,-29.6832"/>
</g>
<!-- Node4 -->
<g id="node4" class="node"><title>Node4</title>
<polygon fill="none" stroke="#bfbfbf" points="75.5,-56.5 75.5,-75.5 116.5,-75.5 116.5,-56.5 75.5,-56.5"/>
<text text-anchor="middle" x="96" y="-63.5" font-family="Helvetica,sans-Serif" font-size="10.00">string</text>
</g>
<!-- Node2&#45;&gt;Node4 -->
<g id="edge3" class="edge"><title>Node2&#45;&gt;Node4</title>
<path fill="none" stroke="midnightblue" d="M38.086,-112.324C48.486,-104.185 64.2606,-91.8395 76.7216,-82.0874"/>
<polygon fill="midnightblue" stroke="midnightblue" points="78.9943,-84.7533 84.7122,-75.8339 74.6801,-79.2407 78.9943,-84.7533"/>
</g>
<!-- Node5&#45;&gt;Node3 -->
<g id="edge5" class="edge"><title>Node5&#45;&gt;Node3</title>
<path fill="none" stroke="midnightblue" d="M265.115,-59.3855C218.554,-51.6687 133.644,-36.8141 62,-20 61.7893,-19.9506 61.5779,-19.9006 61.3659,-19.8502"/>
<polygon fill="midnightblue" stroke="midnightblue" points="62.1779,-16.4453 51.6224,-17.3573 60.4427,-23.2269 62.1779,-16.4453"/>
</g>
<!-- Node6 -->
<g id="node6" class="node"><title>Node6</title>
<g id="a_node6"><a xlink:href="psifiles_8h_source.html" target="_top" xlink:title="psifiles.h">
<polygon fill="none" stroke="black" points="359,-0.5 359,-19.5 415,-19.5 415,-0.5 359,-0.5"/>
<text text-anchor="middle" x="387" y="-7.5" font-family="Helvetica,sans-Serif" font-size="10.00">psifiles.h</text>
</a>
</g>
</g>
<!-- Node5&#45;&gt;Node6 -->
<g id="edge6" class="edge"><title>Node5&#45;&gt;Node6</title>
<path fill="none" stroke="midnightblue" d="M313.978,-56.324C327.55,-47.9002 348.38,-34.9709 364.325,-25.0741"/>
<polygon fill="midnightblue" stroke="midnightblue" points="366.406,-27.9019 373.057,-19.6545 362.714,-21.9544 366.406,-27.9019"/>
</g>
<!-- Node7 -->
<g id="node7" class="node"><title>Node7</title>
<g id="a_node7"><a xlink:href="libpsio_2config_8h_source.html" target="_top" xlink:title="libpsio/config.h">
<polygon fill="none" stroke="black" points="259,-0.5 259,-19.5 341,-19.5 341,-0.5 259,-0.5"/>
<text text-anchor="middle" x="300" y="-7.5" font-family="Helvetica,sans-Serif" font-size="10.00">libpsio/config.h</text>
</a>
</g>
</g>
<!-- Node5&#45;&gt;Node7 -->
<g id="edge7" class="edge"><title>Node5&#45;&gt;Node7</title>
<path fill="none" stroke="midnightblue" d="M300,-56.083C300,-49.0059 300,-38.8611 300,-29.9865"/>
<polygon fill="midnightblue" stroke="midnightblue" points="303.5,-29.751 300,-19.7511 296.5,-29.7511 303.5,-29.751"/>
</g>
<!-- Node8 -->
<g id="node8" class="node"><title>Node8</title>
<polygon fill="none" stroke="#bfbfbf" points="71,-0.5 71,-19.5 179,-19.5 179,-0.5 71,-0.5"/>
<text text-anchor="middle" x="125" y="-7.5" font-family="Helvetica,sans-Serif" font-size="10.00">boost/shared_ptr.hpp</text>
</g>
<!-- Node5&#45;&gt;Node8 -->
<g id="edge8" class="edge"><title>Node5&#45;&gt;Node8</title>
<path fill="none" stroke="midnightblue" d="M272.271,-56.4435C242.574,-47.2801 195.284,-32.6876 162.331,-22.5192"/>
<polygon fill="midnightblue" stroke="midnightblue" points="163.187,-19.1206 152.6,-19.5164 161.123,-25.8094 163.187,-19.1206"/>
</g>
<!-- Node9 -->
<g id="node9" class="node"><title>Node9</title>
<polygon fill="none" stroke="#bfbfbf" points="197,-0.5 197,-19.5 241,-19.5 241,-0.5 197,-0.5"/>
<text text-anchor="middle" x="219" y="-7.5" font-family="Helvetica,sans-Serif" font-size="10.00">vector</text>
</g>
<!-- Node5&#45;&gt;Node9 -->
<g id="edge9" class="edge"><title>Node5&#45;&gt;Node9</title>
<path fill="none" stroke="midnightblue" d="M286.986,-56.324C274.468,-47.979 255.318,-35.2122 240.529,-25.3524"/>
<polygon fill="midnightblue" stroke="midnightblue" points="242.244,-22.2894 231.982,-19.6545 238.361,-28.1137 242.244,-22.2894"/>
</g>
<!-- Node11&#45;&gt;Node4 -->
<g id="edge12" class="edge"><title>Node11&#45;&gt;Node4</title>
<path fill="none" stroke="midnightblue" d="M219.707,-112.444C194.472,-103.173 154.11,-88.3464 126.394,-78.1652"/>
<polygon fill="midnightblue" stroke="midnightblue" points="127.4,-74.8062 116.807,-74.6433 124.987,-81.3769 127.4,-74.8062"/>
</g>
<!-- Node12&#45;&gt;Node4 -->
<g id="edge14" class="edge"><title>Node12&#45;&gt;Node4</title>
<path fill="none" stroke="midnightblue" d="M96,-112.083C96,-105.006 96,-94.8611 96,-85.9865"/>
<polygon fill="midnightblue" stroke="midnightblue" points="99.5001,-85.751 96,-75.7511 92.5001,-85.7511 99.5001,-85.751"/>
</g>
<!-- Node13&#45;&gt;Node6 -->
<g id="edge16" class="edge"><title>Node13&#45;&gt;Node6</title>
<path fill="none" stroke="midnightblue" d="M359.354,-112.368C364.217,-94.5366 375.465,-53.2953 382.017,-29.2717"/>
<polygon fill="midnightblue" stroke="midnightblue" points="385.402,-30.16 384.657,-19.5914 378.649,-28.3181 385.402,-30.16"/>
</g>
<!-- Node13&#45;&gt;Node5 -->
<g id="edge17" class="edge"><title>Node13&#45;&gt;Node5</title>
<path fill="none" stroke="midnightblue" d="M347.842,-112.324C339.499,-104.42 326.968,-92.5482 316.823,-82.9377"/>
<polygon fill="midnightblue" stroke="midnightblue" points="318.991,-80.1705 309.325,-75.8339 314.177,-85.2522 318.991,-80.1705"/>
</g>
</g>
</svg>
