<?xml version="1.0" encoding="UTF-8" standalone="no"?>
<!DOCTYPE svg PUBLIC "-//W3C//DTD SVG 1.1//EN"
 "http://www.w3.org/Graphics/SVG/1.1/DTD/svg11.dtd">
<!-- Generated by graphviz version 2.30.1 (20140110.0959)
 -->
<!-- Title: cc3_Wmbij.cc Pages: 1 -->
<!--zoomable 320 -->
<svg id="main" version="1.1" xmlns="http://www.w3.org/2000/svg" xmlns:xlink="http://www.w3.org/1999/xlink" xml:space="preserve" onload="init(evt)">
        <defs>
                <circle id="rim" cx="0" cy="0" r="7"/>
                <circle id="rim2" cx="0" cy="0" r="3.5"/>
                <g id="zoomPlus">
                        <use xlink:href="#rim" fill="#404040">
                                <set attributeName="fill" to="#808080" begin="zoomplus.mouseover" end="zoomplus.mouseout"/>
                        </use>
                        <path d="M-4,0h8M0,-4v8" fill="none" stroke="white" stroke-width="1.5" pointer-events="none"/>
                </g>
                <g id="zoomMin">
                        <use xlink:href="#rim" fill="#404040">
                                <set attributeName="fill" to="#808080" begin="zoomminus.mouseover" end="zoomminus.mouseout"/>
                        </use>
                        <path d="M-4,0h8" fill="none" stroke="white" stroke-width="1.5" pointer-events="none"/>
                </g>
                <g id="dirArrow">
                        <path fill="none" stroke="white" stroke-width="1.5" d="M0,-3.0v7 M-2.5,-0.5L0,-3.0L2.5,-0.5"/>
                </g>
               <g id="resetDef">
                       <use xlink:href="#rim2" fill="#404040">
                               <set attributeName="fill" to="#808080" begin="reset.mouseover" end="reset.mouseout"/>
                       </use>
               </g>
        </defs>

<script type="text/javascript">
var viewWidth = 1431;
var viewHeight = 320;
var sectionId = 'dynsection-0';
</script>
<script xlink:href="svgpan.js"/>
<svg id="graph" class="graph">
<g id="viewport">
<title>cc3_Wmbij.cc</title>
<!-- Node1 -->
<g id="node1" class="node"><title>Node1</title>
<polygon fill="#bfbfbf" stroke="black" points="738.891,-292.5 738.891,-311.5 817.891,-311.5 817.891,-292.5 738.891,-292.5"/>
<text text-anchor="middle" x="778.391" y="-299.5" font-family="Helvetica,sans-Serif" font-size="10.00">cc3_Wmbij.cc</text>
</g>
<!-- Node2 -->
<g id="node2" class="node"><title>Node2</title>
<g id="a_node2"><a xlink:href="lib_2libdpd_2dpd_8h.html" target="_top" xlink:title="Enter brief description of file here.">
<polygon fill="none" stroke="black" points="1094.89,-180.5 1094.89,-199.5 1163.89,-199.5 1163.89,-180.5 1094.89,-180.5"/>
<text text-anchor="middle" x="1129.39" y="-187.5" font-family="Helvetica,sans-Serif" font-size="10.00">libdpd/dpd.h</text>
</a>
</g>
</g>
<!-- Node1&#45;&gt;Node2 -->
<g id="edge1" class="edge"><title>Node1&#45;&gt;Node2</title>
<path fill="none" stroke="midnightblue" d="M782.046,-292.094C788.474,-277.667 803.254,-249.447 825.391,-236 847.157,-222.779 1005.55,-204.248 1084.67,-195.682"/>
<polygon fill="midnightblue" stroke="midnightblue" points="1085.26,-199.139 1094.83,-194.59 1084.51,-192.179 1085.26,-199.139"/>
</g>
<!-- Node8 -->
<g id="node8" class="node"><title>Node8</title>
<g id="a_node8"><a xlink:href="ccenergy_2Params_8h.html" target="_top" xlink:title="Enter brief description of file here.">
<polygon fill="none" stroke="black" points="355.891,-236.5 355.891,-255.5 414.891,-255.5 414.891,-236.5 355.891,-236.5"/>
<text text-anchor="middle" x="385.391" y="-243.5" font-family="Helvetica,sans-Serif" font-size="10.00">Params.h</text>
</a>
</g>
</g>
<!-- Node1&#45;&gt;Node8 -->
<g id="edge7" class="edge"><title>Node1&#45;&gt;Node8</title>
<path fill="none" stroke="midnightblue" d="M738.546,-295.525C663.157,-285.166 500.471,-262.812 425.15,-252.463"/>
<polygon fill="midnightblue" stroke="midnightblue" points="425.503,-248.979 415.12,-251.085 424.55,-255.914 425.503,-248.979"/>
</g>
<!-- Node10 -->
<g id="node10" class="node"><title>Node10</title>
<g id="a_node10"><a xlink:href="ccenergy_2MOInfo_8h.html" target="_top" xlink:title="Enter brief description of file here.">
<polygon fill="none" stroke="black" points="834.891,-236.5 834.891,-255.5 891.891,-255.5 891.891,-236.5 834.891,-236.5"/>
<text text-anchor="middle" x="863.391" y="-243.5" font-family="Helvetica,sans-Serif" font-size="10.00">MOInfo.h</text>
</a>
</g>
</g>
<!-- Node1&#45;&gt;Node10 -->
<g id="edge9" class="edge"><title>Node1&#45;&gt;Node10</title>
<path fill="none" stroke="midnightblue" d="M792.048,-292.324C805.308,-283.9 825.66,-270.971 841.238,-261.074"/>
<polygon fill="midnightblue" stroke="midnightblue" points="843.205,-263.971 849.769,-255.655 839.451,-258.063 843.205,-263.971"/>
</g>
<!-- Node11 -->
<g id="node11" class="node"><title>Node11</title>
<g id="a_node11"><a xlink:href="ccenergy_2globals_8h.html" target="_top" xlink:title="Enter brief description of file here.">
<polygon fill="none" stroke="black" points="722.391,-236.5 722.391,-255.5 778.391,-255.5 778.391,-236.5 722.391,-236.5"/>
<text text-anchor="middle" x="750.391" y="-243.5" font-family="Helvetica,sans-Serif" font-size="10.00">globals.h</text>
</a>
</g>
</g>
<!-- Node1&#45;&gt;Node11 -->
<g id="edge10" class="edge"><title>Node1&#45;&gt;Node11</title>
<path fill="none" stroke="midnightblue" d="M773.768,-292.083C769.935,-284.691 764.367,-273.953 759.627,-264.811"/>
<polygon fill="midnightblue" stroke="midnightblue" points="762.639,-263.018 754.929,-255.751 756.425,-266.24 762.639,-263.018"/>
</g>
<!-- Node3 -->
<g id="node3" class="node"><title>Node3</title>
<polygon fill="none" stroke="#bfbfbf" points="1260.89,-0.5 1260.89,-19.5 1303.89,-19.5 1303.89,-0.5 1260.89,-0.5"/>
<text text-anchor="middle" x="1282.39" y="-7.5" font-family="Helvetica,sans-Serif" font-size="10.00">cstdio</text>
</g>
<!-- Node2&#45;&gt;Node3 -->
<g id="edge2" class="edge"><title>Node2&#45;&gt;Node3</title>
<path fill="none" stroke="midnightblue" d="M1158.32,-180.408C1196.32,-167.382 1261.48,-138.63 1289.39,-88 1299.39,-69.8715 1294.8,-45.6411 1289.57,-29.2395"/>
<polygon fill="midnightblue" stroke="midnightblue" points="1292.84,-27.9833 1286.19,-19.7346 1286.24,-30.3293 1292.84,-27.9833"/>
</g>
<!-- Node4 -->
<g id="node4" class="node"><title>Node4</title>
<g id="a_node4"><a xlink:href="psifiles_8h_source.html" target="_top" xlink:title="psifiles.h">
<polygon fill="none" stroke="black" points="1073.39,-124.5 1073.39,-143.5 1129.39,-143.5 1129.39,-124.5 1073.39,-124.5"/>
<text text-anchor="middle" x="1101.39" y="-131.5" font-family="Helvetica,sans-Serif" font-size="10.00">psifiles.h</text>
</a>
</g>
</g>
<!-- Node2&#45;&gt;Node4 -->
<g id="edge3" class="edge"><title>Node2&#45;&gt;Node4</title>
<path fill="none" stroke="midnightblue" d="M1124.77,-180.083C1120.94,-172.691 1115.37,-161.953 1110.63,-152.811"/>
<polygon fill="midnightblue" stroke="midnightblue" points="1113.64,-151.018 1105.93,-143.751 1107.43,-154.24 1113.64,-151.018"/>
</g>
<!-- Node5 -->
<g id="node5" class="node"><title>Node5</title>
<g id="a_node5"><a xlink:href="libpsio_2config_8h_source.html" target="_top" xlink:title="libpsio/config.h">
<polygon fill="none" stroke="black" points="1341.39,-124.5 1341.39,-143.5 1423.39,-143.5 1423.39,-124.5 1341.39,-124.5"/>
<text text-anchor="middle" x="1382.39" y="-131.5" font-family="Helvetica,sans-Serif" font-size="10.00">libpsio/config.h</text>
</a>
</g>
</g>
<!-- Node2&#45;&gt;Node5 -->
<g id="edge4" class="edge"><title>Node2&#45;&gt;Node5</title>
<path fill="none" stroke="midnightblue" d="M1164.04,-181.605C1207.59,-172.309 1282.66,-156.285 1332.42,-145.665"/>
<polygon fill="midnightblue" stroke="midnightblue" points="1333.28,-149.061 1342.33,-143.551 1331.82,-142.215 1333.28,-149.061"/>
</g>
<!-- Node6 -->
<g id="node6" class="node"><title>Node6</title>
<polygon fill="none" stroke="#bfbfbf" points="888.391,-124.5 888.391,-143.5 996.391,-143.5 996.391,-124.5 888.391,-124.5"/>
<text text-anchor="middle" x="942.391" y="-131.5" font-family="Helvetica,sans-Serif" font-size="10.00">boost/shared_ptr.hpp</text>
</g>
<!-- Node2&#45;&gt;Node6 -->
<g id="edge5" class="edge"><title>Node2&#45;&gt;Node6</title>
<path fill="none" stroke="midnightblue" d="M1099.76,-180.444C1067.89,-171.241 1017.06,-156.562 981.828,-146.388"/>
<polygon fill="midnightblue" stroke="midnightblue" points="982.462,-142.928 971.884,-143.516 980.52,-149.653 982.462,-142.928"/>
</g>
<!-- Node7 -->
<g id="node7" class="node"><title>Node7</title>
<polygon fill="none" stroke="#bfbfbf" points="913.391,-0.5 913.391,-19.5 957.391,-19.5 957.391,-0.5 913.391,-0.5"/>
<text text-anchor="middle" x="935.391" y="-7.5" font-family="Helvetica,sans-Serif" font-size="10.00">vector</text>
</g>
<!-- Node2&#45;&gt;Node7 -->
<g id="edge6" class="edge"><title>Node2&#45;&gt;Node7</title>
<path fill="none" stroke="midnightblue" d="M1132.12,-180.259C1138.97,-156.362 1154,-89.4969 1119.39,-56 1097.92,-35.2149 1014.19,-21.2607 967.426,-14.9149"/>
<polygon fill="midnightblue" stroke="midnightblue" points="967.865,-11.4426 957.494,-13.606 966.951,-18.3826 967.865,-11.4426"/>
</g>
<!-- Node9 -->
<g id="node9" class="node"><title>Node9</title>
<polygon fill="none" stroke="#bfbfbf" points="277.891,-0.5 277.891,-19.5 318.891,-19.5 318.891,-0.5 277.891,-0.5"/>
<text text-anchor="middle" x="298.391" y="-7.5" font-family="Helvetica,sans-Serif" font-size="10.00">string</text>
</g>
<!-- Node8&#45;&gt;Node9 -->
<g id="edge8" class="edge"><title>Node8&#45;&gt;Node9</title>
<path fill="none" stroke="midnightblue" d="M355.849,-243.446C274.664,-238.877 52.7634,-224.261 31.3915,-200 -10.9138,-151.976 -9.93202,-104.871 31.3915,-56 61.3031,-20.6253 203.424,-13.047 267.242,-11.4324"/>
<polygon fill="midnightblue" stroke="midnightblue" points="267.573,-14.9261 277.494,-11.2078 267.42,-7.92776 267.573,-14.9261"/>
</g>
<!-- Node11&#45;&gt;Node4 -->
<g id="edge11" class="edge"><title>Node11&#45;&gt;Node4</title>
<path fill="none" stroke="midnightblue" d="M777.733,-236.468C806.701,-227.426 853.775,-212.723 894.391,-200 953.998,-181.328 1023.24,-159.572 1064.62,-146.563"/>
<polygon fill="midnightblue" stroke="midnightblue" points="1065.78,-149.868 1074.27,-143.53 1063.68,-143.19 1065.78,-149.868"/>
</g>
<!-- Node12 -->
<g id="node12" class="node"><title>Node12</title>
<g id="a_node12"><a xlink:href="psi4-dec_8h_source.html" target="_top" xlink:title="psi4&#45;dec.h">
<polygon fill="none" stroke="black" points="631.391,-180.5 631.391,-199.5 693.391,-199.5 693.391,-180.5 631.391,-180.5"/>
<text text-anchor="middle" x="662.391" y="-187.5" font-family="Helvetica,sans-Serif" font-size="10.00">psi4&#45;dec.h</text>
</a>
</g>
</g>
<!-- Node11&#45;&gt;Node12 -->
<g id="edge12" class="edge"><title>Node11&#45;&gt;Node12</title>
<path fill="none" stroke="midnightblue" d="M736.253,-236.324C722.525,-227.9 701.455,-214.971 685.327,-205.074"/>
<polygon fill="midnightblue" stroke="midnightblue" points="686.849,-201.902 676.495,-199.655 683.188,-207.868 686.849,-201.902"/>
</g>
<!-- Node11&#45;&gt;Node9 -->
<g id="edge46" class="edge"><title>Node11&#45;&gt;Node9</title>
<path fill="none" stroke="midnightblue" d="M722.264,-245.674C633.718,-246.699 354.661,-241.496 153.391,-144 119.974,-127.812 106.468,-121.933 91.3915,-88 60.422,-18.2955 202.572,-10.4257 267.494,-10.3813"/>
<polygon fill="midnightblue" stroke="midnightblue" points="267.557,-13.8816 277.576,-10.4373 267.596,-6.88172 267.557,-13.8816"/>
</g>
<!-- Node34 -->
<g id="node34" class="node"><title>Node34</title>
<g id="a_node34"><a xlink:href="libciomr_8h_source.html" target="_top" xlink:title="libciomr/libciomr.h">
<polygon fill="none" stroke="black" points="790.891,-180.5 790.891,-199.5 885.891,-199.5 885.891,-180.5 790.891,-180.5"/>
<text text-anchor="middle" x="838.391" y="-187.5" font-family="Helvetica,sans-Serif" font-size="10.00">libciomr/libciomr.h</text>
</a>
</g>
</g>
<!-- Node11&#45;&gt;Node34 -->
<g id="edge47" class="edge"><title>Node11&#45;&gt;Node34</title>
<path fill="none" stroke="midnightblue" d="M764.53,-236.324C778.258,-227.9 799.328,-214.971 815.456,-205.074"/>
<polygon fill="midnightblue" stroke="midnightblue" points="817.595,-207.868 824.288,-199.655 813.934,-201.902 817.595,-207.868"/>
</g>
<!-- Node12&#45;&gt;Node6 -->
<g id="edge13" class="edge"><title>Node12&#45;&gt;Node6</title>
<path fill="none" stroke="midnightblue" d="M693.426,-183.015C740.304,-173.974 829.839,-156.707 887.787,-145.531"/>
<polygon fill="midnightblue" stroke="midnightblue" points="888.711,-148.917 897.868,-143.587 887.386,-142.044 888.711,-148.917"/>
</g>
<!-- Node13 -->
<g id="node13" class="node"><title>Node13</title>
<polygon fill="none" stroke="#bfbfbf" points="403.391,-62.5 403.391,-81.5 535.391,-81.5 535.391,-62.5 403.391,-62.5"/>
<text text-anchor="middle" x="469.391" y="-69.5" font-family="Helvetica,sans-Serif" font-size="10.00">boost/current_function.hpp</text>
</g>
<!-- Node12&#45;&gt;Node13 -->
<g id="edge14" class="edge"><title>Node12&#45;&gt;Node13</title>
<path fill="none" stroke="midnightblue" d="M631.225,-184.12C601.833,-178.344 557.604,-166.522 525.391,-144 505.36,-129.995 488.982,-106.765 479.221,-90.7101"/>
<polygon fill="midnightblue" stroke="midnightblue" points="482.082,-88.6682 474.026,-81.7875 476.033,-92.1905 482.082,-88.6682"/>
</g>
<!-- Node12&#45;&gt;Node9 -->
<g id="edge15" class="edge"><title>Node12&#45;&gt;Node9</title>
<path fill="none" stroke="midnightblue" d="M631.032,-188.683C522.455,-186.829 165.723,-174.171 102.391,-88 59.2199,-29.2588 202.213,-15.3099 267.554,-12.0132"/>
<polygon fill="midnightblue" stroke="midnightblue" points="267.867,-15.5028 277.699,-11.5558 267.551,-8.50988 267.867,-15.5028"/>
</g>
<!-- Node14 -->
<g id="node14" class="node"><title>Node14</title>
<polygon fill="none" stroke="#bfbfbf" points="690.891,-124.5 690.891,-143.5 719.891,-143.5 719.891,-124.5 690.891,-124.5"/>
<text text-anchor="middle" x="705.391" y="-131.5" font-family="Helvetica,sans-Serif" font-size="10.00">list</text>
</g>
<!-- Node12&#45;&gt;Node14 -->
<g id="edge16" class="edge"><title>Node12&#45;&gt;Node14</title>
<path fill="none" stroke="midnightblue" d="M669.492,-180.083C675.628,-172.377 684.661,-161.033 692.131,-151.653"/>
<polygon fill="midnightblue" stroke="midnightblue" points="694.932,-153.754 698.423,-143.751 689.456,-149.394 694.932,-153.754"/>
</g>
<!-- Node15 -->
<g id="node15" class="node"><title>Node15</title>
<polygon fill="none" stroke="#bfbfbf" points="633.891,-62.5 633.891,-81.5 668.891,-81.5 668.891,-62.5 633.891,-62.5"/>
<text text-anchor="middle" x="651.391" y="-69.5" font-family="Helvetica,sans-Serif" font-size="10.00">map</text>
</g>
<!-- Node12&#45;&gt;Node15 -->
<g id="edge17" class="edge"><title>Node12&#45;&gt;Node15</title>
<path fill="none" stroke="midnightblue" d="M661.565,-180.281C659.788,-161.547 655.573,-117.098 653.163,-91.6822"/>
<polygon fill="midnightblue" stroke="midnightblue" points="656.626,-91.1297 652.198,-81.5048 649.658,-91.7906 656.626,-91.1297"/>
</g>
<!-- Node16 -->
<g id="node16" class="node"><title>Node16</title>
<g id="a_node16"><a xlink:href="liboptions_8h_source.html" target="_top" xlink:title="liboptions/liboptions.h">
<polygon fill="none" stroke="black" points="749.391,-124.5 749.391,-143.5 859.391,-143.5 859.391,-124.5 749.391,-124.5"/>
<text text-anchor="middle" x="804.391" y="-131.5" font-family="Helvetica,sans-Serif" font-size="10.00">liboptions/liboptions.h</text>
</a>
</g>
</g>
<!-- Node12&#45;&gt;Node16 -->
<g id="edge18" class="edge"><title>Node12&#45;&gt;Node16</title>
<path fill="none" stroke="midnightblue" d="M684.892,-180.444C708.469,-171.478 745.714,-157.314 772.356,-147.183"/>
<polygon fill="midnightblue" stroke="midnightblue" points="773.894,-150.342 781.996,-143.516 771.405,-143.8 773.894,-150.342"/>
</g>
<!-- Node25 -->
<g id="node25" class="node"><title>Node25</title>
<g id="a_node25"><a xlink:href="include_2exception_8h_source.html" target="_top" xlink:title="exception.h">
<polygon fill="none" stroke="black" points="290.891,-124.5 290.891,-143.5 357.891,-143.5 357.891,-124.5 290.891,-124.5"/>
<text text-anchor="middle" x="324.391" y="-131.5" font-family="Helvetica,sans-Serif" font-size="10.00">exception.h</text>
</a>
</g>
</g>
<!-- Node12&#45;&gt;Node25 -->
<g id="edge33" class="edge"><title>Node12&#45;&gt;Node25</title>
<path fill="none" stroke="midnightblue" d="M631.199,-184.017C570.73,-174.356 437.429,-153.059 368.143,-141.99"/>
<polygon fill="midnightblue" stroke="midnightblue" points="368.424,-138.49 357.997,-140.369 367.32,-145.403 368.424,-138.49"/>
</g>
<!-- Node30 -->
<g id="node30" class="node"><title>Node30</title>
<g id="a_node30"><a xlink:href="typedefs_8h_source.html" target="_top" xlink:title="libmints/typedefs.h">
<polygon fill="none" stroke="black" points="534.891,-124.5 534.891,-143.5 633.891,-143.5 633.891,-124.5 534.891,-124.5"/>
<text text-anchor="middle" x="584.391" y="-131.5" font-family="Helvetica,sans-Serif" font-size="10.00">libmints/typedefs.h</text>
</a>
</g>
</g>
<!-- Node12&#45;&gt;Node30 -->
<g id="edge39" class="edge"><title>Node12&#45;&gt;Node30</title>
<path fill="none" stroke="midnightblue" d="M649.859,-180.324C637.806,-171.979 619.365,-159.212 605.123,-149.352"/>
<polygon fill="midnightblue" stroke="midnightblue" points="607.107,-146.469 596.892,-143.655 603.122,-152.224 607.107,-146.469"/>
</g>
<!-- Node16&#45;&gt;Node9 -->
<g id="edge19" class="edge"><title>Node16&#45;&gt;Node9</title>
<path fill="none" stroke="midnightblue" d="M784.849,-124.479C766.563,-116.169 738.784,-102.668 716.391,-88 697.636,-75.7142 698.02,-64.786 677.391,-56 614.656,-29.2796 407.816,-16.4372 329.138,-12.4292"/>
<polygon fill="midnightblue" stroke="midnightblue" points="329.076,-8.92195 318.915,-11.9218 328.729,-15.9133 329.076,-8.92195"/>
</g>
<!-- Node16&#45;&gt;Node7 -->
<g id="edge20" class="edge"><title>Node16&#45;&gt;Node7</title>
<path fill="none" stroke="midnightblue" d="M859.506,-125.541C944.051,-113.971 1096.48,-92.5518 1100.39,-88 1140.16,-41.7335 1026.2,-21.4644 967.687,-14.2894"/>
<polygon fill="midnightblue" stroke="midnightblue" points="967.795,-10.7784 957.457,-13.0988 966.985,-17.7315 967.795,-10.7784"/>
</g>
<!-- Node16&#45;&gt;Node15 -->
<g id="edge21" class="edge"><title>Node16&#45;&gt;Node15</title>
<path fill="none" stroke="midnightblue" d="M779.594,-124.451C754.971,-115.806 716.253,-101.785 683.391,-88 681.758,-87.3147 680.085,-86.5931 678.404,-85.8522"/>
<polygon fill="midnightblue" stroke="midnightblue" points="679.432,-82.4743 668.88,-81.5149 676.53,-88.8448 679.432,-82.4743"/>
</g>
<!-- Node17 -->
<g id="node17" class="node"><title>Node17</title>
<polygon fill="none" stroke="#bfbfbf" points="903.891,-62.5 903.891,-81.5 970.891,-81.5 970.891,-62.5 903.891,-62.5"/>
<text text-anchor="middle" x="937.391" y="-69.5" font-family="Helvetica,sans-Serif" font-size="10.00">exception.h</text>
</g>
<!-- Node16&#45;&gt;Node17 -->
<g id="edge22" class="edge"><title>Node16&#45;&gt;Node17</title>
<path fill="none" stroke="midnightblue" d="M823.447,-124.403C845.866,-114.29 883.297,-97.4036 909.105,-85.761"/>
<polygon fill="midnightblue" stroke="midnightblue" points="910.695,-88.8832 918.371,-81.5806 907.817,-82.5025 910.695,-88.8832"/>
</g>
<!-- Node18 -->
<g id="node18" class="node"><title>Node18</title>
<g id="a_node18"><a xlink:href="libutil_8h_source.html" target="_top" xlink:title="libutil/libutil.h">
<polygon fill="none" stroke="black" points="725.891,-62.5 725.891,-81.5 798.891,-81.5 798.891,-62.5 725.891,-62.5"/>
<text text-anchor="middle" x="762.391" y="-69.5" font-family="Helvetica,sans-Serif" font-size="10.00">libutil/libutil.h</text>
</a>
</g>
</g>
<!-- Node16&#45;&gt;Node18 -->
<g id="edge23" class="edge"><title>Node16&#45;&gt;Node18</title>
<path fill="none" stroke="midnightblue" d="M798.374,-124.403C792.074,-115.403 782.02,-101.041 774.139,-89.7824"/>
<polygon fill="midnightblue" stroke="midnightblue" points="777,-87.7658 768.398,-81.5806 771.265,-91.7801 777,-87.7658"/>
</g>
<!-- Node20 -->
<g id="node20" class="node"><title>Node20</title>
<g id="a_node20"><a xlink:href="libutil_2ref_8h_source.html" target="_top" xlink:title="libutil/ref.h">
<polygon fill="none" stroke="black" points="1185.39,-62.5 1185.39,-81.5 1247.39,-81.5 1247.39,-62.5 1185.39,-62.5"/>
<text text-anchor="middle" x="1216.39" y="-69.5" font-family="Helvetica,sans-Serif" font-size="10.00">libutil/ref.h</text>
</a>
</g>
</g>
<!-- Node16&#45;&gt;Node20 -->
<g id="edge27" class="edge"><title>Node16&#45;&gt;Node20</title>
<path fill="none" stroke="midnightblue" d="M859.508,-126.194C924.942,-117.946 1037.31,-103.246 1133.39,-88 1147.11,-85.8239 1162.05,-83.2017 1175.43,-80.7626"/>
<polygon fill="midnightblue" stroke="midnightblue" points="1176.11,-84.1964 1185.31,-78.9435 1174.84,-77.3121 1176.11,-84.1964"/>
</g>
<!-- Node24 -->
<g id="node24" class="node"><title>Node24</title>
<polygon fill="none" stroke="#bfbfbf" points="989.391,-57 989.391,-87 1091.39,-87 1091.39,-57 989.391,-57"/>
<text text-anchor="start" x="997.391" y="-75" font-family="Helvetica,sans-Serif" font-size="10.00">boost/python/object</text>
<text text-anchor="middle" x="1040.39" y="-64" font-family="Helvetica,sans-Serif" font-size="10.00">_fwd.hpp</text>
</g>
<!-- Node16&#45;&gt;Node24 -->
<g id="edge32" class="edge"><title>Node16&#45;&gt;Node24</title>
<path fill="none" stroke="midnightblue" d="M837.954,-124.467C874.63,-115.143 934.159,-100.008 979.193,-88.559"/>
<polygon fill="midnightblue" stroke="midnightblue" points="980.316,-91.8848 989.146,-86.0286 978.591,-85.1006 980.316,-91.8848"/>
</g>
<!-- Node18&#45;&gt;Node9 -->
<g id="edge24" class="edge"><title>Node18&#45;&gt;Node9</title>
<path fill="none" stroke="midnightblue" d="M736.668,-62.4685C728.646,-60.0697 719.718,-57.6643 711.391,-56 570.408,-27.8186 398.576,-16.2407 329.415,-12.496"/>
<polygon fill="midnightblue" stroke="midnightblue" points="329.387,-8.9898 319.217,-11.9609 329.02,-15.9802 329.387,-8.9898"/>
</g>
<!-- Node18&#45;&gt;Node7 -->
<g id="edge25" class="edge"><title>Node18&#45;&gt;Node7</title>
<path fill="none" stroke="midnightblue" d="M787.178,-62.4035C817.829,-51.7731 870.051,-33.6615 903.617,-22.0201"/>
<polygon fill="midnightblue" stroke="midnightblue" points="905.089,-25.214 913.39,-18.6304 902.796,-18.6005 905.089,-25.214"/>
</g>
<!-- Node19 -->
<g id="node19" class="node"><title>Node19</title>
<polygon fill="none" stroke="#bfbfbf" points="731.391,-0.5 731.391,-19.5 793.391,-19.5 793.391,-0.5 731.391,-0.5"/>
<text text-anchor="middle" x="762.391" y="-7.5" font-family="Helvetica,sans-Serif" font-size="10.00">sys/time.h</text>
</g>
<!-- Node18&#45;&gt;Node19 -->
<g id="edge26" class="edge"><title>Node18&#45;&gt;Node19</title>
<path fill="none" stroke="midnightblue" d="M762.391,-62.4035C762.391,-53.9381 762.391,-40.7283 762.391,-29.8199"/>
<polygon fill="midnightblue" stroke="midnightblue" points="765.892,-29.5806 762.391,-19.5806 758.892,-29.5806 765.892,-29.5806"/>
</g>
<!-- Node21 -->
<g id="node21" class="node"><title>Node21</title>
<polygon fill="none" stroke="#bfbfbf" points="1059.89,-0.5 1059.89,-19.5 1108.89,-19.5 1108.89,-0.5 1059.89,-0.5"/>
<text text-anchor="middle" x="1084.39" y="-7.5" font-family="Helvetica,sans-Serif" font-size="10.00">cstddef</text>
</g>
<!-- Node20&#45;&gt;Node21 -->
<g id="edge28" class="edge"><title>Node20&#45;&gt;Node21</title>
<path fill="none" stroke="midnightblue" d="M1197.48,-62.4035C1175.23,-52.2896 1138.08,-35.4036 1112.47,-23.761"/>
<polygon fill="midnightblue" stroke="midnightblue" points="1113.82,-20.5324 1103.27,-19.5806 1110.92,-26.905 1113.82,-20.5324"/>
</g>
<!-- Node20&#45;&gt;Node3 -->
<g id="edge29" class="edge"><title>Node20&#45;&gt;Node3</title>
<path fill="none" stroke="midnightblue" d="M1225.85,-62.4035C1236.14,-53.047 1252.81,-37.8948 1265.39,-26.4599"/>
<polygon fill="midnightblue" stroke="midnightblue" points="1267.91,-28.8971 1272.95,-19.5806 1263.2,-23.7176 1267.91,-28.8971"/>
</g>
<!-- Node22 -->
<g id="node22" class="node"><title>Node22</title>
<polygon fill="none" stroke="#bfbfbf" points="1126.89,-0.5 1126.89,-19.5 1171.89,-19.5 1171.89,-0.5 1126.89,-0.5"/>
<text text-anchor="middle" x="1149.39" y="-7.5" font-family="Helvetica,sans-Serif" font-size="10.00">cstdlib</text>
</g>
<!-- Node20&#45;&gt;Node22 -->
<g id="edge30" class="edge"><title>Node20&#45;&gt;Node22</title>
<path fill="none" stroke="midnightblue" d="M1206.79,-62.4035C1196.34,-53.047 1179.42,-37.8948 1166.66,-26.4599"/>
<polygon fill="midnightblue" stroke="midnightblue" points="1168.76,-23.6445 1158.97,-19.5806 1164.09,-28.8592 1168.76,-23.6445"/>
</g>
<!-- Node23 -->
<g id="node23" class="node"><title>Node23</title>
<polygon fill="none" stroke="#bfbfbf" points="1190.39,-0.5 1190.39,-19.5 1242.39,-19.5 1242.39,-0.5 1190.39,-0.5"/>
<text text-anchor="middle" x="1216.39" y="-7.5" font-family="Helvetica,sans-Serif" font-size="10.00">assert.h</text>
</g>
<!-- Node20&#45;&gt;Node23 -->
<g id="edge31" class="edge"><title>Node20&#45;&gt;Node23</title>
<path fill="none" stroke="midnightblue" d="M1216.39,-62.4035C1216.39,-53.9381 1216.39,-40.7283 1216.39,-29.8199"/>
<polygon fill="midnightblue" stroke="midnightblue" points="1219.89,-29.5806 1216.39,-19.5806 1212.89,-29.5806 1219.89,-29.5806"/>
</g>
<!-- Node26 -->
<g id="node26" class="node"><title>Node26</title>
<polygon fill="none" stroke="#bfbfbf" points="181.891,-62.5 181.891,-81.5 240.891,-81.5 240.891,-62.5 181.891,-62.5"/>
<text text-anchor="middle" x="211.391" y="-69.5" font-family="Helvetica,sans-Serif" font-size="10.00">exception</text>
</g>
<!-- Node25&#45;&gt;Node26 -->
<g id="edge34" class="edge"><title>Node25&#45;&gt;Node26</title>
<path fill="none" stroke="midnightblue" d="M308.201,-124.403C289.489,-114.468 258.468,-97.9966 236.593,-86.3812"/>
<polygon fill="midnightblue" stroke="midnightblue" points="238.025,-83.179 227.552,-81.5806 234.742,-89.3616 238.025,-83.179"/>
</g>
<!-- Node27 -->
<g id="node27" class="node"><title>Node27</title>
<polygon fill="none" stroke="#bfbfbf" points="258.891,-62.5 258.891,-81.5 317.891,-81.5 317.891,-62.5 258.891,-62.5"/>
<text text-anchor="middle" x="288.391" y="-69.5" font-family="Helvetica,sans-Serif" font-size="10.00">stdexcept</text>
</g>
<!-- Node25&#45;&gt;Node27 -->
<g id="edge35" class="edge"><title>Node25&#45;&gt;Node27</title>
<path fill="none" stroke="midnightblue" d="M319.234,-124.403C313.94,-115.582 305.556,-101.608 298.864,-90.4548"/>
<polygon fill="midnightblue" stroke="midnightblue" points="301.686,-88.3548 293.54,-81.5806 295.684,-91.9563 301.686,-88.3548"/>
</g>
<!-- Node28 -->
<g id="node28" class="node"><title>Node28</title>
<polygon fill="none" stroke="#bfbfbf" points="111.391,-62.5 111.391,-81.5 163.391,-81.5 163.391,-62.5 111.391,-62.5"/>
<text text-anchor="middle" x="137.391" y="-69.5" font-family="Helvetica,sans-Serif" font-size="10.00">sstream</text>
</g>
<!-- Node25&#45;&gt;Node28 -->
<g id="edge36" class="edge"><title>Node25&#45;&gt;Node28</title>
<path fill="none" stroke="midnightblue" d="M291.417,-124.437C260.384,-116.097 212.775,-102.575 172.391,-88 170.135,-87.1858 167.816,-86.301 165.496,-85.3821"/>
<polygon fill="midnightblue" stroke="midnightblue" points="166.699,-82.0924 156.121,-81.5056 164.025,-88.5612 166.699,-82.0924"/>
</g>
<!-- Node29 -->
<g id="node29" class="node"><title>Node29</title>
<polygon fill="none" stroke="#bfbfbf" points="335.891,-62.5 335.891,-81.5 384.891,-81.5 384.891,-62.5 335.891,-62.5"/>
<text text-anchor="middle" x="360.391" y="-69.5" font-family="Helvetica,sans-Serif" font-size="10.00">string.h</text>
</g>
<!-- Node25&#45;&gt;Node29 -->
<g id="edge37" class="edge"><title>Node25&#45;&gt;Node29</title>
<path fill="none" stroke="midnightblue" d="M329.549,-124.403C334.843,-115.582 343.227,-101.608 349.919,-90.4548"/>
<polygon fill="midnightblue" stroke="midnightblue" points="353.099,-91.9563 355.243,-81.5806 347.097,-88.3548 353.099,-91.9563"/>
</g>
<!-- Node25&#45;&gt;Node13 -->
<g id="edge38" class="edge"><title>Node25&#45;&gt;Node13</title>
<path fill="none" stroke="midnightblue" d="M345.166,-124.403C369.824,-114.2 411.137,-97.1055 439.293,-85.4544"/>
<polygon fill="midnightblue" stroke="midnightblue" points="440.753,-88.6382 448.655,-81.5806 438.077,-82.1701 440.753,-88.6382"/>
</g>
<!-- Node31 -->
<g id="node31" class="node"><title>Node31</title>
<g id="a_node31"><a xlink:href="compiler_8h_source.html" target="_top" xlink:title="compiler.h">
<polygon fill="none" stroke="black" points="553.391,-62.5 553.391,-81.5 615.391,-81.5 615.391,-62.5 553.391,-62.5"/>
<text text-anchor="middle" x="584.391" y="-69.5" font-family="Helvetica,sans-Serif" font-size="10.00">compiler.h</text>
</a>
</g>
</g>
<!-- Node30&#45;&gt;Node31 -->
<g id="edge40" class="edge"><title>Node30&#45;&gt;Node31</title>
<path fill="none" stroke="midnightblue" d="M584.391,-124.403C584.391,-115.938 584.391,-102.728 584.391,-91.8199"/>
<polygon fill="midnightblue" stroke="midnightblue" points="587.892,-91.5806 584.391,-81.5806 580.892,-91.5806 587.892,-91.5806"/>
</g>
<!-- Node33 -->
<g id="node33" class="node"><title>Node33</title>
<g id="a_node33"><a xlink:href="dimension_8h_source.html" target="_top" xlink:title="dimension.h">
<polygon fill="none" stroke="black" points="816.891,-62.5 816.891,-81.5 885.891,-81.5 885.891,-62.5 816.891,-62.5"/>
<text text-anchor="middle" x="851.391" y="-69.5" font-family="Helvetica,sans-Serif" font-size="10.00">dimension.h</text>
</a>
</g>
</g>
<!-- Node30&#45;&gt;Node33 -->
<g id="edge42" class="edge"><title>Node30&#45;&gt;Node33</title>
<path fill="none" stroke="midnightblue" d="M633.979,-124.892C679.455,-117.009 748.482,-103.913 807.391,-88 811.034,-87.0161 814.813,-85.8912 818.558,-84.7098"/>
<polygon fill="midnightblue" stroke="midnightblue" points="819.871,-87.9625 828.273,-81.5082 817.68,-81.3142 819.871,-87.9625"/>
</g>
<!-- Node32 -->
<g id="node32" class="node"><title>Node32</title>
<polygon fill="none" stroke="#bfbfbf" points="552.391,-0.5 552.391,-19.5 616.391,-19.5 616.391,-0.5 552.391,-0.5"/>
<text text-anchor="middle" x="584.391" y="-7.5" font-family="Helvetica,sans-Serif" font-size="10.00">psiconfig.h</text>
</g>
<!-- Node31&#45;&gt;Node32 -->
<g id="edge41" class="edge"><title>Node31&#45;&gt;Node32</title>
<path fill="none" stroke="midnightblue" d="M584.391,-62.4035C584.391,-53.9381 584.391,-40.7283 584.391,-29.8199"/>
<polygon fill="midnightblue" stroke="midnightblue" points="587.892,-29.5806 584.391,-19.5806 580.892,-29.5806 587.892,-29.5806"/>
</g>
<!-- Node33&#45;&gt;Node9 -->
<g id="edge43" class="edge"><title>Node33&#45;&gt;Node9</title>
<path fill="none" stroke="midnightblue" d="M829.749,-62.4673C822.718,-60.0086 814.814,-57.5693 807.391,-56 629.167,-18.3172 409.37,-12.1338 329.361,-11.1622"/>
<polygon fill="midnightblue" stroke="midnightblue" points="329.053,-7.65897 319.018,-11.0569 328.982,-14.6586 329.053,-7.65897"/>
</g>
<!-- Node33&#45;&gt;Node3 -->
<g id="edge44" class="edge"><title>Node33&#45;&gt;Node3</title>
<path fill="none" stroke="midnightblue" d="M872.979,-62.3569C879.739,-59.9535 887.29,-57.5737 894.391,-56 1046.89,-22.2067 1092.95,-49.1998 1250.77,-19.729"/>
<polygon fill="midnightblue" stroke="midnightblue" points="1251.67,-23.1206 1260.83,-17.8025 1250.35,-16.2455 1251.67,-23.1206"/>
</g>
<!-- Node33&#45;&gt;Node7 -->
<g id="edge45" class="edge"><title>Node33&#45;&gt;Node7</title>
<path fill="none" stroke="midnightblue" d="M863.427,-62.4035C876.9,-52.7797 898.958,-37.0242 915.107,-25.4891"/>
<polygon fill="midnightblue" stroke="midnightblue" points="917.276,-28.2411 923.379,-19.5806 913.207,-22.5449 917.276,-28.2411"/>
</g>
<!-- Node34&#45;&gt;Node3 -->
<g id="edge48" class="edge"><title>Node34&#45;&gt;Node3</title>
<path fill="none" stroke="midnightblue" d="M872.476,-180.493C906.353,-171.879 959.711,-157.882 1005.39,-144 1031.88,-135.95 1037.61,-131.013 1064.39,-124 1148.38,-102.009 1190.85,-144.937 1256.39,-88 1273.25,-73.3569 1279.2,-47.3937 1281.29,-29.7013"/>
<polygon fill="midnightblue" stroke="midnightblue" points="1284.78,-29.9676 1282.16,-19.7001 1277.8,-29.3563 1284.78,-29.9676"/>
</g>
</g>
</svg>
        <g id="navigator" transform="translate(0 0)" fill="#404254">
                <rect fill="#f2f5e9" fill-opacity="0.5" stroke="#606060" stroke-width=".5" x="0" y="0" width="60" height="60"/>
                <use id="zoomplus" xlink:href="#zoomPlus" x="17" y="9" onmousedown="handleZoom(evt,'in')"/>
                <use id="zoomminus" xlink:href="#zoomMin" x="42" y="9" onmousedown="handleZoom(evt,'out')"/>
                <use id="reset" xlink:href="#resetDef" x="30" y="36" onmousedown="handleReset()"/>
                <g id="arrowUp" xlink:href="#dirArrow" transform="translate(30 24)" onmousedown="handlePan(0,-1)">
                  <use xlink:href="#rim" fill="#404040">
                        <set attributeName="fill" to="#808080" begin="arrowUp.mouseover" end="arrowUp.mouseout"/>
                  </use>
                  <path fill="none" stroke="white" stroke-width="1.5" d="M0,-3.0v7 M-2.5,-0.5L0,-3.0L2.5,-0.5"/>
                </g>
                <g id="arrowRight" xlink:href="#dirArrow" transform="rotate(90) translate(36 -43)" onmousedown="handlePan(1,0)">
                  <use xlink:href="#rim" fill="#404040">
                        <set attributeName="fill" to="#808080" begin="arrowRight.mouseover" end="arrowRight.mouseout"/>
                  </use>
                  <path fill="none" stroke="white" stroke-width="1.5" d="M0,-3.0v7 M-2.5,-0.5L0,-3.0L2.5,-0.5"/>
                </g>
                <g id="arrowDown" xlink:href="#dirArrow" transform="rotate(180) translate(-30 -48)" onmousedown="handlePan(0,1)">
                  <use xlink:href="#rim" fill="#404040">
                        <set attributeName="fill" to="#808080" begin="arrowDown.mouseover" end="arrowDown.mouseout"/>
                  </use>
                  <path fill="none" stroke="white" stroke-width="1.5" d="M0,-3.0v7 M-2.5,-0.5L0,-3.0L2.5,-0.5"/>
                </g>
                <g id="arrowLeft" xlink:href="#dirArrow" transform="rotate(270) translate(-36 17)" onmousedown="handlePan(-1,0)">
                  <use xlink:href="#rim" fill="#404040">
                        <set attributeName="fill" to="#808080" begin="arrowLeft.mouseover" end="arrowLeft.mouseout"/>
                  </use>
                  <path fill="none" stroke="white" stroke-width="1.5" d="M0,-3.0v7 M-2.5,-0.5L0,-3.0L2.5,-0.5"/>
                </g>
        </g>
        <svg viewBox="0 0 15 15" width="100%" height="30px" preserveAspectRatio="xMaxYMin meet">
         <g id="arrow_out" transform="scale(0.3 0.3)">
          <a xlink:href="cc3__Wmbij_8cc__incl_org.svg" target="_base">
           <rect id="button" ry="5" rx="5" y="6" x="6" height="38" width="38"
                fill="#f2f5e9" fill-opacity="0.5" stroke="#606060" stroke-width="1.0"/>
           <path id="arrow"
             d="M 11.500037,31.436501 C 11.940474,20.09759 22.043105,11.32322 32.158766,21.979434 L 37.068811,17.246167 C 37.068811,17.246167 37.088388,32 37.088388,32 L 22.160133,31.978069 C 22.160133,31.978069 26.997745,27.140456 26.997745,27.140456 C 18.528582,18.264221 13.291696,25.230495 11.500037,31.436501 z"
             style="fill:#404040;"/>
          </a>
         </g>
        </svg>
</svg>
