<?xml version="1.0" encoding="UTF-8" standalone="no"?>
<!DOCTYPE svg PUBLIC "-//W3C//DTD SVG 1.1//EN"
 "http://www.w3.org/Graphics/SVG/1.1/DTD/svg11.dtd">
<!-- Generated by graphviz version 2.30.1 (20140110.0959)
 -->
<!-- Title: cc_excited.cc Pages: 1 -->
<svg width="1239pt" height="264pt"
 viewBox="0.00 0.00 1238.68 264.00" xmlns="http://www.w3.org/2000/svg" xmlns:xlink="http://www.w3.org/1999/xlink">
<g id="graph0" class="graph" transform="scale(1 1) rotate(0) translate(4 260)">
<title>cc_excited.cc</title>
<!-- Node1 -->
<g id="node1" class="node"><title>Node1</title>
<polygon fill="#bfbfbf" stroke="black" points="687.5,-236.5 687.5,-255.5 764.5,-255.5 764.5,-236.5 687.5,-236.5"/>
<text text-anchor="middle" x="726" y="-243.5" font-family="Helvetica,sans-Serif" font-size="10.00">cc_excited.cc</text>
</g>
<!-- Node2 -->
<g id="node2" class="node"><title>Node2</title>
<polygon fill="none" stroke="#bfbfbf" points="209.5,-0.5 209.5,-19.5 252.5,-19.5 252.5,-0.5 209.5,-0.5"/>
<text text-anchor="middle" x="231" y="-7.5" font-family="Helvetica,sans-Serif" font-size="10.00">cstdio</text>
</g>
<!-- Node1&#45;&gt;Node2 -->
<g id="edge1" class="edge"><title>Node1&#45;&gt;Node2</title>
<path fill="none" stroke="midnightblue" d="M687.31,-242.289C557.498,-232.266 141.639,-192.336 71,-88 63.0266,-76.223 62.4005,-67.3279 71,-56 105.163,-10.9971 139.118,-33.6777 199.42,-19.8685"/>
<polygon fill="midnightblue" stroke="midnightblue" points="200.514,-23.2013 209.328,-17.323 198.772,-16.4215 200.514,-23.2013"/>
</g>
<!-- Node3 -->
<g id="node3" class="node"><title>Node3</title>
<polygon fill="none" stroke="#bfbfbf" points="-0.5,-0.5 -0.5,-19.5 44.5,-19.5 44.5,-0.5 -0.5,-0.5"/>
<text text-anchor="middle" x="22" y="-7.5" font-family="Helvetica,sans-Serif" font-size="10.00">cstdlib</text>
</g>
<!-- Node1&#45;&gt;Node3 -->
<g id="edge2" class="edge"><title>Node1&#45;&gt;Node3</title>
<path fill="none" stroke="midnightblue" d="M687.224,-244.515C607.264,-242.796 418.673,-235.024 265,-200 194.399,-183.909 172.11,-184.376 112,-144 68.9201,-115.063 40.9058,-57.891 28.8243,-28.8426"/>
<polygon fill="midnightblue" stroke="midnightblue" points="32.0582,-27.5033 25.0957,-19.5174 25.5585,-30.1021 32.0582,-27.5033"/>
</g>
<!-- Node4 -->
<g id="node4" class="node"><title>Node4</title>
<polygon fill="none" stroke="#bfbfbf" points="667,-180.5 667,-199.5 713,-199.5 713,-180.5 667,-180.5"/>
<text text-anchor="middle" x="690" y="-187.5" font-family="Helvetica,sans-Serif" font-size="10.00">cstring</text>
</g>
<!-- Node1&#45;&gt;Node4 -->
<g id="edge3" class="edge"><title>Node1&#45;&gt;Node4</title>
<path fill="none" stroke="midnightblue" d="M720.055,-236.083C715.023,-228.534 707.663,-217.495 701.487,-208.23"/>
<polygon fill="midnightblue" stroke="midnightblue" points="704.293,-206.13 695.834,-199.751 698.469,-210.013 704.293,-206.13"/>
</g>
<!-- Node5 -->
<g id="node5" class="node"><title>Node5</title>
<polygon fill="none" stroke="#bfbfbf" points="627.5,-0.5 627.5,-19.5 668.5,-19.5 668.5,-0.5 627.5,-0.5"/>
<text text-anchor="middle" x="648" y="-7.5" font-family="Helvetica,sans-Serif" font-size="10.00">string</text>
</g>
<!-- Node1&#45;&gt;Node5 -->
<g id="edge4" class="edge"><title>Node1&#45;&gt;Node5</title>
<path fill="none" stroke="midnightblue" d="M764.733,-243.149C900.256,-235.406 1337.94,-199.005 1206,-56 1196.98,-46.2255 795.263,-20.2564 679.133,-12.9419"/>
<polygon fill="midnightblue" stroke="midnightblue" points="679.009,-9.42726 668.809,-12.2934 678.57,-16.4135 679.009,-9.42726"/>
</g>
<!-- Node6 -->
<g id="node6" class="node"><title>Node6</title>
<g id="a_node6"><a xlink:href="psifiles_8h_source.html" target="_top" xlink:title="psifiles.h">
<polygon fill="none" stroke="black" points="811,-180.5 811,-199.5 867,-199.5 867,-180.5 811,-180.5"/>
<text text-anchor="middle" x="839" y="-187.5" font-family="Helvetica,sans-Serif" font-size="10.00">psifiles.h</text>
</a>
</g>
</g>
<!-- Node1&#45;&gt;Node6 -->
<g id="edge5" class="edge"><title>Node1&#45;&gt;Node6</title>
<path fill="none" stroke="midnightblue" d="M743.905,-236.444C762.254,-227.675 791.005,-213.935 812.094,-203.858"/>
<polygon fill="midnightblue" stroke="midnightblue" points="813.665,-206.986 821.179,-199.516 810.647,-200.67 813.665,-206.986"/>
</g>
<!-- Node7 -->
<g id="node7" class="node"><title>Node7</title>
<g id="a_node7"><a xlink:href="psi4-dec_8h_source.html" target="_top" xlink:title="psi4&#45;dec.h">
<polygon fill="none" stroke="black" points="731,-180.5 731,-199.5 793,-199.5 793,-180.5 731,-180.5"/>
<text text-anchor="middle" x="762" y="-187.5" font-family="Helvetica,sans-Serif" font-size="10.00">psi4&#45;dec.h</text>
</a>
</g>
</g>
<!-- Node1&#45;&gt;Node7 -->
<g id="edge6" class="edge"><title>Node1&#45;&gt;Node7</title>
<path fill="none" stroke="midnightblue" d="M731.945,-236.083C736.977,-228.534 744.337,-217.495 750.513,-208.23"/>
<polygon fill="midnightblue" stroke="midnightblue" points="753.531,-210.013 756.166,-199.751 747.707,-206.13 753.531,-210.013"/>
</g>
<!-- Node8 -->
<g id="node8" class="node"><title>Node8</title>
<polygon fill="none" stroke="#bfbfbf" points="997,-124.5 997,-143.5 1105,-143.5 1105,-124.5 997,-124.5"/>
<text text-anchor="middle" x="1051" y="-131.5" font-family="Helvetica,sans-Serif" font-size="10.00">boost/shared_ptr.hpp</text>
</g>
<!-- Node7&#45;&gt;Node8 -->
<g id="edge7" class="edge"><title>Node7&#45;&gt;Node8</title>
<path fill="none" stroke="midnightblue" d="M793.416,-181.799C796.315,-181.175 799.21,-180.566 802,-180 866.043,-167.014 939.73,-153.926 990.232,-145.239"/>
<polygon fill="midnightblue" stroke="midnightblue" points="991.064,-148.647 1000.33,-143.508 989.881,-141.748 991.064,-148.647"/>
</g>
<!-- Node9 -->
<g id="node9" class="node"><title>Node9</title>
<polygon fill="none" stroke="#bfbfbf" points="674,-62.5 674,-81.5 806,-81.5 806,-62.5 674,-62.5"/>
<text text-anchor="middle" x="740" y="-69.5" font-family="Helvetica,sans-Serif" font-size="10.00">boost/current_function.hpp</text>
</g>
<!-- Node7&#45;&gt;Node9 -->
<g id="edge8" class="edge"><title>Node7&#45;&gt;Node9</title>
<path fill="none" stroke="midnightblue" d="M755.633,-180.232C749.74,-171.532 741.393,-157.572 738,-144 733.705,-126.82 734.858,-106.572 736.698,-92.1044"/>
<polygon fill="midnightblue" stroke="midnightblue" points="740.205,-92.3193 738.231,-81.9101 733.283,-91.2787 740.205,-92.3193"/>
</g>
<!-- Node7&#45;&gt;Node5 -->
<g id="edge9" class="edge"><title>Node7&#45;&gt;Node5</title>
<path fill="none" stroke="midnightblue" d="M793.38,-181.608C796.286,-181.024 799.193,-180.476 802,-180 939.619,-156.646 984.612,-196.374 1114,-144 1161.1,-124.933 1221.41,-93.3976 1187,-56 1178.32,-46.5648 791.967,-20.4644 678.823,-13.0112"/>
<polygon fill="midnightblue" stroke="midnightblue" points="678.956,-9.51249 668.748,-12.3493 678.497,-16.4974 678.956,-9.51249"/>
</g>
<!-- Node10 -->
<g id="node10" class="node"><title>Node10</title>
<polygon fill="none" stroke="#bfbfbf" points="747.5,-124.5 747.5,-143.5 776.5,-143.5 776.5,-124.5 747.5,-124.5"/>
<text text-anchor="middle" x="762" y="-131.5" font-family="Helvetica,sans-Serif" font-size="10.00">list</text>
</g>
<!-- Node7&#45;&gt;Node10 -->
<g id="edge10" class="edge"><title>Node7&#45;&gt;Node10</title>
<path fill="none" stroke="midnightblue" d="M762,-180.083C762,-173.006 762,-162.861 762,-153.986"/>
<polygon fill="midnightblue" stroke="midnightblue" points="765.5,-153.751 762,-143.751 758.5,-153.751 765.5,-153.751"/>
</g>
<!-- Node11 -->
<g id="node11" class="node"><title>Node11</title>
<polygon fill="none" stroke="#bfbfbf" points="80.5,-62.5 80.5,-81.5 115.5,-81.5 115.5,-62.5 80.5,-62.5"/>
<text text-anchor="middle" x="98" y="-69.5" font-family="Helvetica,sans-Serif" font-size="10.00">map</text>
</g>
<!-- Node7&#45;&gt;Node11 -->
<g id="edge11" class="edge"><title>Node7&#45;&gt;Node11</title>
<path fill="none" stroke="midnightblue" d="M730.635,-181.513C727.726,-180.949 724.814,-180.432 722,-180 532.003,-150.833 479.223,-183.007 291,-144 214.757,-128.199 196.215,-119.481 125,-88 123.814,-87.4756 122.611,-86.9164 121.404,-86.3336"/>
<polygon fill="midnightblue" stroke="midnightblue" points="122.81,-83.1194 112.326,-81.5923 119.57,-89.3241 122.81,-83.1194"/>
</g>
<!-- Node12 -->
<g id="node12" class="node"><title>Node12</title>
<g id="a_node12"><a xlink:href="liboptions_8h_source.html" target="_top" xlink:title="liboptions/liboptions.h">
<polygon fill="none" stroke="black" points="300,-124.5 300,-143.5 410,-143.5 410,-124.5 300,-124.5"/>
<text text-anchor="middle" x="355" y="-131.5" font-family="Helvetica,sans-Serif" font-size="10.00">liboptions/liboptions.h</text>
</a>
</g>
</g>
<!-- Node7&#45;&gt;Node12 -->
<g id="edge12" class="edge"><title>Node7&#45;&gt;Node12</title>
<path fill="none" stroke="midnightblue" d="M730.616,-181.629C727.711,-181.04 724.805,-180.486 722,-180 617.042,-161.804 493.946,-148.289 420.329,-141.033"/>
<polygon fill="midnightblue" stroke="midnightblue" points="420.57,-137.54 410.277,-140.051 419.889,-144.507 420.57,-137.54"/>
</g>
<!-- Node21 -->
<g id="node21" class="node"><title>Node21</title>
<g id="a_node21"><a xlink:href="include_2exception_8h_source.html" target="_top" xlink:title="exception.h">
<polygon fill="none" stroke="black" points="911.5,-124.5 911.5,-143.5 978.5,-143.5 978.5,-124.5 911.5,-124.5"/>
<text text-anchor="middle" x="945" y="-131.5" font-family="Helvetica,sans-Serif" font-size="10.00">exception.h</text>
</a>
</g>
</g>
<!-- Node7&#45;&gt;Node21 -->
<g id="edge27" class="edge"><title>Node7&#45;&gt;Node21</title>
<path fill="none" stroke="midnightblue" d="M790.997,-180.444C822.185,-171.241 871.93,-156.562 906.408,-146.388"/>
<polygon fill="midnightblue" stroke="midnightblue" points="907.538,-149.704 916.139,-143.516 905.557,-142.99 907.538,-149.704"/>
</g>
<!-- Node26 -->
<g id="node26" class="node"><title>Node26</title>
<g id="a_node26"><a xlink:href="typedefs_8h_source.html" target="_top" xlink:title="libmints/typedefs.h">
<polygon fill="none" stroke="black" points="794.5,-124.5 794.5,-143.5 893.5,-143.5 893.5,-124.5 794.5,-124.5"/>
<text text-anchor="middle" x="844" y="-131.5" font-family="Helvetica,sans-Serif" font-size="10.00">libmints/typedefs.h</text>
</a>
</g>
</g>
<!-- Node7&#45;&gt;Node26 -->
<g id="edge33" class="edge"><title>Node7&#45;&gt;Node26</title>
<path fill="none" stroke="midnightblue" d="M775.175,-180.324C787.847,-171.979 807.233,-159.212 822.206,-149.352"/>
<polygon fill="midnightblue" stroke="midnightblue" points="824.431,-152.078 830.858,-143.655 820.581,-146.231 824.431,-152.078"/>
</g>
<!-- Node12&#45;&gt;Node5 -->
<g id="edge13" class="edge"><title>Node12&#45;&gt;Node5</title>
<path fill="none" stroke="midnightblue" d="M410.171,-130.663C479.986,-126.579 594.906,-115.744 626,-88 642.417,-73.3521 646.944,-47.3901 648.007,-29.6992"/>
<polygon fill="midnightblue" stroke="midnightblue" points="651.506,-29.7962 648.297,-19.699 644.509,-29.5934 651.506,-29.7962"/>
</g>
<!-- Node13 -->
<g id="node13" class="node"><title>Node13</title>
<polygon fill="none" stroke="#bfbfbf" points="470,-0.5 470,-19.5 514,-19.5 514,-0.5 470,-0.5"/>
<text text-anchor="middle" x="492" y="-7.5" font-family="Helvetica,sans-Serif" font-size="10.00">vector</text>
</g>
<!-- Node12&#45;&gt;Node13 -->
<g id="edge14" class="edge"><title>Node12&#45;&gt;Node13</title>
<path fill="none" stroke="midnightblue" d="M299.861,-124.42C278.402,-118.092 255.908,-107.098 243,-88 235.036,-76.2169 233.881,-66.9143 243,-56 270.234,-23.4024 398.418,-14.3749 459.489,-11.909"/>
<polygon fill="midnightblue" stroke="midnightblue" points="459.863,-15.3977 469.728,-11.5321 459.606,-8.40239 459.863,-15.3977"/>
</g>
<!-- Node12&#45;&gt;Node11 -->
<g id="edge15" class="edge"><title>Node12&#45;&gt;Node11</title>
<path fill="none" stroke="midnightblue" d="M299.788,-127.136C252.361,-120.945 182.71,-109.076 125,-88 123.583,-87.4826 122.152,-86.8979 120.727,-86.2669"/>
<polygon fill="midnightblue" stroke="midnightblue" points="122.119,-83.049 111.617,-81.6534 118.957,-89.2939 122.119,-83.049"/>
</g>
<!-- Node14 -->
<g id="node14" class="node"><title>Node14</title>
<polygon fill="none" stroke="#bfbfbf" points="372.5,-62.5 372.5,-81.5 439.5,-81.5 439.5,-62.5 372.5,-62.5"/>
<text text-anchor="middle" x="406" y="-69.5" font-family="Helvetica,sans-Serif" font-size="10.00">exception.h</text>
</g>
<!-- Node12&#45;&gt;Node14 -->
<g id="edge16" class="edge"><title>Node12&#45;&gt;Node14</title>
<path fill="none" stroke="midnightblue" d="M362.307,-124.403C370.033,-115.314 382.408,-100.756 392.018,-89.4489"/>
<polygon fill="midnightblue" stroke="midnightblue" points="394.897,-91.4668 398.706,-81.5806 389.563,-86.9332 394.897,-91.4668"/>
</g>
<!-- Node15 -->
<g id="node15" class="node"><title>Node15</title>
<g id="a_node15"><a xlink:href="libutil_8h_source.html" target="_top" xlink:title="libutil/libutil.h">
<polygon fill="none" stroke="black" points="544.5,-62.5 544.5,-81.5 617.5,-81.5 617.5,-62.5 544.5,-62.5"/>
<text text-anchor="middle" x="581" y="-69.5" font-family="Helvetica,sans-Serif" font-size="10.00">libutil/libutil.h</text>
</a>
</g>
</g>
<!-- Node12&#45;&gt;Node15 -->
<g id="edge17" class="edge"><title>Node12&#45;&gt;Node15</title>
<path fill="none" stroke="midnightblue" d="M392.436,-124.451C428.987,-115.914 486.089,-102.07 535,-88 538.602,-86.9637 542.347,-85.833 546.074,-84.6721"/>
<polygon fill="midnightblue" stroke="midnightblue" points="547.327,-87.9462 555.791,-81.5732 545.2,-81.2771 547.327,-87.9462"/>
</g>
<!-- Node17 -->
<g id="node17" class="node"><title>Node17</title>
<g id="a_node17"><a xlink:href="libutil_2ref_8h_source.html" target="_top" xlink:title="libutil/ref.h">
<polygon fill="none" stroke="black" points="134,-62.5 134,-81.5 196,-81.5 196,-62.5 134,-62.5"/>
<text text-anchor="middle" x="165" y="-69.5" font-family="Helvetica,sans-Serif" font-size="10.00">libutil/ref.h</text>
</a>
</g>
</g>
<!-- Node12&#45;&gt;Node17 -->
<g id="edge21" class="edge"><title>Node12&#45;&gt;Node17</title>
<path fill="none" stroke="midnightblue" d="M326.877,-124.462C297.624,-115.536 250.522,-101.04 210,-88 206.685,-86.9334 203.238,-85.8099 199.793,-84.6775"/>
<polygon fill="midnightblue" stroke="midnightblue" points="200.791,-81.3213 190.198,-81.502 198.592,-87.9668 200.791,-81.3213"/>
</g>
<!-- Node20 -->
<g id="node20" class="node"><title>Node20</title>
<polygon fill="none" stroke="#bfbfbf" points="252,-57 252,-87 354,-87 354,-57 252,-57"/>
<text text-anchor="start" x="260" y="-75" font-family="Helvetica,sans-Serif" font-size="10.00">boost/python/object</text>
<text text-anchor="middle" x="303" y="-64" font-family="Helvetica,sans-Serif" font-size="10.00">_fwd.hpp</text>
</g>
<!-- Node12&#45;&gt;Node20 -->
<g id="edge26" class="edge"><title>Node12&#45;&gt;Node20</title>
<path fill="none" stroke="midnightblue" d="M347.55,-124.403C340.902,-116.733 330.878,-105.167 322.021,-94.9478"/>
<polygon fill="midnightblue" stroke="midnightblue" points="324.45,-92.4055 315.255,-87.1408 319.16,-96.99 324.45,-92.4055"/>
</g>
<!-- Node15&#45;&gt;Node5 -->
<g id="edge18" class="edge"><title>Node15&#45;&gt;Node5</title>
<path fill="none" stroke="midnightblue" d="M590.599,-62.4035C601.048,-53.047 617.968,-37.8948 630.736,-26.4599"/>
<polygon fill="midnightblue" stroke="midnightblue" points="633.304,-28.8592 638.418,-19.5806 628.634,-23.6445 633.304,-28.8592"/>
</g>
<!-- Node15&#45;&gt;Node13 -->
<g id="edge19" class="edge"><title>Node15&#45;&gt;Node13</title>
<path fill="none" stroke="midnightblue" d="M568.248,-62.4035C553.973,-52.7797 530.603,-37.0242 513.492,-25.4891"/>
<polygon fill="midnightblue" stroke="midnightblue" points="514.976,-22.2684 504.728,-19.5806 511.063,-28.0727 514.976,-22.2684"/>
</g>
<!-- Node16 -->
<g id="node16" class="node"><title>Node16</title>
<polygon fill="none" stroke="#bfbfbf" points="547,-0.5 547,-19.5 609,-19.5 609,-0.5 547,-0.5"/>
<text text-anchor="middle" x="578" y="-7.5" font-family="Helvetica,sans-Serif" font-size="10.00">sys/time.h</text>
</g>
<!-- Node15&#45;&gt;Node16 -->
<g id="edge20" class="edge"><title>Node15&#45;&gt;Node16</title>
<path fill="none" stroke="midnightblue" d="M580.57,-62.4035C580.147,-53.9381 579.486,-40.7283 578.941,-29.8199"/>
<polygon fill="midnightblue" stroke="midnightblue" points="582.424,-29.3933 578.429,-19.5806 575.433,-29.7429 582.424,-29.3933"/>
</g>
<!-- Node18 -->
<g id="node18" class="node"><title>Node18</title>
<polygon fill="none" stroke="#bfbfbf" points="71.5,-0.5 71.5,-19.5 120.5,-19.5 120.5,-0.5 71.5,-0.5"/>
<text text-anchor="middle" x="96" y="-7.5" font-family="Helvetica,sans-Serif" font-size="10.00">cstddef</text>
</g>
<!-- Node17&#45;&gt;Node18 -->
<g id="edge22" class="edge"><title>Node17&#45;&gt;Node18</title>
<path fill="none" stroke="midnightblue" d="M155.114,-62.4035C144.354,-53.047 126.929,-37.8948 113.779,-26.4599"/>
<polygon fill="midnightblue" stroke="midnightblue" points="115.71,-23.5013 105.868,-19.5806 111.117,-28.7835 115.71,-23.5013"/>
</g>
<!-- Node17&#45;&gt;Node2 -->
<g id="edge23" class="edge"><title>Node17&#45;&gt;Node2</title>
<path fill="none" stroke="midnightblue" d="M174.456,-62.4035C184.748,-53.047 201.416,-37.8948 213.994,-26.4599"/>
<polygon fill="midnightblue" stroke="midnightblue" points="216.516,-28.8971 221.561,-19.5806 211.808,-23.7176 216.516,-28.8971"/>
</g>
<!-- Node17&#45;&gt;Node3 -->
<g id="edge24" class="edge"><title>Node17&#45;&gt;Node3</title>
<path fill="none" stroke="midnightblue" d="M144.512,-62.4035C120.194,-52.2004 79.4514,-35.1055 51.6831,-23.4544"/>
<polygon fill="midnightblue" stroke="midnightblue" points="53.0258,-20.2223 42.4504,-19.5806 50.3174,-26.6771 53.0258,-20.2223"/>
</g>
<!-- Node19 -->
<g id="node19" class="node"><title>Node19</title>
<polygon fill="none" stroke="#bfbfbf" points="139,-0.5 139,-19.5 191,-19.5 191,-0.5 139,-0.5"/>
<text text-anchor="middle" x="165" y="-7.5" font-family="Helvetica,sans-Serif" font-size="10.00">assert.h</text>
</g>
<!-- Node17&#45;&gt;Node19 -->
<g id="edge25" class="edge"><title>Node17&#45;&gt;Node19</title>
<path fill="none" stroke="midnightblue" d="M165,-62.4035C165,-53.9381 165,-40.7283 165,-29.8199"/>
<polygon fill="midnightblue" stroke="midnightblue" points="168.5,-29.5806 165,-19.5806 161.5,-29.5806 168.5,-29.5806"/>
</g>
<!-- Node22 -->
<g id="node22" class="node"><title>Node22</title>
<polygon fill="none" stroke="#bfbfbf" points="904.5,-62.5 904.5,-81.5 963.5,-81.5 963.5,-62.5 904.5,-62.5"/>
<text text-anchor="middle" x="934" y="-69.5" font-family="Helvetica,sans-Serif" font-size="10.00">exception</text>
</g>
<!-- Node21&#45;&gt;Node22 -->
<g id="edge28" class="edge"><title>Node21&#45;&gt;Node22</title>
<path fill="none" stroke="midnightblue" d="M943.424,-124.403C941.856,-115.849 939.399,-102.45 937.387,-91.4762"/>
<polygon fill="midnightblue" stroke="midnightblue" points="940.819,-90.7855 935.573,-81.5806 933.934,-92.0478 940.819,-90.7855"/>
</g>
<!-- Node23 -->
<g id="node23" class="node"><title>Node23</title>
<polygon fill="none" stroke="#bfbfbf" points="981.5,-62.5 981.5,-81.5 1040.5,-81.5 1040.5,-62.5 981.5,-62.5"/>
<text text-anchor="middle" x="1011" y="-69.5" font-family="Helvetica,sans-Serif" font-size="10.00">stdexcept</text>
</g>
<!-- Node21&#45;&gt;Node23 -->
<g id="edge29" class="edge"><title>Node21&#45;&gt;Node23</title>
<path fill="none" stroke="midnightblue" d="M954.456,-124.403C964.748,-115.047 981.416,-99.8948 993.994,-88.4599"/>
<polygon fill="midnightblue" stroke="midnightblue" points="996.516,-90.8971 1001.56,-81.5806 991.808,-85.7176 996.516,-90.8971"/>
</g>
<!-- Node24 -->
<g id="node24" class="node"><title>Node24</title>
<polygon fill="none" stroke="#bfbfbf" points="1059,-62.5 1059,-81.5 1111,-81.5 1111,-62.5 1059,-62.5"/>
<text text-anchor="middle" x="1085" y="-69.5" font-family="Helvetica,sans-Serif" font-size="10.00">sstream</text>
</g>
<!-- Node21&#45;&gt;Node24 -->
<g id="edge30" class="edge"><title>Node21&#45;&gt;Node24</title>
<path fill="none" stroke="midnightblue" d="M965.059,-124.403C988.762,-114.245 1028.41,-97.2547 1055.58,-85.6074"/>
<polygon fill="midnightblue" stroke="midnightblue" points="1057.17,-88.7369 1064.98,-81.5806 1054.41,-82.3028 1057.17,-88.7369"/>
</g>
<!-- Node25 -->
<g id="node25" class="node"><title>Node25</title>
<polygon fill="none" stroke="#bfbfbf" points="1129.5,-62.5 1129.5,-81.5 1178.5,-81.5 1178.5,-62.5 1129.5,-62.5"/>
<text text-anchor="middle" x="1154" y="-69.5" font-family="Helvetica,sans-Serif" font-size="10.00">string.h</text>
</g>
<!-- Node21&#45;&gt;Node25 -->
<g id="edge31" class="edge"><title>Node21&#45;&gt;Node25</title>
<path fill="none" stroke="midnightblue" d="M978.683,-125.035C1021.81,-114.716 1094.06,-96.9879 1120,-88 1122.13,-87.2619 1124.31,-86.4459 1126.49,-85.587"/>
<polygon fill="midnightblue" stroke="midnightblue" points="1128,-88.7499 1135.87,-81.6554 1125.29,-82.2943 1128,-88.7499"/>
</g>
<!-- Node21&#45;&gt;Node9 -->
<g id="edge32" class="edge"><title>Node21&#45;&gt;Node9</title>
<path fill="none" stroke="midnightblue" d="M915.628,-124.403C879.703,-113.889 818.768,-96.0539 778.956,-84.4016"/>
<polygon fill="midnightblue" stroke="midnightblue" points="779.898,-81.0306 769.317,-81.5806 777.931,-87.7487 779.898,-81.0306"/>
</g>
<!-- Node27 -->
<g id="node27" class="node"><title>Node27</title>
<g id="a_node27"><a xlink:href="compiler_8h_source.html" target="_top" xlink:title="compiler.h">
<polygon fill="none" stroke="black" points="824,-62.5 824,-81.5 886,-81.5 886,-62.5 824,-62.5"/>
<text text-anchor="middle" x="855" y="-69.5" font-family="Helvetica,sans-Serif" font-size="10.00">compiler.h</text>
</a>
</g>
</g>
<!-- Node26&#45;&gt;Node27 -->
<g id="edge34" class="edge"><title>Node26&#45;&gt;Node27</title>
<path fill="none" stroke="midnightblue" d="M845.576,-124.403C847.144,-115.849 849.601,-102.45 851.613,-91.4762"/>
<polygon fill="midnightblue" stroke="midnightblue" points="855.066,-92.0478 853.427,-81.5806 848.181,-90.7855 855.066,-92.0478"/>
</g>
<!-- Node29 -->
<g id="node29" class="node"><title>Node29</title>
<g id="a_node29"><a xlink:href="dimension_8h_source.html" target="_top" xlink:title="dimension.h">
<polygon fill="none" stroke="black" points="457.5,-62.5 457.5,-81.5 526.5,-81.5 526.5,-62.5 457.5,-62.5"/>
<text text-anchor="middle" x="492" y="-69.5" font-family="Helvetica,sans-Serif" font-size="10.00">dimension.h</text>
</a>
</g>
</g>
<!-- Node26&#45;&gt;Node29 -->
<g id="edge36" class="edge"><title>Node26&#45;&gt;Node29</title>
<path fill="none" stroke="midnightblue" d="M794.43,-125.408C791.239,-124.929 788.075,-124.456 785,-124 673.957,-107.536 644.058,-114.611 535,-88 531.327,-87.1039 527.527,-86.0193 523.774,-84.8478"/>
<polygon fill="midnightblue" stroke="midnightblue" points="524.666,-81.456 514.073,-81.614 522.453,-88.0968 524.666,-81.456"/>
</g>
<!-- Node28 -->
<g id="node28" class="node"><title>Node28</title>
<polygon fill="none" stroke="#bfbfbf" points="823,-0.5 823,-19.5 887,-19.5 887,-0.5 823,-0.5"/>
<text text-anchor="middle" x="855" y="-7.5" font-family="Helvetica,sans-Serif" font-size="10.00">psiconfig.h</text>
</g>
<!-- Node27&#45;&gt;Node28 -->
<g id="edge35" class="edge"><title>Node27&#45;&gt;Node28</title>
<path fill="none" stroke="midnightblue" d="M855,-62.4035C855,-53.9381 855,-40.7283 855,-29.8199"/>
<polygon fill="midnightblue" stroke="midnightblue" points="858.5,-29.5806 855,-19.5806 851.5,-29.5806 858.5,-29.5806"/>
</g>
<!-- Node29&#45;&gt;Node5 -->
<g id="edge37" class="edge"><title>Node29&#45;&gt;Node5</title>
<path fill="none" stroke="midnightblue" d="M514.351,-62.4035C541.449,-51.9812 587.244,-34.3677 617.551,-22.7111"/>
<polygon fill="midnightblue" stroke="midnightblue" points="619.109,-25.8619 627.186,-19.0053 616.596,-19.3285 619.109,-25.8619"/>
</g>
<!-- Node29&#45;&gt;Node2 -->
<g id="edge38" class="edge"><title>Node29&#45;&gt;Node2</title>
<path fill="none" stroke="midnightblue" d="M468.418,-62.3594C461.858,-60.1206 454.696,-57.828 448,-56 382.988,-38.2511 305.353,-23.7238 262.804,-16.3186"/>
<polygon fill="midnightblue" stroke="midnightblue" points="263.22,-12.8388 252.771,-14.5917 262.032,-19.7374 263.22,-12.8388"/>
</g>
<!-- Node29&#45;&gt;Node13 -->
<g id="edge39" class="edge"><title>Node29&#45;&gt;Node13</title>
<path fill="none" stroke="midnightblue" d="M492,-62.4035C492,-53.9381 492,-40.7283 492,-29.8199"/>
<polygon fill="midnightblue" stroke="midnightblue" points="495.5,-29.5806 492,-19.5806 488.5,-29.5806 495.5,-29.5806"/>
</g>
</g>
</svg>
