<?xml version="1.0" encoding="UTF-8" standalone="no"?>
<!DOCTYPE svg PUBLIC "-//W3C//DTD SVG 1.1//EN"
 "http://www.w3.org/Graphics/SVG/1.1/DTD/svg11.dtd">
<!-- Generated by graphviz version 2.30.1 (20140110.0959)
 -->
<!-- Title: cc2_Wabei.cc Pages: 1 -->
<!--zoomable 320 -->
<svg id="main" version="1.1" xmlns="http://www.w3.org/2000/svg" xmlns:xlink="http://www.w3.org/1999/xlink" xml:space="preserve" onload="init(evt)">
        <defs>
                <circle id="rim" cx="0" cy="0" r="7"/>
                <circle id="rim2" cx="0" cy="0" r="3.5"/>
                <g id="zoomPlus">
                        <use xlink:href="#rim" fill="#404040">
                                <set attributeName="fill" to="#808080" begin="zoomplus.mouseover" end="zoomplus.mouseout"/>
                        </use>
                        <path d="M-4,0h8M0,-4v8" fill="none" stroke="white" stroke-width="1.5" pointer-events="none"/>
                </g>
                <g id="zoomMin">
                        <use xlink:href="#rim" fill="#404040">
                                <set attributeName="fill" to="#808080" begin="zoomminus.mouseover" end="zoomminus.mouseout"/>
                        </use>
                        <path d="M-4,0h8" fill="none" stroke="white" stroke-width="1.5" pointer-events="none"/>
                </g>
                <g id="dirArrow">
                        <path fill="none" stroke="white" stroke-width="1.5" d="M0,-3.0v7 M-2.5,-0.5L0,-3.0L2.5,-0.5"/>
                </g>
               <g id="resetDef">
                       <use xlink:href="#rim2" fill="#404040">
                               <set attributeName="fill" to="#808080" begin="reset.mouseover" end="reset.mouseout"/>
                       </use>
               </g>
        </defs>

<script type="text/javascript">
var viewWidth = 1452;
var viewHeight = 320;
var sectionId = 'dynsection-0';
</script>
<script xlink:href="svgpan.js"/>
<svg id="graph" class="graph">
<g id="viewport">
<title>cc2_Wabei.cc</title>
<!-- Node1 -->
<g id="node1" class="node"><title>Node1</title>
<polygon fill="#bfbfbf" stroke="black" points="387.5,-292.5 387.5,-311.5 466.5,-311.5 466.5,-292.5 387.5,-292.5"/>
<text text-anchor="middle" x="427" y="-299.5" font-family="Helvetica,sans-Serif" font-size="10.00">cc2_Wabei.cc</text>
</g>
<!-- Node2 -->
<g id="node2" class="node"><title>Node2</title>
<g id="a_node2"><a xlink:href="lib_2libdpd_2dpd_8h.html" target="_top" xlink:title="Enter brief description of file here.">
<polygon fill="none" stroke="black" points="329.5,-180.5 329.5,-199.5 398.5,-199.5 398.5,-180.5 329.5,-180.5"/>
<text text-anchor="middle" x="364" y="-187.5" font-family="Helvetica,sans-Serif" font-size="10.00">libdpd/dpd.h</text>
</a>
</g>
</g>
<!-- Node1&#45;&gt;Node2 -->
<g id="edge1" class="edge"><title>Node1&#45;&gt;Node2</title>
<path fill="none" stroke="midnightblue" d="M418.463,-292.312C410.325,-283.671 398.138,-269.753 390,-256 381.209,-241.144 374.169,-222.764 369.644,-209.344"/>
<polygon fill="midnightblue" stroke="midnightblue" points="372.969,-208.25 366.568,-199.807 366.306,-210.398 372.969,-208.25"/>
</g>
<!-- Node8 -->
<g id="node8" class="node"><title>Node8</title>
<g id="a_node8"><a xlink:href="qt_8h.html" target="_top" xlink:title="Header file for the Quantum Trio LibraryDavid Sherrill 1994.">
<polygon fill="none" stroke="black" points="278,-62.5 278,-81.5 332,-81.5 332,-62.5 278,-62.5"/>
<text text-anchor="middle" x="305" y="-69.5" font-family="Helvetica,sans-Serif" font-size="10.00">libqt/qt.h</text>
</a>
</g>
</g>
<!-- Node1&#45;&gt;Node8 -->
<g id="edge7" class="edge"><title>Node1&#45;&gt;Node8</title>
<path fill="none" stroke="midnightblue" d="M409.383,-292.494C370.831,-272.756 279.667,-219.688 245,-144 234.638,-121.377 258.522,-100.25 279.16,-87.0237"/>
<polygon fill="midnightblue" stroke="midnightblue" points="281.237,-89.8579 287.987,-81.6915 277.618,-83.8663 281.237,-89.8579"/>
</g>
<!-- Node10 -->
<g id="node10" class="node"><title>Node10</title>
<g id="a_node10"><a xlink:href="ccenergy_2Params_8h.html" target="_top" xlink:title="Enter brief description of file here.">
<polygon fill="none" stroke="black" points="473.5,-236.5 473.5,-255.5 532.5,-255.5 532.5,-236.5 473.5,-236.5"/>
<text text-anchor="middle" x="503" y="-243.5" font-family="Helvetica,sans-Serif" font-size="10.00">Params.h</text>
</a>
</g>
</g>
<!-- Node1&#45;&gt;Node10 -->
<g id="edge10" class="edge"><title>Node1&#45;&gt;Node10</title>
<path fill="none" stroke="midnightblue" d="M439.211,-292.324C450.776,-284.107 468.375,-271.602 482.161,-261.807"/>
<polygon fill="midnightblue" stroke="midnightblue" points="484.443,-264.479 490.567,-255.834 480.388,-258.773 484.443,-264.479"/>
</g>
<!-- Node11 -->
<g id="node11" class="node"><title>Node11</title>
<g id="a_node11"><a xlink:href="ccenergy_2MOInfo_8h.html" target="_top" xlink:title="Enter brief description of file here.">
<polygon fill="none" stroke="black" points="550.5,-236.5 550.5,-255.5 607.5,-255.5 607.5,-236.5 550.5,-236.5"/>
<text text-anchor="middle" x="579" y="-243.5" font-family="Helvetica,sans-Serif" font-size="10.00">MOInfo.h</text>
</a>
</g>
</g>
<!-- Node1&#45;&gt;Node11 -->
<g id="edge12" class="edge"><title>Node1&#45;&gt;Node11</title>
<path fill="none" stroke="midnightblue" d="M451.085,-292.444C476.545,-283.399 516.894,-269.064 545.459,-258.916"/>
<polygon fill="midnightblue" stroke="midnightblue" points="546.777,-262.162 555.028,-255.516 544.433,-255.566 546.777,-262.162"/>
</g>
<!-- Node12 -->
<g id="node12" class="node"><title>Node12</title>
<g id="a_node12"><a xlink:href="ccenergy_2globals_8h.html" target="_top" xlink:title="Enter brief description of file here.">
<polygon fill="none" stroke="black" points="399,-236.5 399,-255.5 455,-255.5 455,-236.5 399,-236.5"/>
<text text-anchor="middle" x="427" y="-243.5" font-family="Helvetica,sans-Serif" font-size="10.00">globals.h</text>
</a>
</g>
</g>
<!-- Node1&#45;&gt;Node12 -->
<g id="edge13" class="edge"><title>Node1&#45;&gt;Node12</title>
<path fill="none" stroke="midnightblue" d="M427,-292.083C427,-285.006 427,-274.861 427,-265.986"/>
<polygon fill="midnightblue" stroke="midnightblue" points="430.5,-265.751 427,-255.751 423.5,-265.751 430.5,-265.751"/>
</g>
<!-- Node3 -->
<g id="node3" class="node"><title>Node3</title>
<polygon fill="none" stroke="#bfbfbf" points="283.5,-0.5 283.5,-19.5 326.5,-19.5 326.5,-0.5 283.5,-0.5"/>
<text text-anchor="middle" x="305" y="-7.5" font-family="Helvetica,sans-Serif" font-size="10.00">cstdio</text>
</g>
<!-- Node2&#45;&gt;Node3 -->
<g id="edge2" class="edge"><title>Node2&#45;&gt;Node3</title>
<path fill="none" stroke="midnightblue" d="M329.376,-186.263C301.452,-182.022 263.834,-171.257 245,-144 218.248,-105.283 261.923,-52.7156 287.896,-26.7911"/>
<polygon fill="midnightblue" stroke="midnightblue" points="290.531,-29.1115 295.29,-19.6457 285.667,-24.0777 290.531,-29.1115"/>
</g>
<!-- Node4 -->
<g id="node4" class="node"><title>Node4</title>
<g id="a_node4"><a xlink:href="psifiles_8h_source.html" target="_top" xlink:title="psifiles.h">
<polygon fill="none" stroke="black" points="392,-124.5 392,-143.5 448,-143.5 448,-124.5 392,-124.5"/>
<text text-anchor="middle" x="420" y="-131.5" font-family="Helvetica,sans-Serif" font-size="10.00">psifiles.h</text>
</a>
</g>
</g>
<!-- Node2&#45;&gt;Node4 -->
<g id="edge3" class="edge"><title>Node2&#45;&gt;Node4</title>
<path fill="none" stroke="midnightblue" d="M372.997,-180.324C381.194,-172.42 393.506,-160.548 403.472,-150.938"/>
<polygon fill="midnightblue" stroke="midnightblue" points="406.07,-153.295 410.839,-143.834 401.211,-148.256 406.07,-153.295"/>
</g>
<!-- Node5 -->
<g id="node5" class="node"><title>Node5</title>
<g id="a_node5"><a xlink:href="libpsio_2config_8h_source.html" target="_top" xlink:title="libpsio/config.h">
<polygon fill="none" stroke="black" points="254,-124.5 254,-143.5 336,-143.5 336,-124.5 254,-124.5"/>
<text text-anchor="middle" x="295" y="-131.5" font-family="Helvetica,sans-Serif" font-size="10.00">libpsio/config.h</text>
</a>
</g>
</g>
<!-- Node2&#45;&gt;Node5 -->
<g id="edge4" class="edge"><title>Node2&#45;&gt;Node5</title>
<path fill="none" stroke="midnightblue" d="M352.914,-180.324C342.514,-172.185 326.739,-159.839 314.278,-150.087"/>
<polygon fill="midnightblue" stroke="midnightblue" points="316.32,-147.241 306.288,-143.834 312.006,-152.753 316.32,-147.241"/>
</g>
<!-- Node6 -->
<g id="node6" class="node"><title>Node6</title>
<polygon fill="none" stroke="#bfbfbf" points="466,-124.5 466,-143.5 574,-143.5 574,-124.5 466,-124.5"/>
<text text-anchor="middle" x="520" y="-131.5" font-family="Helvetica,sans-Serif" font-size="10.00">boost/shared_ptr.hpp</text>
</g>
<!-- Node2&#45;&gt;Node6 -->
<g id="edge5" class="edge"><title>Node2&#45;&gt;Node6</title>
<path fill="none" stroke="midnightblue" d="M388.719,-180.444C414.848,-171.399 456.259,-157.064 485.576,-146.916"/>
<polygon fill="midnightblue" stroke="midnightblue" points="487.092,-150.095 495.397,-143.516 484.802,-143.48 487.092,-150.095"/>
</g>
<!-- Node7 -->
<g id="node7" class="node"><title>Node7</title>
<polygon fill="none" stroke="#bfbfbf" points="536,-0.5 536,-19.5 580,-19.5 580,-0.5 536,-0.5"/>
<text text-anchor="middle" x="558" y="-7.5" font-family="Helvetica,sans-Serif" font-size="10.00">vector</text>
</g>
<!-- Node2&#45;&gt;Node7 -->
<g id="edge6" class="edge"><title>Node2&#45;&gt;Node7</title>
<path fill="none" stroke="midnightblue" d="M362.281,-180.2C358.245,-156.725 350.784,-91.9625 383,-56 401.797,-35.0173 480.354,-21.3273 525.568,-15.0249"/>
<polygon fill="midnightblue" stroke="midnightblue" points="526.308,-18.4568 535.751,-13.6517 525.373,-11.5196 526.308,-18.4568"/>
</g>
<!-- Node8&#45;&gt;Node3 -->
<g id="edge8" class="edge"><title>Node8&#45;&gt;Node3</title>
<path fill="none" stroke="midnightblue" d="M305,-62.4035C305,-53.9381 305,-40.7283 305,-29.8199"/>
<polygon fill="midnightblue" stroke="midnightblue" points="308.5,-29.5806 305,-19.5806 301.5,-29.5806 308.5,-29.5806"/>
</g>
<!-- Node9 -->
<g id="node9" class="node"><title>Node9</title>
<polygon fill="none" stroke="#bfbfbf" points="806.5,-0.5 806.5,-19.5 847.5,-19.5 847.5,-0.5 806.5,-0.5"/>
<text text-anchor="middle" x="827" y="-7.5" font-family="Helvetica,sans-Serif" font-size="10.00">string</text>
</g>
<!-- Node8&#45;&gt;Node9 -->
<g id="edge9" class="edge"><title>Node8&#45;&gt;Node9</title>
<path fill="none" stroke="midnightblue" d="M332.319,-65.0296C347.235,-61.9514 366.064,-58.3584 383,-56 562.714,-30.9743 613.811,-53.8824 796.544,-19.6524"/>
<polygon fill="midnightblue" stroke="midnightblue" points="797.313,-23.069 806.481,-17.7595 796.003,-16.1927 797.313,-23.069"/>
</g>
<!-- Node10&#45;&gt;Node9 -->
<g id="edge11" class="edge"><title>Node10&#45;&gt;Node9</title>
<path fill="none" stroke="midnightblue" d="M532.769,-237.381C535.539,-236.845 538.314,-236.37 541,-236 588.922,-229.395 1377.51,-234.906 1411,-200 1455.31,-153.819 1454.48,-102.961 1411,-56 1373.19,-15.1592 972.908,-11.2611 857.8,-10.9884"/>
<polygon fill="midnightblue" stroke="midnightblue" points="857.578,-7.48817 847.572,-10.9722 857.567,-14.4882 857.578,-7.48817"/>
</g>
<!-- Node12&#45;&gt;Node4 -->
<g id="edge14" class="edge"><title>Node12&#45;&gt;Node4</title>
<path fill="none" stroke="midnightblue" d="M426.451,-236.368C425.321,-218.617 422.715,-177.666 421.183,-153.597"/>
<polygon fill="midnightblue" stroke="midnightblue" points="424.675,-153.349 420.547,-143.591 417.689,-153.794 424.675,-153.349"/>
</g>
<!-- Node13 -->
<g id="node13" class="node"><title>Node13</title>
<g id="a_node13"><a xlink:href="psi4-dec_8h_source.html" target="_top" xlink:title="psi4&#45;dec.h">
<polygon fill="none" stroke="black" points="822,-180.5 822,-199.5 884,-199.5 884,-180.5 822,-180.5"/>
<text text-anchor="middle" x="853" y="-187.5" font-family="Helvetica,sans-Serif" font-size="10.00">psi4&#45;dec.h</text>
</a>
</g>
</g>
<!-- Node12&#45;&gt;Node13 -->
<g id="edge15" class="edge"><title>Node12&#45;&gt;Node13</title>
<path fill="none" stroke="midnightblue" d="M455.206,-237.759C458.164,-237.114 461.137,-236.512 464,-236 589.562,-213.555 740.019,-199.839 811.439,-194.113"/>
<polygon fill="midnightblue" stroke="midnightblue" points="812.106,-197.571 821.799,-193.294 811.554,-190.593 812.106,-197.571"/>
</g>
<!-- Node12&#45;&gt;Node9 -->
<g id="edge49" class="edge"><title>Node12&#45;&gt;Node9</title>
<path fill="none" stroke="midnightblue" d="M455.19,-237.667C458.152,-237.039 461.129,-236.467 464,-236 802.883,-180.906 901.837,-241.617 1231,-144 1290.53,-126.345 1325.01,-139.968 1359,-88 1366.78,-76.0974 1368.62,-66.4719 1359,-56 1324.97,-18.9673 966.228,-12.3827 857.841,-11.2363"/>
<polygon fill="midnightblue" stroke="midnightblue" points="857.617,-7.73408 847.583,-11.1364 857.549,-14.7337 857.617,-7.73408"/>
</g>
<!-- Node35 -->
<g id="node35" class="node"><title>Node35</title>
<g id="a_node35"><a xlink:href="libciomr_8h_source.html" target="_top" xlink:title="libciomr/libciomr.h">
<polygon fill="none" stroke="black" points="31.5,-180.5 31.5,-199.5 126.5,-199.5 126.5,-180.5 31.5,-180.5"/>
<text text-anchor="middle" x="79" y="-187.5" font-family="Helvetica,sans-Serif" font-size="10.00">libciomr/libciomr.h</text>
</a>
</g>
</g>
<!-- Node12&#45;&gt;Node35 -->
<g id="edge50" class="edge"><title>Node12&#45;&gt;Node35</title>
<path fill="none" stroke="midnightblue" d="M398.816,-240.627C341.945,-231.802 212.447,-211.707 136.832,-199.974"/>
<polygon fill="midnightblue" stroke="midnightblue" points="136.952,-196.451 126.533,-198.376 135.878,-203.368 136.952,-196.451"/>
</g>
<!-- Node13&#45;&gt;Node6 -->
<g id="edge16" class="edge"><title>Node13&#45;&gt;Node6</title>
<path fill="none" stroke="midnightblue" d="M821.971,-183.968C767.571,-175.147 654,-156.73 582.692,-145.166"/>
<polygon fill="midnightblue" stroke="midnightblue" points="582.922,-141.658 572.49,-143.512 581.801,-148.568 582.922,-141.658"/>
</g>
<!-- Node14 -->
<g id="node14" class="node"><title>Node14</title>
<polygon fill="none" stroke="#bfbfbf" points="907,-62.5 907,-81.5 1039,-81.5 1039,-62.5 907,-62.5"/>
<text text-anchor="middle" x="973" y="-69.5" font-family="Helvetica,sans-Serif" font-size="10.00">boost/current_function.hpp</text>
</g>
<!-- Node13&#45;&gt;Node14 -->
<g id="edge17" class="edge"><title>Node13&#45;&gt;Node14</title>
<path fill="none" stroke="midnightblue" d="M862.02,-180.281C882.185,-160.788 931.153,-113.452 956.771,-88.6879"/>
<polygon fill="midnightblue" stroke="midnightblue" points="959.445,-90.9715 964.202,-81.5048 954.579,-85.9386 959.445,-90.9715"/>
</g>
<!-- Node13&#45;&gt;Node9 -->
<g id="edge18" class="edge"><title>Node13&#45;&gt;Node9</title>
<path fill="none" stroke="midnightblue" d="M884.133,-186.04C939.782,-180.391 1059.78,-166.585 1159,-144 1245.83,-124.235 1399.15,-121.666 1339,-56 1306.41,-20.415 963.312,-12.8375 857.739,-11.3434"/>
<polygon fill="midnightblue" stroke="midnightblue" points="857.77,-7.84363 847.724,-11.2101 857.677,-14.843 857.77,-7.84363"/>
</g>
<!-- Node15 -->
<g id="node15" class="node"><title>Node15</title>
<polygon fill="none" stroke="#bfbfbf" points="838.5,-124.5 838.5,-143.5 867.5,-143.5 867.5,-124.5 838.5,-124.5"/>
<text text-anchor="middle" x="853" y="-131.5" font-family="Helvetica,sans-Serif" font-size="10.00">list</text>
</g>
<!-- Node13&#45;&gt;Node15 -->
<g id="edge19" class="edge"><title>Node13&#45;&gt;Node15</title>
<path fill="none" stroke="midnightblue" d="M853,-180.083C853,-173.006 853,-162.861 853,-153.986"/>
<polygon fill="midnightblue" stroke="midnightblue" points="856.5,-153.751 853,-143.751 849.5,-153.751 856.5,-153.751"/>
</g>
<!-- Node16 -->
<g id="node16" class="node"><title>Node16</title>
<polygon fill="none" stroke="#bfbfbf" points="853.5,-62.5 853.5,-81.5 888.5,-81.5 888.5,-62.5 853.5,-62.5"/>
<text text-anchor="middle" x="871" y="-69.5" font-family="Helvetica,sans-Serif" font-size="10.00">map</text>
</g>
<!-- Node13&#45;&gt;Node16 -->
<g id="edge20" class="edge"><title>Node13&#45;&gt;Node16</title>
<path fill="none" stroke="midnightblue" d="M859.105,-180.191C864.755,-171.46 872.755,-157.478 876,-144 880.154,-126.747 878.074,-106.508 875.447,-92.0624"/>
<polygon fill="midnightblue" stroke="midnightblue" points="878.793,-90.9653 873.331,-81.887 871.94,-92.3901 878.793,-90.9653"/>
</g>
<!-- Node17 -->
<g id="node17" class="node"><title>Node17</title>
<g id="a_node17"><a xlink:href="liboptions_8h_source.html" target="_top" xlink:title="liboptions/liboptions.h">
<polygon fill="none" stroke="black" points="710,-124.5 710,-143.5 820,-143.5 820,-124.5 710,-124.5"/>
<text text-anchor="middle" x="765" y="-131.5" font-family="Helvetica,sans-Serif" font-size="10.00">liboptions/liboptions.h</text>
</a>
</g>
</g>
<!-- Node13&#45;&gt;Node17 -->
<g id="edge21" class="edge"><title>Node13&#45;&gt;Node17</title>
<path fill="none" stroke="midnightblue" d="M838.861,-180.324C825.134,-171.9 804.064,-158.971 787.936,-149.074"/>
<polygon fill="midnightblue" stroke="midnightblue" points="789.457,-145.902 779.104,-143.655 785.796,-151.868 789.457,-145.902"/>
</g>
<!-- Node26 -->
<g id="node26" class="node"><title>Node26</title>
<g id="a_node26"><a xlink:href="include_2exception_8h_source.html" target="_top" xlink:title="exception.h">
<polygon fill="none" stroke="black" points="1083.5,-124.5 1083.5,-143.5 1150.5,-143.5 1150.5,-124.5 1083.5,-124.5"/>
<text text-anchor="middle" x="1117" y="-131.5" font-family="Helvetica,sans-Serif" font-size="10.00">exception.h</text>
</a>
</g>
</g>
<!-- Node13&#45;&gt;Node26 -->
<g id="edge36" class="edge"><title>Node13&#45;&gt;Node26</title>
<path fill="none" stroke="midnightblue" d="M884.06,-182.647C930.926,-173.061 1019.9,-154.861 1073.29,-143.941"/>
<polygon fill="midnightblue" stroke="midnightblue" points="1074.05,-147.357 1083.15,-141.924 1072.65,-140.499 1074.05,-147.357"/>
</g>
<!-- Node31 -->
<g id="node31" class="node"><title>Node31</title>
<g id="a_node31"><a xlink:href="typedefs_8h_source.html" target="_top" xlink:title="libmints/typedefs.h">
<polygon fill="none" stroke="black" points="592.5,-124.5 592.5,-143.5 691.5,-143.5 691.5,-124.5 592.5,-124.5"/>
<text text-anchor="middle" x="642" y="-131.5" font-family="Helvetica,sans-Serif" font-size="10.00">libmints/typedefs.h</text>
</a>
</g>
</g>
<!-- Node13&#45;&gt;Node31 -->
<g id="edge42" class="edge"><title>Node13&#45;&gt;Node31</title>
<path fill="none" stroke="midnightblue" d="M821.866,-181.032C785.724,-171.782 725.89,-156.469 685.247,-146.068"/>
<polygon fill="midnightblue" stroke="midnightblue" points="685.909,-142.625 675.354,-143.536 684.173,-149.406 685.909,-142.625"/>
</g>
<!-- Node17&#45;&gt;Node9 -->
<g id="edge22" class="edge"><title>Node17&#45;&gt;Node9</title>
<path fill="none" stroke="midnightblue" d="M774.947,-124.307C784.011,-115.875 797.147,-102.291 805,-88 815.129,-69.5671 820.969,-46.0304 824.053,-29.859"/>
<polygon fill="midnightblue" stroke="midnightblue" points="827.578,-30.0137 825.832,-19.5637 820.68,-28.8213 827.578,-30.0137"/>
</g>
<!-- Node17&#45;&gt;Node7 -->
<g id="edge23" class="edge"><title>Node17&#45;&gt;Node7</title>
<path fill="none" stroke="midnightblue" d="M755.051,-124.229C732.759,-104.6 680.406,-58.6339 676,-56 648.83,-39.7583 614.775,-27.5236 590.243,-19.942"/>
<polygon fill="midnightblue" stroke="midnightblue" points="590.944,-16.4983 580.36,-16.9795 588.934,-23.2035 590.944,-16.4983"/>
</g>
<!-- Node17&#45;&gt;Node16 -->
<g id="edge24" class="edge"><title>Node17&#45;&gt;Node16</title>
<path fill="none" stroke="midnightblue" d="M780.187,-124.403C797.662,-114.512 826.579,-98.1442 847.083,-86.5378"/>
<polygon fill="midnightblue" stroke="midnightblue" points="848.862,-89.5525 855.841,-81.5806 845.414,-83.4607 848.862,-89.5525"/>
</g>
<!-- Node18 -->
<g id="node18" class="node"><title>Node18</title>
<polygon fill="none" stroke="#bfbfbf" points="479.5,-62.5 479.5,-81.5 546.5,-81.5 546.5,-62.5 479.5,-62.5"/>
<text text-anchor="middle" x="513" y="-69.5" font-family="Helvetica,sans-Serif" font-size="10.00">exception.h</text>
</g>
<!-- Node17&#45;&gt;Node18 -->
<g id="edge25" class="edge"><title>Node17&#45;&gt;Node18</title>
<path fill="none" stroke="midnightblue" d="M717.277,-124.466C674.647,-116.432 610.672,-103.358 556,-88 552.625,-87.0518 549.128,-85.982 545.655,-84.8613"/>
<polygon fill="midnightblue" stroke="midnightblue" points="546.636,-81.4988 536.042,-81.6262 544.403,-88.1331 546.636,-81.4988"/>
</g>
<!-- Node19 -->
<g id="node19" class="node"><title>Node19</title>
<g id="a_node19"><a xlink:href="libutil_8h_source.html" target="_top" xlink:title="libutil/libutil.h">
<polygon fill="none" stroke="black" points="723.5,-62.5 723.5,-81.5 796.5,-81.5 796.5,-62.5 723.5,-62.5"/>
<text text-anchor="middle" x="760" y="-69.5" font-family="Helvetica,sans-Serif" font-size="10.00">libutil/libutil.h</text>
</a>
</g>
</g>
<!-- Node17&#45;&gt;Node19 -->
<g id="edge26" class="edge"><title>Node17&#45;&gt;Node19</title>
<path fill="none" stroke="midnightblue" d="M764.284,-124.403C763.578,-115.938 762.477,-102.728 761.568,-91.8199"/>
<polygon fill="midnightblue" stroke="midnightblue" points="765.034,-91.2554 760.715,-81.5806 758.058,-91.8367 765.034,-91.2554"/>
</g>
<!-- Node21 -->
<g id="node21" class="node"><title>Node21</title>
<g id="a_node21"><a xlink:href="libutil_2ref_8h_source.html" target="_top" xlink:title="libutil/ref.h">
<polygon fill="none" stroke="black" points="150,-62.5 150,-81.5 212,-81.5 212,-62.5 150,-62.5"/>
<text text-anchor="middle" x="181" y="-69.5" font-family="Helvetica,sans-Serif" font-size="10.00">libutil/ref.h</text>
</a>
</g>
</g>
<!-- Node17&#45;&gt;Node21 -->
<g id="edge30" class="edge"><title>Node17&#45;&gt;Node21</title>
<path fill="none" stroke="midnightblue" d="M709.707,-125.136C706.425,-124.734 703.17,-124.352 700,-124 508.949,-102.81 459.697,-112.172 269,-88 253.782,-86.0711 237.177,-83.3915 222.533,-80.83"/>
<polygon fill="midnightblue" stroke="midnightblue" points="222.723,-77.3088 212.264,-78.9982 221.493,-84.2 222.723,-77.3088"/>
</g>
<!-- Node25 -->
<g id="node25" class="node"><title>Node25</title>
<polygon fill="none" stroke="#bfbfbf" points="565,-57 565,-87 667,-87 667,-57 565,-57"/>
<text text-anchor="start" x="573" y="-75" font-family="Helvetica,sans-Serif" font-size="10.00">boost/python/object</text>
<text text-anchor="middle" x="616" y="-64" font-family="Helvetica,sans-Serif" font-size="10.00">_fwd.hpp</text>
</g>
<!-- Node17&#45;&gt;Node25 -->
<g id="edge35" class="edge"><title>Node17&#45;&gt;Node25</title>
<path fill="none" stroke="midnightblue" d="M743.652,-124.403C721.985,-115.679 687.804,-101.914 660.263,-90.824"/>
<polygon fill="midnightblue" stroke="midnightblue" points="661.413,-87.5141 650.83,-87.0253 658.798,-94.0074 661.413,-87.5141"/>
</g>
<!-- Node19&#45;&gt;Node9 -->
<g id="edge27" class="edge"><title>Node19&#45;&gt;Node9</title>
<path fill="none" stroke="midnightblue" d="M769.599,-62.4035C780.048,-53.047 796.968,-37.8948 809.736,-26.4599"/>
<polygon fill="midnightblue" stroke="midnightblue" points="812.304,-28.8592 817.418,-19.5806 807.634,-23.6445 812.304,-28.8592"/>
</g>
<!-- Node19&#45;&gt;Node7 -->
<g id="edge28" class="edge"><title>Node19&#45;&gt;Node7</title>
<path fill="none" stroke="midnightblue" d="M731.058,-62.4035C693.605,-51.2787 628.567,-31.9606 589.779,-20.4392"/>
<polygon fill="midnightblue" stroke="midnightblue" points="590.63,-17.041 580.047,-17.5487 588.637,-23.7512 590.63,-17.041"/>
</g>
<!-- Node20 -->
<g id="node20" class="node"><title>Node20</title>
<polygon fill="none" stroke="#bfbfbf" points="726,-0.5 726,-19.5 788,-19.5 788,-0.5 726,-0.5"/>
<text text-anchor="middle" x="757" y="-7.5" font-family="Helvetica,sans-Serif" font-size="10.00">sys/time.h</text>
</g>
<!-- Node19&#45;&gt;Node20 -->
<g id="edge29" class="edge"><title>Node19&#45;&gt;Node20</title>
<path fill="none" stroke="midnightblue" d="M759.57,-62.4035C759.147,-53.9381 758.486,-40.7283 757.941,-29.8199"/>
<polygon fill="midnightblue" stroke="midnightblue" points="761.424,-29.3933 757.429,-19.5806 754.433,-29.7429 761.424,-29.3933"/>
</g>
<!-- Node22 -->
<g id="node22" class="node"><title>Node22</title>
<polygon fill="none" stroke="#bfbfbf" points="82.5,-0.5 82.5,-19.5 131.5,-19.5 131.5,-0.5 82.5,-0.5"/>
<text text-anchor="middle" x="107" y="-7.5" font-family="Helvetica,sans-Serif" font-size="10.00">cstddef</text>
</g>
<!-- Node21&#45;&gt;Node22 -->
<g id="edge31" class="edge"><title>Node21&#45;&gt;Node22</title>
<path fill="none" stroke="midnightblue" d="M170.398,-62.4035C158.748,-52.9579 139.814,-37.6056 125.665,-26.1342"/>
<polygon fill="midnightblue" stroke="midnightblue" points="127.555,-23.16 117.583,-19.5806 123.146,-28.5973 127.555,-23.16"/>
</g>
<!-- Node21&#45;&gt;Node3 -->
<g id="edge32" class="edge"><title>Node21&#45;&gt;Node3</title>
<path fill="none" stroke="midnightblue" d="M198.766,-62.4035C219.484,-52.3787 253.952,-35.7006 277.989,-24.0699"/>
<polygon fill="midnightblue" stroke="midnightblue" points="279.79,-27.0868 287.267,-19.5806 276.741,-20.7857 279.79,-27.0868"/>
</g>
<!-- Node23 -->
<g id="node23" class="node"><title>Node23</title>
<polygon fill="none" stroke="#bfbfbf" points="149.5,-0.5 149.5,-19.5 194.5,-19.5 194.5,-0.5 149.5,-0.5"/>
<text text-anchor="middle" x="172" y="-7.5" font-family="Helvetica,sans-Serif" font-size="10.00">cstdlib</text>
</g>
<!-- Node21&#45;&gt;Node23 -->
<g id="edge33" class="edge"><title>Node21&#45;&gt;Node23</title>
<path fill="none" stroke="midnightblue" d="M179.711,-62.4035C178.427,-53.849 176.417,-40.4497 174.771,-29.4762"/>
<polygon fill="midnightblue" stroke="midnightblue" points="178.232,-28.9507 173.287,-19.5806 171.309,-29.9892 178.232,-28.9507"/>
</g>
<!-- Node24 -->
<g id="node24" class="node"><title>Node24</title>
<polygon fill="none" stroke="#bfbfbf" points="213,-0.5 213,-19.5 265,-19.5 265,-0.5 213,-0.5"/>
<text text-anchor="middle" x="239" y="-7.5" font-family="Helvetica,sans-Serif" font-size="10.00">assert.h</text>
</g>
<!-- Node21&#45;&gt;Node24 -->
<g id="edge34" class="edge"><title>Node21&#45;&gt;Node24</title>
<path fill="none" stroke="midnightblue" d="M189.31,-62.4035C198.268,-53.1361 212.723,-38.1828 223.739,-26.7876"/>
<polygon fill="midnightblue" stroke="midnightblue" points="226.272,-29.2031 230.705,-19.5806 221.239,-24.3379 226.272,-29.2031"/>
</g>
<!-- Node27 -->
<g id="node27" class="node"><title>Node27</title>
<polygon fill="none" stroke="#bfbfbf" points="1194.5,-62.5 1194.5,-81.5 1253.5,-81.5 1253.5,-62.5 1194.5,-62.5"/>
<text text-anchor="middle" x="1224" y="-69.5" font-family="Helvetica,sans-Serif" font-size="10.00">exception</text>
</g>
<!-- Node26&#45;&gt;Node27 -->
<g id="edge37" class="edge"><title>Node26&#45;&gt;Node27</title>
<path fill="none" stroke="midnightblue" d="M1132.33,-124.403C1149.97,-114.512 1179.16,-98.1442 1199.86,-86.5378"/>
<polygon fill="midnightblue" stroke="midnightblue" points="1201.69,-89.5244 1208.7,-81.5806 1198.26,-83.4188 1201.69,-89.5244"/>
</g>
<!-- Node28 -->
<g id="node28" class="node"><title>Node28</title>
<polygon fill="none" stroke="#bfbfbf" points="1271.5,-62.5 1271.5,-81.5 1330.5,-81.5 1330.5,-62.5 1271.5,-62.5"/>
<text text-anchor="middle" x="1301" y="-69.5" font-family="Helvetica,sans-Serif" font-size="10.00">stdexcept</text>
</g>
<!-- Node26&#45;&gt;Node28 -->
<g id="edge38" class="edge"><title>Node26&#45;&gt;Node28</title>
<path fill="none" stroke="midnightblue" d="M1146.62,-124.432C1176.06,-115.772 1222.41,-101.741 1262,-88 1264.61,-87.0947 1267.3,-86.127 1270,-85.1355"/>
<polygon fill="midnightblue" stroke="midnightblue" points="1271.51,-88.3071 1279.64,-81.5092 1269.05,-81.7557 1271.51,-88.3071"/>
</g>
<!-- Node29 -->
<g id="node29" class="node"><title>Node29</title>
<polygon fill="none" stroke="#bfbfbf" points="1057,-62.5 1057,-81.5 1109,-81.5 1109,-62.5 1057,-62.5"/>
<text text-anchor="middle" x="1083" y="-69.5" font-family="Helvetica,sans-Serif" font-size="10.00">sstream</text>
</g>
<!-- Node26&#45;&gt;Node29 -->
<g id="edge39" class="edge"><title>Node26&#45;&gt;Node29</title>
<path fill="none" stroke="midnightblue" d="M1112.13,-124.403C1107.13,-115.582 1099.21,-101.608 1092.89,-90.4548"/>
<polygon fill="midnightblue" stroke="midnightblue" points="1095.84,-88.5553 1087.86,-81.5806 1089.75,-92.0064 1095.84,-88.5553"/>
</g>
<!-- Node30 -->
<g id="node30" class="node"><title>Node30</title>
<polygon fill="none" stroke="#bfbfbf" points="1127.5,-62.5 1127.5,-81.5 1176.5,-81.5 1176.5,-62.5 1127.5,-62.5"/>
<text text-anchor="middle" x="1152" y="-69.5" font-family="Helvetica,sans-Serif" font-size="10.00">string.h</text>
</g>
<!-- Node26&#45;&gt;Node30 -->
<g id="edge40" class="edge"><title>Node26&#45;&gt;Node30</title>
<path fill="none" stroke="midnightblue" d="M1122.01,-124.403C1127.16,-115.582 1135.31,-101.608 1141.82,-90.4548"/>
<polygon fill="midnightblue" stroke="midnightblue" points="1144.98,-91.982 1146.99,-81.5806 1138.93,-88.4548 1144.98,-91.982"/>
</g>
<!-- Node26&#45;&gt;Node14 -->
<g id="edge41" class="edge"><title>Node26&#45;&gt;Node14</title>
<path fill="none" stroke="midnightblue" d="M1096.37,-124.403C1071.88,-114.2 1030.85,-97.1055 1002.89,-85.4544"/>
<polygon fill="midnightblue" stroke="midnightblue" points="1004.17,-82.196 993.593,-81.5806 1001.48,-88.6576 1004.17,-82.196"/>
</g>
<!-- Node32 -->
<g id="node32" class="node"><title>Node32</title>
<g id="a_node32"><a xlink:href="compiler_8h_source.html" target="_top" xlink:title="compiler.h">
<polygon fill="none" stroke="black" points="70,-62.5 70,-81.5 132,-81.5 132,-62.5 70,-62.5"/>
<text text-anchor="middle" x="101" y="-69.5" font-family="Helvetica,sans-Serif" font-size="10.00">compiler.h</text>
</a>
</g>
</g>
<!-- Node31&#45;&gt;Node32 -->
<g id="edge43" class="edge"><title>Node31&#45;&gt;Node32</title>
<path fill="none" stroke="midnightblue" d="M592.46,-125.185C589.262,-124.761 586.087,-124.361 583,-124 387.237,-101.125 333.344,-131.016 141,-88 137.492,-87.2154 133.878,-86.1903 130.325,-85.0437"/>
<polygon fill="midnightblue" stroke="midnightblue" points="131.203,-81.6412 120.608,-81.5901 128.858,-88.237 131.203,-81.6412"/>
</g>
<!-- Node34 -->
<g id="node34" class="node"><title>Node34</title>
<g id="a_node34"><a xlink:href="dimension_8h_source.html" target="_top" xlink:title="dimension.h">
<polygon fill="none" stroke="black" points="392.5,-62.5 392.5,-81.5 461.5,-81.5 461.5,-62.5 392.5,-62.5"/>
<text text-anchor="middle" x="427" y="-69.5" font-family="Helvetica,sans-Serif" font-size="10.00">dimension.h</text>
</a>
</g>
</g>
<!-- Node31&#45;&gt;Node34 -->
<g id="edge45" class="edge"><title>Node31&#45;&gt;Node34</title>
<path fill="none" stroke="midnightblue" d="M605.858,-124.434C570.89,-115.937 516.503,-102.17 470,-88 466.823,-87.0321 463.532,-85.9781 460.248,-84.8922"/>
<polygon fill="midnightblue" stroke="midnightblue" points="461.14,-81.4986 450.546,-81.5933 458.887,-88.1261 461.14,-81.4986"/>
</g>
<!-- Node33 -->
<g id="node33" class="node"><title>Node33</title>
<polygon fill="none" stroke="#bfbfbf" points="0,-0.5 0,-19.5 64,-19.5 64,-0.5 0,-0.5"/>
<text text-anchor="middle" x="32" y="-7.5" font-family="Helvetica,sans-Serif" font-size="10.00">psiconfig.h</text>
</g>
<!-- Node32&#45;&gt;Node33 -->
<g id="edge44" class="edge"><title>Node32&#45;&gt;Node33</title>
<path fill="none" stroke="midnightblue" d="M91.114,-62.4035C80.354,-53.047 62.929,-37.8948 49.7788,-26.4599"/>
<polygon fill="midnightblue" stroke="midnightblue" points="51.7104,-23.5013 41.8677,-19.5806 47.1171,-28.7835 51.7104,-23.5013"/>
</g>
<!-- Node34&#45;&gt;Node9 -->
<g id="edge46" class="edge"><title>Node34&#45;&gt;Node9</title>
<path fill="none" stroke="midnightblue" d="M448.597,-62.3969C455.357,-59.9951 462.906,-57.6062 470,-56 609.399,-24.4403 651.821,-48.0146 796.342,-19.7291"/>
<polygon fill="midnightblue" stroke="midnightblue" points="797.353,-23.096 806.468,-17.6959 795.975,-16.233 797.353,-23.096"/>
</g>
<!-- Node34&#45;&gt;Node3 -->
<g id="edge47" class="edge"><title>Node34&#45;&gt;Node3</title>
<path fill="none" stroke="midnightblue" d="M409.52,-62.4035C389.137,-52.3787 355.225,-35.7006 331.575,-24.0699"/>
<polygon fill="midnightblue" stroke="midnightblue" points="332.965,-20.8531 322.447,-19.5806 329.876,-27.1346 332.965,-20.8531"/>
</g>
<!-- Node34&#45;&gt;Node7 -->
<g id="edge48" class="edge"><title>Node34&#45;&gt;Node7</title>
<path fill="none" stroke="midnightblue" d="M445.769,-62.4035C467.851,-52.2896 504.719,-35.4036 530.139,-23.761"/>
<polygon fill="midnightblue" stroke="midnightblue" points="531.631,-26.9269 539.266,-19.5806 528.716,-20.5627 531.631,-26.9269"/>
</g>
<!-- Node35&#45;&gt;Node3 -->
<g id="edge51" class="edge"><title>Node35&#45;&gt;Node3</title>
<path fill="none" stroke="midnightblue" d="M73.8521,-180.296C60.8502,-157.061 29.8657,-92.838 61,-56 90.2925,-21.3412 212.728,-29.6095 273.504,-19.5552"/>
<polygon fill="midnightblue" stroke="midnightblue" points="274.263,-22.9731 283.403,-17.6144 272.916,-16.1038 274.263,-22.9731"/>
</g>
</g>
</svg>
        <g id="navigator" transform="translate(0 0)" fill="#404254">
                <rect fill="#f2f5e9" fill-opacity="0.5" stroke="#606060" stroke-width=".5" x="0" y="0" width="60" height="60"/>
                <use id="zoomplus" xlink:href="#zoomPlus" x="17" y="9" onmousedown="handleZoom(evt,'in')"/>
                <use id="zoomminus" xlink:href="#zoomMin" x="42" y="9" onmousedown="handleZoom(evt,'out')"/>
                <use id="reset" xlink:href="#resetDef" x="30" y="36" onmousedown="handleReset()"/>
                <g id="arrowUp" xlink:href="#dirArrow" transform="translate(30 24)" onmousedown="handlePan(0,-1)">
                  <use xlink:href="#rim" fill="#404040">
                        <set attributeName="fill" to="#808080" begin="arrowUp.mouseover" end="arrowUp.mouseout"/>
                  </use>
                  <path fill="none" stroke="white" stroke-width="1.5" d="M0,-3.0v7 M-2.5,-0.5L0,-3.0L2.5,-0.5"/>
                </g>
                <g id="arrowRight" xlink:href="#dirArrow" transform="rotate(90) translate(36 -43)" onmousedown="handlePan(1,0)">
                  <use xlink:href="#rim" fill="#404040">
                        <set attributeName="fill" to="#808080" begin="arrowRight.mouseover" end="arrowRight.mouseout"/>
                  </use>
                  <path fill="none" stroke="white" stroke-width="1.5" d="M0,-3.0v7 M-2.5,-0.5L0,-3.0L2.5,-0.5"/>
                </g>
                <g id="arrowDown" xlink:href="#dirArrow" transform="rotate(180) translate(-30 -48)" onmousedown="handlePan(0,1)">
                  <use xlink:href="#rim" fill="#404040">
                        <set attributeName="fill" to="#808080" begin="arrowDown.mouseover" end="arrowDown.mouseout"/>
                  </use>
                  <path fill="none" stroke="white" stroke-width="1.5" d="M0,-3.0v7 M-2.5,-0.5L0,-3.0L2.5,-0.5"/>
                </g>
                <g id="arrowLeft" xlink:href="#dirArrow" transform="rotate(270) translate(-36 17)" onmousedown="handlePan(-1,0)">
                  <use xlink:href="#rim" fill="#404040">
                        <set attributeName="fill" to="#808080" begin="arrowLeft.mouseover" end="arrowLeft.mouseout"/>
                  </use>
                  <path fill="none" stroke="white" stroke-width="1.5" d="M0,-3.0v7 M-2.5,-0.5L0,-3.0L2.5,-0.5"/>
                </g>
        </g>
        <svg viewBox="0 0 15 15" width="100%" height="30px" preserveAspectRatio="xMaxYMin meet">
         <g id="arrow_out" transform="scale(0.3 0.3)">
          <a xlink:href="ccenergy_2cc2__Wabei_8cc__incl_org.svg" target="_base">
           <rect id="button" ry="5" rx="5" y="6" x="6" height="38" width="38"
                fill="#f2f5e9" fill-opacity="0.5" stroke="#606060" stroke-width="1.0"/>
           <path id="arrow"
             d="M 11.500037,31.436501 C 11.940474,20.09759 22.043105,11.32322 32.158766,21.979434 L 37.068811,17.246167 C 37.068811,17.246167 37.088388,32 37.088388,32 L 22.160133,31.978069 C 22.160133,31.978069 26.997745,27.140456 26.997745,27.140456 C 18.528582,18.264221 13.291696,25.230495 11.500037,31.436501 z"
             style="fill:#404040;"/>
          </a>
         </g>
        </svg>
</svg>
