<?xml version="1.0" encoding="UTF-8" standalone="no"?>
<!DOCTYPE svg PUBLIC "-//W3C//DTD SVG 1.1//EN"
 "http://www.w3.org/Graphics/SVG/1.1/DTD/svg11.dtd">
<!-- Generated by graphviz version 2.30.1 (20140110.0959)
 -->
<!-- Title: AO_contribute.cc Pages: 1 -->
<svg width="601pt" height="196pt"
 viewBox="0.00 0.00 600.87 196.00" xmlns="http://www.w3.org/2000/svg" xmlns:xlink="http://www.w3.org/1999/xlink">
<g id="graph0" class="graph" transform="scale(1 1) rotate(0) translate(4 192)">
<title>AO_contribute.cc</title>
<!-- Node1 -->
<g id="node1" class="node"><title>Node1</title>
<polygon fill="#bfbfbf" stroke="black" points="168.871,-168.5 168.871,-187.5 260.871,-187.5 260.871,-168.5 168.871,-168.5"/>
<text text-anchor="middle" x="214.871" y="-175.5" font-family="Helvetica,sans-Serif" font-size="10.00">AO_contribute.cc</text>
</g>
<!-- Node2 -->
<g id="node2" class="node"><title>Node2</title>
<polygon fill="none" stroke="#bfbfbf" points="149.371,-0.5 149.371,-19.5 192.371,-19.5 192.371,-0.5 149.371,-0.5"/>
<text text-anchor="middle" x="170.871" y="-7.5" font-family="Helvetica,sans-Serif" font-size="10.00">cstdio</text>
</g>
<!-- Node1&#45;&gt;Node2 -->
<g id="edge1" class="edge"><title>Node1&#45;&gt;Node2</title>
<path fill="none" stroke="midnightblue" d="M168.856,-172.941C116.547,-167.279 35.9226,-155.013 16.8708,-132 -4.67674,-105.972 -5.4428,-83.0016 14.8708,-56 29.7972,-36.1593 98.0533,-22.3157 139.174,-15.6109"/>
<polygon fill="midnightblue" stroke="midnightblue" points="139.91,-19.0382 149.242,-14.023 138.819,-12.1237 139.91,-19.0382"/>
</g>
<!-- Node3 -->
<g id="node3" class="node"><title>Node3</title>
<polygon fill="none" stroke="#bfbfbf" points="302.371,-112.5 302.371,-131.5 347.371,-131.5 347.371,-112.5 302.371,-112.5"/>
<text text-anchor="middle" x="324.871" y="-119.5" font-family="Helvetica,sans-Serif" font-size="10.00">cstdlib</text>
</g>
<!-- Node1&#45;&gt;Node3 -->
<g id="edge2" class="edge"><title>Node1&#45;&gt;Node3</title>
<path fill="none" stroke="midnightblue" d="M232.544,-168.324C250.265,-159.625 277.774,-146.12 298.159,-136.113"/>
<polygon fill="midnightblue" stroke="midnightblue" points="299.807,-139.203 307.241,-131.655 296.722,-132.919 299.807,-139.203"/>
</g>
<!-- Node4 -->
<g id="node4" class="node"><title>Node4</title>
<polygon fill="none" stroke="#bfbfbf" points="365.871,-112.5 365.871,-131.5 409.871,-131.5 409.871,-112.5 365.871,-112.5"/>
<text text-anchor="middle" x="387.871" y="-119.5" font-family="Helvetica,sans-Serif" font-size="10.00">cmath</text>
</g>
<!-- Node1&#45;&gt;Node4 -->
<g id="edge3" class="edge"><title>Node1&#45;&gt;Node4</title>
<path fill="none" stroke="midnightblue" d="M242.283,-168.444C273.147,-158.81 323.236,-143.175 355.867,-132.99"/>
<polygon fill="midnightblue" stroke="midnightblue" points="357.299,-136.209 365.802,-129.889 355.213,-129.527 357.299,-136.209"/>
</g>
<!-- Node5 -->
<g id="node5" class="node"><title>Node5</title>
<g id="a_node5"><a xlink:href="libciomr_8h_source.html" target="_top" xlink:title="libciomr/libciomr.h">
<polygon fill="none" stroke="black" points="91.3708,-56.5 91.3708,-75.5 186.371,-75.5 186.371,-56.5 91.3708,-56.5"/>
<text text-anchor="middle" x="138.871" y="-63.5" font-family="Helvetica,sans-Serif" font-size="10.00">libciomr/libciomr.h</text>
</a>
</g>
</g>
<!-- Node1&#45;&gt;Node5 -->
<g id="edge4" class="edge"><title>Node1&#45;&gt;Node5</title>
<path fill="none" stroke="midnightblue" d="M205.97,-168.191C197.416,-159.46 184.416,-145.478 174.871,-132 164.177,-116.9 154.165,-98.3151 147.428,-84.891"/>
<polygon fill="midnightblue" stroke="midnightblue" points="150.503,-83.2121 142.957,-75.7746 144.218,-86.2942 150.503,-83.2121"/>
</g>
<!-- Node6 -->
<g id="node6" class="node"><title>Node6</title>
<g id="a_node6"><a xlink:href="iwl_8h_source.html" target="_top" xlink:title="libiwl/iwl.h">
<polygon fill="none" stroke="black" points="183.871,-112.5 183.871,-131.5 245.871,-131.5 245.871,-112.5 183.871,-112.5"/>
<text text-anchor="middle" x="214.871" y="-119.5" font-family="Helvetica,sans-Serif" font-size="10.00">libiwl/iwl.h</text>
</a>
</g>
</g>
<!-- Node1&#45;&gt;Node6 -->
<g id="edge6" class="edge"><title>Node1&#45;&gt;Node6</title>
<path fill="none" stroke="midnightblue" d="M214.871,-168.083C214.871,-161.006 214.871,-150.861 214.871,-141.986"/>
<polygon fill="midnightblue" stroke="midnightblue" points="218.371,-141.751 214.871,-131.751 211.371,-141.751 218.371,-141.751"/>
</g>
<!-- Node10 -->
<g id="node10" class="node"><title>Node10</title>
<g id="a_node10"><a xlink:href="qt_8h.html" target="_top" xlink:title="Header file for the Quantum Trio LibraryDavid Sherrill 1994.">
<polygon fill="none" stroke="black" points="25.8708,-112.5 25.8708,-131.5 79.8708,-131.5 79.8708,-112.5 25.8708,-112.5"/>
<text text-anchor="middle" x="52.8708" y="-119.5" font-family="Helvetica,sans-Serif" font-size="10.00">libqt/qt.h</text>
</a>
</g>
</g>
<!-- Node1&#45;&gt;Node10 -->
<g id="edge12" class="edge"><title>Node1&#45;&gt;Node10</title>
<path fill="none" stroke="midnightblue" d="M189.201,-168.444C161.948,-159.359 118.687,-144.939 88.2202,-134.783"/>
<polygon fill="midnightblue" stroke="midnightblue" points="89.0138,-131.358 78.4201,-131.516 86.8001,-137.999 89.0138,-131.358"/>
</g>
<!-- Node12 -->
<g id="node12" class="node"><title>Node12</title>
<g id="a_node12"><a xlink:href="lib_2libdpd_2dpd_8h.html" target="_top" xlink:title="Enter brief description of file here.">
<polygon fill="none" stroke="black" points="404.371,-56.5 404.371,-75.5 473.371,-75.5 473.371,-56.5 404.371,-56.5"/>
<text text-anchor="middle" x="438.871" y="-63.5" font-family="Helvetica,sans-Serif" font-size="10.00">libdpd/dpd.h</text>
</a>
</g>
</g>
<!-- Node1&#45;&gt;Node12 -->
<g id="edge15" class="edge"><title>Node1&#45;&gt;Node12</title>
<path fill="none" stroke="midnightblue" d="M223.144,-168.136C236.538,-154.276 264.358,-127.46 292.871,-112 310.774,-102.292 359.733,-88.0391 396.048,-78.1865"/>
<polygon fill="midnightblue" stroke="midnightblue" points="397.171,-81.5088 405.919,-75.5317 395.353,-74.749 397.171,-81.5088"/>
</g>
<!-- Node5&#45;&gt;Node2 -->
<g id="edge5" class="edge"><title>Node5&#45;&gt;Node2</title>
<path fill="none" stroke="midnightblue" d="M144.155,-56.083C148.582,-48.6127 155.034,-37.7244 160.489,-28.5199"/>
<polygon fill="midnightblue" stroke="midnightblue" points="163.598,-30.1383 165.685,-19.7511 157.576,-26.5697 163.598,-30.1383"/>
</g>
<!-- Node6&#45;&gt;Node2 -->
<g id="edge7" class="edge"><title>Node6&#45;&gt;Node2</title>
<path fill="none" stroke="midnightblue" d="M212.788,-112.403C209.605,-99.7856 203.034,-75.6221 194.871,-56 191.002,-46.7009 185.833,-36.7812 181.283,-28.6282"/>
<polygon fill="midnightblue" stroke="midnightblue" points="184.183,-26.65 176.169,-19.7202 178.113,-30.1352 184.183,-26.65"/>
</g>
<!-- Node7 -->
<g id="node7" class="node"><title>Node7</title>
<g id="a_node7"><a xlink:href="psio_8h_source.html" target="_top" xlink:title="libpsio/psio.h">
<polygon fill="none" stroke="black" points="242.871,-56.5 242.871,-75.5 316.871,-75.5 316.871,-56.5 242.871,-56.5"/>
<text text-anchor="middle" x="279.871" y="-63.5" font-family="Helvetica,sans-Serif" font-size="10.00">libpsio/psio.h</text>
</a>
</g>
</g>
<!-- Node6&#45;&gt;Node7 -->
<g id="edge8" class="edge"><title>Node6&#45;&gt;Node7</title>
<path fill="none" stroke="midnightblue" d="M225.314,-112.324C235.017,-104.263 249.686,-92.0765 261.371,-82.3695"/>
<polygon fill="midnightblue" stroke="midnightblue" points="263.782,-84.9163 269.237,-75.8339 259.309,-79.532 263.782,-84.9163"/>
</g>
<!-- Node9 -->
<g id="node9" class="node"><title>Node9</title>
<g id="a_node9"><a xlink:href="libiwl_2config_8h_source.html" target="_top" xlink:title="config.h">
<polygon fill="none" stroke="black" points="335.371,-56.5 335.371,-75.5 386.371,-75.5 386.371,-56.5 335.371,-56.5"/>
<text text-anchor="middle" x="360.871" y="-63.5" font-family="Helvetica,sans-Serif" font-size="10.00">config.h</text>
</a>
</g>
</g>
<!-- Node6&#45;&gt;Node9 -->
<g id="edge11" class="edge"><title>Node6&#45;&gt;Node9</title>
<path fill="none" stroke="midnightblue" d="M238.005,-112.444C262.353,-103.438 300.878,-89.1891 328.294,-79.049"/>
<polygon fill="midnightblue" stroke="midnightblue" points="329.68,-82.2681 337.845,-75.5164 327.252,-75.7028 329.68,-82.2681"/>
</g>
<!-- Node7&#45;&gt;Node2 -->
<g id="edge9" class="edge"><title>Node7&#45;&gt;Node2</title>
<path fill="none" stroke="midnightblue" d="M262.358,-56.324C244.798,-47.6247 217.539,-34.1202 197.34,-24.113"/>
<polygon fill="midnightblue" stroke="midnightblue" points="198.855,-20.9575 188.34,-19.6545 195.747,-27.23 198.855,-20.9575"/>
</g>
<!-- Node8 -->
<g id="node8" class="node"><title>Node8</title>
<g id="a_node8"><a xlink:href="libpsio_2config_8h_source.html" target="_top" xlink:title="libpsio/config.h">
<polygon fill="none" stroke="black" points="243.871,-0.5 243.871,-19.5 325.871,-19.5 325.871,-0.5 243.871,-0.5"/>
<text text-anchor="middle" x="284.871" y="-7.5" font-family="Helvetica,sans-Serif" font-size="10.00">libpsio/config.h</text>
</a>
</g>
</g>
<!-- Node7&#45;&gt;Node8 -->
<g id="edge10" class="edge"><title>Node7&#45;&gt;Node8</title>
<path fill="none" stroke="midnightblue" d="M280.696,-56.083C281.352,-49.0059 282.291,-38.8611 283.113,-29.9865"/>
<polygon fill="midnightblue" stroke="midnightblue" points="286.624,-30.0312 284.061,-19.7511 279.653,-29.3858 286.624,-30.0312"/>
</g>
<!-- Node10&#45;&gt;Node2 -->
<g id="edge13" class="edge"><title>Node10&#45;&gt;Node2</title>
<path fill="none" stroke="midnightblue" d="M43.4236,-112.402C30.2471,-99.3594 9.40189,-74.1731 22.8708,-56 49.5359,-20.0219 104.257,-11.8212 139.171,-10.476"/>
<polygon fill="midnightblue" stroke="midnightblue" points="139.396,-13.972 149.317,-10.2555 139.244,-6.97369 139.396,-13.972"/>
</g>
<!-- Node11 -->
<g id="node11" class="node"><title>Node11</title>
<polygon fill="none" stroke="#bfbfbf" points="32.3708,-56.5 32.3708,-75.5 73.3708,-75.5 73.3708,-56.5 32.3708,-56.5"/>
<text text-anchor="middle" x="52.8708" y="-63.5" font-family="Helvetica,sans-Serif" font-size="10.00">string</text>
</g>
<!-- Node10&#45;&gt;Node11 -->
<g id="edge14" class="edge"><title>Node10&#45;&gt;Node11</title>
<path fill="none" stroke="midnightblue" d="M52.8708,-112.083C52.8708,-105.006 52.8708,-94.8611 52.8708,-85.9865"/>
<polygon fill="midnightblue" stroke="midnightblue" points="56.3709,-85.751 52.8708,-75.7511 49.3709,-85.7511 56.3709,-85.751"/>
</g>
<!-- Node12&#45;&gt;Node2 -->
<g id="edge16" class="edge"><title>Node12&#45;&gt;Node2</title>
<path fill="none" stroke="midnightblue" d="M404.286,-57.9139C401.103,-57.2654 397.927,-56.6196 394.871,-56 326.275,-42.0944 245.822,-25.9793 202.446,-17.3069"/>
<polygon fill="midnightblue" stroke="midnightblue" points="202.992,-13.8469 192.5,-15.3189 201.62,-20.7111 202.992,-13.8469"/>
</g>
<!-- Node13 -->
<g id="node13" class="node"><title>Node13</title>
<g id="a_node13"><a xlink:href="psifiles_8h_source.html" target="_top" xlink:title="psifiles.h">
<polygon fill="none" stroke="black" points="410.871,-0.5 410.871,-19.5 466.871,-19.5 466.871,-0.5 410.871,-0.5"/>
<text text-anchor="middle" x="438.871" y="-7.5" font-family="Helvetica,sans-Serif" font-size="10.00">psifiles.h</text>
</a>
</g>
</g>
<!-- Node12&#45;&gt;Node13 -->
<g id="edge17" class="edge"><title>Node12&#45;&gt;Node13</title>
<path fill="none" stroke="midnightblue" d="M438.871,-56.083C438.871,-49.0059 438.871,-38.8611 438.871,-29.9865"/>
<polygon fill="midnightblue" stroke="midnightblue" points="442.371,-29.751 438.871,-19.7511 435.371,-29.7511 442.371,-29.751"/>
</g>
<!-- Node12&#45;&gt;Node8 -->
<g id="edge18" class="edge"><title>Node12&#45;&gt;Node8</title>
<path fill="none" stroke="midnightblue" d="M414.469,-56.4435C388.674,-47.3986 347.794,-33.064 318.853,-22.9158"/>
<polygon fill="midnightblue" stroke="midnightblue" points="319.753,-19.5226 309.158,-19.5164 317.437,-26.1283 319.753,-19.5226"/>
</g>
<!-- Node14 -->
<g id="node14" class="node"><title>Node14</title>
<polygon fill="none" stroke="#bfbfbf" points="484.871,-0.5 484.871,-19.5 592.871,-19.5 592.871,-0.5 484.871,-0.5"/>
<text text-anchor="middle" x="538.871" y="-7.5" font-family="Helvetica,sans-Serif" font-size="10.00">boost/shared_ptr.hpp</text>
</g>
<!-- Node12&#45;&gt;Node14 -->
<g id="edge19" class="edge"><title>Node12&#45;&gt;Node14</title>
<path fill="none" stroke="midnightblue" d="M454.938,-56.324C470.829,-47.7428 495.378,-34.486 513.829,-24.5224"/>
<polygon fill="midnightblue" stroke="midnightblue" points="515.708,-27.4857 522.844,-19.6545 512.382,-21.3264 515.708,-27.4857"/>
</g>
<!-- Node15 -->
<g id="node15" class="node"><title>Node15</title>
<polygon fill="none" stroke="#bfbfbf" points="348.871,-0.5 348.871,-19.5 392.871,-19.5 392.871,-0.5 348.871,-0.5"/>
<text text-anchor="middle" x="370.871" y="-7.5" font-family="Helvetica,sans-Serif" font-size="10.00">vector</text>
</g>
<!-- Node12&#45;&gt;Node15 -->
<g id="edge20" class="edge"><title>Node12&#45;&gt;Node15</title>
<path fill="none" stroke="midnightblue" d="M427.945,-56.324C417.696,-48.1849 402.15,-35.8395 389.87,-26.0874"/>
<polygon fill="midnightblue" stroke="midnightblue" points="392.003,-23.3119 381.995,-19.8339 387.65,-28.7937 392.003,-23.3119"/>
</g>
</g>
</svg>
