<?xml version="1.0" encoding="UTF-8" standalone="no"?>
<!DOCTYPE svg PUBLIC "-//W3C//DTD SVG 1.1//EN"
 "http://www.w3.org/Graphics/SVG/1.1/DTD/svg11.dtd">
<!-- Generated by graphviz version 2.30.1 (20140110.0959)
 -->
<!-- Title: MOInfo.h Pages: 1 -->
<!--zoomable 84 -->
<svg id="main" version="1.1" xmlns="http://www.w3.org/2000/svg" xmlns:xlink="http://www.w3.org/1999/xlink" xml:space="preserve" onload="init(evt)">
        <defs>
                <circle id="rim" cx="0" cy="0" r="7"/>
                <circle id="rim2" cx="0" cy="0" r="3.5"/>
                <g id="zoomPlus">
                        <use xlink:href="#rim" fill="#404040">
                                <set attributeName="fill" to="#808080" begin="zoomplus.mouseover" end="zoomplus.mouseout"/>
                        </use>
                        <path d="M-4,0h8M0,-4v8" fill="none" stroke="white" stroke-width="1.5" pointer-events="none"/>
                </g>
                <g id="zoomMin">
                        <use xlink:href="#rim" fill="#404040">
                                <set attributeName="fill" to="#808080" begin="zoomminus.mouseover" end="zoomminus.mouseout"/>
                        </use>
                        <path d="M-4,0h8" fill="none" stroke="white" stroke-width="1.5" pointer-events="none"/>
                </g>
                <g id="dirArrow">
                        <path fill="none" stroke="white" stroke-width="1.5" d="M0,-3.0v7 M-2.5,-0.5L0,-3.0L2.5,-0.5"/>
                </g>
               <g id="resetDef">
                       <use xlink:href="#rim2" fill="#404040">
                               <set attributeName="fill" to="#808080" begin="reset.mouseover" end="reset.mouseout"/>
                       </use>
               </g>
        </defs>

<script type="text/javascript">
var viewWidth = 3355;
var viewHeight = 84;
var sectionId = 'dynsection-0';
</script>
<script xlink:href="svgpan.js"/>
<svg id="graph" class="graph">
<g id="viewport">
<title>MOInfo.h</title>
<!-- Node1 -->
<g id="node1" class="node"><title>Node1</title>
<polygon fill="#bfbfbf" stroke="black" points="1746.5,-56.5 1746.5,-75.5 1803.5,-75.5 1803.5,-56.5 1746.5,-56.5"/>
<text text-anchor="middle" x="1775" y="-63.5" font-family="Helvetica,sans-Serif" font-size="10.00">MOInfo.h</text>
</g>
<!-- Node2 -->
<g id="node2" class="node"><title>Node2</title>
<g id="a_node2"><a xlink:href="ccenergy_2analyze_8cc.html" target="_top" xlink:title="Enter brief description of file here.">
<polygon fill="none" stroke="black" points="0,-0.5 0,-19.5 64,-19.5 64,-0.5 0,-0.5"/>
<text text-anchor="middle" x="32" y="-7.5" font-family="Helvetica,sans-Serif" font-size="10.00">analyze.cc</text>
</a>
</g>
</g>
<!-- Node1&#45;&gt;Node2 -->
<g id="edge1" class="edge"><title>Node1&#45;&gt;Node2</title>
<path fill="none" stroke="midnightblue" d="M1736.29,-64.9741C1515.22,-64.6752 410.408,-61.1155 73,-20 70.1064,-19.6474 67.1161,-19.1853 64.1299,-18.6564"/>
<polygon fill="midnightblue" stroke="midnightblue" points="1736.43,-68.4742 1746.44,-64.9863 1736.44,-61.4742 1736.43,-68.4742"/>
</g>
<!-- Node3 -->
<g id="node3" class="node"><title>Node3</title>
<g id="a_node3"><a xlink:href="BT2_8cc.html" target="_top" xlink:title="Enter brief description of file here.">
<polygon fill="none" stroke="black" points="82,-0.5 82,-19.5 130,-19.5 130,-0.5 82,-0.5"/>
<text text-anchor="middle" x="106" y="-7.5" font-family="Helvetica,sans-Serif" font-size="10.00">BT2.cc</text>
</a>
</g>
</g>
<!-- Node1&#45;&gt;Node3 -->
<g id="edge2" class="edge"><title>Node1&#45;&gt;Node3</title>
<path fill="none" stroke="midnightblue" d="M1736.06,-65.1885C1519.47,-66.0463 461.363,-67.6907 139,-20 136.063,-19.5655 133.014,-18.9573 130.009,-18.26"/>
<polygon fill="midnightblue" stroke="midnightblue" points="1736.32,-68.6876 1746.3,-65.146 1736.29,-61.6876 1736.32,-68.6876"/>
</g>
<!-- Node4 -->
<g id="node4" class="node"><title>Node4</title>
<g id="a_node4"><a xlink:href="BT2__AO_8cc.html" target="_top" xlink:title="Enter brief description of file here.">
<polygon fill="none" stroke="black" points="148,-0.5 148,-19.5 216,-19.5 216,-0.5 148,-0.5"/>
<text text-anchor="middle" x="182" y="-7.5" font-family="Helvetica,sans-Serif" font-size="10.00">BT2_AO.cc</text>
</a>
</g>
</g>
<!-- Node1&#45;&gt;Node4 -->
<g id="edge3" class="edge"><title>Node1&#45;&gt;Node4</title>
<path fill="none" stroke="midnightblue" d="M1736.17,-64.8061C1526.8,-63.6191 530.646,-56.1335 225,-20 222.122,-19.6597 219.151,-19.2222 216.177,-18.7237"/>
<polygon fill="midnightblue" stroke="midnightblue" points="1736.35,-68.3071 1746.37,-64.8625 1736.39,-61.3072 1736.35,-68.3071"/>
</g>
<!-- Node5 -->
<g id="node5" class="node"><title>Node5</title>
<g id="a_node5"><a xlink:href="ccenergy_2cc2__Wabei_8cc.html" target="_top" xlink:title="Enter brief description of file here.">
<polygon fill="none" stroke="black" points="234.5,-0.5 234.5,-19.5 313.5,-19.5 313.5,-0.5 234.5,-0.5"/>
<text text-anchor="middle" x="274" y="-7.5" font-family="Helvetica,sans-Serif" font-size="10.00">cc2_Wabei.cc</text>
</a>
</g>
</g>
<!-- Node1&#45;&gt;Node5 -->
<g id="edge4" class="edge"><title>Node1&#45;&gt;Node5</title>
<path fill="none" stroke="midnightblue" d="M1736.39,-64.6117C1535.47,-62.468 607.778,-51.0291 322,-20 319.303,-19.7071 316.53,-19.3469 313.742,-18.9406"/>
<polygon fill="midnightblue" stroke="midnightblue" points="1736.43,-68.1122 1746.47,-64.7179 1736.51,-61.1126 1736.43,-68.1122"/>
</g>
<!-- Node6 -->
<g id="node6" class="node"><title>Node6</title>
<g id="a_node6"><a xlink:href="ccenergy_2cc2__Wmbij_8cc.html" target="_top" xlink:title="Enter brief description of file here.">
<polygon fill="none" stroke="black" points="331.5,-0.5 331.5,-19.5 410.5,-19.5 410.5,-0.5 331.5,-0.5"/>
<text text-anchor="middle" x="371" y="-7.5" font-family="Helvetica,sans-Serif" font-size="10.00">cc2_Wmbij.cc</text>
</a>
</g>
</g>
<!-- Node1&#45;&gt;Node6 -->
<g id="edge5" class="edge"><title>Node1&#45;&gt;Node6</title>
<path fill="none" stroke="midnightblue" d="M1736.24,-64.5111C1543.22,-61.9546 684.416,-49.1155 419,-20 416.303,-19.7041 413.53,-19.3416 410.743,-18.9338"/>
<polygon fill="midnightblue" stroke="midnightblue" points="1736.42,-68.0137 1746.47,-64.6451 1736.51,-61.0143 1736.42,-68.0137"/>
</g>
<!-- Node7 -->
<g id="node7" class="node"><title>Node7</title>
<g id="a_node7"><a xlink:href="cc2__Wmnij_8cc.html" target="_top" xlink:title="Enter brief description of file here.">
<polygon fill="none" stroke="black" points="428.5,-0.5 428.5,-19.5 507.5,-19.5 507.5,-0.5 428.5,-0.5"/>
<text text-anchor="middle" x="468" y="-7.5" font-family="Helvetica,sans-Serif" font-size="10.00">cc2_Wmnij.cc</text>
</a>
</g>
</g>
<!-- Node1&#45;&gt;Node7 -->
<g id="edge6" class="edge"><title>Node1&#45;&gt;Node7</title>
<path fill="none" stroke="midnightblue" d="M1736.41,-64.3792C1552.31,-61.3014 762.083,-46.7465 517,-20 513.905,-19.6622 510.711,-19.2414 507.508,-18.7677"/>
<polygon fill="midnightblue" stroke="midnightblue" points="1736.38,-67.8791 1746.44,-64.5455 1736.5,-60.8801 1736.38,-67.8791"/>
</g>
<!-- Node8 -->
<g id="node8" class="node"><title>Node8</title>
<g id="a_node8"><a xlink:href="cc3_8cc.html" target="_top" xlink:title="Enter brief description of file here.">
<polygon fill="none" stroke="black" points="526,-0.5 526,-19.5 572,-19.5 572,-0.5 526,-0.5"/>
<text text-anchor="middle" x="549" y="-7.5" font-family="Helvetica,sans-Serif" font-size="10.00">cc3.cc</text>
</a>
</g>
</g>
<!-- Node1&#45;&gt;Node8 -->
<g id="edge7" class="edge"><title>Node1&#45;&gt;Node8</title>
<path fill="none" stroke="midnightblue" d="M1736.05,-64.7688C1556.92,-63.5161 811.19,-56.1847 581,-20 578.149,-19.5519 575.192,-18.9355 572.277,-18.2337"/>
<polygon fill="midnightblue" stroke="midnightblue" points="1736.28,-68.2704 1746.31,-64.8381 1736.33,-61.2705 1736.28,-68.2704"/>
</g>
<!-- Node9 -->
<g id="node9" class="node"><title>Node9</title>
<g id="a_node9"><a xlink:href="cc3__Wabei_8cc.html" target="_top" xlink:title="Enter brief description of file here.">
<polygon fill="none" stroke="black" points="590.5,-0.5 590.5,-19.5 669.5,-19.5 669.5,-0.5 590.5,-0.5"/>
<text text-anchor="middle" x="630" y="-7.5" font-family="Helvetica,sans-Serif" font-size="10.00">cc3_Wabei.cc</text>
</a>
</g>
</g>
<!-- Node1&#45;&gt;Node9 -->
<g id="edge8" class="edge"><title>Node1&#45;&gt;Node9</title>
<path fill="none" stroke="midnightblue" d="M1736.14,-65.4283C1594.13,-66.5648 1090.08,-66.8367 678,-20 675.304,-19.6936 672.532,-19.3232 669.746,-18.9095"/>
<polygon fill="midnightblue" stroke="midnightblue" points="1736.52,-68.9252 1746.49,-65.3385 1736.46,-61.9254 1736.52,-68.9252"/>
</g>
<!-- Node10 -->
<g id="node10" class="node"><title>Node10</title>
<g id="a_node10"><a xlink:href="cc3__Wamef_8cc.html" target="_top" xlink:title="Enter brief description of file here.">
<polygon fill="none" stroke="black" points="687.5,-0.5 687.5,-19.5 770.5,-19.5 770.5,-0.5 687.5,-0.5"/>
<text text-anchor="middle" x="729" y="-7.5" font-family="Helvetica,sans-Serif" font-size="10.00">cc3_Wamef.cc</text>
</a>
</g>
</g>
<!-- Node1&#45;&gt;Node10 -->
<g id="edge9" class="edge"><title>Node1&#45;&gt;Node10</title>
<path fill="none" stroke="midnightblue" d="M1736.23,-65.0975C1602.75,-65.0399 1149.97,-61.5809 779,-20 776.283,-19.6954 773.49,-19.3327 770.681,-18.9302"/>
<polygon fill="midnightblue" stroke="midnightblue" points="1736.37,-68.5975 1746.37,-65.0953 1736.37,-61.5975 1736.37,-68.5975"/>
</g>
<!-- Node11 -->
<g id="node11" class="node"><title>Node11</title>
<g id="a_node11"><a xlink:href="cc3__Wmbij_8cc.html" target="_top" xlink:title="Enter brief description of file here.">
<polygon fill="none" stroke="black" points="788.5,-0.5 788.5,-19.5 867.5,-19.5 867.5,-0.5 788.5,-0.5"/>
<text text-anchor="middle" x="828" y="-7.5" font-family="Helvetica,sans-Serif" font-size="10.00">cc3_Wmbij.cc</text>
</a>
</g>
</g>
<!-- Node1&#45;&gt;Node11 -->
<g id="edge10" class="edge"><title>Node1&#45;&gt;Node11</title>
<path fill="none" stroke="midnightblue" d="M1735.96,-64.8741C1610.68,-64.0794 1207.7,-58.487 877,-20 873.907,-19.6401 870.715,-19.2034 867.513,-18.7186"/>
<polygon fill="midnightblue" stroke="midnightblue" points="1736.18,-68.3753 1746.2,-64.9321 1736.22,-61.3754 1736.18,-68.3753"/>
</g>
<!-- Node12 -->
<g id="node12" class="node"><title>Node12</title>
<g id="a_node12"><a xlink:href="cc3__Wmnie_8cc.html" target="_top" xlink:title="Enter brief description of file here.">
<polygon fill="none" stroke="black" points="886,-0.5 886,-19.5 968,-19.5 968,-0.5 886,-0.5"/>
<text text-anchor="middle" x="927" y="-7.5" font-family="Helvetica,sans-Serif" font-size="10.00">cc3_Wmnie.cc</text>
</a>
</g>
</g>
<!-- Node1&#45;&gt;Node12 -->
<g id="edge11" class="edge"><title>Node1&#45;&gt;Node12</title>
<path fill="none" stroke="midnightblue" d="M1736.11,-64.4826C1620.24,-62.5815 1267.33,-54.1867 977,-20 974.109,-19.6596 971.133,-19.2574 968.141,-18.8151"/>
<polygon fill="midnightblue" stroke="midnightblue" points="1736.21,-67.9844 1746.26,-64.6422 1736.32,-60.9853 1736.21,-67.9844"/>
</g>
<!-- Node13 -->
<g id="node13" class="node"><title>Node13</title>
<g id="a_node13"><a xlink:href="cc3__Wmnij_8cc.html" target="_top" xlink:title="Enter brief description of file here.">
<polygon fill="none" stroke="black" points="986.5,-0.5 986.5,-19.5 1065.5,-19.5 1065.5,-0.5 986.5,-0.5"/>
<text text-anchor="middle" x="1026" y="-7.5" font-family="Helvetica,sans-Serif" font-size="10.00">cc3_Wmnij.cc</text>
</a>
</g>
</g>
<!-- Node1&#45;&gt;Node13 -->
<g id="edge12" class="edge"><title>Node1&#45;&gt;Node13</title>
<path fill="none" stroke="midnightblue" d="M1735.96,-64.0978C1629.56,-61.292 1325.64,-50.9651 1075,-20 1071.91,-19.6182 1068.72,-19.1658 1065.52,-18.6702"/>
<polygon fill="midnightblue" stroke="midnightblue" points="1736.13,-67.6031 1746.22,-64.3608 1736.31,-60.6054 1736.13,-67.6031"/>
</g>
<!-- Node14 -->
<g id="node14" class="node"><title>Node14</title>
<g id="a_node14"><a xlink:href="ccenergy_8cc.html" target="_top" xlink:title="Enter brief description of file here.">
<polygon fill="none" stroke="black" points="1084,-0.5 1084,-19.5 1154,-19.5 1154,-0.5 1084,-0.5"/>
<text text-anchor="middle" x="1119" y="-7.5" font-family="Helvetica,sans-Serif" font-size="10.00">ccenergy.cc</text>
</a>
</g>
</g>
<!-- Node1&#45;&gt;Node14 -->
<g id="edge13" class="edge"><title>Node1&#45;&gt;Node14</title>
<path fill="none" stroke="midnightblue" d="M1736.29,-63.8783C1639.34,-60.6949 1378.39,-49.8211 1163,-20 1160.22,-19.615 1157.35,-19.1604 1154.47,-18.6632"/>
<polygon fill="midnightblue" stroke="midnightblue" points="1736.39,-67.383 1746.5,-64.2045 1736.61,-60.3866 1736.39,-67.383"/>
</g>
<!-- Node15 -->
<g id="node15" class="node"><title>Node15</title>
<g id="a_node15"><a xlink:href="ccenergy_2converged_8cc.html" target="_top" xlink:title="Enter brief description of file here.">
<polygon fill="none" stroke="black" points="1172.5,-0.5 1172.5,-19.5 1247.5,-19.5 1247.5,-0.5 1172.5,-0.5"/>
<text text-anchor="middle" x="1210" y="-7.5" font-family="Helvetica,sans-Serif" font-size="10.00">converged.cc</text>
</a>
</g>
</g>
<!-- Node1&#45;&gt;Node15 -->
<g id="edge14" class="edge"><title>Node1&#45;&gt;Node15</title>
<path fill="none" stroke="midnightblue" d="M1736.34,-63.0623C1649.91,-58.4215 1434.61,-45.1427 1256,-20 1253.26,-19.6143 1250.44,-19.1723 1247.6,-18.6958"/>
<polygon fill="midnightblue" stroke="midnightblue" points="1736.3,-66.5649 1746.47,-63.5981 1736.67,-59.5747 1736.3,-66.5649"/>
</g>
<!-- Node16 -->
<g id="node16" class="node"><title>Node16</title>
<g id="a_node16"><a xlink:href="d1diag_8cc.html" target="_top" xlink:title="Enter brief description of file here.">
<polygon fill="none" stroke="black" points="1265.5,-0.5 1265.5,-19.5 1324.5,-19.5 1324.5,-0.5 1265.5,-0.5"/>
<text text-anchor="middle" x="1295" y="-7.5" font-family="Helvetica,sans-Serif" font-size="10.00">d1diag.cc</text>
</a>
</g>
</g>
<!-- Node1&#45;&gt;Node16 -->
<g id="edge15" class="edge"><title>Node1&#45;&gt;Node16</title>
<path fill="none" stroke="midnightblue" d="M1736.17,-62.7639C1658.96,-57.9394 1480.83,-44.9207 1333,-20 1330.33,-19.5492 1327.56,-19.0195 1324.8,-18.4467"/>
<polygon fill="midnightblue" stroke="midnightblue" points="1736.19,-66.2714 1746.39,-63.3907 1736.62,-59.2846 1736.19,-66.2714"/>
</g>
<!-- Node17 -->
<g id="node17" class="node"><title>Node17</title>
<g id="a_node17"><a xlink:href="d2diag_8cc.html" target="_top" xlink:title="Enter brief description of file here.">
<polygon fill="none" stroke="black" points="1342.5,-0.5 1342.5,-19.5 1401.5,-19.5 1401.5,-0.5 1342.5,-0.5"/>
<text text-anchor="middle" x="1372" y="-7.5" font-family="Helvetica,sans-Serif" font-size="10.00">d2diag.cc</text>
</a>
</g>
</g>
<!-- Node1&#45;&gt;Node17 -->
<g id="edge16" class="edge"><title>Node1&#45;&gt;Node17</title>
<path fill="none" stroke="midnightblue" d="M1735.98,-61.518C1669.14,-55.2534 1528.55,-40.7721 1411,-20 1407.99,-19.468 1404.86,-18.853 1401.75,-18.1992"/>
<polygon fill="midnightblue" stroke="midnightblue" points="1735.78,-65.0143 1746.06,-62.4526 1736.43,-58.0442 1735.78,-65.0143"/>
</g>
<!-- Node18 -->
<g id="node18" class="node"><title>Node18</title>
<g id="a_node18"><a xlink:href="diagnostic_8cc.html" target="_top" xlink:title="Enter brief description of file here.">
<polygon fill="none" stroke="black" points="1420,-0.5 1420,-19.5 1494,-19.5 1494,-0.5 1420,-0.5"/>
<text text-anchor="middle" x="1457" y="-7.5" font-family="Helvetica,sans-Serif" font-size="10.00">diagnostic.cc</text>
</a>
</g>
</g>
<!-- Node1&#45;&gt;Node18 -->
<g id="edge17" class="edge"><title>Node1&#45;&gt;Node18</title>
<path fill="none" stroke="midnightblue" d="M1736.43,-58.9825C1683.65,-50.6666 1586.02,-34.9855 1503,-20 1500.12,-19.4796 1497.14,-18.9276 1494.14,-18.3632"/>
<polygon fill="midnightblue" stroke="midnightblue" points="1735.94,-62.4494 1746.37,-60.545 1737.03,-55.5343 1735.94,-62.4494"/>
</g>
<!-- Node19 -->
<g id="node19" class="node"><title>Node19</title>
<g id="a_node19"><a xlink:href="diis__RHF_8cc.html" target="_top" xlink:title="Enter brief description of file here.">
<polygon fill="none" stroke="black" points="1512.5,-0.5 1512.5,-19.5 1583.5,-19.5 1583.5,-0.5 1512.5,-0.5"/>
<text text-anchor="middle" x="1548" y="-7.5" font-family="Helvetica,sans-Serif" font-size="10.00">diis_RHF.cc</text>
</a>
</g>
</g>
<!-- Node1&#45;&gt;Node19 -->
<g id="edge18" class="edge"><title>Node1&#45;&gt;Node19</title>
<path fill="none" stroke="midnightblue" d="M1736.48,-55.8372C1693.69,-45.6583 1625.17,-29.3586 1583.6,-19.4686"/>
<polygon fill="midnightblue" stroke="midnightblue" points="1735.71,-59.2515 1746.25,-58.1609 1737.33,-52.4415 1735.71,-59.2515"/>
</g>
<!-- Node20 -->
<g id="node20" class="node"><title>Node20</title>
<g id="a_node20"><a xlink:href="diis__ROHF_8cc.html" target="_top" xlink:title="Enter brief description of file here.">
<polygon fill="none" stroke="black" points="1601.5,-0.5 1601.5,-19.5 1680.5,-19.5 1680.5,-0.5 1601.5,-0.5"/>
<text text-anchor="middle" x="1641" y="-7.5" font-family="Helvetica,sans-Serif" font-size="10.00">diis_ROHF.cc</text>
</a>
</g>
</g>
<!-- Node1&#45;&gt;Node20 -->
<g id="edge19" class="edge"><title>Node1&#45;&gt;Node20</title>
<path fill="none" stroke="midnightblue" d="M1744.32,-52.6377C1719.18,-42.504 1684.25,-28.4274 1662.13,-19.5164"/>
<polygon fill="midnightblue" stroke="midnightblue" points="1743.18,-55.952 1753.77,-56.4435 1745.8,-49.4594 1743.18,-55.952"/>
</g>
<!-- Node21 -->
<g id="node21" class="node"><title>Node21</title>
<g id="a_node21"><a xlink:href="diis__UHF_8cc.html" target="_top" xlink:title="Enter brief description of file here.">
<polygon fill="none" stroke="black" points="1698.5,-0.5 1698.5,-19.5 1769.5,-19.5 1769.5,-0.5 1698.5,-0.5"/>
<text text-anchor="middle" x="1734" y="-7.5" font-family="Helvetica,sans-Serif" font-size="10.00">diis_UHF.cc</text>
</a>
</g>
</g>
<!-- Node1&#45;&gt;Node21 -->
<g id="edge20" class="edge"><title>Node1&#45;&gt;Node21</title>
<path fill="none" stroke="midnightblue" d="M1761.98,-47.8554C1754.88,-38.5048 1746.4,-27.3265 1740.64,-19.7511"/>
<polygon fill="midnightblue" stroke="midnightblue" points="1759.39,-50.235 1768.23,-56.083 1764.97,-46.002 1759.39,-50.235"/>
</g>
<!-- Node22 -->
<g id="node22" class="node"><title>Node22</title>
<g id="a_node22"><a xlink:href="bin_2ccenergy_2energy_8cc.html" target="_top" xlink:title="Enter brief description of file here.">
<polygon fill="none" stroke="black" points="1787.5,-0.5 1787.5,-19.5 1846.5,-19.5 1846.5,-0.5 1787.5,-0.5"/>
<text text-anchor="middle" x="1817" y="-7.5" font-family="Helvetica,sans-Serif" font-size="10.00">energy.cc</text>
</a>
</g>
</g>
<!-- Node1&#45;&gt;Node22 -->
<g id="edge21" class="edge"><title>Node1&#45;&gt;Node22</title>
<path fill="none" stroke="midnightblue" d="M1788.11,-48.144C1795.43,-38.7357 1804.24,-27.4046 1810.19,-19.7511"/>
<polygon fill="midnightblue" stroke="midnightblue" points="1785.31,-46.0406 1781.94,-56.083 1790.84,-50.3383 1785.31,-46.0406"/>
</g>
<!-- Node23 -->
<g id="node23" class="node"><title>Node23</title>
<g id="a_node23"><a xlink:href="Fae_8cc.html" target="_top" xlink:title="Enter brief description of file here.">
<polygon fill="none" stroke="black" points="1864.5,-0.5 1864.5,-19.5 1911.5,-19.5 1911.5,-0.5 1864.5,-0.5"/>
<text text-anchor="middle" x="1888" y="-7.5" font-family="Helvetica,sans-Serif" font-size="10.00">Fae.cc</text>
</a>
</g>
</g>
<!-- Node1&#45;&gt;Node23 -->
<g id="edge22" class="edge"><title>Node1&#45;&gt;Node23</title>
<path fill="none" stroke="midnightblue" d="M1802,-52.096C1823.11,-42.0073 1851.86,-28.2697 1870.18,-19.5164"/>
<polygon fill="midnightblue" stroke="midnightblue" points="1800.42,-48.9738 1792.91,-56.4435 1803.44,-55.2897 1800.42,-48.9738"/>
</g>
<!-- Node24 -->
<g id="node24" class="node"><title>Node24</title>
<g id="a_node24"><a xlink:href="Fmi_8cc.html" target="_top" xlink:title="Enter brief description of file here.">
<polygon fill="none" stroke="black" points="1929.5,-0.5 1929.5,-19.5 1976.5,-19.5 1976.5,-0.5 1929.5,-0.5"/>
<text text-anchor="middle" x="1953" y="-7.5" font-family="Helvetica,sans-Serif" font-size="10.00">Fmi.cc</text>
</a>
</g>
</g>
<!-- Node1&#45;&gt;Node24 -->
<g id="edge23" class="edge"><title>Node1&#45;&gt;Node24</title>
<path fill="none" stroke="midnightblue" d="M1813.15,-53.4255C1848.46,-42.7159 1899.82,-27.1337 1929.47,-18.1368"/>
<polygon fill="midnightblue" stroke="midnightblue" points="1811.76,-50.1911 1803.2,-56.4435 1813.79,-56.8897 1811.76,-50.1911"/>
</g>
<!-- Node25 -->
<g id="node25" class="node"><title>Node25</title>
<g id="a_node25"><a xlink:href="fock__build_8cc.html" target="_top" xlink:title="Enter brief description of file here.">
<polygon fill="none" stroke="black" points="1995,-0.5 1995,-19.5 2069,-19.5 2069,-0.5 1995,-0.5"/>
<text text-anchor="middle" x="2032" y="-7.5" font-family="Helvetica,sans-Serif" font-size="10.00">fock_build.cc</text>
</a>
</g>
</g>
<!-- Node1&#45;&gt;Node25 -->
<g id="edge24" class="edge"><title>Node1&#45;&gt;Node25</title>
<path fill="none" stroke="midnightblue" d="M1813.89,-56.8276C1862.93,-46.5235 1946.64,-28.9349 1994.85,-18.8068"/>
<polygon fill="midnightblue" stroke="midnightblue" points="1813.05,-53.4289 1803.98,-58.9105 1814.49,-60.2793 1813.05,-53.4289"/>
</g>
<!-- Node26 -->
<g id="node26" class="node"><title>Node26</title>
<g id="a_node26"><a xlink:href="form__df__ints_8cc.html" target="_top" xlink:title="Enter brief description of file here.">
<polygon fill="none" stroke="black" points="2087,-0.5 2087,-19.5 2171,-19.5 2171,-0.5 2087,-0.5"/>
<text text-anchor="middle" x="2129" y="-7.5" font-family="Helvetica,sans-Serif" font-size="10.00">form_df_ints.cc</text>
</a>
</g>
</g>
<!-- Node1&#45;&gt;Node26 -->
<g id="edge25" class="edge"><title>Node1&#45;&gt;Node26</title>
<path fill="none" stroke="midnightblue" d="M1814.01,-59.5533C1871.75,-51.4114 1983.37,-35.3744 2078,-20 2080.93,-19.5242 2083.95,-19.0215 2086.99,-18.5068"/>
<polygon fill="midnightblue" stroke="midnightblue" points="1813.28,-56.1207 1803.87,-60.9798 1814.26,-63.0524 1813.28,-56.1207"/>
</g>
<!-- Node27 -->
<g id="node27" class="node"><title>Node27</title>
<g id="a_node27"><a xlink:href="FT2_8cc.html" target="_top" xlink:title="Enter brief description of file here.">
<polygon fill="none" stroke="black" points="2189.5,-0.5 2189.5,-19.5 2236.5,-19.5 2236.5,-0.5 2189.5,-0.5"/>
<text text-anchor="middle" x="2213" y="-7.5" font-family="Helvetica,sans-Serif" font-size="10.00">FT2.cc</text>
</a>
</g>
</g>
<!-- Node1&#45;&gt;Node27 -->
<g id="edge26" class="edge"><title>Node1&#45;&gt;Node27</title>
<path fill="none" stroke="midnightblue" d="M1813.74,-62.7089C1886.18,-57.9805 2046.87,-45.3908 2180,-20 2183.03,-19.4215 2186.2,-18.7067 2189.31,-17.9348"/>
<polygon fill="midnightblue" stroke="midnightblue" points="1813.46,-59.2194 1803.71,-63.3501 1813.91,-66.2051 1813.46,-59.2194"/>
</g>
<!-- Node28 -->
<g id="node28" class="node"><title>Node28</title>
<g id="a_node28"><a xlink:href="ccenergy_2get__moinfo_8cc.html" target="_top" xlink:title="Enter brief description of file here.">
<polygon fill="none" stroke="black" points="2255,-0.5 2255,-19.5 2333,-19.5 2333,-0.5 2255,-0.5"/>
<text text-anchor="middle" x="2294" y="-7.5" font-family="Helvetica,sans-Serif" font-size="10.00">get_moinfo.cc</text>
</a>
</g>
</g>
<!-- Node1&#45;&gt;Node28 -->
<g id="edge27" class="edge"><title>Node1&#45;&gt;Node28</title>
<path fill="none" stroke="midnightblue" d="M1813.89,-62.416C1894.53,-56.8076 2085.72,-42.2104 2245,-20 2248.17,-19.558 2251.45,-19.0558 2254.73,-18.52"/>
<polygon fill="midnightblue" stroke="midnightblue" points="1813.45,-58.9382 1803.71,-63.1169 1813.93,-65.9217 1813.45,-58.9382"/>
</g>
<!-- Node29 -->
<g id="node29" class="node"><title>Node29</title>
<g id="a_node29"><a xlink:href="bin_2ccenergy_2get__params_8cc.html" target="_top" xlink:title="Enter brief description of file here.">
<polygon fill="none" stroke="black" points="2351.5,-0.5 2351.5,-19.5 2432.5,-19.5 2432.5,-0.5 2351.5,-0.5"/>
<text text-anchor="middle" x="2392" y="-7.5" font-family="Helvetica,sans-Serif" font-size="10.00">get_params.cc</text>
</a>
</g>
</g>
<!-- Node1&#45;&gt;Node29 -->
<g id="edge28" class="edge"><title>Node1&#45;&gt;Node29</title>
<path fill="none" stroke="midnightblue" d="M1813.96,-63.238C1906.08,-58.7825 2144.41,-45.56 2342,-20 2345.06,-19.604 2348.22,-19.148 2351.39,-18.6559"/>
<polygon fill="midnightblue" stroke="midnightblue" points="1813.54,-59.754 1803.72,-63.7263 1813.87,-66.7461 1813.54,-59.754"/>
</g>
<!-- Node30 -->
<g id="node30" class="node"><title>Node30</title>
<g id="a_node30"><a xlink:href="bin_2ccenergy_2lmp2_8cc.html" target="_top" xlink:title="Enter brief description of file here.">
<polygon fill="none" stroke="black" points="2450.5,-0.5 2450.5,-19.5 2501.5,-19.5 2501.5,-0.5 2450.5,-0.5"/>
<text text-anchor="middle" x="2476" y="-7.5" font-family="Helvetica,sans-Serif" font-size="10.00">lmp2.cc</text>
</a>
</g>
</g>
<!-- Node1&#45;&gt;Node30 -->
<g id="edge29" class="edge"><title>Node1&#45;&gt;Node30</title>
<path fill="none" stroke="midnightblue" d="M1814.02,-64.8646C1917.12,-63.9685 2205.07,-57.9719 2441,-20 2443.97,-19.5215 2447.06,-18.906 2450.12,-18.2217"/>
<polygon fill="midnightblue" stroke="midnightblue" points="1813.75,-61.3665 1803.77,-64.9418 1813.8,-68.3663 1813.75,-61.3665"/>
</g>
<!-- Node31 -->
<g id="node31" class="node"><title>Node31</title>
<g id="a_node31"><a xlink:href="bin_2ccenergy_2local_8cc.html" target="_top" xlink:title="Enter brief description of file here.">
<polygon fill="none" stroke="black" points="2520,-0.5 2520,-19.5 2570,-19.5 2570,-0.5 2520,-0.5"/>
<text text-anchor="middle" x="2545" y="-7.5" font-family="Helvetica,sans-Serif" font-size="10.00">local.cc</text>
</a>
</g>
</g>
<!-- Node1&#45;&gt;Node31 -->
<g id="edge30" class="edge"><title>Node1&#45;&gt;Node31</title>
<path fill="none" stroke="midnightblue" d="M1813.86,-65.2157C1923.82,-65.2699 2246.33,-61.5833 2510,-20 2513.22,-19.4918 2516.58,-18.8187 2519.88,-18.0686"/>
<polygon fill="midnightblue" stroke="midnightblue" points="1813.59,-61.7154 1803.59,-65.1991 1813.58,-68.7154 1813.59,-61.7154"/>
</g>
<!-- Node32 -->
<g id="node32" class="node"><title>Node32</title>
<g id="a_node32"><a xlink:href="mp2__energy_8cc.html" target="_top" xlink:title="Enter brief description of file here.">
<polygon fill="none" stroke="black" points="2588.5,-0.5 2588.5,-19.5 2671.5,-19.5 2671.5,-0.5 2588.5,-0.5"/>
<text text-anchor="middle" x="2630" y="-7.5" font-family="Helvetica,sans-Serif" font-size="10.00">mp2_energy.cc</text>
</a>
</g>
</g>
<!-- Node1&#45;&gt;Node32 -->
<g id="edge31" class="edge"><title>Node1&#45;&gt;Node32</title>
<path fill="none" stroke="midnightblue" d="M1813.77,-64.4607C1930.08,-62.4931 2286.09,-53.9202 2579,-20 2582.04,-19.6483 2585.17,-19.2313 2588.31,-18.7726"/>
<polygon fill="midnightblue" stroke="midnightblue" points="1813.53,-60.964 1803.59,-64.6262 1813.64,-67.9631 1813.53,-60.964"/>
</g>
<!-- Node33 -->
<g id="node33" class="node"><title>Node33</title>
<g id="a_node33"><a xlink:href="new__d1diag_8cc.html" target="_top" xlink:title="Enter brief description of file here.">
<polygon fill="none" stroke="black" points="2690,-0.5 2690,-19.5 2772,-19.5 2772,-0.5 2690,-0.5"/>
<text text-anchor="middle" x="2731" y="-7.5" font-family="Helvetica,sans-Serif" font-size="10.00">new_d1diag.cc</text>
</a>
</g>
</g>
<!-- Node1&#45;&gt;Node33 -->
<g id="edge32" class="edge"><title>Node1&#45;&gt;Node33</title>
<path fill="none" stroke="midnightblue" d="M1813.9,-64.8001C1939.63,-63.7838 2346.21,-57.6018 2680,-20 2683.22,-19.6377 2686.54,-19.1993 2689.87,-18.7134"/>
<polygon fill="midnightblue" stroke="midnightblue" points="1813.61,-61.3021 1803.64,-64.8764 1813.66,-68.3019 1813.61,-61.3021"/>
</g>
<!-- Node34 -->
<g id="node34" class="node"><title>Node34</title>
<g id="a_node34"><a xlink:href="pair__energies_8cc.html" target="_top" xlink:title="Enter brief description of file here.">
<polygon fill="none" stroke="black" points="2790,-0.5 2790,-19.5 2878,-19.5 2878,-0.5 2790,-0.5"/>
<text text-anchor="middle" x="2834" y="-7.5" font-family="Helvetica,sans-Serif" font-size="10.00">pair_energies.cc</text>
</a>
</g>
</g>
<!-- Node1&#45;&gt;Node34 -->
<g id="edge33" class="edge"><title>Node1&#45;&gt;Node34</title>
<path fill="none" stroke="midnightblue" d="M1813.69,-64.9856C1947.89,-64.5709 2405.68,-60.1062 2781,-20 2783.88,-19.6926 2786.83,-19.3276 2789.81,-18.9236"/>
<polygon fill="midnightblue" stroke="midnightblue" points="1813.49,-61.486 1803.5,-65.0111 1813.51,-68.486 1813.49,-61.486"/>
</g>
<!-- Node35 -->
<g id="node35" class="node"><title>Node35</title>
<g id="a_node35"><a xlink:href="rotate_8cc.html" target="_top" xlink:title="Enter brief description of file here.">
<polygon fill="none" stroke="black" points="2896.5,-0.5 2896.5,-19.5 2951.5,-19.5 2951.5,-0.5 2896.5,-0.5"/>
<text text-anchor="middle" x="2924" y="-7.5" font-family="Helvetica,sans-Serif" font-size="10.00">rotate.cc</text>
</a>
</g>
</g>
<!-- Node1&#45;&gt;Node35 -->
<g id="edge34" class="edge"><title>Node1&#45;&gt;Node35</title>
<path fill="none" stroke="midnightblue" d="M1813.72,-64.4626C1984.71,-61.9313 2673.12,-50.0379 2887,-20 2890.01,-19.5771 2893.14,-19.0155 2896.23,-18.3789"/>
<polygon fill="midnightblue" stroke="midnightblue" points="1813.62,-60.9636 1803.67,-64.6094 1813.72,-67.9629 1813.62,-60.9636"/>
</g>
<!-- Node36 -->
<g id="node36" class="node"><title>Node36</title>
<g id="a_node36"><a xlink:href="t1_8cc.html" target="_top" xlink:title="Enter brief description of file here.">
<polygon fill="none" stroke="black" points="2970,-0.5 2970,-19.5 3008,-19.5 3008,-0.5 2970,-0.5"/>
<text text-anchor="middle" x="2989" y="-7.5" font-family="Helvetica,sans-Serif" font-size="10.00">t1.cc</text>
</a>
</g>
</g>
<!-- Node1&#45;&gt;Node36 -->
<g id="edge35" class="edge"><title>Node1&#45;&gt;Node36</title>
<path fill="none" stroke="midnightblue" d="M1813.97,-64.8941C1992.37,-64.1991 2732.17,-58.9763 2960,-20 2963.22,-19.4489 2966.58,-18.6368 2969.83,-17.7225"/>
<polygon fill="midnightblue" stroke="midnightblue" points="1813.74,-61.3948 1803.75,-64.9313 1813.76,-68.3948 1813.74,-61.3948"/>
</g>
<!-- Node37 -->
<g id="node37" class="node"><title>Node37</title>
<g id="a_node37"><a xlink:href="t2_8cc.html" target="_top" xlink:title="Enter brief description of file here.">
<polygon fill="none" stroke="black" points="3026,-0.5 3026,-19.5 3064,-19.5 3064,-0.5 3026,-0.5"/>
<text text-anchor="middle" x="3045" y="-7.5" font-family="Helvetica,sans-Serif" font-size="10.00">t2.cc</text>
</a>
</g>
</g>
<!-- Node1&#45;&gt;Node37 -->
<g id="edge36" class="edge"><title>Node1&#45;&gt;Node37</title>
<path fill="none" stroke="midnightblue" d="M1813.76,-65.0253C1997.01,-64.9264 2777.5,-62.0014 3017,-20 3019.92,-19.4884 3022.95,-18.7467 3025.9,-17.9054"/>
<polygon fill="midnightblue" stroke="midnightblue" points="1813.53,-61.5252 1803.53,-65.0281 1813.53,-68.5252 1813.53,-61.5252"/>
</g>
<!-- Node38 -->
<g id="node38" class="node"><title>Node38</title>
<g id="a_node38"><a xlink:href="ccenergy_2tau_8cc.html" target="_top" xlink:title="Enter brief description of file here.">
<polygon fill="none" stroke="black" points="3082,-0.5 3082,-19.5 3126,-19.5 3126,-0.5 3082,-0.5"/>
<text text-anchor="middle" x="3104" y="-7.5" font-family="Helvetica,sans-Serif" font-size="10.00">tau.cc</text>
</a>
</g>
</g>
<!-- Node1&#45;&gt;Node38 -->
<g id="edge37" class="edge"><title>Node1&#45;&gt;Node38</title>
<path fill="none" stroke="midnightblue" d="M1813.96,-64.9488C2002.51,-64.5025 2821.42,-60.2404 3073,-20 3075.88,-19.5397 3078.87,-18.8951 3081.8,-18.16"/>
<polygon fill="midnightblue" stroke="midnightblue" points="1813.7,-61.4492 1803.7,-64.9707 1813.71,-68.4492 1813.7,-61.4492"/>
</g>
<!-- Node39 -->
<g id="node39" class="node"><title>Node39</title>
<g id="a_node39"><a xlink:href="ccenergy_2taut_8cc.html" target="_top" xlink:title="Enter brief description of file here.">
<polygon fill="none" stroke="black" points="3144.5,-0.5 3144.5,-19.5 3191.5,-19.5 3191.5,-0.5 3144.5,-0.5"/>
<text text-anchor="middle" x="3168" y="-7.5" font-family="Helvetica,sans-Serif" font-size="10.00">taut.cc</text>
</a>
</g>
</g>
<!-- Node1&#45;&gt;Node39 -->
<g id="edge38" class="edge"><title>Node1&#45;&gt;Node39</title>
<path fill="none" stroke="midnightblue" d="M1813.93,-64.9357C2007.78,-64.4289 2870.2,-59.9298 3135,-20 3138.05,-19.5396 3141.23,-18.8948 3144.35,-18.1597"/>
<polygon fill="midnightblue" stroke="midnightblue" points="1813.65,-61.4362 1803.66,-64.9604 1813.67,-68.4362 1813.65,-61.4362"/>
</g>
<!-- Node40 -->
<g id="node40" class="node"><title>Node40</title>
<g id="a_node40"><a xlink:href="ccenergy_2update_8cc.html" target="_top" xlink:title="Enter brief description of file here.">
<polygon fill="none" stroke="black" points="3209.5,-0.5 3209.5,-19.5 3268.5,-19.5 3268.5,-0.5 3209.5,-0.5"/>
<text text-anchor="middle" x="3239" y="-7.5" font-family="Helvetica,sans-Serif" font-size="10.00">update.cc</text>
</a>
</g>
</g>
<!-- Node1&#45;&gt;Node40 -->
<g id="edge39" class="edge"><title>Node1&#45;&gt;Node40</title>
<path fill="none" stroke="midnightblue" d="M1813.83,-64.7987C2012.93,-63.6103 2920.87,-56.2615 3200,-20 3203.03,-19.6061 3206.17,-19.0818 3209.3,-18.4834"/>
<polygon fill="midnightblue" stroke="midnightblue" points="1813.54,-61.3002 1803.56,-64.8582 1813.59,-68.3 1813.54,-61.3002"/>
</g>
<!-- Node41 -->
<g id="node41" class="node"><title>Node41</title>
<g id="a_node41"><a xlink:href="ccenergy_2Wmbej_8cc.html" target="_top" xlink:title="Enter brief description of file here.">
<polygon fill="none" stroke="black" points="3286.5,-0.5 3286.5,-19.5 3347.5,-19.5 3347.5,-0.5 3286.5,-0.5"/>
<text text-anchor="middle" x="3317" y="-7.5" font-family="Helvetica,sans-Serif" font-size="10.00">Wmbej.cc</text>
</a>
</g>
</g>
<!-- Node1&#45;&gt;Node41 -->
<g id="edge40" class="edge"><title>Node1&#45;&gt;Node41</title>
<path fill="none" stroke="midnightblue" d="M1813.62,-64.8438C2018.68,-63.8626 2981.58,-57.3114 3277,-20 3279.97,-19.6254 3283.04,-19.1315 3286.09,-18.5674"/>
<polygon fill="midnightblue" stroke="midnightblue" points="1813.61,-61.3438 1803.62,-64.8901 1813.64,-68.3437 1813.61,-61.3438"/>
</g>
</g>
</svg>
        <g id="navigator" transform="translate(0 0)" fill="#404254">
                <rect fill="#f2f5e9" fill-opacity="0.5" stroke="#606060" stroke-width=".5" x="0" y="0" width="60" height="60"/>
                <use id="zoomplus" xlink:href="#zoomPlus" x="17" y="9" onmousedown="handleZoom(evt,'in')"/>
                <use id="zoomminus" xlink:href="#zoomMin" x="42" y="9" onmousedown="handleZoom(evt,'out')"/>
                <use id="reset" xlink:href="#resetDef" x="30" y="36" onmousedown="handleReset()"/>
                <g id="arrowUp" xlink:href="#dirArrow" transform="translate(30 24)" onmousedown="handlePan(0,-1)">
                  <use xlink:href="#rim" fill="#404040">
                        <set attributeName="fill" to="#808080" begin="arrowUp.mouseover" end="arrowUp.mouseout"/>
                  </use>
                  <path fill="none" stroke="white" stroke-width="1.5" d="M0,-3.0v7 M-2.5,-0.5L0,-3.0L2.5,-0.5"/>
                </g>
                <g id="arrowRight" xlink:href="#dirArrow" transform="rotate(90) translate(36 -43)" onmousedown="handlePan(1,0)">
                  <use xlink:href="#rim" fill="#404040">
                        <set attributeName="fill" to="#808080" begin="arrowRight.mouseover" end="arrowRight.mouseout"/>
                  </use>
                  <path fill="none" stroke="white" stroke-width="1.5" d="M0,-3.0v7 M-2.5,-0.5L0,-3.0L2.5,-0.5"/>
                </g>
                <g id="arrowDown" xlink:href="#dirArrow" transform="rotate(180) translate(-30 -48)" onmousedown="handlePan(0,1)">
                  <use xlink:href="#rim" fill="#404040">
                        <set attributeName="fill" to="#808080" begin="arrowDown.mouseover" end="arrowDown.mouseout"/>
                  </use>
                  <path fill="none" stroke="white" stroke-width="1.5" d="M0,-3.0v7 M-2.5,-0.5L0,-3.0L2.5,-0.5"/>
                </g>
                <g id="arrowLeft" xlink:href="#dirArrow" transform="rotate(270) translate(-36 17)" onmousedown="handlePan(-1,0)">
                  <use xlink:href="#rim" fill="#404040">
                        <set attributeName="fill" to="#808080" begin="arrowLeft.mouseover" end="arrowLeft.mouseout"/>
                  </use>
                  <path fill="none" stroke="white" stroke-width="1.5" d="M0,-3.0v7 M-2.5,-0.5L0,-3.0L2.5,-0.5"/>
                </g>
        </g>
        <svg viewBox="0 0 15 15" width="100%" height="30px" preserveAspectRatio="xMaxYMin meet">
         <g id="arrow_out" transform="scale(0.3 0.3)">
          <a xlink:href="ccenergy_2MOInfo_8h__dep__incl_org.svg" target="_base">
           <rect id="button" ry="5" rx="5" y="6" x="6" height="38" width="38"
                fill="#f2f5e9" fill-opacity="0.5" stroke="#606060" stroke-width="1.0"/>
           <path id="arrow"
             d="M 11.500037,31.436501 C 11.940474,20.09759 22.043105,11.32322 32.158766,21.979434 L 37.068811,17.246167 C 37.068811,17.246167 37.088388,32 37.088388,32 L 22.160133,31.978069 C 22.160133,31.978069 26.997745,27.140456 26.997745,27.140456 C 18.528582,18.264221 13.291696,25.230495 11.500037,31.436501 z"
             style="fill:#404040;"/>
          </a>
         </g>
        </svg>
</svg>
