<?xml version="1.0" encoding="UTF-8" standalone="no"?>
<!DOCTYPE svg PUBLIC "-//W3C//DTD SVG 1.1//EN"
 "http://www.w3.org/Graphics/SVG/1.1/DTD/svg11.dtd">
<!-- Generated by graphviz version 2.30.1 (20140110.0959)
 -->
<!-- Title: Params.h Pages: 1 -->
<svg width="4219pt" height="84pt"
 viewBox="0.00 0.00 4219.00 84.00" xmlns="http://www.w3.org/2000/svg" xmlns:xlink="http://www.w3.org/1999/xlink">
<g id="graph0" class="graph" transform="scale(1 1) rotate(0) translate(4 80)">
<title>Params.h</title>
<!-- Node1 -->
<g id="node1" class="node"><title>Node1</title>
<polygon fill="#bfbfbf" stroke="black" points="2170.5,-56.5 2170.5,-75.5 2229.5,-75.5 2229.5,-56.5 2170.5,-56.5"/>
<text text-anchor="middle" x="2200" y="-63.5" font-family="Helvetica,sans-Serif" font-size="10.00">Params.h</text>
</g>
<!-- Node2 -->
<g id="node2" class="node"><title>Node2</title>
<g id="a_node2"><a xlink:href="ccenergy_2amp__write_8cc.html" target="_top" xlink:title="Write the amplitudes from ccenergy.">
<polygon fill="none" stroke="black" points="-0.5,-0.5 -0.5,-19.5 74.5,-19.5 74.5,-0.5 -0.5,-0.5"/>
<text text-anchor="middle" x="37" y="-7.5" font-family="Helvetica,sans-Serif" font-size="10.00">amp_write.cc</text>
</a>
</g>
</g>
<!-- Node1&#45;&gt;Node2 -->
<g id="edge1" class="edge"><title>Node1&#45;&gt;Node2</title>
<path fill="none" stroke="midnightblue" d="M2160.23,-65.0666C1906.27,-65.3544 508.63,-64.85 84,-20 80.9431,-19.6771 77.788,-19.2596 74.6269,-18.7815"/>
<polygon fill="midnightblue" stroke="midnightblue" points="2160.46,-68.5664 2170.46,-65.0538 2160.46,-61.5664 2160.46,-68.5664"/>
</g>
<!-- Node3 -->
<g id="node3" class="node"><title>Node3</title>
<g id="a_node3"><a xlink:href="BT2_8cc.html" target="_top" xlink:title="Enter brief description of file here.">
<polygon fill="none" stroke="black" points="93,-0.5 93,-19.5 141,-19.5 141,-0.5 93,-0.5"/>
<text text-anchor="middle" x="117" y="-7.5" font-family="Helvetica,sans-Serif" font-size="10.00">BT2.cc</text>
</a>
</g>
</g>
<!-- Node1&#45;&gt;Node3 -->
<g id="edge2" class="edge"><title>Node1&#45;&gt;Node3</title>
<path fill="none" stroke="midnightblue" d="M2160.06,-64.71C1891.71,-62.6837 355.659,-49.8423 150,-20 147.062,-19.5736 144.012,-18.9705 141.007,-18.2759"/>
<polygon fill="midnightblue" stroke="midnightblue" points="2160.11,-68.2103 2170.13,-64.7854 2160.16,-61.2105 2160.11,-68.2103"/>
</g>
<!-- Node4 -->
<g id="node4" class="node"><title>Node4</title>
<g id="a_node4"><a xlink:href="BT2__AO_8cc.html" target="_top" xlink:title="Enter brief description of file here.">
<polygon fill="none" stroke="black" points="159,-0.5 159,-19.5 227,-19.5 227,-0.5 159,-0.5"/>
<text text-anchor="middle" x="193" y="-7.5" font-family="Helvetica,sans-Serif" font-size="10.00">BT2_AO.cc</text>
</a>
</g>
</g>
<!-- Node1&#45;&gt;Node4 -->
<g id="edge3" class="edge"><title>Node1&#45;&gt;Node4</title>
<path fill="none" stroke="midnightblue" d="M2160.05,-65.0833C1916.4,-65.4405 628.078,-65.1363 236,-20 233.121,-19.6685 230.149,-19.2372 227.175,-18.7429"/>
<polygon fill="midnightblue" stroke="midnightblue" points="2160.22,-68.5831 2170.21,-65.0671 2160.21,-61.5831 2160.22,-68.5831"/>
</g>
<!-- Node5 -->
<g id="node5" class="node"><title>Node5</title>
<g id="a_node5"><a xlink:href="cc2__faeT2_8cc.html" target="_top" xlink:title="Enter brief description of file here.">
<polygon fill="none" stroke="black" points="245,-0.5 245,-19.5 321,-19.5 321,-0.5 245,-0.5"/>
<text text-anchor="middle" x="283" y="-7.5" font-family="Helvetica,sans-Serif" font-size="10.00">cc2_faeT2.cc</text>
</a>
</g>
</g>
<!-- Node1&#45;&gt;Node5 -->
<g id="edge4" class="edge"><title>Node1&#45;&gt;Node5</title>
<path fill="none" stroke="midnightblue" d="M2160.12,-64.9373C1923.61,-64.43 702.673,-59.8892 330,-20 327.109,-19.6905 324.13,-19.2975 321.14,-18.8494"/>
<polygon fill="midnightblue" stroke="midnightblue" points="2160.32,-68.4376 2170.32,-64.958 2160.33,-61.4376 2160.32,-68.4376"/>
</g>
<!-- Node6 -->
<g id="node6" class="node"><title>Node6</title>
<g id="a_node6"><a xlink:href="cc2__fmiT2_8cc.html" target="_top" xlink:title="Enter brief description of file here.">
<polygon fill="none" stroke="black" points="339,-0.5 339,-19.5 415,-19.5 415,-0.5 339,-0.5"/>
<text text-anchor="middle" x="377" y="-7.5" font-family="Helvetica,sans-Serif" font-size="10.00">cc2_fmiT2.cc</text>
</a>
</g>
</g>
<!-- Node1&#45;&gt;Node6 -->
<g id="edge5" class="edge"><title>Node1&#45;&gt;Node6</title>
<path fill="none" stroke="midnightblue" d="M2159.97,-64.8779C1930.18,-64.0421 776.808,-57.99 424,-20 421.109,-19.6887 418.13,-19.2943 415.141,-18.8453"/>
<polygon fill="midnightblue" stroke="midnightblue" points="2160.19,-68.3786 2170.21,-64.9139 2160.22,-61.3787 2160.19,-68.3786"/>
</g>
<!-- Node7 -->
<g id="node7" class="node"><title>Node7</title>
<g id="a_node7"><a xlink:href="cc2__t2_8cc.html" target="_top" xlink:title="Enter brief description of file here.">
<polygon fill="none" stroke="black" points="433.5,-0.5 433.5,-19.5 492.5,-19.5 492.5,-0.5 433.5,-0.5"/>
<text text-anchor="middle" x="463" y="-7.5" font-family="Helvetica,sans-Serif" font-size="10.00">cc2_t2.cc</text>
</a>
</g>
</g>
<!-- Node1&#45;&gt;Node7 -->
<g id="edge6" class="edge"><title>Node1&#45;&gt;Node7</title>
<path fill="none" stroke="midnightblue" d="M2159.92,-65.0591C1935.89,-65.2194 836.743,-63.7297 501,-20 498.311,-19.6497 495.534,-19.1892 492.763,-18.6614"/>
<polygon fill="midnightblue" stroke="midnightblue" points="2160.22,-68.5589 2170.22,-65.05 2160.21,-61.5589 2160.22,-68.5589"/>
</g>
<!-- Node8 -->
<g id="node8" class="node"><title>Node8</title>
<g id="a_node8"><a xlink:href="ccenergy_2cc2__Wabei_8cc.html" target="_top" xlink:title="Enter brief description of file here.">
<polygon fill="none" stroke="black" points="510.5,-0.5 510.5,-19.5 589.5,-19.5 589.5,-0.5 510.5,-0.5"/>
<text text-anchor="middle" x="550" y="-7.5" font-family="Helvetica,sans-Serif" font-size="10.00">cc2_Wabei.cc</text>
</a>
</g>
</g>
<!-- Node1&#45;&gt;Node8 -->
<g id="edge7" class="edge"><title>Node1&#45;&gt;Node8</title>
<path fill="none" stroke="midnightblue" d="M2160.23,-64.7109C1944.75,-63.0185 915.303,-53.2943 599,-20 595.903,-19.674 592.709,-19.2618 589.505,-18.7939"/>
<polygon fill="midnightblue" stroke="midnightblue" points="2160.41,-68.2123 2170.44,-64.7898 2160.47,-61.2125 2160.41,-68.2123"/>
</g>
<!-- Node9 -->
<g id="node9" class="node"><title>Node9</title>
<g id="a_node9"><a xlink:href="cc2__WabeiT2_8cc.html" target="_top" xlink:title="Enter brief description of file here.">
<polygon fill="none" stroke="black" points="608,-0.5 608,-19.5 698,-19.5 698,-0.5 608,-0.5"/>
<text text-anchor="middle" x="653" y="-7.5" font-family="Helvetica,sans-Serif" font-size="10.00">cc2_WabeiT2.cc</text>
</a>
</g>
</g>
<!-- Node1&#45;&gt;Node9 -->
<g id="edge8" class="edge"><title>Node1&#45;&gt;Node9</title>
<path fill="none" stroke="midnightblue" d="M2160.31,-64.53C1953.86,-61.9744 1000.94,-48.7923 707,-20 704.068,-19.7128 701.054,-19.3631 698.021,-18.9704"/>
<polygon fill="midnightblue" stroke="midnightblue" points="2160.36,-68.0307 2170.4,-64.6537 2160.44,-61.0312 2160.36,-68.0307"/>
</g>
<!-- Node10 -->
<g id="node10" class="node"><title>Node10</title>
<g id="a_node10"><a xlink:href="cc2__WabijT2_8cc.html" target="_top" xlink:title="Enter brief description of file here.">
<polygon fill="none" stroke="black" points="716.5,-0.5 716.5,-19.5 803.5,-19.5 803.5,-0.5 716.5,-0.5"/>
<text text-anchor="middle" x="760" y="-7.5" font-family="Helvetica,sans-Serif" font-size="10.00">cc2_WabijT2.cc</text>
</a>
</g>
</g>
<!-- Node1&#45;&gt;Node10 -->
<g id="edge9" class="edge"><title>Node1&#45;&gt;Node10</title>
<path fill="none" stroke="midnightblue" d="M2159.99,-64.4545C1961.77,-61.6373 1083.73,-47.7835 812,-20 809.266,-19.7204 806.458,-19.3828 803.632,-19.0045"/>
<polygon fill="midnightblue" stroke="midnightblue" points="2160.18,-67.9575 2170.23,-64.5988 2160.28,-60.9582 2160.18,-67.9575"/>
</g>
<!-- Node11 -->
<g id="node11" class="node"><title>Node11</title>
<g id="a_node11"><a xlink:href="ccenergy_2cc2__Wmbij_8cc.html" target="_top" xlink:title="Enter brief description of file here.">
<polygon fill="none" stroke="black" points="821.5,-0.5 821.5,-19.5 900.5,-19.5 900.5,-0.5 821.5,-0.5"/>
<text text-anchor="middle" x="861" y="-7.5" font-family="Helvetica,sans-Serif" font-size="10.00">cc2_Wmbij.cc</text>
</a>
</g>
</g>
<!-- Node1&#45;&gt;Node11 -->
<g id="edge10" class="edge"><title>Node1&#45;&gt;Node11</title>
<path fill="none" stroke="midnightblue" d="M2160.4,-64.4028C1971.57,-61.4349 1161.31,-47.3134 910,-20 906.904,-19.6636 903.711,-19.2438 900.507,-18.7707"/>
<polygon fill="midnightblue" stroke="midnightblue" points="2160.39,-67.9029 2170.44,-64.5592 2160.49,-60.9037 2160.39,-67.9029"/>
</g>
<!-- Node12 -->
<g id="node12" class="node"><title>Node12</title>
<g id="a_node12"><a xlink:href="cc2__WmbijT2_8cc.html" target="_top" xlink:title="Enter brief description of file here.">
<polygon fill="none" stroke="black" points="919,-0.5 919,-19.5 1009,-19.5 1009,-0.5 919,-0.5"/>
<text text-anchor="middle" x="964" y="-7.5" font-family="Helvetica,sans-Serif" font-size="10.00">cc2_WmbijT2.cc</text>
</a>
</g>
</g>
<!-- Node1&#45;&gt;Node12 -->
<g id="edge11" class="edge"><title>Node1&#45;&gt;Node12</title>
<path fill="none" stroke="midnightblue" d="M2160.09,-65.3157C2009.88,-66.1151 1464.4,-65.5116 1018,-20 1015.07,-19.7012 1012.06,-19.3427 1009.02,-18.9435"/>
<polygon fill="midnightblue" stroke="midnightblue" points="2160.24,-68.815 2170.21,-65.2563 2160.19,-61.8151 2160.24,-68.815"/>
</g>
<!-- Node13 -->
<g id="node13" class="node"><title>Node13</title>
<g id="a_node13"><a xlink:href="cc2__Wmnij_8cc.html" target="_top" xlink:title="Enter brief description of file here.">
<polygon fill="none" stroke="black" points="1027.5,-0.5 1027.5,-19.5 1106.5,-19.5 1106.5,-0.5 1027.5,-0.5"/>
<text text-anchor="middle" x="1067" y="-7.5" font-family="Helvetica,sans-Serif" font-size="10.00">cc2_Wmnij.cc</text>
</a>
</g>
</g>
<!-- Node1&#45;&gt;Node13 -->
<g id="edge12" class="edge"><title>Node1&#45;&gt;Node13</title>
<path fill="none" stroke="midnightblue" d="M2160.13,-65.3556C2017.83,-66.1978 1521.86,-65.4705 1116,-20 1112.91,-19.6533 1109.71,-19.2262 1106.51,-18.748"/>
<polygon fill="midnightblue" stroke="midnightblue" points="2160.16,-68.8555 2170.14,-65.2901 2160.12,-61.8557 2160.16,-68.8555"/>
</g>
<!-- Node14 -->
<g id="node14" class="node"><title>Node14</title>
<g id="a_node14"><a xlink:href="cc3_8cc.html" target="_top" xlink:title="Enter brief description of file here.">
<polygon fill="none" stroke="black" points="1125,-0.5 1125,-19.5 1171,-19.5 1171,-0.5 1125,-0.5"/>
<text text-anchor="middle" x="1148" y="-7.5" font-family="Helvetica,sans-Serif" font-size="10.00">cc3.cc</text>
</a>
</g>
</g>
<!-- Node1&#45;&gt;Node14 -->
<g id="edge13" class="edge"><title>Node1&#45;&gt;Node14</title>
<path fill="none" stroke="midnightblue" d="M2160.28,-64.4676C1996.6,-62.0859 1373.95,-51.1257 1180,-20 1177.15,-19.5428 1174.19,-18.9208 1171.28,-18.2159"/>
<polygon fill="midnightblue" stroke="midnightblue" points="2160.33,-67.9687 2170.38,-64.6122 2160.43,-60.9695 2160.33,-67.9687"/>
</g>
<!-- Node15 -->
<g id="node15" class="node"><title>Node15</title>
<g id="a_node15"><a xlink:href="cc3__Wabei_8cc.html" target="_top" xlink:title="Enter brief description of file here.">
<polygon fill="none" stroke="black" points="1189.5,-0.5 1189.5,-19.5 1268.5,-19.5 1268.5,-0.5 1189.5,-0.5"/>
<text text-anchor="middle" x="1229" y="-7.5" font-family="Helvetica,sans-Serif" font-size="10.00">cc3_Wabei.cc</text>
</a>
</g>
</g>
<!-- Node1&#45;&gt;Node15 -->
<g id="edge14" class="edge"><title>Node1&#45;&gt;Node15</title>
<path fill="none" stroke="midnightblue" d="M2160.25,-64.998C2031.92,-64.5783 1617.18,-59.9945 1277,-20 1274.31,-19.6832 1271.53,-19.305 1268.75,-18.8856"/>
<polygon fill="midnightblue" stroke="midnightblue" points="2160.38,-68.4982 2170.39,-65.0242 2160.4,-61.4982 2160.38,-68.4982"/>
</g>
<!-- Node16 -->
<g id="node16" class="node"><title>Node16</title>
<g id="a_node16"><a xlink:href="cc3__Wamef_8cc.html" target="_top" xlink:title="Enter brief description of file here.">
<polygon fill="none" stroke="black" points="1286.5,-0.5 1286.5,-19.5 1369.5,-19.5 1369.5,-0.5 1286.5,-0.5"/>
<text text-anchor="middle" x="1328" y="-7.5" font-family="Helvetica,sans-Serif" font-size="10.00">cc3_Wamef.cc</text>
</a>
</g>
</g>
<!-- Node1&#45;&gt;Node16 -->
<g id="edge15" class="edge"><title>Node1&#45;&gt;Node16</title>
<path fill="none" stroke="midnightblue" d="M2160.3,-64.561C2041.32,-62.8735 1677.36,-55.0014 1378,-20 1375.28,-19.6825 1372.49,-19.3099 1369.68,-18.9002"/>
<polygon fill="midnightblue" stroke="midnightblue" points="2160.35,-68.0619 2170.4,-64.6975 2160.45,-61.0625 2160.35,-68.0619"/>
</g>
<!-- Node17 -->
<g id="node17" class="node"><title>Node17</title>
<g id="a_node17"><a xlink:href="cc3__Wmbij_8cc.html" target="_top" xlink:title="Enter brief description of file here.">
<polygon fill="none" stroke="black" points="1387.5,-0.5 1387.5,-19.5 1466.5,-19.5 1466.5,-0.5 1387.5,-0.5"/>
<text text-anchor="middle" x="1427" y="-7.5" font-family="Helvetica,sans-Serif" font-size="10.00">cc3_Wmbij.cc</text>
</a>
</g>
</g>
<!-- Node1&#45;&gt;Node17 -->
<g id="edge16" class="edge"><title>Node1&#45;&gt;Node17</title>
<path fill="none" stroke="midnightblue" d="M2159.96,-64.1903C2050.2,-61.609 1735.49,-51.7795 1476,-20 1472.91,-19.6215 1469.72,-19.1715 1466.52,-18.6775"/>
<polygon fill="midnightblue" stroke="midnightblue" points="2160.15,-67.6955 2170.23,-64.4246 2160.31,-60.6974 2160.15,-67.6955"/>
</g>
<!-- Node18 -->
<g id="node18" class="node"><title>Node18</title>
<g id="a_node18"><a xlink:href="cc3__Wmnie_8cc.html" target="_top" xlink:title="Enter brief description of file here.">
<polygon fill="none" stroke="black" points="1485,-0.5 1485,-19.5 1567,-19.5 1567,-0.5 1485,-0.5"/>
<text text-anchor="middle" x="1526" y="-7.5" font-family="Helvetica,sans-Serif" font-size="10.00">cc3_Wmnie.cc</text>
</a>
</g>
</g>
<!-- Node1&#45;&gt;Node18 -->
<g id="edge17" class="edge"><title>Node1&#45;&gt;Node18</title>
<path fill="none" stroke="midnightblue" d="M2160.18,-63.5948C2061.1,-59.7806 1795.65,-47.6099 1576,-20 1573.11,-19.637 1570.14,-19.218 1567.15,-18.7636"/>
<polygon fill="midnightblue" stroke="midnightblue" points="2160.21,-67.0984 2170.33,-63.9788 2160.47,-60.1034 2160.21,-67.0984"/>
</g>
<!-- Node19 -->
<g id="node19" class="node"><title>Node19</title>
<g id="a_node19"><a xlink:href="cc3__Wmnij_8cc.html" target="_top" xlink:title="Enter brief description of file here.">
<polygon fill="none" stroke="black" points="1585.5,-0.5 1585.5,-19.5 1664.5,-19.5 1664.5,-0.5 1585.5,-0.5"/>
<text text-anchor="middle" x="1625" y="-7.5" font-family="Helvetica,sans-Serif" font-size="10.00">cc3_Wmnij.cc</text>
</a>
</g>
</g>
<!-- Node1&#45;&gt;Node19 -->
<g id="edge18" class="edge"><title>Node1&#45;&gt;Node19</title>
<path fill="none" stroke="midnightblue" d="M2160.15,-62.9049C2072.15,-57.9904 1854.69,-44.2656 1674,-20 1670.91,-19.5856 1667.73,-19.1097 1664.53,-18.5979"/>
<polygon fill="midnightblue" stroke="midnightblue" points="2160.05,-66.4046 2170.23,-63.4606 2160.44,-59.4153 2160.05,-66.4046"/>
</g>
<!-- Node20 -->
<g id="node20" class="node"><title>Node20</title>
<g id="a_node20"><a xlink:href="ccenergy_8cc.html" target="_top" xlink:title="Enter brief description of file here.">
<polygon fill="none" stroke="black" points="1683,-0.5 1683,-19.5 1753,-19.5 1753,-0.5 1683,-0.5"/>
<text text-anchor="middle" x="1718" y="-7.5" font-family="Helvetica,sans-Serif" font-size="10.00">ccenergy.cc</text>
</a>
</g>
</g>
<!-- Node1&#45;&gt;Node20 -->
<g id="edge19" class="edge"><title>Node1&#45;&gt;Node20</title>
<path fill="none" stroke="midnightblue" d="M2160.17,-62.2404C2083.02,-56.6011 1907.95,-42.3682 1762,-20 1759.07,-19.5512 1756.04,-19.0373 1753.01,-18.4875"/>
<polygon fill="midnightblue" stroke="midnightblue" points="2160.17,-65.7492 2170.39,-62.9791 2160.67,-58.7674 2160.17,-65.7492"/>
</g>
<!-- Node21 -->
<g id="node21" class="node"><title>Node21</title>
<g id="a_node21"><a xlink:href="ccenergy_2converged_8cc.html" target="_top" xlink:title="Enter brief description of file here.">
<polygon fill="none" stroke="black" points="1771.5,-0.5 1771.5,-19.5 1846.5,-19.5 1846.5,-0.5 1771.5,-0.5"/>
<text text-anchor="middle" x="1809" y="-7.5" font-family="Helvetica,sans-Serif" font-size="10.00">converged.cc</text>
</a>
</g>
</g>
<!-- Node1&#45;&gt;Node21 -->
<g id="edge20" class="edge"><title>Node1&#45;&gt;Node21</title>
<path fill="none" stroke="midnightblue" d="M2160.26,-60.648C2095.95,-53.4173 1965.12,-37.9364 1855,-20 1852.27,-19.5552 1849.45,-19.0698 1846.62,-18.5625"/>
<polygon fill="midnightblue" stroke="midnightblue" points="2160.05,-64.1452 2170.37,-61.7779 2160.82,-57.1886 2160.05,-64.1452"/>
</g>
<!-- Node22 -->
<g id="node22" class="node"><title>Node22</title>
<g id="a_node22"><a xlink:href="CT2_8cc.html" target="_top" xlink:title="Enter brief description of file here.">
<polygon fill="none" stroke="black" points="1864.5,-0.5 1864.5,-19.5 1913.5,-19.5 1913.5,-0.5 1864.5,-0.5"/>
<text text-anchor="middle" x="1889" y="-7.5" font-family="Helvetica,sans-Serif" font-size="10.00">CT2.cc</text>
</a>
</g>
</g>
<!-- Node1&#45;&gt;Node22 -->
<g id="edge21" class="edge"><title>Node1&#45;&gt;Node22</title>
<path fill="none" stroke="midnightblue" d="M2159.96,-59.8742C2105.71,-52.6218 2005.99,-38.1985 1922,-20 1919.33,-19.4216 1916.55,-18.7604 1913.8,-18.065"/>
<polygon fill="midnightblue" stroke="midnightblue" points="2159.81,-63.385 2170.18,-61.228 2160.73,-56.4456 2159.81,-63.385"/>
</g>
<!-- Node23 -->
<g id="node23" class="node"><title>Node23</title>
<g id="a_node23"><a xlink:href="d1diag_8cc.html" target="_top" xlink:title="Enter brief description of file here.">
<polygon fill="none" stroke="black" points="1931.5,-0.5 1931.5,-19.5 1990.5,-19.5 1990.5,-0.5 1931.5,-0.5"/>
<text text-anchor="middle" x="1961" y="-7.5" font-family="Helvetica,sans-Serif" font-size="10.00">d1diag.cc</text>
</a>
</g>
</g>
<!-- Node1&#45;&gt;Node23 -->
<g id="edge22" class="edge"><title>Node1&#45;&gt;Node23</title>
<path fill="none" stroke="midnightblue" d="M2160.32,-56.2684C2119.76,-47.3052 2054.94,-32.8856 1999,-20 1996.36,-19.3913 1993.61,-18.753 1990.86,-18.1094"/>
<polygon fill="midnightblue" stroke="midnightblue" points="2159.83,-59.7425 2170.34,-58.4804 2161.33,-52.907 2159.83,-59.7425"/>
</g>
<!-- Node24 -->
<g id="node24" class="node"><title>Node24</title>
<g id="a_node24"><a xlink:href="d2diag_8cc.html" target="_top" xlink:title="Enter brief description of file here.">
<polygon fill="none" stroke="black" points="2008.5,-0.5 2008.5,-19.5 2067.5,-19.5 2067.5,-0.5 2008.5,-0.5"/>
<text text-anchor="middle" x="2038" y="-7.5" font-family="Helvetica,sans-Serif" font-size="10.00">d2diag.cc</text>
</a>
</g>
</g>
<!-- Node1&#45;&gt;Node24 -->
<g id="edge23" class="edge"><title>Node1&#45;&gt;Node24</title>
<path fill="none" stroke="midnightblue" d="M2164.52,-53.172C2134.01,-43.0039 2090.76,-28.5852 2063.55,-19.5164"/>
<polygon fill="midnightblue" stroke="midnightblue" points="2163.74,-56.6016 2174.33,-56.4435 2165.95,-49.9608 2163.74,-56.6016"/>
</g>
<!-- Node25 -->
<g id="node25" class="node"><title>Node25</title>
<g id="a_node25"><a xlink:href="ccenergy_2denom_8cc.html" target="_top" xlink:title="Enter brief description of file here.">
<polygon fill="none" stroke="black" points="2085.5,-0.5 2085.5,-19.5 2144.5,-19.5 2144.5,-0.5 2085.5,-0.5"/>
<text text-anchor="middle" x="2115" y="-7.5" font-family="Helvetica,sans-Serif" font-size="10.00">denom.cc</text>
</a>
</g>
</g>
<!-- Node1&#45;&gt;Node25 -->
<g id="edge24" class="edge"><title>Node1&#45;&gt;Node25</title>
<path fill="none" stroke="midnightblue" d="M2177.81,-50.9005C2162.22,-40.9986 2141.87,-28.0705 2128.62,-19.6545"/>
<polygon fill="midnightblue" stroke="midnightblue" points="2176.03,-53.9158 2186.34,-56.324 2179.78,-48.0073 2176.03,-53.9158"/>
</g>
<!-- Node26 -->
<g id="node26" class="node"><title>Node26</title>
<g id="a_node26"><a xlink:href="diagnostic_8cc.html" target="_top" xlink:title="Enter brief description of file here.">
<polygon fill="none" stroke="black" points="2163,-0.5 2163,-19.5 2237,-19.5 2237,-0.5 2163,-0.5"/>
<text text-anchor="middle" x="2200" y="-7.5" font-family="Helvetica,sans-Serif" font-size="10.00">diagnostic.cc</text>
</a>
</g>
</g>
<!-- Node1&#45;&gt;Node26 -->
<g id="edge25" class="edge"><title>Node1&#45;&gt;Node26</title>
<path fill="none" stroke="midnightblue" d="M2200,-45.8045C2200,-36.9102 2200,-26.7798 2200,-19.7511"/>
<polygon fill="midnightblue" stroke="midnightblue" points="2196.5,-46.083 2200,-56.083 2203.5,-46.083 2196.5,-46.083"/>
</g>
<!-- Node27 -->
<g id="node27" class="node"><title>Node27</title>
<g id="a_node27"><a xlink:href="bin_2ccenergy_2diis_8cc.html" target="_top" xlink:title="Enter brief description of file here.">
<polygon fill="none" stroke="black" points="2255.5,-0.5 2255.5,-19.5 2300.5,-19.5 2300.5,-0.5 2255.5,-0.5"/>
<text text-anchor="middle" x="2278" y="-7.5" font-family="Helvetica,sans-Serif" font-size="10.00">diis.cc</text>
</a>
</g>
</g>
<!-- Node1&#45;&gt;Node27 -->
<g id="edge26" class="edge"><title>Node1&#45;&gt;Node27</title>
<path fill="none" stroke="midnightblue" d="M2220.77,-50.6221C2235.02,-40.7574 2253.46,-27.9919 2265.5,-19.6545"/>
<polygon fill="midnightblue" stroke="midnightblue" points="2218.76,-47.7541 2212.53,-56.324 2222.75,-53.5095 2218.76,-47.7541"/>
</g>
<!-- Node28 -->
<g id="node28" class="node"><title>Node28</title>
<g id="a_node28"><a xlink:href="diis__RHF_8cc.html" target="_top" xlink:title="Enter brief description of file here.">
<polygon fill="none" stroke="black" points="2318.5,-0.5 2318.5,-19.5 2389.5,-19.5 2389.5,-0.5 2318.5,-0.5"/>
<text text-anchor="middle" x="2354" y="-7.5" font-family="Helvetica,sans-Serif" font-size="10.00">diis_RHF.cc</text>
</a>
</g>
</g>
<!-- Node1&#45;&gt;Node28 -->
<g id="edge27" class="edge"><title>Node1&#45;&gt;Node28</title>
<path fill="none" stroke="midnightblue" d="M2234.11,-53.0392C2263.09,-42.8786 2303.96,-28.5457 2329.71,-19.5164"/>
<polygon fill="midnightblue" stroke="midnightblue" points="2232.68,-49.8317 2224.4,-56.4435 2235,-56.4373 2232.68,-49.8317"/>
</g>
<!-- Node29 -->
<g id="node29" class="node"><title>Node29</title>
<g id="a_node29"><a xlink:href="diis__ROHF_8cc.html" target="_top" xlink:title="Enter brief description of file here.">
<polygon fill="none" stroke="black" points="2407.5,-0.5 2407.5,-19.5 2486.5,-19.5 2486.5,-0.5 2407.5,-0.5"/>
<text text-anchor="middle" x="2447" y="-7.5" font-family="Helvetica,sans-Serif" font-size="10.00">diis_ROHF.cc</text>
</a>
</g>
</g>
<!-- Node1&#45;&gt;Node29 -->
<g id="edge28" class="edge"><title>Node1&#45;&gt;Node29</title>
<path fill="none" stroke="midnightblue" d="M2239.74,-56.3109C2285.95,-46.209 2361.74,-29.6404 2407.74,-19.5837"/>
<polygon fill="midnightblue" stroke="midnightblue" points="2238.82,-52.9312 2229.79,-58.4863 2240.31,-59.7697 2238.82,-52.9312"/>
</g>
<!-- Node30 -->
<g id="node30" class="node"><title>Node30</title>
<g id="a_node30"><a xlink:href="diis__UHF_8cc.html" target="_top" xlink:title="Enter brief description of file here.">
<polygon fill="none" stroke="black" points="2504.5,-0.5 2504.5,-19.5 2575.5,-19.5 2575.5,-0.5 2504.5,-0.5"/>
<text text-anchor="middle" x="2540" y="-7.5" font-family="Helvetica,sans-Serif" font-size="10.00">diis_UHF.cc</text>
</a>
</g>
</g>
<!-- Node1&#45;&gt;Node30 -->
<g id="edge29" class="edge"><title>Node1&#45;&gt;Node30</title>
<path fill="none" stroke="midnightblue" d="M2239.8,-59.5222C2296.56,-51.5748 2403.98,-36.0357 2495,-20 2497.98,-19.4747 2501.07,-18.9071 2504.17,-18.3212"/>
<polygon fill="midnightblue" stroke="midnightblue" points="2239.22,-56.0682 2229.8,-60.9162 2240.19,-63.0011 2239.22,-56.0682"/>
</g>
<!-- Node31 -->
<g id="node31" class="node"><title>Node31</title>
<g id="a_node31"><a xlink:href="dijabT2_8cc.html" target="_top" xlink:title="Enter brief description of file here.">
<polygon fill="none" stroke="black" points="2594,-0.5 2594,-19.5 2656,-19.5 2656,-0.5 2594,-0.5"/>
<text text-anchor="middle" x="2625" y="-7.5" font-family="Helvetica,sans-Serif" font-size="10.00">dijabT2.cc</text>
</a>
</g>
</g>
<!-- Node1&#45;&gt;Node31 -->
<g id="edge30" class="edge"><title>Node1&#45;&gt;Node31</title>
<path fill="none" stroke="midnightblue" d="M2239.64,-61.6646C2309.51,-55.4949 2459.02,-40.9875 2584,-20 2587.16,-19.469 2590.45,-18.8546 2593.72,-18.2013"/>
<polygon fill="midnightblue" stroke="midnightblue" points="2239.19,-58.1913 2229.53,-62.5486 2239.79,-65.1648 2239.19,-58.1913"/>
</g>
<!-- Node32 -->
<g id="node32" class="node"><title>Node32</title>
<g id="a_node32"><a xlink:href="DT2_8cc.html" target="_top" xlink:title="Enter brief description of file here.">
<polygon fill="none" stroke="black" points="2674.5,-0.5 2674.5,-19.5 2723.5,-19.5 2723.5,-0.5 2674.5,-0.5"/>
<text text-anchor="middle" x="2699" y="-7.5" font-family="Helvetica,sans-Serif" font-size="10.00">DT2.cc</text>
</a>
</g>
</g>
<!-- Node1&#45;&gt;Node32 -->
<g id="edge31" class="edge"><title>Node1&#45;&gt;Node32</title>
<path fill="none" stroke="midnightblue" d="M2239.82,-63.3265C2320.56,-59.4547 2509.14,-47.9784 2665,-20 2668.01,-19.4606 2671.13,-18.7885 2674.22,-18.0562"/>
<polygon fill="midnightblue" stroke="midnightblue" points="2239.43,-59.8406 2229.61,-63.8028 2239.76,-66.833 2239.43,-59.8406"/>
</g>
<!-- Node33 -->
<g id="node33" class="node"><title>Node33</title>
<g id="a_node33"><a xlink:href="bin_2ccenergy_2energy_8cc.html" target="_top" xlink:title="Enter brief description of file here.">
<polygon fill="none" stroke="black" points="2741.5,-0.5 2741.5,-19.5 2800.5,-19.5 2800.5,-0.5 2741.5,-0.5"/>
<text text-anchor="middle" x="2771" y="-7.5" font-family="Helvetica,sans-Serif" font-size="10.00">energy.cc</text>
</a>
</g>
</g>
<!-- Node1&#45;&gt;Node33 -->
<g id="edge32" class="edge"><title>Node1&#45;&gt;Node33</title>
<path fill="none" stroke="midnightblue" d="M2239.75,-63.5735C2328.51,-59.9656 2549.41,-48.6408 2732,-20 2735.02,-19.5262 2738.15,-18.9494 2741.27,-18.319"/>
<polygon fill="midnightblue" stroke="midnightblue" points="2239.44,-60.0827 2229.59,-63.9758 2239.72,-67.0772 2239.44,-60.0827"/>
</g>
<!-- Node34 -->
<g id="node34" class="node"><title>Node34</title>
<g id="a_node34"><a xlink:href="ET2_8cc.html" target="_top" xlink:title="Enter brief description of file here.">
<polygon fill="none" stroke="black" points="2819,-0.5 2819,-19.5 2867,-19.5 2867,-0.5 2819,-0.5"/>
<text text-anchor="middle" x="2843" y="-7.5" font-family="Helvetica,sans-Serif" font-size="10.00">ET2.cc</text>
</a>
</g>
</g>
<!-- Node1&#45;&gt;Node34 -->
<g id="edge33" class="edge"><title>Node1&#45;&gt;Node34</title>
<path fill="none" stroke="midnightblue" d="M2239.72,-64.6C2337.31,-63.0689 2596.4,-55.6778 2809,-20 2812.25,-19.4543 2815.64,-18.7384 2818.97,-17.9483"/>
<polygon fill="midnightblue" stroke="midnightblue" points="2239.65,-61.1005 2229.7,-64.7451 2239.75,-68.0998 2239.65,-61.1005"/>
</g>
<!-- Node35 -->
<g id="node35" class="node"><title>Node35</title>
<g id="a_node35"><a xlink:href="Fae_8cc.html" target="_top" xlink:title="Enter brief description of file here.">
<polygon fill="none" stroke="black" points="2885.5,-0.5 2885.5,-19.5 2932.5,-19.5 2932.5,-0.5 2885.5,-0.5"/>
<text text-anchor="middle" x="2909" y="-7.5" font-family="Helvetica,sans-Serif" font-size="10.00">Fae.cc</text>
</a>
</g>
</g>
<!-- Node1&#45;&gt;Node35 -->
<g id="edge34" class="edge"><title>Node1&#45;&gt;Node35</title>
<path fill="none" stroke="midnightblue" d="M2239.68,-65.1132C2344.45,-64.8194 2636.85,-60.1564 2876,-20 2879.05,-19.4886 2882.22,-18.8137 2885.33,-18.0627"/>
<polygon fill="midnightblue" stroke="midnightblue" points="2239.56,-61.6133 2229.56,-65.1293 2239.57,-68.6133 2239.56,-61.6133"/>
</g>
<!-- Node36 -->
<g id="node36" class="node"><title>Node36</title>
<g id="a_node36"><a xlink:href="FaetT2_8cc.html" target="_top" xlink:title="Enter brief description of file here.">
<polygon fill="none" stroke="black" points="2950.5,-0.5 2950.5,-19.5 3011.5,-19.5 3011.5,-0.5 2950.5,-0.5"/>
<text text-anchor="middle" x="2981" y="-7.5" font-family="Helvetica,sans-Serif" font-size="10.00">FaetT2.cc</text>
</a>
</g>
</g>
<!-- Node1&#45;&gt;Node36 -->
<g id="edge35" class="edge"><title>Node1&#45;&gt;Node36</title>
<path fill="none" stroke="midnightblue" d="M2239.94,-64.8241C2351.42,-63.8497 2675.22,-57.7204 2941,-20 2943.96,-19.5799 2947.03,-19.0554 2950.08,-18.4721"/>
<polygon fill="midnightblue" stroke="midnightblue" points="2239.79,-61.325 2229.82,-64.9032 2239.85,-68.3248 2239.79,-61.325"/>
</g>
<!-- Node37 -->
<g id="node37" class="node"><title>Node37</title>
<g id="a_node37"><a xlink:href="Fme_8cc.html" target="_top" xlink:title="Enter brief description of file here.">
<polygon fill="none" stroke="black" points="3030,-0.5 3030,-19.5 3080,-19.5 3080,-0.5 3030,-0.5"/>
<text text-anchor="middle" x="3055" y="-7.5" font-family="Helvetica,sans-Serif" font-size="10.00">Fme.cc</text>
</a>
</g>
</g>
<!-- Node1&#45;&gt;Node37 -->
<g id="edge36" class="edge"><title>Node1&#45;&gt;Node37</title>
<path fill="none" stroke="midnightblue" d="M2239.74,-65.5764C2358.82,-66.7146 2722.85,-65.8995 3020,-20 3023.22,-19.502 3026.58,-18.8349 3029.89,-18.088"/>
<polygon fill="midnightblue" stroke="midnightblue" points="2239.67,-62.0756 2229.63,-65.4692 2239.6,-69.0752 2239.67,-62.0756"/>
</g>
<!-- Node38 -->
<g id="node38" class="node"><title>Node38</title>
<g id="a_node38"><a xlink:href="Fmi_8cc.html" target="_top" xlink:title="Enter brief description of file here.">
<polygon fill="none" stroke="black" points="3098.5,-0.5 3098.5,-19.5 3145.5,-19.5 3145.5,-0.5 3098.5,-0.5"/>
<text text-anchor="middle" x="3122" y="-7.5" font-family="Helvetica,sans-Serif" font-size="10.00">Fmi.cc</text>
</a>
</g>
</g>
<!-- Node1&#45;&gt;Node38 -->
<g id="edge37" class="edge"><title>Node1&#45;&gt;Node38</title>
<path fill="none" stroke="midnightblue" d="M2239.88,-64.1243C2390.13,-60.6479 2921.9,-46.6939 3089,-20 3092.05,-19.5129 3095.22,-18.8523 3098.34,-18.1088"/>
<polygon fill="midnightblue" stroke="midnightblue" points="2239.65,-60.6286 2229.74,-64.3565 2239.81,-67.6267 2239.65,-60.6286"/>
</g>
<!-- Node39 -->
<g id="node39" class="node"><title>Node39</title>
<g id="a_node39"><a xlink:href="FmitT2_8cc.html" target="_top" xlink:title="Enter brief description of file here.">
<polygon fill="none" stroke="black" points="3163.5,-0.5 3163.5,-19.5 3224.5,-19.5 3224.5,-0.5 3163.5,-0.5"/>
<text text-anchor="middle" x="3194" y="-7.5" font-family="Helvetica,sans-Serif" font-size="10.00">FmitT2.cc</text>
</a>
</g>
</g>
<!-- Node1&#45;&gt;Node39 -->
<g id="edge38" class="edge"><title>Node1&#45;&gt;Node39</title>
<path fill="none" stroke="midnightblue" d="M2239.64,-64.0518C2396.34,-60.1604 2972.89,-44.4561 3154,-20 3156.96,-19.5999 3160.03,-19.0889 3163.09,-18.514"/>
<polygon fill="midnightblue" stroke="midnightblue" points="2239.42,-60.556 2229.51,-64.3013 2239.59,-67.5538 2239.42,-60.556"/>
</g>
<!-- Node40 -->
<g id="node40" class="node"><title>Node40</title>
<g id="a_node40"><a xlink:href="form__df__ints_8cc.html" target="_top" xlink:title="Enter brief description of file here.">
<polygon fill="none" stroke="black" points="3243,-0.5 3243,-19.5 3327,-19.5 3327,-0.5 3243,-0.5"/>
<text text-anchor="middle" x="3285" y="-7.5" font-family="Helvetica,sans-Serif" font-size="10.00">form_df_ints.cc</text>
</a>
</g>
</g>
<!-- Node1&#45;&gt;Node40 -->
<g id="edge39" class="edge"><title>Node1&#45;&gt;Node40</title>
<path fill="none" stroke="midnightblue" d="M2239.78,-65.0931C2377.66,-65.0276 2847.72,-61.5616 3233,-20 3236.19,-19.6561 3239.48,-19.238 3242.78,-18.7724"/>
<polygon fill="midnightblue" stroke="midnightblue" points="2239.69,-61.5932 2229.69,-65.0919 2239.69,-68.5932 2239.69,-61.5932"/>
</g>
<!-- Node41 -->
<g id="node41" class="node"><title>Node41</title>
<g id="a_node41"><a xlink:href="FT2_8cc.html" target="_top" xlink:title="Enter brief description of file here.">
<polygon fill="none" stroke="black" points="3345.5,-0.5 3345.5,-19.5 3392.5,-19.5 3392.5,-0.5 3345.5,-0.5"/>
<text text-anchor="middle" x="3369" y="-7.5" font-family="Helvetica,sans-Serif" font-size="10.00">FT2.cc</text>
</a>
</g>
</g>
<!-- Node1&#45;&gt;Node41 -->
<g id="edge40" class="edge"><title>Node1&#45;&gt;Node41</title>
<path fill="none" stroke="midnightblue" d="M2239.6,-64.6343C2414.41,-62.8352 3117.95,-53.6072 3336,-20 3339.05,-19.5296 3342.23,-18.879 3345.35,-18.1408"/>
<polygon fill="midnightblue" stroke="midnightblue" points="2239.52,-61.1348 2229.56,-64.7354 2239.59,-68.1344 2239.52,-61.1348"/>
</g>
<!-- Node42 -->
<g id="node42" class="node"><title>Node42</title>
<g id="a_node42"><a xlink:href="FT2__cc2_8cc.html" target="_top" xlink:title="Enter brief description of file here.">
<polygon fill="none" stroke="black" points="3411,-0.5 3411,-19.5 3479,-19.5 3479,-0.5 3411,-0.5"/>
<text text-anchor="middle" x="3445" y="-7.5" font-family="Helvetica,sans-Serif" font-size="10.00">FT2_cc2.cc</text>
</a>
</g>
</g>
<!-- Node1&#45;&gt;Node42 -->
<g id="edge41" class="edge"><title>Node1&#45;&gt;Node42</title>
<path fill="none" stroke="midnightblue" d="M2239.74,-64.3894C2420.78,-61.4731 3168.56,-47.9349 3401,-20 3404.25,-19.6092 3407.62,-19.1045 3410.98,-18.5336"/>
<polygon fill="midnightblue" stroke="midnightblue" points="2239.55,-60.8919 2229.61,-64.551 2239.66,-67.891 2239.55,-60.8919"/>
</g>
<!-- Node43 -->
<g id="node43" class="node"><title>Node43</title>
<g id="a_node43"><a xlink:href="ccenergy_2get__moinfo_8cc.html" target="_top" xlink:title="Enter brief description of file here.">
<polygon fill="none" stroke="black" points="3497,-0.5 3497,-19.5 3575,-19.5 3575,-0.5 3497,-0.5"/>
<text text-anchor="middle" x="3536" y="-7.5" font-family="Helvetica,sans-Serif" font-size="10.00">get_moinfo.cc</text>
</a>
</g>
</g>
<!-- Node1&#45;&gt;Node43 -->
<g id="edge42" class="edge"><title>Node1&#45;&gt;Node43</title>
<path fill="none" stroke="midnightblue" d="M2239.54,-64.4209C2428.09,-61.5367 3237.13,-47.7419 3488,-20 3490.87,-19.6832 3493.82,-19.2917 3496.78,-18.8511"/>
<polygon fill="midnightblue" stroke="midnightblue" points="2239.46,-60.9216 2229.52,-64.5728 2239.57,-67.9208 2239.46,-60.9216"/>
</g>
<!-- Node44 -->
<g id="node44" class="node"><title>Node44</title>
<g id="a_node44"><a xlink:href="bin_2ccenergy_2get__params_8cc.html" target="_top" xlink:title="Enter brief description of file here.">
<polygon fill="none" stroke="black" points="3593.5,-0.5 3593.5,-19.5 3674.5,-19.5 3674.5,-0.5 3593.5,-0.5"/>
<text text-anchor="middle" x="3634" y="-7.5" font-family="Helvetica,sans-Serif" font-size="10.00">get_params.cc</text>
</a>
</g>
</g>
<!-- Node1&#45;&gt;Node44 -->
<g id="edge43" class="edge"><title>Node1&#45;&gt;Node44</title>
<path fill="none" stroke="midnightblue" d="M2239.9,-64.4879C2437.56,-61.8309 3313.15,-48.6256 3584,-20 3587.07,-19.6755 3590.24,-19.2716 3593.41,-18.8159"/>
<polygon fill="midnightblue" stroke="midnightblue" points="2239.64,-60.9909 2229.69,-64.6238 2239.73,-67.9903 2239.64,-60.9909"/>
</g>
<!-- Node45 -->
<g id="node45" class="node"><title>Node45</title>
<g id="a_node45"><a xlink:href="ccenergy_2init__amps_8cc.html" target="_top" xlink:title="Enter brief description of file here.">
<polygon fill="none" stroke="black" points="3693,-0.5 3693,-19.5 3765,-19.5 3765,-0.5 3693,-0.5"/>
<text text-anchor="middle" x="3729" y="-7.5" font-family="Helvetica,sans-Serif" font-size="10.00">init_amps.cc</text>
</a>
</g>
</g>
<!-- Node1&#45;&gt;Node45 -->
<g id="edge44" class="edge"><title>Node1&#45;&gt;Node45</title>
<path fill="none" stroke="midnightblue" d="M2239.77,-64.6702C2445.6,-62.8298 3391.61,-52.7055 3683,-20 3686.23,-19.6369 3689.58,-19.1676 3692.93,-18.6341"/>
<polygon fill="midnightblue" stroke="midnightblue" points="2239.68,-61.1708 2229.71,-64.7588 2239.74,-68.1705 2239.68,-61.1708"/>
</g>
<!-- Node46 -->
<g id="node46" class="node"><title>Node46</title>
<g id="a_node46"><a xlink:href="bin_2ccenergy_2lmp2_8cc.html" target="_top" xlink:title="Enter brief description of file here.">
<polygon fill="none" stroke="black" points="3783.5,-0.5 3783.5,-19.5 3834.5,-19.5 3834.5,-0.5 3783.5,-0.5"/>
<text text-anchor="middle" x="3809" y="-7.5" font-family="Helvetica,sans-Serif" font-size="10.00">lmp2.cc</text>
</a>
</g>
</g>
<!-- Node1&#45;&gt;Node46 -->
<g id="edge45" class="edge"><title>Node1&#45;&gt;Node46</title>
<path fill="none" stroke="midnightblue" d="M2239.83,-65.064C2453.4,-65.2243 3464.71,-63.629 3774,-20 3776.98,-19.5794 3780.08,-19 3783.14,-18.3364"/>
<polygon fill="midnightblue" stroke="midnightblue" points="2239.71,-61.5639 2229.71,-65.0545 2239.7,-68.5639 2239.71,-61.5639"/>
</g>
<!-- Node47 -->
<g id="node47" class="node"><title>Node47</title>
<g id="a_node47"><a xlink:href="bin_2ccenergy_2local_8cc.html" target="_top" xlink:title="Enter brief description of file here.">
<polygon fill="none" stroke="black" points="3853,-0.5 3853,-19.5 3903,-19.5 3903,-0.5 3853,-0.5"/>
<text text-anchor="middle" x="3878" y="-7.5" font-family="Helvetica,sans-Serif" font-size="10.00">local.cc</text>
</a>
</g>
</g>
<!-- Node1&#45;&gt;Node47 -->
<g id="edge46" class="edge"><title>Node1&#45;&gt;Node47</title>
<path fill="none" stroke="midnightblue" d="M2239.82,-65.1196C2458.91,-65.594 3519.28,-65.4666 3843,-20 3846.23,-19.5462 3849.59,-18.9055 3852.9,-18.1724"/>
<polygon fill="midnightblue" stroke="midnightblue" points="2239.75,-61.6195 2229.74,-65.096 2239.74,-68.6195 2239.75,-61.6195"/>
</g>
<!-- Node48 -->
<g id="node48" class="node"><title>Node48</title>
<g id="a_node48"><a xlink:href="mp2__energy_8cc.html" target="_top" xlink:title="Enter brief description of file here.">
<polygon fill="none" stroke="black" points="3921.5,-0.5 3921.5,-19.5 4004.5,-19.5 4004.5,-0.5 3921.5,-0.5"/>
<text text-anchor="middle" x="3963" y="-7.5" font-family="Helvetica,sans-Serif" font-size="10.00">mp2_energy.cc</text>
</a>
</g>
</g>
<!-- Node1&#45;&gt;Node48 -->
<g id="edge47" class="edge"><title>Node1&#45;&gt;Node48</title>
<path fill="none" stroke="midnightblue" d="M2239.99,-64.7556C2464.71,-63.26 3572.37,-54.2397 3912,-20 3915.04,-19.6934 3918.17,-19.3094 3921.32,-18.8741"/>
<polygon fill="midnightblue" stroke="midnightblue" points="2239.64,-61.2577 2229.66,-64.8231 2239.69,-68.2576 2239.64,-61.2577"/>
</g>
<!-- Node49 -->
<g id="node49" class="node"><title>Node49</title>
<g id="a_node49"><a xlink:href="new__d1diag_8cc.html" target="_top" xlink:title="Enter brief description of file here.">
<polygon fill="none" stroke="black" points="4023,-0.5 4023,-19.5 4105,-19.5 4105,-0.5 4023,-0.5"/>
<text text-anchor="middle" x="4064" y="-7.5" font-family="Helvetica,sans-Serif" font-size="10.00">new_d1diag.cc</text>
</a>
</g>
</g>
<!-- Node1&#45;&gt;Node49 -->
<g id="edge48" class="edge"><title>Node1&#45;&gt;Node49</title>
<path fill="none" stroke="midnightblue" d="M2239.76,-64.8244C2471.69,-63.6775 3652,-56.1274 4013,-20 4016.22,-19.6777 4019.54,-19.268 4022.88,-18.802"/>
<polygon fill="midnightblue" stroke="midnightblue" points="2239.73,-61.3244 2229.75,-64.8728 2239.76,-68.3244 2239.73,-61.3244"/>
</g>
<!-- Node50 -->
<g id="node50" class="node"><title>Node50</title>
<g id="a_node50"><a xlink:href="pair__energies_8cc.html" target="_top" xlink:title="Enter brief description of file here.">
<polygon fill="none" stroke="black" points="4123,-0.5 4123,-19.5 4211,-19.5 4211,-0.5 4123,-0.5"/>
<text text-anchor="middle" x="4167" y="-7.5" font-family="Helvetica,sans-Serif" font-size="10.00">pair_energies.cc</text>
</a>
</g>
</g>
<!-- Node1&#45;&gt;Node50 -->
<g id="edge49" class="edge"><title>Node1&#45;&gt;Node50</title>
<path fill="none" stroke="midnightblue" d="M2240.03,-64.8486C2480.14,-63.821 3731.74,-56.755 4114,-20 4116.88,-19.7231 4119.84,-19.3813 4122.82,-18.9943"/>
<polygon fill="midnightblue" stroke="midnightblue" points="2239.67,-61.35 2229.68,-64.8918 2239.7,-68.3499 2239.67,-61.35"/>
</g>
</g>
</svg>
