<?xml version="1.0" encoding="UTF-8" standalone="no"?>
<!DOCTYPE svg PUBLIC "-//W3C//DTD SVG 1.1//EN"
 "http://www.w3.org/Graphics/SVG/1.1/DTD/svg11.dtd">
<!-- Generated by graphviz version 2.30.1 (20140110.0959)
 -->
<!-- Title: halftrans.cc Pages: 1 -->
<!--zoomable 320 -->
<svg id="main" version="1.1" xmlns="http://www.w3.org/2000/svg" xmlns:xlink="http://www.w3.org/1999/xlink" xml:space="preserve" onload="init(evt)">
        <defs>
                <circle id="rim" cx="0" cy="0" r="7"/>
                <circle id="rim2" cx="0" cy="0" r="3.5"/>
                <g id="zoomPlus">
                        <use xlink:href="#rim" fill="#404040">
                                <set attributeName="fill" to="#808080" begin="zoomplus.mouseover" end="zoomplus.mouseout"/>
                        </use>
                        <path d="M-4,0h8M0,-4v8" fill="none" stroke="white" stroke-width="1.5" pointer-events="none"/>
                </g>
                <g id="zoomMin">
                        <use xlink:href="#rim" fill="#404040">
                                <set attributeName="fill" to="#808080" begin="zoomminus.mouseover" end="zoomminus.mouseout"/>
                        </use>
                        <path d="M-4,0h8" fill="none" stroke="white" stroke-width="1.5" pointer-events="none"/>
                </g>
                <g id="dirArrow">
                        <path fill="none" stroke="white" stroke-width="1.5" d="M0,-3.0v7 M-2.5,-0.5L0,-3.0L2.5,-0.5"/>
                </g>
               <g id="resetDef">
                       <use xlink:href="#rim2" fill="#404040">
                               <set attributeName="fill" to="#808080" begin="reset.mouseover" end="reset.mouseout"/>
                       </use>
               </g>
        </defs>

<script type="text/javascript">
var viewWidth = 1417;
var viewHeight = 320;
var sectionId = 'dynsection-0';
</script>
<script xlink:href="svgpan.js"/>
<svg id="graph" class="graph">
<g id="viewport">
<title>halftrans.cc</title>
<!-- Node1 -->
<g id="node1" class="node"><title>Node1</title>
<polygon fill="#bfbfbf" stroke="black" points="832.236,-292.5 832.236,-311.5 900.236,-311.5 900.236,-292.5 832.236,-292.5"/>
<text text-anchor="middle" x="866.236" y="-299.5" font-family="Helvetica,sans-Serif" font-size="10.00">halftrans.cc</text>
</g>
<!-- Node2 -->
<g id="node2" class="node"><title>Node2</title>
<g id="a_node2"><a xlink:href="lib_2libdpd_2dpd_8h.html" target="_top" xlink:title="Enter brief description of file here.">
<polygon fill="none" stroke="black" points="1092.74,-180.5 1092.74,-199.5 1161.74,-199.5 1161.74,-180.5 1092.74,-180.5"/>
<text text-anchor="middle" x="1127.24" y="-187.5" font-family="Helvetica,sans-Serif" font-size="10.00">libdpd/dpd.h</text>
</a>
</g>
</g>
<!-- Node1&#45;&gt;Node2 -->
<g id="edge1" class="edge"><title>Node1&#45;&gt;Node2</title>
<path fill="none" stroke="midnightblue" d="M886.716,-292.368C932.647,-273.01 1044.04,-226.065 1097.56,-203.507"/>
<polygon fill="midnightblue" stroke="midnightblue" points="1099,-206.7 1106.85,-199.591 1096.28,-200.25 1099,-206.7"/>
</g>
<!-- Node8 -->
<g id="node8" class="node"><title>Node8</title>
<g id="a_node8"><a xlink:href="qt_8h.html" target="_top" xlink:title="Header file for the Quantum Trio LibraryDavid Sherrill 1994.">
<polygon fill="none" stroke="black" points="1061.24,-62.5 1061.24,-81.5 1115.24,-81.5 1115.24,-62.5 1061.24,-62.5"/>
<text text-anchor="middle" x="1088.24" y="-69.5" font-family="Helvetica,sans-Serif" font-size="10.00">libqt/qt.h</text>
</a>
</g>
</g>
<!-- Node1&#45;&gt;Node8 -->
<g id="edge7" class="edge"><title>Node1&#45;&gt;Node8</title>
<path fill="none" stroke="midnightblue" d="M865.957,-292.393C865.526,-262.835 868.574,-165.044 925.236,-124 930.493,-120.192 1004.86,-97.7217 1051.3,-83.9084"/>
<polygon fill="midnightblue" stroke="midnightblue" points="1052.45,-87.2196 1061.04,-81.0183 1050.46,-80.5091 1052.45,-87.2196"/>
</g>
<!-- Node10 -->
<g id="node10" class="node"><title>Node10</title>
<g id="a_node10"><a xlink:href="ccenergy_2globals_8h.html" target="_top" xlink:title="Enter brief description of file here.">
<polygon fill="none" stroke="black" points="782.236,-236.5 782.236,-255.5 838.236,-255.5 838.236,-236.5 782.236,-236.5"/>
<text text-anchor="middle" x="810.236" y="-243.5" font-family="Helvetica,sans-Serif" font-size="10.00">globals.h</text>
</a>
</g>
</g>
<!-- Node1&#45;&gt;Node10 -->
<g id="edge10" class="edge"><title>Node1&#45;&gt;Node10</title>
<path fill="none" stroke="midnightblue" d="M857.239,-292.324C849.042,-284.42 836.73,-272.548 826.764,-262.938"/>
<polygon fill="midnightblue" stroke="midnightblue" points="829.025,-260.256 819.397,-255.834 824.166,-265.295 829.025,-260.256"/>
</g>
<!-- Node3 -->
<g id="node3" class="node"><title>Node3</title>
<polygon fill="none" stroke="#bfbfbf" points="1160.74,-0.5 1160.74,-19.5 1203.74,-19.5 1203.74,-0.5 1160.74,-0.5"/>
<text text-anchor="middle" x="1182.24" y="-7.5" font-family="Helvetica,sans-Serif" font-size="10.00">cstdio</text>
</g>
<!-- Node2&#45;&gt;Node3 -->
<g id="edge2" class="edge"><title>Node2&#45;&gt;Node3</title>
<path fill="none" stroke="midnightblue" d="M1152.29,-180.447C1187.23,-166.998 1249.23,-137.235 1275.24,-88 1281.88,-75.4245 1282.79,-68.0493 1275.24,-56 1268.12,-44.6473 1237.63,-31.2175 1213.47,-22.0025"/>
<polygon fill="midnightblue" stroke="midnightblue" points="1214.52,-18.6578 1203.93,-18.4501 1212.08,-25.2182 1214.52,-18.6578"/>
</g>
<!-- Node4 -->
<g id="node4" class="node"><title>Node4</title>
<g id="a_node4"><a xlink:href="psifiles_8h_source.html" target="_top" xlink:title="psifiles.h">
<polygon fill="none" stroke="black" points="1071.24,-124.5 1071.24,-143.5 1127.24,-143.5 1127.24,-124.5 1071.24,-124.5"/>
<text text-anchor="middle" x="1099.24" y="-131.5" font-family="Helvetica,sans-Serif" font-size="10.00">psifiles.h</text>
</a>
</g>
</g>
<!-- Node2&#45;&gt;Node4 -->
<g id="edge3" class="edge"><title>Node2&#45;&gt;Node4</title>
<path fill="none" stroke="midnightblue" d="M1122.61,-180.083C1118.78,-172.691 1113.21,-161.953 1108.47,-152.811"/>
<polygon fill="midnightblue" stroke="midnightblue" points="1111.48,-151.018 1103.77,-143.751 1105.27,-154.24 1111.48,-151.018"/>
</g>
<!-- Node5 -->
<g id="node5" class="node"><title>Node5</title>
<g id="a_node5"><a xlink:href="libpsio_2config_8h_source.html" target="_top" xlink:title="libpsio/config.h">
<polygon fill="none" stroke="black" points="1327.24,-124.5 1327.24,-143.5 1409.24,-143.5 1409.24,-124.5 1327.24,-124.5"/>
<text text-anchor="middle" x="1368.24" y="-131.5" font-family="Helvetica,sans-Serif" font-size="10.00">libpsio/config.h</text>
</a>
</g>
</g>
<!-- Node2&#45;&gt;Node5 -->
<g id="edge4" class="edge"><title>Node2&#45;&gt;Node5</title>
<path fill="none" stroke="midnightblue" d="M1161.77,-181.263C1203.36,-171.944 1273.46,-156.236 1320.28,-145.745"/>
<polygon fill="midnightblue" stroke="midnightblue" points="1321.2,-149.126 1330.19,-143.524 1319.67,-142.296 1321.2,-149.126"/>
</g>
<!-- Node6 -->
<g id="node6" class="node"><title>Node6</title>
<polygon fill="none" stroke="#bfbfbf" points="945.236,-124.5 945.236,-143.5 1053.24,-143.5 1053.24,-124.5 945.236,-124.5"/>
<text text-anchor="middle" x="999.236" y="-131.5" font-family="Helvetica,sans-Serif" font-size="10.00">boost/shared_ptr.hpp</text>
</g>
<!-- Node2&#45;&gt;Node6 -->
<g id="edge5" class="edge"><title>Node2&#45;&gt;Node6</title>
<path fill="none" stroke="midnightblue" d="M1106.95,-180.444C1085.89,-171.557 1052.72,-157.563 1028.75,-147.451"/>
<polygon fill="midnightblue" stroke="midnightblue" points="1030,-144.179 1019.42,-143.516 1027.28,-150.628 1030,-144.179"/>
</g>
<!-- Node7 -->
<g id="node7" class="node"><title>Node7</title>
<polygon fill="none" stroke="#bfbfbf" points="1011.24,-0.5 1011.24,-19.5 1055.24,-19.5 1055.24,-0.5 1011.24,-0.5"/>
<text text-anchor="middle" x="1033.24" y="-7.5" font-family="Helvetica,sans-Serif" font-size="10.00">vector</text>
</g>
<!-- Node2&#45;&gt;Node7 -->
<g id="edge6" class="edge"><title>Node2&#45;&gt;Node7</title>
<path fill="none" stroke="midnightblue" d="M1130.1,-180.452C1137.17,-157.604 1152.91,-94.2584 1124.24,-56 1109.86,-36.816 1085.07,-25.314 1064.99,-18.7466"/>
<polygon fill="midnightblue" stroke="midnightblue" points="1065.88,-15.3577 1055.29,-15.8272 1063.86,-22.0607 1065.88,-15.3577"/>
</g>
<!-- Node8&#45;&gt;Node3 -->
<g id="edge8" class="edge"><title>Node8&#45;&gt;Node3</title>
<path fill="none" stroke="midnightblue" d="M1101.7,-62.4035C1116.92,-52.6905 1141.92,-36.7319 1160.04,-25.1697"/>
<polygon fill="midnightblue" stroke="midnightblue" points="1162.25,-27.9112 1168.79,-19.5806 1158.48,-22.0108 1162.25,-27.9112"/>
</g>
<!-- Node9 -->
<g id="node9" class="node"><title>Node9</title>
<polygon fill="none" stroke="#bfbfbf" points="396.736,-0.5 396.736,-19.5 437.736,-19.5 437.736,-0.5 396.736,-0.5"/>
<text text-anchor="middle" x="417.236" y="-7.5" font-family="Helvetica,sans-Serif" font-size="10.00">string</text>
</g>
<!-- Node8&#45;&gt;Node9 -->
<g id="edge9" class="edge"><title>Node8&#45;&gt;Node9</title>
<path fill="none" stroke="midnightblue" d="M1060.94,-64.7078C1046.78,-61.6549 1029.15,-58.1844 1013.24,-56 798.098,-26.4767 536.418,-15.1507 448.056,-11.9996"/>
<polygon fill="midnightblue" stroke="midnightblue" points="448.035,-8.49689 437.92,-11.6473 447.792,-15.4927 448.035,-8.49689"/>
</g>
<!-- Node10&#45;&gt;Node4 -->
<g id="edge11" class="edge"><title>Node10&#45;&gt;Node4</title>
<path fill="none" stroke="midnightblue" d="M838.244,-241.308C875.812,-235.689 944.064,-223.12 998.236,-200 1029.17,-186.797 1061.22,-164.428 1080.7,-149.684"/>
<polygon fill="midnightblue" stroke="midnightblue" points="1082.93,-152.384 1088.71,-143.507 1078.66,-146.839 1082.93,-152.384"/>
</g>
<!-- Node11 -->
<g id="node11" class="node"><title>Node11</title>
<g id="a_node11"><a xlink:href="psi4-dec_8h_source.html" target="_top" xlink:title="psi4&#45;dec.h">
<polygon fill="none" stroke="black" points="414.236,-180.5 414.236,-199.5 476.236,-199.5 476.236,-180.5 414.236,-180.5"/>
<text text-anchor="middle" x="445.236" y="-187.5" font-family="Helvetica,sans-Serif" font-size="10.00">psi4&#45;dec.h</text>
</a>
</g>
</g>
<!-- Node10&#45;&gt;Node11 -->
<g id="edge12" class="edge"><title>Node10&#45;&gt;Node11</title>
<path fill="none" stroke="midnightblue" d="M782.201,-240.852C718.268,-231.394 561.438,-208.192 486.461,-197.099"/>
<polygon fill="midnightblue" stroke="midnightblue" points="486.848,-193.618 476.443,-195.617 485.823,-200.543 486.848,-193.618"/>
</g>
<!-- Node10&#45;&gt;Node9 -->
<g id="edge46" class="edge"><title>Node10&#45;&gt;Node9</title>
<path fill="none" stroke="midnightblue" d="M781.925,-244.757C657.404,-243.183 159.118,-231.434 35.236,-144 12.1676,-127.719 12.1094,-115.386 5.23598,-88 1.77381,-74.2056 -4.259,-66.5885 5.23598,-56 30.6243,-27.6877 295.046,-15.4483 386.398,-12.0434"/>
<polygon fill="midnightblue" stroke="midnightblue" points="386.786,-15.5317 396.652,-11.6715 386.532,-8.5363 386.786,-15.5317"/>
</g>
<!-- Node33 -->
<g id="node33" class="node"><title>Node33</title>
<g id="a_node33"><a xlink:href="libciomr_8h_source.html" target="_top" xlink:title="libciomr/libciomr.h">
<polygon fill="none" stroke="black" points="894.736,-180.5 894.736,-199.5 989.736,-199.5 989.736,-180.5 894.736,-180.5"/>
<text text-anchor="middle" x="942.236" y="-187.5" font-family="Helvetica,sans-Serif" font-size="10.00">libciomr/libciomr.h</text>
</a>
</g>
</g>
<!-- Node10&#45;&gt;Node33 -->
<g id="edge47" class="edge"><title>Node10&#45;&gt;Node33</title>
<path fill="none" stroke="midnightblue" d="M831.152,-236.444C852.972,-227.517 887.386,-213.439 912.128,-203.317"/>
<polygon fill="midnightblue" stroke="midnightblue" points="913.488,-206.542 921.418,-199.516 910.837,-200.063 913.488,-206.542"/>
</g>
<!-- Node11&#45;&gt;Node6 -->
<g id="edge13" class="edge"><title>Node11&#45;&gt;Node6</title>
<path fill="none" stroke="midnightblue" d="M476.609,-185.942C564.685,-177.357 815.558,-152.904 934.788,-141.282"/>
<polygon fill="midnightblue" stroke="midnightblue" points="935.257,-144.753 944.87,-140.299 934.577,-137.786 935.257,-144.753"/>
</g>
<!-- Node12 -->
<g id="node12" class="node"><title>Node12</title>
<polygon fill="none" stroke="#bfbfbf" points="191.236,-62.5 191.236,-81.5 323.236,-81.5 323.236,-62.5 191.236,-62.5"/>
<text text-anchor="middle" x="257.236" y="-69.5" font-family="Helvetica,sans-Serif" font-size="10.00">boost/current_function.hpp</text>
</g>
<!-- Node11&#45;&gt;Node12 -->
<g id="edge14" class="edge"><title>Node11&#45;&gt;Node12</title>
<path fill="none" stroke="midnightblue" d="M431.412,-180.47C399.225,-160.61 319.035,-111.131 279.706,-86.8643"/>
<polygon fill="midnightblue" stroke="midnightblue" points="281.429,-83.8147 271.08,-81.5423 277.753,-89.772 281.429,-83.8147"/>
</g>
<!-- Node11&#45;&gt;Node9 -->
<g id="edge15" class="edge"><title>Node11&#45;&gt;Node9</title>
<path fill="none" stroke="midnightblue" d="M414.108,-187.696C336.161,-184.042 134.523,-172.075 74.236,-144 41.1687,-128.601 28.7738,-121.455 14.236,-88 8.56774,-74.9561 4.75376,-66.6 14.236,-56 38.9866,-28.3319 296.532,-15.7082 386.457,-12.1207"/>
<polygon fill="midnightblue" stroke="midnightblue" points="386.709,-15.6136 396.566,-11.7275 386.437,-8.61888 386.709,-15.6136"/>
</g>
<!-- Node13 -->
<g id="node13" class="node"><title>Node13</title>
<polygon fill="none" stroke="#bfbfbf" points="83.736,-124.5 83.736,-143.5 112.736,-143.5 112.736,-124.5 83.736,-124.5"/>
<text text-anchor="middle" x="98.236" y="-131.5" font-family="Helvetica,sans-Serif" font-size="10.00">list</text>
</g>
<!-- Node11&#45;&gt;Node13 -->
<g id="edge16" class="edge"><title>Node11&#45;&gt;Node13</title>
<path fill="none" stroke="midnightblue" d="M413.936,-187.104C357.27,-183.15 233.962,-172.155 123.158,-144.018"/>
<polygon fill="midnightblue" stroke="midnightblue" points="123.72,-140.548 113.162,-141.423 121.962,-147.324 123.72,-140.548"/>
</g>
<!-- Node14 -->
<g id="node14" class="node"><title>Node14</title>
<polygon fill="none" stroke="#bfbfbf" points="633.736,-62.5 633.736,-81.5 668.736,-81.5 668.736,-62.5 633.736,-62.5"/>
<text text-anchor="middle" x="651.236" y="-69.5" font-family="Helvetica,sans-Serif" font-size="10.00">map</text>
</g>
<!-- Node11&#45;&gt;Node14 -->
<g id="edge17" class="edge"><title>Node11&#45;&gt;Node14</title>
<path fill="none" stroke="midnightblue" d="M460.384,-180.47C495.801,-160.527 584.262,-110.713 627.158,-86.5584"/>
<polygon fill="midnightblue" stroke="midnightblue" points="629.07,-89.4987 636.066,-81.5423 625.635,-83.3992 629.07,-89.4987"/>
</g>
<!-- Node15 -->
<g id="node15" class="node"><title>Node15</title>
<g id="a_node15"><a xlink:href="liboptions_8h_source.html" target="_top" xlink:title="liboptions/liboptions.h">
<polygon fill="none" stroke="black" points="716.236,-124.5 716.236,-143.5 826.236,-143.5 826.236,-124.5 716.236,-124.5"/>
<text text-anchor="middle" x="771.236" y="-131.5" font-family="Helvetica,sans-Serif" font-size="10.00">liboptions/liboptions.h</text>
</a>
</g>
</g>
<!-- Node11&#45;&gt;Node15 -->
<g id="edge18" class="edge"><title>Node11&#45;&gt;Node15</title>
<path fill="none" stroke="midnightblue" d="M476.494,-183.822C530.113,-174.941 640.54,-156.649 709.959,-145.15"/>
<polygon fill="midnightblue" stroke="midnightblue" points="710.599,-148.592 719.892,-143.505 709.455,-141.686 710.599,-148.592"/>
</g>
<!-- Node24 -->
<g id="node24" class="node"><title>Node24</title>
<g id="a_node24"><a xlink:href="include_2exception_8h_source.html" target="_top" xlink:title="exception.h">
<polygon fill="none" stroke="black" points="411.736,-124.5 411.736,-143.5 478.736,-143.5 478.736,-124.5 411.736,-124.5"/>
<text text-anchor="middle" x="445.236" y="-131.5" font-family="Helvetica,sans-Serif" font-size="10.00">exception.h</text>
</a>
</g>
</g>
<!-- Node11&#45;&gt;Node24 -->
<g id="edge33" class="edge"><title>Node11&#45;&gt;Node24</title>
<path fill="none" stroke="midnightblue" d="M445.236,-180.083C445.236,-173.006 445.236,-162.861 445.236,-153.986"/>
<polygon fill="midnightblue" stroke="midnightblue" points="448.736,-153.751 445.236,-143.751 441.736,-153.751 448.736,-153.751"/>
</g>
<!-- Node29 -->
<g id="node29" class="node"><title>Node29</title>
<g id="a_node29"><a xlink:href="typedefs_8h_source.html" target="_top" xlink:title="libmints/typedefs.h">
<polygon fill="none" stroke="black" points="130.736,-124.5 130.736,-143.5 229.736,-143.5 229.736,-124.5 130.736,-124.5"/>
<text text-anchor="middle" x="180.236" y="-131.5" font-family="Helvetica,sans-Serif" font-size="10.00">libmints/typedefs.h</text>
</a>
</g>
</g>
<!-- Node11&#45;&gt;Node29 -->
<g id="edge39" class="edge"><title>Node11&#45;&gt;Node29</title>
<path fill="none" stroke="midnightblue" d="M414.058,-182.647C369.328,-173.532 286.386,-156.631 232.269,-145.603"/>
<polygon fill="midnightblue" stroke="midnightblue" points="232.68,-142.115 222.183,-143.548 231.282,-148.974 232.68,-142.115"/>
</g>
<!-- Node15&#45;&gt;Node9 -->
<g id="edge19" class="edge"><title>Node15&#45;&gt;Node9</title>
<path fill="none" stroke="midnightblue" d="M760.689,-124.378C749.614,-115.323 731.696,-100.667 716.236,-88 698.893,-73.7899 697.623,-65.3315 677.236,-56 600.011,-20.6529 498.276,-12.9016 448.035,-11.3147"/>
<polygon fill="midnightblue" stroke="midnightblue" points="447.922,-7.81081 437.837,-11.0565 447.745,-14.8086 447.922,-7.81081"/>
</g>
<!-- Node15&#45;&gt;Node7 -->
<g id="edge20" class="edge"><title>Node15&#45;&gt;Node7</title>
<path fill="none" stroke="midnightblue" d="M826.502,-125.89C893.647,-116.769 999.696,-100.62 1013.24,-88 1029.15,-73.1679 1033.05,-47.4407 1033.7,-29.8387"/>
<polygon fill="midnightblue" stroke="midnightblue" points="1037.2,-29.6578 1033.75,-19.6411 1030.2,-29.6241 1037.2,-29.6578"/>
</g>
<!-- Node15&#45;&gt;Node14 -->
<g id="edge21" class="edge"><title>Node15&#45;&gt;Node14</title>
<path fill="none" stroke="midnightblue" d="M754.043,-124.403C733.993,-114.379 700.637,-97.7006 677.376,-86.0699"/>
<polygon fill="midnightblue" stroke="midnightblue" points="678.907,-82.9223 668.397,-81.5806 675.776,-89.1833 678.907,-82.9223"/>
</g>
<!-- Node16 -->
<g id="node16" class="node"><title>Node16</title>
<polygon fill="none" stroke="#bfbfbf" points="725.736,-62.5 725.736,-81.5 792.736,-81.5 792.736,-62.5 725.736,-62.5"/>
<text text-anchor="middle" x="759.236" y="-69.5" font-family="Helvetica,sans-Serif" font-size="10.00">exception.h</text>
</g>
<!-- Node15&#45;&gt;Node16 -->
<g id="edge22" class="edge"><title>Node15&#45;&gt;Node16</title>
<path fill="none" stroke="midnightblue" d="M769.517,-124.403C767.806,-115.849 765.126,-102.45 762.931,-91.4762"/>
<polygon fill="midnightblue" stroke="midnightblue" points="766.345,-90.7 760.952,-81.5806 759.481,-92.0728 766.345,-90.7"/>
</g>
<!-- Node17 -->
<g id="node17" class="node"><title>Node17</title>
<g id="a_node17"><a xlink:href="libutil_8h_source.html" target="_top" xlink:title="libutil/libutil.h">
<polygon fill="none" stroke="black" points="931.736,-62.5 931.736,-81.5 1004.74,-81.5 1004.74,-62.5 931.736,-62.5"/>
<text text-anchor="middle" x="968.236" y="-69.5" font-family="Helvetica,sans-Serif" font-size="10.00">libutil/libutil.h</text>
</a>
</g>
</g>
<!-- Node15&#45;&gt;Node17 -->
<g id="edge23" class="edge"><title>Node15&#45;&gt;Node17</title>
<path fill="none" stroke="midnightblue" d="M800.817,-124.427C831.309,-115.534 880.194,-101.117 922.236,-88 925.626,-86.9422 929.152,-85.8246 932.675,-84.6959"/>
<polygon fill="midnightblue" stroke="midnightblue" points="934.045,-87.9314 942.484,-81.5257 931.893,-81.2706 934.045,-87.9314"/>
</g>
<!-- Node19 -->
<g id="node19" class="node"><title>Node19</title>
<g id="a_node19"><a xlink:href="libutil_2ref_8h_source.html" target="_top" xlink:title="libutil/ref.h">
<polygon fill="none" stroke="black" points="1171.24,-62.5 1171.24,-81.5 1233.24,-81.5 1233.24,-62.5 1171.24,-62.5"/>
<text text-anchor="middle" x="1202.24" y="-69.5" font-family="Helvetica,sans-Serif" font-size="10.00">libutil/ref.h</text>
</a>
</g>
</g>
<!-- Node15&#45;&gt;Node19 -->
<g id="edge27" class="edge"><title>Node15&#45;&gt;Node19</title>
<path fill="none" stroke="midnightblue" d="M826.42,-127.058C896.024,-119.313 1019.3,-104.761 1124.24,-88 1136.24,-86.0822 1149.23,-83.7061 1161.1,-81.4148"/>
<polygon fill="midnightblue" stroke="midnightblue" points="1162.05,-84.7952 1171.19,-79.4368 1160.71,-77.9259 1162.05,-84.7952"/>
</g>
<!-- Node23 -->
<g id="node23" class="node"><title>Node23</title>
<polygon fill="none" stroke="#bfbfbf" points="811.236,-57 811.236,-87 913.236,-87 913.236,-57 811.236,-57"/>
<text text-anchor="start" x="819.236" y="-75" font-family="Helvetica,sans-Serif" font-size="10.00">boost/python/object</text>
<text text-anchor="middle" x="862.236" y="-64" font-family="Helvetica,sans-Serif" font-size="10.00">_fwd.hpp</text>
</g>
<!-- Node15&#45;&gt;Node23 -->
<g id="edge32" class="edge"><title>Node15&#45;&gt;Node23</title>
<path fill="none" stroke="midnightblue" d="M784.274,-124.403C796.714,-116.201 815.909,-103.545 832.139,-92.8441"/>
<polygon fill="midnightblue" stroke="midnightblue" points="834.367,-95.5675 840.789,-87.1408 830.514,-89.7234 834.367,-95.5675"/>
</g>
<!-- Node17&#45;&gt;Node9 -->
<g id="edge24" class="edge"><title>Node17&#45;&gt;Node9</title>
<path fill="none" stroke="midnightblue" d="M945.58,-62.4856C938.228,-60.0278 929.971,-57.5845 922.236,-56 745.58,-19.814 528.26,-12.7257 448.489,-11.3377"/>
<polygon fill="midnightblue" stroke="midnightblue" points="448.218,-7.83319 438.164,-11.1773 448.109,-14.8323 448.218,-7.83319"/>
</g>
<!-- Node17&#45;&gt;Node7 -->
<g id="edge25" class="edge"><title>Node17&#45;&gt;Node7</title>
<path fill="none" stroke="midnightblue" d="M977.549,-62.4035C987.685,-53.047 1004.1,-37.8948 1016.49,-26.4599"/>
<polygon fill="midnightblue" stroke="midnightblue" points="1018.97,-28.9352 1023.94,-19.5806 1014.22,-23.7916 1018.97,-28.9352"/>
</g>
<!-- Node18 -->
<g id="node18" class="node"><title>Node18</title>
<polygon fill="none" stroke="#bfbfbf" points="931.236,-0.5 931.236,-19.5 993.236,-19.5 993.236,-0.5 931.236,-0.5"/>
<text text-anchor="middle" x="962.236" y="-7.5" font-family="Helvetica,sans-Serif" font-size="10.00">sys/time.h</text>
</g>
<!-- Node17&#45;&gt;Node18 -->
<g id="edge26" class="edge"><title>Node17&#45;&gt;Node18</title>
<path fill="none" stroke="midnightblue" d="M967.376,-62.4035C966.53,-53.9381 965.209,-40.7283 964.118,-29.8199"/>
<polygon fill="midnightblue" stroke="midnightblue" points="967.572,-29.1827 963.094,-19.5806 960.607,-29.8793 967.572,-29.1827"/>
</g>
<!-- Node20 -->
<g id="node20" class="node"><title>Node20</title>
<polygon fill="none" stroke="#bfbfbf" points="1093.74,-0.5 1093.74,-19.5 1142.74,-19.5 1142.74,-0.5 1093.74,-0.5"/>
<text text-anchor="middle" x="1118.24" y="-7.5" font-family="Helvetica,sans-Serif" font-size="10.00">cstddef</text>
</g>
<!-- Node19&#45;&gt;Node20 -->
<g id="edge28" class="edge"><title>Node19&#45;&gt;Node20</title>
<path fill="none" stroke="midnightblue" d="M1190.2,-62.4035C1176.73,-52.7797 1154.67,-37.0242 1138.52,-25.4891"/>
<polygon fill="midnightblue" stroke="midnightblue" points="1140.42,-22.5449 1130.25,-19.5806 1136.35,-28.2411 1140.42,-22.5449"/>
</g>
<!-- Node19&#45;&gt;Node3 -->
<g id="edge29" class="edge"><title>Node19&#45;&gt;Node3</title>
<path fill="none" stroke="midnightblue" d="M1199.37,-62.4035C1196.49,-53.7599 1191.96,-40.17 1188.28,-29.1341"/>
<polygon fill="midnightblue" stroke="midnightblue" points="1191.58,-27.9606 1185.1,-19.5806 1184.94,-30.1742 1191.58,-27.9606"/>
</g>
<!-- Node21 -->
<g id="node21" class="node"><title>Node21</title>
<polygon fill="none" stroke="#bfbfbf" points="1221.74,-0.5 1221.74,-19.5 1266.74,-19.5 1266.74,-0.5 1221.74,-0.5"/>
<text text-anchor="middle" x="1244.24" y="-7.5" font-family="Helvetica,sans-Serif" font-size="10.00">cstdlib</text>
</g>
<!-- Node19&#45;&gt;Node21 -->
<g id="edge30" class="edge"><title>Node19&#45;&gt;Node21</title>
<path fill="none" stroke="midnightblue" d="M1208.25,-62.4035C1214.55,-53.4034 1224.61,-39.0408 1232.49,-27.7824"/>
<polygon fill="midnightblue" stroke="midnightblue" points="1235.36,-29.7801 1238.23,-19.5806 1229.63,-25.7658 1235.36,-29.7801"/>
</g>
<!-- Node22 -->
<g id="node22" class="node"><title>Node22</title>
<polygon fill="none" stroke="#bfbfbf" points="1285.24,-0.5 1285.24,-19.5 1337.24,-19.5 1337.24,-0.5 1285.24,-0.5"/>
<text text-anchor="middle" x="1311.24" y="-7.5" font-family="Helvetica,sans-Serif" font-size="10.00">assert.h</text>
</g>
<!-- Node19&#45;&gt;Node22 -->
<g id="edge31" class="edge"><title>Node19&#45;&gt;Node22</title>
<path fill="none" stroke="midnightblue" d="M1217.85,-62.4035C1235.82,-52.5123 1265.56,-36.1442 1286.64,-24.5378"/>
<polygon fill="midnightblue" stroke="midnightblue" points="1288.58,-27.4691 1295.65,-19.5806 1285.2,-21.3367 1288.58,-27.4691"/>
</g>
<!-- Node25 -->
<g id="node25" class="node"><title>Node25</title>
<polygon fill="none" stroke="#bfbfbf" points="556.736,-62.5 556.736,-81.5 615.736,-81.5 615.736,-62.5 556.736,-62.5"/>
<text text-anchor="middle" x="586.236" y="-69.5" font-family="Helvetica,sans-Serif" font-size="10.00">exception</text>
</g>
<!-- Node24&#45;&gt;Node25 -->
<g id="edge34" class="edge"><title>Node24&#45;&gt;Node25</title>
<path fill="none" stroke="midnightblue" d="M465.438,-124.403C489.31,-114.245 529.238,-97.2547 556.609,-85.6074"/>
<polygon fill="midnightblue" stroke="midnightblue" points="558.241,-88.7167 566.072,-81.5806 555.5,-82.2757 558.241,-88.7167"/>
</g>
<!-- Node26 -->
<g id="node26" class="node"><title>Node26</title>
<polygon fill="none" stroke="#bfbfbf" points="341.736,-62.5 341.736,-81.5 400.736,-81.5 400.736,-62.5 341.736,-62.5"/>
<text text-anchor="middle" x="371.236" y="-69.5" font-family="Helvetica,sans-Serif" font-size="10.00">stdexcept</text>
</g>
<!-- Node24&#45;&gt;Node26 -->
<g id="edge35" class="edge"><title>Node24&#45;&gt;Node26</title>
<path fill="none" stroke="midnightblue" d="M434.634,-124.403C422.984,-114.958 404.05,-99.6056 389.901,-88.1342"/>
<polygon fill="midnightblue" stroke="midnightblue" points="391.791,-85.16 381.819,-81.5806 387.382,-90.5973 391.791,-85.16"/>
</g>
<!-- Node27 -->
<g id="node27" class="node"><title>Node27</title>
<polygon fill="none" stroke="#bfbfbf" points="419.236,-62.5 419.236,-81.5 471.236,-81.5 471.236,-62.5 419.236,-62.5"/>
<text text-anchor="middle" x="445.236" y="-69.5" font-family="Helvetica,sans-Serif" font-size="10.00">sstream</text>
</g>
<!-- Node24&#45;&gt;Node27 -->
<g id="edge36" class="edge"><title>Node24&#45;&gt;Node27</title>
<path fill="none" stroke="midnightblue" d="M445.236,-124.403C445.236,-115.938 445.236,-102.728 445.236,-91.8199"/>
<polygon fill="midnightblue" stroke="midnightblue" points="448.736,-91.5806 445.236,-81.5806 441.736,-91.5806 448.736,-91.5806"/>
</g>
<!-- Node28 -->
<g id="node28" class="node"><title>Node28</title>
<polygon fill="none" stroke="#bfbfbf" points="489.736,-62.5 489.736,-81.5 538.736,-81.5 538.736,-62.5 489.736,-62.5"/>
<text text-anchor="middle" x="514.236" y="-69.5" font-family="Helvetica,sans-Serif" font-size="10.00">string.h</text>
</g>
<!-- Node24&#45;&gt;Node28 -->
<g id="edge37" class="edge"><title>Node24&#45;&gt;Node28</title>
<path fill="none" stroke="midnightblue" d="M455.122,-124.403C465.882,-115.047 483.307,-99.8948 496.457,-88.4599"/>
<polygon fill="midnightblue" stroke="midnightblue" points="499.119,-90.7835 504.368,-81.5806 494.526,-85.5013 499.119,-90.7835"/>
</g>
<!-- Node24&#45;&gt;Node12 -->
<g id="edge38" class="edge"><title>Node24&#45;&gt;Node12</title>
<path fill="none" stroke="midnightblue" d="M418.3,-124.403C385.633,-113.978 330.417,-96.3557 293.893,-84.6992"/>
<polygon fill="midnightblue" stroke="midnightblue" points="294.713,-81.2868 284.122,-81.5806 292.584,-87.9554 294.713,-81.2868"/>
</g>
<!-- Node30 -->
<g id="node30" class="node"><title>Node30</title>
<g id="a_node30"><a xlink:href="compiler_8h_source.html" target="_top" xlink:title="compiler.h">
<polygon fill="none" stroke="black" points="23.236,-62.5 23.236,-81.5 85.236,-81.5 85.236,-62.5 23.236,-62.5"/>
<text text-anchor="middle" x="54.236" y="-69.5" font-family="Helvetica,sans-Serif" font-size="10.00">compiler.h</text>
</a>
</g>
</g>
<!-- Node29&#45;&gt;Node30 -->
<g id="edge40" class="edge"><title>Node29&#45;&gt;Node30</title>
<path fill="none" stroke="midnightblue" d="M162.183,-124.403C141.038,-114.334 105.796,-97.5522 81.3577,-85.9151"/>
<polygon fill="midnightblue" stroke="midnightblue" points="82.7886,-82.72 72.2552,-81.5806 79.7791,-89.04 82.7886,-82.72"/>
</g>
<!-- Node32 -->
<g id="node32" class="node"><title>Node32</title>
<g id="a_node32"><a xlink:href="dimension_8h_source.html" target="_top" xlink:title="dimension.h">
<polygon fill="none" stroke="black" points="103.736,-62.5 103.736,-81.5 172.736,-81.5 172.736,-62.5 103.736,-62.5"/>
<text text-anchor="middle" x="138.236" y="-69.5" font-family="Helvetica,sans-Serif" font-size="10.00">dimension.h</text>
</a>
</g>
</g>
<!-- Node29&#45;&gt;Node32 -->
<g id="edge42" class="edge"><title>Node29&#45;&gt;Node32</title>
<path fill="none" stroke="midnightblue" d="M174.218,-124.403C167.918,-115.403 157.865,-101.041 149.984,-89.7824"/>
<polygon fill="midnightblue" stroke="midnightblue" points="152.844,-87.7658 144.242,-81.5806 147.11,-91.7801 152.844,-87.7658"/>
</g>
<!-- Node31 -->
<g id="node31" class="node"><title>Node31</title>
<polygon fill="none" stroke="#bfbfbf" points="22.236,-0.5 22.236,-19.5 86.236,-19.5 86.236,-0.5 22.236,-0.5"/>
<text text-anchor="middle" x="54.236" y="-7.5" font-family="Helvetica,sans-Serif" font-size="10.00">psiconfig.h</text>
</g>
<!-- Node30&#45;&gt;Node31 -->
<g id="edge41" class="edge"><title>Node30&#45;&gt;Node31</title>
<path fill="none" stroke="midnightblue" d="M54.236,-62.4035C54.236,-53.9381 54.236,-40.7283 54.236,-29.8199"/>
<polygon fill="midnightblue" stroke="midnightblue" points="57.7361,-29.5806 54.236,-19.5806 50.7361,-29.5806 57.7361,-29.5806"/>
</g>
<!-- Node32&#45;&gt;Node9 -->
<g id="edge43" class="edge"><title>Node32&#45;&gt;Node9</title>
<path fill="none" stroke="midnightblue" d="M161.343,-62.4478C168.026,-60.1587 175.371,-57.8181 182.236,-56 254.542,-36.852 341.395,-22.3773 386.558,-15.4749"/>
<polygon fill="midnightblue" stroke="midnightblue" points="387.221,-18.9146 396.588,-13.9624 386.177,-11.9929 387.221,-18.9146"/>
</g>
<!-- Node32&#45;&gt;Node3 -->
<g id="edge44" class="edge"><title>Node32&#45;&gt;Node3</title>
<path fill="none" stroke="midnightblue" d="M159.386,-62.397C166.525,-59.8703 174.617,-57.4088 182.236,-56 602.705,21.7486 723.876,-86.8722 1150.57,-19.6037"/>
<polygon fill="midnightblue" stroke="midnightblue" points="1151.39,-23.0179 1160.71,-17.9818 1150.28,-16.1058 1151.39,-23.0179"/>
</g>
<!-- Node32&#45;&gt;Node7 -->
<g id="edge45" class="edge"><title>Node32&#45;&gt;Node7</title>
<path fill="none" stroke="midnightblue" d="M159.392,-62.427C166.531,-59.9024 174.622,-57.4344 182.236,-56 537.487,10.9279 640.433,-77.6482 1001.1,-19.7547"/>
<polygon fill="midnightblue" stroke="midnightblue" points="1001.73,-23.1996 1011.03,-18.1348 1000.6,-16.2909 1001.73,-23.1996"/>
</g>
<!-- Node33&#45;&gt;Node3 -->
<g id="edge48" class="edge"><title>Node33&#45;&gt;Node3</title>
<path fill="none" stroke="midnightblue" d="M937.791,-180.165C931.541,-166.344 922.379,-139.582 936.236,-124 1027.23,-21.6696 1151.24,-190.33 1242.24,-88 1251.69,-77.3721 1248.6,-68.7207 1242.24,-56 1235.51,-42.5432 1222.63,-32.0665 1210.52,-24.6212"/>
<polygon fill="midnightblue" stroke="midnightblue" points="1211.96,-21.4101 1201.53,-19.5195 1208.5,-27.4985 1211.96,-21.4101"/>
</g>
</g>
</svg>
        <g id="navigator" transform="translate(0 0)" fill="#404254">
                <rect fill="#f2f5e9" fill-opacity="0.5" stroke="#606060" stroke-width=".5" x="0" y="0" width="60" height="60"/>
                <use id="zoomplus" xlink:href="#zoomPlus" x="17" y="9" onmousedown="handleZoom(evt,'in')"/>
                <use id="zoomminus" xlink:href="#zoomMin" x="42" y="9" onmousedown="handleZoom(evt,'out')"/>
                <use id="reset" xlink:href="#resetDef" x="30" y="36" onmousedown="handleReset()"/>
                <g id="arrowUp" xlink:href="#dirArrow" transform="translate(30 24)" onmousedown="handlePan(0,-1)">
                  <use xlink:href="#rim" fill="#404040">
                        <set attributeName="fill" to="#808080" begin="arrowUp.mouseover" end="arrowUp.mouseout"/>
                  </use>
                  <path fill="none" stroke="white" stroke-width="1.5" d="M0,-3.0v7 M-2.5,-0.5L0,-3.0L2.5,-0.5"/>
                </g>
                <g id="arrowRight" xlink:href="#dirArrow" transform="rotate(90) translate(36 -43)" onmousedown="handlePan(1,0)">
                  <use xlink:href="#rim" fill="#404040">
                        <set attributeName="fill" to="#808080" begin="arrowRight.mouseover" end="arrowRight.mouseout"/>
                  </use>
                  <path fill="none" stroke="white" stroke-width="1.5" d="M0,-3.0v7 M-2.5,-0.5L0,-3.0L2.5,-0.5"/>
                </g>
                <g id="arrowDown" xlink:href="#dirArrow" transform="rotate(180) translate(-30 -48)" onmousedown="handlePan(0,1)">
                  <use xlink:href="#rim" fill="#404040">
                        <set attributeName="fill" to="#808080" begin="arrowDown.mouseover" end="arrowDown.mouseout"/>
                  </use>
                  <path fill="none" stroke="white" stroke-width="1.5" d="M0,-3.0v7 M-2.5,-0.5L0,-3.0L2.5,-0.5"/>
                </g>
                <g id="arrowLeft" xlink:href="#dirArrow" transform="rotate(270) translate(-36 17)" onmousedown="handlePan(-1,0)">
                  <use xlink:href="#rim" fill="#404040">
                        <set attributeName="fill" to="#808080" begin="arrowLeft.mouseover" end="arrowLeft.mouseout"/>
                  </use>
                  <path fill="none" stroke="white" stroke-width="1.5" d="M0,-3.0v7 M-2.5,-0.5L0,-3.0L2.5,-0.5"/>
                </g>
        </g>
        <svg viewBox="0 0 15 15" width="100%" height="30px" preserveAspectRatio="xMaxYMin meet">
         <g id="arrow_out" transform="scale(0.3 0.3)">
          <a xlink:href="ccenergy_2halftrans_8cc__incl_org.svg" target="_base">
           <rect id="button" ry="5" rx="5" y="6" x="6" height="38" width="38"
                fill="#f2f5e9" fill-opacity="0.5" stroke="#606060" stroke-width="1.0"/>
           <path id="arrow"
             d="M 11.500037,31.436501 C 11.940474,20.09759 22.043105,11.32322 32.158766,21.979434 L 37.068811,17.246167 C 37.068811,17.246167 37.088388,32 37.088388,32 L 22.160133,31.978069 C 22.160133,31.978069 26.997745,27.140456 26.997745,27.140456 C 18.528582,18.264221 13.291696,25.230495 11.500037,31.436501 z"
             style="fill:#404040;"/>
          </a>
         </g>
        </svg>
</svg>
