<?xml version="1.0" encoding="UTF-8" standalone="no"?>
<!DOCTYPE svg PUBLIC "-//W3C//DTD SVG 1.1//EN"
 "http://www.w3.org/Graphics/SVG/1.1/DTD/svg11.dtd">
<!-- Generated by graphviz version 2.30.1 (20140110.0959)
 -->
<!-- Title: converged.cc Pages: 1 -->
<!--zoomable 320 -->
<svg id="main" version="1.1" xmlns="http://www.w3.org/2000/svg" xmlns:xlink="http://www.w3.org/1999/xlink" xml:space="preserve" onload="init(evt)">
        <defs>
                <circle id="rim" cx="0" cy="0" r="7"/>
                <circle id="rim2" cx="0" cy="0" r="3.5"/>
                <g id="zoomPlus">
                        <use xlink:href="#rim" fill="#404040">
                                <set attributeName="fill" to="#808080" begin="zoomplus.mouseover" end="zoomplus.mouseout"/>
                        </use>
                        <path d="M-4,0h8M0,-4v8" fill="none" stroke="white" stroke-width="1.5" pointer-events="none"/>
                </g>
                <g id="zoomMin">
                        <use xlink:href="#rim" fill="#404040">
                                <set attributeName="fill" to="#808080" begin="zoomminus.mouseover" end="zoomminus.mouseout"/>
                        </use>
                        <path d="M-4,0h8" fill="none" stroke="white" stroke-width="1.5" pointer-events="none"/>
                </g>
                <g id="dirArrow">
                        <path fill="none" stroke="white" stroke-width="1.5" d="M0,-3.0v7 M-2.5,-0.5L0,-3.0L2.5,-0.5"/>
                </g>
               <g id="resetDef">
                       <use xlink:href="#rim2" fill="#404040">
                               <set attributeName="fill" to="#808080" begin="reset.mouseover" end="reset.mouseout"/>
                       </use>
               </g>
        </defs>

<script type="text/javascript">
var viewWidth = 1679;
var viewHeight = 320;
var sectionId = 'dynsection-0';
</script>
<script xlink:href="svgpan.js"/>
<svg id="graph" class="graph">
<g id="viewport">
<title>converged.cc</title>
<!-- Node1 -->
<g id="node1" class="node"><title>Node1</title>
<polygon fill="#bfbfbf" stroke="black" points="1193.5,-292.5 1193.5,-311.5 1268.5,-311.5 1268.5,-292.5 1193.5,-292.5"/>
<text text-anchor="middle" x="1231" y="-299.5" font-family="Helvetica,sans-Serif" font-size="10.00">converged.cc</text>
</g>
<!-- Node2 -->
<g id="node2" class="node"><title>Node2</title>
<polygon fill="none" stroke="#bfbfbf" points="260.5,-0.5 260.5,-19.5 303.5,-19.5 303.5,-0.5 260.5,-0.5"/>
<text text-anchor="middle" x="282" y="-7.5" font-family="Helvetica,sans-Serif" font-size="10.00">cstdio</text>
</g>
<!-- Node1&#45;&gt;Node2 -->
<g id="edge1" class="edge"><title>Node1&#45;&gt;Node2</title>
<path fill="none" stroke="midnightblue" d="M1193.49,-299.662C987.181,-292.063 0,-252.487 0,-191 0,-191 0,-191 0,-133 0,-78.9792 176.517,-34.0719 250.242,-17.6717"/>
<polygon fill="midnightblue" stroke="midnightblue" points="251.32,-21.0186 260.34,-15.4611 249.823,-14.1806 251.32,-21.0186"/>
</g>
<!-- Node3 -->
<g id="node3" class="node"><title>Node3</title>
<polygon fill="none" stroke="#bfbfbf" points="1455.5,-0.5 1455.5,-19.5 1500.5,-19.5 1500.5,-0.5 1455.5,-0.5"/>
<text text-anchor="middle" x="1478" y="-7.5" font-family="Helvetica,sans-Serif" font-size="10.00">cstdlib</text>
</g>
<!-- Node1&#45;&gt;Node3 -->
<g id="edge2" class="edge"><title>Node1&#45;&gt;Node3</title>
<path fill="none" stroke="midnightblue" d="M1268.7,-295.006C1347.84,-281.36 1524,-244.927 1524,-191 1524,-191 1524,-191 1524,-133 1524,-93.5849 1502.72,-51.3462 1489.11,-28.36"/>
<polygon fill="midnightblue" stroke="midnightblue" points="1492.04,-26.446 1483.83,-19.7518 1486.07,-30.1061 1492.04,-26.446"/>
</g>
<!-- Node4 -->
<g id="node4" class="node"><title>Node4</title>
<polygon fill="none" stroke="#bfbfbf" points="1552,-236.5 1552,-255.5 1596,-255.5 1596,-236.5 1552,-236.5"/>
<text text-anchor="middle" x="1574" y="-243.5" font-family="Helvetica,sans-Serif" font-size="10.00">cmath</text>
</g>
<!-- Node1&#45;&gt;Node4 -->
<g id="edge3" class="edge"><title>Node1&#45;&gt;Node4</title>
<path fill="none" stroke="midnightblue" d="M1268.54,-296.719C1326.6,-289.822 1441.56,-275.074 1538,-256 1539.28,-255.747 1540.58,-255.477 1541.9,-255.196"/>
<polygon fill="midnightblue" stroke="midnightblue" points="1543.03,-258.526 1551.99,-252.87 1541.46,-251.704 1543.03,-258.526"/>
</g>
<!-- Node5 -->
<g id="node5" class="node"><title>Node5</title>
<g id="a_node5"><a xlink:href="lib_2libdpd_2dpd_8h.html" target="_top" xlink:title="Enter brief description of file here.">
<polygon fill="none" stroke="black" points="199.5,-180.5 199.5,-199.5 268.5,-199.5 268.5,-180.5 199.5,-180.5"/>
<text text-anchor="middle" x="234" y="-187.5" font-family="Helvetica,sans-Serif" font-size="10.00">libdpd/dpd.h</text>
</a>
</g>
</g>
<!-- Node1&#45;&gt;Node5 -->
<g id="edge4" class="edge"><title>Node1&#45;&gt;Node5</title>
<path fill="none" stroke="midnightblue" d="M1193.36,-298.282C1108.57,-292.031 896.154,-275.646 719,-256 556.483,-237.977 364.185,-210.313 278.753,-197.692"/>
<polygon fill="midnightblue" stroke="midnightblue" points="279.036,-194.196 268.631,-196.193 278.011,-201.12 279.036,-194.196"/>
</g>
<!-- Node10 -->
<g id="node10" class="node"><title>Node10</title>
<g id="a_node10"><a xlink:href="qt_8h.html" target="_top" xlink:title="Header file for the Quantum Trio LibraryDavid Sherrill 1994.">
<polygon fill="none" stroke="black" points="875,-62.5 875,-81.5 929,-81.5 929,-62.5 875,-62.5"/>
<text text-anchor="middle" x="902" y="-69.5" font-family="Helvetica,sans-Serif" font-size="10.00">libqt/qt.h</text>
</a>
</g>
</g>
<!-- Node1&#45;&gt;Node10 -->
<g id="edge10" class="edge"><title>Node1&#45;&gt;Node10</title>
<path fill="none" stroke="midnightblue" d="M1218.5,-292.341C1168.83,-257.918 985.047,-130.553 922.782,-87.4024"/>
<polygon fill="midnightblue" stroke="midnightblue" points="924.721,-84.4874 914.508,-81.6681 920.734,-90.2409 924.721,-84.4874"/>
</g>
<!-- Node12 -->
<g id="node12" class="node"><title>Node12</title>
<g id="a_node12"><a xlink:href="ccenergy_2MOInfo_8h.html" target="_top" xlink:title="Enter brief description of file here.">
<polygon fill="none" stroke="black" points="1614.5,-236.5 1614.5,-255.5 1671.5,-255.5 1671.5,-236.5 1614.5,-236.5"/>
<text text-anchor="middle" x="1643" y="-243.5" font-family="Helvetica,sans-Serif" font-size="10.00">MOInfo.h</text>
</a>
</g>
</g>
<!-- Node1&#45;&gt;Node12 -->
<g id="edge13" class="edge"><title>Node1&#45;&gt;Node12</title>
<path fill="none" stroke="midnightblue" d="M1268.63,-297.888C1334.57,-292.128 1475.44,-278.464 1604.39,-255.91"/>
<polygon fill="midnightblue" stroke="midnightblue" points="1605.2,-259.32 1614.44,-254.129 1603.98,-252.427 1605.2,-259.32"/>
</g>
<!-- Node13 -->
<g id="node13" class="node"><title>Node13</title>
<g id="a_node13"><a xlink:href="ccenergy_2Params_8h.html" target="_top" xlink:title="Enter brief description of file here.">
<polygon fill="none" stroke="black" points="1369.5,-180.5 1369.5,-199.5 1428.5,-199.5 1428.5,-180.5 1369.5,-180.5"/>
<text text-anchor="middle" x="1399" y="-187.5" font-family="Helvetica,sans-Serif" font-size="10.00">Params.h</text>
</a>
</g>
</g>
<!-- Node1&#45;&gt;Node13 -->
<g id="edge14" class="edge"><title>Node1&#45;&gt;Node13</title>
<path fill="none" stroke="midnightblue" d="M1244.18,-292.368C1273.01,-273.492 1341.9,-228.385 1377.26,-205.237"/>
<polygon fill="midnightblue" stroke="midnightblue" points="1379.43,-207.997 1385.88,-199.591 1375.6,-202.141 1379.43,-207.997"/>
</g>
<!-- Node14 -->
<g id="node14" class="node"><title>Node14</title>
<g id="a_node14"><a xlink:href="ccenergy_2globals_8h.html" target="_top" xlink:title="Enter brief description of file here.">
<polygon fill="none" stroke="black" points="728,-236.5 728,-255.5 784,-255.5 784,-236.5 728,-236.5"/>
<text text-anchor="middle" x="756" y="-243.5" font-family="Helvetica,sans-Serif" font-size="10.00">globals.h</text>
</a>
</g>
</g>
<!-- Node1&#45;&gt;Node14 -->
<g id="edge16" class="edge"><title>Node1&#45;&gt;Node14</title>
<path fill="none" stroke="midnightblue" d="M1193.33,-296.718C1104.57,-286.627 883.11,-261.45 794.013,-251.321"/>
<polygon fill="midnightblue" stroke="midnightblue" points="794.4,-247.843 784.069,-250.191 793.61,-254.798 794.4,-247.843"/>
</g>
<!-- Node5&#45;&gt;Node2 -->
<g id="edge5" class="edge"><title>Node5&#45;&gt;Node2</title>
<path fill="none" stroke="midnightblue" d="M217.362,-180.463C178.88,-159.609 89.7001,-104.251 126,-56 140.926,-36.1593 209.182,-22.3157 250.303,-15.6109"/>
<polygon fill="midnightblue" stroke="midnightblue" points="251.039,-19.0382 260.371,-14.023 249.948,-12.1237 251.039,-19.0382"/>
</g>
<!-- Node6 -->
<g id="node6" class="node"><title>Node6</title>
<g id="a_node6"><a xlink:href="psifiles_8h_source.html" target="_top" xlink:title="psifiles.h">
<polygon fill="none" stroke="black" points="234,-124.5 234,-143.5 290,-143.5 290,-124.5 234,-124.5"/>
<text text-anchor="middle" x="262" y="-131.5" font-family="Helvetica,sans-Serif" font-size="10.00">psifiles.h</text>
</a>
</g>
</g>
<!-- Node5&#45;&gt;Node6 -->
<g id="edge6" class="edge"><title>Node5&#45;&gt;Node6</title>
<path fill="none" stroke="midnightblue" d="M238.624,-180.083C242.456,-172.691 248.024,-161.953 252.765,-152.811"/>
<polygon fill="midnightblue" stroke="midnightblue" points="255.966,-154.24 257.462,-143.751 249.752,-151.018 255.966,-154.24"/>
</g>
<!-- Node7 -->
<g id="node7" class="node"><title>Node7</title>
<g id="a_node7"><a xlink:href="libpsio_2config_8h_source.html" target="_top" xlink:title="libpsio/config.h">
<polygon fill="none" stroke="black" points="28,-124.5 28,-143.5 110,-143.5 110,-124.5 28,-124.5"/>
<text text-anchor="middle" x="69" y="-131.5" font-family="Helvetica,sans-Serif" font-size="10.00">libpsio/config.h</text>
</a>
</g>
</g>
<!-- Node5&#45;&gt;Node7 -->
<g id="edge7" class="edge"><title>Node5&#45;&gt;Node7</title>
<path fill="none" stroke="midnightblue" d="M207.855,-180.444C179.977,-171.32 135.652,-156.813 104.6,-146.651"/>
<polygon fill="midnightblue" stroke="midnightblue" points="105.615,-143.3 95.0224,-143.516 103.438,-149.953 105.615,-143.3"/>
</g>
<!-- Node8 -->
<g id="node8" class="node"><title>Node8</title>
<polygon fill="none" stroke="#bfbfbf" points="308,-124.5 308,-143.5 416,-143.5 416,-124.5 308,-124.5"/>
<text text-anchor="middle" x="362" y="-131.5" font-family="Helvetica,sans-Serif" font-size="10.00">boost/shared_ptr.hpp</text>
</g>
<!-- Node5&#45;&gt;Node8 -->
<g id="edge8" class="edge"><title>Node5&#45;&gt;Node8</title>
<path fill="none" stroke="midnightblue" d="M254.282,-180.444C275.347,-171.557 308.517,-157.563 332.486,-147.451"/>
<polygon fill="midnightblue" stroke="midnightblue" points="333.96,-150.628 341.813,-143.516 331.239,-144.179 333.96,-150.628"/>
</g>
<!-- Node9 -->
<g id="node9" class="node"><title>Node9</title>
<polygon fill="none" stroke="#bfbfbf" points="598,-0.5 598,-19.5 642,-19.5 642,-0.5 598,-0.5"/>
<text text-anchor="middle" x="620" y="-7.5" font-family="Helvetica,sans-Serif" font-size="10.00">vector</text>
</g>
<!-- Node5&#45;&gt;Node9 -->
<g id="edge9" class="edge"><title>Node5&#45;&gt;Node9</title>
<path fill="none" stroke="midnightblue" d="M230.238,-180.311C225.288,-167.577 217.991,-143.271 225,-124 238.478,-86.9393 247.444,-75.002 282,-56 334.284,-27.2491 513.81,-15.8746 587.766,-12.3381"/>
<polygon fill="midnightblue" stroke="midnightblue" points="588.056,-15.8286 597.884,-11.8721 587.733,-8.83598 588.056,-15.8286"/>
</g>
<!-- Node10&#45;&gt;Node2 -->
<g id="edge11" class="edge"><title>Node10&#45;&gt;Node2</title>
<path fill="none" stroke="midnightblue" d="M883.922,-62.3748C878.016,-59.9111 871.342,-57.4923 865,-56 758.716,-30.9913 419.408,-16.238 313.732,-12.1632"/>
<polygon fill="midnightblue" stroke="midnightblue" points="313.816,-8.66397 303.69,-11.7812 313.549,-15.6589 313.816,-8.66397"/>
</g>
<!-- Node11 -->
<g id="node11" class="node"><title>Node11</title>
<polygon fill="none" stroke="#bfbfbf" points="1351.5,-0.5 1351.5,-19.5 1392.5,-19.5 1392.5,-0.5 1351.5,-0.5"/>
<text text-anchor="middle" x="1372" y="-7.5" font-family="Helvetica,sans-Serif" font-size="10.00">string</text>
</g>
<!-- Node10&#45;&gt;Node11 -->
<g id="edge12" class="edge"><title>Node10&#45;&gt;Node11</title>
<path fill="none" stroke="midnightblue" d="M929.309,-64.8746C943.231,-61.9021 960.462,-58.4529 976,-56 1111.31,-34.6393 1274.17,-19.4039 1341.05,-13.5951"/>
<polygon fill="midnightblue" stroke="midnightblue" points="1341.64,-17.0573 1351.3,-12.7132 1341.04,-10.083 1341.64,-17.0573"/>
</g>
<!-- Node13&#45;&gt;Node11 -->
<g id="edge15" class="edge"><title>Node13&#45;&gt;Node11</title>
<path fill="none" stroke="midnightblue" d="M1419.85,-180.427C1434.58,-173.129 1453.2,-161.091 1462,-144 1479.9,-109.224 1482.56,-89.2699 1462,-56 1449.06,-35.0563 1423.09,-23.5341 1402.36,-17.4074"/>
<polygon fill="midnightblue" stroke="midnightblue" points="1403.25,-14.0224 1392.68,-14.8156 1401.43,-20.784 1403.25,-14.0224"/>
</g>
<!-- Node14&#45;&gt;Node6 -->
<g id="edge17" class="edge"><title>Node14&#45;&gt;Node6</title>
<path fill="none" stroke="midnightblue" d="M727.796,-240.21C683.272,-232.522 594.038,-216.597 519,-200 440.594,-182.658 349.682,-158.761 299.733,-145.3"/>
<polygon fill="midnightblue" stroke="midnightblue" points="300.577,-141.903 290.01,-142.672 298.75,-148.66 300.577,-141.903"/>
</g>
<!-- Node15 -->
<g id="node15" class="node"><title>Node15</title>
<g id="a_node15"><a xlink:href="psi4-dec_8h_source.html" target="_top" xlink:title="psi4&#45;dec.h">
<polygon fill="none" stroke="black" points="725,-180.5 725,-199.5 787,-199.5 787,-180.5 725,-180.5"/>
<text text-anchor="middle" x="756" y="-187.5" font-family="Helvetica,sans-Serif" font-size="10.00">psi4&#45;dec.h</text>
</a>
</g>
</g>
<!-- Node14&#45;&gt;Node15 -->
<g id="edge18" class="edge"><title>Node14&#45;&gt;Node15</title>
<path fill="none" stroke="midnightblue" d="M756,-236.083C756,-229.006 756,-218.861 756,-209.986"/>
<polygon fill="midnightblue" stroke="midnightblue" points="759.5,-209.751 756,-199.751 752.5,-209.751 759.5,-209.751"/>
</g>
<!-- Node14&#45;&gt;Node11 -->
<g id="edge52" class="edge"><title>Node14&#45;&gt;Node11</title>
<path fill="none" stroke="midnightblue" d="M784.004,-245.237C869.683,-244.909 1134.11,-236.008 1326,-144 1360.08,-127.659 1374.38,-122.418 1390,-88 1398.74,-68.7437 1390.44,-44.7839 1382.45,-28.752"/>
<polygon fill="midnightblue" stroke="midnightblue" points="1385.5,-27.0385 1377.67,-19.9073 1379.35,-30.3683 1385.5,-27.0385"/>
</g>
<!-- Node36 -->
<g id="node36" class="node"><title>Node36</title>
<g id="a_node36"><a xlink:href="libciomr_8h_source.html" target="_top" xlink:title="libciomr/libciomr.h">
<polygon fill="none" stroke="black" points="528.5,-180.5 528.5,-199.5 623.5,-199.5 623.5,-180.5 528.5,-180.5"/>
<text text-anchor="middle" x="576" y="-187.5" font-family="Helvetica,sans-Serif" font-size="10.00">libciomr/libciomr.h</text>
</a>
</g>
</g>
<!-- Node14&#45;&gt;Node36 -->
<g id="edge53" class="edge"><title>Node14&#45;&gt;Node36</title>
<path fill="none" stroke="midnightblue" d="M727.875,-236.562C697.277,-227.383 648.186,-212.656 614.134,-202.44"/>
<polygon fill="midnightblue" stroke="midnightblue" points="615.106,-199.078 604.522,-199.556 613.094,-205.782 615.106,-199.078"/>
</g>
<!-- Node15&#45;&gt;Node8 -->
<g id="edge19" class="edge"><title>Node15&#45;&gt;Node8</title>
<path fill="none" stroke="midnightblue" d="M724.754,-184.718C660.391,-175.896 511.891,-155.543 426.179,-143.796"/>
<polygon fill="midnightblue" stroke="midnightblue" points="426.431,-140.298 416.048,-142.408 425.48,-147.233 426.431,-140.298"/>
</g>
<!-- Node16 -->
<g id="node16" class="node"><title>Node16</title>
<polygon fill="none" stroke="#bfbfbf" points="671,-62.5 671,-81.5 803,-81.5 803,-62.5 671,-62.5"/>
<text text-anchor="middle" x="737" y="-69.5" font-family="Helvetica,sans-Serif" font-size="10.00">boost/current_function.hpp</text>
</g>
<!-- Node15&#45;&gt;Node16 -->
<g id="edge20" class="edge"><title>Node15&#45;&gt;Node16</title>
<path fill="none" stroke="midnightblue" d="M754.572,-180.281C751.503,-161.547 744.223,-117.098 740.06,-91.6822"/>
<polygon fill="midnightblue" stroke="midnightblue" points="743.463,-90.8075 738.393,-81.5048 736.556,-91.939 743.463,-90.8075"/>
</g>
<!-- Node15&#45;&gt;Node11 -->
<g id="edge21" class="edge"><title>Node15&#45;&gt;Node11</title>
<path fill="none" stroke="midnightblue" d="M787.257,-188.319C886.386,-185.853 1192.69,-175.786 1286,-144 1329.53,-129.173 1350.98,-128.367 1373,-88 1382.78,-70.073 1380.53,-46.1253 1377.13,-29.7243"/>
<polygon fill="midnightblue" stroke="midnightblue" points="1380.47,-28.6427 1374.72,-19.7421 1373.66,-30.284 1380.47,-28.6427"/>
</g>
<!-- Node17 -->
<g id="node17" class="node"><title>Node17</title>
<polygon fill="none" stroke="#bfbfbf" points="803.5,-124.5 803.5,-143.5 832.5,-143.5 832.5,-124.5 803.5,-124.5"/>
<text text-anchor="middle" x="818" y="-131.5" font-family="Helvetica,sans-Serif" font-size="10.00">list</text>
</g>
<!-- Node15&#45;&gt;Node17 -->
<g id="edge22" class="edge"><title>Node15&#45;&gt;Node17</title>
<path fill="none" stroke="midnightblue" d="M765.961,-180.324C775.127,-172.341 788.937,-160.313 800.028,-150.653"/>
<polygon fill="midnightblue" stroke="midnightblue" points="802.615,-153.041 807.857,-143.834 798.018,-147.762 802.615,-153.041"/>
</g>
<!-- Node18 -->
<g id="node18" class="node"><title>Node18</title>
<polygon fill="none" stroke="#bfbfbf" points="821.5,-62.5 821.5,-81.5 856.5,-81.5 856.5,-62.5 821.5,-62.5"/>
<text text-anchor="middle" x="839" y="-69.5" font-family="Helvetica,sans-Serif" font-size="10.00">map</text>
</g>
<!-- Node15&#45;&gt;Node18 -->
<g id="edge23" class="edge"><title>Node15&#45;&gt;Node18</title>
<path fill="none" stroke="midnightblue" d="M760.414,-180.257C767.028,-167.456 780.214,-143.067 794,-124 802.972,-111.59 814.403,-98.6654 823.498,-88.9322"/>
<polygon fill="midnightblue" stroke="midnightblue" points="826.127,-91.2462 830.484,-81.5883 821.055,-86.4217 826.127,-91.2462"/>
</g>
<!-- Node19 -->
<g id="node19" class="node"><title>Node19</title>
<g id="a_node19"><a xlink:href="liboptions_8h_source.html" target="_top" xlink:title="liboptions/liboptions.h">
<polygon fill="none" stroke="black" points="1167,-124.5 1167,-143.5 1277,-143.5 1277,-124.5 1167,-124.5"/>
<text text-anchor="middle" x="1222" y="-131.5" font-family="Helvetica,sans-Serif" font-size="10.00">liboptions/liboptions.h</text>
</a>
</g>
</g>
<!-- Node15&#45;&gt;Node19 -->
<g id="edge24" class="edge"><title>Node15&#45;&gt;Node19</title>
<path fill="none" stroke="midnightblue" d="M787.299,-185.373C862.566,-176.651 1054.98,-154.355 1156.7,-142.567"/>
<polygon fill="midnightblue" stroke="midnightblue" points="1157.32,-146.019 1166.85,-141.391 1156.51,-139.065 1157.32,-146.019"/>
</g>
<!-- Node27 -->
<g id="node27" class="node"><title>Node27</title>
<g id="a_node27"><a xlink:href="include_2exception_8h_source.html" target="_top" xlink:title="exception.h">
<polygon fill="none" stroke="black" points="589.5,-124.5 589.5,-143.5 656.5,-143.5 656.5,-124.5 589.5,-124.5"/>
<text text-anchor="middle" x="623" y="-131.5" font-family="Helvetica,sans-Serif" font-size="10.00">exception.h</text>
</a>
</g>
</g>
<!-- Node15&#45;&gt;Node27 -->
<g id="edge39" class="edge"><title>Node15&#45;&gt;Node27</title>
<path fill="none" stroke="midnightblue" d="M734.926,-180.444C712.94,-171.517 678.266,-157.439 653.336,-147.317"/>
<polygon fill="midnightblue" stroke="midnightblue" points="654.558,-144.035 643.976,-143.516 651.924,-150.521 654.558,-144.035"/>
</g>
<!-- Node32 -->
<g id="node32" class="node"><title>Node32</title>
<g id="a_node32"><a xlink:href="typedefs_8h_source.html" target="_top" xlink:title="libmints/typedefs.h">
<polygon fill="none" stroke="black" points="472.5,-124.5 472.5,-143.5 571.5,-143.5 571.5,-124.5 472.5,-124.5"/>
<text text-anchor="middle" x="522" y="-131.5" font-family="Helvetica,sans-Serif" font-size="10.00">libmints/typedefs.h</text>
</a>
</g>
</g>
<!-- Node15&#45;&gt;Node32 -->
<g id="edge45" class="edge"><title>Node15&#45;&gt;Node32</title>
<path fill="none" stroke="midnightblue" d="M724.927,-181.829C684.968,-172.608 615.207,-156.509 568.809,-145.802"/>
<polygon fill="midnightblue" stroke="midnightblue" points="569.525,-142.375 558.994,-143.537 567.951,-149.196 569.525,-142.375"/>
</g>
<!-- Node19&#45;&gt;Node11 -->
<g id="edge25" class="edge"><title>Node19&#45;&gt;Node11</title>
<path fill="none" stroke="midnightblue" d="M1277.27,-126.067C1303.27,-120.067 1332.71,-108.876 1352,-88 1366.54,-72.2564 1370.81,-47.3044 1371.9,-30.0938"/>
<polygon fill="midnightblue" stroke="midnightblue" points="1375.42,-29.7334 1372.25,-19.6238 1368.42,-29.5034 1375.42,-29.7334"/>
</g>
<!-- Node19&#45;&gt;Node9 -->
<g id="edge26" class="edge"><title>Node19&#45;&gt;Node9</title>
<path fill="none" stroke="midnightblue" d="M1167.13,-124.493C1099.97,-113.844 993.035,-96.0283 976,-88 956.027,-78.5873 958.158,-65.0079 938,-56 887.279,-33.335 722.842,-18.6891 652.454,-13.311"/>
<polygon fill="midnightblue" stroke="midnightblue" points="652.62,-9.81366 642.386,-12.5562 652.096,-16.7941 652.62,-9.81366"/>
</g>
<!-- Node19&#45;&gt;Node18 -->
<g id="edge27" class="edge"><title>Node19&#45;&gt;Node18</title>
<path fill="none" stroke="midnightblue" d="M1166.92,-132.47C1095.73,-130.347 968.72,-121.633 866,-88 864.353,-87.4608 862.692,-86.8188 861.046,-86.1085"/>
<polygon fill="midnightblue" stroke="midnightblue" points="862.501,-82.922 851.998,-81.5337 859.343,-89.1691 862.501,-82.922"/>
</g>
<!-- Node20 -->
<g id="node20" class="node"><title>Node20</title>
<polygon fill="none" stroke="#bfbfbf" points="1276.5,-62.5 1276.5,-81.5 1343.5,-81.5 1343.5,-62.5 1276.5,-62.5"/>
<text text-anchor="middle" x="1310" y="-69.5" font-family="Helvetica,sans-Serif" font-size="10.00">exception.h</text>
</g>
<!-- Node19&#45;&gt;Node20 -->
<g id="edge28" class="edge"><title>Node19&#45;&gt;Node20</title>
<path fill="none" stroke="midnightblue" d="M1234.61,-124.403C1248.72,-114.78 1271.83,-99.0242 1288.75,-87.4891"/>
<polygon fill="midnightblue" stroke="midnightblue" points="1291.12,-90.1058 1297.42,-81.5806 1287.18,-84.3222 1291.12,-90.1058"/>
</g>
<!-- Node21 -->
<g id="node21" class="node"><title>Node21</title>
<g id="a_node21"><a xlink:href="libutil_8h_source.html" target="_top" xlink:title="libutil/libutil.h">
<polygon fill="none" stroke="black" points="1185.5,-62.5 1185.5,-81.5 1258.5,-81.5 1258.5,-62.5 1185.5,-62.5"/>
<text text-anchor="middle" x="1222" y="-69.5" font-family="Helvetica,sans-Serif" font-size="10.00">libutil/libutil.h</text>
</a>
</g>
</g>
<!-- Node19&#45;&gt;Node21 -->
<g id="edge29" class="edge"><title>Node19&#45;&gt;Node21</title>
<path fill="none" stroke="midnightblue" d="M1222,-124.403C1222,-115.938 1222,-102.728 1222,-91.8199"/>
<polygon fill="midnightblue" stroke="midnightblue" points="1225.5,-91.5806 1222,-81.5806 1218.5,-91.5806 1225.5,-91.5806"/>
</g>
<!-- Node23 -->
<g id="node23" class="node"><title>Node23</title>
<g id="a_node23"><a xlink:href="libutil_2ref_8h_source.html" target="_top" xlink:title="libutil/ref.h">
<polygon fill="none" stroke="black" points="985,-62.5 985,-81.5 1047,-81.5 1047,-62.5 985,-62.5"/>
<text text-anchor="middle" x="1016" y="-69.5" font-family="Helvetica,sans-Serif" font-size="10.00">libutil/ref.h</text>
</a>
</g>
</g>
<!-- Node19&#45;&gt;Node23 -->
<g id="edge33" class="edge"><title>Node19&#45;&gt;Node23</title>
<path fill="none" stroke="midnightblue" d="M1186.74,-124.467C1152.95,-116.046 1100.62,-102.379 1056,-88 1053.22,-87.1043 1050.35,-86.1292 1047.48,-85.1205"/>
<polygon fill="midnightblue" stroke="midnightblue" points="1048.47,-81.7558 1037.88,-81.6271 1046.08,-88.3342 1048.47,-81.7558"/>
</g>
<!-- Node26 -->
<g id="node26" class="node"><title>Node26</title>
<polygon fill="none" stroke="#bfbfbf" points="1065,-57 1065,-87 1167,-87 1167,-57 1065,-57"/>
<text text-anchor="start" x="1073" y="-75" font-family="Helvetica,sans-Serif" font-size="10.00">boost/python/object</text>
<text text-anchor="middle" x="1116" y="-64" font-family="Helvetica,sans-Serif" font-size="10.00">_fwd.hpp</text>
</g>
<!-- Node19&#45;&gt;Node26 -->
<g id="edge38" class="edge"><title>Node19&#45;&gt;Node26</title>
<path fill="none" stroke="midnightblue" d="M1206.81,-124.403C1191.99,-116.011 1168.92,-102.957 1149.75,-92.1042"/>
<polygon fill="midnightblue" stroke="midnightblue" points="1151.41,-89.0209 1140.98,-87.1408 1147.96,-95.1127 1151.41,-89.0209"/>
</g>
<!-- Node21&#45;&gt;Node11 -->
<g id="edge30" class="edge"><title>Node21&#45;&gt;Node11</title>
<path fill="none" stroke="midnightblue" d="M1243.49,-62.4035C1269.26,-52.0977 1312.6,-34.7604 1341.74,-23.104"/>
<polygon fill="midnightblue" stroke="midnightblue" points="1343.05,-26.3508 1351.03,-19.3871 1340.45,-19.8514 1343.05,-26.3508"/>
</g>
<!-- Node21&#45;&gt;Node9 -->
<g id="edge31" class="edge"><title>Node21&#45;&gt;Node9</title>
<path fill="none" stroke="midnightblue" d="M1199.35,-62.4478C1192,-59.9881 1183.74,-57.5531 1176,-56 980,-16.6794 738.586,-11.512 652.43,-10.9853"/>
<polygon fill="midnightblue" stroke="midnightblue" points="652.258,-7.48462 642.243,-10.9409 652.228,-14.4846 652.258,-7.48462"/>
</g>
<!-- Node22 -->
<g id="node22" class="node"><title>Node22</title>
<polygon fill="none" stroke="#bfbfbf" points="1191,-0.5 1191,-19.5 1253,-19.5 1253,-0.5 1191,-0.5"/>
<text text-anchor="middle" x="1222" y="-7.5" font-family="Helvetica,sans-Serif" font-size="10.00">sys/time.h</text>
</g>
<!-- Node21&#45;&gt;Node22 -->
<g id="edge32" class="edge"><title>Node21&#45;&gt;Node22</title>
<path fill="none" stroke="midnightblue" d="M1222,-62.4035C1222,-53.9381 1222,-40.7283 1222,-29.8199"/>
<polygon fill="midnightblue" stroke="midnightblue" points="1225.5,-29.5806 1222,-19.5806 1218.5,-29.5806 1225.5,-29.5806"/>
</g>
<!-- Node24 -->
<g id="node24" class="node"><title>Node24</title>
<polygon fill="none" stroke="#bfbfbf" points="1025.5,-0.5 1025.5,-19.5 1074.5,-19.5 1074.5,-0.5 1025.5,-0.5"/>
<text text-anchor="middle" x="1050" y="-7.5" font-family="Helvetica,sans-Serif" font-size="10.00">cstddef</text>
</g>
<!-- Node23&#45;&gt;Node24 -->
<g id="edge34" class="edge"><title>Node23&#45;&gt;Node24</title>
<path fill="none" stroke="midnightblue" d="M1020.87,-62.4035C1025.87,-53.5816 1033.79,-39.6075 1040.11,-28.4548"/>
<polygon fill="midnightblue" stroke="midnightblue" points="1043.25,-30.0064 1045.14,-19.5806 1037.16,-26.5553 1043.25,-30.0064"/>
</g>
<!-- Node23&#45;&gt;Node2 -->
<g id="edge35" class="edge"><title>Node23&#45;&gt;Node2</title>
<path fill="none" stroke="midnightblue" d="M984.641,-64.0676C970.461,-61.1662 953.453,-58.0083 938,-56 699.282,-24.9754 408.73,-14.5288 313.713,-11.8098"/>
<polygon fill="midnightblue" stroke="midnightblue" points="313.706,-8.30837 303.613,-11.5292 313.511,-15.3057 313.706,-8.30837"/>
</g>
<!-- Node23&#45;&gt;Node3 -->
<g id="edge36" class="edge"><title>Node23&#45;&gt;Node3</title>
<path fill="none" stroke="midnightblue" d="M1036.04,-62.3458C1042.32,-59.942 1049.36,-57.5647 1056,-56 1206.06,-20.6479 1247.77,-36.9491 1401,-20 1415.6,-18.3846 1431.76,-16.5102 1445.48,-14.8915"/>
<polygon fill="midnightblue" stroke="midnightblue" points="1445.92,-18.3644 1455.43,-13.7121 1445.09,-11.413 1445.92,-18.3644"/>
</g>
<!-- Node25 -->
<g id="node25" class="node"><title>Node25</title>
<polygon fill="none" stroke="#bfbfbf" points="955,-0.5 955,-19.5 1007,-19.5 1007,-0.5 955,-0.5"/>
<text text-anchor="middle" x="981" y="-7.5" font-family="Helvetica,sans-Serif" font-size="10.00">assert.h</text>
</g>
<!-- Node23&#45;&gt;Node25 -->
<g id="edge37" class="edge"><title>Node23&#45;&gt;Node25</title>
<path fill="none" stroke="midnightblue" d="M1010.99,-62.4035C1005.84,-53.5816 997.688,-39.6075 991.182,-28.4548"/>
<polygon fill="midnightblue" stroke="midnightblue" points="994.067,-26.4548 986.005,-19.5806 988.021,-29.982 994.067,-26.4548"/>
</g>
<!-- Node28 -->
<g id="node28" class="node"><title>Node28</title>
<polygon fill="none" stroke="#bfbfbf" points="593.5,-62.5 593.5,-81.5 652.5,-81.5 652.5,-62.5 593.5,-62.5"/>
<text text-anchor="middle" x="623" y="-69.5" font-family="Helvetica,sans-Serif" font-size="10.00">exception</text>
</g>
<!-- Node27&#45;&gt;Node28 -->
<g id="edge40" class="edge"><title>Node27&#45;&gt;Node28</title>
<path fill="none" stroke="midnightblue" d="M623,-124.403C623,-115.938 623,-102.728 623,-91.8199"/>
<polygon fill="midnightblue" stroke="midnightblue" points="626.5,-91.5806 623,-81.5806 619.5,-91.5806 626.5,-91.5806"/>
</g>
<!-- Node29 -->
<g id="node29" class="node"><title>Node29</title>
<polygon fill="none" stroke="#bfbfbf" points="378.5,-62.5 378.5,-81.5 437.5,-81.5 437.5,-62.5 378.5,-62.5"/>
<text text-anchor="middle" x="408" y="-69.5" font-family="Helvetica,sans-Serif" font-size="10.00">stdexcept</text>
</g>
<!-- Node27&#45;&gt;Node29 -->
<g id="edge41" class="edge"><title>Node27&#45;&gt;Node29</title>
<path fill="none" stroke="midnightblue" d="M589.256,-125.609C553.582,-117.507 495.827,-103.573 447,-88 444.214,-87.1114 441.338,-86.1307 438.47,-85.1089"/>
<polygon fill="midnightblue" stroke="midnightblue" points="439.483,-81.7515 428.89,-81.551 437.046,-88.3136 439.483,-81.7515"/>
</g>
<!-- Node30 -->
<g id="node30" class="node"><title>Node30</title>
<polygon fill="none" stroke="#bfbfbf" points="456,-62.5 456,-81.5 508,-81.5 508,-62.5 456,-62.5"/>
<text text-anchor="middle" x="482" y="-69.5" font-family="Helvetica,sans-Serif" font-size="10.00">sstream</text>
</g>
<!-- Node27&#45;&gt;Node30 -->
<g id="edge42" class="edge"><title>Node27&#45;&gt;Node30</title>
<path fill="none" stroke="midnightblue" d="M602.67,-124.394C581.326,-115.352 546.791,-100.707 517,-88 515.176,-87.2219 513.298,-86.4201 511.405,-85.611"/>
<polygon fill="midnightblue" stroke="midnightblue" points="512.555,-82.2959 501.984,-81.5787 509.801,-88.7312 512.555,-82.2959"/>
</g>
<!-- Node31 -->
<g id="node31" class="node"><title>Node31</title>
<polygon fill="none" stroke="#bfbfbf" points="526.5,-62.5 526.5,-81.5 575.5,-81.5 575.5,-62.5 526.5,-62.5"/>
<text text-anchor="middle" x="551" y="-69.5" font-family="Helvetica,sans-Serif" font-size="10.00">string.h</text>
</g>
<!-- Node27&#45;&gt;Node31 -->
<g id="edge43" class="edge"><title>Node27&#45;&gt;Node31</title>
<path fill="none" stroke="midnightblue" d="M612.684,-124.403C601.349,-114.958 582.927,-99.6056 569.161,-88.1342"/>
<polygon fill="midnightblue" stroke="midnightblue" points="571.22,-85.2937 561.297,-81.5806 566.738,-90.6713 571.22,-85.2937"/>
</g>
<!-- Node27&#45;&gt;Node16 -->
<g id="edge44" class="edge"><title>Node27&#45;&gt;Node16</title>
<path fill="none" stroke="midnightblue" d="M639.333,-124.403C658.211,-114.468 689.507,-97.9966 711.576,-86.3812"/>
<polygon fill="midnightblue" stroke="midnightblue" points="713.478,-89.3353 720.697,-81.5806 710.218,-83.1409 713.478,-89.3353"/>
</g>
<!-- Node33 -->
<g id="node33" class="node"><title>Node33</title>
<g id="a_node33"><a xlink:href="compiler_8h_source.html" target="_top" xlink:title="compiler.h">
<polygon fill="none" stroke="black" points="135,-62.5 135,-81.5 197,-81.5 197,-62.5 135,-62.5"/>
<text text-anchor="middle" x="166" y="-69.5" font-family="Helvetica,sans-Serif" font-size="10.00">compiler.h</text>
</a>
</g>
</g>
<!-- Node32&#45;&gt;Node33 -->
<g id="edge46" class="edge"><title>Node32&#45;&gt;Node33</title>
<path fill="none" stroke="midnightblue" d="M472.5,-124.657C401.773,-112.737 273.089,-91.0488 207.234,-79.9495"/>
<polygon fill="midnightblue" stroke="midnightblue" points="207.665,-76.4729 197.222,-78.2622 206.501,-83.3755 207.665,-76.4729"/>
</g>
<!-- Node35 -->
<g id="node35" class="node"><title>Node35</title>
<g id="a_node35"><a xlink:href="dimension_8h_source.html" target="_top" xlink:title="dimension.h">
<polygon fill="none" stroke="black" points="291.5,-62.5 291.5,-81.5 360.5,-81.5 360.5,-62.5 291.5,-62.5"/>
<text text-anchor="middle" x="326" y="-69.5" font-family="Helvetica,sans-Serif" font-size="10.00">dimension.h</text>
</a>
</g>
</g>
<!-- Node32&#45;&gt;Node35 -->
<g id="edge48" class="edge"><title>Node32&#45;&gt;Node35</title>
<path fill="none" stroke="midnightblue" d="M491.383,-124.478C460.398,-115.74 411.177,-101.55 369,-88 365.914,-87.0085 362.713,-85.9498 359.514,-84.871"/>
<polygon fill="midnightblue" stroke="midnightblue" points="360.631,-81.554 350.036,-81.6206 358.36,-88.1754 360.631,-81.554"/>
</g>
<!-- Node34 -->
<g id="node34" class="node"><title>Node34</title>
<polygon fill="none" stroke="#bfbfbf" points="134,-0.5 134,-19.5 198,-19.5 198,-0.5 134,-0.5"/>
<text text-anchor="middle" x="166" y="-7.5" font-family="Helvetica,sans-Serif" font-size="10.00">psiconfig.h</text>
</g>
<!-- Node33&#45;&gt;Node34 -->
<g id="edge47" class="edge"><title>Node33&#45;&gt;Node34</title>
<path fill="none" stroke="midnightblue" d="M166,-62.4035C166,-53.9381 166,-40.7283 166,-29.8199"/>
<polygon fill="midnightblue" stroke="midnightblue" points="169.5,-29.5806 166,-19.5806 162.5,-29.5806 169.5,-29.5806"/>
</g>
<!-- Node35&#45;&gt;Node11 -->
<g id="edge49" class="edge"><title>Node35&#45;&gt;Node11</title>
<path fill="none" stroke="midnightblue" d="M346.656,-62.4082C353.632,-59.8823 361.543,-57.4183 369,-56 564.107,-18.8885 1063.76,-32.1003 1262,-20 1288.79,-18.3647 1319.2,-15.8244 1341.24,-13.859"/>
<polygon fill="midnightblue" stroke="midnightblue" points="1341.69,-17.3325 1351.34,-12.9469 1341.06,-10.3608 1341.69,-17.3325"/>
</g>
<!-- Node35&#45;&gt;Node2 -->
<g id="edge50" class="edge"><title>Node35&#45;&gt;Node2</title>
<path fill="none" stroke="midnightblue" d="M319.696,-62.4035C313.096,-53.4034 302.563,-39.0408 294.307,-27.7824"/>
<polygon fill="midnightblue" stroke="midnightblue" points="297.029,-25.5749 288.292,-19.5806 291.384,-29.7144 297.029,-25.5749"/>
</g>
<!-- Node35&#45;&gt;Node9 -->
<g id="edge51" class="edge"><title>Node35&#45;&gt;Node9</title>
<path fill="none" stroke="midnightblue" d="M348.555,-62.3795C355.086,-60.0894 362.27,-57.7653 369,-56 446.434,-35.6894 539.707,-21.6198 587.81,-15.1081"/>
<polygon fill="midnightblue" stroke="midnightblue" points="588.473,-18.5509 597.923,-13.7609 587.548,-11.6122 588.473,-18.5509"/>
</g>
<!-- Node36&#45;&gt;Node2 -->
<g id="edge54" class="edge"><title>Node36&#45;&gt;Node2</title>
<path fill="none" stroke="midnightblue" d="M552.322,-180.403C529.244,-171.83 493.303,-157.961 463,-144 445.666,-136.014 442.824,-130.822 425,-124 363.792,-100.572 322.291,-139.691 282,-88 269.191,-71.5669 271.979,-46.6021 276.12,-29.5855"/>
<polygon fill="midnightblue" stroke="midnightblue" points="279.556,-30.2941 278.886,-19.7204 272.816,-28.404 279.556,-30.2941"/>
</g>
</g>
</svg>
        <g id="navigator" transform="translate(0 0)" fill="#404254">
                <rect fill="#f2f5e9" fill-opacity="0.5" stroke="#606060" stroke-width=".5" x="0" y="0" width="60" height="60"/>
                <use id="zoomplus" xlink:href="#zoomPlus" x="17" y="9" onmousedown="handleZoom(evt,'in')"/>
                <use id="zoomminus" xlink:href="#zoomMin" x="42" y="9" onmousedown="handleZoom(evt,'out')"/>
                <use id="reset" xlink:href="#resetDef" x="30" y="36" onmousedown="handleReset()"/>
                <g id="arrowUp" xlink:href="#dirArrow" transform="translate(30 24)" onmousedown="handlePan(0,-1)">
                  <use xlink:href="#rim" fill="#404040">
                        <set attributeName="fill" to="#808080" begin="arrowUp.mouseover" end="arrowUp.mouseout"/>
                  </use>
                  <path fill="none" stroke="white" stroke-width="1.5" d="M0,-3.0v7 M-2.5,-0.5L0,-3.0L2.5,-0.5"/>
                </g>
                <g id="arrowRight" xlink:href="#dirArrow" transform="rotate(90) translate(36 -43)" onmousedown="handlePan(1,0)">
                  <use xlink:href="#rim" fill="#404040">
                        <set attributeName="fill" to="#808080" begin="arrowRight.mouseover" end="arrowRight.mouseout"/>
                  </use>
                  <path fill="none" stroke="white" stroke-width="1.5" d="M0,-3.0v7 M-2.5,-0.5L0,-3.0L2.5,-0.5"/>
                </g>
                <g id="arrowDown" xlink:href="#dirArrow" transform="rotate(180) translate(-30 -48)" onmousedown="handlePan(0,1)">
                  <use xlink:href="#rim" fill="#404040">
                        <set attributeName="fill" to="#808080" begin="arrowDown.mouseover" end="arrowDown.mouseout"/>
                  </use>
                  <path fill="none" stroke="white" stroke-width="1.5" d="M0,-3.0v7 M-2.5,-0.5L0,-3.0L2.5,-0.5"/>
                </g>
                <g id="arrowLeft" xlink:href="#dirArrow" transform="rotate(270) translate(-36 17)" onmousedown="handlePan(-1,0)">
                  <use xlink:href="#rim" fill="#404040">
                        <set attributeName="fill" to="#808080" begin="arrowLeft.mouseover" end="arrowLeft.mouseout"/>
                  </use>
                  <path fill="none" stroke="white" stroke-width="1.5" d="M0,-3.0v7 M-2.5,-0.5L0,-3.0L2.5,-0.5"/>
                </g>
        </g>
        <svg viewBox="0 0 15 15" width="100%" height="30px" preserveAspectRatio="xMaxYMin meet">
         <g id="arrow_out" transform="scale(0.3 0.3)">
          <a xlink:href="ccenergy_2converged_8cc__incl_org.svg" target="_base">
           <rect id="button" ry="5" rx="5" y="6" x="6" height="38" width="38"
                fill="#f2f5e9" fill-opacity="0.5" stroke="#606060" stroke-width="1.0"/>
           <path id="arrow"
             d="M 11.500037,31.436501 C 11.940474,20.09759 22.043105,11.32322 32.158766,21.979434 L 37.068811,17.246167 C 37.068811,17.246167 37.088388,32 37.088388,32 L 22.160133,31.978069 C 22.160133,31.978069 26.997745,27.140456 26.997745,27.140456 C 18.528582,18.264221 13.291696,25.230495 11.500037,31.436501 z"
             style="fill:#404040;"/>
          </a>
         </g>
        </svg>
</svg>
