<?xml version="1.0" encoding="UTF-8" standalone="no"?>
<!DOCTYPE svg PUBLIC "-//W3C//DTD SVG 1.1//EN"
 "http://www.w3.org/Graphics/SVG/1.1/DTD/svg11.dtd">
<!-- Generated by graphviz version 2.30.1 (20140110.0959)
 -->
<!-- Title: amp_write.cc Pages: 1 -->
<svg width="538pt" height="196pt"
 viewBox="0.00 0.00 538.00 196.00" xmlns="http://www.w3.org/2000/svg" xmlns:xlink="http://www.w3.org/1999/xlink">
<g id="graph0" class="graph" transform="scale(1 1) rotate(0) translate(4 192)">
<title>amp_write.cc</title>
<!-- Node1 -->
<g id="node1" class="node"><title>Node1</title>
<polygon fill="#bfbfbf" stroke="black" points="229.5,-168.5 229.5,-187.5 304.5,-187.5 304.5,-168.5 229.5,-168.5"/>
<text text-anchor="middle" x="267" y="-175.5" font-family="Helvetica,sans-Serif" font-size="10.00">amp_write.cc</text>
</g>
<!-- Node2 -->
<g id="node2" class="node"><title>Node2</title>
<polygon fill="none" stroke="#bfbfbf" points="-0.5,-0.5 -0.5,-19.5 42.5,-19.5 42.5,-0.5 -0.5,-0.5"/>
<text text-anchor="middle" x="21" y="-7.5" font-family="Helvetica,sans-Serif" font-size="10.00">cstdio</text>
</g>
<!-- Node1&#45;&gt;Node2 -->
<g id="edge1" class="edge"><title>Node1&#45;&gt;Node2</title>
<path fill="none" stroke="midnightblue" d="M229.431,-173.038C195.884,-167.989 146.678,-156.727 111,-132 71.8675,-104.879 42.9149,-55.2279 29.4271,-28.7438"/>
<polygon fill="midnightblue" stroke="midnightblue" points="32.4458,-26.9513 24.8857,-19.5285 26.1668,-30.0456 32.4458,-26.9513"/>
</g>
<!-- Node3 -->
<g id="node3" class="node"><title>Node3</title>
<polygon fill="none" stroke="#bfbfbf" points="270.5,-112.5 270.5,-131.5 315.5,-131.5 315.5,-112.5 270.5,-112.5"/>
<text text-anchor="middle" x="293" y="-119.5" font-family="Helvetica,sans-Serif" font-size="10.00">cstdlib</text>
</g>
<!-- Node1&#45;&gt;Node3 -->
<g id="edge2" class="edge"><title>Node1&#45;&gt;Node3</title>
<path fill="none" stroke="midnightblue" d="M271.293,-168.083C274.852,-160.691 280.022,-149.953 284.424,-140.811"/>
<polygon fill="midnightblue" stroke="midnightblue" points="287.602,-142.279 288.787,-131.751 281.295,-139.243 287.602,-142.279"/>
</g>
<!-- Node4 -->
<g id="node4" class="node"><title>Node4</title>
<polygon fill="none" stroke="#bfbfbf" points="334,-112.5 334,-131.5 378,-131.5 378,-112.5 334,-112.5"/>
<text text-anchor="middle" x="356" y="-119.5" font-family="Helvetica,sans-Serif" font-size="10.00">cmath</text>
</g>
<!-- Node1&#45;&gt;Node4 -->
<g id="edge3" class="edge"><title>Node1&#45;&gt;Node4</title>
<path fill="none" stroke="midnightblue" d="M281.299,-168.324C295.183,-159.9 316.492,-146.971 332.804,-137.074"/>
<polygon fill="midnightblue" stroke="midnightblue" points="335.002,-139.834 341.736,-131.655 331.371,-133.85 335.002,-139.834"/>
</g>
<!-- Node5 -->
<g id="node5" class="node"><title>Node5</title>
<g id="a_node5"><a xlink:href="lib_2libdpd_2dpd_8h.html" target="_top" xlink:title="Enter brief description of file here.">
<polygon fill="none" stroke="black" points="144.5,-56.5 144.5,-75.5 213.5,-75.5 213.5,-56.5 144.5,-56.5"/>
<text text-anchor="middle" x="179" y="-63.5" font-family="Helvetica,sans-Serif" font-size="10.00">libdpd/dpd.h</text>
</a>
</g>
</g>
<!-- Node1&#45;&gt;Node5 -->
<g id="edge4" class="edge"><title>Node1&#45;&gt;Node5</title>
<path fill="none" stroke="midnightblue" d="M259.048,-168.188C251.035,-159.224 238.401,-144.862 228,-132 215.004,-115.929 200.864,-97.0066 191.13,-83.7354"/>
<polygon fill="midnightblue" stroke="midnightblue" points="193.883,-81.5712 185.162,-75.5551 188.228,-85.6967 193.883,-81.5712"/>
</g>
<!-- Node9 -->
<g id="node9" class="node"><title>Node9</title>
<polygon fill="none" stroke="#bfbfbf" points="361,-0.5 361,-19.5 405,-19.5 405,-0.5 361,-0.5"/>
<text text-anchor="middle" x="383" y="-7.5" font-family="Helvetica,sans-Serif" font-size="10.00">vector</text>
</g>
<!-- Node1&#45;&gt;Node9 -->
<g id="edge10" class="edge"><title>Node1&#45;&gt;Node9</title>
<path fill="none" stroke="midnightblue" d="M263.432,-168.096C258.811,-155.095 252.318,-130.459 261,-112 280.431,-70.688 325.974,-40.479 355.586,-24.3481"/>
<polygon fill="midnightblue" stroke="midnightblue" points="357.369,-27.3649 364.587,-19.6093 354.108,-21.1709 357.369,-27.3649"/>
</g>
<!-- Node10 -->
<g id="node10" class="node"><title>Node10</title>
<g id="a_node10"><a xlink:href="cceom_2MOInfo_8h.html" target="_top" xlink:title="Enter brief description of file here.">
<polygon fill="none" stroke="black" points="396.5,-112.5 396.5,-131.5 453.5,-131.5 453.5,-112.5 396.5,-112.5"/>
<text text-anchor="middle" x="425" y="-119.5" font-family="Helvetica,sans-Serif" font-size="10.00">MOInfo.h</text>
</a>
</g>
</g>
<!-- Node1&#45;&gt;Node10 -->
<g id="edge11" class="edge"><title>Node1&#45;&gt;Node10</title>
<path fill="none" stroke="midnightblue" d="M292.036,-168.444C318.616,-159.359 360.809,-144.939 390.523,-134.783"/>
<polygon fill="midnightblue" stroke="midnightblue" points="391.751,-138.062 400.082,-131.516 389.487,-131.439 391.751,-138.062"/>
</g>
<!-- Node11 -->
<g id="node11" class="node"><title>Node11</title>
<g id="a_node11"><a xlink:href="cceom_2Params_8h.html" target="_top" xlink:title="Enter brief description of file here.">
<polygon fill="none" stroke="black" points="471.5,-112.5 471.5,-131.5 530.5,-131.5 530.5,-112.5 471.5,-112.5"/>
<text text-anchor="middle" x="501" y="-119.5" font-family="Helvetica,sans-Serif" font-size="10.00">Params.h</text>
</a>
</g>
</g>
<!-- Node1&#45;&gt;Node11 -->
<g id="edge12" class="edge"><title>Node1&#45;&gt;Node11</title>
<path fill="none" stroke="midnightblue" d="M304.078,-168.444C346.999,-158.539 417.408,-142.291 461.38,-132.143"/>
<polygon fill="midnightblue" stroke="midnightblue" points="462.192,-135.548 471.149,-129.889 460.618,-128.727 462.192,-135.548"/>
</g>
<!-- Node13 -->
<g id="node13" class="node"><title>Node13</title>
<g id="a_node13"><a xlink:href="cceom_2globals_8h.html" target="_top" xlink:title="Enter brief description of file here.">
<polygon fill="none" stroke="black" points="120,-112.5 120,-131.5 176,-131.5 176,-112.5 120,-112.5"/>
<text text-anchor="middle" x="148" y="-119.5" font-family="Helvetica,sans-Serif" font-size="10.00">globals.h</text>
</a>
</g>
</g>
<!-- Node1&#45;&gt;Node13 -->
<g id="edge14" class="edge"><title>Node1&#45;&gt;Node13</title>
<path fill="none" stroke="midnightblue" d="M248.144,-168.444C228.734,-159.636 198.27,-145.812 176.035,-135.722"/>
<polygon fill="midnightblue" stroke="midnightblue" points="177.32,-132.462 166.768,-131.516 174.428,-138.836 177.32,-132.462"/>
</g>
<!-- Node5&#45;&gt;Node2 -->
<g id="edge5" class="edge"><title>Node5&#45;&gt;Node2</title>
<path fill="none" stroke="midnightblue" d="M153.964,-56.4435C126.446,-47.0385 82.1934,-31.9142 52.3782,-21.7242"/>
<polygon fill="midnightblue" stroke="midnightblue" points="53.46,-18.3952 42.8655,-18.473 51.1962,-25.0191 53.46,-18.3952"/>
</g>
<!-- Node6 -->
<g id="node6" class="node"><title>Node6</title>
<g id="a_node6"><a xlink:href="psifiles_8h_source.html" target="_top" xlink:title="psifiles.h">
<polygon fill="none" stroke="black" points="61,-0.5 61,-19.5 117,-19.5 117,-0.5 61,-0.5"/>
<text text-anchor="middle" x="89" y="-7.5" font-family="Helvetica,sans-Serif" font-size="10.00">psifiles.h</text>
</a>
</g>
</g>
<!-- Node5&#45;&gt;Node6 -->
<g id="edge6" class="edge"><title>Node5&#45;&gt;Node6</title>
<path fill="none" stroke="midnightblue" d="M164.54,-56.324C150.5,-47.9002 128.952,-34.9709 112.457,-25.0741"/>
<polygon fill="midnightblue" stroke="midnightblue" points="113.8,-21.7983 103.424,-19.6545 110.198,-27.8007 113.8,-21.7983"/>
</g>
<!-- Node7 -->
<g id="node7" class="node"><title>Node7</title>
<g id="a_node7"><a xlink:href="libpsio_2config_8h_source.html" target="_top" xlink:title="libpsio/config.h">
<polygon fill="none" stroke="black" points="261,-0.5 261,-19.5 343,-19.5 343,-0.5 261,-0.5"/>
<text text-anchor="middle" x="302" y="-7.5" font-family="Helvetica,sans-Serif" font-size="10.00">libpsio/config.h</text>
</a>
</g>
</g>
<!-- Node5&#45;&gt;Node7 -->
<g id="edge7" class="edge"><title>Node5&#45;&gt;Node7</title>
<path fill="none" stroke="midnightblue" d="M198.49,-56.4435C218.642,-47.5961 250.323,-33.6875 273.331,-23.5865"/>
<polygon fill="midnightblue" stroke="midnightblue" points="274.852,-26.7411 282.601,-19.5164 272.038,-20.3316 274.852,-26.7411"/>
</g>
<!-- Node8 -->
<g id="node8" class="node"><title>Node8</title>
<polygon fill="none" stroke="#bfbfbf" points="135,-0.5 135,-19.5 243,-19.5 243,-0.5 135,-0.5"/>
<text text-anchor="middle" x="189" y="-7.5" font-family="Helvetica,sans-Serif" font-size="10.00">boost/shared_ptr.hpp</text>
</g>
<!-- Node5&#45;&gt;Node8 -->
<g id="edge8" class="edge"><title>Node5&#45;&gt;Node8</title>
<path fill="none" stroke="midnightblue" d="M180.651,-56.083C181.976,-48.9272 183.882,-38.6353 185.539,-29.6911"/>
<polygon fill="midnightblue" stroke="midnightblue" points="189,-30.2212 187.379,-19.7511 182.117,-28.9466 189,-30.2212"/>
</g>
<!-- Node5&#45;&gt;Node9 -->
<g id="edge9" class="edge"><title>Node5&#45;&gt;Node9</title>
<path fill="none" stroke="midnightblue" d="M212.888,-56.4848C245.841,-48.1379 297.549,-34.8671 351.023,-20.217"/>
<polygon fill="midnightblue" stroke="midnightblue" points="351.956,-23.5903 360.67,-17.564 350.1,-16.8409 351.956,-23.5903"/>
</g>
<!-- Node12 -->
<g id="node12" class="node"><title>Node12</title>
<polygon fill="none" stroke="#bfbfbf" points="480.5,-56.5 480.5,-75.5 521.5,-75.5 521.5,-56.5 480.5,-56.5"/>
<text text-anchor="middle" x="501" y="-63.5" font-family="Helvetica,sans-Serif" font-size="10.00">string</text>
</g>
<!-- Node11&#45;&gt;Node12 -->
<g id="edge13" class="edge"><title>Node11&#45;&gt;Node12</title>
<path fill="none" stroke="midnightblue" d="M501,-112.083C501,-105.006 501,-94.8611 501,-85.9865"/>
<polygon fill="midnightblue" stroke="midnightblue" points="504.5,-85.751 501,-75.7511 497.5,-85.7511 504.5,-85.751"/>
</g>
<!-- Node13&#45;&gt;Node6 -->
<g id="edge15" class="edge"><title>Node13&#45;&gt;Node6</title>
<path fill="none" stroke="midnightblue" d="M143.37,-112.368C133.72,-94.376 111.286,-52.5503 98.4543,-28.6267"/>
<polygon fill="midnightblue" stroke="midnightblue" points="101.419,-26.7495 93.6081,-19.5914 95.2505,-30.0582 101.419,-26.7495"/>
</g>
<!-- Node13&#45;&gt;Node5 -->
<g id="edge16" class="edge"><title>Node13&#45;&gt;Node5</title>
<path fill="none" stroke="midnightblue" d="M153.119,-112.083C157.408,-104.613 163.658,-93.7244 168.942,-84.5199"/>
<polygon fill="midnightblue" stroke="midnightblue" points="172.033,-86.1662 173.976,-75.7511 165.962,-82.6811 172.033,-86.1662"/>
</g>
</g>
</svg>
