<?xml version="1.0" encoding="UTF-8" standalone="no"?>
<!DOCTYPE svg PUBLIC "-//W3C//DTD SVG 1.1//EN"
 "http://www.w3.org/Graphics/SVG/1.1/DTD/svg11.dtd">
<!-- Generated by graphviz version 2.30.1 (20140110.0959)
 -->
<!-- Title: MOInfo.h Pages: 1 -->
<!--zoomable 84 -->
<svg id="main" version="1.1" xmlns="http://www.w3.org/2000/svg" xmlns:xlink="http://www.w3.org/1999/xlink" xml:space="preserve" onload="init(evt)">
        <defs>
                <circle id="rim" cx="0" cy="0" r="7"/>
                <circle id="rim2" cx="0" cy="0" r="3.5"/>
                <g id="zoomPlus">
                        <use xlink:href="#rim" fill="#404040">
                                <set attributeName="fill" to="#808080" begin="zoomplus.mouseover" end="zoomplus.mouseout"/>
                        </use>
                        <path d="M-4,0h8M0,-4v8" fill="none" stroke="white" stroke-width="1.5" pointer-events="none"/>
                </g>
                <g id="zoomMin">
                        <use xlink:href="#rim" fill="#404040">
                                <set attributeName="fill" to="#808080" begin="zoomminus.mouseover" end="zoomminus.mouseout"/>
                        </use>
                        <path d="M-4,0h8" fill="none" stroke="white" stroke-width="1.5" pointer-events="none"/>
                </g>
                <g id="dirArrow">
                        <path fill="none" stroke="white" stroke-width="1.5" d="M0,-3.0v7 M-2.5,-0.5L0,-3.0L2.5,-0.5"/>
                </g>
               <g id="resetDef">
                       <use xlink:href="#rim2" fill="#404040">
                               <set attributeName="fill" to="#808080" begin="reset.mouseover" end="reset.mouseout"/>
                       </use>
               </g>
        </defs>

<script type="text/javascript">
var viewWidth = 4514;
var viewHeight = 84;
var sectionId = 'dynsection-0';
</script>
<script xlink:href="svgpan.js"/>
<svg id="graph" class="graph">
<g id="viewport">
<title>MOInfo.h</title>
<!-- Node1 -->
<g id="node1" class="node"><title>Node1</title>
<polygon fill="#bfbfbf" stroke="black" points="2203.5,-56.5 2203.5,-75.5 2260.5,-75.5 2260.5,-56.5 2203.5,-56.5"/>
<text text-anchor="middle" x="2232" y="-63.5" font-family="Helvetica,sans-Serif" font-size="10.00">MOInfo.h</text>
</g>
<!-- Node2 -->
<g id="node2" class="node"><title>Node2</title>
<g id="a_node2"><a xlink:href="cceom_2amp__write_8cc.html" target="_top" xlink:title="print out converged right&#45;hand eigenvectors amp_write_RHF() amp_write_UHF() amp_write_ROHF() int namp...">
<polygon fill="none" stroke="black" points="-0.5,-0.5 -0.5,-19.5 74.5,-19.5 74.5,-0.5 -0.5,-0.5"/>
<text text-anchor="middle" x="37" y="-7.5" font-family="Helvetica,sans-Serif" font-size="10.00">amp_write.cc</text>
</a>
</g>
</g>
<!-- Node1&#45;&gt;Node2 -->
<g id="edge1" class="edge"><title>Node1&#45;&gt;Node2</title>
<path fill="none" stroke="midnightblue" d="M2193.25,-65.0797C1939.86,-65.4666 515.97,-65.5561 84,-20 80.943,-19.6776 77.7879,-19.2604 74.6268,-18.7825"/>
<polygon fill="midnightblue" stroke="midnightblue" points="2193.45,-68.5794 2203.44,-65.0629 2193.44,-61.5795 2193.45,-68.5794"/>
</g>
<!-- Node3 -->
<g id="node3" class="node"><title>Node3</title>
<g id="a_node3"><a xlink:href="cceom_2c__clean_8cc.html" target="_top" xlink:title="Enter brief description of file here.">
<polygon fill="none" stroke="black" points="93,-0.5 93,-19.5 157,-19.5 157,-0.5 93,-0.5"/>
<text text-anchor="middle" x="125" y="-7.5" font-family="Helvetica,sans-Serif" font-size="10.00">c_clean.cc</text>
</a>
</g>
</g>
<!-- Node1&#45;&gt;Node3 -->
<g id="edge2" class="edge"><title>Node1&#45;&gt;Node3</title>
<path fill="none" stroke="midnightblue" d="M2193.18,-65.1841C1945.19,-66.2049 579.976,-69.4682 166,-20 163.106,-19.6541 160.115,-19.1966 157.128,-18.6708"/>
<polygon fill="midnightblue" stroke="midnightblue" points="2193.51,-68.6828 2203.49,-65.1402 2193.48,-61.6829 2193.51,-68.6828"/>
</g>
<!-- Node4 -->
<g id="node4" class="node"><title>Node4</title>
<g id="a_node4"><a xlink:href="cceom_2cc2__hbar__extra_8cc.html" target="_top" xlink:title="Enter brief description of file here.">
<polygon fill="none" stroke="black" points="175.5,-0.5 175.5,-19.5 272.5,-19.5 272.5,-0.5 175.5,-0.5"/>
<text text-anchor="middle" x="224" y="-7.5" font-family="Helvetica,sans-Serif" font-size="10.00">cc2_hbar_extra.cc</text>
</a>
</g>
</g>
<!-- Node1&#45;&gt;Node4 -->
<g id="edge3" class="edge"><title>Node1&#45;&gt;Node4</title>
<path fill="none" stroke="midnightblue" d="M2193.13,-64.8122C1953.29,-63.5465 671.905,-55.2103 281,-20 278.306,-19.7573 275.546,-19.4657 272.764,-19.1382"/>
<polygon fill="midnightblue" stroke="midnightblue" points="2193.43,-68.3137 2203.45,-64.8656 2193.47,-61.3138 2193.43,-68.3137"/>
</g>
<!-- Node5 -->
<g id="node5" class="node"><title>Node5</title>
<g id="a_node5"><a xlink:href="cc2__sigma_8cc.html" target="_top" xlink:title="Enter brief description of file here.">
<polygon fill="none" stroke="black" points="290.5,-0.5 290.5,-19.5 367.5,-19.5 367.5,-0.5 290.5,-0.5"/>
<text text-anchor="middle" x="329" y="-7.5" font-family="Helvetica,sans-Serif" font-size="10.00">cc2_sigma.cc</text>
</a>
</g>
</g>
<!-- Node1&#45;&gt;Node5 -->
<g id="edge4" class="edge"><title>Node1&#45;&gt;Node5</title>
<path fill="none" stroke="midnightblue" d="M2193.17,-64.9314C1960.27,-64.388 746.276,-59.6665 376,-20 373.274,-19.708 370.47,-19.3417 367.653,-18.9251"/>
<polygon fill="midnightblue" stroke="midnightblue" points="2193.2,-68.4314 2203.21,-64.9536 2193.21,-61.4314 2193.2,-68.4314"/>
</g>
<!-- Node6 -->
<g id="node6" class="node"><title>Node6</title>
<g id="a_node6"><a xlink:href="cc3__HC1_8cc.html" target="_top" xlink:title="Enter brief description of file here.">
<polygon fill="none" stroke="black" points="385.5,-0.5 385.5,-19.5 456.5,-19.5 456.5,-0.5 385.5,-0.5"/>
<text text-anchor="middle" x="421" y="-7.5" font-family="Helvetica,sans-Serif" font-size="10.00">cc3_HC1.cc</text>
</a>
</g>
</g>
<!-- Node1&#45;&gt;Node6 -->
<g id="edge5" class="edge"><title>Node1&#45;&gt;Node6</title>
<path fill="none" stroke="midnightblue" d="M2193.26,-64.9427C1967.18,-64.468 816.337,-60.0887 465,-20 462.366,-19.6995 459.656,-19.32 456.936,-18.8879"/>
<polygon fill="midnightblue" stroke="midnightblue" points="2193.31,-68.4427 2203.32,-64.9625 2193.32,-61.4428 2193.31,-68.4427"/>
</g>
<!-- Node7 -->
<g id="node7" class="node"><title>Node7</title>
<g id="a_node7"><a xlink:href="cc3__HC1ET1_8cc.html" target="_top" xlink:title="Enter brief description of file here.">
<polygon fill="none" stroke="black" points="474.5,-0.5 474.5,-19.5 563.5,-19.5 563.5,-0.5 474.5,-0.5"/>
<text text-anchor="middle" x="519" y="-7.5" font-family="Helvetica,sans-Serif" font-size="10.00">cc3_HC1ET1.cc</text>
</a>
</g>
</g>
<!-- Node1&#45;&gt;Node7 -->
<g id="edge6" class="edge"><title>Node1&#45;&gt;Node7</title>
<path fill="none" stroke="midnightblue" d="M2193.23,-64.6929C1975.35,-62.8542 901.413,-52.2712 572,-20 569.306,-19.7361 566.543,-19.4165 563.76,-19.0572"/>
<polygon fill="midnightblue" stroke="midnightblue" points="2193.21,-68.1927 2203.24,-64.7762 2193.27,-61.193 2193.21,-68.1927"/>
</g>
<!-- Node8 -->
<g id="node8" class="node"><title>Node8</title>
<g id="a_node8"><a xlink:href="cceom_8cc.html" target="_top" xlink:title="Enter brief description of file here.">
<polygon fill="none" stroke="black" points="581.5,-0.5 581.5,-19.5 640.5,-19.5 640.5,-0.5 581.5,-0.5"/>
<text text-anchor="middle" x="611" y="-7.5" font-family="Helvetica,sans-Serif" font-size="10.00">cceom.cc</text>
</a>
</g>
</g>
<!-- Node1&#45;&gt;Node8 -->
<g id="edge7" class="edge"><title>Node1&#45;&gt;Node8</title>
<path fill="none" stroke="midnightblue" d="M2193.36,-64.9401C1981.8,-64.4547 962.058,-60.0419 650,-20 646.967,-19.6109 643.825,-19.0896 640.701,-18.4932"/>
<polygon fill="midnightblue" stroke="midnightblue" points="2193.37,-68.4401 2203.37,-64.9615 2193.38,-61.4401 2193.37,-68.4401"/>
</g>
<!-- Node9 -->
<g id="node9" class="node"><title>Node9</title>
<g id="a_node9"><a xlink:href="cceom_2check__sum_8cc.html" target="_top" xlink:title="Enter brief description of file here.">
<polygon fill="none" stroke="black" points="659,-0.5 659,-19.5 739,-19.5 739,-0.5 659,-0.5"/>
<text text-anchor="middle" x="699" y="-7.5" font-family="Helvetica,sans-Serif" font-size="10.00">check_sum.cc</text>
</a>
</g>
</g>
<!-- Node1&#45;&gt;Node9 -->
<g id="edge8" class="edge"><title>Node1&#45;&gt;Node9</title>
<path fill="none" stroke="midnightblue" d="M2193.23,-64.6196C1989.42,-62.4986 1040.25,-51.0898 748,-20 745.076,-19.6889 742.064,-19.3017 739.039,-18.8641"/>
<polygon fill="midnightblue" stroke="midnightblue" points="2193.41,-68.1215 2203.45,-64.7246 2193.48,-61.1219 2193.41,-68.1215"/>
</g>
<!-- Node10 -->
<g id="node10" class="node"><title>Node10</title>
<g id="a_node10"><a xlink:href="dgeev__eom_8cc.html" target="_top" xlink:title="Enter brief description of file here.">
<polygon fill="none" stroke="black" points="757,-0.5 757,-19.5 837,-19.5 837,-0.5 757,-0.5"/>
<text text-anchor="middle" x="797" y="-7.5" font-family="Helvetica,sans-Serif" font-size="10.00">dgeev_eom.cc</text>
</a>
</g>
</g>
<!-- Node1&#45;&gt;Node10 -->
<g id="edge9" class="edge"><title>Node1&#45;&gt;Node10</title>
<path fill="none" stroke="midnightblue" d="M2193.32,-64.5248C1997.88,-62.0051 1117.78,-49.2059 846,-20 843.076,-19.6858 840.065,-19.2963 837.04,-18.857"/>
<polygon fill="midnightblue" stroke="midnightblue" points="2193.36,-68.0255 2203.4,-64.6535 2193.45,-61.0261 2193.36,-68.0255"/>
</g>
<!-- Node11 -->
<g id="node11" class="node"><title>Node11</title>
<g id="a_node11"><a xlink:href="cceom_2diag_8cc.html" target="_top" xlink:title="Enter brief description of file here.">
<polygon fill="none" stroke="black" points="855,-0.5 855,-19.5 903,-19.5 903,-0.5 855,-0.5"/>
<text text-anchor="middle" x="879" y="-7.5" font-family="Helvetica,sans-Serif" font-size="10.00">diag.cc</text>
</a>
</g>
</g>
<!-- Node1&#45;&gt;Node11 -->
<g id="edge10" class="edge"><title>Node1&#45;&gt;Node11</title>
<path fill="none" stroke="midnightblue" d="M2193.3,-64.8912C2003.35,-64.1726 1168.58,-58.8223 912,-20 909.064,-19.5558 906.016,-18.9418 903.012,-18.2413"/>
<polygon fill="midnightblue" stroke="midnightblue" points="2193.36,-68.3913 2203.37,-64.9272 2193.38,-61.3914 2193.36,-68.3913"/>
</g>
<!-- Node12 -->
<g id="node12" class="node"><title>Node12</title>
<g id="a_node12"><a xlink:href="diagSS_8cc.html" target="_top" xlink:title="Enter brief description of file here.">
<polygon fill="none" stroke="black" points="921,-0.5 921,-19.5 983,-19.5 983,-0.5 921,-0.5"/>
<text text-anchor="middle" x="952" y="-7.5" font-family="Helvetica,sans-Serif" font-size="10.00">diagSS.cc</text>
</a>
</g>
</g>
<!-- Node1&#45;&gt;Node12 -->
<g id="edge11" class="edge"><title>Node1&#45;&gt;Node12</title>
<path fill="none" stroke="midnightblue" d="M2193.07,-64.5574C2009.89,-62.326 1232.62,-51.1631 992,-20 989.176,-19.6343 986.259,-19.1632 983.345,-18.6285"/>
<polygon fill="midnightblue" stroke="midnightblue" points="2193.26,-68.0598 2203.3,-64.6802 2193.34,-61.0603 2193.26,-68.0598"/>
</g>
<!-- Node13 -->
<g id="node13" class="node"><title>Node13</title>
<g id="a_node13"><a xlink:href="FDD_8cc.html" target="_top" xlink:title="Enter brief description of file here.">
<polygon fill="none" stroke="black" points="1001.5,-0.5 1001.5,-19.5 1052.5,-19.5 1052.5,-0.5 1001.5,-0.5"/>
<text text-anchor="middle" x="1027" y="-7.5" font-family="Helvetica,sans-Serif" font-size="10.00">FDD.cc</text>
</a>
</g>
</g>
<!-- Node1&#45;&gt;Node13 -->
<g id="edge12" class="edge"><title>Node1&#45;&gt;Node13</title>
<path fill="none" stroke="midnightblue" d="M2193.23,-64.6574C2016.59,-62.9204 1286.77,-53.7963 1061,-20 1058.34,-19.6023 1055.59,-19.0754 1052.87,-18.4755"/>
<polygon fill="midnightblue" stroke="midnightblue" points="2193.33,-68.1583 2203.36,-64.7547 2193.39,-61.1587 2193.33,-68.1583"/>
</g>
<!-- Node14 -->
<g id="node14" class="node"><title>Node14</title>
<g id="a_node14"><a xlink:href="follow__root_8cc.html" target="_top" xlink:title="Enter brief description of file here.">
<polygon fill="none" stroke="black" points="1070.5,-0.5 1070.5,-19.5 1147.5,-19.5 1147.5,-0.5 1070.5,-0.5"/>
<text text-anchor="middle" x="1109" y="-7.5" font-family="Helvetica,sans-Serif" font-size="10.00">follow_root.cc</text>
</a>
</g>
</g>
<!-- Node1&#45;&gt;Node14 -->
<g id="edge13" class="edge"><title>Node1&#45;&gt;Node14</title>
<path fill="none" stroke="midnightblue" d="M2192.94,-65.439C2052.35,-66.5793 1559.19,-66.7764 1156,-20 1153.28,-19.6841 1150.47,-19.3 1147.66,-18.8707"/>
<polygon fill="midnightblue" stroke="midnightblue" points="2193.23,-68.9367 2203.2,-65.3488 2193.17,-61.9369 2193.23,-68.9367"/>
</g>
<!-- Node15 -->
<g id="node15" class="node"><title>Node15</title>
<g id="a_node15"><a xlink:href="form__diagonal_8cc.html" target="_top" xlink:title="Enter brief description of file here.">
<polygon fill="none" stroke="black" points="1165.5,-0.5 1165.5,-19.5 1256.5,-19.5 1256.5,-0.5 1165.5,-0.5"/>
<text text-anchor="middle" x="1211" y="-7.5" font-family="Helvetica,sans-Serif" font-size="10.00">form_diagonal.cc</text>
</a>
</g>
</g>
<!-- Node1&#45;&gt;Node15 -->
<g id="edge14" class="edge"><title>Node1&#45;&gt;Node15</title>
<path fill="none" stroke="midnightblue" d="M2193.15,-64.8002C2062.17,-63.7837 1624.93,-57.5996 1266,-20 1262.92,-19.6774 1259.75,-19.2949 1256.56,-18.8724"/>
<polygon fill="midnightblue" stroke="midnightblue" points="2193.44,-68.3023 2203.46,-64.8743 2193.49,-61.3025 2193.44,-68.3023"/>
</g>
<!-- Node16 -->
<g id="node16" class="node"><title>Node16</title>
<g id="a_node16"><a xlink:href="FSD_8cc.html" target="_top" xlink:title="Enter brief description of file here.">
<polygon fill="none" stroke="black" points="1275,-0.5 1275,-19.5 1325,-19.5 1325,-0.5 1275,-0.5"/>
<text text-anchor="middle" x="1300" y="-7.5" font-family="Helvetica,sans-Serif" font-size="10.00">FSD.cc</text>
</a>
</g>
</g>
<!-- Node1&#45;&gt;Node16 -->
<g id="edge15" class="edge"><title>Node1&#45;&gt;Node16</title>
<path fill="none" stroke="midnightblue" d="M2193.23,-64.1344C2043.57,-60.626 1503.45,-46.3771 1334,-20 1331.1,-19.5492 1328.1,-18.951 1325.13,-18.2766"/>
<polygon fill="midnightblue" stroke="midnightblue" points="2193.24,-67.6355 2203.32,-64.3684 2193.4,-60.6374 2193.24,-67.6355"/>
</g>
<!-- Node17 -->
<g id="node17" class="node"><title>Node17</title>
<g id="a_node17"><a xlink:href="get__eom__params_8cc.html" target="_top" xlink:title="Enter brief description of file here.">
<polygon fill="none" stroke="black" points="1343.5,-0.5 1343.5,-19.5 1448.5,-19.5 1448.5,-0.5 1343.5,-0.5"/>
<text text-anchor="middle" x="1396" y="-7.5" font-family="Helvetica,sans-Serif" font-size="10.00">get_eom_params.cc</text>
</a>
</g>
</g>
<!-- Node1&#45;&gt;Node17 -->
<g id="edge16" class="edge"><title>Node1&#45;&gt;Node17</title>
<path fill="none" stroke="midnightblue" d="M2193.21,-63.9259C2079.82,-60.5323 1739.19,-48.5295 1458,-20 1454.97,-19.6926 1451.86,-19.3447 1448.73,-18.969"/>
<polygon fill="midnightblue" stroke="midnightblue" points="2193.37,-67.4319 2203.47,-64.2278 2193.57,-60.435 2193.37,-67.4319"/>
</g>
<!-- Node18 -->
<g id="node18" class="node"><title>Node18</title>
<g id="a_node18"><a xlink:href="cceom_2get__moinfo_8cc.html" target="_top" xlink:title="Enter brief description of file here.">
<polygon fill="none" stroke="black" points="1467,-0.5 1467,-19.5 1545,-19.5 1545,-0.5 1467,-0.5"/>
<text text-anchor="middle" x="1506" y="-7.5" font-family="Helvetica,sans-Serif" font-size="10.00">get_moinfo.cc</text>
</a>
</g>
</g>
<!-- Node1&#45;&gt;Node18 -->
<g id="edge17" class="edge"><title>Node1&#45;&gt;Node18</title>
<path fill="none" stroke="midnightblue" d="M2193.46,-64.0485C2089.73,-61.1412 1796.14,-50.6255 1554,-20 1551.14,-19.6383 1548.19,-19.2139 1545.23,-18.7499"/>
<polygon fill="midnightblue" stroke="midnightblue" points="2193.37,-67.5474 2203.46,-64.3216 2193.56,-60.55 2193.37,-67.5474"/>
</g>
<!-- Node19 -->
<g id="node19" class="node"><title>Node19</title>
<g id="a_node19"><a xlink:href="bin_2cceom_2get__params_8cc.html" target="_top" xlink:title="Enter brief description of file here.">
<polygon fill="none" stroke="black" points="1563.5,-0.5 1563.5,-19.5 1644.5,-19.5 1644.5,-0.5 1563.5,-0.5"/>
<text text-anchor="middle" x="1604" y="-7.5" font-family="Helvetica,sans-Serif" font-size="10.00">get_params.cc</text>
</a>
</g>
</g>
<!-- Node1&#45;&gt;Node19 -->
<g id="edge18" class="edge"><title>Node1&#45;&gt;Node19</title>
<path fill="none" stroke="midnightblue" d="M2193.23,-63.3282C2100.03,-59.0157 1856.1,-45.9897 1654,-20 1650.94,-19.6063 1647.78,-19.152 1644.61,-18.661"/>
<polygon fill="midnightblue" stroke="midnightblue" points="2193.18,-66.8292 2203.33,-63.7882 2193.5,-59.8365 2193.18,-66.8292"/>
</g>
<!-- Node20 -->
<g id="node20" class="node"><title>Node20</title>
<g id="a_node20"><a xlink:href="cceom_2hbar__extra_8cc.html" target="_top" xlink:title="Enter brief description of file here.">
<polygon fill="none" stroke="black" points="1663,-0.5 1663,-19.5 1739,-19.5 1739,-0.5 1663,-0.5"/>
<text text-anchor="middle" x="1701" y="-7.5" font-family="Helvetica,sans-Serif" font-size="10.00">hbar_extra.cc</text>
</a>
</g>
</g>
<!-- Node1&#45;&gt;Node20 -->
<g id="edge19" class="edge"><title>Node1&#45;&gt;Node20</title>
<path fill="none" stroke="midnightblue" d="M2193.09,-62.6616C2110.71,-57.4293 1912.69,-43.3689 1748,-20 1745.12,-19.5915 1742.15,-19.1265 1739.17,-18.628"/>
<polygon fill="midnightblue" stroke="midnightblue" points="2193.05,-66.1656 2203.25,-63.2988 2193.49,-59.1793 2193.05,-66.1656"/>
</g>
<!-- Node21 -->
<g id="node21" class="node"><title>Node21</title>
<g id="a_node21"><a xlink:href="hbar__norms_8cc.html" target="_top" xlink:title="Enter brief description of file here.">
<polygon fill="none" stroke="black" points="1757.5,-0.5 1757.5,-19.5 1838.5,-19.5 1838.5,-0.5 1757.5,-0.5"/>
<text text-anchor="middle" x="1798" y="-7.5" font-family="Helvetica,sans-Serif" font-size="10.00">hbar_norms.cc</text>
</a>
</g>
</g>
<!-- Node1&#45;&gt;Node21 -->
<g id="edge20" class="edge"><title>Node1&#45;&gt;Node21</title>
<path fill="none" stroke="midnightblue" d="M2193.48,-61.2772C2124.19,-54.4042 1973.99,-38.7034 1848,-20 1844.95,-19.5467 1841.79,-19.0491 1838.62,-18.5278"/>
<polygon fill="midnightblue" stroke="midnightblue" points="2193.2,-64.7667 2203.5,-62.2651 2193.89,-57.8005 2193.2,-64.7667"/>
</g>
<!-- Node22 -->
<g id="node22" class="node"><title>Node22</title>
<g id="a_node22"><a xlink:href="bin_2cceom_2local_8cc.html" target="_top" xlink:title="Enter brief description of file here.">
<polygon fill="none" stroke="black" points="1857,-0.5 1857,-19.5 1907,-19.5 1907,-0.5 1857,-0.5"/>
<text text-anchor="middle" x="1882" y="-7.5" font-family="Helvetica,sans-Serif" font-size="10.00">local.cc</text>
</a>
</g>
</g>
<!-- Node1&#45;&gt;Node22 -->
<g id="edge21" class="edge"><title>Node1&#45;&gt;Node22</title>
<path fill="none" stroke="midnightblue" d="M2193.36,-60.9774C2133.56,-54.4193 2015.14,-40.1073 1916,-20 1913.13,-19.4174 1910.14,-18.7369 1907.17,-18.0156"/>
<polygon fill="midnightblue" stroke="midnightblue" points="2193.16,-64.4763 2203.48,-62.0744 2193.92,-57.5171 2193.16,-64.4763"/>
</g>
<!-- Node23 -->
<g id="node23" class="node"><title>Node23</title>
<g id="a_node23"><a xlink:href="local__guess_8cc.html" target="_top" xlink:title="Enter brief description of file here.">
<polygon fill="none" stroke="black" points="1925,-0.5 1925,-19.5 2007,-19.5 2007,-0.5 1925,-0.5"/>
<text text-anchor="middle" x="1966" y="-7.5" font-family="Helvetica,sans-Serif" font-size="10.00">local_guess.cc</text>
</a>
</g>
</g>
<!-- Node1&#45;&gt;Node23 -->
<g id="edge22" class="edge"><title>Node1&#45;&gt;Node23</title>
<path fill="none" stroke="midnightblue" d="M2193.26,-57.1359C2143.63,-47.0601 2057.96,-29.6689 2007.18,-19.3598"/>
<polygon fill="midnightblue" stroke="midnightblue" points="2192.78,-60.6102 2203.28,-59.1697 2194.18,-53.7501 2192.78,-60.6102"/>
</g>
<!-- Node24 -->
<g id="node24" class="node"><title>Node24</title>
<g id="a_node24"><a xlink:href="cceom_2norm_8cc.html" target="_top" xlink:title="Enter brief description of file here.">
<polygon fill="none" stroke="black" points="2025,-0.5 2025,-19.5 2077,-19.5 2077,-0.5 2025,-0.5"/>
<text text-anchor="middle" x="2051" y="-7.5" font-family="Helvetica,sans-Serif" font-size="10.00">norm.cc</text>
</a>
</g>
</g>
<!-- Node1&#45;&gt;Node24 -->
<g id="edge23" class="edge"><title>Node1&#45;&gt;Node24</title>
<path fill="none" stroke="midnightblue" d="M2193.44,-53.4967C2158.42,-43.0489 2107.72,-27.9209 2077.2,-18.8151"/>
<polygon fill="midnightblue" stroke="midnightblue" points="2192.74,-56.9385 2203.32,-56.4435 2194.74,-50.2306 2192.74,-56.9385"/>
</g>
<!-- Node25 -->
<g id="node25" class="node"><title>Node25</title>
<g id="a_node25"><a xlink:href="norm__HC1_8cc.html" target="_top" xlink:title="Enter brief description of file here.">
<polygon fill="none" stroke="black" points="2095.5,-0.5 2095.5,-19.5 2172.5,-19.5 2172.5,-0.5 2095.5,-0.5"/>
<text text-anchor="middle" x="2134" y="-7.5" font-family="Helvetica,sans-Serif" font-size="10.00">norm_HC1.cc</text>
</a>
</g>
</g>
<!-- Node1&#45;&gt;Node25 -->
<g id="edge24" class="edge"><title>Node1&#45;&gt;Node25</title>
<path fill="none" stroke="midnightblue" d="M2207.41,-51.4526C2189.32,-41.4835 2165.27,-28.2279 2149.71,-19.6545"/>
<polygon fill="midnightblue" stroke="midnightblue" points="2205.81,-54.5633 2216.25,-56.324 2209.19,-48.4324 2205.81,-54.5633"/>
</g>
<!-- Node26 -->
<g id="node26" class="node"><title>Node26</title>
<g id="a_node26"><a xlink:href="precondition_8cc.html" target="_top" xlink:title="Enter brief description of file here.">
<polygon fill="none" stroke="black" points="2190.5,-0.5 2190.5,-19.5 2273.5,-19.5 2273.5,-0.5 2190.5,-0.5"/>
<text text-anchor="middle" x="2232" y="-7.5" font-family="Helvetica,sans-Serif" font-size="10.00">precondition.cc</text>
</a>
</g>
</g>
<!-- Node1&#45;&gt;Node26 -->
<g id="edge25" class="edge"><title>Node1&#45;&gt;Node26</title>
<path fill="none" stroke="midnightblue" d="M2232,-45.8045C2232,-36.9102 2232,-26.7798 2232,-19.7511"/>
<polygon fill="midnightblue" stroke="midnightblue" points="2228.5,-46.083 2232,-56.083 2235.5,-46.083 2228.5,-46.083"/>
</g>
<!-- Node27 -->
<g id="node27" class="node"><title>Node27</title>
<g id="a_node27"><a xlink:href="read__guess_8cc.html" target="_top" xlink:title="Enter brief description of file here.">
<polygon fill="none" stroke="black" points="2292,-0.5 2292,-19.5 2372,-19.5 2372,-0.5 2292,-0.5"/>
<text text-anchor="middle" x="2332" y="-7.5" font-family="Helvetica,sans-Serif" font-size="10.00">read_guess.cc</text>
</a>
</g>
</g>
<!-- Node1&#45;&gt;Node27 -->
<g id="edge26" class="edge"><title>Node1&#45;&gt;Node27</title>
<path fill="none" stroke="midnightblue" d="M2257.09,-51.4526C2275.55,-41.4835 2300.1,-28.2279 2315.97,-19.6545"/>
<polygon fill="midnightblue" stroke="midnightblue" points="2255.2,-48.4928 2248.07,-56.324 2258.53,-54.6521 2255.2,-48.4928"/>
</g>
<!-- Node28 -->
<g id="node28" class="node"><title>Node28</title>
<g id="a_node28"><a xlink:href="restart_8cc.html" target="_top" xlink:title="Enter brief description of file here.">
<polygon fill="none" stroke="black" points="2390,-0.5 2390,-19.5 2448,-19.5 2448,-0.5 2390,-0.5"/>
<text text-anchor="middle" x="2419" y="-7.5" font-family="Helvetica,sans-Serif" font-size="10.00">restart.cc</text>
</a>
</g>
</g>
<!-- Node1&#45;&gt;Node28 -->
<g id="edge27" class="edge"><title>Node1&#45;&gt;Node28</title>
<path fill="none" stroke="midnightblue" d="M2270.79,-53.7974C2306.22,-43.5663 2357.82,-28.6669 2389.85,-19.4176"/>
<polygon fill="midnightblue" stroke="midnightblue" points="2269.45,-50.5438 2260.81,-56.6808 2271.39,-57.269 2269.45,-50.5438"/>
</g>
<!-- Node29 -->
<g id="node29" class="node"><title>Node29</title>
<g id="a_node29"><a xlink:href="restart__with__root_8cc.html" target="_top" xlink:title="Enter brief description of file here.">
<polygon fill="none" stroke="black" points="2466.5,-0.5 2466.5,-19.5 2569.5,-19.5 2569.5,-0.5 2466.5,-0.5"/>
<text text-anchor="middle" x="2518" y="-7.5" font-family="Helvetica,sans-Serif" font-size="10.00">restart_with_root.cc</text>
</a>
</g>
</g>
<!-- Node1&#45;&gt;Node29 -->
<g id="edge28" class="edge"><title>Node1&#45;&gt;Node29</title>
<path fill="none" stroke="midnightblue" d="M2270.68,-57.6969C2323.29,-47.7641 2417.21,-30.0303 2472.94,-19.5081"/>
<polygon fill="midnightblue" stroke="midnightblue" points="2269.91,-54.2804 2260.73,-59.575 2271.21,-61.1589 2269.91,-54.2804"/>
</g>
<!-- Node30 -->
<g id="node30" class="node"><title>Node30</title>
<g id="a_node30"><a xlink:href="rzero_8cc.html" target="_top" xlink:title="Enter brief description of file here.">
<polygon fill="none" stroke="black" points="2588,-0.5 2588,-19.5 2640,-19.5 2640,-0.5 2588,-0.5"/>
<text text-anchor="middle" x="2614" y="-7.5" font-family="Helvetica,sans-Serif" font-size="10.00">rzero.cc</text>
</a>
</g>
</g>
<!-- Node1&#45;&gt;Node30 -->
<g id="edge29" class="edge"><title>Node1&#45;&gt;Node30</title>
<path fill="none" stroke="midnightblue" d="M2270.98,-61.4148C2335.29,-55.1683 2467.5,-40.9261 2578,-20 2581.16,-19.4007 2584.47,-18.6921 2587.73,-17.9399"/>
<polygon fill="midnightblue" stroke="midnightblue" points="2270.51,-57.944 2260.89,-62.3834 2271.17,-64.912 2270.51,-57.944"/>
</g>
<!-- Node31 -->
<g id="node31" class="node"><title>Node31</title>
<g id="a_node31"><a xlink:href="bin_2cceom_2schmidt__add_8cc.html" target="_top" xlink:title="Enter brief description of file here.">
<polygon fill="none" stroke="black" points="2658,-0.5 2658,-19.5 2744,-19.5 2744,-0.5 2658,-0.5"/>
<text text-anchor="middle" x="2701" y="-7.5" font-family="Helvetica,sans-Serif" font-size="10.00">schmidt_add.cc</text>
</a>
</g>
</g>
<!-- Node1&#45;&gt;Node31 -->
<g id="edge30" class="edge"><title>Node1&#45;&gt;Node31</title>
<path fill="none" stroke="midnightblue" d="M2270.86,-61.6422C2344.71,-55.0758 2510.34,-39.461 2649,-20 2651.9,-19.5925 2654.89,-19.1463 2657.9,-18.6773"/>
<polygon fill="midnightblue" stroke="midnightblue" points="2270.3,-58.1782 2260.64,-62.5447 2270.91,-65.151 2270.3,-58.1782"/>
</g>
<!-- Node32 -->
<g id="node32" class="node"><title>Node32</title>
<g id="a_node32"><a xlink:href="sigma__full_8cc.html" target="_top" xlink:title="Enter brief description of file here.">
<polygon fill="none" stroke="black" points="2762,-0.5 2762,-19.5 2836,-19.5 2836,-0.5 2762,-0.5"/>
<text text-anchor="middle" x="2799" y="-7.5" font-family="Helvetica,sans-Serif" font-size="10.00">sigma_full.cc</text>
</a>
</g>
</g>
<!-- Node1&#45;&gt;Node32 -->
<g id="edge31" class="edge"><title>Node1&#45;&gt;Node32</title>
<path fill="none" stroke="midnightblue" d="M2270.81,-63.0721C2357.57,-58.451 2573.7,-45.2093 2753,-20 2755.9,-19.5921 2758.9,-19.121 2761.9,-18.6124"/>
<polygon fill="midnightblue" stroke="midnightblue" points="2270.44,-59.5864 2260.64,-63.6055 2270.81,-66.5767 2270.44,-59.5864"/>
</g>
<!-- Node33 -->
<g id="node33" class="node"><title>Node33</title>
<g id="a_node33"><a xlink:href="sigmaCC3_8cc.html" target="_top" xlink:title="Enter brief description of file here.">
<polygon fill="none" stroke="black" points="2854.5,-0.5 2854.5,-19.5 2931.5,-19.5 2931.5,-0.5 2854.5,-0.5"/>
<text text-anchor="middle" x="2893" y="-7.5" font-family="Helvetica,sans-Serif" font-size="10.00">sigmaCC3.cc</text>
</a>
</g>
</g>
<!-- Node1&#45;&gt;Node33 -->
<g id="edge32" class="edge"><title>Node1&#45;&gt;Node33</title>
<path fill="none" stroke="midnightblue" d="M2270.74,-63.6642C2367.79,-59.991 2629.02,-48.0852 2845,-20 2848.03,-19.6064 2851.15,-19.1455 2854.29,-18.6441"/>
<polygon fill="midnightblue" stroke="midnightblue" points="2270.39,-60.1746 2260.53,-64.043 2270.65,-67.1698 2270.39,-60.1746"/>
</g>
<!-- Node34 -->
<g id="node34" class="node"><title>Node34</title>
<g id="a_node34"><a xlink:href="sigmaCC3__RHF_8cc.html" target="_top" xlink:title="Enter brief description of file here.">
<polygon fill="none" stroke="black" points="2949.5,-0.5 2949.5,-19.5 3052.5,-19.5 3052.5,-0.5 2949.5,-0.5"/>
<text text-anchor="middle" x="3001" y="-7.5" font-family="Helvetica,sans-Serif" font-size="10.00">sigmaCC3_RHF.cc</text>
</a>
</g>
</g>
<!-- Node1&#45;&gt;Node34 -->
<g id="edge33" class="edge"><title>Node1&#45;&gt;Node34</title>
<path fill="none" stroke="midnightblue" d="M2270.73,-63.6688C2377.58,-59.7525 2685.44,-46.8224 2940,-20 2943.09,-19.6747 2946.26,-19.3076 2949.45,-18.9124"/>
<polygon fill="midnightblue" stroke="midnightblue" points="2270.6,-60.1711 2260.73,-64.0302 2270.85,-67.1665 2270.6,-60.1711"/>
</g>
<!-- Node35 -->
<g id="node35" class="node"><title>Node35</title>
<g id="a_node35"><a xlink:href="sigmaDD_8cc.html" target="_top" xlink:title="Enter brief description of file here.">
<polygon fill="none" stroke="black" points="3070.5,-0.5 3070.5,-19.5 3141.5,-19.5 3141.5,-0.5 3070.5,-0.5"/>
<text text-anchor="middle" x="3106" y="-7.5" font-family="Helvetica,sans-Serif" font-size="10.00">sigmaDD.cc</text>
</a>
</g>
</g>
<!-- Node1&#45;&gt;Node35 -->
<g id="edge34" class="edge"><title>Node1&#45;&gt;Node35</title>
<path fill="none" stroke="midnightblue" d="M2270.83,-64.8624C2389.62,-64.02 2758.4,-58.2728 3061,-20 3064,-19.6201 3067.11,-19.1547 3070.21,-18.6375"/>
<polygon fill="midnightblue" stroke="midnightblue" points="2270.75,-61.3628 2260.77,-64.926 2270.79,-68.3626 2270.75,-61.3628"/>
</g>
<!-- Node36 -->
<g id="node36" class="node"><title>Node36</title>
<g id="a_node36"><a xlink:href="sigmaDS_8cc.html" target="_top" xlink:title="Enter brief description of file here.">
<polygon fill="none" stroke="black" points="3159.5,-0.5 3159.5,-19.5 3230.5,-19.5 3230.5,-0.5 3159.5,-0.5"/>
<text text-anchor="middle" x="3195" y="-7.5" font-family="Helvetica,sans-Serif" font-size="10.00">sigmaDS.cc</text>
</a>
</g>
</g>
<!-- Node1&#45;&gt;Node36 -->
<g id="edge35" class="edge"><title>Node1&#45;&gt;Node36</title>
<path fill="none" stroke="midnightblue" d="M2271.07,-65.1521C2398.2,-65.2063 2811.48,-61.9138 3150,-20 3153,-19.628 3156.11,-19.1681 3159.22,-18.6547"/>
<polygon fill="midnightblue" stroke="midnightblue" points="2270.69,-61.6517 2260.69,-65.1397 2270.68,-68.6517 2270.69,-61.6517"/>
</g>
<!-- Node37 -->
<g id="node37" class="node"><title>Node37</title>
<g id="a_node37"><a xlink:href="sigmaSD_8cc.html" target="_top" xlink:title="Enter brief description of file here.">
<polygon fill="none" stroke="black" points="3248.5,-0.5 3248.5,-19.5 3319.5,-19.5 3319.5,-0.5 3248.5,-0.5"/>
<text text-anchor="middle" x="3284" y="-7.5" font-family="Helvetica,sans-Serif" font-size="10.00">sigmaSD.cc</text>
</a>
</g>
</g>
<!-- Node1&#45;&gt;Node37 -->
<g id="edge36" class="edge"><title>Node1&#45;&gt;Node37</title>
<path fill="none" stroke="midnightblue" d="M2270.77,-65.3912C2405.25,-66.297 2863.93,-65.6162 3239,-20 3242.01,-19.6345 3245.11,-19.1792 3248.22,-18.6688"/>
<polygon fill="midnightblue" stroke="midnightblue" points="2270.59,-61.8898 2260.57,-65.315 2270.54,-68.8896 2270.59,-61.8898"/>
</g>
<!-- Node38 -->
<g id="node38" class="node"><title>Node38</title>
<g id="a_node38"><a xlink:href="sigmaSS_8cc.html" target="_top" xlink:title="Enter brief description of file here.">
<polygon fill="none" stroke="black" points="3338,-0.5 3338,-19.5 3408,-19.5 3408,-0.5 3338,-0.5"/>
<text text-anchor="middle" x="3373" y="-7.5" font-family="Helvetica,sans-Serif" font-size="10.00">sigmaSS.cc</text>
</a>
</g>
</g>
<!-- Node1&#45;&gt;Node38 -->
<g id="edge37" class="edge"><title>Node1&#45;&gt;Node38</title>
<path fill="none" stroke="midnightblue" d="M2270.94,-64.2186C2440.71,-60.6864 3116.97,-45.2782 3328,-20 3331.16,-19.621 3334.44,-19.1407 3337.71,-18.6"/>
<polygon fill="midnightblue" stroke="midnightblue" points="2270.66,-60.7237 2260.73,-64.4294 2270.8,-67.7222 2270.66,-60.7237"/>
</g>
<!-- Node39 -->
<g id="node39" class="node"><title>Node39</title>
<g id="a_node39"><a xlink:href="cceom_2sort__amps_8cc.html" target="_top" xlink:title="Enter brief description of file here.">
<polygon fill="none" stroke="black" points="3426,-0.5 3426,-19.5 3502,-19.5 3502,-0.5 3426,-0.5"/>
<text text-anchor="middle" x="3464" y="-7.5" font-family="Helvetica,sans-Serif" font-size="10.00">sort_amps.cc</text>
</a>
</g>
</g>
<!-- Node1&#45;&gt;Node39 -->
<g id="edge38" class="edge"><title>Node1&#45;&gt;Node39</title>
<path fill="none" stroke="midnightblue" d="M2270.89,-64.315C2448.92,-61.0576 3187.35,-46.1956 3417,-20 3419.89,-19.6704 3422.87,-19.2628 3425.85,-18.8045"/>
<polygon fill="midnightblue" stroke="midnightblue" points="2270.62,-60.8191 2260.69,-64.5001 2270.75,-67.818 2270.62,-60.8191"/>
</g>
<!-- Node40 -->
<g id="node40" class="node"><title>Node40</title>
<g id="a_node40"><a xlink:href="sort__C_8cc.html" target="_top" xlink:title="Enter brief description of file here.">
<polygon fill="none" stroke="black" points="3520.5,-0.5 3520.5,-19.5 3579.5,-19.5 3579.5,-0.5 3520.5,-0.5"/>
<text text-anchor="middle" x="3550" y="-7.5" font-family="Helvetica,sans-Serif" font-size="10.00">sort_C.cc</text>
</a>
</g>
</g>
<!-- Node1&#45;&gt;Node40 -->
<g id="edge39" class="edge"><title>Node1&#45;&gt;Node40</title>
<path fill="none" stroke="midnightblue" d="M2270.65,-64.6385C2456.82,-62.7449 3262.23,-52.7727 3511,-20 3514.03,-19.6007 3517.17,-19.0727 3520.3,-18.4722"/>
<polygon fill="midnightblue" stroke="midnightblue" points="2270.48,-61.1399 2260.52,-64.7398 2270.55,-68.1396 2270.48,-61.1399"/>
</g>
<!-- Node41 -->
<g id="node41" class="node"><title>Node41</title>
<g id="a_node41"><a xlink:href="WabefDD_8cc.html" target="_top" xlink:title="Enter brief description of file here.">
<polygon fill="none" stroke="black" points="3598,-0.5 3598,-19.5 3672,-19.5 3672,-0.5 3598,-0.5"/>
<text text-anchor="middle" x="3635" y="-7.5" font-family="Helvetica,sans-Serif" font-size="10.00">WabefDD.cc</text>
</a>
</g>
</g>
<!-- Node1&#45;&gt;Node41 -->
<g id="edge40" class="edge"><title>Node1&#45;&gt;Node41</title>
<path fill="none" stroke="midnightblue" d="M2270.76,-64.5312C2463.79,-62.0715 3322.64,-49.6265 3588,-20 3591.22,-19.6405 3594.55,-19.1816 3597.88,-18.6621"/>
<polygon fill="midnightblue" stroke="midnightblue" points="2270.49,-61.0342 2260.53,-64.66 2270.58,-68.0336 2270.49,-61.0342"/>
</g>
<!-- Node42 -->
<g id="node42" class="node"><title>Node42</title>
<g id="a_node42"><a xlink:href="WabejDS_8cc.html" target="_top" xlink:title="Enter brief description of file here.">
<polygon fill="none" stroke="black" points="3690,-0.5 3690,-19.5 3762,-19.5 3762,-0.5 3690,-0.5"/>
<text text-anchor="middle" x="3726" y="-7.5" font-family="Helvetica,sans-Serif" font-size="10.00">WabejDS.cc</text>
</a>
</g>
</g>
<!-- Node1&#45;&gt;Node42 -->
<g id="edge41" class="edge"><title>Node1&#45;&gt;Node42</title>
<path fill="none" stroke="midnightblue" d="M2270.83,-64.6685C2471.91,-62.8191 3396.35,-52.6545 3681,-20 3683.85,-19.6731 3686.79,-19.2602 3689.73,-18.7919"/>
<polygon fill="midnightblue" stroke="midnightblue" points="2270.71,-61.1694 2260.74,-64.7599 2270.77,-68.1691 2270.71,-61.1694"/>
</g>
<!-- Node43 -->
<g id="node43" class="node"><title>Node43</title>
<g id="a_node43"><a xlink:href="WamefSD_8cc.html" target="_top" xlink:title="Enter brief description of file here.">
<polygon fill="none" stroke="black" points="3780,-0.5 3780,-19.5 3856,-19.5 3856,-0.5 3780,-0.5"/>
<text text-anchor="middle" x="3818" y="-7.5" font-family="Helvetica,sans-Serif" font-size="10.00">WamefSD.cc</text>
</a>
</g>
</g>
<!-- Node1&#45;&gt;Node43 -->
<g id="edge42" class="edge"><title>Node1&#45;&gt;Node43</title>
<path fill="none" stroke="midnightblue" d="M2270.88,-64.7067C2479.43,-63.0051 3467.39,-53.2911 3771,-20 3773.89,-19.6831 3776.87,-19.2845 3779.86,-18.8327"/>
<polygon fill="midnightblue" stroke="midnightblue" points="2270.69,-61.208 2260.72,-64.7883 2270.74,-68.2078 2270.69,-61.208"/>
</g>
<!-- Node44 -->
<g id="node44" class="node"><title>Node44</title>
<g id="a_node44"><a xlink:href="WbmfeDS_8cc.html" target="_top" xlink:title="Enter brief description of file here.">
<polygon fill="none" stroke="black" points="3874,-0.5 3874,-19.5 3950,-19.5 3950,-0.5 3874,-0.5"/>
<text text-anchor="middle" x="3912" y="-7.5" font-family="Helvetica,sans-Serif" font-size="10.00">WbmfeDS.cc</text>
</a>
</g>
</g>
<!-- Node1&#45;&gt;Node44 -->
<g id="edge43" class="edge"><title>Node1&#45;&gt;Node44</title>
<path fill="none" stroke="midnightblue" d="M2270.82,-64.7827C2486.73,-63.4447 3541.63,-55.1824 3865,-20 3867.89,-19.6855 3870.87,-19.2887 3873.86,-18.8381"/>
<polygon fill="midnightblue" stroke="midnightblue" points="2270.59,-61.2839 2260.61,-64.8446 2270.63,-68.2838 2270.59,-61.2839"/>
</g>
<!-- Node45 -->
<g id="node45" class="node"><title>Node45</title>
<g id="a_node45"><a xlink:href="WmaijDS_8cc.html" target="_top" xlink:title="Enter brief description of file here.">
<polygon fill="none" stroke="black" points="3968,-0.5 3968,-19.5 4040,-19.5 4040,-0.5 3968,-0.5"/>
<text text-anchor="middle" x="4004" y="-7.5" font-family="Helvetica,sans-Serif" font-size="10.00">WmaijDS.cc</text>
</a>
</g>
</g>
<!-- Node1&#45;&gt;Node45 -->
<g id="edge44" class="edge"><title>Node1&#45;&gt;Node45</title>
<path fill="none" stroke="midnightblue" d="M2270.91,-64.8928C2494.32,-64.14 3616.07,-58.473 3959,-20 3961.85,-19.6802 3964.79,-19.2724 3967.73,-18.8076"/>
<polygon fill="midnightblue" stroke="midnightblue" points="2270.65,-61.3935 2260.66,-64.926 2270.67,-68.3935 2270.65,-61.3935"/>
</g>
<!-- Node46 -->
<g id="node46" class="node"><title>Node46</title>
<g id="a_node46"><a xlink:href="WmbejDD_8cc.html" target="_top" xlink:title="Enter brief description of file here.">
<polygon fill="none" stroke="black" points="4058,-0.5 4058,-19.5 4134,-19.5 4134,-0.5 4058,-0.5"/>
<text text-anchor="middle" x="4096" y="-7.5" font-family="Helvetica,sans-Serif" font-size="10.00">WmbejDD.cc</text>
</a>
</g>
</g>
<!-- Node1&#45;&gt;Node46 -->
<g id="edge45" class="edge"><title>Node1&#45;&gt;Node46</title>
<path fill="none" stroke="midnightblue" d="M2270.72,-64.9083C2500.47,-64.2332 3686.88,-58.8878 4049,-20 4051.89,-19.6895 4054.87,-19.2957 4057.86,-18.8471"/>
<polygon fill="midnightblue" stroke="midnightblue" points="2270.5,-61.4088 2260.51,-64.937 2270.52,-68.4088 2270.5,-61.4088"/>
</g>
<!-- Node47 -->
<g id="node47" class="node"><title>Node47</title>
<g id="a_node47"><a xlink:href="WmnefDD_8cc.html" target="_top" xlink:title="Enter brief description of file here.">
<polygon fill="none" stroke="black" points="4152.5,-0.5 4152.5,-19.5 4229.5,-19.5 4229.5,-0.5 4152.5,-0.5"/>
<text text-anchor="middle" x="4191" y="-7.5" font-family="Helvetica,sans-Serif" font-size="10.00">WmnefDD.cc</text>
</a>
</g>
</g>
<!-- Node1&#45;&gt;Node47 -->
<g id="edge46" class="edge"><title>Node1&#45;&gt;Node47</title>
<path fill="none" stroke="midnightblue" d="M2270.84,-64.9425C2507.77,-64.4621 3761.06,-60.0381 4143,-20 4146.04,-19.6818 4149.17,-19.2751 4152.31,-18.8111"/>
<polygon fill="midnightblue" stroke="midnightblue" points="2270.63,-61.4428 2260.64,-64.9619 2270.65,-68.4427 2270.63,-61.4428"/>
</g>
<!-- Node48 -->
<g id="node48" class="node"><title>Node48</title>
<g id="a_node48"><a xlink:href="WmnieSD_8cc.html" target="_top" xlink:title="Enter brief description of file here.">
<polygon fill="none" stroke="black" points="4247.5,-0.5 4247.5,-19.5 4322.5,-19.5 4322.5,-0.5 4247.5,-0.5"/>
<text text-anchor="middle" x="4285" y="-7.5" font-family="Helvetica,sans-Serif" font-size="10.00">WmnieSD.cc</text>
</a>
</g>
</g>
<!-- Node1&#45;&gt;Node48 -->
<g id="edge47" class="edge"><title>Node1&#45;&gt;Node48</title>
<path fill="none" stroke="midnightblue" d="M2270.83,-65.013C2514.58,-64.9612 3836.09,-62.6876 4238,-20 4241.06,-19.6753 4244.21,-19.2565 4247.37,-18.7775"/>
<polygon fill="midnightblue" stroke="midnightblue" points="2270.68,-61.5129 2260.68,-65.0139 2270.68,-68.5129 2270.68,-61.5129"/>
</g>
<!-- Node49 -->
<g id="node49" class="node"><title>Node49</title>
<g id="a_node49"><a xlink:href="WmnijDD_8cc.html" target="_top" xlink:title="Enter brief description of file here.">
<polygon fill="none" stroke="black" points="4340.5,-0.5 4340.5,-19.5 4413.5,-19.5 4413.5,-0.5 4340.5,-0.5"/>
<text text-anchor="middle" x="4377" y="-7.5" font-family="Helvetica,sans-Serif" font-size="10.00">WmnijDD.cc</text>
</a>
</g>
</g>
<!-- Node1&#45;&gt;Node49 -->
<g id="edge48" class="edge"><title>Node1&#45;&gt;Node49</title>
<path fill="none" stroke="midnightblue" d="M2270.65,-65.0787C2520.44,-65.4505 3909.43,-65.4191 4331,-20 4334.07,-19.6688 4337.25,-19.2376 4340.43,-18.7434"/>
<polygon fill="midnightblue" stroke="midnightblue" points="2270.61,-61.5787 2260.6,-65.0625 2270.6,-68.5787 2270.61,-61.5787"/>
</g>
<!-- Node50 -->
<g id="node50" class="node"><title>Node50</title>
<g id="a_node50"><a xlink:href="WnmjeDS_8cc.html" target="_top" xlink:title="Enter brief description of file here.">
<polygon fill="none" stroke="black" points="4431.5,-0.5 4431.5,-19.5 4506.5,-19.5 4506.5,-0.5 4431.5,-0.5"/>
<text text-anchor="middle" x="4469" y="-7.5" font-family="Helvetica,sans-Serif" font-size="10.00">WnmjeDS.cc</text>
</a>
</g>
</g>
<!-- Node1&#45;&gt;Node50 -->
<g id="edge49" class="edge"><title>Node1&#45;&gt;Node50</title>
<path fill="none" stroke="midnightblue" d="M2271.09,-65.0984C2528.32,-65.6105 3981.35,-66.3825 4422,-20 4425.06,-19.6782 4428.21,-19.2614 4431.37,-18.7839"/>
<polygon fill="midnightblue" stroke="midnightblue" points="2270.76,-61.5978 2260.76,-65.0767 2270.75,-68.5978 2270.76,-61.5978"/>
</g>
</g>
</svg>
        <g id="navigator" transform="translate(0 0)" fill="#404254">
                <rect fill="#f2f5e9" fill-opacity="0.5" stroke="#606060" stroke-width=".5" x="0" y="0" width="60" height="60"/>
                <use id="zoomplus" xlink:href="#zoomPlus" x="17" y="9" onmousedown="handleZoom(evt,'in')"/>
                <use id="zoomminus" xlink:href="#zoomMin" x="42" y="9" onmousedown="handleZoom(evt,'out')"/>
                <use id="reset" xlink:href="#resetDef" x="30" y="36" onmousedown="handleReset()"/>
                <g id="arrowUp" xlink:href="#dirArrow" transform="translate(30 24)" onmousedown="handlePan(0,-1)">
                  <use xlink:href="#rim" fill="#404040">
                        <set attributeName="fill" to="#808080" begin="arrowUp.mouseover" end="arrowUp.mouseout"/>
                  </use>
                  <path fill="none" stroke="white" stroke-width="1.5" d="M0,-3.0v7 M-2.5,-0.5L0,-3.0L2.5,-0.5"/>
                </g>
                <g id="arrowRight" xlink:href="#dirArrow" transform="rotate(90) translate(36 -43)" onmousedown="handlePan(1,0)">
                  <use xlink:href="#rim" fill="#404040">
                        <set attributeName="fill" to="#808080" begin="arrowRight.mouseover" end="arrowRight.mouseout"/>
                  </use>
                  <path fill="none" stroke="white" stroke-width="1.5" d="M0,-3.0v7 M-2.5,-0.5L0,-3.0L2.5,-0.5"/>
                </g>
                <g id="arrowDown" xlink:href="#dirArrow" transform="rotate(180) translate(-30 -48)" onmousedown="handlePan(0,1)">
                  <use xlink:href="#rim" fill="#404040">
                        <set attributeName="fill" to="#808080" begin="arrowDown.mouseover" end="arrowDown.mouseout"/>
                  </use>
                  <path fill="none" stroke="white" stroke-width="1.5" d="M0,-3.0v7 M-2.5,-0.5L0,-3.0L2.5,-0.5"/>
                </g>
                <g id="arrowLeft" xlink:href="#dirArrow" transform="rotate(270) translate(-36 17)" onmousedown="handlePan(-1,0)">
                  <use xlink:href="#rim" fill="#404040">
                        <set attributeName="fill" to="#808080" begin="arrowLeft.mouseover" end="arrowLeft.mouseout"/>
                  </use>
                  <path fill="none" stroke="white" stroke-width="1.5" d="M0,-3.0v7 M-2.5,-0.5L0,-3.0L2.5,-0.5"/>
                </g>
        </g>
        <svg viewBox="0 0 15 15" width="100%" height="30px" preserveAspectRatio="xMaxYMin meet">
         <g id="arrow_out" transform="scale(0.3 0.3)">
          <a xlink:href="cceom_2MOInfo_8h__dep__incl_org.svg" target="_base">
           <rect id="button" ry="5" rx="5" y="6" x="6" height="38" width="38"
                fill="#f2f5e9" fill-opacity="0.5" stroke="#606060" stroke-width="1.0"/>
           <path id="arrow"
             d="M 11.500037,31.436501 C 11.940474,20.09759 22.043105,11.32322 32.158766,21.979434 L 37.068811,17.246167 C 37.068811,17.246167 37.088388,32 37.088388,32 L 22.160133,31.978069 C 22.160133,31.978069 26.997745,27.140456 26.997745,27.140456 C 18.528582,18.264221 13.291696,25.230495 11.500037,31.436501 z"
             style="fill:#404040;"/>
          </a>
         </g>
        </svg>
</svg>
