<?xml version="1.0" encoding="UTF-8" standalone="no"?>
<!DOCTYPE svg PUBLIC "-//W3C//DTD SVG 1.1//EN"
 "http://www.w3.org/Graphics/SVG/1.1/DTD/svg11.dtd">
<!-- Generated by graphviz version 2.30.1 (20140110.0959)
 -->
<!-- Title: get_moinfo.cc Pages: 1 -->
<svg width="1927pt" height="432pt"
 viewBox="0.00 0.00 1927.00 432.00" xmlns="http://www.w3.org/2000/svg" xmlns:xlink="http://www.w3.org/1999/xlink">
<g id="graph0" class="graph" transform="scale(1 1) rotate(0) translate(4 428)">
<title>get_moinfo.cc</title>
<!-- Node1 -->
<g id="node1" class="node"><title>Node1</title>
<polygon fill="#bfbfbf" stroke="black" points="1054,-404.5 1054,-423.5 1132,-423.5 1132,-404.5 1054,-404.5"/>
<text text-anchor="middle" x="1093" y="-411.5" font-family="Helvetica,sans-Serif" font-size="10.00">get_moinfo.cc</text>
</g>
<!-- Node2 -->
<g id="node2" class="node"><title>Node2</title>
<polygon fill="none" stroke="#bfbfbf" points="1521.5,-0.5 1521.5,-19.5 1564.5,-19.5 1564.5,-0.5 1521.5,-0.5"/>
<text text-anchor="middle" x="1543" y="-7.5" font-family="Helvetica,sans-Serif" font-size="10.00">cstdio</text>
</g>
<!-- Node1&#45;&gt;Node2 -->
<g id="edge1" class="edge"><title>Node1&#45;&gt;Node2</title>
<path fill="none" stroke="midnightblue" d="M1132.18,-412.153C1244.9,-408.663 1562,-391.024 1562,-303 1562,-303 1562,-303 1562,-133 1562,-95.8046 1553.27,-52.9819 1547.65,-29.249"/>
<polygon fill="midnightblue" stroke="midnightblue" points="1551.04,-28.3847 1545.25,-19.5078 1544.24,-30.054 1551.04,-28.3847"/>
</g>
<!-- Node3 -->
<g id="node3" class="node"><title>Node3</title>
<polygon fill="none" stroke="#bfbfbf" points="-0.5,-0.5 -0.5,-19.5 44.5,-19.5 44.5,-0.5 -0.5,-0.5"/>
<text text-anchor="middle" x="22" y="-7.5" font-family="Helvetica,sans-Serif" font-size="10.00">cstdlib</text>
</g>
<!-- Node1&#45;&gt;Node3 -->
<g id="edge2" class="edge"><title>Node1&#45;&gt;Node3</title>
<path fill="none" stroke="midnightblue" d="M1053.85,-412.176C885.99,-408.502 231.621,-392.706 143,-368 84.5731,-351.712 23,-363.655 23,-303 23,-303 23,-303 23,-133 23,-96.4127 22.5447,-53.6554 22.2486,-29.712"/>
<polygon fill="midnightblue" stroke="midnightblue" points="25.7466,-29.5329 22.1186,-19.5787 18.7472,-29.6227 25.7466,-29.5329"/>
</g>
<!-- Node4 -->
<g id="node4" class="node"><title>Node4</title>
<polygon fill="none" stroke="#bfbfbf" points="411.5,-0.5 411.5,-19.5 452.5,-19.5 452.5,-0.5 411.5,-0.5"/>
<text text-anchor="middle" x="432" y="-7.5" font-family="Helvetica,sans-Serif" font-size="10.00">string</text>
</g>
<!-- Node1&#45;&gt;Node4 -->
<g id="edge3" class="edge"><title>Node1&#45;&gt;Node4</title>
<path fill="none" stroke="midnightblue" d="M1053.86,-412.455C879.484,-409.522 182,-392.213 182,-303 182,-303 182,-303 182,-133 182,-97.7513 175.466,-80.2998 201,-56 229.431,-28.9432 345.287,-17.1529 401.337,-12.9535"/>
<polygon fill="midnightblue" stroke="midnightblue" points="401.665,-16.439 411.39,-12.2341 401.165,-9.4569 401.665,-16.439"/>
</g>
<!-- Node5 -->
<g id="node5" class="node"><title>Node5</title>
<g id="a_node5"><a xlink:href="libciomr_8h_source.html" target="_top" xlink:title="libciomr/libciomr.h">
<polygon fill="none" stroke="black" points="1823.5,-180.5 1823.5,-199.5 1918.5,-199.5 1918.5,-180.5 1823.5,-180.5"/>
<text text-anchor="middle" x="1871" y="-187.5" font-family="Helvetica,sans-Serif" font-size="10.00">libciomr/libciomr.h</text>
</a>
</g>
</g>
<!-- Node1&#45;&gt;Node5 -->
<g id="edge4" class="edge"><title>Node1&#45;&gt;Node5</title>
<path fill="none" stroke="midnightblue" d="M1132.32,-411.902C1261.08,-408.066 1664.84,-394.064 1717,-368 1788.94,-332.054 1841.51,-246.272 1861.8,-208.907"/>
<polygon fill="midnightblue" stroke="midnightblue" points="1865.08,-210.209 1866.66,-199.733 1858.89,-206.934 1865.08,-210.209"/>
</g>
<!-- Node6 -->
<g id="node6" class="node"><title>Node6</title>
<g id="a_node6"><a xlink:href="psio_8h_source.html" target="_top" xlink:title="libpsio/psio.h">
<polygon fill="none" stroke="black" points="1600,-180.5 1600,-199.5 1674,-199.5 1674,-180.5 1600,-180.5"/>
<text text-anchor="middle" x="1637" y="-187.5" font-family="Helvetica,sans-Serif" font-size="10.00">libpsio/psio.h</text>
</a>
</g>
</g>
<!-- Node1&#45;&gt;Node6 -->
<g id="edge6" class="edge"><title>Node1&#45;&gt;Node6</title>
<path fill="none" stroke="midnightblue" d="M1132.36,-411.755C1241.37,-407.975 1541.4,-395.184 1576,-368 1625.59,-329.045 1635.05,-247.481 1636.72,-210.26"/>
<polygon fill="midnightblue" stroke="midnightblue" points="1640.24,-209.944 1637.04,-199.844 1633.24,-209.735 1640.24,-209.944"/>
</g>
<!-- Node8 -->
<g id="node8" class="node"><title>Node8</title>
<g id="a_node8"><a xlink:href="chkpt_8h_source.html" target="_top" xlink:title="libchkpt/chkpt.h">
<polygon fill="none" stroke="black" points="929,-348.5 929,-367.5 1015,-367.5 1015,-348.5 929,-348.5"/>
<text text-anchor="middle" x="972" y="-355.5" font-family="Helvetica,sans-Serif" font-size="10.00">libchkpt/chkpt.h</text>
</a>
</g>
</g>
<!-- Node1&#45;&gt;Node8 -->
<g id="edge9" class="edge"><title>Node1&#45;&gt;Node8</title>
<path fill="none" stroke="midnightblue" d="M1073.83,-404.444C1054.09,-395.636 1023.11,-381.812 1000.51,-371.722"/>
<polygon fill="midnightblue" stroke="midnightblue" points="1001.64,-368.396 991.083,-367.516 998.789,-374.788 1001.64,-368.396"/>
</g>
<!-- Node9 -->
<g id="node9" class="node"><title>Node9</title>
<g id="a_node9"><a xlink:href="liboptions_8h_source.html" target="_top" xlink:title="liboptions/liboptions.h">
<polygon fill="none" stroke="black" points="380,-124.5 380,-143.5 490,-143.5 490,-124.5 380,-124.5"/>
<text text-anchor="middle" x="435" y="-131.5" font-family="Helvetica,sans-Serif" font-size="10.00">liboptions/liboptions.h</text>
</a>
</g>
</g>
<!-- Node1&#45;&gt;Node9 -->
<g id="edge10" class="edge"><title>Node1&#45;&gt;Node9</title>
<path fill="none" stroke="midnightblue" d="M1053.76,-410.379C915.313,-400.616 458,-363.767 458,-303 458,-303 458,-303 458,-245 458,-212.12 448.032,-174.86 441.221,-153.235"/>
<polygon fill="midnightblue" stroke="midnightblue" points="444.54,-152.125 438.102,-143.711 437.888,-154.303 444.54,-152.125"/>
</g>
<!-- Node19 -->
<g id="node19" class="node"><title>Node19</title>
<g id="a_node19"><a xlink:href="psi4-dec_8h_source.html" target="_top" xlink:title="psi4&#45;dec.h">
<polygon fill="none" stroke="black" points="861,-180.5 861,-199.5 923,-199.5 923,-180.5 861,-180.5"/>
<text text-anchor="middle" x="892" y="-187.5" font-family="Helvetica,sans-Serif" font-size="10.00">psi4&#45;dec.h</text>
</a>
</g>
</g>
<!-- Node1&#45;&gt;Node19 -->
<g id="edge25" class="edge"><title>Node1&#45;&gt;Node19</title>
<path fill="none" stroke="midnightblue" d="M1053.95,-407.852C1008.61,-401.052 937.773,-387.598 920,-368 879.642,-323.498 884.237,-245.424 888.931,-209.745"/>
<polygon fill="midnightblue" stroke="midnightblue" points="892.409,-210.15 890.402,-199.747 885.484,-209.131 892.409,-210.15"/>
</g>
<!-- Node32 -->
<g id="node32" class="node"><title>Node32</title>
<g id="a_node32"><a xlink:href="wavefunction_8h_source.html" target="_top" xlink:title="libmints/wavefunction.h">
<polygon fill="none" stroke="black" points="1033.5,-348.5 1033.5,-367.5 1152.5,-367.5 1152.5,-348.5 1033.5,-348.5"/>
<text text-anchor="middle" x="1093" y="-355.5" font-family="Helvetica,sans-Serif" font-size="10.00">libmints/wavefunction.h</text>
</a>
</g>
</g>
<!-- Node1&#45;&gt;Node32 -->
<g id="edge45" class="edge"><title>Node1&#45;&gt;Node32</title>
<path fill="none" stroke="midnightblue" d="M1093,-404.083C1093,-397.006 1093,-386.861 1093,-377.986"/>
<polygon fill="midnightblue" stroke="midnightblue" points="1096.5,-377.751 1093,-367.751 1089.5,-377.751 1096.5,-377.751"/>
</g>
<!-- Node38 -->
<g id="node38" class="node"><title>Node38</title>
<g id="a_node38"><a xlink:href="lib_2libmints_2molecule_8h_source.html" target="_top" xlink:title="libmints/molecule.h">
<polygon fill="none" stroke="black" points="1132.5,-180.5 1132.5,-199.5 1233.5,-199.5 1233.5,-180.5 1132.5,-180.5"/>
<text text-anchor="middle" x="1183" y="-187.5" font-family="Helvetica,sans-Serif" font-size="10.00">libmints/molecule.h</text>
</a>
</g>
</g>
<!-- Node1&#45;&gt;Node38 -->
<g id="edge58" class="edge"><title>Node1&#45;&gt;Node38</title>
<path fill="none" stroke="midnightblue" d="M1114.82,-404.494C1130.37,-397.231 1150.33,-385.206 1161,-368 1192.22,-317.634 1189.06,-243.661 1185.47,-209.519"/>
<polygon fill="midnightblue" stroke="midnightblue" points="1188.94,-209.076 1184.29,-199.559 1181.99,-209.902 1188.94,-209.076"/>
</g>
<!-- Node39 -->
<g id="node39" class="node"><title>Node39</title>
<g id="a_node39"><a xlink:href="cchbar_2MOInfo_8h.html" target="_top" xlink:title="Enter brief description of file here.">
<polygon fill="none" stroke="black" points="1628.5,-348.5 1628.5,-367.5 1685.5,-367.5 1685.5,-348.5 1628.5,-348.5"/>
<text text-anchor="middle" x="1657" y="-355.5" font-family="Helvetica,sans-Serif" font-size="10.00">MOInfo.h</text>
</a>
</g>
</g>
<!-- Node1&#45;&gt;Node39 -->
<g id="edge65" class="edge"><title>Node1&#45;&gt;Node39</title>
<path fill="none" stroke="midnightblue" d="M1132.07,-411.232C1219.04,-406.947 1435.04,-394.36 1614,-368 1615.46,-367.785 1616.95,-367.55 1618.45,-367.301"/>
<polygon fill="midnightblue" stroke="midnightblue" points="1619.2,-370.723 1628.4,-365.485 1617.94,-363.837 1619.2,-370.723"/>
</g>
<!-- Node40 -->
<g id="node40" class="node"><title>Node40</title>
<g id="a_node40"><a xlink:href="cchbar_2Params_8h.html" target="_top" xlink:title="Enter brief description of file here.">
<polygon fill="none" stroke="black" points="94.5,-292.5 94.5,-311.5 153.5,-311.5 153.5,-292.5 94.5,-292.5"/>
<text text-anchor="middle" x="124" y="-299.5" font-family="Helvetica,sans-Serif" font-size="10.00">Params.h</text>
</a>
</g>
</g>
<!-- Node1&#45;&gt;Node40 -->
<g id="edge66" class="edge"><title>Node1&#45;&gt;Node40</title>
<path fill="none" stroke="midnightblue" d="M1053.91,-413.141C887.874,-413.466 246.002,-411.853 168,-368 149.856,-357.799 137.699,-336.63 130.844,-321.213"/>
<polygon fill="midnightblue" stroke="midnightblue" points="133.964,-319.594 126.937,-311.665 127.485,-322.245 133.964,-319.594"/>
</g>
<!-- Node41 -->
<g id="node41" class="node"><title>Node41</title>
<g id="a_node41"><a xlink:href="cchbar_2globals_8h.html" target="_top" xlink:title="Enter brief description of file here.">
<polygon fill="none" stroke="black" points="1704,-236.5 1704,-255.5 1760,-255.5 1760,-236.5 1704,-236.5"/>
<text text-anchor="middle" x="1732" y="-243.5" font-family="Helvetica,sans-Serif" font-size="10.00">globals.h</text>
</a>
</g>
</g>
<!-- Node1&#45;&gt;Node41 -->
<g id="edge68" class="edge"><title>Node1&#45;&gt;Node41</title>
<path fill="none" stroke="midnightblue" d="M1132.24,-412.579C1258.72,-410.88 1650.09,-402.829 1694,-368 1725.09,-343.335 1731.24,-293.416 1732.15,-266.034"/>
<polygon fill="midnightblue" stroke="midnightblue" points="1735.66,-265.862 1732.28,-255.818 1728.66,-265.773 1735.66,-265.862"/>
</g>
<!-- Node5&#45;&gt;Node2 -->
<g id="edge5" class="edge"><title>Node5&#45;&gt;Node2</title>
<path fill="none" stroke="midnightblue" d="M1873.48,-180.115C1876.66,-166.697 1880.5,-141.027 1869,-124 1802.48,-25.5245 1643.28,-11.8142 1575,-10.6309"/>
<polygon fill="midnightblue" stroke="midnightblue" points="1574.88,-7.12971 1564.84,-10.5374 1574.81,-14.1294 1574.88,-7.12971"/>
</g>
<!-- Node6&#45;&gt;Node2 -->
<g id="edge7" class="edge"><title>Node6&#45;&gt;Node2</title>
<path fill="none" stroke="midnightblue" d="M1633.27,-180.258C1622.21,-154.474 1589.58,-79.1046 1576,-56 1570.23,-46.1862 1562.81,-35.9012 1556.46,-27.6449"/>
<polygon fill="midnightblue" stroke="midnightblue" points="1559.06,-25.2929 1550.13,-19.6006 1553.56,-29.6229 1559.06,-25.2929"/>
</g>
<!-- Node7 -->
<g id="node7" class="node"><title>Node7</title>
<g id="a_node7"><a xlink:href="libpsio_2config_8h_source.html" target="_top" xlink:title="libpsio/config.h">
<polygon fill="none" stroke="black" points="1628,-124.5 1628,-143.5 1710,-143.5 1710,-124.5 1628,-124.5"/>
<text text-anchor="middle" x="1669" y="-131.5" font-family="Helvetica,sans-Serif" font-size="10.00">libpsio/config.h</text>
</a>
</g>
</g>
<!-- Node6&#45;&gt;Node7 -->
<g id="edge8" class="edge"><title>Node6&#45;&gt;Node7</title>
<path fill="none" stroke="midnightblue" d="M1642.28,-180.083C1646.71,-172.613 1653.16,-161.724 1658.62,-152.52"/>
<polygon fill="midnightblue" stroke="midnightblue" points="1661.73,-154.138 1663.81,-143.751 1655.71,-150.57 1661.73,-154.138"/>
</g>
<!-- Node9&#45;&gt;Node4 -->
<g id="edge11" class="edge"><title>Node9&#45;&gt;Node4</title>
<path fill="none" stroke="midnightblue" d="M434.784,-124.226C434.3,-104.53 433.117,-56.4371 432.46,-29.7004"/>
<polygon fill="midnightblue" stroke="midnightblue" points="435.959,-29.6053 432.214,-19.6944 428.961,-29.7775 435.959,-29.6053"/>
</g>
<!-- Node10 -->
<g id="node10" class="node"><title>Node10</title>
<polygon fill="none" stroke="#bfbfbf" points="1175,-0.5 1175,-19.5 1219,-19.5 1219,-0.5 1175,-0.5"/>
<text text-anchor="middle" x="1197" y="-7.5" font-family="Helvetica,sans-Serif" font-size="10.00">vector</text>
</g>
<!-- Node9&#45;&gt;Node10 -->
<g id="edge12" class="edge"><title>Node9&#45;&gt;Node10</title>
<path fill="none" stroke="midnightblue" d="M454.317,-124.44C498.692,-104.803 604.747,-58.0423 613,-56 719.051,-29.7562 1058.5,-15.8652 1164.83,-12.0792"/>
<polygon fill="midnightblue" stroke="midnightblue" points="1165.07,-15.573 1174.95,-11.7248 1164.83,-8.57728 1165.07,-15.573"/>
</g>
<!-- Node11 -->
<g id="node11" class="node"><title>Node11</title>
<polygon fill="none" stroke="#bfbfbf" points="622.5,-62.5 622.5,-81.5 657.5,-81.5 657.5,-62.5 622.5,-62.5"/>
<text text-anchor="middle" x="640" y="-69.5" font-family="Helvetica,sans-Serif" font-size="10.00">map</text>
</g>
<!-- Node9&#45;&gt;Node11 -->
<g id="edge13" class="edge"><title>Node9&#45;&gt;Node11</title>
<path fill="none" stroke="midnightblue" d="M476.544,-124.451C511.999,-116.623 564.068,-103.858 608,-88 609.904,-87.3126 611.85,-86.5531 613.794,-85.7516"/>
<polygon fill="midnightblue" stroke="midnightblue" points="615.583,-88.7866 623.306,-81.5327 612.745,-82.3877 615.583,-88.7866"/>
</g>
<!-- Node12 -->
<g id="node12" class="node"><title>Node12</title>
<polygon fill="none" stroke="#bfbfbf" points="460.5,-62.5 460.5,-81.5 527.5,-81.5 527.5,-62.5 460.5,-62.5"/>
<text text-anchor="middle" x="494" y="-69.5" font-family="Helvetica,sans-Serif" font-size="10.00">exception.h</text>
</g>
<!-- Node9&#45;&gt;Node12 -->
<g id="edge14" class="edge"><title>Node9&#45;&gt;Node12</title>
<path fill="none" stroke="midnightblue" d="M443.453,-124.403C452.566,-115.136 467.27,-100.183 478.476,-88.7876"/>
<polygon fill="midnightblue" stroke="midnightblue" points="481.047,-91.1649 485.562,-81.5806 476.055,-86.2569 481.047,-91.1649"/>
</g>
<!-- Node13 -->
<g id="node13" class="node"><title>Node13</title>
<g id="a_node13"><a xlink:href="libutil_8h_source.html" target="_top" xlink:title="libutil/libutil.h">
<polygon fill="none" stroke="black" points="210.5,-62.5 210.5,-81.5 283.5,-81.5 283.5,-62.5 210.5,-62.5"/>
<text text-anchor="middle" x="247" y="-69.5" font-family="Helvetica,sans-Serif" font-size="10.00">libutil/libutil.h</text>
</a>
</g>
</g>
<!-- Node9&#45;&gt;Node13 -->
<g id="edge15" class="edge"><title>Node9&#45;&gt;Node13</title>
<path fill="none" stroke="midnightblue" d="M407.756,-124.44C379.154,-115.437 332.884,-100.822 293,-88 289.701,-86.9395 286.271,-85.8313 282.838,-84.7183"/>
<polygon fill="midnightblue" stroke="midnightblue" points="283.852,-81.3677 273.26,-81.6046 281.688,-88.0248 283.852,-81.3677"/>
</g>
<!-- Node15 -->
<g id="node15" class="node"><title>Node15</title>
<g id="a_node15"><a xlink:href="libutil_2ref_8h_source.html" target="_top" xlink:title="libutil/ref.h">
<polygon fill="none" stroke="black" points="54,-62.5 54,-81.5 116,-81.5 116,-62.5 54,-62.5"/>
<text text-anchor="middle" x="85" y="-69.5" font-family="Helvetica,sans-Serif" font-size="10.00">libutil/ref.h</text>
</a>
</g>
</g>
<!-- Node9&#45;&gt;Node15 -->
<g id="edge19" class="edge"><title>Node9&#45;&gt;Node15</title>
<path fill="none" stroke="midnightblue" d="M385.225,-124.467C315.86,-112.576 191.374,-91.2355 126.648,-80.1397"/>
<polygon fill="midnightblue" stroke="midnightblue" points="126.862,-76.6253 116.414,-78.3853 125.679,-83.5247 126.862,-76.6253"/>
</g>
<!-- Node18 -->
<g id="node18" class="node"><title>Node18</title>
<polygon fill="none" stroke="#bfbfbf" points="302,-57 302,-87 404,-87 404,-57 302,-57"/>
<text text-anchor="start" x="310" y="-75" font-family="Helvetica,sans-Serif" font-size="10.00">boost/python/object</text>
<text text-anchor="middle" x="353" y="-64" font-family="Helvetica,sans-Serif" font-size="10.00">_fwd.hpp</text>
</g>
<!-- Node9&#45;&gt;Node18 -->
<g id="edge24" class="edge"><title>Node9&#45;&gt;Node18</title>
<path fill="none" stroke="midnightblue" d="M423.251,-124.403C412.146,-116.277 395.065,-103.779 380.527,-93.1419"/>
<polygon fill="midnightblue" stroke="midnightblue" points="382.463,-90.2213 372.326,-87.1408 378.329,-95.8706 382.463,-90.2213"/>
</g>
<!-- Node13&#45;&gt;Node4 -->
<g id="edge16" class="edge"><title>Node13&#45;&gt;Node4</title>
<path fill="none" stroke="midnightblue" d="M273.269,-62.4235C279.72,-60.3201 286.609,-58.0766 293,-56 330.384,-43.8534 373.443,-29.9226 401.608,-20.8188"/>
<polygon fill="midnightblue" stroke="midnightblue" points="402.833,-24.1011 411.272,-17.6954 400.68,-17.4403 402.833,-24.1011"/>
</g>
<!-- Node13&#45;&gt;Node10 -->
<g id="edge17" class="edge"><title>Node13&#45;&gt;Node10</title>
<path fill="none" stroke="midnightblue" d="M269.152,-62.4609C276.619,-59.9385 285.07,-57.4633 293,-56 465.444,-24.1791 1024.31,-13.6393 1164.75,-11.4601"/>
<polygon fill="midnightblue" stroke="midnightblue" points="1164.91,-14.9581 1174.86,-11.3065 1164.81,-7.95888 1164.91,-14.9581"/>
</g>
<!-- Node14 -->
<g id="node14" class="node"><title>Node14</title>
<polygon fill="none" stroke="#bfbfbf" points="216,-0.5 216,-19.5 278,-19.5 278,-0.5 216,-0.5"/>
<text text-anchor="middle" x="247" y="-7.5" font-family="Helvetica,sans-Serif" font-size="10.00">sys/time.h</text>
</g>
<!-- Node13&#45;&gt;Node14 -->
<g id="edge18" class="edge"><title>Node13&#45;&gt;Node14</title>
<path fill="none" stroke="midnightblue" d="M247,-62.4035C247,-53.9381 247,-40.7283 247,-29.8199"/>
<polygon fill="midnightblue" stroke="midnightblue" points="250.5,-29.5806 247,-19.5806 243.5,-29.5806 250.5,-29.5806"/>
</g>
<!-- Node16 -->
<g id="node16" class="node"><title>Node16</title>
<polygon fill="none" stroke="#bfbfbf" points="62.5,-0.5 62.5,-19.5 111.5,-19.5 111.5,-0.5 62.5,-0.5"/>
<text text-anchor="middle" x="87" y="-7.5" font-family="Helvetica,sans-Serif" font-size="10.00">cstddef</text>
</g>
<!-- Node15&#45;&gt;Node16 -->
<g id="edge20" class="edge"><title>Node15&#45;&gt;Node16</title>
<path fill="none" stroke="midnightblue" d="M85.2866,-62.4035C85.5687,-53.9381 86.0091,-40.7283 86.3727,-29.8199"/>
<polygon fill="midnightblue" stroke="midnightblue" points="89.8788,-29.6917 86.714,-19.5806 82.8827,-29.4584 89.8788,-29.6917"/>
</g>
<!-- Node15&#45;&gt;Node2 -->
<g id="edge21" class="edge"><title>Node15&#45;&gt;Node2</title>
<path fill="none" stroke="midnightblue" d="M116.421,-66.0739C139.707,-62.6338 172.254,-58.2665 201,-56 755.509,-12.2793 896.897,-55.3939 1452,-20 1471.68,-18.7451 1493.69,-16.589 1511.13,-14.7018"/>
<polygon fill="midnightblue" stroke="midnightblue" points="1511.78,-18.1508 1521.34,-13.5719 1511.01,-11.1933 1511.78,-18.1508"/>
</g>
<!-- Node15&#45;&gt;Node3 -->
<g id="edge22" class="edge"><title>Node15&#45;&gt;Node3</title>
<path fill="none" stroke="midnightblue" d="M75.9736,-62.4035C66.2429,-53.1361 50.542,-38.1828 38.577,-26.7876"/>
<polygon fill="midnightblue" stroke="midnightblue" points="40.6648,-23.9427 31.0096,-19.5806 35.8372,-29.0117 40.6648,-23.9427"/>
</g>
<!-- Node17 -->
<g id="node17" class="node"><title>Node17</title>
<polygon fill="none" stroke="#bfbfbf" points="130,-0.5 130,-19.5 182,-19.5 182,-0.5 130,-0.5"/>
<text text-anchor="middle" x="156" y="-7.5" font-family="Helvetica,sans-Serif" font-size="10.00">assert.h</text>
</g>
<!-- Node15&#45;&gt;Node17 -->
<g id="edge23" class="edge"><title>Node15&#45;&gt;Node17</title>
<path fill="none" stroke="midnightblue" d="M95.1726,-62.4035C106.35,-52.9579 124.517,-37.6056 138.091,-26.1342"/>
<polygon fill="midnightblue" stroke="midnightblue" points="140.467,-28.7085 145.846,-19.5806 135.949,-23.3619 140.467,-28.7085"/>
</g>
<!-- Node20 -->
<g id="node20" class="node"><title>Node20</title>
<polygon fill="none" stroke="#bfbfbf" points="1350,-124.5 1350,-143.5 1458,-143.5 1458,-124.5 1350,-124.5"/>
<text text-anchor="middle" x="1404" y="-131.5" font-family="Helvetica,sans-Serif" font-size="10.00">boost/shared_ptr.hpp</text>
</g>
<!-- Node19&#45;&gt;Node20 -->
<g id="edge26" class="edge"><title>Node19&#45;&gt;Node20</title>
<path fill="none" stroke="midnightblue" d="M923.257,-185.703C1005.47,-177.032 1229.05,-153.452 1339.91,-141.76"/>
<polygon fill="midnightblue" stroke="midnightblue" points="1340.38,-145.23 1349.96,-140.7 1339.64,-138.268 1340.38,-145.23"/>
</g>
<!-- Node21 -->
<g id="node21" class="node"><title>Node21</title>
<polygon fill="none" stroke="#bfbfbf" points="714,-62.5 714,-81.5 846,-81.5 846,-62.5 714,-62.5"/>
<text text-anchor="middle" x="780" y="-69.5" font-family="Helvetica,sans-Serif" font-size="10.00">boost/current_function.hpp</text>
</g>
<!-- Node19&#45;&gt;Node21 -->
<g id="edge27" class="edge"><title>Node19&#45;&gt;Node21</title>
<path fill="none" stroke="midnightblue" d="M883.582,-180.281C864.842,-160.872 819.452,-113.861 795.459,-89.0108"/>
<polygon fill="midnightblue" stroke="midnightblue" points="797.675,-86.2677 788.212,-81.5048 792.64,-91.1299 797.675,-86.2677"/>
</g>
<!-- Node19&#45;&gt;Node4 -->
<g id="edge28" class="edge"><title>Node19&#45;&gt;Node4</title>
<path fill="none" stroke="midnightblue" d="M860.826,-188.334C789.992,-186.238 619.619,-177.731 575,-144 540.874,-118.202 566.383,-86.1166 536,-56 515.765,-35.9427 485.142,-24.1775 462.36,-17.7413"/>
<polygon fill="midnightblue" stroke="midnightblue" points="463.071,-14.3093 452.509,-15.1485 461.289,-21.0788 463.071,-14.3093"/>
</g>
<!-- Node22 -->
<g id="node22" class="node"><title>Node22</title>
<polygon fill="none" stroke="#bfbfbf" points="584.5,-124.5 584.5,-143.5 613.5,-143.5 613.5,-124.5 584.5,-124.5"/>
<text text-anchor="middle" x="599" y="-131.5" font-family="Helvetica,sans-Serif" font-size="10.00">list</text>
</g>
<!-- Node19&#45;&gt;Node22 -->
<g id="edge29" class="edge"><title>Node19&#45;&gt;Node22</title>
<path fill="none" stroke="midnightblue" d="M860.842,-185.048C811.183,-178.446 711.201,-163.909 628,-144 626.526,-143.647 625.017,-143.26 623.5,-142.851"/>
<polygon fill="midnightblue" stroke="midnightblue" points="624.23,-139.418 613.649,-139.959 622.258,-146.134 624.23,-139.418"/>
</g>
<!-- Node19&#45;&gt;Node11 -->
<g id="edge30" class="edge"><title>Node19&#45;&gt;Node11</title>
<path fill="none" stroke="midnightblue" d="M860.871,-186.537C805.958,-181.602 694.944,-168.785 666,-144 650.77,-130.958 644.458,-108.202 641.844,-91.9674"/>
<polygon fill="midnightblue" stroke="midnightblue" points="645.306,-91.4427 640.561,-81.9696 638.362,-92.3338 645.306,-91.4427"/>
</g>
<!-- Node19&#45;&gt;Node9 -->
<g id="edge31" class="edge"><title>Node19&#45;&gt;Node9</title>
<path fill="none" stroke="midnightblue" d="M860.948,-185.331C787.142,-176.61 599.946,-154.49 500.086,-142.691"/>
<polygon fill="midnightblue" stroke="midnightblue" points="500.456,-139.21 490.114,-141.512 499.634,-146.162 500.456,-139.21"/>
</g>
<!-- Node23 -->
<g id="node23" class="node"><title>Node23</title>
<g id="a_node23"><a xlink:href="include_2exception_8h_source.html" target="_top" xlink:title="exception.h">
<polygon fill="none" stroke="black" points="892.5,-124.5 892.5,-143.5 959.5,-143.5 959.5,-124.5 892.5,-124.5"/>
<text text-anchor="middle" x="926" y="-131.5" font-family="Helvetica,sans-Serif" font-size="10.00">exception.h</text>
</a>
</g>
</g>
<!-- Node19&#45;&gt;Node23 -->
<g id="edge32" class="edge"><title>Node19&#45;&gt;Node23</title>
<path fill="none" stroke="midnightblue" d="M897.614,-180.083C902.367,-172.534 909.318,-161.495 915.152,-152.23"/>
<polygon fill="midnightblue" stroke="midnightblue" points="918.124,-154.078 920.49,-143.751 912.2,-150.349 918.124,-154.078"/>
</g>
<!-- Node28 -->
<g id="node28" class="node"><title>Node28</title>
<g id="a_node28"><a xlink:href="typedefs_8h_source.html" target="_top" xlink:title="libmints/typedefs.h">
<polygon fill="none" stroke="black" points="1133.5,-124.5 1133.5,-143.5 1232.5,-143.5 1232.5,-124.5 1133.5,-124.5"/>
<text text-anchor="middle" x="1183" y="-131.5" font-family="Helvetica,sans-Serif" font-size="10.00">libmints/typedefs.h</text>
</a>
</g>
</g>
<!-- Node19&#45;&gt;Node28 -->
<g id="edge38" class="edge"><title>Node19&#45;&gt;Node28</title>
<path fill="none" stroke="midnightblue" d="M923.142,-183.221C971.722,-174.206 1066.25,-156.665 1126.91,-145.408"/>
<polygon fill="midnightblue" stroke="midnightblue" points="1127.89,-148.786 1137.09,-143.52 1126.62,-141.903 1127.89,-148.786"/>
</g>
<!-- Node24 -->
<g id="node24" class="node"><title>Node24</title>
<polygon fill="none" stroke="#bfbfbf" points="931.5,-62.5 931.5,-81.5 990.5,-81.5 990.5,-62.5 931.5,-62.5"/>
<text text-anchor="middle" x="961" y="-69.5" font-family="Helvetica,sans-Serif" font-size="10.00">exception</text>
</g>
<!-- Node23&#45;&gt;Node24 -->
<g id="edge33" class="edge"><title>Node23&#45;&gt;Node24</title>
<path fill="none" stroke="midnightblue" d="M931.015,-124.403C936.161,-115.582 944.312,-101.608 950.818,-90.4548"/>
<polygon fill="midnightblue" stroke="midnightblue" points="953.979,-91.982 955.995,-81.5806 947.933,-88.4548 953.979,-91.982"/>
</g>
<!-- Node25 -->
<g id="node25" class="node"><title>Node25</title>
<polygon fill="none" stroke="#bfbfbf" points="1008.5,-62.5 1008.5,-81.5 1067.5,-81.5 1067.5,-62.5 1008.5,-62.5"/>
<text text-anchor="middle" x="1038" y="-69.5" font-family="Helvetica,sans-Serif" font-size="10.00">stdexcept</text>
</g>
<!-- Node23&#45;&gt;Node25 -->
<g id="edge34" class="edge"><title>Node23&#45;&gt;Node25</title>
<path fill="none" stroke="midnightblue" d="M942.047,-124.403C960.593,-114.468 991.34,-97.9966 1013.02,-86.3812"/>
<polygon fill="midnightblue" stroke="midnightblue" points="1014.82,-89.388 1021.98,-81.5806 1011.52,-83.2177 1014.82,-89.388"/>
</g>
<!-- Node26 -->
<g id="node26" class="node"><title>Node26</title>
<polygon fill="none" stroke="#bfbfbf" points="1086,-62.5 1086,-81.5 1138,-81.5 1138,-62.5 1086,-62.5"/>
<text text-anchor="middle" x="1112" y="-69.5" font-family="Helvetica,sans-Serif" font-size="10.00">sstream</text>
</g>
<!-- Node23&#45;&gt;Node26 -->
<g id="edge35" class="edge"><title>Node23&#45;&gt;Node26</title>
<path fill="none" stroke="midnightblue" d="M957.913,-124.459C988.493,-116.032 1035.8,-102.361 1076,-88 1078.26,-87.1928 1080.58,-86.3216 1082.91,-85.4196"/>
<polygon fill="midnightblue" stroke="midnightblue" points="1084.37,-88.6055 1092.34,-81.6236 1081.75,-82.1122 1084.37,-88.6055"/>
</g>
<!-- Node27 -->
<g id="node27" class="node"><title>Node27</title>
<polygon fill="none" stroke="#bfbfbf" points="864.5,-62.5 864.5,-81.5 913.5,-81.5 913.5,-62.5 864.5,-62.5"/>
<text text-anchor="middle" x="889" y="-69.5" font-family="Helvetica,sans-Serif" font-size="10.00">string.h</text>
</g>
<!-- Node23&#45;&gt;Node27 -->
<g id="edge36" class="edge"><title>Node23&#45;&gt;Node27</title>
<path fill="none" stroke="midnightblue" d="M920.699,-124.403C915.204,-115.493 906.467,-101.325 899.556,-90.1177"/>
<polygon fill="midnightblue" stroke="midnightblue" points="902.519,-88.2552 894.291,-81.5806 896.561,-91.9294 902.519,-88.2552"/>
</g>
<!-- Node23&#45;&gt;Node21 -->
<g id="edge37" class="edge"><title>Node23&#45;&gt;Node21</title>
<path fill="none" stroke="midnightblue" d="M905.082,-124.403C880.254,-114.2 838.657,-97.1055 810.306,-85.4544"/>
<polygon fill="midnightblue" stroke="midnightblue" points="811.459,-82.1445 800.879,-81.5806 808.798,-88.6191 811.459,-82.1445"/>
</g>
<!-- Node29 -->
<g id="node29" class="node"><title>Node29</title>
<g id="a_node29"><a xlink:href="compiler_8h_source.html" target="_top" xlink:title="compiler.h">
<polygon fill="none" stroke="black" points="1320,-62.5 1320,-81.5 1382,-81.5 1382,-62.5 1320,-62.5"/>
<text text-anchor="middle" x="1351" y="-69.5" font-family="Helvetica,sans-Serif" font-size="10.00">compiler.h</text>
</a>
</g>
</g>
<!-- Node28&#45;&gt;Node29 -->
<g id="edge39" class="edge"><title>Node28&#45;&gt;Node29</title>
<path fill="none" stroke="midnightblue" d="M1207.07,-124.403C1236.01,-114.067 1284.76,-96.6564 1317.4,-84.9994"/>
<polygon fill="midnightblue" stroke="midnightblue" points="1318.73,-88.2401 1326.97,-81.5806 1316.38,-81.6479 1318.73,-88.2401"/>
</g>
<!-- Node31 -->
<g id="node31" class="node"><title>Node31</title>
<g id="a_node31"><a xlink:href="dimension_8h_source.html" target="_top" xlink:title="dimension.h">
<polygon fill="none" stroke="black" points="1194.5,-62.5 1194.5,-81.5 1263.5,-81.5 1263.5,-62.5 1194.5,-62.5"/>
<text text-anchor="middle" x="1229" y="-69.5" font-family="Helvetica,sans-Serif" font-size="10.00">dimension.h</text>
</a>
</g>
</g>
<!-- Node28&#45;&gt;Node31 -->
<g id="edge41" class="edge"><title>Node28&#45;&gt;Node31</title>
<path fill="none" stroke="midnightblue" d="M1189.59,-124.403C1196.49,-115.403 1207.5,-101.041 1216.13,-89.7824"/>
<polygon fill="midnightblue" stroke="midnightblue" points="1219.11,-91.6462 1222.42,-81.5806 1213.56,-87.3872 1219.11,-91.6462"/>
</g>
<!-- Node30 -->
<g id="node30" class="node"><title>Node30</title>
<polygon fill="none" stroke="#bfbfbf" points="1379,-0.5 1379,-19.5 1443,-19.5 1443,-0.5 1379,-0.5"/>
<text text-anchor="middle" x="1411" y="-7.5" font-family="Helvetica,sans-Serif" font-size="10.00">psiconfig.h</text>
</g>
<!-- Node29&#45;&gt;Node30 -->
<g id="edge40" class="edge"><title>Node29&#45;&gt;Node30</title>
<path fill="none" stroke="midnightblue" d="M1359.6,-62.4035C1368.86,-53.1361 1383.82,-38.1828 1395.21,-26.7876"/>
<polygon fill="midnightblue" stroke="midnightblue" points="1397.82,-29.1266 1402.42,-19.5806 1392.87,-24.1768 1397.82,-29.1266"/>
</g>
<!-- Node31&#45;&gt;Node4 -->
<g id="edge42" class="edge"><title>Node31&#45;&gt;Node4</title>
<path fill="none" stroke="midnightblue" d="M1194.43,-63.7396C1179.85,-60.9221 1162.66,-57.918 1147,-56 883.428,-23.7131 562.191,-13.981 462.787,-11.6394"/>
<polygon fill="midnightblue" stroke="midnightblue" points="462.635,-8.13516 452.558,-11.4064 462.476,-15.1333 462.635,-8.13516"/>
</g>
<!-- Node31&#45;&gt;Node2 -->
<g id="edge43" class="edge"><title>Node31&#45;&gt;Node2</title>
<path fill="none" stroke="midnightblue" d="M1263.5,-64.4073C1324.82,-52.6904 1451.9,-28.4085 1511.21,-17.0742"/>
<polygon fill="midnightblue" stroke="midnightblue" points="1511.97,-20.4929 1521.13,-15.1781 1510.66,-13.6173 1511.97,-20.4929"/>
</g>
<!-- Node31&#45;&gt;Node10 -->
<g id="edge44" class="edge"><title>Node31&#45;&gt;Node10</title>
<path fill="none" stroke="midnightblue" d="M1224.42,-62.4035C1219.71,-53.5816 1212.26,-39.6075 1206.31,-28.4548"/>
<polygon fill="midnightblue" stroke="midnightblue" points="1209.37,-26.7571 1201.58,-19.5806 1203.19,-30.0512 1209.37,-26.7571"/>
</g>
<!-- Node33 -->
<g id="node33" class="node"><title>Node33</title>
<polygon fill="none" stroke="#bfbfbf" points="1065,-292.5 1065,-311.5 1117,-311.5 1117,-292.5 1065,-292.5"/>
<text text-anchor="middle" x="1091" y="-299.5" font-family="Helvetica,sans-Serif" font-size="10.00">stddef.h</text>
</g>
<!-- Node32&#45;&gt;Node33 -->
<g id="edge46" class="edge"><title>Node32&#45;&gt;Node33</title>
<path fill="none" stroke="midnightblue" d="M1092.67,-348.083C1092.41,-341.006 1092.03,-330.861 1091.7,-321.986"/>
<polygon fill="midnightblue" stroke="midnightblue" points="1095.19,-321.615 1091.32,-311.751 1088.2,-321.874 1095.19,-321.615"/>
</g>
<!-- Node32&#45;&gt;Node10 -->
<g id="edge47" class="edge"><title>Node32&#45;&gt;Node10</title>
<path fill="none" stroke="midnightblue" d="M1082.56,-348.245C1073.58,-339.969 1061.25,-326.663 1056,-312 1053,-303.632 1054.3,-300.725 1056,-292 1071.39,-212.934 1086.87,-195.482 1124,-124 1125.29,-121.511 1165.76,-59.1128 1185.88,-28.1294"/>
<polygon fill="midnightblue" stroke="midnightblue" points="1188.89,-29.9167 1191.4,-19.6235 1183.02,-26.1046 1188.89,-29.9167"/>
</g>
<!-- Node32&#45;&gt;Node28 -->
<g id="edge48" class="edge"><title>Node32&#45;&gt;Node28</title>
<path fill="none" stroke="midnightblue" d="M1102.02,-348.34C1110.07,-339.932 1121.3,-326.363 1126,-312 1144.26,-256.231 1096.76,-232.487 1123,-180 1129.73,-166.543 1142.61,-156.067 1154.71,-148.621"/>
<polygon fill="midnightblue" stroke="midnightblue" points="1156.73,-151.498 1163.7,-143.52 1153.28,-145.41 1156.73,-151.498"/>
</g>
<!-- Node32&#45;&gt;Node12 -->
<g id="edge49" class="edge"><title>Node32&#45;&gt;Node12</title>
<path fill="none" stroke="midnightblue" d="M1033.36,-348.705C886.27,-327.848 518,-273.029 518,-247 518,-247 518,-247 518,-189 518,-153.83 507.29,-113.883 500.179,-91.2358"/>
<polygon fill="midnightblue" stroke="midnightblue" points="503.466,-90.0279 497.04,-81.6048 496.811,-92.1972 503.466,-90.0279"/>
</g>
<!-- Node34 -->
<g id="node34" class="node"><title>Node34</title>
<g id="a_node34"><a xlink:href="parallel_8h_source.html" target="_top" xlink:title="libparallel/parallel.h">
<polygon fill="none" stroke="black" points="1285.5,-292.5 1285.5,-311.5 1384.5,-311.5 1384.5,-292.5 1285.5,-292.5"/>
<text text-anchor="middle" x="1335" y="-299.5" font-family="Helvetica,sans-Serif" font-size="10.00">libparallel/parallel.h</text>
</a>
</g>
</g>
<!-- Node32&#45;&gt;Node34 -->
<g id="edge50" class="edge"><title>Node32&#45;&gt;Node34</title>
<path fill="none" stroke="midnightblue" d="M1131.35,-348.444C1173.47,-339.043 1241.21,-323.929 1286.87,-313.739"/>
<polygon fill="midnightblue" stroke="midnightblue" points="1287.84,-317.11 1296.83,-311.516 1286.31,-310.278 1287.84,-317.11"/>
</g>
<!-- Node34&#45;&gt;Node20 -->
<g id="edge51" class="edge"><title>Node34&#45;&gt;Node20</title>
<path fill="none" stroke="midnightblue" d="M1318.37,-292.464C1305.51,-284.841 1288.66,-272.356 1281,-256 1266.67,-225.411 1261.65,-207.685 1281,-180 1294.62,-160.518 1317.62,-149.444 1340.08,-143.158"/>
<polygon fill="midnightblue" stroke="midnightblue" points="1341.13,-146.502 1349.98,-140.671 1339.43,-139.713 1341.13,-146.502"/>
</g>
<!-- Node34&#45;&gt;Node30 -->
<g id="edge52" class="edge"><title>Node34&#45;&gt;Node30</title>
<path fill="none" stroke="midnightblue" d="M1369.26,-292.44C1413.82,-279.016 1486,-248.408 1486,-191 1486,-191 1486,-191 1486,-133 1486,-89.3775 1450.77,-48.2433 1428.6,-26.6771"/>
<polygon fill="midnightblue" stroke="midnightblue" points="1430.8,-23.9411 1421.11,-19.6487 1426.01,-29.0447 1430.8,-23.9411"/>
</g>
<!-- Node34&#45;&gt;Node2 -->
<g id="edge53" class="edge"><title>Node34&#45;&gt;Node2</title>
<path fill="none" stroke="midnightblue" d="M1384.66,-293.95C1440.65,-282.871 1524,-255.541 1524,-191 1524,-191 1524,-191 1524,-133 1524,-95.8046 1532.73,-52.9819 1538.35,-29.249"/>
<polygon fill="midnightblue" stroke="midnightblue" points="1541.76,-30.054 1540.75,-19.5078 1534.96,-28.3847 1541.76,-30.054"/>
</g>
<!-- Node35 -->
<g id="node35" class="node"><title>Node35</title>
<g id="a_node35"><a xlink:href="libparallel_2local_8h_source.html" target="_top" xlink:title="libparallel/local.h">
<polygon fill="none" stroke="black" points="1290.5,-236.5 1290.5,-255.5 1379.5,-255.5 1379.5,-236.5 1290.5,-236.5"/>
<text text-anchor="middle" x="1335" y="-243.5" font-family="Helvetica,sans-Serif" font-size="10.00">libparallel/local.h</text>
</a>
</g>
</g>
<!-- Node34&#45;&gt;Node35 -->
<g id="edge54" class="edge"><title>Node34&#45;&gt;Node35</title>
<path fill="none" stroke="midnightblue" d="M1335,-292.083C1335,-285.006 1335,-274.861 1335,-265.986"/>
<polygon fill="midnightblue" stroke="midnightblue" points="1338.5,-265.751 1335,-255.751 1331.5,-265.751 1338.5,-265.751"/>
</g>
<!-- Node35&#45;&gt;Node19 -->
<g id="edge55" class="edge"><title>Node35&#45;&gt;Node19</title>
<path fill="none" stroke="midnightblue" d="M1290.5,-239.575C1204.54,-229.098 1016.83,-206.217 933.398,-196.046"/>
<polygon fill="midnightblue" stroke="midnightblue" points="933.631,-192.549 923.281,-194.813 932.784,-199.497 933.631,-192.549"/>
</g>
<!-- Node36 -->
<g id="node36" class="node"><title>Node36</title>
<polygon fill="none" stroke="#bfbfbf" points="1290,-180.5 1290,-199.5 1336,-199.5 1336,-180.5 1290,-180.5"/>
<text text-anchor="middle" x="1313" y="-187.5" font-family="Helvetica,sans-Serif" font-size="10.00">cstring</text>
</g>
<!-- Node35&#45;&gt;Node36 -->
<g id="edge56" class="edge"><title>Node35&#45;&gt;Node36</title>
<path fill="none" stroke="midnightblue" d="M1331.37,-236.083C1328.39,-228.77 1324.07,-218.181 1320.38,-209.103"/>
<polygon fill="midnightblue" stroke="midnightblue" points="1323.58,-207.691 1316.57,-199.751 1317.1,-210.333 1323.58,-207.691"/>
</g>
<!-- Node37 -->
<g id="node37" class="node"><title>Node37</title>
<g id="a_node37"><a xlink:href="openmp_8h_source.html" target="_top" xlink:title="libparallel/openmp.h">
<polygon fill="none" stroke="black" points="1354.5,-180.5 1354.5,-199.5 1457.5,-199.5 1457.5,-180.5 1354.5,-180.5"/>
<text text-anchor="middle" x="1406" y="-187.5" font-family="Helvetica,sans-Serif" font-size="10.00">libparallel/openmp.h</text>
</a>
</g>
</g>
<!-- Node35&#45;&gt;Node37 -->
<g id="edge57" class="edge"><title>Node35&#45;&gt;Node37</title>
<path fill="none" stroke="midnightblue" d="M1346.41,-236.324C1357.11,-228.185 1373.34,-215.839 1386.16,-206.087"/>
<polygon fill="midnightblue" stroke="midnightblue" points="1388.54,-208.673 1394.39,-199.834 1384.31,-203.102 1388.54,-208.673"/>
</g>
<!-- Node38&#45;&gt;Node10 -->
<g id="edge59" class="edge"><title>Node38&#45;&gt;Node10</title>
<path fill="none" stroke="midnightblue" d="M1197.2,-180.361C1209.84,-172.163 1228.23,-158.906 1241,-144 1259.51,-122.394 1264.88,-115.544 1272,-88 1275.56,-74.2298 1279.01,-68.3762 1272,-56 1262.71,-39.586 1244.77,-28.506 1228.77,-21.4481"/>
<polygon fill="midnightblue" stroke="midnightblue" points="1229.74,-18.0631 1219.16,-17.5617 1227.12,-24.5533 1229.74,-18.0631"/>
</g>
<!-- Node38&#45;&gt;Node4 -->
<g id="edge60" class="edge"><title>Node38&#45;&gt;Node4</title>
<path fill="none" stroke="midnightblue" d="M1132.39,-183.847C1072.38,-177.178 969.597,-163.988 883,-144 802.191,-125.348 777.941,-127.467 705,-88 685.28,-77.3302 686.3,-65.5208 666,-56 598.211,-24.2058 509.312,-14.8754 463.036,-12.1373"/>
<polygon fill="midnightblue" stroke="midnightblue" points="462.931,-8.62702 452.761,-11.5977 462.564,-15.6174 462.931,-8.62702"/>
</g>
<!-- Node38&#45;&gt;Node2 -->
<g id="edge61" class="edge"><title>Node38&#45;&gt;Node2</title>
<path fill="none" stroke="midnightblue" d="M1200.86,-180.454C1236.9,-163.179 1320.87,-122.785 1391,-88 1435.48,-65.9376 1486.97,-39.7074 1517.16,-24.2573"/>
<polygon fill="midnightblue" stroke="midnightblue" points="1518.87,-27.3125 1526.18,-19.6387 1515.68,-21.0821 1518.87,-27.3125"/>
</g>
<!-- Node38&#45;&gt;Node11 -->
<g id="edge62" class="edge"><title>Node38&#45;&gt;Node11</title>
<path fill="none" stroke="midnightblue" d="M1132.23,-186.318C1016.77,-179.92 741.6,-162.884 704,-144 680.322,-132.108 661.284,-107.432 650.309,-90.5439"/>
<polygon fill="midnightblue" stroke="midnightblue" points="653.045,-88.3147 644.805,-81.656 647.094,-92.0005 653.045,-88.3147"/>
</g>
<!-- Node38&#45;&gt;Node28 -->
<g id="edge63" class="edge"><title>Node38&#45;&gt;Node28</title>
<path fill="none" stroke="midnightblue" d="M1183,-180.083C1183,-173.006 1183,-162.861 1183,-153.986"/>
<polygon fill="midnightblue" stroke="midnightblue" points="1186.5,-153.751 1183,-143.751 1179.5,-153.751 1186.5,-153.751"/>
</g>
<!-- Node38&#45;&gt;Node20 -->
<g id="edge64" class="edge"><title>Node38&#45;&gt;Node20</title>
<path fill="none" stroke="midnightblue" d="M1218.02,-180.444C1256.25,-171.102 1317.57,-156.119 1359.26,-145.933"/>
<polygon fill="midnightblue" stroke="midnightblue" points="1360.26,-149.29 1369.15,-143.516 1358.6,-142.49 1360.26,-149.29"/>
</g>
<!-- Node40&#45;&gt;Node4 -->
<g id="edge67" class="edge"><title>Node40&#45;&gt;Node4</title>
<path fill="none" stroke="midnightblue" d="M126.697,-292.258C132.156,-273.765 144,-229.238 144,-191 144,-191 144,-191 144,-133 144,-97.154 141.021,-79.6024 168,-56 202.332,-25.9651 339.132,-15.5354 401.151,-12.3021"/>
<polygon fill="midnightblue" stroke="midnightblue" points="401.659,-15.7815 411.475,-11.7949 401.315,-8.78993 401.659,-15.7815"/>
</g>
<!-- Node42 -->
<g id="node42" class="node"><title>Node42</title>
<g id="a_node42"><a xlink:href="psifiles_8h_source.html" target="_top" xlink:title="psifiles.h">
<polygon fill="none" stroke="black" points="1804,-124.5 1804,-143.5 1860,-143.5 1860,-124.5 1804,-124.5"/>
<text text-anchor="middle" x="1832" y="-131.5" font-family="Helvetica,sans-Serif" font-size="10.00">psifiles.h</text>
</a>
</g>
</g>
<!-- Node41&#45;&gt;Node42 -->
<g id="edge69" class="edge"><title>Node41&#45;&gt;Node42</title>
<path fill="none" stroke="midnightblue" d="M1740.35,-236.477C1749.1,-227.502 1763.18,-212.912 1775,-200 1789.96,-183.654 1806.63,-164.54 1818.05,-151.289"/>
<polygon fill="midnightblue" stroke="midnightblue" points="1820.87,-153.381 1824.74,-143.516 1815.56,-148.818 1820.87,-153.381"/>
</g>
<!-- Node43 -->
<g id="node43" class="node"><title>Node43</title>
<g id="a_node43"><a xlink:href="lib_2libdpd_2dpd_8h.html" target="_top" xlink:title="Enter brief description of file here.">
<polygon fill="none" stroke="black" points="1697.5,-180.5 1697.5,-199.5 1766.5,-199.5 1766.5,-180.5 1697.5,-180.5"/>
<text text-anchor="middle" x="1732" y="-187.5" font-family="Helvetica,sans-Serif" font-size="10.00">libdpd/dpd.h</text>
</a>
</g>
</g>
<!-- Node41&#45;&gt;Node43 -->
<g id="edge70" class="edge"><title>Node41&#45;&gt;Node43</title>
<path fill="none" stroke="midnightblue" d="M1732,-236.083C1732,-229.006 1732,-218.861 1732,-209.986"/>
<polygon fill="midnightblue" stroke="midnightblue" points="1735.5,-209.751 1732,-199.751 1728.5,-209.751 1735.5,-209.751"/>
</g>
<!-- Node41&#45;&gt;Node5 -->
<g id="edge76" class="edge"><title>Node41&#45;&gt;Node5</title>
<path fill="none" stroke="midnightblue" d="M1754.02,-236.444C1777.1,-227.478 1813.56,-213.314 1839.64,-203.183"/>
<polygon fill="midnightblue" stroke="midnightblue" points="1841.02,-206.4 1849.08,-199.516 1838.49,-199.875 1841.02,-206.4"/>
</g>
<!-- Node41&#45;&gt;Node6 -->
<g id="edge77" class="edge"><title>Node41&#45;&gt;Node6</title>
<path fill="none" stroke="midnightblue" d="M1716.74,-236.324C1701.78,-227.822 1678.75,-214.729 1661.27,-204.797"/>
<polygon fill="midnightblue" stroke="midnightblue" points="1662.65,-201.553 1652.23,-199.655 1659.19,-207.639 1662.65,-201.553"/>
</g>
<!-- Node43&#45;&gt;Node2 -->
<g id="edge71" class="edge"><title>Node43&#45;&gt;Node2</title>
<path fill="none" stroke="midnightblue" d="M1738.81,-180.473C1748.25,-167.524 1763,-142.458 1752,-124 1713.24,-58.9729 1622.63,-29.105 1574.44,-17.406"/>
<polygon fill="midnightblue" stroke="midnightblue" points="1575.09,-13.9631 1564.56,-15.1175 1573.51,-20.7828 1575.09,-13.9631"/>
</g>
<!-- Node43&#45;&gt;Node42 -->
<g id="edge72" class="edge"><title>Node43&#45;&gt;Node42</title>
<path fill="none" stroke="midnightblue" d="M1748.07,-180.324C1763.96,-171.743 1788.51,-158.486 1806.96,-148.522"/>
<polygon fill="midnightblue" stroke="midnightblue" points="1808.84,-151.486 1815.97,-143.655 1805.51,-145.326 1808.84,-151.486"/>
</g>
<!-- Node43&#45;&gt;Node7 -->
<g id="edge73" class="edge"><title>Node43&#45;&gt;Node7</title>
<path fill="none" stroke="midnightblue" d="M1721.88,-180.324C1712.47,-172.263 1698.26,-160.077 1686.93,-150.369"/>
<polygon fill="midnightblue" stroke="midnightblue" points="1689.18,-147.684 1679.31,-143.834 1684.62,-152.999 1689.18,-147.684"/>
</g>
<!-- Node43&#45;&gt;Node20 -->
<g id="edge74" class="edge"><title>Node43&#45;&gt;Node20</title>
<path fill="none" stroke="midnightblue" d="M1697.48,-182.563C1692.62,-181.685 1687.69,-180.808 1683,-180 1609.34,-167.296 1524.54,-153.775 1467.95,-144.909"/>
<polygon fill="midnightblue" stroke="midnightblue" points="1468.49,-141.451 1458.07,-143.364 1467.4,-148.367 1468.49,-141.451"/>
</g>
<!-- Node43&#45;&gt;Node10 -->
<g id="edge75" class="edge"><title>Node43&#45;&gt;Node10</title>
<path fill="none" stroke="midnightblue" d="M1732.98,-180.5C1734.07,-166.656 1734.02,-139.255 1719,-124 1649.5,-53.396 1332.32,-21.9277 1229.37,-13.4541"/>
<polygon fill="midnightblue" stroke="midnightblue" points="1229.51,-9.95448 1219.27,-12.6402 1228.95,-16.9319 1229.51,-9.95448"/>
</g>
</g>
</svg>
