<?xml version="1.0" encoding="UTF-8" standalone="no"?>
<!DOCTYPE svg PUBLIC "-//W3C//DTD SVG 1.1//EN"
 "http://www.w3.org/Graphics/SVG/1.1/DTD/svg11.dtd">
<!-- Generated by graphviz version 2.30.1 (20140110.0959)
 -->
<!-- Title: MOInfo.h Pages: 1 -->
<svg width="4145pt" height="84pt"
 viewBox="0.00 0.00 4145.00 84.00" xmlns="http://www.w3.org/2000/svg" xmlns:xlink="http://www.w3.org/1999/xlink">
<g id="graph0" class="graph" transform="scale(1 1) rotate(0) translate(4 80)">
<title>MOInfo.h</title>
<!-- Node1 -->
<g id="node1" class="node"><title>Node1</title>
<polygon fill="#bfbfbf" stroke="black" points="2033.5,-56.5 2033.5,-75.5 2090.5,-75.5 2090.5,-56.5 2033.5,-56.5"/>
<text text-anchor="middle" x="2062" y="-63.5" font-family="Helvetica,sans-Serif" font-size="10.00">MOInfo.h</text>
</g>
<!-- Node2 -->
<g id="node2" class="node"><title>Node2</title>
<g id="a_node2"><a xlink:href="BL2__AO_8cc.html" target="_top" xlink:title="Enter brief description of file here.">
<polygon fill="none" stroke="black" points="-0.5,-0.5 -0.5,-19.5 66.5,-19.5 66.5,-0.5 -0.5,-0.5"/>
<text text-anchor="middle" x="33" y="-7.5" font-family="Helvetica,sans-Serif" font-size="10.00">BL2_AO.cc</text>
</a>
</g>
</g>
<!-- Node1&#45;&gt;Node2 -->
<g id="edge1" class="edge"><title>Node1&#45;&gt;Node2</title>
<path fill="none" stroke="midnightblue" d="M2023.16,-65.0931C1780.78,-65.5274 473.317,-65.6884 76,-20 72.9692,-19.6515 69.8356,-19.1921 66.7055,-18.6651"/>
<polygon fill="midnightblue" stroke="midnightblue" points="2023.26,-68.593 2033.26,-65.0737 2023.25,-61.593 2023.26,-68.593"/>
</g>
<!-- Node3 -->
<g id="node3" class="node"><title>Node3</title>
<g id="a_node3"><a xlink:href="cclambda_2c__clean_8cc.html" target="_top" xlink:title="Enter brief description of file here.">
<polygon fill="none" stroke="black" points="85,-0.5 85,-19.5 149,-19.5 149,-0.5 85,-0.5"/>
<text text-anchor="middle" x="117" y="-7.5" font-family="Helvetica,sans-Serif" font-size="10.00">c_clean.cc</text>
</a>
</g>
</g>
<!-- Node1&#45;&gt;Node3 -->
<g id="edge2" class="edge"><title>Node1&#45;&gt;Node3</title>
<path fill="none" stroke="midnightblue" d="M2023.29,-65.1002C1787.12,-65.5582 537.885,-65.7514 158,-20 155.106,-19.6514 152.115,-19.1921 149.129,-18.6651"/>
<polygon fill="midnightblue" stroke="midnightblue" points="2023.46,-68.5999 2033.45,-65.079 2023.44,-61.5999 2023.46,-68.5999"/>
</g>
<!-- Node4 -->
<g id="node4" class="node"><title>Node4</title>
<g id="a_node4"><a xlink:href="cc2__faeL2_8cc.html" target="_top" xlink:title="Enter brief description of file here.">
<polygon fill="none" stroke="black" points="167.5,-0.5 167.5,-19.5 242.5,-19.5 242.5,-0.5 167.5,-0.5"/>
<text text-anchor="middle" x="205" y="-7.5" font-family="Helvetica,sans-Serif" font-size="10.00">cc2_faeL2.cc</text>
</a>
</g>
</g>
<!-- Node1&#45;&gt;Node4 -->
<g id="edge3" class="edge"><title>Node1&#45;&gt;Node4</title>
<path fill="none" stroke="midnightblue" d="M2023.04,-64.9251C1793.15,-64.348 611.65,-59.4772 251,-20 248.25,-19.6989 245.418,-19.3191 242.576,-18.8867"/>
<polygon fill="midnightblue" stroke="midnightblue" points="2023.25,-68.4255 2033.26,-64.9494 2023.27,-61.4255 2023.25,-68.4255"/>
</g>
<!-- Node5 -->
<g id="node5" class="node"><title>Node5</title>
<g id="a_node5"><a xlink:href="cc2__fmiL2_8cc.html" target="_top" xlink:title="Enter brief description of file here.">
<polygon fill="none" stroke="black" points="260.5,-0.5 260.5,-19.5 335.5,-19.5 335.5,-0.5 260.5,-0.5"/>
<text text-anchor="middle" x="298" y="-7.5" font-family="Helvetica,sans-Serif" font-size="10.00">cc2_fmiL2.cc</text>
</a>
</g>
</g>
<!-- Node1&#45;&gt;Node5 -->
<g id="edge4" class="edge"><title>Node1&#45;&gt;Node5</title>
<path fill="none" stroke="midnightblue" d="M2022.97,-64.8422C1800.04,-63.8101 685.91,-56.8589 345,-20 341.944,-19.6696 338.789,-19.2467 335.629,-18.7649"/>
<polygon fill="midnightblue" stroke="midnightblue" points="2023.18,-68.3431 2033.2,-64.8883 2023.21,-61.3432 2023.18,-68.3431"/>
</g>
<!-- Node6 -->
<g id="node6" class="node"><title>Node6</title>
<g id="a_node6"><a xlink:href="cc2__Gai_8cc.html" target="_top" xlink:title="Enter brief description of file here.">
<polygon fill="none" stroke="black" points="354,-0.5 354,-19.5 420,-19.5 420,-0.5 354,-0.5"/>
<text text-anchor="middle" x="387" y="-7.5" font-family="Helvetica,sans-Serif" font-size="10.00">cc2_Gai.cc</text>
</a>
</g>
</g>
<!-- Node1&#45;&gt;Node6 -->
<g id="edge5" class="edge"><title>Node1&#45;&gt;Node6</title>
<path fill="none" stroke="midnightblue" d="M2023.17,-64.8975C1807.19,-64.1805 751.961,-58.7202 429,-20 426.186,-19.6627 423.283,-19.2272 420.378,-18.7301"/>
<polygon fill="midnightblue" stroke="midnightblue" points="2023.37,-68.398 2033.38,-64.9299 2023.39,-61.3981 2023.37,-68.398"/>
</g>
<!-- Node7 -->
<g id="node7" class="node"><title>Node7</title>
<g id="a_node7"><a xlink:href="cclambda_2cc2__hbar__extra_8cc.html" target="_top" xlink:title="Enter brief description of file here.">
<polygon fill="none" stroke="black" points="438.5,-0.5 438.5,-19.5 535.5,-19.5 535.5,-0.5 438.5,-0.5"/>
<text text-anchor="middle" x="487" y="-7.5" font-family="Helvetica,sans-Serif" font-size="10.00">cc2_hbar_extra.cc</text>
</a>
</g>
</g>
<!-- Node1&#45;&gt;Node7 -->
<g id="edge6" class="edge"><title>Node1&#45;&gt;Node7</title>
<path fill="none" stroke="midnightblue" d="M2023.36,-64.5056C1817.17,-61.7681 844.637,-47.5841 545,-20 541.956,-19.7198 538.829,-19.3816 535.68,-19.003"/>
<polygon fill="midnightblue" stroke="midnightblue" points="2023.37,-68.0059 2033.41,-64.638 2023.46,-61.0065 2023.37,-68.0059"/>
</g>
<!-- Node8 -->
<g id="node8" class="node"><title>Node8</title>
<g id="a_node8"><a xlink:href="cc2__L1_8cc.html" target="_top" xlink:title="Enter brief description of file here.">
<polygon fill="none" stroke="black" points="554,-0.5 554,-19.5 616,-19.5 616,-0.5 554,-0.5"/>
<text text-anchor="middle" x="585" y="-7.5" font-family="Helvetica,sans-Serif" font-size="10.00">cc2_L1.cc</text>
</a>
</g>
</g>
<!-- Node1&#45;&gt;Node8 -->
<g id="edge7" class="edge"><title>Node1&#45;&gt;Node8</title>
<path fill="none" stroke="midnightblue" d="M2023.47,-64.7838C1823.99,-63.5139 906.878,-55.7945 625,-20 622.175,-19.6413 619.257,-19.175 616.343,-18.6434"/>
<polygon fill="midnightblue" stroke="midnightblue" points="2023.46,-68.2837 2033.48,-64.8459 2023.51,-61.2839 2023.46,-68.2837"/>
</g>
<!-- Node9 -->
<g id="node9" class="node"><title>Node9</title>
<g id="a_node9"><a xlink:href="cc2__L2_8cc.html" target="_top" xlink:title="Enter brief description of file here.">
<polygon fill="none" stroke="black" points="634,-0.5 634,-19.5 696,-19.5 696,-0.5 634,-0.5"/>
<text text-anchor="middle" x="665" y="-7.5" font-family="Helvetica,sans-Serif" font-size="10.00">cc2_L2.cc</text>
</a>
</g>
</g>
<!-- Node1&#45;&gt;Node9 -->
<g id="edge8" class="edge"><title>Node1&#45;&gt;Node9</title>
<path fill="none" stroke="midnightblue" d="M2023.19,-64.6992C1829.92,-63.0505 970.045,-53.9053 705,-20 702.176,-19.6387 699.258,-19.1706 696.344,-18.6379"/>
<polygon fill="midnightblue" stroke="midnightblue" points="2023.4,-68.2009 2033.43,-64.7847 2023.46,-61.2012 2023.4,-68.2009"/>
</g>
<!-- Node10 -->
<g id="node10" class="node"><title>Node10</title>
<g id="a_node10"><a xlink:href="cc3__l3l1_8cc.html" target="_top" xlink:title="Enter brief description of file here.">
<polygon fill="none" stroke="black" points="714,-0.5 714,-19.5 780,-19.5 780,-0.5 714,-0.5"/>
<text text-anchor="middle" x="747" y="-7.5" font-family="Helvetica,sans-Serif" font-size="10.00">cc3_l3l1.cc</text>
</a>
</g>
</g>
<!-- Node1&#45;&gt;Node10 -->
<g id="edge9" class="edge"><title>Node1&#45;&gt;Node10</title>
<path fill="none" stroke="midnightblue" d="M2023.24,-64.5484C1837.42,-62.243 1036.72,-50.6776 789,-20 786.188,-19.6517 783.285,-19.2085 780.381,-18.7063"/>
<polygon fill="midnightblue" stroke="midnightblue" points="2023.31,-68.0495 2033.35,-64.6722 2023.4,-61.05 2023.31,-68.0495"/>
</g>
<!-- Node11 -->
<g id="node11" class="node"><title>Node11</title>
<g id="a_node11"><a xlink:href="cc3__l3l2_8cc.html" target="_top" xlink:title="Enter brief description of file here.">
<polygon fill="none" stroke="black" points="798,-0.5 798,-19.5 864,-19.5 864,-0.5 798,-0.5"/>
<text text-anchor="middle" x="831" y="-7.5" font-family="Helvetica,sans-Serif" font-size="10.00">cc3_l3l2.cc</text>
</a>
</g>
</g>
<!-- Node1&#45;&gt;Node11 -->
<g id="edge10" class="edge"><title>Node1&#45;&gt;Node11</title>
<path fill="none" stroke="midnightblue" d="M2023.26,-64.437C1845.08,-61.7094 1103.25,-48.8057 873,-20 870.188,-19.6482 867.286,-19.2026 864.381,-18.6987"/>
<polygon fill="midnightblue" stroke="midnightblue" points="2023.41,-67.9396 2033.46,-64.5915 2023.52,-60.9405 2023.41,-67.9396"/>
</g>
<!-- Node12 -->
<g id="node12" class="node"><title>Node12</title>
<g id="a_node12"><a xlink:href="cc3__t3x_8cc.html" target="_top" xlink:title="Enter brief description of file here.">
<polygon fill="none" stroke="black" points="882.5,-0.5 882.5,-19.5 947.5,-19.5 947.5,-0.5 882.5,-0.5"/>
<text text-anchor="middle" x="915" y="-7.5" font-family="Helvetica,sans-Serif" font-size="10.00">cc3_t3x.cc</text>
</a>
</g>
</g>
<!-- Node1&#45;&gt;Node12 -->
<g id="edge11" class="edge"><title>Node1&#45;&gt;Node12</title>
<path fill="none" stroke="midnightblue" d="M2023.25,-64.3359C1852.82,-61.275 1168.95,-47.488 956,-20 953.254,-19.6455 950.419,-19.1979 947.583,-18.6927"/>
<polygon fill="midnightblue" stroke="midnightblue" points="2023.44,-67.8397 2033.5,-64.5181 2023.56,-60.8408 2023.44,-67.8397"/>
</g>
<!-- Node13 -->
<g id="node13" class="node"><title>Node13</title>
<g id="a_node13"><a xlink:href="cc3__t3z_8cc.html" target="_top" xlink:title="Enter brief description of file here.">
<polygon fill="none" stroke="black" points="965.5,-0.5 965.5,-19.5 1030.5,-19.5 1030.5,-0.5 965.5,-0.5"/>
<text text-anchor="middle" x="998" y="-7.5" font-family="Helvetica,sans-Serif" font-size="10.00">cc3_t3z.cc</text>
</a>
</g>
</g>
<!-- Node1&#45;&gt;Node13 -->
<g id="edge12" class="edge"><title>Node1&#45;&gt;Node13</title>
<path fill="none" stroke="midnightblue" d="M2023.32,-64.1626C1861.19,-60.5187 1235.65,-45.0905 1040,-20 1037.04,-19.6206 1033.98,-19.14 1030.93,-18.5991"/>
<polygon fill="midnightblue" stroke="midnightblue" points="2023.25,-67.6617 2033.32,-64.3856 2023.4,-60.6634 2023.25,-67.6617"/>
</g>
<!-- Node14 -->
<g id="node14" class="node"><title>Node14</title>
<g id="a_node14"><a xlink:href="cclambda_8cc.html" target="_top" xlink:title="Enter brief description of file here.">
<polygon fill="none" stroke="black" points="1049,-0.5 1049,-19.5 1121,-19.5 1121,-0.5 1049,-0.5"/>
<text text-anchor="middle" x="1085" y="-7.5" font-family="Helvetica,sans-Serif" font-size="10.00">cclambda.cc</text>
</a>
</g>
</g>
<!-- Node1&#45;&gt;Node14 -->
<g id="edge13" class="edge"><title>Node1&#45;&gt;Node14</title>
<path fill="none" stroke="midnightblue" d="M2023.16,-65.1926C1895.06,-65.3875 1474.42,-62.5161 1130,-20 1127.15,-19.6486 1124.22,-19.2181 1121.27,-18.7376"/>
<polygon fill="midnightblue" stroke="midnightblue" points="2023.27,-68.6925 2033.27,-65.1697 2023.26,-61.6925 2023.27,-68.6925"/>
</g>
<!-- Node15 -->
<g id="node15" class="node"><title>Node15</title>
<g id="a_node15"><a xlink:href="check__ortho_8cc.html" target="_top" xlink:title="Enter brief description of file here.">
<polygon fill="none" stroke="black" points="1139.5,-0.5 1139.5,-19.5 1222.5,-19.5 1222.5,-0.5 1139.5,-0.5"/>
<text text-anchor="middle" x="1181" y="-7.5" font-family="Helvetica,sans-Serif" font-size="10.00">check_ortho.cc</text>
</a>
</g>
</g>
<!-- Node1&#45;&gt;Node15 -->
<g id="edge14" class="edge"><title>Node1&#45;&gt;Node15</title>
<path fill="none" stroke="midnightblue" d="M2023.16,-64.555C1904.34,-62.8381 1535.38,-54.8644 1232,-20 1228.96,-19.651 1225.83,-19.2359 1222.69,-18.7785"/>
<polygon fill="midnightblue" stroke="midnightblue" points="2023.18,-68.0555 2033.22,-64.6939 2023.27,-61.0562 2023.18,-68.0555"/>
</g>
<!-- Node16 -->
<g id="node16" class="node"><title>Node16</title>
<g id="a_node16"><a xlink:href="cclambda_2check__sum_8cc.html" target="_top" xlink:title="Enter brief description of file here.">
<polygon fill="none" stroke="black" points="1241,-0.5 1241,-19.5 1321,-19.5 1321,-0.5 1241,-0.5"/>
<text text-anchor="middle" x="1281" y="-7.5" font-family="Helvetica,sans-Serif" font-size="10.00">check_sum.cc</text>
</a>
</g>
</g>
<!-- Node1&#45;&gt;Node16 -->
<g id="edge15" class="edge"><title>Node1&#45;&gt;Node16</title>
<path fill="none" stroke="midnightblue" d="M2023.05,-64.2529C1913.52,-61.7974 1593.58,-52.1899 1330,-20 1327.08,-19.6435 1324.07,-19.223 1321.05,-18.7617"/>
<polygon fill="midnightblue" stroke="midnightblue" points="2023.21,-67.7571 2033.28,-64.475 2023.36,-60.7587 2023.21,-67.7571"/>
</g>
<!-- Node17 -->
<g id="node17" class="node"><title>Node17</title>
<g id="a_node17"><a xlink:href="cclambda_2converged_8cc.html" target="_top" xlink:title="Enter brief description of file here.">
<polygon fill="none" stroke="black" points="1339.5,-0.5 1339.5,-19.5 1414.5,-19.5 1414.5,-0.5 1339.5,-0.5"/>
<text text-anchor="middle" x="1377" y="-7.5" font-family="Helvetica,sans-Serif" font-size="10.00">converged.cc</text>
</a>
</g>
</g>
<!-- Node1&#45;&gt;Node17 -->
<g id="edge16" class="edge"><title>Node1&#45;&gt;Node17</title>
<path fill="none" stroke="midnightblue" d="M2022.98,-63.9213C1922.89,-60.7935 1649.04,-49.9565 1423,-20 1420.26,-19.6365 1417.43,-19.2108 1414.59,-18.7459"/>
<polygon fill="midnightblue" stroke="midnightblue" points="2023.11,-67.427 2033.21,-64.233 2023.32,-60.4302 2023.11,-67.427"/>
</g>
<!-- Node18 -->
<g id="node18" class="node"><title>Node18</title>
<g id="a_node18"><a xlink:href="cclambda_2denom_8cc.html" target="_top" xlink:title="Enter brief description of file here.">
<polygon fill="none" stroke="black" points="1432.5,-0.5 1432.5,-19.5 1491.5,-19.5 1491.5,-0.5 1432.5,-0.5"/>
<text text-anchor="middle" x="1462" y="-7.5" font-family="Helvetica,sans-Serif" font-size="10.00">denom.cc</text>
</a>
</g>
</g>
<!-- Node1&#45;&gt;Node18 -->
<g id="edge17" class="edge"><title>Node1&#45;&gt;Node18</title>
<path fill="none" stroke="midnightblue" d="M2023.28,-63.934C1931.75,-60.9723 1695.08,-50.7279 1500,-20 1497.32,-19.578 1494.55,-19.0682 1491.79,-18.5083"/>
<polygon fill="midnightblue" stroke="midnightblue" points="2023.35,-67.4379 2033.46,-64.2523 2023.57,-60.4413 2023.35,-67.4379"/>
</g>
<!-- Node19 -->
<g id="node19" class="node"><title>Node19</title>
<g id="a_node19"><a xlink:href="bin_2cclambda_2diis_8cc.html" target="_top" xlink:title="Enter brief description of file here.">
<polygon fill="none" stroke="black" points="1509.5,-0.5 1509.5,-19.5 1554.5,-19.5 1554.5,-0.5 1509.5,-0.5"/>
<text text-anchor="middle" x="1532" y="-7.5" font-family="Helvetica,sans-Serif" font-size="10.00">diis.cc</text>
</a>
</g>
</g>
<!-- Node1&#45;&gt;Node19 -->
<g id="edge18" class="edge"><title>Node1&#45;&gt;Node19</title>
<path fill="none" stroke="midnightblue" d="M2023.17,-64.0389C1938.76,-61.3959 1732.48,-51.935 1563,-20 1560.25,-19.4811 1557.39,-18.8216 1554.57,-18.0962"/>
<polygon fill="midnightblue" stroke="midnightblue" points="2023.22,-67.5419 2033.32,-64.3418 2023.43,-60.545 2023.22,-67.5419"/>
</g>
<!-- Node20 -->
<g id="node20" class="node"><title>Node20</title>
<g id="a_node20"><a xlink:href="dijabL2_8cc.html" target="_top" xlink:title="Enter brief description of file here.">
<polygon fill="none" stroke="black" points="1572.5,-0.5 1572.5,-19.5 1633.5,-19.5 1633.5,-0.5 1572.5,-0.5"/>
<text text-anchor="middle" x="1603" y="-7.5" font-family="Helvetica,sans-Serif" font-size="10.00">dijabL2.cc</text>
</a>
</g>
</g>
<!-- Node1&#45;&gt;Node20 -->
<g id="edge19" class="edge"><title>Node1&#45;&gt;Node20</title>
<path fill="none" stroke="midnightblue" d="M2023.13,-62.3181C1948.9,-56.8664 1781.97,-43.0184 1643,-20 1639.91,-19.4882 1636.7,-18.8864 1633.5,-18.2408"/>
<polygon fill="midnightblue" stroke="midnightblue" points="2023.17,-65.83 2033.4,-63.0616 2023.68,-58.8483 2023.17,-65.83"/>
</g>
<!-- Node21 -->
<g id="node21" class="node"><title>Node21</title>
<g id="a_node21"><a xlink:href="DL2_8cc.html" target="_top" xlink:title="Enter brief description of file here.">
<polygon fill="none" stroke="black" points="1652,-0.5 1652,-19.5 1700,-19.5 1700,-0.5 1652,-0.5"/>
<text text-anchor="middle" x="1676" y="-7.5" font-family="Helvetica,sans-Serif" font-size="10.00">DL2.cc</text>
</a>
</g>
</g>
<!-- Node1&#45;&gt;Node21 -->
<g id="edge20" class="edge"><title>Node1&#45;&gt;Node21</title>
<path fill="none" stroke="midnightblue" d="M2023.18,-61.8357C1957.87,-56.1151 1822.07,-42.5116 1709,-20 1706.09,-19.4202 1703.05,-18.7236 1700.06,-17.9779"/>
<polygon fill="midnightblue" stroke="midnightblue" points="2023.15,-65.3462 2033.41,-62.718 2023.75,-58.372 2023.15,-65.3462"/>
</g>
<!-- Node22 -->
<g id="node22" class="node"><title>Node22</title>
<g id="a_node22"><a xlink:href="FaeL2_8cc.html" target="_top" xlink:title="Enter brief description of file here.">
<polygon fill="none" stroke="black" points="1718.5,-0.5 1718.5,-19.5 1775.5,-19.5 1775.5,-0.5 1718.5,-0.5"/>
<text text-anchor="middle" x="1747" y="-7.5" font-family="Helvetica,sans-Serif" font-size="10.00">FaeL2.cc</text>
</a>
</g>
</g>
<!-- Node1&#45;&gt;Node22 -->
<g id="edge21" class="edge"><title>Node1&#45;&gt;Node22</title>
<path fill="none" stroke="midnightblue" d="M2023.32,-59.7136C1969.46,-52.1308 1868.91,-37.1721 1784,-20 1781.28,-19.4496 1778.45,-18.8376 1775.63,-18.1989"/>
<polygon fill="midnightblue" stroke="midnightblue" points="2023.06,-63.2117 2033.45,-61.1303 2024.03,-56.2791 2023.06,-63.2117"/>
</g>
<!-- Node23 -->
<g id="node23" class="node"><title>Node23</title>
<g id="a_node23"><a xlink:href="FmiL2_8cc.html" target="_top" xlink:title="Enter brief description of file here.">
<polygon fill="none" stroke="black" points="1793.5,-0.5 1793.5,-19.5 1850.5,-19.5 1850.5,-0.5 1793.5,-0.5"/>
<text text-anchor="middle" x="1822" y="-7.5" font-family="Helvetica,sans-Serif" font-size="10.00">FmiL2.cc</text>
</a>
</g>
</g>
<!-- Node1&#45;&gt;Node23 -->
<g id="edge22" class="edge"><title>Node1&#45;&gt;Node23</title>
<path fill="none" stroke="midnightblue" d="M2023.43,-56.568C1982.75,-47.6383 1916.81,-33.0557 1860,-20 1856.96,-19.3015 1853.79,-18.5635 1850.62,-17.8227"/>
<polygon fill="midnightblue" stroke="midnightblue" points="2022.69,-59.9884 2033.2,-58.712 2024.19,-53.1509 2022.69,-59.9884"/>
</g>
<!-- Node24 -->
<g id="node24" class="node"><title>Node24</title>
<g id="a_node24"><a xlink:href="cclambda_2G_8cc.html" target="_top" xlink:title="Enter brief description of file here.">
<polygon fill="none" stroke="black" points="1869,-0.5 1869,-19.5 1907,-19.5 1907,-0.5 1869,-0.5"/>
<text text-anchor="middle" x="1888" y="-7.5" font-family="Helvetica,sans-Serif" font-size="10.00">G.cc</text>
</a>
</g>
</g>
<!-- Node1&#45;&gt;Node24 -->
<g id="edge23" class="edge"><title>Node1&#45;&gt;Node24</title>
<path fill="none" stroke="midnightblue" d="M2024.1,-53.4537C1994.6,-44.4364 1952.66,-31.5419 1916,-20 1913.18,-19.1107 1910.19,-18.1624 1907.27,-17.2275"/>
<polygon fill="midnightblue" stroke="midnightblue" points="2023.39,-56.8988 2033.98,-56.4729 2025.44,-50.2041 2023.39,-56.8988"/>
</g>
<!-- Node25 -->
<g id="node25" class="node"><title>Node25</title>
<g id="a_node25"><a xlink:href="cclambda_2get__moinfo_8cc.html" target="_top" xlink:title="Enter brief description of file here.">
<polygon fill="none" stroke="black" points="1925,-0.5 1925,-19.5 2003,-19.5 2003,-0.5 1925,-0.5"/>
<text text-anchor="middle" x="1964" y="-7.5" font-family="Helvetica,sans-Serif" font-size="10.00">get_moinfo.cc</text>
</a>
</g>
</g>
<!-- Node1&#45;&gt;Node25 -->
<g id="edge24" class="edge"><title>Node1&#45;&gt;Node25</title>
<path fill="none" stroke="midnightblue" d="M2037.41,-51.4526C2019.32,-41.4835 1995.27,-28.2279 1979.71,-19.6545"/>
<polygon fill="midnightblue" stroke="midnightblue" points="2035.81,-54.5633 2046.25,-56.324 2039.19,-48.4324 2035.81,-54.5633"/>
</g>
<!-- Node26 -->
<g id="node26" class="node"><title>Node26</title>
<g id="a_node26"><a xlink:href="bin_2cclambda_2get__params_8cc.html" target="_top" xlink:title="Enter brief description of file here.">
<polygon fill="none" stroke="black" points="2021.5,-0.5 2021.5,-19.5 2102.5,-19.5 2102.5,-0.5 2021.5,-0.5"/>
<text text-anchor="middle" x="2062" y="-7.5" font-family="Helvetica,sans-Serif" font-size="10.00">get_params.cc</text>
</a>
</g>
</g>
<!-- Node1&#45;&gt;Node26 -->
<g id="edge25" class="edge"><title>Node1&#45;&gt;Node26</title>
<path fill="none" stroke="midnightblue" d="M2062,-45.8045C2062,-36.9102 2062,-26.7798 2062,-19.7511"/>
<polygon fill="midnightblue" stroke="midnightblue" points="2058.5,-46.083 2062,-56.083 2065.5,-46.083 2058.5,-46.083"/>
</g>
<!-- Node27 -->
<g id="node27" class="node"><title>Node27</title>
<g id="a_node27"><a xlink:href="GL2_8cc.html" target="_top" xlink:title="Enter brief description of file here.">
<polygon fill="none" stroke="black" points="2121,-0.5 2121,-19.5 2169,-19.5 2169,-0.5 2121,-0.5"/>
<text text-anchor="middle" x="2145" y="-7.5" font-family="Helvetica,sans-Serif" font-size="10.00">GL2.cc</text>
</a>
</g>
</g>
<!-- Node1&#45;&gt;Node27 -->
<g id="edge26" class="edge"><title>Node1&#45;&gt;Node27</title>
<path fill="none" stroke="midnightblue" d="M2084.1,-50.6221C2099.26,-40.7574 2118.88,-27.9919 2131.7,-19.6545"/>
<polygon fill="midnightblue" stroke="midnightblue" points="2081.81,-47.9367 2075.34,-56.324 2085.63,-53.8042 2081.81,-47.9367"/>
</g>
<!-- Node28 -->
<g id="node28" class="node"><title>Node28</title>
<g id="a_node28"><a xlink:href="cclambda_2hbar__extra_8cc.html" target="_top" xlink:title="Enter brief description of file here.">
<polygon fill="none" stroke="black" points="2187,-0.5 2187,-19.5 2263,-19.5 2263,-0.5 2187,-0.5"/>
<text text-anchor="middle" x="2225" y="-7.5" font-family="Helvetica,sans-Serif" font-size="10.00">hbar_extra.cc</text>
</a>
</g>
</g>
<!-- Node1&#45;&gt;Node28 -->
<g id="edge27" class="edge"><title>Node1&#45;&gt;Node28</title>
<path fill="none" stroke="midnightblue" d="M2097.7,-53.172C2128.4,-43.0039 2171.92,-28.5852 2199.29,-19.5164"/>
<polygon fill="midnightblue" stroke="midnightblue" points="2096.22,-49.9762 2087.83,-56.4435 2098.42,-56.6211 2096.22,-49.9762"/>
</g>
<!-- Node29 -->
<g id="node29" class="node"><title>Node29</title>
<g id="a_node29"><a xlink:href="cclambda_2init__amps_8cc.html" target="_top" xlink:title="Enter brief description of file here.">
<polygon fill="none" stroke="black" points="2281,-0.5 2281,-19.5 2353,-19.5 2353,-0.5 2281,-0.5"/>
<text text-anchor="middle" x="2317" y="-7.5" font-family="Helvetica,sans-Serif" font-size="10.00">init_amps.cc</text>
</a>
</g>
</g>
<!-- Node1&#45;&gt;Node29 -->
<g id="edge28" class="edge"><title>Node1&#45;&gt;Node29</title>
<path fill="none" stroke="midnightblue" d="M2100.65,-56.8153C2149.61,-46.4477 2233.32,-28.7196 2280.99,-18.6253"/>
<polygon fill="midnightblue" stroke="midnightblue" points="2099.81,-53.4146 2090.76,-58.9105 2101.26,-60.2628 2099.81,-53.4146"/>
</g>
<!-- Node30 -->
<g id="node30" class="node"><title>Node30</title>
<g id="a_node30"><a xlink:href="L1_8cc.html" target="_top" xlink:title="Enter brief description of file here.">
<polygon fill="none" stroke="black" points="2371.5,-0.5 2371.5,-19.5 2412.5,-19.5 2412.5,-0.5 2371.5,-0.5"/>
<text text-anchor="middle" x="2392" y="-7.5" font-family="Helvetica,sans-Serif" font-size="10.00">L1.cc</text>
</a>
</g>
</g>
<!-- Node1&#45;&gt;Node30 -->
<g id="edge29" class="edge"><title>Node1&#45;&gt;Node30</title>
<path fill="none" stroke="midnightblue" d="M2100.89,-60.9606C2158.41,-54.5832 2269.35,-40.7361 2362,-20 2365.08,-19.3112 2368.3,-18.4725 2371.45,-17.5873"/>
<polygon fill="midnightblue" stroke="midnightblue" points="2100.35,-57.4988 2090.79,-62.0644 2101.11,-64.4574 2100.35,-57.4988"/>
</g>
<!-- Node31 -->
<g id="node31" class="node"><title>Node31</title>
<g id="a_node31"><a xlink:href="L1FL2_8cc.html" target="_top" xlink:title="Enter brief description of file here.">
<polygon fill="none" stroke="black" points="2430.5,-0.5 2430.5,-19.5 2487.5,-19.5 2487.5,-0.5 2430.5,-0.5"/>
<text text-anchor="middle" x="2459" y="-7.5" font-family="Helvetica,sans-Serif" font-size="10.00">L1FL2.cc</text>
</a>
</g>
</g>
<!-- Node1&#45;&gt;Node31 -->
<g id="edge30" class="edge"><title>Node1&#45;&gt;Node31</title>
<path fill="none" stroke="midnightblue" d="M2100.9,-61.512C2167.01,-55.2749 2305.35,-40.8801 2421,-20 2424.07,-19.4459 2427.26,-18.8003 2430.44,-18.114"/>
<polygon fill="midnightblue" stroke="midnightblue" points="2100.18,-58.0639 2090.55,-62.4775 2100.83,-65.0336 2100.18,-58.0639"/>
</g>
<!-- Node32 -->
<g id="node32" class="node"><title>Node32</title>
<g id="a_node32"><a xlink:href="L2_8cc.html" target="_top" xlink:title="Enter brief description of file here.">
<polygon fill="none" stroke="black" points="2505.5,-0.5 2505.5,-19.5 2546.5,-19.5 2546.5,-0.5 2505.5,-0.5"/>
<text text-anchor="middle" x="2526" y="-7.5" font-family="Helvetica,sans-Serif" font-size="10.00">L2.cc</text>
</a>
</g>
</g>
<!-- Node1&#45;&gt;Node32 -->
<g id="edge31" class="edge"><title>Node1&#45;&gt;Node32</title>
<path fill="none" stroke="midnightblue" d="M2100.82,-63.4246C2177.18,-59.7885 2351.98,-48.8018 2496,-20 2499.09,-19.3815 2502.32,-18.5813 2505.47,-17.7134"/>
<polygon fill="midnightblue" stroke="midnightblue" points="2100.54,-59.9336 2090.71,-63.89 2100.86,-66.9262 2100.54,-59.9336"/>
</g>
<!-- Node33 -->
<g id="node33" class="node"><title>Node33</title>
<g id="a_node33"><a xlink:href="Lamp__write_8cc.html" target="_top" xlink:title="Enter brief description of file here.">
<polygon fill="none" stroke="black" points="2565,-0.5 2565,-19.5 2645,-19.5 2645,-0.5 2565,-0.5"/>
<text text-anchor="middle" x="2605" y="-7.5" font-family="Helvetica,sans-Serif" font-size="10.00">Lamp_write.cc</text>
</a>
</g>
</g>
<!-- Node1&#45;&gt;Node33 -->
<g id="edge32" class="edge"><title>Node1&#45;&gt;Node33</title>
<path fill="none" stroke="midnightblue" d="M2100.75,-62.6155C2184.1,-57.2333 2386.54,-42.8052 2555,-20 2558.23,-19.5622 2561.58,-19.0629 2564.93,-18.5292"/>
<polygon fill="midnightblue" stroke="midnightblue" points="2100.47,-59.1257 2090.72,-63.2564 2100.92,-66.1115 2100.47,-59.1257"/>
</g>
<!-- Node34 -->
<g id="node34" class="node"><title>Node34</title>
<g id="a_node34"><a xlink:href="Lmag_8cc.html" target="_top" xlink:title="Enter brief description of file here.">
<polygon fill="none" stroke="black" points="2663,-0.5 2663,-19.5 2717,-19.5 2717,-0.5 2663,-0.5"/>
<text text-anchor="middle" x="2690" y="-7.5" font-family="Helvetica,sans-Serif" font-size="10.00">Lmag.cc</text>
</a>
</g>
</g>
<!-- Node1&#45;&gt;Node34 -->
<g id="edge33" class="edge"><title>Node1&#45;&gt;Node34</title>
<path fill="none" stroke="midnightblue" d="M2100.82,-64.3155C2195.8,-62.1499 2447.27,-53.4512 2654,-20 2656.93,-19.5266 2659.96,-18.9328 2662.98,-18.277"/>
<polygon fill="midnightblue" stroke="midnightblue" points="2100.47,-60.8222 2090.54,-64.5378 2100.62,-67.8205 2100.47,-60.8222"/>
</g>
<!-- Node35 -->
<g id="node35" class="node"><title>Node35</title>
<g id="a_node35"><a xlink:href="Lnorm_8cc.html" target="_top" xlink:title="Enter brief description of file here.">
<polygon fill="none" stroke="black" points="2735.5,-0.5 2735.5,-19.5 2792.5,-19.5 2792.5,-0.5 2735.5,-0.5"/>
<text text-anchor="middle" x="2764" y="-7.5" font-family="Helvetica,sans-Serif" font-size="10.00">Lnorm.cc</text>
</a>
</g>
</g>
<!-- Node1&#45;&gt;Node35 -->
<g id="edge34" class="edge"><title>Node1&#45;&gt;Node35</title>
<path fill="none" stroke="midnightblue" d="M2100.86,-64.5988C2203.55,-63.0575 2490.43,-55.6302 2726,-20 2729.08,-19.5336 2732.29,-18.9442 2735.46,-18.2911"/>
<polygon fill="midnightblue" stroke="midnightblue" points="2100.61,-61.1019 2090.66,-64.7413 2100.71,-68.1012 2100.61,-61.1019"/>
</g>
<!-- Node36 -->
<g id="node36" class="node"><title>Node36</title>
<g id="a_node36"><a xlink:href="bin_2cclambda_2local_8cc.html" target="_top" xlink:title="Enter brief description of file here.">
<polygon fill="none" stroke="black" points="2811,-0.5 2811,-19.5 2861,-19.5 2861,-0.5 2811,-0.5"/>
<text text-anchor="middle" x="2836" y="-7.5" font-family="Helvetica,sans-Serif" font-size="10.00">local.cc</text>
</a>
</g>
</g>
<!-- Node1&#45;&gt;Node36 -->
<g id="edge35" class="edge"><title>Node1&#45;&gt;Node36</title>
<path fill="none" stroke="midnightblue" d="M2101.07,-65.2342C2211.63,-65.3369 2535.89,-61.765 2801,-20 2804.22,-19.4923 2807.58,-18.8195 2810.89,-18.0696"/>
<polygon fill="midnightblue" stroke="midnightblue" points="2100.75,-61.7337 2090.74,-65.213 2100.74,-68.7337 2100.75,-61.7337"/>
</g>
<!-- Node37 -->
<g id="node37" class="node"><title>Node37</title>
<g id="a_node37"><a xlink:href="Lsave_8cc.html" target="_top" xlink:title="Enter brief description of file here.">
<polygon fill="none" stroke="black" points="2879,-0.5 2879,-19.5 2935,-19.5 2935,-0.5 2879,-0.5"/>
<text text-anchor="middle" x="2907" y="-7.5" font-family="Helvetica,sans-Serif" font-size="10.00">Lsave.cc</text>
</a>
</g>
</g>
<!-- Node1&#45;&gt;Node37 -->
<g id="edge36" class="edge"><title>Node1&#45;&gt;Node37</title>
<path fill="none" stroke="midnightblue" d="M2101.08,-65.3464C2218.29,-65.8459 2576.88,-63.4391 2870,-20 2872.88,-19.5736 2875.86,-19.0279 2878.82,-18.4165"/>
<polygon fill="midnightblue" stroke="midnightblue" points="2100.84,-61.8451 2090.82,-65.2922 2100.8,-68.845 2100.84,-61.8451"/>
</g>
<!-- Node38 -->
<g id="node38" class="node"><title>Node38</title>
<g id="a_node38"><a xlink:href="ortho__Rs_8cc.html" target="_top" xlink:title="Enter brief description of file here.">
<polygon fill="none" stroke="black" points="2953,-0.5 2953,-19.5 3023,-19.5 3023,-0.5 2953,-0.5"/>
<text text-anchor="middle" x="2988" y="-7.5" font-family="Helvetica,sans-Serif" font-size="10.00">ortho_Rs.cc</text>
</a>
</g>
</g>
<!-- Node1&#45;&gt;Node38 -->
<g id="edge37" class="edge"><title>Node1&#45;&gt;Node38</title>
<path fill="none" stroke="midnightblue" d="M2100.8,-65.1016C2224.43,-64.9811 2619.96,-61.1679 2944,-20 2946.78,-19.6462 2949.66,-19.214 2952.54,-18.7323"/>
<polygon fill="midnightblue" stroke="midnightblue" points="2100.69,-61.6015 2090.69,-65.1035 2100.69,-68.6015 2100.69,-61.6015"/>
</g>
<!-- Node39 -->
<g id="node39" class="node"><title>Node39</title>
<g id="a_node39"><a xlink:href="bin_2cclambda_2overlap_8cc.html" target="_top" xlink:title="Enter brief description of file here.">
<polygon fill="none" stroke="black" points="3041,-0.5 3041,-19.5 3103,-19.5 3103,-0.5 3041,-0.5"/>
<text text-anchor="middle" x="3072" y="-7.5" font-family="Helvetica,sans-Serif" font-size="10.00">overlap.cc</text>
</a>
</g>
</g>
<!-- Node1&#45;&gt;Node39 -->
<g id="edge38" class="edge"><title>Node1&#45;&gt;Node39</title>
<path fill="none" stroke="midnightblue" d="M2100.72,-64.1091C2257.72,-60.3569 2847.24,-44.8763 3032,-20 3034.82,-19.6201 3037.74,-19.1391 3040.65,-18.5981"/>
<polygon fill="midnightblue" stroke="midnightblue" points="2100.51,-60.613 2090.6,-64.3491 2100.68,-67.6111 2100.51,-60.613"/>
</g>
<!-- Node40 -->
<g id="node40" class="node"><title>Node40</title>
<g id="a_node40"><a xlink:href="overlap__LAMPS_8cc.html" target="_top" xlink:title="Enter brief description of file here.">
<polygon fill="none" stroke="black" points="3121.5,-0.5 3121.5,-19.5 3222.5,-19.5 3222.5,-0.5 3121.5,-0.5"/>
<text text-anchor="middle" x="3172" y="-7.5" font-family="Helvetica,sans-Serif" font-size="10.00">overlap_LAMPS.cc</text>
</a>
</g>
</g>
<!-- Node1&#45;&gt;Node40 -->
<g id="edge39" class="edge"><title>Node1&#45;&gt;Node40</title>
<path fill="none" stroke="midnightblue" d="M2100.99,-64.8184C2239.21,-63.8583 2718.6,-57.8279 3112,-20 3115.04,-19.7076 3118.16,-19.366 3121.31,-18.99"/>
<polygon fill="midnightblue" stroke="midnightblue" points="2100.87,-61.3191 2090.89,-64.8836 2100.91,-68.3189 2100.87,-61.3191"/>
</g>
<!-- Node41 -->
<g id="node41" class="node"><title>Node41</title>
<g id="a_node41"><a xlink:href="projections_8cc.html" target="_top" xlink:title="Enter brief description of file here.">
<polygon fill="none" stroke="black" points="3240.5,-0.5 3240.5,-19.5 3317.5,-19.5 3317.5,-0.5 3240.5,-0.5"/>
<text text-anchor="middle" x="3279" y="-7.5" font-family="Helvetica,sans-Serif" font-size="10.00">projections.cc</text>
</a>
</g>
</g>
<!-- Node1&#45;&gt;Node41 -->
<g id="edge40" class="edge"><title>Node1&#45;&gt;Node41</title>
<path fill="none" stroke="midnightblue" d="M2100.65,-64.2763C2276.78,-60.8612 3004.53,-45.451 3231,-20 3234.03,-19.6591 3237.16,-19.2361 3240.3,-18.7609"/>
<polygon fill="midnightblue" stroke="midnightblue" points="2100.49,-60.7787 2090.56,-64.4706 2100.62,-67.7774 2100.49,-60.7787"/>
</g>
<!-- Node42 -->
<g id="node42" class="node"><title>Node42</title>
<g id="a_node42"><a xlink:href="pseudoenergy_8cc.html" target="_top" xlink:title="Enter brief description of file here.">
<polygon fill="none" stroke="black" points="3335.5,-0.5 3335.5,-19.5 3426.5,-19.5 3426.5,-0.5 3335.5,-0.5"/>
<text text-anchor="middle" x="3381" y="-7.5" font-family="Helvetica,sans-Serif" font-size="10.00">pseudoenergy.cc</text>
</a>
</g>
</g>
<!-- Node1&#45;&gt;Node42 -->
<g id="edge41" class="edge"><title>Node1&#45;&gt;Node42</title>
<path fill="none" stroke="midnightblue" d="M2100.98,-65.4066C2256.15,-66.6459 2844.81,-67.7421 3326,-20 3329.08,-19.6943 3332.25,-19.3244 3335.44,-18.9111"/>
<polygon fill="midnightblue" stroke="midnightblue" points="2100.6,-61.9032 2090.57,-65.3178 2100.54,-68.903 2100.6,-61.9032"/>
</g>
<!-- Node43 -->
<g id="node43" class="node"><title>Node43</title>
<g id="a_node43"><a xlink:href="cclambda_2sort__amps_8cc.html" target="_top" xlink:title="Enter brief description of file here.">
<polygon fill="none" stroke="black" points="3445,-0.5 3445,-19.5 3521,-19.5 3521,-0.5 3445,-0.5"/>
<text text-anchor="middle" x="3483" y="-7.5" font-family="Helvetica,sans-Serif" font-size="10.00">sort_amps.cc</text>
</a>
</g>
</g>
<!-- Node1&#45;&gt;Node43 -->
<g id="edge42" class="edge"><title>Node1&#45;&gt;Node43</title>
<path fill="none" stroke="midnightblue" d="M2100.64,-64.531C2294.87,-62.0515 3165.98,-49.4555 3435,-20 3438.2,-19.6493 3441.51,-19.2045 3444.83,-18.7011"/>
<polygon fill="midnightblue" stroke="midnightblue" points="2100.57,-61.0315 2090.61,-64.6576 2100.65,-68.031 2100.57,-61.0315"/>
</g>
<!-- Node44 -->
<g id="node44" class="node"><title>Node44</title>
<g id="a_node44"><a xlink:href="cclambda_2spinad__amps_8cc.html" target="_top" xlink:title="Enter brief description of file here.">
<polygon fill="none" stroke="black" points="3539,-0.5 3539,-19.5 3627,-19.5 3627,-0.5 3539,-0.5"/>
<text text-anchor="middle" x="3583" y="-7.5" font-family="Helvetica,sans-Serif" font-size="10.00">spinad_amps.cc</text>
</a>
</g>
</g>
<!-- Node1&#45;&gt;Node44 -->
<g id="edge43" class="edge"><title>Node1&#45;&gt;Node44</title>
<path fill="none" stroke="midnightblue" d="M2100.67,-64.5357C2302.93,-61.9972 3240.86,-48.8434 3530,-20 3532.88,-19.7128 3535.84,-19.3632 3538.82,-18.9705"/>
<polygon fill="midnightblue" stroke="midnightblue" points="2100.48,-61.0376 2090.53,-64.6618 2100.57,-68.0371 2100.48,-61.0376"/>
</g>
<!-- Node45 -->
<g id="node45" class="node"><title>Node45</title>
<g id="a_node45"><a xlink:href="cclambda_2update_8cc.html" target="_top" xlink:title="Enter brief description of file here.">
<polygon fill="none" stroke="black" points="3645.5,-0.5 3645.5,-19.5 3704.5,-19.5 3704.5,-0.5 3645.5,-0.5"/>
<text text-anchor="middle" x="3675" y="-7.5" font-family="Helvetica,sans-Serif" font-size="10.00">update.cc</text>
</a>
</g>
</g>
<!-- Node1&#45;&gt;Node45 -->
<g id="edge44" class="edge"><title>Node1&#45;&gt;Node45</title>
<path fill="none" stroke="midnightblue" d="M2100.79,-64.9333C2312.03,-64.4119 3325.69,-59.8406 3636,-20 3639.03,-19.6107 3642.17,-19.0893 3645.3,-18.4927"/>
<polygon fill="midnightblue" stroke="midnightblue" points="2100.77,-61.4332 2090.78,-64.9564 2100.79,-68.4332 2100.77,-61.4332"/>
</g>
<!-- Node46 -->
<g id="node46" class="node"><title>Node46</title>
<g id="a_node46"><a xlink:href="WabeiL1_8cc.html" target="_top" xlink:title="Enter brief description of file here.">
<polygon fill="none" stroke="black" points="3723,-0.5 3723,-19.5 3791,-19.5 3791,-0.5 3723,-0.5"/>
<text text-anchor="middle" x="3757" y="-7.5" font-family="Helvetica,sans-Serif" font-size="10.00">WabeiL1.cc</text>
</a>
</g>
</g>
<!-- Node1&#45;&gt;Node46 -->
<g id="edge45" class="edge"><title>Node1&#45;&gt;Node46</title>
<path fill="none" stroke="midnightblue" d="M2100.9,-64.8618C2318.44,-63.9489 3386.12,-57.594 3713,-20 3716.25,-19.6258 3719.62,-19.1322 3722.98,-18.5684"/>
<polygon fill="midnightblue" stroke="midnightblue" points="2100.6,-61.3628 2090.62,-64.9035 2100.63,-68.3628 2100.6,-61.3628"/>
</g>
<!-- Node47 -->
<g id="node47" class="node"><title>Node47</title>
<g id="a_node47"><a xlink:href="WefabL2_8cc.html" target="_top" xlink:title="Enter brief description of file here.">
<polygon fill="none" stroke="black" points="3809.5,-0.5 3809.5,-19.5 3878.5,-19.5 3878.5,-0.5 3809.5,-0.5"/>
<text text-anchor="middle" x="3844" y="-7.5" font-family="Helvetica,sans-Serif" font-size="10.00">WefabL2.cc</text>
</a>
</g>
</g>
<!-- Node1&#45;&gt;Node47 -->
<g id="edge46" class="edge"><title>Node1&#45;&gt;Node47</title>
<path fill="none" stroke="midnightblue" d="M2100.8,-64.9235C2324.8,-64.3414 3454.79,-59.4639 3800,-20 3802.94,-19.6635 3805.98,-19.2286 3809.02,-18.7319"/>
<polygon fill="midnightblue" stroke="midnightblue" points="2100.52,-61.4241 2090.53,-64.9488 2100.54,-68.4241 2100.52,-61.4241"/>
</g>
<!-- Node48 -->
<g id="node48" class="node"><title>Node48</title>
<g id="a_node48"><a xlink:href="WejabL2_8cc.html" target="_top" xlink:title="Enter brief description of file here.">
<polygon fill="none" stroke="black" points="3897,-0.5 3897,-19.5 3965,-19.5 3965,-0.5 3897,-0.5"/>
<text text-anchor="middle" x="3931" y="-7.5" font-family="Helvetica,sans-Serif" font-size="10.00">WejabL2.cc</text>
</a>
</g>
</g>
<!-- Node1&#45;&gt;Node48 -->
<g id="edge47" class="edge"><title>Node1&#45;&gt;Node48</title>
<path fill="none" stroke="midnightblue" d="M2100.9,-64.9789C2331.7,-64.7119 3523.54,-61.3231 3887,-20 3890.25,-19.6301 3893.62,-19.1393 3896.99,-18.5772"/>
<polygon fill="midnightblue" stroke="midnightblue" points="2100.64,-61.4791 2090.64,-64.9894 2100.65,-68.4791 2100.64,-61.4791"/>
</g>
<!-- Node49 -->
<g id="node49" class="node"><title>Node49</title>
<g id="a_node49"><a xlink:href="WijmbL2_8cc.html" target="_top" xlink:title="Enter brief description of file here.">
<polygon fill="none" stroke="black" points="3983,-0.5 3983,-19.5 4051,-19.5 4051,-0.5 3983,-0.5"/>
<text text-anchor="middle" x="4017" y="-7.5" font-family="Helvetica,sans-Serif" font-size="10.00">WijmbL2.cc</text>
</a>
</g>
</g>
<!-- Node1&#45;&gt;Node49 -->
<g id="edge48" class="edge"><title>Node1&#45;&gt;Node49</title>
<path fill="none" stroke="midnightblue" d="M2100.87,-65.0536C2338,-65.2342 3592.3,-64.0623 3974,-20 3976.88,-19.6676 3979.85,-19.2356 3982.82,-18.7409"/>
<polygon fill="midnightblue" stroke="midnightblue" points="2100.67,-61.5535 2090.66,-65.0444 2100.66,-68.5535 2100.67,-61.5535"/>
</g>
<!-- Node50 -->
<g id="node50" class="node"><title>Node50</title>
<g id="a_node50"><a xlink:href="WijmnL2_8cc.html" target="_top" xlink:title="Enter brief description of file here.">
<polygon fill="none" stroke="black" points="4069,-0.5 4069,-19.5 4137,-19.5 4137,-0.5 4069,-0.5"/>
<text text-anchor="middle" x="4103" y="-7.5" font-family="Helvetica,sans-Serif" font-size="10.00">WijmnL2.cc</text>
</a>
</g>
</g>
<!-- Node1&#45;&gt;Node50 -->
<g id="edge49" class="edge"><title>Node1&#45;&gt;Node50</title>
<path fill="none" stroke="midnightblue" d="M2100.69,-65.0989C2343.52,-65.5738 3660.07,-65.9615 4060,-20 4062.88,-19.6691 4065.85,-19.2381 4068.82,-18.7441"/>
<polygon fill="midnightblue" stroke="midnightblue" points="2100.58,-61.5988 2090.58,-65.0779 2100.57,-68.5988 2100.58,-61.5988"/>
</g>
</g>
</svg>
