<?xml version="1.0" encoding="UTF-8" standalone="no"?>
<!DOCTYPE svg PUBLIC "-//W3C//DTD SVG 1.1//EN"
 "http://www.w3.org/Graphics/SVG/1.1/DTD/svg11.dtd">
<!-- Generated by graphviz version 2.30.1 (20140110.0959)
 -->
<!-- Title: globals.h Pages: 1 -->
<svg width="4145pt" height="84pt"
 viewBox="0.00 0.00 4145.00 84.00" xmlns="http://www.w3.org/2000/svg" xmlns:xlink="http://www.w3.org/1999/xlink">
<g id="graph0" class="graph" transform="scale(1 1) rotate(0) translate(4 80)">
<title>globals.h</title>
<!-- Node1 -->
<g id="node1" class="node"><title>Node1</title>
<polygon fill="#bfbfbf" stroke="black" points="2034,-56.5 2034,-75.5 2090,-75.5 2090,-56.5 2034,-56.5"/>
<text text-anchor="middle" x="2062" y="-63.5" font-family="Helvetica,sans-Serif" font-size="10.00">globals.h</text>
</g>
<!-- Node2 -->
<g id="node2" class="node"><title>Node2</title>
<g id="a_node2"><a xlink:href="BL2__AO_8cc.html" target="_top" xlink:title="Enter brief description of file here.">
<polygon fill="none" stroke="black" points="-0.5,-0.5 -0.5,-19.5 66.5,-19.5 66.5,-0.5 -0.5,-0.5"/>
<text text-anchor="middle" x="33" y="-7.5" font-family="Helvetica,sans-Serif" font-size="10.00">BL2_AO.cc</text>
</a>
</g>
</g>
<!-- Node1&#45;&gt;Node2 -->
<g id="edge1" class="edge"><title>Node1&#45;&gt;Node2</title>
<path fill="none" stroke="midnightblue" d="M2023.93,-65.0917C1783.56,-65.527 473.739,-65.7369 76,-20 72.9692,-19.6515 69.8356,-19.1921 66.7055,-18.6651"/>
<polygon fill="midnightblue" stroke="midnightblue" points="2023.94,-68.5918 2033.93,-65.0723 2023.93,-61.5918 2023.94,-68.5918"/>
</g>
<!-- Node3 -->
<g id="node3" class="node"><title>Node3</title>
<g id="a_node3"><a xlink:href="cclambda_2c__clean_8cc.html" target="_top" xlink:title="Enter brief description of file here.">
<polygon fill="none" stroke="black" points="85,-0.5 85,-19.5 149,-19.5 149,-0.5 85,-0.5"/>
<text text-anchor="middle" x="117" y="-7.5" font-family="Helvetica,sans-Serif" font-size="10.00">c_clean.cc</text>
</a>
</g>
</g>
<!-- Node1&#45;&gt;Node3 -->
<g id="edge2" class="edge"><title>Node1&#45;&gt;Node3</title>
<path fill="none" stroke="midnightblue" d="M2023.66,-65.0995C1788.44,-65.558 538.087,-65.7757 158,-20 155.106,-19.6514 152.115,-19.1921 149.129,-18.6651"/>
<polygon fill="midnightblue" stroke="midnightblue" points="2023.79,-68.5993 2033.78,-65.0783 2023.78,-61.5993 2023.79,-68.5993"/>
</g>
<!-- Node4 -->
<g id="node4" class="node"><title>Node4</title>
<g id="a_node4"><a xlink:href="cc2__faeL2_8cc.html" target="_top" xlink:title="Enter brief description of file here.">
<polygon fill="none" stroke="black" points="167.5,-0.5 167.5,-19.5 242.5,-19.5 242.5,-0.5 167.5,-0.5"/>
<text text-anchor="middle" x="205" y="-7.5" font-family="Helvetica,sans-Serif" font-size="10.00">cc2_faeL2.cc</text>
</a>
</g>
</g>
<!-- Node1&#45;&gt;Node4 -->
<g id="edge3" class="edge"><title>Node1&#45;&gt;Node4</title>
<path fill="none" stroke="midnightblue" d="M2023.77,-64.9269C1795.67,-64.3584 612.034,-59.5193 251,-20 248.25,-19.6989 245.418,-19.3191 242.576,-18.8867"/>
<polygon fill="midnightblue" stroke="midnightblue" points="2023.89,-68.4271 2033.9,-64.9509 2023.91,-61.4271 2023.89,-68.4271"/>
</g>
<!-- Node5 -->
<g id="node5" class="node"><title>Node5</title>
<g id="a_node5"><a xlink:href="cc2__fmiL2_8cc.html" target="_top" xlink:title="Enter brief description of file here.">
<polygon fill="none" stroke="black" points="260.5,-0.5 260.5,-19.5 335.5,-19.5 335.5,-0.5 260.5,-0.5"/>
<text text-anchor="middle" x="298" y="-7.5" font-family="Helvetica,sans-Serif" font-size="10.00">cc2_fmiL2.cc</text>
</a>
</g>
</g>
<!-- Node1&#45;&gt;Node5 -->
<g id="edge4" class="edge"><title>Node1&#45;&gt;Node5</title>
<path fill="none" stroke="midnightblue" d="M2023.68,-64.8455C1802.42,-63.8249 686.275,-56.8983 345,-20 341.944,-19.6696 338.789,-19.2467 335.629,-18.7649"/>
<polygon fill="midnightblue" stroke="midnightblue" points="2023.81,-68.346 2033.82,-64.891 2023.84,-61.3461 2023.81,-68.346"/>
</g>
<!-- Node6 -->
<g id="node6" class="node"><title>Node6</title>
<g id="a_node6"><a xlink:href="cc2__Gai_8cc.html" target="_top" xlink:title="Enter brief description of file here.">
<polygon fill="none" stroke="black" points="354,-0.5 354,-19.5 420,-19.5 420,-0.5 354,-0.5"/>
<text text-anchor="middle" x="387" y="-7.5" font-family="Helvetica,sans-Serif" font-size="10.00">cc2_Gai.cc</text>
</a>
</g>
</g>
<!-- Node1&#45;&gt;Node6 -->
<g id="edge5" class="edge"><title>Node1&#45;&gt;Node6</title>
<path fill="none" stroke="midnightblue" d="M2023.86,-64.8998C1809.45,-64.1922 752.308,-58.7617 429,-20 426.186,-19.6627 423.283,-19.2272 420.378,-18.7301"/>
<polygon fill="midnightblue" stroke="midnightblue" points="2023.98,-68.4001 2033.99,-64.9317 2024,-61.4001 2023.98,-68.4001"/>
</g>
<!-- Node7 -->
<g id="node7" class="node"><title>Node7</title>
<g id="a_node7"><a xlink:href="cclambda_2cc2__hbar__extra_8cc.html" target="_top" xlink:title="Enter brief description of file here.">
<polygon fill="none" stroke="black" points="438.5,-0.5 438.5,-19.5 535.5,-19.5 535.5,-0.5 438.5,-0.5"/>
<text text-anchor="middle" x="487" y="-7.5" font-family="Helvetica,sans-Serif" font-size="10.00">cc2_hbar_extra.cc</text>
</a>
</g>
</g>
<!-- Node1&#45;&gt;Node7 -->
<g id="edge6" class="edge"><title>Node1&#45;&gt;Node7</title>
<path fill="none" stroke="midnightblue" d="M2023.72,-64.5103C1818.3,-61.7845 844.81,-47.6001 545,-20 541.956,-19.7198 538.829,-19.3816 535.68,-19.003"/>
<polygon fill="midnightblue" stroke="midnightblue" points="2023.95,-68.0136 2034,-64.6457 2024.05,-61.0143 2023.95,-68.0136"/>
</g>
<!-- Node8 -->
<g id="node8" class="node"><title>Node8</title>
<g id="a_node8"><a xlink:href="cc2__L1_8cc.html" target="_top" xlink:title="Enter brief description of file here.">
<polygon fill="none" stroke="black" points="554,-0.5 554,-19.5 616,-19.5 616,-0.5 554,-0.5"/>
<text text-anchor="middle" x="585" y="-7.5" font-family="Helvetica,sans-Serif" font-size="10.00">cc2_L1.cc</text>
</a>
</g>
</g>
<!-- Node1&#45;&gt;Node8 -->
<g id="edge7" class="edge"><title>Node1&#45;&gt;Node8</title>
<path fill="none" stroke="midnightblue" d="M2023.5,-64.784C1824.06,-63.5145 906.89,-55.796 625,-20 622.175,-19.6413 619.257,-19.175 616.343,-18.6434"/>
<polygon fill="midnightblue" stroke="midnightblue" points="2023.75,-68.2855 2033.77,-64.8477 2023.79,-61.2856 2023.75,-68.2855"/>
</g>
<!-- Node9 -->
<g id="node9" class="node"><title>Node9</title>
<g id="a_node9"><a xlink:href="cc2__L2_8cc.html" target="_top" xlink:title="Enter brief description of file here.">
<polygon fill="none" stroke="black" points="634,-0.5 634,-19.5 696,-19.5 696,-0.5 634,-0.5"/>
<text text-anchor="middle" x="665" y="-7.5" font-family="Helvetica,sans-Serif" font-size="10.00">cc2_L2.cc</text>
</a>
</g>
</g>
<!-- Node1&#45;&gt;Node9 -->
<g id="edge8" class="edge"><title>Node1&#45;&gt;Node9</title>
<path fill="none" stroke="midnightblue" d="M2023.82,-64.7045C1831.78,-63.0702 970.332,-53.942 705,-20 702.176,-19.6387 699.258,-19.1706 696.344,-18.6379"/>
<polygon fill="midnightblue" stroke="midnightblue" points="2023.95,-68.2056 2033.98,-64.7892 2024.01,-61.2059 2023.95,-68.2056"/>
</g>
<!-- Node10 -->
<g id="node10" class="node"><title>Node10</title>
<g id="a_node10"><a xlink:href="cc3__l3l1_8cc.html" target="_top" xlink:title="Enter brief description of file here.">
<polygon fill="none" stroke="black" points="714,-0.5 714,-19.5 780,-19.5 780,-0.5 714,-0.5"/>
<text text-anchor="middle" x="747" y="-7.5" font-family="Helvetica,sans-Serif" font-size="10.00">cc3_l3l1.cc</text>
</a>
</g>
</g>
<!-- Node1&#45;&gt;Node10 -->
<g id="edge9" class="edge"><title>Node1&#45;&gt;Node10</title>
<path fill="none" stroke="midnightblue" d="M2023.84,-64.5559C1839.16,-62.2681 1036.99,-50.711 789,-20 786.188,-19.6517 783.285,-19.2085 780.381,-18.7063"/>
<polygon fill="midnightblue" stroke="midnightblue" points="2023.85,-68.0561 2033.89,-64.6787 2023.93,-61.0566 2023.85,-68.0561"/>
</g>
<!-- Node11 -->
<g id="node11" class="node"><title>Node11</title>
<g id="a_node11"><a xlink:href="cc3__l3l2_8cc.html" target="_top" xlink:title="Enter brief description of file here.">
<polygon fill="none" stroke="black" points="798,-0.5 798,-19.5 864,-19.5 864,-0.5 798,-0.5"/>
<text text-anchor="middle" x="831" y="-7.5" font-family="Helvetica,sans-Serif" font-size="10.00">cc3_l3l2.cc</text>
</a>
</g>
</g>
<!-- Node1&#45;&gt;Node11 -->
<g id="edge10" class="edge"><title>Node1&#45;&gt;Node11</title>
<path fill="none" stroke="midnightblue" d="M2023.84,-64.4459C1846.7,-61.7375 1103.5,-48.8371 873,-20 870.188,-19.6482 867.286,-19.2026 864.381,-18.6987"/>
<polygon fill="midnightblue" stroke="midnightblue" points="2023.92,-67.9475 2033.98,-64.5992 2024.03,-60.9483 2023.92,-67.9475"/>
</g>
<!-- Node12 -->
<g id="node12" class="node"><title>Node12</title>
<g id="a_node12"><a xlink:href="cc3__t3x_8cc.html" target="_top" xlink:title="Enter brief description of file here.">
<polygon fill="none" stroke="black" points="882.5,-0.5 882.5,-19.5 947.5,-19.5 947.5,-0.5 882.5,-0.5"/>
<text text-anchor="middle" x="915" y="-7.5" font-family="Helvetica,sans-Serif" font-size="10.00">cc3_t3x.cc</text>
</a>
</g>
</g>
<!-- Node1&#45;&gt;Node12 -->
<g id="edge11" class="edge"><title>Node1&#45;&gt;Node12</title>
<path fill="none" stroke="midnightblue" d="M2023.81,-64.346C1854.32,-61.3051 1169.18,-47.5181 956,-20 953.254,-19.6455 950.419,-19.1979 947.583,-18.6927"/>
<polygon fill="midnightblue" stroke="midnightblue" points="2023.93,-67.8486 2033.99,-64.5268 2024.06,-60.8497 2023.93,-67.8486"/>
</g>
<!-- Node13 -->
<g id="node13" class="node"><title>Node13</title>
<g id="a_node13"><a xlink:href="cc3__t3z_8cc.html" target="_top" xlink:title="Enter brief description of file here.">
<polygon fill="none" stroke="black" points="965.5,-0.5 965.5,-19.5 1030.5,-19.5 1030.5,-0.5 965.5,-0.5"/>
<text text-anchor="middle" x="998" y="-7.5" font-family="Helvetica,sans-Serif" font-size="10.00">cc3_t3z.cc</text>
</a>
</g>
</g>
<!-- Node1&#45;&gt;Node13 -->
<g id="edge12" class="edge"><title>Node1&#45;&gt;Node13</title>
<path fill="none" stroke="midnightblue" d="M2023.37,-64.1637C1861.32,-60.5218 1235.67,-45.093 1040,-20 1037.04,-19.6206 1033.98,-19.14 1030.93,-18.5991"/>
<polygon fill="midnightblue" stroke="midnightblue" points="2023.72,-67.6723 2033.8,-64.3961 2023.88,-60.674 2023.72,-67.6723"/>
</g>
<!-- Node14 -->
<g id="node14" class="node"><title>Node14</title>
<g id="a_node14"><a xlink:href="cclambda_8cc.html" target="_top" xlink:title="Enter brief description of file here.">
<polygon fill="none" stroke="black" points="1049,-0.5 1049,-19.5 1121,-19.5 1121,-0.5 1049,-0.5"/>
<text text-anchor="middle" x="1085" y="-7.5" font-family="Helvetica,sans-Serif" font-size="10.00">cclambda.cc</text>
</a>
</g>
</g>
<!-- Node1&#45;&gt;Node14 -->
<g id="edge13" class="edge"><title>Node1&#45;&gt;Node14</title>
<path fill="none" stroke="midnightblue" d="M2023.6,-65.1919C1896.02,-65.394 1474.81,-62.5644 1130,-20 1127.15,-19.6486 1124.22,-19.2181 1121.27,-18.7376"/>
<polygon fill="midnightblue" stroke="midnightblue" points="2023.66,-68.6919 2033.66,-65.1685 2023.65,-61.6919 2023.66,-68.6919"/>
</g>
<!-- Node15 -->
<g id="node15" class="node"><title>Node15</title>
<g id="a_node15"><a xlink:href="check__ortho_8cc.html" target="_top" xlink:title="Enter brief description of file here.">
<polygon fill="none" stroke="black" points="1139.5,-0.5 1139.5,-19.5 1222.5,-19.5 1222.5,-0.5 1139.5,-0.5"/>
<text text-anchor="middle" x="1181" y="-7.5" font-family="Helvetica,sans-Serif" font-size="10.00">check_ortho.cc</text>
</a>
</g>
</g>
<!-- Node1&#45;&gt;Node15 -->
<g id="edge14" class="edge"><title>Node1&#45;&gt;Node15</title>
<path fill="none" stroke="midnightblue" d="M2023.61,-64.5616C1905.28,-62.8585 1535.77,-54.9092 1232,-20 1228.96,-19.651 1225.83,-19.2359 1222.69,-18.7785"/>
<polygon fill="midnightblue" stroke="midnightblue" points="2023.91,-68.0658 2033.95,-64.7035 2024,-61.0665 2023.91,-68.0658"/>
</g>
<!-- Node16 -->
<g id="node16" class="node"><title>Node16</title>
<g id="a_node16"><a xlink:href="cclambda_2check__sum_8cc.html" target="_top" xlink:title="Enter brief description of file here.">
<polygon fill="none" stroke="black" points="1241,-0.5 1241,-19.5 1321,-19.5 1321,-0.5 1241,-0.5"/>
<text text-anchor="middle" x="1281" y="-7.5" font-family="Helvetica,sans-Serif" font-size="10.00">check_sum.cc</text>
</a>
</g>
</g>
<!-- Node1&#45;&gt;Node16 -->
<g id="edge15" class="edge"><title>Node1&#45;&gt;Node16</title>
<path fill="none" stroke="midnightblue" d="M2023.81,-64.2699C1915,-61.8419 1594.19,-52.2646 1330,-20 1327.08,-19.6435 1324.07,-19.223 1321.05,-18.7617"/>
<polygon fill="midnightblue" stroke="midnightblue" points="2023.89,-67.7724 2033.97,-64.4892 2024.04,-60.774 2023.89,-67.7724"/>
</g>
<!-- Node17 -->
<g id="node17" class="node"><title>Node17</title>
<g id="a_node17"><a xlink:href="cclambda_2converged_8cc.html" target="_top" xlink:title="Enter brief description of file here.">
<polygon fill="none" stroke="black" points="1339.5,-0.5 1339.5,-19.5 1414.5,-19.5 1414.5,-0.5 1339.5,-0.5"/>
<text text-anchor="middle" x="1377" y="-7.5" font-family="Helvetica,sans-Serif" font-size="10.00">converged.cc</text>
</a>
</g>
</g>
<!-- Node1&#45;&gt;Node17 -->
<g id="edge16" class="edge"><title>Node1&#45;&gt;Node17</title>
<path fill="none" stroke="midnightblue" d="M2023.68,-63.9432C1924.18,-60.8444 1649.57,-50.027 1423,-20 1420.26,-19.6365 1417.43,-19.2108 1414.59,-18.7459"/>
<polygon fill="midnightblue" stroke="midnightblue" points="2023.75,-67.4468 2033.85,-64.2518 2023.96,-60.45 2023.75,-67.4468"/>
</g>
<!-- Node18 -->
<g id="node18" class="node"><title>Node18</title>
<g id="a_node18"><a xlink:href="cclambda_2denom_8cc.html" target="_top" xlink:title="Enter brief description of file here.">
<polygon fill="none" stroke="black" points="1432.5,-0.5 1432.5,-19.5 1491.5,-19.5 1491.5,-0.5 1432.5,-0.5"/>
<text text-anchor="middle" x="1462" y="-7.5" font-family="Helvetica,sans-Serif" font-size="10.00">denom.cc</text>
</a>
</g>
</g>
<!-- Node1&#45;&gt;Node18 -->
<g id="edge17" class="edge"><title>Node1&#45;&gt;Node18</title>
<path fill="none" stroke="midnightblue" d="M2023.61,-63.9445C1932.31,-60.9967 1695.31,-50.7645 1500,-20 1497.32,-19.578 1494.55,-19.0682 1491.79,-18.5083"/>
<polygon fill="midnightblue" stroke="midnightblue" points="2023.65,-67.4475 2033.75,-64.2613 2023.87,-60.4509 2023.65,-67.4475"/>
</g>
<!-- Node19 -->
<g id="node19" class="node"><title>Node19</title>
<g id="a_node19"><a xlink:href="bin_2cclambda_2diis_8cc.html" target="_top" xlink:title="Enter brief description of file here.">
<polygon fill="none" stroke="black" points="1509.5,-0.5 1509.5,-19.5 1554.5,-19.5 1554.5,-0.5 1509.5,-0.5"/>
<text text-anchor="middle" x="1532" y="-7.5" font-family="Helvetica,sans-Serif" font-size="10.00">diis.cc</text>
</a>
</g>
</g>
<!-- Node1&#45;&gt;Node19 -->
<g id="edge18" class="edge"><title>Node1&#45;&gt;Node19</title>
<path fill="none" stroke="midnightblue" d="M2023.78,-64.058C1939.76,-61.4415 1732.89,-52.0123 1563,-20 1560.25,-19.4811 1557.39,-18.8216 1554.57,-18.0962"/>
<polygon fill="midnightblue" stroke="midnightblue" points="2023.78,-67.5593 2033.88,-64.3575 2023.99,-60.5624 2023.78,-67.5593"/>
</g>
<!-- Node20 -->
<g id="node20" class="node"><title>Node20</title>
<g id="a_node20"><a xlink:href="dijabL2_8cc.html" target="_top" xlink:title="Enter brief description of file here.">
<polygon fill="none" stroke="black" points="1572.5,-0.5 1572.5,-19.5 1633.5,-19.5 1633.5,-0.5 1572.5,-0.5"/>
<text text-anchor="middle" x="1603" y="-7.5" font-family="Helvetica,sans-Serif" font-size="10.00">dijabL2.cc</text>
</a>
</g>
</g>
<!-- Node1&#45;&gt;Node20 -->
<g id="edge19" class="edge"><title>Node1&#45;&gt;Node20</title>
<path fill="none" stroke="midnightblue" d="M2023.68,-62.3584C1949.73,-56.9349 1782.31,-43.0754 1643,-20 1639.91,-19.4882 1636.7,-18.8864 1633.5,-18.2408"/>
<polygon fill="midnightblue" stroke="midnightblue" points="2023.67,-65.8669 2033.9,-63.0975 2024.18,-58.8852 2023.67,-65.8669"/>
</g>
<!-- Node21 -->
<g id="node21" class="node"><title>Node21</title>
<g id="a_node21"><a xlink:href="DL2_8cc.html" target="_top" xlink:title="Enter brief description of file here.">
<polygon fill="none" stroke="black" points="1652,-0.5 1652,-19.5 1700,-19.5 1700,-0.5 1652,-0.5"/>
<text text-anchor="middle" x="1676" y="-7.5" font-family="Helvetica,sans-Serif" font-size="10.00">DL2.cc</text>
</a>
</g>
</g>
<!-- Node1&#45;&gt;Node21 -->
<g id="edge20" class="edge"><title>Node1&#45;&gt;Node21</title>
<path fill="none" stroke="midnightblue" d="M2023.67,-61.8791C1958.56,-56.1841 1822.36,-42.5687 1709,-20 1706.09,-19.4202 1703.05,-18.7236 1700.06,-17.9779"/>
<polygon fill="midnightblue" stroke="midnightblue" points="2023.61,-65.3863 2033.87,-62.7567 2024.21,-58.4121 2023.61,-65.3863"/>
</g>
<!-- Node22 -->
<g id="node22" class="node"><title>Node22</title>
<g id="a_node22"><a xlink:href="FaeL2_8cc.html" target="_top" xlink:title="Enter brief description of file here.">
<polygon fill="none" stroke="black" points="1718.5,-0.5 1718.5,-19.5 1775.5,-19.5 1775.5,-0.5 1718.5,-0.5"/>
<text text-anchor="middle" x="1747" y="-7.5" font-family="Helvetica,sans-Serif" font-size="10.00">FaeL2.cc</text>
</a>
</g>
</g>
<!-- Node1&#45;&gt;Node22 -->
<g id="edge21" class="edge"><title>Node1&#45;&gt;Node22</title>
<path fill="none" stroke="midnightblue" d="M2023.75,-59.7736C1969.99,-52.2099 1869.14,-37.2176 1784,-20 1781.28,-19.4496 1778.45,-18.8376 1775.63,-18.1989"/>
<polygon fill="midnightblue" stroke="midnightblue" points="2023.46,-63.268 2033.85,-61.1858 2024.43,-56.3353 2023.46,-63.268"/>
</g>
<!-- Node23 -->
<g id="node23" class="node"><title>Node23</title>
<g id="a_node23"><a xlink:href="FmiL2_8cc.html" target="_top" xlink:title="Enter brief description of file here.">
<polygon fill="none" stroke="black" points="1793.5,-0.5 1793.5,-19.5 1850.5,-19.5 1850.5,-0.5 1793.5,-0.5"/>
<text text-anchor="middle" x="1822" y="-7.5" font-family="Helvetica,sans-Serif" font-size="10.00">FmiL2.cc</text>
</a>
</g>
</g>
<!-- Node1&#45;&gt;Node23 -->
<g id="edge22" class="edge"><title>Node1&#45;&gt;Node23</title>
<path fill="none" stroke="midnightblue" d="M2023.86,-56.6629C1983.22,-47.7419 1917.02,-33.1021 1860,-20 1856.96,-19.3015 1853.79,-18.5635 1850.62,-17.8227"/>
<polygon fill="midnightblue" stroke="midnightblue" points="2023.35,-60.1344 2033.87,-58.8578 2024.85,-53.2969 2023.35,-60.1344"/>
</g>
<!-- Node24 -->
<g id="node24" class="node"><title>Node24</title>
<g id="a_node24"><a xlink:href="cclambda_2G_8cc.html" target="_top" xlink:title="Enter brief description of file here.">
<polygon fill="none" stroke="black" points="1869,-0.5 1869,-19.5 1907,-19.5 1907,-0.5 1869,-0.5"/>
<text text-anchor="middle" x="1888" y="-7.5" font-family="Helvetica,sans-Serif" font-size="10.00">G.cc</text>
</a>
</g>
</g>
<!-- Node1&#45;&gt;Node24 -->
<g id="edge23" class="edge"><title>Node1&#45;&gt;Node24</title>
<path fill="none" stroke="midnightblue" d="M2024.1,-53.4537C1994.6,-44.4364 1952.66,-31.5419 1916,-20 1913.18,-19.1107 1910.19,-18.1624 1907.27,-17.2275"/>
<polygon fill="midnightblue" stroke="midnightblue" points="2023.39,-56.8988 2033.98,-56.4729 2025.44,-50.2041 2023.39,-56.8988"/>
</g>
<!-- Node25 -->
<g id="node25" class="node"><title>Node25</title>
<g id="a_node25"><a xlink:href="cclambda_2get__moinfo_8cc.html" target="_top" xlink:title="Enter brief description of file here.">
<polygon fill="none" stroke="black" points="1925,-0.5 1925,-19.5 2003,-19.5 2003,-0.5 1925,-0.5"/>
<text text-anchor="middle" x="1964" y="-7.5" font-family="Helvetica,sans-Serif" font-size="10.00">get_moinfo.cc</text>
</a>
</g>
</g>
<!-- Node1&#45;&gt;Node25 -->
<g id="edge24" class="edge"><title>Node1&#45;&gt;Node25</title>
<path fill="none" stroke="midnightblue" d="M2037.41,-51.4526C2019.32,-41.4835 1995.27,-28.2279 1979.71,-19.6545"/>
<polygon fill="midnightblue" stroke="midnightblue" points="2035.81,-54.5633 2046.25,-56.324 2039.19,-48.4324 2035.81,-54.5633"/>
</g>
<!-- Node26 -->
<g id="node26" class="node"><title>Node26</title>
<g id="a_node26"><a xlink:href="bin_2cclambda_2get__params_8cc.html" target="_top" xlink:title="Enter brief description of file here.">
<polygon fill="none" stroke="black" points="2021.5,-0.5 2021.5,-19.5 2102.5,-19.5 2102.5,-0.5 2021.5,-0.5"/>
<text text-anchor="middle" x="2062" y="-7.5" font-family="Helvetica,sans-Serif" font-size="10.00">get_params.cc</text>
</a>
</g>
</g>
<!-- Node1&#45;&gt;Node26 -->
<g id="edge25" class="edge"><title>Node1&#45;&gt;Node26</title>
<path fill="none" stroke="midnightblue" d="M2062,-45.8045C2062,-36.9102 2062,-26.7798 2062,-19.7511"/>
<polygon fill="midnightblue" stroke="midnightblue" points="2058.5,-46.083 2062,-56.083 2065.5,-46.083 2058.5,-46.083"/>
</g>
<!-- Node27 -->
<g id="node27" class="node"><title>Node27</title>
<g id="a_node27"><a xlink:href="GL2_8cc.html" target="_top" xlink:title="Enter brief description of file here.">
<polygon fill="none" stroke="black" points="2121,-0.5 2121,-19.5 2169,-19.5 2169,-0.5 2121,-0.5"/>
<text text-anchor="middle" x="2145" y="-7.5" font-family="Helvetica,sans-Serif" font-size="10.00">GL2.cc</text>
</a>
</g>
</g>
<!-- Node1&#45;&gt;Node27 -->
<g id="edge26" class="edge"><title>Node1&#45;&gt;Node27</title>
<path fill="none" stroke="midnightblue" d="M2084.1,-50.6221C2099.26,-40.7574 2118.88,-27.9919 2131.7,-19.6545"/>
<polygon fill="midnightblue" stroke="midnightblue" points="2081.81,-47.9367 2075.34,-56.324 2085.63,-53.8042 2081.81,-47.9367"/>
</g>
<!-- Node28 -->
<g id="node28" class="node"><title>Node28</title>
<g id="a_node28"><a xlink:href="cclambda_2hbar__extra_8cc.html" target="_top" xlink:title="Enter brief description of file here.">
<polygon fill="none" stroke="black" points="2187,-0.5 2187,-19.5 2263,-19.5 2263,-0.5 2187,-0.5"/>
<text text-anchor="middle" x="2225" y="-7.5" font-family="Helvetica,sans-Serif" font-size="10.00">hbar_extra.cc</text>
</a>
</g>
</g>
<!-- Node1&#45;&gt;Node28 -->
<g id="edge27" class="edge"><title>Node1&#45;&gt;Node28</title>
<path fill="none" stroke="midnightblue" d="M2097.7,-53.172C2128.4,-43.0039 2171.92,-28.5852 2199.29,-19.5164"/>
<polygon fill="midnightblue" stroke="midnightblue" points="2096.22,-49.9762 2087.83,-56.4435 2098.42,-56.6211 2096.22,-49.9762"/>
</g>
<!-- Node29 -->
<g id="node29" class="node"><title>Node29</title>
<g id="a_node29"><a xlink:href="cclambda_2init__amps_8cc.html" target="_top" xlink:title="Enter brief description of file here.">
<polygon fill="none" stroke="black" points="2281,-0.5 2281,-19.5 2353,-19.5 2353,-0.5 2281,-0.5"/>
<text text-anchor="middle" x="2317" y="-7.5" font-family="Helvetica,sans-Serif" font-size="10.00">init_amps.cc</text>
</a>
</g>
</g>
<!-- Node1&#45;&gt;Node29 -->
<g id="edge28" class="edge"><title>Node1&#45;&gt;Node29</title>
<path fill="none" stroke="midnightblue" d="M2100.12,-56.9268C2148.95,-46.5869 2232.96,-28.7959 2280.83,-18.6594"/>
<polygon fill="midnightblue" stroke="midnightblue" points="2099.32,-53.5189 2090.26,-59.0147 2100.77,-60.367 2099.32,-53.5189"/>
</g>
<!-- Node30 -->
<g id="node30" class="node"><title>Node30</title>
<g id="a_node30"><a xlink:href="L1_8cc.html" target="_top" xlink:title="Enter brief description of file here.">
<polygon fill="none" stroke="black" points="2371.5,-0.5 2371.5,-19.5 2412.5,-19.5 2412.5,-0.5 2371.5,-0.5"/>
<text text-anchor="middle" x="2392" y="-7.5" font-family="Helvetica,sans-Serif" font-size="10.00">L1.cc</text>
</a>
</g>
</g>
<!-- Node1&#45;&gt;Node30 -->
<g id="edge29" class="edge"><title>Node1&#45;&gt;Node30</title>
<path fill="none" stroke="midnightblue" d="M2100.44,-61.0104C2157.83,-54.6555 2269.1,-40.7902 2362,-20 2365.08,-19.3112 2368.3,-18.4725 2371.45,-17.5873"/>
<polygon fill="midnightblue" stroke="midnightblue" points="2099.93,-57.5452 2090.37,-62.1095 2100.69,-64.5039 2099.93,-57.5452"/>
</g>
<!-- Node31 -->
<g id="node31" class="node"><title>Node31</title>
<g id="a_node31"><a xlink:href="L1FL2_8cc.html" target="_top" xlink:title="Enter brief description of file here.">
<polygon fill="none" stroke="black" points="2430.5,-0.5 2430.5,-19.5 2487.5,-19.5 2487.5,-0.5 2430.5,-0.5"/>
<text text-anchor="middle" x="2459" y="-7.5" font-family="Helvetica,sans-Serif" font-size="10.00">L1FL2.cc</text>
</a>
</g>
</g>
<!-- Node1&#45;&gt;Node31 -->
<g id="edge30" class="edge"><title>Node1&#45;&gt;Node31</title>
<path fill="none" stroke="midnightblue" d="M2100.4,-61.5592C2166.3,-55.3478 2305.06,-40.9329 2421,-20 2424.07,-19.4459 2427.26,-18.8003 2430.44,-18.114"/>
<polygon fill="midnightblue" stroke="midnightblue" points="2099.72,-58.1074 2090.09,-62.52 2100.37,-65.0772 2099.72,-58.1074"/>
</g>
<!-- Node32 -->
<g id="node32" class="node"><title>Node32</title>
<g id="a_node32"><a xlink:href="L2_8cc.html" target="_top" xlink:title="Enter brief description of file here.">
<polygon fill="none" stroke="black" points="2505.5,-0.5 2505.5,-19.5 2546.5,-19.5 2546.5,-0.5 2505.5,-0.5"/>
<text text-anchor="middle" x="2526" y="-7.5" font-family="Helvetica,sans-Serif" font-size="10.00">L2.cc</text>
</a>
</g>
</g>
<!-- Node1&#45;&gt;Node32 -->
<g id="edge31" class="edge"><title>Node1&#45;&gt;Node32</title>
<path fill="none" stroke="midnightblue" d="M2100.26,-63.4513C2176.32,-59.8425 2351.63,-48.8727 2496,-20 2499.09,-19.3815 2502.32,-18.5813 2505.47,-17.7134"/>
<polygon fill="midnightblue" stroke="midnightblue" points="2100.03,-59.9581 2090.2,-63.9128 2100.35,-66.9508 2100.03,-59.9581"/>
</g>
<!-- Node33 -->
<g id="node33" class="node"><title>Node33</title>
<g id="a_node33"><a xlink:href="Lamp__write_8cc.html" target="_top" xlink:title="Enter brief description of file here.">
<polygon fill="none" stroke="black" points="2565,-0.5 2565,-19.5 2645,-19.5 2645,-0.5 2565,-0.5"/>
<text text-anchor="middle" x="2605" y="-7.5" font-family="Helvetica,sans-Serif" font-size="10.00">Lamp_write.cc</text>
</a>
</g>
</g>
<!-- Node1&#45;&gt;Node33 -->
<g id="edge32" class="edge"><title>Node1&#45;&gt;Node33</title>
<path fill="none" stroke="midnightblue" d="M2100.4,-62.6381C2183.53,-57.2737 2386.31,-42.8372 2555,-20 2558.23,-19.5622 2561.58,-19.0629 2564.93,-18.5292"/>
<polygon fill="midnightblue" stroke="midnightblue" points="2099.92,-59.1611 2090.17,-63.2912 2100.37,-66.1469 2099.92,-59.1611"/>
</g>
<!-- Node34 -->
<g id="node34" class="node"><title>Node34</title>
<g id="a_node34"><a xlink:href="Lmag_8cc.html" target="_top" xlink:title="Enter brief description of file here.">
<polygon fill="none" stroke="black" points="2663,-0.5 2663,-19.5 2717,-19.5 2717,-0.5 2663,-0.5"/>
<text text-anchor="middle" x="2690" y="-7.5" font-family="Helvetica,sans-Serif" font-size="10.00">Lmag.cc</text>
</a>
</g>
</g>
<!-- Node1&#45;&gt;Node34 -->
<g id="edge33" class="edge"><title>Node1&#45;&gt;Node34</title>
<path fill="none" stroke="midnightblue" d="M2100.48,-64.3232C2195.21,-62.1704 2447.03,-53.4909 2654,-20 2656.93,-19.5266 2659.96,-18.9328 2662.98,-18.277"/>
<polygon fill="midnightblue" stroke="midnightblue" points="2100.16,-60.8291 2090.24,-64.544 2100.31,-67.8275 2100.16,-60.8291"/>
</g>
<!-- Node35 -->
<g id="node35" class="node"><title>Node35</title>
<g id="a_node35"><a xlink:href="Lnorm_8cc.html" target="_top" xlink:title="Enter brief description of file here.">
<polygon fill="none" stroke="black" points="2735.5,-0.5 2735.5,-19.5 2792.5,-19.5 2792.5,-0.5 2735.5,-0.5"/>
<text text-anchor="middle" x="2764" y="-7.5" font-family="Helvetica,sans-Serif" font-size="10.00">Lnorm.cc</text>
</a>
</g>
</g>
<!-- Node1&#45;&gt;Node35 -->
<g id="edge34" class="edge"><title>Node1&#45;&gt;Node35</title>
<path fill="none" stroke="midnightblue" d="M2100.14,-64.6096C2202.21,-63.0921 2489.88,-55.7137 2726,-20 2729.08,-19.5336 2732.29,-18.9442 2735.46,-18.2911"/>
<polygon fill="midnightblue" stroke="midnightblue" points="2099.96,-61.1116 2090.01,-64.7496 2100.06,-68.1109 2099.96,-61.1116"/>
</g>
<!-- Node36 -->
<g id="node36" class="node"><title>Node36</title>
<g id="a_node36"><a xlink:href="bin_2cclambda_2local_8cc.html" target="_top" xlink:title="Enter brief description of file here.">
<polygon fill="none" stroke="black" points="2811,-0.5 2811,-19.5 2861,-19.5 2861,-0.5 2811,-0.5"/>
<text text-anchor="middle" x="2836" y="-7.5" font-family="Helvetica,sans-Serif" font-size="10.00">local.cc</text>
</a>
</g>
</g>
<!-- Node1&#45;&gt;Node36 -->
<g id="edge35" class="edge"><title>Node1&#45;&gt;Node36</title>
<path fill="none" stroke="midnightblue" d="M2100.3,-65.2335C2210.13,-65.3533 2535.28,-61.8618 2801,-20 2804.22,-19.4923 2807.58,-18.8195 2810.89,-18.0696"/>
<polygon fill="midnightblue" stroke="midnightblue" points="2100.07,-61.733 2090.06,-65.2108 2100.05,-68.733 2100.07,-61.733"/>
</g>
<!-- Node37 -->
<g id="node37" class="node"><title>Node37</title>
<g id="a_node37"><a xlink:href="Lsave_8cc.html" target="_top" xlink:title="Enter brief description of file here.">
<polygon fill="none" stroke="black" points="2879,-0.5 2879,-19.5 2935,-19.5 2935,-0.5 2879,-0.5"/>
<text text-anchor="middle" x="2907" y="-7.5" font-family="Helvetica,sans-Serif" font-size="10.00">Lsave.cc</text>
</a>
</g>
</g>
<!-- Node1&#45;&gt;Node37 -->
<g id="edge36" class="edge"><title>Node1&#45;&gt;Node37</title>
<path fill="none" stroke="midnightblue" d="M2100.28,-65.3429C2216.64,-65.8568 2576.2,-63.539 2870,-20 2872.88,-19.5736 2875.86,-19.0279 2878.82,-18.4165"/>
<polygon fill="midnightblue" stroke="midnightblue" points="2100.12,-61.8421 2090.1,-65.2876 2100.08,-68.8419 2100.12,-61.8421"/>
</g>
<!-- Node38 -->
<g id="node38" class="node"><title>Node38</title>
<g id="a_node38"><a xlink:href="ortho__Rs_8cc.html" target="_top" xlink:title="Enter brief description of file here.">
<polygon fill="none" stroke="black" points="2953,-0.5 2953,-19.5 3023,-19.5 3023,-0.5 2953,-0.5"/>
<text text-anchor="middle" x="2988" y="-7.5" font-family="Helvetica,sans-Serif" font-size="10.00">ortho_Rs.cc</text>
</a>
</g>
</g>
<!-- Node1&#45;&gt;Node38 -->
<g id="edge37" class="edge"><title>Node1&#45;&gt;Node38</title>
<path fill="none" stroke="midnightblue" d="M2100.38,-65.102C2223.52,-64.9897 2619.59,-61.2148 2944,-20 2946.78,-19.6462 2949.66,-19.214 2952.54,-18.7323"/>
<polygon fill="midnightblue" stroke="midnightblue" points="2100.32,-61.6019 2090.32,-65.1033 2100.32,-68.6019 2100.32,-61.6019"/>
</g>
<!-- Node39 -->
<g id="node39" class="node"><title>Node39</title>
<g id="a_node39"><a xlink:href="bin_2cclambda_2overlap_8cc.html" target="_top" xlink:title="Enter brief description of file here.">
<polygon fill="none" stroke="black" points="3041,-0.5 3041,-19.5 3103,-19.5 3103,-0.5 3041,-0.5"/>
<text text-anchor="middle" x="3072" y="-7.5" font-family="Helvetica,sans-Serif" font-size="10.00">overlap.cc</text>
</a>
</g>
</g>
<!-- Node1&#45;&gt;Node39 -->
<g id="edge38" class="edge"><title>Node1&#45;&gt;Node39</title>
<path fill="none" stroke="midnightblue" d="M2100.21,-64.1215C2256.42,-60.3911 2847.04,-44.9038 3032,-20 3034.82,-19.6201 3037.74,-19.1391 3040.65,-18.5981"/>
<polygon fill="midnightblue" stroke="midnightblue" points="2100.05,-60.6241 2090.14,-64.3599 2100.22,-67.6221 2100.05,-60.6241"/>
</g>
<!-- Node40 -->
<g id="node40" class="node"><title>Node40</title>
<g id="a_node40"><a xlink:href="overlap__LAMPS_8cc.html" target="_top" xlink:title="Enter brief description of file here.">
<polygon fill="none" stroke="black" points="3121.5,-0.5 3121.5,-19.5 3222.5,-19.5 3222.5,-0.5 3121.5,-0.5"/>
<text text-anchor="middle" x="3172" y="-7.5" font-family="Helvetica,sans-Serif" font-size="10.00">overlap_LAMPS.cc</text>
</a>
</g>
</g>
<!-- Node1&#45;&gt;Node40 -->
<g id="edge39" class="edge"><title>Node1&#45;&gt;Node40</title>
<path fill="none" stroke="midnightblue" d="M2100.48,-64.822C2238.02,-63.8732 2718.11,-57.875 3112,-20 3115.04,-19.7076 3118.16,-19.366 3121.31,-18.99"/>
<polygon fill="midnightblue" stroke="midnightblue" points="2100.04,-61.3246 2090.06,-64.8885 2100.09,-68.3245 2100.04,-61.3246"/>
</g>
<!-- Node41 -->
<g id="node41" class="node"><title>Node41</title>
<g id="a_node41"><a xlink:href="projections_8cc.html" target="_top" xlink:title="Enter brief description of file here.">
<polygon fill="none" stroke="black" points="3240.5,-0.5 3240.5,-19.5 3317.5,-19.5 3317.5,-0.5 3240.5,-0.5"/>
<text text-anchor="middle" x="3279" y="-7.5" font-family="Helvetica,sans-Serif" font-size="10.00">projections.cc</text>
</a>
</g>
</g>
<!-- Node1&#45;&gt;Node41 -->
<g id="edge40" class="edge"><title>Node1&#45;&gt;Node41</title>
<path fill="none" stroke="midnightblue" d="M2100.08,-64.2874C2275.19,-60.8948 3004.28,-45.4788 3231,-20 3234.03,-19.6591 3237.16,-19.2361 3240.3,-18.7609"/>
<polygon fill="midnightblue" stroke="midnightblue" points="2099.98,-60.7886 2090.05,-64.4803 2100.11,-67.7873 2099.98,-60.7886"/>
</g>
<!-- Node42 -->
<g id="node42" class="node"><title>Node42</title>
<g id="a_node42"><a xlink:href="pseudoenergy_8cc.html" target="_top" xlink:title="Enter brief description of file here.">
<polygon fill="none" stroke="black" points="3335.5,-0.5 3335.5,-19.5 3426.5,-19.5 3426.5,-0.5 3335.5,-0.5"/>
<text text-anchor="middle" x="3381" y="-7.5" font-family="Helvetica,sans-Serif" font-size="10.00">pseudoenergy.cc</text>
</a>
</g>
</g>
<!-- Node1&#45;&gt;Node42 -->
<g id="edge41" class="edge"><title>Node1&#45;&gt;Node42</title>
<path fill="none" stroke="midnightblue" d="M2100.47,-65.4024C2254.85,-66.6434 2844.27,-67.795 3326,-20 3329.08,-19.6943 3332.25,-19.3244 3335.44,-18.9111"/>
<polygon fill="midnightblue" stroke="midnightblue" points="2100.14,-61.8996 2090.11,-65.3136 2100.08,-68.8994 2100.14,-61.8996"/>
</g>
<!-- Node43 -->
<g id="node43" class="node"><title>Node43</title>
<g id="a_node43"><a xlink:href="cclambda_2sort__amps_8cc.html" target="_top" xlink:title="Enter brief description of file here.">
<polygon fill="none" stroke="black" points="3445,-0.5 3445,-19.5 3521,-19.5 3521,-0.5 3445,-0.5"/>
<text text-anchor="middle" x="3483" y="-7.5" font-family="Helvetica,sans-Serif" font-size="10.00">sort_amps.cc</text>
</a>
</g>
</g>
<!-- Node1&#45;&gt;Node43 -->
<g id="edge42" class="edge"><title>Node1&#45;&gt;Node43</title>
<path fill="none" stroke="midnightblue" d="M2100.3,-64.5353C2293.86,-62.0663 3165.82,-49.4727 3435,-20 3438.2,-19.6493 3441.51,-19.2045 3444.83,-18.7011"/>
<polygon fill="midnightblue" stroke="midnightblue" points="2100.01,-61.0386 2090.05,-64.6646 2100.1,-68.038 2100.01,-61.0386"/>
</g>
<!-- Node44 -->
<g id="node44" class="node"><title>Node44</title>
<g id="a_node44"><a xlink:href="cclambda_2spinad__amps_8cc.html" target="_top" xlink:title="Enter brief description of file here.">
<polygon fill="none" stroke="black" points="3539,-0.5 3539,-19.5 3627,-19.5 3627,-0.5 3539,-0.5"/>
<text text-anchor="middle" x="3583" y="-7.5" font-family="Helvetica,sans-Serif" font-size="10.00">spinad_amps.cc</text>
</a>
</g>
</g>
<!-- Node1&#45;&gt;Node44 -->
<g id="edge43" class="edge"><title>Node1&#45;&gt;Node44</title>
<path fill="none" stroke="midnightblue" d="M2100.34,-64.5398C2301.92,-62.0114 3240.7,-48.8589 3530,-20 3532.88,-19.7128 3535.84,-19.3632 3538.82,-18.9705"/>
<polygon fill="midnightblue" stroke="midnightblue" points="2100.2,-61.0412 2090.24,-64.6653 2100.28,-68.0407 2100.2,-61.0412"/>
</g>
<!-- Node45 -->
<g id="node45" class="node"><title>Node45</title>
<g id="a_node45"><a xlink:href="cclambda_2update_8cc.html" target="_top" xlink:title="Enter brief description of file here.">
<polygon fill="none" stroke="black" points="3645.5,-0.5 3645.5,-19.5 3704.5,-19.5 3704.5,-0.5 3645.5,-0.5"/>
<text text-anchor="middle" x="3675" y="-7.5" font-family="Helvetica,sans-Serif" font-size="10.00">update.cc</text>
</a>
</g>
</g>
<!-- Node1&#45;&gt;Node45 -->
<g id="edge44" class="edge"><title>Node1&#45;&gt;Node45</title>
<path fill="none" stroke="midnightblue" d="M2100.42,-64.9342C2310.86,-64.4172 3325.51,-59.8636 3636,-20 3639.03,-19.6107 3642.17,-19.0893 3645.3,-18.4927"/>
<polygon fill="midnightblue" stroke="midnightblue" points="2100.17,-61.4347 2090.18,-64.9577 2100.19,-68.4346 2100.17,-61.4347"/>
</g>
<!-- Node46 -->
<g id="node46" class="node"><title>Node46</title>
<g id="a_node46"><a xlink:href="WabeiL1_8cc.html" target="_top" xlink:title="Enter brief description of file here.">
<polygon fill="none" stroke="black" points="3723,-0.5 3723,-19.5 3791,-19.5 3791,-0.5 3723,-0.5"/>
<text text-anchor="middle" x="3757" y="-7.5" font-family="Helvetica,sans-Serif" font-size="10.00">WabeiL1.cc</text>
</a>
</g>
</g>
<!-- Node1&#45;&gt;Node46 -->
<g id="edge45" class="edge"><title>Node1&#45;&gt;Node46</title>
<path fill="none" stroke="midnightblue" d="M2100.21,-64.8647C2316.15,-63.9625 3385.77,-57.6342 3713,-20 3716.25,-19.6258 3719.62,-19.1322 3722.98,-18.5684"/>
<polygon fill="midnightblue" stroke="midnightblue" points="2099.99,-61.3654 2090.01,-64.9058 2100.02,-68.3653 2099.99,-61.3654"/>
</g>
<!-- Node47 -->
<g id="node47" class="node"><title>Node47</title>
<g id="a_node47"><a xlink:href="WefabL2_8cc.html" target="_top" xlink:title="Enter brief description of file here.">
<polygon fill="none" stroke="black" points="3809.5,-0.5 3809.5,-19.5 3878.5,-19.5 3878.5,-0.5 3809.5,-0.5"/>
<text text-anchor="middle" x="3844" y="-7.5" font-family="Helvetica,sans-Serif" font-size="10.00">WefabL2.cc</text>
</a>
</g>
</g>
<!-- Node1&#45;&gt;Node47 -->
<g id="edge46" class="edge"><title>Node1&#45;&gt;Node47</title>
<path fill="none" stroke="midnightblue" d="M2100.44,-64.9244C2323.59,-64.3466 3454.6,-59.485 3800,-20 3802.94,-19.6635 3805.98,-19.2286 3809.02,-18.7319"/>
<polygon fill="midnightblue" stroke="midnightblue" points="2100.2,-61.4249 2090.21,-64.9495 2100.22,-68.4249 2100.2,-61.4249"/>
</g>
<!-- Node48 -->
<g id="node48" class="node"><title>Node48</title>
<g id="a_node48"><a xlink:href="WejabL2_8cc.html" target="_top" xlink:title="Enter brief description of file here.">
<polygon fill="none" stroke="black" points="3897,-0.5 3897,-19.5 3965,-19.5 3965,-0.5 3897,-0.5"/>
<text text-anchor="middle" x="3931" y="-7.5" font-family="Helvetica,sans-Serif" font-size="10.00">WejabL2.cc</text>
</a>
</g>
</g>
<!-- Node1&#45;&gt;Node48 -->
<g id="edge47" class="edge"><title>Node1&#45;&gt;Node48</title>
<path fill="none" stroke="midnightblue" d="M2100.53,-64.9793C2330.43,-64.7155 3523.35,-61.3451 3887,-20 3890.25,-19.6301 3893.62,-19.1393 3896.99,-18.5772"/>
<polygon fill="midnightblue" stroke="midnightblue" points="2100.31,-61.4794 2090.32,-64.9897 2100.32,-68.4794 2100.31,-61.4794"/>
</g>
<!-- Node49 -->
<g id="node49" class="node"><title>Node49</title>
<g id="a_node49"><a xlink:href="WijmbL2_8cc.html" target="_top" xlink:title="Enter brief description of file here.">
<polygon fill="none" stroke="black" points="3983,-0.5 3983,-19.5 4051,-19.5 4051,-0.5 3983,-0.5"/>
<text text-anchor="middle" x="4017" y="-7.5" font-family="Helvetica,sans-Serif" font-size="10.00">WijmbL2.cc</text>
</a>
</g>
</g>
<!-- Node1&#45;&gt;Node49 -->
<g id="edge48" class="edge"><title>Node1&#45;&gt;Node49</title>
<path fill="none" stroke="midnightblue" d="M2100.12,-65.053C2335.33,-65.2366 3591.89,-64.1092 3974,-20 3976.88,-19.6676 3979.85,-19.2356 3982.82,-18.7409"/>
<polygon fill="midnightblue" stroke="midnightblue" points="2100,-61.553 2090,-65.0437 2100,-68.553 2100,-61.553"/>
</g>
<!-- Node50 -->
<g id="node50" class="node"><title>Node50</title>
<g id="a_node50"><a xlink:href="WijmnL2_8cc.html" target="_top" xlink:title="Enter brief description of file here.">
<polygon fill="none" stroke="black" points="4069,-0.5 4069,-19.5 4137,-19.5 4137,-0.5 4069,-0.5"/>
<text text-anchor="middle" x="4103" y="-7.5" font-family="Helvetica,sans-Serif" font-size="10.00">WijmnL2.cc</text>
</a>
</g>
</g>
<!-- Node1&#45;&gt;Node50 -->
<g id="edge49" class="edge"><title>Node1&#45;&gt;Node50</title>
<path fill="none" stroke="midnightblue" d="M2100.3,-65.0982C2342.12,-65.5733 3659.86,-65.9859 4060,-20 4062.88,-19.6691 4065.85,-19.2381 4068.82,-18.7441"/>
<polygon fill="midnightblue" stroke="midnightblue" points="2100.24,-61.5982 2090.24,-65.0771 2100.23,-68.5981 2100.24,-61.5982"/>
</g>
</g>
</svg>
