<?xml version="1.0" encoding="UTF-8" standalone="no"?>
<!DOCTYPE svg PUBLIC "-//W3C//DTD SVG 1.1//EN"
 "http://www.w3.org/Graphics/SVG/1.1/DTD/svg11.dtd">
<!-- Generated by graphviz version 2.30.1 (20140110.0959)
 -->
<!-- Title: Local.h Pages: 1 -->
<svg width="387pt" height="84pt"
 viewBox="0.00 0.00 387.00 84.00" xmlns="http://www.w3.org/2000/svg" xmlns:xlink="http://www.w3.org/1999/xlink">
<g id="graph0" class="graph" transform="scale(1 1) rotate(0) translate(4 80)">
<title>Local.h</title>
<!-- Node1 -->
<g id="node1" class="node"><title>Node1</title>
<polygon fill="#bfbfbf" stroke="black" points="187,-56.5 187,-75.5 235,-75.5 235,-56.5 187,-56.5"/>
<text text-anchor="middle" x="211" y="-63.5" font-family="Helvetica,sans-Serif" font-size="10.00">Local.h</text>
</g>
<!-- Node2 -->
<g id="node2" class="node"><title>Node2</title>
<g id="a_node2"><a xlink:href="cc2__L1_8cc.html" target="_top" xlink:title="Enter brief description of file here.">
<polygon fill="none" stroke="black" points="0,-0.5 0,-19.5 62,-19.5 62,-0.5 0,-0.5"/>
<text text-anchor="middle" x="31" y="-7.5" font-family="Helvetica,sans-Serif" font-size="10.00">cc2_L1.cc</text>
</a>
</g>
</g>
<!-- Node1&#45;&gt;Node2 -->
<g id="edge1" class="edge"><title>Node1&#45;&gt;Node2</title>
<path fill="none" stroke="midnightblue" d="M176.797,-54.7392C142.87,-44.561 91.4711,-29.1413 59.6334,-19.59"/>
<polygon fill="midnightblue" stroke="midnightblue" points="176.14,-58.1962 186.724,-57.7173 178.152,-51.4914 176.14,-58.1962"/>
</g>
<!-- Node3 -->
<g id="node3" class="node"><title>Node3</title>
<g id="a_node3"><a xlink:href="cclambda_8cc.html" target="_top" xlink:title="Enter brief description of file here.">
<polygon fill="none" stroke="black" points="80,-0.5 80,-19.5 152,-19.5 152,-0.5 80,-0.5"/>
<text text-anchor="middle" x="116" y="-7.5" font-family="Helvetica,sans-Serif" font-size="10.00">cclambda.cc</text>
</a>
</g>
</g>
<!-- Node1&#45;&gt;Node3 -->
<g id="edge2" class="edge"><title>Node1&#45;&gt;Node3</title>
<path fill="none" stroke="midnightblue" d="M186.682,-51.1774C169.201,-41.2407 146.17,-28.1492 131.226,-19.6545"/>
<polygon fill="midnightblue" stroke="midnightblue" points="185.313,-54.425 195.737,-56.324 188.773,-48.3395 185.313,-54.425"/>
</g>
<!-- Node4 -->
<g id="node4" class="node"><title>Node4</title>
<g id="a_node4"><a xlink:href="bin_2cclambda_2get__params_8cc.html" target="_top" xlink:title="Enter brief description of file here.">
<polygon fill="none" stroke="black" points="170.5,-0.5 170.5,-19.5 251.5,-19.5 251.5,-0.5 170.5,-0.5"/>
<text text-anchor="middle" x="211" y="-7.5" font-family="Helvetica,sans-Serif" font-size="10.00">get_params.cc</text>
</a>
</g>
</g>
<!-- Node1&#45;&gt;Node4 -->
<g id="edge3" class="edge"><title>Node1&#45;&gt;Node4</title>
<path fill="none" stroke="midnightblue" d="M211,-45.8045C211,-36.9102 211,-26.7798 211,-19.7511"/>
<polygon fill="midnightblue" stroke="midnightblue" points="207.5,-46.083 211,-56.083 214.5,-46.083 207.5,-46.083"/>
</g>
<!-- Node5 -->
<g id="node5" class="node"><title>Node5</title>
<g id="a_node5"><a xlink:href="L1_8cc.html" target="_top" xlink:title="Enter brief description of file here.">
<polygon fill="none" stroke="black" points="269.5,-0.5 269.5,-19.5 310.5,-19.5 310.5,-0.5 269.5,-0.5"/>
<text text-anchor="middle" x="290" y="-7.5" font-family="Helvetica,sans-Serif" font-size="10.00">L1.cc</text>
</a>
</g>
</g>
<!-- Node1&#45;&gt;Node5 -->
<g id="edge4" class="edge"><title>Node1&#45;&gt;Node5</title>
<path fill="none" stroke="midnightblue" d="M232.034,-50.6221C246.466,-40.7574 265.141,-27.9919 277.339,-19.6545"/>
<polygon fill="midnightblue" stroke="midnightblue" points="229.973,-47.7914 223.693,-56.324 233.923,-53.5703 229.973,-47.7914"/>
</g>
<!-- Node6 -->
<g id="node6" class="node"><title>Node6</title>
<g id="a_node6"><a xlink:href="bin_2cclambda_2local_8cc.html" target="_top" xlink:title="Enter brief description of file here.">
<polygon fill="none" stroke="black" points="329,-0.5 329,-19.5 379,-19.5 379,-0.5 329,-0.5"/>
<text text-anchor="middle" x="354" y="-7.5" font-family="Helvetica,sans-Serif" font-size="10.00">local.cc</text>
</a>
</g>
</g>
<!-- Node1&#45;&gt;Node6 -->
<g id="edge5" class="edge"><title>Node1&#45;&gt;Node6</title>
<path fill="none" stroke="midnightblue" d="M243.027,-52.9058C269.912,-42.7536 307.641,-28.5063 331.447,-19.5164"/>
<polygon fill="midnightblue" stroke="midnightblue" points="241.778,-49.6364 233.659,-56.4435 244.25,-56.1851 241.778,-49.6364"/>
</g>
</g>
</svg>
