<?xml version="1.0" encoding="UTF-8" standalone="no"?>
<!DOCTYPE svg PUBLIC "-//W3C//DTD SVG 1.1//EN"
 "http://www.w3.org/Graphics/SVG/1.1/DTD/svg11.dtd">
<!-- Generated by graphviz version 2.30.1 (20140110.0959)
 -->
<!-- Title: globals.h Pages: 1 -->
<svg width="434pt" height="140pt"
 viewBox="0.00 0.00 434.00 140.00" xmlns="http://www.w3.org/2000/svg" xmlns:xlink="http://www.w3.org/1999/xlink">
<g id="graph0" class="graph" transform="scale(1 1) rotate(0) translate(4 136)">
<title>globals.h</title>
<!-- Node1 -->
<g id="node1" class="node"><title>Node1</title>
<polygon fill="#bfbfbf" stroke="black" points="108,-112.5 108,-131.5 164,-131.5 164,-112.5 108,-112.5"/>
<text text-anchor="middle" x="136" y="-119.5" font-family="Helvetica,sans-Serif" font-size="10.00">globals.h</text>
</g>
<!-- Node2 -->
<g id="node2" class="node"><title>Node2</title>
<g id="a_node2"><a xlink:href="psifiles_8h_source.html" target="_top" xlink:title="psifiles.h">
<polygon fill="none" stroke="black" points="0,-0.5 0,-19.5 56,-19.5 56,-0.5 0,-0.5"/>
<text text-anchor="middle" x="28" y="-7.5" font-family="Helvetica,sans-Serif" font-size="10.00">psifiles.h</text>
</a>
</g>
</g>
<!-- Node1&#45;&gt;Node2 -->
<g id="edge1" class="edge"><title>Node1&#45;&gt;Node2</title>
<path fill="none" stroke="midnightblue" d="M107.974,-117.921C82.3022,-113.448 45.6897,-102.535 28,-76 19.0106,-62.5159 20.1068,-43.7052 22.802,-29.7875"/>
<polygon fill="midnightblue" stroke="midnightblue" points="26.252,-30.4068 25.1442,-19.87 19.4394,-28.7978 26.252,-30.4068"/>
</g>
<!-- Node3 -->
<g id="node3" class="node"><title>Node3</title>
<g id="a_node3"><a xlink:href="lib_2libdpd_2dpd_8h.html" target="_top" xlink:title="Enter brief description of file here.">
<polygon fill="none" stroke="black" points="243.5,-56.5 243.5,-75.5 312.5,-75.5 312.5,-56.5 243.5,-56.5"/>
<text text-anchor="middle" x="278" y="-63.5" font-family="Helvetica,sans-Serif" font-size="10.00">libdpd/dpd.h</text>
</a>
</g>
</g>
<!-- Node1&#45;&gt;Node3 -->
<g id="edge2" class="edge"><title>Node1&#45;&gt;Node3</title>
<path fill="none" stroke="midnightblue" d="M158.5,-112.444C182.077,-103.478 219.322,-89.314 245.964,-79.1827"/>
<polygon fill="midnightblue" stroke="midnightblue" points="247.502,-82.3424 255.605,-75.5164 245.014,-75.7995 247.502,-82.3424"/>
</g>
<!-- Node8 -->
<g id="node8" class="node"><title>Node8</title>
<g id="a_node8"><a xlink:href="libciomr_8h_source.html" target="_top" xlink:title="libciomr/libciomr.h">
<polygon fill="none" stroke="black" points="37.5,-56.5 37.5,-75.5 132.5,-75.5 132.5,-56.5 37.5,-56.5"/>
<text text-anchor="middle" x="85" y="-63.5" font-family="Helvetica,sans-Serif" font-size="10.00">libciomr/libciomr.h</text>
</a>
</g>
</g>
<!-- Node1&#45;&gt;Node8 -->
<g id="edge8" class="edge"><title>Node1&#45;&gt;Node8</title>
<path fill="none" stroke="midnightblue" d="M127.578,-112.083C120.152,-104.22 109.148,-92.5688 100.188,-83.0813"/>
<polygon fill="midnightblue" stroke="midnightblue" points="102.676,-80.618 93.2649,-75.7511 97.5866,-85.4244 102.676,-80.618"/>
</g>
<!-- Node9 -->
<g id="node9" class="node"><title>Node9</title>
<g id="a_node9"><a xlink:href="psio_8h_source.html" target="_top" xlink:title="libpsio/psio.h">
<polygon fill="none" stroke="black" points="151,-56.5 151,-75.5 225,-75.5 225,-56.5 151,-56.5"/>
<text text-anchor="middle" x="188" y="-63.5" font-family="Helvetica,sans-Serif" font-size="10.00">libpsio/psio.h</text>
</a>
</g>
</g>
<!-- Node1&#45;&gt;Node9 -->
<g id="edge10" class="edge"><title>Node1&#45;&gt;Node9</title>
<path fill="none" stroke="midnightblue" d="M144.587,-112.083C152.159,-104.22 163.378,-92.5688 172.514,-83.0813"/>
<polygon fill="midnightblue" stroke="midnightblue" points="175.158,-85.3821 179.573,-75.7511 170.115,-80.5266 175.158,-85.3821"/>
</g>
<!-- Node4 -->
<g id="node4" class="node"><title>Node4</title>
<polygon fill="none" stroke="#bfbfbf" points="94.5,-0.5 94.5,-19.5 137.5,-19.5 137.5,-0.5 94.5,-0.5"/>
<text text-anchor="middle" x="116" y="-7.5" font-family="Helvetica,sans-Serif" font-size="10.00">cstdio</text>
</g>
<!-- Node3&#45;&gt;Node4 -->
<g id="edge3" class="edge"><title>Node3&#45;&gt;Node4</title>
<path fill="none" stroke="midnightblue" d="M252.331,-56.4435C223.875,-46.9583 177.968,-31.656 147.394,-21.4647"/>
<polygon fill="midnightblue" stroke="midnightblue" points="148.255,-18.0623 137.661,-18.2203 146.041,-24.703 148.255,-18.0623"/>
</g>
<!-- Node3&#45;&gt;Node2 -->
<g id="edge4" class="edge"><title>Node3&#45;&gt;Node2</title>
<path fill="none" stroke="midnightblue" d="M243.239,-57.4915C196.741,-47.4479 114.572,-29.6995 66.3274,-19.2787"/>
<polygon fill="midnightblue" stroke="midnightblue" points="66.7966,-15.7994 56.2831,-17.1091 65.3187,-22.6416 66.7966,-15.7994"/>
</g>
<!-- Node5 -->
<g id="node5" class="node"><title>Node5</title>
<g id="a_node5"><a xlink:href="libpsio_2config_8h_source.html" target="_top" xlink:title="libpsio/config.h">
<polygon fill="none" stroke="black" points="156,-0.5 156,-19.5 238,-19.5 238,-0.5 156,-0.5"/>
<text text-anchor="middle" x="197" y="-7.5" font-family="Helvetica,sans-Serif" font-size="10.00">libpsio/config.h</text>
</a>
</g>
</g>
<!-- Node3&#45;&gt;Node5 -->
<g id="edge5" class="edge"><title>Node3&#45;&gt;Node5</title>
<path fill="none" stroke="midnightblue" d="M264.986,-56.324C252.468,-47.979 233.318,-35.2122 218.529,-25.3524"/>
<polygon fill="midnightblue" stroke="midnightblue" points="220.244,-22.2894 209.982,-19.6545 216.361,-28.1137 220.244,-22.2894"/>
</g>
<!-- Node6 -->
<g id="node6" class="node"><title>Node6</title>
<polygon fill="none" stroke="#bfbfbf" points="318,-0.5 318,-19.5 426,-19.5 426,-0.5 318,-0.5"/>
<text text-anchor="middle" x="372" y="-7.5" font-family="Helvetica,sans-Serif" font-size="10.00">boost/shared_ptr.hpp</text>
</g>
<!-- Node3&#45;&gt;Node6 -->
<g id="edge6" class="edge"><title>Node3&#45;&gt;Node6</title>
<path fill="none" stroke="midnightblue" d="M293.103,-56.324C307.903,-47.8215 330.694,-34.7288 347.982,-24.7975"/>
<polygon fill="midnightblue" stroke="midnightblue" points="350.007,-27.6707 356.935,-19.6545 346.52,-21.6009 350.007,-27.6707"/>
</g>
<!-- Node7 -->
<g id="node7" class="node"><title>Node7</title>
<polygon fill="none" stroke="#bfbfbf" points="256,-0.5 256,-19.5 300,-19.5 300,-0.5 256,-0.5"/>
<text text-anchor="middle" x="278" y="-7.5" font-family="Helvetica,sans-Serif" font-size="10.00">vector</text>
</g>
<!-- Node3&#45;&gt;Node7 -->
<g id="edge7" class="edge"><title>Node3&#45;&gt;Node7</title>
<path fill="none" stroke="midnightblue" d="M278,-56.083C278,-49.0059 278,-38.8611 278,-29.9865"/>
<polygon fill="midnightblue" stroke="midnightblue" points="281.5,-29.751 278,-19.7511 274.5,-29.7511 281.5,-29.751"/>
</g>
<!-- Node8&#45;&gt;Node4 -->
<g id="edge9" class="edge"><title>Node8&#45;&gt;Node4</title>
<path fill="none" stroke="midnightblue" d="M90.119,-56.083C94.4075,-48.6127 100.658,-37.7244 105.942,-28.5199"/>
<polygon fill="midnightblue" stroke="midnightblue" points="109.033,-30.1662 110.976,-19.7511 102.962,-26.6811 109.033,-30.1662"/>
</g>
<!-- Node9&#45;&gt;Node4 -->
<g id="edge11" class="edge"><title>Node9&#45;&gt;Node4</title>
<path fill="none" stroke="midnightblue" d="M176.432,-56.324C165.58,-48.1849 149.119,-35.8395 136.117,-26.0874"/>
<polygon fill="midnightblue" stroke="midnightblue" points="137.879,-23.0339 127.779,-19.8339 133.679,-28.6339 137.879,-23.0339"/>
</g>
<!-- Node9&#45;&gt;Node5 -->
<g id="edge12" class="edge"><title>Node9&#45;&gt;Node5</title>
<path fill="none" stroke="midnightblue" d="M189.486,-56.083C190.679,-48.9272 192.394,-38.6353 193.885,-29.6911"/>
<polygon fill="midnightblue" stroke="midnightblue" points="197.35,-30.1904 195.541,-19.7511 190.445,-29.0396 197.35,-30.1904"/>
</g>
</g>
</svg>
