<?xml version="1.0" encoding="UTF-8" standalone="no"?>
<!DOCTYPE svg PUBLIC "-//W3C//DTD SVG 1.1//EN"
 "http://www.w3.org/Graphics/SVG/1.1/DTD/svg11.dtd">
<!-- Generated by graphviz version 2.30.1 (20140110.0959)
 -->
<!-- Title: Local.h Pages: 1 -->
<!--zoomable 84 -->
<svg id="main" version="1.1" xmlns="http://www.w3.org/2000/svg" xmlns:xlink="http://www.w3.org/1999/xlink" xml:space="preserve" onload="init(evt)">
        <defs>
                <circle id="rim" cx="0" cy="0" r="7"/>
                <circle id="rim2" cx="0" cy="0" r="3.5"/>
                <g id="zoomPlus">
                        <use xlink:href="#rim" fill="#404040">
                                <set attributeName="fill" to="#808080" begin="zoomplus.mouseover" end="zoomplus.mouseout"/>
                        </use>
                        <path d="M-4,0h8M0,-4v8" fill="none" stroke="white" stroke-width="1.5" pointer-events="none"/>
                </g>
                <g id="zoomMin">
                        <use xlink:href="#rim" fill="#404040">
                                <set attributeName="fill" to="#808080" begin="zoomminus.mouseover" end="zoomminus.mouseout"/>
                        </use>
                        <path d="M-4,0h8" fill="none" stroke="white" stroke-width="1.5" pointer-events="none"/>
                </g>
                <g id="dirArrow">
                        <path fill="none" stroke="white" stroke-width="1.5" d="M0,-3.0v7 M-2.5,-0.5L0,-3.0L2.5,-0.5"/>
                </g>
               <g id="resetDef">
                       <use xlink:href="#rim2" fill="#404040">
                               <set attributeName="fill" to="#808080" begin="reset.mouseover" end="reset.mouseout"/>
                       </use>
               </g>
        </defs>

<script type="text/javascript">
var viewWidth = 3308;
var viewHeight = 84;
var sectionId = 'dynsection-1';
</script>
<script xlink:href="svgpan.js"/>
<svg id="graph" class="graph">
<g id="viewport">
<title>Local.h</title>
<!-- Node1 -->
<g id="node1" class="node"><title>Node1</title>
<polygon fill="#bfbfbf" stroke="black" points="1752,-56.5 1752,-75.5 1800,-75.5 1800,-56.5 1752,-56.5"/>
<text text-anchor="middle" x="1776" y="-63.5" font-family="Helvetica,sans-Serif" font-size="10.00">Local.h</text>
</g>
<!-- Node2 -->
<g id="node2" class="node"><title>Node2</title>
<g id="a_node2"><a xlink:href="ccresponse_2amp__write_8cc.html" target="_top" xlink:title="Write the amplitudes from ccresponse.">
<polygon fill="none" stroke="black" points="-0.5,-0.5 -0.5,-19.5 74.5,-19.5 74.5,-0.5 -0.5,-0.5"/>
<text text-anchor="middle" x="37" y="-7.5" font-family="Helvetica,sans-Serif" font-size="10.00">amp_write.cc</text>
</a>
</g>
</g>
<!-- Node1&#45;&gt;Node2 -->
<g id="edge1" class="edge"><title>Node1&#45;&gt;Node2</title>
<path fill="none" stroke="midnightblue" d="M1741.7,-64.8485C1532.13,-63.8081 422.122,-56.6236 84,-20 80.9439,-19.669 77.7894,-19.2456 74.6289,-18.7636"/>
<polygon fill="midnightblue" stroke="midnightblue" points="1741.79,-68.3489 1751.81,-64.8973 1741.82,-61.349 1741.79,-68.3489"/>
</g>
<!-- Node3 -->
<g id="node3" class="node"><title>Node3</title>
<g id="a_node3"><a xlink:href="ccresponse_2analyze_8cc.html" target="_top" xlink:title="Enter brief description of file here.">
<polygon fill="none" stroke="black" points="93,-0.5 93,-19.5 157,-19.5 157,-0.5 93,-0.5"/>
<text text-anchor="middle" x="125" y="-7.5" font-family="Helvetica,sans-Serif" font-size="10.00">analyze.cc</text>
</a>
</g>
</g>
<!-- Node1&#45;&gt;Node3 -->
<g id="edge2" class="edge"><title>Node1&#45;&gt;Node3</title>
<path fill="none" stroke="midnightblue" d="M1741.76,-64.92C1538.32,-64.3118 486.382,-59.2862 166,-20 163.107,-19.6452 160.117,-19.1816 157.13,-18.6517"/>
<polygon fill="midnightblue" stroke="midnightblue" points="1741.85,-68.4201 1751.86,-64.9485 1741.87,-61.4201 1741.85,-68.4201"/>
</g>
<!-- Node4 -->
<g id="node4" class="node"><title>Node4</title>
<g id="a_node4"><a xlink:href="ccresponse_2cc2__hbar__extra_8cc.html" target="_top" xlink:title="Enter brief description of file here.">
<polygon fill="none" stroke="black" points="175.5,-0.5 175.5,-19.5 272.5,-19.5 272.5,-0.5 175.5,-0.5"/>
<text text-anchor="middle" x="224" y="-7.5" font-family="Helvetica,sans-Serif" font-size="10.00">cc2_hbar_extra.cc</text>
</a>
</g>
</g>
<!-- Node1&#45;&gt;Node4 -->
<g id="edge3" class="edge"><title>Node1&#45;&gt;Node4</title>
<path fill="none" stroke="midnightblue" d="M1741.54,-64.5428C1546.46,-61.8665 578.871,-47.3978 282,-20 278.956,-19.7191 275.829,-19.3804 272.68,-19.0013"/>
<polygon fill="midnightblue" stroke="midnightblue" points="1741.72,-68.0454 1751.76,-64.6819 1741.81,-61.0461 1741.72,-68.0454"/>
</g>
<!-- Node5 -->
<g id="node5" class="node"><title>Node5</title>
<g id="a_node5"><a xlink:href="cc2__LHX1Y1_8cc.html" target="_top" xlink:title="Enter brief description of file here.">
<polygon fill="none" stroke="black" points="291,-0.5 291,-19.5 379,-19.5 379,-0.5 291,-0.5"/>
<text text-anchor="middle" x="335" y="-7.5" font-family="Helvetica,sans-Serif" font-size="10.00">cc2_LHX1Y1.cc</text>
</a>
</g>
</g>
<!-- Node1&#45;&gt;Node5 -->
<g id="edge4" class="edge"><title>Node1&#45;&gt;Node5</title>
<path fill="none" stroke="midnightblue" d="M1741.94,-64.524C1556.06,-61.8311 662.588,-47.6361 388,-20 385.121,-19.7103 382.163,-19.3587 379.185,-18.9646"/>
<polygon fill="midnightblue" stroke="midnightblue" points="1741.9,-68.0238 1751.95,-64.6678 1742,-61.0245 1741.9,-68.0238"/>
</g>
<!-- Node6 -->
<g id="node6" class="node"><title>Node6</title>
<g id="a_node6"><a xlink:href="cc2__LHX1Y2_8cc.html" target="_top" xlink:title="Enter brief description of file here.">
<polygon fill="none" stroke="black" points="397,-0.5 397,-19.5 485,-19.5 485,-0.5 397,-0.5"/>
<text text-anchor="middle" x="441" y="-7.5" font-family="Helvetica,sans-Serif" font-size="10.00">cc2_LHX1Y2.cc</text>
</a>
</g>
</g>
<!-- Node1&#45;&gt;Node6 -->
<g id="edge5" class="edge"><title>Node1&#45;&gt;Node6</title>
<path fill="none" stroke="midnightblue" d="M1741.48,-64.4109C1563.28,-61.2755 746.132,-45.7171 494,-20 491.122,-19.7064 488.163,-19.352 485.186,-18.9557"/>
<polygon fill="midnightblue" stroke="midnightblue" points="1741.53,-67.9123 1751.59,-64.5875 1741.65,-60.9133 1741.53,-67.9123"/>
</g>
<!-- Node7 -->
<g id="node7" class="node"><title>Node7</title>
<g id="a_node7"><a xlink:href="cc2__sort__X_8cc.html" target="_top" xlink:title="Enter brief description of file here.">
<polygon fill="none" stroke="black" points="503,-0.5 503,-19.5 583,-19.5 583,-0.5 503,-0.5"/>
<text text-anchor="middle" x="543" y="-7.5" font-family="Helvetica,sans-Serif" font-size="10.00">cc2_sort_X.cc</text>
</a>
</g>
</g>
<!-- Node1&#45;&gt;Node7 -->
<g id="edge6" class="edge"><title>Node1&#45;&gt;Node7</title>
<path fill="none" stroke="midnightblue" d="M1741.44,-64.3576C1571.52,-61.0963 823.449,-45.5201 592,-20 589.077,-19.6777 586.066,-19.2823 583.042,-18.8388"/>
<polygon fill="midnightblue" stroke="midnightblue" points="1741.5,-67.8593 1751.57,-64.5504 1741.64,-60.8606 1741.5,-67.8593"/>
</g>
<!-- Node8 -->
<g id="node8" class="node"><title>Node8</title>
<g id="a_node8"><a xlink:href="cc2__X1_8cc.html" target="_top" xlink:title="Enter brief description of file here.">
<polygon fill="none" stroke="black" points="601.5,-0.5 601.5,-19.5 664.5,-19.5 664.5,-0.5 601.5,-0.5"/>
<text text-anchor="middle" x="633" y="-7.5" font-family="Helvetica,sans-Serif" font-size="10.00">cc2_X1.cc</text>
</a>
</g>
</g>
<!-- Node1&#45;&gt;Node8 -->
<g id="edge7" class="edge"><title>Node1&#45;&gt;Node8</title>
<path fill="none" stroke="midnightblue" d="M1741.5,-64.4317C1578.79,-61.6232 887.067,-48.214 673,-20 670.318,-19.6466 667.551,-19.1997 664.784,-18.6951"/>
<polygon fill="midnightblue" stroke="midnightblue" points="1741.81,-67.9374 1751.87,-64.6086 1741.93,-60.9384 1741.81,-67.9374"/>
</g>
<!-- Node9 -->
<g id="node9" class="node"><title>Node9</title>
<g id="a_node9"><a xlink:href="cc2__X2_8cc.html" target="_top" xlink:title="Enter brief description of file here.">
<polygon fill="none" stroke="black" points="682.5,-0.5 682.5,-19.5 745.5,-19.5 745.5,-0.5 682.5,-0.5"/>
<text text-anchor="middle" x="714" y="-7.5" font-family="Helvetica,sans-Serif" font-size="10.00">cc2_X2.cc</text>
</a>
</g>
</g>
<!-- Node1&#45;&gt;Node9 -->
<g id="edge8" class="edge"><title>Node1&#45;&gt;Node9</title>
<path fill="none" stroke="midnightblue" d="M1741.62,-64.28C1586.65,-60.9129 952.149,-45.7878 755,-20 751.965,-19.603 748.822,-19.0941 745.689,-18.5205"/>
<polygon fill="midnightblue" stroke="midnightblue" points="1741.86,-67.786 1751.93,-64.5021 1742.01,-60.7876 1741.86,-67.786"/>
</g>
<!-- Node10 -->
<g id="node10" class="node"><title>Node10</title>
<g id="a_node10"><a xlink:href="ccresponse_8cc.html" target="_top" xlink:title="Enter brief description of file here.">
<polygon fill="none" stroke="black" points="764,-0.5 764,-19.5 844,-19.5 844,-0.5 764,-0.5"/>
<text text-anchor="middle" x="804" y="-7.5" font-family="Helvetica,sans-Serif" font-size="10.00">ccresponse.cc</text>
</a>
</g>
</g>
<!-- Node1&#45;&gt;Node10 -->
<g id="edge9" class="edge"><title>Node1&#45;&gt;Node10</title>
<path fill="none" stroke="midnightblue" d="M1741.45,-64.9675C1619.49,-64.5019 1197.98,-59.9126 853,-20 850.079,-19.662 847.069,-19.2551 844.046,-18.8034"/>
<polygon fill="midnightblue" stroke="midnightblue" points="1741.65,-68.468 1751.66,-64.9992 1741.67,-61.4681 1741.65,-68.468"/>
</g>
<!-- Node11 -->
<g id="node11" class="node"><title>Node11</title>
<g id="a_node11"><a xlink:href="compute__X_8cc.html" target="_top" xlink:title="Enter brief description of file here.">
<polygon fill="none" stroke="black" points="862,-0.5 862,-19.5 942,-19.5 942,-0.5 862,-0.5"/>
<text text-anchor="middle" x="902" y="-7.5" font-family="Helvetica,sans-Serif" font-size="10.00">compute_X.cc</text>
</a>
</g>
</g>
<!-- Node1&#45;&gt;Node11 -->
<g id="edge10" class="edge"><title>Node1&#45;&gt;Node11</title>
<path fill="none" stroke="midnightblue" d="M1741.82,-64.69C1628.69,-63.3328 1256.31,-56.2161 951,-20 948.08,-19.6536 945.071,-19.2404 942.048,-18.7844"/>
<polygon fill="midnightblue" stroke="midnightblue" points="1741.91,-68.1911 1751.94,-64.8041 1741.98,-61.1916 1741.91,-68.1911"/>
</g>
<!-- Node12 -->
<g id="node12" class="node"><title>Node12</title>
<g id="a_node12"><a xlink:href="ccresponse_2converged_8cc.html" target="_top" xlink:title="Enter brief description of file here.">
<polygon fill="none" stroke="black" points="960.5,-0.5 960.5,-19.5 1035.5,-19.5 1035.5,-0.5 960.5,-0.5"/>
<text text-anchor="middle" x="998" y="-7.5" font-family="Helvetica,sans-Serif" font-size="10.00">converged.cc</text>
</a>
</g>
</g>
<!-- Node1&#45;&gt;Node12 -->
<g id="edge11" class="edge"><title>Node1&#45;&gt;Node12</title>
<path fill="none" stroke="midnightblue" d="M1741.57,-64.4931C1636.54,-62.6025 1311.13,-54.1916 1044,-20 1041.26,-19.6487 1038.43,-19.232 1035.59,-18.7734"/>
<polygon fill="midnightblue" stroke="midnightblue" points="1741.82,-67.9979 1751.88,-64.6702 1741.94,-60.9989 1741.82,-67.9979"/>
</g>
<!-- Node13 -->
<g id="node13" class="node"><title>Node13</title>
<g id="a_node13"><a xlink:href="ccresponse_2denom_8cc.html" target="_top" xlink:title="Enter brief description of file here.">
<polygon fill="none" stroke="black" points="1053.5,-0.5 1053.5,-19.5 1112.5,-19.5 1112.5,-0.5 1053.5,-0.5"/>
<text text-anchor="middle" x="1083" y="-7.5" font-family="Helvetica,sans-Serif" font-size="10.00">denom.cc</text>
</a>
</g>
</g>
<!-- Node1&#45;&gt;Node13 -->
<g id="edge12" class="edge"><title>Node1&#45;&gt;Node13</title>
<path fill="none" stroke="midnightblue" d="M1741.58,-64.6184C1643.83,-63.1092 1356.44,-55.7215 1121,-20 1118.32,-19.5932 1115.55,-19.0938 1112.78,-18.5407"/>
<polygon fill="midnightblue" stroke="midnightblue" points="1741.71,-68.1205 1751.76,-64.7645 1741.81,-61.1212 1741.71,-68.1205"/>
</g>
<!-- Node14 -->
<g id="node14" class="node"><title>Node14</title>
<g id="a_node14"><a xlink:href="bin_2ccresponse_2diis_8cc.html" target="_top" xlink:title="Enter brief description of file here.">
<polygon fill="none" stroke="black" points="1130.5,-0.5 1130.5,-19.5 1175.5,-19.5 1175.5,-0.5 1130.5,-0.5"/>
<text text-anchor="middle" x="1153" y="-7.5" font-family="Helvetica,sans-Serif" font-size="10.00">diis.cc</text>
</a>
</g>
</g>
<!-- Node1&#45;&gt;Node14 -->
<g id="edge13" class="edge"><title>Node1&#45;&gt;Node14</title>
<path fill="none" stroke="midnightblue" d="M1741.82,-64.756C1650.64,-63.5984 1394.31,-57.0262 1185,-20 1181.93,-19.4572 1178.73,-18.7429 1175.6,-17.9536"/>
<polygon fill="midnightblue" stroke="midnightblue" points="1741.82,-68.2562 1751.86,-64.8696 1741.9,-61.2566 1741.82,-68.2562"/>
</g>
<!-- Node15 -->
<g id="node15" class="node"><title>Node15</title>
<g id="a_node15"><a xlink:href="ccresponse_2get__moinfo_8cc.html" target="_top" xlink:title="Enter brief description of file here.">
<polygon fill="none" stroke="black" points="1194,-0.5 1194,-19.5 1272,-19.5 1272,-0.5 1194,-0.5"/>
<text text-anchor="middle" x="1233" y="-7.5" font-family="Helvetica,sans-Serif" font-size="10.00">get_moinfo.cc</text>
</a>
</g>
</g>
<!-- Node1&#45;&gt;Node15 -->
<g id="edge14" class="edge"><title>Node1&#45;&gt;Node15</title>
<path fill="none" stroke="midnightblue" d="M1741.9,-63.0164C1661.4,-58.0912 1453.39,-43.9428 1281,-20 1278.14,-19.6034 1275.2,-19.1535 1272.24,-18.6712"/>
<polygon fill="midnightblue" stroke="midnightblue" points="1741.76,-66.5145 1751.95,-63.6241 1742.18,-59.5272 1741.76,-66.5145"/>
</g>
<!-- Node16 -->
<g id="node16" class="node"><title>Node16</title>
<g id="a_node16"><a xlink:href="bin_2ccresponse_2get__params_8cc.html" target="_top" xlink:title="Enter brief description of file here.">
<polygon fill="none" stroke="black" points="1290.5,-0.5 1290.5,-19.5 1371.5,-19.5 1371.5,-0.5 1290.5,-0.5"/>
<text text-anchor="middle" x="1331" y="-7.5" font-family="Helvetica,sans-Serif" font-size="10.00">get_params.cc</text>
</a>
</g>
</g>
<!-- Node1&#45;&gt;Node16 -->
<g id="edge15" class="edge"><title>Node1&#45;&gt;Node16</title>
<path fill="none" stroke="midnightblue" d="M1741.65,-61.8416C1672.97,-55.3591 1513.88,-39.5077 1381,-20 1377.95,-19.5516 1374.79,-19.0576 1371.62,-18.5388"/>
<polygon fill="midnightblue" stroke="midnightblue" points="1741.6,-65.3517 1751.88,-62.8006 1742.25,-58.3823 1741.6,-65.3517"/>
</g>
<!-- Node17 -->
<g id="node17" class="node"><title>Node17</title>
<g id="a_node17"><a xlink:href="ccresponse_2hbar__extra_8cc.html" target="_top" xlink:title="Enter brief description of file here.">
<polygon fill="none" stroke="black" points="1390,-0.5 1390,-19.5 1466,-19.5 1466,-0.5 1390,-0.5"/>
<text text-anchor="middle" x="1428" y="-7.5" font-family="Helvetica,sans-Serif" font-size="10.00">hbar_extra.cc</text>
</a>
</g>
</g>
<!-- Node1&#45;&gt;Node17 -->
<g id="edge16" class="edge"><title>Node1&#45;&gt;Node17</title>
<path fill="none" stroke="midnightblue" d="M1741.69,-60.3344C1685.73,-52.6222 1571.4,-36.4284 1475,-20 1472.13,-19.5115 1469.17,-18.9883 1466.2,-18.4491"/>
<polygon fill="midnightblue" stroke="midnightblue" points="1741.37,-63.8243 1751.76,-61.7176 1742.33,-56.8894 1741.37,-63.8243"/>
</g>
<!-- Node18 -->
<g id="node18" class="node"><title>Node18</title>
<g id="a_node18"><a xlink:href="HXY_8cc.html" target="_top" xlink:title="Enter brief description of file here.">
<polygon fill="none" stroke="black" points="1484.5,-0.5 1484.5,-19.5 1535.5,-19.5 1535.5,-0.5 1484.5,-0.5"/>
<text text-anchor="middle" x="1510" y="-7.5" font-family="Helvetica,sans-Serif" font-size="10.00">HXY.cc</text>
</a>
</g>
</g>
<!-- Node1&#45;&gt;Node18 -->
<g id="edge17" class="edge"><title>Node1&#45;&gt;Node18</title>
<path fill="none" stroke="midnightblue" d="M1741.94,-59.1338C1696.59,-51.1523 1613.94,-36.0203 1544,-20 1541.26,-19.3729 1538.41,-18.6805 1535.57,-17.9666"/>
<polygon fill="midnightblue" stroke="midnightblue" points="1741.39,-62.5895 1751.84,-60.8658 1742.59,-55.6943 1741.39,-62.5895"/>
</g>
<!-- Node19 -->
<g id="node19" class="node"><title>Node19</title>
<g id="a_node19"><a xlink:href="init__X_8cc.html" target="_top" xlink:title="Enter brief description of file here.">
<polygon fill="none" stroke="black" points="1553.5,-0.5 1553.5,-19.5 1608.5,-19.5 1608.5,-0.5 1553.5,-0.5"/>
<text text-anchor="middle" x="1581" y="-7.5" font-family="Helvetica,sans-Serif" font-size="10.00">init_X.cc</text>
</a>
</g>
</g>
<!-- Node1&#45;&gt;Node19 -->
<g id="edge18" class="edge"><title>Node1&#45;&gt;Node19</title>
<path fill="none" stroke="midnightblue" d="M1741.66,-55.4898C1703.83,-45.0143 1643.74,-28.3729 1608.76,-18.6876"/>
<polygon fill="midnightblue" stroke="midnightblue" points="1741.13,-58.9742 1751.7,-58.27 1742.99,-52.2281 1741.13,-58.9742"/>
</g>
<!-- Node20 -->
<g id="node20" class="node"><title>Node20</title>
<g id="a_node20"><a xlink:href="lambda__residuals_8cc.html" target="_top" xlink:title="Enter brief description of file here.">
<polygon fill="none" stroke="black" points="1627,-0.5 1627,-19.5 1733,-19.5 1733,-0.5 1627,-0.5"/>
<text text-anchor="middle" x="1680" y="-7.5" font-family="Helvetica,sans-Serif" font-size="10.00">lambda_residuals.cc</text>
</a>
</g>
</g>
<!-- Node1&#45;&gt;Node20 -->
<g id="edge19" class="edge"><title>Node1&#45;&gt;Node20</title>
<path fill="none" stroke="midnightblue" d="M1751.43,-51.1774C1733.76,-41.2407 1710.49,-28.1492 1695.39,-19.6545"/>
<polygon fill="midnightblue" stroke="midnightblue" points="1750.14,-54.4718 1760.58,-56.324 1753.58,-48.3708 1750.14,-54.4718"/>
</g>
<!-- Node21 -->
<g id="node21" class="node"><title>Node21</title>
<g id="a_node21"><a xlink:href="LCX_8cc.html" target="_top" xlink:title="Enter brief description of file here.">
<polygon fill="none" stroke="black" points="1751,-0.5 1751,-19.5 1801,-19.5 1801,-0.5 1751,-0.5"/>
<text text-anchor="middle" x="1776" y="-7.5" font-family="Helvetica,sans-Serif" font-size="10.00">LCX.cc</text>
</a>
</g>
</g>
<!-- Node1&#45;&gt;Node21 -->
<g id="edge20" class="edge"><title>Node1&#45;&gt;Node21</title>
<path fill="none" stroke="midnightblue" d="M1776,-45.8045C1776,-36.9102 1776,-26.7798 1776,-19.7511"/>
<polygon fill="midnightblue" stroke="midnightblue" points="1772.5,-46.083 1776,-56.083 1779.5,-46.083 1772.5,-46.083"/>
</g>
<!-- Node22 -->
<g id="node22" class="node"><title>Node22</title>
<g id="a_node22"><a xlink:href="LHX1Y1_8cc.html" target="_top" xlink:title="Enter brief description of file here.">
<polygon fill="none" stroke="black" points="1819.5,-0.5 1819.5,-19.5 1886.5,-19.5 1886.5,-0.5 1819.5,-0.5"/>
<text text-anchor="middle" x="1853" y="-7.5" font-family="Helvetica,sans-Serif" font-size="10.00">LHX1Y1.cc</text>
</a>
</g>
</g>
<!-- Node1&#45;&gt;Node22 -->
<g id="edge21" class="edge"><title>Node1&#45;&gt;Node22</title>
<path fill="none" stroke="midnightblue" d="M1796.9,-50.3422C1810.91,-40.5169 1828.88,-27.9132 1840.66,-19.6545"/>
<polygon fill="midnightblue" stroke="midnightblue" points="1794.55,-47.7166 1788.37,-56.324 1798.57,-53.4477 1794.55,-47.7166"/>
</g>
<!-- Node23 -->
<g id="node23" class="node"><title>Node23</title>
<g id="a_node23"><a xlink:href="LHX1Y2_8cc.html" target="_top" xlink:title="Enter brief description of file here.">
<polygon fill="none" stroke="black" points="1904.5,-0.5 1904.5,-19.5 1971.5,-19.5 1971.5,-0.5 1904.5,-0.5"/>
<text text-anchor="middle" x="1938" y="-7.5" font-family="Helvetica,sans-Serif" font-size="10.00">LHX1Y2.cc</text>
</a>
</g>
</g>
<!-- Node1&#45;&gt;Node23 -->
<g id="edge22" class="edge"><title>Node1&#45;&gt;Node23</title>
<path fill="none" stroke="midnightblue" d="M1810.03,-53.6565C1840.52,-43.4921 1884.59,-28.8048 1912.24,-19.5865"/>
<polygon fill="midnightblue" stroke="midnightblue" points="1808.63,-50.4329 1800.25,-56.9157 1810.85,-57.0737 1808.63,-50.4329"/>
</g>
<!-- Node24 -->
<g id="node24" class="node"><title>Node24</title>
<g id="a_node24"><a xlink:href="LHX2Y2_8cc.html" target="_top" xlink:title="Enter brief description of file here.">
<polygon fill="none" stroke="black" points="1989.5,-0.5 1989.5,-19.5 2056.5,-19.5 2056.5,-0.5 1989.5,-0.5"/>
<text text-anchor="middle" x="2023" y="-7.5" font-family="Helvetica,sans-Serif" font-size="10.00">LHX2Y2.cc</text>
</a>
</g>
</g>
<!-- Node1&#45;&gt;Node24 -->
<g id="edge23" class="edge"><title>Node1&#45;&gt;Node24</title>
<path fill="none" stroke="midnightblue" d="M1810.19,-57.5254C1857.5,-47.1825 1942.39,-28.6225 1989.39,-18.3475"/>
<polygon fill="midnightblue" stroke="midnightblue" points="1809.15,-54.1688 1800.13,-59.7239 1810.65,-61.0073 1809.15,-54.1688"/>
</g>
<!-- Node25 -->
<g id="node25" class="node"><title>Node25</title>
<g id="a_node25"><a xlink:href="linresp_8cc.html" target="_top" xlink:title="Enter brief description of file here.">
<polygon fill="none" stroke="black" points="2074.5,-0.5 2074.5,-19.5 2133.5,-19.5 2133.5,-0.5 2074.5,-0.5"/>
<text text-anchor="middle" x="2104" y="-7.5" font-family="Helvetica,sans-Serif" font-size="10.00">linresp.cc</text>
</a>
</g>
</g>
<!-- Node1&#45;&gt;Node25 -->
<g id="edge24" class="edge"><title>Node1&#45;&gt;Node25</title>
<path fill="none" stroke="midnightblue" d="M1810.17,-60.4948C1864.4,-53.1632 1973.39,-37.6795 2065,-20 2068,-19.4207 2071.12,-18.7746 2074.24,-18.1019"/>
<polygon fill="midnightblue" stroke="midnightblue" points="1809.53,-57.0503 1800.08,-61.8507 1810.46,-63.988 1809.53,-57.0503"/>
</g>
<!-- Node26 -->
<g id="node26" class="node"><title>Node26</title>
<g id="a_node26"><a xlink:href="bin_2ccresponse_2local_8cc.html" target="_top" xlink:title="Enter brief description of file here.">
<polygon fill="none" stroke="black" points="2152,-0.5 2152,-19.5 2202,-19.5 2202,-0.5 2152,-0.5"/>
<text text-anchor="middle" x="2177" y="-7.5" font-family="Helvetica,sans-Serif" font-size="10.00">local.cc</text>
</a>
</g>
</g>
<!-- Node1&#45;&gt;Node26 -->
<g id="edge25" class="edge"><title>Node1&#45;&gt;Node26</title>
<path fill="none" stroke="midnightblue" d="M1810.24,-62.2792C1875.29,-56.782 2021.04,-42.8888 2142,-20 2145.21,-19.3934 2148.55,-18.6619 2151.85,-17.8813"/>
<polygon fill="midnightblue" stroke="midnightblue" points="1809.82,-58.8019 1800.15,-63.1193 1810.4,-65.7778 1809.82,-58.8019"/>
</g>
<!-- Node27 -->
<g id="node27" class="node"><title>Node27</title>
<g id="a_node27"><a xlink:href="ccresponse_2optrot_8cc.html" target="_top" xlink:title="Compute optical rotations using the CC linear response formalism.">
<polygon fill="none" stroke="black" points="2220.5,-0.5 2220.5,-19.5 2275.5,-19.5 2275.5,-0.5 2220.5,-0.5"/>
<text text-anchor="middle" x="2248" y="-7.5" font-family="Helvetica,sans-Serif" font-size="10.00">optrot.cc</text>
</a>
</g>
</g>
<!-- Node1&#45;&gt;Node27 -->
<g id="edge26" class="edge"><title>Node1&#45;&gt;Node27</title>
<path fill="none" stroke="midnightblue" d="M1810.31,-63.0371C1884.06,-58.4707 2063.03,-45.5291 2211,-20 2214,-19.483 2217.11,-18.8612 2220.2,-18.1889"/>
<polygon fill="midnightblue" stroke="midnightblue" points="1809.98,-59.5508 1800.21,-63.6506 1810.4,-66.5379 1809.98,-59.5508"/>
</g>
<!-- Node28 -->
<g id="node28" class="node"><title>Node28</title>
<g id="a_node28"><a xlink:href="pertbar_8cc.html" target="_top" xlink:title="Enter brief description of file here.">
<polygon fill="none" stroke="black" points="2294,-0.5 2294,-19.5 2354,-19.5 2354,-0.5 2294,-0.5"/>
<text text-anchor="middle" x="2324" y="-7.5" font-family="Helvetica,sans-Serif" font-size="10.00">pertbar.cc</text>
</a>
</g>
</g>
<!-- Node1&#45;&gt;Node28 -->
<g id="edge27" class="edge"><title>Node1&#45;&gt;Node28</title>
<path fill="none" stroke="midnightblue" d="M1810.22,-63.5413C1892.36,-59.6991 2106.96,-47.6332 2284,-20 2287.24,-19.4951 2290.6,-18.881 2293.94,-18.2133"/>
<polygon fill="midnightblue" stroke="midnightblue" points="1810.03,-60.0464 1800.2,-63.9998 1810.35,-67.039 1810.03,-60.0464"/>
</g>
<!-- Node29 -->
<g id="node29" class="node"><title>Node29</title>
<g id="a_node29"><a xlink:href="ccresponse_2polar_8cc.html" target="_top" xlink:title="Enter brief description of file here.">
<polygon fill="none" stroke="black" points="2372.5,-0.5 2372.5,-19.5 2423.5,-19.5 2423.5,-0.5 2372.5,-0.5"/>
<text text-anchor="middle" x="2398" y="-7.5" font-family="Helvetica,sans-Serif" font-size="10.00">polar.cc</text>
</a>
</g>
</g>
<!-- Node1&#45;&gt;Node29 -->
<g id="edge28" class="edge"><title>Node1&#45;&gt;Node29</title>
<path fill="none" stroke="midnightblue" d="M1810.5,-64.4604C1901.47,-62.5842 2155.16,-54.4167 2363,-20 2366.09,-19.4875 2369.32,-18.8319 2372.5,-18.1086"/>
<polygon fill="midnightblue" stroke="midnightblue" points="1810.15,-60.9663 1800.22,-64.6593 1810.29,-67.965 1810.15,-60.9663"/>
</g>
<!-- Node30 -->
<g id="node30" class="node"><title>Node30</title>
<g id="a_node30"><a xlink:href="preppert_8cc.html" target="_top" xlink:title="Enter brief description of file here.">
<polygon fill="none" stroke="black" points="2441.5,-0.5 2441.5,-19.5 2506.5,-19.5 2506.5,-0.5 2441.5,-0.5"/>
<text text-anchor="middle" x="2474" y="-7.5" font-family="Helvetica,sans-Serif" font-size="10.00">preppert.cc</text>
</a>
</g>
</g>
<!-- Node1&#45;&gt;Node30 -->
<g id="edge29" class="edge"><title>Node1&#45;&gt;Node30</title>
<path fill="none" stroke="midnightblue" d="M1810.44,-64.3656C1908.24,-62.1931 2195.83,-53.231 2432,-20 2434.95,-19.5844 2438.01,-19.0789 2441.06,-18.5218"/>
<polygon fill="midnightblue" stroke="midnightblue" points="1810.18,-60.8703 1800.25,-64.5823 1810.33,-67.8687 1810.18,-60.8703"/>
</g>
<!-- Node31 -->
<g id="node31" class="node"><title>Node31</title>
<g id="a_node31"><a xlink:href="print__X_8cc.html" target="_top" xlink:title="Enter brief description of file here.">
<polygon fill="none" stroke="black" points="2524.5,-0.5 2524.5,-19.5 2585.5,-19.5 2585.5,-0.5 2524.5,-0.5"/>
<text text-anchor="middle" x="2555" y="-7.5" font-family="Helvetica,sans-Serif" font-size="10.00">print_X.cc</text>
</a>
</g>
</g>
<!-- Node1&#45;&gt;Node31 -->
<g id="edge30" class="edge"><title>Node1&#45;&gt;Node31</title>
<path fill="none" stroke="midnightblue" d="M1810.12,-64.864C1915.55,-64.029 2245.25,-58.3074 2515,-20 2517.96,-19.5797 2521.03,-19.055 2524.08,-18.4716"/>
<polygon fill="midnightblue" stroke="midnightblue" points="1810.04,-61.3644 1800.07,-64.9338 1810.09,-68.3642 1810.04,-61.3644"/>
</g>
<!-- Node32 -->
<g id="node32" class="node"><title>Node32</title>
<g id="a_node32"><a xlink:href="pseudopolar_8cc.html" target="_top" xlink:title="Enter brief description of file here.">
<polygon fill="none" stroke="black" points="2603.5,-0.5 2603.5,-19.5 2686.5,-19.5 2686.5,-0.5 2603.5,-0.5"/>
<text text-anchor="middle" x="2645" y="-7.5" font-family="Helvetica,sans-Serif" font-size="10.00">pseudopolar.cc</text>
</a>
</g>
</g>
<!-- Node1&#45;&gt;Node32 -->
<g id="edge31" class="edge"><title>Node1&#45;&gt;Node32</title>
<path fill="none" stroke="midnightblue" d="M1810.26,-64.5816C1922.85,-62.8941 2291.5,-54.8846 2594,-20 2597.04,-19.6498 2600.17,-19.2339 2603.31,-18.7758"/>
<polygon fill="midnightblue" stroke="midnightblue" points="1810.13,-61.0831 1800.18,-64.7259 1810.23,-68.0824 1810.13,-61.0831"/>
</g>
<!-- Node33 -->
<g id="node33" class="node"><title>Node33</title>
<g id="a_node33"><a xlink:href="roa_8cc.html" target="_top" xlink:title="Compute the three tensors needed for Raman Optical Activity.">
<polygon fill="none" stroke="black" points="2705,-0.5 2705,-19.5 2749,-19.5 2749,-0.5 2705,-0.5"/>
<text text-anchor="middle" x="2727" y="-7.5" font-family="Helvetica,sans-Serif" font-size="10.00">roa.cc</text>
</a>
</g>
</g>
<!-- Node1&#45;&gt;Node33 -->
<g id="edge32" class="edge"><title>Node1&#45;&gt;Node33</title>
<path fill="none" stroke="midnightblue" d="M1810.21,-64.3558C1955.21,-61.4665 2519.66,-48.5754 2695,-20 2698.19,-19.4802 2701.52,-18.7571 2704.76,-17.9446"/>
<polygon fill="midnightblue" stroke="midnightblue" points="1810.06,-60.8581 1800.13,-64.554 1810.19,-67.8567 1810.06,-60.8581"/>
</g>
<!-- Node34 -->
<g id="node34" class="node"><title>Node34</title>
<g id="a_node34"><a xlink:href="save__X_8cc.html" target="_top" xlink:title="Enter brief description of file here.">
<polygon fill="none" stroke="black" points="2767.5,-0.5 2767.5,-19.5 2830.5,-19.5 2830.5,-0.5 2767.5,-0.5"/>
<text text-anchor="middle" x="2799" y="-7.5" font-family="Helvetica,sans-Serif" font-size="10.00">save_X.cc</text>
</a>
</g>
</g>
<!-- Node1&#45;&gt;Node34 -->
<g id="edge33" class="edge"><title>Node1&#45;&gt;Node34</title>
<path fill="none" stroke="midnightblue" d="M1810.05,-64.2187C1960.78,-60.6407 2568.8,-44.9159 2758,-20 2761.03,-19.6004 2764.18,-19.0896 2767.31,-18.515"/>
<polygon fill="midnightblue" stroke="midnightblue" points="1809.92,-60.7208 1800,-64.4553 1810.08,-67.7189 1809.92,-60.7208"/>
</g>
<!-- Node35 -->
<g id="node35" class="node"><title>Node35</title>
<g id="a_node35"><a xlink:href="sort__lamps_8cc.html" target="_top" xlink:title="Enter brief description of file here.">
<polygon fill="none" stroke="black" points="2849,-0.5 2849,-19.5 2927,-19.5 2927,-0.5 2849,-0.5"/>
<text text-anchor="middle" x="2888" y="-7.5" font-family="Helvetica,sans-Serif" font-size="10.00">sort_lamps.cc</text>
</a>
</g>
</g>
<!-- Node1&#45;&gt;Node35 -->
<g id="edge34" class="edge"><title>Node1&#45;&gt;Node35</title>
<path fill="none" stroke="midnightblue" d="M1810.4,-65.2812C1943.37,-66.0011 2436.4,-65.2722 2839,-20 2842.18,-19.6424 2845.46,-19.2002 2848.76,-18.7052"/>
<polygon fill="midnightblue" stroke="midnightblue" points="1810.07,-61.7792 1800.04,-65.218 1810.02,-68.7791 1810.07,-61.7792"/>
</g>
<!-- Node36 -->
<g id="node36" class="node"><title>Node36</title>
<g id="a_node36"><a xlink:href="ccresponse_2sort__pert_8cc.html" target="_top" xlink:title="Enter brief description of file here.">
<polygon fill="none" stroke="black" points="2945,-0.5 2945,-19.5 3013,-19.5 3013,-0.5 2945,-0.5"/>
<text text-anchor="middle" x="2979" y="-7.5" font-family="Helvetica,sans-Serif" font-size="10.00">sort_pert.cc</text>
</a>
</g>
</g>
<!-- Node1&#45;&gt;Node36 -->
<g id="edge35" class="edge"><title>Node1&#45;&gt;Node36</title>
<path fill="none" stroke="midnightblue" d="M1810.66,-64.4392C1978.73,-61.6005 2709.93,-47.8441 2936,-20 2938.88,-19.6457 2941.85,-19.1983 2944.82,-18.6932"/>
<polygon fill="midnightblue" stroke="midnightblue" points="1810.36,-60.9438 1800.42,-64.6105 1810.47,-67.9428 1810.36,-60.9438"/>
</g>
<!-- Node37 -->
<g id="node37" class="node"><title>Node37</title>
<g id="a_node37"><a xlink:href="sort__X_8cc.html" target="_top" xlink:title="Enter brief description of file here.">
<polygon fill="none" stroke="black" points="3031.5,-0.5 3031.5,-19.5 3090.5,-19.5 3090.5,-0.5 3031.5,-0.5"/>
<text text-anchor="middle" x="3061" y="-7.5" font-family="Helvetica,sans-Serif" font-size="10.00">sort_X.cc</text>
</a>
</g>
</g>
<!-- Node1&#45;&gt;Node37 -->
<g id="edge36" class="edge"><title>Node1&#45;&gt;Node37</title>
<path fill="none" stroke="midnightblue" d="M1810.41,-64.6444C1985.44,-62.7002 2778.18,-52.2363 3022,-20 3025.03,-19.5993 3028.17,-19.0704 3031.3,-18.4693"/>
<polygon fill="midnightblue" stroke="midnightblue" points="1810.2,-61.1464 1800.24,-64.7554 1810.27,-68.1459 1810.2,-61.1464"/>
</g>
<!-- Node38 -->
<g id="node38" class="node"><title>Node38</title>
<g id="a_node38"><a xlink:href="update__X_8cc.html" target="_top" xlink:title="Enter brief description of file here.">
<polygon fill="none" stroke="black" points="3108.5,-0.5 3108.5,-19.5 3179.5,-19.5 3179.5,-0.5 3108.5,-0.5"/>
<text text-anchor="middle" x="3144" y="-7.5" font-family="Helvetica,sans-Serif" font-size="10.00">update_X.cc</text>
</a>
</g>
</g>
<!-- Node1&#45;&gt;Node38 -->
<g id="edge37" class="edge"><title>Node1&#45;&gt;Node38</title>
<path fill="none" stroke="midnightblue" d="M1810.19,-64.5943C1991.14,-62.3322 2838.52,-50.2718 3099,-20 3102.01,-19.6505 3105.11,-19.2065 3108.22,-18.7036"/>
<polygon fill="midnightblue" stroke="midnightblue" points="1810.14,-61.0946 1800.18,-64.7179 1810.22,-68.0941 1810.14,-61.0946"/>
</g>
<!-- Node39 -->
<g id="node39" class="node"><title>Node39</title>
<g id="a_node39"><a xlink:href="X1_8cc.html" target="_top" xlink:title="Enter brief description of file here.">
<polygon fill="none" stroke="black" points="3198,-0.5 3198,-19.5 3240,-19.5 3240,-0.5 3198,-0.5"/>
<text text-anchor="middle" x="3219" y="-7.5" font-family="Helvetica,sans-Serif" font-size="10.00">X1.cc</text>
</a>
</g>
</g>
<!-- Node1&#45;&gt;Node39 -->
<g id="edge38" class="edge"><title>Node1&#45;&gt;Node39</title>
<path fill="none" stroke="midnightblue" d="M1810.42,-65.0709C1999.21,-65.2831 2910.57,-63.9765 3188,-20 3191.21,-19.4911 3194.56,-18.7508 3197.81,-17.9102"/>
<polygon fill="midnightblue" stroke="midnightblue" points="1810.26,-61.5708 1800.25,-65.0572 1810.25,-68.5708 1810.26,-61.5708"/>
</g>
<!-- Node40 -->
<g id="node40" class="node"><title>Node40</title>
<g id="a_node40"><a xlink:href="X2_8cc.html" target="_top" xlink:title="Enter brief description of file here.">
<polygon fill="none" stroke="black" points="3258,-0.5 3258,-19.5 3300,-19.5 3300,-0.5 3258,-0.5"/>
<text text-anchor="middle" x="3279" y="-7.5" font-family="Helvetica,sans-Serif" font-size="10.00">X2.cc</text>
</a>
</g>
</g>
<!-- Node1&#45;&gt;Node40 -->
<g id="edge39" class="edge"><title>Node1&#45;&gt;Node40</title>
<path fill="none" stroke="midnightblue" d="M1810.37,-65.1646C2003.86,-65.9077 2959.01,-67.0955 3249,-20 3251.9,-19.5293 3254.91,-18.8567 3257.86,-18.0884"/>
<polygon fill="midnightblue" stroke="midnightblue" points="1810.23,-61.6641 1800.22,-65.1233 1810.2,-68.6641 1810.23,-61.6641"/>
</g>
</g>
</svg>
        <g id="navigator" transform="translate(0 0)" fill="#404254">
                <rect fill="#f2f5e9" fill-opacity="0.5" stroke="#606060" stroke-width=".5" x="0" y="0" width="60" height="60"/>
                <use id="zoomplus" xlink:href="#zoomPlus" x="17" y="9" onmousedown="handleZoom(evt,'in')"/>
                <use id="zoomminus" xlink:href="#zoomMin" x="42" y="9" onmousedown="handleZoom(evt,'out')"/>
                <use id="reset" xlink:href="#resetDef" x="30" y="36" onmousedown="handleReset()"/>
                <g id="arrowUp" xlink:href="#dirArrow" transform="translate(30 24)" onmousedown="handlePan(0,-1)">
                  <use xlink:href="#rim" fill="#404040">
                        <set attributeName="fill" to="#808080" begin="arrowUp.mouseover" end="arrowUp.mouseout"/>
                  </use>
                  <path fill="none" stroke="white" stroke-width="1.5" d="M0,-3.0v7 M-2.5,-0.5L0,-3.0L2.5,-0.5"/>
                </g>
                <g id="arrowRight" xlink:href="#dirArrow" transform="rotate(90) translate(36 -43)" onmousedown="handlePan(1,0)">
                  <use xlink:href="#rim" fill="#404040">
                        <set attributeName="fill" to="#808080" begin="arrowRight.mouseover" end="arrowRight.mouseout"/>
                  </use>
                  <path fill="none" stroke="white" stroke-width="1.5" d="M0,-3.0v7 M-2.5,-0.5L0,-3.0L2.5,-0.5"/>
                </g>
                <g id="arrowDown" xlink:href="#dirArrow" transform="rotate(180) translate(-30 -48)" onmousedown="handlePan(0,1)">
                  <use xlink:href="#rim" fill="#404040">
                        <set attributeName="fill" to="#808080" begin="arrowDown.mouseover" end="arrowDown.mouseout"/>
                  </use>
                  <path fill="none" stroke="white" stroke-width="1.5" d="M0,-3.0v7 M-2.5,-0.5L0,-3.0L2.5,-0.5"/>
                </g>
                <g id="arrowLeft" xlink:href="#dirArrow" transform="rotate(270) translate(-36 17)" onmousedown="handlePan(-1,0)">
                  <use xlink:href="#rim" fill="#404040">
                        <set attributeName="fill" to="#808080" begin="arrowLeft.mouseover" end="arrowLeft.mouseout"/>
                  </use>
                  <path fill="none" stroke="white" stroke-width="1.5" d="M0,-3.0v7 M-2.5,-0.5L0,-3.0L2.5,-0.5"/>
                </g>
        </g>
        <svg viewBox="0 0 15 15" width="100%" height="30px" preserveAspectRatio="xMaxYMin meet">
         <g id="arrow_out" transform="scale(0.3 0.3)">
          <a xlink:href="ccresponse_2Local_8h__dep__incl_org.svg" target="_base">
           <rect id="button" ry="5" rx="5" y="6" x="6" height="38" width="38"
                fill="#f2f5e9" fill-opacity="0.5" stroke="#606060" stroke-width="1.0"/>
           <path id="arrow"
             d="M 11.500037,31.436501 C 11.940474,20.09759 22.043105,11.32322 32.158766,21.979434 L 37.068811,17.246167 C 37.068811,17.246167 37.088388,32 37.088388,32 L 22.160133,31.978069 C 22.160133,31.978069 26.997745,27.140456 26.997745,27.140456 C 18.528582,18.264221 13.291696,25.230495 11.500037,31.436501 z"
             style="fill:#404040;"/>
          </a>
         </g>
        </svg>
</svg>
