<?xml version="1.0" encoding="UTF-8" standalone="no"?>
<!DOCTYPE svg PUBLIC "-//W3C//DTD SVG 1.1//EN"
 "http://www.w3.org/Graphics/SVG/1.1/DTD/svg11.dtd">
<!-- Generated by graphviz version 2.30.1 (20140110.0959)
 -->
<!-- Title: globals.h Pages: 1 -->
<svg width="2977pt" height="84pt"
 viewBox="0.00 0.00 2977.00 84.00" xmlns="http://www.w3.org/2000/svg" xmlns:xlink="http://www.w3.org/1999/xlink">
<g id="graph0" class="graph" transform="scale(1 1) rotate(0) translate(4 80)">
<title>globals.h</title>
<!-- Node1 -->
<g id="node1" class="node"><title>Node1</title>
<polygon fill="#bfbfbf" stroke="black" points="1437,-56.5 1437,-75.5 1493,-75.5 1493,-56.5 1437,-56.5"/>
<text text-anchor="middle" x="1465" y="-63.5" font-family="Helvetica,sans-Serif" font-size="10.00">globals.h</text>
</g>
<!-- Node2 -->
<g id="node2" class="node"><title>Node2</title>
<g id="a_node2"><a xlink:href="b__sort_8cc.html" target="_top" xlink:title="Enter brief description of file here.">
<polygon fill="none" stroke="black" points="-0.5,-0.5 -0.5,-19.5 56.5,-19.5 56.5,-0.5 -0.5,-0.5"/>
<text text-anchor="middle" x="28" y="-7.5" font-family="Helvetica,sans-Serif" font-size="10.00">b_sort.cc</text>
</a>
</g>
</g>
<!-- Node1&#45;&gt;Node2 -->
<g id="edge1" class="edge"><title>Node1&#45;&gt;Node2</title>
<path fill="none" stroke="midnightblue" d="M1426.85,-64.8383C1231.19,-63.8469 339.016,-57.322 65,-20 62.2488,-19.6253 59.4045,-19.1313 56.5715,-18.5672"/>
<polygon fill="midnightblue" stroke="midnightblue" points="1426.91,-68.3386 1436.93,-64.8875 1426.95,-61.3386 1426.91,-68.3386"/>
</g>
<!-- Node3 -->
<g id="node3" class="node"><title>Node3</title>
<g id="a_node3"><a xlink:href="build__abcd__packed_8cc.html" target="_top" xlink:title="Enter brief description of file here.">
<polygon fill="none" stroke="black" points="74.5,-0.5 74.5,-19.5 187.5,-19.5 187.5,-0.5 74.5,-0.5"/>
<text text-anchor="middle" x="131" y="-7.5" font-family="Helvetica,sans-Serif" font-size="10.00">build_abcd_packed.cc</text>
</a>
</g>
</g>
<!-- Node1&#45;&gt;Node3 -->
<g id="edge2" class="edge"><title>Node1&#45;&gt;Node3</title>
<path fill="none" stroke="midnightblue" d="M1426.41,-65.0671C1271.54,-65.0329 680.186,-61.9949 196,-20 193.276,-19.7637 190.492,-19.4927 187.682,-19.1954"/>
<polygon fill="midnightblue" stroke="midnightblue" points="1426.8,-68.5671 1436.8,-65.0648 1426.8,-61.5671 1426.8,-68.5671"/>
</g>
<!-- Node4 -->
<g id="node4" class="node"><title>Node4</title>
<g id="a_node4"><a xlink:href="ccsort_2build__B__RHF_8cc.html" target="_top" xlink:title="Enter brief description of file here.">
<polygon fill="none" stroke="black" points="205.5,-0.5 205.5,-19.5 294.5,-19.5 294.5,-0.5 205.5,-0.5"/>
<text text-anchor="middle" x="250" y="-7.5" font-family="Helvetica,sans-Serif" font-size="10.00">build_B_RHF.cc</text>
</a>
</g>
</g>
<!-- Node1&#45;&gt;Node4 -->
<g id="edge3" class="edge"><title>Node1&#45;&gt;Node4</title>
<path fill="none" stroke="midnightblue" d="M1426.34,-65.271C1279.58,-65.9254 743.009,-64.9102 304,-20 300.974,-19.6905 297.861,-19.3177 294.73,-18.9024"/>
<polygon fill="midnightblue" stroke="midnightblue" points="1426.64,-68.7697 1436.62,-65.2194 1426.6,-61.7698 1426.64,-68.7697"/>
</g>
<!-- Node5 -->
<g id="node5" class="node"><title>Node5</title>
<g id="a_node5"><a xlink:href="build__F__RHF_8cc.html" target="_top" xlink:title="Enter brief description of file here.">
<polygon fill="none" stroke="black" points="313,-0.5 313,-19.5 401,-19.5 401,-0.5 313,-0.5"/>
<text text-anchor="middle" x="357" y="-7.5" font-family="Helvetica,sans-Serif" font-size="10.00">build_F_RHF.cc</text>
</a>
</g>
</g>
<!-- Node1&#45;&gt;Node5 -->
<g id="edge4" class="edge"><title>Node1&#45;&gt;Node5</title>
<path fill="none" stroke="midnightblue" d="M1426.73,-65.0996C1289,-65.0903 805.781,-61.8775 410,-20 407.123,-19.6956 404.165,-19.3329 401.189,-18.9305"/>
<polygon fill="midnightblue" stroke="midnightblue" points="1426.78,-68.5996 1436.78,-65.0944 1426.78,-61.5996 1426.78,-68.5996"/>
</g>
<!-- Node6 -->
<g id="node6" class="node"><title>Node6</title>
<g id="a_node6"><a xlink:href="c__sort_8cc.html" target="_top" xlink:title="Enter brief description of file here.">
<polygon fill="none" stroke="black" points="419.5,-0.5 419.5,-19.5 476.5,-19.5 476.5,-0.5 419.5,-0.5"/>
<text text-anchor="middle" x="448" y="-7.5" font-family="Helvetica,sans-Serif" font-size="10.00">c_sort.cc</text>
</a>
</g>
</g>
<!-- Node1&#45;&gt;Node6 -->
<g id="edge5" class="edge"><title>Node1&#45;&gt;Node6</title>
<path fill="none" stroke="midnightblue" d="M1426.43,-64.1894C1268.74,-60.7262 672.538,-46.1436 486,-20 482.912,-19.5671 479.706,-18.9993 476.525,-18.3588"/>
<polygon fill="midnightblue" stroke="midnightblue" points="1426.52,-67.6921 1436.6,-64.4105 1426.68,-60.6937 1426.52,-67.6921"/>
</g>
<!-- Node7 -->
<g id="node7" class="node"><title>Node7</title>
<g id="a_node7"><a xlink:href="cc__memcheck_8cc.html" target="_top" xlink:title="Enter brief description of file here.">
<polygon fill="none" stroke="black" points="495,-0.5 495,-19.5 589,-19.5 589,-0.5 495,-0.5"/>
<text text-anchor="middle" x="542" y="-7.5" font-family="Helvetica,sans-Serif" font-size="10.00">cc_memcheck.cc</text>
</a>
</g>
</g>
<!-- Node1&#45;&gt;Node7 -->
<g id="edge6" class="edge"><title>Node1&#45;&gt;Node7</title>
<path fill="none" stroke="midnightblue" d="M1426.56,-64.4771C1304.82,-62.5065 916.993,-53.8127 598,-20 595.062,-19.6886 592.044,-19.3266 589.005,-18.9301"/>
<polygon fill="midnightblue" stroke="midnightblue" points="1426.79,-67.9811 1436.85,-64.6377 1426.9,-60.982 1426.79,-67.9811"/>
</g>
<!-- Node8 -->
<g id="node8" class="node"><title>Node8</title>
<g id="a_node8"><a xlink:href="ccsort_8cc.html" target="_top" xlink:title="Enter brief description of file here.">
<polygon fill="none" stroke="black" points="607.5,-0.5 607.5,-19.5 664.5,-19.5 664.5,-0.5 607.5,-0.5"/>
<text text-anchor="middle" x="636" y="-7.5" font-family="Helvetica,sans-Serif" font-size="10.00">ccsort.cc</text>
</a>
</g>
</g>
<!-- Node1&#45;&gt;Node8 -->
<g id="edge7" class="edge"><title>Node1&#45;&gt;Node8</title>
<path fill="none" stroke="midnightblue" d="M1426.75,-65.1967C1312.04,-65.2794 961.079,-61.8307 674,-20 670.914,-19.5503 667.71,-18.9717 664.53,-18.3249"/>
<polygon fill="midnightblue" stroke="midnightblue" points="1426.8,-68.6967 1436.8,-65.1797 1426.79,-61.6967 1426.8,-68.6967"/>
</g>
<!-- Node9 -->
<g id="node9" class="node"><title>Node9</title>
<g id="a_node9"><a xlink:href="ccsort_2classify_8cc.html" target="_top" xlink:title="Enter brief description of file here.">
<polygon fill="none" stroke="black" points="683,-0.5 683,-19.5 747,-19.5 747,-0.5 683,-0.5"/>
<text text-anchor="middle" x="715" y="-7.5" font-family="Helvetica,sans-Serif" font-size="10.00">classify.cc</text>
</a>
</g>
</g>
<!-- Node1&#45;&gt;Node9 -->
<g id="edge8" class="edge"><title>Node1&#45;&gt;Node9</title>
<path fill="none" stroke="midnightblue" d="M1426.52,-64.618C1319.62,-63.1136 1010.17,-55.7491 756,-20 753.113,-19.594 750.128,-19.0951 747.145,-18.5424"/>
<polygon fill="midnightblue" stroke="midnightblue" points="1426.76,-68.1213 1436.81,-64.7531 1426.86,-61.1219 1426.76,-68.1213"/>
</g>
<!-- Node10 -->
<g id="node10" class="node"><title>Node10</title>
<g id="a_node10"><a xlink:href="cphf__B_8cc.html" target="_top" xlink:title="Enter brief description of file here.">
<polygon fill="none" stroke="black" points="765.5,-0.5 765.5,-19.5 826.5,-19.5 826.5,-0.5 765.5,-0.5"/>
<text text-anchor="middle" x="796" y="-7.5" font-family="Helvetica,sans-Serif" font-size="10.00">cphf_B.cc</text>
</a>
</g>
</g>
<!-- Node1&#45;&gt;Node10 -->
<g id="edge9" class="edge"><title>Node1&#45;&gt;Node10</title>
<path fill="none" stroke="midnightblue" d="M1426.88,-64.2603C1328.53,-61.9224 1058.33,-52.776 836,-20 833.042,-19.564 829.979,-19.0288 826.923,-18.4387"/>
<polygon fill="midnightblue" stroke="midnightblue" points="1426.86,-67.7606 1436.94,-64.4895 1427.02,-60.7624 1426.86,-67.7606"/>
</g>
<!-- Node11 -->
<g id="node11" class="node"><title>Node11</title>
<g id="a_node11"><a xlink:href="cphf__F_8cc.html" target="_top" xlink:title="Enter brief description of file here.">
<polygon fill="none" stroke="black" points="845,-0.5 845,-19.5 905,-19.5 905,-0.5 845,-0.5"/>
<text text-anchor="middle" x="875" y="-7.5" font-family="Helvetica,sans-Serif" font-size="10.00">cphf_F.cc</text>
</a>
</g>
</g>
<!-- Node1&#45;&gt;Node11 -->
<g id="edge10" class="edge"><title>Node1&#45;&gt;Node11</title>
<path fill="none" stroke="midnightblue" d="M1426.73,-63.7881C1336.78,-60.5243 1105.12,-49.696 914,-20 911.116,-19.5519 908.129,-19.0086 905.15,-18.4134"/>
<polygon fill="midnightblue" stroke="midnightblue" points="1426.62,-67.2863 1436.73,-64.141 1426.86,-60.2906 1426.62,-67.2863"/>
</g>
<!-- Node12 -->
<g id="node12" class="node"><title>Node12</title>
<g id="a_node12"><a xlink:href="d__sort_8cc.html" target="_top" xlink:title="Enter brief description of file here.">
<polygon fill="none" stroke="black" points="923.5,-0.5 923.5,-19.5 980.5,-19.5 980.5,-0.5 923.5,-0.5"/>
<text text-anchor="middle" x="952" y="-7.5" font-family="Helvetica,sans-Serif" font-size="10.00">d_sort.cc</text>
</a>
</g>
</g>
<!-- Node1&#45;&gt;Node12 -->
<g id="edge11" class="edge"><title>Node1&#45;&gt;Node12</title>
<path fill="none" stroke="midnightblue" d="M1426.69,-63.2572C1345.5,-59.1532 1150.39,-47.1109 989,-20 986.262,-19.54 983.426,-18.9887 980.599,-18.3884"/>
<polygon fill="midnightblue" stroke="midnightblue" points="1426.76,-66.7649 1436.92,-63.7626 1427.1,-59.7734 1426.76,-66.7649"/>
</g>
<!-- Node13 -->
<g id="node13" class="node"><title>Node13</title>
<g id="a_node13"><a xlink:href="d__spinad_8cc.html" target="_top" xlink:title="Enter brief description of file here.">
<polygon fill="none" stroke="black" points="998.5,-0.5 998.5,-19.5 1067.5,-19.5 1067.5,-0.5 998.5,-0.5"/>
<text text-anchor="middle" x="1033" y="-7.5" font-family="Helvetica,sans-Serif" font-size="10.00">d_spinad.cc</text>
</a>
</g>
</g>
<!-- Node1&#45;&gt;Node13 -->
<g id="edge12" class="edge"><title>Node1&#45;&gt;Node13</title>
<path fill="none" stroke="midnightblue" d="M1426.45,-61.7148C1356.4,-55.4847 1203.66,-40.7001 1076,-20 1073.29,-19.5605 1070.49,-19.0667 1067.68,-18.5424"/>
<polygon fill="midnightblue" stroke="midnightblue" points="1426.3,-65.2151 1436.57,-62.6063 1426.91,-58.2421 1426.3,-65.2151"/>
</g>
<!-- Node14 -->
<g id="node14" class="node"><title>Node14</title>
<g id="a_node14"><a xlink:href="ccsort_2denom_8cc.html" target="_top" xlink:title="Enter brief description of file here.">
<polygon fill="none" stroke="black" points="1085.5,-0.5 1085.5,-19.5 1144.5,-19.5 1144.5,-0.5 1085.5,-0.5"/>
<text text-anchor="middle" x="1115" y="-7.5" font-family="Helvetica,sans-Serif" font-size="10.00">denom.cc</text>
</a>
</g>
</g>
<!-- Node1&#45;&gt;Node14 -->
<g id="edge13" class="edge"><title>Node1&#45;&gt;Node14</title>
<path fill="none" stroke="midnightblue" d="M1427.05,-60.5415C1368.3,-53.4066 1251.88,-38.3427 1154,-20 1150.99,-19.4368 1147.87,-18.8014 1144.76,-18.1352"/>
<polygon fill="midnightblue" stroke="midnightblue" points="1426.65,-64.018 1436.99,-61.7399 1427.48,-57.0683 1426.65,-64.018"/>
</g>
<!-- Node15 -->
<g id="node15" class="node"><title>Node15</title>
<g id="a_node15"><a xlink:href="ccsort_2distribute_8cc.html" target="_top" xlink:title="Enter brief description of file here.">
<polygon fill="none" stroke="black" points="1163,-0.5 1163,-19.5 1233,-19.5 1233,-0.5 1163,-0.5"/>
<text text-anchor="middle" x="1198" y="-7.5" font-family="Helvetica,sans-Serif" font-size="10.00">distribute.cc</text>
</a>
</g>
</g>
<!-- Node1&#45;&gt;Node15 -->
<g id="edge14" class="edge"><title>Node1&#45;&gt;Node15</title>
<path fill="none" stroke="midnightblue" d="M1426.77,-57.3175C1382.35,-48.3837 1306.86,-33.1768 1242,-20 1239.1,-19.4101 1236.09,-18.797 1233.06,-18.1806"/>
<polygon fill="midnightblue" stroke="midnightblue" points="1426.34,-60.8007 1436.83,-59.3409 1427.72,-53.9381 1426.34,-60.8007"/>
</g>
<!-- Node16 -->
<g id="node16" class="node"><title>Node16</title>
<g id="a_node16"><a xlink:href="domain__print_8cc.html" target="_top" xlink:title="Enter brief description of file here.">
<polygon fill="none" stroke="black" points="1251,-0.5 1251,-19.5 1337,-19.5 1337,-0.5 1251,-0.5"/>
<text text-anchor="middle" x="1294" y="-7.5" font-family="Helvetica,sans-Serif" font-size="10.00">domain_print.cc</text>
</a>
</g>
</g>
<!-- Node1&#45;&gt;Node16 -->
<g id="edge15" class="edge"><title>Node1&#45;&gt;Node16</title>
<path fill="none" stroke="midnightblue" d="M1427.96,-53.3044C1395.74,-43.1294 1349.81,-28.6246 1320.97,-19.5164"/>
<polygon fill="midnightblue" stroke="midnightblue" points="1427.31,-56.7697 1437.9,-56.4435 1429.42,-50.0946 1427.31,-56.7697"/>
</g>
<!-- Node17 -->
<g id="node17" class="node"><title>Node17</title>
<g id="a_node17"><a xlink:href="e__sort_8cc.html" target="_top" xlink:title="Enter brief description of file here.">
<polygon fill="none" stroke="black" points="1355.5,-0.5 1355.5,-19.5 1412.5,-19.5 1412.5,-0.5 1355.5,-0.5"/>
<text text-anchor="middle" x="1384" y="-7.5" font-family="Helvetica,sans-Serif" font-size="10.00">e_sort.cc</text>
</a>
</g>
</g>
<!-- Node1&#45;&gt;Node17 -->
<g id="edge16" class="edge"><title>Node1&#45;&gt;Node17</title>
<path fill="none" stroke="midnightblue" d="M1443.43,-50.6221C1428.64,-40.7574 1409.49,-27.9919 1396.98,-19.6545"/>
<polygon fill="midnightblue" stroke="midnightblue" points="1441.72,-53.6891 1451.99,-56.324 1445.61,-47.8647 1441.72,-53.6891"/>
</g>
<!-- Node18 -->
<g id="node18" class="node"><title>Node18</title>
<g id="a_node18"><a xlink:href="e__spinad_8cc.html" target="_top" xlink:title="Enter brief description of file here.">
<polygon fill="none" stroke="black" points="1430.5,-0.5 1430.5,-19.5 1499.5,-19.5 1499.5,-0.5 1430.5,-0.5"/>
<text text-anchor="middle" x="1465" y="-7.5" font-family="Helvetica,sans-Serif" font-size="10.00">e_spinad.cc</text>
</a>
</g>
</g>
<!-- Node1&#45;&gt;Node18 -->
<g id="edge17" class="edge"><title>Node1&#45;&gt;Node18</title>
<path fill="none" stroke="midnightblue" d="M1465,-45.8045C1465,-36.9102 1465,-26.7798 1465,-19.7511"/>
<polygon fill="midnightblue" stroke="midnightblue" points="1461.5,-46.083 1465,-56.083 1468.5,-46.083 1461.5,-46.083"/>
</g>
<!-- Node19 -->
<g id="node19" class="node"><title>Node19</title>
<g id="a_node19"><a xlink:href="f__sort_8cc.html" target="_top" xlink:title="Enter brief description of file here.">
<polygon fill="none" stroke="black" points="1517.5,-0.5 1517.5,-19.5 1572.5,-19.5 1572.5,-0.5 1517.5,-0.5"/>
<text text-anchor="middle" x="1545" y="-7.5" font-family="Helvetica,sans-Serif" font-size="10.00">f_sort.cc</text>
</a>
</g>
</g>
<!-- Node1&#45;&gt;Node19 -->
<g id="edge18" class="edge"><title>Node1&#45;&gt;Node19</title>
<path fill="none" stroke="midnightblue" d="M1486.3,-50.6221C1500.92,-40.7574 1519.83,-27.9919 1532.18,-19.6545"/>
<polygon fill="midnightblue" stroke="midnightblue" points="1484.18,-47.8282 1477.85,-56.324 1488.1,-53.6302 1484.18,-47.8282"/>
</g>
<!-- Node20 -->
<g id="node20" class="node"><title>Node20</title>
<g id="a_node20"><a xlink:href="f__spinad_8cc.html" target="_top" xlink:title="Enter brief description of file here.">
<polygon fill="none" stroke="black" points="1590.5,-0.5 1590.5,-19.5 1657.5,-19.5 1657.5,-0.5 1590.5,-0.5"/>
<text text-anchor="middle" x="1624" y="-7.5" font-family="Helvetica,sans-Serif" font-size="10.00">f_spinad.cc</text>
</a>
</g>
</g>
<!-- Node1&#45;&gt;Node20 -->
<g id="edge19" class="edge"><title>Node1&#45;&gt;Node20</title>
<path fill="none" stroke="midnightblue" d="M1499.83,-53.172C1529.77,-43.0039 1572.22,-28.5852 1598.92,-19.5164"/>
<polygon fill="midnightblue" stroke="midnightblue" points="1498.54,-49.9136 1490.19,-56.4435 1500.79,-56.5417 1498.54,-49.9136"/>
</g>
<!-- Node21 -->
<g id="node21" class="node"><title>Node21</title>
<g id="a_node21"><a xlink:href="ccsort_2file__build_8cc.html" target="_top" xlink:title="Enter brief description of file here.">
<polygon fill="none" stroke="black" points="1676,-0.5 1676,-19.5 1744,-19.5 1744,-0.5 1676,-0.5"/>
<text text-anchor="middle" x="1710" y="-7.5" font-family="Helvetica,sans-Serif" font-size="10.00">file_build.cc</text>
</a>
</g>
</g>
<!-- Node1&#45;&gt;Node21 -->
<g id="edge20" class="edge"><title>Node1&#45;&gt;Node21</title>
<path fill="none" stroke="midnightblue" d="M1502.97,-56.6314C1550.31,-46.1963 1630.53,-28.5149 1675.97,-18.5014"/>
<polygon fill="midnightblue" stroke="midnightblue" points="1502.12,-53.2351 1493.1,-58.8055 1503.62,-60.071 1502.12,-53.2351"/>
</g>
<!-- Node22 -->
<g id="node22" class="node"><title>Node22</title>
<g id="a_node22"><a xlink:href="file__build__multipass_8cc.html" target="_top" xlink:title="Enter brief description of file here.">
<polygon fill="none" stroke="black" points="1762,-0.5 1762,-19.5 1878,-19.5 1878,-0.5 1762,-0.5"/>
<text text-anchor="middle" x="1820" y="-7.5" font-family="Helvetica,sans-Serif" font-size="10.00">file_build_multipass.cc</text>
</a>
</g>
</g>
<!-- Node1&#45;&gt;Node22 -->
<g id="edge21" class="edge"><title>Node1&#45;&gt;Node22</title>
<path fill="none" stroke="midnightblue" d="M1503.41,-59.1568C1566.26,-49.5966 1691.33,-30.5718 1764.05,-19.5114"/>
<polygon fill="midnightblue" stroke="midnightblue" points="1502.51,-55.7535 1493.15,-60.7176 1503.57,-62.6739 1502.51,-55.7535"/>
</g>
<!-- Node23 -->
<g id="node23" class="node"><title>Node23</title>
<g id="a_node23"><a xlink:href="ccsort_2file__build__presort_8cc.html" target="_top" xlink:title="Enter brief description of file here.">
<polygon fill="none" stroke="black" points="1896,-0.5 1896,-19.5 2000,-19.5 2000,-0.5 1896,-0.5"/>
<text text-anchor="middle" x="1948" y="-7.5" font-family="Helvetica,sans-Serif" font-size="10.00">file_build_presort.cc</text>
</a>
</g>
</g>
<!-- Node1&#45;&gt;Node23 -->
<g id="edge22" class="edge"><title>Node1&#45;&gt;Node23</title>
<path fill="none" stroke="midnightblue" d="M1503.45,-61.4222C1577.7,-54.3985 1745.93,-37.9213 1887,-20 1889.87,-19.6358 1892.81,-19.2482 1895.78,-18.8464"/>
<polygon fill="midnightblue" stroke="midnightblue" points="1502.82,-57.9661 1493.2,-62.389 1503.48,-64.9352 1502.82,-57.9661"/>
</g>
<!-- Node24 -->
<g id="node24" class="node"><title>Node24</title>
<g id="a_node24"><a xlink:href="bin_2ccsort_2fock_8cc.html" target="_top" xlink:title="Enter brief description of file here.">
<polygon fill="none" stroke="black" points="2018.5,-0.5 2018.5,-19.5 2067.5,-19.5 2067.5,-0.5 2018.5,-0.5"/>
<text text-anchor="middle" x="2043" y="-7.5" font-family="Helvetica,sans-Serif" font-size="10.00">fock.cc</text>
</a>
</g>
</g>
<!-- Node1&#45;&gt;Node24 -->
<g id="edge23" class="edge"><title>Node1&#45;&gt;Node24</title>
<path fill="none" stroke="midnightblue" d="M1503.45,-64.1434C1592.81,-61.648 1821.21,-52.3608 2009,-20 2012.01,-19.4815 2015.14,-18.8222 2018.23,-18.097"/>
<polygon fill="midnightblue" stroke="midnightblue" points="1503.15,-60.6499 1493.25,-64.4152 1503.34,-67.6474 1503.15,-60.6499"/>
</g>
<!-- Node25 -->
<g id="node25" class="node"><title>Node25</title>
<g id="a_node25"><a xlink:href="ccsort_2get__moinfo_8cc.html" target="_top" xlink:title="Enter brief description of file here.">
<polygon fill="none" stroke="black" points="2086,-0.5 2086,-19.5 2164,-19.5 2164,-0.5 2086,-0.5"/>
<text text-anchor="middle" x="2125" y="-7.5" font-family="Helvetica,sans-Serif" font-size="10.00">get_moinfo.cc</text>
</a>
</g>
</g>
<!-- Node1&#45;&gt;Node25 -->
<g id="edge24" class="edge"><title>Node1&#45;&gt;Node25</title>
<path fill="none" stroke="midnightblue" d="M1503.27,-63.6205C1599.71,-59.8318 1860.42,-47.6541 2076,-20 2079.17,-19.5928 2082.45,-19.1153 2085.74,-18.5964"/>
<polygon fill="midnightblue" stroke="midnightblue" points="1502.98,-60.1288 1493.12,-64.0116 1503.25,-67.1236 1502.98,-60.1288"/>
</g>
<!-- Node26 -->
<g id="node26" class="node"><title>Node26</title>
<g id="a_node26"><a xlink:href="bin_2ccsort_2get__params_8cc.html" target="_top" xlink:title="Enter brief description of file here.">
<polygon fill="none" stroke="black" points="2182.5,-0.5 2182.5,-19.5 2263.5,-19.5 2263.5,-0.5 2182.5,-0.5"/>
<text text-anchor="middle" x="2223" y="-7.5" font-family="Helvetica,sans-Serif" font-size="10.00">get_params.cc</text>
</a>
</g>
</g>
<!-- Node1&#45;&gt;Node26 -->
<g id="edge25" class="edge"><title>Node1&#45;&gt;Node26</title>
<path fill="none" stroke="midnightblue" d="M1503.36,-64.1069C1609.94,-61.2926 1918.56,-50.8827 2173,-20 2176.06,-19.628 2179.23,-19.1896 2182.4,-18.7097"/>
<polygon fill="midnightblue" stroke="midnightblue" points="1503.01,-60.6146 1493.1,-64.3705 1503.19,-67.6123 1503.01,-60.6146"/>
</g>
<!-- Node27 -->
<g id="node27" class="node"><title>Node27</title>
<g id="a_node27"><a xlink:href="bin_2ccsort_2local_8cc.html" target="_top" xlink:title="Enter brief description of file here.">
<polygon fill="none" stroke="black" points="2282,-0.5 2282,-19.5 2332,-19.5 2332,-0.5 2282,-0.5"/>
<text text-anchor="middle" x="2307" y="-7.5" font-family="Helvetica,sans-Serif" font-size="10.00">local.cc</text>
</a>
</g>
</g>
<!-- Node1&#45;&gt;Node27 -->
<g id="edge26" class="edge"><title>Node1&#45;&gt;Node27</title>
<path fill="none" stroke="midnightblue" d="M1503.25,-65.5136C1619.55,-66.5099 1978.86,-65.4136 2272,-20 2275.22,-19.5005 2278.58,-18.8326 2281.89,-18.0853"/>
<polygon fill="midnightblue" stroke="midnightblue" points="1503.12,-62.0122 1493.08,-65.4154 1503.05,-69.0118 1503.12,-62.0122"/>
</g>
<!-- Node28 -->
<g id="node28" class="node"><title>Node28</title>
<g id="a_node28"><a xlink:href="local__magnetic_8cc.html" target="_top" xlink:title="Enter brief description of file here.">
<polygon fill="none" stroke="black" points="2350.5,-0.5 2350.5,-19.5 2445.5,-19.5 2445.5,-0.5 2350.5,-0.5"/>
<text text-anchor="middle" x="2398" y="-7.5" font-family="Helvetica,sans-Serif" font-size="10.00">local_magnetic.cc</text>
</a>
</g>
</g>
<!-- Node1&#45;&gt;Node28 -->
<g id="edge27" class="edge"><title>Node1&#45;&gt;Node28</title>
<path fill="none" stroke="midnightblue" d="M1503.42,-64.4688C1625.93,-62.4662 2018.28,-53.6723 2341,-20 2344.09,-19.6777 2347.27,-19.3015 2350.46,-18.8891"/>
<polygon fill="midnightblue" stroke="midnightblue" points="1503.01,-60.9746 1493.07,-64.632 1503.12,-67.9737 1503.01,-60.9746"/>
</g>
<!-- Node29 -->
<g id="node29" class="node"><title>Node29</title>
<g id="a_node29"><a xlink:href="local__polar_8cc.html" target="_top" xlink:title="Enter brief description of file here.">
<polygon fill="none" stroke="black" points="2463.5,-0.5 2463.5,-19.5 2540.5,-19.5 2540.5,-0.5 2463.5,-0.5"/>
<text text-anchor="middle" x="2502" y="-7.5" font-family="Helvetica,sans-Serif" font-size="10.00">local_polar.cc</text>
</a>
</g>
</g>
<!-- Node1&#45;&gt;Node29 -->
<g id="edge28" class="edge"><title>Node1&#45;&gt;Node29</title>
<path fill="none" stroke="midnightblue" d="M1503.06,-65.1789C1635.07,-65.3936 2085.38,-62.7322 2454,-20 2457.03,-19.6485 2460.16,-19.2179 2463.3,-18.7374"/>
<polygon fill="midnightblue" stroke="midnightblue" points="1503.05,-61.679 1493.04,-65.1559 1503.03,-68.679 1503.05,-61.679"/>
</g>
<!-- Node30 -->
<g id="node30" class="node"><title>Node30</title>
<g id="a_node30"><a xlink:href="scf__check_8cc.html" target="_top" xlink:title="Enter brief description of file here.">
<polygon fill="none" stroke="black" points="2558.5,-0.5 2558.5,-19.5 2633.5,-19.5 2633.5,-0.5 2558.5,-0.5"/>
<text text-anchor="middle" x="2596" y="-7.5" font-family="Helvetica,sans-Serif" font-size="10.00">scf_check.cc</text>
</a>
</g>
</g>
<!-- Node1&#45;&gt;Node30 -->
<g id="edge29" class="edge"><title>Node1&#45;&gt;Node30</title>
<path fill="none" stroke="midnightblue" d="M1503.41,-65.4506C1643.75,-66.6638 2141.89,-67.1666 2549,-20 2552.05,-19.6462 2555.21,-19.2067 2558.37,-18.7136"/>
<polygon fill="midnightblue" stroke="midnightblue" points="1503.21,-61.9487 1493.17,-65.3551 1503.14,-68.9483 1503.21,-61.9487"/>
</g>
<!-- Node31 -->
<g id="node31" class="node"><title>Node31</title>
<g id="a_node31"><a xlink:href="sort__oei_8cc.html" target="_top" xlink:title="Enter brief description of file here.">
<polygon fill="none" stroke="black" points="2651.5,-0.5 2651.5,-19.5 2716.5,-19.5 2716.5,-0.5 2651.5,-0.5"/>
<text text-anchor="middle" x="2684" y="-7.5" font-family="Helvetica,sans-Serif" font-size="10.00">sort_oei.cc</text>
</a>
</g>
</g>
<!-- Node1&#45;&gt;Node31 -->
<g id="edge30" class="edge"><title>Node1&#45;&gt;Node31</title>
<path fill="none" stroke="midnightblue" d="M1503.35,-64.4259C1679.73,-61.6491 2414.08,-48.5593 2642,-20 2644.96,-19.6291 2648.02,-19.1544 2651.08,-18.6174"/>
<polygon fill="midnightblue" stroke="midnightblue" points="1503.19,-60.9279 1493.25,-64.5833 1503.3,-67.927 1503.19,-60.9279"/>
</g>
<!-- Node32 -->
<g id="node32" class="node"><title>Node32</title>
<g id="a_node32"><a xlink:href="ccsort_2sort__pert_8cc.html" target="_top" xlink:title="Enter brief description of file here.">
<polygon fill="none" stroke="black" points="2735,-0.5 2735,-19.5 2803,-19.5 2803,-0.5 2735,-0.5"/>
<text text-anchor="middle" x="2769" y="-7.5" font-family="Helvetica,sans-Serif" font-size="10.00">sort_pert.cc</text>
</a>
</g>
</g>
<!-- Node1&#45;&gt;Node32 -->
<g id="edge31" class="edge"><title>Node1&#45;&gt;Node32</title>
<path fill="none" stroke="midnightblue" d="M1503.34,-64.4895C1687.18,-61.9103 2479.66,-49.2665 2725,-20 2728.25,-19.6121 2731.62,-19.1092 2734.98,-18.5396"/>
<polygon fill="midnightblue" stroke="midnightblue" points="1503.04,-60.9933 1493.08,-64.6317 1503.13,-67.9926 1503.04,-60.9933"/>
</g>
<!-- Node33 -->
<g id="node33" class="node"><title>Node33</title>
<g id="a_node33"><a xlink:href="sort__tei_8cc.html" target="_top" xlink:title="Enter brief description of file here.">
<polygon fill="none" stroke="black" points="2821,-0.5 2821,-19.5 2883,-19.5 2883,-0.5 2821,-0.5"/>
<text text-anchor="middle" x="2852" y="-7.5" font-family="Helvetica,sans-Serif" font-size="10.00">sort_tei.cc</text>
</a>
</g>
</g>
<!-- Node1&#45;&gt;Node33 -->
<g id="edge32" class="edge"><title>Node1&#45;&gt;Node33</title>
<path fill="none" stroke="midnightblue" d="M1503.21,-64.6934C1694.44,-63.0108 2548.77,-53.7063 2812,-20 2814.82,-19.6384 2817.74,-19.17 2820.66,-18.6371"/>
<polygon fill="midnightblue" stroke="midnightblue" points="1503.05,-61.1945 1493.09,-64.7807 1503.11,-68.1942 1503.05,-61.1945"/>
</g>
<!-- Node34 -->
<g id="node34" class="node"><title>Node34</title>
<g id="a_node34"><a xlink:href="ccsort_2transpert_8cc.html" target="_top" xlink:title="Enter brief description of file here.">
<polygon fill="none" stroke="black" points="2901,-0.5 2901,-19.5 2969,-19.5 2969,-0.5 2901,-0.5"/>
<text text-anchor="middle" x="2935" y="-7.5" font-family="Helvetica,sans-Serif" font-size="10.00">transpert.cc</text>
</a>
</g>
</g>
<!-- Node1&#45;&gt;Node34 -->
<g id="edge33" class="edge"><title>Node1&#45;&gt;Node34</title>
<path fill="none" stroke="midnightblue" d="M1503.22,-64.699C1701.22,-63.0019 2611.81,-53.4787 2892,-20 2894.88,-19.6561 2897.85,-19.2161 2900.82,-18.7159"/>
<polygon fill="midnightblue" stroke="midnightblue" points="1503,-61.2006 1493.03,-64.7848 1503.06,-68.2004 1503,-61.2006"/>
</g>
</g>
</svg>
