<?xml version="1.0" encoding="UTF-8" standalone="no"?>
<!DOCTYPE svg PUBLIC "-//W3C//DTD SVG 1.1//EN"
 "http://www.w3.org/Graphics/SVG/1.1/DTD/svg11.dtd">
<!-- Generated by graphviz version 2.30.1 (20140110.0959)
 -->
<!-- Title: globals.h Pages: 1 -->
<svg width="274pt" height="140pt"
 viewBox="0.00 0.00 274.00 140.00" xmlns="http://www.w3.org/2000/svg" xmlns:xlink="http://www.w3.org/1999/xlink">
<g id="graph0" class="graph" transform="scale(1 1) rotate(0) translate(4 136)">
<title>globals.h</title>
<!-- Node1 -->
<g id="node1" class="node"><title>Node1</title>
<polygon fill="#bfbfbf" stroke="black" points="94,-112.5 94,-131.5 150,-131.5 150,-112.5 94,-112.5"/>
<text text-anchor="middle" x="122" y="-119.5" font-family="Helvetica,sans-Serif" font-size="10.00">globals.h</text>
</g>
<!-- Node2 -->
<g id="node2" class="node"><title>Node2</title>
<g id="a_node2"><a xlink:href="psifiles_8h_source.html" target="_top" xlink:title="psifiles.h">
<polygon fill="none" stroke="black" points="0,-56.5 0,-75.5 56,-75.5 56,-56.5 0,-56.5"/>
<text text-anchor="middle" x="28" y="-63.5" font-family="Helvetica,sans-Serif" font-size="10.00">psifiles.h</text>
</a>
</g>
</g>
<!-- Node1&#45;&gt;Node2 -->
<g id="edge1" class="edge"><title>Node1&#45;&gt;Node2</title>
<path fill="none" stroke="midnightblue" d="M106.897,-112.324C92.0967,-103.822 69.3058,-90.7288 52.0178,-80.7975"/>
<polygon fill="midnightblue" stroke="midnightblue" points="53.4798,-77.6009 43.0652,-75.6545 49.9929,-83.6707 53.4798,-77.6009"/>
</g>
<!-- Node3 -->
<g id="node3" class="node"><title>Node3</title>
<g id="a_node3"><a xlink:href="psio_8h_source.html" target="_top" xlink:title="libpsio/psio.h">
<polygon fill="none" stroke="black" points="188,-56.5 188,-75.5 262,-75.5 262,-56.5 188,-56.5"/>
<text text-anchor="middle" x="225" y="-63.5" font-family="Helvetica,sans-Serif" font-size="10.00">libpsio/psio.h</text>
</a>
</g>
</g>
<!-- Node1&#45;&gt;Node3 -->
<g id="edge2" class="edge"><title>Node1&#45;&gt;Node3</title>
<path fill="none" stroke="midnightblue" d="M138.549,-112.324C154.992,-103.703 180.435,-90.3643 199.468,-80.3855"/>
<polygon fill="midnightblue" stroke="midnightblue" points="201.261,-83.3977 208.492,-75.6545 198.011,-77.198 201.261,-83.3977"/>
</g>
<!-- Node6 -->
<g id="node6" class="node"><title>Node6</title>
<g id="a_node6"><a xlink:href="libciomr_8h_source.html" target="_top" xlink:title="libciomr/libciomr.h">
<polygon fill="none" stroke="black" points="74.5,-56.5 74.5,-75.5 169.5,-75.5 169.5,-56.5 74.5,-56.5"/>
<text text-anchor="middle" x="122" y="-63.5" font-family="Helvetica,sans-Serif" font-size="10.00">libciomr/libciomr.h</text>
</a>
</g>
</g>
<!-- Node1&#45;&gt;Node6 -->
<g id="edge5" class="edge"><title>Node1&#45;&gt;Node6</title>
<path fill="none" stroke="midnightblue" d="M122,-112.083C122,-105.006 122,-94.8611 122,-85.9865"/>
<polygon fill="midnightblue" stroke="midnightblue" points="125.5,-85.751 122,-75.7511 118.5,-85.7511 125.5,-85.751"/>
</g>
<!-- Node4 -->
<g id="node4" class="node"><title>Node4</title>
<polygon fill="none" stroke="#bfbfbf" points="111.5,-0.5 111.5,-19.5 154.5,-19.5 154.5,-0.5 111.5,-0.5"/>
<text text-anchor="middle" x="133" y="-7.5" font-family="Helvetica,sans-Serif" font-size="10.00">cstdio</text>
</g>
<!-- Node3&#45;&gt;Node4 -->
<g id="edge3" class="edge"><title>Node3&#45;&gt;Node4</title>
<path fill="none" stroke="midnightblue" d="M210.219,-56.324C195.733,-47.8215 173.427,-34.7288 156.507,-24.7975"/>
<polygon fill="midnightblue" stroke="midnightblue" points="158.141,-21.6981 147.745,-19.6545 154.597,-27.735 158.141,-21.6981"/>
</g>
<!-- Node5 -->
<g id="node5" class="node"><title>Node5</title>
<g id="a_node5"><a xlink:href="libpsio_2config_8h_source.html" target="_top" xlink:title="libpsio/config.h">
<polygon fill="none" stroke="black" points="184,-0.5 184,-19.5 266,-19.5 266,-0.5 184,-0.5"/>
<text text-anchor="middle" x="225" y="-7.5" font-family="Helvetica,sans-Serif" font-size="10.00">libpsio/config.h</text>
</a>
</g>
</g>
<!-- Node3&#45;&gt;Node5 -->
<g id="edge4" class="edge"><title>Node3&#45;&gt;Node5</title>
<path fill="none" stroke="midnightblue" d="M225,-56.083C225,-49.0059 225,-38.8611 225,-29.9865"/>
<polygon fill="midnightblue" stroke="midnightblue" points="228.5,-29.751 225,-19.7511 221.5,-29.7511 228.5,-29.751"/>
</g>
<!-- Node6&#45;&gt;Node4 -->
<g id="edge6" class="edge"><title>Node6&#45;&gt;Node4</title>
<path fill="none" stroke="midnightblue" d="M123.816,-56.083C125.274,-48.9272 127.371,-38.6353 129.193,-29.6911"/>
<polygon fill="midnightblue" stroke="midnightblue" points="132.651,-30.2485 131.217,-19.7511 125.792,-28.8512 132.651,-30.2485"/>
</g>
</g>
</svg>
