<?xml version="1.0" encoding="UTF-8" standalone="no"?>
<!DOCTYPE svg PUBLIC "-//W3C//DTD SVG 1.1//EN"
 "http://www.w3.org/Graphics/SVG/1.1/DTD/svg11.dtd">
<!-- Generated by graphviz version 2.30.1 (20140110.0959)
 -->
<!-- Title: classify.cc Pages: 1 -->
<svg width="524pt" height="196pt"
 viewBox="0.00 0.00 524.00 196.00" xmlns="http://www.w3.org/2000/svg" xmlns:xlink="http://www.w3.org/1999/xlink">
<g id="graph0" class="graph" transform="scale(1 1) rotate(0) translate(4 192)">
<title>classify.cc</title>
<!-- Node1 -->
<g id="node1" class="node"><title>Node1</title>
<polygon fill="#bfbfbf" stroke="black" points="219,-168.5 219,-187.5 283,-187.5 283,-168.5 219,-168.5"/>
<text text-anchor="middle" x="251" y="-175.5" font-family="Helvetica,sans-Serif" font-size="10.00">classify.cc</text>
</g>
<!-- Node2 -->
<g id="node2" class="node"><title>Node2</title>
<polygon fill="none" stroke="#bfbfbf" points="-0.5,-0.5 -0.5,-19.5 42.5,-19.5 42.5,-0.5 -0.5,-0.5"/>
<text text-anchor="middle" x="21" y="-7.5" font-family="Helvetica,sans-Serif" font-size="10.00">cstdio</text>
</g>
<!-- Node1&#45;&gt;Node2 -->
<g id="edge1" class="edge"><title>Node1&#45;&gt;Node2</title>
<path fill="none" stroke="midnightblue" d="M218.583,-174.035C164.441,-168.501 58.7141,-155.026 30,-132 2.25926,-109.755 -1.04415,-91.0409 5,-56 6.56796,-46.9098 9.79476,-37.2219 12.9425,-29.1726"/>
<polygon fill="midnightblue" stroke="midnightblue" points="16.2649,-30.2993 16.8888,-19.7229 9.80551,-27.6018 16.2649,-30.2993"/>
</g>
<!-- Node3 -->
<g id="node3" class="node"><title>Node3</title>
<polygon fill="none" stroke="#bfbfbf" points="254.5,-112.5 254.5,-131.5 299.5,-131.5 299.5,-112.5 254.5,-112.5"/>
<text text-anchor="middle" x="277" y="-119.5" font-family="Helvetica,sans-Serif" font-size="10.00">cstdlib</text>
</g>
<!-- Node1&#45;&gt;Node3 -->
<g id="edge2" class="edge"><title>Node1&#45;&gt;Node3</title>
<path fill="none" stroke="midnightblue" d="M255.293,-168.083C258.852,-160.691 264.022,-149.953 268.424,-140.811"/>
<polygon fill="midnightblue" stroke="midnightblue" points="271.602,-142.279 272.787,-131.751 265.295,-139.243 271.602,-142.279"/>
</g>
<!-- Node4 -->
<g id="node4" class="node"><title>Node4</title>
<polygon fill="none" stroke="#bfbfbf" points="318,-112.5 318,-131.5 364,-131.5 364,-112.5 318,-112.5"/>
<text text-anchor="middle" x="341" y="-119.5" font-family="Helvetica,sans-Serif" font-size="10.00">cstring</text>
</g>
<!-- Node1&#45;&gt;Node4 -->
<g id="edge3" class="edge"><title>Node1&#45;&gt;Node4</title>
<path fill="none" stroke="midnightblue" d="M265.46,-168.324C279.5,-159.9 301.048,-146.971 317.543,-137.074"/>
<polygon fill="midnightblue" stroke="midnightblue" points="319.802,-139.801 326.576,-131.655 316.2,-133.798 319.802,-139.801"/>
</g>
<!-- Node5 -->
<g id="node5" class="node"><title>Node5</title>
<g id="a_node5"><a xlink:href="iwl_8h_source.html" target="_top" xlink:title="libiwl/iwl.h">
<polygon fill="none" stroke="black" points="39,-112.5 39,-131.5 101,-131.5 101,-112.5 39,-112.5"/>
<text text-anchor="middle" x="70" y="-119.5" font-family="Helvetica,sans-Serif" font-size="10.00">libiwl/iwl.h</text>
</a>
</g>
</g>
<!-- Node1&#45;&gt;Node5 -->
<g id="edge4" class="edge"><title>Node1&#45;&gt;Node5</title>
<path fill="none" stroke="midnightblue" d="M222.32,-168.444C191.473,-159.241 142.272,-144.562 108.171,-134.388"/>
<polygon fill="midnightblue" stroke="midnightblue" points="109.129,-131.021 98.5458,-131.516 107.128,-137.729 109.129,-131.021"/>
</g>
<!-- Node9 -->
<g id="node9" class="node"><title>Node9</title>
<g id="a_node9"><a xlink:href="libciomr_8h_source.html" target="_top" xlink:title="libciomr/libciomr.h">
<polygon fill="none" stroke="black" points="258.5,-56.5 258.5,-75.5 353.5,-75.5 353.5,-56.5 258.5,-56.5"/>
<text text-anchor="middle" x="306" y="-63.5" font-family="Helvetica,sans-Serif" font-size="10.00">libciomr/libciomr.h</text>
</a>
</g>
</g>
<!-- Node1&#45;&gt;Node9 -->
<g id="edge10" class="edge"><title>Node1&#45;&gt;Node9</title>
<path fill="none" stroke="midnightblue" d="M247.455,-168.461C242.658,-155.497 235.703,-130.411 245,-112 251.807,-98.5199 264.768,-88.083 276.998,-80.6696"/>
<polygon fill="midnightblue" stroke="midnightblue" points="279.07,-83.5214 286.094,-75.5896 275.657,-77.4099 279.07,-83.5214"/>
</g>
<!-- Node10 -->
<g id="node10" class="node"><title>Node10</title>
<g id="a_node10"><a xlink:href="ccsort_2MOInfo_8h.html" target="_top" xlink:title="Enter brief description of file here.">
<polygon fill="none" stroke="black" points="382.5,-112.5 382.5,-131.5 439.5,-131.5 439.5,-112.5 382.5,-112.5"/>
<text text-anchor="middle" x="411" y="-119.5" font-family="Helvetica,sans-Serif" font-size="10.00">MOInfo.h</text>
</a>
</g>
</g>
<!-- Node1&#45;&gt;Node10 -->
<g id="edge12" class="edge"><title>Node1&#45;&gt;Node10</title>
<path fill="none" stroke="midnightblue" d="M276.352,-168.444C303.269,-159.359 345.996,-144.939 376.087,-134.783"/>
<polygon fill="midnightblue" stroke="midnightblue" points="377.41,-138.031 385.766,-131.516 375.172,-131.398 377.41,-138.031"/>
</g>
<!-- Node11 -->
<g id="node11" class="node"><title>Node11</title>
<g id="a_node11"><a xlink:href="ccsort_2Params_8h.html" target="_top" xlink:title="Enter brief description of file here.">
<polygon fill="none" stroke="black" points="457.5,-112.5 457.5,-131.5 516.5,-131.5 516.5,-112.5 457.5,-112.5"/>
<text text-anchor="middle" x="487" y="-119.5" font-family="Helvetica,sans-Serif" font-size="10.00">Params.h</text>
</a>
</g>
</g>
<!-- Node1&#45;&gt;Node11 -->
<g id="edge13" class="edge"><title>Node1&#45;&gt;Node11</title>
<path fill="none" stroke="midnightblue" d="M283.08,-169.695C320.169,-161.245 383.32,-146.84 447.33,-132.15"/>
<polygon fill="midnightblue" stroke="midnightblue" points="448.228,-135.535 457.191,-129.886 446.661,-128.713 448.228,-135.535"/>
</g>
<!-- Node13 -->
<g id="node13" class="node"><title>Node13</title>
<g id="a_node13"><a xlink:href="ccsort_2globals_8h.html" target="_top" xlink:title="Enter brief description of file here.">
<polygon fill="none" stroke="black" points="142,-112.5 142,-131.5 198,-131.5 198,-112.5 142,-112.5"/>
<text text-anchor="middle" x="170" y="-119.5" font-family="Helvetica,sans-Serif" font-size="10.00">globals.h</text>
</a>
</g>
</g>
<!-- Node1&#45;&gt;Node13 -->
<g id="edge15" class="edge"><title>Node1&#45;&gt;Node13</title>
<path fill="none" stroke="midnightblue" d="M237.986,-168.324C225.468,-159.979 206.318,-147.212 191.529,-137.352"/>
<polygon fill="midnightblue" stroke="midnightblue" points="193.244,-134.289 182.982,-131.655 189.361,-140.114 193.244,-134.289"/>
</g>
<!-- Node5&#45;&gt;Node2 -->
<g id="edge5" class="edge"><title>Node5&#45;&gt;Node2</title>
<path fill="none" stroke="midnightblue" d="M51.9185,-112.39C38.4382,-104.872 21.0275,-92.5651 13,-76 5.95762,-61.4677 9.19211,-43.0528 13.4678,-29.5368"/>
<polygon fill="midnightblue" stroke="midnightblue" points="16.8377,-30.5096 16.9436,-19.9152 10.2541,-28.1312 16.8377,-30.5096"/>
</g>
<!-- Node6 -->
<g id="node6" class="node"><title>Node6</title>
<g id="a_node6"><a xlink:href="psio_8h_source.html" target="_top" xlink:title="libpsio/psio.h">
<polygon fill="none" stroke="black" points="92,-56.5 92,-75.5 166,-75.5 166,-56.5 92,-56.5"/>
<text text-anchor="middle" x="129" y="-63.5" font-family="Helvetica,sans-Serif" font-size="10.00">libpsio/psio.h</text>
</a>
</g>
</g>
<!-- Node5&#45;&gt;Node6 -->
<g id="edge6" class="edge"><title>Node5&#45;&gt;Node6</title>
<path fill="none" stroke="midnightblue" d="M79.4794,-112.324C88.2011,-104.341 101.343,-92.3128 111.898,-82.6529"/>
<polygon fill="midnightblue" stroke="midnightblue" points="114.334,-85.1674 119.348,-75.8339 109.608,-80.0036 114.334,-85.1674"/>
</g>
<!-- Node8 -->
<g id="node8" class="node"><title>Node8</title>
<g id="a_node8"><a xlink:href="libiwl_2config_8h_source.html" target="_top" xlink:title="config.h">
<polygon fill="none" stroke="black" points="22.5,-56.5 22.5,-75.5 73.5,-75.5 73.5,-56.5 22.5,-56.5"/>
<text text-anchor="middle" x="48" y="-63.5" font-family="Helvetica,sans-Serif" font-size="10.00">config.h</text>
</a>
</g>
</g>
<!-- Node5&#45;&gt;Node8 -->
<g id="edge9" class="edge"><title>Node5&#45;&gt;Node8</title>
<path fill="none" stroke="midnightblue" d="M66.3671,-112.083C63.3878,-104.77 59.0739,-94.1814 55.3755,-85.1034"/>
<polygon fill="midnightblue" stroke="midnightblue" points="58.5796,-83.6914 51.5653,-75.7511 52.097,-86.3326 58.5796,-83.6914"/>
</g>
<!-- Node6&#45;&gt;Node2 -->
<g id="edge7" class="edge"><title>Node6&#45;&gt;Node2</title>
<path fill="none" stroke="midnightblue" d="M111.648,-56.324C94.3281,-47.6641 67.4847,-34.2424 47.4981,-24.249"/>
<polygon fill="midnightblue" stroke="midnightblue" points="48.8186,-20.9962 38.309,-19.6545 45.688,-27.2572 48.8186,-20.9962"/>
</g>
<!-- Node7 -->
<g id="node7" class="node"><title>Node7</title>
<g id="a_node7"><a xlink:href="libpsio_2config_8h_source.html" target="_top" xlink:title="libpsio/config.h">
<polygon fill="none" stroke="black" points="88,-0.5 88,-19.5 170,-19.5 170,-0.5 88,-0.5"/>
<text text-anchor="middle" x="129" y="-7.5" font-family="Helvetica,sans-Serif" font-size="10.00">libpsio/config.h</text>
</a>
</g>
</g>
<!-- Node6&#45;&gt;Node7 -->
<g id="edge8" class="edge"><title>Node6&#45;&gt;Node7</title>
<path fill="none" stroke="midnightblue" d="M129,-56.083C129,-49.0059 129,-38.8611 129,-29.9865"/>
<polygon fill="midnightblue" stroke="midnightblue" points="132.5,-29.751 129,-19.7511 125.5,-29.7511 132.5,-29.751"/>
</g>
<!-- Node9&#45;&gt;Node2 -->
<g id="edge11" class="edge"><title>Node9&#45;&gt;Node2</title>
<path fill="none" stroke="midnightblue" d="M260.841,-56.4435C202.813,-45.4488 103.535,-26.6381 52.8331,-17.0315"/>
<polygon fill="midnightblue" stroke="midnightblue" points="53.2604,-13.5503 42.7836,-15.1274 51.9572,-20.4279 53.2604,-13.5503"/>
</g>
<!-- Node12 -->
<g id="node12" class="node"><title>Node12</title>
<polygon fill="none" stroke="#bfbfbf" points="466.5,-56.5 466.5,-75.5 507.5,-75.5 507.5,-56.5 466.5,-56.5"/>
<text text-anchor="middle" x="487" y="-63.5" font-family="Helvetica,sans-Serif" font-size="10.00">string</text>
</g>
<!-- Node11&#45;&gt;Node12 -->
<g id="edge14" class="edge"><title>Node11&#45;&gt;Node12</title>
<path fill="none" stroke="midnightblue" d="M487,-112.083C487,-105.006 487,-94.8611 487,-85.9865"/>
<polygon fill="midnightblue" stroke="midnightblue" points="490.5,-85.751 487,-75.7511 483.5,-85.7511 490.5,-85.751"/>
</g>
<!-- Node14 -->
<g id="node14" class="node"><title>Node14</title>
<g id="a_node14"><a xlink:href="psifiles_8h_source.html" target="_top" xlink:title="psifiles.h">
<polygon fill="none" stroke="black" points="184,-56.5 184,-75.5 240,-75.5 240,-56.5 184,-56.5"/>
<text text-anchor="middle" x="212" y="-63.5" font-family="Helvetica,sans-Serif" font-size="10.00">psifiles.h</text>
</a>
</g>
</g>
<!-- Node13&#45;&gt;Node14 -->
<g id="edge16" class="edge"><title>Node13&#45;&gt;Node14</title>
<path fill="none" stroke="midnightblue" d="M176.935,-112.083C182.929,-104.377 191.752,-93.0333 199.048,-83.6531"/>
<polygon fill="midnightblue" stroke="midnightblue" points="201.817,-85.7934 205.194,-75.7511 196.291,-81.4958 201.817,-85.7934"/>
</g>
<!-- Node13&#45;&gt;Node6 -->
<g id="edge17" class="edge"><title>Node13&#45;&gt;Node6</title>
<path fill="none" stroke="midnightblue" d="M163.23,-112.083C157.438,-104.455 148.942,-93.2645 141.862,-83.9408"/>
<polygon fill="midnightblue" stroke="midnightblue" points="144.479,-81.5991 135.644,-75.7511 138.904,-85.8321 144.479,-81.5991"/>
</g>
<!-- Node13&#45;&gt;Node9 -->
<g id="edge18" class="edge"><title>Node13&#45;&gt;Node9</title>
<path fill="none" stroke="midnightblue" d="M191.55,-112.444C214.031,-103.517 249.488,-89.4387 274.98,-79.3168"/>
<polygon fill="midnightblue" stroke="midnightblue" points="276.549,-82.4598 284.551,-75.5164 273.965,-75.9539 276.549,-82.4598"/>
</g>
</g>
</svg>
