<?xml version="1.0" encoding="UTF-8" standalone="no"?>
<!DOCTYPE svg PUBLIC "-//W3C//DTD SVG 1.1//EN"
 "http://www.w3.org/Graphics/SVG/1.1/DTD/svg11.dtd">
<!-- Generated by graphviz version 2.30.1 (20140110.0959)
 -->
<!-- Title: Params.h Pages: 1 -->
<svg width="1891pt" height="84pt"
 viewBox="0.00 0.00 1891.00 84.00" xmlns="http://www.w3.org/2000/svg" xmlns:xlink="http://www.w3.org/1999/xlink">
<g id="graph0" class="graph" transform="scale(1 1) rotate(0) translate(4 80)">
<title>Params.h</title>
<!-- Node1 -->
<g id="node1" class="node"><title>Node1</title>
<polygon fill="#bfbfbf" stroke="black" points="918.5,-56.5 918.5,-75.5 977.5,-75.5 977.5,-56.5 918.5,-56.5"/>
<text text-anchor="middle" x="948" y="-63.5" font-family="Helvetica,sans-Serif" font-size="10.00">Params.h</text>
</g>
<!-- Node2 -->
<g id="node2" class="node"><title>Node2</title>
<g id="a_node2"><a xlink:href="b__sort_8cc.html" target="_top" xlink:title="Enter brief description of file here.">
<polygon fill="none" stroke="black" points="-0.5,-0.5 -0.5,-19.5 56.5,-19.5 56.5,-0.5 -0.5,-0.5"/>
<text text-anchor="middle" x="28" y="-7.5" font-family="Helvetica,sans-Serif" font-size="10.00">b_sort.cc</text>
</a>
</g>
</g>
<!-- Node1&#45;&gt;Node2 -->
<g id="edge1" class="edge"><title>Node1&#45;&gt;Node2</title>
<path fill="none" stroke="midnightblue" d="M908.234,-65.6185C783.309,-66.9975 387.854,-67.0668 65,-20 62.2525,-19.5995 59.4105,-19.0881 56.5792,-18.513"/>
<polygon fill="midnightblue" stroke="midnightblue" points="908.502,-69.1156 918.459,-65.4957 908.418,-62.1161 908.502,-69.1156"/>
</g>
<!-- Node3 -->
<g id="node3" class="node"><title>Node3</title>
<g id="a_node3"><a xlink:href="build__abcd__packed_8cc.html" target="_top" xlink:title="Enter brief description of file here.">
<polygon fill="none" stroke="black" points="74.5,-0.5 74.5,-19.5 187.5,-19.5 187.5,-0.5 74.5,-0.5"/>
<text text-anchor="middle" x="131" y="-7.5" font-family="Helvetica,sans-Serif" font-size="10.00">build_abcd_packed.cc</text>
</a>
</g>
</g>
<!-- Node1&#45;&gt;Node3 -->
<g id="edge2" class="edge"><title>Node1&#45;&gt;Node3</title>
<path fill="none" stroke="midnightblue" d="M908.004,-63.7032C795.604,-59.8225 467.399,-46.8684 196,-20 193.279,-19.7306 190.497,-19.4327 187.689,-19.1138"/>
<polygon fill="midnightblue" stroke="midnightblue" points="908.086,-67.2079 918.199,-64.0506 908.324,-60.212 908.086,-67.2079"/>
</g>
<!-- Node4 -->
<g id="node4" class="node"><title>Node4</title>
<g id="a_node4"><a xlink:href="c__sort_8cc.html" target="_top" xlink:title="Enter brief description of file here.">
<polygon fill="none" stroke="black" points="205.5,-0.5 205.5,-19.5 262.5,-19.5 262.5,-0.5 205.5,-0.5"/>
<text text-anchor="middle" x="234" y="-7.5" font-family="Helvetica,sans-Serif" font-size="10.00">c_sort.cc</text>
</a>
</g>
</g>
<!-- Node1&#45;&gt;Node4 -->
<g id="edge3" class="edge"><title>Node1&#45;&gt;Node4</title>
<path fill="none" stroke="midnightblue" d="M908.389,-64.6546C803.797,-63.2487 511.793,-56.1218 272,-20 268.916,-19.5355 265.714,-18.9473 262.535,-18.2949"/>
<polygon fill="midnightblue" stroke="midnightblue" points="908.449,-68.1555 918.492,-64.7802 908.537,-61.1561 908.449,-68.1555"/>
</g>
<!-- Node5 -->
<g id="node5" class="node"><title>Node5</title>
<g id="a_node5"><a xlink:href="cc__memcheck_8cc.html" target="_top" xlink:title="Enter brief description of file here.">
<polygon fill="none" stroke="black" points="281,-0.5 281,-19.5 375,-19.5 375,-0.5 281,-0.5"/>
<text text-anchor="middle" x="328" y="-7.5" font-family="Helvetica,sans-Serif" font-size="10.00">cc_memcheck.cc</text>
</a>
</g>
</g>
<!-- Node1&#45;&gt;Node5 -->
<g id="edge4" class="edge"><title>Node1&#45;&gt;Node5</title>
<path fill="none" stroke="midnightblue" d="M908.237,-62.9204C815.929,-57.8543 580.034,-43.5352 384,-20 381.067,-19.6479 378.052,-19.2547 375.015,-18.8349"/>
<polygon fill="midnightblue" stroke="midnightblue" points="908.084,-66.4172 918.259,-63.4649 908.464,-59.4275 908.084,-66.4172"/>
</g>
<!-- Node6 -->
<g id="node6" class="node"><title>Node6</title>
<g id="a_node6"><a xlink:href="ccsort_8cc.html" target="_top" xlink:title="Enter brief description of file here.">
<polygon fill="none" stroke="black" points="393.5,-0.5 393.5,-19.5 450.5,-19.5 450.5,-0.5 393.5,-0.5"/>
<text text-anchor="middle" x="422" y="-7.5" font-family="Helvetica,sans-Serif" font-size="10.00">ccsort.cc</text>
</a>
</g>
</g>
<!-- Node1&#45;&gt;Node6 -->
<g id="edge5" class="edge"><title>Node1&#45;&gt;Node6</title>
<path fill="none" stroke="midnightblue" d="M908.33,-63.2351C824.885,-59.108 625.268,-47.0534 460,-20 456.922,-19.4962 453.724,-18.8829 450.547,-18.2156"/>
<polygon fill="midnightblue" stroke="midnightblue" points="908.23,-66.7343 918.387,-63.7217 908.568,-59.7424 908.23,-66.7343"/>
</g>
<!-- Node7 -->
<g id="node7" class="node"><title>Node7</title>
<g id="a_node7"><a xlink:href="ccsort_2classify_8cc.html" target="_top" xlink:title="Enter brief description of file here.">
<polygon fill="none" stroke="black" points="469,-0.5 469,-19.5 533,-19.5 533,-0.5 469,-0.5"/>
<text text-anchor="middle" x="501" y="-7.5" font-family="Helvetica,sans-Serif" font-size="10.00">classify.cc</text>
</a>
</g>
</g>
<!-- Node1&#45;&gt;Node7 -->
<g id="edge6" class="edge"><title>Node1&#45;&gt;Node7</title>
<path fill="none" stroke="midnightblue" d="M908.189,-61.9931C835.244,-56.172 675.39,-41.9695 542,-20 539.124,-19.5263 536.145,-18.9809 533.167,-18.3977"/>
<polygon fill="midnightblue" stroke="midnightblue" points="908.063,-65.4939 918.307,-62.791 908.613,-58.5156 908.063,-65.4939"/>
</g>
<!-- Node8 -->
<g id="node8" class="node"><title>Node8</title>
<g id="a_node8"><a xlink:href="d__sort_8cc.html" target="_top" xlink:title="Enter brief description of file here.">
<polygon fill="none" stroke="black" points="551.5,-0.5 551.5,-19.5 608.5,-19.5 608.5,-0.5 551.5,-0.5"/>
<text text-anchor="middle" x="580" y="-7.5" font-family="Helvetica,sans-Serif" font-size="10.00">d_sort.cc</text>
</a>
</g>
</g>
<!-- Node1&#45;&gt;Node8 -->
<g id="edge7" class="edge"><title>Node1&#45;&gt;Node8</title>
<path fill="none" stroke="midnightblue" d="M907.96,-60.9102C845.503,-54.2267 721.235,-39.7078 617,-20 614.272,-19.4842 611.443,-18.8953 608.62,-18.2714"/>
<polygon fill="midnightblue" stroke="midnightblue" points="907.85,-64.418 918.163,-61.991 908.587,-57.457 907.85,-64.418"/>
</g>
<!-- Node9 -->
<g id="node9" class="node"><title>Node9</title>
<g id="a_node9"><a xlink:href="d__spinad_8cc.html" target="_top" xlink:title="Enter brief description of file here.">
<polygon fill="none" stroke="black" points="626.5,-0.5 626.5,-19.5 695.5,-19.5 695.5,-0.5 626.5,-0.5"/>
<text text-anchor="middle" x="661" y="-7.5" font-family="Helvetica,sans-Serif" font-size="10.00">d_spinad.cc</text>
</a>
</g>
</g>
<!-- Node1&#45;&gt;Node9 -->
<g id="edge8" class="edge"><title>Node1&#45;&gt;Node9</title>
<path fill="none" stroke="midnightblue" d="M908.238,-57.9686C859.897,-49.3504 775.86,-34.1446 704,-20 701.306,-19.4697 698.519,-18.9106 695.719,-18.3412"/>
<polygon fill="midnightblue" stroke="midnightblue" points="907.825,-61.4501 918.284,-59.7563 909.052,-54.5583 907.825,-61.4501"/>
</g>
<!-- Node10 -->
<g id="node10" class="node"><title>Node10</title>
<g id="a_node10"><a xlink:href="ccsort_2denom_8cc.html" target="_top" xlink:title="Enter brief description of file here.">
<polygon fill="none" stroke="black" points="713.5,-0.5 713.5,-19.5 772.5,-19.5 772.5,-0.5 713.5,-0.5"/>
<text text-anchor="middle" x="743" y="-7.5" font-family="Helvetica,sans-Serif" font-size="10.00">denom.cc</text>
</a>
</g>
</g>
<!-- Node1&#45;&gt;Node10 -->
<g id="edge9" class="edge"><title>Node1&#45;&gt;Node10</title>
<path fill="none" stroke="midnightblue" d="M908.301,-54.5428C868.53,-44.0664 808.233,-28.1833 772.512,-18.7739"/>
<polygon fill="midnightblue" stroke="midnightblue" points="907.63,-57.9852 918.191,-57.1479 909.413,-51.2161 907.63,-57.9852"/>
</g>
<!-- Node11 -->
<g id="node11" class="node"><title>Node11</title>
<g id="a_node11"><a xlink:href="ccsort_2distribute_8cc.html" target="_top" xlink:title="Enter brief description of file here.">
<polygon fill="none" stroke="black" points="791,-0.5 791,-19.5 861,-19.5 861,-0.5 791,-0.5"/>
<text text-anchor="middle" x="826" y="-7.5" font-family="Helvetica,sans-Serif" font-size="10.00">distribute.cc</text>
</a>
</g>
</g>
<!-- Node1&#45;&gt;Node11 -->
<g id="edge10" class="edge"><title>Node1&#45;&gt;Node11</title>
<path fill="none" stroke="midnightblue" d="M919.461,-52.3678C896.614,-42.2553 865.195,-28.3486 845.241,-19.5164"/>
<polygon fill="midnightblue" stroke="midnightblue" points="918.108,-55.5965 928.669,-56.4435 920.941,-49.1955 918.108,-55.5965"/>
</g>
<!-- Node12 -->
<g id="node12" class="node"><title>Node12</title>
<g id="a_node12"><a xlink:href="e__sort_8cc.html" target="_top" xlink:title="Enter brief description of file here.">
<polygon fill="none" stroke="black" points="879.5,-0.5 879.5,-19.5 936.5,-19.5 936.5,-0.5 879.5,-0.5"/>
<text text-anchor="middle" x="908" y="-7.5" font-family="Helvetica,sans-Serif" font-size="10.00">e_sort.cc</text>
</a>
</g>
</g>
<!-- Node1&#45;&gt;Node12 -->
<g id="edge11" class="edge"><title>Node1&#45;&gt;Node12</title>
<path fill="none" stroke="midnightblue" d="M935.3,-47.8554C928.374,-38.5048 920.094,-27.3265 914.482,-19.7511"/>
<polygon fill="midnightblue" stroke="midnightblue" points="932.63,-50.1307 941.395,-56.083 938.255,-45.9641 932.63,-50.1307"/>
</g>
<!-- Node13 -->
<g id="node13" class="node"><title>Node13</title>
<g id="a_node13"><a xlink:href="e__spinad_8cc.html" target="_top" xlink:title="Enter brief description of file here.">
<polygon fill="none" stroke="black" points="954.5,-0.5 954.5,-19.5 1023.5,-19.5 1023.5,-0.5 954.5,-0.5"/>
<text text-anchor="middle" x="989" y="-7.5" font-family="Helvetica,sans-Serif" font-size="10.00">e_spinad.cc</text>
</a>
</g>
</g>
<!-- Node1&#45;&gt;Node13 -->
<g id="edge12" class="edge"><title>Node1&#45;&gt;Node13</title>
<path fill="none" stroke="midnightblue" d="M961.017,-47.8554C968.117,-38.5048 976.604,-27.3265 982.356,-19.7511"/>
<polygon fill="midnightblue" stroke="midnightblue" points="958.03,-46.002 954.77,-56.083 963.605,-50.235 958.03,-46.002"/>
</g>
<!-- Node14 -->
<g id="node14" class="node"><title>Node14</title>
<g id="a_node14"><a xlink:href="f__sort_8cc.html" target="_top" xlink:title="Enter brief description of file here.">
<polygon fill="none" stroke="black" points="1041.5,-0.5 1041.5,-19.5 1096.5,-19.5 1096.5,-0.5 1041.5,-0.5"/>
<text text-anchor="middle" x="1069" y="-7.5" font-family="Helvetica,sans-Serif" font-size="10.00">f_sort.cc</text>
</a>
</g>
</g>
<!-- Node1&#45;&gt;Node14 -->
<g id="edge13" class="edge"><title>Node1&#45;&gt;Node14</title>
<path fill="none" stroke="midnightblue" d="M976.306,-52.3678C998.965,-42.2553 1030.13,-28.3486 1049.92,-19.5164"/>
<polygon fill="midnightblue" stroke="midnightblue" points="974.878,-49.1719 967.173,-56.4435 977.731,-55.5643 974.878,-49.1719"/>
</g>
<!-- Node15 -->
<g id="node15" class="node"><title>Node15</title>
<g id="a_node15"><a xlink:href="f__spinad_8cc.html" target="_top" xlink:title="Enter brief description of file here.">
<polygon fill="none" stroke="black" points="1114.5,-0.5 1114.5,-19.5 1181.5,-19.5 1181.5,-0.5 1114.5,-0.5"/>
<text text-anchor="middle" x="1148" y="-7.5" font-family="Helvetica,sans-Serif" font-size="10.00">f_spinad.cc</text>
</a>
</g>
</g>
<!-- Node1&#45;&gt;Node15 -->
<g id="edge14" class="edge"><title>Node1&#45;&gt;Node15</title>
<path fill="none" stroke="midnightblue" d="M987.644,-54.2962C1025.41,-44.0986 1081.53,-28.9458 1116.39,-19.536"/>
<polygon fill="midnightblue" stroke="midnightblue" points="986.253,-51.0464 977.511,-57.0321 988.077,-57.8044 986.253,-51.0464"/>
</g>
<!-- Node16 -->
<g id="node16" class="node"><title>Node16</title>
<g id="a_node16"><a xlink:href="bin_2ccsort_2fock_8cc.html" target="_top" xlink:title="Enter brief description of file here.">
<polygon fill="none" stroke="black" points="1199.5,-0.5 1199.5,-19.5 1248.5,-19.5 1248.5,-0.5 1199.5,-0.5"/>
<text text-anchor="middle" x="1224" y="-7.5" font-family="Helvetica,sans-Serif" font-size="10.00">fock.cc</text>
</a>
</g>
</g>
<!-- Node1&#45;&gt;Node16 -->
<g id="edge15" class="edge"><title>Node1&#45;&gt;Node16</title>
<path fill="none" stroke="midnightblue" d="M987.566,-58.5792C1035.64,-50.5625 1119.11,-35.9491 1190,-20 1192.98,-19.3298 1196.09,-18.5781 1199.17,-17.8023"/>
<polygon fill="midnightblue" stroke="midnightblue" points="986.868,-55.1471 977.575,-60.2353 988.012,-62.0529 986.868,-55.1471"/>
</g>
<!-- Node17 -->
<g id="node17" class="node"><title>Node17</title>
<g id="a_node17"><a xlink:href="ccsort_2get__moinfo_8cc.html" target="_top" xlink:title="Enter brief description of file here.">
<polygon fill="none" stroke="black" points="1267,-0.5 1267,-19.5 1345,-19.5 1345,-0.5 1267,-0.5"/>
<text text-anchor="middle" x="1306" y="-7.5" font-family="Helvetica,sans-Serif" font-size="10.00">get_moinfo.cc</text>
</a>
</g>
</g>
<!-- Node1&#45;&gt;Node17 -->
<g id="edge16" class="edge"><title>Node1&#45;&gt;Node17</title>
<path fill="none" stroke="midnightblue" d="M987.894,-59.6711C1046.84,-51.689 1160.62,-35.864 1257,-20 1260.24,-19.4662 1263.6,-18.8926 1266.97,-18.3027"/>
<polygon fill="midnightblue" stroke="midnightblue" points="987.328,-56.2157 977.886,-61.0224 988.264,-63.1528 987.328,-56.2157"/>
</g>
<!-- Node18 -->
<g id="node18" class="node"><title>Node18</title>
<g id="a_node18"><a xlink:href="bin_2ccsort_2get__params_8cc.html" target="_top" xlink:title="Enter brief description of file here.">
<polygon fill="none" stroke="black" points="1363.5,-0.5 1363.5,-19.5 1444.5,-19.5 1444.5,-0.5 1363.5,-0.5"/>
<text text-anchor="middle" x="1404" y="-7.5" font-family="Helvetica,sans-Serif" font-size="10.00">get_params.cc</text>
</a>
</g>
</g>
<!-- Node1&#45;&gt;Node18 -->
<g id="edge17" class="edge"><title>Node1&#45;&gt;Node18</title>
<path fill="none" stroke="midnightblue" d="M987.734,-61.4966C1060.56,-54.8759 1220.22,-39.4318 1354,-20 1357.05,-19.5563 1360.21,-19.0656 1363.38,-18.5492"/>
<polygon fill="midnightblue" stroke="midnightblue" points="987.278,-58.0234 977.634,-62.4088 987.908,-64.9951 987.278,-58.0234"/>
</g>
<!-- Node19 -->
<g id="node19" class="node"><title>Node19</title>
<g id="a_node19"><a xlink:href="bin_2ccsort_2local_8cc.html" target="_top" xlink:title="Enter brief description of file here.">
<polygon fill="none" stroke="black" points="1463,-0.5 1463,-19.5 1513,-19.5 1513,-0.5 1463,-0.5"/>
<text text-anchor="middle" x="1488" y="-7.5" font-family="Helvetica,sans-Serif" font-size="10.00">local.cc</text>
</a>
</g>
</g>
<!-- Node1&#45;&gt;Node19 -->
<g id="edge18" class="edge"><title>Node1&#45;&gt;Node19</title>
<path fill="none" stroke="midnightblue" d="M987.581,-63.6646C1073.09,-60.3009 1281.25,-49.5326 1453,-20 1456.22,-19.4471 1459.57,-18.7475 1462.87,-17.9836"/>
<polygon fill="midnightblue" stroke="midnightblue" points="987.392,-60.1692 977.532,-64.0477 987.658,-67.1641 987.392,-60.1692"/>
</g>
<!-- Node20 -->
<g id="node20" class="node"><title>Node20</title>
<g id="a_node20"><a xlink:href="local__magnetic_8cc.html" target="_top" xlink:title="Enter brief description of file here.">
<polygon fill="none" stroke="black" points="1531.5,-0.5 1531.5,-19.5 1626.5,-19.5 1626.5,-0.5 1531.5,-0.5"/>
<text text-anchor="middle" x="1579" y="-7.5" font-family="Helvetica,sans-Serif" font-size="10.00">local_magnetic.cc</text>
</a>
</g>
</g>
<!-- Node1&#45;&gt;Node20 -->
<g id="edge19" class="edge"><title>Node1&#45;&gt;Node20</title>
<path fill="none" stroke="midnightblue" d="M987.792,-62.957C1081.25,-57.9239 1321.99,-43.5941 1522,-20 1525.08,-19.6362 1528.26,-19.2285 1531.45,-18.7929"/>
<polygon fill="midnightblue" stroke="midnightblue" points="987.453,-59.47 977.654,-63.4975 987.826,-66.4601 987.453,-59.47"/>
</g>
<!-- Node21 -->
<g id="node21" class="node"><title>Node21</title>
<g id="a_node21"><a xlink:href="scf__check_8cc.html" target="_top" xlink:title="Enter brief description of file here.">
<polygon fill="none" stroke="black" points="1644.5,-0.5 1644.5,-19.5 1719.5,-19.5 1719.5,-0.5 1644.5,-0.5"/>
<text text-anchor="middle" x="1682" y="-7.5" font-family="Helvetica,sans-Serif" font-size="10.00">scf_check.cc</text>
</a>
</g>
</g>
<!-- Node1&#45;&gt;Node21 -->
<g id="edge20" class="edge"><title>Node1&#45;&gt;Node21</title>
<path fill="none" stroke="midnightblue" d="M987.799,-64.1146C1093.57,-61.3899 1390.28,-51.3231 1635,-20 1638.05,-19.6097 1641.2,-19.1443 1644.36,-18.6335"/>
<polygon fill="midnightblue" stroke="midnightblue" points="987.497,-60.621 977.588,-64.3699 987.672,-67.6188 987.497,-60.621"/>
</g>
<!-- Node22 -->
<g id="node22" class="node"><title>Node22</title>
<g id="a_node22"><a xlink:href="sort__oei_8cc.html" target="_top" xlink:title="Enter brief description of file here.">
<polygon fill="none" stroke="black" points="1737.5,-0.5 1737.5,-19.5 1802.5,-19.5 1802.5,-0.5 1737.5,-0.5"/>
<text text-anchor="middle" x="1770" y="-7.5" font-family="Helvetica,sans-Serif" font-size="10.00">sort_oei.cc</text>
</a>
</g>
</g>
<!-- Node1&#45;&gt;Node22 -->
<g id="edge21" class="edge"><title>Node1&#45;&gt;Node22</title>
<path fill="none" stroke="midnightblue" d="M987.647,-64.8557C1102.66,-63.9773 1446.12,-58.1035 1728,-20 1730.96,-19.6004 1734.01,-19.106 1737.07,-18.5561"/>
<polygon fill="midnightblue" stroke="midnightblue" points="987.528,-61.3563 977.552,-64.9241 987.576,-68.3561 987.528,-61.3563"/>
</g>
<!-- Node23 -->
<g id="node23" class="node"><title>Node23</title>
<g id="a_node23"><a xlink:href="sort__tei_8cc.html" target="_top" xlink:title="Enter brief description of file here.">
<polygon fill="none" stroke="black" points="1821,-0.5 1821,-19.5 1883,-19.5 1883,-0.5 1821,-0.5"/>
<text text-anchor="middle" x="1852" y="-7.5" font-family="Helvetica,sans-Serif" font-size="10.00">sort_tei.cc</text>
</a>
</g>
</g>
<!-- Node1&#45;&gt;Node23 -->
<g id="edge22" class="edge"><title>Node1&#45;&gt;Node23</title>
<path fill="none" stroke="midnightblue" d="M987.663,-65.2371C1110.56,-65.4793 1495.69,-62.5355 1811,-20 1814.18,-19.5713 1817.47,-19.0241 1820.75,-18.4118"/>
<polygon fill="midnightblue" stroke="midnightblue" points="987.604,-61.737 977.594,-65.2087 987.584,-68.737 987.604,-61.737"/>
</g>
</g>
</svg>
