<?xml version="1.0" encoding="UTF-8" standalone="no"?>
<!DOCTYPE svg PUBLIC "-//W3C//DTD SVG 1.1//EN"
 "http://www.w3.org/Graphics/SVG/1.1/DTD/svg11.dtd">
<!-- Generated by graphviz version 2.30.1 (20140110.0959)
 -->
<!-- Title: MOInfo.h Pages: 1 -->
<svg width="1695pt" height="84pt"
 viewBox="0.00 0.00 1695.00 84.00" xmlns="http://www.w3.org/2000/svg" xmlns:xlink="http://www.w3.org/1999/xlink">
<g id="graph0" class="graph" transform="scale(1 1) rotate(0) translate(4 80)">
<title>MOInfo.h</title>
<!-- Node1 -->
<g id="node1" class="node"><title>Node1</title>
<polygon fill="#bfbfbf" stroke="black" points="732.5,-56.5 732.5,-75.5 789.5,-75.5 789.5,-56.5 732.5,-56.5"/>
<text text-anchor="middle" x="761" y="-63.5" font-family="Helvetica,sans-Serif" font-size="10.00">MOInfo.h</text>
</g>
<!-- Node2 -->
<g id="node2" class="node"><title>Node2</title>
<g id="a_node2"><a xlink:href="count__ijk_8cc.html" target="_top" xlink:title="Enter brief description of file here.">
<polygon fill="none" stroke="black" points="-0.5,-0.5 -0.5,-19.5 68.5,-19.5 68.5,-0.5 -0.5,-0.5"/>
<text text-anchor="middle" x="34" y="-7.5" font-family="Helvetica,sans-Serif" font-size="10.00">count_ijk.cc</text>
</a>
</g>
</g>
<!-- Node1&#45;&gt;Node2 -->
<g id="edge1" class="edge"><title>Node1&#45;&gt;Node2</title>
<path fill="none" stroke="midnightblue" d="M722.146,-64.2877C617.585,-61.9724 321.663,-52.7923 78,-20 74.909,-19.584 71.7098,-19.0783 68.5116,-18.5211"/>
<polygon fill="midnightblue" stroke="midnightblue" points="722.159,-67.7887 732.232,-64.5026 722.309,-60.7903 722.159,-67.7887"/>
</g>
<!-- Node3 -->
<g id="node3" class="node"><title>Node3</title>
<g id="a_node3"><a xlink:href="ET__AAA_8cc.html" target="_top" xlink:title="Enter brief description of file here.">
<polygon fill="none" stroke="black" points="87,-0.5 87,-19.5 155,-19.5 155,-0.5 87,-0.5"/>
<text text-anchor="middle" x="121" y="-7.5" font-family="Helvetica,sans-Serif" font-size="10.00">ET_AAA.cc</text>
</a>
</g>
</g>
<!-- Node1&#45;&gt;Node3 -->
<g id="edge2" class="edge"><title>Node1&#45;&gt;Node3</title>
<path fill="none" stroke="midnightblue" d="M722.223,-63.8373C626.833,-60.5952 373.297,-49.6609 164,-20 161.13,-19.5933 158.165,-19.1091 155.196,-18.5793"/>
<polygon fill="midnightblue" stroke="midnightblue" points="722.163,-67.3371 732.274,-64.17 722.395,-60.3409 722.163,-67.3371"/>
</g>
<!-- Node4 -->
<g id="node4" class="node"><title>Node4</title>
<g id="a_node4"><a xlink:href="ET__AAB_8cc.html" target="_top" xlink:title="Enter brief description of file here.">
<polygon fill="none" stroke="black" points="173,-0.5 173,-19.5 241,-19.5 241,-0.5 173,-0.5"/>
<text text-anchor="middle" x="207" y="-7.5" font-family="Helvetica,sans-Serif" font-size="10.00">ET_AAB.cc</text>
</a>
</g>
</g>
<!-- Node1&#45;&gt;Node4 -->
<g id="edge3" class="edge"><title>Node1&#45;&gt;Node4</title>
<path fill="none" stroke="midnightblue" d="M722.293,-63.1604C636.745,-58.7516 425.271,-45.9663 250,-20 247.133,-19.5753 244.17,-19.0783 241.202,-18.5399"/>
<polygon fill="midnightblue" stroke="midnightblue" points="722.164,-66.6582 732.329,-63.6687 722.519,-59.6672 722.164,-66.6582"/>
</g>
<!-- Node5 -->
<g id="node5" class="node"><title>Node5</title>
<g id="a_node5"><a xlink:href="ET__ABB_8cc.html" target="_top" xlink:title="Enter brief description of file here.">
<polygon fill="none" stroke="black" points="259,-0.5 259,-19.5 327,-19.5 327,-0.5 259,-0.5"/>
<text text-anchor="middle" x="293" y="-7.5" font-family="Helvetica,sans-Serif" font-size="10.00">ET_ABB.cc</text>
</a>
</g>
</g>
<!-- Node1&#45;&gt;Node5 -->
<g id="edge4" class="edge"><title>Node1&#45;&gt;Node5</title>
<path fill="none" stroke="midnightblue" d="M721.885,-62.185C646.781,-56.4868 477.295,-42.209 336,-20 333.137,-19.55 330.176,-19.0352 327.21,-18.4849"/>
<polygon fill="midnightblue" stroke="midnightblue" points="722.032,-65.7058 732.266,-62.9634 722.556,-58.7254 722.032,-65.7058"/>
</g>
<!-- Node6 -->
<g id="node6" class="node"><title>Node6</title>
<g id="a_node6"><a xlink:href="ET__BBB_8cc.html" target="_top" xlink:title="Enter brief description of file here.">
<polygon fill="none" stroke="black" points="345,-0.5 345,-19.5 413,-19.5 413,-0.5 345,-0.5"/>
<text text-anchor="middle" x="379" y="-7.5" font-family="Helvetica,sans-Serif" font-size="10.00">ET_BBB.cc</text>
</a>
</g>
</g>
<!-- Node1&#45;&gt;Node6 -->
<g id="edge5" class="edge"><title>Node1&#45;&gt;Node6</title>
<path fill="none" stroke="midnightblue" d="M722.024,-60.7807C658.825,-53.725 530.156,-38.4708 422,-20 419.143,-19.5121 416.187,-18.9707 413.224,-18.4025"/>
<polygon fill="midnightblue" stroke="midnightblue" points="721.994,-64.2987 732.319,-61.9219 722.765,-57.3413 721.994,-64.2987"/>
</g>
<!-- Node7 -->
<g id="node7" class="node"><title>Node7</title>
<g id="a_node7"><a xlink:href="ET__UHF__AAA_8cc.html" target="_top" xlink:title="Enter brief description of file here.">
<polygon fill="none" stroke="black" points="431.5,-0.5 431.5,-19.5 526.5,-19.5 526.5,-0.5 431.5,-0.5"/>
<text text-anchor="middle" x="479" y="-7.5" font-family="Helvetica,sans-Serif" font-size="10.00">ET_UHF_AAA.cc</text>
</a>
</g>
</g>
<!-- Node1&#45;&gt;Node7 -->
<g id="edge6" class="edge"><title>Node1&#45;&gt;Node7</title>
<path fill="none" stroke="midnightblue" d="M722.271,-57.5837C670.337,-47.6391 578.343,-30.0231 523.583,-19.5373"/>
<polygon fill="midnightblue" stroke="midnightblue" points="721.929,-61.0818 732.408,-59.525 723.245,-54.2067 721.929,-61.0818"/>
</g>
<!-- Node8 -->
<g id="node8" class="node"><title>Node8</title>
<g id="a_node8"><a xlink:href="ET__UHF__AAB_8cc.html" target="_top" xlink:title="Enter brief description of file here.">
<polygon fill="none" stroke="black" points="544.5,-0.5 544.5,-19.5 639.5,-19.5 639.5,-0.5 544.5,-0.5"/>
<text text-anchor="middle" x="592" y="-7.5" font-family="Helvetica,sans-Serif" font-size="10.00">ET_UHF_AAB.cc</text>
</a>
</g>
</g>
<!-- Node1&#45;&gt;Node8 -->
<g id="edge7" class="edge"><title>Node1&#45;&gt;Node8</title>
<path fill="none" stroke="midnightblue" d="M724.397,-53.3044C692.553,-43.1294 647.158,-28.6246 618.653,-19.5164"/>
<polygon fill="midnightblue" stroke="midnightblue" points="723.631,-56.7337 734.221,-56.4435 725.761,-50.0659 723.631,-56.7337"/>
</g>
<!-- Node9 -->
<g id="node9" class="node"><title>Node9</title>
<g id="a_node9"><a xlink:href="ET__UHF__ABB_8cc.html" target="_top" xlink:title="Enter brief description of file here.">
<polygon fill="none" stroke="black" points="657.5,-0.5 657.5,-19.5 752.5,-19.5 752.5,-0.5 657.5,-0.5"/>
<text text-anchor="middle" x="705" y="-7.5" font-family="Helvetica,sans-Serif" font-size="10.00">ET_UHF_ABB.cc</text>
</a>
</g>
</g>
<!-- Node1&#45;&gt;Node9 -->
<g id="edge8" class="edge"><title>Node1&#45;&gt;Node9</title>
<path fill="none" stroke="midnightblue" d="M744.67,-49.2533C734.735,-39.6731 722.412,-27.7906 714.161,-19.8339"/>
<polygon fill="midnightblue" stroke="midnightblue" points="742.375,-51.902 752.003,-56.324 747.234,-46.8631 742.375,-51.902"/>
</g>
<!-- Node10 -->
<g id="node10" class="node"><title>Node10</title>
<g id="a_node10"><a xlink:href="ET__UHF__BBB_8cc.html" target="_top" xlink:title="Enter brief description of file here.">
<polygon fill="none" stroke="black" points="770.5,-0.5 770.5,-19.5 865.5,-19.5 865.5,-0.5 770.5,-0.5"/>
<text text-anchor="middle" x="818" y="-7.5" font-family="Helvetica,sans-Serif" font-size="10.00">ET_UHF_BBB.cc</text>
</a>
</g>
</g>
<!-- Node1&#45;&gt;Node10 -->
<g id="edge9" class="edge"><title>Node1&#45;&gt;Node10</title>
<path fill="none" stroke="midnightblue" d="M777.621,-49.2533C787.734,-39.6731 800.277,-27.7906 808.675,-19.8339"/>
<polygon fill="midnightblue" stroke="midnightblue" points="775.01,-46.9056 770.158,-56.324 779.825,-51.9873 775.01,-46.9056"/>
</g>
<!-- Node11 -->
<g id="node11" class="node"><title>Node11</title>
<g id="a_node11"><a xlink:href="cctriples_2get__moinfo_8cc.html" target="_top" xlink:title="Enter brief description of file here.">
<polygon fill="none" stroke="black" points="884,-0.5 884,-19.5 962,-19.5 962,-0.5 884,-0.5"/>
<text text-anchor="middle" x="923" y="-7.5" font-family="Helvetica,sans-Serif" font-size="10.00">get_moinfo.cc</text>
</a>
</g>
</g>
<!-- Node1&#45;&gt;Node11 -->
<g id="edge10" class="edge"><title>Node1&#45;&gt;Node11</title>
<path fill="none" stroke="midnightblue" d="M796.484,-53.172C826.988,-43.0039 870.245,-28.5852 897.451,-19.5164"/>
<polygon fill="midnightblue" stroke="midnightblue" points="795.049,-49.9608 786.669,-56.4435 797.263,-56.6016 795.049,-49.9608"/>
</g>
<!-- Node12 -->
<g id="node12" class="node"><title>Node12</title>
<g id="a_node12"><a xlink:href="T3__grad__RHF_8cc.html" target="_top" xlink:title="Computes T3&#45;dependent terms needed in cclambda and ccdensity for (T) contributions to the CCSD(T) ene...">
<polygon fill="none" stroke="black" points="980,-0.5 980,-19.5 1072,-19.5 1072,-0.5 980,-0.5"/>
<text text-anchor="middle" x="1026" y="-7.5" font-family="Helvetica,sans-Serif" font-size="10.00">T3_grad_RHF.cc</text>
</a>
</g>
</g>
<!-- Node1&#45;&gt;Node12 -->
<g id="edge11" class="edge"><title>Node1&#45;&gt;Node12</title>
<path fill="none" stroke="midnightblue" d="M799.532,-57.1481C848.668,-47.1355 933.326,-29.8845 984.048,-19.5488"/>
<polygon fill="midnightblue" stroke="midnightblue" points="798.711,-53.7434 789.611,-59.1697 800.109,-60.6025 798.711,-53.7434"/>
</g>
<!-- Node13 -->
<g id="node13" class="node"><title>Node13</title>
<g id="a_node13"><a xlink:href="T3__grad__UHF__AAA_8cc.html" target="_top" xlink:title="Enter brief description of file here.">
<polygon fill="none" stroke="black" points="1090.5,-0.5 1090.5,-19.5 1207.5,-19.5 1207.5,-0.5 1090.5,-0.5"/>
<text text-anchor="middle" x="1149" y="-7.5" font-family="Helvetica,sans-Serif" font-size="10.00">T3_grad_UHF_AAA.cc</text>
</a>
</g>
</g>
<!-- Node1&#45;&gt;Node13 -->
<g id="edge12" class="edge"><title>Node1&#45;&gt;Node13</title>
<path fill="none" stroke="midnightblue" d="M799.843,-59.594C868.171,-50.0844 1010.22,-30.3151 1090.48,-19.1445"/>
<polygon fill="midnightblue" stroke="midnightblue" points="798.953,-56.1841 789.531,-61.0293 799.918,-63.1173 798.953,-56.1841"/>
</g>
<!-- Node14 -->
<g id="node14" class="node"><title>Node14</title>
<g id="a_node14"><a xlink:href="T3__grad__UHF__AAB_8cc.html" target="_top" xlink:title="Enter brief description of file here.">
<polygon fill="none" stroke="black" points="1225.5,-0.5 1225.5,-19.5 1342.5,-19.5 1342.5,-0.5 1225.5,-0.5"/>
<text text-anchor="middle" x="1284" y="-7.5" font-family="Helvetica,sans-Serif" font-size="10.00">T3_grad_UHF_AAB.cc</text>
</a>
</g>
</g>
<!-- Node1&#45;&gt;Node14 -->
<g id="edge13" class="edge"><title>Node1&#45;&gt;Node14</title>
<path fill="none" stroke="midnightblue" d="M799.909,-61.5882C878.583,-54.5932 1062.18,-37.7812 1216,-20 1219.08,-19.6445 1222.23,-19.2683 1225.41,-18.8794"/>
<polygon fill="midnightblue" stroke="midnightblue" points="799.17,-58.1399 789.518,-62.5092 799.788,-65.1126 799.17,-58.1399"/>
</g>
<!-- Node15 -->
<g id="node15" class="node"><title>Node15</title>
<g id="a_node15"><a xlink:href="T3__grad__UHF__BBA_8cc.html" target="_top" xlink:title="Enter brief description of file here.">
<polygon fill="none" stroke="black" points="1360.5,-0.5 1360.5,-19.5 1477.5,-19.5 1477.5,-0.5 1360.5,-0.5"/>
<text text-anchor="middle" x="1419" y="-7.5" font-family="Helvetica,sans-Serif" font-size="10.00">T3_grad_UHF_BBA.cc</text>
</a>
</g>
</g>
<!-- Node1&#45;&gt;Node15 -->
<g id="edge14" class="edge"><title>Node1&#45;&gt;Node15</title>
<path fill="none" stroke="midnightblue" d="M799.823,-62.7864C894.3,-57.2367 1143.66,-41.6115 1351,-20 1354.08,-19.679 1357.23,-19.3304 1360.42,-18.9631"/>
<polygon fill="midnightblue" stroke="midnightblue" points="799.38,-59.3062 789.601,-63.3829 799.788,-66.2943 799.38,-59.3062"/>
</g>
<!-- Node16 -->
<g id="node16" class="node"><title>Node16</title>
<g id="a_node16"><a xlink:href="T3__grad__UHF__BBB_8cc.html" target="_top" xlink:title="Enter brief description of file here.">
<polygon fill="none" stroke="black" points="1495.5,-0.5 1495.5,-19.5 1612.5,-19.5 1612.5,-0.5 1495.5,-0.5"/>
<text text-anchor="middle" x="1554" y="-7.5" font-family="Helvetica,sans-Serif" font-size="10.00">T3_grad_UHF_BBB.cc</text>
</a>
</g>
</g>
<!-- Node1&#45;&gt;Node16 -->
<g id="edge15" class="edge"><title>Node1&#45;&gt;Node16</title>
<path fill="none" stroke="midnightblue" d="M799.879,-63.5401C908.531,-59.2546 1224.53,-45.3872 1486,-20 1489.08,-19.7008 1492.24,-19.3695 1495.42,-19.0158"/>
<polygon fill="midnightblue" stroke="midnightblue" points="799.58,-60.049 789.724,-63.9364 799.853,-67.0437 799.58,-60.049"/>
</g>
<!-- Node17 -->
<g id="node17" class="node"><title>Node17</title>
<g id="a_node17"><a xlink:href="cctriples_2triples_8cc.html" target="_top" xlink:title="Enter brief description of file here.">
<polygon fill="none" stroke="black" points="1631,-0.5 1631,-19.5 1687,-19.5 1687,-0.5 1631,-0.5"/>
<text text-anchor="middle" x="1659" y="-7.5" font-family="Helvetica,sans-Serif" font-size="10.00">triples.cc</text>
</a>
</g>
</g>
<!-- Node1&#45;&gt;Node17 -->
<g id="edge16" class="edge"><title>Node1&#45;&gt;Node17</title>
<path fill="none" stroke="midnightblue" d="M800.087,-65.4517C922.131,-66.3295 1306.74,-65.0607 1621,-20 1624.22,-19.5381 1627.57,-18.933 1630.89,-18.2547"/>
<polygon fill="midnightblue" stroke="midnightblue" points="799.791,-61.9493 789.763,-65.3675 799.734,-68.949 799.791,-61.9493"/>
</g>
</g>
</svg>
