<?xml version="1.0" encoding="UTF-8" standalone="no"?>
<!DOCTYPE svg PUBLIC "-//W3C//DTD SVG 1.1//EN"
 "http://www.w3.org/Graphics/SVG/1.1/DTD/svg11.dtd">
<!-- Generated by graphviz version 2.30.1 (20140110.0959)
 -->
<!-- Title: cis.cc Pages: 1 -->
<!--zoomable 140 -->
<svg id="main" version="1.1" xmlns="http://www.w3.org/2000/svg" xmlns:xlink="http://www.w3.org/1999/xlink" xml:space="preserve" onload="init(evt)">
        <defs>
                <circle id="rim" cx="0" cy="0" r="7"/>
                <circle id="rim2" cx="0" cy="0" r="3.5"/>
                <g id="zoomPlus">
                        <use xlink:href="#rim" fill="#404040">
                                <set attributeName="fill" to="#808080" begin="zoomplus.mouseover" end="zoomplus.mouseout"/>
                        </use>
                        <path d="M-4,0h8M0,-4v8" fill="none" stroke="white" stroke-width="1.5" pointer-events="none"/>
                </g>
                <g id="zoomMin">
                        <use xlink:href="#rim" fill="#404040">
                                <set attributeName="fill" to="#808080" begin="zoomminus.mouseover" end="zoomminus.mouseout"/>
                        </use>
                        <path d="M-4,0h8" fill="none" stroke="white" stroke-width="1.5" pointer-events="none"/>
                </g>
                <g id="dirArrow">
                        <path fill="none" stroke="white" stroke-width="1.5" d="M0,-3.0v7 M-2.5,-0.5L0,-3.0L2.5,-0.5"/>
                </g>
               <g id="resetDef">
                       <use xlink:href="#rim2" fill="#404040">
                               <set attributeName="fill" to="#808080" begin="reset.mouseover" end="reset.mouseout"/>
                       </use>
               </g>
        </defs>

<script type="text/javascript">
var viewWidth = 1040;
var viewHeight = 140;
var sectionId = 'dynsection-0';
</script>
<script xlink:href="svgpan.js"/>
<svg id="graph" class="graph">
<g id="viewport">
<title>cis.cc</title>
<!-- Node1 -->
<g id="node1" class="node"><title>Node1</title>
<polygon fill="#bfbfbf" stroke="black" points="493.5,-112.5 493.5,-131.5 536.5,-131.5 536.5,-112.5 493.5,-112.5"/>
<text text-anchor="middle" x="515" y="-119.5" font-family="Helvetica,sans-Serif" font-size="10.00">cis.cc</text>
</g>
<!-- Node2 -->
<g id="node2" class="node"><title>Node2</title>
<polygon fill="none" stroke="#bfbfbf" points="-0.5,-0.5 -0.5,-19.5 42.5,-19.5 42.5,-0.5 -0.5,-0.5"/>
<text text-anchor="middle" x="21" y="-7.5" font-family="Helvetica,sans-Serif" font-size="10.00">cstdio</text>
</g>
<!-- Node1&#45;&gt;Node2 -->
<g id="edge1" class="edge"><title>Node1&#45;&gt;Node2</title>
<path fill="none" stroke="midnightblue" d="M493.214,-120.115C406.601,-116.429 89.575,-101.303 53,-76 37.5179,-65.2893 29.2009,-44.8843 24.9629,-29.7818"/>
<polygon fill="midnightblue" stroke="midnightblue" points="28.3303,-28.8179 22.5537,-19.9364 21.5309,-30.4818 28.3303,-28.8179"/>
</g>
<!-- Node3 -->
<g id="node3" class="node"><title>Node3</title>
<polygon fill="none" stroke="#bfbfbf" points="593.5,-56.5 593.5,-75.5 638.5,-75.5 638.5,-56.5 593.5,-56.5"/>
<text text-anchor="middle" x="616" y="-63.5" font-family="Helvetica,sans-Serif" font-size="10.00">cstdlib</text>
</g>
<!-- Node1&#45;&gt;Node3 -->
<g id="edge2" class="edge"><title>Node1&#45;&gt;Node3</title>
<path fill="none" stroke="midnightblue" d="M531.227,-112.324C547.351,-103.703 572.3,-90.3643 590.964,-80.3855"/>
<polygon fill="midnightblue" stroke="midnightblue" points="592.644,-83.456 599.813,-75.6545 589.344,-77.283 592.644,-83.456"/>
</g>
<!-- Node4 -->
<g id="node4" class="node"><title>Node4</title>
<polygon fill="none" stroke="#bfbfbf" points="657,-56.5 657,-75.5 703,-75.5 703,-56.5 657,-56.5"/>
<text text-anchor="middle" x="680" y="-63.5" font-family="Helvetica,sans-Serif" font-size="10.00">cstring</text>
</g>
<!-- Node1&#45;&gt;Node4 -->
<g id="edge3" class="edge"><title>Node1&#45;&gt;Node4</title>
<path fill="none" stroke="midnightblue" d="M536.571,-113.94C564.753,-104.717 614.369,-88.4793 647.216,-77.7293"/>
<polygon fill="midnightblue" stroke="midnightblue" points="648.414,-81.02 656.829,-74.5831 646.237,-74.3672 648.414,-81.02"/>
</g>
<!-- Node5 -->
<g id="node5" class="node"><title>Node5</title>
<polygon fill="none" stroke="#bfbfbf" points="721,-56.5 721,-75.5 765,-75.5 765,-56.5 721,-56.5"/>
<text text-anchor="middle" x="743" y="-63.5" font-family="Helvetica,sans-Serif" font-size="10.00">cmath</text>
</g>
<!-- Node1&#45;&gt;Node5 -->
<g id="edge4" class="edge"><title>Node1&#45;&gt;Node5</title>
<path fill="none" stroke="midnightblue" d="M536.671,-116.48C571.421,-109.14 641.95,-93.8674 710.967,-76.1586"/>
<polygon fill="midnightblue" stroke="midnightblue" points="711.886,-79.5361 720.692,-73.6442 710.134,-72.7589 711.886,-79.5361"/>
</g>
<!-- Node6 -->
<g id="node6" class="node"><title>Node6</title>
<g id="a_node6"><a xlink:href="libciomr_8h_source.html" target="_top" xlink:title="libciomr/libciomr.h">
<polygon fill="none" stroke="black" points="62.5,-56.5 62.5,-75.5 157.5,-75.5 157.5,-56.5 62.5,-56.5"/>
<text text-anchor="middle" x="110" y="-63.5" font-family="Helvetica,sans-Serif" font-size="10.00">libciomr/libciomr.h</text>
</a>
</g>
</g>
<!-- Node1&#45;&gt;Node6 -->
<g id="edge5" class="edge"><title>Node1&#45;&gt;Node6</title>
<path fill="none" stroke="midnightblue" d="M493.453,-118.396C438.913,-111.762 290.988,-93.5141 168,-76 167.896,-75.9852 167.792,-75.9703 167.688,-75.9555"/>
<polygon fill="midnightblue" stroke="midnightblue" points="168.179,-72.4902 157.779,-74.5107 167.169,-79.417 168.179,-72.4902"/>
</g>
<!-- Node7 -->
<g id="node7" class="node"><title>Node7</title>
<g id="a_node7"><a xlink:href="lib_2libdpd_2dpd_8h.html" target="_top" xlink:title="Enter brief description of file here.">
<polygon fill="none" stroke="black" points="177.5,-56.5 177.5,-75.5 246.5,-75.5 246.5,-56.5 177.5,-56.5"/>
<text text-anchor="middle" x="212" y="-63.5" font-family="Helvetica,sans-Serif" font-size="10.00">libdpd/dpd.h</text>
</a>
</g>
</g>
<!-- Node1&#45;&gt;Node7 -->
<g id="edge7" class="edge"><title>Node1&#45;&gt;Node7</title>
<path fill="none" stroke="midnightblue" d="M493.247,-117.194C449.331,-109.499 346.941,-91.5053 261,-76 259.537,-75.7361 258.05,-75.467 256.548,-75.1947"/>
<polygon fill="midnightblue" stroke="midnightblue" points="256.994,-71.7184 246.529,-73.3702 255.74,-78.6052 256.994,-71.7184"/>
</g>
<!-- Node12 -->
<g id="node12" class="node"><title>Node12</title>
<g id="a_node12"><a xlink:href="chkpt_8h_source.html" target="_top" xlink:title="libchkpt/chkpt.h">
<polygon fill="none" stroke="black" points="783,-56.5 783,-75.5 869,-75.5 869,-56.5 783,-56.5"/>
<text text-anchor="middle" x="826" y="-63.5" font-family="Helvetica,sans-Serif" font-size="10.00">libchkpt/chkpt.h</text>
</a>
</g>
</g>
<!-- Node1&#45;&gt;Node12 -->
<g id="edge13" class="edge"><title>Node1&#45;&gt;Node12</title>
<path fill="none" stroke="midnightblue" d="M536.869,-117.203C585.396,-108.777 703.262,-88.3114 772.597,-76.2725"/>
<polygon fill="midnightblue" stroke="midnightblue" points="773.622,-79.6471 782.876,-74.4879 772.424,-72.7503 773.622,-79.6471"/>
</g>
<!-- Node13 -->
<g id="node13" class="node"><title>Node13</title>
<g id="a_node13"><a xlink:href="qt_8h.html" target="_top" xlink:title="Header file for the Quantum Trio LibraryDavid Sherrill 1994.">
<polygon fill="none" stroke="black" points="377,-56.5 377,-75.5 431,-75.5 431,-56.5 377,-56.5"/>
<text text-anchor="middle" x="404" y="-63.5" font-family="Helvetica,sans-Serif" font-size="10.00">libqt/qt.h</text>
</a>
</g>
</g>
<!-- Node1&#45;&gt;Node13 -->
<g id="edge14" class="edge"><title>Node1&#45;&gt;Node13</title>
<path fill="none" stroke="midnightblue" d="M497.166,-112.324C479.284,-103.625 451.525,-90.1202 430.954,-80.113"/>
<polygon fill="midnightblue" stroke="midnightblue" points="432.313,-76.8819 421.79,-75.6545 429.251,-83.1765 432.313,-76.8819"/>
</g>
<!-- Node15 -->
<g id="node15" class="node"><title>Node15</title>
<polygon fill="none" stroke="#bfbfbf" points="887,-56.5 887,-75.5 957,-75.5 957,-56.5 887,-56.5"/>
<text text-anchor="middle" x="922" y="-63.5" font-family="Helvetica,sans-Serif" font-size="10.00">physconst.h</text>
</g>
<!-- Node1&#45;&gt;Node15 -->
<g id="edge17" class="edge"><title>Node1&#45;&gt;Node15</title>
<path fill="none" stroke="midnightblue" d="M536.77,-118.903C591.902,-113.466 741.666,-97.9045 876.861,-76.0717"/>
<polygon fill="midnightblue" stroke="midnightblue" points="877.675,-79.4851 886.981,-74.4208 876.548,-72.5764 877.675,-79.4851"/>
</g>
<!-- Node8 -->
<g id="node8" class="node"><title>Node8</title>
<g id="a_node8"><a xlink:href="psifiles_8h_source.html" target="_top" xlink:title="psifiles.h">
<polygon fill="none" stroke="black" points="349,-0.5 349,-19.5 405,-19.5 405,-0.5 349,-0.5"/>
<text text-anchor="middle" x="377" y="-7.5" font-family="Helvetica,sans-Serif" font-size="10.00">psifiles.h</text>
</a>
</g>
</g>
<!-- Node1&#45;&gt;Node8 -->
<g id="edge18" class="edge"><title>Node1&#45;&gt;Node8</title>
<path fill="none" stroke="midnightblue" d="M493.364,-119.948C442.764,-116.99 319.081,-106.703 294,-76 276.029,-54.001 310.355,-34.7853 340.172,-23.0639"/>
<polygon fill="midnightblue" stroke="midnightblue" points="341.484,-26.3103 349.623,-19.5276 339.03,-19.7543 341.484,-26.3103"/>
</g>
<!-- Node16 -->
<g id="node16" class="node"><title>Node16</title>
<g id="a_node16"><a xlink:href="attic_2cis_2Params_8h.html" target="_top" xlink:title="Enter brief description of file here.">
<polygon fill="none" stroke="black" points="449.5,-56.5 449.5,-75.5 508.5,-75.5 508.5,-56.5 449.5,-56.5"/>
<text text-anchor="middle" x="479" y="-63.5" font-family="Helvetica,sans-Serif" font-size="10.00">Params.h</text>
</a>
</g>
</g>
<!-- Node1&#45;&gt;Node16 -->
<g id="edge19" class="edge"><title>Node1&#45;&gt;Node16</title>
<path fill="none" stroke="midnightblue" d="M509.055,-112.083C504.023,-104.534 496.663,-93.4948 490.487,-84.2298"/>
<polygon fill="midnightblue" stroke="midnightblue" points="493.293,-82.1301 484.834,-75.7511 487.469,-86.0131 493.293,-82.1301"/>
</g>
<!-- Node17 -->
<g id="node17" class="node"><title>Node17</title>
<g id="a_node17"><a xlink:href="attic_2cis_2MOInfo_8h.html" target="_top" xlink:title="Enter brief description of file here.">
<polygon fill="none" stroke="black" points="975.5,-56.5 975.5,-75.5 1032.5,-75.5 1032.5,-56.5 975.5,-56.5"/>
<text text-anchor="middle" x="1004" y="-63.5" font-family="Helvetica,sans-Serif" font-size="10.00">MOInfo.h</text>
</a>
</g>
</g>
<!-- Node1&#45;&gt;Node17 -->
<g id="edge21" class="edge"><title>Node1&#45;&gt;Node17</title>
<path fill="none" stroke="midnightblue" d="M536.728,-119.861C600.808,-116.285 794.676,-103.919 965.526,-75.8451"/>
<polygon fill="midnightblue" stroke="midnightblue" points="966.16,-79.2878 975.449,-74.1923 965.01,-72.383 966.16,-79.2878"/>
</g>
<!-- Node18 -->
<g id="node18" class="node"><title>Node18</title>
<g id="a_node18"><a xlink:href="attic_2cis_2Local_8h.html" target="_top" xlink:title="Enter brief description of file here.">
<polygon fill="none" stroke="black" points="527,-56.5 527,-75.5 575,-75.5 575,-56.5 527,-56.5"/>
<text text-anchor="middle" x="551" y="-63.5" font-family="Helvetica,sans-Serif" font-size="10.00">Local.h</text>
</a>
</g>
</g>
<!-- Node1&#45;&gt;Node18 -->
<g id="edge22" class="edge"><title>Node1&#45;&gt;Node18</title>
<path fill="none" stroke="midnightblue" d="M520.945,-112.083C525.977,-104.534 533.337,-93.4948 539.513,-84.2298"/>
<polygon fill="midnightblue" stroke="midnightblue" points="542.531,-86.0131 545.166,-75.7511 536.707,-82.1301 542.531,-86.0131"/>
</g>
<!-- Node19 -->
<g id="node19" class="node"><title>Node19</title>
<g id="a_node19"><a xlink:href="attic_2cis_2globals_8h.html" target="_top" xlink:title="Enter brief description of file here.">
<polygon fill="none" stroke="black" points="303,-56.5 303,-75.5 359,-75.5 359,-56.5 303,-56.5"/>
<text text-anchor="middle" x="331" y="-63.5" font-family="Helvetica,sans-Serif" font-size="10.00">globals.h</text>
</a>
</g>
</g>
<!-- Node1&#45;&gt;Node19 -->
<g id="edge24" class="edge"><title>Node1&#45;&gt;Node19</title>
<path fill="none" stroke="midnightblue" d="M493.17,-114.593C462.628,-105.63 406.684,-89.2117 369.167,-78.2011"/>
<polygon fill="midnightblue" stroke="midnightblue" points="369.691,-74.7074 359.11,-75.2496 367.72,-81.4241 369.691,-74.7074"/>
</g>
<!-- Node6&#45;&gt;Node2 -->
<g id="edge6" class="edge"><title>Node6&#45;&gt;Node2</title>
<path fill="none" stroke="midnightblue" d="M95.7006,-56.324C81.8171,-47.9002 60.5076,-34.9709 44.1963,-25.0741"/>
<polygon fill="midnightblue" stroke="midnightblue" points="45.6289,-21.8495 35.2639,-19.6545 41.9978,-27.8341 45.6289,-21.8495"/>
</g>
<!-- Node7&#45;&gt;Node2 -->
<g id="edge8" class="edge"><title>Node7&#45;&gt;Node2</title>
<path fill="none" stroke="midnightblue" d="M181.305,-56.4495C151.031,-47.998 103.187,-34.5933 52.5042,-20.1267"/>
<polygon fill="midnightblue" stroke="midnightblue" points="53.2503,-16.6998 42.6735,-17.3174 51.3269,-23.4304 53.2503,-16.6998"/>
</g>
<!-- Node7&#45;&gt;Node8 -->
<g id="edge9" class="edge"><title>Node7&#45;&gt;Node8</title>
<path fill="none" stroke="midnightblue" d="M238.145,-56.4435C266.023,-47.3196 310.348,-32.8133 341.4,-22.6509"/>
<polygon fill="midnightblue" stroke="midnightblue" points="342.562,-25.9533 350.978,-19.5164 340.385,-19.3005 342.562,-25.9533"/>
</g>
<!-- Node9 -->
<g id="node9" class="node"><title>Node9</title>
<g id="a_node9"><a xlink:href="libpsio_2config_8h_source.html" target="_top" xlink:title="libpsio/config.h">
<polygon fill="none" stroke="black" points="61,-0.5 61,-19.5 143,-19.5 143,-0.5 61,-0.5"/>
<text text-anchor="middle" x="102" y="-7.5" font-family="Helvetica,sans-Serif" font-size="10.00">libpsio/config.h</text>
</a>
</g>
</g>
<!-- Node7&#45;&gt;Node9 -->
<g id="edge10" class="edge"><title>Node7&#45;&gt;Node9</title>
<path fill="none" stroke="midnightblue" d="M194.327,-56.324C176.606,-47.6247 149.097,-34.1202 128.712,-24.113"/>
<polygon fill="midnightblue" stroke="midnightblue" points="130.149,-20.9195 119.63,-19.6545 127.064,-27.2031 130.149,-20.9195"/>
</g>
<!-- Node10 -->
<g id="node10" class="node"><title>Node10</title>
<polygon fill="none" stroke="#bfbfbf" points="161,-0.5 161,-19.5 269,-19.5 269,-0.5 161,-0.5"/>
<text text-anchor="middle" x="215" y="-7.5" font-family="Helvetica,sans-Serif" font-size="10.00">boost/shared_ptr.hpp</text>
</g>
<!-- Node7&#45;&gt;Node10 -->
<g id="edge11" class="edge"><title>Node7&#45;&gt;Node10</title>
<path fill="none" stroke="midnightblue" d="M212.495,-56.083C212.889,-49.0059 213.452,-38.8611 213.945,-29.9865"/>
<polygon fill="midnightblue" stroke="midnightblue" points="217.454,-29.9299 214.514,-19.7511 210.464,-29.5415 217.454,-29.9299"/>
</g>
<!-- Node11 -->
<g id="node11" class="node"><title>Node11</title>
<polygon fill="none" stroke="#bfbfbf" points="287,-0.5 287,-19.5 331,-19.5 331,-0.5 287,-0.5"/>
<text text-anchor="middle" x="309" y="-7.5" font-family="Helvetica,sans-Serif" font-size="10.00">vector</text>
</g>
<!-- Node7&#45;&gt;Node11 -->
<g id="edge12" class="edge"><title>Node7&#45;&gt;Node11</title>
<path fill="none" stroke="midnightblue" d="M227.585,-56.324C242.999,-47.7428 266.812,-34.486 284.71,-24.5224"/>
<polygon fill="midnightblue" stroke="midnightblue" points="286.419,-27.5767 293.454,-19.6545 283.014,-21.4606 286.419,-27.5767"/>
</g>
<!-- Node13&#45;&gt;Node2 -->
<g id="edge15" class="edge"><title>Node13&#45;&gt;Node2</title>
<path fill="none" stroke="midnightblue" d="M376.956,-57.8337C373.946,-57.1572 370.916,-56.5282 368,-56 232.035,-31.3699 192.364,-47.0622 52.3754,-19.72"/>
<polygon fill="midnightblue" stroke="midnightblue" points="53.0556,-16.2868 42.5646,-17.7661 51.6883,-23.152 53.0556,-16.2868"/>
</g>
<!-- Node14 -->
<g id="node14" class="node"><title>Node14</title>
<polygon fill="none" stroke="#bfbfbf" points="458.5,-0.5 458.5,-19.5 499.5,-19.5 499.5,-0.5 458.5,-0.5"/>
<text text-anchor="middle" x="479" y="-7.5" font-family="Helvetica,sans-Serif" font-size="10.00">string</text>
</g>
<!-- Node13&#45;&gt;Node14 -->
<g id="edge16" class="edge"><title>Node13&#45;&gt;Node14</title>
<path fill="none" stroke="midnightblue" d="M416.05,-56.324C427.463,-48.1066 444.831,-35.6017 458.435,-25.8069"/>
<polygon fill="midnightblue" stroke="midnightblue" points="460.66,-28.5174 466.731,-19.8339 456.57,-22.8366 460.66,-28.5174"/>
</g>
<!-- Node16&#45;&gt;Node14 -->
<g id="edge20" class="edge"><title>Node16&#45;&gt;Node14</title>
<path fill="none" stroke="midnightblue" d="M479,-56.083C479,-49.0059 479,-38.8611 479,-29.9865"/>
<polygon fill="midnightblue" stroke="midnightblue" points="482.5,-29.751 479,-19.7511 475.5,-29.7511 482.5,-29.751"/>
</g>
<!-- Node18&#45;&gt;Node14 -->
<g id="edge23" class="edge"><title>Node18&#45;&gt;Node14</title>
<path fill="none" stroke="midnightblue" d="M539.432,-56.324C528.58,-48.1849 512.119,-35.8395 499.117,-26.0874"/>
<polygon fill="midnightblue" stroke="midnightblue" points="500.879,-23.0339 490.779,-19.8339 496.679,-28.6339 500.879,-23.0339"/>
</g>
<!-- Node19&#45;&gt;Node8 -->
<g id="edge25" class="edge"><title>Node19&#45;&gt;Node8</title>
<path fill="none" stroke="midnightblue" d="M338.596,-56.083C345.227,-48.2982 355.021,-36.8015 363.058,-27.3665"/>
<polygon fill="midnightblue" stroke="midnightblue" points="365.725,-29.6332 369.545,-19.7511 360.396,-25.0939 365.725,-29.6332"/>
</g>
</g>
</svg>
        <g id="navigator" transform="translate(0 0)" fill="#404254">
                <rect fill="#f2f5e9" fill-opacity="0.5" stroke="#606060" stroke-width=".5" x="0" y="0" width="60" height="60"/>
                <use id="zoomplus" xlink:href="#zoomPlus" x="17" y="9" onmousedown="handleZoom(evt,'in')"/>
                <use id="zoomminus" xlink:href="#zoomMin" x="42" y="9" onmousedown="handleZoom(evt,'out')"/>
                <use id="reset" xlink:href="#resetDef" x="30" y="36" onmousedown="handleReset()"/>
                <g id="arrowUp" xlink:href="#dirArrow" transform="translate(30 24)" onmousedown="handlePan(0,-1)">
                  <use xlink:href="#rim" fill="#404040">
                        <set attributeName="fill" to="#808080" begin="arrowUp.mouseover" end="arrowUp.mouseout"/>
                  </use>
                  <path fill="none" stroke="white" stroke-width="1.5" d="M0,-3.0v7 M-2.5,-0.5L0,-3.0L2.5,-0.5"/>
                </g>
                <g id="arrowRight" xlink:href="#dirArrow" transform="rotate(90) translate(36 -43)" onmousedown="handlePan(1,0)">
                  <use xlink:href="#rim" fill="#404040">
                        <set attributeName="fill" to="#808080" begin="arrowRight.mouseover" end="arrowRight.mouseout"/>
                  </use>
                  <path fill="none" stroke="white" stroke-width="1.5" d="M0,-3.0v7 M-2.5,-0.5L0,-3.0L2.5,-0.5"/>
                </g>
                <g id="arrowDown" xlink:href="#dirArrow" transform="rotate(180) translate(-30 -48)" onmousedown="handlePan(0,1)">
                  <use xlink:href="#rim" fill="#404040">
                        <set attributeName="fill" to="#808080" begin="arrowDown.mouseover" end="arrowDown.mouseout"/>
                  </use>
                  <path fill="none" stroke="white" stroke-width="1.5" d="M0,-3.0v7 M-2.5,-0.5L0,-3.0L2.5,-0.5"/>
                </g>
                <g id="arrowLeft" xlink:href="#dirArrow" transform="rotate(270) translate(-36 17)" onmousedown="handlePan(-1,0)">
                  <use xlink:href="#rim" fill="#404040">
                        <set attributeName="fill" to="#808080" begin="arrowLeft.mouseover" end="arrowLeft.mouseout"/>
                  </use>
                  <path fill="none" stroke="white" stroke-width="1.5" d="M0,-3.0v7 M-2.5,-0.5L0,-3.0L2.5,-0.5"/>
                </g>
        </g>
        <svg viewBox="0 0 15 15" width="100%" height="30px" preserveAspectRatio="xMaxYMin meet">
         <g id="arrow_out" transform="scale(0.3 0.3)">
          <a xlink:href="cis_8cc__incl_org.svg" target="_base">
           <rect id="button" ry="5" rx="5" y="6" x="6" height="38" width="38"
                fill="#f2f5e9" fill-opacity="0.5" stroke="#606060" stroke-width="1.0"/>
           <path id="arrow"
             d="M 11.500037,31.436501 C 11.940474,20.09759 22.043105,11.32322 32.158766,21.979434 L 37.068811,17.246167 C 37.068811,17.246167 37.088388,32 37.088388,32 L 22.160133,31.978069 C 22.160133,31.978069 26.997745,27.140456 26.997745,27.140456 C 18.528582,18.264221 13.291696,25.230495 11.500037,31.436501 z"
             style="fill:#404040;"/>
          </a>
         </g>
        </svg>
</svg>
