<?xml version="1.0" encoding="UTF-8" standalone="no"?>
<!DOCTYPE svg PUBLIC "-//W3C//DTD SVG 1.1//EN"
 "http://www.w3.org/Graphics/SVG/1.1/DTD/svg11.dtd">
<!-- Generated by graphviz version 2.30.1 (20140110.0959)
 -->
<!-- Title: clag.cc Pages: 1 -->
<svg width="1575pt" height="264pt"
 viewBox="0.00 0.00 1574.89 264.00" xmlns="http://www.w3.org/2000/svg" xmlns:xlink="http://www.w3.org/1999/xlink">
<g id="graph0" class="graph" transform="scale(1 1) rotate(0) translate(4 260)">
<title>clag.cc</title>
<!-- Node1 -->
<g id="node1" class="node"><title>Node1</title>
<polygon fill="#bfbfbf" stroke="black" points="906.003,-236.5 906.003,-255.5 954.003,-255.5 954.003,-236.5 906.003,-236.5"/>
<text text-anchor="middle" x="930.003" y="-243.5" font-family="Helvetica,sans-Serif" font-size="10.00">clag.cc</text>
</g>
<!-- Node2 -->
<g id="node2" class="node"><title>Node2</title>
<polygon fill="none" stroke="#bfbfbf" points="253.503,-0.5 253.503,-19.5 296.503,-19.5 296.503,-0.5 253.503,-0.5"/>
<text text-anchor="middle" x="275.003" y="-7.5" font-family="Helvetica,sans-Serif" font-size="10.00">cstdio</text>
</g>
<!-- Node1&#45;&gt;Node2 -->
<g id="edge1" class="edge"><title>Node1&#45;&gt;Node2</title>
<path fill="none" stroke="midnightblue" d="M905.932,-244.859C789.408,-243.991 283.317,-238.059 131.003,-200 73.5125,-185.635 41.914,-193.932 10.0029,-144 -47.4256,-54.1409 161.641,-22.6188 243.488,-13.8628"/>
<polygon fill="midnightblue" stroke="midnightblue" points="243.892,-17.3398 253.484,-12.8397 243.179,-10.3762 243.892,-17.3398"/>
</g>
<!-- Node3 -->
<g id="node3" class="node"><title>Node3</title>
<polygon fill="none" stroke="#bfbfbf" points="1346.5,-0.5 1346.5,-19.5 1391.5,-19.5 1391.5,-0.5 1346.5,-0.5"/>
<text text-anchor="middle" x="1369" y="-7.5" font-family="Helvetica,sans-Serif" font-size="10.00">cstdlib</text>
</g>
<!-- Node1&#45;&gt;Node3 -->
<g id="edge2" class="edge"><title>Node1&#45;&gt;Node3</title>
<path fill="none" stroke="midnightblue" d="M933.623,-236.41C940.24,-221.912 955.781,-192.907 979.003,-180 1093.07,-116.601 1481.64,-193.094 1559,-88 1600.48,-31.6611 1466.25,-16.4434 1401.69,-12.4139"/>
<polygon fill="midnightblue" stroke="midnightblue" points="1401.77,-8.91343 1391.59,-11.8398 1401.38,-15.9021 1401.77,-8.91343"/>
</g>
<!-- Node4 -->
<g id="node4" class="node"><title>Node4</title>
<g id="a_node4"><a xlink:href="libciomr_8h_source.html" target="_top" xlink:title="libciomr/libciomr.h">
<polygon fill="none" stroke="black" points="19.5029,-124.5 19.5029,-143.5 114.503,-143.5 114.503,-124.5 19.5029,-124.5"/>
<text text-anchor="middle" x="67.0029" y="-131.5" font-family="Helvetica,sans-Serif" font-size="10.00">libciomr/libciomr.h</text>
</a>
</g>
</g>
<!-- Node1&#45;&gt;Node4 -->
<g id="edge3" class="edge"><title>Node1&#45;&gt;Node4</title>
<path fill="none" stroke="midnightblue" d="M905.893,-245.018C793.608,-244.88 321.474,-241.781 181.003,-200 144.89,-189.259 107.861,-165.27 86.17,-149.632"/>
<polygon fill="midnightblue" stroke="midnightblue" points="87.986,-146.622 77.8604,-143.504 83.8314,-152.256 87.986,-146.622"/>
</g>
<!-- Node5 -->
<g id="node5" class="node"><title>Node5</title>
<g id="a_node5"><a xlink:href="qt_8h.html" target="_top" xlink:title="Header file for the Quantum Trio LibraryDavid Sherrill 1994.">
<polygon fill="none" stroke="black" points="303.003,-62.5 303.003,-81.5 357.003,-81.5 357.003,-62.5 303.003,-62.5"/>
<text text-anchor="middle" x="330.003" y="-69.5" font-family="Helvetica,sans-Serif" font-size="10.00">libqt/qt.h</text>
</a>
</g>
</g>
<!-- Node1&#45;&gt;Node5 -->
<g id="edge5" class="edge"><title>Node1&#45;&gt;Node5</title>
<path fill="none" stroke="midnightblue" d="M905.973,-244.616C804.39,-242.789 413.472,-233.607 371.003,-200 337.788,-173.717 331.103,-120.207 329.996,-91.7603"/>
<polygon fill="midnightblue" stroke="midnightblue" points="333.492,-91.4974 329.801,-81.5662 326.493,-91.6313 333.492,-91.4974"/>
</g>
<!-- Node7 -->
<g id="node7" class="node"><title>Node7</title>
<g id="a_node7"><a xlink:href="iwl_8h_source.html" target="_top" xlink:title="libiwl/iwl.h">
<polygon fill="none" stroke="black" points="190.003,-180.5 190.003,-199.5 252.003,-199.5 252.003,-180.5 190.003,-180.5"/>
<text text-anchor="middle" x="221.003" y="-187.5" font-family="Helvetica,sans-Serif" font-size="10.00">libiwl/iwl.h</text>
</a>
</g>
</g>
<!-- Node1&#45;&gt;Node7 -->
<g id="edge8" class="edge"><title>Node1&#45;&gt;Node7</title>
<path fill="none" stroke="midnightblue" d="M905.877,-244.155C819.973,-240.973 521.044,-228.416 276.003,-200 271.502,-199.478 266.808,-198.846 262.141,-198.161"/>
<polygon fill="midnightblue" stroke="midnightblue" points="262.472,-194.671 252.055,-196.601 261.402,-201.589 262.472,-194.671"/>
</g>
<!-- Node11 -->
<g id="node11" class="node"><title>Node11</title>
<g id="a_node11"><a xlink:href="chkpt_8h_source.html" target="_top" xlink:title="libchkpt/chkpt.h">
<polygon fill="none" stroke="black" points="988.003,-180.5 988.003,-199.5 1074,-199.5 1074,-180.5 988.003,-180.5"/>
<text text-anchor="middle" x="1031" y="-187.5" font-family="Helvetica,sans-Serif" font-size="10.00">libchkpt/chkpt.h</text>
</a>
</g>
</g>
<!-- Node1&#45;&gt;Node11 -->
<g id="edge14" class="edge"><title>Node1&#45;&gt;Node11</title>
<path fill="none" stroke="midnightblue" d="M946.23,-236.324C962.354,-227.703 987.303,-214.364 1005.97,-204.386"/>
<polygon fill="midnightblue" stroke="midnightblue" points="1007.65,-207.456 1014.82,-199.655 1004.35,-201.283 1007.65,-207.456"/>
</g>
<!-- Node12 -->
<g id="node12" class="node"><title>Node12</title>
<g id="a_node12"><a xlink:href="psi4-dec_8h_source.html" target="_top" xlink:title="psi4&#45;dec.h">
<polygon fill="none" stroke="black" points="870.003,-180.5 870.003,-199.5 932.003,-199.5 932.003,-180.5 870.003,-180.5"/>
<text text-anchor="middle" x="901.003" y="-187.5" font-family="Helvetica,sans-Serif" font-size="10.00">psi4&#45;dec.h</text>
</a>
</g>
</g>
<!-- Node1&#45;&gt;Node12 -->
<g id="edge15" class="edge"><title>Node1&#45;&gt;Node12</title>
<path fill="none" stroke="midnightblue" d="M925.214,-236.083C921.245,-228.691 915.478,-217.953 910.568,-208.811"/>
<polygon fill="midnightblue" stroke="midnightblue" points="913.517,-206.905 905.703,-199.751 907.35,-210.217 913.517,-206.905"/>
</g>
<!-- Node35 -->
<g id="node35" class="node"><title>Node35</title>
<g id="a_node35"><a xlink:href="psifiles_8h_source.html" target="_top" xlink:title="psifiles.h">
<polygon fill="none" stroke="black" points="1092,-180.5 1092,-199.5 1148,-199.5 1148,-180.5 1092,-180.5"/>
<text text-anchor="middle" x="1120" y="-187.5" font-family="Helvetica,sans-Serif" font-size="10.00">psifiles.h</text>
</a>
</g>
</g>
<!-- Node1&#45;&gt;Node35 -->
<g id="edge49" class="edge"><title>Node1&#45;&gt;Node35</title>
<path fill="none" stroke="midnightblue" d="M954.067,-238.161C986.333,-228.991 1043.96,-212.611 1082.09,-201.775"/>
<polygon fill="midnightblue" stroke="midnightblue" points="1083.15,-205.112 1091.81,-199.011 1081.24,-198.379 1083.15,-205.112"/>
</g>
<!-- Node8 -->
<g id="node8" class="node"><title>Node8</title>
<g id="a_node8"><a xlink:href="psio_8h_source.html" target="_top" xlink:title="libpsio/psio.h">
<polygon fill="none" stroke="black" points="240.003,-124.5 240.003,-143.5 314.003,-143.5 314.003,-124.5 240.003,-124.5"/>
<text text-anchor="middle" x="277.003" y="-131.5" font-family="Helvetica,sans-Serif" font-size="10.00">libpsio/psio.h</text>
</a>
</g>
</g>
<!-- Node1&#45;&gt;Node8 -->
<g id="edge50" class="edge"><title>Node1&#45;&gt;Node8</title>
<path fill="none" stroke="midnightblue" d="M905.996,-244.3C800.716,-241.083 382.788,-226.715 331.003,-200 310.896,-189.627 295.417,-168.163 286.288,-152.735"/>
<polygon fill="midnightblue" stroke="midnightblue" points="289.147,-150.676 281.221,-143.645 283.033,-154.084 289.147,-150.676"/>
</g>
<!-- Node36 -->
<g id="node36" class="node"><title>Node36</title>
<polygon fill="none" stroke="#bfbfbf" points="1166,-180.5 1166,-199.5 1210,-199.5 1210,-180.5 1166,-180.5"/>
<text text-anchor="middle" x="1188" y="-187.5" font-family="Helvetica,sans-Serif" font-size="10.00">cmath</text>
</g>
<!-- Node1&#45;&gt;Node36 -->
<g id="edge51" class="edge"><title>Node1&#45;&gt;Node36</title>
<path fill="none" stroke="midnightblue" d="M954.01,-240.948C993.89,-234.067 1076.48,-219.178 1155.59,-200.182"/>
<polygon fill="midnightblue" stroke="midnightblue" points="1156.82,-203.483 1165.71,-197.722 1155.17,-196.681 1156.82,-203.483"/>
</g>
<!-- Node37 -->
<g id="node37" class="node"><title>Node37</title>
<polygon fill="none" stroke="#bfbfbf" points="1228,-180.5 1228,-199.5 1274,-199.5 1274,-180.5 1228,-180.5"/>
<text text-anchor="middle" x="1251" y="-187.5" font-family="Helvetica,sans-Serif" font-size="10.00">cstring</text>
</g>
<!-- Node1&#45;&gt;Node37 -->
<g id="edge52" class="edge"><title>Node1&#45;&gt;Node37</title>
<path fill="none" stroke="midnightblue" d="M954.161,-242.231C1002.45,-236.486 1114.46,-222.104 1217.7,-200.068"/>
<polygon fill="midnightblue" stroke="midnightblue" points="1218.63,-203.449 1227.67,-197.912 1217.15,-196.607 1218.63,-203.449"/>
</g>
<!-- Node6 -->
<g id="node6" class="node"><title>Node6</title>
<polygon fill="none" stroke="#bfbfbf" points="433.503,-0.5 433.503,-19.5 474.503,-19.5 474.503,-0.5 433.503,-0.5"/>
<text text-anchor="middle" x="454.003" y="-7.5" font-family="Helvetica,sans-Serif" font-size="10.00">string</text>
</g>
<!-- Node1&#45;&gt;Node6 -->
<g id="edge53" class="edge"><title>Node1&#45;&gt;Node6</title>
<path fill="none" stroke="midnightblue" d="M905.783,-242.292C821.06,-232.435 539.23,-196.28 467.003,-144 433.166,-119.508 425.332,-96.8607 434.003,-56 436,-46.5915 440.104,-36.7618 444.077,-28.6981"/>
<polygon fill="midnightblue" stroke="midnightblue" points="447.31,-30.0721 448.873,-19.5932 441.116,-26.8101 447.31,-30.0721"/>
</g>
<!-- Node38 -->
<g id="node38" class="node"><title>Node38</title>
<g id="a_node38"><a xlink:href="clag_2indpairs_8h_source.html" target="_top" xlink:title="indpairs.h">
<polygon fill="none" stroke="black" points="1292.5,-180.5 1292.5,-199.5 1351.5,-199.5 1351.5,-180.5 1292.5,-180.5"/>
<text text-anchor="middle" x="1322" y="-187.5" font-family="Helvetica,sans-Serif" font-size="10.00">indpairs.h</text>
</a>
</g>
</g>
<!-- Node1&#45;&gt;Node38 -->
<g id="edge54" class="edge"><title>Node1&#45;&gt;Node38</title>
<path fill="none" stroke="midnightblue" d="M954.098,-242.768C1009.94,-237.417 1152.66,-222.721 1282.16,-199.981"/>
<polygon fill="midnightblue" stroke="midnightblue" points="1283.02,-203.383 1292.26,-198.187 1281.8,-196.491 1283.02,-203.383"/>
</g>
<!-- Node39 -->
<g id="node39" class="node"><title>Node39</title>
<g id="a_node39"><a xlink:href="clag_8h.html" target="_top" xlink:title="Header file for CI Lagrangian program.">
<polygon fill="none" stroke="black" points="1369.5,-180.5 1369.5,-199.5 1412.5,-199.5 1412.5,-180.5 1369.5,-180.5"/>
<text text-anchor="middle" x="1391" y="-187.5" font-family="Helvetica,sans-Serif" font-size="10.00">clag.h</text>
</a>
</g>
</g>
<!-- Node1&#45;&gt;Node39 -->
<g id="edge55" class="edge"><title>Node1&#45;&gt;Node39</title>
<path fill="none" stroke="midnightblue" d="M954.474,-243.968C1019.13,-240.918 1199.9,-230.312 1359.45,-199.739"/>
<polygon fill="midnightblue" stroke="midnightblue" points="1360.3,-203.14 1369.44,-197.792 1358.96,-196.269 1360.3,-203.14"/>
</g>
<!-- Node4&#45;&gt;Node2 -->
<g id="edge4" class="edge"><title>Node4&#45;&gt;Node2</title>
<path fill="none" stroke="midnightblue" d="M70.8923,-124.402C78.5413,-108.467 97.0796,-74.3086 123.003,-56 159.357,-30.3245 210.438,-19.1304 243.132,-14.3675"/>
<polygon fill="midnightblue" stroke="midnightblue" points="244.018,-17.7803 253.466,-12.9872 243.091,-10.8419 244.018,-17.7803"/>
</g>
<!-- Node5&#45;&gt;Node2 -->
<g id="edge6" class="edge"><title>Node5&#45;&gt;Node2</title>
<path fill="none" stroke="midnightblue" d="M322.123,-62.4035C313.709,-53.2252 300.184,-38.4699 289.777,-27.1173"/>
<polygon fill="midnightblue" stroke="midnightblue" points="292.206,-24.5871 282.868,-19.5806 287.046,-29.3172 292.206,-24.5871"/>
</g>
<!-- Node5&#45;&gt;Node6 -->
<g id="edge7" class="edge"><title>Node5&#45;&gt;Node6</title>
<path fill="none" stroke="midnightblue" d="M347.769,-62.4035C368.487,-52.3787 402.955,-35.7006 426.992,-24.0699"/>
<polygon fill="midnightblue" stroke="midnightblue" points="428.793,-27.0868 436.27,-19.5806 425.744,-20.7857 428.793,-27.0868"/>
</g>
<!-- Node7&#45;&gt;Node2 -->
<g id="edge9" class="edge"><title>Node7&#45;&gt;Node2</title>
<path fill="none" stroke="midnightblue" d="M218.329,-180.491C214.029,-167.565 204.748,-142.529 192.003,-124 179.179,-105.357 164.662,-108.905 156.003,-88 150.56,-74.8604 147.918,-67.7008 156.003,-56 175.487,-27.802 215.074,-17.2546 243.233,-13.3205"/>
<polygon fill="midnightblue" stroke="midnightblue" points="243.883,-16.768 253.401,-12.1135 243.058,-9.81684 243.883,-16.768"/>
</g>
<!-- Node7&#45;&gt;Node8 -->
<g id="edge10" class="edge"><title>Node7&#45;&gt;Node8</title>
<path fill="none" stroke="midnightblue" d="M230,-180.324C238.197,-172.42 250.508,-160.548 260.475,-150.938"/>
<polygon fill="midnightblue" stroke="midnightblue" points="263.073,-153.295 267.842,-143.834 258.214,-148.256 263.073,-153.295"/>
</g>
<!-- Node10 -->
<g id="node10" class="node"><title>Node10</title>
<g id="a_node10"><a xlink:href="libiwl_2config_8h_source.html" target="_top" xlink:title="config.h">
<polygon fill="none" stroke="black" points="132.503,-124.5 132.503,-143.5 183.503,-143.5 183.503,-124.5 132.503,-124.5"/>
<text text-anchor="middle" x="158.003" y="-131.5" font-family="Helvetica,sans-Serif" font-size="10.00">config.h</text>
</a>
</g>
</g>
<!-- Node7&#45;&gt;Node10 -->
<g id="edge13" class="edge"><title>Node7&#45;&gt;Node10</title>
<path fill="none" stroke="midnightblue" d="M210.881,-180.324C201.477,-172.263 187.259,-160.077 175.934,-150.369"/>
<polygon fill="midnightblue" stroke="midnightblue" points="178.179,-147.684 168.309,-143.834 173.624,-152.999 178.179,-147.684"/>
</g>
<!-- Node8&#45;&gt;Node2 -->
<g id="edge11" class="edge"><title>Node8&#45;&gt;Node2</title>
<path fill="none" stroke="midnightblue" d="M276.859,-124.226C276.536,-104.53 275.748,-56.4371 275.309,-29.7004"/>
<polygon fill="midnightblue" stroke="midnightblue" points="278.809,-29.6357 275.145,-19.6944 271.81,-29.7505 278.809,-29.6357"/>
</g>
<!-- Node9 -->
<g id="node9" class="node"><title>Node9</title>
<g id="a_node9"><a xlink:href="libpsio_2config_8h_source.html" target="_top" xlink:title="libpsio/config.h">
<polygon fill="none" stroke="black" points="165.003,-62.5 165.003,-81.5 247.003,-81.5 247.003,-62.5 165.003,-62.5"/>
<text text-anchor="middle" x="206.003" y="-69.5" font-family="Helvetica,sans-Serif" font-size="10.00">libpsio/config.h</text>
</a>
</g>
</g>
<!-- Node8&#45;&gt;Node9 -->
<g id="edge12" class="edge"><title>Node8&#45;&gt;Node9</title>
<path fill="none" stroke="midnightblue" d="M266.83,-124.403C255.653,-114.958 237.486,-99.6056 223.912,-88.1342"/>
<polygon fill="midnightblue" stroke="midnightblue" points="226.054,-85.3619 216.157,-81.5806 221.535,-90.7085 226.054,-85.3619"/>
</g>
<!-- Node13 -->
<g id="node13" class="node"><title>Node13</title>
<polygon fill="none" stroke="#bfbfbf" points="911.003,-124.5 911.003,-143.5 1019,-143.5 1019,-124.5 911.003,-124.5"/>
<text text-anchor="middle" x="965.003" y="-131.5" font-family="Helvetica,sans-Serif" font-size="10.00">boost/shared_ptr.hpp</text>
</g>
<!-- Node12&#45;&gt;Node13 -->
<g id="edge16" class="edge"><title>Node12&#45;&gt;Node13</title>
<path fill="none" stroke="midnightblue" d="M911.286,-180.324C920.839,-172.263 935.283,-160.077 946.787,-150.369"/>
<polygon fill="midnightblue" stroke="midnightblue" points="949.147,-152.958 954.533,-143.834 944.633,-147.608 949.147,-152.958"/>
</g>
<!-- Node14 -->
<g id="node14" class="node"><title>Node14</title>
<polygon fill="none" stroke="#bfbfbf" points="1127,-62.5 1127,-81.5 1259,-81.5 1259,-62.5 1127,-62.5"/>
<text text-anchor="middle" x="1193" y="-69.5" font-family="Helvetica,sans-Serif" font-size="10.00">boost/current_function.hpp</text>
</g>
<!-- Node12&#45;&gt;Node14 -->
<g id="edge17" class="edge"><title>Node12&#45;&gt;Node14</title>
<path fill="none" stroke="midnightblue" d="M932.128,-181.554C963.248,-173.7 1012.22,-160.224 1053,-144 1095.36,-127.151 1142.14,-102.006 1169.47,-86.6014"/>
<polygon fill="midnightblue" stroke="midnightblue" points="1171.33,-89.5728 1178.29,-81.5882 1167.87,-83.4873 1171.33,-89.5728"/>
</g>
<!-- Node12&#45;&gt;Node6 -->
<g id="edge18" class="edge"><title>Node12&#45;&gt;Node6</title>
<path fill="none" stroke="midnightblue" d="M869.881,-187.651C789.33,-183.805 575.788,-171.263 511.003,-144 474.599,-128.681 458.987,-123.657 442.003,-88 433.031,-69.1627 439.223,-45.0775 445.566,-28.9033"/>
<polygon fill="midnightblue" stroke="midnightblue" points="448.853,-30.1203 449.598,-19.5517 442.424,-27.349 448.853,-30.1203"/>
</g>
<!-- Node15 -->
<g id="node15" class="node"><title>Node15</title>
<polygon fill="none" stroke="#bfbfbf" points="1113.5,-124.5 1113.5,-143.5 1142.5,-143.5 1142.5,-124.5 1113.5,-124.5"/>
<text text-anchor="middle" x="1128" y="-131.5" font-family="Helvetica,sans-Serif" font-size="10.00">list</text>
</g>
<!-- Node12&#45;&gt;Node15 -->
<g id="edge19" class="edge"><title>Node12&#45;&gt;Node15</title>
<path fill="none" stroke="midnightblue" d="M932.052,-182.721C971.192,-174.628 1040.44,-159.716 1099,-144 1100.47,-143.607 1101.97,-143.189 1103.48,-142.756"/>
<polygon fill="midnightblue" stroke="midnightblue" points="1104.74,-146.031 1113.31,-139.801 1102.73,-139.327 1104.74,-146.031"/>
</g>
<!-- Node16 -->
<g id="node16" class="node"><title>Node16</title>
<polygon fill="none" stroke="#bfbfbf" points="1073.5,-62.5 1073.5,-81.5 1108.5,-81.5 1108.5,-62.5 1073.5,-62.5"/>
<text text-anchor="middle" x="1091" y="-69.5" font-family="Helvetica,sans-Serif" font-size="10.00">map</text>
</g>
<!-- Node12&#45;&gt;Node16 -->
<g id="edge20" class="edge"><title>Node12&#45;&gt;Node16</title>
<path fill="none" stroke="midnightblue" d="M932.252,-182.589C959.27,-176.004 998.513,-163.864 1028,-144 1049.48,-129.531 1068.33,-106.07 1079.69,-90.1094"/>
<polygon fill="midnightblue" stroke="midnightblue" points="1082.68,-91.9263 1085.47,-81.7036 1076.92,-87.9591 1082.68,-91.9263"/>
</g>
<!-- Node17 -->
<g id="node17" class="node"><title>Node17</title>
<g id="a_node17"><a xlink:href="liboptions_8h_source.html" target="_top" xlink:title="liboptions/liboptions.h">
<polygon fill="none" stroke="black" points="783.003,-124.5 783.003,-143.5 893.003,-143.5 893.003,-124.5 783.003,-124.5"/>
<text text-anchor="middle" x="838.003" y="-131.5" font-family="Helvetica,sans-Serif" font-size="10.00">liboptions/liboptions.h</text>
</a>
</g>
</g>
<!-- Node12&#45;&gt;Node17 -->
<g id="edge21" class="edge"><title>Node12&#45;&gt;Node17</title>
<path fill="none" stroke="midnightblue" d="M890.881,-180.324C881.477,-172.263 867.259,-160.077 855.934,-150.369"/>
<polygon fill="midnightblue" stroke="midnightblue" points="858.179,-147.684 848.309,-143.834 853.624,-152.999 858.179,-147.684"/>
</g>
<!-- Node26 -->
<g id="node26" class="node"><title>Node26</title>
<g id="a_node26"><a xlink:href="include_2exception_8h_source.html" target="_top" xlink:title="exception.h">
<polygon fill="none" stroke="black" points="1303.5,-124.5 1303.5,-143.5 1370.5,-143.5 1370.5,-124.5 1303.5,-124.5"/>
<text text-anchor="middle" x="1337" y="-131.5" font-family="Helvetica,sans-Serif" font-size="10.00">exception.h</text>
</a>
</g>
</g>
<!-- Node12&#45;&gt;Node26 -->
<g id="edge36" class="edge"><title>Node12&#45;&gt;Node26</title>
<path fill="none" stroke="midnightblue" d="M932.415,-182.373C936.963,-181.514 941.595,-180.693 946.003,-180 1071.46,-160.27 1220.84,-145.469 1293.28,-138.84"/>
<polygon fill="midnightblue" stroke="midnightblue" points="1293.76,-142.311 1303.4,-137.921 1293.13,-135.34 1293.76,-142.311"/>
</g>
<!-- Node31 -->
<g id="node31" class="node"><title>Node31</title>
<g id="a_node31"><a xlink:href="typedefs_8h_source.html" target="_top" xlink:title="libmints/typedefs.h">
<polygon fill="none" stroke="black" points="520.503,-124.5 520.503,-143.5 619.503,-143.5 619.503,-124.5 520.503,-124.5"/>
<text text-anchor="middle" x="570.003" y="-131.5" font-family="Helvetica,sans-Serif" font-size="10.00">libmints/typedefs.h</text>
</a>
</g>
</g>
<!-- Node12&#45;&gt;Node31 -->
<g id="edge42" class="edge"><title>Node12&#45;&gt;Node31</title>
<path fill="none" stroke="midnightblue" d="M869.863,-183.92C815.026,-174.974 700.369,-156.268 629.801,-144.756"/>
<polygon fill="midnightblue" stroke="midnightblue" points="630.154,-141.267 619.721,-143.111 629.027,-148.176 630.154,-141.267"/>
</g>
<!-- Node17&#45;&gt;Node6 -->
<g id="edge22" class="edge"><title>Node17&#45;&gt;Node6</title>
<path fill="none" stroke="midnightblue" d="M782.855,-126.859C743.623,-120.873 690.547,-109.409 648.003,-88 628.28,-78.0749 629.481,-66.3983 610.003,-56 569.566,-34.4127 517.555,-22.093 484.99,-15.9776"/>
<polygon fill="midnightblue" stroke="midnightblue" points="485.198,-12.459 474.737,-14.1371 483.961,-19.3489 485.198,-12.459"/>
</g>
<!-- Node18 -->
<g id="node18" class="node"><title>Node18</title>
<polygon fill="none" stroke="#bfbfbf" points="819.003,-0.5 819.003,-19.5 863.003,-19.5 863.003,-0.5 819.003,-0.5"/>
<text text-anchor="middle" x="841.003" y="-7.5" font-family="Helvetica,sans-Serif" font-size="10.00">vector</text>
</g>
<!-- Node17&#45;&gt;Node18 -->
<g id="edge23" class="edge"><title>Node17&#45;&gt;Node18</title>
<path fill="none" stroke="midnightblue" d="M888.512,-124.487C909.682,-118.153 932.291,-107.136 945.003,-88 952.872,-76.1533 952.811,-67.8869 945.003,-56 936.634,-43.2593 900.287,-29.4537 872.901,-20.5412"/>
<polygon fill="midnightblue" stroke="midnightblue" points="873.876,-17.1786 863.286,-17.4901 871.759,-23.8508 873.876,-17.1786"/>
</g>
<!-- Node17&#45;&gt;Node16 -->
<g id="edge24" class="edge"><title>Node17&#45;&gt;Node16</title>
<path fill="none" stroke="midnightblue" d="M890.603,-124.468C947.059,-114.967 1032.83,-99.4428 1064,-88 1065.42,-87.4803 1066.85,-86.8937 1068.27,-86.2612"/>
<polygon fill="midnightblue" stroke="midnightblue" points="1070.05,-89.2873 1077.38,-81.6439 1066.88,-83.0437 1070.05,-89.2873"/>
</g>
<!-- Node19 -->
<g id="node19" class="node"><title>Node19</title>
<polygon fill="none" stroke="#bfbfbf" points="657.503,-62.5 657.503,-81.5 724.503,-81.5 724.503,-62.5 657.503,-62.5"/>
<text text-anchor="middle" x="691.003" y="-69.5" font-family="Helvetica,sans-Serif" font-size="10.00">exception.h</text>
</g>
<!-- Node17&#45;&gt;Node19 -->
<g id="edge25" class="edge"><title>Node17&#45;&gt;Node19</title>
<path fill="none" stroke="midnightblue" d="M816.941,-124.403C791.944,-114.2 750.061,-97.1055 721.516,-85.4544"/>
<polygon fill="midnightblue" stroke="midnightblue" points="722.607,-82.1192 712.025,-81.5806 719.961,-88.6001 722.607,-82.1192"/>
</g>
<!-- Node20 -->
<g id="node20" class="node"><title>Node20</title>
<g id="a_node20"><a xlink:href="libutil_8h_source.html" target="_top" xlink:title="libutil/libutil.h">
<polygon fill="none" stroke="black" points="863.503,-62.5 863.503,-81.5 936.503,-81.5 936.503,-62.5 863.503,-62.5"/>
<text text-anchor="middle" x="900.003" y="-69.5" font-family="Helvetica,sans-Serif" font-size="10.00">libutil/libutil.h</text>
</a>
</g>
</g>
<!-- Node17&#45;&gt;Node20 -->
<g id="edge26" class="edge"><title>Node17&#45;&gt;Node20</title>
<path fill="none" stroke="midnightblue" d="M846.886,-124.403C856.462,-115.136 871.914,-100.183 883.689,-88.7876"/>
<polygon fill="midnightblue" stroke="midnightblue" points="886.384,-91.05 891.136,-81.5806 881.516,-86.0197 886.384,-91.05"/>
</g>
<!-- Node22 -->
<g id="node22" class="node"><title>Node22</title>
<g id="a_node22"><a xlink:href="libutil_2ref_8h_source.html" target="_top" xlink:title="libutil/ref.h">
<polygon fill="none" stroke="black" points="993.003,-62.5 993.003,-81.5 1055,-81.5 1055,-62.5 993.003,-62.5"/>
<text text-anchor="middle" x="1024" y="-69.5" font-family="Helvetica,sans-Serif" font-size="10.00">libutil/ref.h</text>
</a>
</g>
</g>
<!-- Node17&#45;&gt;Node22 -->
<g id="edge30" class="edge"><title>Node17&#45;&gt;Node22</title>
<path fill="none" stroke="midnightblue" d="M865.067,-124.476C893.477,-115.501 939.429,-100.91 979.003,-88 982.135,-86.9784 985.386,-85.9098 988.644,-84.8339"/>
<polygon fill="midnightblue" stroke="midnightblue" points="989.932,-88.0943 998.321,-81.6238 987.728,-81.4504 989.932,-88.0943"/>
</g>
<!-- Node25 -->
<g id="node25" class="node"><title>Node25</title>
<polygon fill="none" stroke="#bfbfbf" points="743.003,-57 743.003,-87 845.003,-87 845.003,-57 743.003,-57"/>
<text text-anchor="start" x="751.003" y="-75" font-family="Helvetica,sans-Serif" font-size="10.00">boost/python/object</text>
<text text-anchor="middle" x="794.003" y="-64" font-family="Helvetica,sans-Serif" font-size="10.00">_fwd.hpp</text>
</g>
<!-- Node17&#45;&gt;Node25 -->
<g id="edge35" class="edge"><title>Node17&#45;&gt;Node25</title>
<path fill="none" stroke="midnightblue" d="M831.699,-124.403C826.129,-116.809 817.76,-105.396 810.321,-95.2518"/>
<polygon fill="midnightblue" stroke="midnightblue" points="813.109,-93.1351 804.373,-87.1408 807.464,-97.2747 813.109,-93.1351"/>
</g>
<!-- Node20&#45;&gt;Node6 -->
<g id="edge27" class="edge"><title>Node20&#45;&gt;Node6</title>
<path fill="none" stroke="midnightblue" d="M876.856,-62.4285C869.622,-60.0281 861.557,-57.6319 854.003,-56 711.952,-25.3118 673.373,-36.6577 529.003,-20 514.508,-18.3276 498.447,-16.4089 484.918,-14.774"/>
<polygon fill="midnightblue" stroke="midnightblue" points="485.038,-11.263 474.689,-13.5337 484.195,-18.2121 485.038,-11.263"/>
</g>
<!-- Node20&#45;&gt;Node18 -->
<g id="edge28" class="edge"><title>Node20&#45;&gt;Node18</title>
<path fill="none" stroke="midnightblue" d="M891.55,-62.4035C882.437,-53.1361 867.733,-38.1828 856.527,-26.7876"/>
<polygon fill="midnightblue" stroke="midnightblue" points="858.948,-24.2569 849.44,-19.5806 853.956,-29.1649 858.948,-24.2569"/>
</g>
<!-- Node21 -->
<g id="node21" class="node"><title>Node21</title>
<polygon fill="none" stroke="#bfbfbf" points="881.003,-0.5 881.003,-19.5 943.003,-19.5 943.003,-0.5 881.003,-0.5"/>
<text text-anchor="middle" x="912.003" y="-7.5" font-family="Helvetica,sans-Serif" font-size="10.00">sys/time.h</text>
</g>
<!-- Node20&#45;&gt;Node21 -->
<g id="edge29" class="edge"><title>Node20&#45;&gt;Node21</title>
<path fill="none" stroke="midnightblue" d="M901.722,-62.4035C903.433,-53.849 906.113,-40.4497 908.308,-29.4762"/>
<polygon fill="midnightblue" stroke="midnightblue" points="911.758,-30.0728 910.287,-19.5806 904.894,-28.7 911.758,-30.0728"/>
</g>
<!-- Node23 -->
<g id="node23" class="node"><title>Node23</title>
<polygon fill="none" stroke="#bfbfbf" points="986.503,-0.5 986.503,-19.5 1035.5,-19.5 1035.5,-0.5 986.503,-0.5"/>
<text text-anchor="middle" x="1011" y="-7.5" font-family="Helvetica,sans-Serif" font-size="10.00">cstddef</text>
</g>
<!-- Node22&#45;&gt;Node23 -->
<g id="edge31" class="edge"><title>Node22&#45;&gt;Node23</title>
<path fill="none" stroke="midnightblue" d="M1022.14,-62.4035C1020.29,-53.849 1017.38,-40.4497 1015.01,-29.4762"/>
<polygon fill="midnightblue" stroke="midnightblue" points="1018.4,-28.6127 1012.86,-19.5806 1011.56,-30.095 1018.4,-28.6127"/>
</g>
<!-- Node22&#45;&gt;Node2 -->
<g id="edge32" class="edge"><title>Node22&#45;&gt;Node2</title>
<path fill="none" stroke="midnightblue" d="M992.998,-64.217C978.487,-61.2731 960.927,-58.039 945.003,-56 881.307,-47.8441 430.962,-20.3942 306.694,-12.9026"/>
<polygon fill="midnightblue" stroke="midnightblue" points="306.869,-9.40694 296.677,-12.2994 306.449,-16.3943 306.869,-9.40694"/>
</g>
<!-- Node22&#45;&gt;Node3 -->
<g id="edge33" class="edge"><title>Node22&#45;&gt;Node3</title>
<path fill="none" stroke="midnightblue" d="M1044.49,-62.3628C1050.68,-60.0177 1057.54,-57.6684 1064,-56 1161.38,-30.8632 1280.11,-18.384 1336.4,-13.5231"/>
<polygon fill="midnightblue" stroke="midnightblue" points="1336.81,-17.0011 1346.48,-12.6768 1336.23,-10.0256 1336.81,-17.0011"/>
</g>
<!-- Node24 -->
<g id="node24" class="node"><title>Node24</title>
<polygon fill="none" stroke="#bfbfbf" points="1054,-0.5 1054,-19.5 1106,-19.5 1106,-0.5 1054,-0.5"/>
<text text-anchor="middle" x="1080" y="-7.5" font-family="Helvetica,sans-Serif" font-size="10.00">assert.h</text>
</g>
<!-- Node22&#45;&gt;Node24 -->
<g id="edge34" class="edge"><title>Node22&#45;&gt;Node24</title>
<path fill="none" stroke="midnightblue" d="M1032.03,-62.4035C1040.59,-53.2252 1054.36,-38.4699 1064.96,-27.1173"/>
<polygon fill="midnightblue" stroke="midnightblue" points="1067.73,-29.2793 1071.99,-19.5806 1062.61,-24.503 1067.73,-29.2793"/>
</g>
<!-- Node27 -->
<g id="node27" class="node"><title>Node27</title>
<polygon fill="none" stroke="#bfbfbf" points="1414.5,-62.5 1414.5,-81.5 1473.5,-81.5 1473.5,-62.5 1414.5,-62.5"/>
<text text-anchor="middle" x="1444" y="-69.5" font-family="Helvetica,sans-Serif" font-size="10.00">exception</text>
</g>
<!-- Node26&#45;&gt;Node27 -->
<g id="edge37" class="edge"><title>Node26&#45;&gt;Node27</title>
<path fill="none" stroke="midnightblue" d="M1352.33,-124.403C1369.97,-114.512 1399.16,-98.1442 1419.86,-86.5378"/>
<polygon fill="midnightblue" stroke="midnightblue" points="1421.69,-89.5244 1428.7,-81.5806 1418.27,-83.4188 1421.69,-89.5244"/>
</g>
<!-- Node28 -->
<g id="node28" class="node"><title>Node28</title>
<polygon fill="none" stroke="#bfbfbf" points="1491.5,-62.5 1491.5,-81.5 1550.5,-81.5 1550.5,-62.5 1491.5,-62.5"/>
<text text-anchor="middle" x="1521" y="-69.5" font-family="Helvetica,sans-Serif" font-size="10.00">stdexcept</text>
</g>
<!-- Node26&#45;&gt;Node28 -->
<g id="edge38" class="edge"><title>Node26&#45;&gt;Node28</title>
<path fill="none" stroke="midnightblue" d="M1366.63,-124.432C1396.06,-115.772 1442.41,-101.741 1482,-88 1484.61,-87.0947 1487.31,-86.127 1490,-85.1355"/>
<polygon fill="midnightblue" stroke="midnightblue" points="1491.51,-88.3071 1499.64,-81.5092 1489.05,-81.7557 1491.51,-88.3071"/>
</g>
<!-- Node29 -->
<g id="node29" class="node"><title>Node29</title>
<polygon fill="none" stroke="#bfbfbf" points="1277,-62.5 1277,-81.5 1329,-81.5 1329,-62.5 1277,-62.5"/>
<text text-anchor="middle" x="1303" y="-69.5" font-family="Helvetica,sans-Serif" font-size="10.00">sstream</text>
</g>
<!-- Node26&#45;&gt;Node29 -->
<g id="edge39" class="edge"><title>Node26&#45;&gt;Node29</title>
<path fill="none" stroke="midnightblue" d="M1332.13,-124.403C1327.13,-115.582 1319.21,-101.608 1312.89,-90.4548"/>
<polygon fill="midnightblue" stroke="midnightblue" points="1315.84,-88.5553 1307.87,-81.5806 1309.75,-92.0064 1315.84,-88.5553"/>
</g>
<!-- Node30 -->
<g id="node30" class="node"><title>Node30</title>
<polygon fill="none" stroke="#bfbfbf" points="1347.5,-62.5 1347.5,-81.5 1396.5,-81.5 1396.5,-62.5 1347.5,-62.5"/>
<text text-anchor="middle" x="1372" y="-69.5" font-family="Helvetica,sans-Serif" font-size="10.00">string.h</text>
</g>
<!-- Node26&#45;&gt;Node30 -->
<g id="edge40" class="edge"><title>Node26&#45;&gt;Node30</title>
<path fill="none" stroke="midnightblue" d="M1342.02,-124.403C1347.16,-115.582 1355.32,-101.608 1361.82,-90.4548"/>
<polygon fill="midnightblue" stroke="midnightblue" points="1364.98,-91.982 1367,-81.5806 1358.94,-88.4548 1364.98,-91.982"/>
</g>
<!-- Node26&#45;&gt;Node14 -->
<g id="edge41" class="edge"><title>Node26&#45;&gt;Node14</title>
<path fill="none" stroke="midnightblue" d="M1316.37,-124.403C1291.88,-114.2 1250.86,-97.1055 1222.89,-85.4544"/>
<polygon fill="midnightblue" stroke="midnightblue" points="1224.17,-82.196 1213.6,-81.5806 1221.48,-88.6576 1224.17,-82.196"/>
</g>
<!-- Node32 -->
<g id="node32" class="node"><title>Node32</title>
<g id="a_node32"><a xlink:href="compiler_8h_source.html" target="_top" xlink:title="compiler.h">
<polygon fill="none" stroke="black" points="539.003,-62.5 539.003,-81.5 601.003,-81.5 601.003,-62.5 539.003,-62.5"/>
<text text-anchor="middle" x="570.003" y="-69.5" font-family="Helvetica,sans-Serif" font-size="10.00">compiler.h</text>
</a>
</g>
</g>
<!-- Node31&#45;&gt;Node32 -->
<g id="edge43" class="edge"><title>Node31&#45;&gt;Node32</title>
<path fill="none" stroke="midnightblue" d="M570.003,-124.403C570.003,-115.938 570.003,-102.728 570.003,-91.8199"/>
<polygon fill="midnightblue" stroke="midnightblue" points="573.503,-91.5806 570.003,-81.5806 566.503,-91.5806 573.503,-91.5806"/>
</g>
<!-- Node34 -->
<g id="node34" class="node"><title>Node34</title>
<g id="a_node34"><a xlink:href="dimension_8h_source.html" target="_top" xlink:title="dimension.h">
<polygon fill="none" stroke="black" points="451.503,-62.5 451.503,-81.5 520.503,-81.5 520.503,-62.5 451.503,-62.5"/>
<text text-anchor="middle" x="486.003" y="-69.5" font-family="Helvetica,sans-Serif" font-size="10.00">dimension.h</text>
</a>
</g>
</g>
<!-- Node31&#45;&gt;Node34 -->
<g id="edge45" class="edge"><title>Node31&#45;&gt;Node34</title>
<path fill="none" stroke="midnightblue" d="M557.968,-124.403C544.494,-114.78 522.437,-99.0242 506.288,-87.4891"/>
<polygon fill="midnightblue" stroke="midnightblue" points="508.187,-84.5449 498.016,-81.5806 504.119,-90.2411 508.187,-84.5449"/>
</g>
<!-- Node33 -->
<g id="node33" class="node"><title>Node33</title>
<polygon fill="none" stroke="#bfbfbf" points="538.003,-0.5 538.003,-19.5 602.003,-19.5 602.003,-0.5 538.003,-0.5"/>
<text text-anchor="middle" x="570.003" y="-7.5" font-family="Helvetica,sans-Serif" font-size="10.00">psiconfig.h</text>
</g>
<!-- Node32&#45;&gt;Node33 -->
<g id="edge44" class="edge"><title>Node32&#45;&gt;Node33</title>
<path fill="none" stroke="midnightblue" d="M570.003,-62.4035C570.003,-53.9381 570.003,-40.7283 570.003,-29.8199"/>
<polygon fill="midnightblue" stroke="midnightblue" points="573.503,-29.5806 570.003,-19.5806 566.503,-29.5806 573.503,-29.5806"/>
</g>
<!-- Node34&#45;&gt;Node6 -->
<g id="edge46" class="edge"><title>Node34&#45;&gt;Node6</title>
<path fill="none" stroke="midnightblue" d="M481.418,-62.4035C476.713,-53.5816 469.26,-39.6075 463.312,-28.4548"/>
<polygon fill="midnightblue" stroke="midnightblue" points="466.373,-26.7571 458.579,-19.5806 460.197,-30.0512 466.373,-26.7571"/>
</g>
<!-- Node34&#45;&gt;Node2 -->
<g id="edge47" class="edge"><title>Node34&#45;&gt;Node2</title>
<path fill="none" stroke="midnightblue" d="M455.772,-62.4035C416.042,-51.106 346.598,-31.3588 306.33,-19.9083"/>
<polygon fill="midnightblue" stroke="midnightblue" points="307.093,-16.4864 296.517,-17.1177 305.178,-23.2195 307.093,-16.4864"/>
</g>
<!-- Node34&#45;&gt;Node18 -->
<g id="edge48" class="edge"><title>Node34&#45;&gt;Node18</title>
<path fill="none" stroke="midnightblue" d="M508.604,-62.4017C515.406,-60.0576 522.941,-57.6992 530.003,-56 630.161,-31.9005 751.771,-18.8699 808.693,-13.6909"/>
<polygon fill="midnightblue" stroke="midnightblue" points="809.218,-17.1581 818.869,-12.7866 808.598,-10.1856 809.218,-17.1581"/>
</g>
</g>
</svg>
