<?xml version="1.0" encoding="UTF-8" standalone="no"?>
<!DOCTYPE svg PUBLIC "-//W3C//DTD SVG 1.1//EN"
 "http://www.w3.org/Graphics/SVG/1.1/DTD/svg11.dtd">
<!-- Generated by graphviz version 2.30.1 (20140110.0959)
 -->
<!-- Title: psi::ShellRotation::init Pages: 1 -->
<!--zoomable 545 -->
<svg id="main" version="1.1" xmlns="http://www.w3.org/2000/svg" xmlns:xlink="http://www.w3.org/1999/xlink" xml:space="preserve" onload="init(evt)">
        <defs>
                <circle id="rim" cx="0" cy="0" r="7"/>
                <circle id="rim2" cx="0" cy="0" r="3.5"/>
                <g id="zoomPlus">
                        <use xlink:href="#rim" fill="#404040">
                                <set attributeName="fill" to="#808080" begin="zoomplus.mouseover" end="zoomplus.mouseout"/>
                        </use>
                        <path d="M-4,0h8M0,-4v8" fill="none" stroke="white" stroke-width="1.5" pointer-events="none"/>
                </g>
                <g id="zoomMin">
                        <use xlink:href="#rim" fill="#404040">
                                <set attributeName="fill" to="#808080" begin="zoomminus.mouseover" end="zoomminus.mouseout"/>
                        </use>
                        <path d="M-4,0h8" fill="none" stroke="white" stroke-width="1.5" pointer-events="none"/>
                </g>
                <g id="dirArrow">
                        <path fill="none" stroke="white" stroke-width="1.5" d="M0,-3.0v7 M-2.5,-0.5L0,-3.0L2.5,-0.5"/>
                </g>
               <g id="resetDef">
                       <use xlink:href="#rim2" fill="#404040">
                               <set attributeName="fill" to="#808080" begin="reset.mouseover" end="reset.mouseout"/>
                       </use>
               </g>
        </defs>

<script type="text/javascript">
var viewWidth = 666;
var viewHeight = 545;
var sectionId = 'dynsection-0';
</script>
<script xlink:href="svgpan.js"/>
<svg id="graph" class="graph">
<g id="viewport">
<title>psi::ShellRotation::init</title>
<!-- Node1 -->
<g id="node1" class="node"><title>Node1</title>
<polygon fill="#bfbfbf" stroke="black" points="0,-277 0,-307 94,-307 94,-277 0,-277"/>
<text text-anchor="start" x="8" y="-295" font-family="Helvetica,sans-Serif" font-size="10.00">psi::ShellRotation</text>
<text text-anchor="middle" x="47" y="-284" font-family="Helvetica,sans-Serif" font-size="10.00">::init</text>
</g>
<!-- Node2 -->
<g id="node2" class="node"><title>Node2</title>
<g id="a_node2"><a xlink:href="classpsi_1_1IntegralFactory.html#a83b44f705f03faa90c4653893990c05f" target="_top" xlink:title="Return a new Cartesian iterator.">
<polygon fill="none" stroke="black" points="158.5,-507 158.5,-537 259.5,-537 259.5,-507 158.5,-507"/>
<text text-anchor="start" x="166.5" y="-525" font-family="Helvetica,sans-Serif" font-size="10.00">psi::IntegralFactory</text>
<text text-anchor="middle" x="209" y="-514" font-family="Helvetica,sans-Serif" font-size="10.00">::cartesian_iter</text>
</a>
</g>
</g>
<!-- Node1&#45;&gt;Node2 -->
<g id="edge1" class="edge"><title>Node1&#45;&gt;Node2</title>
<path fill="none" stroke="midnightblue" d="M49.6583,-307.062C54.6017,-344.68 72.6561,-443.554 130,-497 135.435,-502.066 141.901,-506.105 148.751,-509.326"/>
<polygon fill="midnightblue" stroke="midnightblue" points="147.687,-512.673 158.268,-513.231 150.344,-506.197 147.687,-512.673"/>
</g>
<!-- Node3 -->
<g id="node3" class="node"><title>Node3</title>
<g id="a_node3"><a xlink:href="classpsi_1_1IntegralFactory.html#aa385568eb52c747f8449c6cfc1ef12c4" target="_top" xlink:title="Return a new rudundant Cartesian iterator.">
<polygon fill="none" stroke="black" points="144.5,-458 144.5,-488 273.5,-488 273.5,-458 144.5,-458"/>
<text text-anchor="start" x="152.5" y="-476" font-family="Helvetica,sans-Serif" font-size="10.00">psi::IntegralFactory</text>
<text text-anchor="middle" x="209" y="-465" font-family="Helvetica,sans-Serif" font-size="10.00">::redundant_cartesian_iter</text>
</a>
</g>
</g>
<!-- Node1&#45;&gt;Node3 -->
<g id="edge2" class="edge"><title>Node1&#45;&gt;Node3</title>
<path fill="none" stroke="midnightblue" d="M51.8335,-307.336C60.4057,-338.478 84.0748,-409.435 130,-448 132.001,-449.68 134.117,-451.248 136.32,-452.711"/>
<polygon fill="midnightblue" stroke="midnightblue" points="134.79,-455.869 145.198,-457.85 138.296,-449.811 134.79,-455.869"/>
</g>
<!-- Node4 -->
<g id="node4" class="node"><title>Node4</title>
<g id="a_node4"><a xlink:href="classpsi_1_1CartesianIter.html#a626f9bfc123b1bcb828830a2e4dcee9d" target="_top" xlink:title="Returns the number of Cartesian functions.">
<polygon fill="none" stroke="black" points="157.5,-419.5 157.5,-438.5 260.5,-438.5 260.5,-419.5 157.5,-419.5"/>
<text text-anchor="middle" x="209" y="-426.5" font-family="Helvetica,sans-Serif" font-size="10.00">psi::CartesianIter::n</text>
</a>
</g>
</g>
<!-- Node1&#45;&gt;Node4 -->
<g id="edge3" class="edge"><title>Node1&#45;&gt;Node4</title>
<path fill="none" stroke="midnightblue" d="M54.3466,-307.166C65.6837,-332.344 91.8553,-382.609 130,-409 135.357,-412.706 141.347,-415.726 147.564,-418.186"/>
<polygon fill="midnightblue" stroke="midnightblue" points="146.864,-421.647 157.459,-421.61 149.153,-415.032 146.864,-421.647"/>
</g>
<!-- Node5 -->
<g id="node5" class="node"><title>Node5</title>
<g id="a_node5"><a xlink:href="classpsi_1_1CartesianIter.html#ab11b4a099352e56c338674062011918c" target="_top" xlink:title="Start the iteration.">
<polygon fill="none" stroke="black" points="163,-370 163,-400 255,-400 255,-370 163,-370"/>
<text text-anchor="start" x="171" y="-388" font-family="Helvetica,sans-Serif" font-size="10.00">psi::CartesianIter</text>
<text text-anchor="middle" x="209" y="-377" font-family="Helvetica,sans-Serif" font-size="10.00">::start</text>
</a>
</g>
</g>
<!-- Node1&#45;&gt;Node5 -->
<g id="edge4" class="edge"><title>Node1&#45;&gt;Node5</title>
<path fill="none" stroke="midnightblue" d="M62.7078,-307.232C78.1865,-322.485 103.887,-345.692 130,-360 137.181,-363.935 145.079,-367.365 153.007,-370.317"/>
<polygon fill="midnightblue" stroke="midnightblue" points="152.051,-373.691 162.646,-373.684 154.36,-367.082 152.051,-373.691"/>
</g>
<!-- Node6 -->
<g id="node6" class="node"><title>Node6</title>
<g id="a_node6"><a xlink:href="classpsi_1_1CartesianIter.html#ad2774fd0f6009347560b204ca32595e8" target="_top" xlink:title="Move to the next Cartesian function.">
<polygon fill="none" stroke="black" points="163,-321 163,-351 255,-351 255,-321 163,-321"/>
<text text-anchor="start" x="171" y="-339" font-family="Helvetica,sans-Serif" font-size="10.00">psi::CartesianIter</text>
<text text-anchor="middle" x="209" y="-328" font-family="Helvetica,sans-Serif" font-size="10.00">::next</text>
</a>
</g>
</g>
<!-- Node1&#45;&gt;Node6 -->
<g id="edge5" class="edge"><title>Node1&#45;&gt;Node6</title>
<path fill="none" stroke="midnightblue" d="M94.2786,-304.727C112.669,-309.784 133.971,-315.642 153.131,-320.911"/>
<polygon fill="midnightblue" stroke="midnightblue" points="152.359,-324.328 162.929,-323.605 154.215,-317.579 152.359,-324.328"/>
</g>
<!-- Node7 -->
<g id="node7" class="node"><title>Node7</title>
<g id="a_node7"><a xlink:href="classpsi_1_1CartesianIter.html#a8eb69f80f50eef19f94f38a918d80715" target="_top" xlink:title="psi::CartesianIter::bfn">
<polygon fill="none" stroke="black" points="153.5,-282.5 153.5,-301.5 264.5,-301.5 264.5,-282.5 153.5,-282.5"/>
<text text-anchor="middle" x="209" y="-289.5" font-family="Helvetica,sans-Serif" font-size="10.00">psi::CartesianIter::bfn</text>
</a>
</g>
</g>
<!-- Node1&#45;&gt;Node7 -->
<g id="edge6" class="edge"><title>Node1&#45;&gt;Node7</title>
<path fill="none" stroke="midnightblue" d="M94.2786,-292C109.565,-292 126.861,-292 143.268,-292"/>
<polygon fill="midnightblue" stroke="midnightblue" points="143.343,-295.5 153.343,-292 143.343,-288.5 143.343,-295.5"/>
</g>
<!-- Node8 -->
<g id="node8" class="node"><title>Node8</title>
<g id="a_node8"><a xlink:href="classpsi_1_1RedundantCartesianIter.html#a0a95fdfdcda38adf7a05ce3ad954ce59" target="_top" xlink:title="Initialize the iterator.">
<polygon fill="none" stroke="black" points="139.5,-233 139.5,-263 278.5,-263 278.5,-233 139.5,-233"/>
<text text-anchor="start" x="147.5" y="-251" font-family="Helvetica,sans-Serif" font-size="10.00">psi::RedundantCartesianIter</text>
<text text-anchor="middle" x="209" y="-240" font-family="Helvetica,sans-Serif" font-size="10.00">::start</text>
</a>
</g>
</g>
<!-- Node1&#45;&gt;Node8 -->
<g id="edge7" class="edge"><title>Node1&#45;&gt;Node8</title>
<path fill="none" stroke="midnightblue" d="M94.2786,-279.273C109.565,-275.07 126.861,-270.313 143.268,-265.801"/>
<polygon fill="midnightblue" stroke="midnightblue" points="144.629,-269.057 153.343,-263.031 142.773,-262.308 144.629,-269.057"/>
</g>
<!-- Node9 -->
<g id="node9" class="node"><title>Node9</title>
<g id="a_node9"><a xlink:href="classpsi_1_1RedundantCartesianIter.html#ae0b68e23c9a626fa295d3d7234aa31b1" target="_top" xlink:title="Move to the next combination of axes.">
<polygon fill="none" stroke="black" points="139.5,-184 139.5,-214 278.5,-214 278.5,-184 139.5,-184"/>
<text text-anchor="start" x="147.5" y="-202" font-family="Helvetica,sans-Serif" font-size="10.00">psi::RedundantCartesianIter</text>
<text text-anchor="middle" x="209" y="-191" font-family="Helvetica,sans-Serif" font-size="10.00">::next</text>
</a>
</g>
</g>
<!-- Node1&#45;&gt;Node9 -->
<g id="edge8" class="edge"><title>Node1&#45;&gt;Node9</title>
<path fill="none" stroke="midnightblue" d="M62.7078,-276.768C78.1865,-261.515 103.887,-238.308 130,-224 133.965,-221.827 138.149,-219.809 142.435,-217.939"/>
<polygon fill="midnightblue" stroke="midnightblue" points="143.988,-221.086 151.939,-214.083 141.357,-214.6 143.988,-221.086"/>
</g>
<!-- Node10 -->
<g id="node10" class="node"><title>Node10</title>
<g id="a_node10"><a xlink:href="classpsi_1_1CartesianIter.html#a5ed1029cacaf86a674d32cf8e4fd6d71" target="_top" xlink:title="Return the angular momentum.">
<polygon fill="none" stroke="black" points="159,-145.5 159,-164.5 259,-164.5 259,-145.5 159,-145.5"/>
<text text-anchor="middle" x="209" y="-152.5" font-family="Helvetica,sans-Serif" font-size="10.00">psi::CartesianIter::l</text>
</a>
</g>
</g>
<!-- Node1&#45;&gt;Node10 -->
<g id="edge9" class="edge"><title>Node1&#45;&gt;Node10</title>
<path fill="none" stroke="midnightblue" d="M54.3466,-276.834C65.6837,-251.656 91.8553,-201.391 130,-175 135.716,-171.045 142.154,-167.872 148.817,-165.327"/>
<polygon fill="midnightblue" stroke="midnightblue" points="150.31,-168.518 158.684,-162.028 148.09,-161.879 150.31,-168.518"/>
</g>
<!-- Node11 -->
<g id="node11" class="node"><title>Node11</title>
<g id="a_node11"><a xlink:href="classpsi_1_1RedundantCartesianIter.html#afaa68468a2ddfc55ad8f3b878d3fa154" target="_top" xlink:title="Return the i&#39;th axis.">
<polygon fill="none" stroke="black" points="139.5,-96 139.5,-126 278.5,-126 278.5,-96 139.5,-96"/>
<text text-anchor="start" x="147.5" y="-114" font-family="Helvetica,sans-Serif" font-size="10.00">psi::RedundantCartesianIter</text>
<text text-anchor="middle" x="209" y="-103" font-family="Helvetica,sans-Serif" font-size="10.00">::axis</text>
</a>
</g>
</g>
<!-- Node1&#45;&gt;Node11 -->
<g id="edge10" class="edge"><title>Node1&#45;&gt;Node11</title>
<path fill="none" stroke="midnightblue" d="M51.8335,-276.664C60.4057,-245.522 84.0748,-174.565 130,-136 132.001,-134.32 134.117,-132.752 136.32,-131.289"/>
<polygon fill="midnightblue" stroke="midnightblue" points="138.296,-134.189 145.198,-126.15 134.79,-128.131 138.296,-134.189"/>
</g>
<!-- Node12 -->
<g id="node12" class="node"><title>Node12</title>
<g id="a_node12"><a xlink:href="classpsi_1_1RedundantCartesianIter.html#ab1c5618f46072a2ee4f9dd5e655ca919" target="_top" xlink:title="Return the current Cartesian basis function number.">
<polygon fill="none" stroke="black" points="130,-57.5 130,-76.5 288,-76.5 288,-57.5 130,-57.5"/>
<text text-anchor="middle" x="209" y="-64.5" font-family="Helvetica,sans-Serif" font-size="10.00">psi::RedundantCartesianIter::bfn</text>
</a>
</g>
</g>
<!-- Node1&#45;&gt;Node12 -->
<g id="edge11" class="edge"><title>Node1&#45;&gt;Node12</title>
<path fill="none" stroke="midnightblue" d="M49.4694,-276.729C53.9757,-238.628 71.1003,-138.726 130,-87 132.391,-84.8999 134.974,-83.0152 137.696,-81.3241"/>
<polygon fill="midnightblue" stroke="midnightblue" points="139.561,-84.298 146.794,-76.5557 136.312,-78.0979 139.561,-84.298"/>
</g>
<!-- Node13 -->
<g id="node13" class="node"><title>Node13</title>
<g id="a_node13"><a xlink:href="classpsi_1_1RedundantCartesianIter.html#a12f145ab9fb9a65d1f7651b352b20092" target="_top" xlink:title="The current exponent of x.">
<polygon fill="none" stroke="black" points="324,-114.5 324,-133.5 474,-133.5 474,-114.5 324,-114.5"/>
<text text-anchor="middle" x="399" y="-121.5" font-family="Helvetica,sans-Serif" font-size="10.00">psi::RedundantCartesianIter::a</text>
</a>
</g>
</g>
<!-- Node12&#45;&gt;Node13 -->
<g id="edge12" class="edge"><title>Node12&#45;&gt;Node13</title>
<path fill="none" stroke="midnightblue" d="M250.287,-76.5485C262.472,-79.6459 275.842,-83.2555 288,-87 304.258,-92.0072 307.907,-94.4863 324,-100 334.956,-103.754 346.875,-107.686 357.883,-111.255"/>
<polygon fill="midnightblue" stroke="midnightblue" points="357.09,-114.677 367.682,-114.416 359.239,-108.015 357.09,-114.677"/>
</g>
<!-- Node14 -->
<g id="node14" class="node"><title>Node14</title>
<g id="a_node14"><a xlink:href="classpsi_1_1RedundantCartesianIter.html#a83f7070e8b623efcf795bacc9d253b64" target="_top" xlink:title="The angular momentum.">
<polygon fill="none" stroke="black" points="510.5,-57.5 510.5,-76.5 657.5,-76.5 657.5,-57.5 510.5,-57.5"/>
<text text-anchor="middle" x="584" y="-64.5" font-family="Helvetica,sans-Serif" font-size="10.00">psi::RedundantCartesianIter::l</text>
</a>
</g>
</g>
<!-- Node12&#45;&gt;Node14 -->
<g id="edge14" class="edge"><title>Node12&#45;&gt;Node14</title>
<path fill="none" stroke="midnightblue" d="M288.193,-67C350.216,-67 436.696,-67 499.951,-67"/>
<polygon fill="midnightblue" stroke="midnightblue" points="500.291,-70.5001 510.291,-67 500.291,-63.5001 500.291,-70.5001"/>
</g>
<!-- Node15 -->
<g id="node15" class="node"><title>Node15</title>
<g id="a_node15"><a xlink:href="classpsi_1_1RedundantCartesianIter.html#ad56cfd5d4a8f8f80aaad576e1234c35d" target="_top" xlink:title="The current exponent of y.">
<polygon fill="none" stroke="black" points="324,-38.5 324,-57.5 474,-57.5 474,-38.5 324,-38.5"/>
<text text-anchor="middle" x="399" y="-45.5" font-family="Helvetica,sans-Serif" font-size="10.00">psi::RedundantCartesianIter::b</text>
</a>
</g>
</g>
<!-- Node12&#45;&gt;Node15 -->
<g id="edge15" class="edge"><title>Node12&#45;&gt;Node15</title>
<path fill="none" stroke="midnightblue" d="M288.096,-59.1074C296.579,-58.25 305.241,-57.3746 313.794,-56.5102"/>
<polygon fill="midnightblue" stroke="midnightblue" points="314.169,-59.9902 323.766,-55.5024 313.465,-53.0257 314.169,-59.9902"/>
</g>
<!-- Node16 -->
<g id="node16" class="node"><title>Node16</title>
<g id="a_node16"><a xlink:href="classpsi_1_1RedundantCartesianIter.html#a8d1b592b7c3963f6edf2bfca71cc6db3" target="_top" xlink:title="The current exponent of z.">
<polygon fill="none" stroke="black" points="324,-0.5 324,-19.5 474,-19.5 474,-0.5 324,-0.5"/>
<text text-anchor="middle" x="399" y="-7.5" font-family="Helvetica,sans-Serif" font-size="10.00">psi::RedundantCartesianIter::c</text>
</a>
</g>
</g>
<!-- Node12&#45;&gt;Node16 -->
<g id="edge17" class="edge"><title>Node12&#45;&gt;Node16</title>
<path fill="none" stroke="midnightblue" d="M237.01,-57.3994C260.003,-49.3707 293.983,-37.8446 324,-29 332.047,-26.6289 340.635,-24.2696 349.006,-22.061"/>
<polygon fill="midnightblue" stroke="midnightblue" points="349.888,-25.4481 358.686,-19.5459 348.128,-18.673 349.888,-25.4481"/>
</g>
<!-- Node13&#45;&gt;Node14 -->
<g id="edge13" class="edge"><title>Node13&#45;&gt;Node14</title>
<path fill="none" stroke="midnightblue" d="M430.63,-114.459C461.376,-104.883 508.903,-90.0795 542.694,-79.5543"/>
<polygon fill="midnightblue" stroke="midnightblue" points="543.763,-82.8872 552.27,-76.5716 541.682,-76.2039 543.763,-82.8872"/>
</g>
<!-- Node15&#45;&gt;Node14 -->
<g id="edge16" class="edge"><title>Node15&#45;&gt;Node14</title>
<path fill="none" stroke="midnightblue" d="M474.169,-55.7006C482.715,-56.5879 491.469,-57.4968 500.12,-58.395"/>
<polygon fill="midnightblue" stroke="midnightblue" points="499.901,-61.891 510.209,-59.4425 500.624,-54.9284 499.901,-61.891"/>
</g>
<!-- Node16&#45;&gt;Node14 -->
<g id="edge18" class="edge"><title>Node16&#45;&gt;Node14</title>
<path fill="none" stroke="midnightblue" d="M439.727,-19.5452C450.869,-22.3994 462.953,-25.6628 474,-29 499.008,-36.555 526.81,-46.2688 548.076,-53.984"/>
<polygon fill="midnightblue" stroke="midnightblue" points="547.057,-57.3381 557.651,-57.4827 549.46,-50.7632 547.057,-57.3381"/>
</g>
</g>
</svg>
        <g id="navigator" transform="translate(0 0)" fill="#404254">
                <rect fill="#f2f5e9" fill-opacity="0.5" stroke="#606060" stroke-width=".5" x="0" y="0" width="60" height="60"/>
                <use id="zoomplus" xlink:href="#zoomPlus" x="17" y="9" onmousedown="handleZoom(evt,'in')"/>
                <use id="zoomminus" xlink:href="#zoomMin" x="42" y="9" onmousedown="handleZoom(evt,'out')"/>
                <use id="reset" xlink:href="#resetDef" x="30" y="36" onmousedown="handleReset()"/>
                <g id="arrowUp" xlink:href="#dirArrow" transform="translate(30 24)" onmousedown="handlePan(0,-1)">
                  <use xlink:href="#rim" fill="#404040">
                        <set attributeName="fill" to="#808080" begin="arrowUp.mouseover" end="arrowUp.mouseout"/>
                  </use>
                  <path fill="none" stroke="white" stroke-width="1.5" d="M0,-3.0v7 M-2.5,-0.5L0,-3.0L2.5,-0.5"/>
                </g>
                <g id="arrowRight" xlink:href="#dirArrow" transform="rotate(90) translate(36 -43)" onmousedown="handlePan(1,0)">
                  <use xlink:href="#rim" fill="#404040">
                        <set attributeName="fill" to="#808080" begin="arrowRight.mouseover" end="arrowRight.mouseout"/>
                  </use>
                  <path fill="none" stroke="white" stroke-width="1.5" d="M0,-3.0v7 M-2.5,-0.5L0,-3.0L2.5,-0.5"/>
                </g>
                <g id="arrowDown" xlink:href="#dirArrow" transform="rotate(180) translate(-30 -48)" onmousedown="handlePan(0,1)">
                  <use xlink:href="#rim" fill="#404040">
                        <set attributeName="fill" to="#808080" begin="arrowDown.mouseover" end="arrowDown.mouseout"/>
                  </use>
                  <path fill="none" stroke="white" stroke-width="1.5" d="M0,-3.0v7 M-2.5,-0.5L0,-3.0L2.5,-0.5"/>
                </g>
                <g id="arrowLeft" xlink:href="#dirArrow" transform="rotate(270) translate(-36 17)" onmousedown="handlePan(-1,0)">
                  <use xlink:href="#rim" fill="#404040">
                        <set attributeName="fill" to="#808080" begin="arrowLeft.mouseover" end="arrowLeft.mouseout"/>
                  </use>
                  <path fill="none" stroke="white" stroke-width="1.5" d="M0,-3.0v7 M-2.5,-0.5L0,-3.0L2.5,-0.5"/>
                </g>
        </g>
        <svg viewBox="0 0 15 15" width="100%" height="30px" preserveAspectRatio="xMaxYMin meet">
         <g id="arrow_out" transform="scale(0.3 0.3)">
          <a xlink:href="classpsi_1_1ShellRotation_a716c2e65ec2b9bedc9072b0c213d7a5f_cgraph_org.svg" target="_base">
           <rect id="button" ry="5" rx="5" y="6" x="6" height="38" width="38"
                fill="#f2f5e9" fill-opacity="0.5" stroke="#606060" stroke-width="1.0"/>
           <path id="arrow"
             d="M 11.500037,31.436501 C 11.940474,20.09759 22.043105,11.32322 32.158766,21.979434 L 37.068811,17.246167 C 37.068811,17.246167 37.088388,32 37.088388,32 L 22.160133,31.978069 C 22.160133,31.978069 26.997745,27.140456 26.997745,27.140456 C 18.528582,18.264221 13.291696,25.230495 11.500037,31.436501 z"
             style="fill:#404040;"/>
          </a>
         </g>
        </svg>
</svg>
