<?xml version="1.0" encoding="UTF-8" standalone="no"?>
<!DOCTYPE svg PUBLIC "-//W3C//DTD SVG 1.1//EN"
 "http://www.w3.org/Graphics/SVG/1.1/DTD/svg11.dtd">
<!-- Generated by graphviz version 2.30.1 (20140110.0959)
 -->
<!-- Title: psi::IntegralTransform::presort_so_tei Pages: 1 -->
<svg width="396pt" height="406pt"
 viewBox="0.00 0.00 396.00 406.00" xmlns="http://www.w3.org/2000/svg" xmlns:xlink="http://www.w3.org/1999/xlink">
<g id="graph0" class="graph" transform="scale(1 1) rotate(0) translate(4 402)">
<title>psi::IntegralTransform::presort_so_tei</title>
<!-- Node1 -->
<g id="node1" class="node"><title>Node1</title>
<polygon fill="#bfbfbf" stroke="black" points="0,-181 0,-211 112,-211 112,-181 0,-181"/>
<text text-anchor="start" x="8" y="-199" font-family="Helvetica,sans-Serif" font-size="10.00">psi::IntegralTransform</text>
<text text-anchor="middle" x="56" y="-188" font-family="Helvetica,sans-Serif" font-size="10.00">::presort_so_tei</text>
</g>
<!-- Node2 -->
<g id="node2" class="node"><title>Node2</title>
<g id="a_node2"><a xlink:href="group__CIOMR.html#ga35255b9a71ed5869db7c1c5507923929" target="_top" xlink:title="psi::init_array">
<polygon fill="none" stroke="black" points="166.5,-378.5 166.5,-397.5 241.5,-397.5 241.5,-378.5 166.5,-378.5"/>
<text text-anchor="middle" x="204" y="-385.5" font-family="Helvetica,sans-Serif" font-size="10.00">psi::init_array</text>
</a>
</g>
</g>
<!-- Node1&#45;&gt;Node2 -->
<g id="edge1" class="edge"><title>Node1&#45;&gt;Node2</title>
<path fill="none" stroke="midnightblue" d="M60.9849,-211.218C70.4353,-244.406 97.3014,-323.85 148,-368 150.809,-370.446 153.941,-372.601 157.246,-374.5"/>
<polygon fill="midnightblue" stroke="midnightblue" points="155.777,-377.678 166.296,-378.946 158.864,-371.395 155.777,-377.678"/>
</g>
<!-- Node3 -->
<g id="node3" class="node"><title>Node3</title>
<g id="a_node3"><a xlink:href="classpsi_1_1IntegralTransform.html#ac5627f95eed6861555b2b7141b01fffa" target="_top" xlink:title="psi::IntegralTransform\l::DPD_ID">
<polygon fill="none" stroke="black" points="148,-329 148,-359 260,-359 260,-329 148,-329"/>
<text text-anchor="start" x="156" y="-347" font-family="Helvetica,sans-Serif" font-size="10.00">psi::IntegralTransform</text>
<text text-anchor="middle" x="204" y="-336" font-family="Helvetica,sans-Serif" font-size="10.00">::DPD_ID</text>
</a>
</g>
</g>
<!-- Node1&#45;&gt;Node3 -->
<g id="edge2" class="edge"><title>Node1&#45;&gt;Node3</title>
<path fill="none" stroke="midnightblue" d="M64.8527,-211.181C78.6267,-236.527 109.383,-287.757 148,-319 150.033,-320.645 152.193,-322.207 154.434,-323.686"/>
<polygon fill="midnightblue" stroke="midnightblue" points="153.002,-326.906 163.392,-328.983 156.565,-320.88 153.002,-326.906"/>
</g>
<!-- Node4 -->
<g id="node4" class="node"><title>Node4</title>
<g id="a_node4"><a xlink:href="group__CIOMR.html#ga8847103aa5444911a3271169daf06294" target="_top" xlink:title="psi::init_int_matrix">
<polygon fill="none" stroke="black" points="156,-290.5 156,-309.5 252,-309.5 252,-290.5 156,-290.5"/>
<text text-anchor="middle" x="204" y="-297.5" font-family="Helvetica,sans-Serif" font-size="10.00">psi::init_int_matrix</text>
</a>
</g>
</g>
<!-- Node1&#45;&gt;Node4 -->
<g id="edge3" class="edge"><title>Node1&#45;&gt;Node4</title>
<path fill="none" stroke="midnightblue" d="M69.6739,-211.254C86.0161,-230.042 116.145,-261.82 148,-281 151.408,-283.052 155.068,-284.922 158.823,-286.618"/>
<polygon fill="midnightblue" stroke="midnightblue" points="157.681,-289.932 168.262,-290.478 160.331,-283.453 157.681,-289.932"/>
</g>
<!-- Node5 -->
<g id="node5" class="node"><title>Node5</title>
<g id="a_node5"><a xlink:href="group__CIOMR.html#gae22ab2f8c96f4c132c42cd405c805841" target="_top" xlink:title="psi::init_int_array">
<polygon fill="none" stroke="black" points="158.5,-252.5 158.5,-271.5 249.5,-271.5 249.5,-252.5 158.5,-252.5"/>
<text text-anchor="middle" x="204" y="-259.5" font-family="Helvetica,sans-Serif" font-size="10.00">psi::init_int_array</text>
</a>
</g>
</g>
<!-- Node1&#45;&gt;Node5 -->
<g id="edge4" class="edge"><title>Node1&#45;&gt;Node5</title>
<path fill="none" stroke="midnightblue" d="M84.8708,-211.177C102.674,-220.599 126.392,-232.65 148,-242 153.496,-244.378 159.376,-246.721 165.173,-248.92"/>
<polygon fill="midnightblue" stroke="midnightblue" points="164.173,-252.282 174.766,-252.463 166.599,-245.715 164.173,-252.282"/>
</g>
<!-- Node6 -->
<g id="node6" class="node"><title>Node6</title>
<g id="a_node6"><a xlink:href="group__CIOMR.html#gad04c18700d83b6b209cd8decf6830474" target="_top" xlink:title="psi::init_long_int\l_array">
<polygon fill="none" stroke="black" points="160.5,-203 160.5,-233 247.5,-233 247.5,-203 160.5,-203"/>
<text text-anchor="start" x="168.5" y="-221" font-family="Helvetica,sans-Serif" font-size="10.00">psi::init_long_int</text>
<text text-anchor="middle" x="204" y="-210" font-family="Helvetica,sans-Serif" font-size="10.00">_array</text>
</a>
</g>
</g>
<!-- Node1&#45;&gt;Node6 -->
<g id="edge5" class="edge"><title>Node1&#45;&gt;Node6</title>
<path fill="none" stroke="midnightblue" d="M112.196,-204.317C124.688,-206.199 137.919,-208.193 150.304,-210.06"/>
<polygon fill="midnightblue" stroke="midnightblue" points="150.064,-213.563 160.473,-211.592 151.107,-206.641 150.064,-213.563"/>
</g>
<!-- Node7 -->
<g id="node7" class="node"><title>Node7</title>
<g id="a_node7"><a xlink:href="group__CIOMR.html#ga5342d96a20702d84857440badc8be2ec" target="_top" xlink:title="psi::block_matrix">
<polygon fill="none" stroke="black" points="296.5,-161.5 296.5,-180.5 387.5,-180.5 387.5,-161.5 296.5,-161.5"/>
<text text-anchor="middle" x="342" y="-168.5" font-family="Helvetica,sans-Serif" font-size="10.00">psi::block_matrix</text>
</a>
</g>
</g>
<!-- Node1&#45;&gt;Node7 -->
<g id="edge6" class="edge"><title>Node1&#45;&gt;Node7</title>
<path fill="none" stroke="midnightblue" d="M112.095,-191.15C162.348,-186.726 236.195,-180.226 286.318,-175.814"/>
<polygon fill="midnightblue" stroke="midnightblue" points="286.67,-179.296 296.324,-174.933 286.056,-172.323 286.67,-179.296"/>
</g>
<!-- Node8 -->
<g id="node8" class="node"><title>Node8</title>
<g id="a_node8"><a xlink:href="group__CIOMR.html#gaeb4fe42f2b28f61fece2c6d63096126e" target="_top" xlink:title="psi::free_block">
<polygon fill="none" stroke="black" points="302,-79.5 302,-98.5 382,-98.5 382,-79.5 302,-79.5"/>
<text text-anchor="middle" x="342" y="-86.5" font-family="Helvetica,sans-Serif" font-size="10.00">psi::free_block</text>
</a>
</g>
</g>
<!-- Node1&#45;&gt;Node8 -->
<g id="edge7" class="edge"><title>Node1&#45;&gt;Node8</title>
<path fill="none" stroke="midnightblue" d="M67.2011,-180.657C82.1363,-159.643 112.113,-122.627 148,-106 193.343,-84.9923 251.059,-82.6423 291.515,-84.3697"/>
<polygon fill="midnightblue" stroke="midnightblue" points="291.498,-87.8736 301.668,-84.9039 291.866,-80.8832 291.498,-87.8736"/>
</g>
<!-- Node9 -->
<g id="node9" class="node"><title>Node9</title>
<g id="a_node9"><a xlink:href="group__CIOMR.html#ga745c4af9d06f1793980918e23565982e" target="_top" xlink:title="psi::free_int_matrix">
<polygon fill="none" stroke="black" points="154,-38.5 154,-57.5 254,-57.5 254,-38.5 154,-38.5"/>
<text text-anchor="middle" x="204" y="-45.5" font-family="Helvetica,sans-Serif" font-size="10.00">psi::free_int_matrix</text>
</a>
</g>
</g>
<!-- Node1&#45;&gt;Node9 -->
<g id="edge8" class="edge"><title>Node1&#45;&gt;Node9</title>
<path fill="none" stroke="midnightblue" d="M64.7699,-180.628C78.4218,-154.976 109.003,-103.187 148,-72 152.795,-68.165 158.298,-64.8238 163.928,-61.9522"/>
<polygon fill="midnightblue" stroke="midnightblue" points="165.815,-64.9353 173.42,-57.5587 162.875,-58.5828 165.815,-64.9353"/>
</g>
<!-- Node10 -->
<g id="node10" class="node"><title>Node10</title>
<g id="a_node10"><a xlink:href="classpsi_1_1IntegralTransform.html#a13040331ffb1c1b2ab616d39cf2299c2" target="_top" xlink:title="psi::IntegralTransform\l::trans_one">
<polygon fill="none" stroke="black" points="148,-115 148,-145 260,-145 260,-115 148,-115"/>
<text text-anchor="start" x="156" y="-133" font-family="Helvetica,sans-Serif" font-size="10.00">psi::IntegralTransform</text>
<text text-anchor="middle" x="204" y="-122" font-family="Helvetica,sans-Serif" font-size="10.00">::trans_one</text>
</a>
</g>
</g>
<!-- Node1&#45;&gt;Node10 -->
<g id="edge9" class="edge"><title>Node1&#45;&gt;Node10</title>
<path fill="none" stroke="midnightblue" d="M90.4953,-180.858C111.269,-171.468 138.15,-159.316 160.426,-149.246"/>
<polygon fill="midnightblue" stroke="midnightblue" points="161.99,-152.38 169.661,-145.071 159.107,-146.001 161.99,-152.38"/>
</g>
<!-- Node12 -->
<g id="node12" class="node"><title>Node12</title>
<g id="a_node12"><a xlink:href="group__CIOMR.html#ga176a03f37c3dd941a5d30be2d3614b58" target="_top" xlink:title="psi::print_array">
<polygon fill="none" stroke="black" points="163.5,-0.5 163.5,-19.5 244.5,-19.5 244.5,-0.5 163.5,-0.5"/>
<text text-anchor="middle" x="204" y="-7.5" font-family="Helvetica,sans-Serif" font-size="10.00">psi::print_array</text>
</a>
</g>
</g>
<!-- Node1&#45;&gt;Node12 -->
<g id="edge13" class="edge"><title>Node1&#45;&gt;Node12</title>
<path fill="none" stroke="midnightblue" d="M61.2113,-180.67C70.949,-148.035 98.0925,-71.2284 148,-29 149.991,-27.3156 152.139,-25.7778 154.393,-24.374"/>
<polygon fill="midnightblue" stroke="midnightblue" points="156.27,-27.3418 163.501,-19.5979 153.019,-21.1424 156.27,-27.3418"/>
</g>
<!-- Node10&#45;&gt;Node7 -->
<g id="edge10" class="edge"><title>Node10&#45;&gt;Node7</title>
<path fill="none" stroke="midnightblue" d="M254.869,-145.034C269.51,-149.448 285.36,-154.226 299.425,-158.466"/>
<polygon fill="midnightblue" stroke="midnightblue" points="298.722,-161.91 309.307,-161.446 300.743,-155.208 298.722,-161.91"/>
</g>
<!-- Node11 -->
<g id="node11" class="node"><title>Node11</title>
<g id="a_node11"><a xlink:href="namespacepsi.html#a1112df35ff9d2b780efb0c24662f4fbe" target="_top" xlink:title="psi::C_DGEMM">
<polygon fill="none" stroke="black" points="299,-120.5 299,-139.5 385,-139.5 385,-120.5 299,-120.5"/>
<text text-anchor="middle" x="342" y="-127.5" font-family="Helvetica,sans-Serif" font-size="10.00">psi::C_DGEMM</text>
</a>
</g>
</g>
<!-- Node10&#45;&gt;Node11 -->
<g id="edge11" class="edge"><title>Node10&#45;&gt;Node11</title>
<path fill="none" stroke="midnightblue" d="M260.316,-130C269.613,-130 279.238,-130 288.463,-130"/>
<polygon fill="midnightblue" stroke="midnightblue" points="288.668,-133.5 298.668,-130 288.668,-126.5 288.668,-133.5"/>
</g>
<!-- Node10&#45;&gt;Node8 -->
<g id="edge12" class="edge"><title>Node10&#45;&gt;Node8</title>
<path fill="none" stroke="midnightblue" d="M254.869,-114.966C269.51,-110.552 285.36,-105.774 299.425,-101.534"/>
<polygon fill="midnightblue" stroke="midnightblue" points="300.743,-104.792 309.307,-98.5545 298.722,-98.0899 300.743,-104.792"/>
</g>
</g>
</svg>
