<?xml version="1.0" encoding="UTF-8" standalone="no"?>
<!DOCTYPE svg PUBLIC "-//W3C//DTD SVG 1.1//EN"
 "http://www.w3.org/Graphics/SVG/1.1/DTD/svg11.dtd">
<!-- Generated by graphviz version 2.30.1 (20140110.0959)
 -->
<!-- Title: psi::SuperFunctional Pages: 1 -->
<svg width="195pt" height="198pt"
 viewBox="0.00 0.00 195.00 198.00" xmlns="http://www.w3.org/2000/svg" xmlns:xlink="http://www.w3.org/1999/xlink">
<g id="graph0" class="graph" transform="scale(1 1) rotate(0) translate(4 194)">
<title>psi::SuperFunctional</title>
<!-- Node1 -->
<g id="node1" class="node"><title>Node1</title>
<polygon fill="#bfbfbf" stroke="black" points="55,-0.5 55,-19.5 161,-19.5 161,-0.5 55,-0.5"/>
<text text-anchor="middle" x="108" y="-7.5" font-family="Helvetica,sans-Serif" font-size="10.00">psi::SuperFunctional</text>
</g>
<!-- Node2 -->
<g id="node2" class="node"><title>Node2</title>
<g id="a_node2"><a xlink:href="classboost_1_1shared__ptr.html" target="_top" xlink:title="boost::shared_ptr\&lt;\l psi::Dispersion \&gt;">
<polygon fill="none" stroke="black" points="9,-91 9,-121 107,-121 107,-91 9,-91"/>
<text text-anchor="start" x="17" y="-109" font-family="Helvetica,sans-Serif" font-size="10.00">boost::shared_ptr&lt;</text>
<text text-anchor="middle" x="58" y="-98" font-family="Helvetica,sans-Serif" font-size="10.00"> psi::Dispersion &gt;</text>
</a>
</g>
</g>
<!-- Node2&#45;&gt;Node1 -->
<g id="edge1" class="edge"><title>Node2&#45;&gt;Node1</title>
<path fill="none" stroke="#9a32cd" stroke-dasharray="5,2" d="M55.0833,-80.7231C54.6476,-67.2045 56.1839,-50.6104 64,-38 69.0049,-29.9251 77.4089,-23.9081 85.5389,-19.6293"/>
<polygon fill="#9a32cd" stroke="#9a32cd" points="51.5963,-81.0338 55.7732,-90.7705 58.5799,-80.5542 51.5963,-81.0338"/>
<text text-anchor="middle" x="90.5" y="-52.5" font-family="Helvetica,sans-Serif" font-size="10.00"> dispersion_</text>
</g>
<!-- Node3 -->
<g id="node3" class="node"><title>Node3</title>
<g id="a_node3"><a xlink:href="classboost_1_1shared__ptr.html" target="_top" xlink:title="boost::shared_ptr\&lt; T \&gt;">
<polygon fill="none" stroke="black" points="0,-170.5 0,-189.5 116,-189.5 116,-170.5 0,-170.5"/>
<text text-anchor="middle" x="58" y="-177.5" font-family="Helvetica,sans-Serif" font-size="10.00">boost::shared_ptr&lt; T &gt;</text>
</a>
</g>
</g>
<!-- Node3&#45;&gt;Node2 -->
<g id="edge2" class="edge"><title>Node3&#45;&gt;Node2</title>
<path fill="none" stroke="orange" stroke-dasharray="5,2" d="M58,-160.085C58,-147.915 58,-132.354 58,-121.232"/>
<polygon fill="orange" stroke="orange" points="54.5001,-160.458 58,-170.458 61.5001,-160.458 54.5001,-160.458"/>
<text text-anchor="middle" x="101.5" y="-143.5" font-family="Helvetica,sans-Serif" font-size="10.00"> &lt; psi::Dispersion &gt;</text>
</g>
<!-- Node4 -->
<g id="node4" class="node"><title>Node4</title>
<polygon fill="none" stroke="#bfbfbf" points="125.5,-96.5 125.5,-115.5 166.5,-115.5 166.5,-96.5 125.5,-96.5"/>
<text text-anchor="middle" x="146" y="-103.5" font-family="Helvetica,sans-Serif" font-size="10.00">string</text>
</g>
<!-- Node4&#45;&gt;Node1 -->
<g id="edge3" class="edge"><title>Node4&#45;&gt;Node1</title>
<path fill="none" stroke="#9a32cd" stroke-dasharray="5,2" d="M139.658,-86.6313C134.852,-73.0668 127.914,-54.2215 121,-38 118.389,-31.874 115.139,-25.124 112.542,-19.9055"/>
<polygon fill="#9a32cd" stroke="#9a32cd" points="136.409,-87.9433 143.015,-96.2266 143.017,-85.6318 136.409,-87.9433"/>
<text text-anchor="middle" x="160.5" y="-63.5" font-family="Helvetica,sans-Serif" font-size="10.00"> citation_</text>
<text text-anchor="middle" x="160.5" y="-52.5" font-family="Helvetica,sans-Serif" font-size="10.00">description_</text>
<text text-anchor="middle" x="160.5" y="-41.5" font-family="Helvetica,sans-Serif" font-size="10.00">name_</text>
</g>
</g>
</svg>
