<?xml version="1.0" encoding="UTF-8" standalone="no"?>
<!DOCTYPE svg PUBLIC "-//W3C//DTD SVG 1.1//EN"
 "http://www.w3.org/Graphics/SVG/1.1/DTD/svg11.dtd">
<!-- Generated by graphviz version 2.30.1 (20140110.0959)
 -->
<!-- Title: psi::Matrix::equal_but_for_row_order Pages: 1 -->
<svg width="542pt" height="126pt"
 viewBox="0.00 0.00 542.00 126.00" xmlns="http://www.w3.org/2000/svg" xmlns:xlink="http://www.w3.org/1999/xlink">
<g id="graph0" class="graph" transform="scale(1 1) rotate(0) translate(4 122)">
<title>psi::Matrix::equal_but_for_row_order</title>
<!-- Node1 -->
<g id="node1" class="node"><title>Node1</title>
<polygon fill="#bfbfbf" stroke="black" points="0,-49 0,-79 100,-79 100,-49 0,-49"/>
<text text-anchor="start" x="8" y="-67" font-family="Helvetica,sans-Serif" font-size="10.00">psi::Matrix::equal</text>
<text text-anchor="middle" x="50" y="-56" font-family="Helvetica,sans-Serif" font-size="10.00">_but_for_row_order</text>
</g>
<!-- Node2 -->
<g id="node2" class="node"><title>Node2</title>
<g id="a_node2"><a xlink:href="classpsi_1_1Molecule.html#a7ab70257e73005b1bfeec7b6ff62b8ce" target="_top" xlink:title="Determine and set FULL point group.">
<polygon fill="none" stroke="black" points="136,-49 136,-79 230,-79 230,-49 136,-49"/>
<text text-anchor="start" x="144" y="-67" font-family="Helvetica,sans-Serif" font-size="10.00">psi::Molecule::set</text>
<text text-anchor="middle" x="183" y="-56" font-family="Helvetica,sans-Serif" font-size="10.00">_full_point_group</text>
</a>
</g>
</g>
<!-- Node1&#45;&gt;Node2 -->
<g id="edge1" class="edge"><title>Node1&#45;&gt;Node2</title>
<path fill="none" stroke="midnightblue" d="M110.371,-64C118.836,-64 127.439,-64 135.607,-64"/>
<polygon fill="midnightblue" stroke="midnightblue" points="110.152,-60.5001 100.152,-64 110.152,-67.5001 110.152,-60.5001"/>
</g>
<!-- Node3 -->
<g id="node3" class="node"><title>Node3</title>
<g id="a_node3"><a xlink:href="classpsi_1_1Molecule.html#a4d56f5d4df0ad9c8dbe934fed5eb95fe" target="_top" xlink:title="psi::Molecule::update\l_geometry">
<polygon fill="none" stroke="black" points="266,-49 266,-79 376,-79 376,-49 266,-49"/>
<text text-anchor="start" x="274" y="-67" font-family="Helvetica,sans-Serif" font-size="10.00">psi::Molecule::update</text>
<text text-anchor="middle" x="321" y="-56" font-family="Helvetica,sans-Serif" font-size="10.00">_geometry</text>
</a>
</g>
</g>
<!-- Node2&#45;&gt;Node3 -->
<g id="edge2" class="edge"><title>Node2&#45;&gt;Node3</title>
<path fill="none" stroke="midnightblue" d="M240.129,-64C248.528,-64 257.177,-64 265.541,-64"/>
<polygon fill="midnightblue" stroke="midnightblue" points="240.043,-60.5001 230.043,-64 240.043,-67.5001 240.043,-60.5001"/>
</g>
<!-- Node4 -->
<g id="node4" class="node"><title>Node4</title>
<g id="a_node4"><a xlink:href="classpsi_1_1Molecule.html#a9b74dcafc595d01654c754f1cedc437b" target="_top" xlink:title="psi::Molecule::operator=">
<polygon fill="none" stroke="black" points="412,-98.5 412,-117.5 534,-117.5 534,-98.5 412,-98.5"/>
<text text-anchor="middle" x="473" y="-105.5" font-family="Helvetica,sans-Serif" font-size="10.00">psi::Molecule::operator=</text>
</a>
</g>
</g>
<!-- Node3&#45;&gt;Node4 -->
<g id="edge3" class="edge"><title>Node3&#45;&gt;Node4</title>
<path fill="none" stroke="midnightblue" d="M382.859,-81.8521C402.184,-87.5207 422.809,-93.5705 439.347,-98.4217"/>
<polygon fill="midnightblue" stroke="midnightblue" points="383.783,-78.4756 373.202,-79.0192 381.812,-85.1925 383.783,-78.4756"/>
</g>
<!-- Node5 -->
<g id="node5" class="node"><title>Node5</title>
<g id="a_node5"><a xlink:href="classpsi_1_1Molecule.html#a3a01cd28c0f2d2ef6fe7a24214f69a62" target="_top" xlink:title="psi::Molecule::init\l_with_xyz">
<polygon fill="none" stroke="black" points="426.5,-49 426.5,-79 519.5,-79 519.5,-49 426.5,-49"/>
<text text-anchor="start" x="434.5" y="-67" font-family="Helvetica,sans-Serif" font-size="10.00">psi::Molecule::init</text>
<text text-anchor="middle" x="473" y="-56" font-family="Helvetica,sans-Serif" font-size="10.00">_with_xyz</text>
</a>
</g>
</g>
<!-- Node3&#45;&gt;Node5 -->
<g id="edge4" class="edge"><title>Node3&#45;&gt;Node5</title>
<path fill="none" stroke="midnightblue" d="M386.327,-64C399.788,-64 413.718,-64 426.333,-64"/>
<polygon fill="midnightblue" stroke="midnightblue" points="386.153,-60.5001 376.153,-64 386.153,-67.5001 386.153,-60.5001"/>
</g>
<!-- Node6 -->
<g id="node6" class="node"><title>Node6</title>
<g id="a_node6"><a xlink:href="classpsi_1_1Molecule.html#a05631379d8f4e0b995636c5ffad43d96" target="_top" xlink:title="psi::Molecule::set\l_variable">
<polygon fill="none" stroke="black" points="426,-0 426,-30 520,-30 520,-0 426,-0"/>
<text text-anchor="start" x="434" y="-18" font-family="Helvetica,sans-Serif" font-size="10.00">psi::Molecule::set</text>
<text text-anchor="middle" x="473" y="-7" font-family="Helvetica,sans-Serif" font-size="10.00">_variable</text>
</a>
</g>
</g>
<!-- Node3&#45;&gt;Node6 -->
<g id="edge5" class="edge"><title>Node3&#45;&gt;Node6</title>
<path fill="none" stroke="midnightblue" d="M377.895,-45.7409C393.716,-40.5727 410.752,-35.0076 425.924,-30.0516"/>
<polygon fill="midnightblue" stroke="midnightblue" points="376.648,-42.4663 368.229,-48.8986 378.821,-49.1203 376.648,-42.4663"/>
</g>
</g>
</svg>
