<?xml version="1.0" encoding="UTF-8" standalone="no"?>
<!DOCTYPE svg PUBLIC "-//W3C//DTD SVG 1.1//EN"
 "http://www.w3.org/Graphics/SVG/1.1/DTD/svg11.dtd">
<!-- Generated by graphviz version 2.30.1 (20140110.0959)
 -->
<!-- Title: psi::RedundantCartesianSubIter::start Pages: 1 -->
<svg width="410pt" height="38pt"
 viewBox="0.00 0.00 410.00 38.00" xmlns="http://www.w3.org/2000/svg" xmlns:xlink="http://www.w3.org/1999/xlink">
<g id="graph0" class="graph" transform="scale(1 1) rotate(0) translate(4 34)">
<title>psi::RedundantCartesianSubIter::start</title>
<!-- Node1 -->
<g id="node1" class="node"><title>Node1</title>
<polygon fill="#bfbfbf" stroke="black" points="0,-0 0,-30 142,-30 142,-0 0,-0"/>
<text text-anchor="start" x="8" y="-18" font-family="Helvetica,sans-Serif" font-size="10.00">psi::RedundantCartesianSub</text>
<text text-anchor="middle" x="71" y="-7" font-family="Helvetica,sans-Serif" font-size="10.00">Iter::start</text>
</g>
<!-- Node2 -->
<g id="node2" class="node"><title>Node2</title>
<g id="a_node2"><a xlink:href="classpsi_1_1ShellRotation.html#ad7e808db5a25484cfc29c0b296cfeab6" target="_top" xlink:title="psi::ShellRotation\l::init_pure">
<polygon fill="none" stroke="black" points="178,-0 178,-30 272,-30 272,-0 178,-0"/>
<text text-anchor="start" x="186" y="-18" font-family="Helvetica,sans-Serif" font-size="10.00">psi::ShellRotation</text>
<text text-anchor="middle" x="225" y="-7" font-family="Helvetica,sans-Serif" font-size="10.00">::init_pure</text>
</a>
</g>
</g>
<!-- Node1&#45;&gt;Node2 -->
<g id="edge1" class="edge"><title>Node1&#45;&gt;Node2</title>
<path fill="none" stroke="midnightblue" d="M152.474,-15C161.205,-15 169.857,-15 177.966,-15"/>
<polygon fill="midnightblue" stroke="midnightblue" points="152.216,-11.5001 142.216,-15 152.216,-18.5001 152.216,-11.5001"/>
</g>
<!-- Node3 -->
<g id="node3" class="node"><title>Node3</title>
<g id="a_node3"><a xlink:href="classpsi_1_1ShellRotation.html#a1284fcef2caa6bfc1332dd85d5c29322" target="_top" xlink:title="Initialize using init(...) or, if pure is nonzero, init_pure(...).">
<polygon fill="none" stroke="black" points="308,-0 308,-30 402,-30 402,-0 308,-0"/>
<text text-anchor="start" x="316" y="-18" font-family="Helvetica,sans-Serif" font-size="10.00">psi::ShellRotation</text>
<text text-anchor="middle" x="355" y="-7" font-family="Helvetica,sans-Serif" font-size="10.00">::ShellRotation</text>
</a>
</g>
</g>
<!-- Node2&#45;&gt;Node3 -->
<g id="edge2" class="edge"><title>Node2&#45;&gt;Node3</title>
<path fill="none" stroke="midnightblue" d="M282.442,-15C290.937,-15 299.612,-15 307.857,-15"/>
<polygon fill="midnightblue" stroke="midnightblue" points="282.211,-11.5001 272.211,-15 282.211,-18.5001 282.211,-11.5001"/>
</g>
</g>
</svg>
