<?xml version="1.0" encoding="UTF-8" standalone="no"?>
<!DOCTYPE svg PUBLIC "-//W3C//DTD SVG 1.1//EN"
 "http://www.w3.org/Graphics/SVG/1.1/DTD/svg11.dtd">
<!-- Generated by graphviz version 2.30.1 (20140110.0959)
 -->
<!-- Title: psi::Cholesky Pages: 1 -->
<svg width="226pt" height="180pt"
 viewBox="0.00 0.00 226.00 180.00" xmlns="http://www.w3.org/2000/svg" xmlns:xlink="http://www.w3.org/1999/xlink">
<g id="graph0" class="graph" transform="scale(1 1) rotate(0) translate(4 176)">
<title>psi::Cholesky</title>
<!-- Node1 -->
<g id="node1" class="node"><title>Node1</title>
<polygon fill="#bfbfbf" stroke="black" points="0.5,-76.5 0.5,-95.5 77.5,-95.5 77.5,-76.5 0.5,-76.5"/>
<text text-anchor="middle" x="39" y="-83.5" font-family="Helvetica,sans-Serif" font-size="10.00">psi::Cholesky</text>
</g>
<!-- Node2 -->
<g id="node2" class="node"><title>Node2</title>
<g id="a_node2"><a xlink:href="classpsi_1_1CholeskyDelta.html" target="_top" xlink:title="psi::CholeskyDelta">
<polygon fill="none" stroke="black" points="116,-152.5 116,-171.5 216,-171.5 216,-152.5 116,-152.5"/>
<text text-anchor="middle" x="166" y="-159.5" font-family="Helvetica,sans-Serif" font-size="10.00">psi::CholeskyDelta</text>
</a>
</g>
</g>
<!-- Node1&#45;&gt;Node2 -->
<g id="edge1" class="edge"><title>Node1&#45;&gt;Node2</title>
<path fill="none" stroke="midnightblue" d="M57.9407,-102.306C72.2972,-114.717 93.3737,-131.558 114,-143 120.445,-146.575 127.697,-149.736 134.666,-152.402"/>
<polygon fill="midnightblue" stroke="midnightblue" points="60.1339,-99.5735 50.3185,-95.5849 55.5042,-104.824 60.1339,-99.5735"/>
</g>
<!-- Node3 -->
<g id="node3" class="node"><title>Node3</title>
<g id="a_node3"><a xlink:href="classpsi_1_1CholeskyERI.html" target="_top" xlink:title="psi::CholeskyERI">
<polygon fill="none" stroke="black" points="119,-114.5 119,-133.5 213,-133.5 213,-114.5 119,-114.5"/>
<text text-anchor="middle" x="166" y="-121.5" font-family="Helvetica,sans-Serif" font-size="10.00">psi::CholeskyERI</text>
</a>
</g>
</g>
<!-- Node1&#45;&gt;Node3 -->
<g id="edge2" class="edge"><title>Node1&#45;&gt;Node3</title>
<path fill="none" stroke="midnightblue" d="M81.2345,-98.5353C98.2393,-103.705 117.629,-109.599 133.467,-114.414"/>
<polygon fill="midnightblue" stroke="midnightblue" points="82.1285,-95.149 71.5428,-95.589 80.0924,-101.846 82.1285,-95.149"/>
</g>
<!-- Node4 -->
<g id="node4" class="node"><title>Node4</title>
<g id="a_node4"><a xlink:href="classpsi_1_1CholeskyLocal.html" target="_top" xlink:title="psi::CholeskyLocal">
<polygon fill="none" stroke="black" points="116,-76.5 116,-95.5 216,-95.5 216,-76.5 116,-76.5"/>
<text text-anchor="middle" x="166" y="-83.5" font-family="Helvetica,sans-Serif" font-size="10.00">psi::CholeskyLocal</text>
</a>
</g>
</g>
<!-- Node1&#45;&gt;Node4 -->
<g id="edge3" class="edge"><title>Node1&#45;&gt;Node4</title>
<path fill="none" stroke="midnightblue" d="M87.7027,-86C96.9495,-86 106.655,-86 115.944,-86"/>
<polygon fill="midnightblue" stroke="midnightblue" points="87.5042,-82.5001 77.5041,-86 87.5041,-89.5001 87.5042,-82.5001"/>
</g>
<!-- Node5 -->
<g id="node5" class="node"><title>Node5</title>
<g id="a_node5"><a xlink:href="classpsi_1_1CholeskyMatrix.html" target="_top" xlink:title="psi::CholeskyMatrix">
<polygon fill="none" stroke="black" points="114,-38.5 114,-57.5 218,-57.5 218,-38.5 114,-38.5"/>
<text text-anchor="middle" x="166" y="-45.5" font-family="Helvetica,sans-Serif" font-size="10.00">psi::CholeskyMatrix</text>
</a>
</g>
</g>
<!-- Node1&#45;&gt;Node5 -->
<g id="edge4" class="edge"><title>Node1&#45;&gt;Node5</title>
<path fill="none" stroke="midnightblue" d="M81.2345,-73.4647C98.2393,-68.2952 117.629,-62.4009 133.467,-57.5859"/>
<polygon fill="midnightblue" stroke="midnightblue" points="80.0924,-70.1537 71.5428,-76.411 82.1285,-76.851 80.0924,-70.1537"/>
</g>
<!-- Node6 -->
<g id="node6" class="node"><title>Node6</title>
<g id="a_node6"><a xlink:href="classpsi_1_1CholeskyMP2.html" target="_top" xlink:title="psi::CholeskyMP2">
<polygon fill="none" stroke="black" points="117.5,-0.5 117.5,-19.5 214.5,-19.5 214.5,-0.5 117.5,-0.5"/>
<text text-anchor="middle" x="166" y="-7.5" font-family="Helvetica,sans-Serif" font-size="10.00">psi::CholeskyMP2</text>
</a>
</g>
</g>
<!-- Node1&#45;&gt;Node6 -->
<g id="edge5" class="edge"><title>Node1&#45;&gt;Node6</title>
<path fill="none" stroke="midnightblue" d="M57.9407,-69.694C72.2972,-57.2832 93.3737,-40.4425 114,-29 120.445,-25.4248 127.697,-22.2644 134.666,-19.5979"/>
<polygon fill="midnightblue" stroke="midnightblue" points="55.5042,-67.1761 50.3185,-76.4151 60.1339,-72.4265 55.5042,-67.1761"/>
</g>
</g>
</svg>
