<?xml version="1.0" encoding="UTF-8" standalone="no"?>
<!DOCTYPE svg PUBLIC "-//W3C//DTD SVG 1.1//EN"
 "http://www.w3.org/Graphics/SVG/1.1/DTD/svg11.dtd">
<!-- Generated by graphviz version 2.30.1 (20140110.0959)
 -->
<!-- Title: rapidxml::xml_document::clear Pages: 1 -->
<svg width="562pt" height="136pt"
 viewBox="0.00 0.00 562.00 136.00" xmlns="http://www.w3.org/2000/svg" xmlns:xlink="http://www.w3.org/1999/xlink">
<g id="graph0" class="graph" transform="scale(1 1) rotate(0) translate(4 132)">
<title>rapidxml::xml_document::clear</title>
<!-- Node1 -->
<g id="node1" class="node"><title>Node1</title>
<polygon fill="#bfbfbf" stroke="black" points="0.5,-49 0.5,-79 123.5,-79 123.5,-49 0.5,-49"/>
<text text-anchor="start" x="8.5" y="-67" font-family="Helvetica,sans-Serif" font-size="10.00">rapidxml::xml_document</text>
<text text-anchor="middle" x="62" y="-56" font-family="Helvetica,sans-Serif" font-size="10.00">::clear</text>
</g>
<!-- Node2 -->
<g id="node2" class="node"><title>Node2</title>
<g id="a_node2"><a xlink:href="classrapidxml_1_1xml__node.html#a95735358b079ae0adcfbbac69aa1fbc3" target="_top" xlink:title="Removes all child nodes (but not attributes).">
<polygon fill="none" stroke="black" points="168.5,-98 168.5,-128 269.5,-128 269.5,-98 168.5,-98"/>
<text text-anchor="start" x="176.5" y="-116" font-family="Helvetica,sans-Serif" font-size="10.00">rapidxml::xml_node</text>
<text text-anchor="middle" x="219" y="-105" font-family="Helvetica,sans-Serif" font-size="10.00">::remove_all_nodes</text>
</a>
</g>
</g>
<!-- Node1&#45;&gt;Node2 -->
<g id="edge1" class="edge"><title>Node1&#45;&gt;Node2</title>
<path fill="none" stroke="midnightblue" d="M110.77,-79.1014C126.46,-84.0615 144.066,-89.6274 160.406,-94.7929"/>
<polygon fill="midnightblue" stroke="midnightblue" points="159.798,-98.2713 170.388,-97.9484 161.908,-91.5969 159.798,-98.2713"/>
</g>
<!-- Node6 -->
<g id="node6" class="node"><title>Node6</title>
<g id="a_node6"><a xlink:href="classrapidxml_1_1xml__node.html#aa8d5d9484aa1eb5ff1841a073c84c1aa" target="_top" xlink:title="Removes all attributes of node.">
<polygon fill="none" stroke="black" points="161,-49 161,-79 277,-79 277,-49 161,-49"/>
<text text-anchor="start" x="169" y="-67" font-family="Helvetica,sans-Serif" font-size="10.00">rapidxml::xml_node</text>
<text text-anchor="middle" x="219" y="-56" font-family="Helvetica,sans-Serif" font-size="10.00">::remove_all_attributes</text>
</a>
</g>
</g>
<!-- Node1&#45;&gt;Node6 -->
<g id="edge5" class="edge"><title>Node1&#45;&gt;Node6</title>
<path fill="none" stroke="midnightblue" d="M123.815,-64C132.689,-64 141.869,-64 150.859,-64"/>
<polygon fill="midnightblue" stroke="midnightblue" points="150.903,-67.5001 160.903,-64 150.903,-60.5001 150.903,-67.5001"/>
</g>
<!-- Node8 -->
<g id="node8" class="node"><title>Node8</title>
<g id="a_node8"><a xlink:href="classrapidxml_1_1memory__pool.html#aad377c835fdaed1cb2cc9df194cf84e4" target="_top" xlink:title="rapidxml::memory_pool\l::clear">
<polygon fill="none" stroke="black" points="160,-0 160,-30 278,-30 278,-0 160,-0"/>
<text text-anchor="start" x="168" y="-18" font-family="Helvetica,sans-Serif" font-size="10.00">rapidxml::memory_pool</text>
<text text-anchor="middle" x="219" y="-7" font-family="Helvetica,sans-Serif" font-size="10.00">::clear</text>
</a>
</g>
</g>
<!-- Node1&#45;&gt;Node8 -->
<g id="edge9" class="edge"><title>Node1&#45;&gt;Node8</title>
<path fill="none" stroke="midnightblue" d="M110.77,-48.8986C126.46,-43.9385 144.066,-38.3726 160.406,-33.2071"/>
<polygon fill="midnightblue" stroke="midnightblue" points="161.908,-36.4031 170.388,-30.0516 159.798,-29.7287 161.908,-36.4031"/>
</g>
<!-- Node3 -->
<g id="node3" class="node"><title>Node3</title>
<g id="a_node3"><a xlink:href="classrapidxml_1_1xml__node.html#a2dedeb4e04bb35e06a9a7bddf6ba652d" target="_top" xlink:title="rapidxml::xml_node\l::first_node">
<polygon fill="none" stroke="black" points="314.5,-98 314.5,-128 415.5,-128 415.5,-98 314.5,-98"/>
<text text-anchor="start" x="322.5" y="-116" font-family="Helvetica,sans-Serif" font-size="10.00">rapidxml::xml_node</text>
<text text-anchor="middle" x="365" y="-105" font-family="Helvetica,sans-Serif" font-size="10.00">::first_node</text>
</a>
</g>
</g>
<!-- Node2&#45;&gt;Node3 -->
<g id="edge2" class="edge"><title>Node2&#45;&gt;Node3</title>
<path fill="none" stroke="midnightblue" d="M269.557,-113C280.757,-113 292.762,-113 304.33,-113"/>
<polygon fill="midnightblue" stroke="midnightblue" points="304.352,-116.5 314.352,-113 304.352,-109.5 304.352,-116.5"/>
</g>
<!-- Node4 -->
<g id="node4" class="node"><title>Node4</title>
<g id="a_node4"><a xlink:href="classrapidxml_1_1xml__base.html#a9a09739310469995db078ebd0da3ed45" target="_top" xlink:title="rapidxml::xml_base\l::name">
<polygon fill="none" stroke="black" points="452.5,-98 452.5,-128 553.5,-128 553.5,-98 452.5,-98"/>
<text text-anchor="start" x="460.5" y="-116" font-family="Helvetica,sans-Serif" font-size="10.00">rapidxml::xml_base</text>
<text text-anchor="middle" x="503" y="-105" font-family="Helvetica,sans-Serif" font-size="10.00">::name</text>
</a>
</g>
</g>
<!-- Node3&#45;&gt;Node4 -->
<g id="edge3" class="edge"><title>Node3&#45;&gt;Node4</title>
<path fill="none" stroke="midnightblue" d="M415.869,-113C424.369,-113 433.277,-113 442.006,-113"/>
<polygon fill="midnightblue" stroke="midnightblue" points="442.137,-116.5 452.137,-113 442.137,-109.5 442.137,-116.5"/>
</g>
<!-- Node5 -->
<g id="node5" class="node"><title>Node5</title>
<g id="a_node5"><a xlink:href="classrapidxml_1_1xml__base.html#a7e7f98b3d01e1eab8dc1ca69aad9af84" target="_top" xlink:title="rapidxml::xml_base\l::name_size">
<polygon fill="none" stroke="black" points="452.5,-49 452.5,-79 553.5,-79 553.5,-49 452.5,-49"/>
<text text-anchor="start" x="460.5" y="-67" font-family="Helvetica,sans-Serif" font-size="10.00">rapidxml::xml_base</text>
<text text-anchor="middle" x="503" y="-56" font-family="Helvetica,sans-Serif" font-size="10.00">::name_size</text>
</a>
</g>
</g>
<!-- Node3&#45;&gt;Node5 -->
<g id="edge4" class="edge"><title>Node3&#45;&gt;Node5</title>
<path fill="none" stroke="midnightblue" d="M407.914,-97.8986C421.358,-93.0549 436.405,-87.6336 450.455,-82.5715"/>
<polygon fill="midnightblue" stroke="midnightblue" points="451.768,-85.8184 459.99,-79.1359 449.396,-79.2328 451.768,-85.8184"/>
</g>
<!-- Node7 -->
<g id="node7" class="node"><title>Node7</title>
<g id="a_node7"><a xlink:href="classrapidxml_1_1xml__node.html#ae426802be58114ffc41bf30ac6b8c37d" target="_top" xlink:title="rapidxml::xml_node\l::first_attribute">
<polygon fill="none" stroke="black" points="314.5,-49 314.5,-79 415.5,-79 415.5,-49 314.5,-49"/>
<text text-anchor="start" x="322.5" y="-67" font-family="Helvetica,sans-Serif" font-size="10.00">rapidxml::xml_node</text>
<text text-anchor="middle" x="365" y="-56" font-family="Helvetica,sans-Serif" font-size="10.00">::first_attribute</text>
</a>
</g>
</g>
<!-- Node6&#45;&gt;Node7 -->
<g id="edge6" class="edge"><title>Node6&#45;&gt;Node7</title>
<path fill="none" stroke="midnightblue" d="M277.326,-64C286.121,-64 295.22,-64 304.068,-64"/>
<polygon fill="midnightblue" stroke="midnightblue" points="304.308,-67.5001 314.308,-64 304.308,-60.5001 304.308,-67.5001"/>
</g>
<!-- Node7&#45;&gt;Node4 -->
<g id="edge7" class="edge"><title>Node7&#45;&gt;Node4</title>
<path fill="none" stroke="midnightblue" d="M407.914,-79.1014C421.358,-83.9451 436.405,-89.3664 450.455,-94.4285"/>
<polygon fill="midnightblue" stroke="midnightblue" points="449.396,-97.7672 459.99,-97.8641 451.768,-91.1816 449.396,-97.7672"/>
</g>
<!-- Node7&#45;&gt;Node5 -->
<g id="edge8" class="edge"><title>Node7&#45;&gt;Node5</title>
<path fill="none" stroke="midnightblue" d="M415.869,-64C424.369,-64 433.277,-64 442.006,-64"/>
<polygon fill="midnightblue" stroke="midnightblue" points="442.137,-67.5001 452.137,-64 442.137,-60.5001 442.137,-67.5001"/>
</g>
</g>
</svg>
