<?xml version="1.0" encoding="UTF-8" standalone="no"?>
<!DOCTYPE svg PUBLIC "-//W3C//DTD SVG 1.1//EN"
 "http://www.w3.org/Graphics/SVG/1.1/DTD/svg11.dtd">
<!-- Generated by graphviz version 2.30.1 (20140110.0959)
 -->
<!-- Title: psi::dftsapt::CubicDensityGrid Pages: 1 -->
<!--zoomable 224 -->
<svg id="main" version="1.1" xmlns="http://www.w3.org/2000/svg" xmlns:xlink="http://www.w3.org/1999/xlink" xml:space="preserve" onload="init(evt)">
        <defs>
                <circle id="rim" cx="0" cy="0" r="7"/>
                <circle id="rim2" cx="0" cy="0" r="3.5"/>
                <g id="zoomPlus">
                        <use xlink:href="#rim" fill="#404040">
                                <set attributeName="fill" to="#808080" begin="zoomplus.mouseover" end="zoomplus.mouseout"/>
                        </use>
                        <path d="M-4,0h8M0,-4v8" fill="none" stroke="white" stroke-width="1.5" pointer-events="none"/>
                </g>
                <g id="zoomMin">
                        <use xlink:href="#rim" fill="#404040">
                                <set attributeName="fill" to="#808080" begin="zoomminus.mouseover" end="zoomminus.mouseout"/>
                        </use>
                        <path d="M-4,0h8" fill="none" stroke="white" stroke-width="1.5" pointer-events="none"/>
                </g>
                <g id="dirArrow">
                        <path fill="none" stroke="white" stroke-width="1.5" d="M0,-3.0v7 M-2.5,-0.5L0,-3.0L2.5,-0.5"/>
                </g>
               <g id="resetDef">
                       <use xlink:href="#rim2" fill="#404040">
                               <set attributeName="fill" to="#808080" begin="reset.mouseover" end="reset.mouseout"/>
                       </use>
               </g>
        </defs>

<script type="text/javascript">
var viewWidth = 604;
var viewHeight = 224;
var sectionId = 'dynsection-0';
</script>
<script xlink:href="svgpan.js"/>
<svg id="graph" class="graph">
<g id="viewport">
<title>psi::dftsapt::CubicDensityGrid</title>
<!-- Node1 -->
<g id="node1" class="node"><title>Node1</title>
<polygon fill="#bfbfbf" stroke="black" points="446.5,-103.5 446.5,-122.5 595.5,-122.5 595.5,-103.5 446.5,-103.5"/>
<text text-anchor="middle" x="521" y="-110.5" font-family="Helvetica,sans-Serif" font-size="10.00">psi::dftsapt::CubicDensityGrid</text>
</g>
<!-- Node2 -->
<g id="node2" class="node"><title>Node2</title>
<g id="a_node2"><a xlink:href="classpsi_1_1Options.html" target="_top" xlink:title="psi::Options">
<polygon fill="none" stroke="black" points="277.5,-196.5 277.5,-215.5 346.5,-215.5 346.5,-196.5 277.5,-196.5"/>
<text text-anchor="middle" x="312" y="-203.5" font-family="Helvetica,sans-Serif" font-size="10.00">psi::Options</text>
</a>
</g>
</g>
<!-- Node2&#45;&gt;Node1 -->
<g id="edge1" class="edge"><title>Node2&#45;&gt;Node1</title>
<path fill="none" stroke="#9a32cd" stroke-dasharray="5,2" d="M350.355,-192.839C356.286,-190.628 362.331,-188.302 368,-186 417.634,-165.84 473.979,-137.199 502.078,-122.505"/>
<polygon fill="#9a32cd" stroke="#9a32cd" points="348.753,-189.699 340.569,-196.427 351.163,-196.271 348.753,-189.699"/>
<text text-anchor="middle" x="407" y="-180" font-family="Helvetica,sans-Serif" font-size="10.00"> options_</text>
</g>
<!-- Node3 -->
<g id="node3" class="node"><title>Node3</title>
<g id="a_node3"><a xlink:href="classboost_1_1shared__ptr.html" target="_top" xlink:title="boost::shared_ptr\&lt;\l psi::BasisSet \&gt;">
<polygon fill="none" stroke="black" points="263,-147 263,-177 361,-177 361,-147 263,-147"/>
<text text-anchor="start" x="271" y="-165" font-family="Helvetica,sans-Serif" font-size="10.00">boost::shared_ptr&lt;</text>
<text text-anchor="middle" x="312" y="-154" font-family="Helvetica,sans-Serif" font-size="10.00"> psi::BasisSet &gt;</text>
</a>
</g>
</g>
<!-- Node3&#45;&gt;Node1 -->
<g id="edge2" class="edge"><title>Node3&#45;&gt;Node1</title>
<path fill="none" stroke="#9a32cd" stroke-dasharray="5,2" d="M370.987,-148.274C405.58,-140.085 448.642,-129.891 479.566,-122.571"/>
<polygon fill="#9a32cd" stroke="#9a32cd" points="369.935,-144.926 361.01,-150.635 371.548,-151.738 369.935,-144.926"/>
<text text-anchor="middle" x="407" y="-147" font-family="Helvetica,sans-Serif" font-size="10.00"> primary_</text>
</g>
<!-- Node4 -->
<g id="node4" class="node"><title>Node4</title>
<g id="a_node4"><a xlink:href="classboost_1_1shared__ptr.html" target="_top" xlink:title="boost::shared_ptr\&lt; T \&gt;">
<polygon fill="none" stroke="black" points="0,-78.5 0,-97.5 116,-97.5 116,-78.5 0,-78.5"/>
<text text-anchor="middle" x="58" y="-85.5" font-family="Helvetica,sans-Serif" font-size="10.00">boost::shared_ptr&lt; T &gt;</text>
</a>
</g>
</g>
<!-- Node4&#45;&gt;Node3 -->
<g id="edge3" class="edge"><title>Node4&#45;&gt;Node3</title>
<path fill="none" stroke="orange" stroke-dasharray="5,2" d="M87.4674,-102.029C101.277,-108.443 118.25,-115.762 134,-121 176.652,-135.185 226.663,-146.282 262.626,-153.333"/>
<polygon fill="orange" stroke="orange" points="88.5696,-98.6784 78.0339,-97.5608 85.5731,-105.005 88.5696,-98.6784"/>
<text text-anchor="middle" x="186" y="-151" font-family="Helvetica,sans-Serif" font-size="10.00"> &lt; psi::BasisSet &gt;</text>
</g>
<!-- Node5 -->
<g id="node5" class="node"><title>Node5</title>
<g id="a_node5"><a xlink:href="classboost_1_1shared__ptr.html" target="_top" xlink:title="boost::shared_ptr\&lt;\l psi::BasisExtents \&gt;">
<polygon fill="none" stroke="black" points="259,-98 259,-128 365,-128 365,-98 259,-98"/>
<text text-anchor="start" x="267" y="-116" font-family="Helvetica,sans-Serif" font-size="10.00">boost::shared_ptr&lt;</text>
<text text-anchor="middle" x="312" y="-105" font-family="Helvetica,sans-Serif" font-size="10.00"> psi::BasisExtents &gt;</text>
</a>
</g>
</g>
<!-- Node4&#45;&gt;Node5 -->
<g id="edge5" class="edge"><title>Node4&#45;&gt;Node5</title>
<path fill="none" stroke="orange" stroke-dasharray="5,2" d="M126.224,-94.6691C167.784,-98.792 220.338,-104.006 258.764,-107.818"/>
<polygon fill="orange" stroke="orange" points="126.479,-91.1773 116.183,-93.6729 125.788,-98.1431 126.479,-91.1773"/>
<text text-anchor="middle" x="186" y="-109" font-family="Helvetica,sans-Serif" font-size="10.00"> &lt; psi::BasisExtents &gt;</text>
</g>
<!-- Node6 -->
<g id="node6" class="node"><title>Node6</title>
<g id="a_node6"><a xlink:href="classboost_1_1shared__ptr.html" target="_top" xlink:title="boost::shared_ptr\&lt;\l psi::Molecule \&gt;">
<polygon fill="none" stroke="black" points="263,-49 263,-79 361,-79 361,-49 263,-49"/>
<text text-anchor="start" x="271" y="-67" font-family="Helvetica,sans-Serif" font-size="10.00">boost::shared_ptr&lt;</text>
<text text-anchor="middle" x="312" y="-56" font-family="Helvetica,sans-Serif" font-size="10.00"> psi::Molecule &gt;</text>
</a>
</g>
</g>
<!-- Node4&#45;&gt;Node6 -->
<g id="edge7" class="edge"><title>Node4&#45;&gt;Node6</title>
<path fill="none" stroke="orange" stroke-dasharray="5,2" d="M125.196,-77.0735C128.168,-76.6886 131.113,-76.3281 134,-76 177.456,-71.0608 227.162,-67.9089 262.814,-66.0812"/>
<polygon fill="orange" stroke="orange" points="124.464,-73.6409 115.031,-78.4644 125.413,-80.5763 124.464,-73.6409"/>
<text text-anchor="middle" x="186" y="-79" font-family="Helvetica,sans-Serif" font-size="10.00"> &lt; psi::Molecule &gt;</text>
</g>
<!-- Node7 -->
<g id="node7" class="node"><title>Node7</title>
<g id="a_node7"><a xlink:href="classboost_1_1shared__ptr.html" target="_top" xlink:title="boost::shared_ptr\&lt;\l psi::RKSFunctions \&gt;">
<polygon fill="none" stroke="black" points="256.5,-0 256.5,-30 367.5,-30 367.5,-0 256.5,-0"/>
<text text-anchor="start" x="264.5" y="-18" font-family="Helvetica,sans-Serif" font-size="10.00">boost::shared_ptr&lt;</text>
<text text-anchor="middle" x="312" y="-7" font-family="Helvetica,sans-Serif" font-size="10.00"> psi::RKSFunctions &gt;</text>
</a>
</g>
</g>
<!-- Node4&#45;&gt;Node7 -->
<g id="edge9" class="edge"><title>Node4&#45;&gt;Node7</title>
<path fill="none" stroke="orange" stroke-dasharray="5,2" d="M85.5191,-73.8367C99.6065,-66.7755 117.399,-58.576 134,-53 174.072,-39.54 220.896,-29.7341 256.315,-23.4582"/>
<polygon fill="orange" stroke="orange" points="83.7239,-70.8237 76.4184,-78.4971 86.9146,-77.0543 83.7239,-70.8237"/>
<text text-anchor="middle" x="186" y="-56" font-family="Helvetica,sans-Serif" font-size="10.00"> &lt; psi::RKSFunctions &gt;</text>
</g>
<!-- Node5&#45;&gt;Node1 -->
<g id="edge4" class="edge"><title>Node5&#45;&gt;Node1</title>
<path fill="none" stroke="#9a32cd" stroke-dasharray="5,2" d="M375.271,-113C397.626,-113 423.048,-113 446.282,-113"/>
<polygon fill="#9a32cd" stroke="#9a32cd" points="375.235,-109.5 365.235,-113 375.235,-116.5 375.235,-109.5"/>
<text text-anchor="middle" x="407" y="-116" font-family="Helvetica,sans-Serif" font-size="10.00"> extents_</text>
</g>
<!-- Node6&#45;&gt;Node1 -->
<g id="edge6" class="edge"><title>Node6&#45;&gt;Node1</title>
<path fill="none" stroke="#9a32cd" stroke-dasharray="5,2" d="M370.987,-77.7264C405.58,-85.915 448.642,-96.1086 479.566,-103.429"/>
<polygon fill="#9a32cd" stroke="#9a32cd" points="371.548,-74.2624 361.01,-75.3647 369.935,-81.0742 371.548,-74.2624"/>
<text text-anchor="middle" x="407" y="-93" font-family="Helvetica,sans-Serif" font-size="10.00"> mol_</text>
</g>
<!-- Node7&#45;&gt;Node1 -->
<g id="edge8" class="edge"><title>Node7&#45;&gt;Node1</title>
<path fill="none" stroke="#9a32cd" stroke-dasharray="5,2" d="M357.456,-34.2227C361.031,-35.8221 364.58,-37.4282 368,-39 416.269,-61.1863 472.266,-88.9919 500.934,-103.38"/>
<polygon fill="#9a32cd" stroke="#9a32cd" points="358.566,-30.8863 348.005,-30.0326 355.728,-37.2855 358.566,-30.8863"/>
<text text-anchor="middle" x="407" y="-70" font-family="Helvetica,sans-Serif" font-size="10.00"> points_</text>
</g>
</g>
</svg>
        <g id="navigator" transform="translate(0 0)" fill="#404254">
                <rect fill="#f2f5e9" fill-opacity="0.5" stroke="#606060" stroke-width=".5" x="0" y="0" width="60" height="60"/>
                <use id="zoomplus" xlink:href="#zoomPlus" x="17" y="9" onmousedown="handleZoom(evt,'in')"/>
                <use id="zoomminus" xlink:href="#zoomMin" x="42" y="9" onmousedown="handleZoom(evt,'out')"/>
                <use id="reset" xlink:href="#resetDef" x="30" y="36" onmousedown="handleReset()"/>
                <g id="arrowUp" xlink:href="#dirArrow" transform="translate(30 24)" onmousedown="handlePan(0,-1)">
                  <use xlink:href="#rim" fill="#404040">
                        <set attributeName="fill" to="#808080" begin="arrowUp.mouseover" end="arrowUp.mouseout"/>
                  </use>
                  <path fill="none" stroke="white" stroke-width="1.5" d="M0,-3.0v7 M-2.5,-0.5L0,-3.0L2.5,-0.5"/>
                </g>
                <g id="arrowRight" xlink:href="#dirArrow" transform="rotate(90) translate(36 -43)" onmousedown="handlePan(1,0)">
                  <use xlink:href="#rim" fill="#404040">
                        <set attributeName="fill" to="#808080" begin="arrowRight.mouseover" end="arrowRight.mouseout"/>
                  </use>
                  <path fill="none" stroke="white" stroke-width="1.5" d="M0,-3.0v7 M-2.5,-0.5L0,-3.0L2.5,-0.5"/>
                </g>
                <g id="arrowDown" xlink:href="#dirArrow" transform="rotate(180) translate(-30 -48)" onmousedown="handlePan(0,1)">
                  <use xlink:href="#rim" fill="#404040">
                        <set attributeName="fill" to="#808080" begin="arrowDown.mouseover" end="arrowDown.mouseout"/>
                  </use>
                  <path fill="none" stroke="white" stroke-width="1.5" d="M0,-3.0v7 M-2.5,-0.5L0,-3.0L2.5,-0.5"/>
                </g>
                <g id="arrowLeft" xlink:href="#dirArrow" transform="rotate(270) translate(-36 17)" onmousedown="handlePan(-1,0)">
                  <use xlink:href="#rim" fill="#404040">
                        <set attributeName="fill" to="#808080" begin="arrowLeft.mouseover" end="arrowLeft.mouseout"/>
                  </use>
                  <path fill="none" stroke="white" stroke-width="1.5" d="M0,-3.0v7 M-2.5,-0.5L0,-3.0L2.5,-0.5"/>
                </g>
        </g>
        <svg viewBox="0 0 15 15" width="100%" height="30px" preserveAspectRatio="xMaxYMin meet">
         <g id="arrow_out" transform="scale(0.3 0.3)">
          <a xlink:href="classpsi_1_1dftsapt_1_1CubicDensityGrid__coll__graph_org.svg" target="_base">
           <rect id="button" ry="5" rx="5" y="6" x="6" height="38" width="38"
                fill="#f2f5e9" fill-opacity="0.5" stroke="#606060" stroke-width="1.0"/>
           <path id="arrow"
             d="M 11.500037,31.436501 C 11.940474,20.09759 22.043105,11.32322 32.158766,21.979434 L 37.068811,17.246167 C 37.068811,17.246167 37.088388,32 37.088388,32 L 22.160133,31.978069 C 22.160133,31.978069 26.997745,27.140456 26.997745,27.140456 C 18.528582,18.264221 13.291696,25.230495 11.500037,31.436501 z"
             style="fill:#404040;"/>
          </a>
         </g>
        </svg>
</svg>
