<?xml version="1.0" encoding="UTF-8" standalone="no"?>
<!DOCTYPE svg PUBLIC "-//W3C//DTD SVG 1.1//EN"
 "http://www.w3.org/Graphics/SVG/1.1/DTD/svg11.dtd">
<!-- Generated by graphviz version 2.30.1 (20140110.0959)
 -->
<!-- Title: psi::Matrix::copy Pages: 1 -->
<svg width="704pt" height="251pt"
 viewBox="0.00 0.00 704.00 251.00" xmlns="http://www.w3.org/2000/svg" xmlns:xlink="http://www.w3.org/1999/xlink">
<g id="graph0" class="graph" transform="scale(1 1) rotate(0) translate(4 247)">
<title>psi::Matrix::copy</title>
<!-- Node1 -->
<g id="node1" class="node"><title>Node1</title>
<polygon fill="#bfbfbf" stroke="black" points="0.5,-98.5 0.5,-117.5 89.5,-117.5 89.5,-98.5 0.5,-98.5"/>
<text text-anchor="middle" x="45" y="-105.5" font-family="Helvetica,sans-Serif" font-size="10.00">psi::Matrix::copy</text>
</g>
<!-- Node2 -->
<g id="node2" class="node"><title>Node2</title>
<g id="a_node2"><a xlink:href="classpsi_1_1dcft_1_1DCFTSolver.html#a4d284a82a15a7c7e12fbdd9a236465f8" target="_top" xlink:title="psi::dcft::DCFTSolver\l::correct_mo_phases">
<polygon fill="none" stroke="black" points="137.5,-213 137.5,-243 250.5,-243 250.5,-213 137.5,-213"/>
<text text-anchor="start" x="145.5" y="-231" font-family="Helvetica,sans-Serif" font-size="10.00">psi::dcft::DCFTSolver</text>
<text text-anchor="middle" x="194" y="-220" font-family="Helvetica,sans-Serif" font-size="10.00">::correct_mo_phases</text>
</a>
</g>
</g>
<!-- Node1&#45;&gt;Node2 -->
<g id="edge1" class="edge"><title>Node1&#45;&gt;Node2</title>
<path fill="none" stroke="midnightblue" d="M57.3069,-126.472C71.1214,-147.642 96.3512,-182.1 126,-203 131.378,-206.791 137.401,-210.084 143.572,-212.923"/>
<polygon fill="midnightblue" stroke="midnightblue" points="60.1019,-124.344 51.7881,-117.777 54.1917,-128.095 60.1019,-124.344"/>
</g>
<!-- Node3 -->
<g id="node3" class="node"><title>Node3</title>
<g id="a_node3"><a xlink:href="classpsi_1_1dcft_1_1DCFTSolver.html#aac52b480f7ad192600257a99a02c00cf" target="_top" xlink:title="psi::dcft::DCFTSolver\l::update_scf_density">
<polygon fill="none" stroke="black" points="137.5,-164 137.5,-194 250.5,-194 250.5,-164 137.5,-164"/>
<text text-anchor="start" x="145.5" y="-182" font-family="Helvetica,sans-Serif" font-size="10.00">psi::dcft::DCFTSolver</text>
<text text-anchor="middle" x="194" y="-171" font-family="Helvetica,sans-Serif" font-size="10.00">::update_scf_density</text>
</a>
</g>
</g>
<!-- Node1&#45;&gt;Node3 -->
<g id="edge2" class="edge"><title>Node1&#45;&gt;Node3</title>
<path fill="none" stroke="midnightblue" d="M69.4572,-122.858C85.1174,-132.432 106.366,-144.769 126,-154 133.415,-157.486 141.461,-160.837 149.318,-163.89"/>
<polygon fill="midnightblue" stroke="midnightblue" points="71.2821,-119.871 60.9369,-117.585 67.5982,-125.824 71.2821,-119.871"/>
</g>
<!-- Node4 -->
<g id="node4" class="node"><title>Node4</title>
<g id="a_node4"><a xlink:href="classpsi_1_1Matrix.html#a52598c0b6519474c4415c5c91059043b" target="_top" xlink:title="psi::Matrix::matrix\l_3d_rotation">
<polygon fill="none" stroke="black" points="146.5,-115 146.5,-145 241.5,-145 241.5,-115 146.5,-115"/>
<text text-anchor="start" x="154.5" y="-133" font-family="Helvetica,sans-Serif" font-size="10.00">psi::Matrix::matrix</text>
<text text-anchor="middle" x="194" y="-122" font-family="Helvetica,sans-Serif" font-size="10.00">_3d_rotation</text>
</a>
</g>
</g>
<!-- Node1&#45;&gt;Node4 -->
<g id="edge3" class="edge"><title>Node1&#45;&gt;Node4</title>
<path fill="none" stroke="midnightblue" d="M100.014,-116.084C115.231,-118.361 131.648,-120.818 146.391,-123.025"/>
<polygon fill="midnightblue" stroke="midnightblue" points="100.115,-112.56 89.7068,-114.541 99.0786,-119.483 100.115,-112.56"/>
</g>
<!-- Node10 -->
<g id="node10" class="node"><title>Node10</title>
<g id="a_node10"><a xlink:href="classpsi_1_1Matrix.html#a966ae1e45687518427c4a2683cfbf7ee" target="_top" xlink:title="psi::Matrix::back_transform">
<polygon fill="none" stroke="black" points="126,-76.5 126,-95.5 262,-95.5 262,-76.5 126,-76.5"/>
<text text-anchor="middle" x="194" y="-83.5" font-family="Helvetica,sans-Serif" font-size="10.00">psi::Matrix::back_transform</text>
</a>
</g>
</g>
<!-- Node1&#45;&gt;Node10 -->
<g id="edge9" class="edge"><title>Node1&#45;&gt;Node10</title>
<path fill="none" stroke="midnightblue" d="M99.8769,-99.9368C109.454,-98.5035 119.511,-96.9984 129.329,-95.5289"/>
<polygon fill="midnightblue" stroke="midnightblue" points="99.0786,-96.5172 89.7068,-101.459 100.115,-103.44 99.0786,-96.5172"/>
</g>
<!-- Node5 -->
<g id="node5" class="node"><title>Node5</title>
<g id="a_node5"><a xlink:href="classpsi_1_1Molecule.html#a7ab70257e73005b1bfeec7b6ff62b8ce" target="_top" xlink:title="Determine and set FULL point group.">
<polygon fill="none" stroke="black" points="298,-74 298,-104 392,-104 392,-74 298,-74"/>
<text text-anchor="start" x="306" y="-92" font-family="Helvetica,sans-Serif" font-size="10.00">psi::Molecule::set</text>
<text text-anchor="middle" x="345" y="-81" font-family="Helvetica,sans-Serif" font-size="10.00">_full_point_group</text>
</a>
</g>
</g>
<!-- Node1&#45;&gt;Node5 -->
<g id="edge10" class="edge"><title>Node1&#45;&gt;Node5</title>
<path fill="none" stroke="midnightblue" d="M68.4366,-92.8352C83.8781,-83.3455 105.27,-72.0027 126,-67 184.758,-52.8202 202.074,-59.1008 262,-67 273.691,-68.541 286.082,-71.2673 297.595,-74.2876"/>
<polygon fill="midnightblue" stroke="midnightblue" points="66.2047,-90.107 59.6502,-98.4311 69.965,-96.0113 66.2047,-90.107"/>
</g>
<!-- Node11 -->
<g id="node11" class="node"><title>Node11</title>
<g id="a_node11"><a xlink:href="classpsi_1_1scf_1_1RHF.html#a3f3d8f8a92c7bfc78bbe17a789df692d" target="_top" xlink:title="Compute energy for the iteration.">
<polygon fill="none" stroke="black" points="128.5,-0.5 128.5,-19.5 259.5,-19.5 259.5,-0.5 128.5,-0.5"/>
<text text-anchor="middle" x="194" y="-7.5" font-family="Helvetica,sans-Serif" font-size="10.00">psi::scf::RHF::compute_E</text>
</a>
</g>
</g>
<!-- Node1&#45;&gt;Node11 -->
<g id="edge11" class="edge"><title>Node1&#45;&gt;Node11</title>
<path fill="none" stroke="midnightblue" d="M61.3341,-90.1716C76.3646,-73.6499 100.653,-49.3737 126,-34 135.825,-28.0409 147.354,-23.2441 158.051,-19.5515"/>
<polygon fill="midnightblue" stroke="midnightblue" points="58.3889,-88.2167 54.3614,-98.0163 63.6209,-92.8671 58.3889,-88.2167"/>
</g>
<!-- Node4&#45;&gt;Node5 -->
<g id="edge4" class="edge"><title>Node4&#45;&gt;Node5</title>
<path fill="none" stroke="midnightblue" d="M251.61,-114.423C266.915,-110.211 283.291,-105.705 297.941,-101.674"/>
<polygon fill="midnightblue" stroke="midnightblue" points="250.449,-111.112 241.736,-117.14 252.306,-117.861 250.449,-111.112"/>
</g>
<!-- Node6 -->
<g id="node6" class="node"><title>Node6</title>
<g id="a_node6"><a xlink:href="classpsi_1_1Molecule.html#a4d56f5d4df0ad9c8dbe934fed5eb95fe" target="_top" xlink:title="psi::Molecule::update\l_geometry">
<polygon fill="none" stroke="black" points="428,-74 428,-104 538,-104 538,-74 428,-74"/>
<text text-anchor="start" x="436" y="-92" font-family="Helvetica,sans-Serif" font-size="10.00">psi::Molecule::update</text>
<text text-anchor="middle" x="483" y="-81" font-family="Helvetica,sans-Serif" font-size="10.00">_geometry</text>
</a>
</g>
</g>
<!-- Node5&#45;&gt;Node6 -->
<g id="edge5" class="edge"><title>Node5&#45;&gt;Node6</title>
<path fill="none" stroke="midnightblue" d="M402.129,-89C410.528,-89 419.177,-89 427.541,-89"/>
<polygon fill="midnightblue" stroke="midnightblue" points="402.043,-85.5001 392.043,-89 402.043,-92.5001 402.043,-85.5001"/>
</g>
<!-- Node7 -->
<g id="node7" class="node"><title>Node7</title>
<g id="a_node7"><a xlink:href="classpsi_1_1Molecule.html#a9b74dcafc595d01654c754f1cedc437b" target="_top" xlink:title="psi::Molecule::operator=">
<polygon fill="none" stroke="black" points="574,-123.5 574,-142.5 696,-142.5 696,-123.5 574,-123.5"/>
<text text-anchor="middle" x="635" y="-130.5" font-family="Helvetica,sans-Serif" font-size="10.00">psi::Molecule::operator=</text>
</a>
</g>
</g>
<!-- Node6&#45;&gt;Node7 -->
<g id="edge6" class="edge"><title>Node6&#45;&gt;Node7</title>
<path fill="none" stroke="midnightblue" d="M544.859,-106.852C564.184,-112.521 584.809,-118.571 601.347,-123.422"/>
<polygon fill="midnightblue" stroke="midnightblue" points="545.783,-103.476 535.202,-104.019 543.812,-110.193 545.783,-103.476"/>
</g>
<!-- Node8 -->
<g id="node8" class="node"><title>Node8</title>
<g id="a_node8"><a xlink:href="classpsi_1_1Molecule.html#a3a01cd28c0f2d2ef6fe7a24214f69a62" target="_top" xlink:title="psi::Molecule::init\l_with_xyz">
<polygon fill="none" stroke="black" points="588.5,-74 588.5,-104 681.5,-104 681.5,-74 588.5,-74"/>
<text text-anchor="start" x="596.5" y="-92" font-family="Helvetica,sans-Serif" font-size="10.00">psi::Molecule::init</text>
<text text-anchor="middle" x="635" y="-81" font-family="Helvetica,sans-Serif" font-size="10.00">_with_xyz</text>
</a>
</g>
</g>
<!-- Node6&#45;&gt;Node8 -->
<g id="edge7" class="edge"><title>Node6&#45;&gt;Node8</title>
<path fill="none" stroke="midnightblue" d="M548.327,-89C561.788,-89 575.718,-89 588.333,-89"/>
<polygon fill="midnightblue" stroke="midnightblue" points="548.153,-85.5001 538.153,-89 548.153,-92.5001 548.153,-85.5001"/>
</g>
<!-- Node9 -->
<g id="node9" class="node"><title>Node9</title>
<g id="a_node9"><a xlink:href="classpsi_1_1Molecule.html#a05631379d8f4e0b995636c5ffad43d96" target="_top" xlink:title="psi::Molecule::set\l_variable">
<polygon fill="none" stroke="black" points="588,-25 588,-55 682,-55 682,-25 588,-25"/>
<text text-anchor="start" x="596" y="-43" font-family="Helvetica,sans-Serif" font-size="10.00">psi::Molecule::set</text>
<text text-anchor="middle" x="635" y="-32" font-family="Helvetica,sans-Serif" font-size="10.00">_variable</text>
</a>
</g>
</g>
<!-- Node6&#45;&gt;Node9 -->
<g id="edge8" class="edge"><title>Node6&#45;&gt;Node9</title>
<path fill="none" stroke="midnightblue" d="M539.895,-70.7409C555.716,-65.5727 572.752,-60.0076 587.924,-55.0516"/>
<polygon fill="midnightblue" stroke="midnightblue" points="538.648,-67.4663 530.229,-73.8986 540.821,-74.1203 538.648,-67.4663"/>
</g>
</g>
</svg>
