<?xml version="1.0" encoding="UTF-8" standalone="no"?>
<!DOCTYPE svg PUBLIC "-//W3C//DTD SVG 1.1//EN"
 "http://www.w3.org/Graphics/SVG/1.1/DTD/svg11.dtd">
<!-- Generated by graphviz version 2.30.1 (20140110.0959)
 -->
<!-- Title: psi::dftsapt::PB Pages: 1 -->
<!--zoomable 190 -->
<svg id="main" version="1.1" xmlns="http://www.w3.org/2000/svg" xmlns:xlink="http://www.w3.org/1999/xlink" xml:space="preserve" onload="init(evt)">
        <defs>
                <circle id="rim" cx="0" cy="0" r="7"/>
                <circle id="rim2" cx="0" cy="0" r="3.5"/>
                <g id="zoomPlus">
                        <use xlink:href="#rim" fill="#404040">
                                <set attributeName="fill" to="#808080" begin="zoomplus.mouseover" end="zoomplus.mouseout"/>
                        </use>
                        <path d="M-4,0h8M0,-4v8" fill="none" stroke="white" stroke-width="1.5" pointer-events="none"/>
                </g>
                <g id="zoomMin">
                        <use xlink:href="#rim" fill="#404040">
                                <set attributeName="fill" to="#808080" begin="zoomminus.mouseover" end="zoomminus.mouseout"/>
                        </use>
                        <path d="M-4,0h8" fill="none" stroke="white" stroke-width="1.5" pointer-events="none"/>
                </g>
                <g id="dirArrow">
                        <path fill="none" stroke="white" stroke-width="1.5" d="M0,-3.0v7 M-2.5,-0.5L0,-3.0L2.5,-0.5"/>
                </g>
               <g id="resetDef">
                       <use xlink:href="#rim2" fill="#404040">
                               <set attributeName="fill" to="#808080" begin="reset.mouseover" end="reset.mouseout"/>
                       </use>
               </g>
        </defs>

<script type="text/javascript">
var viewWidth = 566;
var viewHeight = 190;
var sectionId = 'dynsection-0';
</script>
<script xlink:href="svgpan.js"/>
<svg id="graph" class="graph">
<g id="viewport">
<title>psi::dftsapt::PB</title>
<!-- Node1 -->
<g id="node1" class="node"><title>Node1</title>
<polygon fill="#bfbfbf" stroke="black" points="472.5,-90.5 472.5,-109.5 557.5,-109.5 557.5,-90.5 472.5,-90.5"/>
<text text-anchor="middle" x="515" y="-97.5" font-family="Helvetica,sans-Serif" font-size="10.00">psi::dftsapt::PB</text>
</g>
<!-- Node2 -->
<g id="node2" class="node"><title>Node2</title>
<g id="a_node2"><a xlink:href="classboost_1_1shared__ptr.html" target="_top" xlink:title="boost::shared_ptr\&lt;\l psi::dftsapt::DIISN \&gt;">
<polygon fill="none" stroke="black" points="256.5,-152 256.5,-182 367.5,-182 367.5,-152 256.5,-152"/>
<text text-anchor="start" x="264.5" y="-170" font-family="Helvetica,sans-Serif" font-size="10.00">boost::shared_ptr&lt;</text>
<text text-anchor="middle" x="312" y="-159" font-family="Helvetica,sans-Serif" font-size="10.00"> psi::dftsapt::DIISN &gt;</text>
</a>
</g>
</g>
<!-- Node2&#45;&gt;Node1 -->
<g id="edge1" class="edge"><title>Node2&#45;&gt;Node1</title>
<path fill="none" stroke="#9a32cd" stroke-dasharray="5,2" d="M377.636,-153.752C401.956,-147.925 429.613,-140.275 454,-131 469.452,-125.123 486.084,-116.316 497.909,-109.589"/>
<polygon fill="#9a32cd" stroke="#9a32cd" points="376.73,-150.37 367.791,-156.057 378.326,-157.186 376.73,-150.37"/>
<text text-anchor="middle" x="420" y="-153" font-family="Helvetica,sans-Serif" font-size="10.00"> diis_manager_</text>
</g>
<!-- Node3 -->
<g id="node3" class="node"><title>Node3</title>
<g id="a_node3"><a xlink:href="classboost_1_1shared__ptr.html" target="_top" xlink:title="boost::shared_ptr\&lt; T \&gt;">
<polygon fill="none" stroke="black" points="0,-82.5 0,-101.5 116,-101.5 116,-82.5 0,-82.5"/>
<text text-anchor="middle" x="58" y="-89.5" font-family="Helvetica,sans-Serif" font-size="10.00">boost::shared_ptr&lt; T &gt;</text>
</a>
</g>
</g>
<!-- Node3&#45;&gt;Node2 -->
<g id="edge2" class="edge"><title>Node3&#45;&gt;Node2</title>
<path fill="none" stroke="orange" stroke-dasharray="5,2" d="M88.3961,-105.875C102.06,-111.977 118.649,-118.899 134,-124 174.213,-137.362 220.824,-148.517 256.117,-156.115"/>
<polygon fill="orange" stroke="orange" points="89.5753,-102.566 79.0233,-101.614 86.6787,-108.939 89.5753,-102.566"/>
<text text-anchor="middle" x="186" y="-154" font-family="Helvetica,sans-Serif" font-size="10.00"> &lt; psi::dftsapt::DIISN &gt;</text>
</g>
<!-- Node4 -->
<g id="node4" class="node"><title>Node4</title>
<g id="a_node4"><a xlink:href="classboost_1_1shared__ptr.html" target="_top" xlink:title="boost::shared_ptr\&lt;\l psi::JK \&gt;">
<polygon fill="none" stroke="black" points="263,-102 263,-132 361,-132 361,-102 263,-102"/>
<text text-anchor="start" x="271" y="-120" font-family="Helvetica,sans-Serif" font-size="10.00">boost::shared_ptr&lt;</text>
<text text-anchor="middle" x="312" y="-109" font-family="Helvetica,sans-Serif" font-size="10.00"> psi::JK &gt;</text>
</a>
</g>
</g>
<!-- Node3&#45;&gt;Node4 -->
<g id="edge4" class="edge"><title>Node3&#45;&gt;Node4</title>
<path fill="none" stroke="orange" stroke-dasharray="5,2" d="M126.3,-98.6766C169.373,-102.95 224.232,-108.392 262.936,-112.232"/>
<polygon fill="orange" stroke="orange" points="126.479,-95.1773 116.183,-97.6729 125.788,-102.143 126.479,-95.1773"/>
<text text-anchor="middle" x="186" y="-112" font-family="Helvetica,sans-Serif" font-size="10.00"> &lt; psi::JK &gt;</text>
</g>
<!-- Node5 -->
<g id="node5" class="node"><title>Node5</title>
<g id="a_node5"><a xlink:href="classboost_1_1shared__ptr.html" target="_top" xlink:title="boost::shared_ptr\&lt;\l psi::Matrix \&gt;">
<polygon fill="none" stroke="black" points="263,-52 263,-82 361,-82 361,-52 263,-52"/>
<text text-anchor="start" x="271" y="-70" font-family="Helvetica,sans-Serif" font-size="10.00">boost::shared_ptr&lt;</text>
<text text-anchor="middle" x="312" y="-59" font-family="Helvetica,sans-Serif" font-size="10.00"> psi::Matrix &gt;</text>
</a>
</g>
</g>
<!-- Node3&#45;&gt;Node5 -->
<g id="edge6" class="edge"><title>Node3&#45;&gt;Node5</title>
<path fill="none" stroke="orange" stroke-dasharray="5,2" d="M126.3,-85.3234C169.373,-81.0503 224.232,-75.6079 262.936,-71.7683"/>
<polygon fill="orange" stroke="orange" points="125.788,-81.8569 116.183,-86.3271 126.479,-88.8227 125.788,-81.8569"/>
<text text-anchor="middle" x="186" y="-86" font-family="Helvetica,sans-Serif" font-size="10.00"> &lt; psi::Matrix &gt;</text>
</g>
<!-- Node6 -->
<g id="node6" class="node"><title>Node6</title>
<g id="a_node6"><a xlink:href="classboost_1_1shared__ptr.html" target="_top" xlink:title="boost::shared_ptr\&lt;\l psi::Vector \&gt;">
<polygon fill="none" stroke="black" points="263,-0 263,-30 361,-30 361,-0 263,-0"/>
<text text-anchor="start" x="271" y="-18" font-family="Helvetica,sans-Serif" font-size="10.00">boost::shared_ptr&lt;</text>
<text text-anchor="middle" x="312" y="-7" font-family="Helvetica,sans-Serif" font-size="10.00"> psi::Vector &gt;</text>
</a>
</g>
</g>
<!-- Node3&#45;&gt;Node6 -->
<g id="edge8" class="edge"><title>Node3&#45;&gt;Node6</title>
<path fill="none" stroke="orange" stroke-dasharray="5,2" d="M87.7915,-77.9506C101.557,-71.5927 118.401,-64.3271 134,-59 176.701,-44.418 226.707,-32.4365 262.654,-24.6787"/>
<polygon fill="orange" stroke="orange" points="85.9339,-74.9564 78.3738,-82.379 88.9127,-81.291 85.9339,-74.9564"/>
<text text-anchor="middle" x="186" y="-62" font-family="Helvetica,sans-Serif" font-size="10.00"> &lt; psi::Vector &gt;</text>
</g>
<!-- Node4&#45;&gt;Node1 -->
<g id="edge3" class="edge"><title>Node4&#45;&gt;Node1</title>
<path fill="none" stroke="#9a32cd" stroke-dasharray="5,2" d="M371.347,-117.047C396.802,-116.522 426.951,-115.163 454,-112 459.909,-111.309 466.103,-110.346 472.176,-109.263"/>
<polygon fill="#9a32cd" stroke="#9a32cd" points="371.053,-113.551 361.113,-117.219 371.171,-120.55 371.053,-113.551"/>
<text text-anchor="middle" x="420" y="-119" font-family="Helvetica,sans-Serif" font-size="10.00"> jk_</text>
</g>
<!-- Node5&#45;&gt;Node1 -->
<g id="edge5" class="edge"><title>Node5&#45;&gt;Node1</title>
<path fill="none" stroke="#9a32cd" stroke-dasharray="5,2" d="M371.18,-58.3009C396.978,-56.3359 427.44,-56.6434 454,-64 472.497,-69.1234 491.017,-81.6357 502.486,-90.4647"/>
<polygon fill="#9a32cd" stroke="#9a32cd" points="370.822,-54.8188 361.173,-59.1924 371.444,-61.7912 370.822,-54.8188"/>
<text text-anchor="middle" x="420" y="-100" font-family="Helvetica,sans-Serif" font-size="10.00"> X_</text>
<text text-anchor="middle" x="420" y="-89" font-family="Helvetica,sans-Serif" font-size="10.00">S_0_</text>
<text text-anchor="middle" x="420" y="-78" font-family="Helvetica,sans-Serif" font-size="10.00">T_</text>
<text text-anchor="middle" x="420" y="-67" font-family="Helvetica,sans-Serif" font-size="10.00">S_</text>
</g>
<!-- Node6&#45;&gt;Node1 -->
<g id="edge7" class="edge"><title>Node6&#45;&gt;Node1</title>
<path fill="none" stroke="#9a32cd" stroke-dasharray="5,2" d="M370.985,-6.03666C397.657,-4.59579 428.877,-6.87674 454,-20 483.545,-35.4332 502.523,-72.7166 510.165,-90.3937"/>
<polygon fill="#9a32cd" stroke="#9a32cd" points="370.729,-2.54588 361.007,-6.75627 371.233,-9.52774 370.729,-2.54588"/>
<text text-anchor="middle" x="420" y="-45" font-family="Helvetica,sans-Serif" font-size="10.00"> E_HF_L_</text>
<text text-anchor="middle" x="420" y="-34" font-family="Helvetica,sans-Serif" font-size="10.00">E_HF_A_</text>
<text text-anchor="middle" x="420" y="-23" font-family="Helvetica,sans-Serif" font-size="10.00">E_HF_0_</text>
</g>
</g>
</svg>
        <g id="navigator" transform="translate(0 0)" fill="#404254">
                <rect fill="#f2f5e9" fill-opacity="0.5" stroke="#606060" stroke-width=".5" x="0" y="0" width="60" height="60"/>
                <use id="zoomplus" xlink:href="#zoomPlus" x="17" y="9" onmousedown="handleZoom(evt,'in')"/>
                <use id="zoomminus" xlink:href="#zoomMin" x="42" y="9" onmousedown="handleZoom(evt,'out')"/>
                <use id="reset" xlink:href="#resetDef" x="30" y="36" onmousedown="handleReset()"/>
                <g id="arrowUp" xlink:href="#dirArrow" transform="translate(30 24)" onmousedown="handlePan(0,-1)">
                  <use xlink:href="#rim" fill="#404040">
                        <set attributeName="fill" to="#808080" begin="arrowUp.mouseover" end="arrowUp.mouseout"/>
                  </use>
                  <path fill="none" stroke="white" stroke-width="1.5" d="M0,-3.0v7 M-2.5,-0.5L0,-3.0L2.5,-0.5"/>
                </g>
                <g id="arrowRight" xlink:href="#dirArrow" transform="rotate(90) translate(36 -43)" onmousedown="handlePan(1,0)">
                  <use xlink:href="#rim" fill="#404040">
                        <set attributeName="fill" to="#808080" begin="arrowRight.mouseover" end="arrowRight.mouseout"/>
                  </use>
                  <path fill="none" stroke="white" stroke-width="1.5" d="M0,-3.0v7 M-2.5,-0.5L0,-3.0L2.5,-0.5"/>
                </g>
                <g id="arrowDown" xlink:href="#dirArrow" transform="rotate(180) translate(-30 -48)" onmousedown="handlePan(0,1)">
                  <use xlink:href="#rim" fill="#404040">
                        <set attributeName="fill" to="#808080" begin="arrowDown.mouseover" end="arrowDown.mouseout"/>
                  </use>
                  <path fill="none" stroke="white" stroke-width="1.5" d="M0,-3.0v7 M-2.5,-0.5L0,-3.0L2.5,-0.5"/>
                </g>
                <g id="arrowLeft" xlink:href="#dirArrow" transform="rotate(270) translate(-36 17)" onmousedown="handlePan(-1,0)">
                  <use xlink:href="#rim" fill="#404040">
                        <set attributeName="fill" to="#808080" begin="arrowLeft.mouseover" end="arrowLeft.mouseout"/>
                  </use>
                  <path fill="none" stroke="white" stroke-width="1.5" d="M0,-3.0v7 M-2.5,-0.5L0,-3.0L2.5,-0.5"/>
                </g>
        </g>
        <svg viewBox="0 0 15 15" width="100%" height="30px" preserveAspectRatio="xMaxYMin meet">
         <g id="arrow_out" transform="scale(0.3 0.3)">
          <a xlink:href="classpsi_1_1dftsapt_1_1PB__coll__graph_org.svg" target="_base">
           <rect id="button" ry="5" rx="5" y="6" x="6" height="38" width="38"
                fill="#f2f5e9" fill-opacity="0.5" stroke="#606060" stroke-width="1.0"/>
           <path id="arrow"
             d="M 11.500037,31.436501 C 11.940474,20.09759 22.043105,11.32322 32.158766,21.979434 L 37.068811,17.246167 C 37.068811,17.246167 37.088388,32 37.088388,32 L 22.160133,31.978069 C 22.160133,31.978069 26.997745,27.140456 26.997745,27.140456 C 18.528582,18.264221 13.291696,25.230495 11.500037,31.436501 z"
             style="fill:#404040;"/>
          </a>
         </g>
        </svg>
</svg>
