<?xml version="1.0" encoding="UTF-8" standalone="no"?>
<!DOCTYPE svg PUBLIC "-//W3C//DTD SVG 1.1//EN"
 "http://www.w3.org/Graphics/SVG/1.1/DTD/svg11.dtd">
<!-- Generated by graphviz version 2.30.1 (20140110.0959)
 -->
<!-- Title: psi::IWL::init Pages: 1 -->
<svg width="1070pt" height="407pt"
 viewBox="0.00 0.00 1070.00 407.00" xmlns="http://www.w3.org/2000/svg" xmlns:xlink="http://www.w3.org/1999/xlink">
<g id="graph0" class="graph" transform="scale(1 1) rotate(0) translate(4 403)">
<title>psi::IWL::init</title>
<!-- Node1 -->
<g id="node1" class="node"><title>Node1</title>
<polygon fill="#bfbfbf" stroke="black" points="0,-253.5 0,-272.5 72,-272.5 72,-253.5 0,-253.5"/>
<text text-anchor="middle" x="36" y="-260.5" font-family="Helvetica,sans-Serif" font-size="10.00">psi::IWL::init</text>
</g>
<!-- Node2 -->
<g id="node2" class="node"><title>Node2</title>
<g id="a_node2"><a xlink:href="classpsi_1_1PSIO.html#ad9843039bda332ccadfc7f47ec4ada25" target="_top" xlink:title="open unit. status can be PSIO_OPEN_OLD (if existing file is to be opened) or PSIO_OPEN_NEW if new fil...">
<polygon fill="none" stroke="black" points="246,-297.5 246,-316.5 332,-316.5 332,-297.5 246,-297.5"/>
<text text-anchor="middle" x="289" y="-304.5" font-family="Helvetica,sans-Serif" font-size="10.00">psi::PSIO::open</text>
</a>
</g>
</g>
<!-- Node1&#45;&gt;Node2 -->
<g id="edge1" class="edge"><title>Node1&#45;&gt;Node2</title>
<path fill="none" stroke="midnightblue" d="M72.353,-270.185C83.7217,-272.438 96.3807,-274.887 108,-277 150.838,-284.791 199.558,-292.863 235.498,-298.669"/>
<polygon fill="midnightblue" stroke="midnightblue" points="235.321,-302.186 245.75,-300.32 236.434,-295.275 235.321,-302.186"/>
</g>
<!-- Node8 -->
<g id="node8" class="node"><title>Node8</title>
<g id="a_node8"><a xlink:href="classpsi_1_1PSIO.html#a5646f6a4991f52588a42e54bad3261ef" target="_top" xlink:title="Scans the TOC for a particular keyword and returns either a pointer to the entry or NULL to the calle...">
<polygon fill="none" stroke="black" points="108,-215.5 108,-234.5 208,-234.5 208,-215.5 108,-215.5"/>
<text text-anchor="middle" x="158" y="-222.5" font-family="Helvetica,sans-Serif" font-size="10.00">psi::PSIO::tocscan</text>
</a>
</g>
</g>
<!-- Node1&#45;&gt;Node8 -->
<g id="edge7" class="edge"><title>Node1&#45;&gt;Node8</title>
<path fill="none" stroke="midnightblue" d="M67.2811,-253.411C82.3456,-248.641 100.754,-242.811 116.967,-237.677"/>
<polygon fill="midnightblue" stroke="midnightblue" points="118.252,-240.942 126.729,-234.586 116.139,-234.268 118.252,-240.942"/>
</g>
<!-- Node10 -->
<g id="node10" class="node"><title>Node10</title>
<g id="a_node10"><a xlink:href="classpsi_1_1PSIO.html#adbd402c15bc7514c6ccaf1838a138858" target="_top" xlink:title="close unit. if keep == 0, will remove the file, else keep it">
<polygon fill="none" stroke="black" points="244.5,-253.5 244.5,-272.5 333.5,-272.5 333.5,-253.5 244.5,-253.5"/>
<text text-anchor="middle" x="289" y="-260.5" font-family="Helvetica,sans-Serif" font-size="10.00">psi::PSIO::close</text>
</a>
</g>
</g>
<!-- Node1&#45;&gt;Node10 -->
<g id="edge33" class="edge"><title>Node1&#45;&gt;Node10</title>
<path fill="none" stroke="midnightblue" d="M72.1648,-263C114.235,-263 185.117,-263 234.113,-263"/>
<polygon fill="midnightblue" stroke="midnightblue" points="234.218,-266.5 244.217,-263 234.217,-259.5 234.218,-266.5"/>
</g>
<!-- Node3 -->
<g id="node3" class="node"><title>Node3</title>
<g id="a_node3"><a xlink:href="group__PSIO.html#ga1e6c081b5776af1cc3d21a8a1cb5c337" target="_top" xlink:title="psi::psio_error">
<polygon fill="none" stroke="black" points="837,-196.5 837,-215.5 915,-215.5 915,-196.5 837,-196.5"/>
<text text-anchor="middle" x="876" y="-203.5" font-family="Helvetica,sans-Serif" font-size="10.00">psi::psio_error</text>
</a>
</g>
</g>
<!-- Node2&#45;&gt;Node3 -->
<g id="edge2" class="edge"><title>Node2&#45;&gt;Node3</title>
<path fill="none" stroke="midnightblue" d="M315.151,-316.605C330.698,-322.022 351.206,-328.242 370,-331 428.045,-339.519 443.767,-338.119 502,-331 630.183,-315.329 664.732,-310.511 784,-261 809.262,-250.513 835.767,-233.74 853.612,-221.472"/>
<polygon fill="midnightblue" stroke="midnightblue" points="855.921,-224.128 862.103,-215.523 851.904,-218.395 855.921,-224.128"/>
</g>
<!-- Node5 -->
<g id="node5" class="node"><title>Node5</title>
<g id="a_node5"><a xlink:href="classpsi_1_1PSIO.html#aef650f478b5b6d852921deec3f0e8e4a" target="_top" xlink:title="grab the filename of unit and strdup into name.">
<polygon fill="none" stroke="black" points="375.5,-379.5 375.5,-398.5 496.5,-398.5 496.5,-379.5 375.5,-379.5"/>
<text text-anchor="middle" x="436" y="-386.5" font-family="Helvetica,sans-Serif" font-size="10.00">psi::PSIO::get_filename</text>
</a>
</g>
</g>
<!-- Node2&#45;&gt;Node5 -->
<g id="edge4" class="edge"><title>Node2&#45;&gt;Node5</title>
<path fill="none" stroke="midnightblue" d="M301.261,-316.712C316.174,-329.197 343.67,-350.939 370,-365 377.627,-369.073 386.095,-372.751 394.33,-375.934"/>
<polygon fill="midnightblue" stroke="midnightblue" points="393.234,-379.26 403.827,-379.438 395.657,-372.693 393.234,-379.26"/>
</g>
<!-- Node7 -->
<g id="node7" class="node"><title>Node7</title>
<g id="a_node7"><a xlink:href="classpsi_1_1PSIOManager.html#ac53f8dde17257977d98f1137616c2b48" target="_top" xlink:title="The one and (should be) only instance of PSIOManager for a PSI4 instance.">
<polygon fill="none" stroke="black" points="370,-292 370,-322 502,-322 502,-292 370,-292"/>
<text text-anchor="start" x="378" y="-310" font-family="Helvetica,sans-Serif" font-size="10.00">psi::PSIOManager::shared</text>
<text text-anchor="middle" x="436" y="-299" font-family="Helvetica,sans-Serif" font-size="10.00">_object</text>
</a>
</g>
</g>
<!-- Node2&#45;&gt;Node7 -->
<g id="edge6" class="edge"><title>Node2&#45;&gt;Node7</title>
<path fill="none" stroke="midnightblue" d="M332.33,-307C340.985,-307 350.339,-307 359.755,-307"/>
<polygon fill="midnightblue" stroke="midnightblue" points="359.966,-310.5 369.966,-307 359.966,-303.5 359.966,-310.5"/>
</g>
<!-- Node4 -->
<g id="node4" class="node"><title>Node4</title>
<g id="a_node4"><a xlink:href="group__PSIO.html#gaee16f35954f733e1fce461d5981e3871" target="_top" xlink:title="psi::psio_tocwrite">
<polygon fill="none" stroke="black" points="968.5,-196.5 968.5,-215.5 1061.5,-215.5 1061.5,-196.5 968.5,-196.5"/>
<text text-anchor="middle" x="1015" y="-203.5" font-family="Helvetica,sans-Serif" font-size="10.00">psi::psio_tocwrite</text>
</a>
</g>
</g>
<!-- Node3&#45;&gt;Node4 -->
<g id="edge3" class="edge"><title>Node3&#45;&gt;Node4</title>
<path fill="none" stroke="midnightblue" d="M915.162,-206C928.414,-206 943.564,-206 957.955,-206"/>
<polygon fill="midnightblue" stroke="midnightblue" points="958.262,-209.5 968.262,-206 958.262,-202.5 958.262,-209.5"/>
</g>
<!-- Node6 -->
<g id="node6" class="node"><title>Node6</title>
<g id="a_node6"><a xlink:href="classpsi_1_1PSIO.html#a4877f88ce7323ba45691dbfb4d403936" target="_top" xlink:title="psi::PSIO::filecfg_kwd">
<polygon fill="none" stroke="black" points="539.5,-379.5 539.5,-398.5 654.5,-398.5 654.5,-379.5 539.5,-379.5"/>
<text text-anchor="middle" x="597" y="-386.5" font-family="Helvetica,sans-Serif" font-size="10.00">psi::PSIO::filecfg_kwd</text>
</a>
</g>
</g>
<!-- Node5&#45;&gt;Node6 -->
<g id="edge5" class="edge"><title>Node5&#45;&gt;Node6</title>
<path fill="none" stroke="midnightblue" d="M496.658,-389C507.276,-389 518.398,-389 529.199,-389"/>
<polygon fill="midnightblue" stroke="midnightblue" points="529.429,-392.5 539.429,-389 529.429,-385.5 529.429,-392.5"/>
</g>
<!-- Node8&#45;&gt;Node3 -->
<g id="edge8" class="edge"><title>Node8&#45;&gt;Node3</title>
<path fill="none" stroke="midnightblue" d="M208.109,-225C263.301,-225 355.578,-225 435,-225 435,-225 435,-225 598,-225 678.38,-225 771.574,-216.938 826.784,-211.318"/>
<polygon fill="midnightblue" stroke="midnightblue" points="827.384,-214.774 836.971,-210.264 826.664,-207.811 827.384,-214.774"/>
</g>
<!-- Node9 -->
<g id="node9" class="node"><title>Node9</title>
<g id="a_node9"><a xlink:href="classpsi_1_1PSIO.html#ae49be2f291d20fa98b7ed6612b3a524d" target="_top" xlink:title="return 1 if unit is open">
<polygon fill="none" stroke="black" points="538,-63.5 538,-82.5 656,-82.5 656,-63.5 538,-63.5"/>
<text text-anchor="middle" x="597" y="-70.5" font-family="Helvetica,sans-Serif" font-size="10.00">psi::PSIO::open_check</text>
</a>
</g>
</g>
<!-- Node8&#45;&gt;Node9 -->
<g id="edge9" class="edge"><title>Node8&#45;&gt;Node9</title>
<path fill="none" stroke="midnightblue" d="M174.819,-215.481C209.158,-195.212 293.595,-147.479 370,-121 421.619,-103.111 482.283,-90.6699 527.756,-82.9439"/>
<polygon fill="midnightblue" stroke="midnightblue" points="528.513,-86.3662 537.802,-81.2715 527.363,-79.4612 528.513,-86.3662"/>
</g>
<!-- Node8&#45;&gt;Node2 -->
<g id="edge10" class="edge"><title>Node8&#45;&gt;Node2</title>
<path fill="none" stroke="midnightblue" d="M172.634,-234.599C189.255,-246.193 218.308,-266.117 244,-282 249.591,-285.456 255.672,-289.028 261.479,-292.351"/>
<polygon fill="midnightblue" stroke="midnightblue" points="259.841,-295.446 270.269,-297.319 263.285,-289.352 259.841,-295.446"/>
</g>
<!-- Node8&#45;&gt;Node10 -->
<g id="edge11" class="edge"><title>Node8&#45;&gt;Node10</title>
<path fill="none" stroke="midnightblue" d="M191.552,-234.589C207.899,-239.404 227.909,-245.299 245.457,-250.468"/>
<polygon fill="midnightblue" stroke="midnightblue" points="244.877,-253.946 255.458,-253.414 246.855,-247.231 244.877,-253.946"/>
</g>
<!-- Node10&#45;&gt;Node3 -->
<g id="edge12" class="edge"><title>Node10&#45;&gt;Node3</title>
<path fill="none" stroke="midnightblue" d="M333.818,-265.218C420.685,-268.663 620.473,-271.845 784,-239 804.797,-234.823 827.21,-226.742 844.588,-219.623"/>
<polygon fill="midnightblue" stroke="midnightblue" points="846.331,-222.686 854.188,-215.579 843.613,-216.235 846.331,-222.686"/>
</g>
<!-- Node11 -->
<g id="node11" class="node"><title>Node11</title>
<g id="a_node11"><a xlink:href="classpsi_1_1PSIO.html#a32fcd89fe9072099cb993a455233cf15" target="_top" xlink:title="Write the table of contents for file number &#39;unit&#39;. NB: This function should NOT call psio_error beca...">
<polygon fill="none" stroke="black" points="386,-130.5 386,-149.5 486,-149.5 486,-130.5 386,-130.5"/>
<text text-anchor="middle" x="436" y="-137.5" font-family="Helvetica,sans-Serif" font-size="10.00">psi::PSIO::tocwrite</text>
</a>
</g>
</g>
<!-- Node10&#45;&gt;Node11 -->
<g id="edge13" class="edge"><title>Node10&#45;&gt;Node11</title>
<path fill="none" stroke="midnightblue" d="M301.378,-253.348C326.154,-232.331 385.214,-182.232 415.842,-156.251"/>
<polygon fill="midnightblue" stroke="midnightblue" points="418.313,-158.745 423.675,-149.607 413.785,-153.407 418.313,-158.745"/>
</g>
<!-- Node10&#45;&gt;Node7 -->
<g id="edge32" class="edge"><title>Node10&#45;&gt;Node7</title>
<path fill="none" stroke="midnightblue" d="M321.463,-272.547C337.351,-277.369 357.159,-283.379 375.762,-289.024"/>
<polygon fill="midnightblue" stroke="midnightblue" points="374.767,-292.38 385.353,-291.935 376.8,-285.682 374.767,-292.38"/>
</g>
<!-- Node11&#45;&gt;Node9 -->
<g id="edge14" class="edge"><title>Node11&#45;&gt;Node9</title>
<path fill="none" stroke="midnightblue" d="M455.301,-130.435C475.298,-120.19 508.433,-103.813 538,-92 543.421,-89.8341 549.195,-87.7204 554.919,-85.7368"/>
<polygon fill="midnightblue" stroke="midnightblue" points="556.072,-89.0417 564.434,-82.5352 553.84,-82.4073 556.072,-89.0417"/>
</g>
<!-- Node12 -->
<g id="node12" class="node"><title>Node12</title>
<g id="a_node12"><a xlink:href="group__PSIO.html#gacd1b580899ec1cec5064f2cb0058a364" target="_top" xlink:title="psi::psio_get_address">
<polygon fill="none" stroke="black" points="820,-88.5 820,-107.5 932,-107.5 932,-88.5 820,-88.5"/>
<text text-anchor="middle" x="876" y="-95.5" font-family="Helvetica,sans-Serif" font-size="10.00">psi::psio_get_address</text>
</a>
</g>
</g>
<!-- Node11&#45;&gt;Node12 -->
<g id="edge15" class="edge"><title>Node11&#45;&gt;Node12</title>
<path fill="none" stroke="midnightblue" d="M486.062,-143.306C553.741,-146.8 679.264,-149.435 784,-130 804.647,-126.169 826.899,-118.413 844.232,-111.497"/>
<polygon fill="midnightblue" stroke="midnightblue" points="845.899,-114.596 853.819,-107.558 843.239,-108.121 845.899,-114.596"/>
</g>
<!-- Node13 -->
<g id="node13" class="node"><title>Node13</title>
<g id="a_node13"><a xlink:href="group__PSIO.html#ga0b989c316ebc107f83ab7eb921a6f38c" target="_top" xlink:title="psi::PSIO::rw">
<polygon fill="none" stroke="black" points="559,-101.5 559,-120.5 635,-120.5 635,-101.5 559,-101.5"/>
<text text-anchor="middle" x="597" y="-108.5" font-family="Helvetica,sans-Serif" font-size="10.00">psi::PSIO::rw</text>
</a>
</g>
</g>
<!-- Node11&#45;&gt;Node13 -->
<g id="edge16" class="edge"><title>Node11&#45;&gt;Node13</title>
<path fill="none" stroke="midnightblue" d="M486.003,-131.062C505.972,-127.42 528.967,-123.226 548.753,-119.617"/>
<polygon fill="midnightblue" stroke="midnightblue" points="549.564,-123.027 558.774,-117.79 548.308,-116.141 549.564,-123.027"/>
</g>
<!-- Node14 -->
<g id="node14" class="node"><title>Node14</title>
<g id="a_node14"><a xlink:href="group__PSIO.html#ga0608b284b1f4b703c858612d39bef88c" target="_top" xlink:title="psi::psio_volseek">
<polygon fill="none" stroke="black" points="692,-101.5 692,-120.5 784,-120.5 784,-101.5 692,-101.5"/>
<text text-anchor="middle" x="738" y="-108.5" font-family="Helvetica,sans-Serif" font-size="10.00">psi::psio_volseek</text>
</a>
</g>
</g>
<!-- Node13&#45;&gt;Node14 -->
<g id="edge17" class="edge"><title>Node13&#45;&gt;Node14</title>
<path fill="none" stroke="midnightblue" d="M635.249,-111C649.564,-111 666.225,-111 681.869,-111"/>
<polygon fill="midnightblue" stroke="midnightblue" points="681.968,-114.5 691.968,-111 681.968,-107.5 681.968,-114.5"/>
</g>
<!-- Node13&#45;&gt;Node3 -->
<g id="edge18" class="edge"><title>Node13&#45;&gt;Node3</title>
<path fill="none" stroke="midnightblue" d="M625.828,-120.544C675.915,-137.722 781.261,-173.851 837.596,-193.172"/>
<polygon fill="midnightblue" stroke="midnightblue" points="836.596,-196.529 847.19,-196.462 838.867,-189.908 836.596,-196.529"/>
</g>
<!-- Node15 -->
<g id="node15" class="node"><title>Node15</title>
<g id="a_node15"><a xlink:href="classpsi_1_1PSIO.html#abaa2e29b2fbcab920d8daf8f5ae5419c" target="_top" xlink:title="psi::PSIO::write">
<polygon fill="none" stroke="black" points="695,-25.5 695,-44.5 781,-44.5 781,-25.5 695,-25.5"/>
<text text-anchor="middle" x="738" y="-32.5" font-family="Helvetica,sans-Serif" font-size="10.00">psi::PSIO::write</text>
</a>
</g>
</g>
<!-- Node13&#45;&gt;Node15 -->
<g id="edge19" class="edge"><title>Node13&#45;&gt;Node15</title>
<path fill="none" stroke="midnightblue" d="M611.72,-101.472C624.025,-96.8323 642.214,-91.7298 656,-83 672.738,-72.4013 673.208,-61.9061 686.372,-49.7918"/>
<polygon fill="midnightblue" stroke="midnightblue" points="688.902,-52.2531 694.567,-43.3 684.555,-46.7662 688.902,-52.2531"/>
</g>
<!-- Node18 -->
<g id="node18" class="node"><title>Node18</title>
<g id="a_node18"><a xlink:href="classpsi_1_1PSIO.html#a20e9bd359e831a80b55ec64673394cd0" target="_top" xlink:title="psi::PSIO::read">
<polygon fill="none" stroke="black" points="696,-63.5 696,-82.5 780,-82.5 780,-63.5 696,-63.5"/>
<text text-anchor="middle" x="738" y="-70.5" font-family="Helvetica,sans-Serif" font-size="10.00">psi::PSIO::read</text>
</a>
</g>
</g>
<!-- Node13&#45;&gt;Node18 -->
<g id="edge26" class="edge"><title>Node13&#45;&gt;Node18</title>
<path fill="none" stroke="midnightblue" d="M615.887,-101.408C633.545,-94.7725 661.386,-86.5505 685.924,-80.4285"/>
<polygon fill="midnightblue" stroke="midnightblue" points="686.948,-83.782 695.843,-78.0273 685.301,-76.9785 686.948,-83.782"/>
</g>
<!-- Node15&#45;&gt;Node8 -->
<g id="edge20" class="edge"><title>Node15&#45;&gt;Node8</title>
<path fill="none" stroke="midnightblue" d="M694.67,-26.3031C602.111,-9.86912 379.208,15.3112 244,-90 204.106,-121.073 177.881,-176.491 166.12,-205.724"/>
<polygon fill="midnightblue" stroke="midnightblue" points="162.792,-204.626 162.443,-215.215 169.319,-207.155 162.792,-204.626"/>
</g>
<!-- Node15&#45;&gt;Node3 -->
<g id="edge21" class="edge"><title>Node15&#45;&gt;Node3</title>
<path fill="none" stroke="midnightblue" d="M769.65,-44.725C774.794,-47.2241 779.813,-50.286 784,-54 808.126,-75.3995 803.521,-89.2792 820,-117 834.645,-141.635 852.13,-169.711 863.391,-187.629"/>
<polygon fill="midnightblue" stroke="midnightblue" points="860.658,-189.857 868.95,-196.452 866.581,-186.125 860.658,-189.857"/>
</g>
<!-- Node16 -->
<g id="node16" class="node"><title>Node16</title>
<g id="a_node16"><a xlink:href="namespacepsi.html#a5f3a891c486a6de00fdb7e85ce849e96" target="_top" xlink:title="Same as strncpy(), but make sure that dest ends in \0.">
<polygon fill="none" stroke="black" points="842,-0.5 842,-19.5 910,-19.5 910,-0.5 842,-0.5"/>
<text text-anchor="middle" x="876" y="-7.5" font-family="Helvetica,sans-Serif" font-size="10.00">psi::strncpy</text>
</a>
</g>
</g>
<!-- Node15&#45;&gt;Node16 -->
<g id="edge22" class="edge"><title>Node15&#45;&gt;Node16</title>
<path fill="none" stroke="midnightblue" d="M781.286,-27.2269C797.277,-24.2874 815.493,-20.9389 831.585,-17.9806"/>
<polygon fill="midnightblue" stroke="midnightblue" points="832.607,-21.3515 841.809,-16.1012 831.341,-14.4669 832.607,-21.3515"/>
</g>
<!-- Node15&#45;&gt;Node12 -->
<g id="edge23" class="edge"><title>Node15&#45;&gt;Node12</title>
<path fill="none" stroke="midnightblue" d="M764.15,-44.6334C770.726,-47.4177 777.727,-50.6239 784,-54 800.933,-63.1137 802.841,-69.3188 820,-78 824.873,-80.4654 830.124,-82.7773 835.38,-84.8913"/>
<polygon fill="midnightblue" stroke="midnightblue" points="834.175,-88.1773 844.765,-88.4733 836.671,-81.6375 834.175,-88.1773"/>
</g>
<!-- Node17 -->
<g id="node17" class="node"><title>Node17</title>
<g id="a_node17"><a xlink:href="group__PSIO.html#ga760073b297d2340a38f2771b5b13560f" target="_top" xlink:title="psi::psio_get_global\l_address">
<polygon fill="none" stroke="black" points="824.5,-39 824.5,-69 927.5,-69 927.5,-39 824.5,-39"/>
<text text-anchor="start" x="832.5" y="-57" font-family="Helvetica,sans-Serif" font-size="10.00">psi::psio_get_global</text>
<text text-anchor="middle" x="876" y="-46" font-family="Helvetica,sans-Serif" font-size="10.00">_address</text>
</a>
</g>
</g>
<!-- Node15&#45;&gt;Node17 -->
<g id="edge24" class="edge"><title>Node15&#45;&gt;Node17</title>
<path fill="none" stroke="midnightblue" d="M781.286,-40.9076C791.673,-42.3588 803,-43.9412 814.074,-45.4882"/>
<polygon fill="midnightblue" stroke="midnightblue" points="813.75,-48.9769 824.138,-46.8943 814.718,-42.0442 813.75,-48.9769"/>
</g>
<!-- Node15&#45;&gt;Node13 -->
<g id="edge25" class="edge"><title>Node15&#45;&gt;Node13</title>
<path fill="none" stroke="midnightblue" d="M727.467,-44.5542C717.943,-49.7821 703.153,-55.2719 692,-63 672.878,-76.2504 675.655,-88.5538 656,-101 652.425,-103.264 648.553,-105.284 644.565,-107.047"/>
<polygon fill="midnightblue" stroke="midnightblue" points="643.202,-103.821 635.133,-110.687 645.722,-110.352 643.202,-103.821"/>
</g>
<!-- Node18&#45;&gt;Node8 -->
<g id="edge27" class="edge"><title>Node18&#45;&gt;Node8</title>
<path fill="none" stroke="midnightblue" d="M704.2,-63.4931C689.583,-59.7287 672.07,-55.8595 656,-54 529.039,-39.3089 493.166,-49.8671 370,-84 312.251,-100.004 293.555,-98.3046 244,-132 213.432,-152.785 186.182,-186.655 171.189,-207.277"/>
<polygon fill="midnightblue" stroke="midnightblue" points="168.303,-205.296 165.367,-215.476 174.01,-209.349 168.303,-205.296"/>
</g>
<!-- Node18&#45;&gt;Node3 -->
<g id="edge28" class="edge"><title>Node18&#45;&gt;Node3</title>
<path fill="none" stroke="midnightblue" d="M767.781,-82.6225C773.444,-85.197 779.133,-88.313 784,-92 819.64,-119 849.406,-162.984 864.447,-187.681"/>
<polygon fill="midnightblue" stroke="midnightblue" points="861.518,-189.605 869.637,-196.412 867.535,-186.028 861.518,-189.605"/>
</g>
<!-- Node18&#45;&gt;Node12 -->
<g id="edge29" class="edge"><title>Node18&#45;&gt;Node12</title>
<path fill="none" stroke="midnightblue" d="M780.174,-80.5687C790.469,-82.4612 801.741,-84.5333 812.807,-86.5675"/>
<polygon fill="midnightblue" stroke="midnightblue" points="812.41,-90.053 822.878,-88.4187 813.675,-83.1683 812.41,-90.053"/>
</g>
<!-- Node18&#45;&gt;Node17 -->
<g id="edge30" class="edge"><title>Node18&#45;&gt;Node17</title>
<path fill="none" stroke="midnightblue" d="M780.174,-67.2478C790.937,-65.7441 802.768,-64.0912 814.314,-62.4781"/>
<polygon fill="midnightblue" stroke="midnightblue" points="814.935,-65.9256 824.354,-61.0755 813.966,-58.9929 814.935,-65.9256"/>
</g>
<!-- Node18&#45;&gt;Node13 -->
<g id="edge31" class="edge"><title>Node18&#45;&gt;Node13</title>
<path fill="none" stroke="midnightblue" d="M719.15,-82.5782C700.538,-89.5754 670.583,-98.3413 645.117,-104.548"/>
<polygon fill="midnightblue" stroke="midnightblue" points="644.179,-101.173 635.249,-106.874 645.786,-107.986 644.179,-101.173"/>
</g>
</g>
</svg>
