<?xml version="1.0" encoding="UTF-8" standalone="no"?>
<!DOCTYPE svg PUBLIC "-//W3C//DTD SVG 1.1//EN"
 "http://www.w3.org/Graphics/SVG/1.1/DTD/svg11.dtd">
<!-- Generated by graphviz version 2.30.1 (20140110.0959)
 -->
<!-- Title: psi::scf::KS Pages: 1 -->
<!--zoomable 420 -->
<svg id="main" version="1.1" xmlns="http://www.w3.org/2000/svg" xmlns:xlink="http://www.w3.org/1999/xlink" xml:space="preserve" onload="init(evt)">
        <defs>
                <circle id="rim" cx="0" cy="0" r="7"/>
                <circle id="rim2" cx="0" cy="0" r="3.5"/>
                <g id="zoomPlus">
                        <use xlink:href="#rim" fill="#404040">
                                <set attributeName="fill" to="#808080" begin="zoomplus.mouseover" end="zoomplus.mouseout"/>
                        </use>
                        <path d="M-4,0h8M0,-4v8" fill="none" stroke="white" stroke-width="1.5" pointer-events="none"/>
                </g>
                <g id="zoomMin">
                        <use xlink:href="#rim" fill="#404040">
                                <set attributeName="fill" to="#808080" begin="zoomminus.mouseover" end="zoomminus.mouseout"/>
                        </use>
                        <path d="M-4,0h8" fill="none" stroke="white" stroke-width="1.5" pointer-events="none"/>
                </g>
                <g id="dirArrow">
                        <path fill="none" stroke="white" stroke-width="1.5" d="M0,-3.0v7 M-2.5,-0.5L0,-3.0L2.5,-0.5"/>
                </g>
               <g id="resetDef">
                       <use xlink:href="#rim2" fill="#404040">
                               <set attributeName="fill" to="#808080" begin="reset.mouseover" end="reset.mouseout"/>
                       </use>
               </g>
        </defs>

<script type="text/javascript">
var viewWidth = 568;
var viewHeight = 420;
var sectionId = 'dynsection-1';
</script>
<script xlink:href="svgpan.js"/>
<svg id="graph" class="graph">
<g id="viewport">
<title>psi::scf::KS</title>
<!-- Node1 -->
<g id="node1" class="node"><title>Node1</title>
<polygon fill="#bfbfbf" stroke="black" points="492,-191.5 492,-210.5 560,-210.5 560,-191.5 492,-191.5"/>
<text text-anchor="middle" x="526" y="-198.5" font-family="Helvetica,sans-Serif" font-size="10.00">psi::scf::KS</text>
</g>
<!-- Node2 -->
<g id="node2" class="node"><title>Node2</title>
<g id="a_node2"><a xlink:href="classboost_1_1shared__ptr.html" target="_top" xlink:title="boost::shared_ptr\&lt;\l psi::TwoBodySOInt \&gt;">
<polygon fill="none" stroke="black" points="266,-382 266,-412 380,-412 380,-382 266,-382"/>
<text text-anchor="start" x="274" y="-400" font-family="Helvetica,sans-Serif" font-size="10.00">boost::shared_ptr&lt;</text>
<text text-anchor="middle" x="323" y="-389" font-family="Helvetica,sans-Serif" font-size="10.00"> psi::TwoBodySOInt &gt;</text>
</a>
</g>
</g>
<!-- Node2&#45;&gt;Node1 -->
<g id="edge1" class="edge"><title>Node2&#45;&gt;Node1</title>
<path fill="none" stroke="#9a32cd" stroke-dasharray="5,2" d="M390.306,-388.283C419.249,-381.395 451.617,-369.065 474,-347 513.58,-307.983 522.497,-236.605 524.46,-210.711"/>
<polygon fill="#9a32cd" stroke="#9a32cd" points="389.247,-384.932 380.233,-390.5 390.752,-391.769 389.247,-384.932"/>
<text text-anchor="middle" x="437" y="-387" font-family="Helvetica,sans-Serif" font-size="10.00"> omega_eri_</text>
</g>
<!-- Node3 -->
<g id="node3" class="node"><title>Node3</title>
<g id="a_node3"><a xlink:href="classboost_1_1shared__ptr.html" target="_top" xlink:title="boost::shared_ptr\&lt; T \&gt;">
<polygon fill="none" stroke="black" points="0,-215.5 0,-234.5 116,-234.5 116,-215.5 0,-215.5"/>
<text text-anchor="middle" x="58" y="-222.5" font-family="Helvetica,sans-Serif" font-size="10.00">boost::shared_ptr&lt; T &gt;</text>
</a>
</g>
</g>
<!-- Node3&#45;&gt;Node2 -->
<g id="edge2" class="edge"><title>Node3&#45;&gt;Node2</title>
<path fill="none" stroke="orange" stroke-dasharray="5,2" d="M64.958,-244.275C74.6901,-272.443 96.7411,-324.482 134,-352 172.199,-380.213 225.607,-390.986 265.741,-394.978"/>
<polygon fill="orange" stroke="orange" points="68.2743,-243.156 61.8252,-234.75 61.6247,-245.343 68.2743,-243.156"/>
<text text-anchor="middle" x="190" y="-395" font-family="Helvetica,sans-Serif" font-size="10.00"> &lt; psi::TwoBodySOInt &gt;</text>
</g>
<!-- Node4 -->
<g id="node4" class="node"><title>Node4</title>
<g id="a_node4"><a xlink:href="classboost_1_1shared__ptr.html" target="_top" xlink:title="boost::shared_ptr\&lt;\l psi::IntegralFactory \&gt;">
<polygon fill="none" stroke="black" points="266.5,-333 266.5,-363 379.5,-363 379.5,-333 266.5,-333"/>
<text text-anchor="start" x="274.5" y="-351" font-family="Helvetica,sans-Serif" font-size="10.00">boost::shared_ptr&lt;</text>
<text text-anchor="middle" x="323" y="-340" font-family="Helvetica,sans-Serif" font-size="10.00"> psi::IntegralFactory &gt;</text>
</a>
</g>
</g>
<!-- Node3&#45;&gt;Node4 -->
<g id="edge4" class="edge"><title>Node3&#45;&gt;Node4</title>
<path fill="none" stroke="orange" stroke-dasharray="5,2" d="M71.8386,-242.815C85.3552,-260.258 108.223,-286.293 134,-301 174.91,-324.342 227.3,-336.21 266.379,-342.173"/>
<polygon fill="orange" stroke="orange" points="74.4602,-240.478 65.6568,-234.582 68.8625,-244.681 74.4602,-240.478"/>
<text text-anchor="middle" x="190" y="-340" font-family="Helvetica,sans-Serif" font-size="10.00"> &lt; psi::IntegralFactory &gt;</text>
</g>
<!-- Node6 -->
<g id="node6" class="node"><title>Node6</title>
<g id="a_node6"><a xlink:href="classboost_1_1shared__ptr.html" target="_top" xlink:title="boost::shared_ptr\&lt;\l psi::SuperFunctional \&gt;">
<polygon fill="none" stroke="black" points="264,-284 264,-314 382,-314 382,-284 264,-284"/>
<text text-anchor="start" x="272" y="-302" font-family="Helvetica,sans-Serif" font-size="10.00">boost::shared_ptr&lt;</text>
<text text-anchor="middle" x="323" y="-291" font-family="Helvetica,sans-Serif" font-size="10.00"> psi::SuperFunctional &gt;</text>
</a>
</g>
</g>
<!-- Node3&#45;&gt;Node6 -->
<g id="edge7" class="edge"><title>Node3&#45;&gt;Node6</title>
<path fill="none" stroke="orange" stroke-dasharray="5,2" d="M87.4377,-239.119C101.24,-245.554 118.216,-252.864 134,-258 176.567,-271.852 226.081,-282.436 263.607,-289.378"/>
<polygon fill="orange" stroke="orange" points="88.544,-235.77 78.0104,-234.632 85.5355,-242.09 88.544,-235.77"/>
<text text-anchor="middle" x="190" y="-289" font-family="Helvetica,sans-Serif" font-size="10.00"> &lt; psi::SuperFunctional &gt;</text>
</g>
<!-- Node7 -->
<g id="node7" class="node"><title>Node7</title>
<g id="a_node7"><a xlink:href="classboost_1_1shared__ptr.html" target="_top" xlink:title="boost::shared_ptr\&lt;\l psi::PSIO \&gt;">
<polygon fill="none" stroke="black" points="274,-235 274,-265 372,-265 372,-235 274,-235"/>
<text text-anchor="start" x="282" y="-253" font-family="Helvetica,sans-Serif" font-size="10.00">boost::shared_ptr&lt;</text>
<text text-anchor="middle" x="323" y="-242" font-family="Helvetica,sans-Serif" font-size="10.00"> psi::PSIO &gt;</text>
</a>
</g>
</g>
<!-- Node3&#45;&gt;Node7 -->
<g id="edge9" class="edge"><title>Node3&#45;&gt;Node7</title>
<path fill="none" stroke="orange" stroke-dasharray="5,2" d="M126.278,-231.395C172.399,-235.779 232.491,-241.492 273.857,-245.424"/>
<polygon fill="orange" stroke="orange" points="126.353,-227.887 116.067,-230.425 125.691,-234.855 126.353,-227.887"/>
<text text-anchor="middle" x="190" y="-246" font-family="Helvetica,sans-Serif" font-size="10.00"> &lt; psi::PSIO &gt;</text>
</g>
<!-- Node8 -->
<g id="node8" class="node"><title>Node8</title>
<g id="a_node8"><a xlink:href="classboost_1_1shared__ptr.html" target="_top" xlink:title="boost::shared_ptr\&lt;\l psi::SOBasisSet \&gt;">
<polygon fill="none" stroke="black" points="272.5,-186 272.5,-216 373.5,-216 373.5,-186 272.5,-186"/>
<text text-anchor="start" x="280.5" y="-204" font-family="Helvetica,sans-Serif" font-size="10.00">boost::shared_ptr&lt;</text>
<text text-anchor="middle" x="323" y="-193" font-family="Helvetica,sans-Serif" font-size="10.00"> psi::SOBasisSet &gt;</text>
</a>
</g>
</g>
<!-- Node3&#45;&gt;Node8 -->
<g id="edge11" class="edge"><title>Node3&#45;&gt;Node8</title>
<path fill="none" stroke="orange" stroke-dasharray="5,2" d="M124.701,-214.123C127.841,-213.718 130.953,-213.34 134,-213 180.805,-207.774 234.439,-204.63 272.409,-202.88"/>
<polygon fill="orange" stroke="orange" points="124.055,-210.678 114.621,-215.498 125.002,-217.614 124.055,-210.678"/>
<text text-anchor="middle" x="190" y="-216" font-family="Helvetica,sans-Serif" font-size="10.00"> &lt; psi::SOBasisSet &gt;</text>
</g>
<!-- Node9 -->
<g id="node9" class="node"><title>Node9</title>
<g id="a_node9"><a xlink:href="classboost_1_1shared__ptr.html" target="_top" xlink:title="boost::shared_ptr\&lt;\l psi::BasisSet \&gt;">
<polygon fill="none" stroke="black" points="274,-137 274,-167 372,-167 372,-137 274,-137"/>
<text text-anchor="start" x="282" y="-155" font-family="Helvetica,sans-Serif" font-size="10.00">boost::shared_ptr&lt;</text>
<text text-anchor="middle" x="323" y="-144" font-family="Helvetica,sans-Serif" font-size="10.00"> psi::BasisSet &gt;</text>
</a>
</g>
</g>
<!-- Node3&#45;&gt;Node9 -->
<g id="edge13" class="edge"><title>Node3&#45;&gt;Node9</title>
<path fill="none" stroke="orange" stroke-dasharray="5,2" d="M85.4917,-210.754C99.5717,-203.671 117.366,-195.476 134,-190 180.337,-174.746 235.207,-164.506 273.67,-158.537"/>
<polygon fill="orange" stroke="orange" points="83.6879,-207.746 76.3974,-215.434 86.8907,-213.971 83.6879,-207.746"/>
<text text-anchor="middle" x="190" y="-193" font-family="Helvetica,sans-Serif" font-size="10.00"> &lt; psi::BasisSet &gt;</text>
</g>
<!-- Node10 -->
<g id="node10" class="node"><title>Node10</title>
<g id="a_node10"><a xlink:href="classboost_1_1shared__ptr.html" target="_top" xlink:title="boost::shared_ptr\&lt;\l psi::Molecule \&gt;">
<polygon fill="none" stroke="black" points="274,-88 274,-118 372,-118 372,-88 274,-88"/>
<text text-anchor="start" x="282" y="-106" font-family="Helvetica,sans-Serif" font-size="10.00">boost::shared_ptr&lt;</text>
<text text-anchor="middle" x="323" y="-95" font-family="Helvetica,sans-Serif" font-size="10.00"> psi::Molecule &gt;</text>
</a>
</g>
</g>
<!-- Node3&#45;&gt;Node10 -->
<g id="edge15" class="edge"><title>Node3&#45;&gt;Node10</title>
<path fill="none" stroke="orange" stroke-dasharray="5,2" d="M71.8231,-207.158C85.3277,-189.694 108.187,-163.643 134,-149 177.548,-124.297 234.09,-112.767 273.749,-107.444"/>
<polygon fill="orange" stroke="orange" points="68.8418,-205.3 65.6477,-215.402 74.4443,-209.496 68.8418,-205.3"/>
<text text-anchor="middle" x="190" y="-152" font-family="Helvetica,sans-Serif" font-size="10.00"> &lt; psi::Molecule &gt;</text>
</g>
<!-- Node11 -->
<g id="node11" class="node"><title>Node11</title>
<g id="a_node11"><a xlink:href="classboost_1_1shared__ptr.html" target="_top" xlink:title="boost::shared_ptr\&lt;\l psi::VBase \&gt;">
<polygon fill="none" stroke="black" points="274,-39 274,-69 372,-69 372,-39 274,-39"/>
<text text-anchor="start" x="282" y="-57" font-family="Helvetica,sans-Serif" font-size="10.00">boost::shared_ptr&lt;</text>
<text text-anchor="middle" x="323" y="-46" font-family="Helvetica,sans-Serif" font-size="10.00"> psi::VBase &gt;</text>
</a>
</g>
</g>
<!-- Node3&#45;&gt;Node11 -->
<g id="edge17" class="edge"><title>Node3&#45;&gt;Node11</title>
<path fill="none" stroke="orange" stroke-dasharray="5,2" d="M64.9401,-205.7C74.6495,-177.502 96.6719,-125.424 134,-98 174.791,-68.0313 232.87,-58.108 273.65,-55.0094"/>
<polygon fill="orange" stroke="orange" points="61.6031,-204.644 61.8156,-215.237 68.2552,-206.824 61.6031,-204.644"/>
<text text-anchor="middle" x="190" y="-101" font-family="Helvetica,sans-Serif" font-size="10.00"> &lt; psi::VBase &gt;</text>
</g>
<!-- Node4&#45;&gt;Node1 -->
<g id="edge3" class="edge"><title>Node4&#45;&gt;Node1</title>
<path fill="none" stroke="#9a32cd" stroke-dasharray="5,2" d="M389.449,-335.959C417.913,-328.102 450.137,-315.373 474,-295 501.394,-271.613 516.557,-229.689 522.295,-210.755"/>
<polygon fill="#9a32cd" stroke="#9a32cd" points="388.35,-332.628 379.557,-338.539 390.117,-339.401 388.35,-332.628"/>
<text text-anchor="middle" x="437" y="-335" font-family="Helvetica,sans-Serif" font-size="10.00"> omega_factory_</text>
</g>
<!-- Node5 -->
<g id="node5" class="node"><title>Node5</title>
<g id="a_node5"><a xlink:href="classpsi_1_1Options.html" target="_top" xlink:title="psi::Options">
<polygon fill="none" stroke="black" points="288.5,-0.5 288.5,-19.5 357.5,-19.5 357.5,-0.5 288.5,-0.5"/>
<text text-anchor="middle" x="323" y="-7.5" font-family="Helvetica,sans-Serif" font-size="10.00">psi::Options</text>
</a>
</g>
</g>
<!-- Node5&#45;&gt;Node1 -->
<g id="edge5" class="edge"><title>Node5&#45;&gt;Node1</title>
<path fill="none" stroke="#9a32cd" stroke-dasharray="5,2" d="M367.888,-12.9908C401.002,-17.4784 445.456,-28.5931 474,-56 513.845,-94.2578 522.598,-165.45 524.489,-191.302"/>
<polygon fill="#9a32cd" stroke="#9a32cd" points="367.915,-9.46914 357.57,-11.7545 367.082,-16.4194 367.915,-9.46914"/>
<text text-anchor="middle" x="437" y="-59" font-family="Helvetica,sans-Serif" font-size="10.00"> options_</text>
</g>
<!-- Node6&#45;&gt;Node1 -->
<g id="edge6" class="edge"><title>Node6&#45;&gt;Node1</title>
<path fill="none" stroke="#9a32cd" stroke-dasharray="5,2" d="M391.759,-283.182C418.513,-275.241 448.813,-264.044 474,-249 491.328,-238.65 507.628,-221.54 516.947,-210.789"/>
<polygon fill="#9a32cd" stroke="#9a32cd" points="390.724,-279.837 382.078,-285.961 392.656,-286.565 390.724,-279.837"/>
<text text-anchor="middle" x="437" y="-283" font-family="Helvetica,sans-Serif" font-size="10.00"> functional_</text>
</g>
<!-- Node7&#45;&gt;Node1 -->
<g id="edge8" class="edge"><title>Node7&#45;&gt;Node1</title>
<path fill="none" stroke="#9a32cd" stroke-dasharray="5,2" d="M382.138,-237.718C410.025,-231.599 443.849,-223.843 474,-216 480.431,-214.327 487.279,-212.409 493.8,-210.515"/>
<polygon fill="#9a32cd" stroke="#9a32cd" points="381.175,-234.346 372.15,-239.896 382.666,-241.185 381.175,-234.346"/>
<text text-anchor="middle" x="437" y="-237" font-family="Helvetica,sans-Serif" font-size="10.00"> psio_</text>
</g>
<!-- Node8&#45;&gt;Node1 -->
<g id="edge10" class="edge"><title>Node8&#45;&gt;Node1</title>
<path fill="none" stroke="#9a32cd" stroke-dasharray="5,2" d="M383.896,-201C419.245,-201 462.649,-201 491.909,-201"/>
<polygon fill="#9a32cd" stroke="#9a32cd" points="383.685,-197.5 373.685,-201 383.685,-204.5 383.685,-197.5"/>
<text text-anchor="middle" x="437" y="-204" font-family="Helvetica,sans-Serif" font-size="10.00"> sobasisset_</text>
</g>
<!-- Node9&#45;&gt;Node1 -->
<g id="edge12" class="edge"><title>Node9&#45;&gt;Node1</title>
<path fill="none" stroke="#9a32cd" stroke-dasharray="5,2" d="M382.138,-164.282C410.025,-170.401 443.849,-178.157 474,-186 480.431,-187.673 487.279,-189.591 493.8,-191.485"/>
<polygon fill="#9a32cd" stroke="#9a32cd" points="382.666,-160.815 372.15,-162.104 381.175,-167.654 382.666,-160.815"/>
<text text-anchor="middle" x="437" y="-189" font-family="Helvetica,sans-Serif" font-size="10.00"> basisset_</text>
</g>
<!-- Node10&#45;&gt;Node1 -->
<g id="edge14" class="edge"><title>Node10&#45;&gt;Node1</title>
<path fill="none" stroke="#9a32cd" stroke-dasharray="5,2" d="M382.093,-116.639C410.969,-124.906 445.656,-137.157 474,-154 491.183,-164.211 507.526,-180.941 516.893,-191.443"/>
<polygon fill="#9a32cd" stroke="#9a32cd" points="382.714,-113.179 372.142,-113.88 380.843,-119.924 382.714,-113.179"/>
<text text-anchor="middle" x="437" y="-157" font-family="Helvetica,sans-Serif" font-size="10.00"> molecule_</text>
</g>
<!-- Node11&#45;&gt;Node1 -->
<g id="edge16" class="edge"><title>Node11&#45;&gt;Node1</title>
<path fill="none" stroke="#9a32cd" stroke-dasharray="5,2" d="M382.015,-65.039C412.133,-73.1313 447.971,-86.7161 474,-109 500.913,-132.041 516.324,-172.994 522.211,-191.479"/>
<polygon fill="#9a32cd" stroke="#9a32cd" points="382.597,-61.5756 372.043,-62.5007 380.87,-68.3593 382.597,-61.5756"/>
<text text-anchor="middle" x="437" y="-112" font-family="Helvetica,sans-Serif" font-size="10.00"> potential_</text>
</g>
</g>
</svg>
        <g id="navigator" transform="translate(0 0)" fill="#404254">
                <rect fill="#f2f5e9" fill-opacity="0.5" stroke="#606060" stroke-width=".5" x="0" y="0" width="60" height="60"/>
                <use id="zoomplus" xlink:href="#zoomPlus" x="17" y="9" onmousedown="handleZoom(evt,'in')"/>
                <use id="zoomminus" xlink:href="#zoomMin" x="42" y="9" onmousedown="handleZoom(evt,'out')"/>
                <use id="reset" xlink:href="#resetDef" x="30" y="36" onmousedown="handleReset()"/>
                <g id="arrowUp" xlink:href="#dirArrow" transform="translate(30 24)" onmousedown="handlePan(0,-1)">
                  <use xlink:href="#rim" fill="#404040">
                        <set attributeName="fill" to="#808080" begin="arrowUp.mouseover" end="arrowUp.mouseout"/>
                  </use>
                  <path fill="none" stroke="white" stroke-width="1.5" d="M0,-3.0v7 M-2.5,-0.5L0,-3.0L2.5,-0.5"/>
                </g>
                <g id="arrowRight" xlink:href="#dirArrow" transform="rotate(90) translate(36 -43)" onmousedown="handlePan(1,0)">
                  <use xlink:href="#rim" fill="#404040">
                        <set attributeName="fill" to="#808080" begin="arrowRight.mouseover" end="arrowRight.mouseout"/>
                  </use>
                  <path fill="none" stroke="white" stroke-width="1.5" d="M0,-3.0v7 M-2.5,-0.5L0,-3.0L2.5,-0.5"/>
                </g>
                <g id="arrowDown" xlink:href="#dirArrow" transform="rotate(180) translate(-30 -48)" onmousedown="handlePan(0,1)">
                  <use xlink:href="#rim" fill="#404040">
                        <set attributeName="fill" to="#808080" begin="arrowDown.mouseover" end="arrowDown.mouseout"/>
                  </use>
                  <path fill="none" stroke="white" stroke-width="1.5" d="M0,-3.0v7 M-2.5,-0.5L0,-3.0L2.5,-0.5"/>
                </g>
                <g id="arrowLeft" xlink:href="#dirArrow" transform="rotate(270) translate(-36 17)" onmousedown="handlePan(-1,0)">
                  <use xlink:href="#rim" fill="#404040">
                        <set attributeName="fill" to="#808080" begin="arrowLeft.mouseover" end="arrowLeft.mouseout"/>
                  </use>
                  <path fill="none" stroke="white" stroke-width="1.5" d="M0,-3.0v7 M-2.5,-0.5L0,-3.0L2.5,-0.5"/>
                </g>
        </g>
        <svg viewBox="0 0 15 15" width="100%" height="30px" preserveAspectRatio="xMaxYMin meet">
         <g id="arrow_out" transform="scale(0.3 0.3)">
          <a xlink:href="classpsi_1_1scf_1_1KS__coll__graph_org.svg" target="_base">
           <rect id="button" ry="5" rx="5" y="6" x="6" height="38" width="38"
                fill="#f2f5e9" fill-opacity="0.5" stroke="#606060" stroke-width="1.0"/>
           <path id="arrow"
             d="M 11.500037,31.436501 C 11.940474,20.09759 22.043105,11.32322 32.158766,21.979434 L 37.068811,17.246167 C 37.068811,17.246167 37.088388,32 37.088388,32 L 22.160133,31.978069 C 22.160133,31.978069 26.997745,27.140456 26.997745,27.140456 C 18.528582,18.264221 13.291696,25.230495 11.500037,31.436501 z"
             style="fill:#404040;"/>
          </a>
         </g>
        </svg>
</svg>
