<?xml version="1.0" encoding="UTF-8" standalone="no"?>
<!DOCTYPE svg PUBLIC "-//W3C//DTD SVG 1.1//EN"
 "http://www.w3.org/Graphics/SVG/1.1/DTD/svg11.dtd">
<!-- Generated by graphviz version 2.30.1 (20140110.0959)
 -->
<!-- Title: opt::FRAG::FRAG Pages: 1 -->
<svg width="222pt" height="66pt"
 viewBox="0.00 0.00 222.00 66.00" xmlns="http://www.w3.org/2000/svg" xmlns:xlink="http://www.w3.org/1999/xlink">
<g id="graph0" class="graph" transform="scale(1 1) rotate(0) translate(4 62)">
<title>opt::FRAG::FRAG</title>
<!-- Node1 -->
<g id="node1" class="node"><title>Node1</title>
<polygon fill="#bfbfbf" stroke="black" points="0,-19.5 0,-38.5 98,-38.5 98,-19.5 0,-19.5"/>
<text text-anchor="middle" x="49" y="-26.5" font-family="Helvetica,sans-Serif" font-size="10.00">opt::FRAG::FRAG</text>
</g>
<!-- Node2 -->
<g id="node2" class="node"><title>Node2</title>
<g id="a_node2"><a xlink:href="group__CIOMR.html#ga2c8051e0bc66ea6a19f3c6b43b215560" target="_top" xlink:title="psi::init_matrix">
<polygon fill="none" stroke="black" points="134,-38.5 134,-57.5 214,-57.5 214,-38.5 134,-38.5"/>
<text text-anchor="middle" x="174" y="-45.5" font-family="Helvetica,sans-Serif" font-size="10.00">psi::init_matrix</text>
</a>
</g>
</g>
<!-- Node1&#45;&gt;Node2 -->
<g id="edge1" class="edge"><title>Node1&#45;&gt;Node2</title>
<path fill="none" stroke="midnightblue" d="M98.2598,-36.4548C106.681,-37.7556 115.45,-39.1102 123.894,-40.4145"/>
<polygon fill="midnightblue" stroke="midnightblue" points="123.57,-43.9059 133.987,-41.9736 124.639,-36.9879 123.57,-43.9059"/>
</g>
<!-- Node3 -->
<g id="node3" class="node"><title>Node3</title>
<g id="a_node3"><a xlink:href="group__CIOMR.html#ga35255b9a71ed5869db7c1c5507923929" target="_top" xlink:title="psi::init_array">
<polygon fill="none" stroke="black" points="136.5,-0.5 136.5,-19.5 211.5,-19.5 211.5,-0.5 136.5,-0.5"/>
<text text-anchor="middle" x="174" y="-7.5" font-family="Helvetica,sans-Serif" font-size="10.00">psi::init_array</text>
</a>
</g>
</g>
<!-- Node1&#45;&gt;Node3 -->
<g id="edge2" class="edge"><title>Node1&#45;&gt;Node3</title>
<path fill="none" stroke="midnightblue" d="M98.2598,-21.5452C107.453,-20.1251 117.061,-18.6411 126.207,-17.2282"/>
<polygon fill="midnightblue" stroke="midnightblue" points="126.943,-20.6561 136.291,-15.6705 125.874,-13.7382 126.943,-20.6561"/>
</g>
</g>
</svg>
