<?xml version="1.0" encoding="UTF-8" standalone="no"?>
<!DOCTYPE svg PUBLIC "-//W3C//DTD SVG 1.1//EN"
 "http://www.w3.org/Graphics/SVG/1.1/DTD/svg11.dtd">
<!-- Generated by graphviz version 2.30.1 (20140110.0959)
 -->
<!-- Title: psi::RTHCEW Pages: 1 -->
<!--zoomable 763 -->
<svg id="main" version="1.1" xmlns="http://www.w3.org/2000/svg" xmlns:xlink="http://www.w3.org/1999/xlink" xml:space="preserve" onload="init(evt)">
        <defs>
                <circle id="rim" cx="0" cy="0" r="7"/>
                <circle id="rim2" cx="0" cy="0" r="3.5"/>
                <g id="zoomPlus">
                        <use xlink:href="#rim" fill="#404040">
                                <set attributeName="fill" to="#808080" begin="zoomplus.mouseover" end="zoomplus.mouseout"/>
                        </use>
                        <path d="M-4,0h8M0,-4v8" fill="none" stroke="white" stroke-width="1.5" pointer-events="none"/>
                </g>
                <g id="zoomMin">
                        <use xlink:href="#rim" fill="#404040">
                                <set attributeName="fill" to="#808080" begin="zoomminus.mouseover" end="zoomminus.mouseout"/>
                        </use>
                        <path d="M-4,0h8" fill="none" stroke="white" stroke-width="1.5" pointer-events="none"/>
                </g>
                <g id="dirArrow">
                        <path fill="none" stroke="white" stroke-width="1.5" d="M0,-3.0v7 M-2.5,-0.5L0,-3.0L2.5,-0.5"/>
                </g>
               <g id="resetDef">
                       <use xlink:href="#rim2" fill="#404040">
                               <set attributeName="fill" to="#808080" begin="reset.mouseover" end="reset.mouseout"/>
                       </use>
               </g>
        </defs>

<script type="text/javascript">
var viewWidth = 854;
var viewHeight = 763;
var sectionId = 'dynsection-1';
</script>
<script xlink:href="svgpan.js"/>
<svg id="graph" class="graph">
<g id="viewport">
<title>psi::RTHCEW</title>
<!-- Node1 -->
<g id="node1" class="node"><title>Node1</title>
<polygon fill="#bfbfbf" stroke="black" points="766,-285.5 766,-304.5 846,-304.5 846,-285.5 766,-285.5"/>
<text text-anchor="middle" x="806" y="-292.5" font-family="Helvetica,sans-Serif" font-size="10.00">psi::RTHCEW</text>
</g>
<!-- Node2 -->
<g id="node2" class="node"><title>Node2</title>
<g id="a_node2"><a xlink:href="classpsi_1_1THCEW.html" target="_top" xlink:title="psi::THCEW">
<polygon fill="none" stroke="black" points="654.5,-285.5 654.5,-304.5 727.5,-304.5 727.5,-285.5 654.5,-285.5"/>
<text text-anchor="middle" x="691" y="-292.5" font-family="Helvetica,sans-Serif" font-size="10.00">psi::THCEW</text>
</a>
</g>
</g>
<!-- Node2&#45;&gt;Node1 -->
<g id="edge1" class="edge"><title>Node2&#45;&gt;Node1</title>
<path fill="none" stroke="midnightblue" d="M738.003,-295C747.278,-295 756.944,-295 765.954,-295"/>
<polygon fill="midnightblue" stroke="midnightblue" points="737.754,-291.5 727.754,-295 737.754,-298.5 737.754,-291.5"/>
</g>
<!-- Node3 -->
<g id="node3" class="node"><title>Node3</title>
<g id="a_node3"><a xlink:href="classpsi_1_1Wavefunction.html" target="_top" xlink:title="Simple wavefunction base class.">
<polygon fill="none" stroke="black" points="520.5,-484.5 520.5,-503.5 615.5,-503.5 615.5,-484.5 520.5,-484.5"/>
<text text-anchor="middle" x="568" y="-491.5" font-family="Helvetica,sans-Serif" font-size="10.00">psi::Wavefunction</text>
</a>
</g>
</g>
<!-- Node3&#45;&gt;Node2 -->
<g id="edge2" class="edge"><title>Node3&#45;&gt;Node2</title>
<path fill="none" stroke="midnightblue" d="M580.152,-475.659C605.227,-434.419 665.34,-335.556 684.222,-304.502"/>
<polygon fill="midnightblue" stroke="midnightblue" points="577.041,-474.039 574.836,-484.402 583.022,-477.676 577.041,-474.039"/>
</g>
<!-- Node4 -->
<g id="node4" class="node"><title>Node4</title>
<g id="a_node4"><a xlink:href="classboost_1_1shared__ptr.html" target="_top" xlink:title="boost::shared_ptr\&lt;\l psi::MatrixFactory \&gt;">
<polygon fill="none" stroke="black" points="261.5,-677 261.5,-707 368.5,-707 368.5,-677 261.5,-677"/>
<text text-anchor="start" x="269.5" y="-695" font-family="Helvetica,sans-Serif" font-size="10.00">boost::shared_ptr&lt;</text>
<text text-anchor="middle" x="315" y="-684" font-family="Helvetica,sans-Serif" font-size="10.00"> psi::MatrixFactory &gt;</text>
</a>
</g>
</g>
<!-- Node4&#45;&gt;Node3 -->
<g id="edge3" class="edge"><title>Node4&#45;&gt;Node3</title>
<path fill="none" stroke="#9a32cd" stroke-dasharray="5,2" d="M378.584,-696.855C418.008,-696.592 467.745,-689.745 502,-662 553.278,-620.468 564.184,-533.27 566.434,-503.898"/>
<polygon fill="#9a32cd" stroke="#9a32cd" points="378.565,-693.354 368.54,-696.783 378.515,-700.354 378.565,-693.354"/>
<text text-anchor="middle" x="446" y="-700" font-family="Helvetica,sans-Serif" font-size="10.00"> factory_</text>
</g>
<!-- Node5 -->
<g id="node5" class="node"><title>Node5</title>
<g id="a_node5"><a xlink:href="classboost_1_1shared__ptr.html" target="_top" xlink:title="boost::shared_ptr\&lt; T \&gt;">
<polygon fill="none" stroke="black" points="0,-437.5 0,-456.5 116,-456.5 116,-437.5 0,-437.5"/>
<text text-anchor="middle" x="58" y="-444.5" font-family="Helvetica,sans-Serif" font-size="10.00">boost::shared_ptr&lt; T &gt;</text>
</a>
</g>
</g>
<!-- Node5&#45;&gt;Node4 -->
<g id="edge4" class="edge"><title>Node5&#45;&gt;Node4</title>
<path fill="none" stroke="orange" stroke-dasharray="5,2" d="M59.9844,-466.885C63.1771,-508.579 76.7084,-605.383 134,-655 168.848,-685.18 221.706,-693.078 261.138,-694.233"/>
<polygon fill="orange" stroke="orange" points="63.4624,-466.428 59.3303,-456.672 56.4767,-466.875 63.4624,-466.428"/>
<text text-anchor="middle" x="187" y="-696" font-family="Helvetica,sans-Serif" font-size="10.00"> &lt; psi::MatrixFactory &gt;</text>
</g>
<!-- Node6 -->
<g id="node6" class="node"><title>Node6</title>
<g id="a_node6"><a xlink:href="classboost_1_1shared__ptr.html" target="_top" xlink:title="boost::shared_ptr\&lt;\l psi::Chkpt \&gt;">
<polygon fill="none" stroke="black" points="266,-628 266,-658 364,-658 364,-628 266,-628"/>
<text text-anchor="start" x="274" y="-646" font-family="Helvetica,sans-Serif" font-size="10.00">boost::shared_ptr&lt;</text>
<text text-anchor="middle" x="315" y="-635" font-family="Helvetica,sans-Serif" font-size="10.00"> psi::Chkpt &gt;</text>
</a>
</g>
</g>
<!-- Node5&#45;&gt;Node6 -->
<g id="edge6" class="edge"><title>Node5&#45;&gt;Node6</title>
<path fill="none" stroke="orange" stroke-dasharray="5,2" d="M62.9996,-466.844C70.705,-499.763 90.8138,-565.45 134,-600 171.507,-630.007 226.594,-639.631 265.937,-642.446"/>
<polygon fill="orange" stroke="orange" points="66.3305,-465.693 60.7739,-456.672 59.4923,-467.189 66.3305,-465.693"/>
<text text-anchor="middle" x="187" y="-643" font-family="Helvetica,sans-Serif" font-size="10.00"> &lt; psi::Chkpt &gt;</text>
</g>
<!-- Node7 -->
<g id="node7" class="node"><title>Node7</title>
<g id="a_node7"><a xlink:href="classboost_1_1shared__ptr.html" target="_top" xlink:title="boost::shared_ptr\&lt;\l psi::IntegralFactory \&gt;">
<polygon fill="none" stroke="black" points="258.5,-579 258.5,-609 371.5,-609 371.5,-579 258.5,-579"/>
<text text-anchor="start" x="266.5" y="-597" font-family="Helvetica,sans-Serif" font-size="10.00">boost::shared_ptr&lt;</text>
<text text-anchor="middle" x="315" y="-586" font-family="Helvetica,sans-Serif" font-size="10.00"> psi::IntegralFactory &gt;</text>
</a>
</g>
</g>
<!-- Node5&#45;&gt;Node7 -->
<g id="edge8" class="edge"><title>Node5&#45;&gt;Node7</title>
<path fill="none" stroke="orange" stroke-dasharray="5,2" d="M68.2261,-465.759C80.2557,-488.245 103.422,-525.458 134,-546 171.048,-570.888 220.46,-582.892 258.14,-588.67"/>
<polygon fill="orange" stroke="orange" points="71.187,-463.864 63.4961,-456.577 64.9641,-467.07 71.187,-463.864"/>
<text text-anchor="middle" x="187" y="-588" font-family="Helvetica,sans-Serif" font-size="10.00"> &lt; psi::IntegralFactory &gt;</text>
</g>
<!-- Node9 -->
<g id="node9" class="node"><title>Node9</title>
<g id="a_node9"><a xlink:href="classboost_1_1shared__ptr.html" target="_top" xlink:title="boost::shared_ptr\&lt;\l psi::Wavefunction \&gt;">
<polygon fill="none" stroke="black" points="261.5,-530 261.5,-560 368.5,-560 368.5,-530 261.5,-530"/>
<text text-anchor="start" x="269.5" y="-548" font-family="Helvetica,sans-Serif" font-size="10.00">boost::shared_ptr&lt;</text>
<text text-anchor="middle" x="315" y="-537" font-family="Helvetica,sans-Serif" font-size="10.00"> psi::Wavefunction &gt;</text>
</a>
</g>
</g>
<!-- Node5&#45;&gt;Node9 -->
<g id="edge11" class="edge"><title>Node5&#45;&gt;Node9</title>
<path fill="none" stroke="orange" stroke-dasharray="5,2" d="M79.2168,-463.144C93.7324,-474.049 114.159,-488.037 134,-497 174.969,-515.507 224.515,-528.068 261.246,-535.684"/>
<polygon fill="orange" stroke="orange" points="81.0614,-460.148 71.0007,-456.826 76.7941,-465.697 81.0614,-460.148"/>
<text text-anchor="middle" x="187" y="-534" font-family="Helvetica,sans-Serif" font-size="10.00"> &lt; psi::Wavefunction &gt;</text>
</g>
<!-- Node10 -->
<g id="node10" class="node"><title>Node10</title>
<g id="a_node10"><a xlink:href="classboost_1_1shared__ptr.html" target="_top" xlink:title="boost::shared_ptr\&lt;\l psi::PSIO \&gt;">
<polygon fill="none" stroke="black" points="266,-481 266,-511 364,-511 364,-481 266,-481"/>
<text text-anchor="start" x="274" y="-499" font-family="Helvetica,sans-Serif" font-size="10.00">boost::shared_ptr&lt;</text>
<text text-anchor="middle" x="315" y="-488" font-family="Helvetica,sans-Serif" font-size="10.00"> psi::PSIO &gt;</text>
</a>
</g>
</g>
<!-- Node5&#45;&gt;Node10 -->
<g id="edge13" class="edge"><title>Node5&#45;&gt;Node10</title>
<path fill="none" stroke="orange" stroke-dasharray="5,2" d="M116.233,-458.512C122.23,-459.699 128.238,-460.88 134,-462 178.642,-470.68 229.575,-480.272 265.842,-487.048"/>
<polygon fill="orange" stroke="orange" points="116.685,-455.034 106.195,-456.519 115.321,-461.9 116.685,-455.034"/>
<text text-anchor="middle" x="187" y="-485" font-family="Helvetica,sans-Serif" font-size="10.00"> &lt; psi::PSIO &gt;</text>
</g>
<!-- Node11 -->
<g id="node11" class="node"><title>Node11</title>
<g id="a_node11"><a xlink:href="classboost_1_1shared__ptr.html" target="_top" xlink:title="boost::shared_ptr\&lt;\l psi::SOBasisSet \&gt;">
<polygon fill="none" stroke="black" points="264.5,-432 264.5,-462 365.5,-462 365.5,-432 264.5,-432"/>
<text text-anchor="start" x="272.5" y="-450" font-family="Helvetica,sans-Serif" font-size="10.00">boost::shared_ptr&lt;</text>
<text text-anchor="middle" x="315" y="-439" font-family="Helvetica,sans-Serif" font-size="10.00"> psi::SOBasisSet &gt;</text>
</a>
</g>
</g>
<!-- Node5&#45;&gt;Node11 -->
<g id="edge15" class="edge"><title>Node5&#45;&gt;Node11</title>
<path fill="none" stroke="orange" stroke-dasharray="5,2" d="M126.394,-447C169.686,-447 224.968,-447 264.281,-447"/>
<polygon fill="orange" stroke="orange" points="126.227,-443.5 116.227,-447 126.227,-450.5 126.227,-443.5"/>
<text text-anchor="middle" x="187" y="-450" font-family="Helvetica,sans-Serif" font-size="10.00"> &lt; psi::SOBasisSet &gt;</text>
</g>
<!-- Node13 -->
<g id="node13" class="node"><title>Node13</title>
<g id="a_node13"><a xlink:href="classboost_1_1shared__ptr.html" target="_top" xlink:title="boost::shared_ptr\&lt;\l psi::BasisSet \&gt;">
<polygon fill="none" stroke="black" points="266,-383 266,-413 364,-413 364,-383 266,-383"/>
<text text-anchor="start" x="274" y="-401" font-family="Helvetica,sans-Serif" font-size="10.00">boost::shared_ptr&lt;</text>
<text text-anchor="middle" x="315" y="-390" font-family="Helvetica,sans-Serif" font-size="10.00"> psi::BasisSet &gt;</text>
</a>
</g>
</g>
<!-- Node5&#45;&gt;Node13 -->
<g id="edge18" class="edge"><title>Node5&#45;&gt;Node13</title>
<path fill="none" stroke="orange" stroke-dasharray="5,2" d="M116.233,-435.488C122.23,-434.301 128.238,-433.12 134,-432 178.642,-423.32 229.575,-413.728 265.842,-406.952"/>
<polygon fill="orange" stroke="orange" points="115.321,-432.1 106.195,-437.481 116.685,-438.966 115.321,-432.1"/>
<text text-anchor="middle" x="187" y="-435" font-family="Helvetica,sans-Serif" font-size="10.00"> &lt; psi::BasisSet &gt;</text>
</g>
<!-- Node14 -->
<g id="node14" class="node"><title>Node14</title>
<g id="a_node14"><a xlink:href="classboost_1_1shared__ptr.html" target="_top" xlink:title="boost::shared_ptr\&lt;\l psi::Matrix \&gt;">
<polygon fill="none" stroke="black" points="266,-326 266,-356 364,-356 364,-326 266,-326"/>
<text text-anchor="start" x="274" y="-344" font-family="Helvetica,sans-Serif" font-size="10.00">boost::shared_ptr&lt;</text>
<text text-anchor="middle" x="315" y="-333" font-family="Helvetica,sans-Serif" font-size="10.00"> psi::Matrix &gt;</text>
</a>
</g>
</g>
<!-- Node5&#45;&gt;Node14 -->
<g id="edge20" class="edge"><title>Node5&#45;&gt;Node14</title>
<path fill="none" stroke="orange" stroke-dasharray="5,2" d="M79.6585,-431.294C94.2392,-420.773 114.564,-407.214 134,-398 176.8,-377.709 228.632,-362.164 265.664,-352.472"/>
<polygon fill="orange" stroke="orange" points="77.3607,-428.639 71.3815,-437.385 81.51,-434.277 77.3607,-428.639"/>
<text text-anchor="middle" x="187" y="-401" font-family="Helvetica,sans-Serif" font-size="10.00"> &lt; psi::Matrix &gt;</text>
</g>
<!-- Node15 -->
<g id="node15" class="node"><title>Node15</title>
<g id="a_node15"><a xlink:href="classboost_1_1shared__ptr.html" target="_top" xlink:title="boost::shared_ptr\&lt;\l psi::Molecule \&gt;">
<polygon fill="none" stroke="black" points="266,-277 266,-307 364,-307 364,-277 266,-277"/>
<text text-anchor="start" x="274" y="-295" font-family="Helvetica,sans-Serif" font-size="10.00">boost::shared_ptr&lt;</text>
<text text-anchor="middle" x="315" y="-284" font-family="Helvetica,sans-Serif" font-size="10.00"> psi::Molecule &gt;</text>
</a>
</g>
</g>
<!-- Node5&#45;&gt;Node15 -->
<g id="edge22" class="edge"><title>Node5&#45;&gt;Node15</title>
<path fill="none" stroke="orange" stroke-dasharray="5,2" d="M68.0098,-428.114C79.937,-405.112 103.117,-366.656 134,-345 173.475,-317.318 227.468,-303.93 265.999,-297.559"/>
<polygon fill="orange" stroke="orange" points="64.8058,-426.696 63.4655,-437.205 71.0672,-429.825 64.8058,-426.696"/>
<text text-anchor="middle" x="187" y="-348" font-family="Helvetica,sans-Serif" font-size="10.00"> &lt; psi::Molecule &gt;</text>
</g>
<!-- Node17 -->
<g id="node17" class="node"><title>Node17</title>
<g id="a_node17"><a xlink:href="classboost_1_1shared__ptr.html" target="_top" xlink:title="boost::shared_ptr\&lt;\l psi::Vector \&gt;">
<polygon fill="none" stroke="black" points="266,-213 266,-243 364,-243 364,-213 266,-213"/>
<text text-anchor="start" x="274" y="-231" font-family="Helvetica,sans-Serif" font-size="10.00">boost::shared_ptr&lt;</text>
<text text-anchor="middle" x="315" y="-220" font-family="Helvetica,sans-Serif" font-size="10.00"> psi::Vector &gt;</text>
</a>
</g>
</g>
<!-- Node5&#45;&gt;Node17 -->
<g id="edge25" class="edge"><title>Node5&#45;&gt;Node17</title>
<path fill="none" stroke="orange" stroke-dasharray="5,2" d="M63.0657,-427.391C70.946,-394.208 91.4061,-326.902 134,-289 170.974,-256.099 226.418,-240.811 265.992,-233.792"/>
<polygon fill="orange" stroke="orange" points="59.629,-426.722 60.8618,-437.244 66.4602,-428.25 59.629,-426.722"/>
<text text-anchor="middle" x="187" y="-292" font-family="Helvetica,sans-Serif" font-size="10.00"> &lt; psi::Vector &gt;</text>
</g>
<!-- Node18 -->
<g id="node18" class="node"><title>Node18</title>
<g id="a_node18"><a xlink:href="classboost_1_1shared__ptr.html" target="_top" xlink:title="boost::shared_ptr\&lt;\l psi::THCE \&gt;">
<polygon fill="none" stroke="black" points="397,-0 397,-30 495,-30 495,-0 397,-0"/>
<text text-anchor="start" x="405" y="-18" font-family="Helvetica,sans-Serif" font-size="10.00">boost::shared_ptr&lt;</text>
<text text-anchor="middle" x="446" y="-7" font-family="Helvetica,sans-Serif" font-size="10.00"> psi::THCE &gt;</text>
</a>
</g>
</g>
<!-- Node5&#45;&gt;Node18 -->
<g id="edge27" class="edge"><title>Node5&#45;&gt;Node18</title>
<path fill="none" stroke="orange" stroke-dasharray="5,2" d="M61.2234,-427.423C70.2564,-358.299 111.06,-125.001 258,-35 299.764,-9.41943 356.787,-6.94963 396.849,-9.29007"/>
<polygon fill="orange" stroke="orange" points="57.7448,-427.036 59.9974,-437.388 64.6924,-427.891 57.7448,-427.036"/>
<text text-anchor="middle" x="187" y="-182" font-family="Helvetica,sans-Serif" font-size="10.00"> &lt; psi::THCE &gt;</text>
</g>
<!-- Node6&#45;&gt;Node3 -->
<g id="edge5" class="edge"><title>Node6&#45;&gt;Node3</title>
<path fill="none" stroke="#9a32cd" stroke-dasharray="5,2" d="M374.504,-646.771C413.865,-646.413 465.109,-640.033 502,-614 541.298,-586.269 559.144,-527.062 564.849,-503.735"/>
<polygon fill="#9a32cd" stroke="#9a32cd" points="374.269,-643.271 364.255,-646.733 374.242,-650.271 374.269,-643.271"/>
<text text-anchor="middle" x="446" y="-650" font-family="Helvetica,sans-Serif" font-size="10.00"> chkpt_</text>
</g>
<!-- Node7&#45;&gt;Node3 -->
<g id="edge7" class="edge"><title>Node7&#45;&gt;Node3</title>
<path fill="none" stroke="#9a32cd" stroke-dasharray="5,2" d="M382.011,-598.381C419.298,-598.056 465.583,-592.77 502,-573 531.813,-556.814 553.322,-520.805 562.323,-503.562"/>
<polygon fill="#9a32cd" stroke="#9a32cd" points="381.759,-594.88 371.748,-598.349 381.737,-601.88 381.759,-594.88"/>
<text text-anchor="middle" x="446" y="-602" font-family="Helvetica,sans-Serif" font-size="10.00"> integral_</text>
</g>
<!-- Node8 -->
<g id="node8" class="node"><title>Node8</title>
<g id="a_node8"><a xlink:href="classpsi_1_1Options.html" target="_top" xlink:title="psi::Options">
<polygon fill="none" stroke="black" points="280.5,-155.5 280.5,-174.5 349.5,-174.5 349.5,-155.5 280.5,-155.5"/>
<text text-anchor="middle" x="315" y="-162.5" font-family="Helvetica,sans-Serif" font-size="10.00">psi::Options</text>
</a>
</g>
</g>
<!-- Node8&#45;&gt;Node3 -->
<g id="edge9" class="edge"><title>Node8&#45;&gt;Node3</title>
<path fill="none" stroke="#9a32cd" stroke-dasharray="5,2" d="M353.981,-152.751C395.29,-142.018 460.904,-132.898 502,-167 508.389,-172.302 555.562,-430.902 565.26,-484.384"/>
<polygon fill="#9a32cd" stroke="#9a32cd" points="353.001,-149.39 344.286,-155.415 354.856,-156.14 353.001,-149.39"/>
<text text-anchor="middle" x="446" y="-170" font-family="Helvetica,sans-Serif" font-size="10.00"> options_</text>
</g>
<!-- Node9&#45;&gt;Node3 -->
<g id="edge10" class="edge"><title>Node9&#45;&gt;Node3</title>
<path fill="none" stroke="#9a32cd" stroke-dasharray="5,2" d="M378.988,-555.685C415.854,-559.428 462.727,-559.776 502,-546 526.001,-537.581 547.723,-516.16 558.956,-503.594"/>
<polygon fill="#9a32cd" stroke="#9a32cd" points="379.198,-552.187 368.87,-554.548 378.417,-559.143 379.198,-552.187"/>
<text text-anchor="middle" x="446" y="-561" font-family="Helvetica,sans-Serif" font-size="10.00"> reference_wavefunction_</text>
</g>
<!-- Node10&#45;&gt;Node3 -->
<g id="edge12" class="edge"><title>Node10&#45;&gt;Node3</title>
<path fill="none" stroke="#9a32cd" stroke-dasharray="5,2" d="M359.225,-514.626C369.155,-518.097 379.799,-521.197 390,-523 439.018,-531.663 453.314,-533.368 502,-523 519.525,-519.268 538.05,-510.46 550.821,-503.523"/>
<polygon fill="#9a32cd" stroke="#9a32cd" points="360.168,-511.243 349.575,-511.064 357.745,-517.81 360.168,-511.243"/>
<text text-anchor="middle" x="446" y="-534" font-family="Helvetica,sans-Serif" font-size="10.00"> psio_</text>
</g>
<!-- Node11&#45;&gt;Node3 -->
<g id="edge14" class="edge"><title>Node11&#45;&gt;Node3</title>
<path fill="none" stroke="#9a32cd" stroke-dasharray="5,2" d="M365.419,-466.89C367.686,-468.202 369.892,-469.573 372,-471 381.369,-477.343 379.61,-484.523 390,-489 431.361,-506.82 483.348,-505.882 520.254,-501.819"/>
<polygon fill="#9a32cd" stroke="#9a32cd" points="366.92,-463.724 356.447,-462.121 363.634,-469.905 366.92,-463.724"/>
<text text-anchor="middle" x="446" y="-508" font-family="Helvetica,sans-Serif" font-size="10.00"> sobasisset_</text>
</g>
<!-- Node12 -->
<g id="node12" class="node"><title>Node12</title>
<g id="a_node12"><a xlink:href="classpsi_1_1Dimension.html" target="_top" xlink:title="psi::Dimension">
<polygon fill="none" stroke="black" points="274,-44.5 274,-63.5 356,-63.5 356,-44.5 274,-44.5"/>
<text text-anchor="middle" x="315" y="-51.5" font-family="Helvetica,sans-Serif" font-size="10.00">psi::Dimension</text>
</a>
</g>
</g>
<!-- Node12&#45;&gt;Node3 -->
<g id="edge16" class="edge"><title>Node12&#45;&gt;Node3</title>
<path fill="none" stroke="#9a32cd" stroke-dasharray="5,2" d="M366.266,-46.103C414.517,-39.7833 482.817,-34.5568 502,-52 517.608,-66.1917 517.071,-220.109 520,-241 533.4,-336.563 557.648,-450.978 564.898,-484.399"/>
<polygon fill="#9a32cd" stroke="#9a32cd" points="365.735,-42.6429 356.299,-47.4604 366.68,-49.5789 365.735,-42.6429"/>
<text text-anchor="middle" x="446" y="-132" font-family="Helvetica,sans-Serif" font-size="10.00"> doccpi_</text>
<text text-anchor="middle" x="446" y="-121" font-family="Helvetica,sans-Serif" font-size="10.00">nbetapi_</text>
<text text-anchor="middle" x="446" y="-110" font-family="Helvetica,sans-Serif" font-size="10.00">frzvpi_</text>
<text text-anchor="middle" x="446" y="-99" font-family="Helvetica,sans-Serif" font-size="10.00">frzcpi_</text>
<text text-anchor="middle" x="446" y="-88" font-family="Helvetica,sans-Serif" font-size="10.00">nmopi_</text>
<text text-anchor="middle" x="446" y="-77" font-family="Helvetica,sans-Serif" font-size="10.00">nalphapi_</text>
<text text-anchor="middle" x="446" y="-66" font-family="Helvetica,sans-Serif" font-size="10.00">nsopi_</text>
<text text-anchor="middle" x="446" y="-55" font-family="Helvetica,sans-Serif" font-size="10.00">soccpi_</text>
</g>
<!-- Node13&#45;&gt;Node3 -->
<g id="edge17" class="edge"><title>Node13&#45;&gt;Node3</title>
<path fill="none" stroke="#9a32cd" stroke-dasharray="5,2" d="M367.942,-418.63C369.352,-419.703 370.709,-420.826 372,-422 384.358,-433.242 376.485,-445.179 390,-455 430.97,-484.772 452.663,-464.565 502,-476 512.723,-478.485 524.335,-481.572 534.737,-484.484"/>
<polygon fill="#9a32cd" stroke="#9a32cd" points="369.675,-415.58 359.394,-413.019 365.833,-421.432 369.675,-415.58"/>
<text text-anchor="middle" x="446" y="-479" font-family="Helvetica,sans-Serif" font-size="10.00"> basisset_</text>
</g>
<!-- Node14&#45;&gt;Node3 -->
<g id="edge19" class="edge"><title>Node14&#45;&gt;Node3</title>
<path fill="none" stroke="#9a32cd" stroke-dasharray="5,2" d="M369.049,-323.239C376.028,-321.492 383.138,-319.998 390,-319 439.259,-311.833 461.131,-290.583 502,-319 558.679,-358.41 566.038,-453.388 566.912,-484.182"/>
<polygon fill="#9a32cd" stroke="#9a32cd" points="367.711,-319.975 358.964,-325.953 369.53,-326.734 367.711,-319.975"/>
<text text-anchor="middle" x="446" y="-443" font-family="Helvetica,sans-Serif" font-size="10.00"> Fa_</text>
<text text-anchor="middle" x="446" y="-432" font-family="Helvetica,sans-Serif" font-size="10.00">gradient_</text>
<text text-anchor="middle" x="446" y="-421" font-family="Helvetica,sans-Serif" font-size="10.00">H_</text>
<text text-anchor="middle" x="446" y="-410" font-family="Helvetica,sans-Serif" font-size="10.00">Lagrangian_</text>
<text text-anchor="middle" x="446" y="-399" font-family="Helvetica,sans-Serif" font-size="10.00">S_</text>
<text text-anchor="middle" x="446" y="-388" font-family="Helvetica,sans-Serif" font-size="10.00">AO2SO_</text>
<text text-anchor="middle" x="446" y="-377" font-family="Helvetica,sans-Serif" font-size="10.00">Cb_</text>
<text text-anchor="start" x="411.5" y="-366" font-family="Helvetica,sans-Serif" font-size="10.00">QLMO_to_LMO</text>
<text text-anchor="middle" x="446" y="-355" font-family="Helvetica,sans-Serif" font-size="10.00">_</text>
<text text-anchor="middle" x="446" y="-344" font-family="Helvetica,sans-Serif" font-size="10.00">Db_</text>
<text text-anchor="middle" x="446" y="-333" font-family="Helvetica,sans-Serif" font-size="10.00">Ca_</text>
<text text-anchor="middle" x="446" y="-322" font-family="Helvetica,sans-Serif" font-size="10.00">...</text>
</g>
<!-- Node15&#45;&gt;Node3 -->
<g id="edge21" class="edge"><title>Node15&#45;&gt;Node3</title>
<path fill="none" stroke="#9a32cd" stroke-dasharray="5,2" d="M373.37,-274.729C413.201,-266.426 465.467,-263.298 502,-290 566.821,-337.378 568.531,-450.036 567.483,-484.085"/>
<polygon fill="#9a32cd" stroke="#9a32cd" points="372.521,-271.333 363.529,-276.937 374.053,-278.163 372.521,-271.333"/>
<text text-anchor="middle" x="446" y="-293" font-family="Helvetica,sans-Serif" font-size="10.00"> molecule_</text>
</g>
<!-- Node16 -->
<g id="node16" class="node"><title>Node16</title>
<polygon fill="none" stroke="#bfbfbf" points="294.5,-726.5 294.5,-745.5 335.5,-745.5 335.5,-726.5 294.5,-726.5"/>
<text text-anchor="middle" x="315" y="-733.5" font-family="Helvetica,sans-Serif" font-size="10.00">string</text>
</g>
<!-- Node16&#45;&gt;Node3 -->
<g id="edge23" class="edge"><title>Node16&#45;&gt;Node3</title>
<path fill="none" stroke="#9a32cd" stroke-dasharray="5,2" d="M345.549,-741.204C385.85,-746.508 458.054,-749.367 502,-712 567.289,-656.484 568.597,-538.447 567.48,-503.772"/>
<polygon fill="#9a32cd" stroke="#9a32cd" points="345.951,-737.726 335.552,-739.751 344.944,-744.653 345.951,-737.726"/>
<text text-anchor="middle" x="446" y="-747" font-family="Helvetica,sans-Serif" font-size="10.00"> name_</text>
</g>
<!-- Node17&#45;&gt;Node3 -->
<g id="edge24" class="edge"><title>Node17&#45;&gt;Node3</title>
<path fill="none" stroke="#9a32cd" stroke-dasharray="5,2" d="M350.703,-208.352C391.43,-188.21 458.868,-164.337 502,-199 525.199,-217.644 558.364,-435.174 565.58,-484.219"/>
<polygon fill="#9a32cd" stroke="#9a32cd" points="349.003,-205.29 341.696,-212.961 352.192,-211.521 349.003,-205.29"/>
<text text-anchor="middle" x="446" y="-257" font-family="Helvetica,sans-Serif" font-size="10.00"> frequencies_</text>
<text text-anchor="start" x="399.5" y="-246" font-family="Helvetica,sans-Serif" font-size="10.00">CIM_orbital_energies</text>
<text text-anchor="middle" x="446" y="-235" font-family="Helvetica,sans-Serif" font-size="10.00">_</text>
<text text-anchor="middle" x="446" y="-224" font-family="Helvetica,sans-Serif" font-size="10.00">epsilon_b_</text>
<text text-anchor="middle" x="446" y="-213" font-family="Helvetica,sans-Serif" font-size="10.00">epsilon_a_</text>
<text text-anchor="middle" x="446" y="-202" font-family="Helvetica,sans-Serif" font-size="10.00">CIM_orbital_factors_</text>
</g>
<!-- Node18&#45;&gt;Node2 -->
<g id="edge26" class="edge"><title>Node18&#45;&gt;Node2</title>
<path fill="none" stroke="#9a32cd" stroke-dasharray="5,2" d="M499.768,-35.3395C500.527,-35.8805 501.272,-36.4339 502,-37 598.044,-111.663 667.6,-247.965 685.482,-285.315"/>
<polygon fill="#9a32cd" stroke="#9a32cd" points="501.519,-32.3069 491.176,-30.0119 497.83,-38.2562 501.519,-32.3069"/>
<text text-anchor="middle" x="568" y="-164" font-family="Helvetica,sans-Serif" font-size="10.00"> thce_</text>
</g>
</g>
</svg>
        <g id="navigator" transform="translate(0 0)" fill="#404254">
                <rect fill="#f2f5e9" fill-opacity="0.5" stroke="#606060" stroke-width=".5" x="0" y="0" width="60" height="60"/>
                <use id="zoomplus" xlink:href="#zoomPlus" x="17" y="9" onmousedown="handleZoom(evt,'in')"/>
                <use id="zoomminus" xlink:href="#zoomMin" x="42" y="9" onmousedown="handleZoom(evt,'out')"/>
                <use id="reset" xlink:href="#resetDef" x="30" y="36" onmousedown="handleReset()"/>
                <g id="arrowUp" xlink:href="#dirArrow" transform="translate(30 24)" onmousedown="handlePan(0,-1)">
                  <use xlink:href="#rim" fill="#404040">
                        <set attributeName="fill" to="#808080" begin="arrowUp.mouseover" end="arrowUp.mouseout"/>
                  </use>
                  <path fill="none" stroke="white" stroke-width="1.5" d="M0,-3.0v7 M-2.5,-0.5L0,-3.0L2.5,-0.5"/>
                </g>
                <g id="arrowRight" xlink:href="#dirArrow" transform="rotate(90) translate(36 -43)" onmousedown="handlePan(1,0)">
                  <use xlink:href="#rim" fill="#404040">
                        <set attributeName="fill" to="#808080" begin="arrowRight.mouseover" end="arrowRight.mouseout"/>
                  </use>
                  <path fill="none" stroke="white" stroke-width="1.5" d="M0,-3.0v7 M-2.5,-0.5L0,-3.0L2.5,-0.5"/>
                </g>
                <g id="arrowDown" xlink:href="#dirArrow" transform="rotate(180) translate(-30 -48)" onmousedown="handlePan(0,1)">
                  <use xlink:href="#rim" fill="#404040">
                        <set attributeName="fill" to="#808080" begin="arrowDown.mouseover" end="arrowDown.mouseout"/>
                  </use>
                  <path fill="none" stroke="white" stroke-width="1.5" d="M0,-3.0v7 M-2.5,-0.5L0,-3.0L2.5,-0.5"/>
                </g>
                <g id="arrowLeft" xlink:href="#dirArrow" transform="rotate(270) translate(-36 17)" onmousedown="handlePan(-1,0)">
                  <use xlink:href="#rim" fill="#404040">
                        <set attributeName="fill" to="#808080" begin="arrowLeft.mouseover" end="arrowLeft.mouseout"/>
                  </use>
                  <path fill="none" stroke="white" stroke-width="1.5" d="M0,-3.0v7 M-2.5,-0.5L0,-3.0L2.5,-0.5"/>
                </g>
        </g>
        <svg viewBox="0 0 15 15" width="100%" height="30px" preserveAspectRatio="xMaxYMin meet">
         <g id="arrow_out" transform="scale(0.3 0.3)">
          <a xlink:href="classpsi_1_1RTHCEW__coll__graph_org.svg" target="_base">
           <rect id="button" ry="5" rx="5" y="6" x="6" height="38" width="38"
                fill="#f2f5e9" fill-opacity="0.5" stroke="#606060" stroke-width="1.0"/>
           <path id="arrow"
             d="M 11.500037,31.436501 C 11.940474,20.09759 22.043105,11.32322 32.158766,21.979434 L 37.068811,17.246167 C 37.068811,17.246167 37.088388,32 37.088388,32 L 22.160133,31.978069 C 22.160133,31.978069 26.997745,27.140456 26.997745,27.140456 C 18.528582,18.264221 13.291696,25.230495 11.500037,31.436501 z"
             style="fill:#404040;"/>
          </a>
         </g>
        </svg>
</svg>
