<?xml version="1.0" encoding="UTF-8" standalone="no"?>
<!DOCTYPE svg PUBLIC "-//W3C//DTD SVG 1.1//EN"
 "http://www.w3.org/Graphics/SVG/1.1/DTD/svg11.dtd">
<!-- Generated by graphviz version 2.30.1 (20140110.0959)
 -->
<!-- Title: psi::Matrix::schmidt_add_row Pages: 1 -->
<svg width="438pt" height="91pt"
 viewBox="0.00 0.00 438.00 90.92" xmlns="http://www.w3.org/2000/svg" xmlns:xlink="http://www.w3.org/1999/xlink">
<g id="graph0" class="graph" transform="scale(1 1) rotate(0) translate(4 86.9173)">
<title>psi::Matrix::schmidt_add_row</title>
<!-- Node1 -->
<g id="node1" class="node"><title>Node1</title>
<polygon fill="#bfbfbf" stroke="black" points="0.5,-39 0.5,-69 103.5,-69 103.5,-39 0.5,-39"/>
<text text-anchor="start" x="8.5" y="-57" font-family="Helvetica,sans-Serif" font-size="10.00">psi::Matrix::schmidt</text>
<text text-anchor="middle" x="52" y="-46" font-family="Helvetica,sans-Serif" font-size="10.00">_add_row</text>
</g>
<!-- Node2 -->
<g id="node2" class="node"><title>Node2</title>
<g id="a_node2"><a xlink:href="classpsi_1_1CdSalcList.html#aed8a22fad364fc33f6a0ecd107c0b05c" target="_top" xlink:title="psi::CdSalcList::CdSalcList">
<polygon fill="none" stroke="black" points="292.5,-44.5 292.5,-63.5 429.5,-63.5 429.5,-44.5 292.5,-44.5"/>
<text text-anchor="middle" x="361" y="-51.5" font-family="Helvetica,sans-Serif" font-size="10.00">psi::CdSalcList::CdSalcList</text>
</a>
</g>
</g>
<!-- Node1&#45;&gt;Node2 -->
<g id="edge1" class="edge"><title>Node1&#45;&gt;Node2</title>
<path fill="none" stroke="midnightblue" d="M108.377,-71.6625C118.782,-74.2978 129.646,-76.598 140,-78 191.089,-84.9176 204.776,-83.8338 256,-78 280.119,-75.2532 306.786,-69.033 327.079,-63.6135"/>
<polygon fill="midnightblue" stroke="midnightblue" points="109.138,-68.2431 98.5738,-69.0516 107.336,-75.0073 109.138,-68.2431"/>
</g>
<!-- Node3 -->
<g id="node3" class="node"><title>Node3</title>
<g id="a_node3"><a xlink:href="classpsi_1_1Matrix.html#a19fc47cc996e9b6a6aea41459982a1fd" target="_top" xlink:title="psi::Matrix::add_and\l_orthogonalize_row">
<polygon fill="none" stroke="black" points="145.5,-39 145.5,-69 250.5,-69 250.5,-39 145.5,-39"/>
<text text-anchor="start" x="153.5" y="-57" font-family="Helvetica,sans-Serif" font-size="10.00">psi::Matrix::add_and</text>
<text text-anchor="middle" x="198" y="-46" font-family="Helvetica,sans-Serif" font-size="10.00">_orthogonalize_row</text>
</a>
</g>
</g>
<!-- Node1&#45;&gt;Node3 -->
<g id="edge2" class="edge"><title>Node1&#45;&gt;Node3</title>
<path fill="none" stroke="midnightblue" d="M114.02,-54C124.409,-54 135.11,-54 145.23,-54"/>
<polygon fill="midnightblue" stroke="midnightblue" points="113.769,-50.5001 103.769,-54 113.769,-57.5001 113.769,-50.5001"/>
</g>
<!-- Node4 -->
<g id="node4" class="node"><title>Node4</title>
<g id="a_node4"><a xlink:href="classpsi_1_1Matrix.html#a17926566a4eea3db5e6ea9dfd8ddee44" target="_top" xlink:title="psi::Matrix::project_out">
<polygon fill="none" stroke="black" points="140,-0.5 140,-19.5 256,-19.5 256,-0.5 140,-0.5"/>
<text text-anchor="middle" x="198" y="-7.5" font-family="Helvetica,sans-Serif" font-size="10.00">psi::Matrix::project_out</text>
</a>
</g>
</g>
<!-- Node1&#45;&gt;Node4 -->
<g id="edge3" class="edge"><title>Node1&#45;&gt;Node4</title>
<path fill="none" stroke="midnightblue" d="M111.934,-35.9925C130.338,-30.3689 149.921,-24.3852 165.653,-19.5783"/>
<polygon fill="midnightblue" stroke="midnightblue" points="110.695,-32.7113 102.154,-38.9808 112.74,-39.4057 110.695,-32.7113"/>
</g>
<!-- Node4&#45;&gt;Node2 -->
<g id="edge4" class="edge"><title>Node4&#45;&gt;Node2</title>
<path fill="none" stroke="midnightblue" d="M243.816,-22.2478C269.52,-29.2724 301.308,-37.96 325.134,-44.4713"/>
<polygon fill="midnightblue" stroke="midnightblue" points="244.504,-18.8075 233.935,-19.5473 242.658,-25.5599 244.504,-18.8075"/>
</g>
</g>
</svg>
