<?xml version="1.0" encoding="UTF-8" standalone="no"?>
<!DOCTYPE svg PUBLIC "-//W3C//DTD SVG 1.1//EN"
 "http://www.w3.org/Graphics/SVG/1.1/DTD/svg11.dtd">
<!-- Generated by graphviz version 2.30.1 (20140110.0959)
 -->
<!-- Title: yeti::Cachable Pages: 1 -->
<svg width="261pt" height="320pt"
 viewBox="0.00 0.00 261.00 320.00" xmlns="http://www.w3.org/2000/svg" xmlns:xlink="http://www.w3.org/1999/xlink">
<g id="graph0" class="graph" transform="scale(1 1) rotate(0) translate(4 316)">
<title>yeti::Cachable</title>
<!-- Node1 -->
<g id="node1" class="node"><title>Node1</title>
<polygon fill="#bfbfbf" stroke="black" points="79,-112.5 79,-131.5 159,-131.5 159,-112.5 79,-112.5"/>
<text text-anchor="middle" x="119" y="-119.5" font-family="Helvetica,sans-Serif" font-size="10.00">yeti::Cachable</text>
</g>
<!-- Node6 -->
<g id="node6" class="node"><title>Node6</title>
<g id="a_node6"><a xlink:href="classyeti_1_1DataStorageBlockAllocator.html" target="_top" xlink:title="yeti::DataStorageBlockAllocator">
<polygon fill="none" stroke="black" points="41,-56.5 41,-75.5 197,-75.5 197,-56.5 41,-56.5"/>
<text text-anchor="middle" x="119" y="-63.5" font-family="Helvetica,sans-Serif" font-size="10.00">yeti::DataStorageBlockAllocator</text>
</a>
</g>
</g>
<!-- Node1&#45;&gt;Node6 -->
<g id="edge5" class="edge"><title>Node1&#45;&gt;Node6</title>
<path fill="none" stroke="midnightblue" d="M119,-101.805C119,-92.9102 119,-82.7798 119,-75.7511"/>
<polygon fill="midnightblue" stroke="midnightblue" points="115.5,-102.083 119,-112.083 122.5,-102.083 115.5,-102.083"/>
</g>
<!-- Node2 -->
<g id="node2" class="node"><title>Node2</title>
<g id="a_node2"><a xlink:href="classyeti_1_1YetiRuntimeCountable.html" target="_top" xlink:title="yeti::YetiRuntimeCountable">
<polygon fill="none" stroke="black" points="50.5,-168.5 50.5,-187.5 187.5,-187.5 187.5,-168.5 50.5,-168.5"/>
<text text-anchor="middle" x="119" y="-175.5" font-family="Helvetica,sans-Serif" font-size="10.00">yeti::YetiRuntimeCountable</text>
</a>
</g>
</g>
<!-- Node2&#45;&gt;Node1 -->
<g id="edge1" class="edge"><title>Node2&#45;&gt;Node1</title>
<path fill="none" stroke="midnightblue" d="M119,-157.805C119,-148.91 119,-138.78 119,-131.751"/>
<polygon fill="midnightblue" stroke="midnightblue" points="115.5,-158.083 119,-168.083 122.5,-158.083 115.5,-158.083"/>
</g>
<!-- Node3 -->
<g id="node3" class="node"><title>Node3</title>
<g id="a_node3"><a xlink:href="classsmartptr_1_1Countable.html" target="_top" xlink:title="smartptr::Countable">
<polygon fill="none" stroke="black" points="-0.5,-230.5 -0.5,-249.5 102.5,-249.5 102.5,-230.5 -0.5,-230.5"/>
<text text-anchor="middle" x="51" y="-237.5" font-family="Helvetica,sans-Serif" font-size="10.00">smartptr::Countable</text>
</a>
</g>
</g>
<!-- Node3&#45;&gt;Node2 -->
<g id="edge2" class="edge"><title>Node3&#45;&gt;Node2</title>
<path fill="none" stroke="midnightblue" d="M68.5433,-223.521C81.5076,-212.082 98.6788,-196.93 109.275,-187.581"/>
<polygon fill="midnightblue" stroke="midnightblue" points="65.9255,-221.163 60.7427,-230.403 70.5568,-226.412 65.9255,-221.163"/>
</g>
<!-- Node4 -->
<g id="node4" class="node"><title>Node4</title>
<g id="a_node4"><a xlink:href="classyeti_1_1YetiThreadedRuntimeObject.html" target="_top" xlink:title="yeti::YetiThreadedRuntime\lObject">
<polygon fill="none" stroke="black" points="120.5,-225 120.5,-255 253.5,-255 253.5,-225 120.5,-225"/>
<text text-anchor="start" x="128.5" y="-243" font-family="Helvetica,sans-Serif" font-size="10.00">yeti::YetiThreadedRuntime</text>
<text text-anchor="middle" x="187" y="-232" font-family="Helvetica,sans-Serif" font-size="10.00">Object</text>
</a>
</g>
</g>
<!-- Node4&#45;&gt;Node2 -->
<g id="edge3" class="edge"><title>Node4&#45;&gt;Node2</title>
<path fill="none" stroke="midnightblue" d="M163.111,-217.922C151.36,-207.553 137.837,-195.621 128.895,-187.731"/>
<polygon fill="midnightblue" stroke="midnightblue" points="161.071,-220.789 170.885,-224.781 165.702,-215.54 161.071,-220.789"/>
</g>
<!-- Node5 -->
<g id="node5" class="node"><title>Node5</title>
<g id="a_node5"><a xlink:href="classyeti_1_1YetiRuntimeObject.html" target="_top" xlink:title="yeti::YetiRuntimeObject">
<polygon fill="none" stroke="black" points="126.5,-292.5 126.5,-311.5 247.5,-311.5 247.5,-292.5 126.5,-292.5"/>
<text text-anchor="middle" x="187" y="-299.5" font-family="Helvetica,sans-Serif" font-size="10.00">yeti::YetiRuntimeObject</text>
</a>
</g>
</g>
<!-- Node5&#45;&gt;Node4 -->
<g id="edge4" class="edge"><title>Node5&#45;&gt;Node4</title>
<path fill="none" stroke="midnightblue" d="M187,-282.371C187,-273.585 187,-263.272 187,-255.141"/>
<polygon fill="midnightblue" stroke="midnightblue" points="183.5,-282.403 187,-292.403 190.5,-282.403 183.5,-282.403"/>
</g>
<!-- Node7 -->
<g id="node7" class="node"><title>Node7</title>
<g id="a_node7"><a xlink:href="classyeti_1_1TensorBlock.html" target="_top" xlink:title="yeti::TensorBlock">
<polygon fill="none" stroke="black" points="72.5,-0.5 72.5,-19.5 165.5,-19.5 165.5,-0.5 72.5,-0.5"/>
<text text-anchor="middle" x="119" y="-7.5" font-family="Helvetica,sans-Serif" font-size="10.00">yeti::TensorBlock</text>
</a>
</g>
</g>
<!-- Node6&#45;&gt;Node7 -->
<g id="edge6" class="edge"><title>Node6&#45;&gt;Node7</title>
<path fill="none" stroke="midnightblue" d="M119,-45.8045C119,-36.9102 119,-26.7798 119,-19.7511"/>
<polygon fill="midnightblue" stroke="midnightblue" points="115.5,-46.083 119,-56.083 122.5,-46.083 115.5,-46.083"/>
</g>
</g>
</svg>
