<?xml version="1.0" encoding="UTF-8" standalone="no"?>
<!DOCTYPE svg PUBLIC "-//W3C//DTD SVG 1.1//EN"
 "http://www.w3.org/Graphics/SVG/1.1/DTD/svg11.dtd">
<!-- Generated by graphviz version 2.30.1 (20140110.0959)
 -->
<!-- Title: psi::psimrcc::MkUpdater Pages: 1 -->
<svg width="132pt" height="154pt"
 viewBox="0.00 0.00 132.00 154.00" xmlns="http://www.w3.org/2000/svg" xmlns:xlink="http://www.w3.org/1999/xlink">
<g id="graph0" class="graph" transform="scale(1 1) rotate(0) translate(4 150)">
<title>psi::psimrcc::MkUpdater</title>
<!-- Node1 -->
<g id="node1" class="node"><title>Node1</title>
<polygon fill="#bfbfbf" stroke="black" points="0,-0.5 0,-19.5 124,-19.5 124,-0.5 0,-0.5"/>
<text text-anchor="middle" x="62" y="-7.5" font-family="Helvetica,sans-Serif" font-size="10.00">psi::psimrcc::MkUpdater</text>
</g>
<!-- Node2 -->
<g id="node2" class="node"><title>Node2</title>
<g id="a_node2"><a xlink:href="classpsi_1_1psimrcc_1_1Updater.html" target="_top" xlink:title="Containts the procedure for updating the amplitudes.">
<polygon fill="none" stroke="black" points="7,-58.5 7,-77.5 117,-77.5 117,-58.5 7,-58.5"/>
<text text-anchor="middle" x="62" y="-65.5" font-family="Helvetica,sans-Serif" font-size="10.00">psi::psimrcc::Updater</text>
</a>
</g>
</g>
<!-- Node2&#45;&gt;Node1 -->
<g id="edge1" class="edge"><title>Node2&#45;&gt;Node1</title>
<path fill="none" stroke="midnightblue" d="M62,-47.953C62,-38.2875 62,-27.0312 62,-19.5052"/>
<polygon fill="midnightblue" stroke="midnightblue" points="58.5001,-48.25 62,-58.25 65.5001,-48.25 58.5001,-48.25"/>
</g>
<!-- Node3 -->
<g id="node3" class="node"><title>Node3</title>
<g id="a_node3"><a xlink:href="classpsi_1_1Options.html" target="_top" xlink:title="psi::Options">
<polygon fill="none" stroke="black" points="27.5,-126.5 27.5,-145.5 96.5,-145.5 96.5,-126.5 27.5,-126.5"/>
<text text-anchor="middle" x="62" y="-133.5" font-family="Helvetica,sans-Serif" font-size="10.00">psi::Options</text>
</a>
</g>
</g>
<!-- Node3&#45;&gt;Node2 -->
<g id="edge2" class="edge"><title>Node3&#45;&gt;Node2</title>
<path fill="none" stroke="#9a32cd" stroke-dasharray="5,2" d="M62,-116.041C62,-103.472 62,-87.5631 62,-77.8411"/>
<polygon fill="#9a32cd" stroke="#9a32cd" points="58.5001,-116.372 62,-126.372 65.5001,-116.372 58.5001,-116.372"/>
<text text-anchor="middle" x="82" y="-99.5" font-family="Helvetica,sans-Serif" font-size="10.00"> options_</text>
</g>
</g>
</svg>
