<?xml version="1.0" encoding="UTF-8" standalone="no"?>
<!DOCTYPE svg PUBLIC "-//W3C//DTD SVG 1.1//EN"
 "http://www.w3.org/Graphics/SVG/1.1/DTD/svg11.dtd">
<!-- Generated by graphviz version 2.30.1 (20140110.0959)
 -->
<!-- Title: psi::FT97_CFunctional Pages: 1 -->
<svg width="124pt" height="176pt"
 viewBox="0.00 0.00 124.00 176.00" xmlns="http://www.w3.org/2000/svg" xmlns:xlink="http://www.w3.org/1999/xlink">
<g id="graph0" class="graph" transform="scale(1 1) rotate(0) translate(4 172)">
<title>psi::FT97_CFunctional</title>
<!-- Node1 -->
<g id="node1" class="node"><title>Node1</title>
<polygon fill="#bfbfbf" stroke="black" points="0,-0.5 0,-19.5 116,-19.5 116,-0.5 0,-0.5"/>
<text text-anchor="middle" x="58" y="-7.5" font-family="Helvetica,sans-Serif" font-size="10.00">psi::FT97_CFunctional</text>
</g>
<!-- Node2 -->
<g id="node2" class="node"><title>Node2</title>
<g id="a_node2"><a xlink:href="classpsi_1_1Functional.html" target="_top" xlink:title="psi::Functional">
<polygon fill="none" stroke="black" points="18,-58.5 18,-77.5 98,-77.5 98,-58.5 18,-58.5"/>
<text text-anchor="middle" x="58" y="-65.5" font-family="Helvetica,sans-Serif" font-size="10.00">psi::Functional</text>
</a>
</g>
</g>
<!-- Node2&#45;&gt;Node1 -->
<g id="edge1" class="edge"><title>Node2&#45;&gt;Node1</title>
<path fill="none" stroke="midnightblue" d="M58,-47.953C58,-38.2875 58,-27.0312 58,-19.5052"/>
<polygon fill="midnightblue" stroke="midnightblue" points="54.5001,-48.25 58,-58.25 61.5001,-48.25 54.5001,-48.25"/>
</g>
<!-- Node3 -->
<g id="node3" class="node"><title>Node3</title>
<polygon fill="none" stroke="#bfbfbf" points="37.5,-148.5 37.5,-167.5 78.5,-167.5 78.5,-148.5 37.5,-148.5"/>
<text text-anchor="middle" x="58" y="-155.5" font-family="Helvetica,sans-Serif" font-size="10.00">string</text>
</g>
<!-- Node3&#45;&gt;Node2 -->
<g id="edge2" class="edge"><title>Node3&#45;&gt;Node2</title>
<path fill="none" stroke="#9a32cd" stroke-dasharray="5,2" d="M58,-137.978C58,-119.31 58,-91.6696 58,-77.7241"/>
<polygon fill="#9a32cd" stroke="#9a32cd" points="54.5001,-138.24 58,-148.241 61.5001,-138.241 54.5001,-138.24"/>
<text text-anchor="middle" x="84.5" y="-121.5" font-family="Helvetica,sans-Serif" font-size="10.00"> citation_</text>
<text text-anchor="middle" x="84.5" y="-110.5" font-family="Helvetica,sans-Serif" font-size="10.00">description_</text>
<text text-anchor="middle" x="84.5" y="-99.5" font-family="Helvetica,sans-Serif" font-size="10.00">name_</text>
</g>
</g>
</svg>
