<?xml version="1.0" encoding="UTF-8" standalone="no"?>
<!DOCTYPE svg PUBLIC "-//W3C//DTD SVG 1.1//EN"
 "http://www.w3.org/Graphics/SVG/1.1/DTD/svg11.dtd">
<!-- Generated by graphviz version 2.30.1 (20140110.0959)
 -->
<!-- Title: yeti::Tensor Pages: 1 -->
<svg width="397pt" height="224pt"
 viewBox="0.00 0.00 397.00 224.00" xmlns="http://www.w3.org/2000/svg" xmlns:xlink="http://www.w3.org/1999/xlink">
<g id="graph0" class="graph" transform="scale(1 1) rotate(0) translate(4 220)">
<title>yeti::Tensor</title>
<!-- Node1 -->
<g id="node1" class="node"><title>Node1</title>
<polygon fill="#bfbfbf" stroke="black" points="109,-0.5 109,-19.5 177,-19.5 177,-0.5 109,-0.5"/>
<text text-anchor="middle" x="143" y="-7.5" font-family="Helvetica,sans-Serif" font-size="10.00">yeti::Tensor</text>
</g>
<!-- Node2 -->
<g id="node2" class="node"><title>Node2</title>
<g id="a_node2"><a xlink:href="classyeti_1_1Malloc.html" target="_top" xlink:title="yeti::Malloc\&lt; Tensor \&gt;">
<polygon fill="none" stroke="black" points="-0.5,-58.5 -0.5,-77.5 114.5,-77.5 114.5,-58.5 -0.5,-58.5"/>
<text text-anchor="middle" x="57" y="-65.5" font-family="Helvetica,sans-Serif" font-size="10.00">yeti::Malloc&lt; Tensor &gt;</text>
</a>
</g>
</g>
<!-- Node2&#45;&gt;Node1 -->
<g id="edge1" class="edge"><title>Node2&#45;&gt;Node1</title>
<path fill="none" stroke="midnightblue" d="M78.8234,-52.7894C94.9061,-42.317 116.256,-28.4147 129.816,-19.5852"/>
<polygon fill="midnightblue" stroke="midnightblue" points="76.5317,-50.105 70.0615,-58.4948 80.3514,-55.971 76.5317,-50.105"/>
</g>
<!-- Node3 -->
<g id="node3" class="node"><title>Node3</title>
<g id="a_node3"><a xlink:href="classyeti_1_1Malloc.html" target="_top" xlink:title="yeti::Malloc\&lt; T \&gt;">
<polygon fill="none" stroke="black" points="11.5,-132.5 11.5,-151.5 102.5,-151.5 102.5,-132.5 11.5,-132.5"/>
<text text-anchor="middle" x="57" y="-139.5" font-family="Helvetica,sans-Serif" font-size="10.00">yeti::Malloc&lt; T &gt;</text>
</a>
</g>
</g>
<!-- Node3&#45;&gt;Node2 -->
<g id="edge2" class="edge"><title>Node3&#45;&gt;Node2</title>
<path fill="none" stroke="orange" stroke-dasharray="5,2" d="M57,-122.156C57,-107.712 57,-88.4594 57,-77.531"/>
<polygon fill="orange" stroke="orange" points="53.5001,-122.458 57,-132.458 60.5001,-122.458 53.5001,-122.458"/>
<text text-anchor="middle" x="83" y="-99.5" font-family="Helvetica,sans-Serif" font-size="10.00"> &lt; Tensor &gt;</text>
</g>
<!-- Node4 -->
<g id="node4" class="node"><title>Node4</title>
<g id="a_node4"><a xlink:href="classyeti_1_1YetiRuntimeCountable.html" target="_top" xlink:title="yeti::YetiRuntimeCountable">
<polygon fill="none" stroke="black" points="132.5,-58.5 132.5,-77.5 269.5,-77.5 269.5,-58.5 132.5,-58.5"/>
<text text-anchor="middle" x="201" y="-65.5" font-family="Helvetica,sans-Serif" font-size="10.00">yeti::YetiRuntimeCountable</text>
</a>
</g>
</g>
<!-- Node4&#45;&gt;Node1 -->
<g id="edge3" class="edge"><title>Node4&#45;&gt;Node1</title>
<path fill="none" stroke="midnightblue" d="M184.472,-51.0416C173.842,-40.7786 160.451,-27.8492 151.809,-19.5052"/>
<polygon fill="midnightblue" stroke="midnightblue" points="182.312,-53.8219 191.938,-58.25 187.175,-48.7861 182.312,-53.8219"/>
</g>
<!-- Node5 -->
<g id="node5" class="node"><title>Node5</title>
<g id="a_node5"><a xlink:href="classsmartptr_1_1Countable.html" target="_top" xlink:title="smartptr::Countable">
<polygon fill="none" stroke="black" points="135.5,-132.5 135.5,-151.5 238.5,-151.5 238.5,-132.5 135.5,-132.5"/>
<text text-anchor="middle" x="187" y="-139.5" font-family="Helvetica,sans-Serif" font-size="10.00">smartptr::Countable</text>
</a>
</g>
</g>
<!-- Node5&#45;&gt;Node4 -->
<g id="edge4" class="edge"><title>Node5&#45;&gt;Node4</title>
<path fill="none" stroke="midnightblue" d="M190.581,-122.584C193.398,-108.094 197.195,-88.5676 199.341,-77.531"/>
<polygon fill="midnightblue" stroke="midnightblue" points="187.134,-121.974 188.661,-132.458 194.005,-123.31 187.134,-121.974"/>
</g>
<!-- Node6 -->
<g id="node6" class="node"><title>Node6</title>
<g id="a_node6"><a xlink:href="classyeti_1_1YetiThreadedRuntimeObject.html" target="_top" xlink:title="yeti::YetiThreadedRuntime\lObject">
<polygon fill="none" stroke="black" points="256.5,-127 256.5,-157 389.5,-157 389.5,-127 256.5,-127"/>
<text text-anchor="start" x="264.5" y="-145" font-family="Helvetica,sans-Serif" font-size="10.00">yeti::YetiThreadedRuntime</text>
<text text-anchor="middle" x="323" y="-134" font-family="Helvetica,sans-Serif" font-size="10.00">Object</text>
</a>
</g>
</g>
<!-- Node6&#45;&gt;Node4 -->
<g id="edge5" class="edge"><title>Node6&#45;&gt;Node4</title>
<path fill="none" stroke="midnightblue" d="M290.284,-121.692C265.951,-107.332 233.906,-88.4201 215.567,-77.5972"/>
<polygon fill="midnightblue" stroke="midnightblue" points="288.797,-124.878 299.188,-126.947 292.354,-118.85 288.797,-124.878"/>
</g>
<!-- Node7 -->
<g id="node7" class="node"><title>Node7</title>
<g id="a_node7"><a xlink:href="classyeti_1_1YetiRuntimeObject.html" target="_top" xlink:title="yeti::YetiRuntimeObject">
<polygon fill="none" stroke="black" points="262.5,-196.5 262.5,-215.5 383.5,-215.5 383.5,-196.5 262.5,-196.5"/>
<text text-anchor="middle" x="323" y="-203.5" font-family="Helvetica,sans-Serif" font-size="10.00">yeti::YetiRuntimeObject</text>
</a>
</g>
</g>
<!-- Node7&#45;&gt;Node6 -->
<g id="edge6" class="edge"><title>Node7&#45;&gt;Node6</title>
<path fill="none" stroke="midnightblue" d="M323,-186.183C323,-176.886 323,-165.851 323,-157.263"/>
<polygon fill="midnightblue" stroke="midnightblue" points="319.5,-186.379 323,-196.379 326.5,-186.379 319.5,-186.379"/>
</g>
</g>
</svg>
