<?xml version="1.0" encoding="UTF-8" standalone="no"?>
<!DOCTYPE svg PUBLIC "-//W3C//DTD SVG 1.1//EN"
 "http://www.w3.org/Graphics/SVG/1.1/DTD/svg11.dtd">
<!-- Generated by graphviz version 2.30.1 (20140110.0959)
 -->
<!-- Title: psi::Matrix::back_transform Pages: 1 -->
<svg width="426pt" height="142pt"
 viewBox="0.00 0.00 426.00 142.00" xmlns="http://www.w3.org/2000/svg" xmlns:xlink="http://www.w3.org/1999/xlink">
<g id="graph0" class="graph" transform="scale(1 1) rotate(0) translate(4 138)">
<title>psi::Matrix::back_transform</title>
<!-- Node1 -->
<g id="node1" class="node"><title>Node1</title>
<polygon fill="#bfbfbf" stroke="black" points="0,-57.5 0,-76.5 136,-76.5 136,-57.5 0,-57.5"/>
<text text-anchor="middle" x="68" y="-64.5" font-family="Helvetica,sans-Serif" font-size="10.00">psi::Matrix::back_transform</text>
</g>
<!-- Node2 -->
<g id="node2" class="node"><title>Node2</title>
<g id="a_node2"><a xlink:href="classpsi_1_1Matrix.html#ab375f9e8a5d1c9b4c08667c728ff04d2" target="_top" xlink:title="Returns the rows per irrep array.">
<polygon fill="none" stroke="black" points="172.5,-114.5 172.5,-133.5 269.5,-133.5 269.5,-114.5 172.5,-114.5"/>
<text text-anchor="middle" x="221" y="-121.5" font-family="Helvetica,sans-Serif" font-size="10.00">psi::Matrix::rowspi</text>
</a>
</g>
</g>
<!-- Node1&#45;&gt;Node2 -->
<g id="edge1" class="edge"><title>Node1&#45;&gt;Node2</title>
<path fill="none" stroke="midnightblue" d="M94.274,-76.5405C119.099,-85.9116 157.183,-100.288 184.932,-110.762"/>
<polygon fill="midnightblue" stroke="midnightblue" points="184.052,-114.171 194.644,-114.428 186.524,-107.622 184.052,-114.171"/>
</g>
<!-- Node3 -->
<g id="node3" class="node"><title>Node3</title>
<g id="a_node3"><a xlink:href="classpsi_1_1Matrix.html#a3286e581ac7248f58ae3de82cd29cc6d" target="_top" xlink:title="Returns the columns per irrep array.">
<polygon fill="none" stroke="black" points="174,-76.5 174,-95.5 268,-95.5 268,-76.5 174,-76.5"/>
<text text-anchor="middle" x="221" y="-83.5" font-family="Helvetica,sans-Serif" font-size="10.00">psi::Matrix::colspi</text>
</a>
</g>
</g>
<!-- Node1&#45;&gt;Node3 -->
<g id="edge2" class="edge"><title>Node1&#45;&gt;Node3</title>
<path fill="none" stroke="midnightblue" d="M136.11,-75.4443C145.381,-76.6109 154.823,-77.7989 163.867,-78.937"/>
<polygon fill="midnightblue" stroke="midnightblue" points="163.521,-82.4208 173.879,-80.1967 164.395,-75.4756 163.521,-82.4208"/>
</g>
<!-- Node4 -->
<g id="node4" class="node"><title>Node4</title>
<g id="a_node4"><a xlink:href="classpsi_1_1Matrix.html#a1fd3e741578fbeeefc2f1486d4215970" target="_top" xlink:title="psi::Matrix::gemm">
<polygon fill="none" stroke="black" points="173.5,-38.5 173.5,-57.5 268.5,-57.5 268.5,-38.5 173.5,-38.5"/>
<text text-anchor="middle" x="221" y="-45.5" font-family="Helvetica,sans-Serif" font-size="10.00">psi::Matrix::gemm</text>
</a>
</g>
</g>
<!-- Node1&#45;&gt;Node4 -->
<g id="edge3" class="edge"><title>Node1&#45;&gt;Node4</title>
<path fill="none" stroke="midnightblue" d="M136.11,-58.5557C145.168,-57.4159 154.39,-56.2556 163.244,-55.1415"/>
<polygon fill="midnightblue" stroke="midnightblue" points="163.952,-58.58 173.437,-53.8589 163.078,-51.6348 163.952,-58.58"/>
</g>
<!-- Node7 -->
<g id="node7" class="node"><title>Node7</title>
<g id="a_node7"><a xlink:href="classpsi_1_1Matrix.html#a3e06e86b74ba582c527c350e23c55308" target="_top" xlink:title="psi::Matrix::copy">
<polygon fill="none" stroke="black" points="176.5,-0.5 176.5,-19.5 265.5,-19.5 265.5,-0.5 176.5,-0.5"/>
<text text-anchor="middle" x="221" y="-7.5" font-family="Helvetica,sans-Serif" font-size="10.00">psi::Matrix::copy</text>
</a>
</g>
</g>
<!-- Node1&#45;&gt;Node7 -->
<g id="edge6" class="edge"><title>Node1&#45;&gt;Node7</title>
<path fill="none" stroke="midnightblue" d="M94.274,-57.4595C119.099,-48.0884 157.183,-33.7124 184.932,-23.2377"/>
<polygon fill="midnightblue" stroke="midnightblue" points="186.524,-26.3778 194.644,-19.5716 184.052,-19.8288 186.524,-26.3778"/>
</g>
<!-- Node5 -->
<g id="node5" class="node"><title>Node5</title>
<g id="a_node5"><a xlink:href="classpsi_1_1Matrix.html#a32bcf25d82e525256de2eaff81051278" target="_top" xlink:title="psi::Matrix::symmetry">
<polygon fill="none" stroke="black" points="306,-57.5 306,-76.5 418,-76.5 418,-57.5 306,-57.5"/>
<text text-anchor="middle" x="362" y="-64.5" font-family="Helvetica,sans-Serif" font-size="10.00">psi::Matrix::symmetry</text>
</a>
</g>
</g>
<!-- Node4&#45;&gt;Node5 -->
<g id="edge4" class="edge"><title>Node4&#45;&gt;Node5</title>
<path fill="none" stroke="midnightblue" d="M268.672,-54.3796C277.267,-55.5545 286.387,-56.8011 295.418,-58.0355"/>
<polygon fill="midnightblue" stroke="midnightblue" points="295.162,-61.533 305.544,-59.4197 296.11,-54.5975 295.162,-61.533"/>
</g>
<!-- Node6 -->
<g id="node6" class="node"><title>Node6</title>
<g id="a_node6"><a xlink:href="namespacepsi.html#a1112df35ff9d2b780efb0c24662f4fbe" target="_top" xlink:title="psi::C_DGEMM">
<polygon fill="none" stroke="black" points="319,-19.5 319,-38.5 405,-38.5 405,-19.5 319,-19.5"/>
<text text-anchor="middle" x="362" y="-26.5" font-family="Helvetica,sans-Serif" font-size="10.00">psi::C_DGEMM</text>
</a>
</g>
</g>
<!-- Node4&#45;&gt;Node6 -->
<g id="edge5" class="edge"><title>Node4&#45;&gt;Node6</title>
<path fill="none" stroke="midnightblue" d="M268.672,-41.6204C281.492,-39.8681 295.477,-37.9563 308.596,-36.1631"/>
<polygon fill="midnightblue" stroke="midnightblue" points="309.459,-39.5778 318.893,-34.7556 308.511,-32.6423 309.459,-39.5778"/>
</g>
</g>
</svg>
