<?xml version="1.0" encoding="UTF-8" standalone="no"?>
<!DOCTYPE svg PUBLIC "-//W3C//DTD SVG 1.1//EN"
 "http://www.w3.org/Graphics/SVG/1.1/DTD/svg11.dtd">
<!-- Generated by graphviz version 2.30.1 (20140110.0959)
 -->
<!-- Title: psi::PseudoTrial Pages: 1 -->
<!--zoomable 324 -->
<svg id="main" version="1.1" xmlns="http://www.w3.org/2000/svg" xmlns:xlink="http://www.w3.org/1999/xlink" xml:space="preserve" onload="init(evt)">
        <defs>
                <circle id="rim" cx="0" cy="0" r="7"/>
                <circle id="rim2" cx="0" cy="0" r="3.5"/>
                <g id="zoomPlus">
                        <use xlink:href="#rim" fill="#404040">
                                <set attributeName="fill" to="#808080" begin="zoomplus.mouseover" end="zoomplus.mouseout"/>
                        </use>
                        <path d="M-4,0h8M0,-4v8" fill="none" stroke="white" stroke-width="1.5" pointer-events="none"/>
                </g>
                <g id="zoomMin">
                        <use xlink:href="#rim" fill="#404040">
                                <set attributeName="fill" to="#808080" begin="zoomminus.mouseover" end="zoomminus.mouseout"/>
                        </use>
                        <path d="M-4,0h8" fill="none" stroke="white" stroke-width="1.5" pointer-events="none"/>
                </g>
                <g id="dirArrow">
                        <path fill="none" stroke="white" stroke-width="1.5" d="M0,-3.0v7 M-2.5,-0.5L0,-3.0L2.5,-0.5"/>
                </g>
               <g id="resetDef">
                       <use xlink:href="#rim2" fill="#404040">
                               <set attributeName="fill" to="#808080" begin="reset.mouseover" end="reset.mouseout"/>
                       </use>
               </g>
        </defs>

<script type="text/javascript">
var viewWidth = 592;
var viewHeight = 324;
var sectionId = 'dynsection-0';
</script>
<script xlink:href="svgpan.js"/>
<svg id="graph" class="graph">
<g id="viewport">
<title>psi::PseudoTrial</title>
<!-- Node1 -->
<g id="node1" class="node"><title>Node1</title>
<polygon fill="#bfbfbf" stroke="black" points="496.5,-145.5 496.5,-164.5 583.5,-164.5 583.5,-145.5 496.5,-145.5"/>
<text text-anchor="middle" x="540" y="-152.5" font-family="Helvetica,sans-Serif" font-size="10.00">psi::PseudoTrial</text>
</g>
<!-- Node2 -->
<g id="node2" class="node"><title>Node2</title>
<g id="a_node2"><a xlink:href="classpsi_1_1Options.html" target="_top" xlink:title="psi::Options">
<polygon fill="none" stroke="black" points="310.5,-296.5 310.5,-315.5 379.5,-315.5 379.5,-296.5 310.5,-296.5"/>
<text text-anchor="middle" x="345" y="-303.5" font-family="Helvetica,sans-Serif" font-size="10.00">psi::Options</text>
</a>
</g>
</g>
<!-- Node2&#45;&gt;Node1 -->
<g id="edge1" class="edge"><title>Node2&#45;&gt;Node1</title>
<path fill="none" stroke="#9a32cd" stroke-dasharray="5,2" d="M389.91,-301.665C417.688,-296.982 452.95,-287.244 478,-267 512.442,-239.166 530.3,-186.463 536.465,-164.738"/>
<polygon fill="#9a32cd" stroke="#9a32cd" points="389.027,-298.259 379.668,-303.224 390.081,-305.179 389.027,-298.259"/>
<text text-anchor="middle" x="454" y="-294" font-family="Helvetica,sans-Serif" font-size="10.00"> options_</text>
</g>
<!-- Node3 -->
<g id="node3" class="node"><title>Node3</title>
<g id="a_node3"><a xlink:href="classboost_1_1shared__ptr.html" target="_top" xlink:title="boost::shared_ptr\&lt;\l psi::PseudospectralGrid \&gt;">
<polygon fill="none" stroke="black" points="278.5,-234 278.5,-264 411.5,-264 411.5,-234 278.5,-234"/>
<text text-anchor="start" x="286.5" y="-252" font-family="Helvetica,sans-Serif" font-size="10.00">boost::shared_ptr&lt;</text>
<text text-anchor="middle" x="345" y="-241" font-family="Helvetica,sans-Serif" font-size="10.00"> psi::PseudospectralGrid &gt;</text>
</a>
</g>
</g>
<!-- Node3&#45;&gt;Node1 -->
<g id="edge2" class="edge"><title>Node3&#45;&gt;Node1</title>
<path fill="none" stroke="#9a32cd" stroke-dasharray="5,2" d="M421.642,-252.13C440.98,-250.162 461.074,-245.507 478,-236 507.47,-219.448 527.047,-182.162 534.994,-164.553"/>
<polygon fill="#9a32cd" stroke="#9a32cd" points="421.31,-248.645 411.618,-252.925 421.864,-255.623 421.31,-248.645"/>
<text text-anchor="middle" x="454" y="-255" font-family="Helvetica,sans-Serif" font-size="10.00"> grid_</text>
</g>
<!-- Node4 -->
<g id="node4" class="node"><title>Node4</title>
<g id="a_node4"><a xlink:href="classboost_1_1shared__ptr.html" target="_top" xlink:title="boost::shared_ptr\&lt; T \&gt;">
<polygon fill="none" stroke="black" points="0,-103.5 0,-122.5 116,-122.5 116,-103.5 0,-103.5"/>
<text text-anchor="middle" x="58" y="-110.5" font-family="Helvetica,sans-Serif" font-size="10.00">boost::shared_ptr&lt; T &gt;</text>
</a>
</g>
</g>
<!-- Node4&#45;&gt;Node3 -->
<g id="edge3" class="edge"><title>Node4&#45;&gt;Node3</title>
<path fill="none" stroke="orange" stroke-dasharray="5,2" d="M76.6087,-129.493C91.1243,-142.41 112.716,-160.122 134,-172 183.507,-199.628 244.849,-220.787 288.424,-233.87"/>
<polygon fill="orange" stroke="orange" points="78.6907,-126.655 68.9356,-122.521 73.9836,-131.836 78.6907,-126.655"/>
<text text-anchor="middle" x="197" y="-227" font-family="Helvetica,sans-Serif" font-size="10.00"> &lt; psi::PseudospectralGrid &gt;</text>
</g>
<!-- Node5 -->
<g id="node5" class="node"><title>Node5</title>
<g id="a_node5"><a xlink:href="classboost_1_1shared__ptr.html" target="_top" xlink:title="boost::shared_ptr\&lt;\l psi::BasisSet \&gt;">
<polygon fill="none" stroke="black" points="296,-160 296,-190 394,-190 394,-160 296,-160"/>
<text text-anchor="start" x="304" y="-178" font-family="Helvetica,sans-Serif" font-size="10.00">boost::shared_ptr&lt;</text>
<text text-anchor="middle" x="345" y="-167" font-family="Helvetica,sans-Serif" font-size="10.00"> psi::BasisSet &gt;</text>
</a>
</g>
</g>
<!-- Node4&#45;&gt;Node5 -->
<g id="edge5" class="edge"><title>Node4&#45;&gt;Node5</title>
<path fill="none" stroke="orange" stroke-dasharray="5,2" d="M112.745,-124.692C165.438,-136.155 245.035,-153.471 295.752,-164.504"/>
<polygon fill="orange" stroke="orange" points="113.422,-121.257 102.907,-122.552 111.934,-128.097 113.422,-121.257"/>
<text text-anchor="middle" x="197" y="-160" font-family="Helvetica,sans-Serif" font-size="10.00"> &lt; psi::BasisSet &gt;</text>
</g>
<!-- Node6 -->
<g id="node6" class="node"><title>Node6</title>
<g id="a_node6"><a xlink:href="classboost_1_1shared__ptr.html" target="_top" xlink:title="boost::shared_ptr\&lt;\l psi::Matrix \&gt;">
<polygon fill="none" stroke="black" points="296,-98 296,-128 394,-128 394,-98 296,-98"/>
<text text-anchor="start" x="304" y="-116" font-family="Helvetica,sans-Serif" font-size="10.00">boost::shared_ptr&lt;</text>
<text text-anchor="middle" x="345" y="-105" font-family="Helvetica,sans-Serif" font-size="10.00"> psi::Matrix &gt;</text>
</a>
</g>
</g>
<!-- Node4&#45;&gt;Node6 -->
<g id="edge7" class="edge"><title>Node4&#45;&gt;Node6</title>
<path fill="none" stroke="orange" stroke-dasharray="5,2" d="M126.481,-113C178.537,-113 249.277,-113 295.757,-113"/>
<polygon fill="orange" stroke="orange" points="126.331,-109.5 116.331,-113 126.331,-116.5 126.331,-109.5"/>
<text text-anchor="middle" x="197" y="-116" font-family="Helvetica,sans-Serif" font-size="10.00"> &lt; psi::Matrix &gt;</text>
</g>
<!-- Node7 -->
<g id="node7" class="node"><title>Node7</title>
<g id="a_node7"><a xlink:href="classboost_1_1shared__ptr.html" target="_top" xlink:title="boost::shared_ptr\&lt;\l psi::Molecule \&gt;">
<polygon fill="none" stroke="black" points="296,-49 296,-79 394,-79 394,-49 296,-49"/>
<text text-anchor="start" x="304" y="-67" font-family="Helvetica,sans-Serif" font-size="10.00">boost::shared_ptr&lt;</text>
<text text-anchor="middle" x="345" y="-56" font-family="Helvetica,sans-Serif" font-size="10.00"> psi::Molecule &gt;</text>
</a>
</g>
</g>
<!-- Node4&#45;&gt;Node7 -->
<g id="edge9" class="edge"><title>Node4&#45;&gt;Node7</title>
<path fill="none" stroke="orange" stroke-dasharray="5,2" d="M115.23,-101.52C121.555,-100.299 127.912,-99.1013 134,-98 189.424,-87.9745 253.336,-77.8281 295.956,-71.2626"/>
<polygon fill="orange" stroke="orange" points="114.501,-98.0966 105.358,-103.451 115.844,-104.967 114.501,-98.0966"/>
<text text-anchor="middle" x="197" y="-101" font-family="Helvetica,sans-Serif" font-size="10.00"> &lt; psi::Molecule &gt;</text>
</g>
<!-- Node8 -->
<g id="node8" class="node"><title>Node8</title>
<g id="a_node8"><a xlink:href="classboost_1_1shared__ptr.html" target="_top" xlink:title="boost::shared_ptr\&lt;\l psi::Vector \&gt;">
<polygon fill="none" stroke="black" points="296,-0 296,-30 394,-30 394,-0 296,-0"/>
<text text-anchor="start" x="304" y="-18" font-family="Helvetica,sans-Serif" font-size="10.00">boost::shared_ptr&lt;</text>
<text text-anchor="middle" x="345" y="-7" font-family="Helvetica,sans-Serif" font-size="10.00"> psi::Vector &gt;</text>
</a>
</g>
</g>
<!-- Node4&#45;&gt;Node8 -->
<g id="edge11" class="edge"><title>Node4&#45;&gt;Node8</title>
<path fill="none" stroke="orange" stroke-dasharray="5,2" d="M78.604,-97.0239C93.1023,-85.9595 113.763,-71.7081 134,-63 186.904,-40.2351 252.152,-27.4891 295.748,-20.9461"/>
<polygon fill="orange" stroke="orange" points="76.1474,-94.5022 70.4319,-103.423 80.4631,-100.014 76.1474,-94.5022"/>
<text text-anchor="middle" x="197" y="-66" font-family="Helvetica,sans-Serif" font-size="10.00"> &lt; psi::Vector &gt;</text>
</g>
<!-- Node5&#45;&gt;Node1 -->
<g id="edge4" class="edge"><title>Node5&#45;&gt;Node1</title>
<path fill="none" stroke="#9a32cd" stroke-dasharray="5,2" d="M382.743,-194.327C409.604,-205.831 446.662,-216.202 478,-205 500.436,-196.98 520.554,-176.763 531.139,-164.635"/>
<polygon fill="#9a32cd" stroke="#9a32cd" points="383.891,-191.005 373.337,-190.075 381.007,-197.383 383.891,-191.005"/>
<text text-anchor="middle" x="454" y="-224" font-family="Helvetica,sans-Serif" font-size="10.00"> dealias_</text>
<text text-anchor="middle" x="454" y="-213" font-family="Helvetica,sans-Serif" font-size="10.00">primary_</text>
</g>
<!-- Node6&#45;&gt;Node1 -->
<g id="edge6" class="edge"><title>Node6&#45;&gt;Node1</title>
<path fill="none" stroke="#9a32cd" stroke-dasharray="5,2" d="M396.429,-94.2326C401.703,-92.1701 406.971,-90.0679 412,-88 420.097,-84.6704 421.436,-81.8174 430,-80 450.869,-75.5714 458.735,-70.8364 478,-80 506.797,-93.6979 526.45,-128.376 534.669,-145.347"/>
<polygon fill="#9a32cd" stroke="#9a32cd" points="395.045,-91.015 386.981,-97.886 397.57,-97.5439 395.045,-91.015"/>
<text text-anchor="middle" x="454" y="-193" font-family="Helvetica,sans-Serif" font-size="10.00"> Ips_</text>
<text text-anchor="middle" x="454" y="-182" font-family="Helvetica,sans-Serif" font-size="10.00">I_</text>
<text text-anchor="middle" x="454" y="-171" font-family="Helvetica,sans-Serif" font-size="10.00">SX_</text>
<text text-anchor="middle" x="454" y="-160" font-family="Helvetica,sans-Serif" font-size="10.00">Sa4_</text>
<text text-anchor="middle" x="454" y="-149" font-family="Helvetica,sans-Serif" font-size="10.00">Rp2_</text>
<text text-anchor="middle" x="454" y="-138" font-family="Helvetica,sans-Serif" font-size="10.00">Xdd_</text>
<text text-anchor="middle" x="454" y="-127" font-family="Helvetica,sans-Serif" font-size="10.00">Xpp_</text>
<text text-anchor="middle" x="454" y="-116" font-family="Helvetica,sans-Serif" font-size="10.00">Sdd4_</text>
<text text-anchor="middle" x="454" y="-105" font-family="Helvetica,sans-Serif" font-size="10.00">Sa3_</text>
<text text-anchor="middle" x="454" y="-94" font-family="Helvetica,sans-Serif" font-size="10.00">Spd_</text>
<text text-anchor="middle" x="454" y="-83" font-family="Helvetica,sans-Serif" font-size="10.00">...</text>
</g>
<!-- Node7&#45;&gt;Node1 -->
<g id="edge8" class="edge"><title>Node7&#45;&gt;Node1</title>
<path fill="none" stroke="#9a32cd" stroke-dasharray="5,2" d="M404.357,-49.7684C428.477,-46.9506 455.905,-47.9296 478,-60 512.058,-78.6058 529.923,-125.26 536.27,-145.446"/>
<polygon fill="#9a32cd" stroke="#9a32cd" points="403.664,-46.3313 394.248,-51.1873 404.637,-53.2634 403.664,-46.3313"/>
<text text-anchor="middle" x="454" y="-63" font-family="Helvetica,sans-Serif" font-size="10.00"> molecule_</text>
</g>
<!-- Node8&#45;&gt;Node1 -->
<g id="edge10" class="edge"><title>Node8&#45;&gt;Node1</title>
<path fill="none" stroke="#9a32cd" stroke-dasharray="5,2" d="M404.286,-11.8998C429.019,-13.3263 456.935,-18.8532 478,-34 516.773,-61.8804 532.411,-121.629 537.225,-145.174"/>
<polygon fill="#9a32cd" stroke="#9a32cd" points="404.393,-8.40142 394.271,-11.5292 404.134,-15.3966 404.393,-8.40142"/>
<text text-anchor="middle" x="454" y="-37" font-family="Helvetica,sans-Serif" font-size="10.00"> w_</text>
</g>
</g>
</svg>
        <g id="navigator" transform="translate(0 0)" fill="#404254">
                <rect fill="#f2f5e9" fill-opacity="0.5" stroke="#606060" stroke-width=".5" x="0" y="0" width="60" height="60"/>
                <use id="zoomplus" xlink:href="#zoomPlus" x="17" y="9" onmousedown="handleZoom(evt,'in')"/>
                <use id="zoomminus" xlink:href="#zoomMin" x="42" y="9" onmousedown="handleZoom(evt,'out')"/>
                <use id="reset" xlink:href="#resetDef" x="30" y="36" onmousedown="handleReset()"/>
                <g id="arrowUp" xlink:href="#dirArrow" transform="translate(30 24)" onmousedown="handlePan(0,-1)">
                  <use xlink:href="#rim" fill="#404040">
                        <set attributeName="fill" to="#808080" begin="arrowUp.mouseover" end="arrowUp.mouseout"/>
                  </use>
                  <path fill="none" stroke="white" stroke-width="1.5" d="M0,-3.0v7 M-2.5,-0.5L0,-3.0L2.5,-0.5"/>
                </g>
                <g id="arrowRight" xlink:href="#dirArrow" transform="rotate(90) translate(36 -43)" onmousedown="handlePan(1,0)">
                  <use xlink:href="#rim" fill="#404040">
                        <set attributeName="fill" to="#808080" begin="arrowRight.mouseover" end="arrowRight.mouseout"/>
                  </use>
                  <path fill="none" stroke="white" stroke-width="1.5" d="M0,-3.0v7 M-2.5,-0.5L0,-3.0L2.5,-0.5"/>
                </g>
                <g id="arrowDown" xlink:href="#dirArrow" transform="rotate(180) translate(-30 -48)" onmousedown="handlePan(0,1)">
                  <use xlink:href="#rim" fill="#404040">
                        <set attributeName="fill" to="#808080" begin="arrowDown.mouseover" end="arrowDown.mouseout"/>
                  </use>
                  <path fill="none" stroke="white" stroke-width="1.5" d="M0,-3.0v7 M-2.5,-0.5L0,-3.0L2.5,-0.5"/>
                </g>
                <g id="arrowLeft" xlink:href="#dirArrow" transform="rotate(270) translate(-36 17)" onmousedown="handlePan(-1,0)">
                  <use xlink:href="#rim" fill="#404040">
                        <set attributeName="fill" to="#808080" begin="arrowLeft.mouseover" end="arrowLeft.mouseout"/>
                  </use>
                  <path fill="none" stroke="white" stroke-width="1.5" d="M0,-3.0v7 M-2.5,-0.5L0,-3.0L2.5,-0.5"/>
                </g>
        </g>
        <svg viewBox="0 0 15 15" width="100%" height="30px" preserveAspectRatio="xMaxYMin meet">
         <g id="arrow_out" transform="scale(0.3 0.3)">
          <a xlink:href="classpsi_1_1PseudoTrial__coll__graph_org.svg" target="_base">
           <rect id="button" ry="5" rx="5" y="6" x="6" height="38" width="38"
                fill="#f2f5e9" fill-opacity="0.5" stroke="#606060" stroke-width="1.0"/>
           <path id="arrow"
             d="M 11.500037,31.436501 C 11.940474,20.09759 22.043105,11.32322 32.158766,21.979434 L 37.068811,17.246167 C 37.068811,17.246167 37.088388,32 37.088388,32 L 22.160133,31.978069 C 22.160133,31.978069 26.997745,27.140456 26.997745,27.140456 C 18.528582,18.264221 13.291696,25.230495 11.500037,31.436501 z"
             style="fill:#404040;"/>
          </a>
         </g>
        </svg>
</svg>
