<?xml version="1.0" encoding="UTF-8" standalone="no"?>
<!DOCTYPE svg PUBLIC "-//W3C//DTD SVG 1.1//EN"
 "http://www.w3.org/Graphics/SVG/1.1/DTD/svg11.dtd">
<!-- Generated by graphviz version 2.30.1 (20140110.0959)
 -->
<!-- Title: yeti::Matrix::mult Pages: 1 -->
<svg width="360pt" height="180pt"
 viewBox="0.00 0.00 360.00 180.00" xmlns="http://www.w3.org/2000/svg" xmlns:xlink="http://www.w3.org/1999/xlink">
<g id="graph0" class="graph" transform="scale(1 1) rotate(0) translate(4 176)">
<title>yeti::Matrix::mult</title>
<!-- Node1 -->
<g id="node1" class="node"><title>Node1</title>
<polygon fill="#bfbfbf" stroke="black" points="0,-76.5 0,-95.5 90,-95.5 90,-76.5 0,-76.5"/>
<text text-anchor="middle" x="45" y="-83.5" font-family="Helvetica,sans-Serif" font-size="10.00">yeti::Matrix::mult</text>
</g>
<!-- Node2 -->
<g id="node2" class="node"><title>Node2</title>
<g id="a_node2"><a xlink:href="classyeti_1_1Matrix.html#a7270ffd63fe4704809e6bbac257662ce" target="_top" xlink:title="yeti::Matrix::data">
<polygon fill="none" stroke="black" points="131,-152.5 131,-171.5 221,-171.5 221,-152.5 131,-152.5"/>
<text text-anchor="middle" x="176" y="-159.5" font-family="Helvetica,sans-Serif" font-size="10.00">yeti::Matrix::data</text>
</a>
</g>
</g>
<!-- Node1&#45;&gt;Node2 -->
<g id="edge1" class="edge"><title>Node1&#45;&gt;Node2</title>
<path fill="none" stroke="midnightblue" d="M57.5859,-95.6745C72.6264,-107.89 100.031,-128.999 126,-143 129.558,-144.918 133.351,-146.741 137.192,-148.445"/>
<polygon fill="midnightblue" stroke="midnightblue" points="136.155,-151.804 146.732,-152.42 138.847,-145.343 136.155,-151.804"/>
</g>
<!-- Node3 -->
<g id="node3" class="node"><title>Node3</title>
<g id="a_node3"><a xlink:href="classyeti_1_1Matrix.html#a8c591dc1c7b574301856e99d023fce2a" target="_top" xlink:title="yeti::Matrix::nrow">
<polygon fill="none" stroke="black" points="130,-114.5 130,-133.5 222,-133.5 222,-114.5 130,-114.5"/>
<text text-anchor="middle" x="176" y="-121.5" font-family="Helvetica,sans-Serif" font-size="10.00">yeti::Matrix::nrow</text>
</a>
</g>
</g>
<!-- Node1&#45;&gt;Node3 -->
<g id="edge2" class="edge"><title>Node1&#45;&gt;Node3</title>
<path fill="none" stroke="midnightblue" d="M78.5521,-95.589C94.8993,-100.404 114.909,-106.299 132.457,-111.468"/>
<polygon fill="midnightblue" stroke="midnightblue" points="131.877,-114.946 142.458,-114.414 133.855,-108.231 131.877,-114.946"/>
</g>
<!-- Node4 -->
<g id="node4" class="node"><title>Node4</title>
<g id="a_node4"><a xlink:href="classyeti_1_1Matrix.html#a23a609b7f175d361da6600f418df4c2a" target="_top" xlink:title="yeti::Matrix::ncol">
<polygon fill="none" stroke="black" points="262.5,-57.5 262.5,-76.5 351.5,-76.5 351.5,-57.5 262.5,-57.5"/>
<text text-anchor="middle" x="307" y="-64.5" font-family="Helvetica,sans-Serif" font-size="10.00">yeti::Matrix::ncol</text>
</a>
</g>
</g>
<!-- Node1&#45;&gt;Node4 -->
<g id="edge3" class="edge"><title>Node1&#45;&gt;Node4</title>
<path fill="none" stroke="midnightblue" d="M90.1055,-82.7769C134.783,-79.512 203.959,-74.4568 251.917,-70.9522"/>
<polygon fill="midnightblue" stroke="midnightblue" points="252.395,-74.4267 262.113,-70.2071 251.884,-67.4454 252.395,-74.4267"/>
</g>
<!-- Node5 -->
<g id="node5" class="node"><title>Node5</title>
<g id="a_node5"><a xlink:href="classyeti_1_1Matrix.html#a934767f8001acffc359424035628a482" target="_top" xlink:title="yeti::Matrix::Matrix">
<polygon fill="none" stroke="black" points="127,-38.5 127,-57.5 225,-57.5 225,-38.5 127,-38.5"/>
<text text-anchor="middle" x="176" y="-45.5" font-family="Helvetica,sans-Serif" font-size="10.00">yeti::Matrix::Matrix</text>
</a>
</g>
</g>
<!-- Node1&#45;&gt;Node5 -->
<g id="edge4" class="edge"><title>Node1&#45;&gt;Node5</title>
<path fill="none" stroke="midnightblue" d="M78.5521,-76.411C94.8993,-71.5956 114.909,-65.7012 132.457,-60.532"/>
<polygon fill="midnightblue" stroke="midnightblue" points="133.855,-63.7691 142.458,-57.5859 131.877,-57.0543 133.855,-63.7691"/>
</g>
<!-- Node6 -->
<g id="node6" class="node"><title>Node6</title>
<g id="a_node6"><a xlink:href="classyeti_1_1Matrix.html#a38dc1db8e678ca6f9c56143c8ab9e1ef" target="_top" xlink:title="yeti::Matrix::assign">
<polygon fill="none" stroke="black" points="126,-0.5 126,-19.5 226,-19.5 226,-0.5 126,-0.5"/>
<text text-anchor="middle" x="176" y="-7.5" font-family="Helvetica,sans-Serif" font-size="10.00">yeti::Matrix::assign</text>
</a>
</g>
</g>
<!-- Node1&#45;&gt;Node6 -->
<g id="edge6" class="edge"><title>Node1&#45;&gt;Node6</title>
<path fill="none" stroke="midnightblue" d="M57.5859,-76.3255C72.6264,-64.1099 100.031,-43.0015 126,-29 129.558,-27.0819 133.351,-25.2587 137.192,-23.555"/>
<polygon fill="midnightblue" stroke="midnightblue" points="138.847,-26.6572 146.732,-19.5803 136.155,-20.1956 138.847,-26.6572"/>
</g>
<!-- Node5&#45;&gt;Node4 -->
<g id="edge5" class="edge"><title>Node5&#45;&gt;Node4</title>
<path fill="none" stroke="midnightblue" d="M225.035,-55.0749C233.883,-56.3781 243.174,-57.7465 252.179,-59.0729"/>
<polygon fill="midnightblue" stroke="midnightblue" points="251.783,-62.5522 262.186,-60.5468 252.803,-55.6269 251.783,-62.5522"/>
</g>
</g>
</svg>
