<?xml version="1.0" encoding="UTF-8" standalone="no"?>
<!DOCTYPE svg PUBLIC "-//W3C//DTD SVG 1.1//EN"
 "http://www.w3.org/Graphics/SVG/1.1/DTD/svg11.dtd">
<!-- Generated by graphviz version 2.30.1 (20140110.0959)
 -->
<!-- Title: psi::DFERI Pages: 1 -->
<svg width="223pt" height="234pt"
 viewBox="0.00 0.00 223.00 234.00" xmlns="http://www.w3.org/2000/svg" xmlns:xlink="http://www.w3.org/1999/xlink">
<g id="graph0" class="graph" transform="scale(1 1) rotate(0) translate(4 230)">
<title>psi::DFERI</title>
<!-- Node1 -->
<g id="node1" class="node"><title>Node1</title>
<polygon fill="#bfbfbf" stroke="black" points="46,-0.5 46,-19.5 112,-19.5 112,-0.5 46,-0.5"/>
<text text-anchor="middle" x="79" y="-7.5" font-family="Helvetica,sans-Serif" font-size="10.00">psi::DFERI</text>
</g>
<!-- Node2 -->
<g id="node2" class="node"><title>Node2</title>
<g id="a_node2"><a xlink:href="classpsi_1_1LRERI.html" target="_top" xlink:title="psi::LRERI">
<polygon fill="none" stroke="black" points="112.5,-58.5 112.5,-77.5 177.5,-77.5 177.5,-58.5 112.5,-58.5"/>
<text text-anchor="middle" x="145" y="-65.5" font-family="Helvetica,sans-Serif" font-size="10.00">psi::LRERI</text>
</a>
</g>
</g>
<!-- Node2&#45;&gt;Node1 -->
<g id="edge1" class="edge"><title>Node2&#45;&gt;Node1</title>
<path fill="none" stroke="midnightblue" d="M127.204,-51.9006C114.995,-41.5414 99.2327,-28.1671 89.1183,-19.5852"/>
<polygon fill="midnightblue" stroke="midnightblue" points="125.086,-54.6938 134.976,-58.4948 129.615,-49.3562 125.086,-54.6938"/>
</g>
<!-- Node3 -->
<g id="node3" class="node"><title>Node3</title>
<g id="a_node3"><a xlink:href="classboost_1_1shared__ptr.html" target="_top" xlink:title="boost::shared_ptr\&lt;\l psi::BasisSet \&gt;">
<polygon fill="none" stroke="black" points="0,-127 0,-157 98,-157 98,-127 0,-127"/>
<text text-anchor="start" x="8" y="-145" font-family="Helvetica,sans-Serif" font-size="10.00">boost::shared_ptr&lt;</text>
<text text-anchor="middle" x="49" y="-134" font-family="Helvetica,sans-Serif" font-size="10.00"> psi::BasisSet &gt;</text>
</a>
</g>
</g>
<!-- Node3&#45;&gt;Node2 -->
<g id="edge2" class="edge"><title>Node3&#45;&gt;Node2</title>
<path fill="none" stroke="#9a32cd" stroke-dasharray="5,2" d="M74.8337,-120.583C84.8125,-112.795 96.3687,-103.896 107,-96 115.446,-89.7271 125.113,-82.8625 132.584,-77.6248"/>
<polygon fill="#9a32cd" stroke="#9a32cd" points="72.5904,-117.894 66.8774,-126.817 76.9076,-123.405 72.5904,-117.894"/>
<text text-anchor="middle" x="127.5" y="-99.5" font-family="Helvetica,sans-Serif" font-size="10.00"> primary_</text>
</g>
<!-- Node3&#45;&gt;Node1 -->
<g id="edge6" class="edge"><title>Node3&#45;&gt;Node1</title>
<path fill="none" stroke="#9a32cd" stroke-dasharray="5,2" d="M49.633,-116.89C50.551,-100.126 52.7546,-77.397 58,-58 61.7795,-44.0238 69.185,-28.915 74.1139,-19.7038"/>
<polygon fill="#9a32cd" stroke="#9a32cd" points="46.1334,-116.808 49.1963,-126.95 53.1268,-117.112 46.1334,-116.808"/>
<text text-anchor="middle" x="80.5" y="-65.5" font-family="Helvetica,sans-Serif" font-size="10.00"> auxiliary_</text>
</g>
<!-- Node4 -->
<g id="node4" class="node"><title>Node4</title>
<g id="a_node4"><a xlink:href="classboost_1_1shared__ptr.html" target="_top" xlink:title="boost::shared_ptr\&lt; T \&gt;">
<polygon fill="none" stroke="black" points="50,-206.5 50,-225.5 166,-225.5 166,-206.5 50,-206.5"/>
<text text-anchor="middle" x="108" y="-213.5" font-family="Helvetica,sans-Serif" font-size="10.00">boost::shared_ptr&lt; T &gt;</text>
</a>
</g>
</g>
<!-- Node4&#45;&gt;Node3 -->
<g id="edge3" class="edge"><title>Node4&#45;&gt;Node3</title>
<path fill="none" stroke="orange" stroke-dasharray="5,2" d="M70.3983,-201.735C64.4537,-198.121 58.9691,-193.606 55,-188 48.7149,-179.123 47.4624,-166.74 47.6431,-157.211"/>
<polygon fill="orange" stroke="orange" points="68.8316,-204.865 79.3139,-206.405 72.0798,-198.664 68.8316,-204.865"/>
<text text-anchor="middle" x="95" y="-179.5" font-family="Helvetica,sans-Serif" font-size="10.00"> &lt; psi::BasisSet &gt;</text>
</g>
<!-- Node5 -->
<g id="node5" class="node"><title>Node5</title>
<g id="a_node5"><a xlink:href="classboost_1_1shared__ptr.html" target="_top" xlink:title="boost::shared_ptr\&lt;\l psi::Matrix \&gt;">
<polygon fill="none" stroke="black" points="116,-127 116,-157 214,-157 214,-127 116,-127"/>
<text text-anchor="start" x="124" y="-145" font-family="Helvetica,sans-Serif" font-size="10.00">boost::shared_ptr&lt;</text>
<text text-anchor="middle" x="165" y="-134" font-family="Helvetica,sans-Serif" font-size="10.00"> psi::Matrix &gt;</text>
</a>
</g>
</g>
<!-- Node4&#45;&gt;Node5 -->
<g id="edge5" class="edge"><title>Node4&#45;&gt;Node5</title>
<path fill="none" stroke="orange" stroke-dasharray="5,2" d="M127.696,-199.59C131.676,-196.012 135.659,-192.056 139,-188 146.802,-178.529 153.653,-166.421 158.36,-157.15"/>
<polygon fill="orange" stroke="orange" points="125.116,-197.187 119.738,-206.316 129.635,-202.534 125.116,-197.187"/>
<text text-anchor="middle" x="181.5" y="-179.5" font-family="Helvetica,sans-Serif" font-size="10.00"> &lt; psi::Matrix &gt;</text>
</g>
<!-- Node5&#45;&gt;Node2 -->
<g id="edge4" class="edge"><title>Node5&#45;&gt;Node2</title>
<path fill="none" stroke="#9a32cd" stroke-dasharray="5,2" d="M158.357,-117.087C154.602,-103.568 150.132,-87.4757 147.433,-77.7589"/>
<polygon fill="#9a32cd" stroke="#9a32cd" points="155,-118.077 161.049,-126.775 161.744,-116.203 155,-118.077"/>
<text text-anchor="middle" x="163" y="-99.5" font-family="Helvetica,sans-Serif" font-size="10.00"> C_</text>
</g>
</g>
</svg>
