<?xml version="1.0" encoding="UTF-8" standalone="no"?>
<!DOCTYPE svg PUBLIC "-//W3C//DTD SVG 1.1//EN"
 "http://www.w3.org/Graphics/SVG/1.1/DTD/svg11.dtd">
<!-- Generated by graphviz version 2.30.1 (20140110.0959)
 -->
<!-- Title: yeti::YetiRuntimeObject::retrieve Pages: 1 -->
<svg width="300pt" height="87pt"
 viewBox="0.00 0.00 300.00 87.00" xmlns="http://www.w3.org/2000/svg" xmlns:xlink="http://www.w3.org/1999/xlink">
<g id="graph0" class="graph" transform="scale(1 1) rotate(0) translate(4 83)">
<title>yeti::YetiRuntimeObject::retrieve</title>
<!-- Node1 -->
<g id="node1" class="node"><title>Node1</title>
<polygon fill="#bfbfbf" stroke="black" points="0.5,-24 0.5,-54 121.5,-54 121.5,-24 0.5,-24"/>
<text text-anchor="start" x="8.5" y="-42" font-family="Helvetica,sans-Serif" font-size="10.00">yeti::YetiRuntimeObject</text>
<text text-anchor="middle" x="61" y="-31" font-family="Helvetica,sans-Serif" font-size="10.00">::retrieve</text>
</g>
<!-- Node2 -->
<g id="node2" class="node"><title>Node2</title>
<g id="a_node2"><a xlink:href="classyeti_1_1YetiThreadedRuntimeObject.html#a5f6665717c29bb4ddccfdbcfc7329786" target="_top" xlink:title="yeti::YetiThreadedRuntime\lObject::retrieve">
<polygon fill="none" stroke="black" points="158.5,-49 158.5,-79 291.5,-79 291.5,-49 158.5,-49"/>
<text text-anchor="start" x="166.5" y="-67" font-family="Helvetica,sans-Serif" font-size="10.00">yeti::YetiThreadedRuntime</text>
<text text-anchor="middle" x="225" y="-56" font-family="Helvetica,sans-Serif" font-size="10.00">Object::retrieve</text>
</a>
</g>
</g>
<!-- Node1&#45;&gt;Node2 -->
<g id="edge1" class="edge"><title>Node1&#45;&gt;Node2</title>
<path fill="none" stroke="midnightblue" d="M131.746,-49.7633C140.589,-51.1279 149.614,-52.5207 158.389,-53.8749"/>
<polygon fill="midnightblue" stroke="midnightblue" points="132.279,-46.3042 121.863,-48.238 131.212,-53.2223 132.279,-46.3042"/>
</g>
<!-- Node3 -->
<g id="node3" class="node"><title>Node3</title>
<g id="a_node3"><a xlink:href="classyeti_1_1YetiThreadedRuntimeObject.html#ad880ffdcece172a0f7dab057e5435d13" target="_top" xlink:title="yeti::YetiThreadedRuntime\lObject::retrieve_lock">
<polygon fill="none" stroke="black" points="158.5,-0 158.5,-30 291.5,-30 291.5,-0 158.5,-0"/>
<text text-anchor="start" x="166.5" y="-18" font-family="Helvetica,sans-Serif" font-size="10.00">yeti::YetiThreadedRuntime</text>
<text text-anchor="middle" x="225" y="-7" font-family="Helvetica,sans-Serif" font-size="10.00">Object::retrieve_lock</text>
</a>
</g>
</g>
<!-- Node1&#45;&gt;Node3 -->
<g id="edge2" class="edge"><title>Node1&#45;&gt;Node3</title>
<path fill="none" stroke="midnightblue" d="M132.031,-28.625C140.783,-27.3285 149.709,-26.0061 158.389,-24.7201"/>
<polygon fill="midnightblue" stroke="midnightblue" points="131.242,-25.2037 121.863,-30.1315 132.268,-32.1281 131.242,-25.2037"/>
</g>
</g>
</svg>
