<?xml version="1.0" encoding="UTF-8" standalone="no"?>
<!DOCTYPE svg PUBLIC "-//W3C//DTD SVG 1.1//EN"
 "http://www.w3.org/Graphics/SVG/1.1/DTD/svg11.dtd">
<!-- Generated by graphviz version 2.30.1 (20140110.0959)
 -->
<!-- Title: yeti::CountableArray&lt; T &gt; Pages: 1 -->
<svg width="710pt" height="164pt"
 viewBox="0.00 0.00 710.00 164.00" xmlns="http://www.w3.org/2000/svg" xmlns:xlink="http://www.w3.org/1999/xlink">
<g id="graph0" class="graph" transform="scale(1 1) rotate(0) translate(4 160)">
<title>yeti::CountableArray&lt; T &gt;</title>
<!-- Node1 -->
<g id="node1" class="node"><title>Node1</title>
<polygon fill="#bfbfbf" stroke="black" points="142,-85.5 142,-104.5 272,-104.5 272,-85.5 142,-85.5"/>
<text text-anchor="middle" x="207" y="-92.5" font-family="Helvetica,sans-Serif" font-size="10.00">yeti::CountableArray&lt; T &gt;</text>
</g>
<!-- Node3 -->
<g id="node3" class="node"><title>Node3</title>
<g id="a_node3"><a xlink:href="classyeti_1_1MetaDataArray.html" target="_top" xlink:title="yeti::MetaDataArray\&lt; T \&gt;">
<polygon fill="none" stroke="black" points="417,-136.5 417,-155.5 545,-155.5 545,-136.5 417,-136.5"/>
<text text-anchor="middle" x="481" y="-143.5" font-family="Helvetica,sans-Serif" font-size="10.00">yeti::MetaDataArray&lt; T &gt;</text>
</a>
</g>
</g>
<!-- Node1&#45;&gt;Node3 -->
<g id="edge2" class="edge"><title>Node1&#45;&gt;Node3</title>
<path fill="none" stroke="midnightblue" d="M252.108,-107.108C264.327,-110.24 277.632,-113.446 290,-116 332.025,-124.679 379.733,-132.204 416.83,-137.546"/>
<polygon fill="midnightblue" stroke="midnightblue" points="252.704,-103.646 242.144,-104.51 250.938,-110.42 252.704,-103.646"/>
</g>
<!-- Node4 -->
<g id="node4" class="node"><title>Node4</title>
<g id="a_node4"><a xlink:href="classyeti_1_1SparseMetadataArray.html" target="_top" xlink:title="yeti::SparseMetadataArray\&lt; T \&gt;">
<polygon fill="none" stroke="black" points="402.5,-98.5 402.5,-117.5 559.5,-117.5 559.5,-98.5 402.5,-98.5"/>
<text text-anchor="middle" x="481" y="-105.5" font-family="Helvetica,sans-Serif" font-size="10.00">yeti::SparseMetadataArray&lt; T &gt;</text>
</a>
</g>
</g>
<!-- Node1&#45;&gt;Node4 -->
<g id="edge3" class="edge"><title>Node1&#45;&gt;Node4</title>
<path fill="none" stroke="midnightblue" d="M282.39,-98.5554C319.594,-100.334 364.598,-102.484 402.255,-104.284"/>
<polygon fill="midnightblue" stroke="midnightblue" points="282.271,-95.0458 272.116,-98.0644 281.937,-102.038 282.271,-95.0458"/>
</g>
<!-- Node5 -->
<g id="node5" class="node"><title>Node5</title>
<g id="a_node5"><a xlink:href="classyeti_1_1CountableArray.html" target="_top" xlink:title="yeti::CountableArray\l\&lt; IndexRange \&gt;">
<polygon fill="none" stroke="black" points="428,-49 428,-79 534,-79 534,-49 428,-49"/>
<text text-anchor="start" x="436" y="-67" font-family="Helvetica,sans-Serif" font-size="10.00">yeti::CountableArray</text>
<text text-anchor="middle" x="481" y="-56" font-family="Helvetica,sans-Serif" font-size="10.00">&lt; IndexRange &gt;</text>
</a>
</g>
</g>
<!-- Node1&#45;&gt;Node5 -->
<g id="edge4" class="edge"><title>Node1&#45;&gt;Node5</title>
<path fill="none" stroke="orange" stroke-dasharray="5,2" d="M281.938,-85.9441C284.659,-85.6233 287.353,-85.3076 290,-85 336.646,-79.5782 389.774,-73.7342 427.967,-69.5912"/>
<polygon fill="orange" stroke="orange" points="281.522,-82.4688 272.005,-87.1239 282.348,-89.42 281.522,-82.4688"/>
<text text-anchor="middle" x="337" y="-88" font-family="Helvetica,sans-Serif" font-size="10.00"> &lt; IndexRange &gt;</text>
</g>
<!-- Node7 -->
<g id="node7" class="node"><title>Node7</title>
<g id="a_node7"><a xlink:href="classyeti_1_1CountableArray.html" target="_top" xlink:title="yeti::CountableArray\l\&lt; yeti::IndexDescr \&gt;">
<polygon fill="none" stroke="black" points="427.5,-0 427.5,-30 534.5,-30 534.5,-0 427.5,-0"/>
<text text-anchor="start" x="435.5" y="-18" font-family="Helvetica,sans-Serif" font-size="10.00">yeti::CountableArray</text>
<text text-anchor="middle" x="481" y="-7" font-family="Helvetica,sans-Serif" font-size="10.00">&lt; yeti::IndexDescr &gt;</text>
</a>
</g>
</g>
<!-- Node1&#45;&gt;Node7 -->
<g id="edge6" class="edge"><title>Node1&#45;&gt;Node7</title>
<path fill="none" stroke="orange" stroke-dasharray="5,2" d="M237.363,-81.0212C252.788,-74.0499 272.15,-65.8755 290,-60 335.562,-45.003 388.804,-32.8365 427.317,-24.9533"/>
<polygon fill="orange" stroke="orange" points="235.476,-78.0367 227.85,-85.3925 238.398,-84.3973 235.476,-78.0367"/>
<text text-anchor="middle" x="337" y="-63" font-family="Helvetica,sans-Serif" font-size="10.00"> &lt; yeti::IndexDescr &gt;</text>
</g>
<!-- Node2 -->
<g id="node2" class="node"><title>Node2</title>
<g id="a_node2"><a xlink:href="classsmartptr_1_1Countable.html" target="_top" xlink:title="smartptr::Countable">
<polygon fill="none" stroke="black" points="0.5,-85.5 0.5,-104.5 103.5,-104.5 103.5,-85.5 0.5,-85.5"/>
<text text-anchor="middle" x="52" y="-92.5" font-family="Helvetica,sans-Serif" font-size="10.00">smartptr::Countable</text>
</a>
</g>
</g>
<!-- Node2&#45;&gt;Node1 -->
<g id="edge1" class="edge"><title>Node2&#45;&gt;Node1</title>
<path fill="none" stroke="midnightblue" d="M113.786,-95C123.025,-95 132.583,-95 141.889,-95"/>
<polygon fill="midnightblue" stroke="midnightblue" points="113.522,-91.5001 103.522,-95 113.522,-98.5001 113.522,-91.5001"/>
</g>
<!-- Node6 -->
<g id="node6" class="node"><title>Node6</title>
<g id="a_node6"><a xlink:href="classyeti_1_1SubindexTuple.html" target="_top" xlink:title="yeti::SubindexTuple">
<polygon fill="none" stroke="black" points="598.5,-54.5 598.5,-73.5 701.5,-73.5 701.5,-54.5 598.5,-54.5"/>
<text text-anchor="middle" x="650" y="-61.5" font-family="Helvetica,sans-Serif" font-size="10.00">yeti::SubindexTuple</text>
</a>
</g>
</g>
<!-- Node5&#45;&gt;Node6 -->
<g id="edge5" class="edge"><title>Node5&#45;&gt;Node6</title>
<path fill="none" stroke="midnightblue" d="M544.617,-64C562.306,-64 581.332,-64 598.233,-64"/>
<polygon fill="midnightblue" stroke="midnightblue" points="544.382,-60.5001 534.382,-64 544.382,-67.5001 544.382,-60.5001"/>
</g>
</g>
</svg>
