<?xml version="1.0" encoding="UTF-8" standalone="no"?>
<!DOCTYPE svg PUBLIC "-//W3C//DTD SVG 1.1//EN"
 "http://www.w3.org/Graphics/SVG/1.1/DTD/svg11.dtd">
<!-- Generated by graphviz version 2.30.1 (20140110.0959)
 -->
<!-- Title: psi::dftsapt::INFSAPT Pages: 1 -->
<svg width="250pt" height="186pt"
 viewBox="0.00 0.00 250.00 186.00" xmlns="http://www.w3.org/2000/svg" xmlns:xlink="http://www.w3.org/1999/xlink">
<g id="graph0" class="graph" transform="scale(1 1) rotate(0) translate(4 182)">
<title>psi::dftsapt::INFSAPT</title>
<!-- Node1 -->
<g id="node1" class="node"><title>Node1</title>
<polygon fill="#bfbfbf" stroke="black" points="41,-0.5 41,-19.5 155,-19.5 155,-0.5 41,-0.5"/>
<text text-anchor="middle" x="98" y="-7.5" font-family="Helvetica,sans-Serif" font-size="10.00">psi::dftsapt::INFSAPT</text>
</g>
<!-- Node2 -->
<g id="node2" class="node"><title>Node2</title>
<g id="a_node2"><a xlink:href="classboost_1_1shared__ptr.html" target="_top" xlink:title="boost::shared_ptr\&lt;\l psi::Wavefunction \&gt;">
<polygon fill="none" stroke="black" points="-0.5,-79 -0.5,-109 106.5,-109 106.5,-79 -0.5,-79"/>
<text text-anchor="start" x="7.5" y="-97" font-family="Helvetica,sans-Serif" font-size="10.00">boost::shared_ptr&lt;</text>
<text text-anchor="middle" x="53" y="-86" font-family="Helvetica,sans-Serif" font-size="10.00"> psi::Wavefunction &gt;</text>
</a>
</g>
</g>
<!-- Node2&#45;&gt;Node1 -->
<g id="edge1" class="edge"><title>Node2&#45;&gt;Node1</title>
<path fill="none" stroke="#9a32cd" stroke-dasharray="5,2" d="M65.8735,-69.5417C75.0437,-52.8316 86.8429,-31.3307 93.2851,-19.5915"/>
<polygon fill="#9a32cd" stroke="#9a32cd" points="62.5811,-68.2661 60.8384,-78.7167 68.7178,-71.6339 62.5811,-68.2661"/>
<text text-anchor="middle" x="102" y="-46.5" font-family="Helvetica,sans-Serif" font-size="10.00"> cluster_</text>
</g>
<!-- Node3 -->
<g id="node3" class="node"><title>Node3</title>
<g id="a_node3"><a xlink:href="classboost_1_1shared__ptr.html" target="_top" xlink:title="boost::shared_ptr\&lt; T \&gt;">
<polygon fill="none" stroke="black" points="56,-158.5 56,-177.5 172,-177.5 172,-158.5 56,-158.5"/>
<text text-anchor="middle" x="114" y="-165.5" font-family="Helvetica,sans-Serif" font-size="10.00">boost::shared_ptr&lt; T &gt;</text>
</a>
</g>
</g>
<!-- Node3&#45;&gt;Node2 -->
<g id="edge2" class="edge"><title>Node3&#45;&gt;Node2</title>
<path fill="none" stroke="orange" stroke-dasharray="5,2" d="M69.1375,-153.885C63.1748,-150.303 57.8146,-145.758 54,-140 48.0444,-131.01 48.2191,-118.636 49.6455,-109.138"/>
<polygon fill="orange" stroke="orange" points="67.6928,-157.077 78.1949,-158.476 70.8573,-150.833 67.6928,-157.077"/>
<text text-anchor="middle" x="104" y="-131.5" font-family="Helvetica,sans-Serif" font-size="10.00"> &lt; psi::Wavefunction &gt;</text>
</g>
<!-- Node4 -->
<g id="node4" class="node"><title>Node4</title>
<g id="a_node4"><a xlink:href="classboost_1_1shared__ptr.html" target="_top" xlink:title="boost::shared_ptr\&lt;\l psi::BasisSet \&gt;">
<polygon fill="none" stroke="black" points="126,-79 126,-109 224,-109 224,-79 126,-79"/>
<text text-anchor="start" x="134" y="-97" font-family="Helvetica,sans-Serif" font-size="10.00">boost::shared_ptr&lt;</text>
<text text-anchor="middle" x="175" y="-86" font-family="Helvetica,sans-Serif" font-size="10.00"> psi::BasisSet &gt;</text>
</a>
</g>
</g>
<!-- Node3&#45;&gt;Node4 -->
<g id="edge4" class="edge"><title>Node3&#45;&gt;Node4</title>
<path fill="none" stroke="orange" stroke-dasharray="5,2" d="M139.468,-152.848C144.715,-149.142 149.887,-144.816 154,-140 161.727,-130.953 167.225,-118.583 170.653,-109.102"/>
<polygon fill="orange" stroke="orange" points="137.249,-150.114 130.742,-158.475 141.043,-155.997 137.249,-150.114"/>
<text text-anchor="middle" x="202" y="-131.5" font-family="Helvetica,sans-Serif" font-size="10.00"> &lt; psi::BasisSet &gt;</text>
</g>
<!-- Node4&#45;&gt;Node1 -->
<g id="edge3" class="edge"><title>Node4&#45;&gt;Node1</title>
<path fill="none" stroke="#9a32cd" stroke-dasharray="5,2" d="M155.573,-71.1534C146.41,-60.9731 135.259,-48.7593 125,-38 119.144,-31.859 112.394,-25.109 107.108,-19.8942"/>
<polygon fill="#9a32cd" stroke="#9a32cd" points="153.16,-73.7044 162.44,-78.8152 158.372,-69.0324 153.16,-73.7044"/>
<text text-anchor="middle" x="165.5" y="-52" font-family="Helvetica,sans-Serif" font-size="10.00"> primary_</text>
<text text-anchor="middle" x="165.5" y="-41" font-family="Helvetica,sans-Serif" font-size="10.00">mp2fit_</text>
</g>
</g>
</svg>
