<?xml version="1.0" encoding="UTF-8" standalone="no"?>
<!DOCTYPE svg PUBLIC "-//W3C//DTD SVG 1.1//EN"
 "http://www.w3.org/Graphics/SVG/1.1/DTD/svg11.dtd">
<!-- Generated by graphviz version 2.30.1 (20140110.0959)
 -->
<!-- Title: psi::BasisSet::add Pages: 1 -->
<svg width="262pt" height="154pt"
 viewBox="0.00 0.00 262.00 154.00" xmlns="http://www.w3.org/2000/svg" xmlns:xlink="http://www.w3.org/1999/xlink">
<g id="graph0" class="graph" transform="scale(1 1) rotate(0) translate(4 150)">
<title>psi::BasisSet::add</title>
<!-- Node1 -->
<g id="node1" class="node"><title>Node1</title>
<polygon fill="#bfbfbf" stroke="black" points="0.5,-60.5 0.5,-79.5 97.5,-79.5 97.5,-60.5 0.5,-60.5"/>
<text text-anchor="middle" x="49" y="-67.5" font-family="Helvetica,sans-Serif" font-size="10.00">psi::BasisSet::add</text>
</g>
<!-- Node2 -->
<g id="node2" class="node"><title>Node2</title>
<g id="a_node2"><a xlink:href="classpsi_1_1BasisSet.html#acb64dc1fe2ff3b7a03d84eb1036b8f72" target="_top" xlink:title="psi::BasisSet::molecule">
<polygon fill="none" stroke="black" points="134,-126.5 134,-145.5 254,-145.5 254,-126.5 134,-126.5"/>
<text text-anchor="middle" x="194" y="-133.5" font-family="Helvetica,sans-Serif" font-size="10.00">psi::BasisSet::molecule</text>
</a>
</g>
</g>
<!-- Node1&#45;&gt;Node2 -->
<g id="edge1" class="edge"><title>Node1&#45;&gt;Node2</title>
<path fill="none" stroke="midnightblue" d="M65.6844,-79.6695C82.2518,-89.6234 109.339,-105.167 134,-116 139.582,-118.452 145.567,-120.794 151.507,-122.956"/>
<polygon fill="midnightblue" stroke="midnightblue" points="150.786,-126.412 161.38,-126.411 153.097,-119.805 150.786,-126.412"/>
</g>
<!-- Node3 -->
<g id="node3" class="node"><title>Node3</title>
<g id="a_node3"><a xlink:href="classpsi_1_1BasisSet.html#a6f4698dd8ae45cafd98638fe2489544c" target="_top" xlink:title="Return the number of shells on a given center.">
<polygon fill="none" stroke="black" points="140.5,-77 140.5,-107 247.5,-107 247.5,-77 140.5,-77"/>
<text text-anchor="start" x="148.5" y="-95" font-family="Helvetica,sans-Serif" font-size="10.00">psi::BasisSet::nshell</text>
<text text-anchor="middle" x="194" y="-84" font-family="Helvetica,sans-Serif" font-size="10.00">_on_center</text>
</a>
</g>
</g>
<!-- Node1&#45;&gt;Node3 -->
<g id="edge2" class="edge"><title>Node1&#45;&gt;Node3</title>
<path fill="none" stroke="midnightblue" d="M97.6169,-77.3257C108.067,-78.9334 119.287,-80.6595 130.23,-82.343"/>
<polygon fill="midnightblue" stroke="midnightblue" points="129.755,-85.8111 140.171,-83.8725 130.82,-78.8925 129.755,-85.8111"/>
</g>
<!-- Node4 -->
<g id="node4" class="node"><title>Node4</title>
<g id="a_node4"><a xlink:href="classpsi_1_1BasisSet.html#afbb927bc76c74ff1f9aa8a46f33df75c" target="_top" xlink:title="psi::BasisSet::shell">
<polygon fill="none" stroke="black" points="143.5,-38.5 143.5,-57.5 244.5,-57.5 244.5,-38.5 143.5,-38.5"/>
<text text-anchor="middle" x="194" y="-45.5" font-family="Helvetica,sans-Serif" font-size="10.00">psi::BasisSet::shell</text>
</a>
</g>
</g>
<!-- Node1&#45;&gt;Node4 -->
<g id="edge3" class="edge"><title>Node1&#45;&gt;Node4</title>
<path fill="none" stroke="midnightblue" d="M97.6169,-62.6743C108.928,-60.9341 121.14,-59.0553 132.927,-57.242"/>
<polygon fill="midnightblue" stroke="midnightblue" points="133.791,-60.6504 143.142,-55.6704 132.726,-53.7318 133.791,-60.6504"/>
</g>
<!-- Node5 -->
<g id="node5" class="node"><title>Node5</title>
<g id="a_node5"><a xlink:href="classpsi_1_1BasisSet.html#a2fbc50ebe98165b9f59fdfe09cf5b5d2" target="_top" xlink:title="psi::BasisSet::refresh">
<polygon fill="none" stroke="black" points="138.5,-0.5 138.5,-19.5 249.5,-19.5 249.5,-0.5 138.5,-0.5"/>
<text text-anchor="middle" x="194" y="-7.5" font-family="Helvetica,sans-Serif" font-size="10.00">psi::BasisSet::refresh</text>
</a>
</g>
</g>
<!-- Node1&#45;&gt;Node5 -->
<g id="edge4" class="edge"><title>Node1&#45;&gt;Node5</title>
<path fill="none" stroke="midnightblue" d="M67.6889,-60.4479C84.4616,-51.6124 110.517,-38.4561 134,-29 139.436,-26.8112 145.228,-24.6939 150.98,-22.7167"/>
<polygon fill="midnightblue" stroke="midnightblue" points="152.167,-26.0106 160.551,-19.5337 149.958,-19.3683 152.167,-26.0106"/>
</g>
</g>
</svg>
