<?xml version="1.0" encoding="UTF-8" standalone="no"?>
<!DOCTYPE svg PUBLIC "-//W3C//DTD SVG 1.1//EN"
 "http://www.w3.org/Graphics/SVG/1.1/DTD/svg11.dtd">
<!-- Generated by graphviz version 2.30.1 (20140110.0959)
 -->
<!-- Title: psi::PSIO::read Pages: 1 -->
<!--zoomable 429 -->
<svg id="main" version="1.1" xmlns="http://www.w3.org/2000/svg" xmlns:xlink="http://www.w3.org/1999/xlink" xml:space="preserve" onload="init(evt)">
        <defs>
                <circle id="rim" cx="0" cy="0" r="7"/>
                <circle id="rim2" cx="0" cy="0" r="3.5"/>
                <g id="zoomPlus">
                        <use xlink:href="#rim" fill="#404040">
                                <set attributeName="fill" to="#808080" begin="zoomplus.mouseover" end="zoomplus.mouseout"/>
                        </use>
                        <path d="M-4,0h8M0,-4v8" fill="none" stroke="white" stroke-width="1.5" pointer-events="none"/>
                </g>
                <g id="zoomMin">
                        <use xlink:href="#rim" fill="#404040">
                                <set attributeName="fill" to="#808080" begin="zoomminus.mouseover" end="zoomminus.mouseout"/>
                        </use>
                        <path d="M-4,0h8" fill="none" stroke="white" stroke-width="1.5" pointer-events="none"/>
                </g>
                <g id="dirArrow">
                        <path fill="none" stroke="white" stroke-width="1.5" d="M0,-3.0v7 M-2.5,-0.5L0,-3.0L2.5,-0.5"/>
                </g>
               <g id="resetDef">
                       <use xlink:href="#rim2" fill="#404040">
                               <set attributeName="fill" to="#808080" begin="reset.mouseover" end="reset.mouseout"/>
                       </use>
               </g>
        </defs>

<script type="text/javascript">
var viewWidth = 916;
var viewHeight = 429;
var sectionId = 'dynsection-3';
</script>
<script xlink:href="svgpan.js"/>
<svg id="graph" class="graph">
<g id="viewport">
<title>psi::PSIO::read</title>
<!-- Node1 -->
<g id="node1" class="node"><title>Node1</title>
<polygon fill="#bfbfbf" stroke="black" points="0,-373.5 0,-392.5 84,-392.5 84,-373.5 0,-373.5"/>
<text text-anchor="middle" x="42" y="-380.5" font-family="Helvetica,sans-Serif" font-size="10.00">psi::PSIO::read</text>
</g>
<!-- Node2 -->
<g id="node2" class="node"><title>Node2</title>
<g id="a_node2"><a xlink:href="group__PSIO.html#ga0b989c316ebc107f83ab7eb921a6f38c" target="_top" xlink:title="psi::PSIO::rw">
<polygon fill="none" stroke="black" points="135,-392.5 135,-411.5 211,-411.5 211,-392.5 135,-392.5"/>
<text text-anchor="middle" x="173" y="-399.5" font-family="Helvetica,sans-Serif" font-size="10.00">psi::PSIO::rw</text>
</a>
</g>
</g>
<!-- Node1&#45;&gt;Node2 -->
<g id="edge1" class="edge"><title>Node1&#45;&gt;Node2</title>
<path fill="none" stroke="midnightblue" d="M94.2062,-383.921C111.583,-386.139 130.305,-389.233 145.027,-392.418"/>
<polygon fill="midnightblue" stroke="midnightblue" points="94.5156,-380.433 84.1711,-382.723 93.6855,-387.384 94.5156,-380.433"/>
</g>
<!-- Node20 -->
<g id="node20" class="node"><title>Node20</title>
<g id="a_node20"><a xlink:href="classpsi_1_1PSIO.html#acaf0018068dc555a9fdbb0ba4662cc95" target="_top" xlink:title="psi::PSIO::rd_toclen">
<polygon fill="none" stroke="black" points="120.5,-316.5 120.5,-335.5 225.5,-335.5 225.5,-316.5 120.5,-316.5"/>
<text text-anchor="middle" x="173" y="-323.5" font-family="Helvetica,sans-Serif" font-size="10.00">psi::PSIO::rd_toclen</text>
</a>
</g>
</g>
<!-- Node1&#45;&gt;Node20 -->
<g id="edge25" class="edge"><title>Node1&#45;&gt;Node20</title>
<path fill="none" stroke="midnightblue" d="M73.8199,-369.382C97.421,-358.954 129.384,-344.83 150.338,-335.572"/>
<polygon fill="midnightblue" stroke="midnightblue" points="72.324,-366.216 64.5917,-373.459 75.1532,-372.619 72.324,-366.216"/>
</g>
<!-- Node2&#45;&gt;Node1 -->
<g id="edge2" class="edge"><title>Node2&#45;&gt;Node1</title>
<path fill="none" stroke="midnightblue" d="M124.524,-401.544C106.039,-399.295 85.5449,-395.962 69.7289,-392.53"/>
<polygon fill="midnightblue" stroke="midnightblue" points="124.215,-405.031 134.544,-402.676 125,-398.075 124.215,-405.031"/>
</g>
<!-- Node3 -->
<g id="node3" class="node"><title>Node3</title>
<g id="a_node3"><a xlink:href="classpsi_1_1PSIO.html#a32fcd89fe9072099cb993a455233cf15" target="_top" xlink:title="Write the table of contents for file number &#39;unit&#39;. NB: This function should NOT call psio_error beca...">
<polygon fill="none" stroke="black" points="262,-316.5 262,-335.5 362,-335.5 362,-316.5 262,-316.5"/>
<text text-anchor="middle" x="312" y="-323.5" font-family="Helvetica,sans-Serif" font-size="10.00">psi::PSIO::tocwrite</text>
</a>
</g>
</g>
<!-- Node2&#45;&gt;Node3 -->
<g id="edge3" class="edge"><title>Node2&#45;&gt;Node3</title>
<path fill="none" stroke="midnightblue" d="M200.417,-387.345C227.95,-372.071 270.292,-348.583 293.79,-335.547"/>
<polygon fill="midnightblue" stroke="midnightblue" points="198.398,-384.463 191.351,-392.375 201.794,-390.584 198.398,-384.463"/>
</g>
<!-- Node17 -->
<g id="node17" class="node"><title>Node17</title>
<g id="a_node17"><a xlink:href="classpsi_1_1PSIO.html#abaa2e29b2fbcab920d8daf8f5ae5419c" target="_top" xlink:title="psi::PSIO::write">
<polygon fill="none" stroke="black" points="670,-401.5 670,-420.5 756,-420.5 756,-401.5 670,-401.5"/>
<text text-anchor="middle" x="713" y="-408.5" font-family="Helvetica,sans-Serif" font-size="10.00">psi::PSIO::write</text>
</a>
</g>
</g>
<!-- Node2&#45;&gt;Node17 -->
<g id="edge24" class="edge"><title>Node2&#45;&gt;Node17</title>
<path fill="none" stroke="midnightblue" d="M221.589,-398.755C325.424,-396.816 570.904,-400.988 669.711,-406.447"/>
<polygon fill="midnightblue" stroke="midnightblue" points="221.325,-395.259 211.404,-398.976 221.478,-402.258 221.325,-395.259"/>
</g>
<!-- Node4 -->
<g id="node4" class="node"><title>Node4</title>
<g id="a_node4"><a xlink:href="classpsi_1_1PSIO.html#adbd402c15bc7514c6ccaf1838a138858" target="_top" xlink:title="close unit. if keep == 0, will remove the file, else keep it">
<polygon fill="none" stroke="black" points="398.5,-180.5 398.5,-199.5 487.5,-199.5 487.5,-180.5 398.5,-180.5"/>
<text text-anchor="middle" x="443" y="-187.5" font-family="Helvetica,sans-Serif" font-size="10.00">psi::PSIO::close</text>
</a>
</g>
</g>
<!-- Node3&#45;&gt;Node4 -->
<g id="edge4" class="edge"><title>Node3&#45;&gt;Node4</title>
<path fill="none" stroke="midnightblue" d="M329.233,-308.886C356.62,-280.013 411.135,-222.539 432.807,-199.692"/>
<polygon fill="midnightblue" stroke="midnightblue" points="326.62,-306.555 322.277,-316.219 331.699,-311.373 326.62,-306.555"/>
</g>
<!-- Node15 -->
<g id="node15" class="node"><title>Node15</title>
<g id="a_node15"><a xlink:href="classpsi_1_1PSIO.html#a8662dbc5874d1024d04427ecc01a2f93" target="_top" xlink:title="Delete all TOC entries after the given key. If a blank key is given, the entire TOC will be wiped...">
<polygon fill="none" stroke="black" points="662,-287.5 662,-306.5 764,-306.5 764,-287.5 662,-287.5"/>
<text text-anchor="middle" x="713" y="-294.5" font-family="Helvetica,sans-Serif" font-size="10.00">psi::PSIO::tocclean</text>
</a>
</g>
</g>
<!-- Node3&#45;&gt;Node15 -->
<g id="edge23" class="edge"><title>Node3&#45;&gt;Node15</title>
<path fill="none" stroke="midnightblue" d="M372.27,-323.377C435.271,-320.361 537.774,-314.801 626,-307 637.529,-305.981 649.903,-304.67 661.571,-303.335"/>
<polygon fill="midnightblue" stroke="midnightblue" points="371.948,-319.888 362.125,-323.857 372.279,-326.88 371.948,-319.888"/>
</g>
<!-- Node5 -->
<g id="node5" class="node"><title>Node5</title>
<g id="a_node5"><a xlink:href="classpsi_1_1IWL.html#a202f7c51f0e4852cb5c6068bc594acc3" target="_top" xlink:title="psi::IWL::init">
<polygon fill="none" stroke="black" points="677,-181.5 677,-200.5 749,-200.5 749,-181.5 677,-181.5"/>
<text text-anchor="middle" x="713" y="-188.5" font-family="Helvetica,sans-Serif" font-size="10.00">psi::IWL::init</text>
</a>
</g>
</g>
<!-- Node4&#45;&gt;Node5 -->
<g id="edge5" class="edge"><title>Node4&#45;&gt;Node5</title>
<path fill="none" stroke="midnightblue" d="M464.08,-174.467C479.514,-163.56 501.874,-149.908 524,-144 567.799,-132.306 582.077,-132.781 626,-144 654.355,-151.243 683.43,-169.97 699.457,-181.479"/>
<polygon fill="midnightblue" stroke="midnightblue" points="461.851,-171.761 455.848,-180.491 465.985,-177.41 461.851,-171.761"/>
</g>
<!-- Node6 -->
<g id="node6" class="node"><title>Node6</title>
<g id="a_node6"><a xlink:href="classpsi_1_1Chkpt.html#aca792d05dece12c66d19cf2938bf0c50" target="_top" xlink:title="psi::Chkpt::~Chkpt">
<polygon fill="none" stroke="black" points="525,-0.5 525,-19.5 625,-19.5 625,-0.5 525,-0.5"/>
<text text-anchor="middle" x="575" y="-7.5" font-family="Helvetica,sans-Serif" font-size="10.00">psi::Chkpt::~Chkpt</text>
</a>
</g>
</g>
<!-- Node4&#45;&gt;Node6 -->
<g id="edge6" class="edge"><title>Node4&#45;&gt;Node6</title>
<path fill="none" stroke="midnightblue" d="M448.765,-170.176C457.814,-136.6 480.578,-68.362 524,-29 528.266,-25.1332 533.398,-22.0249 538.727,-19.5346"/>
<polygon fill="midnightblue" stroke="midnightblue" points="445.303,-169.587 446.212,-180.143 452.084,-171.324 445.303,-169.587"/>
</g>
<!-- Node7 -->
<g id="node7" class="node"><title>Node7</title>
<g id="a_node7"><a xlink:href="classpsi_1_1Matrix.html#a504437ba978cdadc160b0a41e7bdc1b0" target="_top" xlink:title="psi::Matrix::save">
<polygon fill="none" stroke="black" points="530.5,-278.5 530.5,-297.5 619.5,-297.5 619.5,-278.5 530.5,-278.5"/>
<text text-anchor="middle" x="575" y="-285.5" font-family="Helvetica,sans-Serif" font-size="10.00">psi::Matrix::save</text>
</a>
</g>
</g>
<!-- Node4&#45;&gt;Node7 -->
<g id="edge7" class="edge"><title>Node4&#45;&gt;Node7</title>
<path fill="none" stroke="midnightblue" d="M457.797,-207.36C472.562,-224.957 497.469,-251.952 524,-269 529.781,-272.715 536.398,-275.869 542.884,-278.478"/>
<polygon fill="midnightblue" stroke="midnightblue" points="460.448,-205.074 451.4,-199.562 455.036,-209.513 460.448,-205.074"/>
</g>
<!-- Node8 -->
<g id="node8" class="node"><title>Node8</title>
<g id="a_node8"><a xlink:href="classpsi_1_1Matrix.html#a5565e99a42eea2302f10857c1dc2b28c" target="_top" xlink:title="psi::Matrix::load">
<polygon fill="none" stroke="black" points="532,-240.5 532,-259.5 618,-259.5 618,-240.5 532,-240.5"/>
<text text-anchor="middle" x="575" y="-247.5" font-family="Helvetica,sans-Serif" font-size="10.00">psi::Matrix::load</text>
</a>
</g>
</g>
<!-- Node4&#45;&gt;Node8 -->
<g id="edge8" class="edge"><title>Node4&#45;&gt;Node8</title>
<path fill="none" stroke="midnightblue" d="M470.18,-204.344C485.634,-212.576 505.695,-222.861 524,-231 531.467,-234.32 539.709,-237.603 547.31,-240.481"/>
<polygon fill="midnightblue" stroke="midnightblue" points="471.675,-201.174 461.21,-199.521 468.36,-207.339 471.675,-201.174"/>
</g>
<!-- Node9 -->
<g id="node9" class="node"><title>Node9</title>
<g id="a_node9"><a xlink:href="classpsi_1_1PSIO.html#a55e993b2eb05c261d90888c90d854e23" target="_top" xlink:title="check if a psi unit already exists or not">
<polygon fill="none" stroke="black" points="529,-202.5 529,-221.5 621,-221.5 621,-202.5 529,-202.5"/>
<text text-anchor="middle" x="575" y="-209.5" font-family="Helvetica,sans-Serif" font-size="10.00">psi::PSIO::exists</text>
</a>
</g>
</g>
<!-- Node4&#45;&gt;Node9 -->
<g id="edge9" class="edge"><title>Node4&#45;&gt;Node9</title>
<path fill="none" stroke="midnightblue" d="M497.818,-199.108C508.156,-200.857 518.884,-202.673 528.911,-204.37"/>
<polygon fill="midnightblue" stroke="midnightblue" points="498.094,-195.605 487.65,-197.387 496.926,-202.506 498.094,-195.605"/>
</g>
<!-- Node10 -->
<g id="node10" class="node"><title>Node10</title>
<g id="a_node10"><a xlink:href="classpsi_1_1PSIO.html#a23ff92893b98ff855a4a2a0f46798965" target="_top" xlink:title="sync up the object to the file on disk by closing and opening the file, if necessary">
<polygon fill="none" stroke="black" points="527.5,-76.5 527.5,-95.5 622.5,-95.5 622.5,-76.5 527.5,-76.5"/>
<text text-anchor="middle" x="575" y="-83.5" font-family="Helvetica,sans-Serif" font-size="10.00">psi::PSIO::rehash</text>
</a>
</g>
</g>
<!-- Node4&#45;&gt;Node10 -->
<g id="edge10" class="edge"><title>Node4&#45;&gt;Node10</title>
<path fill="none" stroke="midnightblue" d="M458.297,-172.583C473.3,-155.112 498.245,-128.249 524,-110 531.935,-104.377 541.391,-99.4557 549.934,-95.557"/>
<polygon fill="midnightblue" stroke="midnightblue" points="455.539,-170.424 451.771,-180.326 460.892,-174.935 455.539,-170.424"/>
</g>
<!-- Node12 -->
<g id="node12" class="node"><title>Node12</title>
<g id="a_node12"><a xlink:href="classpsi_1_1PSIO.html#a12ae14f94e24babb41b403a059ab9855" target="_top" xlink:title="Print the table of contents for the given unit.">
<polygon fill="none" stroke="black" points="526,-38.5 526,-57.5 624,-57.5 624,-38.5 526,-38.5"/>
<text text-anchor="middle" x="575" y="-45.5" font-family="Helvetica,sans-Serif" font-size="10.00">psi::PSIO::tocprint</text>
</a>
</g>
</g>
<!-- Node4&#45;&gt;Node12 -->
<g id="edge12" class="edge"><title>Node4&#45;&gt;Node12</title>
<path fill="none" stroke="midnightblue" d="M451.859,-170.778C463.723,-143.989 488.639,-95.5158 524,-67 528.771,-63.1527 534.405,-60.0263 540.14,-57.5048"/>
<polygon fill="midnightblue" stroke="midnightblue" points="448.543,-169.631 447.83,-180.202 454.979,-172.383 448.543,-169.631"/>
</g>
<!-- Node13 -->
<g id="node13" class="node"><title>Node13</title>
<g id="a_node13"><a xlink:href="classpsi_1_1PSIO.html#a5646f6a4991f52588a42e54bad3261ef" target="_top" xlink:title="Scans the TOC for a particular keyword and returns either a pointer to the entry or NULL to the calle...">
<polygon fill="none" stroke="black" points="525,-354.5 525,-373.5 625,-373.5 625,-354.5 525,-354.5"/>
<text text-anchor="middle" x="575" y="-361.5" font-family="Helvetica,sans-Serif" font-size="10.00">psi::PSIO::tocscan</text>
</a>
</g>
</g>
<!-- Node4&#45;&gt;Node13 -->
<g id="edge13" class="edge"><title>Node4&#45;&gt;Node13</title>
<path fill="none" stroke="midnightblue" d="M455.508,-208.257C470.497,-231.69 497.881,-273.34 524,-307 537.396,-324.264 554.443,-343.105 564.773,-354.22"/>
<polygon fill="midnightblue" stroke="midnightblue" points="458.372,-206.238 450.054,-199.676 452.465,-209.993 458.372,-206.238"/>
</g>
<!-- Node19 -->
<g id="node19" class="node"><title>Node19</title>
<g id="a_node19"><a xlink:href="classpsi_1_1PSIO.html#abb58a8a71cf2dcdfa8f596310e8e7a11" target="_top" xlink:title="Checks the TOC to see if a particular keyword exists there or not.">
<polygon fill="none" stroke="black" points="524.5,-153 524.5,-183 625.5,-183 625.5,-153 524.5,-153"/>
<text text-anchor="start" x="532.5" y="-171" font-family="Helvetica,sans-Serif" font-size="10.00">psi::PSIO::tocentry</text>
<text text-anchor="middle" x="575" y="-160" font-family="Helvetica,sans-Serif" font-size="10.00">_exists</text>
</a>
</g>
</g>
<!-- Node4&#45;&gt;Node19 -->
<g id="edge22" class="edge"><title>Node4&#45;&gt;Node19</title>
<path fill="none" stroke="midnightblue" d="M497.531,-180.941C506.427,-179.435 515.619,-177.88 524.412,-176.392"/>
<polygon fill="midnightblue" stroke="midnightblue" points="496.926,-177.494 487.65,-182.613 498.094,-184.395 496.926,-177.494"/>
</g>
<!-- Node11 -->
<g id="node11" class="node"><title>Node11</title>
<g id="a_node11"><a xlink:href="classpsi_1_1Chkpt.html#a7e767ca0c7ddc8c6657bc2963a875531" target="_top" xlink:title="update this object. call rehash() if the state of the checkpoint file may have changed">
<polygon fill="none" stroke="black" points="664.5,-76.5 664.5,-95.5 761.5,-95.5 761.5,-76.5 664.5,-76.5"/>
<text text-anchor="middle" x="713" y="-83.5" font-family="Helvetica,sans-Serif" font-size="10.00">psi::Chkpt::rehash</text>
</a>
</g>
</g>
<!-- Node10&#45;&gt;Node11 -->
<g id="edge11" class="edge"><title>Node10&#45;&gt;Node11</title>
<path fill="none" stroke="midnightblue" d="M633.021,-86C643.393,-86 654.114,-86 664.186,-86"/>
<polygon fill="midnightblue" stroke="midnightblue" points="632.804,-82.5001 622.803,-86 632.803,-89.5001 632.804,-82.5001"/>
</g>
<!-- Node13&#45;&gt;Node5 -->
<g id="edge14" class="edge"><title>Node13&#45;&gt;Node5</title>
<path fill="none" stroke="midnightblue" d="M592.084,-346.424C602.08,-335.317 615.064,-320.551 626,-307 657.017,-268.567 691.224,-220.592 705.344,-200.52"/>
<polygon fill="midnightblue" stroke="midnightblue" points="589.228,-344.363 585.106,-354.124 594.414,-349.064 589.228,-344.363"/>
</g>
<!-- Node14 -->
<g id="node14" class="node"><title>Node14</title>
<g id="a_node14"><a xlink:href="classpsi_1_1Chkpt.html#a077936f112012a2de9dd5c36f6450263" target="_top" xlink:title="psi::Chkpt::Chkpt">
<polygon fill="none" stroke="black" points="666,-325.5 666,-344.5 760,-344.5 760,-325.5 666,-325.5"/>
<text text-anchor="middle" x="713" y="-332.5" font-family="Helvetica,sans-Serif" font-size="10.00">psi::Chkpt::Chkpt</text>
</a>
</g>
</g>
<!-- Node13&#45;&gt;Node14 -->
<g id="edge15" class="edge"><title>Node13&#45;&gt;Node14</title>
<path fill="none" stroke="midnightblue" d="M630.862,-352.302C642.913,-349.732 655.536,-347.04 667.139,-344.566"/>
<polygon fill="midnightblue" stroke="midnightblue" points="629.959,-348.915 620.908,-354.424 631.418,-355.761 629.959,-348.915"/>
</g>
<!-- Node13&#45;&gt;Node1 -->
<g id="edge16" class="edge"><title>Node13&#45;&gt;Node1</title>
<path fill="none" stroke="midnightblue" d="M514.699,-366.122C406.062,-370.009 177.704,-378.18 84.2248,-381.525"/>
<polygon fill="midnightblue" stroke="midnightblue" points="514.961,-369.615 524.83,-365.759 514.711,-362.619 514.961,-369.615"/>
</g>
<!-- Node13&#45;&gt;Node15 -->
<g id="edge17" class="edge"><title>Node13&#45;&gt;Node15</title>
<path fill="none" stroke="midnightblue" d="M606.874,-350.018C613.282,-346.884 619.929,-343.458 626,-340 642.709,-330.483 644.904,-324.804 662,-316 668.77,-312.514 676.333,-309.311 683.486,-306.569"/>
<polygon fill="midnightblue" stroke="midnightblue" points="605.269,-346.906 597.751,-354.371 608.284,-353.224 605.269,-346.906"/>
</g>
<!-- Node16 -->
<g id="node16" class="node"><title>Node16</title>
<g id="a_node16"><a xlink:href="classpsi_1_1PSIO.html#abb4334d8aaaa03e32d8b9d9450b598e1" target="_top" xlink:title="delete a specific TOC entry (only deletes entry, not data)">
<polygon fill="none" stroke="black" points="667,-363.5 667,-382.5 759,-382.5 759,-363.5 667,-363.5"/>
<text text-anchor="middle" x="713" y="-370.5" font-family="Helvetica,sans-Serif" font-size="10.00">psi::PSIO::tocdel</text>
</a>
</g>
</g>
<!-- Node13&#45;&gt;Node16 -->
<g id="edge18" class="edge"><title>Node13&#45;&gt;Node16</title>
<path fill="none" stroke="midnightblue" d="M635.096,-367.911C645.652,-368.609 656.499,-369.327 666.596,-369.995"/>
<polygon fill="midnightblue" stroke="midnightblue" points="635.308,-364.417 625.099,-367.249 634.846,-371.402 635.308,-364.417"/>
</g>
<!-- Node13&#45;&gt;Node17 -->
<g id="edge19" class="edge"><title>Node13&#45;&gt;Node17</title>
<path fill="none" stroke="midnightblue" d="M613.046,-376.803C635.44,-384.542 663.528,-394.249 684.053,-401.342"/>
<polygon fill="midnightblue" stroke="midnightblue" points="614.116,-373.47 603.522,-373.511 611.83,-380.086 614.116,-373.47"/>
</g>
<!-- Node17&#45;&gt;Node2 -->
<g id="edge20" class="edge"><title>Node17&#45;&gt;Node2</title>
<path fill="none" stroke="midnightblue" d="M659.68,-414.328C551.474,-416.089 305.359,-411.787 211.404,-406.275"/>
<polygon fill="midnightblue" stroke="midnightblue" points="659.779,-417.827 669.711,-414.138 659.647,-410.828 659.779,-417.827"/>
</g>
<!-- Node18 -->
<g id="node18" class="node"><title>Node18</title>
<g id="a_node18"><a xlink:href="classpsi_1_1PSIO.html#abc5f81207cc631e4b944507ca0621381" target="_top" xlink:title="psi::PSIO::zero_disk">
<polygon fill="none" stroke="black" points="800.5,-401.5 800.5,-420.5 907.5,-420.5 907.5,-401.5 800.5,-401.5"/>
<text text-anchor="middle" x="854" y="-408.5" font-family="Helvetica,sans-Serif" font-size="10.00">psi::PSIO::zero_disk</text>
</a>
</g>
</g>
<!-- Node17&#45;&gt;Node18 -->
<g id="edge21" class="edge"><title>Node17&#45;&gt;Node18</title>
<path fill="none" stroke="midnightblue" d="M766.168,-411C777.387,-411 789.251,-411 800.483,-411"/>
<polygon fill="midnightblue" stroke="midnightblue" points="766.082,-407.5 756.082,-411 766.082,-414.5 766.082,-407.5"/>
</g>
</g>
</svg>
        <g id="navigator" transform="translate(0 0)" fill="#404254">
                <rect fill="#f2f5e9" fill-opacity="0.5" stroke="#606060" stroke-width=".5" x="0" y="0" width="60" height="60"/>
                <use id="zoomplus" xlink:href="#zoomPlus" x="17" y="9" onmousedown="handleZoom(evt,'in')"/>
                <use id="zoomminus" xlink:href="#zoomMin" x="42" y="9" onmousedown="handleZoom(evt,'out')"/>
                <use id="reset" xlink:href="#resetDef" x="30" y="36" onmousedown="handleReset()"/>
                <g id="arrowUp" xlink:href="#dirArrow" transform="translate(30 24)" onmousedown="handlePan(0,-1)">
                  <use xlink:href="#rim" fill="#404040">
                        <set attributeName="fill" to="#808080" begin="arrowUp.mouseover" end="arrowUp.mouseout"/>
                  </use>
                  <path fill="none" stroke="white" stroke-width="1.5" d="M0,-3.0v7 M-2.5,-0.5L0,-3.0L2.5,-0.5"/>
                </g>
                <g id="arrowRight" xlink:href="#dirArrow" transform="rotate(90) translate(36 -43)" onmousedown="handlePan(1,0)">
                  <use xlink:href="#rim" fill="#404040">
                        <set attributeName="fill" to="#808080" begin="arrowRight.mouseover" end="arrowRight.mouseout"/>
                  </use>
                  <path fill="none" stroke="white" stroke-width="1.5" d="M0,-3.0v7 M-2.5,-0.5L0,-3.0L2.5,-0.5"/>
                </g>
                <g id="arrowDown" xlink:href="#dirArrow" transform="rotate(180) translate(-30 -48)" onmousedown="handlePan(0,1)">
                  <use xlink:href="#rim" fill="#404040">
                        <set attributeName="fill" to="#808080" begin="arrowDown.mouseover" end="arrowDown.mouseout"/>
                  </use>
                  <path fill="none" stroke="white" stroke-width="1.5" d="M0,-3.0v7 M-2.5,-0.5L0,-3.0L2.5,-0.5"/>
                </g>
                <g id="arrowLeft" xlink:href="#dirArrow" transform="rotate(270) translate(-36 17)" onmousedown="handlePan(-1,0)">
                  <use xlink:href="#rim" fill="#404040">
                        <set attributeName="fill" to="#808080" begin="arrowLeft.mouseover" end="arrowLeft.mouseout"/>
                  </use>
                  <path fill="none" stroke="white" stroke-width="1.5" d="M0,-3.0v7 M-2.5,-0.5L0,-3.0L2.5,-0.5"/>
                </g>
        </g>
        <svg viewBox="0 0 15 15" width="100%" height="30px" preserveAspectRatio="xMaxYMin meet">
         <g id="arrow_out" transform="scale(0.3 0.3)">
          <a xlink:href="classpsi_1_1PSIO_a20e9bd359e831a80b55ec64673394cd0_icgraph_org.svg" target="_base">
           <rect id="button" ry="5" rx="5" y="6" x="6" height="38" width="38"
                fill="#f2f5e9" fill-opacity="0.5" stroke="#606060" stroke-width="1.0"/>
           <path id="arrow"
             d="M 11.500037,31.436501 C 11.940474,20.09759 22.043105,11.32322 32.158766,21.979434 L 37.068811,17.246167 C 37.068811,17.246167 37.088388,32 37.088388,32 L 22.160133,31.978069 C 22.160133,31.978069 26.997745,27.140456 26.997745,27.140456 C 18.528582,18.264221 13.291696,25.230495 11.500037,31.436501 z"
             style="fill:#404040;"/>
          </a>
         </g>
        </svg>
</svg>
