<?xml version="1.0" encoding="UTF-8" standalone="no"?>
<!DOCTYPE svg PUBLIC "-//W3C//DTD SVG 1.1//EN"
 "http://www.w3.org/Graphics/SVG/1.1/DTD/svg11.dtd">
<!-- Generated by graphviz version 2.30.1 (20140110.0959)
 -->
<!-- Title: psi::dcft::DCFTSolver::dpd_buf4_add Pages: 1 -->
<svg width="310pt" height="136pt"
 viewBox="0.00 0.00 310.00 136.00" xmlns="http://www.w3.org/2000/svg" xmlns:xlink="http://www.w3.org/1999/xlink">
<g id="graph0" class="graph" transform="scale(1 1) rotate(0) translate(4 132)">
<title>psi::dcft::DCFTSolver::dpd_buf4_add</title>
<!-- Node1 -->
<g id="node1" class="node"><title>Node1</title>
<polygon fill="#bfbfbf" stroke="black" points="0.5,-49 0.5,-79 113.5,-79 113.5,-49 0.5,-49"/>
<text text-anchor="start" x="8.5" y="-67" font-family="Helvetica,sans-Serif" font-size="10.00">psi::dcft::DCFTSolver</text>
<text text-anchor="middle" x="57" y="-56" font-family="Helvetica,sans-Serif" font-size="10.00">::dpd_buf4_add</text>
</g>
<!-- Node2 -->
<g id="node2" class="node"><title>Node2</title>
<g id="a_node2"><a xlink:href="classpsi_1_1dcft_1_1DCFTSolver.html#a954aefa91dd3d583cb245a5877226379" target="_top" xlink:title="psi::dcft::DCFTSolver\l::build_cumulant_intermediates">
<polygon fill="none" stroke="black" points="150,-98 150,-128 302,-128 302,-98 150,-98"/>
<text text-anchor="start" x="158" y="-116" font-family="Helvetica,sans-Serif" font-size="10.00">psi::dcft::DCFTSolver</text>
<text text-anchor="middle" x="226" y="-105" font-family="Helvetica,sans-Serif" font-size="10.00">::build_cumulant_intermediates</text>
</a>
</g>
</g>
<!-- Node1&#45;&gt;Node2 -->
<g id="edge1" class="edge"><title>Node1&#45;&gt;Node2</title>
<path fill="none" stroke="midnightblue" d="M119.234,-81.967C137.127,-87.217 156.492,-92.8989 173.702,-97.9484"/>
<polygon fill="midnightblue" stroke="midnightblue" points="120.049,-78.5585 109.468,-79.1014 118.078,-85.2754 120.049,-78.5585"/>
</g>
<!-- Node3 -->
<g id="node3" class="node"><title>Node3</title>
<g id="a_node3"><a xlink:href="classpsi_1_1dcft_1_1DCFTSolver.html#ab72e321400d20091a09c3cbd8b271240" target="_top" xlink:title="psi::dcft::DCFTSolver\l::compute_cumulant_residual">
<polygon fill="none" stroke="black" points="154,-49 154,-79 298,-79 298,-49 154,-49"/>
<text text-anchor="start" x="162" y="-67" font-family="Helvetica,sans-Serif" font-size="10.00">psi::dcft::DCFTSolver</text>
<text text-anchor="middle" x="226" y="-56" font-family="Helvetica,sans-Serif" font-size="10.00">::compute_cumulant_residual</text>
</a>
</g>
</g>
<!-- Node1&#45;&gt;Node3 -->
<g id="edge2" class="edge"><title>Node1&#45;&gt;Node3</title>
<path fill="none" stroke="midnightblue" d="M123.765,-64C133.655,-64 143.893,-64 153.889,-64"/>
<polygon fill="midnightblue" stroke="midnightblue" points="123.609,-60.5001 113.609,-64 123.609,-67.5001 123.609,-60.5001"/>
</g>
<!-- Node4 -->
<g id="node4" class="node"><title>Node4</title>
<g id="a_node4"><a xlink:href="classpsi_1_1dcft_1_1DCFTSolver.html#a6e9de348815e88fb7ed12a1efa9c883d" target="_top" xlink:title="psi::dcft::DCFTSolver\l::update_cumulant_jacobi">
<polygon fill="none" stroke="black" points="162,-0 162,-30 290,-30 290,-0 162,-0"/>
<text text-anchor="start" x="170" y="-18" font-family="Helvetica,sans-Serif" font-size="10.00">psi::dcft::DCFTSolver</text>
<text text-anchor="middle" x="226" y="-7" font-family="Helvetica,sans-Serif" font-size="10.00">::update_cumulant_jacobi</text>
</a>
</g>
</g>
<!-- Node1&#45;&gt;Node4 -->
<g id="edge3" class="edge"><title>Node1&#45;&gt;Node4</title>
<path fill="none" stroke="midnightblue" d="M119.234,-46.033C137.127,-40.783 156.492,-35.1011 173.702,-30.0516"/>
<polygon fill="midnightblue" stroke="midnightblue" points="118.078,-42.7246 109.468,-48.8986 120.049,-49.4415 118.078,-42.7246"/>
</g>
</g>
</svg>
