<?xml version="1.0" encoding="UTF-8" standalone="no"?>
<!DOCTYPE svg PUBLIC "-//W3C//DTD SVG 1.1//EN"
 "http://www.w3.org/Graphics/SVG/1.1/DTD/svg11.dtd">
<!-- Generated by graphviz version 2.30.1 (20140110.0959)
 -->
<!-- Title: psi::Matrix::transform Pages: 1 -->
<svg width="400pt" height="123pt"
 viewBox="0.00 0.00 400.00 123.00" xmlns="http://www.w3.org/2000/svg" xmlns:xlink="http://www.w3.org/1999/xlink">
<g id="graph0" class="graph" transform="scale(1 1) rotate(0) translate(4 119)">
<title>psi::Matrix::transform</title>
<!-- Node1 -->
<g id="node1" class="node"><title>Node1</title>
<polygon fill="#bfbfbf" stroke="black" points="0,-57.5 0,-76.5 110,-76.5 110,-57.5 0,-57.5"/>
<text text-anchor="middle" x="55" y="-64.5" font-family="Helvetica,sans-Serif" font-size="10.00">psi::Matrix::transform</text>
</g>
<!-- Node2 -->
<g id="node2" class="node"><title>Node2</title>
<g id="a_node2"><a xlink:href="classpsi_1_1Matrix.html#a3286e581ac7248f58ae3de82cd29cc6d" target="_top" xlink:title="Returns the columns per irrep array.">
<polygon fill="none" stroke="black" points="148,-95.5 148,-114.5 242,-114.5 242,-95.5 148,-95.5"/>
<text text-anchor="middle" x="195" y="-102.5" font-family="Helvetica,sans-Serif" font-size="10.00">psi::Matrix::colspi</text>
</a>
</g>
</g>
<!-- Node1&#45;&gt;Node2 -->
<g id="edge1" class="edge"><title>Node1&#45;&gt;Node2</title>
<path fill="none" stroke="midnightblue" d="M90.8232,-76.589C108.638,-81.4944 130.518,-87.5196 149.539,-92.7571"/>
<polygon fill="midnightblue" stroke="midnightblue" points="148.618,-96.1336 159.188,-95.4141 150.476,-89.3848 148.618,-96.1336"/>
</g>
<!-- Node3 -->
<g id="node3" class="node"><title>Node3</title>
<g id="a_node3"><a xlink:href="classpsi_1_1Matrix.html#ab375f9e8a5d1c9b4c08667c728ff04d2" target="_top" xlink:title="Returns the rows per irrep array.">
<polygon fill="none" stroke="black" points="146.5,-57.5 146.5,-76.5 243.5,-76.5 243.5,-57.5 146.5,-57.5"/>
<text text-anchor="middle" x="195" y="-64.5" font-family="Helvetica,sans-Serif" font-size="10.00">psi::Matrix::rowspi</text>
</a>
</g>
</g>
<!-- Node1&#45;&gt;Node3 -->
<g id="edge2" class="edge"><title>Node1&#45;&gt;Node3</title>
<path fill="none" stroke="midnightblue" d="M110.145,-67C118.72,-67 127.617,-67 136.27,-67"/>
<polygon fill="midnightblue" stroke="midnightblue" points="136.283,-70.5001 146.283,-67 136.283,-63.5001 136.283,-70.5001"/>
</g>
<!-- Node4 -->
<g id="node4" class="node"><title>Node4</title>
<g id="a_node4"><a xlink:href="classpsi_1_1Matrix.html#a1fd3e741578fbeeefc2f1486d4215970" target="_top" xlink:title="psi::Matrix::gemm">
<polygon fill="none" stroke="black" points="147.5,-19.5 147.5,-38.5 242.5,-38.5 242.5,-19.5 147.5,-19.5"/>
<text text-anchor="middle" x="195" y="-26.5" font-family="Helvetica,sans-Serif" font-size="10.00">psi::Matrix::gemm</text>
</a>
</g>
</g>
<!-- Node1&#45;&gt;Node4 -->
<g id="edge3" class="edge"><title>Node1&#45;&gt;Node4</title>
<path fill="none" stroke="midnightblue" d="M90.8232,-57.411C108.638,-52.5056 130.518,-46.4804 149.539,-41.2429"/>
<polygon fill="midnightblue" stroke="midnightblue" points="150.476,-44.6152 159.188,-38.5859 148.618,-37.8664 150.476,-44.6152"/>
</g>
<!-- Node5 -->
<g id="node5" class="node"><title>Node5</title>
<g id="a_node5"><a xlink:href="classpsi_1_1Matrix.html#a32bcf25d82e525256de2eaff81051278" target="_top" xlink:title="psi::Matrix::symmetry">
<polygon fill="none" stroke="black" points="280,-38.5 280,-57.5 392,-57.5 392,-38.5 280,-38.5"/>
<text text-anchor="middle" x="336" y="-45.5" font-family="Helvetica,sans-Serif" font-size="10.00">psi::Matrix::symmetry</text>
</a>
</g>
</g>
<!-- Node4&#45;&gt;Node5 -->
<g id="edge4" class="edge"><title>Node4&#45;&gt;Node5</title>
<path fill="none" stroke="midnightblue" d="M242.672,-35.3796C251.267,-36.5545 260.387,-37.8011 269.418,-39.0355"/>
<polygon fill="midnightblue" stroke="midnightblue" points="269.162,-42.533 279.544,-40.4197 270.11,-35.5975 269.162,-42.533"/>
</g>
<!-- Node6 -->
<g id="node6" class="node"><title>Node6</title>
<g id="a_node6"><a xlink:href="namespacepsi.html#a1112df35ff9d2b780efb0c24662f4fbe" target="_top" xlink:title="psi::C_DGEMM">
<polygon fill="none" stroke="black" points="293,-0.5 293,-19.5 379,-19.5 379,-0.5 293,-0.5"/>
<text text-anchor="middle" x="336" y="-7.5" font-family="Helvetica,sans-Serif" font-size="10.00">psi::C_DGEMM</text>
</a>
</g>
</g>
<!-- Node4&#45;&gt;Node6 -->
<g id="edge5" class="edge"><title>Node4&#45;&gt;Node6</title>
<path fill="none" stroke="midnightblue" d="M242.672,-22.6204C255.492,-20.8681 269.477,-18.9563 282.596,-17.1631"/>
<polygon fill="midnightblue" stroke="midnightblue" points="283.459,-20.5778 292.893,-15.7556 282.511,-13.6423 283.459,-20.5778"/>
</g>
</g>
</svg>
