<?xml version="1.0" encoding="UTF-8" standalone="no"?>
<!DOCTYPE svg PUBLIC "-//W3C//DTD SVG 1.1//EN"
 "http://www.w3.org/Graphics/SVG/1.1/DTD/svg11.dtd">
<!-- Generated by graphviz version 2.30.1 (20140110.0959)
 -->
<!-- Title: yeti::Matrix::subtract Pages: 1 -->
<svg width="378pt" height="180pt"
 viewBox="0.00 0.00 378.00 180.00" xmlns="http://www.w3.org/2000/svg" xmlns:xlink="http://www.w3.org/1999/xlink">
<g id="graph0" class="graph" transform="scale(1 1) rotate(0) translate(4 176)">
<title>yeti::Matrix::subtract</title>
<!-- Node1 -->
<g id="node1" class="node"><title>Node1</title>
<polygon fill="#bfbfbf" stroke="black" points="0.5,-76.5 0.5,-95.5 107.5,-95.5 107.5,-76.5 0.5,-76.5"/>
<text text-anchor="middle" x="54" y="-83.5" font-family="Helvetica,sans-Serif" font-size="10.00">yeti::Matrix::subtract</text>
</g>
<!-- Node2 -->
<g id="node2" class="node"><title>Node2</title>
<g id="a_node2"><a xlink:href="classyeti_1_1Matrix.html#a8c591dc1c7b574301856e99d023fce2a" target="_top" xlink:title="yeti::Matrix::nrow">
<polygon fill="none" stroke="black" points="148,-152.5 148,-171.5 240,-171.5 240,-152.5 148,-152.5"/>
<text text-anchor="middle" x="194" y="-159.5" font-family="Helvetica,sans-Serif" font-size="10.00">yeti::Matrix::nrow</text>
</a>
</g>
</g>
<!-- Node1&#45;&gt;Node2 -->
<g id="edge1" class="edge"><title>Node1&#45;&gt;Node2</title>
<path fill="none" stroke="midnightblue" d="M70.558,-95.5577C88.1693,-106.266 117.819,-123.964 144,-138 150.17,-141.308 156.862,-144.706 163.259,-147.867"/>
<polygon fill="midnightblue" stroke="midnightblue" points="161.805,-151.051 172.327,-152.289 164.873,-144.76 161.805,-151.051"/>
</g>
<!-- Node3 -->
<g id="node3" class="node"><title>Node3</title>
<g id="a_node3"><a xlink:href="classyeti_1_1Matrix.html#a23a609b7f175d361da6600f418df4c2a" target="_top" xlink:title="yeti::Matrix::ncol">
<polygon fill="none" stroke="black" points="280.5,-76.5 280.5,-95.5 369.5,-95.5 369.5,-76.5 280.5,-76.5"/>
<text text-anchor="middle" x="325" y="-83.5" font-family="Helvetica,sans-Serif" font-size="10.00">yeti::Matrix::ncol</text>
</a>
</g>
</g>
<!-- Node1&#45;&gt;Node3 -->
<g id="edge2" class="edge"><title>Node1&#45;&gt;Node3</title>
<path fill="none" stroke="midnightblue" d="M91.0962,-95.5088C107.167,-99.2736 126.402,-103.143 144,-105 188.199,-109.665 199.857,-110.17 244,-105 256.406,-103.547 269.677,-100.868 281.773,-97.9699"/>
<polygon fill="midnightblue" stroke="midnightblue" points="282.762,-101.33 291.612,-95.5066 281.062,-94.54 282.762,-101.33"/>
</g>
<!-- Node4 -->
<g id="node4" class="node"><title>Node4</title>
<g id="a_node4"><a xlink:href="classyeti_1_1Matrix.html#a7270ffd63fe4704809e6bbac257662ce" target="_top" xlink:title="yeti::Matrix::data">
<polygon fill="none" stroke="black" points="149,-76.5 149,-95.5 239,-95.5 239,-76.5 149,-76.5"/>
<text text-anchor="middle" x="194" y="-83.5" font-family="Helvetica,sans-Serif" font-size="10.00">yeti::Matrix::data</text>
</a>
</g>
</g>
<!-- Node1&#45;&gt;Node4 -->
<g id="edge3" class="edge"><title>Node1&#45;&gt;Node4</title>
<path fill="none" stroke="midnightblue" d="M107.566,-86C117.734,-86 128.408,-86 138.633,-86"/>
<polygon fill="midnightblue" stroke="midnightblue" points="138.673,-89.5001 148.673,-86 138.673,-82.5001 138.673,-89.5001"/>
</g>
<!-- Node5 -->
<g id="node5" class="node"><title>Node5</title>
<g id="a_node5"><a xlink:href="classyeti_1_1Matrix.html#a934767f8001acffc359424035628a482" target="_top" xlink:title="yeti::Matrix::Matrix">
<polygon fill="none" stroke="black" points="145,-38.5 145,-57.5 243,-57.5 243,-38.5 145,-38.5"/>
<text text-anchor="middle" x="194" y="-45.5" font-family="Helvetica,sans-Serif" font-size="10.00">yeti::Matrix::Matrix</text>
</a>
</g>
</g>
<!-- Node1&#45;&gt;Node5 -->
<g id="edge4" class="edge"><title>Node1&#45;&gt;Node5</title>
<path fill="none" stroke="midnightblue" d="M89.8232,-76.411C107.638,-71.5056 129.518,-65.4804 148.539,-60.2429"/>
<polygon fill="midnightblue" stroke="midnightblue" points="149.476,-63.6152 158.188,-57.5859 147.618,-56.8664 149.476,-63.6152"/>
</g>
<!-- Node6 -->
<g id="node6" class="node"><title>Node6</title>
<g id="a_node6"><a xlink:href="classyeti_1_1Matrix.html#a38dc1db8e678ca6f9c56143c8ab9e1ef" target="_top" xlink:title="yeti::Matrix::assign">
<polygon fill="none" stroke="black" points="144,-0.5 144,-19.5 244,-19.5 244,-0.5 144,-0.5"/>
<text text-anchor="middle" x="194" y="-7.5" font-family="Helvetica,sans-Serif" font-size="10.00">yeti::Matrix::assign</text>
</a>
</g>
</g>
<!-- Node1&#45;&gt;Node6 -->
<g id="edge6" class="edge"><title>Node1&#45;&gt;Node6</title>
<path fill="none" stroke="midnightblue" d="M68.0741,-76.4416C85.0017,-64.3485 115.695,-43.3695 144,-29 147.844,-27.0484 151.938,-25.17 156.06,-23.4042"/>
<polygon fill="midnightblue" stroke="midnightblue" points="157.681,-26.5231 165.62,-19.507 155.038,-20.041 157.681,-26.5231"/>
</g>
<!-- Node5&#45;&gt;Node3 -->
<g id="edge5" class="edge"><title>Node5&#45;&gt;Node3</title>
<path fill="none" stroke="midnightblue" d="M227.552,-57.589C243.899,-62.4044 263.909,-68.2988 281.457,-73.468"/>
<polygon fill="midnightblue" stroke="midnightblue" points="280.877,-76.9457 291.458,-76.4141 282.855,-70.2309 280.877,-76.9457"/>
</g>
</g>
</svg>
