<?xml version="1.0" encoding="UTF-8" standalone="no"?>
<!DOCTYPE svg PUBLIC "-//W3C//DTD SVG 1.1//EN"
 "http://www.w3.org/Graphics/SVG/1.1/DTD/svg11.dtd">
<!-- Generated by graphviz version 2.30.1 (20140110.0959)
 -->
<!-- Title: psi::TDHFRHamiltonian Pages: 1 -->
<svg width="136pt" height="196pt"
 viewBox="0.00 0.00 136.00 196.00" xmlns="http://www.w3.org/2000/svg" xmlns:xlink="http://www.w3.org/1999/xlink">
<g id="graph0" class="graph" transform="scale(1 1) rotate(0) translate(4 192)">
<title>psi::TDHFRHamiltonian</title>
<!-- Node1 -->
<g id="node1" class="node"><title>Node1</title>
<polygon fill="#bfbfbf" stroke="black" points="3,-56.5 3,-75.5 125,-75.5 125,-56.5 3,-56.5"/>
<text text-anchor="middle" x="64" y="-63.5" font-family="Helvetica,sans-Serif" font-size="10.00">psi::TDHFRHamiltonian</text>
</g>
<!-- Node4 -->
<g id="node4" class="node"><title>Node4</title>
<g id="a_node4"><a xlink:href="classpsi_1_1TDDFTRHamiltonian.html" target="_top" xlink:title="psi::TDDFTRHamiltonian">
<polygon fill="none" stroke="black" points="0,-0.5 0,-19.5 128,-19.5 128,-0.5 0,-0.5"/>
<text text-anchor="middle" x="64" y="-7.5" font-family="Helvetica,sans-Serif" font-size="10.00">psi::TDDFTRHamiltonian</text>
</a>
</g>
</g>
<!-- Node1&#45;&gt;Node4 -->
<g id="edge3" class="edge"><title>Node1&#45;&gt;Node4</title>
<path fill="none" stroke="midnightblue" d="M64,-45.8045C64,-36.9102 64,-26.7798 64,-19.7511"/>
<polygon fill="midnightblue" stroke="midnightblue" points="60.5001,-46.083 64,-56.083 67.5001,-46.083 60.5001,-46.083"/>
</g>
<!-- Node2 -->
<g id="node2" class="node"><title>Node2</title>
<g id="a_node2"><a xlink:href="classpsi_1_1RHamiltonian.html" target="_top" xlink:title="psi::RHamiltonian">
<polygon fill="none" stroke="black" points="16.5,-112.5 16.5,-131.5 111.5,-131.5 111.5,-112.5 16.5,-112.5"/>
<text text-anchor="middle" x="64" y="-119.5" font-family="Helvetica,sans-Serif" font-size="10.00">psi::RHamiltonian</text>
</a>
</g>
</g>
<!-- Node2&#45;&gt;Node1 -->
<g id="edge1" class="edge"><title>Node2&#45;&gt;Node1</title>
<path fill="none" stroke="midnightblue" d="M64,-101.805C64,-92.9102 64,-82.7798 64,-75.7511"/>
<polygon fill="midnightblue" stroke="midnightblue" points="60.5001,-102.083 64,-112.083 67.5001,-102.083 60.5001,-102.083"/>
</g>
<!-- Node3 -->
<g id="node3" class="node"><title>Node3</title>
<g id="a_node3"><a xlink:href="classpsi_1_1Hamiltonian.html" target="_top" xlink:title="psi::Hamiltonian">
<polygon fill="none" stroke="black" points="20.5,-168.5 20.5,-187.5 107.5,-187.5 107.5,-168.5 20.5,-168.5"/>
<text text-anchor="middle" x="64" y="-175.5" font-family="Helvetica,sans-Serif" font-size="10.00">psi::Hamiltonian</text>
</a>
</g>
</g>
<!-- Node3&#45;&gt;Node2 -->
<g id="edge2" class="edge"><title>Node3&#45;&gt;Node2</title>
<path fill="none" stroke="midnightblue" d="M64,-157.805C64,-148.91 64,-138.78 64,-131.751"/>
<polygon fill="midnightblue" stroke="midnightblue" points="60.5001,-158.083 64,-168.083 67.5001,-158.083 60.5001,-158.083"/>
</g>
</g>
</svg>
