<?xml version="1.0" encoding="UTF-8" standalone="no"?>
<!DOCTYPE svg PUBLIC "-//W3C//DTD SVG 1.1//EN"
 "http://www.w3.org/Graphics/SVG/1.1/DTD/svg11.dtd">
<!-- Generated by graphviz version 2.30.1 (20140110.0959)
 -->
<!-- Title: psi::Matrix::back_transform Pages: 1 -->
<svg width="426pt" height="123pt"
 viewBox="0.00 0.00 426.00 123.00" xmlns="http://www.w3.org/2000/svg" xmlns:xlink="http://www.w3.org/1999/xlink">
<g id="graph0" class="graph" transform="scale(1 1) rotate(0) translate(4 119)">
<title>psi::Matrix::back_transform</title>
<!-- Node1 -->
<g id="node1" class="node"><title>Node1</title>
<polygon fill="#bfbfbf" stroke="black" points="0,-57.5 0,-76.5 136,-76.5 136,-57.5 0,-57.5"/>
<text text-anchor="middle" x="68" y="-64.5" font-family="Helvetica,sans-Serif" font-size="10.00">psi::Matrix::back_transform</text>
</g>
<!-- Node2 -->
<g id="node2" class="node"><title>Node2</title>
<g id="a_node2"><a xlink:href="classpsi_1_1Matrix.html#ab375f9e8a5d1c9b4c08667c728ff04d2" target="_top" xlink:title="Returns the rows per irrep array.">
<polygon fill="none" stroke="black" points="172.5,-95.5 172.5,-114.5 269.5,-114.5 269.5,-95.5 172.5,-95.5"/>
<text text-anchor="middle" x="221" y="-102.5" font-family="Helvetica,sans-Serif" font-size="10.00">psi::Matrix::rowspi</text>
</a>
</g>
</g>
<!-- Node1&#45;&gt;Node2 -->
<g id="edge1" class="edge"><title>Node1&#45;&gt;Node2</title>
<path fill="none" stroke="midnightblue" d="M107.104,-76.589C126.94,-81.5809 151.384,-87.7324 172.448,-93.0334"/>
<polygon fill="midnightblue" stroke="midnightblue" points="171.618,-96.4336 182.17,-95.4799 173.327,-89.6452 171.618,-96.4336"/>
</g>
<!-- Node3 -->
<g id="node3" class="node"><title>Node3</title>
<g id="a_node3"><a xlink:href="classpsi_1_1Matrix.html#a3286e581ac7248f58ae3de82cd29cc6d" target="_top" xlink:title="Returns the columns per irrep array.">
<polygon fill="none" stroke="black" points="174,-57.5 174,-76.5 268,-76.5 268,-57.5 174,-57.5"/>
<text text-anchor="middle" x="221" y="-64.5" font-family="Helvetica,sans-Serif" font-size="10.00">psi::Matrix::colspi</text>
</a>
</g>
</g>
<!-- Node1&#45;&gt;Node3 -->
<g id="edge2" class="edge"><title>Node1&#45;&gt;Node3</title>
<path fill="none" stroke="midnightblue" d="M136.11,-67C145.381,-67 154.823,-67 163.867,-67"/>
<polygon fill="midnightblue" stroke="midnightblue" points="163.879,-70.5001 173.879,-67 163.879,-63.5001 163.879,-70.5001"/>
</g>
<!-- Node4 -->
<g id="node4" class="node"><title>Node4</title>
<g id="a_node4"><a xlink:href="classpsi_1_1Matrix.html#a1fd3e741578fbeeefc2f1486d4215970" target="_top" xlink:title="psi::Matrix::gemm">
<polygon fill="none" stroke="black" points="173.5,-19.5 173.5,-38.5 268.5,-38.5 268.5,-19.5 173.5,-19.5"/>
<text text-anchor="middle" x="221" y="-26.5" font-family="Helvetica,sans-Serif" font-size="10.00">psi::Matrix::gemm</text>
</a>
</g>
</g>
<!-- Node1&#45;&gt;Node4 -->
<g id="edge3" class="edge"><title>Node1&#45;&gt;Node4</title>
<path fill="none" stroke="midnightblue" d="M107.104,-57.411C126.94,-52.4191 151.384,-46.2676 172.448,-40.9666"/>
<polygon fill="midnightblue" stroke="midnightblue" points="173.327,-44.3548 182.17,-38.5201 171.618,-37.5664 173.327,-44.3548"/>
</g>
<!-- Node5 -->
<g id="node5" class="node"><title>Node5</title>
<g id="a_node5"><a xlink:href="classpsi_1_1Matrix.html#a32bcf25d82e525256de2eaff81051278" target="_top" xlink:title="psi::Matrix::symmetry">
<polygon fill="none" stroke="black" points="306,-38.5 306,-57.5 418,-57.5 418,-38.5 306,-38.5"/>
<text text-anchor="middle" x="362" y="-45.5" font-family="Helvetica,sans-Serif" font-size="10.00">psi::Matrix::symmetry</text>
</a>
</g>
</g>
<!-- Node4&#45;&gt;Node5 -->
<g id="edge4" class="edge"><title>Node4&#45;&gt;Node5</title>
<path fill="none" stroke="midnightblue" d="M268.672,-35.3796C277.267,-36.5545 286.387,-37.8011 295.418,-39.0355"/>
<polygon fill="midnightblue" stroke="midnightblue" points="295.162,-42.533 305.544,-40.4197 296.11,-35.5975 295.162,-42.533"/>
</g>
<!-- Node6 -->
<g id="node6" class="node"><title>Node6</title>
<g id="a_node6"><a xlink:href="namespacepsi.html#a1112df35ff9d2b780efb0c24662f4fbe" target="_top" xlink:title="psi::C_DGEMM">
<polygon fill="none" stroke="black" points="319,-0.5 319,-19.5 405,-19.5 405,-0.5 319,-0.5"/>
<text text-anchor="middle" x="362" y="-7.5" font-family="Helvetica,sans-Serif" font-size="10.00">psi::C_DGEMM</text>
</a>
</g>
</g>
<!-- Node4&#45;&gt;Node6 -->
<g id="edge5" class="edge"><title>Node4&#45;&gt;Node6</title>
<path fill="none" stroke="midnightblue" d="M268.672,-22.6204C281.492,-20.8681 295.477,-18.9563 308.596,-17.1631"/>
<polygon fill="midnightblue" stroke="midnightblue" points="309.459,-20.5778 318.893,-15.7556 308.511,-13.6423 309.459,-20.5778"/>
</g>
</g>
</svg>
