<?xml version="1.0" encoding="UTF-8" standalone="no"?>
<!DOCTYPE svg PUBLIC "-//W3C//DTD SVG 1.1//EN"
 "http://www.w3.org/Graphics/SVG/1.1/DTD/svg11.dtd">
<!-- Generated by graphviz version 2.30.1 (20140110.0959)
 -->
<!-- Title: yeti::YetiRuntimeSerializable Pages: 1 -->
<svg width="890pt" height="145pt"
 viewBox="0.00 0.00 890.00 145.00" xmlns="http://www.w3.org/2000/svg" xmlns:xlink="http://www.w3.org/1999/xlink">
<g id="graph0" class="graph" transform="scale(1 1) rotate(0) translate(4 141)">
<title>yeti::YetiRuntimeSerializable</title>
<!-- Node1 -->
<g id="node1" class="node"><title>Node1</title>
<polygon fill="#bfbfbf" stroke="black" points="738.5,-60.5 738.5,-79.5 881.5,-79.5 881.5,-60.5 738.5,-60.5"/>
<text text-anchor="middle" x="810" y="-67.5" font-family="Helvetica,sans-Serif" font-size="10.00">yeti::YetiRuntimeSerializable</text>
</g>
<!-- Node2 -->
<g id="node2" class="node"><title>Node2</title>
<g id="a_node2"><a xlink:href="classsmartptr_1_1Serializable.html" target="_top" xlink:title="smartptr::Serializable">
<polygon fill="none" stroke="black" points="578.5,-80.5 578.5,-99.5 687.5,-99.5 687.5,-80.5 578.5,-80.5"/>
<text text-anchor="middle" x="633" y="-87.5" font-family="Helvetica,sans-Serif" font-size="10.00">smartptr::Serializable</text>
</a>
</g>
</g>
<!-- Node2&#45;&gt;Node1 -->
<g id="edge1" class="edge"><title>Node2&#45;&gt;Node1</title>
<path fill="none" stroke="midnightblue" d="M698.248,-82.6573C711.341,-81.161 725.182,-79.5791 738.48,-78.0595"/>
<polygon fill="midnightblue" stroke="midnightblue" points="697.472,-79.2232 687.934,-83.8361 698.266,-86.178 697.472,-79.2232"/>
</g>
<!-- Node3 -->
<g id="node3" class="node"><title>Node3</title>
<g id="a_node3"><a xlink:href="classsmartptr_1_1Countable.html" target="_top" xlink:title="smartptr::Countable">
<polygon fill="none" stroke="black" points="385.5,-117.5 385.5,-136.5 488.5,-136.5 488.5,-117.5 385.5,-117.5"/>
<text text-anchor="middle" x="437" y="-124.5" font-family="Helvetica,sans-Serif" font-size="10.00">smartptr::Countable</text>
</a>
</g>
</g>
<!-- Node3&#45;&gt;Node2 -->
<g id="edge2" class="edge"><title>Node3&#45;&gt;Node2</title>
<path fill="none" stroke="midnightblue" d="M498.026,-115.552C524.916,-110.423 556.263,-104.445 581.873,-99.5604"/>
<polygon fill="midnightblue" stroke="midnightblue" points="497.127,-112.16 487.96,-117.472 498.438,-119.036 497.127,-112.16"/>
</g>
<!-- Node4 -->
<g id="node4" class="node"><title>Node4</title>
<g id="a_node4"><a xlink:href="classsmartptr_1_1SerialRuntime.html" target="_top" xlink:title="smartptr::SerialRuntime">
<polygon fill="none" stroke="black" points="377,-79.5 377,-98.5 497,-98.5 497,-79.5 377,-79.5"/>
<text text-anchor="middle" x="437" y="-86.5" font-family="Helvetica,sans-Serif" font-size="10.00">smartptr::SerialRuntime</text>
</a>
</g>
</g>
<!-- Node4&#45;&gt;Node2 -->
<g id="edge3" class="edge"><title>Node4&#45;&gt;Node2</title>
<path fill="none" stroke="#9a32cd" stroke-dasharray="5,2" d="M507.449,-89.358C530.788,-89.4783 556.446,-89.6105 578.379,-89.7236"/>
<polygon fill="#9a32cd" stroke="#9a32cd" points="507.278,-85.8572 497.261,-89.3055 507.242,-92.8571 507.278,-85.8572"/>
<text text-anchor="middle" x="532" y="-93" font-family="Helvetica,sans-Serif" font-size="10.00"> rtinfo_</text>
</g>
<!-- Node5 -->
<g id="node5" class="node"><title>Node5</title>
<g id="a_node5"><a xlink:href="classyeti_1_1YetiThreadedRuntimeObject.html" target="_top" xlink:title="yeti::YetiThreadedRuntime\lObject">
<polygon fill="none" stroke="black" points="566.5,-31 566.5,-61 699.5,-61 699.5,-31 566.5,-31"/>
<text text-anchor="start" x="574.5" y="-49" font-family="Helvetica,sans-Serif" font-size="10.00">yeti::YetiThreadedRuntime</text>
<text text-anchor="middle" x="633" y="-38" font-family="Helvetica,sans-Serif" font-size="10.00">Object</text>
</a>
</g>
</g>
<!-- Node5&#45;&gt;Node1 -->
<g id="edge4" class="edge"><title>Node5&#45;&gt;Node1</title>
<path fill="none" stroke="midnightblue" d="M709.829,-56.3994C719.675,-57.7498 729.723,-59.1277 739.46,-60.4631"/>
<polygon fill="midnightblue" stroke="midnightblue" points="710.044,-52.8962 699.661,-55.005 709.093,-59.8313 710.044,-52.8962"/>
</g>
<!-- Node6 -->
<g id="node6" class="node"><title>Node6</title>
<g id="a_node6"><a xlink:href="classyeti_1_1YetiRuntimeObject.html" target="_top" xlink:title="yeti::YetiRuntimeObject">
<polygon fill="none" stroke="black" points="376.5,-38.5 376.5,-57.5 497.5,-57.5 497.5,-38.5 376.5,-38.5"/>
<text text-anchor="middle" x="437" y="-45.5" font-family="Helvetica,sans-Serif" font-size="10.00">yeti::YetiRuntimeObject</text>
</a>
</g>
</g>
<!-- Node6&#45;&gt;Node5 -->
<g id="edge5" class="edge"><title>Node6&#45;&gt;Node5</title>
<path fill="none" stroke="midnightblue" d="M507.638,-47.2821C526.708,-47.0855 547.313,-46.8731 566.162,-46.6787"/>
<polygon fill="midnightblue" stroke="midnightblue" points="507.488,-43.7833 497.525,-47.3863 507.56,-50.783 507.488,-43.7833"/>
</g>
<!-- Node7 -->
<g id="node7" class="node"><title>Node7</title>
<g id="a_node7"><a xlink:href="classyeti_1_1ThreadLock.html" target="_top" xlink:title="yeti::ThreadLock">
<polygon fill="none" stroke="black" points="392.5,-0.5 392.5,-19.5 481.5,-19.5 481.5,-0.5 392.5,-0.5"/>
<text text-anchor="middle" x="437" y="-7.5" font-family="Helvetica,sans-Serif" font-size="10.00">yeti::ThreadLock</text>
</a>
</g>
</g>
<!-- Node7&#45;&gt;Node5 -->
<g id="edge6" class="edge"><title>Node7&#45;&gt;Node5</title>
<path fill="none" stroke="#9a32cd" stroke-dasharray="5,2" d="M491.536,-19.9344C514.727,-24.2381 542.098,-29.3172 566.49,-33.8434"/>
<polygon fill="#9a32cd" stroke="#9a32cd" points="492.008,-16.4625 481.537,-18.0791 490.731,-23.345 492.008,-16.4625"/>
<text text-anchor="middle" x="532" y="-34" font-family="Helvetica,sans-Serif" font-size="10.00"> lock_</text>
</g>
<!-- Node8 -->
<g id="node8" class="node"><title>Node8</title>
<g id="a_node8"><a xlink:href="classyeti_1_1Malloc.html" target="_top" xlink:title="yeti::Malloc\&lt; ThreadLock \&gt;">
<polygon fill="none" stroke="black" points="202,-0.5 202,-19.5 338,-19.5 338,-0.5 202,-0.5"/>
<text text-anchor="middle" x="270" y="-7.5" font-family="Helvetica,sans-Serif" font-size="10.00">yeti::Malloc&lt; ThreadLock &gt;</text>
</a>
</g>
</g>
<!-- Node8&#45;&gt;Node7 -->
<g id="edge7" class="edge"><title>Node8&#45;&gt;Node7</title>
<path fill="none" stroke="midnightblue" d="M348.435,-10C363.433,-10 378.655,-10 392.108,-10"/>
<polygon fill="midnightblue" stroke="midnightblue" points="348.112,-6.5001 338.112,-10 348.112,-13.5001 348.112,-6.5001"/>
</g>
<!-- Node9 -->
<g id="node9" class="node"><title>Node9</title>
<g id="a_node9"><a xlink:href="classyeti_1_1Malloc.html" target="_top" xlink:title="yeti::Malloc\&lt; T \&gt;">
<polygon fill="none" stroke="black" points="0.5,-0.5 0.5,-19.5 91.5,-19.5 91.5,-0.5 0.5,-0.5"/>
<text text-anchor="middle" x="46" y="-7.5" font-family="Helvetica,sans-Serif" font-size="10.00">yeti::Malloc&lt; T &gt;</text>
</a>
</g>
</g>
<!-- Node9&#45;&gt;Node8 -->
<g id="edge8" class="edge"><title>Node9&#45;&gt;Node8</title>
<path fill="none" stroke="orange" stroke-dasharray="5,2" d="M101.988,-10C132.135,-10 169.752,-10 201.649,-10"/>
<polygon fill="orange" stroke="orange" points="101.658,-6.5001 91.658,-10 101.658,-13.5001 101.658,-6.5001"/>
<text text-anchor="middle" x="147" y="-13" font-family="Helvetica,sans-Serif" font-size="10.00"> &lt; ThreadLock &gt;</text>
</g>
</g>
</svg>
