<?xml version="1.0" encoding="UTF-8" standalone="no"?>
<!DOCTYPE svg PUBLIC "-//W3C//DTD SVG 1.1//EN"
 "http://www.w3.org/Graphics/SVG/1.1/DTD/svg11.dtd">
<!-- Generated by graphviz version 2.30.1 (20140110.0959)
 -->
<!-- Title: yeti::Matrix::ncol Pages: 1 -->
<!--zoomable 142 -->
<svg id="main" version="1.1" xmlns="http://www.w3.org/2000/svg" xmlns:xlink="http://www.w3.org/1999/xlink" xml:space="preserve" onload="init(evt)">
        <defs>
                <circle id="rim" cx="0" cy="0" r="7"/>
                <circle id="rim2" cx="0" cy="0" r="3.5"/>
                <g id="zoomPlus">
                        <use xlink:href="#rim" fill="#404040">
                                <set attributeName="fill" to="#808080" begin="zoomplus.mouseover" end="zoomplus.mouseout"/>
                        </use>
                        <path d="M-4,0h8M0,-4v8" fill="none" stroke="white" stroke-width="1.5" pointer-events="none"/>
                </g>
                <g id="zoomMin">
                        <use xlink:href="#rim" fill="#404040">
                                <set attributeName="fill" to="#808080" begin="zoomminus.mouseover" end="zoomminus.mouseout"/>
                        </use>
                        <path d="M-4,0h8" fill="none" stroke="white" stroke-width="1.5" pointer-events="none"/>
                </g>
                <g id="dirArrow">
                        <path fill="none" stroke="white" stroke-width="1.5" d="M0,-3.0v7 M-2.5,-0.5L0,-3.0L2.5,-0.5"/>
                </g>
               <g id="resetDef">
                       <use xlink:href="#rim2" fill="#404040">
                               <set attributeName="fill" to="#808080" begin="reset.mouseover" end="reset.mouseout"/>
                       </use>
               </g>
        </defs>

<script type="text/javascript">
var viewWidth = 502;
var viewHeight = 142;
var sectionId = 'dynsection-12';
</script>
<script xlink:href="svgpan.js"/>
<svg id="graph" class="graph">
<g id="viewport">
<title>yeti::Matrix::ncol</title>
<!-- Node1 -->
<g id="node1" class="node"><title>Node1</title>
<polygon fill="#bfbfbf" stroke="black" points="0.5,-57.5 0.5,-76.5 89.5,-76.5 89.5,-57.5 0.5,-57.5"/>
<text text-anchor="middle" x="45" y="-64.5" font-family="Helvetica,sans-Serif" font-size="10.00">yeti::Matrix::ncol</text>
</g>
<!-- Node2 -->
<g id="node2" class="node"><title>Node2</title>
<g id="a_node2"><a xlink:href="classyeti_1_1Matrix.html#a934767f8001acffc359424035628a482" target="_top" xlink:title="yeti::Matrix::Matrix">
<polygon fill="none" stroke="black" points="126,-38.5 126,-57.5 224,-57.5 224,-38.5 126,-38.5"/>
<text text-anchor="middle" x="175" y="-45.5" font-family="Helvetica,sans-Serif" font-size="10.00">yeti::Matrix::Matrix</text>
</a>
</g>
</g>
<!-- Node1&#45;&gt;Node2 -->
<g id="edge1" class="edge"><title>Node1&#45;&gt;Node2</title>
<path fill="none" stroke="midnightblue" d="M99.6656,-59.034C108.295,-57.753 117.183,-56.4338 125.677,-55.1729"/>
<polygon fill="midnightblue" stroke="midnightblue" points="99.07,-55.584 89.6923,-60.5144 100.098,-62.5081 99.07,-55.584"/>
</g>
<!-- Node3 -->
<g id="node3" class="node"><title>Node3</title>
<g id="a_node3"><a xlink:href="classyeti_1_1Matrix.html#abfd2dd084a65ee03f723364c425d1381" target="_top" xlink:title="yeti::Matrix::add">
<polygon fill="none" stroke="black" points="270.5,-114.5 270.5,-133.5 357.5,-133.5 357.5,-114.5 270.5,-114.5"/>
<text text-anchor="middle" x="314" y="-121.5" font-family="Helvetica,sans-Serif" font-size="10.00">yeti::Matrix::add</text>
</a>
</g>
</g>
<!-- Node1&#45;&gt;Node3 -->
<g id="edge8" class="edge"><title>Node1&#45;&gt;Node3</title>
<path fill="none" stroke="midnightblue" d="M86.36,-79.4552C98.9842,-83.121 113.009,-86.9597 126,-90 175.158,-101.505 232.352,-111.402 270.417,-117.504"/>
<polygon fill="midnightblue" stroke="midnightblue" points="87.1643,-76.0434 76.5826,-76.5709 85.1837,-82.7574 87.1643,-76.0434"/>
</g>
<!-- Node4 -->
<g id="node4" class="node"><title>Node4</title>
<g id="a_node4"><a xlink:href="classyeti_1_1Matrix.html#a9e082847da016b20acd2020f1a2bac2d" target="_top" xlink:title="yeti::Matrix::subtract">
<polygon fill="none" stroke="black" points="260.5,-76.5 260.5,-95.5 367.5,-95.5 367.5,-76.5 260.5,-76.5"/>
<text text-anchor="middle" x="314" y="-83.5" font-family="Helvetica,sans-Serif" font-size="10.00">yeti::Matrix::subtract</text>
</a>
</g>
</g>
<!-- Node1&#45;&gt;Node4 -->
<g id="edge9" class="edge"><title>Node1&#45;&gt;Node4</title>
<path fill="none" stroke="midnightblue" d="M100.039,-70.8455C146.837,-74.1757 214.114,-78.9632 260.466,-82.2616"/>
<polygon fill="midnightblue" stroke="midnightblue" points="100.014,-67.3349 89.7906,-70.1162 99.5169,-74.3173 100.014,-67.3349"/>
</g>
<!-- Node5 -->
<g id="node5" class="node"><title>Node5</title>
<g id="a_node5"><a xlink:href="classyeti_1_1Matrix.html#a37d0a571a4063c3c670b32fde130ee88" target="_top" xlink:title="yeti::Matrix::mult">
<polygon fill="none" stroke="black" points="269,-0.5 269,-19.5 359,-19.5 359,-0.5 269,-0.5"/>
<text text-anchor="middle" x="314" y="-7.5" font-family="Helvetica,sans-Serif" font-size="10.00">yeti::Matrix::mult</text>
</a>
</g>
</g>
<!-- Node1&#45;&gt;Node5 -->
<g id="edge10" class="edge"><title>Node1&#45;&gt;Node5</title>
<path fill="none" stroke="midnightblue" d="M70.773,-52.5136C86.1548,-44.2185 106.623,-34.4119 126,-29 173.616,-15.7012 230.366,-11.4886 268.762,-10.2653"/>
<polygon fill="midnightblue" stroke="midnightblue" points="68.9554,-49.5194 61.908,-57.4304 72.3507,-55.6409 68.9554,-49.5194"/>
</g>
<!-- Node2&#45;&gt;Node3 -->
<g id="edge2" class="edge"><title>Node2&#45;&gt;Node3</title>
<path fill="none" stroke="midnightblue" d="M196.219,-63.8645C212.698,-76.2536 236.934,-93.2772 260,-105 266.971,-108.543 274.761,-111.727 282.177,-114.431"/>
<polygon fill="midnightblue" stroke="midnightblue" points="197.99,-60.8129 187.92,-57.5216 193.74,-66.3747 197.99,-60.8129"/>
</g>
<!-- Node2&#45;&gt;Node4 -->
<g id="edge3" class="edge"><title>Node2&#45;&gt;Node4</title>
<path fill="none" stroke="midnightblue" d="M220.411,-60.3183C239.234,-65.5393 260.838,-71.5316 278.44,-76.4141"/>
<polygon fill="midnightblue" stroke="midnightblue" points="221.143,-56.8892 210.571,-57.589 219.272,-63.6346 221.143,-56.8892"/>
</g>
<!-- Node2&#45;&gt;Node5 -->
<g id="edge4" class="edge"><title>Node2&#45;&gt;Node5</title>
<path fill="none" stroke="midnightblue" d="M220.411,-35.6817C239.234,-30.4607 260.838,-24.4684 278.44,-19.5859"/>
<polygon fill="midnightblue" stroke="midnightblue" points="219.272,-32.3654 210.571,-38.411 221.143,-39.1108 219.272,-32.3654"/>
</g>
<!-- Node7 -->
<g id="node7" class="node"><title>Node7</title>
<g id="a_node7"><a xlink:href="classyeti_1_1Matrix.html#add55d9010b3e2345acfe98d174b97241" target="_top" xlink:title="yeti::Matrix::t">
<polygon fill="none" stroke="black" points="277,-38.5 277,-57.5 351,-57.5 351,-38.5 277,-38.5"/>
<text text-anchor="middle" x="314" y="-45.5" font-family="Helvetica,sans-Serif" font-size="10.00">yeti::Matrix::t</text>
</a>
</g>
</g>
<!-- Node2&#45;&gt;Node7 -->
<g id="edge6" class="edge"><title>Node2&#45;&gt;Node7</title>
<path fill="none" stroke="midnightblue" d="M234.59,-48C248.915,-48 263.83,-48 276.758,-48"/>
<polygon fill="midnightblue" stroke="midnightblue" points="234.301,-44.5001 224.301,-48 234.301,-51.5001 234.301,-44.5001"/>
</g>
<!-- Node6 -->
<g id="node6" class="node"><title>Node6</title>
<g id="a_node6"><a xlink:href="classyeti_1_1Matrix.html#ad69c4d2dab30e181cfe721985c342bf4" target="_top" xlink:title="yeti::Matrix::mult">
<polygon fill="none" stroke="black" points="404,-19.5 404,-38.5 494,-38.5 494,-19.5 404,-19.5"/>
<text text-anchor="middle" x="449" y="-26.5" font-family="Helvetica,sans-Serif" font-size="10.00">yeti::Matrix::mult</text>
</a>
</g>
</g>
<!-- Node5&#45;&gt;Node6 -->
<g id="edge5" class="edge"><title>Node5&#45;&gt;Node6</title>
<path fill="none" stroke="midnightblue" d="M369.25,-17.7499C380.777,-19.3967 392.813,-21.1161 403.906,-22.7009"/>
<polygon fill="midnightblue" stroke="midnightblue" points="369.682,-14.2762 359.287,-16.3267 368.692,-21.2058 369.682,-14.2762"/>
</g>
<!-- Node7&#45;&gt;Node6 -->
<g id="edge7" class="edge"><title>Node7&#45;&gt;Node6</title>
<path fill="none" stroke="midnightblue" d="M361.514,-41.3551C375.189,-39.4015 390.107,-37.2704 403.644,-35.3366"/>
<polygon fill="midnightblue" stroke="midnightblue" points="360.747,-37.929 351.343,-42.8082 361.737,-44.8587 360.747,-37.929"/>
</g>
</g>
</svg>
        <g id="navigator" transform="translate(0 0)" fill="#404254">
                <rect fill="#f2f5e9" fill-opacity="0.5" stroke="#606060" stroke-width=".5" x="0" y="0" width="60" height="60"/>
                <use id="zoomplus" xlink:href="#zoomPlus" x="17" y="9" onmousedown="handleZoom(evt,'in')"/>
                <use id="zoomminus" xlink:href="#zoomMin" x="42" y="9" onmousedown="handleZoom(evt,'out')"/>
                <use id="reset" xlink:href="#resetDef" x="30" y="36" onmousedown="handleReset()"/>
                <g id="arrowUp" xlink:href="#dirArrow" transform="translate(30 24)" onmousedown="handlePan(0,-1)">
                  <use xlink:href="#rim" fill="#404040">
                        <set attributeName="fill" to="#808080" begin="arrowUp.mouseover" end="arrowUp.mouseout"/>
                  </use>
                  <path fill="none" stroke="white" stroke-width="1.5" d="M0,-3.0v7 M-2.5,-0.5L0,-3.0L2.5,-0.5"/>
                </g>
                <g id="arrowRight" xlink:href="#dirArrow" transform="rotate(90) translate(36 -43)" onmousedown="handlePan(1,0)">
                  <use xlink:href="#rim" fill="#404040">
                        <set attributeName="fill" to="#808080" begin="arrowRight.mouseover" end="arrowRight.mouseout"/>
                  </use>
                  <path fill="none" stroke="white" stroke-width="1.5" d="M0,-3.0v7 M-2.5,-0.5L0,-3.0L2.5,-0.5"/>
                </g>
                <g id="arrowDown" xlink:href="#dirArrow" transform="rotate(180) translate(-30 -48)" onmousedown="handlePan(0,1)">
                  <use xlink:href="#rim" fill="#404040">
                        <set attributeName="fill" to="#808080" begin="arrowDown.mouseover" end="arrowDown.mouseout"/>
                  </use>
                  <path fill="none" stroke="white" stroke-width="1.5" d="M0,-3.0v7 M-2.5,-0.5L0,-3.0L2.5,-0.5"/>
                </g>
                <g id="arrowLeft" xlink:href="#dirArrow" transform="rotate(270) translate(-36 17)" onmousedown="handlePan(-1,0)">
                  <use xlink:href="#rim" fill="#404040">
                        <set attributeName="fill" to="#808080" begin="arrowLeft.mouseover" end="arrowLeft.mouseout"/>
                  </use>
                  <path fill="none" stroke="white" stroke-width="1.5" d="M0,-3.0v7 M-2.5,-0.5L0,-3.0L2.5,-0.5"/>
                </g>
        </g>
        <svg viewBox="0 0 15 15" width="100%" height="30px" preserveAspectRatio="xMaxYMin meet">
         <g id="arrow_out" transform="scale(0.3 0.3)">
          <a xlink:href="classyeti_1_1Matrix_a23a609b7f175d361da6600f418df4c2a_icgraph_org.svg" target="_base">
           <rect id="button" ry="5" rx="5" y="6" x="6" height="38" width="38"
                fill="#f2f5e9" fill-opacity="0.5" stroke="#606060" stroke-width="1.0"/>
           <path id="arrow"
             d="M 11.500037,31.436501 C 11.940474,20.09759 22.043105,11.32322 32.158766,21.979434 L 37.068811,17.246167 C 37.068811,17.246167 37.088388,32 37.088388,32 L 22.160133,31.978069 C 22.160133,31.978069 26.997745,27.140456 26.997745,27.140456 C 18.528582,18.264221 13.291696,25.230495 11.500037,31.436501 z"
             style="fill:#404040;"/>
          </a>
         </g>
        </svg>
</svg>
