<?xml version="1.0" encoding="UTF-8" standalone="no"?>
<!DOCTYPE svg PUBLIC "-//W3C//DTD SVG 1.1//EN"
 "http://www.w3.org/Graphics/SVG/1.1/DTD/svg11.dtd">
<!-- Generated by graphviz version 2.30.1 (20140110.0959)
 -->
<!-- Title: psi::TwoElectronInt Pages: 1 -->
<svg width="372pt" height="444pt"
 viewBox="0.00 0.00 372.00 444.00" xmlns="http://www.w3.org/2000/svg" xmlns:xlink="http://www.w3.org/1999/xlink">
<g id="graph0" class="graph" transform="scale(1 1) rotate(0) translate(4 440)">
<title>psi::TwoElectronInt</title>
<!-- Node1 -->
<g id="node1" class="node"><title>Node1</title>
<polygon fill="#bfbfbf" stroke="black" points="179.5,-0.5 179.5,-19.5 280.5,-19.5 280.5,-0.5 179.5,-0.5"/>
<text text-anchor="middle" x="230" y="-7.5" font-family="Helvetica,sans-Serif" font-size="10.00">psi::TwoElectronInt</text>
</g>
<!-- Node2 -->
<g id="node2" class="node"><title>Node2</title>
<g id="a_node2"><a xlink:href="classpsi_1_1TwoBodyAOInt.html" target="_top" xlink:title="psi::TwoBodyAOInt">
<polygon fill="none" stroke="black" points="86,-78.5 86,-97.5 188,-97.5 188,-78.5 86,-78.5"/>
<text text-anchor="middle" x="137" y="-85.5" font-family="Helvetica,sans-Serif" font-size="10.00">psi::TwoBodyAOInt</text>
</a>
</g>
</g>
<!-- Node2&#45;&gt;Node1 -->
<g id="edge1" class="edge"><title>Node2&#45;&gt;Node1</title>
<path fill="none" stroke="midnightblue" d="M155.428,-71.9404C174.586,-56.2848 203.902,-32.3271 219.456,-19.6165"/>
<polygon fill="midnightblue" stroke="midnightblue" points="153.197,-69.2438 147.668,-78.2818 157.626,-74.6641 153.197,-69.2438"/>
</g>
<!-- Node3 -->
<g id="node3" class="node"><title>Node3</title>
<g id="a_node3"><a xlink:href="classpsi_1_1IntegralFactory.html" target="_top" xlink:title="psi::IntegralFactory">
<polygon fill="none" stroke="black" points="-0.5,-191.5 -0.5,-210.5 100.5,-210.5 100.5,-191.5 -0.5,-191.5"/>
<text text-anchor="middle" x="50" y="-198.5" font-family="Helvetica,sans-Serif" font-size="10.00">psi::IntegralFactory</text>
</a>
</g>
</g>
<!-- Node3&#45;&gt;Node2 -->
<g id="edge2" class="edge"><title>Node3&#45;&gt;Node2</title>
<path fill="none" stroke="#9a32cd" stroke-dasharray="5,2" d="M53.2595,-181.429C57.3582,-162.893 66.0208,-134.568 83,-116 90.4977,-107.801 101.045,-101.763 110.83,-97.5013"/>
<polygon fill="#9a32cd" stroke="#9a32cd" points="49.8147,-180.807 51.3043,-191.297 56.6812,-182.168 49.8147,-180.807"/>
<text text-anchor="middle" x="103" y="-119.5" font-family="Helvetica,sans-Serif" font-size="10.00"> integral_</text>
</g>
<!-- Node4 -->
<g id="node4" class="node"><title>Node4</title>
<g id="a_node4"><a xlink:href="classboost_1_1shared__ptr.html" target="_top" xlink:title="boost::shared_ptr\&lt;\l psi::BasisSet \&gt;">
<polygon fill="none" stroke="black" points="57,-337 57,-367 155,-367 155,-337 57,-337"/>
<text text-anchor="start" x="65" y="-355" font-family="Helvetica,sans-Serif" font-size="10.00">boost::shared_ptr&lt;</text>
<text text-anchor="middle" x="106" y="-344" font-family="Helvetica,sans-Serif" font-size="10.00"> psi::BasisSet &gt;</text>
</a>
</g>
</g>
<!-- Node4&#45;&gt;Node3 -->
<g id="edge3" class="edge"><title>Node4&#45;&gt;Node3</title>
<path fill="none" stroke="#9a32cd" stroke-dasharray="5,2" d="M97.1371,-327.418C84.4231,-293.59 61.6153,-232.905 53.2177,-210.561"/>
<polygon fill="#9a32cd" stroke="#9a32cd" points="93.9372,-328.853 100.732,-336.982 100.49,-326.39 93.9372,-328.853"/>
<text text-anchor="middle" x="105.5" y="-310" font-family="Helvetica,sans-Serif" font-size="10.00"> bs4_</text>
<text text-anchor="middle" x="105.5" y="-299" font-family="Helvetica,sans-Serif" font-size="10.00">bs3_</text>
<text text-anchor="middle" x="105.5" y="-288" font-family="Helvetica,sans-Serif" font-size="10.00">bs2_</text>
<text text-anchor="middle" x="105.5" y="-277" font-family="Helvetica,sans-Serif" font-size="10.00">bs1_</text>
</g>
<!-- Node4&#45;&gt;Node2 -->
<g id="edge5" class="edge"><title>Node4&#45;&gt;Node2</title>
<path fill="none" stroke="#9a32cd" stroke-dasharray="5,2" d="M118.799,-327.332C120.064,-324.259 121.18,-321.101 122,-318 144.095,-234.414 139.51,-127.991 137.6,-97.5052"/>
<polygon fill="#9a32cd" stroke="#9a32cd" points="115.492,-326.143 114.434,-336.684 121.835,-329.103 115.492,-326.143"/>
<text text-anchor="middle" x="170.5" y="-248" font-family="Helvetica,sans-Serif" font-size="10.00"> original_bs3_</text>
<text text-anchor="middle" x="170.5" y="-237" font-family="Helvetica,sans-Serif" font-size="10.00">original_bs4_</text>
<text text-anchor="middle" x="170.5" y="-226" font-family="Helvetica,sans-Serif" font-size="10.00">bs4_</text>
<text text-anchor="middle" x="170.5" y="-215" font-family="Helvetica,sans-Serif" font-size="10.00">bs3_</text>
<text text-anchor="start" x="140" y="-204" font-family="Helvetica,sans-Serif" font-size="10.00">original_bs1</text>
<text text-anchor="middle" x="170.5" y="-193" font-family="Helvetica,sans-Serif" font-size="10.00">_</text>
<text text-anchor="middle" x="170.5" y="-182" font-family="Helvetica,sans-Serif" font-size="10.00">bs2_</text>
<text text-anchor="start" x="140" y="-171" font-family="Helvetica,sans-Serif" font-size="10.00">original</text>
<text text-anchor="middle" x="170.5" y="-160" font-family="Helvetica,sans-Serif" font-size="10.00">_bs2_</text>
<text text-anchor="middle" x="170.5" y="-149" font-family="Helvetica,sans-Serif" font-size="10.00">bs1_</text>
</g>
<!-- Node5 -->
<g id="node5" class="node"><title>Node5</title>
<g id="a_node5"><a xlink:href="classboost_1_1shared__ptr.html" target="_top" xlink:title="boost::shared_ptr\&lt; T \&gt;">
<polygon fill="none" stroke="black" points="48,-416.5 48,-435.5 164,-435.5 164,-416.5 48,-416.5"/>
<text text-anchor="middle" x="106" y="-423.5" font-family="Helvetica,sans-Serif" font-size="10.00">boost::shared_ptr&lt; T &gt;</text>
</a>
</g>
</g>
<!-- Node5&#45;&gt;Node4 -->
<g id="edge4" class="edge"><title>Node5&#45;&gt;Node4</title>
<path fill="none" stroke="orange" stroke-dasharray="5,2" d="M106,-406.085C106,-393.915 106,-378.354 106,-367.232"/>
<polygon fill="orange" stroke="orange" points="102.5,-406.458 106,-416.458 109.5,-406.458 102.5,-406.458"/>
<text text-anchor="middle" x="146" y="-389.5" font-family="Helvetica,sans-Serif" font-size="10.00"> &lt; psi::BasisSet &gt;</text>
</g>
<!-- Node6 -->
<g id="node6" class="node"><title>Node6</title>
<g id="a_node6"><a xlink:href="classpsi_1_1PyBuffer.html" target="_top" xlink:title="psi::PyBuffer\&lt; double \&gt;">
<polygon fill="none" stroke="black" points="216,-191.5 216,-210.5 336,-210.5 336,-191.5 216,-191.5"/>
<text text-anchor="middle" x="276" y="-198.5" font-family="Helvetica,sans-Serif" font-size="10.00">psi::PyBuffer&lt; double &gt;</text>
</a>
</g>
</g>
<!-- Node6&#45;&gt;Node2 -->
<g id="edge6" class="edge"><title>Node6&#45;&gt;Node2</title>
<path fill="none" stroke="#9a32cd" stroke-dasharray="5,2" d="M257.194,-184.982C227.69,-161.421 171.459,-116.518 147.856,-97.6695"/>
<polygon fill="#9a32cd" stroke="#9a32cd" points="255.095,-187.785 265.093,-191.29 259.463,-182.315 255.095,-187.785"/>
<text text-anchor="middle" x="219" y="-119.5" font-family="Helvetica,sans-Serif" font-size="10.00"> target_pybuffer_</text>
</g>
<!-- Node7 -->
<g id="node7" class="node"><title>Node7</title>
<g id="a_node7"><a xlink:href="classpsi_1_1PyBuffer.html" target="_top" xlink:title="A thin wrapper to the NumPy array interface.">
<polygon fill="none" stroke="black" points="227,-342.5 227,-361.5 325,-361.5 325,-342.5 227,-342.5"/>
<text text-anchor="middle" x="276" y="-349.5" font-family="Helvetica,sans-Serif" font-size="10.00">psi::PyBuffer&lt; T &gt;</text>
</a>
</g>
</g>
<!-- Node7&#45;&gt;Node6 -->
<g id="edge7" class="edge"><title>Node7&#45;&gt;Node6</title>
<path fill="none" stroke="orange" stroke-dasharray="5,2" d="M276,-332.105C276,-299.552 276,-234.128 276,-210.641"/>
<polygon fill="orange" stroke="orange" points="272.5,-332.126 276,-342.126 279.5,-332.126 272.5,-332.126"/>
<text text-anchor="middle" x="301" y="-293.5" font-family="Helvetica,sans-Serif" font-size="10.00"> &lt; double &gt;</text>
</g>
<!-- Node8 -->
<g id="node8" class="node"><title>Node8</title>
<g id="a_node8"><a xlink:href="classpsi_1_1Fjt.html" target="_top" xlink:title="Evaluates the Boys function F_j(T)">
<polygon fill="none" stroke="black" points="206.5,-78.5 206.5,-97.5 253.5,-97.5 253.5,-78.5 206.5,-78.5"/>
<text text-anchor="middle" x="230" y="-85.5" font-family="Helvetica,sans-Serif" font-size="10.00">psi::Fjt</text>
</a>
</g>
</g>
<!-- Node8&#45;&gt;Node1 -->
<g id="edge8" class="edge"><title>Node8&#45;&gt;Node1</title>
<path fill="none" stroke="#9a32cd" stroke-dasharray="5,2" d="M230,-68.2239C230,-52.6974 230,-31.3582 230,-19.6165"/>
<polygon fill="#9a32cd" stroke="#9a32cd" points="226.5,-68.2818 230,-78.2818 233.5,-68.2819 226.5,-68.2818"/>
<text text-anchor="middle" x="238.5" y="-46.5" font-family="Helvetica,sans-Serif" font-size="10.00"> fjt_</text>
</g>
<!-- Node9 -->
<g id="node9" class="node"><title>Node9</title>
<g id="a_node9"><a xlink:href="structpsi_1_1ShellPair__typ.html" target="_top" xlink:title="psi::ShellPair_typ">
<polygon fill="none" stroke="black" points="271.5,-78.5 271.5,-97.5 364.5,-97.5 364.5,-78.5 271.5,-78.5"/>
<text text-anchor="middle" x="318" y="-85.5" font-family="Helvetica,sans-Serif" font-size="10.00">psi::ShellPair_typ</text>
</a>
</g>
</g>
<!-- Node9&#45;&gt;Node1 -->
<g id="edge9" class="edge"><title>Node9&#45;&gt;Node1</title>
<path fill="none" stroke="#9a32cd" stroke-dasharray="5,2" d="M300.318,-71.7293C282.186,-56.0702 254.629,-32.2701 239.977,-19.6165"/>
<polygon fill="#9a32cd" stroke="#9a32cd" points="298.049,-74.3945 307.905,-78.2818 302.625,-69.0967 298.049,-74.3945"/>
<text text-anchor="middle" x="305" y="-52" font-family="Helvetica,sans-Serif" font-size="10.00"> pairs12_</text>
<text text-anchor="middle" x="305" y="-41" font-family="Helvetica,sans-Serif" font-size="10.00">pairs34_</text>
</g>
</g>
</svg>
