<?xml version="1.0" encoding="UTF-8" standalone="no"?>
<!DOCTYPE svg PUBLIC "-//W3C//DTD SVG 1.1//EN"
 "http://www.w3.org/Graphics/SVG/1.1/DTD/svg11.dtd">
<!-- Generated by graphviz version 2.30.1 (20140110.0959)
 -->
<!-- Title: yeti::ValuesNotEqual&lt; T &gt; Pages: 1 -->
<svg width="140pt" height="196pt"
 viewBox="0.00 0.00 140.00 196.00" xmlns="http://www.w3.org/2000/svg" xmlns:xlink="http://www.w3.org/1999/xlink">
<g id="graph0" class="graph" transform="scale(1 1) rotate(0) translate(4 192)">
<title>yeti::ValuesNotEqual&lt; T &gt;</title>
<!-- Node1 -->
<g id="node1" class="node"><title>Node1</title>
<polygon fill="#bfbfbf" stroke="black" points="-0.5,-0.5 -0.5,-19.5 132.5,-19.5 132.5,-0.5 -0.5,-0.5"/>
<text text-anchor="middle" x="66" y="-7.5" font-family="Helvetica,sans-Serif" font-size="10.00">yeti::ValuesNotEqual&lt; T &gt;</text>
</g>
<!-- Node2 -->
<g id="node2" class="node"><title>Node2</title>
<g id="a_node2"><a xlink:href="classyeti_1_1SanityCheckError.html" target="_top" xlink:title="yeti::SanityCheckError">
<polygon fill="none" stroke="black" points="8,-56.5 8,-75.5 124,-75.5 124,-56.5 8,-56.5"/>
<text text-anchor="middle" x="66" y="-63.5" font-family="Helvetica,sans-Serif" font-size="10.00">yeti::SanityCheckError</text>
</a>
</g>
</g>
<!-- Node2&#45;&gt;Node1 -->
<g id="edge1" class="edge"><title>Node2&#45;&gt;Node1</title>
<path fill="none" stroke="midnightblue" d="M66,-45.8045C66,-36.9102 66,-26.7798 66,-19.7511"/>
<polygon fill="midnightblue" stroke="midnightblue" points="62.5001,-46.083 66,-56.083 69.5001,-46.083 62.5001,-46.083"/>
</g>
<!-- Node3 -->
<g id="node3" class="node"><title>Node3</title>
<g id="a_node3"><a xlink:href="classyeti_1_1YetiException.html" target="_top" xlink:title="yeti::YetiException">
<polygon fill="none" stroke="black" points="16.5,-112.5 16.5,-131.5 115.5,-131.5 115.5,-112.5 16.5,-112.5"/>
<text text-anchor="middle" x="66" y="-119.5" font-family="Helvetica,sans-Serif" font-size="10.00">yeti::YetiException</text>
</a>
</g>
</g>
<!-- Node3&#45;&gt;Node2 -->
<g id="edge2" class="edge"><title>Node3&#45;&gt;Node2</title>
<path fill="none" stroke="midnightblue" d="M66,-101.805C66,-92.9102 66,-82.7798 66,-75.7511"/>
<polygon fill="midnightblue" stroke="midnightblue" points="62.5001,-102.083 66,-112.083 69.5001,-102.083 62.5001,-102.083"/>
</g>
<!-- Node4 -->
<g id="node4" class="node"><title>Node4</title>
<polygon fill="none" stroke="#bfbfbf" points="29,-168.5 29,-187.5 103,-187.5 103,-168.5 29,-168.5"/>
<text text-anchor="middle" x="66" y="-175.5" font-family="Helvetica,sans-Serif" font-size="10.00">runtime_error</text>
</g>
<!-- Node4&#45;&gt;Node3 -->
<g id="edge3" class="edge"><title>Node4&#45;&gt;Node3</title>
<path fill="none" stroke="midnightblue" d="M66,-157.805C66,-148.91 66,-138.78 66,-131.751"/>
<polygon fill="midnightblue" stroke="midnightblue" points="62.5001,-158.083 66,-168.083 69.5001,-158.083 62.5001,-158.083"/>
</g>
</g>
</svg>
