<?xml version="1.0" encoding="UTF-8" standalone="no"?>
<!DOCTYPE svg PUBLIC "-//W3C//DTD SVG 1.1//EN"
 "http://www.w3.org/Graphics/SVG/1.1/DTD/svg11.dtd">
<!-- Generated by graphviz version 2.30.1 (20140110.0959)
 -->
<!-- Title: psi::PseudospectralInt Pages: 1 -->
<!--zoomable 204 -->
<svg id="main" version="1.1" xmlns="http://www.w3.org/2000/svg" xmlns:xlink="http://www.w3.org/1999/xlink" xml:space="preserve" onload="init(evt)">
        <defs>
                <circle id="rim" cx="0" cy="0" r="7"/>
                <circle id="rim2" cx="0" cy="0" r="3.5"/>
                <g id="zoomPlus">
                        <use xlink:href="#rim" fill="#404040">
                                <set attributeName="fill" to="#808080" begin="zoomplus.mouseover" end="zoomplus.mouseout"/>
                        </use>
                        <path d="M-4,0h8M0,-4v8" fill="none" stroke="white" stroke-width="1.5" pointer-events="none"/>
                </g>
                <g id="zoomMin">
                        <use xlink:href="#rim" fill="#404040">
                                <set attributeName="fill" to="#808080" begin="zoomminus.mouseover" end="zoomminus.mouseout"/>
                        </use>
                        <path d="M-4,0h8" fill="none" stroke="white" stroke-width="1.5" pointer-events="none"/>
                </g>
                <g id="dirArrow">
                        <path fill="none" stroke="white" stroke-width="1.5" d="M0,-3.0v7 M-2.5,-0.5L0,-3.0L2.5,-0.5"/>
                </g>
               <g id="resetDef">
                       <use xlink:href="#rim2" fill="#404040">
                               <set attributeName="fill" to="#808080" begin="reset.mouseover" end="reset.mouseout"/>
                       </use>
               </g>
        </defs>

<script type="text/javascript">
var viewWidth = 838;
var viewHeight = 204;
var sectionId = 'dynsection-1';
</script>
<script xlink:href="svgpan.js"/>
<svg id="graph" class="graph">
<g id="viewport">
<title>psi::PseudospectralInt</title>
<!-- Node1 -->
<g id="node1" class="node"><title>Node1</title>
<polygon fill="#bfbfbf" stroke="black" points="716,-57.5 716,-76.5 830,-76.5 830,-57.5 716,-57.5"/>
<text text-anchor="middle" x="773" y="-64.5" font-family="Helvetica,sans-Serif" font-size="10.00">psi::PseudospectralInt</text>
</g>
<!-- Node2 -->
<g id="node2" class="node"><title>Node2</title>
<g id="a_node2"><a xlink:href="classpsi_1_1OneBodyAOInt.html" target="_top" xlink:title="psi::OneBodyAOInt">
<polygon fill="none" stroke="black" points="462.5,-110.5 462.5,-129.5 563.5,-129.5 563.5,-110.5 462.5,-110.5"/>
<text text-anchor="middle" x="513" y="-117.5" font-family="Helvetica,sans-Serif" font-size="10.00">psi::OneBodyAOInt</text>
</a>
</g>
</g>
<!-- Node2&#45;&gt;Node1 -->
<g id="edge1" class="edge"><title>Node2&#45;&gt;Node1</title>
<path fill="none" stroke="midnightblue" d="M570.337,-108.427C616.816,-98.8788 681.973,-85.4939 725.515,-76.5492"/>
<polygon fill="midnightblue" stroke="midnightblue" points="569.514,-105.023 560.423,-110.463 570.923,-111.88 569.514,-105.023"/>
</g>
<!-- Node3 -->
<g id="node3" class="node"><title>Node3</title>
<g id="a_node3"><a xlink:href="classboost_1_1shared__ptr.html" target="_top" xlink:title="boost::shared_ptr\&lt;\l psi::BasisSet \&gt;">
<polygon fill="none" stroke="black" points="250,-166 250,-196 348,-196 348,-166 250,-166"/>
<text text-anchor="start" x="258" y="-184" font-family="Helvetica,sans-Serif" font-size="10.00">boost::shared_ptr&lt;</text>
<text text-anchor="middle" x="299" y="-173" font-family="Helvetica,sans-Serif" font-size="10.00"> psi::BasisSet &gt;</text>
</a>
</g>
</g>
<!-- Node3&#45;&gt;Node2 -->
<g id="edge2" class="edge"><title>Node3&#45;&gt;Node2</title>
<path fill="none" stroke="#9a32cd" stroke-dasharray="5,2" d="M357.974,-165.586C379.953,-159.627 405.175,-152.651 428,-146 446.027,-140.747 466.123,-134.54 482.138,-129.508"/>
<polygon fill="#9a32cd" stroke="#9a32cd" points="356.866,-162.26 348.125,-168.247 358.692,-169.017 356.866,-162.26"/>
<text text-anchor="middle" x="406" y="-171" font-family="Helvetica,sans-Serif" font-size="10.00"> bs2_</text>
<text text-anchor="middle" x="406" y="-160" font-family="Helvetica,sans-Serif" font-size="10.00">bs1_</text>
</g>
<!-- Node4 -->
<g id="node4" class="node"><title>Node4</title>
<g id="a_node4"><a xlink:href="classboost_1_1shared__ptr.html" target="_top" xlink:title="boost::shared_ptr\&lt; T \&gt;">
<polygon fill="none" stroke="black" points="0,-171.5 0,-190.5 116,-190.5 116,-171.5 0,-171.5"/>
<text text-anchor="middle" x="58" y="-178.5" font-family="Helvetica,sans-Serif" font-size="10.00">boost::shared_ptr&lt; T &gt;</text>
</a>
</g>
</g>
<!-- Node4&#45;&gt;Node3 -->
<g id="edge3" class="edge"><title>Node4&#45;&gt;Node3</title>
<path fill="none" stroke="orange" stroke-dasharray="5,2" d="M126.276,-181C165.555,-181 214.205,-181 249.683,-181"/>
<polygon fill="orange" stroke="orange" points="126.246,-177.5 116.246,-181 126.246,-184.5 126.246,-177.5"/>
<text text-anchor="middle" x="174" y="-184" font-family="Helvetica,sans-Serif" font-size="10.00"> &lt; psi::BasisSet &gt;</text>
</g>
<!-- Node5 -->
<g id="node5" class="node"><title>Node5</title>
<g id="a_node5"><a xlink:href="classpsi_1_1PyBuffer.html" target="_top" xlink:title="psi::PyBuffer\&lt; double \&gt;">
<polygon fill="none" stroke="black" points="239,-127.5 239,-146.5 359,-146.5 359,-127.5 239,-127.5"/>
<text text-anchor="middle" x="299" y="-134.5" font-family="Helvetica,sans-Serif" font-size="10.00">psi::PyBuffer&lt; double &gt;</text>
</a>
</g>
</g>
<!-- Node5&#45;&gt;Node2 -->
<g id="edge4" class="edge"><title>Node5&#45;&gt;Node2</title>
<path fill="none" stroke="#9a32cd" stroke-dasharray="5,2" d="M369.157,-131.454C399.519,-129.02 434.488,-126.216 462.226,-123.991"/>
<polygon fill="#9a32cd" stroke="#9a32cd" points="368.742,-127.976 359.054,-132.265 369.302,-134.954 368.742,-127.976"/>
<text text-anchor="middle" x="406" y="-134" font-family="Helvetica,sans-Serif" font-size="10.00"> pybuffer_</text>
</g>
<!-- Node6 -->
<g id="node6" class="node"><title>Node6</title>
<g id="a_node6"><a xlink:href="classpsi_1_1PyBuffer.html" target="_top" xlink:title="A thin wrapper to the NumPy array interface.">
<polygon fill="none" stroke="black" points="9,-127.5 9,-146.5 107,-146.5 107,-127.5 9,-127.5"/>
<text text-anchor="middle" x="58" y="-134.5" font-family="Helvetica,sans-Serif" font-size="10.00">psi::PyBuffer&lt; T &gt;</text>
</a>
</g>
</g>
<!-- Node6&#45;&gt;Node5 -->
<g id="edge5" class="edge"><title>Node6&#45;&gt;Node5</title>
<path fill="none" stroke="orange" stroke-dasharray="5,2" d="M117.203,-137C154.172,-137 201.875,-137 238.997,-137"/>
<polygon fill="orange" stroke="orange" points="117.078,-133.5 107.078,-137 117.078,-140.5 117.078,-133.5"/>
<text text-anchor="middle" x="174" y="-140" font-family="Helvetica,sans-Serif" font-size="10.00"> &lt; double &gt;</text>
</g>
<!-- Node7 -->
<g id="node7" class="node"><title>Node7</title>
<g id="a_node7"><a xlink:href="classpsi_1_1Vector3.html" target="_top" xlink:title="psi::Vector3">
<polygon fill="none" stroke="black" points="264.5,-89.5 264.5,-108.5 333.5,-108.5 333.5,-89.5 264.5,-89.5"/>
<text text-anchor="middle" x="299" y="-96.5" font-family="Helvetica,sans-Serif" font-size="10.00">psi::Vector3</text>
</a>
</g>
</g>
<!-- Node7&#45;&gt;Node2 -->
<g id="edge6" class="edge"><title>Node7&#45;&gt;Node2</title>
<path fill="none" stroke="#9a32cd" stroke-dasharray="5,2" d="M343.838,-103.342C378.352,-106.761 426.463,-111.527 462.386,-115.085"/>
<polygon fill="#9a32cd" stroke="#9a32cd" points="343.888,-99.8304 333.592,-102.328 343.198,-106.796 343.888,-99.8304"/>
<text text-anchor="middle" x="406" y="-115" font-family="Helvetica,sans-Serif" font-size="10.00"> origin_</text>
</g>
<!-- Node8 -->
<g id="node8" class="node"><title>Node8</title>
<g id="a_node8"><a xlink:href="classpsi_1_1ObaraSaikaTwoCenterVIRecursion.html" target="_top" xlink:title="Obara and Saika recursion object for potential integrals.">
<polygon fill="none" stroke="black" points="232,-26 232,-56 366,-56 366,-26 232,-26"/>
<text text-anchor="start" x="240" y="-44" font-family="Helvetica,sans-Serif" font-size="10.00">psi::ObaraSaikaTwoCenter</text>
<text text-anchor="middle" x="299" y="-33" font-family="Helvetica,sans-Serif" font-size="10.00">VIRecursion</text>
</a>
</g>
</g>
<!-- Node8&#45;&gt;Node1 -->
<g id="edge7" class="edge"><title>Node8&#45;&gt;Node1</title>
<path fill="none" stroke="#9a32cd" stroke-dasharray="5,2" d="M376.247,-45.2C471.263,-50.434 631.399,-59.255 715.9,-63.9097"/>
<polygon fill="#9a32cd" stroke="#9a32cd" points="376.304,-41.698 366.127,-44.6426 375.919,-48.6874 376.304,-41.698"/>
<text text-anchor="middle" x="513" y="-60" font-family="Helvetica,sans-Serif" font-size="10.00"> potential_recur_</text>
</g>
<!-- Node9 -->
<g id="node9" class="node"><title>Node9</title>
<g id="a_node9"><a xlink:href="classpsi_1_1ObaraSaikaTwoCenterVIDerivRecursion.html" target="_top" xlink:title="Obara and Saika recursion object for computing potential derivatives.">
<polygon fill="none" stroke="black" points="446,-0 446,-30 580,-30 580,-0 446,-0"/>
<text text-anchor="start" x="454" y="-18" font-family="Helvetica,sans-Serif" font-size="10.00">psi::ObaraSaikaTwoCenter</text>
<text text-anchor="middle" x="513" y="-7" font-family="Helvetica,sans-Serif" font-size="10.00">VIDerivRecursion</text>
</a>
</g>
</g>
<!-- Node8&#45;&gt;Node9 -->
<g id="edge9" class="edge"><title>Node8&#45;&gt;Node9</title>
<path fill="none" stroke="midnightblue" d="M376.188,-31.6562C399.003,-28.8581 423.824,-25.814 445.932,-23.1027"/>
<polygon fill="midnightblue" stroke="midnightblue" points="375.706,-28.189 366.206,-32.8804 376.558,-35.137 375.706,-28.189"/>
</g>
<!-- Node9&#45;&gt;Node1 -->
<g id="edge8" class="edge"><title>Node9&#45;&gt;Node1</title>
<path fill="none" stroke="#9a32cd" stroke-dasharray="5,2" d="M590.261,-23.0625C623.601,-27.3892 663.006,-33.5939 698,-42 714.746,-46.0226 733.088,-52.2067 747.323,-57.4178"/>
<polygon fill="#9a32cd" stroke="#9a32cd" points="590.481,-19.5625 580.121,-21.7797 589.602,-26.5072 590.481,-19.5625"/>
<text text-anchor="middle" x="648" y="-45" font-family="Helvetica,sans-Serif" font-size="10.00"> potential_deriv_recur_</text>
</g>
</g>
</svg>
        <g id="navigator" transform="translate(0 0)" fill="#404254">
                <rect fill="#f2f5e9" fill-opacity="0.5" stroke="#606060" stroke-width=".5" x="0" y="0" width="60" height="60"/>
                <use id="zoomplus" xlink:href="#zoomPlus" x="17" y="9" onmousedown="handleZoom(evt,'in')"/>
                <use id="zoomminus" xlink:href="#zoomMin" x="42" y="9" onmousedown="handleZoom(evt,'out')"/>
                <use id="reset" xlink:href="#resetDef" x="30" y="36" onmousedown="handleReset()"/>
                <g id="arrowUp" xlink:href="#dirArrow" transform="translate(30 24)" onmousedown="handlePan(0,-1)">
                  <use xlink:href="#rim" fill="#404040">
                        <set attributeName="fill" to="#808080" begin="arrowUp.mouseover" end="arrowUp.mouseout"/>
                  </use>
                  <path fill="none" stroke="white" stroke-width="1.5" d="M0,-3.0v7 M-2.5,-0.5L0,-3.0L2.5,-0.5"/>
                </g>
                <g id="arrowRight" xlink:href="#dirArrow" transform="rotate(90) translate(36 -43)" onmousedown="handlePan(1,0)">
                  <use xlink:href="#rim" fill="#404040">
                        <set attributeName="fill" to="#808080" begin="arrowRight.mouseover" end="arrowRight.mouseout"/>
                  </use>
                  <path fill="none" stroke="white" stroke-width="1.5" d="M0,-3.0v7 M-2.5,-0.5L0,-3.0L2.5,-0.5"/>
                </g>
                <g id="arrowDown" xlink:href="#dirArrow" transform="rotate(180) translate(-30 -48)" onmousedown="handlePan(0,1)">
                  <use xlink:href="#rim" fill="#404040">
                        <set attributeName="fill" to="#808080" begin="arrowDown.mouseover" end="arrowDown.mouseout"/>
                  </use>
                  <path fill="none" stroke="white" stroke-width="1.5" d="M0,-3.0v7 M-2.5,-0.5L0,-3.0L2.5,-0.5"/>
                </g>
                <g id="arrowLeft" xlink:href="#dirArrow" transform="rotate(270) translate(-36 17)" onmousedown="handlePan(-1,0)">
                  <use xlink:href="#rim" fill="#404040">
                        <set attributeName="fill" to="#808080" begin="arrowLeft.mouseover" end="arrowLeft.mouseout"/>
                  </use>
                  <path fill="none" stroke="white" stroke-width="1.5" d="M0,-3.0v7 M-2.5,-0.5L0,-3.0L2.5,-0.5"/>
                </g>
        </g>
        <svg viewBox="0 0 15 15" width="100%" height="30px" preserveAspectRatio="xMaxYMin meet">
         <g id="arrow_out" transform="scale(0.3 0.3)">
          <a xlink:href="classpsi_1_1PseudospectralInt__coll__graph_org.svg" target="_base">
           <rect id="button" ry="5" rx="5" y="6" x="6" height="38" width="38"
                fill="#f2f5e9" fill-opacity="0.5" stroke="#606060" stroke-width="1.0"/>
           <path id="arrow"
             d="M 11.500037,31.436501 C 11.940474,20.09759 22.043105,11.32322 32.158766,21.979434 L 37.068811,17.246167 C 37.068811,17.246167 37.088388,32 37.088388,32 L 22.160133,31.978069 C 22.160133,31.978069 26.997745,27.140456 26.997745,27.140456 C 18.528582,18.264221 13.291696,25.230495 11.500037,31.436501 z"
             style="fill:#404040;"/>
          </a>
         </g>
        </svg>
</svg>
