<?xml version="1.0" encoding="UTF-8" standalone="no"?>
<!DOCTYPE svg PUBLIC "-//W3C//DTD SVG 1.1//EN"
 "http://www.w3.org/Graphics/SVG/1.1/DTD/svg11.dtd">
<!-- Generated by graphviz version 2.30.1 (20140110.0959)
 -->
<!-- Title: psi::ElectrostaticInt Pages: 1 -->
<svg width="964pt" height="160pt"
 viewBox="0.00 0.00 964.00 160.00" xmlns="http://www.w3.org/2000/svg" xmlns:xlink="http://www.w3.org/1999/xlink">
<g id="graph0" class="graph" transform="scale(1 1) rotate(0) translate(4 156)">
<title>psi::ElectrostaticInt</title>
<!-- Node1 -->
<g id="node1" class="node"><title>Node1</title>
<polygon fill="#bfbfbf" stroke="black" points="854.5,-49.5 854.5,-68.5 955.5,-68.5 955.5,-49.5 854.5,-49.5"/>
<text text-anchor="middle" x="905" y="-56.5" font-family="Helvetica,sans-Serif" font-size="10.00">psi::ElectrostaticInt</text>
</g>
<!-- Node2 -->
<g id="node2" class="node"><title>Node2</title>
<g id="a_node2"><a xlink:href="classpsi_1_1PotentialInt.html" target="_top" xlink:title="Computes potential integrals. Use an IntegralFactory to create this object.">
<polygon fill="none" stroke="black" points="730.5,-49.5 730.5,-68.5 815.5,-68.5 815.5,-49.5 730.5,-49.5"/>
<text text-anchor="middle" x="773" y="-56.5" font-family="Helvetica,sans-Serif" font-size="10.00">psi::PotentialInt</text>
</a>
</g>
</g>
<!-- Node2&#45;&gt;Node1 -->
<g id="edge1" class="edge"><title>Node2&#45;&gt;Node1</title>
<path fill="none" stroke="midnightblue" d="M826.072,-59C835.3,-59 844.89,-59 854.058,-59"/>
<polygon fill="midnightblue" stroke="midnightblue" points="825.848,-55.5001 815.848,-59 825.848,-62.5001 825.848,-55.5001"/>
</g>
<!-- Node3 -->
<g id="node3" class="node"><title>Node3</title>
<g id="a_node3"><a xlink:href="classpsi_1_1OneBodyAOInt.html" target="_top" xlink:title="psi::OneBodyAOInt">
<polygon fill="none" stroke="black" points="502.5,-49.5 502.5,-68.5 603.5,-68.5 603.5,-49.5 502.5,-49.5"/>
<text text-anchor="middle" x="553" y="-56.5" font-family="Helvetica,sans-Serif" font-size="10.00">psi::OneBodyAOInt</text>
</a>
</g>
</g>
<!-- Node3&#45;&gt;Node2 -->
<g id="edge2" class="edge"><title>Node3&#45;&gt;Node2</title>
<path fill="none" stroke="midnightblue" d="M613.879,-59C650.788,-59 697.198,-59 730.169,-59"/>
<polygon fill="midnightblue" stroke="midnightblue" points="613.74,-55.5001 603.74,-59 613.74,-62.5001 613.74,-55.5001"/>
</g>
<!-- Node4 -->
<g id="node4" class="node"><title>Node4</title>
<g id="a_node4"><a xlink:href="classboost_1_1shared__ptr.html" target="_top" xlink:title="boost::shared_ptr\&lt;\l psi::BasisSet \&gt;">
<polygon fill="none" stroke="black" points="243,-79 243,-109 341,-109 341,-79 243,-79"/>
<text text-anchor="start" x="251" y="-97" font-family="Helvetica,sans-Serif" font-size="10.00">boost::shared_ptr&lt;</text>
<text text-anchor="middle" x="292" y="-86" font-family="Helvetica,sans-Serif" font-size="10.00"> psi::BasisSet &gt;</text>
</a>
</g>
</g>
<!-- Node4&#45;&gt;Node3 -->
<g id="edge3" class="edge"><title>Node4&#45;&gt;Node3</title>
<path fill="none" stroke="#9a32cd" stroke-dasharray="5,2" d="M351.123,-86.1455C396.624,-79.9968 459.221,-71.5378 502.385,-65.7047"/>
<polygon fill="#9a32cd" stroke="#9a32cd" points="350.55,-82.6911 341.109,-87.4988 351.488,-89.628 350.55,-82.6911"/>
<text text-anchor="middle" x="419" y="-97" font-family="Helvetica,sans-Serif" font-size="10.00"> bs2_</text>
<text text-anchor="middle" x="419" y="-86" font-family="Helvetica,sans-Serif" font-size="10.00">bs1_</text>
</g>
<!-- Node5 -->
<g id="node5" class="node"><title>Node5</title>
<g id="a_node5"><a xlink:href="classboost_1_1shared__ptr.html" target="_top" xlink:title="boost::shared_ptr\&lt; T \&gt;">
<polygon fill="none" stroke="black" points="0,-111.5 0,-130.5 116,-130.5 116,-111.5 0,-111.5"/>
<text text-anchor="middle" x="58" y="-118.5" font-family="Helvetica,sans-Serif" font-size="10.00">boost::shared_ptr&lt; T &gt;</text>
</a>
</g>
</g>
<!-- Node5&#45;&gt;Node4 -->
<g id="edge4" class="edge"><title>Node5&#45;&gt;Node4</title>
<path fill="none" stroke="orange" stroke-dasharray="5,2" d="M108.346,-109.447C116.865,-107.747 125.661,-106.176 134,-105 170.255,-99.8884 211.572,-97.1141 242.717,-95.6308"/>
<polygon fill="orange" stroke="orange" points="107.598,-106.028 98.517,-111.485 109.019,-112.882 107.598,-106.028"/>
<text text-anchor="middle" x="174" y="-108" font-family="Helvetica,sans-Serif" font-size="10.00"> &lt; psi::BasisSet &gt;</text>
</g>
<!-- Node10 -->
<g id="node10" class="node"><title>Node10</title>
<g id="a_node10"><a xlink:href="classboost_1_1shared__ptr.html" target="_top" xlink:title="boost::shared_ptr\&lt;\l psi::Matrix \&gt;">
<polygon fill="none" stroke="black" points="370,-121 370,-151 468,-151 468,-121 370,-121"/>
<text text-anchor="start" x="378" y="-139" font-family="Helvetica,sans-Serif" font-size="10.00">boost::shared_ptr&lt;</text>
<text text-anchor="middle" x="419" y="-128" font-family="Helvetica,sans-Serif" font-size="10.00"> psi::Matrix &gt;</text>
</a>
</g>
</g>
<!-- Node5&#45;&gt;Node10 -->
<g id="edge10" class="edge"><title>Node5&#45;&gt;Node10</title>
<path fill="none" stroke="orange" stroke-dasharray="5,2" d="M126.453,-123.818C197.373,-126.782 307.18,-131.37 369.834,-133.988"/>
<polygon fill="orange" stroke="orange" points="126.419,-120.314 116.282,-123.393 126.127,-127.308 126.419,-120.314"/>
<text text-anchor="middle" x="174" y="-131" font-family="Helvetica,sans-Serif" font-size="10.00"> &lt; psi::Matrix &gt;</text>
</g>
<!-- Node6 -->
<g id="node6" class="node"><title>Node6</title>
<g id="a_node6"><a xlink:href="classpsi_1_1PyBuffer.html" target="_top" xlink:title="psi::PyBuffer\&lt; double \&gt;">
<polygon fill="none" stroke="black" points="232,-40.5 232,-59.5 352,-59.5 352,-40.5 232,-40.5"/>
<text text-anchor="middle" x="292" y="-47.5" font-family="Helvetica,sans-Serif" font-size="10.00">psi::PyBuffer&lt; double &gt;</text>
</a>
</g>
</g>
<!-- Node6&#45;&gt;Node3 -->
<g id="edge5" class="edge"><title>Node6&#45;&gt;Node3</title>
<path fill="none" stroke="#9a32cd" stroke-dasharray="5,2" d="M362.181,-52.404C406.338,-53.9384 462.543,-55.8915 502.302,-57.273"/>
<polygon fill="#9a32cd" stroke="#9a32cd" points="362.211,-48.903 352.095,-52.0535 361.968,-55.8988 362.211,-48.903"/>
<text text-anchor="middle" x="419" y="-59" font-family="Helvetica,sans-Serif" font-size="10.00"> pybuffer_</text>
</g>
<!-- Node7 -->
<g id="node7" class="node"><title>Node7</title>
<g id="a_node7"><a xlink:href="classpsi_1_1PyBuffer.html" target="_top" xlink:title="A thin wrapper to the NumPy array interface.">
<polygon fill="none" stroke="black" points="9,-40.5 9,-59.5 107,-59.5 107,-40.5 9,-40.5"/>
<text text-anchor="middle" x="58" y="-47.5" font-family="Helvetica,sans-Serif" font-size="10.00">psi::PyBuffer&lt; T &gt;</text>
</a>
</g>
</g>
<!-- Node7&#45;&gt;Node6 -->
<g id="edge6" class="edge"><title>Node7&#45;&gt;Node6</title>
<path fill="none" stroke="orange" stroke-dasharray="5,2" d="M117.149,-50C152.177,-50 196.665,-50 231.868,-50"/>
<polygon fill="orange" stroke="orange" points="117.071,-46.5001 107.071,-50 117.071,-53.5001 117.071,-46.5001"/>
<text text-anchor="middle" x="174" y="-53" font-family="Helvetica,sans-Serif" font-size="10.00"> &lt; double &gt;</text>
</g>
<!-- Node8 -->
<g id="node8" class="node"><title>Node8</title>
<g id="a_node8"><a xlink:href="classpsi_1_1Vector3.html" target="_top" xlink:title="psi::Vector3">
<polygon fill="none" stroke="black" points="257.5,-2.5 257.5,-21.5 326.5,-21.5 326.5,-2.5 257.5,-2.5"/>
<text text-anchor="middle" x="292" y="-9.5" font-family="Helvetica,sans-Serif" font-size="10.00">psi::Vector3</text>
</a>
</g>
</g>
<!-- Node8&#45;&gt;Node3 -->
<g id="edge7" class="edge"><title>Node8&#45;&gt;Node3</title>
<path fill="none" stroke="#9a32cd" stroke-dasharray="5,2" d="M336.753,-17.2971C372.276,-21.8863 423.581,-29.1697 468,-38 484.218,-41.224 502.008,-45.5547 517.024,-49.4457"/>
<polygon fill="#9a32cd" stroke="#9a32cd" points="337.079,-13.8103 326.716,-16.0179 336.194,-20.7542 337.079,-13.8103"/>
<text text-anchor="middle" x="419" y="-41" font-family="Helvetica,sans-Serif" font-size="10.00"> origin_</text>
</g>
<!-- Node9 -->
<g id="node9" class="node"><title>Node9</title>
<g id="a_node9"><a xlink:href="classpsi_1_1ObaraSaikaTwoCenterVIRecursion.html" target="_top" xlink:title="Obara and Saika recursion object for potential integrals.">
<polygon fill="none" stroke="black" points="486,-0 486,-30 620,-30 620,-0 486,-0"/>
<text text-anchor="start" x="494" y="-18" font-family="Helvetica,sans-Serif" font-size="10.00">psi::ObaraSaikaTwoCenter</text>
<text text-anchor="middle" x="553" y="-7" font-family="Helvetica,sans-Serif" font-size="10.00">VIRecursion</text>
</a>
</g>
</g>
<!-- Node9&#45;&gt;Node2 -->
<g id="edge8" class="edge"><title>Node9&#45;&gt;Node2</title>
<path fill="none" stroke="#9a32cd" stroke-dasharray="5,2" d="M630.453,-28.023C656.408,-32.7121 685.531,-38.2683 712,-44 719.556,-45.6361 727.607,-47.5385 735.278,-49.4278"/>
<polygon fill="#9a32cd" stroke="#9a32cd" points="630.759,-24.5221 620.298,-26.2032 629.524,-31.4124 630.759,-24.5221"/>
<text text-anchor="middle" x="675" y="-47" font-family="Helvetica,sans-Serif" font-size="10.00"> potential_recur_</text>
</g>
<!-- Node10&#45;&gt;Node2 -->
<g id="edge9" class="edge"><title>Node10&#45;&gt;Node2</title>
<path fill="none" stroke="#9a32cd" stroke-dasharray="5,2" d="M477.98,-123.789C536.946,-111.301 630.922,-91.2043 712,-73 718.366,-71.5706 725.105,-70.0275 731.678,-68.506"/>
<polygon fill="#9a32cd" stroke="#9a32cd" points="477.166,-120.384 468.107,-125.878 478.615,-127.232 477.166,-120.384"/>
<text text-anchor="middle" x="553" y="-125" font-family="Helvetica,sans-Serif" font-size="10.00"> Zxyz_</text>
</g>
</g>
</svg>
