<?xml version="1.0" encoding="UTF-8" standalone="no"?>
<!DOCTYPE svg PUBLIC "-//W3C//DTD SVG 1.1//EN"
 "http://www.w3.org/Graphics/SVG/1.1/DTD/svg11.dtd">
<!-- Generated by graphviz version 2.30.1 (20140110.0959)
 -->
<!-- Title: psi::Matrix::set_by_python_list Pages: 1 -->
<svg width="368pt" height="104pt"
 viewBox="0.00 0.00 368.00 104.00" xmlns="http://www.w3.org/2000/svg" xmlns:xlink="http://www.w3.org/1999/xlink">
<g id="graph0" class="graph" transform="scale(1 1) rotate(0) translate(4 100)">
<title>psi::Matrix::set_by_python_list</title>
<!-- Node1 -->
<g id="node1" class="node"><title>Node1</title>
<polygon fill="#bfbfbf" stroke="black" points="0,-33 0,-63 98,-63 98,-33 0,-33"/>
<text text-anchor="start" x="8" y="-51" font-family="Helvetica,sans-Serif" font-size="10.00">psi::Matrix::set_by</text>
<text text-anchor="middle" x="49" y="-40" font-family="Helvetica,sans-Serif" font-size="10.00">_python_list</text>
</g>
<!-- Node2 -->
<g id="node2" class="node"><title>Node2</title>
<g id="a_node2"><a xlink:href="classpsi_1_1Matrix.html#a1a2168c5e0a0b8b003dae927e4050c7b" target="_top" xlink:title="Returns the total number of rows.">
<polygon fill="none" stroke="black" points="134.5,-57.5 134.5,-76.5 223.5,-76.5 223.5,-57.5 134.5,-57.5"/>
<text text-anchor="middle" x="179" y="-64.5" font-family="Helvetica,sans-Serif" font-size="10.00">psi::Matrix::nrow</text>
</a>
</g>
</g>
<!-- Node1&#45;&gt;Node2 -->
<g id="edge1" class="edge"><title>Node1&#45;&gt;Node2</title>
<path fill="none" stroke="midnightblue" d="M98.0266,-55.129C106.592,-56.4004 115.566,-57.7325 124.279,-59.0258"/>
<polygon fill="midnightblue" stroke="midnightblue" points="123.941,-62.5139 134.347,-60.5202 124.969,-55.5898 123.941,-62.5139"/>
</g>
<!-- Node5 -->
<g id="node5" class="node"><title>Node5</title>
<g id="a_node5"><a xlink:href="classpsi_1_1Matrix.html#aa37b776debf539816ecfb7298e4f5484" target="_top" xlink:title="Returns the total number of columns.">
<polygon fill="none" stroke="black" points="136,-19.5 136,-38.5 222,-38.5 222,-19.5 136,-19.5"/>
<text text-anchor="middle" x="179" y="-26.5" font-family="Helvetica,sans-Serif" font-size="10.00">psi::Matrix::ncol</text>
</a>
</g>
</g>
<!-- Node1&#45;&gt;Node5 -->
<g id="edge4" class="edge"><title>Node1&#45;&gt;Node5</title>
<path fill="none" stroke="midnightblue" d="M98.0266,-40.871C106.995,-39.5398 116.41,-38.1423 125.505,-36.7923"/>
<polygon fill="midnightblue" stroke="midnightblue" points="126.218,-40.2248 135.596,-35.2944 125.19,-33.3007 126.218,-40.2248"/>
</g>
<!-- Node3 -->
<g id="node3" class="node"><title>Node3</title>
<g id="a_node3"><a xlink:href="classpsi_1_1Matrix.html#a0acfcfb5d8cb154b3220989ac55589bd" target="_top" xlink:title="Returns the number of irreps.">
<polygon fill="none" stroke="black" points="264,-38.5 264,-57.5 356,-57.5 356,-38.5 264,-38.5"/>
<text text-anchor="middle" x="310" y="-45.5" font-family="Helvetica,sans-Serif" font-size="10.00">psi::Matrix::nirrep</text>
</a>
</g>
</g>
<!-- Node2&#45;&gt;Node3 -->
<g id="edge2" class="edge"><title>Node2&#45;&gt;Node3</title>
<path fill="none" stroke="midnightblue" d="M223.674,-60.5675C233.322,-59.1464 243.667,-57.6227 253.708,-56.1438"/>
<polygon fill="midnightblue" stroke="midnightblue" points="254.227,-59.6052 263.61,-54.6853 253.207,-52.6799 254.227,-59.6052"/>
</g>
<!-- Node4 -->
<g id="node4" class="node"><title>Node4</title>
<g id="a_node4"><a xlink:href="classpsi_1_1Matrix.html#a9e517cfa7db99a049c4c2f1324286bbf" target="_top" xlink:title="Returns the rows in irrep h.">
<polygon fill="none" stroke="black" points="260,-76.5 260,-95.5 360,-95.5 360,-76.5 260,-76.5"/>
<text text-anchor="middle" x="310" y="-83.5" font-family="Helvetica,sans-Serif" font-size="10.00">psi::Matrix::rowdim</text>
</a>
</g>
</g>
<!-- Node2&#45;&gt;Node4 -->
<g id="edge3" class="edge"><title>Node2&#45;&gt;Node4</title>
<path fill="none" stroke="midnightblue" d="M223.674,-73.4325C231.974,-74.6551 240.79,-75.9536 249.485,-77.2342"/>
<polygon fill="midnightblue" stroke="midnightblue" points="249.195,-80.7291 259.598,-78.7237 250.215,-73.8038 249.195,-80.7291"/>
</g>
<!-- Node5&#45;&gt;Node3 -->
<g id="edge5" class="edge"><title>Node5&#45;&gt;Node3</title>
<path fill="none" stroke="midnightblue" d="M222.239,-35.2213C232.263,-36.6976 243.103,-38.2943 253.614,-39.8424"/>
<polygon fill="midnightblue" stroke="midnightblue" points="253.15,-43.3117 263.553,-41.3063 254.17,-36.3864 253.15,-43.3117"/>
</g>
<!-- Node6 -->
<g id="node6" class="node"><title>Node6</title>
<g id="a_node6"><a xlink:href="classpsi_1_1Matrix.html#af77ccf2eab7f3eed614c44492e9598d4" target="_top" xlink:title="Returns the cols in irrep h.">
<polygon fill="none" stroke="black" points="261.5,-0.5 261.5,-19.5 358.5,-19.5 358.5,-0.5 261.5,-0.5"/>
<text text-anchor="middle" x="310" y="-7.5" font-family="Helvetica,sans-Serif" font-size="10.00">psi::Matrix::coldim</text>
</a>
</g>
</g>
<!-- Node5&#45;&gt;Node6 -->
<g id="edge6" class="edge"><title>Node5&#45;&gt;Node6</title>
<path fill="none" stroke="midnightblue" d="M222.239,-22.7787C231.511,-21.4132 241.481,-19.9446 251.243,-18.5068"/>
<polygon fill="midnightblue" stroke="midnightblue" points="251.92,-21.945 261.303,-17.0251 250.9,-15.0197 251.92,-21.945"/>
</g>
</g>
</svg>
