<?xml version="1.0" encoding="UTF-8" standalone="no"?>
<!DOCTYPE svg PUBLIC "-//W3C//DTD SVG 1.1//EN"
 "http://www.w3.org/Graphics/SVG/1.1/DTD/svg11.dtd">
<!-- Generated by graphviz version 2.30.1 (20140110.0959)
 -->
<!-- Title: psi::OrbitalSpace::overlap Pages: 1 -->
<svg width="282pt" height="126pt"
 viewBox="0.00 0.00 282.00 126.00" xmlns="http://www.w3.org/2000/svg" xmlns:xlink="http://www.w3.org/1999/xlink">
<g id="graph0" class="graph" transform="scale(1 1) rotate(0) translate(4 122)">
<title>psi::OrbitalSpace::overlap</title>
<!-- Node1 -->
<g id="node1" class="node"><title>Node1</title>
<polygon fill="#bfbfbf" stroke="black" points="0,-49 0,-79 98,-79 98,-49 0,-49"/>
<text text-anchor="start" x="8" y="-67" font-family="Helvetica,sans-Serif" font-size="10.00">psi::OrbitalSpace::</text>
<text text-anchor="middle" x="49" y="-56" font-family="Helvetica,sans-Serif" font-size="10.00">overlap</text>
</g>
<!-- Node2 -->
<g id="node2" class="node"><title>Node2</title>
<g id="a_node2"><a xlink:href="classpsi_1_1SOBasisSet.html#a62251ccea0d79d80390e1ea4da87cbb8" target="_top" xlink:title="Returns the dimension for each irrep.">
<polygon fill="none" stroke="black" points="134,-98.5 134,-117.5 274,-117.5 274,-98.5 134,-98.5"/>
<text text-anchor="middle" x="204" y="-105.5" font-family="Helvetica,sans-Serif" font-size="10.00">psi::SOBasisSet::dimension</text>
</a>
</g>
</g>
<!-- Node1&#45;&gt;Node2 -->
<g id="edge1" class="edge"><title>Node1&#45;&gt;Node2</title>
<path fill="none" stroke="midnightblue" d="M98.4102,-77.9219C118.241,-83.6249 140.996,-90.1689 160.207,-95.6935"/>
<polygon fill="midnightblue" stroke="midnightblue" points="159.318,-99.0796 169.896,-98.4798 161.252,-92.3522 159.318,-99.0796"/>
</g>
<!-- Node3 -->
<g id="node3" class="node"><title>Node3</title>
<g id="a_node3"><a xlink:href="classpsi_1_1IntegralFactory.html#aa9e2018f37b6cbe2b9b90fed70447807" target="_top" xlink:title="Returns an OneBodyInt that computes the overlap integral.">
<polygon fill="none" stroke="black" points="153.5,-49 153.5,-79 254.5,-79 254.5,-49 153.5,-49"/>
<text text-anchor="start" x="161.5" y="-67" font-family="Helvetica,sans-Serif" font-size="10.00">psi::IntegralFactory</text>
<text text-anchor="middle" x="204" y="-56" font-family="Helvetica,sans-Serif" font-size="10.00">::so_overlap</text>
</a>
</g>
</g>
<!-- Node1&#45;&gt;Node3 -->
<g id="edge2" class="edge"><title>Node1&#45;&gt;Node3</title>
<path fill="none" stroke="midnightblue" d="M98.4102,-64C112.637,-64 128.368,-64 143.216,-64"/>
<polygon fill="midnightblue" stroke="midnightblue" points="143.325,-67.5001 153.325,-64 143.325,-60.5001 143.325,-67.5001"/>
</g>
<!-- Node4 -->
<g id="node4" class="node"><title>Node4</title>
<g id="a_node4"><a xlink:href="classpsi_1_1OneBodySOInt.html#a24c3503f99d80bac0bcbccc4cc3c82df" target="_top" xlink:title="psi::OneBodySOInt::\lcompute">
<polygon fill="none" stroke="black" points="150.5,-0 150.5,-30 257.5,-30 257.5,-0 150.5,-0"/>
<text text-anchor="start" x="158.5" y="-18" font-family="Helvetica,sans-Serif" font-size="10.00">psi::OneBodySOInt::</text>
<text text-anchor="middle" x="204" y="-7" font-family="Helvetica,sans-Serif" font-size="10.00">compute</text>
</a>
</g>
</g>
<!-- Node1&#45;&gt;Node4 -->
<g id="edge3" class="edge"><title>Node1&#45;&gt;Node4</title>
<path fill="none" stroke="midnightblue" d="M97.1535,-48.8986C112.641,-43.9385 130.02,-38.3726 146.149,-33.2071"/>
<polygon fill="midnightblue" stroke="midnightblue" points="147.546,-36.4349 156.002,-30.0516 145.411,-29.7684 147.546,-36.4349"/>
</g>
</g>
</svg>
