<?xml version="1.0" encoding="UTF-8" standalone="no"?>
<!DOCTYPE svg PUBLIC "-//W3C//DTD SVG 1.1//EN"
 "http://www.w3.org/Graphics/SVG/1.1/DTD/svg11.dtd">
<!-- Generated by graphviz version 2.30.1 (20140110.0959)
 -->
<!-- Title: yeti::DataCache::pull Pages: 1 -->
<svg width="264pt" height="46pt"
 viewBox="0.00 0.00 264.00 46.00" xmlns="http://www.w3.org/2000/svg" xmlns:xlink="http://www.w3.org/1999/xlink">
<g id="graph0" class="graph" transform="scale(1 1) rotate(0) translate(4 42)">
<title>yeti::DataCache::pull</title>
<!-- Node1 -->
<g id="node1" class="node"><title>Node1</title>
<polygon fill="#bfbfbf" stroke="black" points="0.5,-0.5 0.5,-19.5 109.5,-19.5 109.5,-0.5 0.5,-0.5"/>
<text text-anchor="middle" x="55" y="-7.5" font-family="Helvetica,sans-Serif" font-size="10.00">yeti::DataCache::pull</text>
</g>
<!-- Node2 -->
<g id="node2" class="node"><title>Node2</title>
<g id="a_node2"><a xlink:href="classyeti_1_1DataCache.html#a501b05373fbcc1f2d68f9fc3dc44ebef" target="_top" xlink:title="yeti::DataCache::pull">
<polygon fill="none" stroke="black" points="146.5,-0.5 146.5,-19.5 255.5,-19.5 255.5,-0.5 146.5,-0.5"/>
<text text-anchor="middle" x="201" y="-7.5" font-family="Helvetica,sans-Serif" font-size="10.00">yeti::DataCache::pull</text>
</a>
</g>
</g>
<!-- Node1&#45;&gt;Node2 -->
<g id="edge1" class="edge"><title>Node1&#45;&gt;Node2</title>
<path fill="none" stroke="midnightblue" d="M109.62,-10C118.241,-10 127.239,-10 136.073,-10"/>
<polygon fill="midnightblue" stroke="midnightblue" points="136.335,-13.5001 146.335,-10 136.335,-6.5001 136.335,-13.5001"/>
</g>
<!-- Node2&#45;&gt;Node2 -->
<g id="edge2" class="edge"><title>Node2&#45;&gt;Node2</title>
<path fill="none" stroke="midnightblue" d="M178.497,-19.7571C167.55,-28.5653 175.051,-38 201,-38 218.029,-38 227.113,-33.9368 228.253,-28.6539"/>
<polygon fill="midnightblue" stroke="midnightblue" points="231.3,-26.9303 223.503,-19.7571 225.125,-30.227 231.3,-26.9303"/>
</g>
</g>
</svg>
