<?xml version="1.0" encoding="UTF-8" standalone="no"?>
<!DOCTYPE svg PUBLIC "-//W3C//DTD SVG 1.1//EN"
 "http://www.w3.org/Graphics/SVG/1.1/DTD/svg11.dtd">
<!-- Generated by graphviz version 2.30.1 (20140110.0959)
 -->
<!-- Title: yeti::ThreadLock Pages: 1 -->
<svg width="149pt" height="154pt"
 viewBox="0.00 0.00 149.00 154.00" xmlns="http://www.w3.org/2000/svg" xmlns:xlink="http://www.w3.org/1999/xlink">
<g id="graph0" class="graph" transform="scale(1 1) rotate(0) translate(4 150)">
<title>yeti::ThreadLock</title>
<!-- Node1 -->
<g id="node1" class="node"><title>Node1</title>
<polygon fill="#bfbfbf" stroke="black" points="23.5,-0.5 23.5,-19.5 112.5,-19.5 112.5,-0.5 23.5,-0.5"/>
<text text-anchor="middle" x="68" y="-7.5" font-family="Helvetica,sans-Serif" font-size="10.00">yeti::ThreadLock</text>
</g>
<!-- Node2 -->
<g id="node2" class="node"><title>Node2</title>
<g id="a_node2"><a xlink:href="classyeti_1_1Malloc.html" target="_top" xlink:title="yeti::Malloc\&lt; ThreadLock \&gt;">
<polygon fill="none" stroke="black" points="0,-58.5 0,-77.5 136,-77.5 136,-58.5 0,-58.5"/>
<text text-anchor="middle" x="68" y="-65.5" font-family="Helvetica,sans-Serif" font-size="10.00">yeti::Malloc&lt; ThreadLock &gt;</text>
</a>
</g>
</g>
<!-- Node2&#45;&gt;Node1 -->
<g id="edge1" class="edge"><title>Node2&#45;&gt;Node1</title>
<path fill="none" stroke="midnightblue" d="M68,-47.953C68,-38.2875 68,-27.0312 68,-19.5052"/>
<polygon fill="midnightblue" stroke="midnightblue" points="64.5001,-48.25 68,-58.25 71.5001,-48.25 64.5001,-48.25"/>
</g>
<!-- Node3 -->
<g id="node3" class="node"><title>Node3</title>
<g id="a_node3"><a xlink:href="classyeti_1_1Malloc.html" target="_top" xlink:title="yeti::Malloc\&lt; T \&gt;">
<polygon fill="none" stroke="black" points="22.5,-126.5 22.5,-145.5 113.5,-145.5 113.5,-126.5 22.5,-126.5"/>
<text text-anchor="middle" x="68" y="-133.5" font-family="Helvetica,sans-Serif" font-size="10.00">yeti::Malloc&lt; T &gt;</text>
</a>
</g>
</g>
<!-- Node3&#45;&gt;Node2 -->
<g id="edge2" class="edge"><title>Node3&#45;&gt;Node2</title>
<path fill="none" stroke="orange" stroke-dasharray="5,2" d="M68,-116.041C68,-103.472 68,-87.5631 68,-77.8411"/>
<polygon fill="orange" stroke="orange" points="64.5001,-116.372 68,-126.372 71.5001,-116.372 64.5001,-116.372"/>
<text text-anchor="middle" x="104.5" y="-99.5" font-family="Helvetica,sans-Serif" font-size="10.00"> &lt; ThreadLock &gt;</text>
</g>
</g>
</svg>
