<?xml version="1.0" encoding="UTF-8" standalone="no"?>
<!DOCTYPE svg PUBLIC "-//W3C//DTD SVG 1.1//EN"
 "http://www.w3.org/Graphics/SVG/1.1/DTD/svg11.dtd">
<!-- Generated by graphviz version 2.30.1 (20140110.0959)
 -->
<!-- Title: psi::ZMatrixEntry::compute Pages: 1 -->
<svg width="238pt" height="104pt"
 viewBox="0.00 0.00 238.00 104.00" xmlns="http://www.w3.org/2000/svg" xmlns:xlink="http://www.w3.org/1999/xlink">
<g id="graph0" class="graph" transform="scale(1 1) rotate(0) translate(4 100)">
<title>psi::ZMatrixEntry::compute</title>
<!-- Node1 -->
<g id="node1" class="node"><title>Node1</title>
<polygon fill="#bfbfbf" stroke="black" points="0,-33 0,-63 98,-63 98,-33 0,-33"/>
<text text-anchor="start" x="8" y="-51" font-family="Helvetica,sans-Serif" font-size="10.00">psi::ZMatrixEntry::</text>
<text text-anchor="middle" x="49" y="-40" font-family="Helvetica,sans-Serif" font-size="10.00">compute</text>
</g>
<!-- Node2 -->
<g id="node2" class="node"><title>Node2</title>
<g id="a_node2"><a xlink:href="classpsi_1_1CoordEntry.html#aa815e051c9df76a3c6a82d2c8e0ba643" target="_top" xlink:title="Computes the distance between two sets of coordinates.">
<polygon fill="none" stroke="black" points="135,-76.5 135,-95.5 229,-95.5 229,-76.5 135,-76.5"/>
<text text-anchor="middle" x="182" y="-83.5" font-family="Helvetica,sans-Serif" font-size="10.00">psi::CoordEntry::r</text>
</a>
</g>
</g>
<!-- Node1&#45;&gt;Node2 -->
<g id="edge1" class="edge"><title>Node1&#45;&gt;Node2</title>
<path fill="none" stroke="midnightblue" d="M98.0357,-61.934C111.173,-65.7448 125.321,-69.8489 138.148,-73.5696"/>
<polygon fill="midnightblue" stroke="midnightblue" points="137.528,-77.034 148.107,-76.4585 139.478,-70.3111 137.528,-77.034"/>
</g>
<!-- Node3 -->
<g id="node3" class="node"><title>Node3</title>
<g id="a_node3"><a xlink:href="classpsi_1_1CoordEntry.html#ad13d2240fea3b40319a22d2a9c6d58e8" target="_top" xlink:title="Computes the angle (in rad.) between three sets of coordinates.">
<polygon fill="none" stroke="black" points="134,-38.5 134,-57.5 230,-57.5 230,-38.5 134,-38.5"/>
<text text-anchor="middle" x="182" y="-45.5" font-family="Helvetica,sans-Serif" font-size="10.00">psi::CoordEntry::a</text>
</a>
</g>
</g>
<!-- Node1&#45;&gt;Node3 -->
<g id="edge2" class="edge"><title>Node1&#45;&gt;Node3</title>
<path fill="none" stroke="midnightblue" d="M98.0357,-48C106.342,-48 115.052,-48 123.578,-48"/>
<polygon fill="midnightblue" stroke="midnightblue" points="123.845,-51.5001 133.845,-48 123.845,-44.5001 123.845,-51.5001"/>
</g>
<!-- Node4 -->
<g id="node4" class="node"><title>Node4</title>
<g id="a_node4"><a xlink:href="classpsi_1_1CoordEntry.html#ae30a478e2e0bc119a3728b2a55e6413b" target="_top" xlink:title="Computes the dihedral (in rad.) between four sets of coordinates.">
<polygon fill="none" stroke="black" points="134,-0.5 134,-19.5 230,-19.5 230,-0.5 134,-0.5"/>
<text text-anchor="middle" x="182" y="-7.5" font-family="Helvetica,sans-Serif" font-size="10.00">psi::CoordEntry::d</text>
</a>
</g>
</g>
<!-- Node1&#45;&gt;Node4 -->
<g id="edge3" class="edge"><title>Node1&#45;&gt;Node4</title>
<path fill="none" stroke="midnightblue" d="M98.0357,-34.066C111.173,-30.2552 125.321,-26.1511 138.148,-22.4304"/>
<polygon fill="midnightblue" stroke="midnightblue" points="139.478,-25.6889 148.107,-19.5415 137.528,-18.966 139.478,-25.6889"/>
</g>
</g>
</svg>
