<?xml version="1.0" encoding="UTF-8" standalone="no"?>
<!DOCTYPE svg PUBLIC "-//W3C//DTD SVG 1.1//EN"
 "http://www.w3.org/Graphics/SVG/1.1/DTD/svg11.dtd">
<!-- Generated by graphviz version 2.30.1 (20140110.0959)
 -->
<!-- Title: psi::CFunctional Pages: 1 -->
<svg width="105pt" height="176pt"
 viewBox="0.00 0.00 105.00 176.00" xmlns="http://www.w3.org/2000/svg" xmlns:xlink="http://www.w3.org/1999/xlink">
<g id="graph0" class="graph" transform="scale(1 1) rotate(0) translate(4 172)">
<title>psi::CFunctional</title>
<!-- Node1 -->
<g id="node1" class="node"><title>Node1</title>
<polygon fill="#bfbfbf" stroke="black" points="0,-0.5 0,-19.5 88,-19.5 88,-0.5 0,-0.5"/>
<text text-anchor="middle" x="44" y="-7.5" font-family="Helvetica,sans-Serif" font-size="10.00">psi::CFunctional</text>
</g>
<!-- Node2 -->
<g id="node2" class="node"><title>Node2</title>
<g id="a_node2"><a xlink:href="classpsi_1_1Functional.html" target="_top" xlink:title="psi::Functional">
<polygon fill="none" stroke="black" points="4,-58.5 4,-77.5 84,-77.5 84,-58.5 4,-58.5"/>
<text text-anchor="middle" x="44" y="-65.5" font-family="Helvetica,sans-Serif" font-size="10.00">psi::Functional</text>
</a>
</g>
</g>
<!-- Node2&#45;&gt;Node1 -->
<g id="edge1" class="edge"><title>Node2&#45;&gt;Node1</title>
<path fill="none" stroke="midnightblue" d="M44,-47.953C44,-38.2875 44,-27.0312 44,-19.5052"/>
<polygon fill="midnightblue" stroke="midnightblue" points="40.5001,-48.25 44,-58.25 47.5001,-48.25 40.5001,-48.25"/>
</g>
<!-- Node3 -->
<g id="node3" class="node"><title>Node3</title>
<polygon fill="none" stroke="#bfbfbf" points="23.5,-148.5 23.5,-167.5 64.5,-167.5 64.5,-148.5 23.5,-148.5"/>
<text text-anchor="middle" x="44" y="-155.5" font-family="Helvetica,sans-Serif" font-size="10.00">string</text>
</g>
<!-- Node3&#45;&gt;Node2 -->
<g id="edge2" class="edge"><title>Node3&#45;&gt;Node2</title>
<path fill="none" stroke="#9a32cd" stroke-dasharray="5,2" d="M44,-137.978C44,-119.31 44,-91.6696 44,-77.7241"/>
<polygon fill="#9a32cd" stroke="#9a32cd" points="40.5001,-138.24 44,-148.241 47.5001,-138.241 40.5001,-138.24"/>
<text text-anchor="middle" x="70.5" y="-121.5" font-family="Helvetica,sans-Serif" font-size="10.00"> citation_</text>
<text text-anchor="middle" x="70.5" y="-110.5" font-family="Helvetica,sans-Serif" font-size="10.00">description_</text>
<text text-anchor="middle" x="70.5" y="-99.5" font-family="Helvetica,sans-Serif" font-size="10.00">name_</text>
</g>
</g>
</svg>
