<?xml version="1.0" encoding="UTF-8" standalone="no"?>
<!DOCTYPE svg PUBLIC "-//W3C//DTD SVG 1.1//EN"
 "http://www.w3.org/Graphics/SVG/1.1/DTD/svg11.dtd">
<!-- Generated by graphviz version 2.30.1 (20140110.0959)
 -->
<!-- Title: psi::Matrix::load_mpqc Pages: 1 -->
<svg width="536pt" height="216pt"
 viewBox="0.00 0.00 536.00 216.00" xmlns="http://www.w3.org/2000/svg" xmlns:xlink="http://www.w3.org/1999/xlink">
<g id="graph0" class="graph" transform="scale(1 1) rotate(0) translate(4 212)">
<title>psi::Matrix::load_mpqc</title>
<!-- Node1 -->
<g id="node1" class="node"><title>Node1</title>
<polygon fill="#bfbfbf" stroke="black" points="0,-94.5 0,-113.5 116,-113.5 116,-94.5 0,-94.5"/>
<text text-anchor="middle" x="58" y="-101.5" font-family="Helvetica,sans-Serif" font-size="10.00">psi::Matrix::load_mpqc</text>
</g>
<!-- Node2 -->
<g id="node2" class="node"><title>Node2</title>
<g id="a_node2"><a xlink:href="classpsi_1_1Matrix.html#ab59f4a769478018f0b27663e58212ae0" target="_top" xlink:title="Release matrix_.">
<polygon fill="none" stroke="black" points="158,-188.5 158,-207.5 258,-207.5 258,-188.5 158,-188.5"/>
<text text-anchor="middle" x="208" y="-195.5" font-family="Helvetica,sans-Serif" font-size="10.00">psi::Matrix::release</text>
</a>
</g>
</g>
<!-- Node1&#45;&gt;Node2 -->
<g id="edge1" class="edge"><title>Node1&#45;&gt;Node2</title>
<path fill="none" stroke="midnightblue" d="M68.4868,-113.565C84.4476,-129.189 118.248,-160.313 152,-179 155.729,-181.064 159.722,-182.964 163.792,-184.698"/>
<polygon fill="midnightblue" stroke="midnightblue" points="162.749,-188.049 173.337,-188.441 165.305,-181.532 162.749,-188.049"/>
</g>
<!-- Node4 -->
<g id="node4" class="node"><title>Node4</title>
<g id="a_node4"><a xlink:href="classpsi_1_1Matrix.html#a6cd9a2b1514f01fde22071c45f873d48" target="_top" xlink:title="psi::Matrix::set_name">
<polygon fill="none" stroke="black" points="152.5,-150.5 152.5,-169.5 263.5,-169.5 263.5,-150.5 152.5,-150.5"/>
<text text-anchor="middle" x="208" y="-157.5" font-family="Helvetica,sans-Serif" font-size="10.00">psi::Matrix::set_name</text>
</a>
</g>
</g>
<!-- Node1&#45;&gt;Node4 -->
<g id="edge3" class="edge"><title>Node1&#45;&gt;Node4</title>
<path fill="none" stroke="midnightblue" d="M82.1994,-113.574C100.944,-121.226 128.055,-132.106 152,-141 157.521,-143.051 163.379,-145.153 169.136,-147.176"/>
<polygon fill="midnightblue" stroke="midnightblue" points="168.054,-150.505 178.648,-150.485 170.353,-143.894 168.054,-150.505"/>
</g>
<!-- Node6 -->
<g id="node6" class="node"><title>Node6</title>
<g id="a_node6"><a xlink:href="namespacepsi.html#a89fe6317a550161d8b053d2d1686c02c" target="_top" xlink:title="psi::str_to_int">
<polygon fill="none" stroke="black" points="170,-94.5 170,-113.5 246,-113.5 246,-94.5 170,-94.5"/>
<text text-anchor="middle" x="208" y="-101.5" font-family="Helvetica,sans-Serif" font-size="10.00">psi::str_to_int</text>
</a>
</g>
</g>
<!-- Node1&#45;&gt;Node6 -->
<g id="edge5" class="edge"><title>Node1&#45;&gt;Node6</title>
<path fill="none" stroke="midnightblue" d="M116.221,-104C130.481,-104 145.619,-104 159.361,-104"/>
<polygon fill="midnightblue" stroke="midnightblue" points="159.561,-107.5 169.561,-104 159.561,-100.5 159.561,-107.5"/>
</g>
<!-- Node7 -->
<g id="node7" class="node"><title>Node7</title>
<g id="a_node7"><a xlink:href="classpsi_1_1Matrix.html#a5cf27d2c4c5dca04a578ed4f9cc2aad7" target="_top" xlink:title="allocate a block matrix – analogous to libciomr&#39;s block_matrix">
<polygon fill="none" stroke="black" points="160.5,-56.5 160.5,-75.5 255.5,-75.5 255.5,-56.5 160.5,-56.5"/>
<text text-anchor="middle" x="208" y="-63.5" font-family="Helvetica,sans-Serif" font-size="10.00">psi::Matrix::matrix</text>
</a>
</g>
</g>
<!-- Node1&#45;&gt;Node7 -->
<g id="edge7" class="edge"><title>Node1&#45;&gt;Node7</title>
<path fill="none" stroke="midnightblue" d="M96.3466,-94.411C115.701,-89.4417 139.53,-83.3233 160.113,-78.0387"/>
<polygon fill="midnightblue" stroke="midnightblue" points="161.107,-81.3971 169.922,-75.5201 159.366,-74.617 161.107,-81.3971"/>
</g>
<!-- Node11 -->
<g id="node11" class="node"><title>Node11</title>
<g id="a_node11"><a xlink:href="namespacepsi.html#a2c62ee3e6ebd249518cb533e988b9d9c" target="_top" xlink:title="psi::str_to_double">
<polygon fill="none" stroke="black" points="161,-0.5 161,-19.5 255,-19.5 255,-0.5 161,-0.5"/>
<text text-anchor="middle" x="208" y="-7.5" font-family="Helvetica,sans-Serif" font-size="10.00">psi::str_to_double</text>
</a>
</g>
</g>
<!-- Node1&#45;&gt;Node11 -->
<g id="edge11" class="edge"><title>Node1&#45;&gt;Node11</title>
<path fill="none" stroke="midnightblue" d="M74.0055,-94.4695C99.7125,-78.142 152.374,-44.695 183.158,-25.1431"/>
<polygon fill="midnightblue" stroke="midnightblue" points="185.39,-27.8716 191.955,-19.5557 181.637,-21.9627 185.39,-27.8716"/>
</g>
<!-- Node3 -->
<g id="node3" class="node"><title>Node3</title>
<g id="a_node3"><a xlink:href="classpsi_1_1Matrix.html#a391d00e36473a7081ff510b4e42ec37f" target="_top" xlink:title="free a (block) matrix – analogous to libciomr&#39;s free_block">
<polygon fill="none" stroke="black" points="303.5,-188.5 303.5,-207.5 388.5,-207.5 388.5,-188.5 303.5,-188.5"/>
<text text-anchor="middle" x="346" y="-195.5" font-family="Helvetica,sans-Serif" font-size="10.00">psi::Matrix::free</text>
</a>
</g>
</g>
<!-- Node2&#45;&gt;Node3 -->
<g id="edge2" class="edge"><title>Node2&#45;&gt;Node3</title>
<path fill="none" stroke="midnightblue" d="M258.099,-198C269.4,-198 281.458,-198 292.882,-198"/>
<polygon fill="midnightblue" stroke="midnightblue" points="293.155,-201.5 303.155,-198 293.155,-194.5 293.155,-201.5"/>
</g>
<!-- Node5 -->
<g id="node5" class="node"><title>Node5</title>
<g id="a_node5"><a xlink:href="classpsi_1_1Matrix.html#a61dd772fa67f731dbb0b6325830a29f6" target="_top" xlink:title="psi::Matrix::name">
<polygon fill="none" stroke="black" points="300,-150.5 300,-169.5 392,-169.5 392,-150.5 300,-150.5"/>
<text text-anchor="middle" x="346" y="-157.5" font-family="Helvetica,sans-Serif" font-size="10.00">psi::Matrix::name</text>
</a>
</g>
</g>
<!-- Node4&#45;&gt;Node5 -->
<g id="edge4" class="edge"><title>Node4&#45;&gt;Node5</title>
<path fill="none" stroke="midnightblue" d="M263.533,-160C272.044,-160 280.848,-160 289.383,-160"/>
<polygon fill="midnightblue" stroke="midnightblue" points="289.622,-163.5 299.622,-160 289.622,-156.5 289.622,-163.5"/>
</g>
<!-- Node6&#45;&gt;Node6 -->
<g id="edge6" class="edge"><title>Node6&#45;&gt;Node6</title>
<path fill="none" stroke="midnightblue" d="M186.73,-113.757C176.383,-122.565 183.473,-132 208,-132 223.713,-132 232.269,-128.128 233.67,-123.029"/>
<polygon fill="midnightblue" stroke="midnightblue" points="236.719,-121.291 229.27,-113.757 230.395,-124.292 236.719,-121.291"/>
</g>
<!-- Node8 -->
<g id="node8" class="node"><title>Node8</title>
<g id="a_node8"><a xlink:href="classpsi_1_1Matrix.html#a1a2168c5e0a0b8b003dae927e4050c7b" target="_top" xlink:title="Returns the total number of rows.">
<polygon fill="none" stroke="black" points="301.5,-56.5 301.5,-75.5 390.5,-75.5 390.5,-56.5 301.5,-56.5"/>
<text text-anchor="middle" x="346" y="-63.5" font-family="Helvetica,sans-Serif" font-size="10.00">psi::Matrix::nrow</text>
</a>
</g>
</g>
<!-- Node7&#45;&gt;Node8 -->
<g id="edge8" class="edge"><title>Node7&#45;&gt;Node8</title>
<path fill="none" stroke="midnightblue" d="M255.803,-66C267.214,-66 279.508,-66 291.215,-66"/>
<polygon fill="midnightblue" stroke="midnightblue" points="291.314,-69.5001 301.314,-66 291.314,-62.5001 291.314,-69.5001"/>
</g>
<!-- Node9 -->
<g id="node9" class="node"><title>Node9</title>
<g id="a_node9"><a xlink:href="classpsi_1_1Matrix.html#a0acfcfb5d8cb154b3220989ac55589bd" target="_top" xlink:title="Returns the number of irreps.">
<polygon fill="none" stroke="black" points="432,-75.5 432,-94.5 524,-94.5 524,-75.5 432,-75.5"/>
<text text-anchor="middle" x="478" y="-82.5" font-family="Helvetica,sans-Serif" font-size="10.00">psi::Matrix::nirrep</text>
</a>
</g>
</g>
<!-- Node8&#45;&gt;Node9 -->
<g id="edge9" class="edge"><title>Node8&#45;&gt;Node9</title>
<path fill="none" stroke="midnightblue" d="M390.65,-72.3796C400.711,-73.8501 411.541,-75.4329 422.015,-76.9637"/>
<polygon fill="midnightblue" stroke="midnightblue" points="421.51,-80.4271 431.911,-78.4101 422.523,-73.5007 421.51,-80.4271"/>
</g>
<!-- Node10 -->
<g id="node10" class="node"><title>Node10</title>
<g id="a_node10"><a xlink:href="classpsi_1_1Matrix.html#a9e517cfa7db99a049c4c2f1324286bbf" target="_top" xlink:title="Returns the rows in irrep h.">
<polygon fill="none" stroke="black" points="428,-37.5 428,-56.5 528,-56.5 528,-37.5 428,-37.5"/>
<text text-anchor="middle" x="478" y="-44.5" font-family="Helvetica,sans-Serif" font-size="10.00">psi::Matrix::rowdim</text>
</a>
</g>
</g>
<!-- Node8&#45;&gt;Node10 -->
<g id="edge10" class="edge"><title>Node8&#45;&gt;Node10</title>
<path fill="none" stroke="midnightblue" d="M390.65,-59.6204C399.332,-58.3515 408.586,-56.999 417.689,-55.6685"/>
<polygon fill="midnightblue" stroke="midnightblue" points="418.477,-59.0906 427.866,-54.1812 417.465,-52.1642 418.477,-59.0906"/>
</g>
<!-- Node11&#45;&gt;Node11 -->
<g id="edge12" class="edge"><title>Node11&#45;&gt;Node11</title>
<path fill="none" stroke="midnightblue" d="M186.73,-19.7571C176.383,-28.5653 183.473,-38 208,-38 223.713,-38 232.269,-34.128 233.67,-29.0292"/>
<polygon fill="midnightblue" stroke="midnightblue" points="236.719,-27.2911 229.27,-19.7571 230.395,-30.292 236.719,-27.2911"/>
</g>
</g>
</svg>
