<?xml version="1.0" encoding="UTF-8" standalone="no"?>
<!DOCTYPE svg PUBLIC "-//W3C//DTD SVG 1.1//EN"
 "http://www.w3.org/Graphics/SVG/1.1/DTD/svg11.dtd">
<!-- Generated by graphviz version 2.30.1 (20140110.0959)
 -->
<!-- Title: psi::scf::HF Pages: 1 -->
<svg width="381pt" height="196pt"
 viewBox="0.00 0.00 381.00 196.00" xmlns="http://www.w3.org/2000/svg" xmlns:xlink="http://www.w3.org/1999/xlink">
<g id="graph0" class="graph" transform="scale(1 1) rotate(0) translate(4 192)">
<title>psi::scf::HF</title>
<!-- Node1 -->
<g id="node1" class="node"><title>Node1</title>
<polygon fill="#bfbfbf" stroke="black" points="154,-112.5 154,-131.5 222,-131.5 222,-112.5 154,-112.5"/>
<text text-anchor="middle" x="188" y="-119.5" font-family="Helvetica,sans-Serif" font-size="10.00">psi::scf::HF</text>
</g>
<!-- Node3 -->
<g id="node3" class="node"><title>Node3</title>
<g id="a_node3"><a xlink:href="classpsi_1_1scf_1_1CUHF.html" target="_top" xlink:title="psi::scf::CUHF">
<polygon fill="none" stroke="black" points="-0.5,-56.5 -0.5,-75.5 82.5,-75.5 82.5,-56.5 -0.5,-56.5"/>
<text text-anchor="middle" x="41" y="-63.5" font-family="Helvetica,sans-Serif" font-size="10.00">psi::scf::CUHF</text>
</a>
</g>
</g>
<!-- Node1&#45;&gt;Node3 -->
<g id="edge2" class="edge"><title>Node1&#45;&gt;Node3</title>
<path fill="none" stroke="midnightblue" d="M155.077,-108.906C127.44,-98.7536 88.656,-84.5063 64.1836,-75.5164"/>
<polygon fill="midnightblue" stroke="midnightblue" points="154.114,-112.281 164.707,-112.444 156.528,-105.71 154.114,-112.281"/>
</g>
<!-- Node4 -->
<g id="node4" class="node"><title>Node4</title>
<g id="a_node4"><a xlink:href="classpsi_1_1scf_1_1RHF.html" target="_top" xlink:title="psi::scf::RHF">
<polygon fill="none" stroke="black" points="101,-56.5 101,-75.5 177,-75.5 177,-56.5 101,-56.5"/>
<text text-anchor="middle" x="139" y="-63.5" font-family="Helvetica,sans-Serif" font-size="10.00">psi::scf::RHF</text>
</a>
</g>
</g>
<!-- Node1&#45;&gt;Node4 -->
<g id="edge3" class="edge"><title>Node1&#45;&gt;Node4</title>
<path fill="none" stroke="midnightblue" d="M172.966,-104.431C164.378,-94.9673 153.957,-83.4827 146.941,-75.7511"/>
<polygon fill="midnightblue" stroke="midnightblue" points="170.597,-107.029 179.909,-112.083 175.781,-102.325 170.597,-107.029"/>
</g>
<!-- Node6 -->
<g id="node6" class="node"><title>Node6</title>
<g id="a_node6"><a xlink:href="classpsi_1_1scf_1_1ROHF.html" target="_top" xlink:title="psi::scf::ROHF">
<polygon fill="none" stroke="black" points="195.5,-56.5 195.5,-75.5 278.5,-75.5 278.5,-56.5 195.5,-56.5"/>
<text text-anchor="middle" x="237" y="-63.5" font-family="Helvetica,sans-Serif" font-size="10.00">psi::scf::ROHF</text>
</a>
</g>
</g>
<!-- Node1&#45;&gt;Node6 -->
<g id="edge5" class="edge"><title>Node1&#45;&gt;Node6</title>
<path fill="none" stroke="midnightblue" d="M203.034,-104.431C211.622,-94.9673 222.043,-83.4827 229.059,-75.7511"/>
<polygon fill="midnightblue" stroke="midnightblue" points="200.219,-102.325 196.091,-112.083 205.403,-107.029 200.219,-102.325"/>
</g>
<!-- Node7 -->
<g id="node7" class="node"><title>Node7</title>
<g id="a_node7"><a xlink:href="classpsi_1_1scf_1_1UHF.html" target="_top" xlink:title="psi::scf::UHF">
<polygon fill="none" stroke="black" points="297,-56.5 297,-75.5 373,-75.5 373,-56.5 297,-56.5"/>
<text text-anchor="middle" x="335" y="-63.5" font-family="Helvetica,sans-Serif" font-size="10.00">psi::scf::UHF</text>
</a>
</g>
</g>
<!-- Node1&#45;&gt;Node7 -->
<g id="edge6" class="edge"><title>Node1&#45;&gt;Node7</title>
<path fill="none" stroke="midnightblue" d="M220.923,-108.906C248.56,-98.7536 287.344,-84.5063 311.816,-75.5164"/>
<polygon fill="midnightblue" stroke="midnightblue" points="219.472,-105.71 211.293,-112.444 221.886,-112.281 219.472,-105.71"/>
</g>
<!-- Node2 -->
<g id="node2" class="node"><title>Node2</title>
<g id="a_node2"><a xlink:href="classpsi_1_1Wavefunction.html" target="_top" xlink:title="Simple wavefunction base class.">
<polygon fill="none" stroke="black" points="140.5,-168.5 140.5,-187.5 235.5,-187.5 235.5,-168.5 140.5,-168.5"/>
<text text-anchor="middle" x="188" y="-175.5" font-family="Helvetica,sans-Serif" font-size="10.00">psi::Wavefunction</text>
</a>
</g>
</g>
<!-- Node2&#45;&gt;Node1 -->
<g id="edge1" class="edge"><title>Node2&#45;&gt;Node1</title>
<path fill="none" stroke="midnightblue" d="M188,-157.805C188,-148.91 188,-138.78 188,-131.751"/>
<polygon fill="midnightblue" stroke="midnightblue" points="184.5,-158.083 188,-168.083 191.5,-158.083 184.5,-158.083"/>
</g>
<!-- Node5 -->
<g id="node5" class="node"><title>Node5</title>
<g id="a_node5"><a xlink:href="classpsi_1_1scf_1_1RKS.html" target="_top" xlink:title="psi::scf::RKS">
<polygon fill="none" stroke="black" points="101,-0.5 101,-19.5 177,-19.5 177,-0.5 101,-0.5"/>
<text text-anchor="middle" x="139" y="-7.5" font-family="Helvetica,sans-Serif" font-size="10.00">psi::scf::RKS</text>
</a>
</g>
</g>
<!-- Node4&#45;&gt;Node5 -->
<g id="edge4" class="edge"><title>Node4&#45;&gt;Node5</title>
<path fill="none" stroke="midnightblue" d="M139,-45.8045C139,-36.9102 139,-26.7798 139,-19.7511"/>
<polygon fill="midnightblue" stroke="midnightblue" points="135.5,-46.083 139,-56.083 142.5,-46.083 135.5,-46.083"/>
</g>
<!-- Node8 -->
<g id="node8" class="node"><title>Node8</title>
<g id="a_node8"><a xlink:href="classpsi_1_1scf_1_1UKS.html" target="_top" xlink:title="psi::scf::UKS">
<polygon fill="none" stroke="black" points="297,-0.5 297,-19.5 373,-19.5 373,-0.5 297,-0.5"/>
<text text-anchor="middle" x="335" y="-7.5" font-family="Helvetica,sans-Serif" font-size="10.00">psi::scf::UKS</text>
</a>
</g>
</g>
<!-- Node7&#45;&gt;Node8 -->
<g id="edge7" class="edge"><title>Node7&#45;&gt;Node8</title>
<path fill="none" stroke="midnightblue" d="M335,-45.8045C335,-36.9102 335,-26.7798 335,-19.7511"/>
<polygon fill="midnightblue" stroke="midnightblue" points="331.5,-46.083 335,-56.083 338.5,-46.083 331.5,-46.083"/>
</g>
</g>
</svg>
