<?xml version="1.0" encoding="UTF-8" standalone="no"?>
<!DOCTYPE svg PUBLIC "-//W3C//DTD SVG 1.1//EN"
 "http://www.w3.org/Graphics/SVG/1.1/DTD/svg11.dtd">
<!-- Generated by graphviz version 2.30.1 (20140110.0959)
 -->
<!-- Title: psi::RBase Pages: 1 -->
<svg width="728pt" height="872pt"
 viewBox="0.00 0.00 728.00 872.03" xmlns="http://www.w3.org/2000/svg" xmlns:xlink="http://www.w3.org/1999/xlink">
<g id="graph0" class="graph" transform="scale(1 1) rotate(0) translate(4 868.027)">
<title>psi::RBase</title>
<!-- Node1 -->
<g id="node1" class="node"><title>Node1</title>
<polygon fill="#bfbfbf" stroke="black" points="654.5,-159.527 654.5,-178.527 719.5,-178.527 719.5,-159.527 654.5,-159.527"/>
<text text-anchor="middle" x="687" y="-166.527" font-family="Helvetica,sans-Serif" font-size="10.00">psi::RBase</text>
</g>
<!-- Node2 -->
<g id="node2" class="node"><title>Node2</title>
<g id="a_node2"><a xlink:href="classpsi_1_1Wavefunction.html" target="_top" xlink:title="Simple wavefunction base class.">
<polygon fill="none" stroke="black" points="520.5,-366.527 520.5,-385.527 615.5,-385.527 615.5,-366.527 520.5,-366.527"/>
<text text-anchor="middle" x="568" y="-373.527" font-family="Helvetica,sans-Serif" font-size="10.00">psi::Wavefunction</text>
</a>
</g>
</g>
<!-- Node2&#45;&gt;Node1 -->
<g id="edge1" class="edge"><title>Node2&#45;&gt;Node1</title>
<path fill="none" stroke="midnightblue" d="M579.436,-357.563C603.46,-315.059 662.017,-211.459 680.389,-178.953"/>
<polygon fill="midnightblue" stroke="midnightblue" points="576.36,-355.893 574.486,-366.321 582.454,-359.337 576.36,-355.893"/>
</g>
<!-- Node3 -->
<g id="node3" class="node"><title>Node3</title>
<g id="a_node3"><a xlink:href="classboost_1_1shared__ptr.html" target="_top" xlink:title="boost::shared_ptr\&lt;\l psi::MatrixFactory \&gt;">
<polygon fill="none" stroke="black" points="261.5,-427.027 261.5,-457.027 368.5,-457.027 368.5,-427.027 261.5,-427.027"/>
<text text-anchor="start" x="269.5" y="-445.027" font-family="Helvetica,sans-Serif" font-size="10.00">boost::shared_ptr&lt;</text>
<text text-anchor="middle" x="315" y="-434.027" font-family="Helvetica,sans-Serif" font-size="10.00"> psi::MatrixFactory &gt;</text>
</a>
</g>
</g>
<!-- Node3&#45;&gt;Node2 -->
<g id="edge2" class="edge"><title>Node3&#45;&gt;Node2</title>
<path fill="none" stroke="#9a32cd" stroke-dasharray="5,2" d="M378.528,-430.216C423.213,-421.53 479.291,-410.057 502,-403.027 517.408,-398.257 534.208,-391.228 546.868,-385.537"/>
<polygon fill="#9a32cd" stroke="#9a32cd" points="377.757,-426.8 368.604,-432.136 379.087,-433.673 377.757,-426.8"/>
<text text-anchor="middle" x="446" y="-431.027" font-family="Helvetica,sans-Serif" font-size="10.00"> factory_</text>
</g>
<!-- Node4 -->
<g id="node4" class="node"><title>Node4</title>
<g id="a_node4"><a xlink:href="classboost_1_1shared__ptr.html" target="_top" xlink:title="boost::shared_ptr\&lt; T \&gt;">
<polygon fill="none" stroke="black" points="0,-309.527 0,-328.527 116,-328.527 116,-309.527 0,-309.527"/>
<text text-anchor="middle" x="58" y="-316.527" font-family="Helvetica,sans-Serif" font-size="10.00">boost::shared_ptr&lt; T &gt;</text>
</a>
</g>
</g>
<!-- Node4&#45;&gt;Node3 -->
<g id="edge3" class="edge"><title>Node4&#45;&gt;Node3</title>
<path fill="none" stroke="orange" stroke-dasharray="5,2" d="M72.1562,-336.793C85.777,-353.936 108.597,-379.381 134,-394.027 173.366,-416.724 223.74,-428.966 261.181,-435.392"/>
<polygon fill="orange" stroke="orange" points="74.7844,-334.47 65.907,-328.687 69.2406,-338.744 74.7844,-334.47"/>
<text text-anchor="middle" x="187" y="-434.027" font-family="Helvetica,sans-Serif" font-size="10.00"> &lt; psi::MatrixFactory &gt;</text>
</g>
<!-- Node5 -->
<g id="node5" class="node"><title>Node5</title>
<g id="a_node5"><a xlink:href="classboost_1_1shared__ptr.html" target="_top" xlink:title="boost::shared_ptr\&lt;\l psi::Chkpt \&gt;">
<polygon fill="none" stroke="black" points="266,-329.027 266,-359.027 364,-359.027 364,-329.027 266,-329.027"/>
<text text-anchor="start" x="274" y="-347.027" font-family="Helvetica,sans-Serif" font-size="10.00">boost::shared_ptr&lt;</text>
<text text-anchor="middle" x="315" y="-336.027" font-family="Helvetica,sans-Serif" font-size="10.00"> psi::Chkpt &gt;</text>
</a>
</g>
</g>
<!-- Node4&#45;&gt;Node5 -->
<g id="edge5" class="edge"><title>Node4&#45;&gt;Node5</title>
<path fill="none" stroke="orange" stroke-dasharray="5,2" d="M126.253,-325.621C170.184,-329.927 226.505,-335.449 265.953,-339.317"/>
<polygon fill="orange" stroke="orange" points="126.521,-322.13 116.227,-324.638 125.838,-329.097 126.521,-322.13"/>
<text text-anchor="middle" x="187" y="-340.027" font-family="Helvetica,sans-Serif" font-size="10.00"> &lt; psi::Chkpt &gt;</text>
</g>
<!-- Node6 -->
<g id="node6" class="node"><title>Node6</title>
<g id="a_node6"><a xlink:href="classboost_1_1shared__ptr.html" target="_top" xlink:title="boost::shared_ptr\&lt;\l psi::IntegralFactory \&gt;">
<polygon fill="none" stroke="black" points="258.5,-280.027 258.5,-310.027 371.5,-310.027 371.5,-280.027 258.5,-280.027"/>
<text text-anchor="start" x="266.5" y="-298.027" font-family="Helvetica,sans-Serif" font-size="10.00">boost::shared_ptr&lt;</text>
<text text-anchor="middle" x="315" y="-287.027" font-family="Helvetica,sans-Serif" font-size="10.00"> psi::IntegralFactory &gt;</text>
</a>
</g>
</g>
<!-- Node4&#45;&gt;Node6 -->
<g id="edge7" class="edge"><title>Node4&#45;&gt;Node6</title>
<path fill="none" stroke="orange" stroke-dasharray="5,2" d="M125.195,-308.096C128.168,-307.713 131.113,-307.354 134,-307.027 175.547,-302.329 222.712,-299.267 258.337,-297.413"/>
<polygon fill="orange" stroke="orange" points="124.465,-304.664 115.03,-309.485 125.412,-311.599 124.465,-304.664"/>
<text text-anchor="middle" x="187" y="-310.027" font-family="Helvetica,sans-Serif" font-size="10.00"> &lt; psi::IntegralFactory &gt;</text>
</g>
<!-- Node8 -->
<g id="node8" class="node"><title>Node8</title>
<g id="a_node8"><a xlink:href="classboost_1_1shared__ptr.html" target="_top" xlink:title="boost::shared_ptr\&lt;\l psi::Wavefunction \&gt;">
<polygon fill="none" stroke="black" points="261.5,-143.027 261.5,-173.027 368.5,-173.027 368.5,-143.027 261.5,-143.027"/>
<text text-anchor="start" x="269.5" y="-161.027" font-family="Helvetica,sans-Serif" font-size="10.00">boost::shared_ptr&lt;</text>
<text text-anchor="middle" x="315" y="-150.027" font-family="Helvetica,sans-Serif" font-size="10.00"> psi::Wavefunction &gt;</text>
</a>
</g>
</g>
<!-- Node4&#45;&gt;Node8 -->
<g id="edge10" class="edge"><title>Node4&#45;&gt;Node8</title>
<path fill="none" stroke="orange" stroke-dasharray="5,2" d="M69.5439,-300.438C82.3172,-279.442 105.683,-245.537 134,-225.027 172.212,-197.35 223.175,-179.8 261.118,-169.637"/>
<polygon fill="orange" stroke="orange" points="66.3604,-298.946 64.2945,-309.338 72.3897,-302.503 66.3604,-298.946"/>
<text text-anchor="middle" x="187" y="-228.027" font-family="Helvetica,sans-Serif" font-size="10.00"> &lt; psi::Wavefunction &gt;</text>
</g>
<!-- Node9 -->
<g id="node9" class="node"><title>Node9</title>
<g id="a_node9"><a xlink:href="classboost_1_1shared__ptr.html" target="_top" xlink:title="boost::shared_ptr\&lt;\l psi::PSIO \&gt;">
<polygon fill="none" stroke="black" points="266,-94.0271 266,-124.027 364,-124.027 364,-94.0271 266,-94.0271"/>
<text text-anchor="start" x="274" y="-112.027" font-family="Helvetica,sans-Serif" font-size="10.00">boost::shared_ptr&lt;</text>
<text text-anchor="middle" x="315" y="-101.027" font-family="Helvetica,sans-Serif" font-size="10.00"> psi::PSIO &gt;</text>
</a>
</g>
</g>
<!-- Node4&#45;&gt;Node9 -->
<g id="edge12" class="edge"><title>Node4&#45;&gt;Node9</title>
<path fill="none" stroke="orange" stroke-dasharray="5,2" d="M62.9425,-299.356C70.6378,-266.104 90.8278,-198.817 134,-162.027 171.068,-130.439 226.229,-117.67 265.709,-112.512"/>
<polygon fill="orange" stroke="orange" points="59.4992,-298.72 60.7967,-309.235 66.3397,-300.206 59.4992,-298.72"/>
<text text-anchor="middle" x="187" y="-165.027" font-family="Helvetica,sans-Serif" font-size="10.00"> &lt; psi::PSIO &gt;</text>
</g>
<!-- Node10 -->
<g id="node10" class="node"><title>Node10</title>
<g id="a_node10"><a xlink:href="classboost_1_1shared__ptr.html" target="_top" xlink:title="boost::shared_ptr\&lt;\l psi::SOBasisSet \&gt;">
<polygon fill="none" stroke="black" points="264.5,-727.027 264.5,-757.027 365.5,-757.027 365.5,-727.027 264.5,-727.027"/>
<text text-anchor="start" x="272.5" y="-745.027" font-family="Helvetica,sans-Serif" font-size="10.00">boost::shared_ptr&lt;</text>
<text text-anchor="middle" x="315" y="-734.027" font-family="Helvetica,sans-Serif" font-size="10.00"> psi::SOBasisSet &gt;</text>
</a>
</g>
</g>
<!-- Node4&#45;&gt;Node10 -->
<g id="edge14" class="edge"><title>Node4&#45;&gt;Node10</title>
<path fill="none" stroke="orange" stroke-dasharray="5,2" d="M59.1973,-338.635C60.6288,-389.695 70.4987,-529.106 134,-620.027 170.207,-671.869 236.093,-708.099 277.319,-726.954"/>
<polygon fill="orange" stroke="orange" points="62.6964,-338.553 58.9977,-328.625 55.6978,-338.693 62.6964,-338.553"/>
<text text-anchor="middle" x="187" y="-708.027" font-family="Helvetica,sans-Serif" font-size="10.00"> &lt; psi::SOBasisSet &gt;</text>
</g>
<!-- Node12 -->
<g id="node12" class="node"><title>Node12</title>
<g id="a_node12"><a xlink:href="classboost_1_1shared__ptr.html" target="_top" xlink:title="boost::shared_ptr\&lt;\l psi::BasisSet \&gt;">
<polygon fill="none" stroke="black" points="266,-378.027 266,-408.027 364,-408.027 364,-378.027 266,-378.027"/>
<text text-anchor="start" x="274" y="-396.027" font-family="Helvetica,sans-Serif" font-size="10.00">boost::shared_ptr&lt;</text>
<text text-anchor="middle" x="315" y="-385.027" font-family="Helvetica,sans-Serif" font-size="10.00"> psi::BasisSet &gt;</text>
</a>
</g>
</g>
<!-- Node4&#45;&gt;Node12 -->
<g id="edge17" class="edge"><title>Node4&#45;&gt;Node12</title>
<path fill="none" stroke="orange" stroke-dasharray="5,2" d="M87.4589,-333.082C101.266,-339.502 118.24,-346.818 134,-352.027 177.821,-366.511 229.296,-377.674 265.95,-384.668"/>
<polygon fill="orange" stroke="orange" points="88.5623,-329.731 78.0272,-328.608 85.5624,-336.056 88.5623,-329.731"/>
<text text-anchor="middle" x="187" y="-382.027" font-family="Helvetica,sans-Serif" font-size="10.00"> &lt; psi::BasisSet &gt;</text>
</g>
<!-- Node13 -->
<g id="node13" class="node"><title>Node13</title>
<g id="a_node13"><a xlink:href="classboost_1_1shared__ptr.html" target="_top" xlink:title="boost::shared_ptr\&lt;\l psi::Matrix \&gt;">
<polygon fill="none" stroke="black" points="266,-625.027 266,-655.027 364,-655.027 364,-625.027 266,-625.027"/>
<text text-anchor="start" x="274" y="-643.027" font-family="Helvetica,sans-Serif" font-size="10.00">boost::shared_ptr&lt;</text>
<text text-anchor="middle" x="315" y="-632.027" font-family="Helvetica,sans-Serif" font-size="10.00"> psi::Matrix &gt;</text>
</a>
</g>
</g>
<!-- Node4&#45;&gt;Node13 -->
<g id="edge19" class="edge"><title>Node4&#45;&gt;Node13</title>
<path fill="none" stroke="orange" stroke-dasharray="5,2" d="M61.9981,-338.482C68.7872,-377.128 88.4298,-464.768 134,-522.027 172.859,-570.853 237.618,-606.192 277.95,-624.862"/>
<polygon fill="orange" stroke="orange" points="65.4394,-337.839 60.3508,-328.546 58.5336,-338.984 65.4394,-337.839"/>
<text text-anchor="middle" x="187" y="-608.027" font-family="Helvetica,sans-Serif" font-size="10.00"> &lt; psi::Matrix &gt;</text>
</g>
<!-- Node14 -->
<g id="node14" class="node"><title>Node14</title>
<g id="a_node14"><a xlink:href="classboost_1_1shared__ptr.html" target="_top" xlink:title="boost::shared_ptr\&lt;\l psi::Molecule \&gt;">
<polygon fill="none" stroke="black" points="266,-515.027 266,-545.027 364,-545.027 364,-515.027 266,-515.027"/>
<text text-anchor="start" x="274" y="-533.027" font-family="Helvetica,sans-Serif" font-size="10.00">boost::shared_ptr&lt;</text>
<text text-anchor="middle" x="315" y="-522.027" font-family="Helvetica,sans-Serif" font-size="10.00"> psi::Molecule &gt;</text>
</a>
</g>
</g>
<!-- Node4&#45;&gt;Node14 -->
<g id="edge21" class="edge"><title>Node4&#45;&gt;Node14</title>
<path fill="none" stroke="orange" stroke-dasharray="5,2" d="M66.055,-338.093C76.9293,-365.212 100.135,-415.06 134,-446.027 171.92,-480.702 226.675,-503.469 265.823,-516.443"/>
<polygon fill="orange" stroke="orange" points="69.2521,-336.657 62.3802,-328.593 62.7235,-339.182 69.2521,-336.657"/>
<text text-anchor="middle" x="187" y="-510.027" font-family="Helvetica,sans-Serif" font-size="10.00"> &lt; psi::Molecule &gt;</text>
</g>
<!-- Node16 -->
<g id="node16" class="node"><title>Node16</title>
<g id="a_node16"><a xlink:href="classboost_1_1shared__ptr.html" target="_top" xlink:title="boost::shared_ptr\&lt;\l psi::Vector \&gt;">
<polygon fill="none" stroke="black" points="266,-192.027 266,-222.027 364,-222.027 364,-192.027 266,-192.027"/>
<text text-anchor="start" x="274" y="-210.027" font-family="Helvetica,sans-Serif" font-size="10.00">boost::shared_ptr&lt;</text>
<text text-anchor="middle" x="315" y="-199.027" font-family="Helvetica,sans-Serif" font-size="10.00"> psi::Vector &gt;</text>
</a>
</g>
</g>
<!-- Node4&#45;&gt;Node16 -->
<g id="edge24" class="edge"><title>Node4&#45;&gt;Node16</title>
<path fill="none" stroke="orange" stroke-dasharray="5,2" d="M88.0384,-305.209C101.904,-298.679 118.759,-290.841 134,-284.027 183.492,-261.9 241.186,-237.455 277.649,-222.17"/>
<polygon fill="orange" stroke="orange" points="86.5205,-302.055 78.9739,-309.491 89.5107,-308.384 86.5205,-302.055"/>
<text text-anchor="middle" x="187" y="-287.027" font-family="Helvetica,sans-Serif" font-size="10.00"> &lt; psi::Vector &gt;</text>
</g>
<!-- Node17 -->
<g id="node17" class="node"><title>Node17</title>
<g id="a_node17"><a xlink:href="classboost_1_1shared__ptr.html" target="_top" xlink:title="boost::shared_ptr\&lt;\l psi::JK \&gt;">
<polygon fill="none" stroke="black" points="397,-52.0271 397,-82.0271 495,-82.0271 495,-52.0271 397,-52.0271"/>
<text text-anchor="start" x="405" y="-70.0271" font-family="Helvetica,sans-Serif" font-size="10.00">boost::shared_ptr&lt;</text>
<text text-anchor="middle" x="446" y="-59.0271" font-family="Helvetica,sans-Serif" font-size="10.00"> psi::JK &gt;</text>
</a>
</g>
</g>
<!-- Node4&#45;&gt;Node17 -->
<g id="edge26" class="edge"><title>Node4&#45;&gt;Node17</title>
<path fill="none" stroke="orange" stroke-dasharray="5,2" d="M59.4022,-299.193C61.4392,-255.873 72.8172,-152.636 134,-102.027 208.523,-40.3835 329.769,-47.5419 396.734,-57.6268"/>
<polygon fill="orange" stroke="orange" points="55.9008,-299.176 59.051,-309.291 62.8966,-299.419 55.9008,-299.176"/>
<text text-anchor="middle" x="187" y="-105.027" font-family="Helvetica,sans-Serif" font-size="10.00"> &lt; psi::JK &gt;</text>
</g>
<!-- Node18 -->
<g id="node18" class="node"><title>Node18</title>
<g id="a_node18"><a xlink:href="classboost_1_1shared__ptr.html" target="_top" xlink:title="boost::shared_ptr\&lt;\l psi::VBase \&gt;">
<polygon fill="none" stroke="black" points="397,-13.0271 397,-43.0271 495,-43.0271 495,-13.0271 397,-13.0271"/>
<text text-anchor="start" x="405" y="-31.0271" font-family="Helvetica,sans-Serif" font-size="10.00">boost::shared_ptr&lt;</text>
<text text-anchor="middle" x="446" y="-20.0271" font-family="Helvetica,sans-Serif" font-size="10.00"> psi::VBase &gt;</text>
</a>
</g>
</g>
<!-- Node4&#45;&gt;Node18 -->
<g id="edge30" class="edge"><title>Node4&#45;&gt;Node18</title>
<path fill="none" stroke="orange" stroke-dasharray="5,2" d="M61.3586,-299.431C68.7073,-241.96 93.1745,-75.8275 134,-43.0271 209.009,17.2374 330.065,0.948498 396.869,-14.5722"/>
<polygon fill="orange" stroke="orange" points="57.8792,-299.049 60.1173,-309.405 64.8256,-299.914 57.8792,-299.049"/>
<text text-anchor="middle" x="187" y="-46.0271" font-family="Helvetica,sans-Serif" font-size="10.00"> &lt; psi::VBase &gt;</text>
</g>
<!-- Node5&#45;&gt;Node2 -->
<g id="edge4" class="edge"><title>Node5&#45;&gt;Node2</title>
<path fill="none" stroke="#9a32cd" stroke-dasharray="5,2" d="M374.258,-350.389C410.954,-354.527 459.296,-360.218 502,-366.027 507.883,-366.827 514.058,-367.715 520.163,-368.622"/>
<polygon fill="#9a32cd" stroke="#9a32cd" points="374.559,-346.901 364.232,-349.264 373.779,-353.858 374.559,-346.901"/>
<text text-anchor="middle" x="446" y="-369.027" font-family="Helvetica,sans-Serif" font-size="10.00"> chkpt_</text>
</g>
<!-- Node6&#45;&gt;Node2 -->
<g id="edge6" class="edge"><title>Node6&#45;&gt;Node2</title>
<path fill="none" stroke="#9a32cd" stroke-dasharray="5,2" d="M381.825,-305.231C418.085,-312.084 463.427,-322.705 502,-338.027 520.708,-345.459 540.43,-357.7 553.176,-366.276"/>
<polygon fill="#9a32cd" stroke="#9a32cd" points="382.321,-301.763 371.852,-303.397 381.055,-308.648 382.321,-301.763"/>
<text text-anchor="middle" x="446" y="-341.027" font-family="Helvetica,sans-Serif" font-size="10.00"> integral_</text>
</g>
<!-- Node7 -->
<g id="node7" class="node"><title>Node7</title>
<g id="a_node7"><a xlink:href="classpsi_1_1Options.html" target="_top" xlink:title="psi::Options">
<polygon fill="none" stroke="black" points="280.5,-241.527 280.5,-260.527 349.5,-260.527 349.5,-241.527 280.5,-241.527"/>
<text text-anchor="middle" x="315" y="-248.527" font-family="Helvetica,sans-Serif" font-size="10.00">psi::Options</text>
</a>
</g>
</g>
<!-- Node7&#45;&gt;Node2 -->
<g id="edge8" class="edge"><title>Node7&#45;&gt;Node2</title>
<path fill="none" stroke="#9a32cd" stroke-dasharray="5,2" d="M359.582,-261.839C369.565,-264.257 380.14,-266.772 390,-269.027 439.626,-280.378 458.835,-266.039 502,-293.027 531.641,-311.56 553.235,-348.641 562.289,-366.276"/>
<polygon fill="#9a32cd" stroke="#9a32cd" points="360.39,-258.434 349.846,-259.467 358.733,-265.235 360.39,-258.434"/>
<text text-anchor="middle" x="446" y="-296.027" font-family="Helvetica,sans-Serif" font-size="10.00"> options_</text>
</g>
<!-- Node8&#45;&gt;Node2 -->
<g id="edge9" class="edge"><title>Node8&#45;&gt;Node2</title>
<path fill="none" stroke="#9a32cd" stroke-dasharray="5,2" d="M378.693,-147.897C418.162,-145.112 467.907,-148.653 502,-176.027 509.882,-182.356 552.786,-327.459 564.206,-366.454"/>
<polygon fill="#9a32cd" stroke="#9a32cd" points="378.302,-144.418 368.637,-148.757 378.899,-151.393 378.302,-144.418"/>
<text text-anchor="middle" x="446" y="-179.027" font-family="Helvetica,sans-Serif" font-size="10.00"> reference_wavefunction_</text>
</g>
<!-- Node9&#45;&gt;Node2 -->
<g id="edge11" class="edge"><title>Node9&#45;&gt;Node2</title>
<path fill="none" stroke="#9a32cd" stroke-dasharray="5,2" d="M374.391,-100.385C415.193,-97.8099 468.211,-101.925 502,-133.027 530.092,-158.885 510.582,-180.026 520,-217.027 534.556,-274.213 555.939,-341.771 563.88,-366.419"/>
<polygon fill="#9a32cd" stroke="#9a32cd" points="373.998,-96.9052 364.3,-101.172 374.542,-103.884 373.998,-96.9052"/>
<text text-anchor="middle" x="446" y="-136.027" font-family="Helvetica,sans-Serif" font-size="10.00"> psio_</text>
</g>
<!-- Node10&#45;&gt;Node2 -->
<g id="edge13" class="edge"><title>Node10&#45;&gt;Node2</title>
<path fill="none" stroke="#9a32cd" stroke-dasharray="5,2" d="M349.67,-761.936C390.545,-783.214 459.296,-809.308 502,-773.027 563.21,-721.024 566.901,-442.01 567.019,-385.871"/>
<polygon fill="#9a32cd" stroke="#9a32cd" points="351.116,-758.739 340.651,-757.083 347.799,-764.903 351.116,-758.739"/>
<text text-anchor="middle" x="446" y="-794.027" font-family="Helvetica,sans-Serif" font-size="10.00"> sobasisset_</text>
</g>
<!-- Node11 -->
<g id="node11" class="node"><title>Node11</title>
<g id="a_node11"><a xlink:href="classpsi_1_1Dimension.html" target="_top" xlink:title="psi::Dimension">
<polygon fill="none" stroke="black" points="274,-564.527 274,-583.527 356,-583.527 356,-564.527 274,-564.527"/>
<text text-anchor="middle" x="315" y="-571.527" font-family="Helvetica,sans-Serif" font-size="10.00">psi::Dimension</text>
</a>
</g>
</g>
<!-- Node11&#45;&gt;Node2 -->
<g id="edge15" class="edge"><title>Node11&#45;&gt;Node2</title>
<path fill="none" stroke="#9a32cd" stroke-dasharray="5,2" d="M361.715,-560.323C365.337,-558.463 368.819,-556.372 372,-554.027 382.733,-546.116 378.738,-537.165 390,-530.027 432.921,-502.823 461.743,-538.038 502,-507.027 543.232,-475.265 560.11,-410.368 565.198,-385.771"/>
<polygon fill="#9a32cd" stroke="#9a32cd" points="360.184,-557.174 352.516,-564.486 363.07,-563.551 360.184,-557.174"/>
<text text-anchor="middle" x="446" y="-610.027" font-family="Helvetica,sans-Serif" font-size="10.00"> doccpi_</text>
<text text-anchor="middle" x="446" y="-599.027" font-family="Helvetica,sans-Serif" font-size="10.00">nbetapi_</text>
<text text-anchor="middle" x="446" y="-588.027" font-family="Helvetica,sans-Serif" font-size="10.00">frzvpi_</text>
<text text-anchor="middle" x="446" y="-577.027" font-family="Helvetica,sans-Serif" font-size="10.00">frzcpi_</text>
<text text-anchor="middle" x="446" y="-566.027" font-family="Helvetica,sans-Serif" font-size="10.00">nmopi_</text>
<text text-anchor="middle" x="446" y="-555.027" font-family="Helvetica,sans-Serif" font-size="10.00">nalphapi_</text>
<text text-anchor="middle" x="446" y="-544.027" font-family="Helvetica,sans-Serif" font-size="10.00">nsopi_</text>
<text text-anchor="middle" x="446" y="-533.027" font-family="Helvetica,sans-Serif" font-size="10.00">soccpi_</text>
</g>
<!-- Node12&#45;&gt;Node2 -->
<g id="edge16" class="edge"><title>Node12&#45;&gt;Node2</title>
<path fill="none" stroke="#9a32cd" stroke-dasharray="5,2" d="M374.175,-389.087C418.611,-386.077 479.044,-381.984 520.338,-379.187"/>
<polygon fill="#9a32cd" stroke="#9a32cd" points="373.839,-385.602 364.098,-389.769 374.312,-392.586 373.839,-385.602"/>
<text text-anchor="middle" x="446" y="-391.027" font-family="Helvetica,sans-Serif" font-size="10.00"> basisset_</text>
</g>
<!-- Node13&#45;&gt;Node2 -->
<g id="edge18" class="edge"><title>Node13&#45;&gt;Node2</title>
<path fill="none" stroke="#9a32cd" stroke-dasharray="5,2" d="M374.465,-640.074C421.737,-638.88 483.383,-634.128 502,-618.027 538.606,-586.368 560.682,-426.933 565.833,-385.748"/>
<polygon fill="#9a32cd" stroke="#9a32cd" points="374.24,-636.578 364.314,-640.283 374.384,-643.577 374.24,-636.578"/>
<text text-anchor="middle" x="446" y="-764.027" font-family="Helvetica,sans-Serif" font-size="10.00"> Fa_</text>
<text text-anchor="middle" x="446" y="-753.027" font-family="Helvetica,sans-Serif" font-size="10.00">gradient_</text>
<text text-anchor="middle" x="446" y="-742.027" font-family="Helvetica,sans-Serif" font-size="10.00">H_</text>
<text text-anchor="middle" x="446" y="-731.027" font-family="Helvetica,sans-Serif" font-size="10.00">Lagrangian_</text>
<text text-anchor="middle" x="446" y="-720.027" font-family="Helvetica,sans-Serif" font-size="10.00">S_</text>
<text text-anchor="middle" x="446" y="-709.027" font-family="Helvetica,sans-Serif" font-size="10.00">AO2SO_</text>
<text text-anchor="middle" x="446" y="-698.027" font-family="Helvetica,sans-Serif" font-size="10.00">Cb_</text>
<text text-anchor="start" x="411.5" y="-687.027" font-family="Helvetica,sans-Serif" font-size="10.00">QLMO_to_LMO</text>
<text text-anchor="middle" x="446" y="-676.027" font-family="Helvetica,sans-Serif" font-size="10.00">_</text>
<text text-anchor="middle" x="446" y="-665.027" font-family="Helvetica,sans-Serif" font-size="10.00">Db_</text>
<text text-anchor="middle" x="446" y="-654.027" font-family="Helvetica,sans-Serif" font-size="10.00">Ca_</text>
<text text-anchor="middle" x="446" y="-643.027" font-family="Helvetica,sans-Serif" font-size="10.00">...</text>
</g>
<!-- Node13&#45;&gt;Node1 -->
<g id="edge27" class="edge"><title>Node13&#45;&gt;Node1</title>
<path fill="none" stroke="#9a32cd" stroke-dasharray="5,2" d="M336.691,-663.263C348.738,-677.989 363.235,-697.981 372,-718.027 387.994,-754.604 359.072,-780.785 390,-806.027 428.564,-837.502 462.217,-835.945 502,-806.027 610.559,-724.387 675.335,-251.914 684.794,-178.589"/>
<polygon fill="#9a32cd" stroke="#9a32cd" points="339.059,-660.641 329.943,-655.241 333.702,-665.147 339.059,-660.641"/>
<text text-anchor="middle" x="568" y="-856.027" font-family="Helvetica,sans-Serif" font-size="10.00"> Cocc_</text>
<text text-anchor="middle" x="568" y="-845.027" font-family="Helvetica,sans-Serif" font-size="10.00">Cfocc_</text>
<text text-anchor="middle" x="568" y="-834.027" font-family="Helvetica,sans-Serif" font-size="10.00">Cfvir_</text>
<text text-anchor="middle" x="568" y="-823.027" font-family="Helvetica,sans-Serif" font-size="10.00">AO2USO_</text>
<text text-anchor="middle" x="568" y="-812.027" font-family="Helvetica,sans-Serif" font-size="10.00">C_</text>
<text text-anchor="middle" x="568" y="-801.027" font-family="Helvetica,sans-Serif" font-size="10.00">Caocc_</text>
<text text-anchor="middle" x="568" y="-790.027" font-family="Helvetica,sans-Serif" font-size="10.00">Cavir_</text>
</g>
<!-- Node14&#45;&gt;Node2 -->
<g id="edge20" class="edge"><title>Node14&#45;&gt;Node2</title>
<path fill="none" stroke="#9a32cd" stroke-dasharray="5,2" d="M359.612,-510.781C363.81,-508.861 367.994,-506.922 372,-505.027 380.086,-501.203 381.547,-498.952 390,-496.027 438.023,-479.412 459.816,-501.362 502,-473.027 535.151,-450.76 555.772,-405.322 563.516,-385.561"/>
<polygon fill="#9a32cd" stroke="#9a32cd" points="358.127,-507.611 350.463,-514.927 361.016,-513.987 358.127,-507.611"/>
<text text-anchor="middle" x="446" y="-499.027" font-family="Helvetica,sans-Serif" font-size="10.00"> molecule_</text>
</g>
<!-- Node15 -->
<g id="node15" class="node"><title>Node15</title>
<polygon fill="none" stroke="#bfbfbf" points="294.5,-476.527 294.5,-495.527 335.5,-495.527 335.5,-476.527 294.5,-476.527"/>
<text text-anchor="middle" x="315" y="-483.527" font-family="Helvetica,sans-Serif" font-size="10.00">string</text>
</g>
<!-- Node15&#45;&gt;Node2 -->
<g id="edge22" class="edge"><title>Node15&#45;&gt;Node2</title>
<path fill="none" stroke="#9a32cd" stroke-dasharray="5,2" d="M345.322,-475.688C358.824,-471.142 375.119,-465.955 390,-462.027 439.134,-449.057 457.071,-462.77 502,-439.027 527.01,-425.81 548.985,-400.033 559.828,-385.893"/>
<polygon fill="#9a32cd" stroke="#9a32cd" points="343.94,-472.461 335.611,-479.008 346.205,-479.085 343.94,-472.461"/>
<text text-anchor="middle" x="446" y="-465.027" font-family="Helvetica,sans-Serif" font-size="10.00"> name_</text>
</g>
<!-- Node16&#45;&gt;Node2 -->
<g id="edge23" class="edge"><title>Node16&#45;&gt;Node2</title>
<path fill="none" stroke="#9a32cd" stroke-dasharray="5,2" d="M374.174,-197.034C420.934,-190.347 482,-185.066 502,-199.027 531.124,-219.358 557.578,-332.4 564.962,-366.37"/>
<polygon fill="#9a32cd" stroke="#9a32cd" points="373.513,-193.594 364.134,-198.522 374.539,-200.518 373.513,-193.594"/>
<text text-anchor="middle" x="446" y="-257.027" font-family="Helvetica,sans-Serif" font-size="10.00"> frequencies_</text>
<text text-anchor="start" x="399.5" y="-246.027" font-family="Helvetica,sans-Serif" font-size="10.00">CIM_orbital_energies</text>
<text text-anchor="middle" x="446" y="-235.027" font-family="Helvetica,sans-Serif" font-size="10.00">_</text>
<text text-anchor="middle" x="446" y="-224.027" font-family="Helvetica,sans-Serif" font-size="10.00">epsilon_b_</text>
<text text-anchor="middle" x="446" y="-213.027" font-family="Helvetica,sans-Serif" font-size="10.00">epsilon_a_</text>
<text text-anchor="middle" x="446" y="-202.027" font-family="Helvetica,sans-Serif" font-size="10.00">CIM_orbital_factors_</text>
</g>
<!-- Node16&#45;&gt;Node1 -->
<g id="edge28" class="edge"><title>Node16&#45;&gt;Node1</title>
<path fill="none" stroke="#9a32cd" stroke-dasharray="5,2" d="M374.33,-190.087C379.599,-188.914 384.878,-187.866 390,-187.027 485.263,-171.424 599.767,-169.021 654.224,-168.852"/>
<polygon fill="#9a32cd" stroke="#9a32cd" points="373.177,-186.763 364.254,-192.475 374.791,-193.574 373.177,-186.763"/>
<text text-anchor="middle" x="568" y="-210.027" font-family="Helvetica,sans-Serif" font-size="10.00"> eps_focc_</text>
<text text-anchor="middle" x="568" y="-199.027" font-family="Helvetica,sans-Serif" font-size="10.00">eps_avir_</text>
<text text-anchor="middle" x="568" y="-188.027" font-family="Helvetica,sans-Serif" font-size="10.00">eps_aocc_</text>
<text text-anchor="middle" x="568" y="-177.027" font-family="Helvetica,sans-Serif" font-size="10.00">eps_fvir_</text>
</g>
<!-- Node17&#45;&gt;Node1 -->
<g id="edge25" class="edge"><title>Node17&#45;&gt;Node1</title>
<path fill="none" stroke="#9a32cd" stroke-dasharray="5,2" d="M495.177,-85.9105C529.144,-99.4154 575.598,-118.271 616,-136.027 633.22,-143.595 652.541,-152.755 666.514,-159.502"/>
<polygon fill="#9a32cd" stroke="#9a32cd" points="496.087,-82.5063 485.501,-82.0738 493.507,-89.0134 496.087,-82.5063"/>
<text text-anchor="middle" x="568" y="-139.027" font-family="Helvetica,sans-Serif" font-size="10.00"> jk_</text>
</g>
<!-- Node18&#45;&gt;Node1 -->
<g id="edge29" class="edge"><title>Node18&#45;&gt;Node1</title>
<path fill="none" stroke="#9a32cd" stroke-dasharray="5,2" d="M505.041,-37.8226C539.513,-45.6779 582.826,-59.2699 616,-82.0271 646.694,-103.083 670.722,-141.492 680.818,-159.381"/>
<polygon fill="#9a32cd" stroke="#9a32cd" points="505.625,-34.3678 495.11,-35.6608 504.136,-41.2077 505.625,-34.3678"/>
<text text-anchor="middle" x="568" y="-85.0271" font-family="Helvetica,sans-Serif" font-size="10.00"> v_</text>
</g>
</g>
</svg>
