<?xml version="1.0" encoding="UTF-8" standalone="no"?>
<!DOCTYPE svg PUBLIC "-//W3C//DTD SVG 1.1//EN"
 "http://www.w3.org/Graphics/SVG/1.1/DTD/svg11.dtd">
<!-- Generated by graphviz version 2.30.1 (20140110.0959)
 -->
<!-- Title: psi::Matrix::apply_symmetry Pages: 1 -->
<svg width="236pt" height="142pt"
 viewBox="0.00 0.00 236.00 142.00" xmlns="http://www.w3.org/2000/svg" xmlns:xlink="http://www.w3.org/1999/xlink">
<g id="graph0" class="graph" transform="scale(1 1) rotate(0) translate(4 138)">
<title>psi::Matrix::apply_symmetry</title>
<!-- Node1 -->
<g id="node1" class="node"><title>Node1</title>
<polygon fill="#bfbfbf" stroke="black" points="0,-52 0,-82 92,-82 92,-52 0,-52"/>
<text text-anchor="start" x="8" y="-70" font-family="Helvetica,sans-Serif" font-size="10.00">psi::Matrix::apply</text>
<text text-anchor="middle" x="46" y="-59" font-family="Helvetica,sans-Serif" font-size="10.00">_symmetry</text>
</g>
<!-- Node2 -->
<g id="node2" class="node"><title>Node2</title>
<g id="a_node2"><a xlink:href="classpsi_1_1Matrix.html#a0acfcfb5d8cb154b3220989ac55589bd" target="_top" xlink:title="Returns the number of irreps.">
<polygon fill="none" stroke="black" points="132,-114.5 132,-133.5 224,-133.5 224,-114.5 132,-114.5"/>
<text text-anchor="middle" x="178" y="-121.5" font-family="Helvetica,sans-Serif" font-size="10.00">psi::Matrix::nirrep</text>
</a>
</g>
</g>
<!-- Node1&#45;&gt;Node2 -->
<g id="edge1" class="edge"><title>Node1&#45;&gt;Node2</title>
<path fill="none" stroke="midnightblue" d="M77.9299,-82.1205C92.9363,-89.2996 111.291,-97.8512 128,-105 132.483,-106.918 137.229,-108.863 141.933,-110.74"/>
<polygon fill="midnightblue" stroke="midnightblue" points="140.846,-114.073 151.434,-114.468 143.403,-107.557 140.846,-114.073"/>
</g>
<!-- Node3 -->
<g id="node3" class="node"><title>Node3</title>
<g id="a_node3"><a xlink:href="classpsi_1_1Matrix.html#a9e517cfa7db99a049c4c2f1324286bbf" target="_top" xlink:title="Returns the rows in irrep h.">
<polygon fill="none" stroke="black" points="128,-76.5 128,-95.5 228,-95.5 228,-76.5 128,-76.5"/>
<text text-anchor="middle" x="178" y="-83.5" font-family="Helvetica,sans-Serif" font-size="10.00">psi::Matrix::rowdim</text>
</a>
</g>
</g>
<!-- Node1&#45;&gt;Node3 -->
<g id="edge2" class="edge"><title>Node1&#45;&gt;Node3</title>
<path fill="none" stroke="midnightblue" d="M92.1029,-73.592C100.431,-74.8091 109.241,-76.0968 117.91,-77.3638"/>
<polygon fill="midnightblue" stroke="midnightblue" points="117.583,-80.8531 127.984,-78.8362 118.596,-73.9267 117.583,-80.8531"/>
</g>
<!-- Node4 -->
<g id="node4" class="node"><title>Node4</title>
<g id="a_node4"><a xlink:href="namespacepsi.html#a1112df35ff9d2b780efb0c24662f4fbe" target="_top" xlink:title="psi::C_DGEMM">
<polygon fill="none" stroke="black" points="135,-38.5 135,-57.5 221,-57.5 221,-38.5 135,-38.5"/>
<text text-anchor="middle" x="178" y="-45.5" font-family="Helvetica,sans-Serif" font-size="10.00">psi::C_DGEMM</text>
</a>
</g>
</g>
<!-- Node1&#45;&gt;Node4 -->
<g id="edge3" class="edge"><title>Node1&#45;&gt;Node4</title>
<path fill="none" stroke="midnightblue" d="M92.1029,-60.408C102.551,-58.8811 113.758,-57.2431 124.492,-55.6742"/>
<polygon fill="midnightblue" stroke="midnightblue" points="125.21,-59.1065 134.599,-54.1971 124.198,-52.1801 125.21,-59.1065"/>
</g>
<!-- Node5 -->
<g id="node5" class="node"><title>Node5</title>
<g id="a_node5"><a xlink:href="classpsi_1_1Matrix.html#af77ccf2eab7f3eed614c44492e9598d4" target="_top" xlink:title="Returns the cols in irrep h.">
<polygon fill="none" stroke="black" points="129.5,-0.5 129.5,-19.5 226.5,-19.5 226.5,-0.5 129.5,-0.5"/>
<text text-anchor="middle" x="178" y="-7.5" font-family="Helvetica,sans-Serif" font-size="10.00">psi::Matrix::coldim</text>
</a>
</g>
</g>
<!-- Node1&#45;&gt;Node5 -->
<g id="edge4" class="edge"><title>Node1&#45;&gt;Node5</title>
<path fill="none" stroke="midnightblue" d="M77.9299,-51.8795C92.9363,-44.7004 111.291,-36.1488 128,-29 132.483,-27.0821 137.229,-25.137 141.933,-23.2597"/>
<polygon fill="midnightblue" stroke="midnightblue" points="143.403,-26.4428 151.434,-19.5317 140.846,-19.9265 143.403,-26.4428"/>
</g>
</g>
</svg>
