<?xml version="1.0" encoding="UTF-8" standalone="no"?>
<!DOCTYPE svg PUBLIC "-//W3C//DTD SVG 1.1//EN"
 "http://www.w3.org/Graphics/SVG/1.1/DTD/svg11.dtd">
<!-- Generated by graphviz version 2.30.1 (20140110.0959)
 -->
<!-- Title: psi::GaussianFundamental Pages: 1 -->
<svg width="258pt" height="176pt"
 viewBox="0.00 0.00 258.00 176.00" xmlns="http://www.w3.org/2000/svg" xmlns:xlink="http://www.w3.org/1999/xlink">
<g id="graph0" class="graph" transform="scale(1 1) rotate(0) translate(4 172)">
<title>psi::GaussianFundamental</title>
<!-- Node1 -->
<g id="node1" class="node"><title>Node1</title>
<polygon fill="#bfbfbf" stroke="black" points="-0.5,-0.5 -0.5,-19.5 132.5,-19.5 132.5,-0.5 -0.5,-0.5"/>
<text text-anchor="middle" x="66" y="-7.5" font-family="Helvetica,sans-Serif" font-size="10.00">psi::GaussianFundamental</text>
</g>
<!-- Node2 -->
<g id="node2" class="node"><title>Node2</title>
<g id="a_node2"><a xlink:href="classpsi_1_1Fjt.html" target="_top" xlink:title="Evaluates the Boys function F_j(T)">
<polygon fill="none" stroke="black" points="8.5,-74.5 8.5,-93.5 55.5,-93.5 55.5,-74.5 8.5,-74.5"/>
<text text-anchor="middle" x="32" y="-81.5" font-family="Helvetica,sans-Serif" font-size="10.00">psi::Fjt</text>
</a>
</g>
</g>
<!-- Node2&#45;&gt;Node1 -->
<g id="edge1" class="edge"><title>Node2&#45;&gt;Node1</title>
<path fill="none" stroke="midnightblue" d="M40.496,-65.0085C47.3576,-50.4781 56.7087,-30.6758 61.9715,-19.531"/>
<polygon fill="midnightblue" stroke="midnightblue" points="37.139,-63.9209 36.0338,-74.4579 43.4688,-66.91 37.139,-63.9209"/>
</g>
<!-- Node3 -->
<g id="node3" class="node"><title>Node3</title>
<g id="a_node3"><a xlink:href="classboost_1_1shared__ptr.html" target="_top" xlink:title="boost::shared_ptr\&lt;\l psi::CorrelationFactor \&gt;">
<polygon fill="none" stroke="black" points="74,-69 74,-99 196,-99 196,-69 74,-69"/>
<text text-anchor="start" x="82" y="-87" font-family="Helvetica,sans-Serif" font-size="10.00">boost::shared_ptr&lt;</text>
<text text-anchor="middle" x="135" y="-76" font-family="Helvetica,sans-Serif" font-size="10.00"> psi::CorrelationFactor &gt;</text>
</a>
</g>
</g>
<!-- Node3&#45;&gt;Node1 -->
<g id="edge2" class="edge"><title>Node3&#45;&gt;Node1</title>
<path fill="none" stroke="#9a32cd" stroke-dasharray="5,2" d="M114.342,-61.4438C100.963,-47.4827 84.2537,-30.0473 74.3939,-19.7589"/>
<polygon fill="#9a32cd" stroke="#9a32cd" points="111.922,-63.9769 121.368,-68.7751 116.976,-59.1335 111.922,-63.9769"/>
<text text-anchor="middle" x="110.5" y="-41.5" font-family="Helvetica,sans-Serif" font-size="10.00"> cf_</text>
</g>
<!-- Node4 -->
<g id="node4" class="node"><title>Node4</title>
<g id="a_node4"><a xlink:href="classboost_1_1shared__ptr.html" target="_top" xlink:title="boost::shared_ptr\&lt; T \&gt;">
<polygon fill="none" stroke="black" points="77,-148.5 77,-167.5 193,-167.5 193,-148.5 77,-148.5"/>
<text text-anchor="middle" x="135" y="-155.5" font-family="Helvetica,sans-Serif" font-size="10.00">boost::shared_ptr&lt; T &gt;</text>
</a>
</g>
</g>
<!-- Node4&#45;&gt;Node3 -->
<g id="edge3" class="edge"><title>Node4&#45;&gt;Node3</title>
<path fill="none" stroke="orange" stroke-dasharray="5,2" d="M135,-138.085C135,-125.915 135,-110.354 135,-99.2316"/>
<polygon fill="orange" stroke="orange" points="131.5,-138.458 135,-148.458 138.5,-138.458 131.5,-138.458"/>
<text text-anchor="middle" x="192.5" y="-121.5" font-family="Helvetica,sans-Serif" font-size="10.00"> &lt; psi::CorrelationFactor &gt;</text>
</g>
</g>
</svg>
