<?xml version="1.0" encoding="UTF-8" standalone="no"?>
<!DOCTYPE svg PUBLIC "-//W3C//DTD SVG 1.1//EN"
 "http://www.w3.org/Graphics/SVG/1.1/DTD/svg11.dtd">
<!-- Generated by graphviz version 2.30.1 (20140110.0959)
 -->
<!-- Title: yeti::IndexRange::IndexRange Pages: 1 -->
<svg width="314pt" height="46pt"
 viewBox="0.00 0.00 314.00 46.00" xmlns="http://www.w3.org/2000/svg" xmlns:xlink="http://www.w3.org/1999/xlink">
<g id="graph0" class="graph" transform="scale(1 1) rotate(0) translate(4 42)">
<title>yeti::IndexRange::IndexRange</title>
<!-- Node1 -->
<g id="node1" class="node"><title>Node1</title>
<polygon fill="#bfbfbf" stroke="black" points="0.5,-0.5 0.5,-19.5 149.5,-19.5 149.5,-0.5 0.5,-0.5"/>
<text text-anchor="middle" x="75" y="-7.5" font-family="Helvetica,sans-Serif" font-size="10.00">yeti::IndexRange::IndexRange</text>
</g>
<!-- Node2 -->
<g id="node2" class="node"><title>Node2</title>
<g id="a_node2"><a xlink:href="classyeti_1_1IndexRange.html#a951e6fe2e1e2ce699a0433584950681e" target="_top" xlink:title="yeti::IndexRange::sizes">
<polygon fill="none" stroke="black" points="186,-0.5 186,-19.5 306,-19.5 306,-0.5 186,-0.5"/>
<text text-anchor="middle" x="246" y="-7.5" font-family="Helvetica,sans-Serif" font-size="10.00">yeti::IndexRange::sizes</text>
</a>
</g>
</g>
<!-- Node1&#45;&gt;Node2 -->
<g id="edge1" class="edge"><title>Node1&#45;&gt;Node2</title>
<path fill="none" stroke="midnightblue" d="M149.634,-10C158.329,-10 167.18,-10 175.81,-10"/>
<polygon fill="midnightblue" stroke="midnightblue" points="175.818,-13.5001 185.818,-10 175.818,-6.5001 175.818,-13.5001"/>
</g>
<!-- Node2&#45;&gt;Node2 -->
<g id="edge2" class="edge"><title>Node2&#45;&gt;Node2</title>
<path fill="none" stroke="midnightblue" d="M219.798,-19.7571C207.051,-28.5653 215.785,-38 246,-38 266.301,-38 276.904,-33.741 277.811,-28.2746"/>
<polygon fill="midnightblue" stroke="midnightblue" points="280.625,-26.1836 272.202,-19.7571 274.779,-30.0337 280.625,-26.1836"/>
</g>
</g>
</svg>
