<?xml version="1.0" encoding="UTF-8" standalone="no"?>
<!DOCTYPE svg PUBLIC "-//W3C//DTD SVG 1.1//EN"
 "http://www.w3.org/Graphics/SVG/1.1/DTD/svg11.dtd">
<!-- Generated by graphviz version 2.30.1 (20140110.0959)
 -->
<!-- Title: psi::DealiasBasisSet Pages: 1 -->
<svg width="224pt" height="186pt"
 viewBox="0.00 0.00 224.00 186.00" xmlns="http://www.w3.org/2000/svg" xmlns:xlink="http://www.w3.org/1999/xlink">
<g id="graph0" class="graph" transform="scale(1 1) rotate(0) translate(4 182)">
<title>psi::DealiasBasisSet</title>
<!-- Node1 -->
<g id="node1" class="node"><title>Node1</title>
<polygon fill="#bfbfbf" stroke="black" points="21,-0.5 21,-19.5 129,-19.5 129,-0.5 21,-0.5"/>
<text text-anchor="middle" x="75" y="-7.5" font-family="Helvetica,sans-Serif" font-size="10.00">psi::DealiasBasisSet</text>
</g>
<!-- Node2 -->
<g id="node2" class="node"><title>Node2</title>
<g id="a_node2"><a xlink:href="classpsi_1_1Options.html" target="_top" xlink:title="psi::Options">
<polygon fill="none" stroke="black" points="-0.5,-84.5 -0.5,-103.5 68.5,-103.5 68.5,-84.5 -0.5,-84.5"/>
<text text-anchor="middle" x="34" y="-91.5" font-family="Helvetica,sans-Serif" font-size="10.00">psi::Options</text>
</a>
</g>
</g>
<!-- Node2&#45;&gt;Node1 -->
<g id="edge1" class="edge"><title>Node2&#45;&gt;Node1</title>
<path fill="none" stroke="#9a32cd" stroke-dasharray="5,2" d="M39.0828,-74.6725C42.5142,-63.6704 47.5862,-49.6047 54,-38 57.6769,-31.3473 62.9269,-24.5973 67.2577,-19.5105"/>
<polygon fill="#9a32cd" stroke="#9a32cd" points="35.6714,-73.8674 36.2092,-84.4486 42.3873,-75.8415 35.6714,-73.8674"/>
<text text-anchor="middle" x="74" y="-46.5" font-family="Helvetica,sans-Serif" font-size="10.00"> options_</text>
</g>
<!-- Node3 -->
<g id="node3" class="node"><title>Node3</title>
<g id="a_node3"><a xlink:href="classboost_1_1shared__ptr.html" target="_top" xlink:title="boost::shared_ptr\&lt;\l psi::BasisSet \&gt;">
<polygon fill="none" stroke="black" points="87,-79 87,-109 185,-109 185,-79 87,-79"/>
<text text-anchor="start" x="95" y="-97" font-family="Helvetica,sans-Serif" font-size="10.00">boost::shared_ptr&lt;</text>
<text text-anchor="middle" x="136" y="-86" font-family="Helvetica,sans-Serif" font-size="10.00"> psi::BasisSet &gt;</text>
</a>
</g>
</g>
<!-- Node3&#45;&gt;Node1 -->
<g id="edge2" class="edge"><title>Node3&#45;&gt;Node1</title>
<path fill="none" stroke="#9a32cd" stroke-dasharray="5,2" d="M119.243,-70.4735C106.719,-53.6387 90.2873,-31.5501 81.3913,-19.5915"/>
<polygon fill="#9a32cd" stroke="#9a32cd" points="116.598,-72.7823 125.375,-78.7167 122.214,-68.6042 116.598,-72.7823"/>
<text text-anchor="middle" x="130" y="-52" font-family="Helvetica,sans-Serif" font-size="10.00"> dealias_</text>
<text text-anchor="middle" x="130" y="-41" font-family="Helvetica,sans-Serif" font-size="10.00">primary_</text>
</g>
<!-- Node4 -->
<g id="node4" class="node"><title>Node4</title>
<g id="a_node4"><a xlink:href="classboost_1_1shared__ptr.html" target="_top" xlink:title="boost::shared_ptr\&lt; T \&gt;">
<polygon fill="none" stroke="black" points="78,-158.5 78,-177.5 194,-177.5 194,-158.5 78,-158.5"/>
<text text-anchor="middle" x="136" y="-165.5" font-family="Helvetica,sans-Serif" font-size="10.00">boost::shared_ptr&lt; T &gt;</text>
</a>
</g>
</g>
<!-- Node4&#45;&gt;Node3 -->
<g id="edge3" class="edge"><title>Node4&#45;&gt;Node3</title>
<path fill="none" stroke="orange" stroke-dasharray="5,2" d="M136,-148.085C136,-135.915 136,-120.354 136,-109.232"/>
<polygon fill="orange" stroke="orange" points="132.5,-148.458 136,-158.458 139.5,-148.458 132.5,-148.458"/>
<text text-anchor="middle" x="176" y="-131.5" font-family="Helvetica,sans-Serif" font-size="10.00"> &lt; psi::BasisSet &gt;</text>
</g>
</g>
</svg>
