<?xml version="1.0" encoding="UTF-8" standalone="no"?>
<!DOCTYPE svg PUBLIC "-//W3C//DTD SVG 1.1//EN"
 "http://www.w3.org/Graphics/SVG/1.1/DTD/svg11.dtd">
<!-- Generated by graphviz version 2.30.1 (20140110.0959)
 -->
<!-- Title: psi::TwoBodyAOInt Pages: 1 -->
<svg width="344pt" height="366pt"
 viewBox="0.00 0.00 344.00 366.00" xmlns="http://www.w3.org/2000/svg" xmlns:xlink="http://www.w3.org/1999/xlink">
<g id="graph0" class="graph" transform="scale(1 1) rotate(0) translate(4 362)">
<title>psi::TwoBodyAOInt</title>
<!-- Node1 -->
<g id="node1" class="node"><title>Node1</title>
<polygon fill="#bfbfbf" stroke="black" points="86,-0.5 86,-19.5 188,-19.5 188,-0.5 86,-0.5"/>
<text text-anchor="middle" x="137" y="-7.5" font-family="Helvetica,sans-Serif" font-size="10.00">psi::TwoBodyAOInt</text>
</g>
<!-- Node2 -->
<g id="node2" class="node"><title>Node2</title>
<g id="a_node2"><a xlink:href="classpsi_1_1IntegralFactory.html" target="_top" xlink:title="psi::IntegralFactory">
<polygon fill="none" stroke="black" points="-0.5,-113.5 -0.5,-132.5 100.5,-132.5 100.5,-113.5 -0.5,-113.5"/>
<text text-anchor="middle" x="50" y="-120.5" font-family="Helvetica,sans-Serif" font-size="10.00">psi::IntegralFactory</text>
</a>
</g>
</g>
<!-- Node2&#45;&gt;Node1 -->
<g id="edge1" class="edge"><title>Node2&#45;&gt;Node1</title>
<path fill="none" stroke="#9a32cd" stroke-dasharray="5,2" d="M53.2595,-103.429C57.3582,-84.893 66.0208,-56.5677 83,-38 90.4977,-29.8008 101.045,-23.7625 110.83,-19.5013"/>
<polygon fill="#9a32cd" stroke="#9a32cd" points="49.8147,-102.807 51.3043,-113.297 56.6812,-104.168 49.8147,-102.807"/>
<text text-anchor="middle" x="103" y="-41.5" font-family="Helvetica,sans-Serif" font-size="10.00"> integral_</text>
</g>
<!-- Node3 -->
<g id="node3" class="node"><title>Node3</title>
<g id="a_node3"><a xlink:href="classboost_1_1shared__ptr.html" target="_top" xlink:title="boost::shared_ptr\&lt;\l psi::BasisSet \&gt;">
<polygon fill="none" stroke="black" points="57,-259 57,-289 155,-289 155,-259 57,-259"/>
<text text-anchor="start" x="65" y="-277" font-family="Helvetica,sans-Serif" font-size="10.00">boost::shared_ptr&lt;</text>
<text text-anchor="middle" x="106" y="-266" font-family="Helvetica,sans-Serif" font-size="10.00"> psi::BasisSet &gt;</text>
</a>
</g>
</g>
<!-- Node3&#45;&gt;Node2 -->
<g id="edge2" class="edge"><title>Node3&#45;&gt;Node2</title>
<path fill="none" stroke="#9a32cd" stroke-dasharray="5,2" d="M97.1371,-249.418C84.4231,-215.59 61.6153,-154.905 53.2177,-132.561"/>
<polygon fill="#9a32cd" stroke="#9a32cd" points="93.9372,-250.853 100.732,-258.982 100.49,-248.39 93.9372,-250.853"/>
<text text-anchor="middle" x="105.5" y="-232" font-family="Helvetica,sans-Serif" font-size="10.00"> bs4_</text>
<text text-anchor="middle" x="105.5" y="-221" font-family="Helvetica,sans-Serif" font-size="10.00">bs3_</text>
<text text-anchor="middle" x="105.5" y="-210" font-family="Helvetica,sans-Serif" font-size="10.00">bs2_</text>
<text text-anchor="middle" x="105.5" y="-199" font-family="Helvetica,sans-Serif" font-size="10.00">bs1_</text>
</g>
<!-- Node3&#45;&gt;Node1 -->
<g id="edge4" class="edge"><title>Node3&#45;&gt;Node1</title>
<path fill="none" stroke="#9a32cd" stroke-dasharray="5,2" d="M118.799,-249.332C120.064,-246.259 121.18,-243.101 122,-240 144.095,-156.414 139.51,-49.9909 137.6,-19.5052"/>
<polygon fill="#9a32cd" stroke="#9a32cd" points="115.492,-248.143 114.434,-258.684 121.835,-251.103 115.492,-248.143"/>
<text text-anchor="middle" x="170.5" y="-170" font-family="Helvetica,sans-Serif" font-size="10.00"> original_bs3_</text>
<text text-anchor="middle" x="170.5" y="-159" font-family="Helvetica,sans-Serif" font-size="10.00">original_bs4_</text>
<text text-anchor="middle" x="170.5" y="-148" font-family="Helvetica,sans-Serif" font-size="10.00">bs4_</text>
<text text-anchor="middle" x="170.5" y="-137" font-family="Helvetica,sans-Serif" font-size="10.00">bs3_</text>
<text text-anchor="start" x="140" y="-126" font-family="Helvetica,sans-Serif" font-size="10.00">original_bs1</text>
<text text-anchor="middle" x="170.5" y="-115" font-family="Helvetica,sans-Serif" font-size="10.00">_</text>
<text text-anchor="middle" x="170.5" y="-104" font-family="Helvetica,sans-Serif" font-size="10.00">bs2_</text>
<text text-anchor="start" x="140" y="-93" font-family="Helvetica,sans-Serif" font-size="10.00">original</text>
<text text-anchor="middle" x="170.5" y="-82" font-family="Helvetica,sans-Serif" font-size="10.00">_bs2_</text>
<text text-anchor="middle" x="170.5" y="-71" font-family="Helvetica,sans-Serif" font-size="10.00">bs1_</text>
</g>
<!-- Node4 -->
<g id="node4" class="node"><title>Node4</title>
<g id="a_node4"><a xlink:href="classboost_1_1shared__ptr.html" target="_top" xlink:title="boost::shared_ptr\&lt; T \&gt;">
<polygon fill="none" stroke="black" points="48,-338.5 48,-357.5 164,-357.5 164,-338.5 48,-338.5"/>
<text text-anchor="middle" x="106" y="-345.5" font-family="Helvetica,sans-Serif" font-size="10.00">boost::shared_ptr&lt; T &gt;</text>
</a>
</g>
</g>
<!-- Node4&#45;&gt;Node3 -->
<g id="edge3" class="edge"><title>Node4&#45;&gt;Node3</title>
<path fill="none" stroke="orange" stroke-dasharray="5,2" d="M106,-328.085C106,-315.915 106,-300.354 106,-289.232"/>
<polygon fill="orange" stroke="orange" points="102.5,-328.458 106,-338.458 109.5,-328.458 102.5,-328.458"/>
<text text-anchor="middle" x="146" y="-311.5" font-family="Helvetica,sans-Serif" font-size="10.00"> &lt; psi::BasisSet &gt;</text>
</g>
<!-- Node5 -->
<g id="node5" class="node"><title>Node5</title>
<g id="a_node5"><a xlink:href="classpsi_1_1PyBuffer.html" target="_top" xlink:title="psi::PyBuffer\&lt; double \&gt;">
<polygon fill="none" stroke="black" points="216,-113.5 216,-132.5 336,-132.5 336,-113.5 216,-113.5"/>
<text text-anchor="middle" x="276" y="-120.5" font-family="Helvetica,sans-Serif" font-size="10.00">psi::PyBuffer&lt; double &gt;</text>
</a>
</g>
</g>
<!-- Node5&#45;&gt;Node1 -->
<g id="edge5" class="edge"><title>Node5&#45;&gt;Node1</title>
<path fill="none" stroke="#9a32cd" stroke-dasharray="5,2" d="M257.194,-106.982C227.69,-83.4213 171.459,-38.5178 147.856,-19.6695"/>
<polygon fill="#9a32cd" stroke="#9a32cd" points="255.095,-109.785 265.093,-113.29 259.463,-104.315 255.095,-109.785"/>
<text text-anchor="middle" x="219" y="-41.5" font-family="Helvetica,sans-Serif" font-size="10.00"> target_pybuffer_</text>
</g>
<!-- Node6 -->
<g id="node6" class="node"><title>Node6</title>
<g id="a_node6"><a xlink:href="classpsi_1_1PyBuffer.html" target="_top" xlink:title="A thin wrapper to the NumPy array interface.">
<polygon fill="none" stroke="black" points="227,-264.5 227,-283.5 325,-283.5 325,-264.5 227,-264.5"/>
<text text-anchor="middle" x="276" y="-271.5" font-family="Helvetica,sans-Serif" font-size="10.00">psi::PyBuffer&lt; T &gt;</text>
</a>
</g>
</g>
<!-- Node6&#45;&gt;Node5 -->
<g id="edge6" class="edge"><title>Node6&#45;&gt;Node5</title>
<path fill="none" stroke="orange" stroke-dasharray="5,2" d="M276,-254.105C276,-221.552 276,-156.128 276,-132.641"/>
<polygon fill="orange" stroke="orange" points="272.5,-254.126 276,-264.126 279.5,-254.126 272.5,-254.126"/>
<text text-anchor="middle" x="301" y="-215.5" font-family="Helvetica,sans-Serif" font-size="10.00"> &lt; double &gt;</text>
</g>
</g>
</svg>
