<?xml version="1.0" encoding="UTF-8" standalone="no"?>
<!DOCTYPE svg PUBLIC "-//W3C//DTD SVG 1.1//EN"
 "http://www.w3.org/Graphics/SVG/1.1/DTD/svg11.dtd">
<!-- Generated by graphviz version 2.30.1 (20140110.0959)
 -->
<!-- Title: yeti::MemoryPool Pages: 1 -->
<svg width="154pt" height="154pt"
 viewBox="0.00 0.00 154.00 154.00" xmlns="http://www.w3.org/2000/svg" xmlns:xlink="http://www.w3.org/1999/xlink">
<g id="graph0" class="graph" transform="scale(1 1) rotate(0) translate(4 150)">
<title>yeti::MemoryPool</title>
<!-- Node1 -->
<g id="node1" class="node"><title>Node1</title>
<polygon fill="#bfbfbf" stroke="black" points="23.5,-0.5 23.5,-19.5 116.5,-19.5 116.5,-0.5 23.5,-0.5"/>
<text text-anchor="middle" x="70" y="-7.5" font-family="Helvetica,sans-Serif" font-size="10.00">yeti::MemoryPool</text>
</g>
<!-- Node2 -->
<g id="node2" class="node"><title>Node2</title>
<g id="a_node2"><a xlink:href="classyeti_1_1Malloc.html" target="_top" xlink:title="yeti::Malloc\&lt; MemoryPool \&gt;">
<polygon fill="none" stroke="black" points="0,-58.5 0,-77.5 140,-77.5 140,-58.5 0,-58.5"/>
<text text-anchor="middle" x="70" y="-65.5" font-family="Helvetica,sans-Serif" font-size="10.00">yeti::Malloc&lt; MemoryPool &gt;</text>
</a>
</g>
</g>
<!-- Node2&#45;&gt;Node1 -->
<g id="edge1" class="edge"><title>Node2&#45;&gt;Node1</title>
<path fill="none" stroke="midnightblue" d="M70,-47.953C70,-38.2875 70,-27.0312 70,-19.5052"/>
<polygon fill="midnightblue" stroke="midnightblue" points="66.5001,-48.25 70,-58.25 73.5001,-48.25 66.5001,-48.25"/>
</g>
<!-- Node3 -->
<g id="node3" class="node"><title>Node3</title>
<g id="a_node3"><a xlink:href="classyeti_1_1Malloc.html" target="_top" xlink:title="yeti::Malloc\&lt; T \&gt;">
<polygon fill="none" stroke="black" points="24.5,-126.5 24.5,-145.5 115.5,-145.5 115.5,-126.5 24.5,-126.5"/>
<text text-anchor="middle" x="70" y="-133.5" font-family="Helvetica,sans-Serif" font-size="10.00">yeti::Malloc&lt; T &gt;</text>
</a>
</g>
</g>
<!-- Node3&#45;&gt;Node2 -->
<g id="edge2" class="edge"><title>Node3&#45;&gt;Node2</title>
<path fill="none" stroke="orange" stroke-dasharray="5,2" d="M70,-116.041C70,-103.472 70,-87.5631 70,-77.8411"/>
<polygon fill="orange" stroke="orange" points="66.5001,-116.372 70,-126.372 73.5001,-116.372 66.5001,-116.372"/>
<text text-anchor="middle" x="108" y="-99.5" font-family="Helvetica,sans-Serif" font-size="10.00"> &lt; MemoryPool &gt;</text>
</g>
</g>
</svg>
