<?xml version="1.0" encoding="UTF-8" standalone="no"?>
<!DOCTYPE svg PUBLIC "-//W3C//DTD SVG 1.1//EN"
 "http://www.w3.org/Graphics/SVG/1.1/DTD/svg11.dtd">
<!-- Generated by graphviz version 2.30.1 (20140110.0959)
 -->
<!-- Title: psi::AtomicDensity Pages: 1 -->
<svg width="552pt" height="239pt"
 viewBox="0.00 0.00 552.00 239.00" xmlns="http://www.w3.org/2000/svg" xmlns:xlink="http://www.w3.org/1999/xlink">
<g id="graph0" class="graph" transform="scale(1 1) rotate(0) translate(4 235)">
<title>psi::AtomicDensity</title>
<!-- Node1 -->
<g id="node1" class="node"><title>Node1</title>
<polygon fill="#bfbfbf" stroke="black" points="444,-123.5 444,-142.5 544,-142.5 544,-123.5 444,-123.5"/>
<text text-anchor="middle" x="494" y="-130.5" font-family="Helvetica,sans-Serif" font-size="10.00">psi::AtomicDensity</text>
</g>
<!-- Node2 -->
<g id="node2" class="node"><title>Node2</title>
<g id="a_node2"><a xlink:href="classboost_1_1shared__ptr.html" target="_top" xlink:title="boost::shared_ptr\&lt;\l psi::MolecularGrid \&gt;">
<polygon fill="none" stroke="black" points="252.5,-201 252.5,-231 359.5,-231 359.5,-201 252.5,-201"/>
<text text-anchor="start" x="260.5" y="-219" font-family="Helvetica,sans-Serif" font-size="10.00">boost::shared_ptr&lt;</text>
<text text-anchor="middle" x="306" y="-208" font-family="Helvetica,sans-Serif" font-size="10.00"> psi::MolecularGrid &gt;</text>
</a>
</g>
</g>
<!-- Node2&#45;&gt;Node1 -->
<g id="edge1" class="edge"><title>Node2&#45;&gt;Node1</title>
<path fill="none" stroke="#9a32cd" stroke-dasharray="5,2" d="M356.675,-197.22C378.194,-188.762 403.548,-178.362 426,-168 443.278,-160.026 462.478,-149.856 475.879,-142.537"/>
<polygon fill="#9a32cd" stroke="#9a32cd" points="355.127,-194.067 347.082,-200.962 357.671,-200.588 355.127,-194.067"/>
<text text-anchor="middle" x="402" y="-190" font-family="Helvetica,sans-Serif" font-size="10.00"> grid_</text>
</g>
<!-- Node3 -->
<g id="node3" class="node"><title>Node3</title>
<g id="a_node3"><a xlink:href="classboost_1_1shared__ptr.html" target="_top" xlink:title="boost::shared_ptr\&lt; T \&gt;">
<polygon fill="none" stroke="black" points="0,-108.5 0,-127.5 116,-127.5 116,-108.5 0,-108.5"/>
<text text-anchor="middle" x="58" y="-115.5" font-family="Helvetica,sans-Serif" font-size="10.00">boost::shared_ptr&lt; T &gt;</text>
</a>
</g>
</g>
<!-- Node3&#45;&gt;Node2 -->
<g id="edge2" class="edge"><title>Node3&#45;&gt;Node2</title>
<path fill="none" stroke="orange" stroke-dasharray="5,2" d="M79.3183,-133.687C93.8806,-144.311 114.321,-158.001 134,-167 172.055,-184.402 217.732,-197.11 252.301,-205.218"/>
<polygon fill="orange" stroke="orange" points="81.1793,-130.709 71.0702,-127.537 76.9951,-136.321 81.1793,-130.709"/>
<text text-anchor="middle" x="184" y="-203" font-family="Helvetica,sans-Serif" font-size="10.00"> &lt; psi::MolecularGrid &gt;</text>
</g>
<!-- Node4 -->
<g id="node4" class="node"><title>Node4</title>
<g id="a_node4"><a xlink:href="classboost_1_1shared__ptr.html" target="_top" xlink:title="boost::shared_ptr\&lt;\l psi::BasisSet \&gt;">
<polygon fill="none" stroke="black" points="257,-152 257,-182 355,-182 355,-152 257,-152"/>
<text text-anchor="start" x="265" y="-170" font-family="Helvetica,sans-Serif" font-size="10.00">boost::shared_ptr&lt;</text>
<text text-anchor="middle" x="306" y="-159" font-family="Helvetica,sans-Serif" font-size="10.00"> psi::BasisSet &gt;</text>
</a>
</g>
</g>
<!-- Node3&#45;&gt;Node4 -->
<g id="edge4" class="edge"><title>Node3&#45;&gt;Node4</title>
<path fill="none" stroke="orange" stroke-dasharray="5,2" d="M116.505,-129.508C122.413,-130.688 128.327,-131.869 134,-133 175.409,-141.258 222.466,-150.612 256.719,-157.415"/>
<polygon fill="orange" stroke="orange" points="117.101,-126.058 106.609,-127.53 115.729,-132.922 117.101,-126.058"/>
<text text-anchor="middle" x="184" y="-155" font-family="Helvetica,sans-Serif" font-size="10.00"> &lt; psi::BasisSet &gt;</text>
</g>
<!-- Node5 -->
<g id="node5" class="node"><title>Node5</title>
<g id="a_node5"><a xlink:href="classboost_1_1shared__ptr.html" target="_top" xlink:title="boost::shared_ptr\&lt;\l psi::Matrix \&gt;">
<polygon fill="none" stroke="black" points="257,-103 257,-133 355,-133 355,-103 257,-103"/>
<text text-anchor="start" x="265" y="-121" font-family="Helvetica,sans-Serif" font-size="10.00">boost::shared_ptr&lt;</text>
<text text-anchor="middle" x="306" y="-110" font-family="Helvetica,sans-Serif" font-size="10.00"> psi::Matrix &gt;</text>
</a>
</g>
</g>
<!-- Node3&#45;&gt;Node5 -->
<g id="edge6" class="edge"><title>Node3&#45;&gt;Node5</title>
<path fill="none" stroke="orange" stroke-dasharray="5,2" d="M126.066,-118C167.481,-118 219.646,-118 256.948,-118"/>
<polygon fill="orange" stroke="orange" points="126.056,-114.5 116.056,-118 126.056,-121.5 126.056,-114.5"/>
<text text-anchor="middle" x="184" y="-121" font-family="Helvetica,sans-Serif" font-size="10.00"> &lt; psi::Matrix &gt;</text>
</g>
<!-- Node6 -->
<g id="node6" class="node"><title>Node6</title>
<g id="a_node6"><a xlink:href="classboost_1_1shared__ptr.html" target="_top" xlink:title="boost::shared_ptr\&lt;\l psi::Molecule \&gt;">
<polygon fill="none" stroke="black" points="257,-54 257,-84 355,-84 355,-54 257,-54"/>
<text text-anchor="start" x="265" y="-72" font-family="Helvetica,sans-Serif" font-size="10.00">boost::shared_ptr&lt;</text>
<text text-anchor="middle" x="306" y="-61" font-family="Helvetica,sans-Serif" font-size="10.00"> psi::Molecule &gt;</text>
</a>
</g>
</g>
<!-- Node3&#45;&gt;Node6 -->
<g id="edge8" class="edge"><title>Node3&#45;&gt;Node6</title>
<path fill="none" stroke="orange" stroke-dasharray="5,2" d="M116.505,-106.492C122.413,-105.312 128.327,-104.131 134,-103 175.409,-94.7423 222.466,-85.3883 256.719,-78.5848"/>
<polygon fill="orange" stroke="orange" points="115.729,-103.078 106.609,-108.47 117.101,-109.942 115.729,-103.078"/>
<text text-anchor="middle" x="184" y="-106" font-family="Helvetica,sans-Serif" font-size="10.00"> &lt; psi::Molecule &gt;</text>
</g>
<!-- Node7 -->
<g id="node7" class="node"><title>Node7</title>
<g id="a_node7"><a xlink:href="classboost_1_1shared__ptr.html" target="_top" xlink:title="boost::shared_ptr\&lt;\l psi::Vector \&gt;">
<polygon fill="none" stroke="black" points="257,-0 257,-30 355,-30 355,-0 257,-0"/>
<text text-anchor="start" x="265" y="-18" font-family="Helvetica,sans-Serif" font-size="10.00">boost::shared_ptr&lt;</text>
<text text-anchor="middle" x="306" y="-7" font-family="Helvetica,sans-Serif" font-size="10.00"> psi::Vector &gt;</text>
</a>
</g>
</g>
<!-- Node3&#45;&gt;Node7 -->
<g id="edge10" class="edge"><title>Node3&#45;&gt;Node7</title>
<path fill="none" stroke="orange" stroke-dasharray="5,2" d="M79.3312,-102.102C93.8994,-91.3116 114.342,-77.3576 134,-68 173.71,-49.0975 221.765,-34.8988 256.808,-25.979"/>
<polygon fill="orange" stroke="orange" points="76.944,-99.5195 71.0791,-108.343 81.1663,-105.103 76.944,-99.5195"/>
<text text-anchor="middle" x="184" y="-71" font-family="Helvetica,sans-Serif" font-size="10.00"> &lt; psi::Vector &gt;</text>
</g>
<!-- Node4&#45;&gt;Node1 -->
<g id="edge3" class="edge"><title>Node4&#45;&gt;Node1</title>
<path fill="none" stroke="#9a32cd" stroke-dasharray="5,2" d="M365.548,-156.298C390.735,-151.694 419.85,-146.372 443.888,-141.977"/>
<polygon fill="#9a32cd" stroke="#9a32cd" points="364.591,-152.914 355.384,-158.156 365.85,-159.8 364.591,-152.914"/>
<text text-anchor="middle" x="402" y="-156" font-family="Helvetica,sans-Serif" font-size="10.00"> primary_</text>
</g>
<!-- Node5&#45;&gt;Node1 -->
<g id="edge5" class="edge"><title>Node5&#45;&gt;Node1</title>
<path fill="none" stroke="#9a32cd" stroke-dasharray="5,2" d="M365.548,-122.722C390.735,-124.753 419.85,-127.101 443.888,-129.039"/>
<polygon fill="#9a32cd" stroke="#9a32cd" points="365.633,-119.217 355.384,-121.902 365.07,-126.195 365.633,-119.217"/>
<text text-anchor="middle" x="402" y="-130" font-family="Helvetica,sans-Serif" font-size="10.00"> D_</text>
</g>
<!-- Node6&#45;&gt;Node1 -->
<g id="edge7" class="edge"><title>Node6&#45;&gt;Node1</title>
<path fill="none" stroke="#9a32cd" stroke-dasharray="5,2" d="M362.19,-87.2996C382.305,-94.0356 405.209,-101.783 426,-109 439.423,-113.66 454.307,-118.976 466.63,-123.419"/>
<polygon fill="#9a32cd" stroke="#9a32cd" points="363.154,-83.9317 352.561,-84.0808 360.935,-90.5706 363.154,-83.9317"/>
<text text-anchor="middle" x="402" y="-112" font-family="Helvetica,sans-Serif" font-size="10.00"> molecule_</text>
</g>
<!-- Node7&#45;&gt;Node1 -->
<g id="edge9" class="edge"><title>Node7&#45;&gt;Node1</title>
<path fill="none" stroke="#9a32cd" stroke-dasharray="5,2" d="M365.417,-8.31537C385.851,-8.62058 408.131,-12.1564 426,-23 464.424,-46.3167 483.814,-100.831 490.372,-123.178"/>
<polygon fill="#9a32cd" stroke="#9a32cd" points="365.213,-4.81715 355.249,-8.41765 365.283,-11.8168 365.213,-4.81715"/>
<text text-anchor="middle" x="402" y="-81" font-family="Helvetica,sans-Serif" font-size="10.00"> N_</text>
<text text-anchor="middle" x="402" y="-70" font-family="Helvetica,sans-Serif" font-size="10.00">z_</text>
<text text-anchor="middle" x="402" y="-59" font-family="Helvetica,sans-Serif" font-size="10.00">rho_</text>
<text text-anchor="middle" x="402" y="-48" font-family="Helvetica,sans-Serif" font-size="10.00">y_</text>
<text text-anchor="middle" x="402" y="-37" font-family="Helvetica,sans-Serif" font-size="10.00">x_</text>
<text text-anchor="middle" x="402" y="-26" font-family="Helvetica,sans-Serif" font-size="10.00">w_</text>
</g>
</g>
</svg>
