<?xml version="1.0" encoding="UTF-8" standalone="no"?>
<!DOCTYPE svg PUBLIC "-//W3C//DTD SVG 1.1//EN"
 "http://www.w3.org/Graphics/SVG/1.1/DTD/svg11.dtd">
<!-- Generated by graphviz version 2.30.1 (20140110.0959)
 -->
<!-- Title: psi::Matrix::general_invert Pages: 1 -->
<svg width="394pt" height="161pt"
 viewBox="0.00 0.00 394.00 161.00" xmlns="http://www.w3.org/2000/svg" xmlns:xlink="http://www.w3.org/1999/xlink">
<g id="graph0" class="graph" transform="scale(1 1) rotate(0) translate(4 157)">
<title>psi::Matrix::general_invert</title>
<!-- Node1 -->
<g id="node1" class="node"><title>Node1</title>
<polygon fill="#bfbfbf" stroke="black" points="0,-52 0,-82 100,-82 100,-52 0,-52"/>
<text text-anchor="start" x="8" y="-70" font-family="Helvetica,sans-Serif" font-size="10.00">psi::Matrix::general</text>
<text text-anchor="middle" x="50" y="-59" font-family="Helvetica,sans-Serif" font-size="10.00">_invert</text>
</g>
<!-- Node2 -->
<g id="node2" class="node"><title>Node2</title>
<g id="a_node2"><a xlink:href="classpsi_1_1Matrix.html#a8ef3df1219c5f674179ef37e707eb853" target="_top" xlink:title="Returns the row size of the largest block.">
<polygon fill="none" stroke="black" points="136.5,-114.5 136.5,-133.5 249.5,-133.5 249.5,-114.5 136.5,-114.5"/>
<text text-anchor="middle" x="193" y="-121.5" font-family="Helvetica,sans-Serif" font-size="10.00">psi::Matrix::max_nrow</text>
</a>
</g>
</g>
<!-- Node1&#45;&gt;Node2 -->
<g id="edge1" class="edge"><title>Node1&#45;&gt;Node2</title>
<path fill="none" stroke="midnightblue" d="M82.9901,-82.1509C98.796,-89.4182 118.243,-98.0358 136,-105 141.257,-107.062 146.84,-109.114 152.366,-111.067"/>
<polygon fill="midnightblue" stroke="midnightblue" points="151.574,-114.496 162.169,-114.454 153.86,-107.88 151.574,-114.496"/>
</g>
<!-- Node5 -->
<g id="node5" class="node"><title>Node5</title>
<g id="a_node5"><a xlink:href="classpsi_1_1Matrix.html#aa1c916473848ba22b460e8cfaa39394f" target="_top" xlink:title="Returns the column size of the largest block.">
<polygon fill="none" stroke="black" points="138,-76.5 138,-95.5 248,-95.5 248,-76.5 138,-76.5"/>
<text text-anchor="middle" x="193" y="-83.5" font-family="Helvetica,sans-Serif" font-size="10.00">psi::Matrix::max_ncol</text>
</a>
</g>
</g>
<!-- Node1&#45;&gt;Node5 -->
<g id="edge4" class="edge"><title>Node1&#45;&gt;Node5</title>
<path fill="none" stroke="midnightblue" d="M100.315,-73.6453C109.18,-74.8398 118.537,-76.1007 127.751,-77.3423"/>
<polygon fill="midnightblue" stroke="midnightblue" points="127.284,-80.811 137.662,-78.6779 128.219,-73.8737 127.284,-80.811"/>
</g>
<!-- Node7 -->
<g id="node7" class="node"><title>Node7</title>
<g id="a_node7"><a xlink:href="group__QT.html#ga5a32fab1a77d1ea47a9145a8e124ea9c" target="_top" xlink:title="psi::C_DGETRF">
<polygon fill="none" stroke="black" points="148.5,-38.5 148.5,-57.5 237.5,-57.5 237.5,-38.5 148.5,-38.5"/>
<text text-anchor="middle" x="193" y="-45.5" font-family="Helvetica,sans-Serif" font-size="10.00">psi::C_DGETRF</text>
</a>
</g>
</g>
<!-- Node1&#45;&gt;Node7 -->
<g id="edge7" class="edge"><title>Node1&#45;&gt;Node7</title>
<path fill="none" stroke="midnightblue" d="M100.315,-60.3547C112.475,-58.7161 125.563,-56.9525 137.935,-55.2854"/>
<polygon fill="midnightblue" stroke="midnightblue" points="138.68,-58.7166 148.123,-53.9124 137.746,-51.7793 138.68,-58.7166"/>
</g>
<!-- Node8 -->
<g id="node8" class="node"><title>Node8</title>
<g id="a_node8"><a xlink:href="group__QT.html#gacf6c02fc0a629aea55fa3ea94885e2ec" target="_top" xlink:title="psi::C_DGETRI">
<polygon fill="none" stroke="black" points="150,-0.5 150,-19.5 236,-19.5 236,-0.5 150,-0.5"/>
<text text-anchor="middle" x="193" y="-7.5" font-family="Helvetica,sans-Serif" font-size="10.00">psi::C_DGETRI</text>
</a>
</g>
</g>
<!-- Node1&#45;&gt;Node8 -->
<g id="edge8" class="edge"><title>Node1&#45;&gt;Node8</title>
<path fill="none" stroke="midnightblue" d="M82.9901,-51.8491C98.796,-44.5818 118.243,-35.9642 136,-29 141.257,-26.9384 146.84,-24.8856 152.366,-22.933"/>
<polygon fill="midnightblue" stroke="midnightblue" points="153.86,-26.1199 162.169,-19.5464 151.574,-19.5036 153.86,-26.1199"/>
</g>
<!-- Node3 -->
<g id="node3" class="node"><title>Node3</title>
<g id="a_node3"><a xlink:href="classpsi_1_1Matrix.html#a0acfcfb5d8cb154b3220989ac55589bd" target="_top" xlink:title="Returns the number of irreps.">
<polygon fill="none" stroke="black" points="290,-95.5 290,-114.5 382,-114.5 382,-95.5 290,-95.5"/>
<text text-anchor="middle" x="336" y="-102.5" font-family="Helvetica,sans-Serif" font-size="10.00">psi::Matrix::nirrep</text>
</a>
</g>
</g>
<!-- Node2&#45;&gt;Node3 -->
<g id="edge2" class="edge"><title>Node2&#45;&gt;Node3</title>
<path fill="none" stroke="midnightblue" d="M249.727,-116.491C259.553,-115.167 269.781,-113.788 279.598,-112.465"/>
<polygon fill="midnightblue" stroke="midnightblue" points="280.204,-115.916 289.647,-111.111 279.269,-108.978 280.204,-115.916"/>
</g>
<!-- Node4 -->
<g id="node4" class="node"><title>Node4</title>
<g id="a_node4"><a xlink:href="classpsi_1_1Matrix.html#a9e517cfa7db99a049c4c2f1324286bbf" target="_top" xlink:title="Returns the rows in irrep h.">
<polygon fill="none" stroke="black" points="286,-133.5 286,-152.5 386,-152.5 386,-133.5 286,-133.5"/>
<text text-anchor="middle" x="336" y="-140.5" font-family="Helvetica,sans-Serif" font-size="10.00">psi::Matrix::rowdim</text>
</a>
</g>
</g>
<!-- Node2&#45;&gt;Node4 -->
<g id="edge3" class="edge"><title>Node2&#45;&gt;Node4</title>
<path fill="none" stroke="midnightblue" d="M249.727,-131.509C258.247,-132.657 267.069,-133.846 275.664,-135.004"/>
<polygon fill="midnightblue" stroke="midnightblue" points="275.239,-138.479 285.617,-136.346 276.174,-131.541 275.239,-138.479"/>
</g>
<!-- Node5&#45;&gt;Node3 -->
<g id="edge5" class="edge"><title>Node5&#45;&gt;Node3</title>
<path fill="none" stroke="midnightblue" d="M248.111,-93.2916C258.479,-94.6886 269.347,-96.1532 279.75,-97.555"/>
<polygon fill="midnightblue" stroke="midnightblue" points="279.585,-101.064 289.963,-98.9311 280.52,-94.127 279.585,-101.064"/>
</g>
<!-- Node6 -->
<g id="node6" class="node"><title>Node6</title>
<g id="a_node6"><a xlink:href="classpsi_1_1Matrix.html#af77ccf2eab7f3eed614c44492e9598d4" target="_top" xlink:title="Returns the cols in irrep h.">
<polygon fill="none" stroke="black" points="287.5,-57.5 287.5,-76.5 384.5,-76.5 384.5,-57.5 287.5,-57.5"/>
<text text-anchor="middle" x="336" y="-64.5" font-family="Helvetica,sans-Serif" font-size="10.00">psi::Matrix::coldim</text>
</a>
</g>
</g>
<!-- Node5&#45;&gt;Node6 -->
<g id="edge6" class="edge"><title>Node5&#45;&gt;Node6</title>
<path fill="none" stroke="midnightblue" d="M248.111,-78.7084C257.679,-77.4191 267.674,-76.0723 277.335,-74.7704"/>
<polygon fill="midnightblue" stroke="midnightblue" points="277.809,-78.2384 287.252,-73.4342 276.874,-71.3011 277.809,-78.2384"/>
</g>
</g>
</svg>
