<?xml version="1.0" encoding="UTF-8" standalone="no"?>
<!DOCTYPE svg PUBLIC "-//W3C//DTD SVG 1.1//EN"
 "http://www.w3.org/Graphics/SVG/1.1/DTD/svg11.dtd">
<!-- Generated by graphviz version 2.30.1 (20140110.0959)
 -->
<!-- Title: yeti::Matrix::data Pages: 1 -->
<svg width="382pt" height="180pt"
 viewBox="0.00 0.00 382.00 180.00" xmlns="http://www.w3.org/2000/svg" xmlns:xlink="http://www.w3.org/1999/xlink">
<g id="graph0" class="graph" transform="scale(1 1) rotate(0) translate(4 176)">
<title>yeti::Matrix::data</title>
<!-- Node1 -->
<g id="node1" class="node"><title>Node1</title>
<polygon fill="#bfbfbf" stroke="black" points="0,-76.5 0,-95.5 90,-95.5 90,-76.5 0,-76.5"/>
<text text-anchor="middle" x="45" y="-83.5" font-family="Helvetica,sans-Serif" font-size="10.00">yeti::Matrix::data</text>
</g>
<!-- Node2 -->
<g id="node2" class="node"><title>Node2</title>
<g id="a_node2"><a xlink:href="classyeti_1_1Matrix.html#a3af938818ecd971e6aaa2b6500bd3f69" target="_top" xlink:title="yeti::Matrix::toVector">
<polygon fill="none" stroke="black" points="133,-152.5 133,-171.5 241,-171.5 241,-152.5 133,-152.5"/>
<text text-anchor="middle" x="187" y="-159.5" font-family="Helvetica,sans-Serif" font-size="10.00">yeti::Matrix::toVector</text>
</a>
</g>
</g>
<!-- Node1&#45;&gt;Node2 -->
<g id="edge1" class="edge"><title>Node1&#45;&gt;Node2</title>
<path fill="none" stroke="midnightblue" d="M64.7517,-101.945C80.3146,-114.52 103.469,-131.756 126,-143 133.333,-146.659 141.519,-149.805 149.429,-152.424"/>
<polygon fill="midnightblue" stroke="midnightblue" points="66.8817,-99.165 56.9388,-95.5059 62.4297,-104.567 66.8817,-99.165"/>
</g>
<!-- Node4 -->
<g id="node4" class="node"><title>Node4</title>
<g id="a_node4"><a xlink:href="classyeti_1_1Matrix.html#abfd2dd084a65ee03f723364c425d1381" target="_top" xlink:title="yeti::Matrix::add">
<polygon fill="none" stroke="black" points="143.5,-114.5 143.5,-133.5 230.5,-133.5 230.5,-114.5 143.5,-114.5"/>
<text text-anchor="middle" x="187" y="-121.5" font-family="Helvetica,sans-Serif" font-size="10.00">yeti::Matrix::add</text>
</a>
</g>
</g>
<!-- Node1&#45;&gt;Node4 -->
<g id="edge3" class="edge"><title>Node1&#45;&gt;Node4</title>
<path fill="none" stroke="midnightblue" d="M91.1176,-98.2462C110.415,-103.484 132.612,-109.509 150.683,-114.414"/>
<polygon fill="midnightblue" stroke="midnightblue" points="91.8956,-94.8308 81.3279,-95.589 90.0619,-101.586 91.8956,-94.8308"/>
</g>
<!-- Node5 -->
<g id="node5" class="node"><title>Node5</title>
<g id="a_node5"><a xlink:href="classyeti_1_1Matrix.html#a9e082847da016b20acd2020f1a2bac2d" target="_top" xlink:title="yeti::Matrix::subtract">
<polygon fill="none" stroke="black" points="133.5,-76.5 133.5,-95.5 240.5,-95.5 240.5,-76.5 133.5,-76.5"/>
<text text-anchor="middle" x="187" y="-83.5" font-family="Helvetica,sans-Serif" font-size="10.00">yeti::Matrix::subtract</text>
</a>
</g>
</g>
<!-- Node1&#45;&gt;Node5 -->
<g id="edge4" class="edge"><title>Node1&#45;&gt;Node5</title>
<path fill="none" stroke="midnightblue" d="M100.421,-86C111.184,-86 122.463,-86 133.172,-86"/>
<polygon fill="midnightblue" stroke="midnightblue" points="100.297,-82.5001 90.2969,-86 100.297,-89.5001 100.297,-82.5001"/>
</g>
<!-- Node6 -->
<g id="node6" class="node"><title>Node6</title>
<g id="a_node6"><a xlink:href="classyeti_1_1Matrix.html#a37d0a571a4063c3c670b32fde130ee88" target="_top" xlink:title="yeti::Matrix::mult">
<polygon fill="none" stroke="black" points="142,-38.5 142,-57.5 232,-57.5 232,-38.5 142,-38.5"/>
<text text-anchor="middle" x="187" y="-45.5" font-family="Helvetica,sans-Serif" font-size="10.00">yeti::Matrix::mult</text>
</a>
</g>
</g>
<!-- Node1&#45;&gt;Node6 -->
<g id="edge5" class="edge"><title>Node1&#45;&gt;Node6</title>
<path fill="none" stroke="midnightblue" d="M91.1176,-73.7538C110.415,-68.516 132.612,-62.4909 150.683,-57.5859"/>
<polygon fill="midnightblue" stroke="midnightblue" points="90.0619,-70.4136 81.3279,-76.411 91.8956,-77.1692 90.0619,-70.4136"/>
</g>
<!-- Node7 -->
<g id="node7" class="node"><title>Node7</title>
<g id="a_node7"><a xlink:href="classyeti_1_1Matrix.html#a2a7fbcf9f3382d3e001af591cf79f38b" target="_top" xlink:title="yeti::Matrix::accumulate">
<polygon fill="none" stroke="black" points="126,-0.5 126,-19.5 248,-19.5 248,-0.5 126,-0.5"/>
<text text-anchor="middle" x="187" y="-7.5" font-family="Helvetica,sans-Serif" font-size="10.00">yeti::Matrix::accumulate</text>
</a>
</g>
</g>
<!-- Node1&#45;&gt;Node7 -->
<g id="edge7" class="edge"><title>Node1&#45;&gt;Node7</title>
<path fill="none" stroke="midnightblue" d="M64.7517,-70.055C80.3146,-57.4797 103.469,-40.2437 126,-29 133.333,-25.3408 141.519,-22.1949 149.429,-19.5756"/>
<polygon fill="midnightblue" stroke="midnightblue" points="62.4297,-67.4331 56.9388,-76.4941 66.8817,-72.835 62.4297,-67.4331"/>
</g>
<!-- Node3 -->
<g id="node3" class="node"><title>Node3</title>
<g id="a_node3"><a xlink:href="classyeti_1_1Matrix.html#ad69c4d2dab30e181cfe721985c342bf4" target="_top" xlink:title="yeti::Matrix::mult">
<polygon fill="none" stroke="black" points="284,-95.5 284,-114.5 374,-114.5 374,-95.5 284,-95.5"/>
<text text-anchor="middle" x="329" y="-102.5" font-family="Helvetica,sans-Serif" font-size="10.00">yeti::Matrix::mult</text>
</a>
</g>
</g>
<!-- Node2&#45;&gt;Node3 -->
<g id="edge2" class="edge"><title>Node2&#45;&gt;Node3</title>
<path fill="none" stroke="midnightblue" d="M230.716,-149.266C236.568,-147.292 242.464,-145.18 248,-143 269.604,-134.495 293.555,-122.802 309.568,-114.641"/>
<polygon fill="midnightblue" stroke="midnightblue" points="229.399,-146.014 220.981,-152.447 231.573,-152.668 229.399,-146.014"/>
</g>
<!-- Node6&#45;&gt;Node3 -->
<g id="edge6" class="edge"><title>Node6&#45;&gt;Node3</title>
<path fill="none" stroke="midnightblue" d="M230.716,-60.7338C236.568,-62.7084 242.464,-64.8204 248,-67 269.604,-75.5054 293.555,-87.1979 309.568,-95.3585"/>
<polygon fill="midnightblue" stroke="midnightblue" points="231.573,-57.3319 220.981,-57.5529 229.399,-63.9857 231.573,-57.3319"/>
</g>
</g>
</svg>
