<?xml version="1.0" encoding="UTF-8" standalone="no"?>
<!DOCTYPE svg PUBLIC "-//W3C//DTD SVG 1.1//EN"
 "http://www.w3.org/Graphics/SVG/1.1/DTD/svg11.dtd">
<!-- Generated by graphviz version 2.30.1 (20140110.0959)
 -->
<!-- Title: psi::Matrix::Matrix Pages: 1 -->
<!--zoomable 142 -->
<svg id="main" version="1.1" xmlns="http://www.w3.org/2000/svg" xmlns:xlink="http://www.w3.org/1999/xlink" xml:space="preserve" onload="init(evt)">
        <defs>
                <circle id="rim" cx="0" cy="0" r="7"/>
                <circle id="rim2" cx="0" cy="0" r="3.5"/>
                <g id="zoomPlus">
                        <use xlink:href="#rim" fill="#404040">
                                <set attributeName="fill" to="#808080" begin="zoomplus.mouseover" end="zoomplus.mouseout"/>
                        </use>
                        <path d="M-4,0h8M0,-4v8" fill="none" stroke="white" stroke-width="1.5" pointer-events="none"/>
                </g>
                <g id="zoomMin">
                        <use xlink:href="#rim" fill="#404040">
                                <set attributeName="fill" to="#808080" begin="zoomminus.mouseover" end="zoomminus.mouseout"/>
                        </use>
                        <path d="M-4,0h8" fill="none" stroke="white" stroke-width="1.5" pointer-events="none"/>
                </g>
                <g id="dirArrow">
                        <path fill="none" stroke="white" stroke-width="1.5" d="M0,-3.0v7 M-2.5,-0.5L0,-3.0L2.5,-0.5"/>
                </g>
               <g id="resetDef">
                       <use xlink:href="#rim2" fill="#404040">
                               <set attributeName="fill" to="#808080" begin="reset.mouseover" end="reset.mouseout"/>
                       </use>
               </g>
        </defs>

<script type="text/javascript">
var viewWidth = 650;
var viewHeight = 142;
var sectionId = 'dynsection-7';
</script>
<script xlink:href="svgpan.js"/>
<svg id="graph" class="graph">
<g id="viewport">
<title>psi::Matrix::Matrix</title>
<!-- Node1 -->
<g id="node1" class="node"><title>Node1</title>
<polygon fill="#bfbfbf" stroke="black" points="0.5,-76.5 0.5,-95.5 95.5,-95.5 95.5,-76.5 0.5,-76.5"/>
<text text-anchor="middle" x="48" y="-83.5" font-family="Helvetica,sans-Serif" font-size="10.00">psi::Matrix::Matrix</text>
</g>
<!-- Node2 -->
<g id="node2" class="node"><title>Node2</title>
<g id="a_node2"><a xlink:href="classpsi_1_1Matrix.html#a32bcf25d82e525256de2eaff81051278" target="_top" xlink:title="psi::Matrix::symmetry">
<polygon fill="none" stroke="black" points="132,-114.5 132,-133.5 244,-133.5 244,-114.5 132,-114.5"/>
<text text-anchor="middle" x="188" y="-121.5" font-family="Helvetica,sans-Serif" font-size="10.00">psi::Matrix::symmetry</text>
</a>
</g>
</g>
<!-- Node1&#45;&gt;Node2 -->
<g id="edge1" class="edge"><title>Node1&#45;&gt;Node2</title>
<path fill="none" stroke="midnightblue" d="M83.8232,-95.589C101.638,-100.494 123.518,-106.52 142.539,-111.757"/>
<polygon fill="midnightblue" stroke="midnightblue" points="141.618,-115.134 152.188,-114.414 143.476,-108.385 141.618,-115.134"/>
</g>
<!-- Node3 -->
<g id="node3" class="node"><title>Node3</title>
<g id="a_node3"><a xlink:href="classpsi_1_1Dimension.html#adec7b6df3bd652a8de12bb19ca0847df" target="_top" xlink:title="Return the rank.">
<polygon fill="none" stroke="black" points="141.5,-76.5 141.5,-95.5 234.5,-95.5 234.5,-76.5 141.5,-76.5"/>
<text text-anchor="middle" x="188" y="-83.5" font-family="Helvetica,sans-Serif" font-size="10.00">psi::Dimension::n</text>
</a>
</g>
</g>
<!-- Node1&#45;&gt;Node3 -->
<g id="edge2" class="edge"><title>Node1&#45;&gt;Node3</title>
<path fill="none" stroke="midnightblue" d="M95.7205,-86C107.09,-86 119.364,-86 131.112,-86"/>
<polygon fill="midnightblue" stroke="midnightblue" points="131.264,-89.5001 141.264,-86 131.264,-82.5001 131.264,-89.5001"/>
</g>
<!-- Node4 -->
<g id="node4" class="node"><title>Node4</title>
<g id="a_node4"><a xlink:href="classpsi_1_1Matrix.html#a65ec285afc6f80a629c752f684e364f1" target="_top" xlink:title="Allocates matrix_.">
<polygon fill="none" stroke="black" points="143.5,-38.5 143.5,-57.5 232.5,-57.5 232.5,-38.5 143.5,-38.5"/>
<text text-anchor="middle" x="188" y="-45.5" font-family="Helvetica,sans-Serif" font-size="10.00">psi::Matrix::alloc</text>
</a>
</g>
</g>
<!-- Node1&#45;&gt;Node4 -->
<g id="edge3" class="edge"><title>Node1&#45;&gt;Node4</title>
<path fill="none" stroke="midnightblue" d="M83.8232,-76.411C101.638,-71.5056 123.518,-65.4804 142.539,-60.2429"/>
<polygon fill="midnightblue" stroke="midnightblue" points="143.476,-63.6152 152.188,-57.5859 141.618,-56.8664 143.476,-63.6152"/>
</g>
<!-- Node5 -->
<g id="node5" class="node"><title>Node5</title>
<g id="a_node5"><a xlink:href="classpsi_1_1Matrix.html#ab59f4a769478018f0b27663e58212ae0" target="_top" xlink:title="Release matrix_.">
<polygon fill="none" stroke="black" points="280,-57.5 280,-76.5 380,-76.5 380,-57.5 280,-57.5"/>
<text text-anchor="middle" x="330" y="-64.5" font-family="Helvetica,sans-Serif" font-size="10.00">psi::Matrix::release</text>
</a>
</g>
</g>
<!-- Node4&#45;&gt;Node5 -->
<g id="edge4" class="edge"><title>Node4&#45;&gt;Node5</title>
<path fill="none" stroke="midnightblue" d="M232.529,-53.9076C244.193,-55.4905 257.007,-57.2296 269.379,-58.9086"/>
<polygon fill="midnightblue" stroke="midnightblue" points="269.252,-62.4234 279.632,-60.3001 270.194,-55.487 269.252,-62.4234"/>
</g>
<!-- Node7 -->
<g id="node7" class="node"><title>Node7</title>
<g id="a_node7"><a xlink:href="classpsi_1_1Matrix.html#a5cf27d2c4c5dca04a578ed4f9cc2aad7" target="_top" xlink:title="allocate a block matrix – analogous to libciomr&#39;s block_matrix">
<polygon fill="none" stroke="black" points="282.5,-19.5 282.5,-38.5 377.5,-38.5 377.5,-19.5 282.5,-19.5"/>
<text text-anchor="middle" x="330" y="-26.5" font-family="Helvetica,sans-Serif" font-size="10.00">psi::Matrix::matrix</text>
</a>
</g>
</g>
<!-- Node4&#45;&gt;Node7 -->
<g id="edge6" class="edge"><title>Node4&#45;&gt;Node7</title>
<path fill="none" stroke="midnightblue" d="M232.529,-42.0924C245.066,-40.391 258.932,-38.5093 272.148,-36.7156"/>
<polygon fill="midnightblue" stroke="midnightblue" points="272.658,-40.1786 282.096,-35.3655 271.716,-33.2422 272.658,-40.1786"/>
</g>
<!-- Node6 -->
<g id="node6" class="node"><title>Node6</title>
<g id="a_node6"><a xlink:href="classpsi_1_1Matrix.html#a391d00e36473a7081ff510b4e42ec37f" target="_top" xlink:title="free a (block) matrix – analogous to libciomr&#39;s free_block">
<polygon fill="none" stroke="black" points="418.5,-57.5 418.5,-76.5 503.5,-76.5 503.5,-57.5 418.5,-57.5"/>
<text text-anchor="middle" x="461" y="-64.5" font-family="Helvetica,sans-Serif" font-size="10.00">psi::Matrix::free</text>
</a>
</g>
</g>
<!-- Node5&#45;&gt;Node6 -->
<g id="edge5" class="edge"><title>Node5&#45;&gt;Node6</title>
<path fill="none" stroke="midnightblue" d="M380.137,-67C389.242,-67 398.781,-67 407.969,-67"/>
<polygon fill="midnightblue" stroke="midnightblue" points="408.151,-70.5001 418.151,-67 408.151,-63.5001 408.151,-70.5001"/>
</g>
<!-- Node8 -->
<g id="node8" class="node"><title>Node8</title>
<g id="a_node8"><a xlink:href="classpsi_1_1Matrix.html#a1a2168c5e0a0b8b003dae927e4050c7b" target="_top" xlink:title="Returns the total number of rows.">
<polygon fill="none" stroke="black" points="416.5,-19.5 416.5,-38.5 505.5,-38.5 505.5,-19.5 416.5,-19.5"/>
<text text-anchor="middle" x="461" y="-26.5" font-family="Helvetica,sans-Serif" font-size="10.00">psi::Matrix::nrow</text>
</a>
</g>
</g>
<!-- Node7&#45;&gt;Node8 -->
<g id="edge7" class="edge"><title>Node7&#45;&gt;Node8</title>
<path fill="none" stroke="midnightblue" d="M377.572,-29C386.794,-29 396.547,-29 405.991,-29"/>
<polygon fill="midnightblue" stroke="midnightblue" points="406.079,-32.5001 416.079,-29 406.079,-25.5001 406.079,-32.5001"/>
</g>
<!-- Node9 -->
<g id="node9" class="node"><title>Node9</title>
<g id="a_node9"><a xlink:href="classpsi_1_1Matrix.html#a0acfcfb5d8cb154b3220989ac55589bd" target="_top" xlink:title="Returns the number of irreps.">
<polygon fill="none" stroke="black" points="546,-38.5 546,-57.5 638,-57.5 638,-38.5 546,-38.5"/>
<text text-anchor="middle" x="592" y="-45.5" font-family="Helvetica,sans-Serif" font-size="10.00">psi::Matrix::nirrep</text>
</a>
</g>
</g>
<!-- Node8&#45;&gt;Node9 -->
<g id="edge8" class="edge"><title>Node8&#45;&gt;Node9</title>
<path fill="none" stroke="midnightblue" d="M505.674,-35.4325C515.322,-36.8536 525.667,-38.3773 535.708,-39.8562"/>
<polygon fill="midnightblue" stroke="midnightblue" points="535.207,-43.3201 545.61,-41.3147 536.227,-36.3948 535.207,-43.3201"/>
</g>
<!-- Node10 -->
<g id="node10" class="node"><title>Node10</title>
<g id="a_node10"><a xlink:href="classpsi_1_1Matrix.html#a9e517cfa7db99a049c4c2f1324286bbf" target="_top" xlink:title="Returns the rows in irrep h.">
<polygon fill="none" stroke="black" points="542,-0.5 542,-19.5 642,-19.5 642,-0.5 542,-0.5"/>
<text text-anchor="middle" x="592" y="-7.5" font-family="Helvetica,sans-Serif" font-size="10.00">psi::Matrix::rowdim</text>
</a>
</g>
</g>
<!-- Node8&#45;&gt;Node10 -->
<g id="edge9" class="edge"><title>Node8&#45;&gt;Node10</title>
<path fill="none" stroke="midnightblue" d="M505.674,-22.5675C513.974,-21.3449 522.79,-20.0464 531.485,-18.7658"/>
<polygon fill="midnightblue" stroke="midnightblue" points="532.215,-22.1962 541.598,-17.2763 531.195,-15.2709 532.215,-22.1962"/>
</g>
</g>
</svg>
        <g id="navigator" transform="translate(0 0)" fill="#404254">
                <rect fill="#f2f5e9" fill-opacity="0.5" stroke="#606060" stroke-width=".5" x="0" y="0" width="60" height="60"/>
                <use id="zoomplus" xlink:href="#zoomPlus" x="17" y="9" onmousedown="handleZoom(evt,'in')"/>
                <use id="zoomminus" xlink:href="#zoomMin" x="42" y="9" onmousedown="handleZoom(evt,'out')"/>
                <use id="reset" xlink:href="#resetDef" x="30" y="36" onmousedown="handleReset()"/>
                <g id="arrowUp" xlink:href="#dirArrow" transform="translate(30 24)" onmousedown="handlePan(0,-1)">
                  <use xlink:href="#rim" fill="#404040">
                        <set attributeName="fill" to="#808080" begin="arrowUp.mouseover" end="arrowUp.mouseout"/>
                  </use>
                  <path fill="none" stroke="white" stroke-width="1.5" d="M0,-3.0v7 M-2.5,-0.5L0,-3.0L2.5,-0.5"/>
                </g>
                <g id="arrowRight" xlink:href="#dirArrow" transform="rotate(90) translate(36 -43)" onmousedown="handlePan(1,0)">
                  <use xlink:href="#rim" fill="#404040">
                        <set attributeName="fill" to="#808080" begin="arrowRight.mouseover" end="arrowRight.mouseout"/>
                  </use>
                  <path fill="none" stroke="white" stroke-width="1.5" d="M0,-3.0v7 M-2.5,-0.5L0,-3.0L2.5,-0.5"/>
                </g>
                <g id="arrowDown" xlink:href="#dirArrow" transform="rotate(180) translate(-30 -48)" onmousedown="handlePan(0,1)">
                  <use xlink:href="#rim" fill="#404040">
                        <set attributeName="fill" to="#808080" begin="arrowDown.mouseover" end="arrowDown.mouseout"/>
                  </use>
                  <path fill="none" stroke="white" stroke-width="1.5" d="M0,-3.0v7 M-2.5,-0.5L0,-3.0L2.5,-0.5"/>
                </g>
                <g id="arrowLeft" xlink:href="#dirArrow" transform="rotate(270) translate(-36 17)" onmousedown="handlePan(-1,0)">
                  <use xlink:href="#rim" fill="#404040">
                        <set attributeName="fill" to="#808080" begin="arrowLeft.mouseover" end="arrowLeft.mouseout"/>
                  </use>
                  <path fill="none" stroke="white" stroke-width="1.5" d="M0,-3.0v7 M-2.5,-0.5L0,-3.0L2.5,-0.5"/>
                </g>
        </g>
        <svg viewBox="0 0 15 15" width="100%" height="30px" preserveAspectRatio="xMaxYMin meet">
         <g id="arrow_out" transform="scale(0.3 0.3)">
          <a xlink:href="classpsi_1_1Matrix_a5a9920af98c0ac218b4cb31d4b59056f_cgraph_org.svg" target="_base">
           <rect id="button" ry="5" rx="5" y="6" x="6" height="38" width="38"
                fill="#f2f5e9" fill-opacity="0.5" stroke="#606060" stroke-width="1.0"/>
           <path id="arrow"
             d="M 11.500037,31.436501 C 11.940474,20.09759 22.043105,11.32322 32.158766,21.979434 L 37.068811,17.246167 C 37.068811,17.246167 37.088388,32 37.088388,32 L 22.160133,31.978069 C 22.160133,31.978069 26.997745,27.140456 26.997745,27.140456 C 18.528582,18.264221 13.291696,25.230495 11.500037,31.436501 z"
             style="fill:#404040;"/>
          </a>
         </g>
        </svg>
</svg>
