<?xml version="1.0" encoding="UTF-8" standalone="no"?>
<!DOCTYPE svg PUBLIC "-//W3C//DTD SVG 1.1//EN"
 "http://www.w3.org/Graphics/SVG/1.1/DTD/svg11.dtd">
<!-- Generated by graphviz version 2.30.1 (20140110.0959)
 -->
<!-- Title: yeti::TensorDataController Pages: 1 -->
<svg width="271pt" height="98pt"
 viewBox="0.00 0.00 271.00 98.00" xmlns="http://www.w3.org/2000/svg" xmlns:xlink="http://www.w3.org/1999/xlink">
<g id="graph0" class="graph" transform="scale(1 1) rotate(0) translate(4 94)">
<title>yeti::TensorDataController</title>
<!-- Node1 -->
<g id="node1" class="node"><title>Node1</title>
<polygon fill="#bfbfbf" stroke="black" points="55.5,-0.5 55.5,-19.5 186.5,-19.5 186.5,-0.5 55.5,-0.5"/>
<text text-anchor="middle" x="121" y="-7.5" font-family="Helvetica,sans-Serif" font-size="10.00">yeti::TensorDataController</text>
</g>
<!-- Node1&#45;&gt;Node1 -->
<g id="edge3" class="edge"><title>Node1&#45;&gt;Node1</title>
<path fill="none" stroke="#9a32cd" stroke-dasharray="5,2" d="M196.717,-13.629C201.269,-12.7648 204,-11.5552 204,-10 204,-7.51172 197.008,-5.90794 186.753,-5.18867"/>
<polygon fill="#9a32cd" stroke="#9a32cd" points="196.271,-10.1573 186.753,-14.8113 197.095,-17.1085 196.271,-10.1573"/>
<text text-anchor="middle" x="215" y="-7.5" font-family="Helvetica,sans-Serif" font-size="10.00"> next</text>
</g>
<!-- Node2 -->
<g id="node2" class="node"><title>Node2</title>
<g id="a_node2"><a xlink:href="classsmartptr_1_1Countable.html" target="_top" xlink:title="smartptr::Countable">
<polygon fill="none" stroke="black" points="-0.5,-64.5 -0.5,-83.5 102.5,-83.5 102.5,-64.5 -0.5,-64.5"/>
<text text-anchor="middle" x="51" y="-71.5" font-family="Helvetica,sans-Serif" font-size="10.00">smartptr::Countable</text>
</a>
</g>
</g>
<!-- Node2&#45;&gt;Node1 -->
<g id="edge1" class="edge"><title>Node2&#45;&gt;Node1</title>
<path fill="none" stroke="midnightblue" d="M68.4558,-57.5392C82.0142,-45.5303 100.31,-29.325 111.349,-19.5476"/>
<polygon fill="midnightblue" stroke="midnightblue" points="65.8985,-55.1287 60.7332,-64.3792 70.5397,-60.3688 65.8985,-55.1287"/>
</g>
<!-- Node3 -->
<g id="node3" class="node"><title>Node3</title>
<g id="a_node3"><a xlink:href="classyeti_1_1MempoolVirtualAddressMalloc.html" target="_top" xlink:title="yeti::MempoolVirtualAddress\lMalloc">
<polygon fill="none" stroke="black" points="121,-59 121,-89 263,-89 263,-59 121,-59"/>
<text text-anchor="start" x="129" y="-77" font-family="Helvetica,sans-Serif" font-size="10.00">yeti::MempoolVirtualAddress</text>
<text text-anchor="middle" x="192" y="-66" font-family="Helvetica,sans-Serif" font-size="10.00">Malloc</text>
</a>
</g>
</g>
<!-- Node3&#45;&gt;Node1 -->
<g id="edge2" class="edge"><title>Node3&#45;&gt;Node1</title>
<path fill="none" stroke="midnightblue" d="M168.013,-52.054C155.438,-41.0728 140.702,-28.2041 131.125,-19.8419"/>
<polygon fill="midnightblue" stroke="midnightblue" points="166.054,-54.99 175.889,-58.9312 170.659,-49.7173 166.054,-54.99"/>
</g>
</g>
</svg>
