<?xml version="1.0" encoding="UTF-8" standalone="no"?>
<!DOCTYPE svg PUBLIC "-//W3C//DTD SVG 1.1//EN"
 "http://www.w3.org/Graphics/SVG/1.1/DTD/svg11.dtd">
<!-- Generated by graphviz version 2.30.1 (20140110.0959)
 -->
<!-- Title: yeti::Contraction Pages: 1 -->
<svg width="280pt" height="282pt"
 viewBox="0.00 0.00 280.00 282.00" xmlns="http://www.w3.org/2000/svg" xmlns:xlink="http://www.w3.org/1999/xlink">
<g id="graph0" class="graph" transform="scale(1 1) rotate(0) translate(4 278)">
<title>yeti::Contraction</title>
<!-- Node1 -->
<g id="node1" class="node"><title>Node1</title>
<polygon fill="#bfbfbf" stroke="black" points="102.5,-0.5 102.5,-19.5 191.5,-19.5 191.5,-0.5 102.5,-0.5"/>
<text text-anchor="middle" x="147" y="-7.5" font-family="Helvetica,sans-Serif" font-size="10.00">yeti::Contraction</text>
</g>
<!-- Node2 -->
<g id="node2" class="node"><title>Node2</title>
<g id="a_node2"><a xlink:href="classyeti_1_1TaskParent.html" target="_top" xlink:title="yeti::TaskParent">
<polygon fill="none" stroke="black" points="24.5,-58.5 24.5,-77.5 113.5,-77.5 113.5,-58.5 24.5,-58.5"/>
<text text-anchor="middle" x="69" y="-65.5" font-family="Helvetica,sans-Serif" font-size="10.00">yeti::TaskParent</text>
</a>
</g>
</g>
<!-- Node2&#45;&gt;Node1 -->
<g id="edge1" class="edge"><title>Node2&#45;&gt;Node1</title>
<path fill="none" stroke="midnightblue" d="M89.2035,-52.4949C103.741,-42.0575 122.859,-28.3321 135.042,-19.5852"/>
<polygon fill="midnightblue" stroke="midnightblue" points="86.9285,-49.8196 80.8465,-58.4948 91.011,-55.5058 86.9285,-49.8196"/>
</g>
<!-- Node3 -->
<g id="node3" class="node"><title>Node3</title>
<g id="a_node3"><a xlink:href="classyeti_1_1YetiRuntimeCountable.html" target="_top" xlink:title="yeti::YetiRuntimeCountable">
<polygon fill="none" stroke="black" points="-0.5,-126.5 -0.5,-145.5 136.5,-145.5 136.5,-126.5 -0.5,-126.5"/>
<text text-anchor="middle" x="68" y="-133.5" font-family="Helvetica,sans-Serif" font-size="10.00">yeti::YetiRuntimeCountable</text>
</a>
</g>
</g>
<!-- Node3&#45;&gt;Node2 -->
<g id="edge2" class="edge"><title>Node3&#45;&gt;Node2</title>
<path fill="none" stroke="midnightblue" d="M68.2873,-116.041C68.4777,-103.472 68.7187,-87.5631 68.866,-77.8411"/>
<polygon fill="midnightblue" stroke="midnightblue" points="64.7827,-116.32 68.1307,-126.372 71.7819,-116.426 64.7827,-116.32"/>
</g>
<!-- Node4 -->
<g id="node4" class="node"><title>Node4</title>
<g id="a_node4"><a xlink:href="classsmartptr_1_1Countable.html" target="_top" xlink:title="smartptr::Countable">
<polygon fill="none" stroke="black" points="4.5,-190.5 4.5,-209.5 107.5,-209.5 107.5,-190.5 4.5,-190.5"/>
<text text-anchor="middle" x="56" y="-197.5" font-family="Helvetica,sans-Serif" font-size="10.00">smartptr::Countable</text>
</a>
</g>
</g>
<!-- Node4&#45;&gt;Node3 -->
<g id="edge3" class="edge"><title>Node4&#45;&gt;Node3</title>
<path fill="none" stroke="midnightblue" d="M59.6008,-180.396C61.8404,-168.825 64.6139,-154.495 66.3456,-145.548"/>
<polygon fill="midnightblue" stroke="midnightblue" points="56.1326,-179.896 57.6685,-190.379 63.0051,-181.226 56.1326,-179.896"/>
</g>
<!-- Node5 -->
<g id="node5" class="node"><title>Node5</title>
<g id="a_node5"><a xlink:href="classyeti_1_1YetiThreadedRuntimeObject.html" target="_top" xlink:title="yeti::YetiThreadedRuntime\lObject">
<polygon fill="none" stroke="black" points="125.5,-185 125.5,-215 258.5,-215 258.5,-185 125.5,-185"/>
<text text-anchor="start" x="133.5" y="-203" font-family="Helvetica,sans-Serif" font-size="10.00">yeti::YetiThreadedRuntime</text>
<text text-anchor="middle" x="192" y="-192" font-family="Helvetica,sans-Serif" font-size="10.00">Object</text>
</a>
</g>
</g>
<!-- Node5&#45;&gt;Node3 -->
<g id="edge4" class="edge"><title>Node5&#45;&gt;Node3</title>
<path fill="none" stroke="midnightblue" d="M154.695,-180.348C131.667,-168.833 103.205,-154.603 85.3212,-145.661"/>
<polygon fill="midnightblue" stroke="midnightblue" points="153.353,-183.59 163.862,-184.931 156.483,-177.329 153.353,-183.59"/>
</g>
<!-- Node6 -->
<g id="node6" class="node"><title>Node6</title>
<g id="a_node6"><a xlink:href="classyeti_1_1YetiRuntimeObject.html" target="_top" xlink:title="yeti::YetiRuntimeObject">
<polygon fill="none" stroke="black" points="131.5,-254.5 131.5,-273.5 252.5,-273.5 252.5,-254.5 131.5,-254.5"/>
<text text-anchor="middle" x="192" y="-261.5" font-family="Helvetica,sans-Serif" font-size="10.00">yeti::YetiRuntimeObject</text>
</a>
</g>
</g>
<!-- Node6&#45;&gt;Node5 -->
<g id="edge5" class="edge"><title>Node6&#45;&gt;Node5</title>
<path fill="none" stroke="midnightblue" d="M192,-244.183C192,-234.886 192,-223.851 192,-215.263"/>
<polygon fill="midnightblue" stroke="midnightblue" points="188.5,-244.379 192,-254.379 195.5,-244.379 188.5,-244.379"/>
</g>
<!-- Node7 -->
<g id="node7" class="node"><title>Node7</title>
<g id="a_node7"><a xlink:href="classyeti_1_1Malloc.html" target="_top" xlink:title="yeti::Malloc\&lt; Contraction \&gt;">
<polygon fill="none" stroke="black" points="132.5,-58.5 132.5,-77.5 267.5,-77.5 267.5,-58.5 132.5,-58.5"/>
<text text-anchor="middle" x="200" y="-65.5" font-family="Helvetica,sans-Serif" font-size="10.00">yeti::Malloc&lt; Contraction &gt;</text>
</a>
</g>
</g>
<!-- Node7&#45;&gt;Node1 -->
<g id="edge6" class="edge"><title>Node7&#45;&gt;Node1</title>
<path fill="none" stroke="midnightblue" d="M184.61,-50.739C174.944,-40.5255 162.869,-27.7674 155.05,-19.5052"/>
<polygon fill="midnightblue" stroke="midnightblue" points="182.303,-53.3929 191.719,-58.25 187.387,-48.5812 182.303,-53.3929"/>
</g>
<!-- Node8 -->
<g id="node8" class="node"><title>Node8</title>
<g id="a_node8"><a xlink:href="classyeti_1_1Malloc.html" target="_top" xlink:title="yeti::Malloc\&lt; T \&gt;">
<polygon fill="none" stroke="black" points="154.5,-126.5 154.5,-145.5 245.5,-145.5 245.5,-126.5 154.5,-126.5"/>
<text text-anchor="middle" x="200" y="-133.5" font-family="Helvetica,sans-Serif" font-size="10.00">yeti::Malloc&lt; T &gt;</text>
</a>
</g>
</g>
<!-- Node8&#45;&gt;Node7 -->
<g id="edge7" class="edge"><title>Node8&#45;&gt;Node7</title>
<path fill="none" stroke="orange" stroke-dasharray="5,2" d="M200,-116.041C200,-103.472 200,-87.5631 200,-77.8411"/>
<polygon fill="orange" stroke="orange" points="196.5,-116.372 200,-126.372 203.5,-116.372 196.5,-116.372"/>
<text text-anchor="middle" x="236" y="-99.5" font-family="Helvetica,sans-Serif" font-size="10.00"> &lt; Contraction &gt;</text>
</g>
</g>
</svg>
