<?xml version="1.0" encoding="UTF-8" standalone="no"?>
<!DOCTYPE svg PUBLIC "-//W3C//DTD SVG 1.1//EN"
 "http://www.w3.org/Graphics/SVG/1.1/DTD/svg11.dtd">
<!-- Generated by graphviz version 2.30.1 (20140110.0959)
 -->
<!-- Title: psi::JK::set_cutoff Pages: 1 -->
<svg width="560pt" height="85pt"
 viewBox="0.00 0.00 560.00 85.00" xmlns="http://www.w3.org/2000/svg" xmlns:xlink="http://www.w3.org/1999/xlink">
<g id="graph0" class="graph" transform="scale(1 1) rotate(0) translate(4 81)">
<title>psi::JK::set_cutoff</title>
<!-- Node1 -->
<g id="node1" class="node"><title>Node1</title>
<polygon fill="#bfbfbf" stroke="black" points="0.5,-19.5 0.5,-38.5 97.5,-38.5 97.5,-19.5 0.5,-19.5"/>
<text text-anchor="middle" x="49" y="-26.5" font-family="Helvetica,sans-Serif" font-size="10.00">psi::JK::set_cutoff</text>
</g>
<!-- Node2 -->
<g id="node2" class="node"><title>Node2</title>
<g id="a_node2"><a xlink:href="classpsi_1_1JK.html#ad6f05953250307fa9551cdb0e7125652" target="_top" xlink:title="psi::JK::build_JK">
<polygon fill="none" stroke="black" points="134.5,-19.5 134.5,-38.5 225.5,-38.5 225.5,-19.5 134.5,-19.5"/>
<text text-anchor="middle" x="180" y="-26.5" font-family="Helvetica,sans-Serif" font-size="10.00">psi::JK::build_JK</text>
</a>
</g>
</g>
<!-- Node1&#45;&gt;Node2 -->
<g id="edge1" class="edge"><title>Node1&#45;&gt;Node2</title>
<path fill="none" stroke="midnightblue" d="M107.877,-29C116.671,-29 125.632,-29 134.096,-29"/>
<polygon fill="midnightblue" stroke="midnightblue" points="107.668,-25.5001 97.6683,-29 107.668,-32.5001 107.668,-25.5001"/>
</g>
<!-- Node3 -->
<g id="node3" class="node"><title>Node3</title>
<g id="a_node3"><a xlink:href="classpsi_1_1scf_1_1HF.html#aa968f6558e5b3ce316643872fb9036b2" target="_top" xlink:title="Do any needed integral setup.">
<polygon fill="none" stroke="black" points="273.5,-38.5 273.5,-57.5 384.5,-57.5 384.5,-38.5 273.5,-38.5"/>
<text text-anchor="middle" x="329" y="-45.5" font-family="Helvetica,sans-Serif" font-size="10.00">psi::scf::HF::integrals</text>
</a>
</g>
</g>
<!-- Node2&#45;&gt;Node3 -->
<g id="edge2" class="edge"><title>Node2&#45;&gt;Node3</title>
<path fill="none" stroke="midnightblue" d="M235.619,-36.0596C247.911,-37.6484 260.96,-39.335 273.258,-40.9245"/>
<polygon fill="midnightblue" stroke="midnightblue" points="235.87,-32.563 225.504,-34.7522 234.973,-39.5053 235.87,-32.563"/>
</g>
<!-- Node6 -->
<g id="node6" class="node"><title>Node6</title>
<g id="a_node6"><a xlink:href="classpsi_1_1DirectJK.html#a924095b0bade0398de1f29a60f582888" target="_top" xlink:title="Compute J/K for current C/D.">
<polygon fill="none" stroke="black" points="262,-0.5 262,-19.5 396,-19.5 396,-0.5 262,-0.5"/>
<text text-anchor="middle" x="329" y="-7.5" font-family="Helvetica,sans-Serif" font-size="10.00">psi::DirectJK::compute_JK</text>
</a>
</g>
</g>
<!-- Node2&#45;&gt;Node6 -->
<g id="edge5" class="edge"><title>Node2&#45;&gt;Node6</title>
<path fill="none" stroke="midnightblue" d="M235.437,-21.964C244.072,-20.8478 253.085,-19.6829 261.951,-18.5369"/>
<polygon fill="midnightblue" stroke="midnightblue" points="234.973,-18.4947 225.504,-23.2478 235.87,-25.437 234.973,-18.4947"/>
</g>
<!-- Node4 -->
<g id="node4" class="node"><title>Node4</title>
<g id="a_node4"><a xlink:href="classpsi_1_1scf_1_1RKS.html#a9c7ae631929304e673e15e8b5dd5b7d5" target="_top" xlink:title="Do any needed integral setup.">
<polygon fill="none" stroke="black" points="432.5,-57.5 432.5,-76.5 551.5,-76.5 551.5,-57.5 432.5,-57.5"/>
<text text-anchor="middle" x="492" y="-64.5" font-family="Helvetica,sans-Serif" font-size="10.00">psi::scf::RKS::integrals</text>
</a>
</g>
</g>
<!-- Node3&#45;&gt;Node4 -->
<g id="edge3" class="edge"><title>Node3&#45;&gt;Node4</title>
<path fill="none" stroke="midnightblue" d="M394.802,-55.6474C407.235,-57.1147 420.189,-58.6434 432.413,-60.086"/>
<polygon fill="midnightblue" stroke="midnightblue" points="394.849,-52.1287 384.507,-54.4325 394.028,-59.0805 394.849,-52.1287"/>
</g>
<!-- Node5 -->
<g id="node5" class="node"><title>Node5</title>
<g id="a_node5"><a xlink:href="classpsi_1_1scf_1_1UKS.html#a658f9204f06627ce4a8a883dcafc348d" target="_top" xlink:title="Do any needed integral setup.">
<polygon fill="none" stroke="black" points="432.5,-19.5 432.5,-38.5 551.5,-38.5 551.5,-19.5 432.5,-19.5"/>
<text text-anchor="middle" x="492" y="-26.5" font-family="Helvetica,sans-Serif" font-size="10.00">psi::scf::UKS::integrals</text>
</a>
</g>
</g>
<!-- Node3&#45;&gt;Node5 -->
<g id="edge4" class="edge"><title>Node3&#45;&gt;Node5</title>
<path fill="none" stroke="midnightblue" d="M394.802,-40.3526C407.235,-38.8853 420.189,-37.3566 432.413,-35.914"/>
<polygon fill="midnightblue" stroke="midnightblue" points="394.028,-36.9195 384.507,-41.5675 394.849,-43.8713 394.028,-36.9195"/>
</g>
</g>
</svg>
