<?xml version="1.0" encoding="UTF-8" standalone="no"?>
<!DOCTYPE svg PUBLIC "-//W3C//DTD SVG 1.1//EN"
 "http://www.w3.org/Graphics/SVG/1.1/DTD/svg11.dtd">
<!-- Generated by graphviz version 2.30.1 (20140110.0959)
 -->
<!-- Title: psi::OrbitalSpace::transform Pages: 1 -->
<svg width="256pt" height="164pt"
 viewBox="0.00 0.00 256.00 164.00" xmlns="http://www.w3.org/2000/svg" xmlns:xlink="http://www.w3.org/1999/xlink">
<g id="graph0" class="graph" transform="scale(1 1) rotate(0) translate(4 160)">
<title>psi::OrbitalSpace::transform</title>
<!-- Node1 -->
<g id="node1" class="node"><title>Node1</title>
<polygon fill="#bfbfbf" stroke="black" points="0,-63 0,-93 98,-93 98,-63 0,-63"/>
<text text-anchor="start" x="8" y="-81" font-family="Helvetica,sans-Serif" font-size="10.00">psi::OrbitalSpace::</text>
<text text-anchor="middle" x="49" y="-70" font-family="Helvetica,sans-Serif" font-size="10.00">transform</text>
</g>
<!-- Node2 -->
<g id="node2" class="node"><title>Node2</title>
<g id="a_node2"><a xlink:href="classpsi_1_1OrbitalSpace.html#a5915bd18a5286fd7a60f1243e5100148" target="_top" xlink:title="The AO basis set used to create C.">
<polygon fill="none" stroke="black" points="142,-126 142,-156 240,-156 240,-126 142,-126"/>
<text text-anchor="start" x="150" y="-144" font-family="Helvetica,sans-Serif" font-size="10.00">psi::OrbitalSpace::</text>
<text text-anchor="middle" x="191" y="-133" font-family="Helvetica,sans-Serif" font-size="10.00">basisset</text>
</a>
</g>
</g>
<!-- Node1&#45;&gt;Node2 -->
<g id="edge1" class="edge"><title>Node1&#45;&gt;Node2</title>
<path fill="none" stroke="midnightblue" d="M83.0966,-93.0178C98.5543,-100.02 117.21,-108.455 134,-116 138.155,-117.867 142.485,-119.808 146.815,-121.747"/>
<polygon fill="midnightblue" stroke="midnightblue" points="145.672,-125.069 156.229,-125.956 148.529,-118.679 145.672,-125.069"/>
</g>
<!-- Node3 -->
<g id="node3" class="node"><title>Node3</title>
<g id="a_node3"><a xlink:href="classpsi_1_1OrbitalSpace.html#a2a445e452b2db453bfa65d6cee603862" target="_top" xlink:title="MO dimensionality.">
<polygon fill="none" stroke="black" points="134.5,-87.5 134.5,-106.5 247.5,-106.5 247.5,-87.5 134.5,-87.5"/>
<text text-anchor="middle" x="191" y="-94.5" font-family="Helvetica,sans-Serif" font-size="10.00">psi::OrbitalSpace::dim</text>
</a>
</g>
</g>
<!-- Node1&#45;&gt;Node3 -->
<g id="edge2" class="edge"><title>Node1&#45;&gt;Node3</title>
<path fill="none" stroke="midnightblue" d="M98.1801,-84.5387C106.48,-85.6652 115.235,-86.8533 123.91,-88.0306"/>
<polygon fill="midnightblue" stroke="midnightblue" points="123.644,-91.5265 134.024,-89.4032 124.585,-84.5901 123.644,-91.5265"/>
</g>
<!-- Node4 -->
<g id="node4" class="node"><title>Node4</title>
<g id="a_node4"><a xlink:href="classpsi_1_1OrbitalSpace.html#ac96966e8fb74c68a75eff5416697a1f2" target="_top" xlink:title="C &#45; transformation matrix (AO x MO)">
<polygon fill="none" stroke="black" points="138.5,-49.5 138.5,-68.5 243.5,-68.5 243.5,-49.5 138.5,-49.5"/>
<text text-anchor="middle" x="191" y="-56.5" font-family="Helvetica,sans-Serif" font-size="10.00">psi::OrbitalSpace::C</text>
</a>
</g>
</g>
<!-- Node1&#45;&gt;Node4 -->
<g id="edge3" class="edge"><title>Node1&#45;&gt;Node4</title>
<path fill="none" stroke="midnightblue" d="M98.1801,-71.4613C107.909,-70.1409 118.262,-68.7358 128.379,-67.3628"/>
<polygon fill="midnightblue" stroke="midnightblue" points="128.946,-70.818 138.385,-66.0049 128.005,-63.8816 128.946,-70.818"/>
</g>
<!-- Node5 -->
<g id="node5" class="node"><title>Node5</title>
<g id="a_node5"><a xlink:href="classpsi_1_1OrbitalSpace.html#aeca95110da351ad2ca6080590402c358" target="_top" xlink:title="&quot;Eigenvalues&quot; of the C matrix">
<polygon fill="none" stroke="black" points="142,-0 142,-30 240,-30 240,-0 142,-0"/>
<text text-anchor="start" x="150" y="-18" font-family="Helvetica,sans-Serif" font-size="10.00">psi::OrbitalSpace::</text>
<text text-anchor="middle" x="191" y="-7" font-family="Helvetica,sans-Serif" font-size="10.00">evals</text>
</a>
</g>
</g>
<!-- Node1&#45;&gt;Node5 -->
<g id="edge4" class="edge"><title>Node1&#45;&gt;Node5</title>
<path fill="none" stroke="midnightblue" d="M83.0966,-62.9822C98.5543,-55.9799 117.21,-47.5453 134,-40 138.155,-38.1329 142.485,-36.1916 146.815,-34.2532"/>
<polygon fill="midnightblue" stroke="midnightblue" points="148.529,-37.3209 156.229,-30.0438 145.672,-30.9307 148.529,-37.3209"/>
</g>
</g>
</svg>
