<?xml version="1.0" encoding="UTF-8" standalone="no"?>
<!DOCTYPE svg PUBLIC "-//W3C//DTD SVG 1.1//EN"
 "http://www.w3.org/Graphics/SVG/1.1/DTD/svg11.dtd">
<!-- Generated by graphviz version 2.30.1 (20140110.0959)
 -->
<!-- Title: psi::LSTHCERI Pages: 1 -->
<svg width="223pt" height="234pt"
 viewBox="0.00 0.00 223.00 234.00" xmlns="http://www.w3.org/2000/svg" xmlns:xlink="http://www.w3.org/1999/xlink">
<g id="graph0" class="graph" transform="scale(1 1) rotate(0) translate(4 230)">
<title>psi::LSTHCERI</title>
<!-- Node1 -->
<g id="node1" class="node"><title>Node1</title>
<polygon fill="#bfbfbf" stroke="black" points="89,-0.5 89,-19.5 175,-19.5 175,-0.5 89,-0.5"/>
<text text-anchor="middle" x="132" y="-7.5" font-family="Helvetica,sans-Serif" font-size="10.00">psi::LSTHCERI</text>
</g>
<!-- Node2 -->
<g id="node2" class="node"><title>Node2</title>
<g id="a_node2"><a xlink:href="classpsi_1_1LRERI.html" target="_top" xlink:title="psi::LRERI">
<polygon fill="none" stroke="black" points="99.5,-58.5 99.5,-77.5 164.5,-77.5 164.5,-58.5 99.5,-58.5"/>
<text text-anchor="middle" x="132" y="-65.5" font-family="Helvetica,sans-Serif" font-size="10.00">psi::LRERI</text>
</a>
</g>
</g>
<!-- Node2&#45;&gt;Node1 -->
<g id="edge1" class="edge"><title>Node2&#45;&gt;Node1</title>
<path fill="none" stroke="midnightblue" d="M132,-47.953C132,-38.2875 132,-27.0312 132,-19.5052"/>
<polygon fill="midnightblue" stroke="midnightblue" points="128.5,-48.25 132,-58.25 135.5,-48.25 128.5,-48.25"/>
</g>
<!-- Node3 -->
<g id="node3" class="node"><title>Node3</title>
<g id="a_node3"><a xlink:href="classboost_1_1shared__ptr.html" target="_top" xlink:title="boost::shared_ptr\&lt;\l psi::BasisSet \&gt;">
<polygon fill="none" stroke="black" points="0,-127 0,-157 98,-157 98,-127 0,-127"/>
<text text-anchor="start" x="8" y="-145" font-family="Helvetica,sans-Serif" font-size="10.00">boost::shared_ptr&lt;</text>
<text text-anchor="middle" x="49" y="-134" font-family="Helvetica,sans-Serif" font-size="10.00"> psi::BasisSet &gt;</text>
</a>
</g>
</g>
<!-- Node3&#45;&gt;Node2 -->
<g id="edge2" class="edge"><title>Node3&#45;&gt;Node2</title>
<path fill="none" stroke="#9a32cd" stroke-dasharray="5,2" d="M72.5023,-120.069C81.1153,-112.45 90.965,-103.796 100,-96 107.154,-89.8267 115.295,-82.9606 121.574,-77.6972"/>
<polygon fill="#9a32cd" stroke="#9a32cd" points="70.1598,-117.469 64.999,-126.721 74.8036,-122.706 70.1598,-117.469"/>
<text text-anchor="middle" x="120.5" y="-99.5" font-family="Helvetica,sans-Serif" font-size="10.00"> primary_</text>
</g>
<!-- Node3&#45;&gt;Node1 -->
<g id="edge6" class="edge"><title>Node3&#45;&gt;Node1</title>
<path fill="none" stroke="#9a32cd" stroke-dasharray="5,2" d="M41.1235,-116.91C36.9005,-99.3528 34.475,-75.6486 45,-58 56.6948,-38.3899 79.7204,-26.47 99.1468,-19.5427"/>
<polygon fill="#9a32cd" stroke="#9a32cd" points="37.8558,-118.227 43.8855,-126.939 44.6045,-116.369 37.8558,-118.227"/>
<text text-anchor="middle" x="67.5" y="-65.5" font-family="Helvetica,sans-Serif" font-size="10.00"> auxiliary_</text>
</g>
<!-- Node4 -->
<g id="node4" class="node"><title>Node4</title>
<g id="a_node4"><a xlink:href="classboost_1_1shared__ptr.html" target="_top" xlink:title="boost::shared_ptr\&lt; T \&gt;">
<polygon fill="none" stroke="black" points="50,-206.5 50,-225.5 166,-225.5 166,-206.5 50,-206.5"/>
<text text-anchor="middle" x="108" y="-213.5" font-family="Helvetica,sans-Serif" font-size="10.00">boost::shared_ptr&lt; T &gt;</text>
</a>
</g>
</g>
<!-- Node4&#45;&gt;Node3 -->
<g id="edge3" class="edge"><title>Node4&#45;&gt;Node3</title>
<path fill="none" stroke="orange" stroke-dasharray="5,2" d="M70.3983,-201.735C64.4537,-198.121 58.9691,-193.606 55,-188 48.7149,-179.123 47.4624,-166.74 47.6431,-157.211"/>
<polygon fill="orange" stroke="orange" points="68.8316,-204.865 79.3139,-206.405 72.0798,-198.664 68.8316,-204.865"/>
<text text-anchor="middle" x="95" y="-179.5" font-family="Helvetica,sans-Serif" font-size="10.00"> &lt; psi::BasisSet &gt;</text>
</g>
<!-- Node5 -->
<g id="node5" class="node"><title>Node5</title>
<g id="a_node5"><a xlink:href="classboost_1_1shared__ptr.html" target="_top" xlink:title="boost::shared_ptr\&lt;\l psi::Matrix \&gt;">
<polygon fill="none" stroke="black" points="116,-127 116,-157 214,-157 214,-127 116,-127"/>
<text text-anchor="start" x="124" y="-145" font-family="Helvetica,sans-Serif" font-size="10.00">boost::shared_ptr&lt;</text>
<text text-anchor="middle" x="165" y="-134" font-family="Helvetica,sans-Serif" font-size="10.00"> psi::Matrix &gt;</text>
</a>
</g>
</g>
<!-- Node4&#45;&gt;Node5 -->
<g id="edge5" class="edge"><title>Node4&#45;&gt;Node5</title>
<path fill="none" stroke="orange" stroke-dasharray="5,2" d="M127.696,-199.59C131.676,-196.012 135.659,-192.056 139,-188 146.802,-178.529 153.653,-166.421 158.36,-157.15"/>
<polygon fill="orange" stroke="orange" points="125.116,-197.187 119.738,-206.316 129.635,-202.534 125.116,-197.187"/>
<text text-anchor="middle" x="181.5" y="-179.5" font-family="Helvetica,sans-Serif" font-size="10.00"> &lt; psi::Matrix &gt;</text>
</g>
<!-- Node5&#45;&gt;Node2 -->
<g id="edge4" class="edge"><title>Node5&#45;&gt;Node2</title>
<path fill="none" stroke="#9a32cd" stroke-dasharray="5,2" d="M154.222,-117.484C147.988,-103.884 140.512,-87.571 136.014,-77.7589"/>
<polygon fill="#9a32cd" stroke="#9a32cd" points="151.132,-119.143 158.48,-126.775 157.495,-116.226 151.132,-119.143"/>
<text text-anchor="middle" x="158" y="-99.5" font-family="Helvetica,sans-Serif" font-size="10.00"> C_</text>
</g>
<!-- Node5&#45;&gt;Node1 -->
<g id="edge7" class="edge"><title>Node5&#45;&gt;Node1</title>
<path fill="none" stroke="#9a32cd" stroke-dasharray="5,2" d="M172.75,-117.292C177.02,-100.279 180.154,-77.0834 173,-58 167.071,-42.183 153.143,-28.1901 143.166,-19.6716"/>
<polygon fill="#9a32cd" stroke="#9a32cd" points="169.36,-116.421 170.027,-126.995 176.099,-118.313 169.36,-116.421"/>
<text text-anchor="middle" x="186" y="-65.5" font-family="Helvetica,sans-Serif" font-size="10.00"> X_</text>
</g>
</g>
</svg>
