<?xml version="1.0" encoding="UTF-8" standalone="no"?>
<!DOCTYPE svg PUBLIC "-//W3C//DTD SVG 1.1//EN"
 "http://www.w3.org/Graphics/SVG/1.1/DTD/svg11.dtd">
<!-- Generated by graphviz version 2.30.1 (20140110.0959)
 -->
<!-- Title: psi::Matrix::vertcat Pages: 1 -->
<svg width="240pt" height="142pt"
 viewBox="0.00 0.00 240.00 142.00" xmlns="http://www.w3.org/2000/svg" xmlns:xlink="http://www.w3.org/1999/xlink">
<g id="graph0" class="graph" transform="scale(1 1) rotate(0) translate(4 138)">
<title>psi::Matrix::vertcat</title>
<!-- Node1 -->
<g id="node1" class="node"><title>Node1</title>
<polygon fill="#bfbfbf" stroke="black" points="0,-57.5 0,-76.5 98,-76.5 98,-57.5 0,-57.5"/>
<text text-anchor="middle" x="49" y="-64.5" font-family="Helvetica,sans-Serif" font-size="10.00">psi::Matrix::vertcat</text>
</g>
<!-- Node2 -->
<g id="node2" class="node"><title>Node2</title>
<g id="a_node2"><a xlink:href="classpsi_1_1Matrix.html#a0acfcfb5d8cb154b3220989ac55589bd" target="_top" xlink:title="Returns the number of irreps.">
<polygon fill="none" stroke="black" points="137,-114.5 137,-133.5 229,-133.5 229,-114.5 137,-114.5"/>
<text text-anchor="middle" x="183" y="-121.5" font-family="Helvetica,sans-Serif" font-size="10.00">psi::Matrix::nirrep</text>
</a>
</g>
</g>
<!-- Node1&#45;&gt;Node2 -->
<g id="edge1" class="edge"><title>Node1&#45;&gt;Node2</title>
<path fill="none" stroke="midnightblue" d="M70.5907,-76.6474C87.5217,-84.4997 112.189,-95.756 134,-105 138.41,-106.869 143.07,-108.785 147.684,-110.648"/>
<polygon fill="midnightblue" stroke="midnightblue" points="146.41,-113.908 156.995,-114.364 149.004,-107.407 146.41,-113.908"/>
</g>
<!-- Node3 -->
<g id="node3" class="node"><title>Node3</title>
<g id="a_node3"><a xlink:href="classpsi_1_1Matrix.html#a3286e581ac7248f58ae3de82cd29cc6d" target="_top" xlink:title="Returns the columns per irrep array.">
<polygon fill="none" stroke="black" points="136,-76.5 136,-95.5 230,-95.5 230,-76.5 136,-76.5"/>
<text text-anchor="middle" x="183" y="-83.5" font-family="Helvetica,sans-Serif" font-size="10.00">psi::Matrix::colspi</text>
</a>
</g>
</g>
<!-- Node1&#45;&gt;Node3 -->
<g id="edge2" class="edge"><title>Node1&#45;&gt;Node3</title>
<path fill="none" stroke="midnightblue" d="M98.0284,-73.9132C107.123,-75.2223 116.71,-76.6023 126.025,-77.943"/>
<polygon fill="midnightblue" stroke="midnightblue" points="125.592,-81.4167 135.989,-79.3772 126.59,-74.4881 125.592,-81.4167"/>
</g>
<!-- Node4 -->
<g id="node4" class="node"><title>Node4</title>
<g id="a_node4"><a xlink:href="classpsi_1_1Matrix.html#ab375f9e8a5d1c9b4c08667c728ff04d2" target="_top" xlink:title="Returns the rows per irrep array.">
<polygon fill="none" stroke="black" points="134.5,-38.5 134.5,-57.5 231.5,-57.5 231.5,-38.5 134.5,-38.5"/>
<text text-anchor="middle" x="183" y="-45.5" font-family="Helvetica,sans-Serif" font-size="10.00">psi::Matrix::rowspi</text>
</a>
</g>
</g>
<!-- Node1&#45;&gt;Node4 -->
<g id="edge3" class="edge"><title>Node1&#45;&gt;Node4</title>
<path fill="none" stroke="midnightblue" d="M98.0284,-60.0868C106.506,-58.8666 115.411,-57.5848 124.125,-56.3305"/>
<polygon fill="midnightblue" stroke="midnightblue" points="124.829,-59.7653 134.228,-54.8762 123.832,-52.8367 124.829,-59.7653"/>
</g>
<!-- Node5 -->
<g id="node5" class="node"><title>Node5</title>
<g id="a_node5"><a xlink:href="classpsi_1_1Matrix.html#a2dba13c45127354c9f75ef576f49269b" target="_top" xlink:title="Default constructor, zeros everything out.">
<polygon fill="none" stroke="black" points="135.5,-0.5 135.5,-19.5 230.5,-19.5 230.5,-0.5 135.5,-0.5"/>
<text text-anchor="middle" x="183" y="-7.5" font-family="Helvetica,sans-Serif" font-size="10.00">psi::Matrix::Matrix</text>
</a>
</g>
</g>
<!-- Node1&#45;&gt;Node5 -->
<g id="edge4" class="edge"><title>Node1&#45;&gt;Node5</title>
<path fill="none" stroke="midnightblue" d="M70.5907,-57.3526C87.5217,-49.5003 112.189,-38.244 134,-29 138.41,-27.1311 143.07,-25.2146 147.684,-23.3517"/>
<polygon fill="midnightblue" stroke="midnightblue" points="149.004,-26.5932 156.995,-19.6358 146.41,-20.0918 149.004,-26.5932"/>
</g>
</g>
</svg>
