<?xml version="1.0" encoding="UTF-8" standalone="no"?>
<!DOCTYPE svg PUBLIC "-//W3C//DTD SVG 1.1//EN"
 "http://www.w3.org/Graphics/SVG/1.1/DTD/svg11.dtd">
<!-- Generated by graphviz version 2.30.1 (20140110.0959)
 -->
<!-- Title: psi::dfmp2::RODFMP2 Pages: 1 -->
<svg width="1128pt" height="810pt"
 viewBox="0.00 0.00 1128.00 809.75" xmlns="http://www.w3.org/2000/svg" xmlns:xlink="http://www.w3.org/1999/xlink">
<g id="graph0" class="graph" transform="scale(1 1) rotate(0) translate(4 805.748)">
<title>psi::dfmp2::RODFMP2</title>
<!-- Node1 -->
<g id="node1" class="node"><title>Node1</title>
<polygon fill="#bfbfbf" stroke="black" points="1002.5,-155.248 1002.5,-174.248 1119.5,-174.248 1119.5,-155.248 1002.5,-155.248"/>
<text text-anchor="middle" x="1061" y="-162.248" font-family="Helvetica,sans-Serif" font-size="10.00">psi::dfmp2::RODFMP2</text>
</g>
<!-- Node2 -->
<g id="node2" class="node"><title>Node2</title>
<g id="a_node2"><a xlink:href="classpsi_1_1dfmp2_1_1UDFMP2.html" target="_top" xlink:title="psi::dfmp2::UDFMP2">
<polygon fill="none" stroke="black" points="854,-155.248 854,-174.248 964,-174.248 964,-155.248 854,-155.248"/>
<text text-anchor="middle" x="909" y="-162.248" font-family="Helvetica,sans-Serif" font-size="10.00">psi::dfmp2::UDFMP2</text>
</a>
</g>
</g>
<!-- Node2&#45;&gt;Node1 -->
<g id="edge1" class="edge"><title>Node2&#45;&gt;Node1</title>
<path fill="none" stroke="midnightblue" d="M974.197,-164.748C983.563,-164.748 993.158,-164.748 1002.38,-164.748"/>
<polygon fill="midnightblue" stroke="midnightblue" points="974.153,-161.248 964.153,-164.748 974.153,-168.248 974.153,-161.248"/>
</g>
<!-- Node3 -->
<g id="node3" class="node"><title>Node3</title>
<g id="a_node3"><a xlink:href="classpsi_1_1dfmp2_1_1DFMP2.html" target="_top" xlink:title="psi::dfmp2::DFMP2">
<polygon fill="none" stroke="black" points="714,-507.248 714,-526.248 816,-526.248 816,-507.248 714,-507.248"/>
<text text-anchor="middle" x="765" y="-514.248" font-family="Helvetica,sans-Serif" font-size="10.00">psi::dfmp2::DFMP2</text>
</a>
</g>
</g>
<!-- Node3&#45;&gt;Node2 -->
<g id="edge2" class="edge"><title>Node3&#45;&gt;Node2</title>
<path fill="none" stroke="midnightblue" d="M773.766,-497.497C800.034,-432.382 884.987,-221.796 904.14,-174.317"/>
<polygon fill="midnightblue" stroke="midnightblue" points="770.441,-496.383 769.946,-506.966 776.933,-499.002 770.441,-496.383"/>
</g>
<!-- Node4 -->
<g id="node4" class="node"><title>Node4</title>
<g id="a_node4"><a xlink:href="classpsi_1_1Wavefunction.html" target="_top" xlink:title="Simple wavefunction base class.">
<polygon fill="none" stroke="black" points="520.5,-507.248 520.5,-526.248 615.5,-526.248 615.5,-507.248 520.5,-507.248"/>
<text text-anchor="middle" x="568" y="-514.248" font-family="Helvetica,sans-Serif" font-size="10.00">psi::Wavefunction</text>
</a>
</g>
</g>
<!-- Node4&#45;&gt;Node3 -->
<g id="edge3" class="edge"><title>Node4&#45;&gt;Node3</title>
<path fill="none" stroke="midnightblue" d="M625.721,-510.553C653.626,-509.748 686.968,-509.819 713.92,-510.765"/>
<polygon fill="midnightblue" stroke="midnightblue" points="625.584,-507.056 615.707,-510.889 625.819,-514.052 625.584,-507.056"/>
</g>
<!-- Node4&#45;&gt;Node3 -->
<g id="edge27" class="edge"><title>Node4&#45;&gt;Node3</title>
<path fill="none" stroke="midnightblue" d="M625.721,-522.944C653.626,-523.748 686.968,-523.678 713.92,-522.732"/>
<polygon fill="midnightblue" stroke="midnightblue" points="625.819,-519.445 615.707,-522.607 625.584,-526.441 625.819,-519.445"/>
</g>
<!-- Node5 -->
<g id="node5" class="node"><title>Node5</title>
<g id="a_node5"><a xlink:href="classboost_1_1shared__ptr.html" target="_top" xlink:title="boost::shared_ptr\&lt;\l psi::MatrixFactory \&gt;">
<polygon fill="none" stroke="black" points="261.5,-599.748 261.5,-629.748 368.5,-629.748 368.5,-599.748 261.5,-599.748"/>
<text text-anchor="start" x="269.5" y="-617.748" font-family="Helvetica,sans-Serif" font-size="10.00">boost::shared_ptr&lt;</text>
<text text-anchor="middle" x="315" y="-606.748" font-family="Helvetica,sans-Serif" font-size="10.00"> psi::MatrixFactory &gt;</text>
</a>
</g>
</g>
<!-- Node5&#45;&gt;Node4 -->
<g id="edge4" class="edge"><title>Node5&#45;&gt;Node4</title>
<path fill="none" stroke="#9a32cd" stroke-dasharray="5,2" d="M378.749,-605.634C415.924,-598.616 463.194,-586.801 502,-567.748 523.888,-557.002 545.37,-538.038 557.333,-526.51"/>
<polygon fill="#9a32cd" stroke="#9a32cd" points="377.759,-602.257 368.546,-607.489 379.011,-609.144 377.759,-602.257"/>
<text text-anchor="middle" x="446" y="-605.748" font-family="Helvetica,sans-Serif" font-size="10.00"> factory_</text>
</g>
<!-- Node6 -->
<g id="node6" class="node"><title>Node6</title>
<g id="a_node6"><a xlink:href="classboost_1_1shared__ptr.html" target="_top" xlink:title="boost::shared_ptr\&lt; T \&gt;">
<polygon fill="none" stroke="black" points="0,-457.248 0,-476.248 116,-476.248 116,-457.248 0,-457.248"/>
<text text-anchor="middle" x="58" y="-464.248" font-family="Helvetica,sans-Serif" font-size="10.00">boost::shared_ptr&lt; T &gt;</text>
</a>
</g>
</g>
<!-- Node6&#45;&gt;Node5 -->
<g id="edge5" class="edge"><title>Node6&#45;&gt;Node5</title>
<path fill="none" stroke="orange" stroke-dasharray="5,2" d="M68.0163,-485.392C79.9501,-508.072 103.137,-545.907 134,-566.748 172.06,-592.45 223.28,-604.407 261.349,-609.96"/>
<polygon fill="orange" stroke="orange" points="71.1127,-483.759 63.4692,-476.422 64.8692,-486.924 71.1127,-483.759"/>
<text text-anchor="middle" x="187" y="-608.748" font-family="Helvetica,sans-Serif" font-size="10.00"> &lt; psi::MatrixFactory &gt;</text>
</g>
<!-- Node7 -->
<g id="node7" class="node"><title>Node7</title>
<g id="a_node7"><a xlink:href="classboost_1_1shared__ptr.html" target="_top" xlink:title="boost::shared_ptr\&lt;\l psi::Chkpt \&gt;">
<polygon fill="none" stroke="black" points="266,-550.748 266,-580.748 364,-580.748 364,-550.748 266,-550.748"/>
<text text-anchor="start" x="274" y="-568.748" font-family="Helvetica,sans-Serif" font-size="10.00">boost::shared_ptr&lt;</text>
<text text-anchor="middle" x="315" y="-557.748" font-family="Helvetica,sans-Serif" font-size="10.00"> psi::Chkpt &gt;</text>
</a>
</g>
</g>
<!-- Node6&#45;&gt;Node7 -->
<g id="edge7" class="edge"><title>Node6&#45;&gt;Node7</title>
<path fill="none" stroke="orange" stroke-dasharray="5,2" d="M78.6509,-482.839C93.1718,-494.027 113.84,-508.53 134,-517.748 176.648,-537.251 228.731,-550.06 265.878,-557.501"/>
<polygon fill="orange" stroke="orange" points="80.482,-479.826 70.4635,-476.379 76.1458,-485.321 80.482,-479.826"/>
<text text-anchor="middle" x="187" y="-554.748" font-family="Helvetica,sans-Serif" font-size="10.00"> &lt; psi::Chkpt &gt;</text>
</g>
<!-- Node8 -->
<g id="node8" class="node"><title>Node8</title>
<g id="a_node8"><a xlink:href="classboost_1_1shared__ptr.html" target="_top" xlink:title="boost::shared_ptr\&lt;\l psi::IntegralFactory \&gt;">
<polygon fill="none" stroke="black" points="258.5,-501.748 258.5,-531.748 371.5,-531.748 371.5,-501.748 258.5,-501.748"/>
<text text-anchor="start" x="266.5" y="-519.748" font-family="Helvetica,sans-Serif" font-size="10.00">boost::shared_ptr&lt;</text>
<text text-anchor="middle" x="315" y="-508.748" font-family="Helvetica,sans-Serif" font-size="10.00"> psi::IntegralFactory &gt;</text>
</a>
</g>
</g>
<!-- Node6&#45;&gt;Node8 -->
<g id="edge9" class="edge"><title>Node6&#45;&gt;Node8</title>
<path fill="none" stroke="orange" stroke-dasharray="5,2" d="M117.43,-478.205C159.675,-486.489 216.411,-497.613 258.07,-505.782"/>
<polygon fill="orange" stroke="orange" points="118.05,-474.76 107.564,-476.271 116.703,-481.629 118.05,-474.76"/>
<text text-anchor="middle" x="187" y="-505.748" font-family="Helvetica,sans-Serif" font-size="10.00"> &lt; psi::IntegralFactory &gt;</text>
</g>
<!-- Node10 -->
<g id="node10" class="node"><title>Node10</title>
<g id="a_node10"><a xlink:href="classboost_1_1shared__ptr.html" target="_top" xlink:title="boost::shared_ptr\&lt;\l psi::Wavefunction \&gt;">
<polygon fill="none" stroke="black" points="261.5,-413.748 261.5,-443.748 368.5,-443.748 368.5,-413.748 261.5,-413.748"/>
<text text-anchor="start" x="269.5" y="-431.748" font-family="Helvetica,sans-Serif" font-size="10.00">boost::shared_ptr&lt;</text>
<text text-anchor="middle" x="315" y="-420.748" font-family="Helvetica,sans-Serif" font-size="10.00"> psi::Wavefunction &gt;</text>
</a>
</g>
</g>
<!-- Node6&#45;&gt;Node10 -->
<g id="edge12" class="edge"><title>Node6&#45;&gt;Node10</title>
<path fill="none" stroke="orange" stroke-dasharray="5,2" d="M126.153,-456.741C168.402,-450.445 222.142,-442.437 261.309,-436.6"/>
<polygon fill="orange" stroke="orange" points="125.602,-453.285 116.227,-458.22 126.634,-460.208 125.602,-453.285"/>
<text text-anchor="middle" x="187" y="-458.748" font-family="Helvetica,sans-Serif" font-size="10.00"> &lt; psi::Wavefunction &gt;</text>
</g>
<!-- Node11 -->
<g id="node11" class="node"><title>Node11</title>
<g id="a_node11"><a xlink:href="classboost_1_1shared__ptr.html" target="_top" xlink:title="boost::shared_ptr\&lt;\l psi::PSIO \&gt;">
<polygon fill="none" stroke="black" points="266,-364.748 266,-394.748 364,-394.748 364,-364.748 266,-364.748"/>
<text text-anchor="start" x="274" y="-382.748" font-family="Helvetica,sans-Serif" font-size="10.00">boost::shared_ptr&lt;</text>
<text text-anchor="middle" x="315" y="-371.748" font-family="Helvetica,sans-Serif" font-size="10.00"> psi::PSIO &gt;</text>
</a>
</g>
</g>
<!-- Node6&#45;&gt;Node11 -->
<g id="edge14" class="edge"><title>Node6&#45;&gt;Node11</title>
<path fill="none" stroke="orange" stroke-dasharray="5,2" d="M82.7069,-451.79C97.1055,-443.218 116.105,-432.797 134,-425.748 177.365,-408.667 229.124,-396.213 265.985,-388.605"/>
<polygon fill="orange" stroke="orange" points="80.6949,-448.917 73.9672,-457.101 84.3305,-454.898 80.6949,-448.917"/>
<text text-anchor="middle" x="187" y="-428.748" font-family="Helvetica,sans-Serif" font-size="10.00"> &lt; psi::PSIO &gt;</text>
</g>
<!-- Node12 -->
<g id="node12" class="node"><title>Node12</title>
<g id="a_node12"><a xlink:href="classboost_1_1shared__ptr.html" target="_top" xlink:title="boost::shared_ptr\&lt;\l psi::SOBasisSet \&gt;">
<polygon fill="none" stroke="black" points="264.5,-315.748 264.5,-345.748 365.5,-345.748 365.5,-315.748 264.5,-315.748"/>
<text text-anchor="start" x="272.5" y="-333.748" font-family="Helvetica,sans-Serif" font-size="10.00">boost::shared_ptr&lt;</text>
<text text-anchor="middle" x="315" y="-322.748" font-family="Helvetica,sans-Serif" font-size="10.00"> psi::SOBasisSet &gt;</text>
</a>
</g>
</g>
<!-- Node6&#45;&gt;Node12 -->
<g id="edge16" class="edge"><title>Node6&#45;&gt;Node12</title>
<path fill="none" stroke="orange" stroke-dasharray="5,2" d="M69.9668,-448.507C82.8457,-428.649 106.04,-397.378 134,-379.748 173.724,-354.701 226.195,-342.308 264.229,-336.269"/>
<polygon fill="orange" stroke="orange" points="66.9982,-446.653 64.646,-456.984 72.9269,-450.375 66.9982,-446.653"/>
<text text-anchor="middle" x="187" y="-382.748" font-family="Helvetica,sans-Serif" font-size="10.00"> &lt; psi::SOBasisSet &gt;</text>
</g>
<!-- Node14 -->
<g id="node14" class="node"><title>Node14</title>
<g id="a_node14"><a xlink:href="classboost_1_1shared__ptr.html" target="_top" xlink:title="boost::shared_ptr\&lt;\l psi::BasisSet \&gt;">
<polygon fill="none" stroke="black" points="266,-648.748 266,-678.748 364,-678.748 364,-648.748 266,-648.748"/>
<text text-anchor="start" x="274" y="-666.748" font-family="Helvetica,sans-Serif" font-size="10.00">boost::shared_ptr&lt;</text>
<text text-anchor="middle" x="315" y="-655.748" font-family="Helvetica,sans-Serif" font-size="10.00"> psi::BasisSet &gt;</text>
</a>
</g>
</g>
<!-- Node6&#45;&gt;Node14 -->
<g id="edge19" class="edge"><title>Node6&#45;&gt;Node14</title>
<path fill="none" stroke="orange" stroke-dasharray="5,2" d="M62.8602,-486.288C70.4318,-519.271 90.4414,-585.808 134,-620.748 171.469,-650.803 226.562,-660.42 265.916,-663.219"/>
<polygon fill="orange" stroke="orange" points="66.276,-485.524 60.7532,-476.482 59.4322,-486.994 66.276,-485.524"/>
<text text-anchor="middle" x="187" y="-663.748" font-family="Helvetica,sans-Serif" font-size="10.00"> &lt; psi::BasisSet &gt;</text>
</g>
<!-- Node15 -->
<g id="node15" class="node"><title>Node15</title>
<g id="a_node15"><a xlink:href="classboost_1_1shared__ptr.html" target="_top" xlink:title="boost::shared_ptr\&lt;\l psi::Matrix \&gt;">
<polygon fill="none" stroke="black" points="266,-2.74832 266,-32.7483 364,-32.7483 364,-2.74832 266,-2.74832"/>
<text text-anchor="start" x="274" y="-20.7483" font-family="Helvetica,sans-Serif" font-size="10.00">boost::shared_ptr&lt;</text>
<text text-anchor="middle" x="315" y="-9.74832" font-family="Helvetica,sans-Serif" font-size="10.00"> psi::Matrix &gt;</text>
</a>
</g>
</g>
<!-- Node6&#45;&gt;Node15 -->
<g id="edge21" class="edge"><title>Node6&#45;&gt;Node15</title>
<path fill="none" stroke="orange" stroke-dasharray="5,2" d="M62.2786,-447.1C69.9651,-404.566 91.7717,-301.682 134,-225.748 179.608,-143.738 261.252,-65.0776 296.74,-32.9431"/>
<polygon fill="orange" stroke="orange" points="58.8232,-446.541 60.5517,-456.994 65.719,-447.745 58.8232,-446.541"/>
<text text-anchor="middle" x="187" y="-228.748" font-family="Helvetica,sans-Serif" font-size="10.00"> &lt; psi::Matrix &gt;</text>
</g>
<!-- Node16 -->
<g id="node16" class="node"><title>Node16</title>
<g id="a_node16"><a xlink:href="classboost_1_1shared__ptr.html" target="_top" xlink:title="boost::shared_ptr\&lt;\l psi::Molecule \&gt;">
<polygon fill="none" stroke="black" points="266,-697.748 266,-727.748 364,-727.748 364,-697.748 266,-697.748"/>
<text text-anchor="start" x="274" y="-715.748" font-family="Helvetica,sans-Serif" font-size="10.00">boost::shared_ptr&lt;</text>
<text text-anchor="middle" x="315" y="-704.748" font-family="Helvetica,sans-Serif" font-size="10.00"> psi::Molecule &gt;</text>
</a>
</g>
</g>
<!-- Node6&#45;&gt;Node16 -->
<g id="edge23" class="edge"><title>Node6&#45;&gt;Node16</title>
<path fill="none" stroke="orange" stroke-dasharray="5,2" d="M59.9322,-486.459C63.0258,-528.2 76.3798,-625.77 134,-675.748 170.271,-707.209 226.106,-714.467 265.966,-715.105"/>
<polygon fill="orange" stroke="orange" points="63.4248,-486.23 59.3138,-476.465 56.4382,-486.662 63.4248,-486.23"/>
<text text-anchor="middle" x="187" y="-716.748" font-family="Helvetica,sans-Serif" font-size="10.00"> &lt; psi::Molecule &gt;</text>
</g>
<!-- Node18 -->
<g id="node18" class="node"><title>Node18</title>
<g id="a_node18"><a xlink:href="classboost_1_1shared__ptr.html" target="_top" xlink:title="boost::shared_ptr\&lt;\l psi::Vector \&gt;">
<polygon fill="none" stroke="black" points="266,-182.748 266,-212.748 364,-212.748 364,-182.748 266,-182.748"/>
<text text-anchor="start" x="274" y="-200.748" font-family="Helvetica,sans-Serif" font-size="10.00">boost::shared_ptr&lt;</text>
<text text-anchor="middle" x="315" y="-189.748" font-family="Helvetica,sans-Serif" font-size="10.00"> psi::Vector &gt;</text>
</a>
</g>
</g>
<!-- Node6&#45;&gt;Node18 -->
<g id="edge26" class="edge"><title>Node6&#45;&gt;Node18</title>
<path fill="none" stroke="orange" stroke-dasharray="5,2" d="M66.0828,-447.346C77.2458,-418.645 101.097,-364.234 134,-326.748 178.638,-275.894 246.977,-233.992 285.329,-212.769"/>
<polygon fill="orange" stroke="orange" points="62.6962,-446.407 62.4332,-456.999 69.2438,-448.883 62.6962,-446.407"/>
<text text-anchor="middle" x="187" y="-329.748" font-family="Helvetica,sans-Serif" font-size="10.00"> &lt; psi::Vector &gt;</text>
</g>
<!-- Node7&#45;&gt;Node4 -->
<g id="edge6" class="edge"><title>Node7&#45;&gt;Node4</title>
<path fill="none" stroke="#9a32cd" stroke-dasharray="5,2" d="M374.326,-555.796C411.047,-549.355 459.392,-540.554 502,-531.748 510.053,-530.084 518.638,-528.189 526.842,-526.32"/>
<polygon fill="#9a32cd" stroke="#9a32cd" points="373.54,-552.381 364.291,-557.549 374.744,-559.276 373.54,-552.381"/>
<text text-anchor="middle" x="446" y="-555.748" font-family="Helvetica,sans-Serif" font-size="10.00"> chkpt_</text>
</g>
<!-- Node8&#45;&gt;Node4 -->
<g id="edge8" class="edge"><title>Node8&#45;&gt;Node4</title>
<path fill="none" stroke="#9a32cd" stroke-dasharray="5,2" d="M381.912,-516.748C425.411,-516.748 481.348,-516.748 520.29,-516.748"/>
<polygon fill="#9a32cd" stroke="#9a32cd" points="381.705,-513.248 371.705,-516.748 381.705,-520.248 381.705,-513.248"/>
<text text-anchor="middle" x="446" y="-519.748" font-family="Helvetica,sans-Serif" font-size="10.00"> integral_</text>
</g>
<!-- Node9 -->
<g id="node9" class="node"><title>Node9</title>
<g id="a_node9"><a xlink:href="classpsi_1_1Options.html" target="_top" xlink:title="psi::Options">
<polygon fill="none" stroke="black" points="280.5,-463.248 280.5,-482.248 349.5,-482.248 349.5,-463.248 280.5,-463.248"/>
<text text-anchor="middle" x="315" y="-470.248" font-family="Helvetica,sans-Serif" font-size="10.00">psi::Options</text>
</a>
</g>
</g>
<!-- Node9&#45;&gt;Node4 -->
<g id="edge10" class="edge"><title>Node9&#45;&gt;Node4</title>
<path fill="none" stroke="#9a32cd" stroke-dasharray="5,2" d="M359.884,-478.68C397.673,-484.004 453.603,-492.404 502,-501.748 510.415,-503.373 519.396,-505.312 527.913,-507.247"/>
<polygon fill="#9a32cd" stroke="#9a32cd" points="360.116,-475.178 349.728,-477.261 359.148,-482.111 360.116,-475.178"/>
<text text-anchor="middle" x="446" y="-504.748" font-family="Helvetica,sans-Serif" font-size="10.00"> options_</text>
</g>
<!-- Node10&#45;&gt;Node4 -->
<g id="edge11" class="edge"><title>Node10&#45;&gt;Node4</title>
<path fill="none" stroke="#9a32cd" stroke-dasharray="5,2" d="M378.697,-441.576C430.415,-452.261 496.22,-466.14 502,-468.748 523.481,-478.443 544.761,-496.085 556.853,-507.069"/>
<polygon fill="#9a32cd" stroke="#9a32cd" points="379.394,-438.146 368.893,-439.554 377.979,-445.002 379.394,-438.146"/>
<text text-anchor="middle" x="446" y="-471.748" font-family="Helvetica,sans-Serif" font-size="10.00"> reference_wavefunction_</text>
</g>
<!-- Node11&#45;&gt;Node4 -->
<g id="edge13" class="edge"><title>Node11&#45;&gt;Node4</title>
<path fill="none" stroke="#9a32cd" stroke-dasharray="5,2" d="M360.846,-398.775C372.717,-403.619 383.912,-407.963 390,-409.748 438.599,-424 458.942,-404.084 502,-430.748 532.709,-449.766 554.059,-488.989 562.707,-507.142"/>
<polygon fill="#9a32cd" stroke="#9a32cd" points="361.844,-395.4 351.265,-394.821 359.174,-401.871 361.844,-395.4"/>
<text text-anchor="middle" x="446" y="-433.748" font-family="Helvetica,sans-Serif" font-size="10.00"> psio_</text>
</g>
<!-- Node12&#45;&gt;Node4 -->
<g id="edge15" class="edge"><title>Node12&#45;&gt;Node4</title>
<path fill="none" stroke="#9a32cd" stroke-dasharray="5,2" d="M366.259,-350.875C368.242,-352.109 370.164,-353.4 372,-354.748 381.907,-362.026 379.355,-369.6 390,-375.748 433.856,-401.078 461.073,-366.917 502,-396.748 540.868,-425.079 558.966,-483.935 564.793,-507.091"/>
<polygon fill="#9a32cd" stroke="#9a32cd" points="367.703,-347.672 357.27,-345.828 364.276,-353.775 367.703,-347.672"/>
<text text-anchor="middle" x="446" y="-399.748" font-family="Helvetica,sans-Serif" font-size="10.00"> sobasisset_</text>
</g>
<!-- Node13 -->
<g id="node13" class="node"><title>Node13</title>
<g id="a_node13"><a xlink:href="classpsi_1_1Dimension.html" target="_top" xlink:title="psi::Dimension">
<polygon fill="none" stroke="black" points="274,-277.248 274,-296.248 356,-296.248 356,-277.248 274,-277.248"/>
<text text-anchor="middle" x="315" y="-284.248" font-family="Helvetica,sans-Serif" font-size="10.00">psi::Dimension</text>
</a>
</g>
</g>
<!-- Node13&#45;&gt;Node4 -->
<g id="edge17" class="edge"><title>Node13&#45;&gt;Node4</title>
<path fill="none" stroke="#9a32cd" stroke-dasharray="5,2" d="M366.371,-279.183C414.099,-273.189 481.451,-268.147 502,-283.748 539.128,-311.936 560.743,-466.455 565.83,-507.002"/>
<polygon fill="#9a32cd" stroke="#9a32cd" points="365.67,-275.745 356.207,-280.51 366.576,-282.686 365.67,-275.745"/>
<text text-anchor="middle" x="446" y="-363.748" font-family="Helvetica,sans-Serif" font-size="10.00"> doccpi_</text>
<text text-anchor="middle" x="446" y="-352.748" font-family="Helvetica,sans-Serif" font-size="10.00">nbetapi_</text>
<text text-anchor="middle" x="446" y="-341.748" font-family="Helvetica,sans-Serif" font-size="10.00">frzvpi_</text>
<text text-anchor="middle" x="446" y="-330.748" font-family="Helvetica,sans-Serif" font-size="10.00">frzcpi_</text>
<text text-anchor="middle" x="446" y="-319.748" font-family="Helvetica,sans-Serif" font-size="10.00">nmopi_</text>
<text text-anchor="middle" x="446" y="-308.748" font-family="Helvetica,sans-Serif" font-size="10.00">nalphapi_</text>
<text text-anchor="middle" x="446" y="-297.748" font-family="Helvetica,sans-Serif" font-size="10.00">nsopi_</text>
<text text-anchor="middle" x="446" y="-286.748" font-family="Helvetica,sans-Serif" font-size="10.00">soccpi_</text>
</g>
<!-- Node14&#45;&gt;Node4 -->
<g id="edge18" class="edge"><title>Node14&#45;&gt;Node4</title>
<path fill="none" stroke="#9a32cd" stroke-dasharray="5,2" d="M367.121,-645.567C374.744,-643.122 382.545,-640.765 390,-638.748 439.054,-625.48 459.95,-644.281 502,-615.748 535.517,-593.005 555.941,-546.64 563.575,-526.476"/>
<polygon fill="#9a32cd" stroke="#9a32cd" points="366.008,-642.249 357.599,-648.694 368.191,-648.899 366.008,-642.249"/>
<text text-anchor="middle" x="446" y="-641.748" font-family="Helvetica,sans-Serif" font-size="10.00"> basisset_</text>
</g>
<!-- Node14&#45;&gt;Node3 -->
<g id="edge28" class="edge"><title>Node14&#45;&gt;Node3</title>
<path fill="none" stroke="#9a32cd" stroke-dasharray="5,2" d="M374.447,-665.189C411.604,-664.686 460.378,-661.377 502,-649.748 603.699,-621.336 712.233,-551.913 750.056,-526.378"/>
<polygon fill="#9a32cd" stroke="#9a32cd" points="374.265,-661.69 364.29,-665.262 374.315,-668.69 374.265,-661.69"/>
<text text-anchor="middle" x="568" y="-657.748" font-family="Helvetica,sans-Serif" font-size="10.00"> ribasis_</text>
<text text-anchor="middle" x="568" y="-646.748" font-family="Helvetica,sans-Serif" font-size="10.00">zerobasis_</text>
</g>
<!-- Node15&#45;&gt;Node4 -->
<g id="edge20" class="edge"><title>Node15&#45;&gt;Node4</title>
<path fill="none" stroke="#9a32cd" stroke-dasharray="5,2" d="M374.342,-8.7672C415.619,-5.96002 469.248,-10.0839 502,-42.7483 570.369,-110.935 568.166,-446.238 567.186,-507.223"/>
<polygon fill="#9a32cd" stroke="#9a32cd" points="373.809,-5.29937 364.134,-9.61707 374.39,-12.2752 373.809,-5.29937"/>
<text text-anchor="middle" x="446" y="-166.748" font-family="Helvetica,sans-Serif" font-size="10.00"> Fa_</text>
<text text-anchor="middle" x="446" y="-155.748" font-family="Helvetica,sans-Serif" font-size="10.00">gradient_</text>
<text text-anchor="middle" x="446" y="-144.748" font-family="Helvetica,sans-Serif" font-size="10.00">H_</text>
<text text-anchor="middle" x="446" y="-133.748" font-family="Helvetica,sans-Serif" font-size="10.00">Lagrangian_</text>
<text text-anchor="middle" x="446" y="-122.748" font-family="Helvetica,sans-Serif" font-size="10.00">S_</text>
<text text-anchor="middle" x="446" y="-111.748" font-family="Helvetica,sans-Serif" font-size="10.00">AO2SO_</text>
<text text-anchor="middle" x="446" y="-100.748" font-family="Helvetica,sans-Serif" font-size="10.00">Cb_</text>
<text text-anchor="start" x="411.5" y="-89.7483" font-family="Helvetica,sans-Serif" font-size="10.00">QLMO_to_LMO</text>
<text text-anchor="middle" x="446" y="-78.7483" font-family="Helvetica,sans-Serif" font-size="10.00">_</text>
<text text-anchor="middle" x="446" y="-67.7483" font-family="Helvetica,sans-Serif" font-size="10.00">Db_</text>
<text text-anchor="middle" x="446" y="-56.7483" font-family="Helvetica,sans-Serif" font-size="10.00">Ca_</text>
<text text-anchor="middle" x="446" y="-45.7483" font-family="Helvetica,sans-Serif" font-size="10.00">...</text>
</g>
<!-- Node15&#45;&gt;Node2 -->
<g id="edge30" class="edge"><title>Node15&#45;&gt;Node2</title>
<path fill="none" stroke="#9a32cd" stroke-dasharray="5,2" d="M374.264,-6.0648C411.155,-0.537148 459.705,3.28507 502,-4.74832 660.167,-34.7899 835.498,-125.202 890.516,-155.061"/>
<polygon fill="#9a32cd" stroke="#9a32cd" points="373.513,-2.64005 364.183,-7.66068 374.608,-9.55396 373.513,-2.64005"/>
<text text-anchor="middle" x="665" y="-99.7483" font-family="Helvetica,sans-Serif" font-size="10.00"> Caocc_a_</text>
<text text-anchor="middle" x="665" y="-88.7483" font-family="Helvetica,sans-Serif" font-size="10.00">Caocc_b_</text>
<text text-anchor="middle" x="665" y="-77.7483" font-family="Helvetica,sans-Serif" font-size="10.00">Cavir_a_</text>
<text text-anchor="middle" x="665" y="-66.7483" font-family="Helvetica,sans-Serif" font-size="10.00">Cavir_b_</text>
</g>
<!-- Node16&#45;&gt;Node4 -->
<g id="edge22" class="edge"><title>Node16&#45;&gt;Node4</title>
<path fill="none" stroke="#9a32cd" stroke-dasharray="5,2" d="M373.816,-699.763C420.903,-688.235 482.638,-670.644 502,-653.748 542.862,-618.092 560.05,-551.109 565.206,-526.305"/>
<polygon fill="#9a32cd" stroke="#9a32cd" points="372.911,-696.381 364.011,-702.129 374.553,-703.186 372.911,-696.381"/>
<text text-anchor="middle" x="446" y="-698.748" font-family="Helvetica,sans-Serif" font-size="10.00"> molecule_</text>
</g>
<!-- Node17 -->
<g id="node17" class="node"><title>Node17</title>
<polygon fill="none" stroke="#bfbfbf" points="294.5,-747.248 294.5,-766.248 335.5,-766.248 335.5,-747.248 294.5,-747.248"/>
<text text-anchor="middle" x="315" y="-754.248" font-family="Helvetica,sans-Serif" font-size="10.00">string</text>
</g>
<!-- Node17&#45;&gt;Node4 -->
<g id="edge24" class="edge"><title>Node17&#45;&gt;Node4</title>
<path fill="none" stroke="#9a32cd" stroke-dasharray="5,2" d="M345.289,-745.926C358.784,-741.179 375.083,-735.783 390,-731.748 439.054,-718.48 465.007,-743.589 502,-708.748 524.446,-687.608 510.563,-671.102 520,-641.748 534.05,-598.046 554.482,-547.17 563.019,-526.36"/>
<polygon fill="#9a32cd" stroke="#9a32cd" points="343.822,-742.733 335.584,-749.395 346.179,-749.324 343.822,-742.733"/>
<text text-anchor="middle" x="446" y="-734.748" font-family="Helvetica,sans-Serif" font-size="10.00"> name_</text>
</g>
<!-- Node17&#45;&gt;Node3 -->
<g id="edge29" class="edge"><title>Node17&#45;&gt;Node3</title>
<path fill="none" stroke="#9a32cd" stroke-dasharray="5,2" d="M345.859,-758.914C383.352,-760.648 449.164,-760.395 502,-742.748 627.348,-700.883 730.748,-564.067 757.35,-526.415"/>
<polygon fill="#9a32cd" stroke="#9a32cd" points="345.799,-755.406 335.623,-758.358 345.419,-762.396 345.799,-755.406"/>
<text text-anchor="middle" x="568" y="-793.748" font-family="Helvetica,sans-Serif" font-size="10.00"> algorithm_type_</text>
<text text-anchor="start" x="527" y="-782.748" font-family="Helvetica,sans-Serif" font-size="10.00">fitting_conditioning</text>
<text text-anchor="middle" x="568" y="-771.748" font-family="Helvetica,sans-Serif" font-size="10.00">_</text>
<text text-anchor="start" x="527" y="-760.748" font-family="Helvetica,sans-Serif" font-size="10.00">fitting_inversion</text>
<text text-anchor="middle" x="568" y="-749.748" font-family="Helvetica,sans-Serif" font-size="10.00">_</text>
<text text-anchor="middle" x="568" y="-738.748" font-family="Helvetica,sans-Serif" font-size="10.00">fitting_symmetry_</text>
</g>
<!-- Node18&#45;&gt;Node4 -->
<g id="edge25" class="edge"><title>Node18&#45;&gt;Node4</title>
<path fill="none" stroke="#9a32cd" stroke-dasharray="5,2" d="M374.129,-182.483C414.559,-175.582 467.235,-174.517 502,-203.748 550.214,-244.288 564.031,-459.036 566.543,-507.169"/>
<polygon fill="#9a32cd" stroke="#9a32cd" points="373.321,-179.074 364.133,-184.349 374.605,-185.955 373.321,-179.074"/>
<text text-anchor="middle" x="446" y="-261.748" font-family="Helvetica,sans-Serif" font-size="10.00"> frequencies_</text>
<text text-anchor="start" x="399.5" y="-250.748" font-family="Helvetica,sans-Serif" font-size="10.00">CIM_orbital_energies</text>
<text text-anchor="middle" x="446" y="-239.748" font-family="Helvetica,sans-Serif" font-size="10.00">_</text>
<text text-anchor="middle" x="446" y="-228.748" font-family="Helvetica,sans-Serif" font-size="10.00">epsilon_b_</text>
<text text-anchor="middle" x="446" y="-217.748" font-family="Helvetica,sans-Serif" font-size="10.00">epsilon_a_</text>
<text text-anchor="middle" x="446" y="-206.748" font-family="Helvetica,sans-Serif" font-size="10.00">CIM_orbital_factors_</text>
</g>
<!-- Node18&#45;&gt;Node2 -->
<g id="edge31" class="edge"><title>Node18&#45;&gt;Node2</title>
<path fill="none" stroke="#9a32cd" stroke-dasharray="5,2" d="M374.328,-181.484C379.598,-180.406 384.877,-179.466 390,-178.748 557.941,-155.223 759.412,-158.752 853.98,-162.248"/>
<polygon fill="#9a32cd" stroke="#9a32cd" points="373.263,-178.134 364.251,-183.704 374.77,-184.97 373.263,-178.134"/>
<text text-anchor="middle" x="665" y="-196.748" font-family="Helvetica,sans-Serif" font-size="10.00"> eps_aocc_a_</text>
<text text-anchor="middle" x="665" y="-185.748" font-family="Helvetica,sans-Serif" font-size="10.00">eps_aocc_b_</text>
<text text-anchor="middle" x="665" y="-174.748" font-family="Helvetica,sans-Serif" font-size="10.00">eps_avir_a_</text>
<text text-anchor="middle" x="665" y="-163.748" font-family="Helvetica,sans-Serif" font-size="10.00">eps_avir_b_</text>
</g>
</g>
</svg>
