<?xml version="1.0" encoding="UTF-8" standalone="no"?>
<!DOCTYPE svg PUBLIC "-//W3C//DTD SVG 1.1//EN"
 "http://www.w3.org/Graphics/SVG/1.1/DTD/svg11.dtd">
<!-- Generated by graphviz version 2.30.1 (20140110.0959)
 -->
<!-- Title: psi::IntegralTransform::IntegralTransform Pages: 1 -->
<svg width="550pt" height="223pt"
 viewBox="0.00 0.00 550.00 222.62" xmlns="http://www.w3.org/2000/svg" xmlns:xlink="http://www.w3.org/1999/xlink">
<g id="graph0" class="graph" transform="scale(1 1) rotate(0) translate(4 218.622)">
<title>psi::IntegralTransform::IntegralTransform</title>
<!-- Node1 -->
<g id="node1" class="node"><title>Node1</title>
<polygon fill="#bfbfbf" stroke="black" points="0,-110 0,-140 112,-140 112,-110 0,-110"/>
<text text-anchor="start" x="8" y="-128" font-family="Helvetica,sans-Serif" font-size="10.00">psi::IntegralTransform</text>
<text text-anchor="middle" x="56" y="-117" font-family="Helvetica,sans-Serif" font-size="10.00">::IntegralTransform</text>
</g>
<!-- Node2 -->
<g id="node2" class="node"><title>Node2</title>
<g id="a_node2"><a xlink:href="classpsi_1_1IntegralTransform.html#accf2db5a41c4ab07be9939387751f3ac" target="_top" xlink:title="psi::IntegralTransform\l::initialize">
<polygon fill="none" stroke="black" points="148,-110 148,-140 260,-140 260,-110 148,-110"/>
<text text-anchor="start" x="156" y="-128" font-family="Helvetica,sans-Serif" font-size="10.00">psi::IntegralTransform</text>
<text text-anchor="middle" x="204" y="-117" font-family="Helvetica,sans-Serif" font-size="10.00">::initialize</text>
</a>
</g>
</g>
<!-- Node1&#45;&gt;Node2 -->
<g id="edge1" class="edge"><title>Node1&#45;&gt;Node2</title>
<path fill="none" stroke="midnightblue" d="M112.196,-125C120.463,-125 129.055,-125 137.51,-125"/>
<polygon fill="midnightblue" stroke="midnightblue" points="137.726,-128.5 147.726,-125 137.726,-121.5 137.726,-128.5"/>
</g>
<!-- Node3 -->
<g id="node3" class="node"><title>Node3</title>
<g id="a_node3"><a xlink:href="group__CIOMR.html#gae22ab2f8c96f4c132c42cd405c805841" target="_top" xlink:title="psi::init_int_array">
<polygon fill="none" stroke="black" points="450.5,-175.5 450.5,-194.5 541.5,-194.5 541.5,-175.5 450.5,-175.5"/>
<text text-anchor="middle" x="496" y="-182.5" font-family="Helvetica,sans-Serif" font-size="10.00">psi::init_int_array</text>
</a>
</g>
</g>
<!-- Node2&#45;&gt;Node3 -->
<g id="edge2" class="edge"><title>Node2&#45;&gt;Node3</title>
<path fill="none" stroke="midnightblue" d="M216.532,-140.203C232.114,-159.344 261.898,-191.263 296,-204 350.249,-224.263 418.322,-210.039 459.151,-197.677"/>
<polygon fill="midnightblue" stroke="midnightblue" points="460.435,-200.942 468.92,-194.596 458.33,-194.266 460.435,-200.942"/>
</g>
<!-- Node4 -->
<g id="node4" class="node"><title>Node4</title>
<g id="a_node4"><a xlink:href="group__QT.html#ga0f8e6d4ea44ce054f9729f2ceda3107e" target="_top" xlink:title="psi::reorder_qt">
<polygon fill="none" stroke="black" points="315.5,-175.5 315.5,-194.5 394.5,-194.5 394.5,-175.5 315.5,-175.5"/>
<text text-anchor="middle" x="355" y="-182.5" font-family="Helvetica,sans-Serif" font-size="10.00">psi::reorder_qt</text>
</a>
</g>
</g>
<!-- Node2&#45;&gt;Node4 -->
<g id="edge3" class="edge"><title>Node2&#45;&gt;Node4</title>
<path fill="none" stroke="midnightblue" d="M236.235,-140.068C253.636,-148.21 275.805,-158.169 296,-166 301.506,-168.135 307.364,-170.241 313.159,-172.23"/>
<polygon fill="midnightblue" stroke="midnightblue" points="312.186,-175.595 322.78,-175.449 314.408,-168.957 312.186,-175.595"/>
</g>
<!-- Node5 -->
<g id="node5" class="node"><title>Node5</title>
<g id="a_node5"><a xlink:href="group__QT.html#gad87b453ce47998937967e1b4d0336fc9" target="_top" xlink:title="psi::reorder_qt_uhf">
<polygon fill="none" stroke="black" points="306,-137.5 306,-156.5 404,-156.5 404,-137.5 306,-137.5"/>
<text text-anchor="middle" x="355" y="-144.5" font-family="Helvetica,sans-Serif" font-size="10.00">psi::reorder_qt_uhf</text>
</a>
</g>
</g>
<!-- Node2&#45;&gt;Node5 -->
<g id="edge5" class="edge"><title>Node2&#45;&gt;Node5</title>
<path fill="none" stroke="midnightblue" d="M260.059,-133.129C271.6,-134.834 283.81,-136.636 295.473,-138.358"/>
<polygon fill="midnightblue" stroke="midnightblue" points="295.146,-141.848 305.55,-139.846 296.168,-134.923 295.146,-141.848"/>
</g>
<!-- Node6 -->
<g id="node6" class="node"><title>Node6</title>
<g id="a_node6"><a xlink:href="classpsi_1_1IntegralTransform.html#a4cfbfff5def7a7fd3b1497b72925babf" target="_top" xlink:title="psi::IntegralTransform\l::process_spaces">
<polygon fill="none" stroke="black" points="299,-88 299,-118 411,-118 411,-88 299,-88"/>
<text text-anchor="start" x="307" y="-106" font-family="Helvetica,sans-Serif" font-size="10.00">psi::IntegralTransform</text>
<text text-anchor="middle" x="355" y="-95" font-family="Helvetica,sans-Serif" font-size="10.00">::process_spaces</text>
</a>
</g>
</g>
<!-- Node2&#45;&gt;Node6 -->
<g id="edge7" class="edge"><title>Node2&#45;&gt;Node6</title>
<path fill="none" stroke="midnightblue" d="M260.059,-116.871C269.312,-115.504 278.996,-114.074 288.483,-112.674"/>
<polygon fill="midnightblue" stroke="midnightblue" points="289.289,-116.093 298.67,-111.17 288.266,-109.168 289.289,-116.093"/>
</g>
<!-- Node7 -->
<g id="node7" class="node"><title>Node7</title>
<g id="a_node7"><a xlink:href="group__CIOMR.html#ga8847103aa5444911a3271169daf06294" target="_top" xlink:title="psi::init_int_matrix">
<polygon fill="none" stroke="black" points="307,-49.5 307,-68.5 403,-68.5 403,-49.5 307,-49.5"/>
<text text-anchor="middle" x="355" y="-56.5" font-family="Helvetica,sans-Serif" font-size="10.00">psi::init_int_matrix</text>
</a>
</g>
</g>
<!-- Node2&#45;&gt;Node7 -->
<g id="edge8" class="edge"><title>Node2&#45;&gt;Node7</title>
<path fill="none" stroke="midnightblue" d="M232.417,-109.911C250.243,-100.409 274.152,-88.2385 296,-79 301.859,-76.5227 308.14,-74.1128 314.328,-71.8738"/>
<polygon fill="midnightblue" stroke="midnightblue" points="315.627,-75.1273 323.902,-68.5106 313.307,-68.5229 315.627,-75.1273"/>
</g>
<!-- Node8 -->
<g id="node8" class="node"><title>Node8</title>
<g id="a_node8"><a xlink:href="classpsi_1_1IntegralTransform.html#a11ec696d117032722ed22a89d59414b2" target="_top" xlink:title="psi::IntegralTransform\l::process_eigenvectors">
<polygon fill="none" stroke="black" points="296,-0 296,-30 414,-30 414,-0 296,-0"/>
<text text-anchor="start" x="304" y="-18" font-family="Helvetica,sans-Serif" font-size="10.00">psi::IntegralTransform</text>
<text text-anchor="middle" x="355" y="-7" font-family="Helvetica,sans-Serif" font-size="10.00">::process_eigenvectors</text>
</a>
</g>
</g>
<!-- Node2&#45;&gt;Node8 -->
<g id="edge9" class="edge"><title>Node2&#45;&gt;Node8</title>
<path fill="none" stroke="midnightblue" d="M218.202,-109.802C234.852,-91.3613 265.061,-60.2328 296,-40 298.886,-38.1124 301.939,-36.3113 305.074,-34.6038"/>
<polygon fill="midnightblue" stroke="midnightblue" points="306.721,-37.6929 314.054,-30.046 303.553,-31.4508 306.721,-37.6929"/>
</g>
<!-- Node4&#45;&gt;Node3 -->
<g id="edge4" class="edge"><title>Node4&#45;&gt;Node3</title>
<path fill="none" stroke="midnightblue" d="M394.719,-185C408.752,-185 424.883,-185 440.046,-185"/>
<polygon fill="midnightblue" stroke="midnightblue" points="440.352,-188.5 450.352,-185 440.352,-181.5 440.352,-188.5"/>
</g>
<!-- Node5&#45;&gt;Node3 -->
<g id="edge6" class="edge"><title>Node5&#45;&gt;Node3</title>
<path fill="none" stroke="midnightblue" d="M391.076,-156.589C409.019,-161.494 431.058,-167.52 450.217,-172.757"/>
<polygon fill="midnightblue" stroke="midnightblue" points="449.367,-176.153 459.936,-175.414 451.213,-169.401 449.367,-176.153"/>
</g>
</g>
</svg>
