<?xml version="1.0" encoding="UTF-8" standalone="no"?>
<!DOCTYPE svg PUBLIC "-//W3C//DTD SVG 1.1//EN"
 "http://www.w3.org/Graphics/SVG/1.1/DTD/svg11.dtd">
<!-- Generated by graphviz version 2.30.1 (20140110.0959)
 -->
<!-- Title: psi::XFunctional Pages: 1 -->
<svg width="104pt" height="176pt"
 viewBox="0.00 0.00 104.00 176.00" xmlns="http://www.w3.org/2000/svg" xmlns:xlink="http://www.w3.org/1999/xlink">
<g id="graph0" class="graph" transform="scale(1 1) rotate(0) translate(4 172)">
<title>psi::XFunctional</title>
<!-- Node1 -->
<g id="node1" class="node"><title>Node1</title>
<polygon fill="#bfbfbf" stroke="black" points="-0.5,-0.5 -0.5,-19.5 86.5,-19.5 86.5,-0.5 -0.5,-0.5"/>
<text text-anchor="middle" x="43" y="-7.5" font-family="Helvetica,sans-Serif" font-size="10.00">psi::XFunctional</text>
</g>
<!-- Node2 -->
<g id="node2" class="node"><title>Node2</title>
<g id="a_node2"><a xlink:href="classpsi_1_1Functional.html" target="_top" xlink:title="psi::Functional">
<polygon fill="none" stroke="black" points="3,-58.5 3,-77.5 83,-77.5 83,-58.5 3,-58.5"/>
<text text-anchor="middle" x="43" y="-65.5" font-family="Helvetica,sans-Serif" font-size="10.00">psi::Functional</text>
</a>
</g>
</g>
<!-- Node2&#45;&gt;Node1 -->
<g id="edge1" class="edge"><title>Node2&#45;&gt;Node1</title>
<path fill="none" stroke="midnightblue" d="M43,-47.953C43,-38.2875 43,-27.0312 43,-19.5052"/>
<polygon fill="midnightblue" stroke="midnightblue" points="39.5001,-48.25 43,-58.25 46.5001,-48.25 39.5001,-48.25"/>
</g>
<!-- Node3 -->
<g id="node3" class="node"><title>Node3</title>
<polygon fill="none" stroke="#bfbfbf" points="22.5,-148.5 22.5,-167.5 63.5,-167.5 63.5,-148.5 22.5,-148.5"/>
<text text-anchor="middle" x="43" y="-155.5" font-family="Helvetica,sans-Serif" font-size="10.00">string</text>
</g>
<!-- Node3&#45;&gt;Node2 -->
<g id="edge2" class="edge"><title>Node3&#45;&gt;Node2</title>
<path fill="none" stroke="#9a32cd" stroke-dasharray="5,2" d="M43,-137.978C43,-119.31 43,-91.6696 43,-77.7241"/>
<polygon fill="#9a32cd" stroke="#9a32cd" points="39.5001,-138.24 43,-148.241 46.5001,-138.241 39.5001,-138.24"/>
<text text-anchor="middle" x="69.5" y="-121.5" font-family="Helvetica,sans-Serif" font-size="10.00"> citation_</text>
<text text-anchor="middle" x="69.5" y="-110.5" font-family="Helvetica,sans-Serif" font-size="10.00">description_</text>
<text text-anchor="middle" x="69.5" y="-99.5" font-family="Helvetica,sans-Serif" font-size="10.00">name_</text>
</g>
</g>
</svg>
