<?xml version="1.0" encoding="UTF-8" standalone="no"?>
<!DOCTYPE svg PUBLIC "-//W3C//DTD SVG 1.1//EN"
 "http://www.w3.org/Graphics/SVG/1.1/DTD/svg11.dtd">
<!-- Generated by graphviz version 2.30.1 (20140110.0959)
 -->
<!-- Title: yeti::RectMatrixTemplate&lt; T &gt; Pages: 1 -->
<svg width="158pt" height="282pt"
 viewBox="0.00 0.00 158.00 282.00" xmlns="http://www.w3.org/2000/svg" xmlns:xlink="http://www.w3.org/1999/xlink">
<g id="graph0" class="graph" transform="scale(1 1) rotate(0) translate(4 278)">
<title>yeti::RectMatrixTemplate&lt; T &gt;</title>
<!-- Node1 -->
<g id="node1" class="node"><title>Node1</title>
<polygon fill="#bfbfbf" stroke="black" points="-0.5,-138.5 -0.5,-157.5 150.5,-157.5 150.5,-138.5 -0.5,-138.5"/>
<text text-anchor="middle" x="75" y="-145.5" font-family="Helvetica,sans-Serif" font-size="10.00">yeti::RectMatrixTemplate&lt; T &gt;</text>
</g>
<!-- Node4 -->
<g id="node4" class="node"><title>Node4</title>
<g id="a_node4"><a xlink:href="classyeti_1_1RectMatrixTemplate.html" target="_top" xlink:title="yeti::RectMatrixTemplate\l\&lt; Matrix \&gt;">
<polygon fill="none" stroke="black" points="11.5,-59 11.5,-89 138.5,-89 138.5,-59 11.5,-59"/>
<text text-anchor="start" x="19.5" y="-77" font-family="Helvetica,sans-Serif" font-size="10.00">yeti::RectMatrixTemplate</text>
<text text-anchor="middle" x="75" y="-66" font-family="Helvetica,sans-Serif" font-size="10.00">&lt; Matrix &gt;</text>
</a>
</g>
</g>
<!-- Node1&#45;&gt;Node4 -->
<g id="edge3" class="edge"><title>Node1&#45;&gt;Node4</title>
<path fill="none" stroke="orange" stroke-dasharray="5,2" d="M75,-128.085C75,-115.915 75,-100.354 75,-89.2316"/>
<polygon fill="orange" stroke="orange" points="71.5001,-128.458 75,-138.458 78.5001,-128.458 71.5001,-128.458"/>
<text text-anchor="middle" x="99.5" y="-111.5" font-family="Helvetica,sans-Serif" font-size="10.00"> &lt; Matrix &gt;</text>
</g>
<!-- Node2 -->
<g id="node2" class="node"><title>Node2</title>
<g id="a_node2"><a xlink:href="classyeti_1_1MatrixTemplate.html" target="_top" xlink:title="yeti::MatrixTemplate\&lt; T \&gt;">
<polygon fill="none" stroke="black" points="10,-196.5 10,-215.5 140,-215.5 140,-196.5 10,-196.5"/>
<text text-anchor="middle" x="75" y="-203.5" font-family="Helvetica,sans-Serif" font-size="10.00">yeti::MatrixTemplate&lt; T &gt;</text>
</a>
</g>
</g>
<!-- Node2&#45;&gt;Node1 -->
<g id="edge1" class="edge"><title>Node2&#45;&gt;Node1</title>
<path fill="none" stroke="midnightblue" d="M75,-185.953C75,-176.287 75,-165.031 75,-157.505"/>
<polygon fill="midnightblue" stroke="midnightblue" points="71.5001,-186.25 75,-196.25 78.5001,-186.25 71.5001,-186.25"/>
</g>
<!-- Node3 -->
<g id="node3" class="node"><title>Node3</title>
<polygon fill="none" stroke="#bfbfbf" points="13,-254.5 13,-273.5 137,-273.5 137,-254.5 13,-254.5"/>
<text text-anchor="middle" x="75" y="-261.5" font-family="Helvetica,sans-Serif" font-size="10.00">boost::intrusive_ptr&lt; T &gt;</text>
</g>
<!-- Node3&#45;&gt;Node2 -->
<g id="edge2" class="edge"><title>Node3&#45;&gt;Node2</title>
<path fill="none" stroke="midnightblue" d="M75,-243.953C75,-234.287 75,-223.031 75,-215.505"/>
<polygon fill="midnightblue" stroke="midnightblue" points="71.5001,-244.25 75,-254.25 78.5001,-244.25 71.5001,-244.25"/>
</g>
<!-- Node5 -->
<g id="node5" class="node"><title>Node5</title>
<g id="a_node5"><a xlink:href="classyeti_1_1RectMatrixPtr.html" target="_top" xlink:title="yeti::RectMatrixPtr">
<polygon fill="none" stroke="black" points="25.5,-0.5 25.5,-19.5 124.5,-19.5 124.5,-0.5 25.5,-0.5"/>
<text text-anchor="middle" x="75" y="-7.5" font-family="Helvetica,sans-Serif" font-size="10.00">yeti::RectMatrixPtr</text>
</a>
</g>
</g>
<!-- Node4&#45;&gt;Node5 -->
<g id="edge4" class="edge"><title>Node4&#45;&gt;Node5</title>
<path fill="none" stroke="midnightblue" d="M75,-48.8706C75,-38.6625 75,-27.4077 75,-19.8419"/>
<polygon fill="midnightblue" stroke="midnightblue" points="71.5001,-48.9312 75,-58.9312 78.5001,-48.9313 71.5001,-48.9312"/>
</g>
</g>
</svg>
