<?xml version="1.0" encoding="UTF-8" standalone="no"?>
<!DOCTYPE svg PUBLIC "-//W3C//DTD SVG 1.1//EN"
 "http://www.w3.org/Graphics/SVG/1.1/DTD/svg11.dtd">
<!-- Generated by graphviz version 2.30.1 (20140110.0959)
 -->
<!-- Title: psi::ShellInfo::normalize_shell Pages: 1 -->
<svg width="422pt" height="38pt"
 viewBox="0.00 0.00 422.00 38.00" xmlns="http://www.w3.org/2000/svg" xmlns:xlink="http://www.w3.org/1999/xlink">
<g id="graph0" class="graph" transform="scale(1 1) rotate(0) translate(4 34)">
<title>psi::ShellInfo::normalize_shell</title>
<!-- Node1 -->
<g id="node1" class="node"><title>Node1</title>
<polygon fill="#bfbfbf" stroke="black" points="0,-0 0,-30 122,-30 122,-0 0,-0"/>
<text text-anchor="start" x="8" y="-18" font-family="Helvetica,sans-Serif" font-size="10.00">psi::ShellInfo::normalize</text>
<text text-anchor="middle" x="61" y="-7" font-family="Helvetica,sans-Serif" font-size="10.00">_shell</text>
</g>
<!-- Node2 -->
<g id="node2" class="node"><title>Node2</title>
<g id="a_node2"><a xlink:href="classpsi_1_1ShellInfo.html#a619434497ba0d1234a956ebf886889e0" target="_top" xlink:title="psi::ShellInfo::ShellInfo">
<polygon fill="none" stroke="black" points="158,-5.5 158,-24.5 276,-24.5 276,-5.5 158,-5.5"/>
<text text-anchor="middle" x="217" y="-12.5" font-family="Helvetica,sans-Serif" font-size="10.00">psi::ShellInfo::ShellInfo</text>
</a>
</g>
</g>
<!-- Node1&#45;&gt;Node2 -->
<g id="edge1" class="edge"><title>Node1&#45;&gt;Node2</title>
<path fill="none" stroke="midnightblue" d="M132.613,-15C141.03,-15 149.551,-15 157.767,-15"/>
<polygon fill="midnightblue" stroke="midnightblue" points="132.423,-11.5001 122.423,-15 132.423,-18.5001 132.423,-11.5001"/>
</g>
<!-- Node3 -->
<g id="node3" class="node"><title>Node3</title>
<g id="a_node3"><a xlink:href="classpsi_1_1ShellInfo.html#a1ba36f74f36d96f706a03ce629095479" target="_top" xlink:title="Make a copy of the ShellInfo.">
<polygon fill="none" stroke="black" points="312.5,-5.5 312.5,-24.5 413.5,-24.5 413.5,-5.5 312.5,-5.5"/>
<text text-anchor="middle" x="363" y="-12.5" font-family="Helvetica,sans-Serif" font-size="10.00">psi::ShellInfo::copy</text>
</a>
</g>
</g>
<!-- Node2&#45;&gt;Node3 -->
<g id="edge2" class="edge"><title>Node2&#45;&gt;Node3</title>
<path fill="none" stroke="midnightblue" d="M286.393,-15C295.17,-15 304.017,-15 312.413,-15"/>
<polygon fill="midnightblue" stroke="midnightblue" points="286.155,-11.5001 276.155,-15 286.155,-18.5001 286.155,-11.5001"/>
</g>
</g>
</svg>
