<?xml version="1.0" encoding="UTF-8" standalone="no"?>
<!DOCTYPE svg PUBLIC "-//W3C//DTD SVG 1.1//EN"
 "http://www.w3.org/Graphics/SVG/1.1/DTD/svg11.dtd">
<!-- Generated by graphviz version 2.30.1 (20140110.0959)
 -->
<!-- Title: yeti::YetiContraction Pages: 1 -->
<svg width="326pt" height="186pt"
 viewBox="0.00 0.00 326.00 186.00" xmlns="http://www.w3.org/2000/svg" xmlns:xlink="http://www.w3.org/1999/xlink">
<g id="graph0" class="graph" transform="scale(1 1) rotate(0) translate(4 182)">
<title>yeti::YetiContraction</title>
<!-- Node1 -->
<g id="node1" class="node"><title>Node1</title>
<polygon fill="#bfbfbf" stroke="black" points="102,-0.5 102,-19.5 208,-19.5 208,-0.5 102,-0.5"/>
<text text-anchor="middle" x="155" y="-7.5" font-family="Helvetica,sans-Serif" font-size="10.00">yeti::YetiContraction</text>
</g>
<!-- Node2 -->
<g id="node2" class="node"><title>Node2</title>
<g id="a_node2"><a xlink:href="classyeti_1_1StringParser.html" target="_top" xlink:title="yeti::StringParser">
<polygon fill="none" stroke="black" points="109,-78.5 109,-97.5 201,-97.5 201,-78.5 109,-78.5"/>
<text text-anchor="middle" x="155" y="-85.5" font-family="Helvetica,sans-Serif" font-size="10.00">yeti::StringParser</text>
</a>
</g>
</g>
<!-- Node2&#45;&gt;Node1 -->
<g id="edge1" class="edge"><title>Node2&#45;&gt;Node1</title>
<path fill="none" stroke="midnightblue" d="M155,-68.2239C155,-52.6974 155,-31.3582 155,-19.6165"/>
<polygon fill="midnightblue" stroke="midnightblue" points="151.5,-68.2818 155,-78.2818 158.5,-68.2819 151.5,-68.2818"/>
</g>
<!-- Node3 -->
<g id="node3" class="node"><title>Node3</title>
<g id="a_node3"><a xlink:href="classsmartptr_1_1Countable.html" target="_top" xlink:title="smartptr::Countable">
<polygon fill="none" stroke="black" points="3.5,-152.5 3.5,-171.5 106.5,-171.5 106.5,-152.5 3.5,-152.5"/>
<text text-anchor="middle" x="55" y="-159.5" font-family="Helvetica,sans-Serif" font-size="10.00">smartptr::Countable</text>
</a>
</g>
</g>
<!-- Node3&#45;&gt;Node2 -->
<g id="edge2" class="edge"><title>Node3&#45;&gt;Node2</title>
<path fill="none" stroke="midnightblue" d="M75.1524,-146.49C95.5481,-131.805 126.395,-109.596 143.151,-97.531"/>
<polygon fill="midnightblue" stroke="midnightblue" points="72.9343,-143.774 66.864,-152.458 77.0244,-149.455 72.9343,-143.774"/>
</g>
<!-- Node7 -->
<g id="node7" class="node"><title>Node7</title>
<g id="a_node7"><a xlink:href="classyeti_1_1Permutation.html" target="_top" xlink:title="yeti::Permutation">
<polygon fill="none" stroke="black" points="-0.5,-78.5 -0.5,-97.5 90.5,-97.5 90.5,-78.5 -0.5,-78.5"/>
<text text-anchor="middle" x="45" y="-85.5" font-family="Helvetica,sans-Serif" font-size="10.00">yeti::Permutation</text>
</a>
</g>
</g>
<!-- Node3&#45;&gt;Node7 -->
<g id="edge7" class="edge"><title>Node3&#45;&gt;Node7</title>
<path fill="none" stroke="midnightblue" d="M52.3828,-142.156C50.3767,-127.712 47.7027,-108.459 46.1849,-97.531"/>
<polygon fill="midnightblue" stroke="midnightblue" points="48.9711,-143.035 53.8136,-152.458 55.9046,-142.071 48.9711,-143.035"/>
</g>
<!-- Node4 -->
<g id="node4" class="node"><title>Node4</title>
<polygon fill="none" stroke="#bfbfbf" points="134.5,-152.5 134.5,-171.5 175.5,-171.5 175.5,-152.5 134.5,-152.5"/>
<text text-anchor="middle" x="155" y="-159.5" font-family="Helvetica,sans-Serif" font-size="10.00">string</text>
</g>
<!-- Node4&#45;&gt;Node2 -->
<g id="edge3" class="edge"><title>Node4&#45;&gt;Node2</title>
<path fill="none" stroke="#9a32cd" stroke-dasharray="5,2" d="M155,-142.156C155,-127.712 155,-108.459 155,-97.531"/>
<polygon fill="#9a32cd" stroke="#9a32cd" points="151.5,-142.458 155,-152.458 158.5,-142.458 151.5,-142.458"/>
<text text-anchor="middle" x="165" y="-119.5" font-family="Helvetica,sans-Serif" font-size="10.00"> str_</text>
</g>
<!-- Node5 -->
<g id="node5" class="node"><title>Node5</title>
<g id="a_node5"><a xlink:href="classyeti_1_1YetiTensorPtr.html" target="_top" xlink:title="yeti::YetiTensorPtr">
<polygon fill="none" stroke="black" points="219,-78.5 219,-97.5 317,-97.5 317,-78.5 219,-78.5"/>
<text text-anchor="middle" x="268" y="-85.5" font-family="Helvetica,sans-Serif" font-size="10.00">yeti::YetiTensorPtr</text>
</a>
</g>
</g>
<!-- Node5&#45;&gt;Node1 -->
<g id="edge4" class="edge"><title>Node5&#45;&gt;Node1</title>
<path fill="none" stroke="#9a32cd" stroke-dasharray="5,2" d="M246.541,-72.5677C223.293,-56.9314 186.964,-32.4981 167.811,-19.6165"/>
<polygon fill="#9a32cd" stroke="#9a32cd" points="244.786,-75.6052 255.037,-78.2818 248.693,-69.7967 244.786,-75.6052"/>
<text text-anchor="middle" x="242" y="-52" font-family="Helvetica,sans-Serif" font-size="10.00"> rtensor</text>
<text text-anchor="middle" x="242" y="-41" font-family="Helvetica,sans-Serif" font-size="10.00">ltensor</text>
</g>
<!-- Node6 -->
<g id="node6" class="node"><title>Node6</title>
<polygon fill="none" stroke="#bfbfbf" points="218,-147 218,-177 318,-177 318,-147 218,-147"/>
<text text-anchor="start" x="226" y="-165" font-family="Helvetica,sans-Serif" font-size="10.00">boost::intrusive_ptr</text>
<text text-anchor="middle" x="268" y="-154" font-family="Helvetica,sans-Serif" font-size="10.00">&lt; YetiTensor &gt;</text>
</g>
<!-- Node6&#45;&gt;Node5 -->
<g id="edge5" class="edge"><title>Node6&#45;&gt;Node5</title>
<path fill="none" stroke="midnightblue" d="M268,-136.688C268,-123.253 268,-107.38 268,-97.7589"/>
<polygon fill="midnightblue" stroke="midnightblue" points="264.5,-136.775 268,-146.775 271.5,-136.775 264.5,-136.775"/>
</g>
<!-- Node7&#45;&gt;Node1 -->
<g id="edge6" class="edge"><title>Node7&#45;&gt;Node1</title>
<path fill="none" stroke="#9a32cd" stroke-dasharray="5,2" d="M58.285,-70.4759C67.2533,-60.1263 79.822,-47.0778 93,-38 104.119,-30.3408 117.759,-24.1144 129.412,-19.5791"/>
<polygon fill="#9a32cd" stroke="#9a32cd" points="55.3973,-68.473 51.6642,-78.3883 60.7658,-72.9651 55.3973,-68.473"/>
<text text-anchor="middle" x="122" y="-52" font-family="Helvetica,sans-Serif" font-size="10.00"> right_presort</text>
<text text-anchor="middle" x="122" y="-41" font-family="Helvetica,sans-Serif" font-size="10.00">left_presort</text>
</g>
</g>
</svg>
