<?xml version="1.0" encoding="UTF-8" standalone="no"?>
<!DOCTYPE svg PUBLIC "-//W3C//DTD SVG 1.1//EN"
 "http://www.w3.org/Graphics/SVG/1.1/DTD/svg11.dtd">
<!-- Generated by graphviz version 2.30.1 (20140110.0959)
 -->
<!-- Title: psi::Matrix::print Pages: 1 -->
<svg width="246pt" height="77pt"
 viewBox="0.00 0.00 246.00 77.00" xmlns="http://www.w3.org/2000/svg" xmlns:xlink="http://www.w3.org/1999/xlink">
<g id="graph0" class="graph" transform="scale(1 1) rotate(0) translate(4 73)">
<title>psi::Matrix::print</title>
<!-- Node1 -->
<g id="node1" class="node"><title>Node1</title>
<polygon fill="#bfbfbf" stroke="black" points="0.5,-22.5 0.5,-41.5 87.5,-41.5 87.5,-22.5 0.5,-22.5"/>
<text text-anchor="middle" x="44" y="-29.5" font-family="Helvetica,sans-Serif" font-size="10.00">psi::Matrix::print</text>
</g>
<!-- Node2 -->
<g id="node2" class="node"><title>Node2</title>
<g id="a_node2"><a xlink:href="classpsi_1_1dcft_1_1DCFTSolver.html#a4d284a82a15a7c7e12fbdd9a236465f8" target="_top" xlink:title="psi::dcft::DCFTSolver\l::correct_mo_phases">
<polygon fill="none" stroke="black" points="124.5,-39 124.5,-69 237.5,-69 237.5,-39 124.5,-39"/>
<text text-anchor="start" x="132.5" y="-57" font-family="Helvetica,sans-Serif" font-size="10.00">psi::dcft::DCFTSolver</text>
<text text-anchor="middle" x="181" y="-46" font-family="Helvetica,sans-Serif" font-size="10.00">::correct_mo_phases</text>
</a>
</g>
</g>
<!-- Node1&#45;&gt;Node2 -->
<g id="edge1" class="edge"><title>Node1&#45;&gt;Node2</title>
<path fill="none" stroke="midnightblue" d="M97.7231,-40.5919C106.415,-42.0083 115.45,-43.4807 124.213,-44.9088"/>
<polygon fill="midnightblue" stroke="midnightblue" points="98.1476,-37.115 87.7148,-38.9609 97.0217,-44.0239 98.1476,-37.115"/>
</g>
<!-- Node3 -->
<g id="node3" class="node"><title>Node3</title>
<g id="a_node3"><a xlink:href="classpsi_1_1Matrix.html#a45373611cd3e2ebadd668b8ccb771c5c" target="_top" xlink:title="Python compatible printer.">
<polygon fill="none" stroke="black" points="128,-0.5 128,-19.5 234,-19.5 234,-0.5 128,-0.5"/>
<text text-anchor="middle" x="181" y="-7.5" font-family="Helvetica,sans-Serif" font-size="10.00">psi::Matrix::print_out</text>
</a>
</g>
</g>
<!-- Node1&#45;&gt;Node3 -->
<g id="edge2" class="edge"><title>Node1&#45;&gt;Node3</title>
<path fill="none" stroke="midnightblue" d="M97.7458,-23.4044C107.559,-21.8052 117.81,-20.1347 127.612,-18.5373"/>
<polygon fill="midnightblue" stroke="midnightblue" points="97.0217,-19.9761 87.7148,-25.0391 98.1476,-26.885 97.0217,-19.9761"/>
</g>
</g>
</svg>
