<?xml version="1.0" encoding="UTF-8" standalone="no"?>
<!DOCTYPE svg PUBLIC "-//W3C//DTD SVG 1.1//EN"
 "http://www.w3.org/Graphics/SVG/1.1/DTD/svg11.dtd">
<!-- Generated by graphviz version 2.30.1 (20140110.0959)
 -->
<!-- Title: psi::PSIO::read Pages: 1 -->
<!--zoomable 456 -->
<svg id="main" version="1.1" xmlns="http://www.w3.org/2000/svg" xmlns:xlink="http://www.w3.org/1999/xlink" xml:space="preserve" onload="init(evt)">
        <defs>
                <circle id="rim" cx="0" cy="0" r="7"/>
                <circle id="rim2" cx="0" cy="0" r="3.5"/>
                <g id="zoomPlus">
                        <use xlink:href="#rim" fill="#404040">
                                <set attributeName="fill" to="#808080" begin="zoomplus.mouseover" end="zoomplus.mouseout"/>
                        </use>
                        <path d="M-4,0h8M0,-4v8" fill="none" stroke="white" stroke-width="1.5" pointer-events="none"/>
                </g>
                <g id="zoomMin">
                        <use xlink:href="#rim" fill="#404040">
                                <set attributeName="fill" to="#808080" begin="zoomminus.mouseover" end="zoomminus.mouseout"/>
                        </use>
                        <path d="M-4,0h8" fill="none" stroke="white" stroke-width="1.5" pointer-events="none"/>
                </g>
                <g id="dirArrow">
                        <path fill="none" stroke="white" stroke-width="1.5" d="M0,-3.0v7 M-2.5,-0.5L0,-3.0L2.5,-0.5"/>
                </g>
               <g id="resetDef">
                       <use xlink:href="#rim2" fill="#404040">
                               <set attributeName="fill" to="#808080" begin="reset.mouseover" end="reset.mouseout"/>
                       </use>
               </g>
        </defs>

<script type="text/javascript">
var viewWidth = 1082;
var viewHeight = 456;
var sectionId = 'dynsection-2';
</script>
<script xlink:href="svgpan.js"/>
<svg id="graph" class="graph">
<g id="viewport">
<title>psi::PSIO::read</title>
<!-- Node1 -->
<g id="node1" class="node"><title>Node1</title>
<polygon fill="#bfbfbf" stroke="black" points="0,-113.5 0,-132.5 84,-132.5 84,-113.5 0,-113.5"/>
<text text-anchor="middle" x="42" y="-120.5" font-family="Helvetica,sans-Serif" font-size="10.00">psi::PSIO::read</text>
</g>
<!-- Node2 -->
<g id="node2" class="node"><title>Node2</title>
<g id="a_node2"><a xlink:href="classpsi_1_1PSIO.html#a5646f6a4991f52588a42e54bad3261ef" target="_top" xlink:title="Scans the TOC for a particular keyword and returns either a pointer to the entry or NULL to the calle...">
<polygon fill="none" stroke="black" points="120,-198.5 120,-217.5 220,-217.5 220,-198.5 120,-198.5"/>
<text text-anchor="middle" x="170" y="-205.5" font-family="Helvetica,sans-Serif" font-size="10.00">psi::PSIO::tocscan</text>
</a>
</g>
</g>
<!-- Node1&#45;&gt;Node2 -->
<g id="edge1" class="edge"><title>Node1&#45;&gt;Node2</title>
<path fill="none" stroke="midnightblue" d="M57.4538,-132.751C79.1954,-147.418 120.509,-175.288 146.298,-192.685"/>
<polygon fill="midnightblue" stroke="midnightblue" points="144.467,-195.672 154.715,-198.363 148.382,-189.869 144.467,-195.672"/>
</g>
<!-- Node3 -->
<g id="node3" class="node"><title>Node3</title>
<g id="a_node3"><a xlink:href="group__PSIO.html#ga1e6c081b5776af1cc3d21a8a1cb5c337" target="_top" xlink:title="psi::psio_error">
<polygon fill="none" stroke="black" points="849,-255.5 849,-274.5 927,-274.5 927,-255.5 849,-255.5"/>
<text text-anchor="middle" x="888" y="-262.5" font-family="Helvetica,sans-Serif" font-size="10.00">psi::psio_error</text>
</a>
</g>
</g>
<!-- Node1&#45;&gt;Node3 -->
<g id="edge27" class="edge"><title>Node1&#45;&gt;Node3</title>
<path fill="none" stroke="midnightblue" d="M45.3845,-132.727C59.275,-186.803 134.913,-448 300,-448 300,-448 300,-448 610,-448 699.641,-448 723.404,-422.586 796,-370 829.825,-345.498 859.523,-306.108 875.203,-283.177"/>
<polygon fill="midnightblue" stroke="midnightblue" points="878.21,-284.977 880.86,-274.719 872.391,-281.085 878.21,-284.977"/>
</g>
<!-- Node12 -->
<g id="node12" class="node"><title>Node12</title>
<g id="a_node12"><a xlink:href="group__PSIO.html#gacd1b580899ec1cec5064f2cb0058a364" target="_top" xlink:title="psi::psio_get_address">
<polygon fill="none" stroke="black" points="832,-61.5 832,-80.5 944,-80.5 944,-61.5 832,-61.5"/>
<text text-anchor="middle" x="888" y="-68.5" font-family="Helvetica,sans-Serif" font-size="10.00">psi::psio_get_address</text>
</a>
</g>
</g>
<!-- Node1&#45;&gt;Node12 -->
<g id="edge28" class="edge"><title>Node1&#45;&gt;Node12</title>
<path fill="none" stroke="midnightblue" d="M59.5127,-113.415C99.4176,-91.185 204.835,-38 300,-38 300,-38 300,-38 610,-38 685.342,-38 771.406,-50.1863 827.339,-59.748"/>
<polygon fill="midnightblue" stroke="midnightblue" points="826.972,-63.2365 837.423,-61.4993 828.169,-56.3397 826.972,-63.2365"/>
</g>
<!-- Node17 -->
<g id="node17" class="node"><title>Node17</title>
<g id="a_node17"><a xlink:href="group__PSIO.html#ga760073b297d2340a38f2771b5b13560f" target="_top" xlink:title="psi::psio_get_global\l_address">
<polygon fill="none" stroke="black" points="836.5,-8 836.5,-38 939.5,-38 939.5,-8 836.5,-8"/>
<text text-anchor="start" x="844.5" y="-26" font-family="Helvetica,sans-Serif" font-size="10.00">psi::psio_get_global</text>
<text text-anchor="middle" x="888" y="-15" font-family="Helvetica,sans-Serif" font-size="10.00">_address</text>
</a>
</g>
</g>
<!-- Node1&#45;&gt;Node17 -->
<g id="edge29" class="edge"><title>Node1&#45;&gt;Node17</title>
<path fill="none" stroke="midnightblue" d="M49.6428,-113.43C61.6791,-96.8424 88.7617,-62.8202 120,-45 191.627,-4.13975 217.538,-0 300,-0 300,-0 300,-0 610,-0 684.616,-0 770.151,-8.39098 826.193,-15.0365"/>
<polygon fill="midnightblue" stroke="midnightblue" points="825.958,-18.5334 836.305,-16.2546 826.796,-11.5837 825.958,-18.5334"/>
</g>
<!-- Node13 -->
<g id="node13" class="node"><title>Node13</title>
<g id="a_node13"><a xlink:href="group__PSIO.html#ga0b989c316ebc107f83ab7eb921a6f38c" target="_top" xlink:title="psi::PSIO::rw">
<polygon fill="none" stroke="black" points="571,-113.5 571,-132.5 647,-132.5 647,-113.5 571,-113.5"/>
<text text-anchor="middle" x="609" y="-120.5" font-family="Helvetica,sans-Serif" font-size="10.00">psi::PSIO::rw</text>
</a>
</g>
</g>
<!-- Node1&#45;&gt;Node13 -->
<g id="edge30" class="edge"><title>Node1&#45;&gt;Node13</title>
<path fill="none" stroke="midnightblue" d="M84.0885,-119.279C186.425,-115.317 452.246,-115.242 560.79,-119.054"/>
<polygon fill="midnightblue" stroke="midnightblue" points="560.666,-122.551 570.792,-119.435 560.933,-115.557 560.666,-122.551"/>
</g>
<!-- Node2&#45;&gt;Node3 -->
<g id="edge2" class="edge"><title>Node2&#45;&gt;Node3</title>
<path fill="none" stroke="midnightblue" d="M213.775,-217.589C267.813,-228.846 363.806,-246 447,-246 447,-246 447,-246 610,-246 690.38,-246 783.574,-254.062 838.784,-259.682"/>
<polygon fill="midnightblue" stroke="midnightblue" points="838.664,-263.189 848.971,-260.736 839.384,-256.226 838.664,-263.189"/>
</g>
<!-- Node5 -->
<g id="node5" class="node"><title>Node5</title>
<g id="a_node5"><a xlink:href="classpsi_1_1PSIO.html#ae49be2f291d20fa98b7ed6612b3a524d" target="_top" xlink:title="return 1 if unit is open">
<polygon fill="none" stroke="black" points="550,-151.5 550,-170.5 668,-170.5 668,-151.5 550,-151.5"/>
<text text-anchor="middle" x="609" y="-158.5" font-family="Helvetica,sans-Serif" font-size="10.00">psi::PSIO::open_check</text>
</a>
</g>
</g>
<!-- Node2&#45;&gt;Node5 -->
<g id="edge4" class="edge"><title>Node2&#45;&gt;Node5</title>
<path fill="none" stroke="midnightblue" d="M220.28,-202.7C298.515,-194.286 451.33,-177.85 539.954,-168.318"/>
<polygon fill="midnightblue" stroke="midnightblue" points="540.338,-171.797 549.906,-167.248 539.589,-164.838 540.338,-171.797"/>
</g>
<!-- Node6 -->
<g id="node6" class="node"><title>Node6</title>
<g id="a_node6"><a xlink:href="classpsi_1_1PSIO.html#ad9843039bda332ccadfc7f47ec4ada25" target="_top" xlink:title="open unit. status can be PSIO_OPEN_OLD (if existing file is to be opened) or PSIO_OPEN_NEW if new fil...">
<polygon fill="none" stroke="black" points="258,-340.5 258,-359.5 344,-359.5 344,-340.5 258,-340.5"/>
<text text-anchor="middle" x="301" y="-347.5" font-family="Helvetica,sans-Serif" font-size="10.00">psi::PSIO::open</text>
</a>
</g>
</g>
<!-- Node2&#45;&gt;Node6 -->
<g id="edge5" class="edge"><title>Node2&#45;&gt;Node6</title>
<path fill="none" stroke="midnightblue" d="M179.375,-217.502C194.54,-234.676 227.61,-271.981 256,-303 265.129,-312.974 275.455,-324.017 283.809,-332.891"/>
<polygon fill="midnightblue" stroke="midnightblue" points="281.426,-335.466 290.835,-340.338 286.518,-330.662 281.426,-335.466"/>
</g>
<!-- Node10 -->
<g id="node10" class="node"><title>Node10</title>
<g id="a_node10"><a xlink:href="classpsi_1_1PSIO.html#adbd402c15bc7514c6ccaf1838a138858" target="_top" xlink:title="close unit. if keep == 0, will remove the file, else keep it">
<polygon fill="none" stroke="black" points="256.5,-274.5 256.5,-293.5 345.5,-293.5 345.5,-274.5 256.5,-274.5"/>
<text text-anchor="middle" x="301" y="-281.5" font-family="Helvetica,sans-Serif" font-size="10.00">psi::PSIO::close</text>
</a>
</g>
</g>
<!-- Node2&#45;&gt;Node10 -->
<g id="edge10" class="edge"><title>Node2&#45;&gt;Node10</title>
<path fill="none" stroke="midnightblue" d="M186.218,-217.625C203.121,-228.241 231.289,-245.714 256,-260 261.405,-263.125 267.237,-266.383 272.831,-269.455"/>
<polygon fill="midnightblue" stroke="midnightblue" points="271.448,-272.687 281.905,-274.392 274.794,-266.538 271.448,-272.687"/>
</g>
<!-- Node4 -->
<g id="node4" class="node"><title>Node4</title>
<g id="a_node4"><a xlink:href="group__PSIO.html#gaee16f35954f733e1fce461d5981e3871" target="_top" xlink:title="psi::psio_tocwrite">
<polygon fill="none" stroke="black" points="980.5,-255.5 980.5,-274.5 1073.5,-274.5 1073.5,-255.5 980.5,-255.5"/>
<text text-anchor="middle" x="1027" y="-262.5" font-family="Helvetica,sans-Serif" font-size="10.00">psi::psio_tocwrite</text>
</a>
</g>
</g>
<!-- Node3&#45;&gt;Node4 -->
<g id="edge3" class="edge"><title>Node3&#45;&gt;Node4</title>
<path fill="none" stroke="midnightblue" d="M927.162,-265C940.414,-265 955.564,-265 969.955,-265"/>
<polygon fill="midnightblue" stroke="midnightblue" points="970.262,-268.5 980.262,-265 970.262,-261.5 970.262,-268.5"/>
</g>
<!-- Node6&#45;&gt;Node3 -->
<g id="edge6" class="edge"><title>Node6&#45;&gt;Node3</title>
<path fill="none" stroke="midnightblue" d="M315.65,-359.569C330.97,-369.673 356.968,-384.959 382,-391 505.564,-420.819 545.195,-423.806 668,-391 749.213,-369.305 831.559,-309.484 867.832,-280.775"/>
<polygon fill="midnightblue" stroke="midnightblue" points="870.035,-283.495 875.643,-274.506 865.653,-278.035 870.035,-283.495"/>
</g>
<!-- Node7 -->
<g id="node7" class="node"><title>Node7</title>
<g id="a_node7"><a xlink:href="classpsi_1_1PSIO.html#aef650f478b5b6d852921deec3f0e8e4a" target="_top" xlink:title="grab the filename of unit and strdup into name.">
<polygon fill="none" stroke="black" points="387.5,-362.5 387.5,-381.5 508.5,-381.5 508.5,-362.5 387.5,-362.5"/>
<text text-anchor="middle" x="448" y="-369.5" font-family="Helvetica,sans-Serif" font-size="10.00">psi::PSIO::get_filename</text>
</a>
</g>
</g>
<!-- Node6&#45;&gt;Node7 -->
<g id="edge7" class="edge"><title>Node6&#45;&gt;Node7</title>
<path fill="none" stroke="midnightblue" d="M344.33,-356.422C354.739,-358.002 366.158,-359.734 377.48,-361.452"/>
<polygon fill="midnightblue" stroke="midnightblue" points="376.965,-364.914 387.376,-362.954 378.015,-357.993 376.965,-364.914"/>
</g>
<!-- Node9 -->
<g id="node9" class="node"><title>Node9</title>
<g id="a_node9"><a xlink:href="classpsi_1_1PSIOManager.html#ac53f8dde17257977d98f1137616c2b48" target="_top" xlink:title="The one and (should be) only instance of PSIOManager for a PSI4 instance.">
<polygon fill="none" stroke="black" points="382,-313 382,-343 514,-343 514,-313 382,-313"/>
<text text-anchor="start" x="390" y="-331" font-family="Helvetica,sans-Serif" font-size="10.00">psi::PSIOManager::shared</text>
<text text-anchor="middle" x="448" y="-320" font-family="Helvetica,sans-Serif" font-size="10.00">_object</text>
</a>
</g>
</g>
<!-- Node6&#45;&gt;Node9 -->
<g id="edge9" class="edge"><title>Node6&#45;&gt;Node9</title>
<path fill="none" stroke="midnightblue" d="M344.33,-343.578C353.077,-342.25 362.538,-340.815 372.056,-339.371"/>
<polygon fill="midnightblue" stroke="midnightblue" points="372.604,-342.828 381.966,-337.867 371.554,-335.907 372.604,-342.828"/>
</g>
<!-- Node8 -->
<g id="node8" class="node"><title>Node8</title>
<g id="a_node8"><a xlink:href="classpsi_1_1PSIO.html#a4877f88ce7323ba45691dbfb4d403936" target="_top" xlink:title="psi::PSIO::filecfg_kwd">
<polygon fill="none" stroke="black" points="551.5,-362.5 551.5,-381.5 666.5,-381.5 666.5,-362.5 551.5,-362.5"/>
<text text-anchor="middle" x="609" y="-369.5" font-family="Helvetica,sans-Serif" font-size="10.00">psi::PSIO::filecfg_kwd</text>
</a>
</g>
</g>
<!-- Node7&#45;&gt;Node8 -->
<g id="edge8" class="edge"><title>Node7&#45;&gt;Node8</title>
<path fill="none" stroke="midnightblue" d="M508.658,-372C519.276,-372 530.398,-372 541.199,-372"/>
<polygon fill="midnightblue" stroke="midnightblue" points="541.429,-375.5 551.429,-372 541.429,-368.5 541.429,-375.5"/>
</g>
<!-- Node10&#45;&gt;Node3 -->
<g id="edge11" class="edge"><title>Node10&#45;&gt;Node3</title>
<path fill="none" stroke="midnightblue" d="M345.97,-282.572C453.055,-279.094 726.755,-270.205 838.438,-266.577"/>
<polygon fill="midnightblue" stroke="midnightblue" points="838.848,-270.066 848.729,-266.243 838.621,-263.07 838.848,-270.066"/>
</g>
<!-- Node11 -->
<g id="node11" class="node"><title>Node11</title>
<g id="a_node11"><a xlink:href="classpsi_1_1PSIO.html#a32fcd89fe9072099cb993a455233cf15" target="_top" xlink:title="Write the table of contents for file number &#39;unit&#39;. NB: This function should NOT call psio_error beca...">
<polygon fill="none" stroke="black" points="398,-198.5 398,-217.5 498,-217.5 498,-198.5 398,-198.5"/>
<text text-anchor="middle" x="448" y="-205.5" font-family="Helvetica,sans-Serif" font-size="10.00">psi::PSIO::tocwrite</text>
</a>
</g>
</g>
<!-- Node10&#45;&gt;Node11 -->
<g id="edge12" class="edge"><title>Node10&#45;&gt;Node11</title>
<path fill="none" stroke="midnightblue" d="M320.364,-274.375C345.423,-261.24 390.528,-237.599 419.595,-222.364"/>
<polygon fill="midnightblue" stroke="midnightblue" points="421.552,-225.29 428.785,-217.547 418.303,-219.09 421.552,-225.29"/>
</g>
<!-- Node10&#45;&gt;Node9 -->
<g id="edge26" class="edge"><title>Node10&#45;&gt;Node9</title>
<path fill="none" stroke="midnightblue" d="M333.463,-293.547C349.351,-298.369 369.159,-304.379 387.762,-310.024"/>
<polygon fill="midnightblue" stroke="midnightblue" points="386.767,-313.38 397.353,-312.935 388.8,-306.682 386.767,-313.38"/>
</g>
<!-- Node11&#45;&gt;Node5 -->
<g id="edge13" class="edge"><title>Node11&#45;&gt;Node5</title>
<path fill="none" stroke="midnightblue" d="M481.176,-198.489C505.556,-191.282 539.273,-181.316 565.813,-173.47"/>
<polygon fill="midnightblue" stroke="midnightblue" points="567.002,-176.769 575.599,-170.578 565.017,-170.056 567.002,-176.769"/>
</g>
<!-- Node11&#45;&gt;Node12 -->
<g id="edge14" class="edge"><title>Node11&#45;&gt;Node12</title>
<path fill="none" stroke="midnightblue" d="M498.162,-212.168C570.493,-215.696 706.659,-212.126 796,-147 820.213,-129.35 808.515,-108.608 832,-90 834.264,-88.2061 836.709,-86.5759 839.265,-85.0952"/>
<polygon fill="midnightblue" stroke="midnightblue" points="840.887,-88.1977 848.288,-80.6163 837.774,-81.9277 840.887,-88.1977"/>
</g>
<!-- Node11&#45;&gt;Node13 -->
<g id="edge15" class="edge"><title>Node11&#45;&gt;Node13</title>
<path fill="none" stroke="midnightblue" d="M461.433,-198.319C479.887,-184.32 516.012,-158.321 550,-142 554.424,-139.876 559.145,-137.898 563.911,-136.084"/>
<polygon fill="midnightblue" stroke="midnightblue" points="565.439,-139.255 573.678,-132.594 563.083,-132.663 565.439,-139.255"/>
</g>
<!-- Node14 -->
<g id="node14" class="node"><title>Node14</title>
<g id="a_node14"><a xlink:href="group__PSIO.html#ga0608b284b1f4b703c858612d39bef88c" target="_top" xlink:title="psi::psio_volseek">
<polygon fill="none" stroke="black" points="704,-118.5 704,-137.5 796,-137.5 796,-118.5 704,-118.5"/>
<text text-anchor="middle" x="750" y="-125.5" font-family="Helvetica,sans-Serif" font-size="10.00">psi::psio_volseek</text>
</a>
</g>
</g>
<!-- Node13&#45;&gt;Node14 -->
<g id="edge16" class="edge"><title>Node13&#45;&gt;Node14</title>
<path fill="none" stroke="midnightblue" d="M647.249,-124.34C661.564,-124.855 678.225,-125.454 693.869,-126.017"/>
<polygon fill="midnightblue" stroke="midnightblue" points="693.849,-129.518 703.968,-126.38 694.101,-122.523 693.849,-129.518"/>
</g>
<!-- Node13&#45;&gt;Node3 -->
<g id="edge17" class="edge"><title>Node13&#45;&gt;Node3</title>
<path fill="none" stroke="midnightblue" d="M642.936,-132.555C651.237,-135.298 660.046,-138.504 668,-142 742.47,-174.735 824.696,-225.075 863.831,-249.98"/>
<polygon fill="midnightblue" stroke="midnightblue" points="862.077,-253.013 872.386,-255.457 865.852,-247.118 862.077,-253.013"/>
</g>
<!-- Node15 -->
<g id="node15" class="node"><title>Node15</title>
<g id="a_node15"><a xlink:href="classpsi_1_1PSIO.html#abaa2e29b2fbcab920d8daf8f5ae5419c" target="_top" xlink:title="psi::PSIO::write">
<polygon fill="none" stroke="black" points="707,-80.5 707,-99.5 793,-99.5 793,-80.5 707,-80.5"/>
<text text-anchor="middle" x="750" y="-87.5" font-family="Helvetica,sans-Serif" font-size="10.00">psi::PSIO::write</text>
</a>
</g>
</g>
<!-- Node13&#45;&gt;Node15 -->
<g id="edge18" class="edge"><title>Node13&#45;&gt;Node15</title>
<path fill="none" stroke="midnightblue" d="M629.62,-113.469C647.104,-107.664 673.488,-100.84 697.009,-95.7872"/>
<polygon fill="midnightblue" stroke="midnightblue" points="697.8,-99.1977 706.881,-93.7385 696.378,-92.3437 697.8,-99.1977"/>
</g>
<!-- Node13&#45;&gt;Node1 -->
<g id="edge25" class="edge"><title>Node13&#45;&gt;Node1</title>
<path fill="none" stroke="midnightblue" d="M570.792,-126.565C472.631,-130.632 206.506,-130.804 94.1518,-127.081"/>
<polygon fill="midnightblue" stroke="midnightblue" points="94.2073,-123.581 84.0885,-126.721 93.9569,-130.576 94.2073,-123.581"/>
</g>
<!-- Node15&#45;&gt;Node2 -->
<g id="edge19" class="edge"><title>Node15&#45;&gt;Node2</title>
<path fill="none" stroke="midnightblue" d="M706.784,-90.5579C666.303,-91.6597 603.6,-94.8529 550,-104 422.371,-125.78 275.711,-172.414 208.359,-195.089"/>
<polygon fill="midnightblue" stroke="midnightblue" points="206.975,-191.862 198.627,-198.385 209.221,-198.492 206.975,-191.862"/>
</g>
<!-- Node15&#45;&gt;Node3 -->
<g id="edge20" class="edge"><title>Node15&#45;&gt;Node3</title>
<path fill="none" stroke="midnightblue" d="M781.154,-99.5306C786.464,-102.067 791.669,-105.193 796,-109 840.008,-147.685 868.257,-213.019 880.304,-245.482"/>
<polygon fill="midnightblue" stroke="midnightblue" points="877.099,-246.912 883.768,-255.145 883.688,-244.55 877.099,-246.912"/>
</g>
<!-- Node16 -->
<g id="node16" class="node"><title>Node16</title>
<g id="a_node16"><a xlink:href="namespacepsi.html#a5f3a891c486a6de00fdb7e85ce849e96" target="_top" xlink:title="Same as strncpy(), but make sure that dest ends in \0.">
<polygon fill="none" stroke="black" points="854,-99.5 854,-118.5 922,-118.5 922,-99.5 854,-99.5"/>
<text text-anchor="middle" x="888" y="-106.5" font-family="Helvetica,sans-Serif" font-size="10.00">psi::strncpy</text>
</a>
</g>
</g>
<!-- Node15&#45;&gt;Node16 -->
<g id="edge21" class="edge"><title>Node15&#45;&gt;Node16</title>
<path fill="none" stroke="midnightblue" d="M793.286,-95.9076C809.277,-98.1416 827.493,-100.686 843.585,-102.935"/>
<polygon fill="midnightblue" stroke="midnightblue" points="843.421,-106.446 853.809,-104.363 844.39,-99.513 843.421,-106.446"/>
</g>
<!-- Node15&#45;&gt;Node12 -->
<g id="edge22" class="edge"><title>Node15&#45;&gt;Node12</title>
<path fill="none" stroke="midnightblue" d="M793.286,-84.0924C802.314,-82.8312 812.051,-81.4708 821.715,-80.1207"/>
<polygon fill="midnightblue" stroke="midnightblue" points="822.307,-83.5721 831.726,-78.722 821.338,-76.6394 822.307,-83.5721"/>
</g>
<!-- Node15&#45;&gt;Node17 -->
<g id="edge23" class="edge"><title>Node15&#45;&gt;Node17</title>
<path fill="none" stroke="midnightblue" d="M770.485,-80.4005C790.502,-70.5393 822.222,-54.9128 847.514,-42.4526"/>
<polygon fill="midnightblue" stroke="midnightblue" points="849.084,-45.5808 856.508,-38.0218 845.991,-39.3014 849.084,-45.5808"/>
</g>
<!-- Node15&#45;&gt;Node13 -->
<g id="edge24" class="edge"><title>Node15&#45;&gt;Node13</title>
<path fill="none" stroke="midnightblue" d="M729.242,-99.5768C710.543,-105.774 681.751,-113.124 657.145,-118.237"/>
<polygon fill="midnightblue" stroke="midnightblue" points="656.37,-114.822 647.249,-120.214 657.741,-121.687 656.37,-114.822"/>
</g>
</g>
</svg>
        <g id="navigator" transform="translate(0 0)" fill="#404254">
                <rect fill="#f2f5e9" fill-opacity="0.5" stroke="#606060" stroke-width=".5" x="0" y="0" width="60" height="60"/>
                <use id="zoomplus" xlink:href="#zoomPlus" x="17" y="9" onmousedown="handleZoom(evt,'in')"/>
                <use id="zoomminus" xlink:href="#zoomMin" x="42" y="9" onmousedown="handleZoom(evt,'out')"/>
                <use id="reset" xlink:href="#resetDef" x="30" y="36" onmousedown="handleReset()"/>
                <g id="arrowUp" xlink:href="#dirArrow" transform="translate(30 24)" onmousedown="handlePan(0,-1)">
                  <use xlink:href="#rim" fill="#404040">
                        <set attributeName="fill" to="#808080" begin="arrowUp.mouseover" end="arrowUp.mouseout"/>
                  </use>
                  <path fill="none" stroke="white" stroke-width="1.5" d="M0,-3.0v7 M-2.5,-0.5L0,-3.0L2.5,-0.5"/>
                </g>
                <g id="arrowRight" xlink:href="#dirArrow" transform="rotate(90) translate(36 -43)" onmousedown="handlePan(1,0)">
                  <use xlink:href="#rim" fill="#404040">
                        <set attributeName="fill" to="#808080" begin="arrowRight.mouseover" end="arrowRight.mouseout"/>
                  </use>
                  <path fill="none" stroke="white" stroke-width="1.5" d="M0,-3.0v7 M-2.5,-0.5L0,-3.0L2.5,-0.5"/>
                </g>
                <g id="arrowDown" xlink:href="#dirArrow" transform="rotate(180) translate(-30 -48)" onmousedown="handlePan(0,1)">
                  <use xlink:href="#rim" fill="#404040">
                        <set attributeName="fill" to="#808080" begin="arrowDown.mouseover" end="arrowDown.mouseout"/>
                  </use>
                  <path fill="none" stroke="white" stroke-width="1.5" d="M0,-3.0v7 M-2.5,-0.5L0,-3.0L2.5,-0.5"/>
                </g>
                <g id="arrowLeft" xlink:href="#dirArrow" transform="rotate(270) translate(-36 17)" onmousedown="handlePan(-1,0)">
                  <use xlink:href="#rim" fill="#404040">
                        <set attributeName="fill" to="#808080" begin="arrowLeft.mouseover" end="arrowLeft.mouseout"/>
                  </use>
                  <path fill="none" stroke="white" stroke-width="1.5" d="M0,-3.0v7 M-2.5,-0.5L0,-3.0L2.5,-0.5"/>
                </g>
        </g>
        <svg viewBox="0 0 15 15" width="100%" height="30px" preserveAspectRatio="xMaxYMin meet">
         <g id="arrow_out" transform="scale(0.3 0.3)">
          <a xlink:href="classpsi_1_1PSIO_a20e9bd359e831a80b55ec64673394cd0_cgraph_org.svg" target="_base">
           <rect id="button" ry="5" rx="5" y="6" x="6" height="38" width="38"
                fill="#f2f5e9" fill-opacity="0.5" stroke="#606060" stroke-width="1.0"/>
           <path id="arrow"
             d="M 11.500037,31.436501 C 11.940474,20.09759 22.043105,11.32322 32.158766,21.979434 L 37.068811,17.246167 C 37.068811,17.246167 37.088388,32 37.088388,32 L 22.160133,31.978069 C 22.160133,31.978069 26.997745,27.140456 26.997745,27.140456 C 18.528582,18.264221 13.291696,25.230495 11.500037,31.436501 z"
             style="fill:#404040;"/>
          </a>
         </g>
        </svg>
</svg>
