<?xml version="1.0" encoding="UTF-8" standalone="no"?>
<!DOCTYPE svg PUBLIC "-//W3C//DTD SVG 1.1//EN"
 "http://www.w3.org/Graphics/SVG/1.1/DTD/svg11.dtd">
<!-- Generated by graphviz version 2.30.1 (20140110.0959)
 -->
<!-- Title: psi::PotentialSOInt Pages: 1 -->
<svg width="932pt" height="160pt"
 viewBox="0.00 0.00 932.00 160.00" xmlns="http://www.w3.org/2000/svg" xmlns:xlink="http://www.w3.org/1999/xlink">
<g id="graph0" class="graph" transform="scale(1 1) rotate(0) translate(4 156)">
<title>psi::PotentialSOInt</title>
<!-- Node1 -->
<g id="node1" class="node"><title>Node1</title>
<polygon fill="#bfbfbf" stroke="black" points="824.5,-59.5 824.5,-78.5 923.5,-78.5 923.5,-59.5 824.5,-59.5"/>
<text text-anchor="middle" x="874" y="-66.5" font-family="Helvetica,sans-Serif" font-size="10.00">psi::PotentialSOInt</text>
</g>
<!-- Node2 -->
<g id="node2" class="node"><title>Node2</title>
<g id="a_node2"><a xlink:href="classpsi_1_1OneBodySOInt.html" target="_top" xlink:title="psi::OneBodySOInt">
<polygon fill="none" stroke="black" points="684.5,-59.5 684.5,-78.5 785.5,-78.5 785.5,-59.5 684.5,-59.5"/>
<text text-anchor="middle" x="735" y="-66.5" font-family="Helvetica,sans-Serif" font-size="10.00">psi::OneBodySOInt</text>
</a>
</g>
</g>
<!-- Node2&#45;&gt;Node1 -->
<g id="edge1" class="edge"><title>Node2&#45;&gt;Node1</title>
<path fill="none" stroke="midnightblue" d="M796.003,-69C805.473,-69 815.163,-69 824.334,-69"/>
<polygon fill="midnightblue" stroke="midnightblue" points="795.848,-65.5001 785.848,-69 795.848,-72.5001 795.848,-65.5001"/>
</g>
<!-- Node3 -->
<g id="node3" class="node"><title>Node3</title>
<g id="a_node3"><a xlink:href="classpsi_1_1IntegralFactory.html" target="_top" xlink:title="psi::IntegralFactory">
<polygon fill="none" stroke="black" points="506.5,-98.5 506.5,-117.5 607.5,-117.5 607.5,-98.5 506.5,-98.5"/>
<text text-anchor="middle" x="557" y="-105.5" font-family="Helvetica,sans-Serif" font-size="10.00">psi::IntegralFactory</text>
</a>
</g>
</g>
<!-- Node3&#45;&gt;Node2 -->
<g id="edge2" class="edge"><title>Node3&#45;&gt;Node2</title>
<path fill="none" stroke="#9a32cd" stroke-dasharray="5,2" d="M610.98,-96.2602C636.596,-90.5839 666.942,-83.8594 691.085,-78.5095"/>
<polygon fill="#9a32cd" stroke="#9a32cd" points="610.06,-92.8789 601.054,-98.4595 611.575,-99.7131 610.06,-92.8789"/>
<text text-anchor="middle" x="646" y="-94" font-family="Helvetica,sans-Serif" font-size="10.00"> integral_</text>
</g>
<!-- Node4 -->
<g id="node4" class="node"><title>Node4</title>
<g id="a_node4"><a xlink:href="classboost_1_1shared__ptr.html" target="_top" xlink:title="boost::shared_ptr\&lt;\l psi::BasisSet \&gt;">
<polygon fill="none" stroke="black" points="258,-93 258,-123 356,-123 356,-93 258,-93"/>
<text text-anchor="start" x="266" y="-111" font-family="Helvetica,sans-Serif" font-size="10.00">boost::shared_ptr&lt;</text>
<text text-anchor="middle" x="307" y="-100" font-family="Helvetica,sans-Serif" font-size="10.00"> psi::BasisSet &gt;</text>
</a>
</g>
</g>
<!-- Node4&#45;&gt;Node3 -->
<g id="edge3" class="edge"><title>Node4&#45;&gt;Node3</title>
<path fill="none" stroke="#9a32cd" stroke-dasharray="5,2" d="M366.324,-108C408.877,-108 465.936,-108 506.324,-108"/>
<polygon fill="#9a32cd" stroke="#9a32cd" points="366.111,-104.5 356.111,-108 366.111,-111.5 366.111,-104.5"/>
<text text-anchor="middle" x="431" y="-144" font-family="Helvetica,sans-Serif" font-size="10.00"> bs4_</text>
<text text-anchor="middle" x="431" y="-133" font-family="Helvetica,sans-Serif" font-size="10.00">bs3_</text>
<text text-anchor="middle" x="431" y="-122" font-family="Helvetica,sans-Serif" font-size="10.00">bs2_</text>
<text text-anchor="middle" x="431" y="-111" font-family="Helvetica,sans-Serif" font-size="10.00">bs1_</text>
</g>
<!-- Node5 -->
<g id="node5" class="node"><title>Node5</title>
<g id="a_node5"><a xlink:href="classboost_1_1shared__ptr.html" target="_top" xlink:title="boost::shared_ptr\&lt; T \&gt;">
<polygon fill="none" stroke="black" points="0,-54.5 0,-73.5 116,-73.5 116,-54.5 0,-54.5"/>
<text text-anchor="middle" x="58" y="-61.5" font-family="Helvetica,sans-Serif" font-size="10.00">boost::shared_ptr&lt; T &gt;</text>
</a>
</g>
</g>
<!-- Node5&#45;&gt;Node4 -->
<g id="edge4" class="edge"><title>Node5&#45;&gt;Node4</title>
<path fill="none" stroke="orange" stroke-dasharray="5,2" d="M115.237,-75.4397C121.561,-76.6689 127.915,-77.8789 134,-79 175.694,-86.6824 223.225,-94.6353 257.74,-100.265"/>
<polygon fill="orange" stroke="orange" points="115.854,-71.994 105.367,-73.5021 114.505,-78.8629 115.854,-71.994"/>
<text text-anchor="middle" x="187" y="-99" font-family="Helvetica,sans-Serif" font-size="10.00"> &lt; psi::BasisSet &gt;</text>
</g>
<!-- Node6 -->
<g id="node6" class="node"><title>Node6</title>
<g id="a_node6"><a xlink:href="classboost_1_1shared__ptr.html" target="_top" xlink:title="boost::shared_ptr\&lt;\l psi::OneBodyAOInt \&gt;">
<polygon fill="none" stroke="black" points="374.5,-51 374.5,-81 487.5,-81 487.5,-51 374.5,-51"/>
<text text-anchor="start" x="382.5" y="-69" font-family="Helvetica,sans-Serif" font-size="10.00">boost::shared_ptr&lt;</text>
<text text-anchor="middle" x="431" y="-58" font-family="Helvetica,sans-Serif" font-size="10.00"> psi::OneBodyAOInt &gt;</text>
</a>
</g>
</g>
<!-- Node5&#45;&gt;Node6 -->
<g id="edge6" class="edge"><title>Node5&#45;&gt;Node6</title>
<path fill="none" stroke="orange" stroke-dasharray="5,2" d="M126.367,-63.8316C160.428,-63.7892 202.41,-63.8022 240,-64 285.193,-64.2379 336.43,-64.7939 374.299,-65.2595"/>
<polygon fill="orange" stroke="orange" points="126.059,-60.3319 116.064,-63.8463 126.069,-67.3319 126.059,-60.3319"/>
<text text-anchor="middle" x="187" y="-67" font-family="Helvetica,sans-Serif" font-size="10.00"> &lt; psi::OneBodyAOInt &gt;</text>
</g>
<!-- Node7 -->
<g id="node7" class="node"><title>Node7</title>
<g id="a_node7"><a xlink:href="classboost_1_1shared__ptr.html" target="_top" xlink:title="boost::shared_ptr\&lt;\l psi::SOBasisSet \&gt;">
<polygon fill="none" stroke="black" points="380.5,-0 380.5,-30 481.5,-30 481.5,-0 380.5,-0"/>
<text text-anchor="start" x="388.5" y="-18" font-family="Helvetica,sans-Serif" font-size="10.00">boost::shared_ptr&lt;</text>
<text text-anchor="middle" x="431" y="-7" font-family="Helvetica,sans-Serif" font-size="10.00"> psi::SOBasisSet &gt;</text>
</a>
</g>
</g>
<!-- Node5&#45;&gt;Node7 -->
<g id="edge8" class="edge"><title>Node5&#45;&gt;Node7</title>
<path fill="none" stroke="orange" stroke-dasharray="5,2" d="M113.634,-52.525C120.476,-51.2498 127.39,-50.0388 134,-49 220.231,-35.4485 321.396,-24.9891 380.337,-19.4337"/>
<polygon fill="orange" stroke="orange" points="112.869,-49.108 103.706,-54.4267 114.186,-55.983 112.869,-49.108"/>
<text text-anchor="middle" x="187" y="-52" font-family="Helvetica,sans-Serif" font-size="10.00"> &lt; psi::SOBasisSet &gt;</text>
</g>
<!-- Node6&#45;&gt;Node2 -->
<g id="edge5" class="edge"><title>Node6&#45;&gt;Node2</title>
<path fill="none" stroke="#9a32cd" stroke-dasharray="5,2" d="M497.924,-66.6549C553.959,-67.2115 633.196,-67.9986 684.092,-68.5042"/>
<polygon fill="#9a32cd" stroke="#9a32cd" points="497.778,-63.1533 487.743,-66.5537 497.708,-70.153 497.778,-63.1533"/>
<text text-anchor="middle" x="557" y="-71" font-family="Helvetica,sans-Serif" font-size="10.00"> ob_</text>
</g>
<!-- Node7&#45;&gt;Node2 -->
<g id="edge7" class="edge"><title>Node7&#45;&gt;Node2</title>
<path fill="none" stroke="#9a32cd" stroke-dasharray="5,2" d="M492.114,-22.7885C526.206,-27.4786 569.602,-33.9068 608,-41 637.087,-46.3732 669.678,-53.6496 694.425,-59.438"/>
<polygon fill="#9a32cd" stroke="#9a32cd" points="492.229,-19.2719 481.848,-21.3899 491.284,-26.2078 492.229,-19.2719"/>
<text text-anchor="middle" x="557" y="-55" font-family="Helvetica,sans-Serif" font-size="10.00"> b2_</text>
<text text-anchor="middle" x="557" y="-44" font-family="Helvetica,sans-Serif" font-size="10.00">b1_</text>
</g>
</g>
</svg>
