<?xml version="1.0" encoding="UTF-8" standalone="no"?>
<!DOCTYPE svg PUBLIC "-//W3C//DTD SVG 1.1//EN"
 "http://www.w3.org/Graphics/SVG/1.1/DTD/svg11.dtd">
<!-- Generated by graphviz version 2.30.1 (20140110.0959)
 -->
<!-- Title: psi::dftsapt::ASAPTVis Pages: 1 -->
<svg width="596pt" height="227pt"
 viewBox="0.00 0.00 596.00 227.00" xmlns="http://www.w3.org/2000/svg" xmlns:xlink="http://www.w3.org/1999/xlink">
<g id="graph0" class="graph" transform="scale(1 1) rotate(0) translate(4 223)">
<title>psi::dftsapt::ASAPTVis</title>
<!-- Node1 -->
<g id="node1" class="node"><title>Node1</title>
<polygon fill="#bfbfbf" stroke="black" points="468.5,-98.5 468.5,-117.5 587.5,-117.5 587.5,-98.5 468.5,-98.5"/>
<text text-anchor="middle" x="528" y="-105.5" font-family="Helvetica,sans-Serif" font-size="10.00">psi::dftsapt::ASAPTVis</text>
</g>
<!-- Node2 -->
<g id="node2" class="node"><title>Node2</title>
<g id="a_node2"><a xlink:href="classpsi_1_1Options.html" target="_top" xlink:title="psi::Options">
<polygon fill="none" stroke="black" points="279.5,-199.5 279.5,-218.5 348.5,-218.5 348.5,-199.5 279.5,-199.5"/>
<text text-anchor="middle" x="314" y="-206.5" font-family="Helvetica,sans-Serif" font-size="10.00">psi::Options</text>
</a>
</g>
</g>
<!-- Node2&#45;&gt;Node1 -->
<g id="edge1" class="edge"><title>Node2&#45;&gt;Node1</title>
<path fill="none" stroke="#9a32cd" stroke-dasharray="5,2" d="M358.671,-205.164C386.13,-201.366 421.606,-193.846 450,-179 479.972,-163.329 507.039,-132.949 519.6,-117.507"/>
<polygon fill="#9a32cd" stroke="#9a32cd" points="358.051,-201.714 348.571,-206.445 358.932,-208.659 358.051,-201.714"/>
<text text-anchor="middle" x="419" y="-203" font-family="Helvetica,sans-Serif" font-size="10.00"> options_</text>
</g>
<!-- Node3 -->
<g id="node3" class="node"><title>Node3</title>
<g id="a_node3"><a xlink:href="classboost_1_1shared__ptr.html" target="_top" xlink:title="boost::shared_ptr\&lt;\l psi::BasisSet \&gt;">
<polygon fill="none" stroke="black" points="265,-148 265,-178 363,-178 363,-148 265,-148"/>
<text text-anchor="start" x="273" y="-166" font-family="Helvetica,sans-Serif" font-size="10.00">boost::shared_ptr&lt;</text>
<text text-anchor="middle" x="314" y="-155" font-family="Helvetica,sans-Serif" font-size="10.00"> psi::BasisSet &gt;</text>
</a>
</g>
</g>
<!-- Node3&#45;&gt;Node1 -->
<g id="edge2" class="edge"><title>Node3&#45;&gt;Node1</title>
<path fill="none" stroke="#9a32cd" stroke-dasharray="5,2" d="M373.263,-164.416C397.465,-163.543 425.552,-160.6 450,-153 474.84,-145.278 500.238,-128.311 514.765,-117.559"/>
<polygon fill="#9a32cd" stroke="#9a32cd" points="373.059,-160.92 363.151,-164.671 373.236,-167.918 373.059,-160.92"/>
<text text-anchor="middle" x="419" y="-167" font-family="Helvetica,sans-Serif" font-size="10.00"> primary_</text>
</g>
<!-- Node4 -->
<g id="node4" class="node"><title>Node4</title>
<g id="a_node4"><a xlink:href="classboost_1_1shared__ptr.html" target="_top" xlink:title="boost::shared_ptr\&lt; T \&gt;">
<polygon fill="none" stroke="black" points="0,-78.5 0,-97.5 116,-97.5 116,-78.5 0,-78.5"/>
<text text-anchor="middle" x="58" y="-85.5" font-family="Helvetica,sans-Serif" font-size="10.00">boost::shared_ptr&lt; T &gt;</text>
</a>
</g>
</g>
<!-- Node4&#45;&gt;Node3 -->
<g id="edge3" class="edge"><title>Node4&#45;&gt;Node3</title>
<path fill="none" stroke="orange" stroke-dasharray="5,2" d="M87.474,-102.009C101.285,-108.419 118.257,-115.74 134,-121 177.444,-135.517 228.428,-146.956 264.847,-154.206"/>
<polygon fill="orange" stroke="orange" points="88.5753,-98.6583 78.0391,-97.5451 85.5815,-104.986 88.5753,-98.6583"/>
<text text-anchor="middle" x="187" y="-152" font-family="Helvetica,sans-Serif" font-size="10.00"> &lt; psi::BasisSet &gt;</text>
</g>
<!-- Node5 -->
<g id="node5" class="node"><title>Node5</title>
<g id="a_node5"><a xlink:href="classboost_1_1shared__ptr.html" target="_top" xlink:title="boost::shared_ptr\&lt;\l psi::Matrix \&gt;">
<polygon fill="none" stroke="black" points="265,-98 265,-128 363,-128 363,-98 265,-98"/>
<text text-anchor="start" x="273" y="-116" font-family="Helvetica,sans-Serif" font-size="10.00">boost::shared_ptr&lt;</text>
<text text-anchor="middle" x="314" y="-105" font-family="Helvetica,sans-Serif" font-size="10.00"> psi::Matrix &gt;</text>
</a>
</g>
</g>
<!-- Node4&#45;&gt;Node5 -->
<g id="edge5" class="edge"><title>Node4&#45;&gt;Node5</title>
<path fill="none" stroke="orange" stroke-dasharray="5,2" d="M125.956,-94.5902C169.566,-98.8824 225.444,-104.382 264.727,-108.249"/>
<polygon fill="orange" stroke="orange" points="126.297,-91.1069 116.003,-93.6105 125.612,-98.0733 126.297,-91.1069"/>
<text text-anchor="middle" x="187" y="-109" font-family="Helvetica,sans-Serif" font-size="10.00"> &lt; psi::Matrix &gt;</text>
</g>
<!-- Node6 -->
<g id="node6" class="node"><title>Node6</title>
<g id="a_node6"><a xlink:href="classboost_1_1shared__ptr.html" target="_top" xlink:title="boost::shared_ptr\&lt;\l psi::AtomicDensity \&gt;">
<polygon fill="none" stroke="black" points="258,-49 258,-79 370,-79 370,-49 258,-49"/>
<text text-anchor="start" x="266" y="-67" font-family="Helvetica,sans-Serif" font-size="10.00">boost::shared_ptr&lt;</text>
<text text-anchor="middle" x="314" y="-56" font-family="Helvetica,sans-Serif" font-size="10.00"> psi::AtomicDensity &gt;</text>
</a>
</g>
</g>
<!-- Node4&#45;&gt;Node6 -->
<g id="edge7" class="edge"><title>Node4&#45;&gt;Node6</title>
<path fill="none" stroke="orange" stroke-dasharray="5,2" d="M125.196,-77.0707C128.168,-76.6866 131.113,-76.327 134,-76 175.316,-71.3198 222.219,-68.2576 257.646,-66.3986"/>
<polygon fill="orange" stroke="orange" points="124.465,-73.638 115.03,-78.4598 125.412,-80.5736 124.465,-73.638"/>
<text text-anchor="middle" x="187" y="-79" font-family="Helvetica,sans-Serif" font-size="10.00"> &lt; psi::AtomicDensity &gt;</text>
</g>
<!-- Node7 -->
<g id="node7" class="node"><title>Node7</title>
<g id="a_node7"><a xlink:href="classboost_1_1shared__ptr.html" target="_top" xlink:title="boost::shared_ptr\&lt;\l psi::Molecule \&gt;">
<polygon fill="none" stroke="black" points="265,-0 265,-30 363,-30 363,-0 265,-0"/>
<text text-anchor="start" x="273" y="-18" font-family="Helvetica,sans-Serif" font-size="10.00">boost::shared_ptr&lt;</text>
<text text-anchor="middle" x="314" y="-7" font-family="Helvetica,sans-Serif" font-size="10.00"> psi::Molecule &gt;</text>
</a>
</g>
</g>
<!-- Node4&#45;&gt;Node7 -->
<g id="edge9" class="edge"><title>Node4&#45;&gt;Node7</title>
<path fill="none" stroke="orange" stroke-dasharray="5,2" d="M85.5138,-73.821C99.5998,-66.7555 117.393,-58.557 134,-53 177.232,-38.5337 228.241,-28.3454 264.724,-22.1845"/>
<polygon fill="orange" stroke="orange" points="83.717,-70.809 76.4144,-78.4851 86.91,-77.0383 83.717,-70.809"/>
<text text-anchor="middle" x="187" y="-56" font-family="Helvetica,sans-Serif" font-size="10.00"> &lt; psi::Molecule &gt;</text>
</g>
<!-- Node5&#45;&gt;Node1 -->
<g id="edge4" class="edge"><title>Node5&#45;&gt;Node1</title>
<path fill="none" stroke="#9a32cd" stroke-dasharray="5,2" d="M373.4,-109.553C378.337,-109.336 383.254,-109.147 388,-109 414.412,-108.182 443.661,-107.881 468.487,-107.804"/>
<polygon fill="#9a32cd" stroke="#9a32cd" points="373.109,-106.063 363.285,-110.03 373.438,-113.055 373.109,-106.063"/>
<text text-anchor="middle" x="419" y="-145" font-family="Helvetica,sans-Serif" font-size="10.00"> Q_B_</text>
<text text-anchor="middle" x="419" y="-134" font-family="Helvetica,sans-Serif" font-size="10.00">Q_A_</text>
<text text-anchor="middle" x="419" y="-123" font-family="Helvetica,sans-Serif" font-size="10.00">Locc_A_</text>
<text text-anchor="middle" x="419" y="-112" font-family="Helvetica,sans-Serif" font-size="10.00">Locc_B_</text>
</g>
<!-- Node6&#45;&gt;Node1 -->
<g id="edge6" class="edge"><title>Node6&#45;&gt;Node1</title>
<path fill="none" stroke="#9a32cd" stroke-dasharray="5,2" d="M380.31,-70.1301C402.587,-72.9014 427.535,-76.7614 450,-82 468.001,-86.1976 487.742,-92.9074 502.728,-98.4593"/>
<polygon fill="#9a32cd" stroke="#9a32cd" points="380.626,-66.643 370.281,-68.9324 379.796,-73.5936 380.626,-66.643"/>
<text text-anchor="middle" x="419" y="-96" font-family="Helvetica,sans-Serif" font-size="10.00"> atomic_B_</text>
<text text-anchor="middle" x="419" y="-85" font-family="Helvetica,sans-Serif" font-size="10.00">atomic_A_</text>
</g>
<!-- Node7&#45;&gt;Node1 -->
<g id="edge8" class="edge"><title>Node7&#45;&gt;Node1</title>
<path fill="none" stroke="#9a32cd" stroke-dasharray="5,2" d="M373.221,-22.4408C397.775,-27.0631 426.137,-34.4193 450,-46 477.793,-59.4878 504.57,-84.6602 518.019,-98.4176"/>
<polygon fill="#9a32cd" stroke="#9a32cd" points="373.768,-18.9834 363.311,-20.6821 372.545,-25.8757 373.768,-18.9834"/>
<text text-anchor="middle" x="419" y="-60" font-family="Helvetica,sans-Serif" font-size="10.00"> monomer_A_</text>
<text text-anchor="middle" x="419" y="-49" font-family="Helvetica,sans-Serif" font-size="10.00">monomer_B_</text>
</g>
</g>
</svg>
