<?xml version="1.0" encoding="UTF-8" standalone="no"?>
<!DOCTYPE svg PUBLIC "-//W3C//DTD SVG 1.1//EN"
 "http://www.w3.org/Graphics/SVG/1.1/DTD/svg11.dtd">
<!-- Generated by graphviz version 2.30.1 (20140110.0959)
 -->
<!-- Title: psi::Matrix::canonical_orthogonalization Pages: 1 -->
<svg width="532pt" height="180pt"
 viewBox="0.00 0.00 532.00 180.00" xmlns="http://www.w3.org/2000/svg" xmlns:xlink="http://www.w3.org/1999/xlink">
<g id="graph0" class="graph" transform="scale(1 1) rotate(0) translate(4 176)">
<title>psi::Matrix::canonical_orthogonalization</title>
<!-- Node1 -->
<g id="node1" class="node"><title>Node1</title>
<polygon fill="#bfbfbf" stroke="black" points="0,-90 0,-120 110,-120 110,-90 0,-90"/>
<text text-anchor="start" x="8" y="-108" font-family="Helvetica,sans-Serif" font-size="10.00">psi::Matrix::canonical</text>
<text text-anchor="middle" x="55" y="-97" font-family="Helvetica,sans-Serif" font-size="10.00">_orthogonalization</text>
</g>
<!-- Node2 -->
<g id="node2" class="node"><title>Node2</title>
<g id="a_node2"><a xlink:href="classpsi_1_1Matrix.html#a80494f2be72aace34068b8f328891ef2" target="_top" xlink:title="Creates an exact copy of the matrix and returns it.">
<polygon fill="none" stroke="black" points="159,-152.5 159,-171.5 251,-171.5 251,-152.5 159,-152.5"/>
<text text-anchor="middle" x="205" y="-159.5" font-family="Helvetica,sans-Serif" font-size="10.00">psi::Matrix::clone</text>
</a>
</g>
</g>
<!-- Node1&#45;&gt;Node2 -->
<g id="edge1" class="edge"><title>Node1&#45;&gt;Node2</title>
<path fill="none" stroke="midnightblue" d="M95.2727,-120.125C118.398,-129.032 147.375,-140.192 169.598,-148.75"/>
<polygon fill="midnightblue" stroke="midnightblue" points="168.389,-152.036 178.979,-152.363 170.905,-145.503 168.389,-152.036"/>
</g>
<!-- Node4 -->
<g id="node4" class="node"><title>Node4</title>
<g id="a_node4"><a xlink:href="classpsi_1_1Matrix.html#a6870f5e151177ed498f0b575cc44cef6" target="_top" xlink:title="psi::Matrix::diagonalize">
<polygon fill="none" stroke="black" points="146.5,-76.5 146.5,-95.5 263.5,-95.5 263.5,-76.5 146.5,-76.5"/>
<text text-anchor="middle" x="205" y="-83.5" font-family="Helvetica,sans-Serif" font-size="10.00">psi::Matrix::diagonalize</text>
</a>
</g>
</g>
<!-- Node1&#45;&gt;Node4 -->
<g id="edge3" class="edge"><title>Node1&#45;&gt;Node4</title>
<path fill="none" stroke="midnightblue" d="M110.269,-98.033C118.689,-96.952 127.477,-95.8239 136.151,-94.7103"/>
<polygon fill="midnightblue" stroke="midnightblue" points="136.78,-98.1584 146.253,-93.4135 135.889,-91.2154 136.78,-98.1584"/>
</g>
<!-- Node3 -->
<g id="node3" class="node"><title>Node3</title>
<g id="a_node3"><a xlink:href="classpsi_1_1Matrix.html#a2dba13c45127354c9f75ef576f49269b" target="_top" xlink:title="Default constructor, zeros everything out.">
<polygon fill="none" stroke="black" points="300.5,-133.5 300.5,-152.5 395.5,-152.5 395.5,-133.5 300.5,-133.5"/>
<text text-anchor="middle" x="348" y="-140.5" font-family="Helvetica,sans-Serif" font-size="10.00">psi::Matrix::Matrix</text>
</a>
</g>
</g>
<!-- Node1&#45;&gt;Node3 -->
<g id="edge10" class="edge"><title>Node1&#45;&gt;Node3</title>
<path fill="none" stroke="midnightblue" d="M110.053,-112.058C161.366,-118.759 238.197,-128.792 290.35,-135.602"/>
<polygon fill="midnightblue" stroke="midnightblue" points="290.067,-139.095 300.436,-136.92 290.974,-132.154 290.067,-139.095"/>
</g>
<!-- Node11 -->
<g id="node11" class="node"><title>Node11</title>
<g id="a_node11"><a xlink:href="group__QT.html#gafef01298916a61134e83eeb4c9649a0d" target="_top" xlink:title="psi::C_DAXPY">
<polygon fill="none" stroke="black" points="163.5,-38.5 163.5,-57.5 246.5,-57.5 246.5,-38.5 163.5,-38.5"/>
<text text-anchor="middle" x="205" y="-45.5" font-family="Helvetica,sans-Serif" font-size="10.00">psi::C_DAXPY</text>
</a>
</g>
</g>
<!-- Node1&#45;&gt;Node11 -->
<g id="edge11" class="edge"><title>Node1&#45;&gt;Node11</title>
<path fill="none" stroke="midnightblue" d="M89.922,-89.8922C106.669,-82.6351 127.256,-74.0136 146,-67 151.595,-64.9066 157.538,-62.8139 163.405,-60.8229"/>
<polygon fill="midnightblue" stroke="midnightblue" points="164.748,-64.0647 173.132,-57.5864 162.538,-57.4227 164.748,-64.0647"/>
</g>
<!-- Node2&#45;&gt;Node3 -->
<g id="edge2" class="edge"><title>Node2&#45;&gt;Node3</title>
<path fill="none" stroke="midnightblue" d="M251.001,-155.936C263.465,-154.256 277.159,-152.411 290.202,-150.654"/>
<polygon fill="midnightblue" stroke="midnightblue" points="291.043,-154.072 300.486,-149.268 290.109,-147.135 291.043,-154.072"/>
</g>
<!-- Node5 -->
<g id="node5" class="node"><title>Node5</title>
<g id="a_node5"><a xlink:href="group__CIOMR.html#ga07d6bbb5ebb9cfc28d07621acc323cf4" target="_top" xlink:title="psi::sq_rsp">
<polygon fill="none" stroke="black" points="315.5,-76.5 315.5,-95.5 380.5,-95.5 380.5,-76.5 315.5,-76.5"/>
<text text-anchor="middle" x="348" y="-83.5" font-family="Helvetica,sans-Serif" font-size="10.00">psi::sq_rsp</text>
</a>
</g>
</g>
<!-- Node4&#45;&gt;Node5 -->
<g id="edge4" class="edge"><title>Node4&#45;&gt;Node5</title>
<path fill="none" stroke="midnightblue" d="M263.757,-86C277.679,-86 292.288,-86 305.311,-86"/>
<polygon fill="midnightblue" stroke="midnightblue" points="305.373,-89.5001 315.373,-86 305.373,-82.5001 305.373,-89.5001"/>
</g>
<!-- Node6 -->
<g id="node6" class="node"><title>Node6</title>
<g id="a_node6"><a xlink:href="group__CIOMR.html#ga5342d96a20702d84857440badc8be2ec" target="_top" xlink:title="psi::block_matrix">
<polygon fill="none" stroke="black" points="432.5,-152.5 432.5,-171.5 523.5,-171.5 523.5,-152.5 432.5,-152.5"/>
<text text-anchor="middle" x="478" y="-159.5" font-family="Helvetica,sans-Serif" font-size="10.00">psi::block_matrix</text>
</a>
</g>
</g>
<!-- Node5&#45;&gt;Node6 -->
<g id="edge5" class="edge"><title>Node5&#45;&gt;Node6</title>
<path fill="none" stroke="midnightblue" d="M361.151,-95.5124C376.893,-107.557 405.47,-128.484 432,-143 435.32,-144.816 438.85,-146.577 442.415,-148.246"/>
<polygon fill="midnightblue" stroke="midnightblue" points="441.259,-151.562 451.818,-152.425 444.102,-145.165 441.259,-151.562"/>
</g>
<!-- Node7 -->
<g id="node7" class="node"><title>Node7</title>
<g id="a_node7"><a xlink:href="group__CIOMR.html#ga35255b9a71ed5869db7c1c5507923929" target="_top" xlink:title="psi::init_array">
<polygon fill="none" stroke="black" points="440.5,-114.5 440.5,-133.5 515.5,-133.5 515.5,-114.5 440.5,-114.5"/>
<text text-anchor="middle" x="478" y="-121.5" font-family="Helvetica,sans-Serif" font-size="10.00">psi::init_array</text>
</a>
</g>
</g>
<!-- Node5&#45;&gt;Node7 -->
<g id="edge6" class="edge"><title>Node5&#45;&gt;Node7</title>
<path fill="none" stroke="midnightblue" d="M380.64,-95.3933C396.978,-100.244 417.134,-106.227 434.782,-111.466"/>
<polygon fill="midnightblue" stroke="midnightblue" points="434.252,-114.96 444.834,-114.451 436.244,-108.25 434.252,-114.96"/>
</g>
<!-- Node8 -->
<g id="node8" class="node"><title>Node8</title>
<g id="a_node8"><a xlink:href="group__QT.html#gaf4f1317f08bd64d633f20935ba5d8547" target="_top" xlink:title="psi::C_DSYEV">
<polygon fill="none" stroke="black" points="436.5,-76.5 436.5,-95.5 519.5,-95.5 519.5,-76.5 436.5,-76.5"/>
<text text-anchor="middle" x="478" y="-83.5" font-family="Helvetica,sans-Serif" font-size="10.00">psi::C_DSYEV</text>
</a>
</g>
</g>
<!-- Node5&#45;&gt;Node8 -->
<g id="edge7" class="edge"><title>Node5&#45;&gt;Node8</title>
<path fill="none" stroke="midnightblue" d="M380.64,-86C394.235,-86 410.472,-86 425.708,-86"/>
<polygon fill="midnightblue" stroke="midnightblue" points="426.052,-89.5001 436.052,-86 426.052,-82.5001 426.052,-89.5001"/>
</g>
<!-- Node9 -->
<g id="node9" class="node"><title>Node9</title>
<g id="a_node9"><a xlink:href="group__QT.html#gada1f89a2db3689c3e7482ea755b49b27" target="_top" xlink:title="psi::C_DCOPY">
<polygon fill="none" stroke="black" points="436,-38.5 436,-57.5 520,-57.5 520,-38.5 436,-38.5"/>
<text text-anchor="middle" x="478" y="-45.5" font-family="Helvetica,sans-Serif" font-size="10.00">psi::C_DCOPY</text>
</a>
</g>
</g>
<!-- Node5&#45;&gt;Node9 -->
<g id="edge8" class="edge"><title>Node5&#45;&gt;Node9</title>
<path fill="none" stroke="midnightblue" d="M380.64,-76.6067C396.978,-71.7564 417.134,-65.7726 434.782,-60.5336"/>
<polygon fill="midnightblue" stroke="midnightblue" points="436.244,-63.7505 444.834,-57.5491 434.252,-57.0399 436.244,-63.7505"/>
</g>
<!-- Node10 -->
<g id="node10" class="node"><title>Node10</title>
<g id="a_node10"><a xlink:href="group__CIOMR.html#gaeb4fe42f2b28f61fece2c6d63096126e" target="_top" xlink:title="psi::free_block">
<polygon fill="none" stroke="black" points="438,-0.5 438,-19.5 518,-19.5 518,-0.5 438,-0.5"/>
<text text-anchor="middle" x="478" y="-7.5" font-family="Helvetica,sans-Serif" font-size="10.00">psi::free_block</text>
</a>
</g>
</g>
<!-- Node5&#45;&gt;Node10 -->
<g id="edge9" class="edge"><title>Node5&#45;&gt;Node10</title>
<path fill="none" stroke="midnightblue" d="M361.151,-76.4876C376.893,-64.4432 405.47,-43.5156 432,-29 435.32,-27.1835 438.85,-25.423 442.415,-23.7541"/>
<polygon fill="midnightblue" stroke="midnightblue" points="444.102,-26.8348 451.818,-19.575 441.259,-20.4382 444.102,-26.8348"/>
</g>
</g>
</svg>
