<?xml version="1.0" encoding="UTF-8" standalone="no"?>
<!DOCTYPE svg PUBLIC "-//W3C//DTD SVG 1.1//EN"
 "http://www.w3.org/Graphics/SVG/1.1/DTD/svg11.dtd">
<!-- Generated by graphviz version 2.30.1 (20140110.0959)
 -->
<!-- Title: psi::SymRep::operator() Pages: 1 -->
<svg width="382pt" height="28pt"
 viewBox="0.00 0.00 382.00 28.00" xmlns="http://www.w3.org/2000/svg" xmlns:xlink="http://www.w3.org/1999/xlink">
<g id="graph0" class="graph" transform="scale(1 1) rotate(0) translate(4 24)">
<title>psi::SymRep::operator()</title>
<!-- Node1 -->
<g id="node1" class="node"><title>Node1</title>
<polygon fill="#bfbfbf" stroke="black" points="0.5,-0.5 0.5,-19.5 121.5,-19.5 121.5,-0.5 0.5,-0.5"/>
<text text-anchor="middle" x="61" y="-7.5" font-family="Helvetica,sans-Serif" font-size="10.00">psi::SymRep::operator()</text>
</g>
<!-- Node2 -->
<g id="node2" class="node"><title>Node2</title>
<g id="a_node2"><a xlink:href="classpsi_1_1SymRep.html#ab0a318ae37e86b9a251a6fb70481c0fb" target="_top" xlink:title="Set equal to an inversion.">
<polygon fill="none" stroke="black" points="158,-0.5 158,-19.5 240,-19.5 240,-0.5 158,-0.5"/>
<text text-anchor="middle" x="199" y="-7.5" font-family="Helvetica,sans-Serif" font-size="10.00">psi::SymRep::i</text>
</a>
</g>
</g>
<!-- Node1&#45;&gt;Node2 -->
<g id="edge1" class="edge"><title>Node1&#45;&gt;Node2</title>
<path fill="none" stroke="midnightblue" d="M121.652,-10C130.379,-10 139.292,-10 147.805,-10"/>
<polygon fill="midnightblue" stroke="midnightblue" points="147.951,-13.5001 157.951,-10 147.951,-6.5001 147.951,-13.5001"/>
</g>
<!-- Node3 -->
<g id="node3" class="node"><title>Node3</title>
<g id="a_node3"><a xlink:href="classpsi_1_1SymRep.html#a65717bfd083d9b0ff288273e15fa7edc" target="_top" xlink:title="zero out the symop">
<polygon fill="none" stroke="black" points="276,-0.5 276,-19.5 374,-19.5 374,-0.5 276,-0.5"/>
<text text-anchor="middle" x="325" y="-7.5" font-family="Helvetica,sans-Serif" font-size="10.00">psi::SymRep::zero</text>
</a>
</g>
</g>
<!-- Node2&#45;&gt;Node3 -->
<g id="edge2" class="edge"><title>Node2&#45;&gt;Node3</title>
<path fill="none" stroke="midnightblue" d="M240.259,-10C248.392,-10 257.096,-10 265.704,-10"/>
<polygon fill="midnightblue" stroke="midnightblue" points="265.726,-13.5001 275.726,-10 265.725,-6.5001 265.726,-13.5001"/>
</g>
</g>
</svg>
