<?xml version="1.0" encoding="UTF-8" standalone="no"?>
<!DOCTYPE svg PUBLIC "-//W3C//DTD SVG 1.1//EN"
 "http://www.w3.org/Graphics/SVG/1.1/DTD/svg11.dtd">
<!-- Generated by graphviz version 2.30.1 (20140110.0959)
 -->
<!-- Title: psi::scf::UKS Pages: 1 -->
<svg width="179pt" height="196pt"
 viewBox="0.00 0.00 179.00 196.00" xmlns="http://www.w3.org/2000/svg" xmlns:xlink="http://www.w3.org/1999/xlink">
<g id="graph0" class="graph" transform="scale(1 1) rotate(0) translate(4 192)">
<title>psi::scf::UKS</title>
<!-- Node1 -->
<g id="node1" class="node"><title>Node1</title>
<polygon fill="#bfbfbf" stroke="black" points="54,-0.5 54,-19.5 130,-19.5 130,-0.5 54,-0.5"/>
<text text-anchor="middle" x="92" y="-7.5" font-family="Helvetica,sans-Serif" font-size="10.00">psi::scf::UKS</text>
</g>
<!-- Node2 -->
<g id="node2" class="node"><title>Node2</title>
<g id="a_node2"><a xlink:href="classpsi_1_1scf_1_1UHF.html" target="_top" xlink:title="psi::scf::UHF">
<polygon fill="none" stroke="black" points="9,-56.5 9,-75.5 85,-75.5 85,-56.5 9,-56.5"/>
<text text-anchor="middle" x="47" y="-63.5" font-family="Helvetica,sans-Serif" font-size="10.00">psi::scf::UHF</text>
</a>
</g>
</g>
<!-- Node2&#45;&gt;Node1 -->
<g id="edge1" class="edge"><title>Node2&#45;&gt;Node1</title>
<path fill="none" stroke="midnightblue" d="M61.0467,-48.144C68.8869,-38.7357 78.3295,-27.4046 84.7074,-19.7511"/>
<polygon fill="midnightblue" stroke="midnightblue" points="58.1439,-46.1601 54.4308,-56.083 63.5215,-50.6414 58.1439,-46.1601"/>
</g>
<!-- Node3 -->
<g id="node3" class="node"><title>Node3</title>
<g id="a_node3"><a xlink:href="classpsi_1_1scf_1_1HF.html" target="_top" xlink:title="psi::scf::HF">
<polygon fill="none" stroke="black" points="13,-112.5 13,-131.5 81,-131.5 81,-112.5 13,-112.5"/>
<text text-anchor="middle" x="47" y="-119.5" font-family="Helvetica,sans-Serif" font-size="10.00">psi::scf::HF</text>
</a>
</g>
</g>
<!-- Node3&#45;&gt;Node2 -->
<g id="edge2" class="edge"><title>Node3&#45;&gt;Node2</title>
<path fill="none" stroke="midnightblue" d="M47,-101.805C47,-92.9102 47,-82.7798 47,-75.7511"/>
<polygon fill="midnightblue" stroke="midnightblue" points="43.5001,-102.083 47,-112.083 50.5001,-102.083 43.5001,-102.083"/>
</g>
<!-- Node4 -->
<g id="node4" class="node"><title>Node4</title>
<g id="a_node4"><a xlink:href="classpsi_1_1Wavefunction.html" target="_top" xlink:title="Simple wavefunction base class.">
<polygon fill="none" stroke="black" points="-0.5,-168.5 -0.5,-187.5 94.5,-187.5 94.5,-168.5 -0.5,-168.5"/>
<text text-anchor="middle" x="47" y="-175.5" font-family="Helvetica,sans-Serif" font-size="10.00">psi::Wavefunction</text>
</a>
</g>
</g>
<!-- Node4&#45;&gt;Node3 -->
<g id="edge3" class="edge"><title>Node4&#45;&gt;Node3</title>
<path fill="none" stroke="midnightblue" d="M47,-157.805C47,-148.91 47,-138.78 47,-131.751"/>
<polygon fill="midnightblue" stroke="midnightblue" points="43.5001,-158.083 47,-168.083 50.5001,-158.083 43.5001,-158.083"/>
</g>
<!-- Node5 -->
<g id="node5" class="node"><title>Node5</title>
<g id="a_node5"><a xlink:href="classpsi_1_1scf_1_1KS.html" target="_top" xlink:title="psi::scf::KS">
<polygon fill="none" stroke="black" points="103,-56.5 103,-75.5 171,-75.5 171,-56.5 103,-56.5"/>
<text text-anchor="middle" x="137" y="-63.5" font-family="Helvetica,sans-Serif" font-size="10.00">psi::scf::KS</text>
</a>
</g>
</g>
<!-- Node5&#45;&gt;Node1 -->
<g id="edge4" class="edge"><title>Node5&#45;&gt;Node1</title>
<path fill="none" stroke="midnightblue" d="M122.953,-48.144C115.113,-38.7357 105.671,-27.4046 99.2926,-19.7511"/>
<polygon fill="midnightblue" stroke="midnightblue" points="120.479,-50.6414 129.569,-56.083 125.856,-46.1601 120.479,-50.6414"/>
</g>
</g>
</svg>
