<?xml version="1.0" encoding="UTF-8" standalone="no"?>
<!DOCTYPE svg PUBLIC "-//W3C//DTD SVG 1.1//EN"
 "http://www.w3.org/Graphics/SVG/1.1/DTD/svg11.dtd">
<!-- Generated by graphviz version 2.30.1 (20140110.0959)
 -->
<!-- Title: psi::Matrix::set Pages: 1 -->
<!--zoomable 150 -->
<svg id="main" version="1.1" xmlns="http://www.w3.org/2000/svg" xmlns:xlink="http://www.w3.org/1999/xlink" xml:space="preserve" onload="init(evt)">
        <defs>
                <circle id="rim" cx="0" cy="0" r="7"/>
                <circle id="rim2" cx="0" cy="0" r="3.5"/>
                <g id="zoomPlus">
                        <use xlink:href="#rim" fill="#404040">
                                <set attributeName="fill" to="#808080" begin="zoomplus.mouseover" end="zoomplus.mouseout"/>
                        </use>
                        <path d="M-4,0h8M0,-4v8" fill="none" stroke="white" stroke-width="1.5" pointer-events="none"/>
                </g>
                <g id="zoomMin">
                        <use xlink:href="#rim" fill="#404040">
                                <set attributeName="fill" to="#808080" begin="zoomminus.mouseover" end="zoomminus.mouseout"/>
                        </use>
                        <path d="M-4,0h8" fill="none" stroke="white" stroke-width="1.5" pointer-events="none"/>
                </g>
                <g id="dirArrow">
                        <path fill="none" stroke="white" stroke-width="1.5" d="M0,-3.0v7 M-2.5,-0.5L0,-3.0L2.5,-0.5"/>
                </g>
               <g id="resetDef">
                       <use xlink:href="#rim2" fill="#404040">
                               <set attributeName="fill" to="#808080" begin="reset.mouseover" end="reset.mouseout"/>
                       </use>
               </g>
        </defs>

<script type="text/javascript">
var viewWidth = 990;
var viewHeight = 150;
var sectionId = 'dynsection-56';
</script>
<script xlink:href="svgpan.js"/>
<svg id="graph" class="graph">
<g id="viewport">
<title>psi::Matrix::set</title>
<!-- Node1 -->
<g id="node1" class="node"><title>Node1</title>
<polygon fill="#bfbfbf" stroke="black" points="0,-81.5 0,-100.5 82,-100.5 82,-81.5 0,-81.5"/>
<text text-anchor="middle" x="41" y="-88.5" font-family="Helvetica,sans-Serif" font-size="10.00">psi::Matrix::set</text>
</g>
<!-- Node2 -->
<g id="node2" class="node"><title>Node2</title>
<g id="a_node2"><a xlink:href="classpsi_1_1dcft_1_1DCFTSolver.html#a337ae732f43f20d9bdd9c7efb1186a06" target="_top" xlink:title="psi::dcft::DCFTSolver\l::dump_density">
<polygon fill="none" stroke="black" points="118.5,-101 118.5,-131 231.5,-131 231.5,-101 118.5,-101"/>
<text text-anchor="start" x="126.5" y="-119" font-family="Helvetica,sans-Serif" font-size="10.00">psi::dcft::DCFTSolver</text>
<text text-anchor="middle" x="175" y="-108" font-family="Helvetica,sans-Serif" font-size="10.00">::dump_density</text>
</a>
</g>
</g>
<!-- Node1&#45;&gt;Node2 -->
<g id="edge1" class="edge"><title>Node1&#45;&gt;Node2</title>
<path fill="none" stroke="midnightblue" d="M92.1659,-100.501C100.732,-102.123 109.675,-103.817 118.373,-105.465"/>
<polygon fill="midnightblue" stroke="midnightblue" points="92.7983,-97.0587 82.3216,-98.6367 91.4956,-103.936 92.7983,-97.0587"/>
</g>
<!-- Node3 -->
<g id="node3" class="node"><title>Node3</title>
<g id="a_node3"><a xlink:href="classpsi_1_1Molecule.html#aa979dfa6b527fda2226e56b95db4ace6" target="_top" xlink:title="Compute inertia tensor.">
<polygon fill="none" stroke="black" points="121.5,-52 121.5,-82 228.5,-82 228.5,-52 121.5,-52"/>
<text text-anchor="start" x="129.5" y="-70" font-family="Helvetica,sans-Serif" font-size="10.00">psi::Molecule::inertia</text>
<text text-anchor="middle" x="175" y="-59" font-family="Helvetica,sans-Serif" font-size="10.00">_tensor</text>
</a>
</g>
</g>
<!-- Node1&#45;&gt;Node3 -->
<g id="edge2" class="edge"><title>Node1&#45;&gt;Node3</title>
<path fill="none" stroke="midnightblue" d="M92.367,-81.8424C101.826,-80.1226 111.739,-78.3202 121.267,-76.5878"/>
<polygon fill="midnightblue" stroke="midnightblue" points="91.5342,-78.4363 82.3216,-83.6688 92.7864,-85.3234 91.5342,-78.4363"/>
</g>
<!-- Node4 -->
<g id="node4" class="node"><title>Node4</title>
<g id="a_node4"><a xlink:href="classpsi_1_1Molecule.html#aef9abf2cdcbb0d936dfb99e4895de677" target="_top" xlink:title="Compute the rotational constants and return them in wavenumbers.">
<polygon fill="none" stroke="black" points="268,-74 268,-104 388,-104 388,-74 268,-74"/>
<text text-anchor="start" x="276" y="-92" font-family="Helvetica,sans-Serif" font-size="10.00">psi::Molecule::rotational</text>
<text text-anchor="middle" x="328" y="-81" font-family="Helvetica,sans-Serif" font-size="10.00">_constants</text>
</a>
</g>
</g>
<!-- Node3&#45;&gt;Node4 -->
<g id="edge3" class="edge"><title>Node3&#45;&gt;Node4</title>
<path fill="none" stroke="midnightblue" d="M239.009,-76.1802C248.532,-77.5676 258.328,-78.9948 267.768,-80.3701"/>
<polygon fill="midnightblue" stroke="midnightblue" points="239.213,-72.6729 228.812,-74.6945 238.203,-79.5998 239.213,-72.6729"/>
</g>
<!-- Node7 -->
<g id="node7" class="node"><title>Node7</title>
<g id="a_node7"><a xlink:href="classpsi_1_1Molecule.html#a7ab70257e73005b1bfeec7b6ff62b8ce" target="_top" xlink:title="Determine and set FULL point group.">
<polygon fill="none" stroke="black" points="584,-49 584,-79 678,-79 678,-49 584,-49"/>
<text text-anchor="start" x="592" y="-67" font-family="Helvetica,sans-Serif" font-size="10.00">psi::Molecule::set</text>
<text text-anchor="middle" x="631" y="-56" font-family="Helvetica,sans-Serif" font-size="10.00">_full_point_group</text>
</a>
</g>
</g>
<!-- Node3&#45;&gt;Node7 -->
<g id="edge11" class="edge"><title>Node3&#45;&gt;Node7</title>
<path fill="none" stroke="midnightblue" d="M238.658,-64.683C248.477,-64.3989 258.513,-64.1546 268,-64 381.581,-62.1486 515.235,-62.9116 583.995,-63.5201"/>
<polygon fill="midnightblue" stroke="midnightblue" points="238.425,-61.1883 228.536,-64.9913 238.638,-68.1851 238.425,-61.1883"/>
</g>
<!-- Node5 -->
<g id="node5" class="node"><title>Node5</title>
<g id="a_node5"><a xlink:href="classpsi_1_1Molecule.html#aadbf56f418f67bf53d36d2d467cb9819" target="_top" xlink:title="Print the rotational constants.">
<polygon fill="none" stroke="black" points="431,-112 431,-142 541,-142 541,-112 431,-112"/>
<text text-anchor="start" x="439" y="-130" font-family="Helvetica,sans-Serif" font-size="10.00">psi::Molecule::print</text>
<text text-anchor="middle" x="486" y="-119" font-family="Helvetica,sans-Serif" font-size="10.00">_rotational_constants</text>
</a>
</g>
</g>
<!-- Node4&#45;&gt;Node5 -->
<g id="edge4" class="edge"><title>Node4&#45;&gt;Node5</title>
<path fill="none" stroke="midnightblue" d="M398.344,-105.891C409.244,-108.547 420.373,-111.258 430.865,-113.813"/>
<polygon fill="midnightblue" stroke="midnightblue" points="398.966,-102.441 388.422,-103.475 397.309,-109.242 398.966,-102.441"/>
</g>
<!-- Node6 -->
<g id="node6" class="node"><title>Node6</title>
<g id="a_node6"><a xlink:href="classpsi_1_1Molecule.html#a7edac86cff15a02238f7ac85771b9e57" target="_top" xlink:title="Return the rotor type.">
<polygon fill="none" stroke="black" points="424,-73.5 424,-92.5 548,-92.5 548,-73.5 424,-73.5"/>
<text text-anchor="middle" x="486" y="-80.5" font-family="Helvetica,sans-Serif" font-size="10.00">psi::Molecule::rotor_type</text>
</a>
</g>
</g>
<!-- Node4&#45;&gt;Node6 -->
<g id="edge5" class="edge"><title>Node4&#45;&gt;Node6</title>
<path fill="none" stroke="midnightblue" d="M398.622,-86.3222C407.06,-85.9977 415.63,-85.6681 423.931,-85.3488"/>
<polygon fill="midnightblue" stroke="midnightblue" points="398.28,-82.8327 388.422,-86.7145 398.549,-89.8275 398.28,-82.8327"/>
</g>
<!-- Node6&#45;&gt;Node7 -->
<g id="edge6" class="edge"><title>Node6&#45;&gt;Node7</title>
<path fill="none" stroke="midnightblue" d="M558.244,-73.534C566.948,-72.3776 575.656,-71.2205 583.854,-70.1313"/>
<polygon fill="midnightblue" stroke="midnightblue" points="557.512,-70.1005 548.06,-74.8872 558.434,-77.0395 557.512,-70.1005"/>
</g>
<!-- Node8 -->
<g id="node8" class="node"><title>Node8</title>
<g id="a_node8"><a xlink:href="classpsi_1_1Molecule.html#a4d56f5d4df0ad9c8dbe934fed5eb95fe" target="_top" xlink:title="psi::Molecule::update\l_geometry">
<polygon fill="none" stroke="black" points="714,-49 714,-79 824,-79 824,-49 714,-49"/>
<text text-anchor="start" x="722" y="-67" font-family="Helvetica,sans-Serif" font-size="10.00">psi::Molecule::update</text>
<text text-anchor="middle" x="769" y="-56" font-family="Helvetica,sans-Serif" font-size="10.00">_geometry</text>
</a>
</g>
</g>
<!-- Node7&#45;&gt;Node8 -->
<g id="edge7" class="edge"><title>Node7&#45;&gt;Node8</title>
<path fill="none" stroke="midnightblue" d="M688.129,-64C696.528,-64 705.177,-64 713.541,-64"/>
<polygon fill="midnightblue" stroke="midnightblue" points="688.043,-60.5001 678.043,-64 688.043,-67.5001 688.043,-60.5001"/>
</g>
<!-- Node9 -->
<g id="node9" class="node"><title>Node9</title>
<g id="a_node9"><a xlink:href="classpsi_1_1Molecule.html#a9b74dcafc595d01654c754f1cedc437b" target="_top" xlink:title="psi::Molecule::operator=">
<polygon fill="none" stroke="black" points="860,-98.5 860,-117.5 982,-117.5 982,-98.5 860,-98.5"/>
<text text-anchor="middle" x="921" y="-105.5" font-family="Helvetica,sans-Serif" font-size="10.00">psi::Molecule::operator=</text>
</a>
</g>
</g>
<!-- Node8&#45;&gt;Node9 -->
<g id="edge8" class="edge"><title>Node8&#45;&gt;Node9</title>
<path fill="none" stroke="midnightblue" d="M830.859,-81.8521C850.184,-87.5207 870.809,-93.5705 887.347,-98.4217"/>
<polygon fill="midnightblue" stroke="midnightblue" points="831.783,-78.4756 821.202,-79.0192 829.812,-85.1925 831.783,-78.4756"/>
</g>
<!-- Node10 -->
<g id="node10" class="node"><title>Node10</title>
<g id="a_node10"><a xlink:href="classpsi_1_1Molecule.html#a3a01cd28c0f2d2ef6fe7a24214f69a62" target="_top" xlink:title="psi::Molecule::init\l_with_xyz">
<polygon fill="none" stroke="black" points="874.5,-49 874.5,-79 967.5,-79 967.5,-49 874.5,-49"/>
<text text-anchor="start" x="882.5" y="-67" font-family="Helvetica,sans-Serif" font-size="10.00">psi::Molecule::init</text>
<text text-anchor="middle" x="921" y="-56" font-family="Helvetica,sans-Serif" font-size="10.00">_with_xyz</text>
</a>
</g>
</g>
<!-- Node8&#45;&gt;Node10 -->
<g id="edge9" class="edge"><title>Node8&#45;&gt;Node10</title>
<path fill="none" stroke="midnightblue" d="M834.327,-64C847.788,-64 861.718,-64 874.333,-64"/>
<polygon fill="midnightblue" stroke="midnightblue" points="834.153,-60.5001 824.153,-64 834.153,-67.5001 834.153,-60.5001"/>
</g>
<!-- Node11 -->
<g id="node11" class="node"><title>Node11</title>
<g id="a_node11"><a xlink:href="classpsi_1_1Molecule.html#a05631379d8f4e0b995636c5ffad43d96" target="_top" xlink:title="psi::Molecule::set\l_variable">
<polygon fill="none" stroke="black" points="874,-0 874,-30 968,-30 968,-0 874,-0"/>
<text text-anchor="start" x="882" y="-18" font-family="Helvetica,sans-Serif" font-size="10.00">psi::Molecule::set</text>
<text text-anchor="middle" x="921" y="-7" font-family="Helvetica,sans-Serif" font-size="10.00">_variable</text>
</a>
</g>
</g>
<!-- Node8&#45;&gt;Node11 -->
<g id="edge10" class="edge"><title>Node8&#45;&gt;Node11</title>
<path fill="none" stroke="midnightblue" d="M825.895,-45.7409C841.716,-40.5727 858.752,-35.0076 873.924,-30.0516"/>
<polygon fill="midnightblue" stroke="midnightblue" points="824.648,-42.4663 816.229,-48.8986 826.821,-49.1203 824.648,-42.4663"/>
</g>
</g>
</svg>
        <g id="navigator" transform="translate(0 0)" fill="#404254">
                <rect fill="#f2f5e9" fill-opacity="0.5" stroke="#606060" stroke-width=".5" x="0" y="0" width="60" height="60"/>
                <use id="zoomplus" xlink:href="#zoomPlus" x="17" y="9" onmousedown="handleZoom(evt,'in')"/>
                <use id="zoomminus" xlink:href="#zoomMin" x="42" y="9" onmousedown="handleZoom(evt,'out')"/>
                <use id="reset" xlink:href="#resetDef" x="30" y="36" onmousedown="handleReset()"/>
                <g id="arrowUp" xlink:href="#dirArrow" transform="translate(30 24)" onmousedown="handlePan(0,-1)">
                  <use xlink:href="#rim" fill="#404040">
                        <set attributeName="fill" to="#808080" begin="arrowUp.mouseover" end="arrowUp.mouseout"/>
                  </use>
                  <path fill="none" stroke="white" stroke-width="1.5" d="M0,-3.0v7 M-2.5,-0.5L0,-3.0L2.5,-0.5"/>
                </g>
                <g id="arrowRight" xlink:href="#dirArrow" transform="rotate(90) translate(36 -43)" onmousedown="handlePan(1,0)">
                  <use xlink:href="#rim" fill="#404040">
                        <set attributeName="fill" to="#808080" begin="arrowRight.mouseover" end="arrowRight.mouseout"/>
                  </use>
                  <path fill="none" stroke="white" stroke-width="1.5" d="M0,-3.0v7 M-2.5,-0.5L0,-3.0L2.5,-0.5"/>
                </g>
                <g id="arrowDown" xlink:href="#dirArrow" transform="rotate(180) translate(-30 -48)" onmousedown="handlePan(0,1)">
                  <use xlink:href="#rim" fill="#404040">
                        <set attributeName="fill" to="#808080" begin="arrowDown.mouseover" end="arrowDown.mouseout"/>
                  </use>
                  <path fill="none" stroke="white" stroke-width="1.5" d="M0,-3.0v7 M-2.5,-0.5L0,-3.0L2.5,-0.5"/>
                </g>
                <g id="arrowLeft" xlink:href="#dirArrow" transform="rotate(270) translate(-36 17)" onmousedown="handlePan(-1,0)">
                  <use xlink:href="#rim" fill="#404040">
                        <set attributeName="fill" to="#808080" begin="arrowLeft.mouseover" end="arrowLeft.mouseout"/>
                  </use>
                  <path fill="none" stroke="white" stroke-width="1.5" d="M0,-3.0v7 M-2.5,-0.5L0,-3.0L2.5,-0.5"/>
                </g>
        </g>
        <svg viewBox="0 0 15 15" width="100%" height="30px" preserveAspectRatio="xMaxYMin meet">
         <g id="arrow_out" transform="scale(0.3 0.3)">
          <a xlink:href="classpsi_1_1Matrix_ac41183edf9e5a7903d2301e68bee3fd9_icgraph_org.svg" target="_base">
           <rect id="button" ry="5" rx="5" y="6" x="6" height="38" width="38"
                fill="#f2f5e9" fill-opacity="0.5" stroke="#606060" stroke-width="1.0"/>
           <path id="arrow"
             d="M 11.500037,31.436501 C 11.940474,20.09759 22.043105,11.32322 32.158766,21.979434 L 37.068811,17.246167 C 37.068811,17.246167 37.088388,32 37.088388,32 L 22.160133,31.978069 C 22.160133,31.978069 26.997745,27.140456 26.997745,27.140456 C 18.528582,18.264221 13.291696,25.230495 11.500037,31.436501 z"
             style="fill:#404040;"/>
          </a>
         </g>
        </svg>
</svg>
