<?xml version="1.0" encoding="UTF-8" standalone="no"?>
<!DOCTYPE svg PUBLIC "-//W3C//DTD SVG 1.1//EN"
 "http://www.w3.org/Graphics/SVG/1.1/DTD/svg11.dtd">
<!-- Generated by graphviz version 2.30.1 (20140110.0959)
 -->
<!-- Title: psi::LaplaceDenom Pages: 1 -->
<svg width="222pt" height="186pt"
 viewBox="0.00 0.00 222.00 186.00" xmlns="http://www.w3.org/2000/svg" xmlns:xlink="http://www.w3.org/1999/xlink">
<g id="graph0" class="graph" transform="scale(1 1) rotate(0) translate(4 182)">
<title>psi::LaplaceDenom</title>
<!-- Node1 -->
<g id="node1" class="node"><title>Node1</title>
<polygon fill="#bfbfbf" stroke="black" points="43.5,-0.5 43.5,-19.5 144.5,-19.5 144.5,-0.5 43.5,-0.5"/>
<text text-anchor="middle" x="94" y="-7.5" font-family="Helvetica,sans-Serif" font-size="10.00">psi::LaplaceDenom</text>
</g>
<!-- Node2 -->
<g id="node2" class="node"><title>Node2</title>
<g id="a_node2"><a xlink:href="classboost_1_1shared__ptr.html" target="_top" xlink:title="boost::shared_ptr\&lt;\l psi::Tensor \&gt;">
<polygon fill="none" stroke="black" points="0,-79 0,-109 98,-109 98,-79 0,-79"/>
<text text-anchor="start" x="8" y="-97" font-family="Helvetica,sans-Serif" font-size="10.00">boost::shared_ptr&lt;</text>
<text text-anchor="middle" x="49" y="-86" font-family="Helvetica,sans-Serif" font-size="10.00"> psi::Tensor &gt;</text>
</a>
</g>
</g>
<!-- Node2&#45;&gt;Node1 -->
<g id="edge1" class="edge"><title>Node2&#45;&gt;Node1</title>
<path fill="none" stroke="#9a32cd" stroke-dasharray="5,2" d="M61.8735,-69.5417C71.0437,-52.8316 82.8429,-31.3307 89.2851,-19.5915"/>
<polygon fill="#9a32cd" stroke="#9a32cd" points="58.5811,-68.2661 56.8384,-78.7167 64.7178,-71.6339 58.5811,-68.2661"/>
<text text-anchor="middle" x="100.5" y="-52" font-family="Helvetica,sans-Serif" font-size="10.00"> tau_occ_</text>
<text text-anchor="middle" x="100.5" y="-41" font-family="Helvetica,sans-Serif" font-size="10.00">tau_vir_</text>
</g>
<!-- Node3 -->
<g id="node3" class="node"><title>Node3</title>
<g id="a_node3"><a xlink:href="classboost_1_1shared__ptr.html" target="_top" xlink:title="boost::shared_ptr\&lt; T \&gt;">
<polygon fill="none" stroke="black" points="51,-158.5 51,-177.5 167,-177.5 167,-158.5 51,-158.5"/>
<text text-anchor="middle" x="109" y="-165.5" font-family="Helvetica,sans-Serif" font-size="10.00">boost::shared_ptr&lt; T &gt;</text>
</a>
</g>
</g>
<!-- Node3&#45;&gt;Node2 -->
<g id="edge2" class="edge"><title>Node3&#45;&gt;Node2</title>
<path fill="none" stroke="orange" stroke-dasharray="5,2" d="M75.8398,-153.691C69.8632,-150.018 64.2053,-145.492 60,-140 53.2527,-131.188 50.5834,-118.8 49.5561,-109.252"/>
<polygon fill="orange" stroke="orange" points="74.2307,-156.8 84.6925,-158.473 77.558,-150.641 74.2307,-156.8"/>
<text text-anchor="middle" x="95" y="-131.5" font-family="Helvetica,sans-Serif" font-size="10.00"> &lt; psi::Tensor &gt;</text>
</g>
<!-- Node4 -->
<g id="node4" class="node"><title>Node4</title>
<g id="a_node4"><a xlink:href="classboost_1_1shared__ptr.html" target="_top" xlink:title="boost::shared_ptr\&lt;\l psi::Vector \&gt;">
<polygon fill="none" stroke="black" points="116,-79 116,-109 214,-109 214,-79 116,-79"/>
<text text-anchor="start" x="124" y="-97" font-family="Helvetica,sans-Serif" font-size="10.00">boost::shared_ptr&lt;</text>
<text text-anchor="middle" x="165" y="-86" font-family="Helvetica,sans-Serif" font-size="10.00"> psi::Vector &gt;</text>
</a>
</g>
</g>
<!-- Node3&#45;&gt;Node4 -->
<g id="edge4" class="edge"><title>Node3&#45;&gt;Node4</title>
<path fill="none" stroke="orange" stroke-dasharray="5,2" d="M124.725,-150.771C127.89,-147.297 131.125,-143.591 134,-140 141.945,-130.076 150.066,-118.212 156.002,-109.158"/>
<polygon fill="orange" stroke="orange" points="121.96,-148.602 117.667,-158.288 127.064,-153.393 121.96,-148.602"/>
<text text-anchor="middle" x="177.5" y="-131.5" font-family="Helvetica,sans-Serif" font-size="10.00"> &lt; psi::Vector &gt;</text>
</g>
<!-- Node4&#45;&gt;Node1 -->
<g id="edge3" class="edge"><title>Node4&#45;&gt;Node1</title>
<path fill="none" stroke="#9a32cd" stroke-dasharray="5,2" d="M150.735,-70.2007C143.824,-59.9037 135.068,-47.8644 126,-38 119.802,-31.2574 111.953,-24.6113 105.58,-19.6001"/>
<polygon fill="#9a32cd" stroke="#9a32cd" points="147.891,-72.2482 156.293,-78.7026 153.75,-68.4175 147.891,-72.2482"/>
<text text-anchor="middle" x="164.5" y="-52" font-family="Helvetica,sans-Serif" font-size="10.00"> eps_vir_</text>
<text text-anchor="middle" x="164.5" y="-41" font-family="Helvetica,sans-Serif" font-size="10.00">eps_occ_</text>
</g>
</g>
</svg>
