<?xml version="1.0" encoding="UTF-8" standalone="no"?>
<!DOCTYPE svg PUBLIC "-//W3C//DTD SVG 1.1//EN"
 "http://www.w3.org/Graphics/SVG/1.1/DTD/svg11.dtd">
<!-- Generated by graphviz version 2.30.1 (20140110.0959)
 -->
<!-- Title: psi::IrreducibleRepresentation::character Pages: 1 -->
<svg width="544pt" height="38pt"
 viewBox="0.00 0.00 544.00 38.00" xmlns="http://www.w3.org/2000/svg" xmlns:xlink="http://www.w3.org/1999/xlink">
<g id="graph0" class="graph" transform="scale(1 1) rotate(0) translate(4 34)">
<title>psi::IrreducibleRepresentation::character</title>
<!-- Node1 -->
<g id="node1" class="node"><title>Node1</title>
<polygon fill="#bfbfbf" stroke="black" points="0,-0 0,-30 146,-30 146,-0 0,-0"/>
<text text-anchor="start" x="8" y="-18" font-family="Helvetica,sans-Serif" font-size="10.00">psi::IrreducibleRepresentation</text>
<text text-anchor="middle" x="73" y="-7" font-family="Helvetica,sans-Serif" font-size="10.00">::character</text>
</g>
<!-- Node2 -->
<g id="node2" class="node"><title>Node2</title>
<g id="a_node2"><a xlink:href="classpsi_1_1SymRep.html#a3e5c332f13c5ac88771db4945c751be0" target="_top" xlink:title="returns the trace of the transformation matrix">
<polygon fill="none" stroke="black" points="182.5,-5.5 182.5,-24.5 283.5,-24.5 283.5,-5.5 182.5,-5.5"/>
<text text-anchor="middle" x="233" y="-12.5" font-family="Helvetica,sans-Serif" font-size="10.00">psi::SymRep::trace</text>
</a>
</g>
</g>
<!-- Node1&#45;&gt;Node2 -->
<g id="edge1" class="edge"><title>Node1&#45;&gt;Node2</title>
<path fill="none" stroke="midnightblue" d="M146.065,-15C154.744,-15 163.536,-15 172.017,-15"/>
<polygon fill="midnightblue" stroke="midnightblue" points="172.179,-18.5001 182.179,-15 172.179,-11.5001 172.179,-18.5001"/>
</g>
<!-- Node3 -->
<g id="node3" class="node"><title>Node3</title>
<g id="a_node3"><a xlink:href="classpsi_1_1SymRep.html#ab0a318ae37e86b9a251a6fb70481c0fb" target="_top" xlink:title="Set equal to an inversion.">
<polygon fill="none" stroke="black" points="320,-5.5 320,-24.5 402,-24.5 402,-5.5 320,-5.5"/>
<text text-anchor="middle" x="361" y="-12.5" font-family="Helvetica,sans-Serif" font-size="10.00">psi::SymRep::i</text>
</a>
</g>
</g>
<!-- Node2&#45;&gt;Node3 -->
<g id="edge2" class="edge"><title>Node2&#45;&gt;Node3</title>
<path fill="none" stroke="midnightblue" d="M283.799,-15C292.308,-15 301.153,-15 309.676,-15"/>
<polygon fill="midnightblue" stroke="midnightblue" points="309.868,-18.5001 319.868,-15 309.868,-11.5001 309.868,-18.5001"/>
</g>
<!-- Node4 -->
<g id="node4" class="node"><title>Node4</title>
<g id="a_node4"><a xlink:href="classpsi_1_1SymRep.html#a65717bfd083d9b0ff288273e15fa7edc" target="_top" xlink:title="zero out the symop">
<polygon fill="none" stroke="black" points="438,-5.5 438,-24.5 536,-24.5 536,-5.5 438,-5.5"/>
<text text-anchor="middle" x="487" y="-12.5" font-family="Helvetica,sans-Serif" font-size="10.00">psi::SymRep::zero</text>
</a>
</g>
</g>
<!-- Node3&#45;&gt;Node4 -->
<g id="edge3" class="edge"><title>Node3&#45;&gt;Node4</title>
<path fill="none" stroke="midnightblue" d="M402.259,-15C410.392,-15 419.096,-15 427.704,-15"/>
<polygon fill="midnightblue" stroke="midnightblue" points="427.726,-18.5001 437.726,-15 427.725,-11.5001 427.726,-18.5001"/>
</g>
</g>
</svg>
