<?xml version="1.0" encoding="UTF-8" standalone="no"?>
<!DOCTYPE svg PUBLIC "-//W3C//DTD SVG 1.1//EN"
 "http://www.w3.org/Graphics/SVG/1.1/DTD/svg11.dtd">
<!-- Generated by graphviz version 2.30.1 (20140110.0959)
 -->
<!-- Title: yeti::ThreadLock Pages: 1 -->
<svg width="356pt" height="212pt"
 viewBox="0.00 0.00 356.00 212.00" xmlns="http://www.w3.org/2000/svg" xmlns:xlink="http://www.w3.org/1999/xlink">
<g id="graph0" class="graph" transform="scale(1 1) rotate(0) translate(4 208)">
<title>yeti::ThreadLock</title>
<!-- Node1 -->
<g id="node1" class="node"><title>Node1</title>
<polygon fill="#bfbfbf" stroke="black" points="137.5,-58.5 137.5,-77.5 226.5,-77.5 226.5,-58.5 137.5,-58.5"/>
<text text-anchor="middle" x="182" y="-65.5" font-family="Helvetica,sans-Serif" font-size="10.00">yeti::ThreadLock</text>
</g>
<!-- Node4 -->
<g id="node4" class="node"><title>Node4</title>
<g id="a_node4"><a xlink:href="classyeti_1_1MultiThreadLock.html" target="_top" xlink:title="yeti::MultiThreadLock">
<polygon fill="none" stroke="black" points="0,-0.5 0,-19.5 110,-19.5 110,-0.5 0,-0.5"/>
<text text-anchor="middle" x="55" y="-7.5" font-family="Helvetica,sans-Serif" font-size="10.00">yeti::MultiThreadLock</text>
</a>
</g>
</g>
<!-- Node1&#45;&gt;Node4 -->
<g id="edge3" class="edge"><title>Node1&#45;&gt;Node4</title>
<path fill="none" stroke="midnightblue" d="M153.371,-54.376C129.294,-43.7596 95.5232,-28.8685 74.4701,-19.5852"/>
<polygon fill="midnightblue" stroke="midnightblue" points="152.149,-57.6626 162.711,-58.4948 154.974,-51.2576 152.149,-57.6626"/>
</g>
<!-- Node5 -->
<g id="node5" class="node"><title>Node5</title>
<g id="a_node5"><a xlink:href="classyeti_1_1NullThreadLock.html" target="_top" xlink:title="yeti::NullThreadLock">
<polygon fill="none" stroke="black" points="128.5,-0.5 128.5,-19.5 235.5,-19.5 235.5,-0.5 128.5,-0.5"/>
<text text-anchor="middle" x="182" y="-7.5" font-family="Helvetica,sans-Serif" font-size="10.00">yeti::NullThreadLock</text>
</a>
</g>
</g>
<!-- Node1&#45;&gt;Node5 -->
<g id="edge4" class="edge"><title>Node1&#45;&gt;Node5</title>
<path fill="none" stroke="midnightblue" d="M182,-47.953C182,-38.2875 182,-27.0312 182,-19.5052"/>
<polygon fill="midnightblue" stroke="midnightblue" points="178.5,-48.25 182,-58.25 185.5,-48.25 178.5,-48.25"/>
</g>
<!-- Node6 -->
<g id="node6" class="node"><title>Node6</title>
<g id="a_node6"><a xlink:href="classyeti_1_1pThreadLock.html" target="_top" xlink:title="yeti::pThreadLock">
<polygon fill="none" stroke="black" points="253.5,-0.5 253.5,-19.5 348.5,-19.5 348.5,-0.5 253.5,-0.5"/>
<text text-anchor="middle" x="301" y="-7.5" font-family="Helvetica,sans-Serif" font-size="10.00">yeti::pThreadLock</text>
</a>
</g>
</g>
<!-- Node1&#45;&gt;Node6 -->
<g id="edge5" class="edge"><title>Node1&#45;&gt;Node6</title>
<path fill="none" stroke="midnightblue" d="M209.127,-54.2342C231.667,-43.6273 263.117,-28.8273 282.756,-19.5852"/>
<polygon fill="midnightblue" stroke="midnightblue" points="207.631,-51.0699 200.074,-58.4948 210.612,-57.4036 207.631,-51.0699"/>
</g>
<!-- Node2 -->
<g id="node2" class="node"><title>Node2</title>
<g id="a_node2"><a xlink:href="classyeti_1_1Malloc.html" target="_top" xlink:title="yeti::Malloc\&lt; ThreadLock \&gt;">
<polygon fill="none" stroke="black" points="114,-116.5 114,-135.5 250,-135.5 250,-116.5 114,-116.5"/>
<text text-anchor="middle" x="182" y="-123.5" font-family="Helvetica,sans-Serif" font-size="10.00">yeti::Malloc&lt; ThreadLock &gt;</text>
</a>
</g>
</g>
<!-- Node2&#45;&gt;Node1 -->
<g id="edge1" class="edge"><title>Node2&#45;&gt;Node1</title>
<path fill="none" stroke="midnightblue" d="M182,-105.953C182,-96.2875 182,-85.0312 182,-77.5052"/>
<polygon fill="midnightblue" stroke="midnightblue" points="178.5,-106.25 182,-116.25 185.5,-106.25 178.5,-106.25"/>
</g>
<!-- Node3 -->
<g id="node3" class="node"><title>Node3</title>
<g id="a_node3"><a xlink:href="classyeti_1_1Malloc.html" target="_top" xlink:title="yeti::Malloc\&lt; T \&gt;">
<polygon fill="none" stroke="black" points="136.5,-184.5 136.5,-203.5 227.5,-203.5 227.5,-184.5 136.5,-184.5"/>
<text text-anchor="middle" x="182" y="-191.5" font-family="Helvetica,sans-Serif" font-size="10.00">yeti::Malloc&lt; T &gt;</text>
</a>
</g>
</g>
<!-- Node3&#45;&gt;Node2 -->
<g id="edge2" class="edge"><title>Node3&#45;&gt;Node2</title>
<path fill="none" stroke="orange" stroke-dasharray="5,2" d="M182,-174.041C182,-161.472 182,-145.563 182,-135.841"/>
<polygon fill="orange" stroke="orange" points="178.5,-174.372 182,-184.372 185.5,-174.372 178.5,-174.372"/>
<text text-anchor="middle" x="218.5" y="-157.5" font-family="Helvetica,sans-Serif" font-size="10.00"> &lt; ThreadLock &gt;</text>
</g>
</g>
</svg>
