<?xml version="1.0" encoding="UTF-8" standalone="no"?>
<!DOCTYPE svg PUBLIC "-//W3C//DTD SVG 1.1//EN"
 "http://www.w3.org/Graphics/SVG/1.1/DTD/svg11.dtd">
<!-- Generated by graphviz version 2.30.1 (20140110.0959)
 -->
<!-- Title: psi::IntegralTransform::trans_one Pages: 1 -->
<svg width="248pt" height="104pt"
 viewBox="0.00 0.00 248.00 104.00" xmlns="http://www.w3.org/2000/svg" xmlns:xlink="http://www.w3.org/1999/xlink">
<g id="graph0" class="graph" transform="scale(1 1) rotate(0) translate(4 100)">
<title>psi::IntegralTransform::trans_one</title>
<!-- Node1 -->
<g id="node1" class="node"><title>Node1</title>
<polygon fill="#bfbfbf" stroke="black" points="0,-33 0,-63 112,-63 112,-33 0,-33"/>
<text text-anchor="start" x="8" y="-51" font-family="Helvetica,sans-Serif" font-size="10.00">psi::IntegralTransform</text>
<text text-anchor="middle" x="56" y="-40" font-family="Helvetica,sans-Serif" font-size="10.00">::trans_one</text>
</g>
<!-- Node2 -->
<g id="node2" class="node"><title>Node2</title>
<g id="a_node2"><a xlink:href="group__CIOMR.html#ga5342d96a20702d84857440badc8be2ec" target="_top" xlink:title="psi::block_matrix">
<polygon fill="none" stroke="black" points="148.5,-76.5 148.5,-95.5 239.5,-95.5 239.5,-76.5 148.5,-76.5"/>
<text text-anchor="middle" x="194" y="-83.5" font-family="Helvetica,sans-Serif" font-size="10.00">psi::block_matrix</text>
</a>
</g>
</g>
<!-- Node1&#45;&gt;Node2 -->
<g id="edge1" class="edge"><title>Node1&#45;&gt;Node2</title>
<path fill="none" stroke="midnightblue" d="M110.751,-63.0186C123.396,-66.5518 136.729,-70.2773 148.894,-73.6763"/>
<polygon fill="midnightblue" stroke="midnightblue" points="148.224,-77.123 158.797,-76.4432 150.107,-70.3812 148.224,-77.123"/>
</g>
<!-- Node3 -->
<g id="node3" class="node"><title>Node3</title>
<g id="a_node3"><a xlink:href="namespacepsi.html#a1112df35ff9d2b780efb0c24662f4fbe" target="_top" xlink:title="psi::C_DGEMM">
<polygon fill="none" stroke="black" points="151,-38.5 151,-57.5 237,-57.5 237,-38.5 151,-38.5"/>
<text text-anchor="middle" x="194" y="-45.5" font-family="Helvetica,sans-Serif" font-size="10.00">psi::C_DGEMM</text>
</a>
</g>
</g>
<!-- Node1&#45;&gt;Node3 -->
<g id="edge2" class="edge"><title>Node1&#45;&gt;Node3</title>
<path fill="none" stroke="midnightblue" d="M112.316,-48C121.613,-48 131.238,-48 140.463,-48"/>
<polygon fill="midnightblue" stroke="midnightblue" points="140.668,-51.5001 150.668,-48 140.668,-44.5001 140.668,-51.5001"/>
</g>
<!-- Node4 -->
<g id="node4" class="node"><title>Node4</title>
<g id="a_node4"><a xlink:href="group__CIOMR.html#gaeb4fe42f2b28f61fece2c6d63096126e" target="_top" xlink:title="psi::free_block">
<polygon fill="none" stroke="black" points="154,-0.5 154,-19.5 234,-19.5 234,-0.5 154,-0.5"/>
<text text-anchor="middle" x="194" y="-7.5" font-family="Helvetica,sans-Serif" font-size="10.00">psi::free_block</text>
</a>
</g>
</g>
<!-- Node1&#45;&gt;Node4 -->
<g id="edge3" class="edge"><title>Node1&#45;&gt;Node4</title>
<path fill="none" stroke="midnightblue" d="M110.751,-32.9814C123.396,-29.4482 136.729,-25.7227 148.894,-22.3237"/>
<polygon fill="midnightblue" stroke="midnightblue" points="150.107,-25.6188 158.797,-19.5568 148.224,-18.877 150.107,-25.6188"/>
</g>
</g>
</svg>
