<?xml version="1.0" encoding="UTF-8" standalone="no"?>
<!DOCTYPE svg PUBLIC "-//W3C//DTD SVG 1.1//EN"
 "http://www.w3.org/Graphics/SVG/1.1/DTD/svg11.dtd">
<!-- Generated by graphviz version 2.30.1 (20140110.0959)
 -->
<!-- Title: psi::CISRHamiltonian::product Pages: 1 -->
<svg width="242pt" height="66pt"
 viewBox="0.00 0.00 242.00 66.00" xmlns="http://www.w3.org/2000/svg" xmlns:xlink="http://www.w3.org/1999/xlink">
<g id="graph0" class="graph" transform="scale(1 1) rotate(0) translate(4 62)">
<title>psi::CISRHamiltonian::product</title>
<!-- Node1 -->
<g id="node1" class="node"><title>Node1</title>
<polygon fill="#bfbfbf" stroke="black" points="0,-14 0,-44 112,-44 112,-14 0,-14"/>
<text text-anchor="start" x="8" y="-32" font-family="Helvetica,sans-Serif" font-size="10.00">psi::CISRHamiltonian</text>
<text text-anchor="middle" x="56" y="-21" font-family="Helvetica,sans-Serif" font-size="10.00">::product</text>
</g>
<!-- Node2 -->
<g id="node2" class="node"><title>Node2</title>
<g id="a_node2"><a xlink:href="group__QT.html#gada1f89a2db3689c3e7482ea755b49b27" target="_top" xlink:title="psi::C_DCOPY">
<polygon fill="none" stroke="black" points="149,-38.5 149,-57.5 233,-57.5 233,-38.5 149,-38.5"/>
<text text-anchor="middle" x="191" y="-45.5" font-family="Helvetica,sans-Serif" font-size="10.00">psi::C_DCOPY</text>
</a>
</g>
</g>
<!-- Node1&#45;&gt;Node2 -->
<g id="edge1" class="edge"><title>Node1&#45;&gt;Node2</title>
<path fill="none" stroke="midnightblue" d="M112.249,-36.8926C121.072,-38.1531 130.167,-39.4524 138.889,-40.6984"/>
<polygon fill="midnightblue" stroke="midnightblue" points="138.522,-44.1815 148.917,-42.131 139.512,-37.2518 138.522,-44.1815"/>
</g>
<!-- Node3 -->
<g id="node3" class="node"><title>Node3</title>
<g id="a_node3"><a xlink:href="namespacepsi.html#a1112df35ff9d2b780efb0c24662f4fbe" target="_top" xlink:title="psi::C_DGEMM">
<polygon fill="none" stroke="black" points="148,-0.5 148,-19.5 234,-19.5 234,-0.5 148,-0.5"/>
<text text-anchor="middle" x="191" y="-7.5" font-family="Helvetica,sans-Serif" font-size="10.00">psi::C_DGEMM</text>
</a>
</g>
</g>
<!-- Node1&#45;&gt;Node3 -->
<g id="edge2" class="edge"><title>Node1&#45;&gt;Node3</title>
<path fill="none" stroke="midnightblue" d="M112.249,-21.1074C120.671,-19.9041 129.342,-18.6654 137.699,-17.4715"/>
<polygon fill="midnightblue" stroke="midnightblue" points="138.295,-20.922 147.7,-16.0429 137.305,-13.9924 138.295,-20.922"/>
</g>
</g>
</svg>
