<?xml version="1.0" encoding="UTF-8" standalone="no"?>
<!DOCTYPE svg PUBLIC "-//W3C//DTD SVG 1.1//EN"
 "http://www.w3.org/Graphics/SVG/1.1/DTD/svg11.dtd">
<!-- Generated by graphviz version 2.30.1 (20140110.0959)
 -->
<!-- Title: psi::dcft::DCFTSolver Pages: 1 -->
<svg width="816pt" height="1057pt"
 viewBox="0.00 0.00 816.00 1056.95" xmlns="http://www.w3.org/2000/svg" xmlns:xlink="http://www.w3.org/1999/xlink">
<g id="graph0" class="graph" transform="scale(1 1) rotate(0) translate(4 1052.95)">
<title>psi::dcft::DCFTSolver</title>
<!-- Node1 -->
<g id="node1" class="node"><title>Node1</title>
<polygon fill="#bfbfbf" stroke="black" points="694.5,-217.447 694.5,-236.447 807.5,-236.447 807.5,-217.447 694.5,-217.447"/>
<text text-anchor="middle" x="751" y="-224.447" font-family="Helvetica,sans-Serif" font-size="10.00">psi::dcft::DCFTSolver</text>
</g>
<!-- Node2 -->
<g id="node2" class="node"><title>Node2</title>
<g id="a_node2"><a xlink:href="classpsi_1_1Wavefunction.html" target="_top" xlink:title="Simple wavefunction base class.">
<polygon fill="none" stroke="black" points="528.5,-721.447 528.5,-740.447 623.5,-740.447 623.5,-721.447 528.5,-721.447"/>
<text text-anchor="middle" x="576" y="-728.447" font-family="Helvetica,sans-Serif" font-size="10.00">psi::Wavefunction</text>
</a>
</g>
</g>
<!-- Node2&#45;&gt;Node1 -->
<g id="edge1" class="edge"><title>Node2&#45;&gt;Node1</title>
<path fill="none" stroke="midnightblue" d="M583.563,-711.828C612.198,-628.404 725.707,-297.719 746.664,-236.666"/>
<polygon fill="midnightblue" stroke="midnightblue" points="580.238,-710.734 580.301,-721.329 586.859,-713.007 580.238,-710.734"/>
</g>
<!-- Node3 -->
<g id="node3" class="node"><title>Node3</title>
<g id="a_node3"><a xlink:href="classboost_1_1shared__ptr.html" target="_top" xlink:title="boost::shared_ptr\&lt;\l psi::MatrixFactory \&gt;">
<polygon fill="none" stroke="black" points="261.5,-728.947 261.5,-758.947 368.5,-758.947 368.5,-728.947 261.5,-728.947"/>
<text text-anchor="start" x="269.5" y="-746.947" font-family="Helvetica,sans-Serif" font-size="10.00">boost::shared_ptr&lt;</text>
<text text-anchor="middle" x="315" y="-735.947" font-family="Helvetica,sans-Serif" font-size="10.00"> psi::MatrixFactory &gt;</text>
</a>
</g>
</g>
<!-- Node3&#45;&gt;Node2 -->
<g id="edge2" class="edge"><title>Node3&#45;&gt;Node2</title>
<path fill="none" stroke="#9a32cd" stroke-dasharray="5,2" d="M378.911,-740.789C425.046,-738.474 486.67,-735.381 528.431,-733.285"/>
<polygon fill="#9a32cd" stroke="#9a32cd" points="378.537,-737.304 368.725,-741.301 378.888,-744.295 378.537,-737.304"/>
<text text-anchor="middle" x="446" y="-743.947" font-family="Helvetica,sans-Serif" font-size="10.00"> factory_</text>
</g>
<!-- Node4 -->
<g id="node4" class="node"><title>Node4</title>
<g id="a_node4"><a xlink:href="classboost_1_1shared__ptr.html" target="_top" xlink:title="boost::shared_ptr\&lt; T \&gt;">
<polygon fill="none" stroke="black" points="0,-772.447 0,-791.447 116,-791.447 116,-772.447 0,-772.447"/>
<text text-anchor="middle" x="58" y="-779.447" font-family="Helvetica,sans-Serif" font-size="10.00">boost::shared_ptr&lt; T &gt;</text>
</a>
</g>
</g>
<!-- Node4&#45;&gt;Node3 -->
<g id="edge3" class="edge"><title>Node4&#45;&gt;Node3</title>
<path fill="none" stroke="orange" stroke-dasharray="5,2" d="M126.153,-771.94C168.402,-765.644 222.142,-757.636 261.309,-751.799"/>
<polygon fill="orange" stroke="orange" points="125.602,-768.483 116.227,-773.419 126.634,-775.407 125.602,-768.483"/>
<text text-anchor="middle" x="187" y="-773.947" font-family="Helvetica,sans-Serif" font-size="10.00"> &lt; psi::MatrixFactory &gt;</text>
</g>
<!-- Node5 -->
<g id="node5" class="node"><title>Node5</title>
<g id="a_node5"><a xlink:href="classboost_1_1shared__ptr.html" target="_top" xlink:title="boost::shared_ptr\&lt;\l psi::Chkpt \&gt;">
<polygon fill="none" stroke="black" points="266,-679.947 266,-709.947 364,-709.947 364,-679.947 266,-679.947"/>
<text text-anchor="start" x="274" y="-697.947" font-family="Helvetica,sans-Serif" font-size="10.00">boost::shared_ptr&lt;</text>
<text text-anchor="middle" x="315" y="-686.947" font-family="Helvetica,sans-Serif" font-size="10.00"> psi::Chkpt &gt;</text>
</a>
</g>
</g>
<!-- Node4&#45;&gt;Node5 -->
<g id="edge5" class="edge"><title>Node4&#45;&gt;Node5</title>
<path fill="none" stroke="orange" stroke-dasharray="5,2" d="M82.7069,-766.988C97.1055,-758.417 116.105,-747.996 134,-740.947 177.365,-723.866 229.124,-711.412 265.985,-703.803"/>
<polygon fill="orange" stroke="orange" points="80.6949,-764.115 73.9672,-772.3 84.3305,-770.097 80.6949,-764.115"/>
<text text-anchor="middle" x="187" y="-743.947" font-family="Helvetica,sans-Serif" font-size="10.00"> &lt; psi::Chkpt &gt;</text>
</g>
<!-- Node6 -->
<g id="node6" class="node"><title>Node6</title>
<g id="a_node6"><a xlink:href="classboost_1_1shared__ptr.html" target="_top" xlink:title="boost::shared_ptr\&lt;\l psi::IntegralFactory \&gt;">
<polygon fill="none" stroke="black" points="258.5,-1015.95 258.5,-1045.95 371.5,-1045.95 371.5,-1015.95 258.5,-1015.95"/>
<text text-anchor="start" x="266.5" y="-1033.95" font-family="Helvetica,sans-Serif" font-size="10.00">boost::shared_ptr&lt;</text>
<text text-anchor="middle" x="315" y="-1022.95" font-family="Helvetica,sans-Serif" font-size="10.00"> psi::IntegralFactory &gt;</text>
</a>
</g>
</g>
<!-- Node4&#45;&gt;Node6 -->
<g id="edge7" class="edge"><title>Node4&#45;&gt;Node6</title>
<path fill="none" stroke="orange" stroke-dasharray="5,2" d="M59.9417,-801.702C63.0538,-843.545 76.4415,-941.406 134,-991.947 167.878,-1021.69 219.042,-1030.5 258.173,-1032.42"/>
<polygon fill="orange" stroke="orange" points="63.4328,-801.448 59.3187,-791.685 56.4463,-801.883 63.4328,-801.448"/>
<text text-anchor="middle" x="187" y="-1032.95" font-family="Helvetica,sans-Serif" font-size="10.00"> &lt; psi::IntegralFactory &gt;</text>
</g>
<!-- Node8 -->
<g id="node8" class="node"><title>Node8</title>
<g id="a_node8"><a xlink:href="classboost_1_1shared__ptr.html" target="_top" xlink:title="boost::shared_ptr\&lt;\l psi::Wavefunction \&gt;">
<polygon fill="none" stroke="black" points="261.5,-630.947 261.5,-660.947 368.5,-660.947 368.5,-630.947 261.5,-630.947"/>
<text text-anchor="start" x="269.5" y="-648.947" font-family="Helvetica,sans-Serif" font-size="10.00">boost::shared_ptr&lt;</text>
<text text-anchor="middle" x="315" y="-637.947" font-family="Helvetica,sans-Serif" font-size="10.00"> psi::Wavefunction &gt;</text>
</a>
</g>
</g>
<!-- Node4&#45;&gt;Node8 -->
<g id="edge10" class="edge"><title>Node4&#45;&gt;Node8</title>
<path fill="none" stroke="orange" stroke-dasharray="5,2" d="M69.9668,-763.706C82.8457,-743.848 106.04,-712.576 134,-694.947 172.765,-670.505 223.67,-658.112 261.45,-651.917"/>
<polygon fill="orange" stroke="orange" points="66.9982,-761.852 64.646,-772.182 72.9269,-765.573 66.9982,-761.852"/>
<text text-anchor="middle" x="187" y="-697.947" font-family="Helvetica,sans-Serif" font-size="10.00"> &lt; psi::Wavefunction &gt;</text>
</g>
<!-- Node9 -->
<g id="node9" class="node"><title>Node9</title>
<g id="a_node9"><a xlink:href="classboost_1_1shared__ptr.html" target="_top" xlink:title="boost::shared_ptr\&lt;\l psi::PSIO \&gt;">
<polygon fill="none" stroke="black" points="266,-581.947 266,-611.947 364,-611.947 364,-581.947 266,-581.947"/>
<text text-anchor="start" x="274" y="-599.947" font-family="Helvetica,sans-Serif" font-size="10.00">boost::shared_ptr&lt;</text>
<text text-anchor="middle" x="315" y="-588.947" font-family="Helvetica,sans-Serif" font-size="10.00"> psi::PSIO &gt;</text>
</a>
</g>
</g>
<!-- Node4&#45;&gt;Node9 -->
<g id="edge12" class="edge"><title>Node4&#45;&gt;Node9</title>
<path fill="none" stroke="orange" stroke-dasharray="5,2" d="M63.9128,-762.533C72.6614,-732.043 93.903,-673.194 134,-641.947 171.858,-612.445 226.624,-602.041 265.791,-598.498"/>
<polygon fill="orange" stroke="orange" points="60.482,-761.812 61.2431,-772.379 67.2381,-763.644 60.482,-761.812"/>
<text text-anchor="middle" x="187" y="-644.947" font-family="Helvetica,sans-Serif" font-size="10.00"> &lt; psi::PSIO &gt;</text>
</g>
<!-- Node10 -->
<g id="node10" class="node"><title>Node10</title>
<g id="a_node10"><a xlink:href="classboost_1_1shared__ptr.html" target="_top" xlink:title="boost::shared_ptr\&lt;\l psi::SOBasisSet \&gt;">
<polygon fill="none" stroke="black" points="264.5,-965.947 264.5,-995.947 365.5,-995.947 365.5,-965.947 264.5,-965.947"/>
<text text-anchor="start" x="272.5" y="-983.947" font-family="Helvetica,sans-Serif" font-size="10.00">boost::shared_ptr&lt;</text>
<text text-anchor="middle" x="315" y="-972.947" font-family="Helvetica,sans-Serif" font-size="10.00"> psi::SOBasisSet &gt;</text>
</a>
</g>
</g>
<!-- Node4&#45;&gt;Node10 -->
<g id="edge14" class="edge"><title>Node4&#45;&gt;Node10</title>
<path fill="none" stroke="orange" stroke-dasharray="5,2" d="M62.8993,-801.438C70.5298,-834.349 90.6251,-900.779 134,-935.947 170.906,-965.87 225.039,-976.25 264.296,-979.674"/>
<polygon fill="orange" stroke="orange" points="66.3173,-800.684 60.7739,-791.655 59.4769,-802.171 66.3173,-800.684"/>
<text text-anchor="middle" x="187" y="-979.947" font-family="Helvetica,sans-Serif" font-size="10.00"> &lt; psi::SOBasisSet &gt;</text>
</g>
<!-- Node12 -->
<g id="node12" class="node"><title>Node12</title>
<g id="a_node12"><a xlink:href="classboost_1_1shared__ptr.html" target="_top" xlink:title="boost::shared_ptr\&lt;\l psi::BasisSet \&gt;">
<polygon fill="none" stroke="black" points="266,-865.947 266,-895.947 364,-895.947 364,-865.947 266,-865.947"/>
<text text-anchor="start" x="274" y="-883.947" font-family="Helvetica,sans-Serif" font-size="10.00">boost::shared_ptr&lt;</text>
<text text-anchor="middle" x="315" y="-872.947" font-family="Helvetica,sans-Serif" font-size="10.00"> psi::BasisSet &gt;</text>
</a>
</g>
</g>
<!-- Node4&#45;&gt;Node12 -->
<g id="edge17" class="edge"><title>Node4&#45;&gt;Node12</title>
<path fill="none" stroke="orange" stroke-dasharray="5,2" d="M78.6509,-798.038C93.1718,-809.226 113.84,-823.728 134,-832.947 176.648,-852.449 228.731,-865.258 265.878,-872.7"/>
<polygon fill="orange" stroke="orange" points="80.482,-795.025 70.4635,-791.578 76.1458,-800.52 80.482,-795.025"/>
<text text-anchor="middle" x="187" y="-869.947" font-family="Helvetica,sans-Serif" font-size="10.00"> &lt; psi::BasisSet &gt;</text>
</g>
<!-- Node13 -->
<g id="node13" class="node"><title>Node13</title>
<g id="a_node13"><a xlink:href="classboost_1_1shared__ptr.html" target="_top" xlink:title="boost::shared_ptr\&lt;\l psi::Matrix \&gt;">
<polygon fill="none" stroke="black" points="266,-318.947 266,-348.947 364,-348.947 364,-318.947 266,-318.947"/>
<text text-anchor="start" x="274" y="-336.947" font-family="Helvetica,sans-Serif" font-size="10.00">boost::shared_ptr&lt;</text>
<text text-anchor="middle" x="315" y="-325.947" font-family="Helvetica,sans-Serif" font-size="10.00"> psi::Matrix &gt;</text>
</a>
</g>
</g>
<!-- Node4&#45;&gt;Node13 -->
<g id="edge19" class="edge"><title>Node4&#45;&gt;Node13</title>
<path fill="none" stroke="orange" stroke-dasharray="5,2" d="M64.674,-762.545C75.549,-726.67 101.188,-648.054 134,-586.947 186.023,-490.063 269.436,-386.93 301.176,-349.03"/>
<polygon fill="orange" stroke="orange" points="61.2867,-761.657 61.7814,-772.24 67.9945,-763.658 61.2867,-761.657"/>
<text text-anchor="middle" x="187" y="-589.947" font-family="Helvetica,sans-Serif" font-size="10.00"> &lt; psi::Matrix &gt;</text>
</g>
<!-- Node14 -->
<g id="node14" class="node"><title>Node14</title>
<g id="a_node14"><a xlink:href="classboost_1_1shared__ptr.html" target="_top" xlink:title="boost::shared_ptr\&lt;\l psi::Molecule \&gt;">
<polygon fill="none" stroke="black" points="266,-816.947 266,-846.947 364,-846.947 364,-816.947 266,-816.947"/>
<text text-anchor="start" x="274" y="-834.947" font-family="Helvetica,sans-Serif" font-size="10.00">boost::shared_ptr&lt;</text>
<text text-anchor="middle" x="315" y="-823.947" font-family="Helvetica,sans-Serif" font-size="10.00"> psi::Molecule &gt;</text>
</a>
</g>
</g>
<!-- Node4&#45;&gt;Node14 -->
<g id="edge21" class="edge"><title>Node4&#45;&gt;Node14</title>
<path fill="none" stroke="orange" stroke-dasharray="5,2" d="M117.446,-793.407C162.302,-802.202 223.488,-814.2 265.617,-822.46"/>
<polygon fill="orange" stroke="orange" points="118.05,-789.959 107.564,-791.469 116.703,-796.828 118.05,-789.959"/>
<text text-anchor="middle" x="187" y="-820.947" font-family="Helvetica,sans-Serif" font-size="10.00"> &lt; psi::Molecule &gt;</text>
</g>
<!-- Node16 -->
<g id="node16" class="node"><title>Node16</title>
<g id="a_node16"><a xlink:href="classboost_1_1shared__ptr.html" target="_top" xlink:title="boost::shared_ptr\&lt;\l psi::Vector \&gt;">
<polygon fill="none" stroke="black" points="266,-914.947 266,-944.947 364,-944.947 364,-914.947 266,-914.947"/>
<text text-anchor="start" x="274" y="-932.947" font-family="Helvetica,sans-Serif" font-size="10.00">boost::shared_ptr&lt;</text>
<text text-anchor="middle" x="315" y="-921.947" font-family="Helvetica,sans-Serif" font-size="10.00"> psi::Vector &gt;</text>
</a>
</g>
</g>
<!-- Node4&#45;&gt;Node16 -->
<g id="edge24" class="edge"><title>Node4&#45;&gt;Node16</title>
<path fill="none" stroke="orange" stroke-dasharray="5,2" d="M68.0163,-800.59C79.9501,-823.271 103.137,-861.106 134,-881.947 173.534,-908.644 227.267,-920.512 265.712,-925.776"/>
<polygon fill="orange" stroke="orange" points="71.1127,-798.958 63.4692,-791.621 64.8692,-802.123 71.1127,-798.958"/>
<text text-anchor="middle" x="187" y="-923.947" font-family="Helvetica,sans-Serif" font-size="10.00"> &lt; psi::Vector &gt;</text>
</g>
<!-- Node5&#45;&gt;Node2 -->
<g id="edge4" class="edge"><title>Node5&#45;&gt;Node2</title>
<path fill="none" stroke="#9a32cd" stroke-dasharray="5,2" d="M374.225,-702.531C410.908,-707.368 459.248,-713.853 502,-719.947 510.501,-721.159 519.553,-722.49 528.285,-723.795"/>
<polygon fill="#9a32cd" stroke="#9a32cd" points="374.573,-699.046 364.202,-701.211 373.66,-705.986 374.573,-699.046"/>
<text text-anchor="middle" x="446" y="-722.947" font-family="Helvetica,sans-Serif" font-size="10.00"> chkpt_</text>
</g>
<!-- Node6&#45;&gt;Node2 -->
<g id="edge6" class="edge"><title>Node6&#45;&gt;Node2</title>
<path fill="none" stroke="#9a32cd" stroke-dasharray="5,2" d="M381.979,-1038.22C421.361,-1038.85 469.811,-1032.57 502,-1003.95 504.601,-1001.63 559.987,-788.771 572.502,-740.574"/>
<polygon fill="#9a32cd" stroke="#9a32cd" points="382.021,-1034.72 371.918,-1037.91 381.805,-1041.72 382.021,-1034.72"/>
<text text-anchor="middle" x="446" y="-1040.95" font-family="Helvetica,sans-Serif" font-size="10.00"> integral_</text>
</g>
<!-- Node7 -->
<g id="node7" class="node"><title>Node7</title>
<g id="a_node7"><a xlink:href="classpsi_1_1Options.html" target="_top" xlink:title="psi::Options">
<polygon fill="none" stroke="black" points="280.5,-778.447 280.5,-797.447 349.5,-797.447 349.5,-778.447 280.5,-778.447"/>
<text text-anchor="middle" x="315" y="-785.447" font-family="Helvetica,sans-Serif" font-size="10.00">psi::Options</text>
</a>
</g>
</g>
<!-- Node7&#45;&gt;Node2 -->
<g id="edge8" class="edge"><title>Node7&#45;&gt;Node2</title>
<path fill="none" stroke="#9a32cd" stroke-dasharray="5,2" d="M359.802,-782.424C397.759,-777.161 453.975,-768.218 502,-755.947 518.354,-751.768 536.293,-745.647 550.296,-740.507"/>
<polygon fill="#9a32cd" stroke="#9a32cd" points="359.039,-778.995 349.602,-783.81 359.982,-785.931 359.039,-778.995"/>
<text text-anchor="middle" x="446" y="-780.947" font-family="Helvetica,sans-Serif" font-size="10.00"> options_</text>
</g>
<!-- Node8&#45;&gt;Node2 -->
<g id="edge9" class="edge"><title>Node8&#45;&gt;Node2</title>
<path fill="none" stroke="#9a32cd" stroke-dasharray="5,2" d="M378.958,-656.297C415.622,-663.435 462.3,-674.457 502,-689.947 523.531,-698.348 546.477,-712.129 560.774,-721.367"/>
<polygon fill="#9a32cd" stroke="#9a32cd" points="379.375,-652.813 368.897,-654.386 378.068,-659.69 379.375,-652.813"/>
<text text-anchor="middle" x="446" y="-692.947" font-family="Helvetica,sans-Serif" font-size="10.00"> reference_wavefunction_</text>
</g>
<!-- Node17 -->
<g id="node17" class="node"><title>Node17</title>
<g id="a_node17"><a xlink:href="classpsi_1_1IntegralTransform.html" target="_top" xlink:title="psi::IntegralTransform">
<polygon fill="none" stroke="black" points="520,-189.447 520,-208.447 632,-208.447 632,-189.447 520,-189.447"/>
<text text-anchor="middle" x="576" y="-196.447" font-family="Helvetica,sans-Serif" font-size="10.00">psi::IntegralTransform</text>
</a>
</g>
</g>
<!-- Node8&#45;&gt;Node17 -->
<g id="edge29" class="edge"><title>Node8&#45;&gt;Node17</title>
<path fill="none" stroke="#9a32cd" stroke-dasharray="5,2" d="M378.958,-642.487C429.57,-639.058 493.585,-632.998 502,-623.947 532.367,-591.282 494.74,-259.704 520,-222.947 524.366,-216.593 530.804,-211.908 537.751,-208.456"/>
<polygon fill="#9a32cd" stroke="#9a32cd" points="378.461,-639.012 368.711,-643.158 378.919,-645.997 378.461,-639.012"/>
<text text-anchor="middle" x="446" y="-644.947" font-family="Helvetica,sans-Serif" font-size="10.00"> wfn_</text>
</g>
<!-- Node9&#45;&gt;Node2 -->
<g id="edge11" class="edge"><title>Node9&#45;&gt;Node2</title>
<path fill="none" stroke="#9a32cd" stroke-dasharray="5,2" d="M374.475,-596.354C420.878,-596.904 481.273,-600.202 502,-612.947 543.657,-638.561 565.151,-697.751 572.265,-721.162"/>
<polygon fill="#9a32cd" stroke="#9a32cd" points="374.237,-592.853 364.21,-596.274 374.182,-599.852 374.237,-592.853"/>
<text text-anchor="middle" x="446" y="-615.947" font-family="Helvetica,sans-Serif" font-size="10.00"> psio_</text>
</g>
<!-- Node9&#45;&gt;Node17 -->
<g id="edge30" class="edge"><title>Node9&#45;&gt;Node17</title>
<path fill="none" stroke="#9a32cd" stroke-dasharray="5,2" d="M373.909,-585.046C427.703,-573.861 499.859,-558.468 502,-555.947 549.963,-499.454 477.748,-283.831 520,-222.947 524.395,-216.613 530.845,-211.936 537.795,-208.487"/>
<polygon fill="#9a32cd" stroke="#9a32cd" points="373.18,-581.623 364.099,-587.082 374.602,-588.477 373.18,-581.623"/>
<text text-anchor="middle" x="446" y="-584.947" font-family="Helvetica,sans-Serif" font-size="10.00"> psio_</text>
</g>
<!-- Node10&#45;&gt;Node2 -->
<g id="edge13" class="edge"><title>Node10&#45;&gt;Node2</title>
<path fill="none" stroke="#9a32cd" stroke-dasharray="5,2" d="M375.749,-987.872C415.819,-989.174 467.396,-983.936 502,-954.947 570.352,-897.688 575.228,-775.513 575.17,-740.504"/>
<polygon fill="#9a32cd" stroke="#9a32cd" points="375.718,-984.367 365.565,-987.395 375.391,-991.359 375.718,-984.367"/>
<text text-anchor="middle" x="446" y="-991.947" font-family="Helvetica,sans-Serif" font-size="10.00"> sobasisset_</text>
</g>
<!-- Node11 -->
<g id="node11" class="node"><title>Node11</title>
<g id="a_node11"><a xlink:href="classpsi_1_1Dimension.html" target="_top" xlink:title="psi::Dimension">
<polygon fill="none" stroke="black" points="274,-109.447 274,-128.447 356,-128.447 356,-109.447 274,-109.447"/>
<text text-anchor="middle" x="315" y="-116.447" font-family="Helvetica,sans-Serif" font-size="10.00">psi::Dimension</text>
</a>
</g>
</g>
<!-- Node11&#45;&gt;Node2 -->
<g id="edge15" class="edge"><title>Node11&#45;&gt;Node2</title>
<path fill="none" stroke="#9a32cd" stroke-dasharray="5,2" d="M318.461,-138.876C324.068,-175.156 341.313,-251.753 390,-289.947 429.724,-321.11 466.241,-273.304 502,-308.947 505.834,-312.769 563.161,-659.212 573.431,-721.433"/>
<polygon fill="#9a32cd" stroke="#9a32cd" points="321.878,-138.032 317.025,-128.614 314.945,-139.003 321.878,-138.032"/>
<text text-anchor="middle" x="446" y="-388.947" font-family="Helvetica,sans-Serif" font-size="10.00"> doccpi_</text>
<text text-anchor="middle" x="446" y="-377.947" font-family="Helvetica,sans-Serif" font-size="10.00">nbetapi_</text>
<text text-anchor="middle" x="446" y="-366.947" font-family="Helvetica,sans-Serif" font-size="10.00">frzvpi_</text>
<text text-anchor="middle" x="446" y="-355.947" font-family="Helvetica,sans-Serif" font-size="10.00">frzcpi_</text>
<text text-anchor="middle" x="446" y="-344.947" font-family="Helvetica,sans-Serif" font-size="10.00">nmopi_</text>
<text text-anchor="middle" x="446" y="-333.947" font-family="Helvetica,sans-Serif" font-size="10.00">nalphapi_</text>
<text text-anchor="middle" x="446" y="-322.947" font-family="Helvetica,sans-Serif" font-size="10.00">nsopi_</text>
<text text-anchor="middle" x="446" y="-311.947" font-family="Helvetica,sans-Serif" font-size="10.00">soccpi_</text>
</g>
<!-- Node11&#45;&gt;Node1 -->
<g id="edge25" class="edge"><title>Node11&#45;&gt;Node1</title>
<path fill="none" stroke="#9a32cd" stroke-dasharray="5,2" d="M344.743,-104.148C354.296,-98.2096 364.419,-90.6847 372,-81.9471 384.247,-67.8318 374.209,-53.9404 390,-43.9471 432.063,-17.3285 454.564,-28.8599 502,-43.9471 611.632,-78.8158 712.04,-184.193 741.39,-217.052"/>
<polygon fill="#9a32cd" stroke="#9a32cd" points="342.725,-101.274 335.86,-109.344 346.259,-107.316 342.725,-101.274"/>
<text text-anchor="middle" x="576" y="-151.947" font-family="Helvetica,sans-Serif" font-size="10.00"> naoccpi_</text>
<text text-anchor="middle" x="576" y="-140.947" font-family="Helvetica,sans-Serif" font-size="10.00">navirpi_</text>
<text text-anchor="middle" x="576" y="-129.947" font-family="Helvetica,sans-Serif" font-size="10.00">nboccpi_</text>
<text text-anchor="middle" x="576" y="-118.947" font-family="Helvetica,sans-Serif" font-size="10.00">nbvirpi_</text>
</g>
<!-- Node11&#45;&gt;Node17 -->
<g id="edge31" class="edge"><title>Node11&#45;&gt;Node17</title>
<path fill="none" stroke="#9a32cd" stroke-dasharray="5,2" d="M366.017,-108.754C404.801,-103.266 459.006,-100.999 502,-119.947 534.81,-134.407 559.467,-171.615 569.746,-189.315"/>
<polygon fill="#9a32cd" stroke="#9a32cd" points="365.361,-105.313 356.008,-110.289 366.423,-112.232 365.361,-105.313"/>
<text text-anchor="middle" x="446" y="-177.947" font-family="Helvetica,sans-Serif" font-size="10.00"> clsdpi_</text>
<text text-anchor="middle" x="446" y="-166.947" font-family="Helvetica,sans-Serif" font-size="10.00">openpi_</text>
<text text-anchor="middle" x="446" y="-155.947" font-family="Helvetica,sans-Serif" font-size="10.00">frzvpi_</text>
<text text-anchor="middle" x="446" y="-144.947" font-family="Helvetica,sans-Serif" font-size="10.00">sopi_</text>
<text text-anchor="middle" x="446" y="-133.947" font-family="Helvetica,sans-Serif" font-size="10.00">frzcpi_</text>
<text text-anchor="middle" x="446" y="-122.947" font-family="Helvetica,sans-Serif" font-size="10.00">mopi_</text>
</g>
<!-- Node12&#45;&gt;Node2 -->
<g id="edge16" class="edge"><title>Node12&#45;&gt;Node2</title>
<path fill="none" stroke="#9a32cd" stroke-dasharray="5,2" d="M358.842,-862.038C368.935,-858.015 379.744,-854.051 390,-850.947 438.638,-836.229 459.056,-855.116 502,-827.947 537.088,-805.748 561.402,-760.273 570.746,-740.492"/>
<polygon fill="#9a32cd" stroke="#9a32cd" points="357.358,-858.863 349.425,-865.886 360.006,-865.343 357.358,-858.863"/>
<text text-anchor="middle" x="446" y="-853.947" font-family="Helvetica,sans-Serif" font-size="10.00"> basisset_</text>
</g>
<!-- Node13&#45;&gt;Node2 -->
<g id="edge18" class="edge"><title>Node13&#45;&gt;Node2</title>
<path fill="none" stroke="#9a32cd" stroke-dasharray="5,2" d="M335.216,-356.788C348.966,-371.635 368.74,-390.17 390,-400.947 435.326,-423.923 465.516,-388.574 502,-423.947 546.544,-467.135 569.411,-674.223 574.09,-721.377"/>
<polygon fill="#9a32cd" stroke="#9a32cd" points="337.508,-354.102 328.227,-348.992 332.296,-358.774 337.508,-354.102"/>
<text text-anchor="middle" x="446" y="-547.947" font-family="Helvetica,sans-Serif" font-size="10.00"> Fa_</text>
<text text-anchor="middle" x="446" y="-536.947" font-family="Helvetica,sans-Serif" font-size="10.00">gradient_</text>
<text text-anchor="middle" x="446" y="-525.947" font-family="Helvetica,sans-Serif" font-size="10.00">H_</text>
<text text-anchor="middle" x="446" y="-514.947" font-family="Helvetica,sans-Serif" font-size="10.00">Lagrangian_</text>
<text text-anchor="middle" x="446" y="-503.947" font-family="Helvetica,sans-Serif" font-size="10.00">S_</text>
<text text-anchor="middle" x="446" y="-492.947" font-family="Helvetica,sans-Serif" font-size="10.00">AO2SO_</text>
<text text-anchor="middle" x="446" y="-481.947" font-family="Helvetica,sans-Serif" font-size="10.00">Cb_</text>
<text text-anchor="start" x="411.5" y="-470.947" font-family="Helvetica,sans-Serif" font-size="10.00">QLMO_to_LMO</text>
<text text-anchor="middle" x="446" y="-459.947" font-family="Helvetica,sans-Serif" font-size="10.00">_</text>
<text text-anchor="middle" x="446" y="-448.947" font-family="Helvetica,sans-Serif" font-size="10.00">Db_</text>
<text text-anchor="middle" x="446" y="-437.947" font-family="Helvetica,sans-Serif" font-size="10.00">Ca_</text>
<text text-anchor="middle" x="446" y="-426.947" font-family="Helvetica,sans-Serif" font-size="10.00">...</text>
</g>
<!-- Node13&#45;&gt;Node1 -->
<g id="edge26" class="edge"><title>Node13&#45;&gt;Node1</title>
<path fill="none" stroke="#9a32cd" stroke-dasharray="5,2" d="M331.84,-310.645C345.144,-293.154 365.826,-270.339 390,-258.947 416.819,-246.309 600.259,-234.89 694.442,-229.778"/>
<polygon fill="#9a32cd" stroke="#9a32cd" points="329.004,-308.594 325.919,-318.73 334.651,-312.73 329.004,-308.594"/>
<text text-anchor="middle" x="576" y="-387.947" font-family="Helvetica,sans-Serif" font-size="10.00"> g_tau_a_</text>
<text text-anchor="middle" x="576" y="-376.947" font-family="Helvetica,sans-Serif" font-size="10.00">Fa_</text>
<text text-anchor="middle" x="576" y="-365.947" font-family="Helvetica,sans-Serif" font-size="10.00">g_tau_b_</text>
<text text-anchor="middle" x="576" y="-354.947" font-family="Helvetica,sans-Serif" font-size="10.00">kappa_so_b_</text>
<text text-anchor="start" x="547" y="-343.947" font-family="Helvetica,sans-Serif" font-size="10.00">scf_error_b</text>
<text text-anchor="middle" x="576" y="-332.947" font-family="Helvetica,sans-Serif" font-size="10.00">_</text>
<text text-anchor="start" x="547" y="-321.947" font-family="Helvetica,sans-Serif" font-size="10.00">kappa_so_a</text>
<text text-anchor="middle" x="576" y="-310.947" font-family="Helvetica,sans-Serif" font-size="10.00">_</text>
<text text-anchor="start" x="547" y="-299.947" font-family="Helvetica,sans-Serif" font-size="10.00">scf_error</text>
<text text-anchor="middle" x="576" y="-288.947" font-family="Helvetica,sans-Serif" font-size="10.00">_a_</text>
<text text-anchor="middle" x="576" y="-277.947" font-family="Helvetica,sans-Serif" font-size="10.00">X_b_</text>
<text text-anchor="middle" x="576" y="-266.947" font-family="Helvetica,sans-Serif" font-size="10.00">X_a_</text>
<text text-anchor="middle" x="576" y="-255.947" font-family="Helvetica,sans-Serif" font-size="10.00">so_h_</text>
<text text-anchor="middle" x="576" y="-244.947" font-family="Helvetica,sans-Serif" font-size="10.00">...</text>
</g>
<!-- Node13&#45;&gt;Node17 -->
<g id="edge32" class="edge"><title>Node13&#45;&gt;Node17</title>
<path fill="none" stroke="#9a32cd" stroke-dasharray="5,2" d="M322.886,-309.077C332.531,-279.488 353.157,-231.29 390,-208.947 430.154,-184.596 484.68,-184.768 524.124,-189.411"/>
<polygon fill="#9a32cd" stroke="#9a32cd" points="319.522,-308.107 319.924,-318.694 326.212,-310.168 319.522,-308.107"/>
<text text-anchor="middle" x="446" y="-222.947" font-family="Helvetica,sans-Serif" font-size="10.00"> Cb_</text>
<text text-anchor="middle" x="446" y="-211.947" font-family="Helvetica,sans-Serif" font-size="10.00">Ca_</text>
</g>
<!-- Node14&#45;&gt;Node2 -->
<g id="edge20" class="edge"><title>Node14&#45;&gt;Node2</title>
<path fill="none" stroke="#9a32cd" stroke-dasharray="5,2" d="M374.368,-820.063C427.805,-809.128 499.051,-794.391 502,-792.947 528.88,-779.784 554.05,-754.479 566.626,-740.615"/>
<polygon fill="#9a32cd" stroke="#9a32cd" points="373.377,-816.693 364.281,-822.125 374.78,-823.551 373.377,-816.693"/>
<text text-anchor="middle" x="446" y="-819.947" font-family="Helvetica,sans-Serif" font-size="10.00"> molecule_</text>
</g>
<!-- Node15 -->
<g id="node15" class="node"><title>Node15</title>
<polygon fill="none" stroke="#bfbfbf" points="294.5,-53.4471 294.5,-72.4471 335.5,-72.4471 335.5,-53.4471 294.5,-53.4471"/>
<text text-anchor="middle" x="315" y="-60.4471" font-family="Helvetica,sans-Serif" font-size="10.00">string</text>
</g>
<!-- Node15&#45;&gt;Node2 -->
<g id="edge22" class="edge"><title>Node15&#45;&gt;Node2</title>
<path fill="none" stroke="#9a32cd" stroke-dasharray="5,2" d="M344.404,-75.3957C354.721,-81.3437 365.444,-89.4841 372,-99.9471 404.14,-151.241 352.303,-187.588 390,-234.947 423.109,-276.541 468.697,-235.508 502,-276.947 519.718,-298.994 515.661,-374.998 520,-402.947 539.576,-529.041 566.342,-681.869 573.295,-721.301"/>
<polygon fill="#9a32cd" stroke="#9a32cd" points="346.035,-72.2989 335.557,-70.7298 342.77,-78.4906 346.035,-72.2989"/>
<text text-anchor="middle" x="446" y="-279.947" font-family="Helvetica,sans-Serif" font-size="10.00"> name_</text>
</g>
<!-- Node15&#45;&gt;Node1 -->
<g id="edge27" class="edge"><title>Node15&#45;&gt;Node1</title>
<path fill="none" stroke="#9a32cd" stroke-dasharray="5,2" d="M338.201,-48.0042C352.355,-39.4003 371.46,-29.4291 390,-24.9471 494.672,0.357571 540.394,19.6649 632,-36.9471 703.017,-80.8352 737.978,-185.019 747.354,-217.265"/>
<polygon fill="#9a32cd" stroke="#9a32cd" points="336.259,-45.0913 329.671,-53.3892 339.996,-51.0104 336.259,-45.0913"/>
<text text-anchor="middle" x="576" y="-39.9471" font-family="Helvetica,sans-Serif" font-size="10.00"> indent</text>
</g>
<!-- Node15&#45;&gt;Node17 -->
<g id="edge33" class="edge"><title>Node15&#45;&gt;Node17</title>
<path fill="none" stroke="#9a32cd" stroke-dasharray="5,2" d="M345.834,-55.2767C384.812,-47.0364 453.763,-38.7272 502,-67.9471 547.874,-95.7353 567.189,-163.627 572.983,-189.087"/>
<polygon fill="#9a32cd" stroke="#9a32cd" points="344.662,-51.9531 335.678,-57.5678 346.203,-58.7815 344.662,-51.9531"/>
<text text-anchor="middle" x="446" y="-92.9471" font-family="Helvetica,sans-Serif" font-size="10.00"> abIntName_</text>
<text text-anchor="middle" x="446" y="-81.9471" font-family="Helvetica,sans-Serif" font-size="10.00">aaIntName_</text>
<text text-anchor="middle" x="446" y="-70.9471" font-family="Helvetica,sans-Serif" font-size="10.00">bbIntName_</text>
</g>
<!-- Node16&#45;&gt;Node2 -->
<g id="edge23" class="edge"><title>Node16&#45;&gt;Node2</title>
<path fill="none" stroke="#9a32cd" stroke-dasharray="5,2" d="M364.237,-910.05C366.93,-908.439 369.539,-906.737 372,-904.947 381.671,-897.912 379.623,-890.892 390,-884.947 434.093,-859.686 461.013,-891.987 502,-861.947 545.049,-830.396 565.964,-765.372 572.588,-740.716"/>
<polygon fill="#9a32cd" stroke="#9a32cd" points="362.508,-907.006 355.423,-914.884 365.874,-913.144 362.508,-907.006"/>
<text text-anchor="middle" x="446" y="-942.947" font-family="Helvetica,sans-Serif" font-size="10.00"> frequencies_</text>
<text text-anchor="start" x="399.5" y="-931.947" font-family="Helvetica,sans-Serif" font-size="10.00">CIM_orbital_energies</text>
<text text-anchor="middle" x="446" y="-920.947" font-family="Helvetica,sans-Serif" font-size="10.00">_</text>
<text text-anchor="middle" x="446" y="-909.947" font-family="Helvetica,sans-Serif" font-size="10.00">epsilon_b_</text>
<text text-anchor="middle" x="446" y="-898.947" font-family="Helvetica,sans-Serif" font-size="10.00">epsilon_a_</text>
<text text-anchor="middle" x="446" y="-887.947" font-family="Helvetica,sans-Serif" font-size="10.00">CIM_orbital_factors_</text>
</g>
<!-- Node16&#45;&gt;Node1 -->
<g id="edge34" class="edge"><title>Node16&#45;&gt;Node1</title>
<path fill="none" stroke="#9a32cd" stroke-dasharray="5,2" d="M359.8,-948.573C399.348,-962.342 457.924,-974.932 502,-950.947 595.45,-900.095 590.766,-848.021 632,-749.947 714.614,-553.452 743.848,-290.002 749.096,-236.616"/>
<polygon fill="#9a32cd" stroke="#9a32cd" points="360.77,-945.202 350.176,-945.069 358.375,-951.779 360.77,-945.202"/>
<text text-anchor="middle" x="576" y="-1019.95" font-family="Helvetica,sans-Serif" font-size="10.00"> gradient_</text>
<text text-anchor="middle" x="576" y="-1008.95" font-family="Helvetica,sans-Serif" font-size="10.00">X_</text>
<text text-anchor="middle" x="576" y="-997.947" font-family="Helvetica,sans-Serif" font-size="10.00">D_</text>
<text text-anchor="middle" x="576" y="-986.947" font-family="Helvetica,sans-Serif" font-size="10.00">sigma_</text>
<text text-anchor="middle" x="576" y="-975.947" font-family="Helvetica,sans-Serif" font-size="10.00">S_</text>
<text text-anchor="middle" x="576" y="-964.947" font-family="Helvetica,sans-Serif" font-size="10.00">R_</text>
<text text-anchor="middle" x="576" y="-953.947" font-family="Helvetica,sans-Serif" font-size="10.00">Q_</text>
<text text-anchor="middle" x="576" y="-942.947" font-family="Helvetica,sans-Serif" font-size="10.00">Hd_</text>
</g>
<!-- Node17&#45;&gt;Node1 -->
<g id="edge28" class="edge"><title>Node17&#45;&gt;Node1</title>
<path fill="none" stroke="#9a32cd" stroke-dasharray="5,2" d="M642.18,-209.496C659.38,-212.28 677.779,-215.258 694.42,-217.952"/>
<polygon fill="#9a32cd" stroke="#9a32cd" points="642.645,-206.026 632.214,-207.883 641.526,-212.936 642.645,-206.026"/>
<text text-anchor="middle" x="663" y="-217.947" font-family="Helvetica,sans-Serif" font-size="10.00"> _ints</text>
</g>
</g>
</svg>
