<?xml version="1.0" encoding="UTF-8" standalone="no"?>
<!DOCTYPE svg PUBLIC "-//W3C//DTD SVG 1.1//EN"
 "http://www.w3.org/Graphics/SVG/1.1/DTD/svg11.dtd">
<!-- Generated by graphviz version 2.30.1 (20140110.0959)
 -->
<!-- Title: psi::psimrcc::CCManyBody Pages: 1 -->
<svg width="417pt" height="84pt"
 viewBox="0.00 0.00 417.00 84.00" xmlns="http://www.w3.org/2000/svg" xmlns:xlink="http://www.w3.org/1999/xlink">
<g id="graph0" class="graph" transform="scale(1 1) rotate(0) translate(4 80)">
<title>psi::psimrcc::CCManyBody</title>
<!-- Node1 -->
<g id="node1" class="node"><title>Node1</title>
<polygon fill="#bfbfbf" stroke="black" points="131.5,-56.5 131.5,-75.5 268.5,-75.5 268.5,-56.5 131.5,-56.5"/>
<text text-anchor="middle" x="200" y="-63.5" font-family="Helvetica,sans-Serif" font-size="10.00">psi::psimrcc::CCManyBody</text>
</g>
<!-- Node2 -->
<g id="node2" class="node"><title>Node2</title>
<g id="a_node2"><a xlink:href="classpsi_1_1psimrcc_1_1CCMRCC.html" target="_top" xlink:title="psi::psimrcc::CCMRCC">
<polygon fill="none" stroke="black" points="0,-0.5 0,-19.5 122,-19.5 122,-0.5 0,-0.5"/>
<text text-anchor="middle" x="61" y="-7.5" font-family="Helvetica,sans-Serif" font-size="10.00">psi::psimrcc::CCMRCC</text>
</a>
</g>
</g>
<!-- Node1&#45;&gt;Node2 -->
<g id="edge1" class="edge"><title>Node1&#45;&gt;Node2</title>
<path fill="none" stroke="midnightblue" d="M168.524,-52.772C142.415,-42.6287 105.961,-28.4669 82.9219,-19.5164"/>
<polygon fill="midnightblue" stroke="midnightblue" points="167.386,-56.0847 177.975,-56.4435 169.921,-49.5598 167.386,-56.0847"/>
</g>
<!-- Node3 -->
<g id="node3" class="node"><title>Node3</title>
<g id="a_node3"><a xlink:href="classpsi_1_1psimrcc_1_1IDMRPT2.html" target="_top" xlink:title="psi::psimrcc::IDMRPT2">
<polygon fill="none" stroke="black" points="140,-0.5 140,-19.5 260,-19.5 260,-0.5 140,-0.5"/>
<text text-anchor="middle" x="200" y="-7.5" font-family="Helvetica,sans-Serif" font-size="10.00">psi::psimrcc::IDMRPT2</text>
</a>
</g>
</g>
<!-- Node1&#45;&gt;Node3 -->
<g id="edge2" class="edge"><title>Node1&#45;&gt;Node3</title>
<path fill="none" stroke="midnightblue" d="M200,-45.8045C200,-36.9102 200,-26.7798 200,-19.7511"/>
<polygon fill="midnightblue" stroke="midnightblue" points="196.5,-46.083 200,-56.083 203.5,-46.083 196.5,-46.083"/>
</g>
<!-- Node4 -->
<g id="node4" class="node"><title>Node4</title>
<g id="a_node4"><a xlink:href="classpsi_1_1psimrcc_1_1MP2__CCSD.html" target="_top" xlink:title="psi::psimrcc::MP2_CCSD">
<polygon fill="none" stroke="black" points="278.5,-0.5 278.5,-19.5 409.5,-19.5 409.5,-0.5 278.5,-0.5"/>
<text text-anchor="middle" x="344" y="-7.5" font-family="Helvetica,sans-Serif" font-size="10.00">psi::psimrcc::MP2_CCSD</text>
</a>
</g>
</g>
<!-- Node1&#45;&gt;Node4 -->
<g id="edge3" class="edge"><title>Node1&#45;&gt;Node4</title>
<path fill="none" stroke="midnightblue" d="M232.251,-52.9058C259.324,-42.7536 297.317,-28.5063 321.29,-19.5164"/>
<polygon fill="midnightblue" stroke="midnightblue" points="230.952,-49.6551 222.817,-56.4435 233.409,-56.2094 230.952,-49.6551"/>
</g>
</g>
</svg>
