<?xml version="1.0" encoding="UTF-8" standalone="no"?>
<!DOCTYPE svg PUBLIC "-//W3C//DTD SVG 1.1//EN"
 "http://www.w3.org/Graphics/SVG/1.1/DTD/svg11.dtd">
<!-- Generated by graphviz version 2.30.1 (20140110.0959)
 -->
<!-- Title: psi::Matrix::horzcat Pages: 1 -->
<svg width="298pt" height="77pt"
 viewBox="0.00 0.00 298.00 77.00" xmlns="http://www.w3.org/2000/svg" xmlns:xlink="http://www.w3.org/1999/xlink">
<g id="graph0" class="graph" transform="scale(1 1) rotate(0) translate(4 73)">
<title>psi::Matrix::horzcat</title>
<!-- Node1 -->
<g id="node1" class="node"><title>Node1</title>
<polygon fill="#bfbfbf" stroke="black" points="0.5,-22.5 0.5,-41.5 101.5,-41.5 101.5,-22.5 0.5,-22.5"/>
<text text-anchor="middle" x="51" y="-29.5" font-family="Helvetica,sans-Serif" font-size="10.00">psi::Matrix::horzcat</text>
</g>
<!-- Node2 -->
<g id="node2" class="node"><title>Node2</title>
<g id="a_node2"><a xlink:href="classpsi_1_1lmp2_1_1Lmp2.html#ab021a8d9fd86ee74993e9af9c05e84f7" target="_top" xlink:title="Compute energy. Subclasses override this function to compute its energy.">
<polygon fill="none" stroke="black" points="149,-39 149,-69 279,-69 279,-39 149,-39"/>
<text text-anchor="start" x="157" y="-57" font-family="Helvetica,sans-Serif" font-size="10.00">psi::lmp2::Lmp2::compute</text>
<text text-anchor="middle" x="214" y="-46" font-family="Helvetica,sans-Serif" font-size="10.00">_energy</text>
</a>
</g>
</g>
<!-- Node1&#45;&gt;Node2 -->
<g id="edge1" class="edge"><title>Node1&#45;&gt;Node2</title>
<path fill="none" stroke="midnightblue" d="M111.656,-40.1517C123.828,-41.8149 136.682,-43.5715 148.998,-45.2544"/>
<polygon fill="midnightblue" stroke="midnightblue" points="112.001,-36.6664 101.619,-38.7802 111.053,-43.602 112.001,-36.6664"/>
</g>
<!-- Node3 -->
<g id="node3" class="node"><title>Node3</title>
<g id="a_node3"><a xlink:href="classpsi_1_1LRERI.html#a805a5d3b166cc291f4e842c96bcf9c98" target="_top" xlink:title="O: Load the usual orbital spaces for an RHF or UHF wavefunction.">
<polygon fill="none" stroke="black" points="138,-0.5 138,-19.5 290,-19.5 290,-0.5 138,-0.5"/>
<text text-anchor="middle" x="214" y="-7.5" font-family="Helvetica,sans-Serif" font-size="10.00">psi::LRERI::load_wavefunction</text>
</a>
</g>
</g>
<!-- Node1&#45;&gt;Node3 -->
<g id="edge2" class="edge"><title>Node1&#45;&gt;Node3</title>
<path fill="none" stroke="midnightblue" d="M111.746,-23.8359C122.063,-22.4261 132.869,-20.9496 143.419,-19.508"/>
<polygon fill="midnightblue" stroke="midnightblue" points="111.053,-20.398 101.619,-25.2198 112.001,-27.3336 111.053,-20.398"/>
</g>
</g>
</svg>
