<?xml version="1.0" encoding="UTF-8" standalone="no"?>
<!DOCTYPE svg PUBLIC "-//W3C//DTD SVG 1.1//EN"
 "http://www.w3.org/Graphics/SVG/1.1/DTD/svg11.dtd">
<!-- Generated by graphviz version 2.30.1 (20140110.0959)
 -->
<!-- Title: psi::FittingMetric Pages: 1 -->
<svg width="518pt" height="175pt"
 viewBox="0.00 0.00 518.00 175.00" xmlns="http://www.w3.org/2000/svg" xmlns:xlink="http://www.w3.org/1999/xlink">
<g id="graph0" class="graph" transform="scale(1 1) rotate(0) translate(4 171)">
<title>psi::FittingMetric</title>
<!-- Node1 -->
<g id="node1" class="node"><title>Node1</title>
<polygon fill="#bfbfbf" stroke="black" points="420.5,-68.5 420.5,-87.5 509.5,-87.5 509.5,-68.5 420.5,-68.5"/>
<text text-anchor="middle" x="465" y="-75.5" font-family="Helvetica,sans-Serif" font-size="10.00">psi::FittingMetric</text>
</g>
<!-- Node2 -->
<g id="node2" class="node"><title>Node2</title>
<g id="a_node2"><a xlink:href="classboost_1_1shared__ptr.html" target="_top" xlink:title="boost::shared_ptr\&lt;\l psi::BasisSet \&gt;">
<polygon fill="none" stroke="black" points="232,-137 232,-167 330,-167 330,-137 232,-137"/>
<text text-anchor="start" x="240" y="-155" font-family="Helvetica,sans-Serif" font-size="10.00">boost::shared_ptr&lt;</text>
<text text-anchor="middle" x="281" y="-144" font-family="Helvetica,sans-Serif" font-size="10.00"> psi::BasisSet &gt;</text>
</a>
</g>
</g>
<!-- Node2&#45;&gt;Node1 -->
<g id="edge1" class="edge"><title>Node2&#45;&gt;Node1</title>
<path fill="none" stroke="#9a32cd" stroke-dasharray="5,2" d="M337.575,-133.642C358.037,-126.476 381.27,-117.859 402,-109 417.271,-102.474 434.095,-93.9753 446.359,-87.5275"/>
<polygon fill="#9a32cd" stroke="#9a32cd" points="336.385,-130.35 328.083,-136.932 338.678,-136.964 336.385,-130.35"/>
<text text-anchor="middle" x="375" y="-143" font-family="Helvetica,sans-Serif" font-size="10.00"> pois_</text>
<text text-anchor="middle" x="375" y="-132" font-family="Helvetica,sans-Serif" font-size="10.00">aux_</text>
</g>
<!-- Node3 -->
<g id="node3" class="node"><title>Node3</title>
<g id="a_node3"><a xlink:href="classboost_1_1shared__ptr.html" target="_top" xlink:title="boost::shared_ptr\&lt; T \&gt;">
<polygon fill="none" stroke="black" points="0,-93.5 0,-112.5 116,-112.5 116,-93.5 0,-93.5"/>
<text text-anchor="middle" x="58" y="-100.5" font-family="Helvetica,sans-Serif" font-size="10.00">boost::shared_ptr&lt; T &gt;</text>
</a>
</g>
</g>
<!-- Node3&#45;&gt;Node2 -->
<g id="edge2" class="edge"><title>Node3&#45;&gt;Node2</title>
<path fill="none" stroke="orange" stroke-dasharray="5,2" d="M111.834,-114.714C148.317,-122.803 196.451,-133.476 231.871,-141.329"/>
<polygon fill="orange" stroke="orange" points="112.394,-111.253 101.873,-112.506 110.878,-118.088 112.394,-111.253"/>
<text text-anchor="middle" x="174" y="-139" font-family="Helvetica,sans-Serif" font-size="10.00"> &lt; psi::BasisSet &gt;</text>
</g>
<!-- Node4 -->
<g id="node4" class="node"><title>Node4</title>
<g id="a_node4"><a xlink:href="classboost_1_1shared__ptr.html" target="_top" xlink:title="boost::shared_ptr\&lt;\l psi::Matrix \&gt;">
<polygon fill="none" stroke="black" points="232,-88 232,-118 330,-118 330,-88 232,-88"/>
<text text-anchor="start" x="240" y="-106" font-family="Helvetica,sans-Serif" font-size="10.00">boost::shared_ptr&lt;</text>
<text text-anchor="middle" x="281" y="-95" font-family="Helvetica,sans-Serif" font-size="10.00"> psi::Matrix &gt;</text>
</a>
</g>
</g>
<!-- Node3&#45;&gt;Node4 -->
<g id="edge4" class="edge"><title>Node3&#45;&gt;Node4</title>
<path fill="none" stroke="orange" stroke-dasharray="5,2" d="M126.513,-103C160.464,-103 200.829,-103 231.641,-103"/>
<polygon fill="orange" stroke="orange" points="126.2,-99.5001 116.2,-103 126.2,-106.5 126.2,-99.5001"/>
<text text-anchor="middle" x="174" y="-106" font-family="Helvetica,sans-Serif" font-size="10.00"> &lt; psi::Matrix &gt;</text>
</g>
<!-- Node6 -->
<g id="node6" class="node"><title>Node6</title>
<g id="a_node6"><a xlink:href="classboost_1_1shared__ptr.html" target="_top" xlink:title="boost::shared_ptr\&lt;\l psi::IntVector \&gt;">
<polygon fill="none" stroke="black" points="232,-39 232,-69 330,-69 330,-39 232,-39"/>
<text text-anchor="start" x="240" y="-57" font-family="Helvetica,sans-Serif" font-size="10.00">boost::shared_ptr&lt;</text>
<text text-anchor="middle" x="281" y="-46" font-family="Helvetica,sans-Serif" font-size="10.00"> psi::IntVector &gt;</text>
</a>
</g>
</g>
<!-- Node3&#45;&gt;Node6 -->
<g id="edge7" class="edge"><title>Node3&#45;&gt;Node6</title>
<path fill="none" stroke="orange" stroke-dasharray="5,2" d="M111.834,-91.2857C148.317,-83.1967 196.451,-72.5244 231.871,-64.6711"/>
<polygon fill="orange" stroke="orange" points="110.878,-87.9125 101.873,-93.4942 112.394,-94.7465 110.878,-87.9125"/>
<text text-anchor="middle" x="174" y="-89" font-family="Helvetica,sans-Serif" font-size="10.00"> &lt; psi::IntVector &gt;</text>
</g>
<!-- Node4&#45;&gt;Node1 -->
<g id="edge3" class="edge"><title>Node4&#45;&gt;Node1</title>
<path fill="none" stroke="#9a32cd" stroke-dasharray="5,2" d="M340.407,-94.9771C366.401,-91.4064 396.485,-87.2741 420.463,-83.9804"/>
<polygon fill="#9a32cd" stroke="#9a32cd" points="339.725,-91.5377 330.295,-96.3661 340.678,-98.4726 339.725,-91.5377"/>
<text text-anchor="middle" x="375" y="-97" font-family="Helvetica,sans-Serif" font-size="10.00"> metric_</text>
</g>
<!-- Node5 -->
<g id="node5" class="node"><title>Node5</title>
<polygon fill="none" stroke="#bfbfbf" points="260.5,-0.5 260.5,-19.5 301.5,-19.5 301.5,-0.5 260.5,-0.5"/>
<text text-anchor="middle" x="281" y="-7.5" font-family="Helvetica,sans-Serif" font-size="10.00">string</text>
</g>
<!-- Node5&#45;&gt;Node1 -->
<g id="edge5" class="edge"><title>Node5&#45;&gt;Node1</title>
<path fill="none" stroke="#9a32cd" stroke-dasharray="5,2" d="M311.675,-14.0124C336.517,-18.049 372.531,-25.5026 402,-38 420.633,-45.902 439.883,-59.2868 451.891,-68.3765"/>
<polygon fill="#9a32cd" stroke="#9a32cd" points="312.18,-10.549 301.764,-12.4869 311.115,-17.4676 312.18,-10.549"/>
<text text-anchor="middle" x="375" y="-41" font-family="Helvetica,sans-Serif" font-size="10.00"> algorithm_</text>
</g>
<!-- Node6&#45;&gt;Node1 -->
<g id="edge6" class="edge"><title>Node6&#45;&gt;Node1</title>
<path fill="none" stroke="#9a32cd" stroke-dasharray="5,2" d="M340.272,-52.6907C359.993,-53.1078 382.065,-54.523 402,-58 414.702,-60.2154 428.386,-64.4238 439.658,-68.4108"/>
<polygon fill="#9a32cd" stroke="#9a32cd" points="340.242,-49.1901 330.196,-52.558 340.149,-56.1895 340.242,-49.1901"/>
<text text-anchor="middle" x="375" y="-72" font-family="Helvetica,sans-Serif" font-size="10.00"> rev_pivots_</text>
<text text-anchor="middle" x="375" y="-61" font-family="Helvetica,sans-Serif" font-size="10.00">pivots_</text>
</g>
</g>
</svg>
