<?xml version="1.0" encoding="UTF-8" standalone="no"?>
<!DOCTYPE svg PUBLIC "-//W3C//DTD SVG 1.1//EN"
 "http://www.w3.org/Graphics/SVG/1.1/DTD/svg11.dtd">
<!-- Generated by graphviz version 2.30.1 (20140110.0959)
 -->
<!-- Title: psi::Matrix::triplet Pages: 1 -->
<svg width="368pt" height="104pt"
 viewBox="0.00 0.00 368.00 104.00" xmlns="http://www.w3.org/2000/svg" xmlns:xlink="http://www.w3.org/1999/xlink">
<g id="graph0" class="graph" transform="scale(1 1) rotate(0) translate(4 100)">
<title>psi::Matrix::triplet</title>
<!-- Node1 -->
<g id="node1" class="node"><title>Node1</title>
<polygon fill="#bfbfbf" stroke="black" points="0,-38.5 0,-57.5 92,-57.5 92,-38.5 0,-38.5"/>
<text text-anchor="middle" x="46" y="-45.5" font-family="Helvetica,sans-Serif" font-size="10.00">psi::Matrix::triplet</text>
</g>
<!-- Node2 -->
<g id="node2" class="node"><title>Node2</title>
<g id="a_node2"><a xlink:href="classpsi_1_1Matrix.html#a0af8a4c263473fd49f5a04d68652e009" target="_top" xlink:title="psi::Matrix::doublet">
<polygon fill="none" stroke="black" points="128,-38.5 128,-57.5 228,-57.5 228,-38.5 128,-38.5"/>
<text text-anchor="middle" x="178" y="-45.5" font-family="Helvetica,sans-Serif" font-size="10.00">psi::Matrix::doublet</text>
</a>
</g>
</g>
<!-- Node1&#45;&gt;Node2 -->
<g id="edge1" class="edge"><title>Node1&#45;&gt;Node2</title>
<path fill="none" stroke="midnightblue" d="M92.1029,-48C100.431,-48 109.241,-48 117.91,-48"/>
<polygon fill="midnightblue" stroke="midnightblue" points="117.984,-51.5001 127.984,-48 117.984,-44.5001 117.984,-51.5001"/>
</g>
<!-- Node3 -->
<g id="node3" class="node"><title>Node3</title>
<g id="a_node3"><a xlink:href="classpsi_1_1Matrix.html#a0acfcfb5d8cb154b3220989ac55589bd" target="_top" xlink:title="Returns the number of irreps.">
<polygon fill="none" stroke="black" points="266,-76.5 266,-95.5 358,-95.5 358,-76.5 266,-76.5"/>
<text text-anchor="middle" x="312" y="-83.5" font-family="Helvetica,sans-Serif" font-size="10.00">psi::Matrix::nirrep</text>
</a>
</g>
</g>
<!-- Node2&#45;&gt;Node3 -->
<g id="edge2" class="edge"><title>Node2&#45;&gt;Node3</title>
<path fill="none" stroke="midnightblue" d="M212.309,-57.589C229.193,-62.4494 249.895,-68.4091 267.971,-73.6127"/>
<polygon fill="midnightblue" stroke="midnightblue" points="267.123,-77.011 277.701,-76.4141 269.06,-70.2842 267.123,-77.011"/>
</g>
<!-- Node4 -->
<g id="node4" class="node"><title>Node4</title>
<g id="a_node4"><a xlink:href="classpsi_1_1Matrix.html#a2dba13c45127354c9f75ef576f49269b" target="_top" xlink:title="Default constructor, zeros everything out.">
<polygon fill="none" stroke="black" points="264.5,-38.5 264.5,-57.5 359.5,-57.5 359.5,-38.5 264.5,-38.5"/>
<text text-anchor="middle" x="312" y="-45.5" font-family="Helvetica,sans-Serif" font-size="10.00">psi::Matrix::Matrix</text>
</a>
</g>
</g>
<!-- Node2&#45;&gt;Node4 -->
<g id="edge3" class="edge"><title>Node2&#45;&gt;Node4</title>
<path fill="none" stroke="midnightblue" d="M228.152,-48C236.687,-48 245.624,-48 254.34,-48"/>
<polygon fill="midnightblue" stroke="midnightblue" points="254.433,-51.5001 264.433,-48 254.433,-44.5001 254.433,-51.5001"/>
</g>
<!-- Node5 -->
<g id="node5" class="node"><title>Node5</title>
<g id="a_node5"><a xlink:href="namespacepsi.html#a1112df35ff9d2b780efb0c24662f4fbe" target="_top" xlink:title="psi::C_DGEMM">
<polygon fill="none" stroke="black" points="269,-0.5 269,-19.5 355,-19.5 355,-0.5 269,-0.5"/>
<text text-anchor="middle" x="312" y="-7.5" font-family="Helvetica,sans-Serif" font-size="10.00">psi::C_DGEMM</text>
</a>
</g>
</g>
<!-- Node2&#45;&gt;Node5 -->
<g id="edge4" class="edge"><title>Node2&#45;&gt;Node5</title>
<path fill="none" stroke="midnightblue" d="M212.309,-38.411C229.193,-33.5506 249.895,-27.5909 267.971,-22.3873"/>
<polygon fill="midnightblue" stroke="midnightblue" points="269.06,-25.7158 277.701,-19.5859 267.123,-18.989 269.06,-25.7158"/>
</g>
</g>
</svg>
