<?xml version="1.0" encoding="UTF-8" standalone="no"?>
<!DOCTYPE svg PUBLIC "-//W3C//DTD SVG 1.1//EN"
 "http://www.w3.org/Graphics/SVG/1.1/DTD/svg11.dtd">
<!-- Generated by graphviz version 2.30.1 (20140110.0959)
 -->
<!-- Title: psi::OEProp Pages: 1 -->
<svg width="674pt" height="323pt"
 viewBox="0.00 0.00 674.00 323.00" xmlns="http://www.w3.org/2000/svg" xmlns:xlink="http://www.w3.org/1999/xlink">
<g id="graph0" class="graph" transform="scale(1 1) rotate(0) translate(4 319)">
<title>psi::OEProp</title>
<!-- Node1 -->
<g id="node1" class="node"><title>Node1</title>
<polygon fill="#bfbfbf" stroke="black" points="596,-145.5 596,-164.5 666,-164.5 666,-145.5 596,-145.5"/>
<text text-anchor="middle" x="631" y="-152.5" font-family="Helvetica,sans-Serif" font-size="10.00">psi::OEProp</text>
</g>
<!-- Node2 -->
<g id="node2" class="node"><title>Node2</title>
<g id="a_node2"><a xlink:href="classpsi_1_1Prop.html" target="_top" xlink:title="psi::Prop">
<polygon fill="none" stroke="black" points="465,-167.5 465,-186.5 521,-186.5 521,-167.5 465,-167.5"/>
<text text-anchor="middle" x="493" y="-174.5" font-family="Helvetica,sans-Serif" font-size="10.00">psi::Prop</text>
</a>
</g>
</g>
<!-- Node2&#45;&gt;Node1 -->
<g id="edge1" class="edge"><title>Node2&#45;&gt;Node1</title>
<path fill="none" stroke="midnightblue" d="M531.275,-170.97C551.444,-167.708 576.18,-163.706 595.847,-160.525"/>
<polygon fill="midnightblue" stroke="midnightblue" points="530.507,-167.549 521.195,-172.601 531.625,-174.459 530.507,-167.549"/>
</g>
<!-- Node3 -->
<g id="node3" class="node"><title>Node3</title>
<g id="a_node3"><a xlink:href="classboost_1_1shared__ptr.html" target="_top" xlink:title="boost::shared_ptr\&lt;\l psi::MatrixFactory \&gt;">
<polygon fill="none" stroke="black" points="261.5,-284 261.5,-314 368.5,-314 368.5,-284 261.5,-284"/>
<text text-anchor="start" x="269.5" y="-302" font-family="Helvetica,sans-Serif" font-size="10.00">boost::shared_ptr&lt;</text>
<text text-anchor="middle" x="315" y="-291" font-family="Helvetica,sans-Serif" font-size="10.00"> psi::MatrixFactory &gt;</text>
</a>
</g>
</g>
<!-- Node3&#45;&gt;Node2 -->
<g id="edge2" class="edge"><title>Node3&#45;&gt;Node2</title>
<path fill="none" stroke="#9a32cd" stroke-dasharray="5,2" d="M376.836,-280.282C398.144,-271.912 421.38,-260.585 440,-246 461.492,-229.166 478.708,-201.393 486.864,-186.743"/>
<polygon fill="#9a32cd" stroke="#9a32cd" points="375.323,-277.112 367.205,-283.92 377.797,-283.66 375.323,-277.112"/>
<text text-anchor="middle" x="415" y="-277" font-family="Helvetica,sans-Serif" font-size="10.00"> factory_</text>
</g>
<!-- Node4 -->
<g id="node4" class="node"><title>Node4</title>
<g id="a_node4"><a xlink:href="classboost_1_1shared__ptr.html" target="_top" xlink:title="boost::shared_ptr\&lt; T \&gt;">
<polygon fill="none" stroke="black" points="0,-166.5 0,-185.5 116,-185.5 116,-166.5 0,-166.5"/>
<text text-anchor="middle" x="58" y="-173.5" font-family="Helvetica,sans-Serif" font-size="10.00">boost::shared_ptr&lt; T &gt;</text>
</a>
</g>
</g>
<!-- Node4&#45;&gt;Node3 -->
<g id="edge3" class="edge"><title>Node4&#45;&gt;Node3</title>
<path fill="none" stroke="orange" stroke-dasharray="5,2" d="M72.1562,-193.766C85.777,-210.908 108.597,-236.354 134,-251 173.366,-273.697 223.74,-285.938 261.181,-292.365"/>
<polygon fill="orange" stroke="orange" points="74.7844,-191.443 65.907,-185.66 69.2406,-195.717 74.7844,-191.443"/>
<text text-anchor="middle" x="187" y="-291" font-family="Helvetica,sans-Serif" font-size="10.00"> &lt; psi::MatrixFactory &gt;</text>
</g>
<!-- Node5 -->
<g id="node5" class="node"><title>Node5</title>
<g id="a_node5"><a xlink:href="classboost_1_1shared__ptr.html" target="_top" xlink:title="boost::shared_ptr\&lt;\l psi::IntegralFactory \&gt;">
<polygon fill="none" stroke="black" points="258.5,-235 258.5,-265 371.5,-265 371.5,-235 258.5,-235"/>
<text text-anchor="start" x="266.5" y="-253" font-family="Helvetica,sans-Serif" font-size="10.00">boost::shared_ptr&lt;</text>
<text text-anchor="middle" x="315" y="-242" font-family="Helvetica,sans-Serif" font-size="10.00"> psi::IntegralFactory &gt;</text>
</a>
</g>
</g>
<!-- Node4&#45;&gt;Node5 -->
<g id="edge5" class="edge"><title>Node4&#45;&gt;Node5</title>
<path fill="none" stroke="orange" stroke-dasharray="5,2" d="M87.4589,-190.055C101.266,-196.475 118.24,-203.791 134,-209 174.778,-222.479 222.184,-233.08 258.107,-240.124"/>
<polygon fill="orange" stroke="orange" points="88.5623,-186.704 78.0272,-185.581 85.5624,-193.029 88.5623,-186.704"/>
<text text-anchor="middle" x="187" y="-239" font-family="Helvetica,sans-Serif" font-size="10.00"> &lt; psi::IntegralFactory &gt;</text>
</g>
<!-- Node6 -->
<g id="node6" class="node"><title>Node6</title>
<g id="a_node6"><a xlink:href="classboost_1_1shared__ptr.html" target="_top" xlink:title="boost::shared_ptr\&lt;\l psi::Wavefunction \&gt;">
<polygon fill="none" stroke="black" points="261.5,-186 261.5,-216 368.5,-216 368.5,-186 261.5,-186"/>
<text text-anchor="start" x="269.5" y="-204" font-family="Helvetica,sans-Serif" font-size="10.00">boost::shared_ptr&lt;</text>
<text text-anchor="middle" x="315" y="-193" font-family="Helvetica,sans-Serif" font-size="10.00"> psi::Wavefunction &gt;</text>
</a>
</g>
</g>
<!-- Node4&#45;&gt;Node6 -->
<g id="edge7" class="edge"><title>Node4&#45;&gt;Node6</title>
<path fill="none" stroke="orange" stroke-dasharray="5,2" d="M126.421,-182.61C168.629,-186.748 222.224,-192.002 261.309,-195.834"/>
<polygon fill="orange" stroke="orange" points="126.521,-179.103 116.227,-181.61 125.838,-186.07 126.521,-179.103"/>
<text text-anchor="middle" x="187" y="-197" font-family="Helvetica,sans-Serif" font-size="10.00"> &lt; psi::Wavefunction &gt;</text>
</g>
<!-- Node7 -->
<g id="node7" class="node"><title>Node7</title>
<g id="a_node7"><a xlink:href="classboost_1_1shared__ptr.html" target="_top" xlink:title="boost::shared_ptr\&lt;\l psi::BasisSet \&gt;">
<polygon fill="none" stroke="black" points="266,-137 266,-167 364,-167 364,-137 266,-137"/>
<text text-anchor="start" x="274" y="-155" font-family="Helvetica,sans-Serif" font-size="10.00">boost::shared_ptr&lt;</text>
<text text-anchor="middle" x="315" y="-144" font-family="Helvetica,sans-Serif" font-size="10.00"> psi::BasisSet &gt;</text>
</a>
</g>
</g>
<!-- Node4&#45;&gt;Node7 -->
<g id="edge9" class="edge"><title>Node4&#45;&gt;Node7</title>
<path fill="none" stroke="orange" stroke-dasharray="5,2" d="M125.195,-165.069C128.168,-164.686 131.113,-164.326 134,-164 178.503,-158.967 229.453,-155.813 265.761,-154.008"/>
<polygon fill="orange" stroke="orange" points="124.465,-161.637 115.03,-166.458 125.412,-168.572 124.465,-161.637"/>
<text text-anchor="middle" x="187" y="-167" font-family="Helvetica,sans-Serif" font-size="10.00"> &lt; psi::BasisSet &gt;</text>
</g>
<!-- Node8 -->
<g id="node8" class="node"><title>Node8</title>
<g id="a_node8"><a xlink:href="classboost_1_1shared__ptr.html" target="_top" xlink:title="boost::shared_ptr\&lt;\l psi::Matrix \&gt;">
<polygon fill="none" stroke="black" points="266,-88 266,-118 364,-118 364,-88 266,-88"/>
<text text-anchor="start" x="274" y="-106" font-family="Helvetica,sans-Serif" font-size="10.00">boost::shared_ptr&lt;</text>
<text text-anchor="middle" x="315" y="-95" font-family="Helvetica,sans-Serif" font-size="10.00"> psi::Matrix &gt;</text>
</a>
</g>
</g>
<!-- Node4&#45;&gt;Node8 -->
<g id="edge11" class="edge"><title>Node4&#45;&gt;Node8</title>
<path fill="none" stroke="orange" stroke-dasharray="5,2" d="M85.5112,-161.813C99.5965,-154.746 117.39,-146.548 134,-141 177.623,-126.43 229.123,-116.228 265.836,-110.09"/>
<polygon fill="orange" stroke="orange" points="83.7136,-158.802 76.4124,-166.479 86.9077,-165.03 83.7136,-158.802"/>
<text text-anchor="middle" x="187" y="-144" font-family="Helvetica,sans-Serif" font-size="10.00"> &lt; psi::Matrix &gt;</text>
</g>
<!-- Node10 -->
<g id="node10" class="node"><title>Node10</title>
<g id="a_node10"><a xlink:href="classboost_1_1shared__ptr.html" target="_top" xlink:title="boost::shared_ptr\&lt;\l psi::Vector \&gt;">
<polygon fill="none" stroke="black" points="266,-39 266,-69 364,-69 364,-39 266,-39"/>
<text text-anchor="start" x="274" y="-57" font-family="Helvetica,sans-Serif" font-size="10.00">boost::shared_ptr&lt;</text>
<text text-anchor="middle" x="315" y="-46" font-family="Helvetica,sans-Serif" font-size="10.00"> psi::Vector &gt;</text>
</a>
</g>
</g>
<!-- Node4&#45;&gt;Node10 -->
<g id="edge14" class="edge"><title>Node4&#45;&gt;Node10</title>
<path fill="none" stroke="orange" stroke-dasharray="5,2" d="M71.8548,-158.213C85.3841,-140.792 108.262,-114.775 134,-100 174.981,-76.4756 228.005,-64.8112 265.869,-59.1366"/>
<polygon fill="orange" stroke="orange" points="68.8841,-156.34 65.6664,-166.434 74.4768,-160.55 68.8841,-156.34"/>
<text text-anchor="middle" x="187" y="-103" font-family="Helvetica,sans-Serif" font-size="10.00"> &lt; psi::Vector &gt;</text>
</g>
<!-- Node5&#45;&gt;Node2 -->
<g id="edge4" class="edge"><title>Node5&#45;&gt;Node2</title>
<path fill="none" stroke="#9a32cd" stroke-dasharray="5,2" d="M381.204,-233.163C400.55,-227.197 421.502,-219.752 440,-211 454.235,-204.265 469.147,-194.154 479.333,-186.707"/>
<polygon fill="#9a32cd" stroke="#9a32cd" points="380.127,-229.831 371.555,-236.059 382.139,-236.536 380.127,-229.831"/>
<text text-anchor="middle" x="415" y="-234" font-family="Helvetica,sans-Serif" font-size="10.00"> integral_</text>
</g>
<!-- Node6&#45;&gt;Node2 -->
<g id="edge6" class="edge"><title>Node6&#45;&gt;Node2</title>
<path fill="none" stroke="#9a32cd" stroke-dasharray="5,2" d="M378.765,-196.527C398.439,-194.696 420.186,-192.231 440,-189 448.138,-187.673 456.903,-185.818 464.875,-183.963"/>
<polygon fill="#9a32cd" stroke="#9a32cd" points="378.336,-193.051 368.687,-197.427 378.959,-200.023 378.336,-193.051"/>
<text text-anchor="middle" x="415" y="-199" font-family="Helvetica,sans-Serif" font-size="10.00"> wfn_</text>
</g>
<!-- Node7&#45;&gt;Node2 -->
<g id="edge8" class="edge"><title>Node7&#45;&gt;Node2</title>
<path fill="none" stroke="#9a32cd" stroke-dasharray="5,2" d="M374.212,-160.269C404.737,-164.605 440.683,-169.711 464.765,-173.131"/>
<polygon fill="#9a32cd" stroke="#9a32cd" points="374.486,-156.773 364.093,-158.831 373.501,-163.703 374.486,-156.773"/>
<text text-anchor="middle" x="415" y="-173" font-family="Helvetica,sans-Serif" font-size="10.00"> basisset_</text>
</g>
<!-- Node8&#45;&gt;Node2 -->
<g id="edge10" class="edge"><title>Node8&#45;&gt;Node2</title>
<path fill="none" stroke="#9a32cd" stroke-dasharray="5,2" d="M374.411,-90.4399C396.82,-88.8727 421.44,-91.4745 440,-105 460.105,-119.651 442.082,-138.882 458,-158 461.115,-161.742 465.167,-164.881 469.383,-167.462"/>
<polygon fill="#9a32cd" stroke="#9a32cd" points="373.912,-86.9719 364.301,-91.4291 374.594,-93.9387 373.912,-86.9719"/>
<text text-anchor="middle" x="415" y="-152" font-family="Helvetica,sans-Serif" font-size="10.00"> Ca_so_</text>
<text text-anchor="middle" x="415" y="-141" font-family="Helvetica,sans-Serif" font-size="10.00">Db_so_</text>
<text text-anchor="middle" x="415" y="-130" font-family="Helvetica,sans-Serif" font-size="10.00">Cb_so_</text>
<text text-anchor="middle" x="415" y="-119" font-family="Helvetica,sans-Serif" font-size="10.00">AO2USO_</text>
<text text-anchor="middle" x="415" y="-108" font-family="Helvetica,sans-Serif" font-size="10.00">Da_so_</text>
</g>
<!-- Node9 -->
<g id="node9" class="node"><title>Node9</title>
<polygon fill="none" stroke="#bfbfbf" points="294.5,-0.5 294.5,-19.5 335.5,-19.5 335.5,-0.5 294.5,-0.5"/>
<text text-anchor="middle" x="315" y="-7.5" font-family="Helvetica,sans-Serif" font-size="10.00">string</text>
</g>
<!-- Node9&#45;&gt;Node2 -->
<g id="edge12" class="edge"><title>Node9&#45;&gt;Node2</title>
<path fill="none" stroke="#9a32cd" stroke-dasharray="5,2" d="M345.636,-6.0349C373.962,-4.05424 415.827,-6.1663 440,-31 479.764,-71.851 425.764,-110.981 458,-158 460.6,-161.792 464.218,-164.911 468.129,-167.445"/>
<polygon fill="#9a32cd" stroke="#9a32cd" points="345.149,-2.56458 335.507,-6.95556 345.783,-9.53583 345.149,-2.56458"/>
<text text-anchor="middle" x="415" y="-34" font-family="Helvetica,sans-Serif" font-size="10.00"> title_</text>
</g>
<!-- Node10&#45;&gt;Node2 -->
<g id="edge13" class="edge"><title>Node10&#45;&gt;Node2</title>
<path fill="none" stroke="#9a32cd" stroke-dasharray="5,2" d="M374.198,-45.1078C397.285,-44.8572 422.458,-49.1727 440,-65 471.258,-93.2022 433.326,-123.888 458,-158 460.695,-161.726 464.357,-164.813 468.282,-167.337"/>
<polygon fill="#9a32cd" stroke="#9a32cd" points="373.974,-41.6137 364.117,-45.4965 374.244,-48.6085 373.974,-41.6137"/>
<text text-anchor="middle" x="415" y="-79" font-family="Helvetica,sans-Serif" font-size="10.00"> epsilon_b_</text>
<text text-anchor="middle" x="415" y="-68" font-family="Helvetica,sans-Serif" font-size="10.00">epsilon_a_</text>
</g>
<!-- Node11 -->
<g id="node11" class="node"><title>Node11</title>
<g id="a_node11"><a xlink:href="classpsi_1_1Vector3.html" target="_top" xlink:title="psi::Vector3">
<polygon fill="none" stroke="black" points="458.5,-129.5 458.5,-148.5 527.5,-148.5 527.5,-129.5 458.5,-129.5"/>
<text text-anchor="middle" x="493" y="-136.5" font-family="Helvetica,sans-Serif" font-size="10.00">psi::Vector3</text>
</a>
</g>
</g>
<!-- Node11&#45;&gt;Node1 -->
<g id="edge15" class="edge"><title>Node11&#45;&gt;Node1</title>
<path fill="none" stroke="#9a32cd" stroke-dasharray="5,2" d="M537.695,-141.906C550.69,-142.968 564.943,-144.329 578,-146 583.816,-146.744 589.974,-147.679 595.94,-148.662"/>
<polygon fill="#9a32cd" stroke="#9a32cd" points="537.831,-138.406 527.589,-141.118 537.286,-145.385 537.831,-138.406"/>
<text text-anchor="middle" x="562" y="-149" font-family="Helvetica,sans-Serif" font-size="10.00"> origin_</text>
</g>
</g>
</svg>
