<?xml version="1.0" encoding="UTF-8" standalone="no"?>
<!DOCTYPE svg PUBLIC "-//W3C//DTD SVG 1.1//EN"
 "http://www.w3.org/Graphics/SVG/1.1/DTD/svg11.dtd">
<!-- Generated by graphviz version 2.30.1 (20140110.0959)
 -->
<!-- Title: psi::wPBEXFunctional Pages: 1 -->
<svg width="122pt" height="176pt"
 viewBox="0.00 0.00 122.00 176.00" xmlns="http://www.w3.org/2000/svg" xmlns:xlink="http://www.w3.org/1999/xlink">
<g id="graph0" class="graph" transform="scale(1 1) rotate(0) translate(4 172)">
<title>psi::wPBEXFunctional</title>
<!-- Node1 -->
<g id="node1" class="node"><title>Node1</title>
<polygon fill="#bfbfbf" stroke="black" points="-0.5,-0.5 -0.5,-19.5 114.5,-19.5 114.5,-0.5 -0.5,-0.5"/>
<text text-anchor="middle" x="57" y="-7.5" font-family="Helvetica,sans-Serif" font-size="10.00">psi::wPBEXFunctional</text>
</g>
<!-- Node2 -->
<g id="node2" class="node"><title>Node2</title>
<g id="a_node2"><a xlink:href="classpsi_1_1Functional.html" target="_top" xlink:title="psi::Functional">
<polygon fill="none" stroke="black" points="17,-58.5 17,-77.5 97,-77.5 97,-58.5 17,-58.5"/>
<text text-anchor="middle" x="57" y="-65.5" font-family="Helvetica,sans-Serif" font-size="10.00">psi::Functional</text>
</a>
</g>
</g>
<!-- Node2&#45;&gt;Node1 -->
<g id="edge1" class="edge"><title>Node2&#45;&gt;Node1</title>
<path fill="none" stroke="midnightblue" d="M57,-47.953C57,-38.2875 57,-27.0312 57,-19.5052"/>
<polygon fill="midnightblue" stroke="midnightblue" points="53.5001,-48.25 57,-58.25 60.5001,-48.25 53.5001,-48.25"/>
</g>
<!-- Node3 -->
<g id="node3" class="node"><title>Node3</title>
<polygon fill="none" stroke="#bfbfbf" points="36.5,-148.5 36.5,-167.5 77.5,-167.5 77.5,-148.5 36.5,-148.5"/>
<text text-anchor="middle" x="57" y="-155.5" font-family="Helvetica,sans-Serif" font-size="10.00">string</text>
</g>
<!-- Node3&#45;&gt;Node2 -->
<g id="edge2" class="edge"><title>Node3&#45;&gt;Node2</title>
<path fill="none" stroke="#9a32cd" stroke-dasharray="5,2" d="M57,-137.978C57,-119.31 57,-91.6696 57,-77.7241"/>
<polygon fill="#9a32cd" stroke="#9a32cd" points="53.5001,-138.24 57,-148.241 60.5001,-138.241 53.5001,-138.24"/>
<text text-anchor="middle" x="83.5" y="-121.5" font-family="Helvetica,sans-Serif" font-size="10.00"> citation_</text>
<text text-anchor="middle" x="83.5" y="-110.5" font-family="Helvetica,sans-Serif" font-size="10.00">description_</text>
<text text-anchor="middle" x="83.5" y="-99.5" font-family="Helvetica,sans-Serif" font-size="10.00">name_</text>
</g>
</g>
</svg>
