<?xml version="1.0" encoding="UTF-8" standalone="no"?>
<!DOCTYPE svg PUBLIC "-//W3C//DTD SVG 1.1//EN"
 "http://www.w3.org/Graphics/SVG/1.1/DTD/svg11.dtd">
<!-- Generated by graphviz version 2.30.1 (20140110.0959)
 -->
<!-- Title: yeti::YetiMessenger Pages: 1 -->
<svg width="364pt" height="370pt"
 viewBox="0.00 0.00 364.00 370.00" xmlns="http://www.w3.org/2000/svg" xmlns:xlink="http://www.w3.org/1999/xlink">
<g id="graph0" class="graph" transform="scale(1 1) rotate(0) translate(4 366)">
<title>yeti::YetiMessenger</title>
<!-- Node1 -->
<g id="node1" class="node"><title>Node1</title>
<polygon fill="#bfbfbf" stroke="black" points="200,-0.5 200,-19.5 304,-19.5 304,-0.5 200,-0.5"/>
<text text-anchor="middle" x="252" y="-7.5" font-family="Helvetica,sans-Serif" font-size="10.00">yeti::YetiMessenger</text>
</g>
<!-- Node2 -->
<g id="node2" class="node"><title>Node2</title>
<g id="a_node2"><a xlink:href="classyeti_1_1YetiRuntimeCountable.html" target="_top" xlink:title="yeti::YetiRuntimeCountable">
<polygon fill="none" stroke="black" points="117.5,-58.5 117.5,-77.5 254.5,-77.5 254.5,-58.5 117.5,-58.5"/>
<text text-anchor="middle" x="186" y="-65.5" font-family="Helvetica,sans-Serif" font-size="10.00">yeti::YetiRuntimeCountable</text>
</a>
</g>
</g>
<!-- Node2&#45;&gt;Node1 -->
<g id="edge1" class="edge"><title>Node2&#45;&gt;Node1</title>
<path fill="none" stroke="midnightblue" d="M203.796,-51.9006C216.005,-41.5414 231.767,-28.1671 241.882,-19.5852"/>
<polygon fill="midnightblue" stroke="midnightblue" points="201.385,-49.3562 196.024,-58.4948 205.914,-54.6938 201.385,-49.3562"/>
</g>
<!-- Node3 -->
<g id="node3" class="node"><title>Node3</title>
<g id="a_node3"><a xlink:href="classsmartptr_1_1Countable.html" target="_top" xlink:title="smartptr::Countable">
<polygon fill="none" stroke="black" points="-0.5,-142.5 -0.5,-161.5 102.5,-161.5 102.5,-142.5 -0.5,-142.5"/>
<text text-anchor="middle" x="51" y="-149.5" font-family="Helvetica,sans-Serif" font-size="10.00">smartptr::Countable</text>
</a>
</g>
</g>
<!-- Node3&#45;&gt;Node2 -->
<g id="edge2" class="edge"><title>Node3&#45;&gt;Node2</title>
<path fill="none" stroke="midnightblue" d="M73.9481,-137.061C102.051,-119.991 148.77,-91.6137 171.998,-77.505"/>
<polygon fill="midnightblue" stroke="midnightblue" points="71.9221,-134.197 65.1922,-142.38 75.5561,-140.179 71.9221,-134.197"/>
</g>
<!-- Node4 -->
<g id="node4" class="node"><title>Node4</title>
<g id="a_node4"><a xlink:href="classyeti_1_1YetiThreadedRuntimeObject.html" target="_top" xlink:title="yeti::YetiThreadedRuntime\lObject">
<polygon fill="none" stroke="black" points="120.5,-137 120.5,-167 253.5,-167 253.5,-137 120.5,-137"/>
<text text-anchor="start" x="128.5" y="-155" font-family="Helvetica,sans-Serif" font-size="10.00">yeti::YetiThreadedRuntime</text>
<text text-anchor="middle" x="187" y="-144" font-family="Helvetica,sans-Serif" font-size="10.00">Object</text>
</a>
</g>
</g>
<!-- Node4&#45;&gt;Node2 -->
<g id="edge3" class="edge"><title>Node4&#45;&gt;Node2</title>
<path fill="none" stroke="midnightblue" d="M186.702,-126.6C186.5,-110.031 186.245,-89.1113 186.105,-77.5915"/>
<polygon fill="midnightblue" stroke="midnightblue" points="183.204,-126.76 186.826,-136.717 190.204,-126.675 183.204,-126.76"/>
</g>
<!-- Node5 -->
<g id="node5" class="node"><title>Node5</title>
<g id="a_node5"><a xlink:href="classyeti_1_1YetiRuntimeObject.html" target="_top" xlink:title="yeti::YetiRuntimeObject">
<polygon fill="none" stroke="black" points="99.5,-216.5 99.5,-235.5 220.5,-235.5 220.5,-216.5 99.5,-216.5"/>
<text text-anchor="middle" x="160" y="-223.5" font-family="Helvetica,sans-Serif" font-size="10.00">yeti::YetiRuntimeObject</text>
</a>
</g>
</g>
<!-- Node5&#45;&gt;Node4 -->
<g id="edge4" class="edge"><title>Node5&#45;&gt;Node4</title>
<path fill="none" stroke="midnightblue" d="M166.813,-206.833C171.416,-194.558 177.406,-178.583 181.663,-167.232"/>
<polygon fill="midnightblue" stroke="midnightblue" points="163.437,-205.866 163.203,-216.458 169.992,-208.324 163.437,-205.866"/>
</g>
<!-- Node6 -->
<g id="node6" class="node"><title>Node6</title>
<g id="a_node6"><a xlink:href="classyeti_1_1ThreadLock.html" target="_top" xlink:title="yeti::ThreadLock">
<polygon fill="none" stroke="black" points="238.5,-216.5 238.5,-235.5 327.5,-235.5 327.5,-216.5 238.5,-216.5"/>
<text text-anchor="middle" x="283" y="-223.5" font-family="Helvetica,sans-Serif" font-size="10.00">yeti::ThreadLock</text>
</a>
</g>
</g>
<!-- Node6&#45;&gt;Node4 -->
<g id="edge5" class="edge"><title>Node6&#45;&gt;Node4</title>
<path fill="none" stroke="#9a32cd" stroke-dasharray="5,2" d="M260.584,-210.838C254.47,-206.814 247.905,-202.342 242,-198 228.681,-188.206 214.236,-176.336 203.493,-167.246"/>
<polygon fill="#9a32cd" stroke="#9a32cd" points="258.795,-213.85 269.092,-216.347 262.6,-207.974 258.795,-213.85"/>
<text text-anchor="middle" x="255.5" y="-189.5" font-family="Helvetica,sans-Serif" font-size="10.00"> lock_</text>
</g>
<!-- Node6&#45;&gt;Node1 -->
<g id="edge8" class="edge"><title>Node6&#45;&gt;Node1</title>
<path fill="none" stroke="#9a32cd" stroke-dasharray="5,2" d="M281.417,-206.028C278.67,-174.945 272.398,-111.293 263,-58 260.613,-44.4653 256.77,-28.9831 254.316,-19.6033"/>
<polygon fill="#9a32cd" stroke="#9a32cd" points="277.953,-206.594 282.297,-216.257 284.927,-205.994 277.953,-206.594"/>
<text text-anchor="middle" x="313.5" y="-110" font-family="Helvetica,sans-Serif" font-size="10.00"> tag_allocate_lock_</text>
<text text-anchor="middle" x="313.5" y="-99" font-family="Helvetica,sans-Serif" font-size="10.00">queue_lock_</text>
</g>
<!-- Node7 -->
<g id="node7" class="node"><title>Node7</title>
<g id="a_node7"><a xlink:href="classyeti_1_1Malloc.html" target="_top" xlink:title="yeti::Malloc\&lt; ThreadLock \&gt;">
<polygon fill="none" stroke="black" points="215,-274.5 215,-293.5 351,-293.5 351,-274.5 215,-274.5"/>
<text text-anchor="middle" x="283" y="-281.5" font-family="Helvetica,sans-Serif" font-size="10.00">yeti::Malloc&lt; ThreadLock &gt;</text>
</a>
</g>
</g>
<!-- Node7&#45;&gt;Node6 -->
<g id="edge6" class="edge"><title>Node7&#45;&gt;Node6</title>
<path fill="none" stroke="midnightblue" d="M283,-263.953C283,-254.287 283,-243.031 283,-235.505"/>
<polygon fill="midnightblue" stroke="midnightblue" points="279.5,-264.25 283,-274.25 286.5,-264.25 279.5,-264.25"/>
</g>
<!-- Node8 -->
<g id="node8" class="node"><title>Node8</title>
<g id="a_node8"><a xlink:href="classyeti_1_1Malloc.html" target="_top" xlink:title="yeti::Malloc\&lt; T \&gt;">
<polygon fill="none" stroke="black" points="237.5,-342.5 237.5,-361.5 328.5,-361.5 328.5,-342.5 237.5,-342.5"/>
<text text-anchor="middle" x="283" y="-349.5" font-family="Helvetica,sans-Serif" font-size="10.00">yeti::Malloc&lt; T &gt;</text>
</a>
</g>
</g>
<!-- Node8&#45;&gt;Node7 -->
<g id="edge7" class="edge"><title>Node8&#45;&gt;Node7</title>
<path fill="none" stroke="orange" stroke-dasharray="5,2" d="M283,-332.041C283,-319.472 283,-303.563 283,-293.841"/>
<polygon fill="orange" stroke="orange" points="279.5,-332.372 283,-342.372 286.5,-332.372 279.5,-332.372"/>
<text text-anchor="middle" x="319.5" y="-315.5" font-family="Helvetica,sans-Serif" font-size="10.00"> &lt; ThreadLock &gt;</text>
</g>
</g>
</svg>
