<?xml version="1.0" encoding="UTF-8" standalone="no"?>
<!DOCTYPE svg PUBLIC "-//W3C//DTD SVG 1.1//EN"
 "http://www.w3.org/Graphics/SVG/1.1/DTD/svg11.dtd">
<!-- Generated by graphviz version 2.30.1 (20140110.0959)
 -->
<!-- Title: psi::OneBodyAOInt::compute Pages: 1 -->
<svg width="404pt" height="136pt"
 viewBox="0.00 0.00 404.00 136.00" xmlns="http://www.w3.org/2000/svg" xmlns:xlink="http://www.w3.org/1999/xlink">
<g id="graph0" class="graph" transform="scale(1 1) rotate(0) translate(4 132)">
<title>psi::OneBodyAOInt::compute</title>
<!-- Node1 -->
<g id="node1" class="node"><title>Node1</title>
<polygon fill="#bfbfbf" stroke="black" points="0.5,-49 0.5,-79 107.5,-79 107.5,-49 0.5,-49"/>
<text text-anchor="start" x="8.5" y="-67" font-family="Helvetica,sans-Serif" font-size="10.00">psi::OneBodyAOInt::</text>
<text text-anchor="middle" x="54" y="-56" font-family="Helvetica,sans-Serif" font-size="10.00">compute</text>
</g>
<!-- Node2 -->
<g id="node2" class="node"><title>Node2</title>
<g id="a_node2"><a xlink:href="classpsi_1_1OneBodyAOInt.html#a9ddad5c1244a5dacff1026812689a84d" target="_top" xlink:title="Compute the integrals between basis function in the given shell pair.">
<polygon fill="none" stroke="black" points="144.5,-49 144.5,-79 251.5,-79 251.5,-49 144.5,-49"/>
<text text-anchor="start" x="152.5" y="-67" font-family="Helvetica,sans-Serif" font-size="10.00">psi::OneBodyAOInt::</text>
<text text-anchor="middle" x="198" y="-56" font-family="Helvetica,sans-Serif" font-size="10.00">compute_shell</text>
</a>
</g>
</g>
<!-- Node1&#45;&gt;Node2 -->
<g id="edge1" class="edge"><title>Node1&#45;&gt;Node2</title>
<path fill="none" stroke="midnightblue" d="M107.876,-64C116.377,-64 125.25,-64 133.961,-64"/>
<polygon fill="midnightblue" stroke="midnightblue" points="134.08,-67.5001 144.08,-64 134.08,-60.5001 134.08,-67.5001"/>
</g>
<!-- Node3 -->
<g id="node3" class="node"><title>Node3</title>
<g id="a_node3"><a xlink:href="classpsi_1_1OneBodyAOInt.html#a83c972ee3db38e905d58f5da60d78e71" target="_top" xlink:title="Normalize Cartesian functions based on angular momentum.">
<polygon fill="none" stroke="black" points="288.5,-98 288.5,-128 395.5,-128 395.5,-98 288.5,-98"/>
<text text-anchor="start" x="296.5" y="-116" font-family="Helvetica,sans-Serif" font-size="10.00">psi::OneBodyAOInt::</text>
<text text-anchor="middle" x="342" y="-105" font-family="Helvetica,sans-Serif" font-size="10.00">normalize_am</text>
</a>
</g>
</g>
<!-- Node2&#45;&gt;Node3 -->
<g id="edge2" class="edge"><title>Node2&#45;&gt;Node3</title>
<path fill="none" stroke="midnightblue" d="M242.763,-79.1014C256.935,-83.9917 272.813,-89.4707 287.603,-94.5744"/>
<polygon fill="midnightblue" stroke="midnightblue" points="286.542,-97.9106 297.137,-97.8641 288.825,-91.2935 286.542,-97.9106"/>
</g>
<!-- Node4 -->
<g id="node4" class="node"><title>Node4</title>
<g id="a_node4"><a xlink:href="classpsi_1_1GaussianShell.html#a6f05c4bcba1cef2b6d67be384038d239" target="_top" xlink:title="Total number of basis functions.">
<polygon fill="none" stroke="black" points="293,-49 293,-79 391,-79 391,-49 293,-49"/>
<text text-anchor="start" x="301" y="-67" font-family="Helvetica,sans-Serif" font-size="10.00">psi::GaussianShell</text>
<text text-anchor="middle" x="342" y="-56" font-family="Helvetica,sans-Serif" font-size="10.00">::nfunction</text>
</a>
</g>
</g>
<!-- Node2&#45;&gt;Node4 -->
<g id="edge3" class="edge"><title>Node2&#45;&gt;Node4</title>
<path fill="none" stroke="midnightblue" d="M251.876,-64C261.929,-64 272.503,-64 282.713,-64"/>
<polygon fill="midnightblue" stroke="midnightblue" points="282.771,-67.5001 292.77,-64 282.77,-60.5001 282.771,-67.5001"/>
</g>
<!-- Node5 -->
<g id="node5" class="node"><title>Node5</title>
<g id="a_node5"><a xlink:href="classpsi_1_1GaussianShell.html#a645d556a350aaedc1b08d43070570a74" target="_top" xlink:title="Total number of functions if this shell was Cartesian.">
<polygon fill="none" stroke="black" points="293,-0 293,-30 391,-30 391,-0 293,-0"/>
<text text-anchor="start" x="301" y="-18" font-family="Helvetica,sans-Serif" font-size="10.00">psi::GaussianShell</text>
<text text-anchor="middle" x="342" y="-7" font-family="Helvetica,sans-Serif" font-size="10.00">::ncartesian</text>
</a>
</g>
</g>
<!-- Node2&#45;&gt;Node5 -->
<g id="edge4" class="edge"><title>Node2&#45;&gt;Node5</title>
<path fill="none" stroke="midnightblue" d="M242.763,-48.8986C256.935,-44.0083 272.813,-38.5293 287.603,-33.4256"/>
<polygon fill="midnightblue" stroke="midnightblue" points="288.825,-36.7065 297.137,-30.1359 286.542,-30.0894 288.825,-36.7065"/>
</g>
</g>
</svg>
