<?xml version="1.0" encoding="UTF-8" standalone="no"?>
<!DOCTYPE svg PUBLIC "-//W3C//DTD SVG 1.1//EN"
 "http://www.w3.org/Graphics/SVG/1.1/DTD/svg11.dtd">
<!-- Generated by graphviz version 2.30.1 (20140110.0959)
 -->
<!-- Title: yeti::Matrix::toVector Pages: 1 -->
<svg width="368pt" height="66pt"
 viewBox="0.00 0.00 368.00 66.00" xmlns="http://www.w3.org/2000/svg" xmlns:xlink="http://www.w3.org/1999/xlink">
<g id="graph0" class="graph" transform="scale(1 1) rotate(0) translate(4 62)">
<title>yeti::Matrix::toVector</title>
<!-- Node1 -->
<g id="node1" class="node"><title>Node1</title>
<polygon fill="#bfbfbf" stroke="black" points="0,-19.5 0,-38.5 108,-38.5 108,-19.5 0,-19.5"/>
<text text-anchor="middle" x="54" y="-26.5" font-family="Helvetica,sans-Serif" font-size="10.00">yeti::Matrix::toVector</text>
</g>
<!-- Node2 -->
<g id="node2" class="node"><title>Node2</title>
<g id="a_node2"><a xlink:href="classyeti_1_1Vector.html#a3ddae653e71df034fce2e10ab6131cd6" target="_top" xlink:title="yeti::Vector::assign">
<polygon fill="none" stroke="black" points="144.5,-38.5 144.5,-57.5 245.5,-57.5 245.5,-38.5 144.5,-38.5"/>
<text text-anchor="middle" x="195" y="-45.5" font-family="Helvetica,sans-Serif" font-size="10.00">yeti::Vector::assign</text>
</a>
</g>
</g>
<!-- Node1&#45;&gt;Node2 -->
<g id="edge1" class="edge"><title>Node1&#45;&gt;Node2</title>
<path fill="none" stroke="midnightblue" d="M108.343,-36.2916C116.818,-37.4499 125.631,-38.6546 134.241,-39.8315"/>
<polygon fill="midnightblue" stroke="midnightblue" points="133.841,-43.3093 144.223,-41.1959 134.789,-36.3738 133.841,-43.3093"/>
</g>
<!-- Node4 -->
<g id="node4" class="node"><title>Node4</title>
<g id="a_node4"><a xlink:href="classyeti_1_1Matrix.html#a7270ffd63fe4704809e6bbac257662ce" target="_top" xlink:title="yeti::Matrix::data">
<polygon fill="none" stroke="black" points="150,-0.5 150,-19.5 240,-19.5 240,-0.5 150,-0.5"/>
<text text-anchor="middle" x="195" y="-7.5" font-family="Helvetica,sans-Serif" font-size="10.00">yeti::Matrix::data</text>
</a>
</g>
</g>
<!-- Node1&#45;&gt;Node4 -->
<g id="edge3" class="edge"><title>Node1&#45;&gt;Node4</title>
<path fill="none" stroke="midnightblue" d="M108.343,-21.7084C118.564,-20.3114 129.279,-18.8468 139.534,-17.445"/>
<polygon fill="midnightblue" stroke="midnightblue" points="140.168,-20.891 149.601,-16.0689 139.22,-13.9555 140.168,-20.891"/>
</g>
<!-- Node3 -->
<g id="node3" class="node"><title>Node3</title>
<g id="a_node3"><a xlink:href="classyeti_1_1Vector.html#a65a960b67dfbbe426da5594686919f5e" target="_top" xlink:title="yeti::Vector::n">
<polygon fill="none" stroke="black" points="282,-38.5 282,-57.5 360,-57.5 360,-38.5 282,-38.5"/>
<text text-anchor="middle" x="321" y="-45.5" font-family="Helvetica,sans-Serif" font-size="10.00">yeti::Vector::n</text>
</a>
</g>
</g>
<!-- Node2&#45;&gt;Node3 -->
<g id="edge2" class="edge"><title>Node2&#45;&gt;Node3</title>
<path fill="none" stroke="midnightblue" d="M245.721,-48C254.248,-48 263.097,-48 271.589,-48"/>
<polygon fill="midnightblue" stroke="midnightblue" points="271.723,-51.5001 281.723,-48 271.723,-44.5001 271.723,-51.5001"/>
</g>
</g>
</svg>
