<?xml version="1.0" encoding="UTF-8" standalone="no"?>
<!DOCTYPE svg PUBLIC "-//W3C//DTD SVG 1.1//EN"
 "http://www.w3.org/Graphics/SVG/1.1/DTD/svg11.dtd">
<!-- Generated by graphviz version 2.30.1 (20140110.0959)
 -->
<!-- Title: yeti::YetiRuntimeObject Pages: 1 -->
<svg width="942pt" height="218pt"
 viewBox="0.00 0.00 942.00 218.00" xmlns="http://www.w3.org/2000/svg" xmlns:xlink="http://www.w3.org/1999/xlink">
<g id="graph0" class="graph" transform="scale(1 1) rotate(0) translate(4 214)">
<title>yeti::YetiRuntimeObject</title>
<!-- Node1 -->
<g id="node1" class="node"><title>Node1</title>
<polygon fill="#bfbfbf" stroke="black" points="0.5,-76.5 0.5,-95.5 121.5,-95.5 121.5,-76.5 0.5,-76.5"/>
<text text-anchor="middle" x="61" y="-83.5" font-family="Helvetica,sans-Serif" font-size="10.00">yeti::YetiRuntimeObject</text>
</g>
<!-- Node2 -->
<g id="node2" class="node"><title>Node2</title>
<g id="a_node2"><a xlink:href="classyeti_1_1YetiThreadedRuntimeObject.html" target="_top" xlink:title="yeti::YetiThreadedRuntime\lObject">
<polygon fill="none" stroke="black" points="158.5,-71 158.5,-101 291.5,-101 291.5,-71 158.5,-71"/>
<text text-anchor="start" x="166.5" y="-89" font-family="Helvetica,sans-Serif" font-size="10.00">yeti::YetiThreadedRuntime</text>
<text text-anchor="middle" x="225" y="-78" font-family="Helvetica,sans-Serif" font-size="10.00">Object</text>
</a>
</g>
</g>
<!-- Node1&#45;&gt;Node2 -->
<g id="edge1" class="edge"><title>Node1&#45;&gt;Node2</title>
<path fill="none" stroke="midnightblue" d="M132.031,-86C140.783,-86 149.709,-86 158.389,-86"/>
<polygon fill="midnightblue" stroke="midnightblue" points="131.863,-82.5001 121.863,-86 131.863,-89.5001 131.863,-82.5001"/>
</g>
<!-- Node3 -->
<g id="node3" class="node"><title>Node3</title>
<g id="a_node3"><a xlink:href="classyeti_1_1YetiRuntimeCountable.html" target="_top" xlink:title="yeti::YetiRuntimeCountable">
<polygon fill="none" stroke="black" points="331.5,-95.5 331.5,-114.5 468.5,-114.5 468.5,-95.5 331.5,-95.5"/>
<text text-anchor="middle" x="400" y="-102.5" font-family="Helvetica,sans-Serif" font-size="10.00">yeti::YetiRuntimeCountable</text>
</a>
</g>
</g>
<!-- Node2&#45;&gt;Node3 -->
<g id="edge2" class="edge"><title>Node2&#45;&gt;Node3</title>
<path fill="none" stroke="midnightblue" d="M301.976,-94.3442C311.73,-95.4154 321.666,-96.5066 331.276,-97.5622"/>
<polygon fill="midnightblue" stroke="midnightblue" points="302.22,-90.85 291.897,-93.2373 301.456,-97.8082 302.22,-90.85"/>
</g>
<!-- Node14 -->
<g id="node14" class="node"><title>Node14</title>
<g id="a_node14"><a xlink:href="classyeti_1_1YetiRuntimeSerializable.html" target="_top" xlink:title="yeti::YetiRuntimeSerializable">
<polygon fill="none" stroke="black" points="328.5,-57.5 328.5,-76.5 471.5,-76.5 471.5,-57.5 328.5,-57.5"/>
<text text-anchor="middle" x="400" y="-64.5" font-family="Helvetica,sans-Serif" font-size="10.00">yeti::YetiRuntimeSerializable</text>
</a>
</g>
</g>
<!-- Node2&#45;&gt;Node14 -->
<g id="edge13" class="edge"><title>Node2&#45;&gt;Node14</title>
<path fill="none" stroke="midnightblue" d="M302.078,-77.6446C310.826,-76.6838 319.718,-75.7072 328.39,-74.7549"/>
<polygon fill="midnightblue" stroke="midnightblue" points="301.456,-74.1918 291.897,-78.7627 302.22,-81.15 301.456,-74.1918"/>
</g>
<!-- Node4 -->
<g id="node4" class="node"><title>Node4</title>
<g id="a_node4"><a xlink:href="classyeti_1_1Cachable.html" target="_top" xlink:title="yeti::Cachable">
<polygon fill="none" stroke="black" points="520,-190.5 520,-209.5 600,-209.5 600,-190.5 520,-190.5"/>
<text text-anchor="middle" x="560" y="-197.5" font-family="Helvetica,sans-Serif" font-size="10.00">yeti::Cachable</text>
</a>
</g>
</g>
<!-- Node3&#45;&gt;Node4 -->
<g id="edge3" class="edge"><title>Node3&#45;&gt;Node4</title>
<path fill="none" stroke="midnightblue" d="M420.539,-121.266C441.25,-137.917 475.406,-163.736 508,-181 514.68,-184.538 522.165,-187.72 529.3,-190.424"/>
<polygon fill="midnightblue" stroke="midnightblue" points="422.494,-118.344 412.53,-114.742 418.073,-123.771 422.494,-118.344"/>
</g>
<!-- Node7 -->
<g id="node7" class="node"><title>Node7</title>
<g id="a_node7"><a xlink:href="classyeti_1_1DiskBuffer.html" target="_top" xlink:title="yeti::DiskBuffer">
<polygon fill="none" stroke="black" points="517.5,-152.5 517.5,-171.5 602.5,-171.5 602.5,-152.5 517.5,-152.5"/>
<text text-anchor="middle" x="560" y="-159.5" font-family="Helvetica,sans-Serif" font-size="10.00">yeti::DiskBuffer</text>
</a>
</g>
</g>
<!-- Node3&#45;&gt;Node7 -->
<g id="edge6" class="edge"><title>Node3&#45;&gt;Node7</title>
<path fill="none" stroke="midnightblue" d="M437.217,-118.065C466.259,-128.543 506.347,-143.005 532.468,-152.428"/>
<polygon fill="midnightblue" stroke="midnightblue" points="438.04,-114.642 427.446,-114.541 435.664,-121.226 438.04,-114.642"/>
</g>
<!-- Node8 -->
<g id="node8" class="node"><title>Node8</title>
<g id="a_node8"><a xlink:href="classyeti_1_1TaskParent.html" target="_top" xlink:title="yeti::TaskParent">
<polygon fill="none" stroke="black" points="515.5,-114.5 515.5,-133.5 604.5,-133.5 604.5,-114.5 515.5,-114.5"/>
<text text-anchor="middle" x="560" y="-121.5" font-family="Helvetica,sans-Serif" font-size="10.00">yeti::TaskParent</text>
</a>
</g>
</g>
<!-- Node3&#45;&gt;Node8 -->
<g id="edge7" class="edge"><title>Node3&#45;&gt;Node8</title>
<path fill="none" stroke="midnightblue" d="M478.929,-114.371C491.446,-115.876 503.998,-117.386 515.329,-118.748"/>
<polygon fill="midnightblue" stroke="midnightblue" points="479.27,-110.887 468.923,-113.168 478.434,-117.837 479.27,-110.887"/>
</g>
<!-- Node10 -->
<g id="node10" class="node"><title>Node10</title>
<g id="a_node10"><a xlink:href="classyeti_1_1TaskQueue.html" target="_top" xlink:title="yeti::TaskQueue">
<polygon fill="none" stroke="black" points="515.5,-76.5 515.5,-95.5 604.5,-95.5 604.5,-76.5 515.5,-76.5"/>
<text text-anchor="middle" x="560" y="-83.5" font-family="Helvetica,sans-Serif" font-size="10.00">yeti::TaskQueue</text>
</a>
</g>
</g>
<!-- Node3&#45;&gt;Node10 -->
<g id="edge9" class="edge"><title>Node3&#45;&gt;Node10</title>
<path fill="none" stroke="midnightblue" d="M478.929,-95.6287C491.446,-94.1236 503.998,-92.6142 515.329,-91.2516"/>
<polygon fill="midnightblue" stroke="midnightblue" points="478.434,-92.163 468.923,-96.832 479.27,-99.113 478.434,-92.163"/>
</g>
<!-- Node11 -->
<g id="node11" class="node"><title>Node11</title>
<g id="a_node11"><a xlink:href="classyeti_1_1Tensor.html" target="_top" xlink:title="yeti::Tensor">
<polygon fill="none" stroke="black" points="526,-38.5 526,-57.5 594,-57.5 594,-38.5 526,-38.5"/>
<text text-anchor="middle" x="560" y="-45.5" font-family="Helvetica,sans-Serif" font-size="10.00">yeti::Tensor</text>
</a>
</g>
</g>
<!-- Node3&#45;&gt;Node11 -->
<g id="edge10" class="edge"><title>Node3&#45;&gt;Node11</title>
<path fill="none" stroke="midnightblue" d="M452.479,-92.693C459.122,-90.6777 465.774,-88.4403 472,-86 488.844,-79.3979 491.489,-74.3956 508,-67 515.502,-63.6397 523.795,-60.3689 531.475,-57.515"/>
<polygon fill="midnightblue" stroke="midnightblue" points="451.441,-89.3496 442.803,-95.4846 453.381,-96.0753 451.441,-89.3496"/>
</g>
<!-- Node12 -->
<g id="node12" class="node"><title>Node12</title>
<g id="a_node12"><a xlink:href="classyeti_1_1YetiMessenger.html" target="_top" xlink:title="yeti::YetiMessenger">
<polygon fill="none" stroke="black" points="508,-0.5 508,-19.5 612,-19.5 612,-0.5 508,-0.5"/>
<text text-anchor="middle" x="560" y="-7.5" font-family="Helvetica,sans-Serif" font-size="10.00">yeti::YetiMessenger</text>
</a>
</g>
</g>
<!-- Node3&#45;&gt;Node12 -->
<g id="edge11" class="edge"><title>Node3&#45;&gt;Node12</title>
<path fill="none" stroke="midnightblue" d="M463.927,-91.0724C466.751,-89.5532 469.461,-87.8685 472,-86 496.132,-68.2392 484.74,-47.8882 508,-29 512.694,-25.188 518.229,-22.0945 523.89,-19.5984"/>
<polygon fill="midnightblue" stroke="midnightblue" points="462.2,-88.0147 454.587,-95.3826 465.133,-94.3706 462.2,-88.0147"/>
</g>
<!-- Node5 -->
<g id="node5" class="node"><title>Node5</title>
<g id="a_node5"><a xlink:href="classyeti_1_1DataStorageBlockAllocator.html" target="_top" xlink:title="yeti::DataStorageBlockAllocator">
<polygon fill="none" stroke="black" points="648,-190.5 648,-209.5 804,-209.5 804,-190.5 648,-190.5"/>
<text text-anchor="middle" x="726" y="-197.5" font-family="Helvetica,sans-Serif" font-size="10.00">yeti::DataStorageBlockAllocator</text>
</a>
</g>
</g>
<!-- Node4&#45;&gt;Node5 -->
<g id="edge4" class="edge"><title>Node4&#45;&gt;Node5</title>
<path fill="none" stroke="midnightblue" d="M610.348,-200C622.153,-200 635.037,-200 647.768,-200"/>
<polygon fill="midnightblue" stroke="midnightblue" points="610.282,-196.5 600.282,-200 610.282,-203.5 610.282,-196.5"/>
</g>
<!-- Node6 -->
<g id="node6" class="node"><title>Node6</title>
<g id="a_node6"><a xlink:href="classyeti_1_1TensorBlock.html" target="_top" xlink:title="yeti::TensorBlock">
<polygon fill="none" stroke="black" points="840.5,-190.5 840.5,-209.5 933.5,-209.5 933.5,-190.5 840.5,-190.5"/>
<text text-anchor="middle" x="887" y="-197.5" font-family="Helvetica,sans-Serif" font-size="10.00">yeti::TensorBlock</text>
</a>
</g>
</g>
<!-- Node5&#45;&gt;Node6 -->
<g id="edge5" class="edge"><title>Node5&#45;&gt;Node6</title>
<path fill="none" stroke="midnightblue" d="M814.289,-200C823.222,-200 832.023,-200 840.234,-200"/>
<polygon fill="midnightblue" stroke="midnightblue" points="814.171,-196.5 804.171,-200 814.171,-203.5 814.171,-196.5"/>
</g>
<!-- Node9 -->
<g id="node9" class="node"><title>Node9</title>
<g id="a_node9"><a xlink:href="classyeti_1_1Contraction.html" target="_top" xlink:title="yeti::Contraction">
<polygon fill="none" stroke="black" points="681.5,-114.5 681.5,-133.5 770.5,-133.5 770.5,-114.5 681.5,-114.5"/>
<text text-anchor="middle" x="726" y="-121.5" font-family="Helvetica,sans-Serif" font-size="10.00">yeti::Contraction</text>
</a>
</g>
</g>
<!-- Node8&#45;&gt;Node9 -->
<g id="edge8" class="edge"><title>Node8&#45;&gt;Node9</title>
<path fill="none" stroke="midnightblue" d="M614.532,-124C636.145,-124 660.771,-124 681.278,-124"/>
<polygon fill="midnightblue" stroke="midnightblue" points="614.518,-120.5 604.518,-124 614.518,-127.5 614.518,-120.5"/>
</g>
<!-- Node13 -->
<g id="node13" class="node"><title>Node13</title>
<g id="a_node13"><a xlink:href="classyeti_1_1YetiLocalMessenger.html" target="_top" xlink:title="yeti::YetiLocalMessenger">
<polygon fill="none" stroke="black" points="662.5,-0.5 662.5,-19.5 789.5,-19.5 789.5,-0.5 662.5,-0.5"/>
<text text-anchor="middle" x="726" y="-7.5" font-family="Helvetica,sans-Serif" font-size="10.00">yeti::YetiLocalMessenger</text>
</a>
</g>
</g>
<!-- Node12&#45;&gt;Node13 -->
<g id="edge12" class="edge"><title>Node12&#45;&gt;Node13</title>
<path fill="none" stroke="midnightblue" d="M622.636,-10C635.575,-10 649.236,-10 662.216,-10"/>
<polygon fill="midnightblue" stroke="midnightblue" points="622.441,-6.5001 612.441,-10 622.441,-13.5001 622.441,-6.5001"/>
</g>
</g>
</svg>
