<?xml version="1.0" encoding="UTF-8" standalone="no"?>
<!DOCTYPE svg PUBLIC "-//W3C//DTD SVG 1.1//EN"
 "http://www.w3.org/Graphics/SVG/1.1/DTD/svg11.dtd">
<!-- Generated by graphviz version 2.30.1 (20140110.0959)
 -->
<!-- Title: psi::VBase Pages: 1 -->
<!--zoomable 273 -->
<svg id="main" version="1.1" xmlns="http://www.w3.org/2000/svg" xmlns:xlink="http://www.w3.org/1999/xlink" xml:space="preserve" onload="init(evt)">
        <defs>
                <circle id="rim" cx="0" cy="0" r="7"/>
                <circle id="rim2" cx="0" cy="0" r="3.5"/>
                <g id="zoomPlus">
                        <use xlink:href="#rim" fill="#404040">
                                <set attributeName="fill" to="#808080" begin="zoomplus.mouseover" end="zoomplus.mouseout"/>
                        </use>
                        <path d="M-4,0h8M0,-4v8" fill="none" stroke="white" stroke-width="1.5" pointer-events="none"/>
                </g>
                <g id="zoomMin">
                        <use xlink:href="#rim" fill="#404040">
                                <set attributeName="fill" to="#808080" begin="zoomminus.mouseover" end="zoomminus.mouseout"/>
                        </use>
                        <path d="M-4,0h8" fill="none" stroke="white" stroke-width="1.5" pointer-events="none"/>
                </g>
                <g id="dirArrow">
                        <path fill="none" stroke="white" stroke-width="1.5" d="M0,-3.0v7 M-2.5,-0.5L0,-3.0L2.5,-0.5"/>
                </g>
               <g id="resetDef">
                       <use xlink:href="#rim2" fill="#404040">
                               <set attributeName="fill" to="#808080" begin="reset.mouseover" end="reset.mouseout"/>
                       </use>
               </g>
        </defs>

<script type="text/javascript">
var viewWidth = 544;
var viewHeight = 273;
var sectionId = 'dynsection-1';
</script>
<script xlink:href="svgpan.js"/>
<svg id="graph" class="graph">
<g id="viewport">
<title>psi::VBase</title>
<!-- Node1 -->
<g id="node1" class="node"><title>Node1</title>
<polygon fill="#bfbfbf" stroke="black" points="470.5,-126.5 470.5,-145.5 535.5,-145.5 535.5,-126.5 470.5,-126.5"/>
<text text-anchor="middle" x="503" y="-133.5" font-family="Helvetica,sans-Serif" font-size="10.00">psi::VBase</text>
</g>
<!-- Node2 -->
<g id="node2" class="node"><title>Node2</title>
<g id="a_node2"><a xlink:href="classpsi_1_1Options.html" target="_top" xlink:title="psi::Options">
<polygon fill="none" stroke="black" points="288.5,-245.5 288.5,-264.5 357.5,-264.5 357.5,-245.5 288.5,-245.5"/>
<text text-anchor="middle" x="323" y="-252.5" font-family="Helvetica,sans-Serif" font-size="10.00">psi::Options</text>
</a>
</g>
</g>
<!-- Node2&#45;&gt;Node1 -->
<g id="edge1" class="edge"><title>Node2&#45;&gt;Node1</title>
<path fill="none" stroke="#9a32cd" stroke-dasharray="5,2" d="M367.323,-244.322C393.82,-236.206 427.26,-222.975 452,-203 472.327,-186.588 488.788,-160.132 496.771,-145.87"/>
<polygon fill="#9a32cd" stroke="#9a32cd" points="366.155,-241.017 357.541,-247.185 368.121,-247.735 366.155,-241.017"/>
<text text-anchor="middle" x="426" y="-234" font-family="Helvetica,sans-Serif" font-size="10.00"> options_</text>
</g>
<!-- Node3 -->
<g id="node3" class="node"><title>Node3</title>
<g id="a_node3"><a xlink:href="classboost_1_1shared__ptr.html" target="_top" xlink:title="boost::shared_ptr\&lt;\l psi::SuperFunctional \&gt;">
<polygon fill="none" stroke="black" points="264,-196 264,-226 382,-226 382,-196 264,-196"/>
<text text-anchor="start" x="272" y="-214" font-family="Helvetica,sans-Serif" font-size="10.00">boost::shared_ptr&lt;</text>
<text text-anchor="middle" x="323" y="-203" font-family="Helvetica,sans-Serif" font-size="10.00"> psi::SuperFunctional &gt;</text>
</a>
</g>
</g>
<!-- Node3&#45;&gt;Node1 -->
<g id="edge2" class="edge"><title>Node3&#45;&gt;Node1</title>
<path fill="none" stroke="#9a32cd" stroke-dasharray="5,2" d="M383.677,-192.813C405.556,-185.422 430.272,-176.209 452,-166 464.461,-160.145 477.793,-152.044 487.554,-145.736"/>
<polygon fill="#9a32cd" stroke="#9a32cd" points="382.555,-189.498 374.168,-195.972 384.762,-196.141 382.555,-189.498"/>
<text text-anchor="middle" x="426" y="-191" font-family="Helvetica,sans-Serif" font-size="10.00"> functional_</text>
</g>
<!-- Node4 -->
<g id="node4" class="node"><title>Node4</title>
<g id="a_node4"><a xlink:href="classboost_1_1shared__ptr.html" target="_top" xlink:title="boost::shared_ptr\&lt; T \&gt;">
<polygon fill="none" stroke="black" points="0,-103.5 0,-122.5 116,-122.5 116,-103.5 0,-103.5"/>
<text text-anchor="middle" x="58" y="-110.5" font-family="Helvetica,sans-Serif" font-size="10.00">boost::shared_ptr&lt; T &gt;</text>
</a>
</g>
</g>
<!-- Node4&#45;&gt;Node3 -->
<g id="edge3" class="edge"><title>Node4&#45;&gt;Node3</title>
<path fill="none" stroke="orange" stroke-dasharray="5,2" d="M78.6075,-129.187C93.1075,-140.421 113.769,-154.939 134,-164 175.605,-182.633 225.836,-194.709 263.906,-201.948"/>
<polygon fill="orange" stroke="orange" points="80.4417,-126.174 70.4343,-122.695 76.088,-131.656 80.4417,-126.174"/>
<text text-anchor="middle" x="190" y="-200" font-family="Helvetica,sans-Serif" font-size="10.00"> &lt; psi::SuperFunctional &gt;</text>
</g>
<!-- Node5 -->
<g id="node5" class="node"><title>Node5</title>
<g id="a_node5"><a xlink:href="classboost_1_1shared__ptr.html" target="_top" xlink:title="boost::shared_ptr\&lt;\l psi::BasisSet \&gt;">
<polygon fill="none" stroke="black" points="274,-147 274,-177 372,-177 372,-147 274,-147"/>
<text text-anchor="start" x="282" y="-165" font-family="Helvetica,sans-Serif" font-size="10.00">boost::shared_ptr&lt;</text>
<text text-anchor="middle" x="323" y="-154" font-family="Helvetica,sans-Serif" font-size="10.00"> psi::BasisSet &gt;</text>
</a>
</g>
</g>
<!-- Node4&#45;&gt;Node5 -->
<g id="edge5" class="edge"><title>Node4&#45;&gt;Node5</title>
<path fill="none" stroke="orange" stroke-dasharray="5,2" d="M116.224,-124.558C122.223,-125.736 128.234,-126.902 134,-128 181.408,-137.027 235.657,-146.776 273.656,-153.51"/>
<polygon fill="orange" stroke="orange" points="116.673,-121.079 106.184,-122.575 115.316,-127.947 116.673,-121.079"/>
<text text-anchor="middle" x="190" y="-152" font-family="Helvetica,sans-Serif" font-size="10.00"> &lt; psi::BasisSet &gt;</text>
</g>
<!-- Node6 -->
<g id="node6" class="node"><title>Node6</title>
<g id="a_node6"><a xlink:href="classboost_1_1shared__ptr.html" target="_top" xlink:title="boost::shared_ptr\&lt;\l psi::Matrix \&gt;">
<polygon fill="none" stroke="black" points="274,-98 274,-128 372,-128 372,-98 274,-98"/>
<text text-anchor="start" x="282" y="-116" font-family="Helvetica,sans-Serif" font-size="10.00">boost::shared_ptr&lt;</text>
<text text-anchor="middle" x="323" y="-105" font-family="Helvetica,sans-Serif" font-size="10.00"> psi::Matrix &gt;</text>
</a>
</g>
</g>
<!-- Node4&#45;&gt;Node6 -->
<g id="edge7" class="edge"><title>Node4&#45;&gt;Node6</title>
<path fill="none" stroke="orange" stroke-dasharray="5,2" d="M126.278,-113C172.399,-113 232.491,-113 273.857,-113"/>
<polygon fill="orange" stroke="orange" points="126.067,-109.5 116.067,-113 126.067,-116.5 126.067,-109.5"/>
<text text-anchor="middle" x="190" y="-116" font-family="Helvetica,sans-Serif" font-size="10.00"> &lt; psi::Matrix &gt;</text>
</g>
<!-- Node7 -->
<g id="node7" class="node"><title>Node7</title>
<g id="a_node7"><a xlink:href="classboost_1_1shared__ptr.html" target="_top" xlink:title="boost::shared_ptr\&lt;\l psi::DFTGrid \&gt;">
<polygon fill="none" stroke="black" points="274,-49 274,-79 372,-79 372,-49 274,-49"/>
<text text-anchor="start" x="282" y="-67" font-family="Helvetica,sans-Serif" font-size="10.00">boost::shared_ptr&lt;</text>
<text text-anchor="middle" x="323" y="-56" font-family="Helvetica,sans-Serif" font-size="10.00"> psi::DFTGrid &gt;</text>
</a>
</g>
</g>
<!-- Node4&#45;&gt;Node7 -->
<g id="edge9" class="edge"><title>Node4&#45;&gt;Node7</title>
<path fill="none" stroke="orange" stroke-dasharray="5,2" d="M116.224,-101.442C122.223,-100.264 128.234,-99.0979 134,-98 181.408,-88.9731 235.657,-79.2241 273.656,-72.4899"/>
<polygon fill="orange" stroke="orange" points="115.316,-98.0533 106.184,-103.425 116.673,-104.921 115.316,-98.0533"/>
<text text-anchor="middle" x="190" y="-101" font-family="Helvetica,sans-Serif" font-size="10.00"> &lt; psi::DFTGrid &gt;</text>
</g>
<!-- Node8 -->
<g id="node8" class="node"><title>Node8</title>
<g id="a_node8"><a xlink:href="classboost_1_1shared__ptr.html" target="_top" xlink:title="boost::shared_ptr\&lt;\l psi::PointFunctions \&gt;">
<polygon fill="none" stroke="black" points="266.5,-0 266.5,-30 379.5,-30 379.5,-0 266.5,-0"/>
<text text-anchor="start" x="274.5" y="-18" font-family="Helvetica,sans-Serif" font-size="10.00">boost::shared_ptr&lt;</text>
<text text-anchor="middle" x="323" y="-7" font-family="Helvetica,sans-Serif" font-size="10.00"> psi::PointFunctions &gt;</text>
</a>
</g>
</g>
<!-- Node4&#45;&gt;Node8 -->
<g id="edge11" class="edge"><title>Node4&#45;&gt;Node8</title>
<path fill="none" stroke="orange" stroke-dasharray="5,2" d="M79.1872,-96.7897C93.6891,-85.855 114.111,-71.8576 134,-63 176.619,-44.0189 228.15,-31.5265 266.476,-24.0575"/>
<polygon fill="orange" stroke="orange" points="76.7548,-94.2459 70.9805,-103.129 81.034,-99.7857 76.7548,-94.2459"/>
<text text-anchor="middle" x="190" y="-66" font-family="Helvetica,sans-Serif" font-size="10.00"> &lt; psi::PointFunctions &gt;</text>
</g>
<!-- Node5&#45;&gt;Node1 -->
<g id="edge4" class="edge"><title>Node5&#45;&gt;Node1</title>
<path fill="none" stroke="#9a32cd" stroke-dasharray="5,2" d="M382.301,-153.484C411.61,-149.203 445.982,-144.182 470.356,-140.622"/>
<polygon fill="#9a32cd" stroke="#9a32cd" points="381.558,-150.055 372.169,-154.964 382.57,-156.982 381.558,-150.055"/>
<text text-anchor="middle" x="426" y="-154" font-family="Helvetica,sans-Serif" font-size="10.00"> primary_</text>
</g>
<!-- Node6&#45;&gt;Node1 -->
<g id="edge6" class="edge"><title>Node6&#45;&gt;Node1</title>
<path fill="none" stroke="#9a32cd" stroke-dasharray="5,2" d="M382.457,-114.613C404.387,-115.871 429.451,-118.092 452,-122 458.484,-123.124 465.336,-124.745 471.818,-126.489"/>
<polygon fill="#9a32cd" stroke="#9a32cd" points="382.465,-111.109 372.297,-114.084 382.102,-118.099 382.465,-111.109"/>
<text text-anchor="middle" x="426" y="-125" font-family="Helvetica,sans-Serif" font-size="10.00"> AO2USO_</text>
</g>
<!-- Node7&#45;&gt;Node1 -->
<g id="edge8" class="edge"><title>Node7&#45;&gt;Node1</title>
<path fill="none" stroke="#9a32cd" stroke-dasharray="5,2" d="M381.853,-77.1086C404.328,-83.239 429.924,-91.5293 452,-102 465.848,-108.568 480.163,-118.703 489.909,-126.2"/>
<polygon fill="#9a32cd" stroke="#9a32cd" points="382.665,-73.703 372.102,-74.5289 380.874,-80.4701 382.665,-73.703"/>
<text text-anchor="middle" x="426" y="-105" font-family="Helvetica,sans-Serif" font-size="10.00"> grid_</text>
</g>
<!-- Node8&#45;&gt;Node1 -->
<g id="edge10" class="edge"><title>Node8&#45;&gt;Node1</title>
<path fill="none" stroke="#9a32cd" stroke-dasharray="5,2" d="M387.747,-33.5927C409.52,-41.8891 433.119,-53.2015 452,-68 472.99,-84.4516 489.407,-111.88 497.143,-126.363"/>
<polygon fill="#9a32cd" stroke="#9a32cd" points="388.815,-30.2568 378.221,-30.1062 386.409,-36.8303 388.815,-30.2568"/>
<text text-anchor="middle" x="426" y="-71" font-family="Helvetica,sans-Serif" font-size="10.00"> properties_</text>
</g>
</g>
</svg>
        <g id="navigator" transform="translate(0 0)" fill="#404254">
                <rect fill="#f2f5e9" fill-opacity="0.5" stroke="#606060" stroke-width=".5" x="0" y="0" width="60" height="60"/>
                <use id="zoomplus" xlink:href="#zoomPlus" x="17" y="9" onmousedown="handleZoom(evt,'in')"/>
                <use id="zoomminus" xlink:href="#zoomMin" x="42" y="9" onmousedown="handleZoom(evt,'out')"/>
                <use id="reset" xlink:href="#resetDef" x="30" y="36" onmousedown="handleReset()"/>
                <g id="arrowUp" xlink:href="#dirArrow" transform="translate(30 24)" onmousedown="handlePan(0,-1)">
                  <use xlink:href="#rim" fill="#404040">
                        <set attributeName="fill" to="#808080" begin="arrowUp.mouseover" end="arrowUp.mouseout"/>
                  </use>
                  <path fill="none" stroke="white" stroke-width="1.5" d="M0,-3.0v7 M-2.5,-0.5L0,-3.0L2.5,-0.5"/>
                </g>
                <g id="arrowRight" xlink:href="#dirArrow" transform="rotate(90) translate(36 -43)" onmousedown="handlePan(1,0)">
                  <use xlink:href="#rim" fill="#404040">
                        <set attributeName="fill" to="#808080" begin="arrowRight.mouseover" end="arrowRight.mouseout"/>
                  </use>
                  <path fill="none" stroke="white" stroke-width="1.5" d="M0,-3.0v7 M-2.5,-0.5L0,-3.0L2.5,-0.5"/>
                </g>
                <g id="arrowDown" xlink:href="#dirArrow" transform="rotate(180) translate(-30 -48)" onmousedown="handlePan(0,1)">
                  <use xlink:href="#rim" fill="#404040">
                        <set attributeName="fill" to="#808080" begin="arrowDown.mouseover" end="arrowDown.mouseout"/>
                  </use>
                  <path fill="none" stroke="white" stroke-width="1.5" d="M0,-3.0v7 M-2.5,-0.5L0,-3.0L2.5,-0.5"/>
                </g>
                <g id="arrowLeft" xlink:href="#dirArrow" transform="rotate(270) translate(-36 17)" onmousedown="handlePan(-1,0)">
                  <use xlink:href="#rim" fill="#404040">
                        <set attributeName="fill" to="#808080" begin="arrowLeft.mouseover" end="arrowLeft.mouseout"/>
                  </use>
                  <path fill="none" stroke="white" stroke-width="1.5" d="M0,-3.0v7 M-2.5,-0.5L0,-3.0L2.5,-0.5"/>
                </g>
        </g>
        <svg viewBox="0 0 15 15" width="100%" height="30px" preserveAspectRatio="xMaxYMin meet">
         <g id="arrow_out" transform="scale(0.3 0.3)">
          <a xlink:href="classpsi_1_1VBase__coll__graph_org.svg" target="_base">
           <rect id="button" ry="5" rx="5" y="6" x="6" height="38" width="38"
                fill="#f2f5e9" fill-opacity="0.5" stroke="#606060" stroke-width="1.0"/>
           <path id="arrow"
             d="M 11.500037,31.436501 C 11.940474,20.09759 22.043105,11.32322 32.158766,21.979434 L 37.068811,17.246167 C 37.068811,17.246167 37.088388,32 37.088388,32 L 22.160133,31.978069 C 22.160133,31.978069 26.997745,27.140456 26.997745,27.140456 C 18.528582,18.264221 13.291696,25.230495 11.500037,31.436501 z"
             style="fill:#404040;"/>
          </a>
         </g>
        </svg>
</svg>
