<?xml version="1.0" encoding="UTF-8" standalone="no"?>
<!DOCTYPE svg PUBLIC "-//W3C//DTD SVG 1.1//EN"
 "http://www.w3.org/Graphics/SVG/1.1/DTD/svg11.dtd">
<!-- Generated by graphviz version 2.30.1 (20140110.0959)
 -->
<!-- Title: psi::LinK Pages: 1 -->
<svg width="512pt" height="136pt"
 viewBox="0.00 0.00 512.00 136.00" xmlns="http://www.w3.org/2000/svg" xmlns:xlink="http://www.w3.org/1999/xlink">
<g id="graph0" class="graph" transform="scale(1 1) rotate(0) translate(4 132)">
<title>psi::LinK</title>
<!-- Node1 -->
<g id="node1" class="node"><title>Node1</title>
<polygon fill="#bfbfbf" stroke="black" points="448.5,-54.5 448.5,-73.5 503.5,-73.5 503.5,-54.5 448.5,-54.5"/>
<text text-anchor="middle" x="476" y="-61.5" font-family="Helvetica,sans-Serif" font-size="10.00">psi::LinK</text>
</g>
<!-- Node2 -->
<g id="node2" class="node"><title>Node2</title>
<g id="a_node2"><a xlink:href="classboost_1_1shared__ptr.html" target="_top" xlink:title="boost::shared_ptr\&lt;\l psi::IntegralFactory \&gt;">
<polygon fill="none" stroke="black" points="258.5,-98 258.5,-128 371.5,-128 371.5,-98 258.5,-98"/>
<text text-anchor="start" x="266.5" y="-116" font-family="Helvetica,sans-Serif" font-size="10.00">boost::shared_ptr&lt;</text>
<text text-anchor="middle" x="315" y="-105" font-family="Helvetica,sans-Serif" font-size="10.00"> psi::IntegralFactory &gt;</text>
</a>
</g>
</g>
<!-- Node2&#45;&gt;Node1 -->
<g id="edge1" class="edge"><title>Node2&#45;&gt;Node1</title>
<path fill="none" stroke="#9a32cd" stroke-dasharray="5,2" d="M377.58,-95.0251C394.596,-89.9521 413.042,-84.3536 430,-79 435.968,-77.1158 442.359,-75.0283 448.395,-73.0243"/>
<polygon fill="#9a32cd" stroke="#9a32cd" points="376.338,-91.7428 367.749,-97.9455 378.332,-98.453 376.338,-91.7428"/>
<text text-anchor="middle" x="410" y="-93" font-family="Helvetica,sans-Serif" font-size="10.00"> factory_</text>
</g>
<!-- Node3 -->
<g id="node3" class="node"><title>Node3</title>
<g id="a_node3"><a xlink:href="classboost_1_1shared__ptr.html" target="_top" xlink:title="boost::shared_ptr\&lt; T \&gt;">
<polygon fill="none" stroke="black" points="0,-54.5 0,-73.5 116,-73.5 116,-54.5 0,-54.5"/>
<text text-anchor="middle" x="58" y="-61.5" font-family="Helvetica,sans-Serif" font-size="10.00">boost::shared_ptr&lt; T &gt;</text>
</a>
</g>
</g>
<!-- Node3&#45;&gt;Node2 -->
<g id="edge2" class="edge"><title>Node3&#45;&gt;Node2</title>
<path fill="none" stroke="orange" stroke-dasharray="5,2" d="M116.233,-75.5123C122.23,-76.6991 128.238,-77.8797 134,-79 175.676,-87.1034 222.835,-96.0014 258.426,-102.662"/>
<polygon fill="orange" stroke="orange" points="116.685,-72.0338 106.195,-73.519 115.321,-78.8998 116.685,-72.0338"/>
<text text-anchor="middle" x="187" y="-101" font-family="Helvetica,sans-Serif" font-size="10.00"> &lt; psi::IntegralFactory &gt;</text>
</g>
<!-- Node4 -->
<g id="node4" class="node"><title>Node4</title>
<g id="a_node4"><a xlink:href="classboost_1_1shared__ptr.html" target="_top" xlink:title="boost::shared_ptr\&lt;\l psi::BasisSet \&gt;">
<polygon fill="none" stroke="black" points="266,-49 266,-79 364,-79 364,-49 266,-49"/>
<text text-anchor="start" x="274" y="-67" font-family="Helvetica,sans-Serif" font-size="10.00">boost::shared_ptr&lt;</text>
<text text-anchor="middle" x="315" y="-56" font-family="Helvetica,sans-Serif" font-size="10.00"> psi::BasisSet &gt;</text>
</a>
</g>
</g>
<!-- Node3&#45;&gt;Node4 -->
<g id="edge4" class="edge"><title>Node3&#45;&gt;Node4</title>
<path fill="none" stroke="orange" stroke-dasharray="5,2" d="M126.253,-64C170.184,-64 226.505,-64 265.953,-64"/>
<polygon fill="orange" stroke="orange" points="126.227,-60.5001 116.227,-64 126.227,-67.5001 126.227,-60.5001"/>
<text text-anchor="middle" x="187" y="-67" font-family="Helvetica,sans-Serif" font-size="10.00"> &lt; psi::BasisSet &gt;</text>
</g>
<!-- Node5 -->
<g id="node5" class="node"><title>Node5</title>
<g id="a_node5"><a xlink:href="classboost_1_1shared__ptr.html" target="_top" xlink:title="boost::shared_ptr\&lt;\l psi::ERISieve \&gt;">
<polygon fill="none" stroke="black" points="266,-0 266,-30 364,-30 364,-0 266,-0"/>
<text text-anchor="start" x="274" y="-18" font-family="Helvetica,sans-Serif" font-size="10.00">boost::shared_ptr&lt;</text>
<text text-anchor="middle" x="315" y="-7" font-family="Helvetica,sans-Serif" font-size="10.00"> psi::ERISieve &gt;</text>
</a>
</g>
</g>
<!-- Node3&#45;&gt;Node5 -->
<g id="edge6" class="edge"><title>Node3&#45;&gt;Node5</title>
<path fill="none" stroke="orange" stroke-dasharray="5,2" d="M116.233,-52.4877C122.23,-51.3009 128.238,-50.1203 134,-49 178.642,-40.3199 229.575,-30.7282 265.842,-23.9517"/>
<polygon fill="orange" stroke="orange" points="115.321,-49.1002 106.195,-54.481 116.685,-55.9662 115.321,-49.1002"/>
<text text-anchor="middle" x="187" y="-52" font-family="Helvetica,sans-Serif" font-size="10.00"> &lt; psi::ERISieve &gt;</text>
</g>
<!-- Node4&#45;&gt;Node1 -->
<g id="edge3" class="edge"><title>Node4&#45;&gt;Node1</title>
<path fill="none" stroke="#9a32cd" stroke-dasharray="5,2" d="M374.399,-64C399.724,-64 428.128,-64 448.279,-64"/>
<polygon fill="#9a32cd" stroke="#9a32cd" points="374.137,-60.5001 364.137,-64 374.137,-67.5001 374.137,-60.5001"/>
<text text-anchor="middle" x="410" y="-67" font-family="Helvetica,sans-Serif" font-size="10.00"> basis_</text>
</g>
<!-- Node5&#45;&gt;Node1 -->
<g id="edge5" class="edge"><title>Node5&#45;&gt;Node1</title>
<path fill="none" stroke="#9a32cd" stroke-dasharray="5,2" d="M373.876,-31.8719C391.893,-37.2288 411.804,-43.2554 430,-49 435.968,-50.8842 442.359,-52.9717 448.395,-54.9757"/>
<polygon fill="#9a32cd" stroke="#9a32cd" points="374.666,-28.4558 364.084,-28.9709 372.677,-35.1674 374.666,-28.4558"/>
<text text-anchor="middle" x="410" y="-52" font-family="Helvetica,sans-Serif" font-size="10.00"> sieve_</text>
</g>
</g>
</svg>
