<?xml version="1.0" encoding="UTF-8" standalone="no"?>
<!DOCTYPE svg PUBLIC "-//W3C//DTD SVG 1.1//EN"
 "http://www.w3.org/Graphics/SVG/1.1/DTD/svg11.dtd">
<!-- Generated by graphviz version 2.30.1 (20140110.0959)
 -->
<!-- Title: psi::PSIO::filecfg_kwd Pages: 1 -->
<svg width="1394pt" height="550pt"
 viewBox="0.00 0.00 1394.00 550.00" xmlns="http://www.w3.org/2000/svg" xmlns:xlink="http://www.w3.org/1999/xlink">
<g id="graph0" class="graph" transform="scale(1 1) rotate(0) translate(4 546)">
<title>psi::PSIO::filecfg_kwd</title>
<!-- Node1 -->
<g id="node1" class="node"><title>Node1</title>
<polygon fill="#bfbfbf" stroke="black" points="0.5,-304.5 0.5,-323.5 115.5,-323.5 115.5,-304.5 0.5,-304.5"/>
<text text-anchor="middle" x="58" y="-311.5" font-family="Helvetica,sans-Serif" font-size="10.00">psi::PSIO::filecfg_kwd</text>
</g>
<!-- Node2 -->
<g id="node2" class="node"><title>Node2</title>
<g id="a_node2"><a xlink:href="classpsi_1_1PSIO.html#aef650f478b5b6d852921deec3f0e8e4a" target="_top" xlink:title="grab the filename of unit and strdup into name.">
<polygon fill="none" stroke="black" points="152.5,-304.5 152.5,-323.5 273.5,-323.5 273.5,-304.5 152.5,-304.5"/>
<text text-anchor="middle" x="213" y="-311.5" font-family="Helvetica,sans-Serif" font-size="10.00">psi::PSIO::get_filename</text>
</a>
</g>
</g>
<!-- Node1&#45;&gt;Node2 -->
<g id="edge1" class="edge"><title>Node1&#45;&gt;Node2</title>
<path fill="none" stroke="midnightblue" d="M125.802,-314C134.641,-314 143.654,-314 152.361,-314"/>
<polygon fill="midnightblue" stroke="midnightblue" points="125.537,-310.5 115.537,-314 125.537,-317.5 125.537,-310.5"/>
</g>
<!-- Node3 -->
<g id="node3" class="node"><title>Node3</title>
<g id="a_node3"><a xlink:href="classpsi_1_1PSIO.html#ad9843039bda332ccadfc7f47ec4ada25" target="_top" xlink:title="open unit. status can be PSIO_OPEN_OLD (if existing file is to be opened) or PSIO_OPEN_NEW if new fil...">
<polygon fill="none" stroke="black" points="325,-304.5 325,-323.5 411,-323.5 411,-304.5 325,-304.5"/>
<text text-anchor="middle" x="368" y="-311.5" font-family="Helvetica,sans-Serif" font-size="10.00">psi::PSIO::open</text>
</a>
</g>
</g>
<!-- Node2&#45;&gt;Node3 -->
<g id="edge2" class="edge"><title>Node2&#45;&gt;Node3</title>
<path fill="none" stroke="midnightblue" d="M283.73,-314C297.765,-314 312.106,-314 324.844,-314"/>
<polygon fill="midnightblue" stroke="midnightblue" points="283.592,-310.5 273.592,-314 283.592,-317.5 283.592,-310.5"/>
</g>
<!-- Node8 -->
<g id="node8" class="node"><title>Node8</title>
<g id="a_node8"><a xlink:href="classpsi_1_1PSIO.html#a55e993b2eb05c261d90888c90d854e23" target="_top" xlink:title="check if a psi unit already exists or not">
<polygon fill="none" stroke="black" points="1155,-494.5 1155,-513.5 1247,-513.5 1247,-494.5 1155,-494.5"/>
<text text-anchor="middle" x="1201" y="-501.5" font-family="Helvetica,sans-Serif" font-size="10.00">psi::PSIO::exists</text>
</a>
</g>
</g>
<!-- Node2&#45;&gt;Node8 -->
<g id="edge37" class="edge"><title>Node2&#45;&gt;Node8</title>
<path fill="none" stroke="midnightblue" d="M225.199,-332.055C260.179,-385.958 373.332,-542 511,-542 511,-542 511,-542 921,-542 1005.08,-542 1102.12,-524.846 1156.75,-513.589"/>
<polygon fill="midnightblue" stroke="midnightblue" points="228.079,-330.062 219.755,-323.507 222.174,-333.822 228.079,-330.062"/>
</g>
<!-- Node24 -->
<g id="node24" class="node"><title>Node24</title>
<g id="a_node24"><a xlink:href="classpsi_1_1PSIO.html#a34576a03d7180cb078f851de42c56a91" target="_top" xlink:title="moves a file from old_unit to new_unit">
<polygon fill="none" stroke="black" points="310,-266.5 310,-285.5 426,-285.5 426,-266.5 310,-266.5"/>
<text text-anchor="middle" x="368" y="-273.5" font-family="Helvetica,sans-Serif" font-size="10.00">psi::PSIO::rename_file</text>
</a>
</g>
</g>
<!-- Node2&#45;&gt;Node24 -->
<g id="edge38" class="edge"><title>Node2&#45;&gt;Node24</title>
<path fill="none" stroke="midnightblue" d="M262.477,-301.96C283.852,-296.651 308.613,-290.501 328.669,-285.52"/>
<polygon fill="midnightblue" stroke="midnightblue" points="261.47,-298.604 252.608,-304.411 263.157,-305.397 261.47,-298.604"/>
</g>
<!-- Node4 -->
<g id="node4" class="node"><title>Node4</title>
<g id="a_node4"><a xlink:href="classpsi_1_1IWL.html#a202f7c51f0e4852cb5c6068bc594acc3" target="_top" xlink:title="psi::IWL::init">
<polygon fill="none" stroke="black" points="1165,-152.5 1165,-171.5 1237,-171.5 1237,-152.5 1165,-152.5"/>
<text text-anchor="middle" x="1201" y="-159.5" font-family="Helvetica,sans-Serif" font-size="10.00">psi::IWL::init</text>
</a>
</g>
</g>
<!-- Node3&#45;&gt;Node4 -->
<g id="edge3" class="edge"><title>Node3&#45;&gt;Node4</title>
<path fill="none" stroke="midnightblue" d="M420.02,-300.221C422.176,-298.663 424.188,-296.93 426,-295 468.799,-249.417 420.581,-205.84 462,-159 519.733,-93.7115 556.847,-86 644,-86 644,-86 644,-86 921,-86 1020.9,-86 1134.08,-131.924 1179.52,-152.375"/>
<polygon fill="midnightblue" stroke="midnightblue" points="418.001,-297.346 411.116,-305.399 421.52,-303.397 418.001,-297.346"/>
</g>
<!-- Node5 -->
<g id="node5" class="node"><title>Node5</title>
<g id="a_node5"><a xlink:href="classpsi_1_1Chkpt.html#a077936f112012a2de9dd5c36f6450263" target="_top" xlink:title="psi::Chkpt::Chkpt">
<polygon fill="none" stroke="black" points="598,-114.5 598,-133.5 692,-133.5 692,-114.5 598,-114.5"/>
<text text-anchor="middle" x="645" y="-121.5" font-family="Helvetica,sans-Serif" font-size="10.00">psi::Chkpt::Chkpt</text>
</a>
</g>
</g>
<!-- Node3&#45;&gt;Node5 -->
<g id="edge4" class="edge"><title>Node3&#45;&gt;Node5</title>
<path fill="none" stroke="midnightblue" d="M418.598,-299.939C421.201,-298.451 423.691,-296.809 426,-295 449.585,-276.52 441.31,-259.673 462,-238 512.912,-184.668 533.32,-178.395 598,-143 604.215,-139.599 611.169,-136.427 617.749,-133.687"/>
<polygon fill="midnightblue" stroke="midnightblue" points="416.858,-296.894 409.411,-304.43 419.932,-303.182 416.858,-296.894"/>
</g>
<!-- Node6 -->
<g id="node6" class="node"><title>Node6</title>
<g id="a_node6"><a xlink:href="classpsi_1_1Matrix.html#a504437ba978cdadc160b0a41e7bdc1b0" target="_top" xlink:title="psi::Matrix::save">
<polygon fill="none" stroke="black" points="1156.5,-76.5 1156.5,-95.5 1245.5,-95.5 1245.5,-76.5 1156.5,-76.5"/>
<text text-anchor="middle" x="1201" y="-83.5" font-family="Helvetica,sans-Serif" font-size="10.00">psi::Matrix::save</text>
</a>
</g>
</g>
<!-- Node3&#45;&gt;Node6 -->
<g id="edge5" class="edge"><title>Node3&#45;&gt;Node6</title>
<path fill="none" stroke="midnightblue" d="M420.116,-300.489C422.26,-298.862 424.243,-297.04 426,-295 486.656,-224.578 397.894,-156.297 462,-89 519.19,-28.9632 561.084,-48 644,-48 644,-48 644,-48 921,-48 1005.08,-48 1102.12,-65.1538 1156.75,-76.411"/>
<polygon fill="midnightblue" stroke="midnightblue" points="417.955,-297.703 411.177,-305.847 421.554,-303.708 417.955,-297.703"/>
</g>
<!-- Node7 -->
<g id="node7" class="node"><title>Node7</title>
<g id="a_node7"><a xlink:href="classpsi_1_1Matrix.html#a5565e99a42eea2302f10857c1dc2b28c" target="_top" xlink:title="psi::Matrix::load">
<polygon fill="none" stroke="black" points="1158,-0.5 1158,-19.5 1244,-19.5 1244,-0.5 1158,-0.5"/>
<text text-anchor="middle" x="1201" y="-7.5" font-family="Helvetica,sans-Serif" font-size="10.00">psi::Matrix::load</text>
</a>
</g>
</g>
<!-- Node3&#45;&gt;Node7 -->
<g id="edge6" class="edge"><title>Node3&#45;&gt;Node7</title>
<path fill="none" stroke="midnightblue" d="M420.087,-300.639C422.253,-298.974 424.246,-297.103 426,-295 498.75,-207.781 383.013,-123.613 462,-42 519.117,17.0162 561.87,-10 644,-10 644,-10 644,-10 921,-10 1005.04,-10 1103.32,-10 1157.93,-10"/>
<polygon fill="midnightblue" stroke="midnightblue" points="417.787,-297.938 411.025,-306.094 421.397,-303.936 417.787,-297.938"/>
</g>
<!-- Node3&#45;&gt;Node8 -->
<g id="edge7" class="edge"><title>Node3&#45;&gt;Node8</title>
<path fill="none" stroke="midnightblue" d="M376.952,-333.123C390.2,-362.635 419.587,-419.094 462,-450 530.191,-499.69 559.626,-504 644,-504 644,-504 644,-504 921,-504 1003.34,-504 1099.36,-504 1154.57,-504"/>
<polygon fill="midnightblue" stroke="midnightblue" points="379.997,-331.348 372.807,-323.566 373.575,-334.133 379.997,-331.348"/>
</g>
<!-- Node9 -->
<g id="node9" class="node"><title>Node9</title>
<g id="a_node9"><a xlink:href="classpsi_1_1PSIO.html#a23ff92893b98ff855a4a2a0f46798965" target="_top" xlink:title="sync up the object to the file on disk by closing and opening the file, if necessary">
<polygon fill="none" stroke="black" points="1153.5,-456.5 1153.5,-475.5 1248.5,-475.5 1248.5,-456.5 1153.5,-456.5"/>
<text text-anchor="middle" x="1201" y="-463.5" font-family="Helvetica,sans-Serif" font-size="10.00">psi::PSIO::rehash</text>
</a>
</g>
</g>
<!-- Node3&#45;&gt;Node9 -->
<g id="edge8" class="edge"><title>Node3&#45;&gt;Node9</title>
<path fill="none" stroke="midnightblue" d="M380.922,-331.902C396.804,-354.367 427.003,-392.544 462,-414 533.72,-457.97 559.874,-466 644,-466 644,-466 644,-466 921,-466 1002.62,-466 1097.66,-466 1153.1,-466"/>
<polygon fill="midnightblue" stroke="midnightblue" points="383.754,-329.844 375.197,-323.597 377.99,-333.817 383.754,-329.844"/>
</g>
<!-- Node11 -->
<g id="node11" class="node"><title>Node11</title>
<g id="a_node11"><a xlink:href="classpsi_1_1PSIO.html#a12ae14f94e24babb41b403a059ab9855" target="_top" xlink:title="Print the table of contents for the given unit.">
<polygon fill="none" stroke="black" points="1152,-418.5 1152,-437.5 1250,-437.5 1250,-418.5 1152,-418.5"/>
<text text-anchor="middle" x="1201" y="-425.5" font-family="Helvetica,sans-Serif" font-size="10.00">psi::PSIO::tocprint</text>
</a>
</g>
</g>
<!-- Node3&#45;&gt;Node11 -->
<g id="edge10" class="edge"><title>Node3&#45;&gt;Node11</title>
<path fill="none" stroke="midnightblue" d="M387.48,-330.531C405.36,-345.708 433.821,-367.785 462,-381 537.638,-416.472 560.457,-428 644,-428 644,-428 644,-428 921,-428 1001.89,-428 1095.97,-428 1151.61,-428"/>
<polygon fill="midnightblue" stroke="midnightblue" points="389.45,-327.607 379.6,-323.704 384.866,-332.897 389.45,-327.607"/>
</g>
<!-- Node12 -->
<g id="node12" class="node"><title>Node12</title>
<g id="a_node12"><a xlink:href="classpsi_1_1PSIO.html#a5646f6a4991f52588a42e54bad3261ef" target="_top" xlink:title="Scans the TOC for a particular keyword and returns either a pointer to the entry or NULL to the calle...">
<polygon fill="none" stroke="black" points="462,-247.5 462,-266.5 562,-266.5 562,-247.5 462,-247.5"/>
<text text-anchor="middle" x="512" y="-254.5" font-family="Helvetica,sans-Serif" font-size="10.00">psi::PSIO::tocscan</text>
</a>
</g>
</g>
<!-- Node3&#45;&gt;Node12 -->
<g id="edge11" class="edge"><title>Node3&#45;&gt;Node12</title>
<path fill="none" stroke="midnightblue" d="M408.928,-301.248C414.689,-299.247 420.52,-297.132 426,-295 448.596,-286.208 473.895,-274.673 490.971,-266.628"/>
<polygon fill="midnightblue" stroke="midnightblue" points="407.716,-297.963 399.372,-304.492 409.966,-304.592 407.716,-297.963"/>
</g>
<!-- Node18 -->
<g id="node18" class="node"><title>Node18</title>
<g id="a_node18"><a xlink:href="classpsi_1_1PSIO.html#abb58a8a71cf2dcdfa8f596310e8e7a11" target="_top" xlink:title="Checks the TOC to see if a particular keyword exists there or not.">
<polygon fill="none" stroke="black" points="1150.5,-369 1150.5,-399 1251.5,-399 1251.5,-369 1150.5,-369"/>
<text text-anchor="start" x="1158.5" y="-387" font-family="Helvetica,sans-Serif" font-size="10.00">psi::PSIO::tocentry</text>
<text text-anchor="middle" x="1201" y="-376" font-family="Helvetica,sans-Serif" font-size="10.00">_exists</text>
</a>
</g>
</g>
<!-- Node3&#45;&gt;Node18 -->
<g id="edge36" class="edge"><title>Node3&#45;&gt;Node18</title>
<path fill="none" stroke="midnightblue" d="M398.325,-327.741C447.82,-349.637 551.59,-390 644,-390 644,-390 644,-390 921,-390 1001.3,-390 1094.58,-387.485 1150.36,-385.711"/>
<polygon fill="midnightblue" stroke="midnightblue" points="399.725,-324.533 389.169,-323.625 396.855,-330.918 399.725,-324.533"/>
</g>
<!-- Node10 -->
<g id="node10" class="node"><title>Node10</title>
<g id="a_node10"><a xlink:href="classpsi_1_1Chkpt.html#a7e767ca0c7ddc8c6657bc2963a875531" target="_top" xlink:title="update this object. call rehash() if the state of the checkpoint file may have changed">
<polygon fill="none" stroke="black" points="1288.5,-456.5 1288.5,-475.5 1385.5,-475.5 1385.5,-456.5 1288.5,-456.5"/>
<text text-anchor="middle" x="1337" y="-463.5" font-family="Helvetica,sans-Serif" font-size="10.00">psi::Chkpt::rehash</text>
</a>
</g>
</g>
<!-- Node9&#45;&gt;Node10 -->
<g id="edge9" class="edge"><title>Node9&#45;&gt;Node10</title>
<path fill="none" stroke="midnightblue" d="M1258.97,-466C1268.8,-466 1278.93,-466 1288.48,-466"/>
<polygon fill="midnightblue" stroke="midnightblue" points="1258.87,-462.5 1248.87,-466 1258.87,-469.5 1258.87,-462.5"/>
</g>
<!-- Node12&#45;&gt;Node4 -->
<g id="edge12" class="edge"><title>Node12&#45;&gt;Node4</title>
<path fill="none" stroke="midnightblue" d="M538.287,-242.653C554.763,-234.007 577.022,-223.613 598,-218 807.386,-161.971 1070.68,-159.895 1164.67,-161.187"/>
<polygon fill="midnightblue" stroke="midnightblue" points="536.45,-239.667 529.308,-247.493 539.771,-245.829 536.45,-239.667"/>
</g>
<!-- Node12&#45;&gt;Node5 -->
<g id="edge13" class="edge"><title>Node12&#45;&gt;Node5</title>
<path fill="none" stroke="midnightblue" d="M522.716,-238.281C536.454,-213.443 563.741,-169.638 598,-143 602.775,-139.287 608.378,-136.184 613.999,-133.635"/>
<polygon fill="midnightblue" stroke="midnightblue" points="519.481,-236.907 517.827,-247.372 525.646,-240.223 519.481,-236.907"/>
</g>
<!-- Node13 -->
<g id="node13" class="node"><title>Node13</title>
<g id="a_node13"><a xlink:href="classpsi_1_1PSIO.html#a20e9bd359e831a80b55ec64673394cd0" target="_top" xlink:title="psi::PSIO::read">
<polygon fill="none" stroke="black" points="603,-266.5 603,-285.5 687,-285.5 687,-266.5 603,-266.5"/>
<text text-anchor="middle" x="645" y="-273.5" font-family="Helvetica,sans-Serif" font-size="10.00">psi::PSIO::read</text>
</a>
</g>
</g>
<!-- Node12&#45;&gt;Node13 -->
<g id="edge14" class="edge"><title>Node12&#45;&gt;Node13</title>
<path fill="none" stroke="midnightblue" d="M572.315,-265.603C582.584,-267.092 593.057,-268.611 602.714,-270.012"/>
<polygon fill="midnightblue" stroke="midnightblue" points="572.551,-262.101 562.152,-264.129 571.546,-269.028 572.551,-262.101"/>
</g>
<!-- Node19 -->
<g id="node19" class="node"><title>Node19</title>
<g id="a_node19"><a xlink:href="classpsi_1_1PSIO.html#a8662dbc5874d1024d04427ecc01a2f93" target="_top" xlink:title="Delete all TOC entries after the given key. If a blank key is given, the entire TOC will be wiped...">
<polygon fill="none" stroke="black" points="1009,-285.5 1009,-304.5 1111,-304.5 1111,-285.5 1009,-285.5"/>
<text text-anchor="middle" x="1060" y="-292.5" font-family="Helvetica,sans-Serif" font-size="10.00">psi::PSIO::tocclean</text>
</a>
</g>
</g>
<!-- Node12&#45;&gt;Node19 -->
<g id="edge33" class="edge"><title>Node12&#45;&gt;Node19</title>
<path fill="none" stroke="midnightblue" d="M537.865,-271.472C554.325,-280.191 576.724,-290.461 598,-295 744.566,-326.271 923.363,-311.796 1008.83,-301.766"/>
<polygon fill="midnightblue" stroke="midnightblue" points="539.366,-268.303 528.914,-266.572 536.005,-274.443 539.366,-268.303"/>
</g>
<!-- Node23 -->
<g id="node23" class="node"><title>Node23</title>
<g id="a_node23"><a xlink:href="classpsi_1_1PSIO.html#abb4334d8aaaa03e32d8b9d9450b598e1" target="_top" xlink:title="delete a specific TOC entry (only deletes entry, not data)">
<polygon fill="none" stroke="black" points="599,-152.5 599,-171.5 691,-171.5 691,-152.5 599,-152.5"/>
<text text-anchor="middle" x="645" y="-159.5" font-family="Helvetica,sans-Serif" font-size="10.00">psi::PSIO::tocdel</text>
</a>
</g>
</g>
<!-- Node12&#45;&gt;Node23 -->
<g id="edge34" class="edge"><title>Node12&#45;&gt;Node23</title>
<path fill="none" stroke="midnightblue" d="M530.5,-240.451C547.095,-225.239 573.121,-202.6 598,-186 605.943,-180.701 615.194,-175.675 623.309,-171.605"/>
<polygon fill="midnightblue" stroke="midnightblue" points="528.108,-237.895 523.158,-247.262 532.869,-243.027 528.108,-237.895"/>
</g>
<!-- Node20 -->
<g id="node20" class="node"><title>Node20</title>
<g id="a_node20"><a xlink:href="classpsi_1_1PSIO.html#abaa2e29b2fbcab920d8daf8f5ae5419c" target="_top" xlink:title="psi::PSIO::write">
<polygon fill="none" stroke="black" points="877,-228.5 877,-247.5 963,-247.5 963,-228.5 877,-228.5"/>
<text text-anchor="middle" x="920" y="-235.5" font-family="Helvetica,sans-Serif" font-size="10.00">psi::PSIO::write</text>
</a>
</g>
</g>
<!-- Node12&#45;&gt;Node20 -->
<g id="edge35" class="edge"><title>Node12&#45;&gt;Node20</title>
<path fill="none" stroke="midnightblue" d="M558.487,-245.06C620.67,-230.235 735.722,-208.15 834,-219 850.833,-220.858 869.207,-224.727 884.551,-228.492"/>
<polygon fill="midnightblue" stroke="midnightblue" points="557.496,-241.698 548.605,-247.461 559.149,-248.5 557.496,-241.698"/>
</g>
<!-- Node14 -->
<g id="node14" class="node"><title>Node14</title>
<g id="a_node14"><a xlink:href="group__PSIO.html#ga0b989c316ebc107f83ab7eb921a6f38c" target="_top" xlink:title="psi::PSIO::rw">
<polygon fill="none" stroke="black" points="743,-228.5 743,-247.5 819,-247.5 819,-228.5 743,-228.5"/>
<text text-anchor="middle" x="781" y="-235.5" font-family="Helvetica,sans-Serif" font-size="10.00">psi::PSIO::rw</text>
</a>
</g>
</g>
<!-- Node13&#45;&gt;Node14 -->
<g id="edge15" class="edge"><title>Node13&#45;&gt;Node14</title>
<path fill="none" stroke="midnightblue" d="M672.703,-262.908C692.792,-255.802 720.57,-247.726 742.829,-242.425"/>
<polygon fill="midnightblue" stroke="midnightblue" points="671.408,-259.655 663.244,-266.408 673.837,-266.22 671.408,-259.655"/>
</g>
<!-- Node22 -->
<g id="node22" class="node"><title>Node22</title>
<g id="a_node22"><a xlink:href="classpsi_1_1PSIO.html#acaf0018068dc555a9fdbb0ba4662cc95" target="_top" xlink:title="psi::PSIO::rd_toclen">
<polygon fill="none" stroke="black" points="728.5,-266.5 728.5,-285.5 833.5,-285.5 833.5,-266.5 728.5,-266.5"/>
<text text-anchor="middle" x="781" y="-273.5" font-family="Helvetica,sans-Serif" font-size="10.00">psi::PSIO::rd_toclen</text>
</a>
</g>
</g>
<!-- Node13&#45;&gt;Node22 -->
<g id="edge32" class="edge"><title>Node13&#45;&gt;Node22</title>
<path fill="none" stroke="midnightblue" d="M697.549,-276C707.595,-276 718.131,-276 728.186,-276"/>
<polygon fill="midnightblue" stroke="midnightblue" points="697.298,-272.5 687.298,-276 697.298,-279.5 697.298,-272.5"/>
</g>
<!-- Node14&#45;&gt;Node13 -->
<g id="edge16" class="edge"><title>Node14&#45;&gt;Node13</title>
<path fill="none" stroke="midnightblue" d="M753.355,-251.072C734.485,-257.749 708.809,-265.288 687.298,-270.576"/>
<polygon fill="midnightblue" stroke="midnightblue" points="754.644,-254.327 762.806,-247.573 752.213,-247.762 754.644,-254.327"/>
</g>
<!-- Node15 -->
<g id="node15" class="node"><title>Node15</title>
<g id="a_node15"><a xlink:href="classpsi_1_1PSIO.html#a32fcd89fe9072099cb993a455233cf15" target="_top" xlink:title="Write the table of contents for file number &#39;unit&#39;. NB: This function should NOT call psio_error beca...">
<polygon fill="none" stroke="black" points="870,-266.5 870,-285.5 970,-285.5 970,-266.5 870,-266.5"/>
<text text-anchor="middle" x="920" y="-273.5" font-family="Helvetica,sans-Serif" font-size="10.00">psi::PSIO::tocwrite</text>
</a>
</g>
</g>
<!-- Node14&#45;&gt;Node15 -->
<g id="edge17" class="edge"><title>Node14&#45;&gt;Node15</title>
<path fill="none" stroke="midnightblue" d="M826.411,-250.318C845.234,-255.539 866.838,-261.532 884.44,-266.414"/>
<polygon fill="midnightblue" stroke="midnightblue" points="827.143,-246.889 816.571,-247.589 825.272,-253.635 827.143,-246.889"/>
</g>
<!-- Node14&#45;&gt;Node20 -->
<g id="edge29" class="edge"><title>Node14&#45;&gt;Node20</title>
<path fill="none" stroke="midnightblue" d="M829.395,-231.543C844.726,-231.104 861.62,-231.158 876.567,-231.705"/>
<polygon fill="midnightblue" stroke="midnightblue" points="828.938,-228.058 819.074,-231.926 829.197,-235.053 828.938,-228.058"/>
</g>
<!-- Node16 -->
<g id="node16" class="node"><title>Node16</title>
<g id="a_node16"><a xlink:href="classpsi_1_1PSIO.html#adbd402c15bc7514c6ccaf1838a138858" target="_top" xlink:title="close unit. if keep == 0, will remove the file, else keep it">
<polygon fill="none" stroke="black" points="1015.5,-336.5 1015.5,-355.5 1104.5,-355.5 1104.5,-336.5 1015.5,-336.5"/>
<text text-anchor="middle" x="1060" y="-343.5" font-family="Helvetica,sans-Serif" font-size="10.00">psi::PSIO::close</text>
</a>
</g>
</g>
<!-- Node15&#45;&gt;Node16 -->
<g id="edge18" class="edge"><title>Node15&#45;&gt;Node16</title>
<path fill="none" stroke="midnightblue" d="M948.867,-290.135C975.926,-303.861 1016.28,-324.329 1039.89,-336.305"/>
<polygon fill="midnightblue" stroke="midnightblue" points="950.401,-286.989 939.899,-285.586 947.234,-293.232 950.401,-286.989"/>
</g>
<!-- Node15&#45;&gt;Node19 -->
<g id="edge28" class="edge"><title>Node15&#45;&gt;Node19</title>
<path fill="none" stroke="midnightblue" d="M980.212,-284.152C989.708,-285.46 999.457,-286.802 1008.72,-288.077"/>
<polygon fill="midnightblue" stroke="midnightblue" points="980.426,-280.649 970.042,-282.752 979.471,-287.584 980.426,-280.649"/>
</g>
<!-- Node16&#45;&gt;Node4 -->
<g id="edge19" class="edge"><title>Node16&#45;&gt;Node4</title>
<path fill="none" stroke="midnightblue" d="M1091.02,-331.493C1099.1,-326.671 1107.41,-320.776 1114,-314 1157.75,-268.997 1186.98,-197.391 1196.56,-171.628"/>
<polygon fill="midnightblue" stroke="midnightblue" points="1089.13,-328.539 1082.11,-336.469 1092.55,-334.651 1089.13,-328.539"/>
</g>
<!-- Node17 -->
<g id="node17" class="node"><title>Node17</title>
<g id="a_node17"><a xlink:href="classpsi_1_1Chkpt.html#aca792d05dece12c66d19cf2938bf0c50" target="_top" xlink:title="psi::Chkpt::~Chkpt">
<polygon fill="none" stroke="black" points="1151,-330.5 1151,-349.5 1251,-349.5 1251,-330.5 1151,-330.5"/>
<text text-anchor="middle" x="1201" y="-337.5" font-family="Helvetica,sans-Serif" font-size="10.00">psi::Chkpt::~Chkpt</text>
</a>
</g>
</g>
<!-- Node16&#45;&gt;Node17 -->
<g id="edge20" class="edge"><title>Node16&#45;&gt;Node17</title>
<path fill="none" stroke="midnightblue" d="M1114.8,-343.678C1126.63,-343.167 1139.1,-342.629 1150.74,-342.126"/>
<polygon fill="midnightblue" stroke="midnightblue" points="1114.44,-340.19 1104.6,-344.118 1114.74,-347.183 1114.44,-340.19"/>
</g>
<!-- Node16&#45;&gt;Node6 -->
<g id="edge21" class="edge"><title>Node16&#45;&gt;Node6</title>
<path fill="none" stroke="midnightblue" d="M1094.31,-331.572C1101.76,-326.94 1108.95,-321.117 1114,-314 1158.97,-250.679 1115.26,-212.462 1150,-143 1159.54,-123.928 1177.03,-106.168 1188.59,-95.6972"/>
<polygon fill="midnightblue" stroke="midnightblue" points="1092.57,-328.534 1085.55,-336.47 1095.99,-334.644 1092.57,-328.534"/>
</g>
<!-- Node16&#45;&gt;Node7 -->
<g id="edge22" class="edge"><title>Node16&#45;&gt;Node7</title>
<path fill="none" stroke="midnightblue" d="M1095.5,-331.24C1102.62,-326.69 1109.36,-320.988 1114,-314 1175.37,-221.582 1103.51,-167.727 1150,-67 1158.94,-47.6377 1176.59,-29.9551 1188.34,-19.5799"/>
<polygon fill="midnightblue" stroke="midnightblue" points="1093.37,-328.422 1086.4,-336.397 1096.82,-334.513 1093.37,-328.422"/>
</g>
<!-- Node16&#45;&gt;Node8 -->
<g id="edge23" class="edge"><title>Node16&#45;&gt;Node8</title>
<path fill="none" stroke="midnightblue" d="M1068.56,-365.169C1081.16,-394.823 1109.19,-451.852 1150,-485 1154.69,-488.806 1160.21,-491.904 1165.86,-494.408"/>
<polygon fill="midnightblue" stroke="midnightblue" points="1071.65,-363.496 1064.62,-355.577 1065.18,-366.157 1071.65,-363.496"/>
</g>
<!-- Node16&#45;&gt;Node9 -->
<g id="edge24" class="edge"><title>Node16&#45;&gt;Node9</title>
<path fill="none" stroke="midnightblue" d="M1072.92,-364.288C1088.31,-386.605 1117.05,-424.176 1150,-447 1155.42,-450.754 1161.68,-453.888 1167.9,-456.456"/>
<polygon fill="midnightblue" stroke="midnightblue" points="1075.66,-362.087 1067.17,-355.745 1069.85,-365.995 1075.66,-362.087"/>
</g>
<!-- Node16&#45;&gt;Node11 -->
<g id="edge25" class="edge"><title>Node16&#45;&gt;Node11</title>
<path fill="none" stroke="midnightblue" d="M1081.1,-361.997C1098.6,-375.429 1125.02,-394.53 1150,-408 1157.16,-411.86 1165.23,-415.406 1172.76,-418.406"/>
<polygon fill="midnightblue" stroke="midnightblue" points="1082.86,-358.929 1072.81,-355.55 1078.56,-364.453 1082.86,-358.929"/>
</g>
<!-- Node16&#45;&gt;Node12 -->
<g id="edge26" class="edge"><title>Node16&#45;&gt;Node12</title>
<path fill="none" stroke="midnightblue" d="M1005.43,-351.876C917.44,-359.499 738.095,-366.44 598,-316 567.577,-305.047 537.914,-280.328 522.982,-266.616"/>
<polygon fill="midnightblue" stroke="midnightblue" points="1005.8,-355.357 1015.45,-350.971 1005.17,-348.385 1005.8,-355.357"/>
</g>
<!-- Node16&#45;&gt;Node18 -->
<g id="edge27" class="edge"><title>Node16&#45;&gt;Node18</title>
<path fill="none" stroke="midnightblue" d="M1106.09,-358.327C1120.28,-362.206 1136.02,-366.509 1150.5,-370.467"/>
<polygon fill="midnightblue" stroke="midnightblue" points="1106.64,-354.85 1096.08,-355.589 1104.8,-361.602 1106.64,-354.85"/>
</g>
<!-- Node20&#45;&gt;Node14 -->
<g id="edge30" class="edge"><title>Node20&#45;&gt;Node14</title>
<path fill="none" stroke="midnightblue" d="M866.402,-244.586C850.615,-244.917 833.635,-244.747 819.074,-244.074"/>
<polygon fill="midnightblue" stroke="midnightblue" points="866.671,-248.08 876.567,-244.295 866.471,-241.082 866.671,-248.08"/>
</g>
<!-- Node21 -->
<g id="node21" class="node"><title>Node21</title>
<g id="a_node21"><a xlink:href="classpsi_1_1PSIO.html#abc5f81207cc631e4b944507ca0621381" target="_top" xlink:title="psi::PSIO::zero_disk">
<polygon fill="none" stroke="black" points="1006.5,-228.5 1006.5,-247.5 1113.5,-247.5 1113.5,-228.5 1006.5,-228.5"/>
<text text-anchor="middle" x="1060" y="-235.5" font-family="Helvetica,sans-Serif" font-size="10.00">psi::PSIO::zero_disk</text>
</a>
</g>
</g>
<!-- Node20&#45;&gt;Node21 -->
<g id="edge31" class="edge"><title>Node20&#45;&gt;Node21</title>
<path fill="none" stroke="midnightblue" d="M973.314,-238C984.136,-238 995.54,-238 1006.37,-238"/>
<polygon fill="midnightblue" stroke="midnightblue" points="973.154,-234.5 963.154,-238 973.154,-241.5 973.154,-234.5"/>
</g>
</g>
</svg>
