<?xml version="1.0" encoding="UTF-8" standalone="no"?>
<!DOCTYPE svg PUBLIC "-//W3C//DTD SVG 1.1//EN"
 "http://www.w3.org/Graphics/SVG/1.1/DTD/svg11.dtd">
<!-- Generated by graphviz version 2.30.1 (20140110.0959)
 -->
<!-- Title: rapidxml::xml_base::value Pages: 1 -->
<svg width="418pt" height="175pt"
 viewBox="0.00 0.00 418.00 175.00" xmlns="http://www.w3.org/2000/svg" xmlns:xlink="http://www.w3.org/1999/xlink">
<g id="graph0" class="graph" transform="scale(1 1) rotate(0) translate(4 171)">
<title>rapidxml::xml_base::value</title>
<!-- Node1 -->
<g id="node1" class="node"><title>Node1</title>
<polygon fill="#bfbfbf" stroke="black" points="0.5,-66 0.5,-96 101.5,-96 101.5,-66 0.5,-66"/>
<text text-anchor="start" x="8.5" y="-84" font-family="Helvetica,sans-Serif" font-size="10.00">rapidxml::xml_base</text>
<text text-anchor="middle" x="51" y="-73" font-family="Helvetica,sans-Serif" font-size="10.00">::value</text>
</g>
<!-- Node2 -->
<g id="node2" class="node"><title>Node2</title>
<g id="a_node2"><a xlink:href="classrapidxml_1_1memory__pool.html#a4118581c29ee9a2f6b55ebf7dac185f8" target="_top" xlink:title="rapidxml::memory_pool\l::allocate_node">
<polygon fill="none" stroke="black" points="138,-137 138,-167 256,-167 256,-137 138,-137"/>
<text text-anchor="start" x="146" y="-155" font-family="Helvetica,sans-Serif" font-size="10.00">rapidxml::memory_pool</text>
<text text-anchor="middle" x="197" y="-144" font-family="Helvetica,sans-Serif" font-size="10.00">::allocate_node</text>
</a>
</g>
</g>
<!-- Node1&#45;&gt;Node2 -->
<g id="edge1" class="edge"><title>Node1&#45;&gt;Node2</title>
<path fill="none" stroke="midnightblue" d="M87.9264,-101.087C103.211,-109.404 121.326,-118.965 138,-127 145.013,-130.38 152.598,-133.808 159.897,-136.997"/>
<polygon fill="midnightblue" stroke="midnightblue" points="89.2648,-97.829 78.8132,-96.0928 85.9009,-103.968 89.2648,-97.829"/>
</g>
<!-- Node4 -->
<g id="node4" class="node"><title>Node4</title>
<g id="a_node4"><a xlink:href="classrapidxml_1_1memory__pool.html#a3de2a66c983336e006ea3844e244ed30" target="_top" xlink:title="rapidxml::memory_pool\l::allocate_attribute">
<polygon fill="none" stroke="black" points="138,-88 138,-118 256,-118 256,-88 138,-88"/>
<text text-anchor="start" x="146" y="-106" font-family="Helvetica,sans-Serif" font-size="10.00">rapidxml::memory_pool</text>
<text text-anchor="middle" x="197" y="-95" font-family="Helvetica,sans-Serif" font-size="10.00">::allocate_attribute</text>
</a>
</g>
</g>
<!-- Node1&#45;&gt;Node4 -->
<g id="edge3" class="edge"><title>Node1&#45;&gt;Node4</title>
<path fill="none" stroke="midnightblue" d="M111.619,-90.1084C120.314,-91.4369 129.258,-92.8033 137.923,-94.1271"/>
<polygon fill="midnightblue" stroke="midnightblue" points="111.971,-86.6216 101.557,-88.5712 110.913,-93.5413 111.971,-86.6216"/>
</g>
<!-- Node3 -->
<g id="node3" class="node"><title>Node3</title>
<g id="a_node3"><a xlink:href="classrapidxml_1_1memory__pool.html#a0a10679fc17597d339a0dc107f8a94ac" target="_top" xlink:title="rapidxml::memory_pool\l::clone_node">
<polygon fill="none" stroke="black" points="292,-88 292,-118 410,-118 410,-88 292,-88"/>
<text text-anchor="start" x="300" y="-106" font-family="Helvetica,sans-Serif" font-size="10.00">rapidxml::memory_pool</text>
<text text-anchor="middle" x="351" y="-95" font-family="Helvetica,sans-Serif" font-size="10.00">::clone_node</text>
</a>
</g>
</g>
<!-- Node1&#45;&gt;Node3 -->
<g id="edge5" class="edge"><title>Node1&#45;&gt;Node3</title>
<path fill="none" stroke="midnightblue" d="M111.73,-76.2016C152.528,-73.9543 207.729,-72.935 256,-79 270.706,-80.8477 286.409,-84.2611 300.686,-87.9454"/>
<polygon fill="midnightblue" stroke="midnightblue" points="111.457,-72.7116 101.681,-76.7959 111.87,-79.6994 111.457,-72.7116"/>
</g>
<!-- Node5 -->
<g id="node5" class="node"><title>Node5</title>
<g id="a_node5"><a xlink:href="classrapidxml_1_1xml__base.html#a3b183c2db7022a6d30494dd2f0ac11e9" target="_top" xlink:title="rapidxml::xml_base\l::value">
<polygon fill="none" stroke="black" points="146.5,-0 146.5,-30 247.5,-30 247.5,-0 146.5,-0"/>
<text text-anchor="start" x="154.5" y="-18" font-family="Helvetica,sans-Serif" font-size="10.00">rapidxml::xml_base</text>
<text text-anchor="middle" x="197" y="-7" font-family="Helvetica,sans-Serif" font-size="10.00">::value</text>
</a>
</g>
</g>
<!-- Node1&#45;&gt;Node5 -->
<g id="edge6" class="edge"><title>Node1&#45;&gt;Node5</title>
<path fill="none" stroke="midnightblue" d="M94.1554,-61.6788C116.15,-51.598 142.659,-39.4481 163.117,-30.0713"/>
<polygon fill="midnightblue" stroke="midnightblue" points="92.6689,-58.5099 85.0365,-65.8583 95.5855,-64.8734 92.6689,-58.5099"/>
</g>
<!-- Node2&#45;&gt;Node3 -->
<g id="edge2" class="edge"><title>Node2&#45;&gt;Node3</title>
<path fill="none" stroke="midnightblue" d="M254.64,-133.741C270.672,-128.573 287.936,-123.008 303.309,-118.052"/>
<polygon fill="midnightblue" stroke="midnightblue" points="253.289,-130.499 244.845,-136.899 255.437,-137.161 253.289,-130.499"/>
</g>
<!-- Node4&#45;&gt;Node3 -->
<g id="edge4" class="edge"><title>Node4&#45;&gt;Node3</title>
<path fill="none" stroke="midnightblue" d="M266.542,-103C274.986,-103 283.554,-103 291.824,-103"/>
<polygon fill="midnightblue" stroke="midnightblue" points="266.332,-99.5001 256.332,-103 266.332,-106.5 266.332,-99.5001"/>
</g>
</g>
</svg>
