<?xml version="1.0" encoding="UTF-8" standalone="no"?>
<!DOCTYPE svg PUBLIC "-//W3C//DTD SVG 1.1//EN"
 "http://www.w3.org/Graphics/SVG/1.1/DTD/svg11.dtd">
<!-- Generated by graphviz version 2.30.1 (20140110.0959)
 -->
<!-- Title: yeti::TensorController Pages: 1 -->
<svg width="301pt" height="154pt"
 viewBox="0.00 0.00 301.00 154.00" xmlns="http://www.w3.org/2000/svg" xmlns:xlink="http://www.w3.org/1999/xlink">
<g id="graph0" class="graph" transform="scale(1 1) rotate(0) translate(4 150)">
<title>yeti::TensorController</title>
<!-- Node1 -->
<g id="node1" class="node"><title>Node1</title>
<polygon fill="#bfbfbf" stroke="black" points="39,-0.5 39,-19.5 149,-19.5 149,-0.5 39,-0.5"/>
<text text-anchor="middle" x="94" y="-7.5" font-family="Helvetica,sans-Serif" font-size="10.00">yeti::TensorController</text>
</g>
<!-- Node2 -->
<g id="node2" class="node"><title>Node2</title>
<g id="a_node2"><a xlink:href="classsmartptr_1_1Countable.html" target="_top" xlink:title="smartptr::Countable">
<polygon fill="none" stroke="black" points="-0.5,-58.5 -0.5,-77.5 102.5,-77.5 102.5,-58.5 -0.5,-58.5"/>
<text text-anchor="middle" x="51" y="-65.5" font-family="Helvetica,sans-Serif" font-size="10.00">smartptr::Countable</text>
</a>
</g>
</g>
<!-- Node2&#45;&gt;Node1 -->
<g id="edge1" class="edge"><title>Node2&#45;&gt;Node1</title>
<path fill="none" stroke="midnightblue" d="M63.9543,-50.1293C71.7152,-40.022 81.2506,-27.6038 87.4692,-19.5052"/>
<polygon fill="midnightblue" stroke="midnightblue" points="61.033,-48.1869 57.7188,-58.25 66.5851,-52.4501 61.033,-48.1869"/>
</g>
<!-- Node3 -->
<g id="node3" class="node"><title>Node3</title>
<g id="a_node3"><a xlink:href="classyeti_1_1Malloc.html" target="_top" xlink:title="yeti::Malloc\&lt; TensorController \&gt;">
<polygon fill="none" stroke="black" points="120.5,-58.5 120.5,-77.5 277.5,-77.5 277.5,-58.5 120.5,-58.5"/>
<text text-anchor="middle" x="199" y="-65.5" font-family="Helvetica,sans-Serif" font-size="10.00">yeti::Malloc&lt; TensorController &gt;</text>
</a>
</g>
</g>
<!-- Node3&#45;&gt;Node1 -->
<g id="edge2" class="edge"><title>Node3&#45;&gt;Node1</title>
<path fill="none" stroke="midnightblue" d="M173.991,-53.662C154.188,-43.1005 127.117,-28.6622 110.097,-19.5852"/>
<polygon fill="midnightblue" stroke="midnightblue" points="172.582,-56.8771 183.053,-58.4948 175.876,-50.7006 172.582,-56.8771"/>
</g>
<!-- Node4 -->
<g id="node4" class="node"><title>Node4</title>
<g id="a_node4"><a xlink:href="classyeti_1_1Malloc.html" target="_top" xlink:title="yeti::Malloc\&lt; T \&gt;">
<polygon fill="none" stroke="black" points="153.5,-126.5 153.5,-145.5 244.5,-145.5 244.5,-126.5 153.5,-126.5"/>
<text text-anchor="middle" x="199" y="-133.5" font-family="Helvetica,sans-Serif" font-size="10.00">yeti::Malloc&lt; T &gt;</text>
</a>
</g>
</g>
<!-- Node4&#45;&gt;Node3 -->
<g id="edge3" class="edge"><title>Node4&#45;&gt;Node3</title>
<path fill="none" stroke="orange" stroke-dasharray="5,2" d="M199,-116.041C199,-103.472 199,-87.5631 199,-77.8411"/>
<polygon fill="orange" stroke="orange" points="195.5,-116.372 199,-126.372 202.5,-116.372 195.5,-116.372"/>
<text text-anchor="middle" x="246" y="-99.5" font-family="Helvetica,sans-Serif" font-size="10.00"> &lt; TensorController &gt;</text>
</g>
</g>
</svg>
