<?xml version="1.0" encoding="UTF-8" standalone="no"?>
<!DOCTYPE svg PUBLIC "-//W3C//DTD SVG 1.1//EN"
 "http://www.w3.org/Graphics/SVG/1.1/DTD/svg11.dtd">
<!-- Generated by graphviz version 2.30.1 (20140110.0959)
 -->
<!-- Title: psi::DPD::buf4_scm Pages: 1 -->
<svg width="464pt" height="203pt"
 viewBox="0.00 0.00 464.00 203.00" xmlns="http://www.w3.org/2000/svg" xmlns:xlink="http://www.w3.org/1999/xlink">
<g id="graph0" class="graph" transform="scale(1 1) rotate(0) translate(4 199)">
<title>psi::DPD::buf4_scm</title>
<!-- Node1 -->
<g id="node1" class="node"><title>Node1</title>
<polygon fill="#bfbfbf" stroke="black" points="0,-93.5 0,-112.5 106,-112.5 106,-93.5 0,-93.5"/>
<text text-anchor="middle" x="53" y="-100.5" font-family="Helvetica,sans-Serif" font-size="10.00">psi::DPD::buf4_scm</text>
</g>
<!-- Node2 -->
<g id="node2" class="node"><title>Node2</title>
<g id="a_node2"><a xlink:href="classpsi_1_1DPD.html#ae67a48970dde86a32b782799c0d95ab5" target="_top" xlink:title="psi::DPD::contract244">
<polygon fill="none" stroke="black" points="159,-175.5 159,-194.5 273,-194.5 273,-175.5 159,-175.5"/>
<text text-anchor="middle" x="216" y="-182.5" font-family="Helvetica,sans-Serif" font-size="10.00">psi::DPD::contract244</text>
</a>
</g>
</g>
<!-- Node1&#45;&gt;Node2 -->
<g id="edge1" class="edge"><title>Node1&#45;&gt;Node2</title>
<path fill="none" stroke="midnightblue" d="M72.5364,-119.39C89.5207,-133.612 115.918,-153.786 142,-166 150.065,-169.777 158.996,-172.888 167.764,-175.42"/>
<polygon fill="midnightblue" stroke="midnightblue" points="74.4379,-116.41 64.5642,-112.568 69.8869,-121.729 74.4379,-116.41"/>
</g>
<!-- Node4 -->
<g id="node4" class="node"><title>Node4</title>
<g id="a_node4"><a xlink:href="classpsi_1_1DPD.html#a08f6231b10aeee8da6013dcb111fb428" target="_top" xlink:title="psi::DPD::contract424">
<polygon fill="none" stroke="black" points="159,-137.5 159,-156.5 273,-156.5 273,-137.5 159,-137.5"/>
<text text-anchor="middle" x="216" y="-144.5" font-family="Helvetica,sans-Serif" font-size="10.00">psi::DPD::contract424</text>
</a>
</g>
</g>
<!-- Node1&#45;&gt;Node4 -->
<g id="edge3" class="edge"><title>Node1&#45;&gt;Node4</title>
<path fill="none" stroke="midnightblue" d="M98.816,-115.248C124.52,-122.272 156.308,-130.96 180.134,-137.471"/>
<polygon fill="midnightblue" stroke="midnightblue" points="99.5036,-111.807 88.9346,-112.547 97.6581,-118.56 99.5036,-111.807"/>
</g>
<!-- Node5 -->
<g id="node5" class="node"><title>Node5</title>
<g id="a_node5"><a xlink:href="classpsi_1_1dcft_1_1DCFTSolver.html#aa7f484633a16d0dc7d2195322f4cfa1a" target="_top" xlink:title="psi::dcft::DCFTSolver\l::process_so_ints">
<polygon fill="none" stroke="black" points="159.5,-88 159.5,-118 272.5,-118 272.5,-88 159.5,-88"/>
<text text-anchor="start" x="167.5" y="-106" font-family="Helvetica,sans-Serif" font-size="10.00">psi::dcft::DCFTSolver</text>
<text text-anchor="middle" x="216" y="-95" font-family="Helvetica,sans-Serif" font-size="10.00">::process_so_ints</text>
</a>
</g>
</g>
<!-- Node1&#45;&gt;Node5 -->
<g id="edge5" class="edge"><title>Node1&#45;&gt;Node5</title>
<path fill="none" stroke="midnightblue" d="M116.418,-103C130.579,-103 145.528,-103 159.386,-103"/>
<polygon fill="midnightblue" stroke="midnightblue" points="116.272,-99.5001 106.272,-103 116.272,-106.5 116.272,-99.5001"/>
</g>
<!-- Node6 -->
<g id="node6" class="node"><title>Node6</title>
<g id="a_node6"><a xlink:href="classpsi_1_1dcft_1_1DCFTSolver.html#a5a8d5ae3f991abad2e6b2904debc3e4f" target="_top" xlink:title="psi::dcft::DCFTSolver\l::build_AO_tensors">
<polygon fill="none" stroke="black" points="159.5,-39 159.5,-69 272.5,-69 272.5,-39 159.5,-39"/>
<text text-anchor="start" x="167.5" y="-57" font-family="Helvetica,sans-Serif" font-size="10.00">psi::dcft::DCFTSolver</text>
<text text-anchor="middle" x="216" y="-46" font-family="Helvetica,sans-Serif" font-size="10.00">::build_AO_tensors</text>
</a>
</g>
</g>
<!-- Node1&#45;&gt;Node6 -->
<g id="edge6" class="edge"><title>Node1&#45;&gt;Node6</title>
<path fill="none" stroke="midnightblue" d="M95.2114,-90.4574C116.665,-83.9281 143.051,-75.8976 165.593,-69.037"/>
<polygon fill="midnightblue" stroke="midnightblue" points="93.9723,-87.1759 85.4246,-93.436 96.0105,-93.8727 93.9723,-87.1759"/>
</g>
<!-- Node7 -->
<g id="node7" class="node"><title>Node7</title>
<g id="a_node7"><a xlink:href="classpsi_1_1DIISManager.html#ad3e194725156df78c8daa37c5727f8e7" target="_top" xlink:title="psi::DIISManager::extrapolate">
<polygon fill="none" stroke="black" points="142.5,-0.5 142.5,-19.5 289.5,-19.5 289.5,-0.5 142.5,-0.5"/>
<text text-anchor="middle" x="216" y="-7.5" font-family="Helvetica,sans-Serif" font-size="10.00">psi::DIISManager::extrapolate</text>
</a>
</g>
</g>
<!-- Node1&#45;&gt;Node7 -->
<g id="edge7" class="edge"><title>Node1&#45;&gt;Node7</title>
<path fill="none" stroke="midnightblue" d="M70.0072,-86.0406C86.5494,-69.4658 113.856,-44.6507 142,-30 150.159,-25.7527 159.314,-22.3328 168.311,-19.6054"/>
<polygon fill="midnightblue" stroke="midnightblue" points="67.2719,-83.8323 62.7946,-93.4346 72.2828,-88.7202 67.2719,-83.8323"/>
</g>
<!-- Node3 -->
<g id="node3" class="node"><title>Node3</title>
<g id="a_node3"><a xlink:href="classpsi_1_1lmp2_1_1Lmp2.html#ab021a8d9fd86ee74993e9af9c05e84f7" target="_top" xlink:title="Compute energy. Subclasses override this function to compute its energy.">
<polygon fill="none" stroke="black" points="326,-151 326,-181 456,-181 456,-151 326,-151"/>
<text text-anchor="start" x="334" y="-169" font-family="Helvetica,sans-Serif" font-size="10.00">psi::lmp2::Lmp2::compute</text>
<text text-anchor="middle" x="391" y="-158" font-family="Helvetica,sans-Serif" font-size="10.00">_energy</text>
</a>
</g>
</g>
<!-- Node2&#45;&gt;Node3 -->
<g id="edge2" class="edge"><title>Node2&#45;&gt;Node3</title>
<path fill="none" stroke="midnightblue" d="M283.173,-177.732C297.125,-176.2 311.825,-174.586 325.706,-173.061"/>
<polygon fill="midnightblue" stroke="midnightblue" points="282.726,-174.26 273.168,-178.831 283.491,-181.219 282.726,-174.26"/>
</g>
<!-- Node4&#45;&gt;Node3 -->
<g id="edge4" class="edge"><title>Node4&#45;&gt;Node3</title>
<path fill="none" stroke="midnightblue" d="M283.173,-154.268C297.125,-155.8 311.825,-157.414 325.706,-158.939"/>
<polygon fill="midnightblue" stroke="midnightblue" points="283.491,-150.781 273.168,-153.169 282.726,-157.74 283.491,-150.781"/>
</g>
</g>
</svg>
