<?xml version="1.0" encoding="UTF-8" standalone="no"?>
<!DOCTYPE svg PUBLIC "-//W3C//DTD SVG 1.1//EN"
 "http://www.w3.org/Graphics/SVG/1.1/DTD/svg11.dtd">
<!-- Generated by graphviz version 2.30.1 (20140110.0959)
 -->
<!-- Title: psi::Wavefunction::Cb_subset Pages: 1 -->
<svg width="402pt" height="191pt"
 viewBox="0.00 0.00 402.00 191.00" xmlns="http://www.w3.org/2000/svg" xmlns:xlink="http://www.w3.org/1999/xlink">
<g id="graph0" class="graph" transform="scale(1 1) rotate(0) translate(4 187)">
<title>psi::Wavefunction::Cb_subset</title>
<!-- Node1 -->
<g id="node1" class="node"><title>Node1</title>
<polygon fill="#bfbfbf" stroke="black" points="0.5,-71 0.5,-101 101.5,-101 101.5,-71 0.5,-71"/>
<text text-anchor="start" x="8.5" y="-89" font-family="Helvetica,sans-Serif" font-size="10.00">psi::Wavefunction::</text>
<text text-anchor="middle" x="51" y="-78" font-family="Helvetica,sans-Serif" font-size="10.00">Cb_subset</text>
</g>
<!-- Node2 -->
<g id="node2" class="node"><title>Node2</title>
<g id="a_node2"><a xlink:href="classpsi_1_1Wavefunction.html#a8873c353c6bf267edce3d32893e20693" target="_top" xlink:title="Helpers for C/D/epsilon transformers.">
<polygon fill="none" stroke="black" points="138.5,-71 138.5,-101 239.5,-101 239.5,-71 138.5,-71"/>
<text text-anchor="start" x="146.5" y="-89" font-family="Helvetica,sans-Serif" font-size="10.00">psi::Wavefunction::</text>
<text text-anchor="middle" x="189" y="-78" font-family="Helvetica,sans-Serif" font-size="10.00">C_subset_helper</text>
</a>
</g>
</g>
<!-- Node1&#45;&gt;Node2 -->
<g id="edge1" class="edge"><title>Node1&#45;&gt;Node2</title>
<path fill="none" stroke="midnightblue" d="M101.869,-86C110.369,-86 119.277,-86 128.006,-86"/>
<polygon fill="midnightblue" stroke="midnightblue" points="128.137,-89.5001 138.137,-86 128.137,-82.5001 128.137,-89.5001"/>
</g>
<!-- Node3 -->
<g id="node3" class="node"><title>Node3</title>
<g id="a_node3"><a xlink:href="classpsi_1_1Wavefunction.html#a5505a5bf2653cd24ccfd7e513186263f" target="_top" xlink:title="Returns the number of MOs per irrep array.">
<polygon fill="none" stroke="black" points="284.5,-153 284.5,-183 385.5,-183 385.5,-153 284.5,-153"/>
<text text-anchor="start" x="292.5" y="-171" font-family="Helvetica,sans-Serif" font-size="10.00">psi::Wavefunction::</text>
<text text-anchor="middle" x="335" y="-160" font-family="Helvetica,sans-Serif" font-size="10.00">nmopi</text>
</a>
</g>
</g>
<!-- Node2&#45;&gt;Node3 -->
<g id="edge2" class="edge"><title>Node2&#45;&gt;Node3</title>
<path fill="none" stroke="midnightblue" d="M210.556,-101.137C227.585,-113.301 252.686,-130.38 276,-143 279.533,-144.913 283.243,-146.79 287.007,-148.603"/>
<polygon fill="midnightblue" stroke="midnightblue" points="285.859,-151.928 296.403,-152.96 288.804,-145.578 285.859,-151.928"/>
</g>
<!-- Node4 -->
<g id="node4" class="node"><title>Node4</title>
<g id="a_node4"><a xlink:href="group__QT.html#gada1f89a2db3689c3e7482ea755b49b27" target="_top" xlink:title="psi::C_DCOPY">
<polygon fill="none" stroke="black" points="293,-114.5 293,-133.5 377,-133.5 377,-114.5 293,-114.5"/>
<text text-anchor="middle" x="335" y="-121.5" font-family="Helvetica,sans-Serif" font-size="10.00">psi::C_DCOPY</text>
</a>
</g>
</g>
<!-- Node2&#45;&gt;Node4 -->
<g id="edge3" class="edge"><title>Node2&#45;&gt;Node4</title>
<path fill="none" stroke="midnightblue" d="M239.557,-99.0774C255.307,-103.234 272.648,-107.81 288.127,-111.895"/>
<polygon fill="midnightblue" stroke="midnightblue" points="287.432,-115.331 297.994,-114.498 289.218,-108.563 287.432,-115.331"/>
</g>
<!-- Node5 -->
<g id="node5" class="node"><title>Node5</title>
<g id="a_node5"><a xlink:href="classpsi_1_1Dimension.html#a7a394bae09b5900f3ee912e6539abca2" target="_top" xlink:title="Return the sum of constituent dimensions.">
<polygon fill="none" stroke="black" points="281.5,-76.5 281.5,-95.5 388.5,-95.5 388.5,-76.5 281.5,-76.5"/>
<text text-anchor="middle" x="335" y="-83.5" font-family="Helvetica,sans-Serif" font-size="10.00">psi::Dimension::sum</text>
</a>
</g>
</g>
<!-- Node2&#45;&gt;Node5 -->
<g id="edge4" class="edge"><title>Node2&#45;&gt;Node5</title>
<path fill="none" stroke="midnightblue" d="M239.557,-86C249.791,-86 260.697,-86 271.328,-86"/>
<polygon fill="midnightblue" stroke="midnightblue" points="271.405,-89.5001 281.405,-86 271.405,-82.5001 271.405,-89.5001"/>
</g>
<!-- Node6 -->
<g id="node6" class="node"><title>Node6</title>
<g id="a_node6"><a xlink:href="classpsi_1_1Wavefunction.html#a9237a2d05bf9d163040e3b380f066379" target="_top" xlink:title="Returns the number of SOs.">
<polygon fill="none" stroke="black" points="276.5,-38.5 276.5,-57.5 393.5,-57.5 393.5,-38.5 276.5,-38.5"/>
<text text-anchor="middle" x="335" y="-45.5" font-family="Helvetica,sans-Serif" font-size="10.00">psi::Wavefunction::nso</text>
</a>
</g>
</g>
<!-- Node2&#45;&gt;Node6 -->
<g id="edge5" class="edge"><title>Node2&#45;&gt;Node6</title>
<path fill="none" stroke="midnightblue" d="M239.557,-72.9226C255.307,-68.7663 272.648,-64.19 288.127,-60.1054"/>
<polygon fill="midnightblue" stroke="midnightblue" points="289.218,-63.4375 297.994,-57.5017 287.432,-56.6692 289.218,-63.4375"/>
</g>
<!-- Node7 -->
<g id="node7" class="node"><title>Node7</title>
<g id="a_node7"><a xlink:href="namespacepsi.html#a8f839afc1a7e4950dbaa3521e5eae60f" target="_top" xlink:title="psi::C_DGEMV">
<polygon fill="none" stroke="black" points="292.5,-0.5 292.5,-19.5 377.5,-19.5 377.5,-0.5 292.5,-0.5"/>
<text text-anchor="middle" x="335" y="-7.5" font-family="Helvetica,sans-Serif" font-size="10.00">psi::C_DGEMV</text>
</a>
</g>
</g>
<!-- Node2&#45;&gt;Node7 -->
<g id="edge6" class="edge"><title>Node2&#45;&gt;Node7</title>
<path fill="none" stroke="midnightblue" d="M209.585,-70.7981C226.448,-58.2664 251.817,-40.7096 276,-29 280.417,-26.8614 285.134,-24.8747 289.898,-23.055"/>
<polygon fill="midnightblue" stroke="midnightblue" points="291.426,-26.2253 299.661,-19.5591 289.066,-19.635 291.426,-26.2253"/>
</g>
</g>
</svg>
