<?xml version="1.0" encoding="UTF-8" standalone="no"?>
<!DOCTYPE svg PUBLIC "-//W3C//DTD SVG 1.1//EN"
 "http://www.w3.org/Graphics/SVG/1.1/DTD/svg11.dtd">
<!-- Generated by graphviz version 2.30.1 (20140110.0959)
 -->
<!-- Title: psi::LimitExceeded&lt; T &gt; Pages: 1 -->
<svg width="768pt" height="104pt"
 viewBox="0.00 0.00 768.00 104.00" xmlns="http://www.w3.org/2000/svg" xmlns:xlink="http://www.w3.org/1999/xlink">
<g id="graph0" class="graph" transform="scale(1 1) rotate(0) translate(4 100)">
<title>psi::LimitExceeded&lt; T &gt;</title>
<!-- Node1 -->
<g id="node1" class="node"><title>Node1</title>
<polygon fill="#bfbfbf" stroke="black" points="260,-38.5 260,-57.5 384,-57.5 384,-38.5 260,-38.5"/>
<text text-anchor="middle" x="322" y="-45.5" font-family="Helvetica,sans-Serif" font-size="10.00">psi::LimitExceeded&lt; T &gt;</text>
</g>
<!-- Node4 -->
<g id="node4" class="node"><title>Node4</title>
<g id="a_node4"><a xlink:href="classpsi_1_1MaxIterationsExceeded.html" target="_top" xlink:title="psi::MaxIterationsExceeded\&lt; T \&gt;">
<polygon fill="none" stroke="black" points="422,-76.5 422,-95.5 584,-95.5 584,-76.5 422,-76.5"/>
<text text-anchor="middle" x="503" y="-83.5" font-family="Helvetica,sans-Serif" font-size="10.00">psi::MaxIterationsExceeded&lt; T &gt;</text>
</a>
</g>
</g>
<!-- Node1&#45;&gt;Node4 -->
<g id="edge3" class="edge"><title>Node1&#45;&gt;Node4</title>
<path fill="none" stroke="midnightblue" d="M378.024,-59.681C403.408,-65.0699 433.161,-71.3861 457.156,-76.4799"/>
<polygon fill="midnightblue" stroke="midnightblue" points="378.678,-56.242 368.169,-57.589 377.224,-63.0894 378.678,-56.242"/>
</g>
<!-- Node6 -->
<g id="node6" class="node"><title>Node6</title>
<g id="a_node6"><a xlink:href="classpsi_1_1ResourceAllocationError.html" target="_top" xlink:title="psi::ResourceAllocationError\&lt; T \&gt;">
<polygon fill="none" stroke="black" points="420.5,-38.5 420.5,-57.5 585.5,-57.5 585.5,-38.5 420.5,-38.5"/>
<text text-anchor="middle" x="503" y="-45.5" font-family="Helvetica,sans-Serif" font-size="10.00">psi::ResourceAllocationError&lt; T &gt;</text>
</a>
</g>
</g>
<!-- Node1&#45;&gt;Node6 -->
<g id="edge5" class="edge"><title>Node1&#45;&gt;Node6</title>
<path fill="none" stroke="midnightblue" d="M394.359,-48C402.879,-48 411.629,-48 420.281,-48"/>
<polygon fill="midnightblue" stroke="midnightblue" points="394.101,-44.5001 384.101,-48 394.101,-51.5001 394.101,-44.5001"/>
</g>
<!-- Node7 -->
<g id="node7" class="node"><title>Node7</title>
<g id="a_node7"><a xlink:href="classpsi_1_1StepSizeError.html" target="_top" xlink:title="psi::StepSizeError\&lt; T \&gt;">
<polygon fill="none" stroke="black" points="443,-0.5 443,-19.5 563,-19.5 563,-0.5 443,-0.5"/>
<text text-anchor="middle" x="503" y="-7.5" font-family="Helvetica,sans-Serif" font-size="10.00">psi::StepSizeError&lt; T &gt;</text>
</a>
</g>
</g>
<!-- Node1&#45;&gt;Node7 -->
<g id="edge6" class="edge"><title>Node1&#45;&gt;Node7</title>
<path fill="none" stroke="midnightblue" d="M378.024,-36.319C403.408,-30.9301 433.161,-24.6139 457.156,-19.5201"/>
<polygon fill="midnightblue" stroke="midnightblue" points="377.224,-32.9106 368.169,-38.411 378.678,-39.758 377.224,-32.9106"/>
</g>
<!-- Node2 -->
<g id="node2" class="node"><title>Node2</title>
<g id="a_node2"><a xlink:href="classpsi_1_1PsiException.html" target="_top" xlink:title="psi::PsiException">
<polygon fill="none" stroke="black" points="130.5,-38.5 130.5,-57.5 223.5,-57.5 223.5,-38.5 130.5,-38.5"/>
<text text-anchor="middle" x="177" y="-45.5" font-family="Helvetica,sans-Serif" font-size="10.00">psi::PsiException</text>
</a>
</g>
</g>
<!-- Node2&#45;&gt;Node1 -->
<g id="edge1" class="edge"><title>Node2&#45;&gt;Node1</title>
<path fill="none" stroke="midnightblue" d="M233.858,-48C242.392,-48 251.238,-48 259.878,-48"/>
<polygon fill="midnightblue" stroke="midnightblue" points="233.639,-44.5001 223.639,-48 233.639,-51.5001 233.639,-44.5001"/>
</g>
<!-- Node3 -->
<g id="node3" class="node"><title>Node3</title>
<polygon fill="none" stroke="#bfbfbf" points="0.5,-38.5 0.5,-57.5 93.5,-57.5 93.5,-38.5 0.5,-38.5"/>
<text text-anchor="middle" x="47" y="-45.5" font-family="Helvetica,sans-Serif" font-size="10.00">std::runtime_error</text>
</g>
<!-- Node3&#45;&gt;Node2 -->
<g id="edge2" class="edge"><title>Node3&#45;&gt;Node2</title>
<path fill="none" stroke="midnightblue" d="M104.073,-48C112.896,-48 121.924,-48 130.471,-48"/>
<polygon fill="midnightblue" stroke="midnightblue" points="103.849,-44.5001 93.8494,-48 103.849,-51.5001 103.849,-44.5001"/>
</g>
<!-- Node5 -->
<g id="node5" class="node"><title>Node5</title>
<g id="a_node5"><a xlink:href="classpsi_1_1ConvergenceError.html" target="_top" xlink:title="psi::ConvergenceError\&lt; T \&gt;">
<polygon fill="none" stroke="black" points="622,-76.5 622,-95.5 760,-95.5 760,-76.5 622,-76.5"/>
<text text-anchor="middle" x="691" y="-83.5" font-family="Helvetica,sans-Serif" font-size="10.00">psi::ConvergenceError&lt; T &gt;</text>
</a>
</g>
</g>
<!-- Node4&#45;&gt;Node5 -->
<g id="edge4" class="edge"><title>Node4&#45;&gt;Node5</title>
<path fill="none" stroke="midnightblue" d="M594.309,-86C603.626,-86 612.979,-86 621.994,-86"/>
<polygon fill="midnightblue" stroke="midnightblue" points="594.23,-82.5001 584.23,-86 594.23,-89.5001 594.23,-82.5001"/>
</g>
</g>
</svg>
