<?xml version="1.0" encoding="UTF-8" standalone="no"?>
<!DOCTYPE svg PUBLIC "-//W3C//DTD SVG 1.1//EN"
 "http://www.w3.org/Graphics/SVG/1.1/DTD/svg11.dtd">
<!-- Generated by graphviz version 2.30.1 (20140110.0959)
 -->
<!-- Title: psi::fnocc::CoupledCluster::DefineLinearTasks Pages: 1 -->
<svg width="432pt" height="283pt"
 viewBox="0.00 0.00 432.00 283.00" xmlns="http://www.w3.org/2000/svg" xmlns:xlink="http://www.w3.org/1999/xlink">
<g id="graph0" class="graph" transform="scale(1 1) rotate(0) translate(4 279)">
<title>psi::fnocc::CoupledCluster::DefineLinearTasks</title>
<!-- Node1 -->
<g id="node1" class="node"><title>Node1</title>
<polygon fill="#bfbfbf" stroke="black" points="0.5,-122 0.5,-152 133.5,-152 133.5,-122 0.5,-122"/>
<text text-anchor="start" x="8.5" y="-140" font-family="Helvetica,sans-Serif" font-size="10.00">psi::fnocc::CoupledCluster</text>
<text text-anchor="middle" x="67" y="-129" font-family="Helvetica,sans-Serif" font-size="10.00">::DefineLinearTasks</text>
</g>
<!-- Node2 -->
<g id="node2" class="node"><title>Node2</title>
<g id="a_node2"><a xlink:href="classpsi_1_1fnocc_1_1CoupledCluster.html#a76fcb40e38ead802baead90f435aa94f" target="_top" xlink:title="linear diagrams for mp4">
<polygon fill="none" stroke="black" points="170.5,-245 170.5,-275 303.5,-275 303.5,-245 170.5,-245"/>
<text text-anchor="start" x="178.5" y="-263" font-family="Helvetica,sans-Serif" font-size="10.00">psi::fnocc::CoupledCluster</text>
<text text-anchor="middle" x="237" y="-252" font-family="Helvetica,sans-Serif" font-size="10.00">::I2iabj_linear</text>
</a>
</g>
</g>
<!-- Node1&#45;&gt;Node2 -->
<g id="edge1" class="edge"><title>Node1&#45;&gt;Node2</title>
<path fill="none" stroke="midnightblue" d="M80.347,-152.244C98.172,-173.387 133.052,-211.642 170,-235 173.136,-236.983 176.454,-238.846 179.866,-240.591"/>
<polygon fill="midnightblue" stroke="midnightblue" points="178.523,-243.827 189.061,-244.932 181.512,-237.497 178.523,-243.827"/>
</g>
<!-- Node4 -->
<g id="node4" class="node"><title>Node4</title>
<g id="a_node4"><a xlink:href="classpsi_1_1fnocc_1_1CoupledCluster.html#ab7f8d46870191c57019d6818ace0b539" target="_top" xlink:title="psi::fnocc::CoupledCluster\l::I2iajb_linear">
<polygon fill="none" stroke="black" points="170.5,-196 170.5,-226 303.5,-226 303.5,-196 170.5,-196"/>
<text text-anchor="start" x="178.5" y="-214" font-family="Helvetica,sans-Serif" font-size="10.00">psi::fnocc::CoupledCluster</text>
<text text-anchor="middle" x="237" y="-203" font-family="Helvetica,sans-Serif" font-size="10.00">::I2iajb_linear</text>
</a>
</g>
</g>
<!-- Node1&#45;&gt;Node4 -->
<g id="edge3" class="edge"><title>Node1&#45;&gt;Node4</title>
<path fill="none" stroke="midnightblue" d="M97.594,-152.046C117.79,-162.108 145.262,-175.396 170,-186 174.804,-188.059 179.839,-190.126 184.896,-192.141"/>
<polygon fill="midnightblue" stroke="midnightblue" points="184.002,-195.55 194.59,-195.937 186.554,-189.032 184.002,-195.55"/>
</g>
<!-- Node5 -->
<g id="node5" class="node"><title>Node5</title>
<g id="a_node5"><a xlink:href="classpsi_1_1fnocc_1_1CoupledCluster.html#a8daa6b99da4ba274cc0564eb791f524f" target="_top" xlink:title="psi::fnocc::CoupledCluster\l::I2ijkl_linear">
<polygon fill="none" stroke="black" points="170.5,-147 170.5,-177 303.5,-177 303.5,-147 170.5,-147"/>
<text text-anchor="start" x="178.5" y="-165" font-family="Helvetica,sans-Serif" font-size="10.00">psi::fnocc::CoupledCluster</text>
<text text-anchor="middle" x="237" y="-154" font-family="Helvetica,sans-Serif" font-size="10.00">::I2ijkl_linear</text>
</a>
</g>
</g>
<!-- Node1&#45;&gt;Node5 -->
<g id="edge4" class="edge"><title>Node1&#45;&gt;Node5</title>
<path fill="none" stroke="midnightblue" d="M133.916,-146.809C142.599,-148.101 151.552,-149.433 160.381,-150.747"/>
<polygon fill="midnightblue" stroke="midnightblue" points="159.868,-154.209 170.274,-152.219 160.898,-147.286 159.868,-154.209"/>
</g>
<!-- Node6 -->
<g id="node6" class="node"><title>Node6</title>
<g id="a_node6"><a xlink:href="classpsi_1_1fnocc_1_1CoupledCluster.html#add5d5eb347203dc450a36e71d26e6133" target="_top" xlink:title="psi::fnocc::CoupledCluster\l::I2piajk_linear">
<polygon fill="none" stroke="black" points="170.5,-98 170.5,-128 303.5,-128 303.5,-98 170.5,-98"/>
<text text-anchor="start" x="178.5" y="-116" font-family="Helvetica,sans-Serif" font-size="10.00">psi::fnocc::CoupledCluster</text>
<text text-anchor="middle" x="237" y="-105" font-family="Helvetica,sans-Serif" font-size="10.00">::I2piajk_linear</text>
</a>
</g>
</g>
<!-- Node1&#45;&gt;Node6 -->
<g id="edge6" class="edge"><title>Node1&#45;&gt;Node6</title>
<path fill="none" stroke="midnightblue" d="M133.916,-127.583C142.505,-126.356 151.359,-125.092 160.096,-123.843"/>
<polygon fill="midnightblue" stroke="midnightblue" points="160.87,-127.269 170.274,-122.389 159.88,-120.339 160.87,-127.269"/>
</g>
<!-- Node7 -->
<g id="node7" class="node"><title>Node7</title>
<g id="a_node7"><a xlink:href="classpsi_1_1fnocc_1_1CoupledCluster.html#ab3ef3dcc793d4314379ad6b69a9e4771" target="_top" xlink:title="psi::fnocc::CoupledCluster\l::Vabcd1_linear">
<polygon fill="none" stroke="black" points="170.5,-49 170.5,-79 303.5,-79 303.5,-49 170.5,-49"/>
<text text-anchor="start" x="178.5" y="-67" font-family="Helvetica,sans-Serif" font-size="10.00">psi::fnocc::CoupledCluster</text>
<text text-anchor="middle" x="237" y="-56" font-family="Helvetica,sans-Serif" font-size="10.00">::Vabcd1_linear</text>
</a>
</g>
</g>
<!-- Node1&#45;&gt;Node7 -->
<g id="edge7" class="edge"><title>Node1&#45;&gt;Node7</title>
<path fill="none" stroke="midnightblue" d="M98.5174,-121.878C118.64,-112.097 145.675,-99.3123 170,-89 174.812,-86.96 179.853,-84.9058 184.913,-82.8986"/>
<polygon fill="midnightblue" stroke="midnightblue" points="186.568,-86.0096 194.611,-79.113 184.023,-79.4888 186.568,-86.0096"/>
</g>
<!-- Node8 -->
<g id="node8" class="node"><title>Node8</title>
<g id="a_node8"><a xlink:href="classpsi_1_1fnocc_1_1CoupledCluster.html#a8bfed9e521b6cd6ec45dacbcf8949466" target="_top" xlink:title="psi::fnocc::CoupledCluster\l::Vabcd2_linear">
<polygon fill="none" stroke="black" points="170.5,-0 170.5,-30 303.5,-30 303.5,-0 170.5,-0"/>
<text text-anchor="start" x="178.5" y="-18" font-family="Helvetica,sans-Serif" font-size="10.00">psi::fnocc::CoupledCluster</text>
<text text-anchor="middle" x="237" y="-7" font-family="Helvetica,sans-Serif" font-size="10.00">::Vabcd2_linear</text>
</a>
</g>
</g>
<!-- Node1&#45;&gt;Node8 -->
<g id="edge9" class="edge"><title>Node1&#45;&gt;Node8</title>
<path fill="none" stroke="midnightblue" d="M80.3807,-121.92C98.2458,-101.002 133.173,-63.1493 170,-40 173.141,-38.0254 176.463,-36.1682 179.878,-34.4282"/>
<polygon fill="midnightblue" stroke="midnightblue" points="181.522,-37.5228 189.078,-30.0959 178.54,-31.1898 181.522,-37.5228"/>
</g>
<!-- Node3 -->
<g id="node3" class="node"><title>Node3</title>
<g id="a_node3"><a xlink:href="group__QT.html#gada1f89a2db3689c3e7482ea755b49b27" target="_top" xlink:title="psi::C_DCOPY">
<polygon fill="none" stroke="black" points="340,-103.5 340,-122.5 424,-122.5 424,-103.5 340,-103.5"/>
<text text-anchor="middle" x="382" y="-110.5" font-family="Helvetica,sans-Serif" font-size="10.00">psi::C_DCOPY</text>
</a>
</g>
</g>
<!-- Node2&#45;&gt;Node3 -->
<g id="edge2" class="edge"><title>Node2&#45;&gt;Node3</title>
<path fill="none" stroke="midnightblue" d="M288.551,-244.847C294.062,-242.058 299.35,-238.798 304,-235 338.591,-206.744 362.354,-158.654 373.589,-132.074"/>
<polygon fill="midnightblue" stroke="midnightblue" points="376.867,-133.304 377.397,-122.723 370.384,-130.664 376.867,-133.304"/>
</g>
<!-- Node5&#45;&gt;Node3 -->
<g id="edge5" class="edge"><title>Node5&#45;&gt;Node3</title>
<path fill="none" stroke="midnightblue" d="M282.072,-146.899C301.688,-140.177 324.551,-132.343 343.354,-125.9"/>
<polygon fill="midnightblue" stroke="midnightblue" points="344.73,-129.128 353.055,-122.575 342.461,-122.506 344.73,-129.128"/>
</g>
<!-- Node7&#45;&gt;Node3 -->
<g id="edge8" class="edge"><title>Node7&#45;&gt;Node3</title>
<path fill="none" stroke="midnightblue" d="M282.072,-79.1014C301.688,-85.8232 324.551,-93.6574 343.354,-100.1"/>
<polygon fill="midnightblue" stroke="midnightblue" points="342.461,-103.494 353.055,-103.425 344.73,-96.872 342.461,-103.494"/>
</g>
<!-- Node8&#45;&gt;Node3 -->
<g id="edge10" class="edge"><title>Node8&#45;&gt;Node3</title>
<path fill="none" stroke="midnightblue" d="M284.917,-30.1041C291.531,-32.9891 298.084,-36.2877 304,-40 328.448,-55.3418 351.814,-79.2505 366.264,-95.4918"/>
<polygon fill="midnightblue" stroke="midnightblue" points="363.764,-97.9502 372.967,-103.2 369.046,-93.3572 363.764,-97.9502"/>
</g>
</g>
</svg>
