<?xml version="1.0" encoding="UTF-8" standalone="no"?>
<!DOCTYPE svg PUBLIC "-//W3C//DTD SVG 1.1//EN"
 "http://www.w3.org/Graphics/SVG/1.1/DTD/svg11.dtd">
<!-- Generated by graphviz version 2.30.1 (20140110.0959)
 -->
<!-- Title: psi::dftsapt::ASAPT Pages: 1 -->
<svg width="698pt" height="422pt"
 viewBox="0.00 0.00 698.00 422.00" xmlns="http://www.w3.org/2000/svg" xmlns:xlink="http://www.w3.org/1999/xlink">
<g id="graph0" class="graph" transform="scale(1 1) rotate(0) translate(4 418)">
<title>psi::dftsapt::ASAPT</title>
<!-- Node1 -->
<g id="node1" class="node"><title>Node1</title>
<polygon fill="#bfbfbf" stroke="black" points="586,-178.5 586,-197.5 690,-197.5 690,-178.5 586,-178.5"/>
<text text-anchor="middle" x="638" y="-185.5" font-family="Helvetica,sans-Serif" font-size="10.00">psi::dftsapt::ASAPT</text>
</g>
<!-- Node2 -->
<g id="node2" class="node"><title>Node2</title>
<g id="a_node2"><a xlink:href="classpsi_1_1dftsapt_1_1DFTSAPT.html" target="_top" xlink:title="psi::dftsapt::DFTSAPT">
<polygon fill="none" stroke="black" points="430.5,-178.5 430.5,-197.5 547.5,-197.5 547.5,-178.5 430.5,-178.5"/>
<text text-anchor="middle" x="489" y="-185.5" font-family="Helvetica,sans-Serif" font-size="10.00">psi::dftsapt::DFTSAPT</text>
</a>
</g>
</g>
<!-- Node2&#45;&gt;Node1 -->
<g id="edge1" class="edge"><title>Node2&#45;&gt;Node1</title>
<path fill="none" stroke="midnightblue" d="M557.783,-188C567.169,-188 576.68,-188 585.699,-188"/>
<polygon fill="midnightblue" stroke="midnightblue" points="557.676,-184.5 547.676,-188 557.676,-191.5 557.676,-184.5"/>
</g>
<!-- Node3 -->
<g id="node3" class="node"><title>Node3</title>
<g id="a_node3"><a xlink:href="classboost_1_1shared__ptr.html" target="_top" xlink:title="boost::shared_ptr\&lt;\l psi::BasisSet \&gt;">
<polygon fill="none" stroke="black" points="232,-325 232,-355 330,-355 330,-325 232,-325"/>
<text text-anchor="start" x="240" y="-343" font-family="Helvetica,sans-Serif" font-size="10.00">boost::shared_ptr&lt;</text>
<text text-anchor="middle" x="281" y="-332" font-family="Helvetica,sans-Serif" font-size="10.00"> psi::BasisSet &gt;</text>
</a>
</g>
</g>
<!-- Node3&#45;&gt;Node2 -->
<g id="edge2" class="edge"><title>Node3&#45;&gt;Node2</title>
<path fill="none" stroke="#9a32cd" stroke-dasharray="5,2" d="M320.341,-358.944C347.917,-369.634 384.872,-377.672 412,-360 470.265,-322.046 484.186,-228.178 487.219,-197.715"/>
<polygon fill="#9a32cd" stroke="#9a32cd" points="321.589,-355.673 311.01,-355.09 318.917,-362.142 321.589,-355.673"/>
<text text-anchor="middle" x="380" y="-406" font-family="Helvetica,sans-Serif" font-size="10.00"> primary_B_</text>
<text text-anchor="middle" x="380" y="-395" font-family="Helvetica,sans-Serif" font-size="10.00">primary_A_</text>
<text text-anchor="middle" x="380" y="-384" font-family="Helvetica,sans-Serif" font-size="10.00">primary_</text>
<text text-anchor="middle" x="380" y="-373" font-family="Helvetica,sans-Serif" font-size="10.00">mp2fit_</text>
</g>
<!-- Node4 -->
<g id="node4" class="node"><title>Node4</title>
<g id="a_node4"><a xlink:href="classboost_1_1shared__ptr.html" target="_top" xlink:title="boost::shared_ptr\&lt; T \&gt;">
<polygon fill="none" stroke="black" points="0,-205.5 0,-224.5 116,-224.5 116,-205.5 0,-205.5"/>
<text text-anchor="middle" x="58" y="-212.5" font-family="Helvetica,sans-Serif" font-size="10.00">boost::shared_ptr&lt; T &gt;</text>
</a>
</g>
</g>
<!-- Node4&#45;&gt;Node3 -->
<g id="edge3" class="edge"><title>Node4&#45;&gt;Node3</title>
<path fill="none" stroke="orange" stroke-dasharray="5,2" d="M84.8109,-229.599C127.026,-253.476 210.418,-300.643 253.241,-324.865"/>
<polygon fill="orange" stroke="orange" points="86.4018,-226.478 75.9745,-224.601 82.9556,-232.571 86.4018,-226.478"/>
<text text-anchor="middle" x="174" y="-302" font-family="Helvetica,sans-Serif" font-size="10.00"> &lt; psi::BasisSet &gt;</text>
</g>
<!-- Node5 -->
<g id="node5" class="node"><title>Node5</title>
<g id="a_node5"><a xlink:href="classboost_1_1shared__ptr.html" target="_top" xlink:title="boost::shared_ptr\&lt;\l psi::Matrix \&gt;">
<polygon fill="none" stroke="black" points="232,-227 232,-257 330,-257 330,-227 232,-227"/>
<text text-anchor="start" x="240" y="-245" font-family="Helvetica,sans-Serif" font-size="10.00">boost::shared_ptr&lt;</text>
<text text-anchor="middle" x="281" y="-234" font-family="Helvetica,sans-Serif" font-size="10.00"> psi::Matrix &gt;</text>
</a>
</g>
</g>
<!-- Node4&#45;&gt;Node5 -->
<g id="edge5" class="edge"><title>Node4&#45;&gt;Node5</title>
<path fill="none" stroke="orange" stroke-dasharray="5,2" d="M126.513,-223.248C160.464,-227.396 200.829,-232.327 231.641,-236.092"/>
<polygon fill="orange" stroke="orange" points="126.551,-219.727 116.2,-221.988 125.702,-226.675 126.551,-219.727"/>
<text text-anchor="middle" x="174" y="-236" font-family="Helvetica,sans-Serif" font-size="10.00"> &lt; psi::Matrix &gt;</text>
</g>
<!-- Node6 -->
<g id="node6" class="node"><title>Node6</title>
<g id="a_node6"><a xlink:href="classboost_1_1shared__ptr.html" target="_top" xlink:title="boost::shared_ptr\&lt;\l psi::Molecule \&gt;">
<polygon fill="none" stroke="black" points="232,-175 232,-205 330,-205 330,-175 232,-175"/>
<text text-anchor="start" x="240" y="-193" font-family="Helvetica,sans-Serif" font-size="10.00">boost::shared_ptr&lt;</text>
<text text-anchor="middle" x="281" y="-182" font-family="Helvetica,sans-Serif" font-size="10.00"> psi::Molecule &gt;</text>
</a>
</g>
</g>
<!-- Node4&#45;&gt;Node6 -->
<g id="edge7" class="edge"><title>Node4&#45;&gt;Node6</title>
<path fill="none" stroke="orange" stroke-dasharray="5,2" d="M126.339,-204.959C128.924,-204.626 131.485,-204.305 134,-204 166.609,-200.048 203.427,-196.524 231.932,-194"/>
<polygon fill="orange" stroke="orange" points="125.739,-201.508 116.288,-206.297 126.663,-208.447 125.739,-201.508"/>
<text text-anchor="middle" x="174" y="-207" font-family="Helvetica,sans-Serif" font-size="10.00"> &lt; psi::Molecule &gt;</text>
</g>
<!-- Node8 -->
<g id="node8" class="node"><title>Node8</title>
<g id="a_node8"><a xlink:href="classboost_1_1shared__ptr.html" target="_top" xlink:title="boost::shared_ptr\&lt;\l psi::Vector \&gt;">
<polygon fill="none" stroke="black" points="232,-84 232,-114 330,-114 330,-84 232,-84"/>
<text text-anchor="start" x="240" y="-102" font-family="Helvetica,sans-Serif" font-size="10.00">boost::shared_ptr&lt;</text>
<text text-anchor="middle" x="281" y="-91" font-family="Helvetica,sans-Serif" font-size="10.00"> psi::Vector &gt;</text>
</a>
</g>
</g>
<!-- Node4&#45;&gt;Node8 -->
<g id="edge10" class="edge"><title>Node4&#45;&gt;Node8</title>
<path fill="none" stroke="orange" stroke-dasharray="5,2" d="M86.5632,-200.532C128.597,-178.469 208.338,-136.614 251.136,-114.151"/>
<polygon fill="orange" stroke="orange" points="84.69,-197.563 77.4622,-205.309 87.9433,-203.761 84.69,-197.563"/>
<text text-anchor="middle" x="174" y="-178" font-family="Helvetica,sans-Serif" font-size="10.00"> &lt; psi::Vector &gt;</text>
</g>
<!-- Node5&#45;&gt;Node2 -->
<g id="edge4" class="edge"><title>Node5&#45;&gt;Node2</title>
<path fill="none" stroke="#9a32cd" stroke-dasharray="5,2" d="M340.372,-236.403C363.034,-233.356 389.017,-228.775 412,-222 432.797,-215.87 455.315,-205.25 470.397,-197.507"/>
<polygon fill="#9a32cd" stroke="#9a32cd" points="339.693,-232.962 330.216,-237.698 340.578,-239.905 339.693,-232.962"/>
<text text-anchor="middle" x="380" y="-348" font-family="Helvetica,sans-Serif" font-size="10.00"> Cfvir_B_</text>
<text text-anchor="middle" x="380" y="-337" font-family="Helvetica,sans-Serif" font-size="10.00">Cocc_B_</text>
<text text-anchor="middle" x="380" y="-326" font-family="Helvetica,sans-Serif" font-size="10.00">Cvir_B_</text>
<text text-anchor="middle" x="380" y="-315" font-family="Helvetica,sans-Serif" font-size="10.00">Cocc_A_</text>
<text text-anchor="middle" x="380" y="-304" font-family="Helvetica,sans-Serif" font-size="10.00">Cvir_A_</text>
<text text-anchor="middle" x="380" y="-293" font-family="Helvetica,sans-Serif" font-size="10.00">Caocc_A_</text>
<text text-anchor="middle" x="380" y="-282" font-family="Helvetica,sans-Serif" font-size="10.00">Cavir_A_</text>
<text text-anchor="middle" x="380" y="-271" font-family="Helvetica,sans-Serif" font-size="10.00">Caocc_B_</text>
<text text-anchor="middle" x="380" y="-260" font-family="Helvetica,sans-Serif" font-size="10.00">Cavir_B_</text>
<text text-anchor="middle" x="380" y="-249" font-family="Helvetica,sans-Serif" font-size="10.00">Cfocc_A_</text>
<text text-anchor="middle" x="380" y="-238" font-family="Helvetica,sans-Serif" font-size="10.00">...</text>
</g>
<!-- Node6&#45;&gt;Node2 -->
<g id="edge6" class="edge"><title>Node6&#45;&gt;Node2</title>
<path fill="none" stroke="#9a32cd" stroke-dasharray="5,2" d="M340.347,-189.091C342.933,-189.058 345.493,-189.028 348,-189 375.1,-188.698 405.151,-188.469 430.442,-188.307"/>
<polygon fill="#9a32cd" stroke="#9a32cd" points="340.253,-185.592 330.301,-189.224 340.346,-192.591 340.253,-185.592"/>
<text text-anchor="middle" x="380" y="-214" font-family="Helvetica,sans-Serif" font-size="10.00"> monomer_A_</text>
<text text-anchor="middle" x="380" y="-203" font-family="Helvetica,sans-Serif" font-size="10.00">monomer_B_</text>
<text text-anchor="middle" x="380" y="-192" font-family="Helvetica,sans-Serif" font-size="10.00">dimer_</text>
</g>
<!-- Node7 -->
<g id="node7" class="node"><title>Node7</title>
<polygon fill="none" stroke="#bfbfbf" points="260.5,-0.5 260.5,-19.5 301.5,-19.5 301.5,-0.5 260.5,-0.5"/>
<text text-anchor="middle" x="281" y="-7.5" font-family="Helvetica,sans-Serif" font-size="10.00">string</text>
</g>
<!-- Node7&#45;&gt;Node2 -->
<g id="edge8" class="edge"><title>Node7&#45;&gt;Node2</title>
<path fill="none" stroke="#9a32cd" stroke-dasharray="5,2" d="M311.962,-10.5075C340.463,-12.4507 383.156,-19.3308 412,-42 458.732,-78.728 479.696,-152.156 485.915,-178.4"/>
<polygon fill="#9a32cd" stroke="#9a32cd" points="311.959,-7.00276 301.792,-9.98182 311.598,-13.9934 311.959,-7.00276"/>
<text text-anchor="middle" x="380" y="-45" font-family="Helvetica,sans-Serif" font-size="10.00"> type_</text>
</g>
<!-- Node8&#45;&gt;Node2 -->
<g id="edge9" class="edge"><title>Node8&#45;&gt;Node2</title>
<path fill="none" stroke="#9a32cd" stroke-dasharray="5,2" d="M312.227,-78.5458C339.649,-62.7639 380.486,-46.3528 412,-64 457.163,-89.2901 478.73,-153.592 485.53,-178.208"/>
<polygon fill="#9a32cd" stroke="#9a32cd" points="310.231,-75.6624 303.475,-83.8237 313.846,-81.6568 310.231,-75.6624"/>
<text text-anchor="middle" x="380" y="-177" font-family="Helvetica,sans-Serif" font-size="10.00"> eps_aocc_B_</text>
<text text-anchor="middle" x="380" y="-166" font-family="Helvetica,sans-Serif" font-size="10.00">eps_fvir_A_</text>
<text text-anchor="middle" x="380" y="-155" font-family="Helvetica,sans-Serif" font-size="10.00">eps_fvir_B_</text>
<text text-anchor="middle" x="380" y="-144" font-family="Helvetica,sans-Serif" font-size="10.00">eps_focc_A_</text>
<text text-anchor="middle" x="380" y="-133" font-family="Helvetica,sans-Serif" font-size="10.00">eps_focc_B_</text>
<text text-anchor="middle" x="380" y="-122" font-family="Helvetica,sans-Serif" font-size="10.00">eps_vir_A_</text>
<text text-anchor="middle" x="380" y="-111" font-family="Helvetica,sans-Serif" font-size="10.00">eps_vir_B_</text>
<text text-anchor="middle" x="380" y="-100" font-family="Helvetica,sans-Serif" font-size="10.00">eps_avir_A_</text>
<text text-anchor="middle" x="380" y="-89" font-family="Helvetica,sans-Serif" font-size="10.00">eps_avir_B_</text>
<text text-anchor="middle" x="380" y="-78" font-family="Helvetica,sans-Serif" font-size="10.00">eps_occ_A_</text>
<text text-anchor="middle" x="380" y="-67" font-family="Helvetica,sans-Serif" font-size="10.00">...</text>
</g>
</g>
</svg>
