<?xml version="1.0" encoding="UTF-8" standalone="no"?>
<!DOCTYPE svg PUBLIC "-//W3C//DTD SVG 1.1//EN"
 "http://www.w3.org/Graphics/SVG/1.1/DTD/svg11.dtd">
<!-- Generated by graphviz version 2.30.1 (20140110.0959)
 -->
<!-- Title: yeti::LaplaceTransformOp Pages: 1 -->
<svg width="237pt" height="154pt"
 viewBox="0.00 0.00 237.00 154.00" xmlns="http://www.w3.org/2000/svg" xmlns:xlink="http://www.w3.org/1999/xlink">
<g id="graph0" class="graph" transform="scale(1 1) rotate(0) translate(4 150)">
<title>yeti::LaplaceTransformOp</title>
<!-- Node1 -->
<g id="node1" class="node"><title>Node1</title>
<polygon fill="#bfbfbf" stroke="black" points="76.5,-0.5 76.5,-19.5 205.5,-19.5 205.5,-0.5 76.5,-0.5"/>
<text text-anchor="middle" x="141" y="-7.5" font-family="Helvetica,sans-Serif" font-size="10.00">yeti::LaplaceTransformOp</text>
</g>
<!-- Node2 -->
<g id="node2" class="node"><title>Node2</title>
<g id="a_node2"><a xlink:href="classyeti_1_1ElementOp.html" target="_top" xlink:title="yeti::ElementOp">
<polygon fill="none" stroke="black" points="7.5,-68.5 7.5,-87.5 94.5,-87.5 94.5,-68.5 7.5,-68.5"/>
<text text-anchor="middle" x="51" y="-75.5" font-family="Helvetica,sans-Serif" font-size="10.00">yeti::ElementOp</text>
</a>
</g>
</g>
<!-- Node2&#45;&gt;Node1 -->
<g id="edge1" class="edge"><title>Node2&#45;&gt;Node1</title>
<path fill="none" stroke="midnightblue" d="M70.8339,-62.4551C88.714,-49.3431 114.407,-30.5016 129.231,-19.6305"/>
<polygon fill="midnightblue" stroke="midnightblue" points="68.7602,-59.6356 62.7659,-68.3717 72.8998,-65.2804 68.7602,-59.6356"/>
</g>
<!-- Node3 -->
<g id="node3" class="node"><title>Node3</title>
<g id="a_node3"><a xlink:href="classsmartptr_1_1Countable.html" target="_top" xlink:title="smartptr::Countable">
<polygon fill="none" stroke="black" points="-0.5,-126.5 -0.5,-145.5 102.5,-145.5 102.5,-126.5 -0.5,-126.5"/>
<text text-anchor="middle" x="51" y="-133.5" font-family="Helvetica,sans-Serif" font-size="10.00">smartptr::Countable</text>
</a>
</g>
</g>
<!-- Node3&#45;&gt;Node2 -->
<g id="edge2" class="edge"><title>Node3&#45;&gt;Node2</title>
<path fill="none" stroke="midnightblue" d="M51,-115.953C51,-106.287 51,-95.0312 51,-87.5052"/>
<polygon fill="midnightblue" stroke="midnightblue" points="47.5001,-116.25 51,-126.25 54.5001,-116.25 47.5001,-116.25"/>
</g>
<!-- Node4 -->
<g id="node4" class="node"><title>Node4</title>
<g id="a_node4"><a xlink:href="classyeti_1_1LaplaceTransform.html" target="_top" xlink:title="yeti::LaplaceTransform">
<polygon fill="none" stroke="black" points="113,-68.5 113,-87.5 229,-87.5 229,-68.5 113,-68.5"/>
<text text-anchor="middle" x="171" y="-75.5" font-family="Helvetica,sans-Serif" font-size="10.00">yeti::LaplaceTransform</text>
</a>
</g>
</g>
<!-- Node4&#45;&gt;Node1 -->
<g id="edge3" class="edge"><title>Node4&#45;&gt;Node1</title>
<path fill="none" stroke="#9a32cd" stroke-dasharray="5,2" d="M162.903,-59.1859C157.115,-46.4523 149.573,-29.8607 145.019,-19.8411"/>
<polygon fill="#9a32cd" stroke="#9a32cd" points="159.754,-60.7163 167.078,-68.3717 166.126,-57.8196 159.754,-60.7163"/>
<text text-anchor="middle" x="166" y="-41.5" font-family="Helvetica,sans-Serif" font-size="10.00"> lt_</text>
</g>
</g>
</svg>
