<?xml version="1.0" encoding="UTF-8" standalone="no"?>
<!DOCTYPE svg PUBLIC "-//W3C//DTD SVG 1.1//EN"
 "http://www.w3.org/Graphics/SVG/1.1/DTD/svg11.dtd">
<!-- Generated by graphviz version 2.30.1 (20140110.0959)
 -->
<!-- Title: psi::scf::ROHF Pages: 1 -->
<svg width="972pt" height="1107pt"
 viewBox="0.00 0.00 972.00 1106.83" xmlns="http://www.w3.org/2000/svg" xmlns:xlink="http://www.w3.org/1999/xlink">
<g id="graph0" class="graph" transform="scale(1 1) rotate(0) translate(4 1102.83)">
<title>psi::scf::ROHF</title>
<!-- Node1 -->
<g id="node1" class="node"><title>Node1</title>
<polygon fill="#bfbfbf" stroke="black" points="880.5,-801.334 880.5,-820.334 963.5,-820.334 963.5,-801.334 880.5,-801.334"/>
<text text-anchor="middle" x="922" y="-808.334" font-family="Helvetica,sans-Serif" font-size="10.00">psi::scf::ROHF</text>
</g>
<!-- Node2 -->
<g id="node2" class="node"><title>Node2</title>
<g id="a_node2"><a xlink:href="classpsi_1_1scf_1_1HF.html" target="_top" xlink:title="psi::scf::HF">
<polygon fill="none" stroke="black" points="774,-147.334 774,-166.334 842,-166.334 842,-147.334 774,-147.334"/>
<text text-anchor="middle" x="808" y="-154.334" font-family="Helvetica,sans-Serif" font-size="10.00">psi::scf::HF</text>
</a>
</g>
</g>
<!-- Node2&#45;&gt;Node1 -->
<g id="edge1" class="edge"><title>Node2&#45;&gt;Node1</title>
<path fill="none" stroke="midnightblue" d="M812.382,-176.585C829.572,-276.962 906.919,-728.612 919.32,-801.025"/>
<polygon fill="midnightblue" stroke="midnightblue" points="815.808,-175.852 810.67,-166.587 808.908,-177.034 815.808,-175.852"/>
</g>
<!-- Node3 -->
<g id="node3" class="node"><title>Node3</title>
<g id="a_node3"><a xlink:href="classpsi_1_1Wavefunction.html" target="_top" xlink:title="Simple wavefunction base class.">
<polygon fill="none" stroke="black" points="520.5,-477.334 520.5,-496.334 615.5,-496.334 615.5,-477.334 520.5,-477.334"/>
<text text-anchor="middle" x="568" y="-484.334" font-family="Helvetica,sans-Serif" font-size="10.00">psi::Wavefunction</text>
</a>
</g>
</g>
<!-- Node3&#45;&gt;Node2 -->
<g id="edge2" class="edge"><title>Node3&#45;&gt;Node2</title>
<path fill="none" stroke="midnightblue" d="M581.768,-469.131C625.315,-408.75 767.132,-212.113 800.106,-166.393"/>
<polygon fill="midnightblue" stroke="midnightblue" points="578.877,-467.156 575.866,-477.314 584.555,-471.25 578.877,-467.156"/>
</g>
<!-- Node4 -->
<g id="node4" class="node"><title>Node4</title>
<g id="a_node4"><a xlink:href="classboost_1_1shared__ptr.html" target="_top" xlink:title="boost::shared_ptr\&lt;\l psi::MatrixFactory \&gt;">
<polygon fill="none" stroke="black" points="261.5,-532.834 261.5,-562.834 368.5,-562.834 368.5,-532.834 261.5,-532.834"/>
<text text-anchor="start" x="269.5" y="-550.834" font-family="Helvetica,sans-Serif" font-size="10.00">boost::shared_ptr&lt;</text>
<text text-anchor="middle" x="315" y="-539.834" font-family="Helvetica,sans-Serif" font-size="10.00"> psi::MatrixFactory &gt;</text>
</a>
</g>
</g>
<!-- Node4&#45;&gt;Node3 -->
<g id="edge3" class="edge"><title>Node4&#45;&gt;Node3</title>
<path fill="none" stroke="#9a32cd" stroke-dasharray="5,2" d="M378.607,-537.913C414.963,-531.525 461.451,-522.276 502,-510.834 516.124,-506.848 531.549,-501.211 543.826,-496.401"/>
<polygon fill="#9a32cd" stroke="#9a32cd" points="377.892,-534.485 368.635,-539.639 379.085,-541.382 377.892,-534.485"/>
<text text-anchor="middle" x="446" y="-538.834" font-family="Helvetica,sans-Serif" font-size="10.00"> factory_</text>
</g>
<!-- Node5 -->
<g id="node5" class="node"><title>Node5</title>
<g id="a_node5"><a xlink:href="classboost_1_1shared__ptr.html" target="_top" xlink:title="boost::shared_ptr\&lt; T \&gt;">
<polygon fill="none" stroke="black" points="0,-464.334 0,-483.334 116,-483.334 116,-464.334 0,-464.334"/>
<text text-anchor="middle" x="58" y="-471.334" font-family="Helvetica,sans-Serif" font-size="10.00">boost::shared_ptr&lt; T &gt;</text>
</a>
</g>
</g>
<!-- Node5&#45;&gt;Node4 -->
<g id="edge4" class="edge"><title>Node5&#45;&gt;Node4</title>
<path fill="none" stroke="orange" stroke-dasharray="5,2" d="M87.4589,-487.889C101.266,-494.309 118.24,-501.625 134,-506.834 175.995,-520.715 225.02,-531.545 261.293,-538.579"/>
<polygon fill="orange" stroke="orange" points="88.5623,-484.538 78.0272,-483.415 85.5624,-490.863 88.5623,-484.538"/>
<text text-anchor="middle" x="187" y="-536.834" font-family="Helvetica,sans-Serif" font-size="10.00"> &lt; psi::MatrixFactory &gt;</text>
</g>
<!-- Node6 -->
<g id="node6" class="node"><title>Node6</title>
<g id="a_node6"><a xlink:href="classboost_1_1shared__ptr.html" target="_top" xlink:title="boost::shared_ptr\&lt;\l psi::Chkpt \&gt;">
<polygon fill="none" stroke="black" points="266,-483.834 266,-513.834 364,-513.834 364,-483.834 266,-483.834"/>
<text text-anchor="start" x="274" y="-501.834" font-family="Helvetica,sans-Serif" font-size="10.00">boost::shared_ptr&lt;</text>
<text text-anchor="middle" x="315" y="-490.834" font-family="Helvetica,sans-Serif" font-size="10.00"> psi::Chkpt &gt;</text>
</a>
</g>
</g>
<!-- Node5&#45;&gt;Node6 -->
<g id="edge6" class="edge"><title>Node5&#45;&gt;Node6</title>
<path fill="none" stroke="orange" stroke-dasharray="5,2" d="M126.253,-480.427C170.184,-484.734 226.505,-490.256 265.953,-494.124"/>
<polygon fill="orange" stroke="orange" points="126.521,-476.937 116.227,-479.444 125.838,-483.904 126.521,-476.937"/>
<text text-anchor="middle" x="187" y="-494.834" font-family="Helvetica,sans-Serif" font-size="10.00"> &lt; psi::Chkpt &gt;</text>
</g>
<!-- Node7 -->
<g id="node7" class="node"><title>Node7</title>
<g id="a_node7"><a xlink:href="classboost_1_1shared__ptr.html" target="_top" xlink:title="boost::shared_ptr\&lt;\l psi::IntegralFactory \&gt;">
<polygon fill="none" stroke="black" points="258.5,-434.834 258.5,-464.834 371.5,-464.834 371.5,-434.834 258.5,-434.834"/>
<text text-anchor="start" x="266.5" y="-452.834" font-family="Helvetica,sans-Serif" font-size="10.00">boost::shared_ptr&lt;</text>
<text text-anchor="middle" x="315" y="-441.834" font-family="Helvetica,sans-Serif" font-size="10.00"> psi::IntegralFactory &gt;</text>
</a>
</g>
</g>
<!-- Node5&#45;&gt;Node7 -->
<g id="edge8" class="edge"><title>Node5&#45;&gt;Node7</title>
<path fill="none" stroke="orange" stroke-dasharray="5,2" d="M125.195,-462.903C128.168,-462.52 131.113,-462.16 134,-461.834 175.547,-457.135 222.712,-454.074 258.337,-452.22"/>
<polygon fill="orange" stroke="orange" points="124.465,-459.471 115.03,-464.292 125.412,-466.406 124.465,-459.471"/>
<text text-anchor="middle" x="187" y="-464.834" font-family="Helvetica,sans-Serif" font-size="10.00"> &lt; psi::IntegralFactory &gt;</text>
</g>
<!-- Node9 -->
<g id="node9" class="node"><title>Node9</title>
<g id="a_node9"><a xlink:href="classboost_1_1shared__ptr.html" target="_top" xlink:title="boost::shared_ptr\&lt;\l psi::Wavefunction \&gt;">
<polygon fill="none" stroke="black" points="261.5,-385.834 261.5,-415.834 368.5,-415.834 368.5,-385.834 261.5,-385.834"/>
<text text-anchor="start" x="269.5" y="-403.834" font-family="Helvetica,sans-Serif" font-size="10.00">boost::shared_ptr&lt;</text>
<text text-anchor="middle" x="315" y="-392.834" font-family="Helvetica,sans-Serif" font-size="10.00"> psi::Wavefunction &gt;</text>
</a>
</g>
</g>
<!-- Node5&#45;&gt;Node9 -->
<g id="edge11" class="edge"><title>Node5&#45;&gt;Node9</title>
<path fill="none" stroke="orange" stroke-dasharray="5,2" d="M85.5112,-459.647C99.5965,-452.58 117.39,-444.382 134,-438.834 175.805,-424.871 224.845,-414.92 261.172,-408.712"/>
<polygon fill="orange" stroke="orange" points="83.7136,-456.636 76.4124,-464.313 86.9077,-462.864 83.7136,-456.636"/>
<text text-anchor="middle" x="187" y="-441.834" font-family="Helvetica,sans-Serif" font-size="10.00"> &lt; psi::Wavefunction &gt;</text>
</g>
<!-- Node10 -->
<g id="node10" class="node"><title>Node10</title>
<g id="a_node10"><a xlink:href="classboost_1_1shared__ptr.html" target="_top" xlink:title="boost::shared_ptr\&lt;\l psi::PSIO \&gt;">
<polygon fill="none" stroke="black" points="266,-336.834 266,-366.834 364,-366.834 364,-336.834 266,-336.834"/>
<text text-anchor="start" x="274" y="-354.834" font-family="Helvetica,sans-Serif" font-size="10.00">boost::shared_ptr&lt;</text>
<text text-anchor="middle" x="315" y="-343.834" font-family="Helvetica,sans-Serif" font-size="10.00"> psi::PSIO &gt;</text>
</a>
</g>
</g>
<!-- Node5&#45;&gt;Node10 -->
<g id="edge13" class="edge"><title>Node5&#45;&gt;Node10</title>
<path fill="none" stroke="orange" stroke-dasharray="5,2" d="M71.8548,-456.047C85.3841,-438.626 108.262,-412.609 134,-397.834 174.981,-374.31 228.005,-362.645 265.869,-356.971"/>
<polygon fill="orange" stroke="orange" points="68.8841,-454.174 65.6664,-464.268 74.4768,-458.384 68.8841,-454.174"/>
<text text-anchor="middle" x="187" y="-400.834" font-family="Helvetica,sans-Serif" font-size="10.00"> &lt; psi::PSIO &gt;</text>
</g>
<!-- Node11 -->
<g id="node11" class="node"><title>Node11</title>
<g id="a_node11"><a xlink:href="classboost_1_1shared__ptr.html" target="_top" xlink:title="boost::shared_ptr\&lt;\l psi::SOBasisSet \&gt;">
<polygon fill="none" stroke="black" points="264.5,-287.834 264.5,-317.834 365.5,-317.834 365.5,-287.834 264.5,-287.834"/>
<text text-anchor="start" x="272.5" y="-305.834" font-family="Helvetica,sans-Serif" font-size="10.00">boost::shared_ptr&lt;</text>
<text text-anchor="middle" x="315" y="-294.834" font-family="Helvetica,sans-Serif" font-size="10.00"> psi::SOBasisSet &gt;</text>
</a>
</g>
</g>
<!-- Node5&#45;&gt;Node11 -->
<g id="edge15" class="edge"><title>Node5&#45;&gt;Node11</title>
<path fill="none" stroke="orange" stroke-dasharray="5,2" d="M65.1681,-454.386C75.0661,-426.415 97.2112,-375.192 134,-347.834 171.867,-319.674 225.342,-309.007 264.16,-305.034"/>
<polygon fill="orange" stroke="orange" points="61.7426,-453.592 61.8682,-464.186 68.3766,-455.826 61.7426,-453.592"/>
<text text-anchor="middle" x="187" y="-350.834" font-family="Helvetica,sans-Serif" font-size="10.00"> &lt; psi::SOBasisSet &gt;</text>
</g>
<!-- Node13 -->
<g id="node13" class="node"><title>Node13</title>
<g id="a_node13"><a xlink:href="classboost_1_1shared__ptr.html" target="_top" xlink:title="boost::shared_ptr\&lt;\l psi::BasisSet \&gt;">
<polygon fill="none" stroke="black" points="266,-718.834 266,-748.834 364,-748.834 364,-718.834 266,-718.834"/>
<text text-anchor="start" x="274" y="-736.834" font-family="Helvetica,sans-Serif" font-size="10.00">boost::shared_ptr&lt;</text>
<text text-anchor="middle" x="315" y="-725.834" font-family="Helvetica,sans-Serif" font-size="10.00"> psi::BasisSet &gt;</text>
</a>
</g>
</g>
<!-- Node5&#45;&gt;Node13 -->
<g id="edge18" class="edge"><title>Node5&#45;&gt;Node13</title>
<path fill="none" stroke="orange" stroke-dasharray="5,2" d="M60.0673,-493.562C63.4225,-535.389 77.2531,-633.425 134,-685.834 169.758,-718.859 225.683,-729.643 265.705,-732.923"/>
<polygon fill="orange" stroke="orange" points="63.5571,-493.292 59.3836,-483.553 56.5734,-493.769 63.5571,-493.292"/>
<text text-anchor="middle" x="187" y="-731.834" font-family="Helvetica,sans-Serif" font-size="10.00"> &lt; psi::BasisSet &gt;</text>
</g>
<!-- Node14 -->
<g id="node14" class="node"><title>Node14</title>
<g id="a_node14"><a xlink:href="classboost_1_1shared__ptr.html" target="_top" xlink:title="boost::shared_ptr\&lt;\l psi::Matrix \&gt;">
<polygon fill="none" stroke="black" points="266,-833.834 266,-863.834 364,-863.834 364,-833.834 266,-833.834"/>
<text text-anchor="start" x="274" y="-851.834" font-family="Helvetica,sans-Serif" font-size="10.00">boost::shared_ptr&lt;</text>
<text text-anchor="middle" x="315" y="-840.834" font-family="Helvetica,sans-Serif" font-size="10.00"> psi::Matrix &gt;</text>
</a>
</g>
</g>
<!-- Node5&#45;&gt;Node14 -->
<g id="edge20" class="edge"><title>Node5&#45;&gt;Node14</title>
<path fill="none" stroke="orange" stroke-dasharray="5,2" d="M59.5662,-493.86C61.8962,-541.942 73.7616,-665.708 134,-743.834 168.462,-788.529 227.764,-817.742 268.836,-833.746"/>
<polygon fill="orange" stroke="orange" points="63.0522,-493.433 59.1626,-483.578 56.0576,-493.707 63.0522,-493.433"/>
<text text-anchor="middle" x="187" y="-821.834" font-family="Helvetica,sans-Serif" font-size="10.00"> &lt; psi::Matrix &gt;</text>
</g>
<!-- Node15 -->
<g id="node15" class="node"><title>Node15</title>
<g id="a_node15"><a xlink:href="classboost_1_1shared__ptr.html" target="_top" xlink:title="boost::shared_ptr\&lt;\l psi::Molecule \&gt;">
<polygon fill="none" stroke="black" points="266,-669.834 266,-699.834 364,-699.834 364,-669.834 266,-669.834"/>
<text text-anchor="start" x="274" y="-687.834" font-family="Helvetica,sans-Serif" font-size="10.00">boost::shared_ptr&lt;</text>
<text text-anchor="middle" x="315" y="-676.834" font-family="Helvetica,sans-Serif" font-size="10.00"> psi::Molecule &gt;</text>
</a>
</g>
</g>
<!-- Node5&#45;&gt;Node15 -->
<g id="edge22" class="edge"><title>Node5&#45;&gt;Node15</title>
<path fill="none" stroke="orange" stroke-dasharray="5,2" d="M64.1824,-493.271C73.3037,-523.898 95.0507,-583.432 134,-617.834 171.363,-650.835 226.474,-668.141 265.862,-676.829"/>
<polygon fill="orange" stroke="orange" points="67.478,-492.063 61.3847,-483.396 60.743,-493.971 67.478,-492.063"/>
<text text-anchor="middle" x="187" y="-673.834" font-family="Helvetica,sans-Serif" font-size="10.00"> &lt; psi::Molecule &gt;</text>
</g>
<!-- Node17 -->
<g id="node17" class="node"><title>Node17</title>
<g id="a_node17"><a xlink:href="classboost_1_1shared__ptr.html" target="_top" xlink:title="boost::shared_ptr\&lt;\l psi::Vector \&gt;">
<polygon fill="none" stroke="black" points="266,-620.834 266,-650.834 364,-650.834 364,-620.834 266,-620.834"/>
<text text-anchor="start" x="274" y="-638.834" font-family="Helvetica,sans-Serif" font-size="10.00">boost::shared_ptr&lt;</text>
<text text-anchor="middle" x="315" y="-627.834" font-family="Helvetica,sans-Serif" font-size="10.00"> psi::Vector &gt;</text>
</a>
</g>
</g>
<!-- Node5&#45;&gt;Node17 -->
<g id="edge25" class="edge"><title>Node5&#45;&gt;Node17</title>
<path fill="none" stroke="orange" stroke-dasharray="5,2" d="M73.5364,-491.321C87.7429,-507.648 110.593,-531.963 134,-548.834 183.986,-584.862 202.299,-584.491 258,-610.834 264.93,-614.111 272.391,-617.523 279.537,-620.734"/>
<polygon fill="orange" stroke="orange" points="76.0932,-488.926 66.938,-483.593 70.7697,-493.471 76.0932,-488.926"/>
<text text-anchor="middle" x="187" y="-605.834" font-family="Helvetica,sans-Serif" font-size="10.00"> &lt; psi::Vector &gt;</text>
</g>
<!-- Node18 -->
<g id="node18" class="node"><title>Node18</title>
<g id="a_node18"><a xlink:href="classboost_1_1shared__ptr.html" target="_top" xlink:title="boost::shared_ptr\&lt;\l psi::JK \&gt;">
<polygon fill="none" stroke="black" points="397,-47.834 397,-77.834 495,-77.834 495,-47.834 397,-47.834"/>
<text text-anchor="start" x="405" y="-65.834" font-family="Helvetica,sans-Serif" font-size="10.00">boost::shared_ptr&lt;</text>
<text text-anchor="middle" x="446" y="-54.834" font-family="Helvetica,sans-Serif" font-size="10.00"> psi::JK &gt;</text>
</a>
</g>
</g>
<!-- Node5&#45;&gt;Node18 -->
<g id="edge27" class="edge"><title>Node5&#45;&gt;Node18</title>
<path fill="none" stroke="orange" stroke-dasharray="5,2" d="M61.9733,-454.213C73.1968,-387.821 119.632,-170.797 258,-81.834 299.31,-55.2737 356.679,-53.3758 396.947,-56.3224"/>
<polygon fill="orange" stroke="orange" points="58.5045,-453.739 60.368,-464.169 65.4153,-454.854 58.5045,-453.739"/>
<text text-anchor="middle" x="187" y="-231.834" font-family="Helvetica,sans-Serif" font-size="10.00"> &lt; psi::JK &gt;</text>
</g>
<!-- Node19 -->
<g id="node19" class="node"><title>Node19</title>
<g id="a_node19"><a xlink:href="classboost_1_1shared__ptr.html" target="_top" xlink:title="boost::shared_ptr\&lt;\l psi::DIISManager \&gt;">
<polygon fill="none" stroke="black" points="393.5,-3.834 393.5,-33.834 498.5,-33.834 498.5,-3.834 393.5,-3.834"/>
<text text-anchor="start" x="401.5" y="-21.834" font-family="Helvetica,sans-Serif" font-size="10.00">boost::shared_ptr&lt;</text>
<text text-anchor="middle" x="446" y="-10.834" font-family="Helvetica,sans-Serif" font-size="10.00"> psi::DIISManager &gt;</text>
</a>
</g>
</g>
<!-- Node5&#45;&gt;Node19 -->
<g id="edge29" class="edge"><title>Node5&#45;&gt;Node19</title>
<path fill="none" stroke="orange" stroke-dasharray="5,2" d="M60.0305,-453.973C64.1672,-382.039 81.9319,-136.482 134,-81.834 201.168,-11.3386 323.838,-8.15577 393.351,-12.941"/>
<polygon fill="orange" stroke="orange" points="56.5166,-454.133 59.4628,-464.31 63.506,-454.517 56.5166,-454.133"/>
<text text-anchor="middle" x="187" y="-84.834" font-family="Helvetica,sans-Serif" font-size="10.00"> &lt; psi::DIISManager &gt;</text>
</g>
<!-- Node6&#45;&gt;Node3 -->
<g id="edge5" class="edge"><title>Node6&#45;&gt;Node3</title>
<path fill="none" stroke="#9a32cd" stroke-dasharray="5,2" d="M374.175,-496.053C418.611,-493.928 479.044,-491.039 520.338,-489.065"/>
<polygon fill="#9a32cd" stroke="#9a32cd" points="373.92,-492.561 364.098,-496.534 374.254,-499.553 373.92,-492.561"/>
<text text-anchor="middle" x="446" y="-498.834" font-family="Helvetica,sans-Serif" font-size="10.00"> chkpt_</text>
</g>
<!-- Node7&#45;&gt;Node3 -->
<g id="edge7" class="edge"><title>Node7&#45;&gt;Node3</title>
<path fill="none" stroke="#9a32cd" stroke-dasharray="5,2" d="M382.07,-458.599C417.643,-463.437 462.26,-469.695 502,-475.834 507.882,-476.743 514.056,-477.736 520.161,-478.742"/>
<polygon fill="#9a32cd" stroke="#9a32cd" points="382.193,-455.084 371.814,-457.21 381.253,-462.021 382.193,-455.084"/>
<text text-anchor="middle" x="446" y="-478.834" font-family="Helvetica,sans-Serif" font-size="10.00"> integral_</text>
</g>
<!-- Node8 -->
<g id="node8" class="node"><title>Node8</title>
<g id="a_node8"><a xlink:href="classpsi_1_1Options.html" target="_top" xlink:title="psi::Options">
<polygon fill="none" stroke="black" points="280.5,-582.334 280.5,-601.334 349.5,-601.334 349.5,-582.334 280.5,-582.334"/>
<text text-anchor="middle" x="315" y="-589.334" font-family="Helvetica,sans-Serif" font-size="10.00">psi::Options</text>
</a>
</g>
</g>
<!-- Node8&#45;&gt;Node3 -->
<g id="edge9" class="edge"><title>Node8&#45;&gt;Node3</title>
<path fill="none" stroke="#9a32cd" stroke-dasharray="5,2" d="M359.543,-580.277C369.527,-577.732 380.113,-575.117 390,-572.834 439.514,-561.401 457.071,-573.577 502,-549.834 527.01,-536.617 548.985,-510.84 559.828,-496.7"/>
<polygon fill="#9a32cd" stroke="#9a32cd" points="358.619,-576.901 349.807,-582.784 360.364,-583.68 358.619,-576.901"/>
<text text-anchor="middle" x="446" y="-575.834" font-family="Helvetica,sans-Serif" font-size="10.00"> options_</text>
</g>
<!-- Node9&#45;&gt;Node3 -->
<g id="edge10" class="edge"><title>Node9&#45;&gt;Node3</title>
<path fill="none" stroke="#9a32cd" stroke-dasharray="5,2" d="M378.907,-413.767C423.791,-423.425 479.952,-436.511 502,-445.834 521.416,-454.044 541.625,-467.738 554.253,-477.019"/>
<polygon fill="#9a32cd" stroke="#9a32cd" points="379.447,-410.304 368.937,-411.638 377.985,-417.149 379.447,-410.304"/>
<text text-anchor="middle" x="446" y="-448.834" font-family="Helvetica,sans-Serif" font-size="10.00"> reference_wavefunction_</text>
</g>
<!-- Node10&#45;&gt;Node3 -->
<g id="edge12" class="edge"><title>Node10&#45;&gt;Node3</title>
<path fill="none" stroke="#9a32cd" stroke-dasharray="5,2" d="M361.895,-370.493C371.112,-373.873 380.796,-377.166 390,-379.834 438.807,-393.982 458.875,-375.954 502,-402.834 532.045,-421.562 553.585,-459.448 562.477,-477.22"/>
<polygon fill="#9a32cd" stroke="#9a32cd" points="363.089,-367.203 352.497,-366.962 360.627,-373.756 363.089,-367.203"/>
<text text-anchor="middle" x="446" y="-405.834" font-family="Helvetica,sans-Serif" font-size="10.00"> psio_</text>
</g>
<!-- Node11&#45;&gt;Node3 -->
<g id="edge14" class="edge"><title>Node11&#45;&gt;Node3</title>
<path fill="none" stroke="#9a32cd" stroke-dasharray="5,2" d="M365.467,-322.654C367.722,-323.985 369.912,-325.379 372,-326.834 381.543,-333.485 379.786,-340.269 390,-345.834 434.472,-370.065 461.073,-337.002 502,-366.834 540.868,-395.165 558.966,-454.021 564.793,-477.176"/>
<polygon fill="#9a32cd" stroke="#9a32cd" points="366.992,-319.5 356.529,-317.835 363.67,-325.662 366.992,-319.5"/>
<text text-anchor="middle" x="446" y="-369.834" font-family="Helvetica,sans-Serif" font-size="10.00"> sobasisset_</text>
</g>
<!-- Node12 -->
<g id="node12" class="node"><title>Node12</title>
<g id="a_node12"><a xlink:href="classpsi_1_1Dimension.html" target="_top" xlink:title="psi::Dimension">
<polygon fill="none" stroke="black" points="274,-234.334 274,-253.334 356,-253.334 356,-234.334 274,-234.334"/>
<text text-anchor="middle" x="315" y="-241.334" font-family="Helvetica,sans-Serif" font-size="10.00">psi::Dimension</text>
</a>
</g>
</g>
<!-- Node12&#45;&gt;Node3 -->
<g id="edge16" class="edge"><title>Node12&#45;&gt;Node3</title>
<path fill="none" stroke="#9a32cd" stroke-dasharray="5,2" d="M366.54,-240.157C414.4,-237.784 481.851,-237.665 502,-253.834 538.357,-283.009 560.538,-436.803 565.789,-477.14"/>
<polygon fill="#9a32cd" stroke="#9a32cd" points="366.143,-236.674 356.348,-240.711 366.523,-243.663 366.143,-236.674"/>
<text text-anchor="middle" x="446" y="-333.834" font-family="Helvetica,sans-Serif" font-size="10.00"> doccpi_</text>
<text text-anchor="middle" x="446" y="-322.834" font-family="Helvetica,sans-Serif" font-size="10.00">nbetapi_</text>
<text text-anchor="middle" x="446" y="-311.834" font-family="Helvetica,sans-Serif" font-size="10.00">frzvpi_</text>
<text text-anchor="middle" x="446" y="-300.834" font-family="Helvetica,sans-Serif" font-size="10.00">frzcpi_</text>
<text text-anchor="middle" x="446" y="-289.834" font-family="Helvetica,sans-Serif" font-size="10.00">nmopi_</text>
<text text-anchor="middle" x="446" y="-278.834" font-family="Helvetica,sans-Serif" font-size="10.00">nalphapi_</text>
<text text-anchor="middle" x="446" y="-267.834" font-family="Helvetica,sans-Serif" font-size="10.00">nsopi_</text>
<text text-anchor="middle" x="446" y="-256.834" font-family="Helvetica,sans-Serif" font-size="10.00">soccpi_</text>
</g>
<!-- Node20 -->
<g id="node20" class="node"><title>Node20</title>
<g id="a_node20"><a xlink:href="classpsi_1_1Vector.html" target="_top" xlink:title="psi::Vector">
<polygon fill="none" stroke="black" points="536,-97.334 536,-116.334 600,-116.334 600,-97.334 536,-97.334"/>
<text text-anchor="middle" x="568" y="-104.334" font-family="Helvetica,sans-Serif" font-size="10.00">psi::Vector</text>
</a>
</g>
</g>
<!-- Node12&#45;&gt;Node20 -->
<g id="edge34" class="edge"><title>Node12&#45;&gt;Node20</title>
<path fill="none" stroke="#9a32cd" stroke-dasharray="5,2" d="M359.516,-231.595C369.502,-228.92 380.095,-226.187 390,-223.834 439.44,-212.088 464.941,-235.604 502,-200.834 524.173,-180.03 501.602,-159.041 520,-134.834 525.977,-126.97 534.855,-120.874 543.289,-116.408"/>
<polygon fill="#9a32cd" stroke="#9a32cd" points="358.516,-228.24 349.781,-234.235 360.348,-234.996 358.516,-228.24"/>
<text text-anchor="middle" x="446" y="-226.834" font-family="Helvetica,sans-Serif" font-size="10.00"> dimpi_</text>
</g>
<!-- Node13&#45;&gt;Node3 -->
<g id="edge17" class="edge"><title>Node13&#45;&gt;Node3</title>
<path fill="none" stroke="#9a32cd" stroke-dasharray="5,2" d="M374.031,-727.592C424.954,-721.611 492.374,-712.274 502,-703.834 566.169,-647.572 568.255,-530.773 567.402,-496.491"/>
<polygon fill="#9a32cd" stroke="#9a32cd" points="373.62,-724.116 364.088,-728.742 374.424,-731.069 373.62,-724.116"/>
<text text-anchor="middle" x="446" y="-727.834" font-family="Helvetica,sans-Serif" font-size="10.00"> basisset_</text>
</g>
<!-- Node14&#45;&gt;Node3 -->
<g id="edge19" class="edge"><title>Node14&#45;&gt;Node3</title>
<path fill="none" stroke="#9a32cd" stroke-dasharray="5,2" d="M330.497,-824.933C343.599,-805.436 364.684,-778.762 390,-763.834 433.852,-737.976 465.283,-775.097 502,-739.834 538.551,-704.73 560.824,-538.081 565.89,-496.334"/>
<polygon fill="#9a32cd" stroke="#9a32cd" points="327.393,-823.286 324.887,-833.58 333.265,-827.096 327.393,-823.286"/>
<text text-anchor="middle" x="446" y="-887.834" font-family="Helvetica,sans-Serif" font-size="10.00"> Fa_</text>
<text text-anchor="middle" x="446" y="-876.834" font-family="Helvetica,sans-Serif" font-size="10.00">gradient_</text>
<text text-anchor="middle" x="446" y="-865.834" font-family="Helvetica,sans-Serif" font-size="10.00">H_</text>
<text text-anchor="middle" x="446" y="-854.834" font-family="Helvetica,sans-Serif" font-size="10.00">Lagrangian_</text>
<text text-anchor="middle" x="446" y="-843.834" font-family="Helvetica,sans-Serif" font-size="10.00">S_</text>
<text text-anchor="middle" x="446" y="-832.834" font-family="Helvetica,sans-Serif" font-size="10.00">AO2SO_</text>
<text text-anchor="middle" x="446" y="-821.834" font-family="Helvetica,sans-Serif" font-size="10.00">Cb_</text>
<text text-anchor="start" x="411.5" y="-810.834" font-family="Helvetica,sans-Serif" font-size="10.00">QLMO_to_LMO</text>
<text text-anchor="middle" x="446" y="-799.834" font-family="Helvetica,sans-Serif" font-size="10.00">_</text>
<text text-anchor="middle" x="446" y="-788.834" font-family="Helvetica,sans-Serif" font-size="10.00">Db_</text>
<text text-anchor="middle" x="446" y="-777.834" font-family="Helvetica,sans-Serif" font-size="10.00">Ca_</text>
<text text-anchor="middle" x="446" y="-766.834" font-family="Helvetica,sans-Serif" font-size="10.00">...</text>
</g>
<!-- Node14&#45;&gt;Node2 -->
<g id="edge30" class="edge"><title>Node14&#45;&gt;Node2</title>
<path fill="none" stroke="#9a32cd" stroke-dasharray="5,2" d="M341.695,-870.275C355.175,-880.131 372.497,-890.745 390,-895.834 437.799,-909.73 460.275,-922.979 502,-895.834 776.569,-717.209 804.107,-239.882 806.734,-166.39"/>
<polygon fill="#9a32cd" stroke="#9a32cd" points="343.503,-867.253 333.428,-863.974 339.259,-872.82 343.503,-867.253"/>
<text text-anchor="middle" x="568" y="-972.834" font-family="Helvetica,sans-Serif" font-size="10.00"> Cb_old_</text>
<text text-anchor="middle" x="568" y="-961.834" font-family="Helvetica,sans-Serif" font-size="10.00">Ca_old_</text>
<text text-anchor="middle" x="568" y="-950.834" font-family="Helvetica,sans-Serif" font-size="10.00">diag_temp_</text>
<text text-anchor="middle" x="568" y="-939.834" font-family="Helvetica,sans-Serif" font-size="10.00">X_</text>
<text text-anchor="middle" x="568" y="-928.834" font-family="Helvetica,sans-Serif" font-size="10.00">V_</text>
<text text-anchor="middle" x="568" y="-917.834" font-family="Helvetica,sans-Serif" font-size="10.00">T_</text>
<text text-anchor="start" x="536" y="-906.834" font-family="Helvetica,sans-Serif" font-size="10.00">diag_F_temp</text>
<text text-anchor="middle" x="568" y="-895.834" font-family="Helvetica,sans-Serif" font-size="10.00">_</text>
<text text-anchor="middle" x="568" y="-884.834" font-family="Helvetica,sans-Serif" font-size="10.00">diag_C_temp_</text>
</g>
<!-- Node14&#45;&gt;Node1 -->
<g id="edge36" class="edge"><title>Node14&#45;&gt;Node1</title>
<path fill="none" stroke="#9a32cd" stroke-dasharray="5,2" d="M337.318,-871.237C351.447,-885.349 370.849,-903.376 390,-916.834 475.821,-977.143 514.612,-1011.72 616,-984.834 742.395,-951.316 871.108,-851.808 909.518,-820.427"/>
<polygon fill="#9a32cd" stroke="#9a32cd" points="339.556,-868.522 330.045,-863.854 334.569,-873.434 339.556,-868.522"/>
<text text-anchor="middle" x="695" y="-1090.83" font-family="Helvetica,sans-Serif" font-size="10.00"> Gb_</text>
<text text-anchor="middle" x="695" y="-1079.83" font-family="Helvetica,sans-Serif" font-size="10.00">Ga_</text>
<text text-anchor="middle" x="695" y="-1068.83" font-family="Helvetica,sans-Serif" font-size="10.00">Kb_</text>
<text text-anchor="middle" x="695" y="-1057.83" font-family="Helvetica,sans-Serif" font-size="10.00">Ka_</text>
<text text-anchor="middle" x="695" y="-1046.83" font-family="Helvetica,sans-Serif" font-size="10.00">Dt_old_</text>
<text text-anchor="middle" x="695" y="-1035.83" font-family="Helvetica,sans-Serif" font-size="10.00">soFeff_</text>
<text text-anchor="middle" x="695" y="-1024.83" font-family="Helvetica,sans-Serif" font-size="10.00">Ct_</text>
<text text-anchor="middle" x="695" y="-1013.83" font-family="Helvetica,sans-Serif" font-size="10.00">Dt_</text>
<text text-anchor="middle" x="695" y="-1002.83" font-family="Helvetica,sans-Serif" font-size="10.00">Feff_</text>
<text text-anchor="middle" x="695" y="-991.834" font-family="Helvetica,sans-Serif" font-size="10.00">moFb_</text>
<text text-anchor="middle" x="695" y="-980.834" font-family="Helvetica,sans-Serif" font-size="10.00">...</text>
</g>
<!-- Node15&#45;&gt;Node3 -->
<g id="edge21" class="edge"><title>Node15&#45;&gt;Node3</title>
<path fill="none" stroke="#9a32cd" stroke-dasharray="5,2" d="M374.453,-687.893C421.388,-689.128 482.553,-687.603 502,-672.834 560.297,-628.561 566.55,-528.332 567.033,-496.636"/>
<polygon fill="#9a32cd" stroke="#9a32cd" points="374.478,-684.392 364.374,-687.58 374.261,-691.389 374.478,-684.392"/>
<text text-anchor="middle" x="446" y="-691.834" font-family="Helvetica,sans-Serif" font-size="10.00"> molecule_</text>
</g>
<!-- Node16 -->
<g id="node16" class="node"><title>Node16</title>
<polygon fill="none" stroke="#bfbfbf" points="294.5,-146.334 294.5,-165.334 335.5,-165.334 335.5,-146.334 294.5,-146.334"/>
<text text-anchor="middle" x="315" y="-153.334" font-family="Helvetica,sans-Serif" font-size="10.00">string</text>
</g>
<!-- Node16&#45;&gt;Node3 -->
<g id="edge23" class="edge"><title>Node16&#45;&gt;Node3</title>
<path fill="none" stroke="#9a32cd" stroke-dasharray="5,2" d="M345.458,-160.471C397.186,-168.673 499.177,-185.131 502,-187.834 545.363,-229.343 562.822,-430.591 566.318,-477.188"/>
<polygon fill="#9a32cd" stroke="#9a32cd" points="345.956,-157.007 335.532,-158.901 344.862,-163.921 345.956,-157.007"/>
<text text-anchor="middle" x="446" y="-190.834" font-family="Helvetica,sans-Serif" font-size="10.00"> name_</text>
</g>
<!-- Node16&#45;&gt;Node2 -->
<g id="edge31" class="edge"><title>Node16&#45;&gt;Node2</title>
<path fill="none" stroke="#9a32cd" stroke-dasharray="5,2" d="M345.71,-155.895C432.122,-156.07 682.957,-156.581 773.723,-156.766"/>
<polygon fill="#9a32cd" stroke="#9a32cd" points="345.558,-152.394 335.551,-155.874 345.544,-159.394 345.558,-152.394"/>
<text text-anchor="middle" x="568" y="-159.834" font-family="Helvetica,sans-Serif" font-size="10.00"> scf_type_</text>
</g>
<!-- Node16&#45;&gt;Node20 -->
<g id="edge35" class="edge"><title>Node16&#45;&gt;Node20</title>
<path fill="none" stroke="#9a32cd" stroke-dasharray="5,2" d="M345.453,-144.441C358.87,-139.627 375.06,-134.336 390,-130.834 440.42,-119.013 500.381,-112.402 535.978,-109.233"/>
<polygon fill="#9a32cd" stroke="#9a32cd" points="343.978,-141.254 335.801,-147.991 346.394,-147.824 343.978,-141.254"/>
<text text-anchor="middle" x="446" y="-133.834" font-family="Helvetica,sans-Serif" font-size="10.00"> name_</text>
</g>
<!-- Node17&#45;&gt;Node3 -->
<g id="edge24" class="edge"><title>Node17&#45;&gt;Node3</title>
<path fill="none" stroke="#9a32cd" stroke-dasharray="5,2" d="M360.377,-617.025C370.036,-613.332 380.276,-609.715 390,-606.834 438.723,-592.399 459.816,-612.169 502,-583.834 535.151,-561.567 555.772,-516.129 563.516,-496.368"/>
<polygon fill="#9a32cd" stroke="#9a32cd" points="358.986,-613.811 350.953,-620.719 361.541,-620.328 358.986,-613.811"/>
<text text-anchor="middle" x="446" y="-664.834" font-family="Helvetica,sans-Serif" font-size="10.00"> frequencies_</text>
<text text-anchor="start" x="399.5" y="-653.834" font-family="Helvetica,sans-Serif" font-size="10.00">CIM_orbital_energies</text>
<text text-anchor="middle" x="446" y="-642.834" font-family="Helvetica,sans-Serif" font-size="10.00">_</text>
<text text-anchor="middle" x="446" y="-631.834" font-family="Helvetica,sans-Serif" font-size="10.00">epsilon_b_</text>
<text text-anchor="middle" x="446" y="-620.834" font-family="Helvetica,sans-Serif" font-size="10.00">epsilon_a_</text>
<text text-anchor="middle" x="446" y="-609.834" font-family="Helvetica,sans-Serif" font-size="10.00">CIM_orbital_factors_</text>
</g>
<!-- Node18&#45;&gt;Node2 -->
<g id="edge26" class="edge"><title>Node18&#45;&gt;Node2</title>
<path fill="none" stroke="#9a32cd" stroke-dasharray="5,2" d="M505.275,-51.9578C570.799,-42.8465 678.188,-37.5384 756,-81.834 781.863,-96.557 797.336,-130.42 803.663,-147.137"/>
<polygon fill="#9a32cd" stroke="#9a32cd" points="504.516,-48.5316 495.13,-53.4457 505.532,-55.4575 504.516,-48.5316"/>
<text text-anchor="middle" x="568" y="-53.834" font-family="Helvetica,sans-Serif" font-size="10.00"> jk_</text>
</g>
<!-- Node19&#45;&gt;Node2 -->
<g id="edge28" class="edge"><title>Node19&#45;&gt;Node2</title>
<path fill="none" stroke="#9a32cd" stroke-dasharray="5,2" d="M508.647,-6.56022C575.894,3.20563 683.592,7.82736 756,-43.834 791.393,-69.086 802.685,-124.843 805.874,-147.242"/>
<polygon fill="#9a32cd" stroke="#9a32cd" points="507.974,-3.12235 498.62,-8.09795 509.036,-10.0414 507.974,-3.12235"/>
<text text-anchor="middle" x="568" y="-7.834" font-family="Helvetica,sans-Serif" font-size="10.00"> diis_manager_</text>
</g>
<!-- Node20&#45;&gt;Node2 -->
<g id="edge32" class="edge"><title>Node20&#45;&gt;Node2</title>
<path fill="none" stroke="#9a32cd" stroke-dasharray="5,2" d="M609.839,-94.8716C649.13,-85.6584 709.29,-77.7068 756,-98.834 777.991,-108.78 794.271,-133.414 801.999,-147.164"/>
<polygon fill="#9a32cd" stroke="#9a32cd" points="608.942,-91.488 600.075,-97.2879 610.623,-98.283 608.942,-91.488"/>
<text text-anchor="start" x="634.5" y="-134.834" font-family="Helvetica,sans-Serif" font-size="10.00"> nuclear_dipole_contribution</text>
<text text-anchor="middle" x="695" y="-123.834" font-family="Helvetica,sans-Serif" font-size="10.00">_</text>
<text text-anchor="start" x="634.5" y="-112.834" font-family="Helvetica,sans-Serif" font-size="10.00">nuclear_quadrupole</text>
<text text-anchor="middle" x="695" y="-101.834" font-family="Helvetica,sans-Serif" font-size="10.00">_contribution_</text>
</g>
<!-- Node21 -->
<g id="node21" class="node"><title>Node21</title>
<g id="a_node21"><a xlink:href="classpsi_1_1Serializable.html" target="_top" xlink:title="psi::Serializable">
<polygon fill="none" stroke="black" points="272,-91.334 272,-110.334 358,-110.334 358,-91.334 272,-91.334"/>
<text text-anchor="middle" x="315" y="-98.334" font-family="Helvetica,sans-Serif" font-size="10.00">psi::Serializable</text>
</a>
</g>
</g>
<!-- Node21&#45;&gt;Node20 -->
<g id="edge33" class="edge"><title>Node21&#45;&gt;Node20</title>
<path fill="none" stroke="midnightblue" d="M368.114,-102.08C418.782,-103.291 494.05,-105.09 535.963,-106.092"/>
<polygon fill="midnightblue" stroke="midnightblue" points="368.093,-98.5783 358.012,-101.838 367.925,-105.576 368.093,-98.5783"/>
</g>
</g>
</svg>
