<?xml version="1.0" encoding="UTF-8" standalone="no"?>
<!DOCTYPE svg PUBLIC "-//W3C//DTD SVG 1.1//EN"
 "http://www.w3.org/Graphics/SVG/1.1/DTD/svg11.dtd">
<!-- Generated by graphviz version 2.30.1 (20140110.0959)
 -->
<!-- Title: psi::Tensor::slice Pages: 1 -->
<svg width="262pt" height="142pt"
 viewBox="0.00 0.00 262.00 142.00" xmlns="http://www.w3.org/2000/svg" xmlns:xlink="http://www.w3.org/1999/xlink">
<g id="graph0" class="graph" transform="scale(1 1) rotate(0) translate(4 138)">
<title>psi::Tensor::slice</title>
<!-- Node1 -->
<g id="node1" class="node"><title>Node1</title>
<polygon fill="#bfbfbf" stroke="black" points="0,-57.5 0,-76.5 92,-76.5 92,-57.5 0,-57.5"/>
<text text-anchor="middle" x="46" y="-64.5" font-family="Helvetica,sans-Serif" font-size="10.00">psi::Tensor::slice</text>
</g>
<!-- Node2 -->
<g id="node2" class="node"><title>Node2</title>
<g id="a_node2"><a xlink:href="classpsi_1_1Tensor.html#ad570605820228b219485d2f4527b09d4" target="_top" xlink:title="Is this a disk tensor?">
<polygon fill="none" stroke="black" points="146.5,-114.5 146.5,-133.5 235.5,-133.5 235.5,-114.5 146.5,-114.5"/>
<text text-anchor="middle" x="191" y="-121.5" font-family="Helvetica,sans-Serif" font-size="10.00">psi::Tensor::disk</text>
</a>
</g>
</g>
<!-- Node1&#45;&gt;Node2 -->
<g id="edge1" class="edge"><title>Node1&#45;&gt;Node2</title>
<path fill="none" stroke="midnightblue" d="M65.3357,-76.5133C81.5454,-84.7021 105.971,-96.506 128,-105 133.653,-107.179 139.668,-109.282 145.645,-111.244"/>
<polygon fill="midnightblue" stroke="midnightblue" points="145.004,-114.713 155.594,-114.402 147.122,-108.041 145.004,-114.713"/>
</g>
<!-- Node3 -->
<g id="node3" class="node"><title>Node3</title>
<g id="a_node3"><a xlink:href="classpsi_1_1Tensor.html#af06937b94d37be5ab4a5f236fe3ceb50" target="_top" xlink:title="Throw an exception if the tensor is swapped out or disk based.">
<polygon fill="none" stroke="black" points="128,-76.5 128,-95.5 254,-95.5 254,-76.5 128,-76.5"/>
<text text-anchor="middle" x="191" y="-83.5" font-family="Helvetica,sans-Serif" font-size="10.00">psi::Tensor::swap_check</text>
</a>
</g>
</g>
<!-- Node1&#45;&gt;Node3 -->
<g id="edge2" class="edge"><title>Node1&#45;&gt;Node3</title>
<path fill="none" stroke="midnightblue" d="M92.2461,-73.0117C100.362,-74.0901 109.002,-75.2381 117.659,-76.3882"/>
<polygon fill="midnightblue" stroke="midnightblue" points="117.424,-79.8877 127.798,-77.7354 118.346,-72.9487 117.424,-79.8877"/>
</g>
<!-- Node4 -->
<g id="node4" class="node"><title>Node4</title>
<g id="a_node4"><a xlink:href="classpsi_1_1Tensor.html#a8cbc7af7476ebe30795dcbfd8e6f2305" target="_top" xlink:title="Access the data pointer.">
<polygon fill="none" stroke="black" points="140.5,-38.5 140.5,-57.5 241.5,-57.5 241.5,-38.5 140.5,-38.5"/>
<text text-anchor="middle" x="191" y="-45.5" font-family="Helvetica,sans-Serif" font-size="10.00">psi::Tensor::pointer</text>
</a>
</g>
</g>
<!-- Node1&#45;&gt;Node4 -->
<g id="edge3" class="edge"><title>Node1&#45;&gt;Node4</title>
<path fill="none" stroke="midnightblue" d="M92.2461,-60.9883C104.32,-59.3841 117.553,-57.6258 130.275,-55.9354"/>
<polygon fill="midnightblue" stroke="midnightblue" points="130.885,-59.3853 140.337,-54.5986 129.963,-52.4463 130.885,-59.3853"/>
</g>
<!-- Node5 -->
<g id="node5" class="node"><title>Node5</title>
<g id="a_node5"><a xlink:href="classpsi_1_1Tensor.html#ac011d67acc169dd9087b4d6e97d4798e" target="_top" xlink:title="Access the file pointer.">
<polygon fill="none" stroke="black" points="131.5,-0.5 131.5,-19.5 250.5,-19.5 250.5,-0.5 131.5,-0.5"/>
<text text-anchor="middle" x="191" y="-7.5" font-family="Helvetica,sans-Serif" font-size="10.00">psi::Tensor::file_pointer</text>
</a>
</g>
</g>
<!-- Node1&#45;&gt;Node5 -->
<g id="edge4" class="edge"><title>Node1&#45;&gt;Node5</title>
<path fill="none" stroke="midnightblue" d="M65.3357,-57.4867C81.5454,-49.2979 105.971,-37.494 128,-29 133.653,-26.8205 139.668,-24.7178 145.645,-22.7558"/>
<polygon fill="midnightblue" stroke="midnightblue" points="147.122,-25.9592 155.594,-19.5982 145.004,-19.2871 147.122,-25.9592"/>
</g>
</g>
</svg>
