<?xml version="1.0" encoding="UTF-8" standalone="no"?>
<!DOCTYPE svg PUBLIC "-//W3C//DTD SVG 1.1//EN"
 "http://www.w3.org/Graphics/SVG/1.1/DTD/svg11.dtd">
<!-- Generated by graphviz version 2.30.1 (20140110.0959)
 -->
<!-- Title: yeti::Vector::Vector Pages: 1 -->
<svg width="254pt" height="104pt"
 viewBox="0.00 0.00 254.00 104.00" xmlns="http://www.w3.org/2000/svg" xmlns:xlink="http://www.w3.org/1999/xlink">
<g id="graph0" class="graph" transform="scale(1 1) rotate(0) translate(4 100)">
<title>yeti::Vector::Vector</title>
<!-- Node1 -->
<g id="node1" class="node"><title>Node1</title>
<polygon fill="#bfbfbf" stroke="black" points="0.5,-38.5 0.5,-57.5 101.5,-57.5 101.5,-38.5 0.5,-38.5"/>
<text text-anchor="middle" x="51" y="-45.5" font-family="Helvetica,sans-Serif" font-size="10.00">yeti::Vector::Vector</text>
</g>
<!-- Node2 -->
<g id="node2" class="node"><title>Node2</title>
<g id="a_node2"><a xlink:href="classyeti_1_1Vector.html#a3a51e938bbdf77e2a14f03b8157cb85e" target="_top" xlink:title="yeti::Vector::add">
<polygon fill="none" stroke="black" points="147.5,-76.5 147.5,-95.5 236.5,-95.5 236.5,-76.5 147.5,-76.5"/>
<text text-anchor="middle" x="192" y="-83.5" font-family="Helvetica,sans-Serif" font-size="10.00">yeti::Vector::add</text>
</a>
</g>
</g>
<!-- Node1&#45;&gt;Node2 -->
<g id="edge1" class="edge"><title>Node1&#45;&gt;Node2</title>
<path fill="none" stroke="midnightblue" d="M96.7953,-60.2462C115.955,-65.484 137.994,-71.5091 155.936,-76.4141"/>
<polygon fill="midnightblue" stroke="midnightblue" points="97.6446,-56.85 87.0756,-57.589 95.7986,-63.6022 97.6446,-56.85"/>
</g>
<!-- Node3 -->
<g id="node3" class="node"><title>Node3</title>
<g id="a_node3"><a xlink:href="classyeti_1_1Vector.html#a4cb5783dcde769be15f515372919893f" target="_top" xlink:title="yeti::Vector::subtract">
<polygon fill="none" stroke="black" points="138,-38.5 138,-57.5 246,-57.5 246,-38.5 138,-38.5"/>
<text text-anchor="middle" x="192" y="-45.5" font-family="Helvetica,sans-Serif" font-size="10.00">yeti::Vector::subtract</text>
</a>
</g>
</g>
<!-- Node1&#45;&gt;Node3 -->
<g id="edge2" class="edge"><title>Node1&#45;&gt;Node3</title>
<path fill="none" stroke="midnightblue" d="M111.808,-48C120.45,-48 129.296,-48 137.798,-48"/>
<polygon fill="midnightblue" stroke="midnightblue" points="111.79,-44.5001 101.79,-48 111.79,-51.5001 111.79,-44.5001"/>
</g>
<!-- Node4 -->
<g id="node4" class="node"><title>Node4</title>
<g id="a_node4"><a xlink:href="classyeti_1_1Vector.html#a7994b32be849b86de26e4f92f2b0eaa9" target="_top" xlink:title="yeti::Vector::mult">
<polygon fill="none" stroke="black" points="146,-0.5 146,-19.5 238,-19.5 238,-0.5 146,-0.5"/>
<text text-anchor="middle" x="192" y="-7.5" font-family="Helvetica,sans-Serif" font-size="10.00">yeti::Vector::mult</text>
</a>
</g>
</g>
<!-- Node1&#45;&gt;Node4 -->
<g id="edge3" class="edge"><title>Node1&#45;&gt;Node4</title>
<path fill="none" stroke="midnightblue" d="M96.7953,-35.7538C115.955,-30.516 137.994,-24.4909 155.936,-19.5859"/>
<polygon fill="midnightblue" stroke="midnightblue" points="95.7986,-32.3978 87.0756,-38.411 97.6446,-39.15 95.7986,-32.3978"/>
</g>
</g>
</svg>
