<?xml version="1.0" encoding="UTF-8" standalone="no"?>
<!DOCTYPE svg PUBLIC "-//W3C//DTD SVG 1.1//EN"
 "http://www.w3.org/Graphics/SVG/1.1/DTD/svg11.dtd">
<!-- Generated by graphviz version 2.30.1 (20140110.0959)
 -->
<!-- Title: yeti::ConfigureElementComputerAndSortBranchRetrieve Pages: 1 -->
<svg width="319pt" height="108pt"
 viewBox="0.00 0.00 319.00 108.00" xmlns="http://www.w3.org/2000/svg" xmlns:xlink="http://www.w3.org/1999/xlink">
<g id="graph0" class="graph" transform="scale(1 1) rotate(0) translate(4 104)">
<title>yeti::ConfigureElementComputerAndSortBranchRetrieve</title>
<!-- Node1 -->
<g id="node1" class="node"><title>Node1</title>
<polygon fill="#bfbfbf" stroke="black" points="81.5,-1 81.5,-31 240.5,-31 240.5,-1 81.5,-1"/>
<text text-anchor="start" x="89.5" y="-19" font-family="Helvetica,sans-Serif" font-size="10.00">yeti::ConfigureElementComputer</text>
<text text-anchor="middle" x="161" y="-8" font-family="Helvetica,sans-Serif" font-size="10.00">AndSortBranchRetrieve</text>
</g>
<!-- Node2 -->
<g id="node2" class="node"><title>Node2</title>
<g id="a_node2"><a xlink:href="classyeti_1_1ConfigureElementComputerRetrieve.html" target="_top" xlink:title="yeti::ConfigureElementComputer\lRetrieve">
<polygon fill="none" stroke="black" points="-0.5,-69 -0.5,-99 158.5,-99 158.5,-69 -0.5,-69"/>
<text text-anchor="start" x="7.5" y="-87" font-family="Helvetica,sans-Serif" font-size="10.00">yeti::ConfigureElementComputer</text>
<text text-anchor="middle" x="79" y="-76" font-family="Helvetica,sans-Serif" font-size="10.00">Retrieve</text>
</a>
</g>
</g>
<!-- Node2&#45;&gt;Node1 -->
<g id="edge1" class="edge"><title>Node2&#45;&gt;Node1</title>
<path fill="none" stroke="#8b1a1a" d="M104.706,-62.3094C117.338,-52.1426 132.23,-40.1562 143.524,-31.0663"/>
<polygon fill="#8b1a1a" stroke="#8b1a1a" points="102.388,-59.6823 96.7928,-68.679 106.777,-65.1354 102.388,-59.6823"/>
</g>
<!-- Node3 -->
<g id="node3" class="node"><title>Node3</title>
<g id="a_node3"><a xlink:href="classyeti_1_1SortedBranchRetrieve.html" target="_top" xlink:title="yeti::SortedBranchRetrieve">
<polygon fill="none" stroke="black" points="177,-74.5 177,-93.5 311,-93.5 311,-74.5 177,-74.5"/>
<text text-anchor="middle" x="244" y="-81.5" font-family="Helvetica,sans-Serif" font-size="10.00">yeti::SortedBranchRetrieve</text>
</a>
</g>
</g>
<!-- Node3&#45;&gt;Node1 -->
<g id="edge2" class="edge"><title>Node3&#45;&gt;Node1</title>
<path fill="none" stroke="#8b1a1a" d="M225.22,-68.0662C211.32,-57.0132 192.504,-42.0515 178.834,-31.1815"/>
<polygon fill="#8b1a1a" stroke="#8b1a1a" points="223.144,-70.8872 233.149,-74.3717 227.501,-65.4082 223.144,-70.8872"/>
</g>
</g>
</svg>
