<?xml version="1.0" encoding="UTF-8" standalone="no"?>
<!DOCTYPE svg PUBLIC "-//W3C//DTD SVG 1.1//EN"
 "http://www.w3.org/Graphics/SVG/1.1/DTD/svg11.dtd">
<!-- Generated by graphviz version 2.30.1 (20140110.0959)
 -->
<!-- Title: psi::RKSFunctions Pages: 1 -->
<svg width="210pt" height="366pt"
 viewBox="0.00 0.00 210.00 366.00" xmlns="http://www.w3.org/2000/svg" xmlns:xlink="http://www.w3.org/1999/xlink">
<g id="graph0" class="graph" transform="scale(1 1) rotate(0) translate(4 362)">
<title>psi::RKSFunctions</title>
<!-- Node1 -->
<g id="node1" class="node"><title>Node1</title>
<polygon fill="#bfbfbf" stroke="black" points="68.5,-0.5 68.5,-19.5 167.5,-19.5 167.5,-0.5 68.5,-0.5"/>
<text text-anchor="middle" x="118" y="-7.5" font-family="Helvetica,sans-Serif" font-size="10.00">psi::RKSFunctions</text>
</g>
<!-- Node2 -->
<g id="node2" class="node"><title>Node2</title>
<g id="a_node2"><a xlink:href="classpsi_1_1PointFunctions.html" target="_top" xlink:title="psi::PointFunctions">
<polygon fill="none" stroke="black" points="7.5,-58.5 7.5,-77.5 108.5,-77.5 108.5,-58.5 7.5,-58.5"/>
<text text-anchor="middle" x="58" y="-65.5" font-family="Helvetica,sans-Serif" font-size="10.00">psi::PointFunctions</text>
</a>
</g>
</g>
<!-- Node2&#45;&gt;Node1 -->
<g id="edge1" class="edge"><title>Node2&#45;&gt;Node1</title>
<path fill="none" stroke="midnightblue" d="M74.4989,-51.601C85.5522,-41.2846 99.6951,-28.0846 108.802,-19.5852"/>
<polygon fill="midnightblue" stroke="midnightblue" points="72.0352,-49.1129 67.1127,-58.4948 76.8114,-54.2303 72.0352,-49.1129"/>
</g>
<!-- Node3 -->
<g id="node3" class="node"><title>Node3</title>
<g id="a_node3"><a xlink:href="classpsi_1_1BasisFunctions.html" target="_top" xlink:title="psi::BasisFunctions">
<polygon fill="none" stroke="black" points="6.5,-170.5 6.5,-189.5 109.5,-189.5 109.5,-170.5 6.5,-170.5"/>
<text text-anchor="middle" x="58" y="-177.5" font-family="Helvetica,sans-Serif" font-size="10.00">psi::BasisFunctions</text>
</a>
</g>
</g>
<!-- Node3&#45;&gt;Node2 -->
<g id="edge2" class="edge"><title>Node3&#45;&gt;Node2</title>
<path fill="none" stroke="midnightblue" d="M58,-160.348C58,-136.254 58,-95.3079 58,-77.5914"/>
<polygon fill="midnightblue" stroke="midnightblue" points="54.5001,-160.368 58,-170.368 61.5001,-160.369 54.5001,-160.368"/>
</g>
<!-- Node4 -->
<g id="node4" class="node"><title>Node4</title>
<g id="a_node4"><a xlink:href="classboost_1_1shared__ptr.html" target="_top" xlink:title="boost::shared_ptr\&lt;\l psi::BasisSet \&gt;">
<polygon fill="none" stroke="black" points="0,-259 0,-289 98,-289 98,-259 0,-259"/>
<text text-anchor="start" x="8" y="-277" font-family="Helvetica,sans-Serif" font-size="10.00">boost::shared_ptr&lt;</text>
<text text-anchor="middle" x="49" y="-266" font-family="Helvetica,sans-Serif" font-size="10.00"> psi::BasisSet &gt;</text>
</a>
</g>
</g>
<!-- Node4&#45;&gt;Node3 -->
<g id="edge3" class="edge"><title>Node4&#45;&gt;Node3</title>
<path fill="none" stroke="#9a32cd" stroke-dasharray="5,2" d="M48.4685,-248.639C48.5255,-236.39 49.0887,-221.348 51,-208 51.8785,-201.864 53.6285,-195.114 55.1589,-189.898"/>
<polygon fill="#9a32cd" stroke="#9a32cd" points="44.9707,-248.997 48.5344,-258.975 51.9705,-248.953 44.9707,-248.997"/>
<text text-anchor="middle" x="71.5" y="-221.5" font-family="Helvetica,sans-Serif" font-size="10.00"> primary_</text>
</g>
<!-- Node5 -->
<g id="node5" class="node"><title>Node5</title>
<g id="a_node5"><a xlink:href="classboost_1_1shared__ptr.html" target="_top" xlink:title="boost::shared_ptr\&lt; T \&gt;">
<polygon fill="none" stroke="black" points="41,-338.5 41,-357.5 157,-357.5 157,-338.5 41,-338.5"/>
<text text-anchor="middle" x="99" y="-345.5" font-family="Helvetica,sans-Serif" font-size="10.00">boost::shared_ptr&lt; T &gt;</text>
</a>
</g>
</g>
<!-- Node5&#45;&gt;Node4 -->
<g id="edge4" class="edge"><title>Node5&#45;&gt;Node4</title>
<path fill="none" stroke="orange" stroke-dasharray="5,2" d="M62.5113,-333.53C57.1205,-329.954 52.2834,-325.505 49,-320 43.5571,-310.875 43.8973,-298.745 45.4121,-289.378"/>
<polygon fill="orange" stroke="orange" points="60.8605,-336.617 71.2946,-338.455 64.2843,-330.511 60.8605,-336.617"/>
<text text-anchor="middle" x="89" y="-311.5" font-family="Helvetica,sans-Serif" font-size="10.00"> &lt; psi::BasisSet &gt;</text>
</g>
<!-- Node6 -->
<g id="node6" class="node"><title>Node6</title>
<g id="a_node6"><a xlink:href="classboost_1_1shared__ptr.html" target="_top" xlink:title="boost::shared_ptr\&lt;\l psi::Matrix \&gt;">
<polygon fill="none" stroke="black" points="101,-209 101,-239 199,-239 199,-209 101,-209"/>
<text text-anchor="start" x="109" y="-227" font-family="Helvetica,sans-Serif" font-size="10.00">boost::shared_ptr&lt;</text>
<text text-anchor="middle" x="150" y="-216" font-family="Helvetica,sans-Serif" font-size="10.00"> psi::Matrix &gt;</text>
</a>
</g>
</g>
<!-- Node5&#45;&gt;Node6 -->
<g id="edge6" class="edge"><title>Node5&#45;&gt;Node6</title>
<path fill="none" stroke="orange" stroke-dasharray="5,2" d="M119.393,-331.85C123.047,-328.317 126.486,-324.313 129,-320 144.057,-294.171 148.332,-258.644 149.536,-239.178"/>
<polygon fill="orange" stroke="orange" points="117.103,-329.203 111.819,-338.387 121.676,-334.503 117.103,-329.203"/>
<text text-anchor="middle" x="168.5" y="-311.5" font-family="Helvetica,sans-Serif" font-size="10.00"> &lt; psi::Matrix &gt;</text>
</g>
<!-- Node6&#45;&gt;Node1 -->
<g id="edge5" class="edge"><title>Node6&#45;&gt;Node1</title>
<path fill="none" stroke="#9a32cd" stroke-dasharray="5,2" d="M146.351,-198.828C139.252,-151.793 123.875,-49.9221 119.306,-19.6508"/>
<polygon fill="#9a32cd" stroke="#9a32cd" points="142.897,-199.395 147.851,-208.761 149.819,-198.35 142.897,-199.395"/>
<text text-anchor="middle" x="159.5" y="-143.5" font-family="Helvetica,sans-Serif" font-size="10.00"> C_AO_</text>
<text text-anchor="middle" x="159.5" y="-132.5" font-family="Helvetica,sans-Serif" font-size="10.00">D_AO_</text>
<text text-anchor="middle" x="159.5" y="-121.5" font-family="Helvetica,sans-Serif" font-size="10.00">temp_</text>
<text text-anchor="middle" x="159.5" y="-110.5" font-family="Helvetica,sans-Serif" font-size="10.00">D_local_</text>
<text text-anchor="middle" x="159.5" y="-99.5" font-family="Helvetica,sans-Serif" font-size="10.00">C_local_</text>
</g>
</g>
</svg>
