<?xml version="1.0" encoding="UTF-8" standalone="no"?>
<!DOCTYPE svg PUBLIC "-//W3C//DTD SVG 1.1//EN"
 "http://www.w3.org/Graphics/SVG/1.1/DTD/svg11.dtd">
<!-- Generated by graphviz version 2.30.1 (20140110.0959)
 -->
<!-- Title: psi::PointGroup::PointGroup Pages: 1 -->
<svg width="298pt" height="77pt"
 viewBox="0.00 0.00 298.00 77.00" xmlns="http://www.w3.org/2000/svg" xmlns:xlink="http://www.w3.org/1999/xlink">
<g id="graph0" class="graph" transform="scale(1 1) rotate(0) translate(4 73)">
<title>psi::PointGroup::PointGroup</title>
<!-- Node1 -->
<g id="node1" class="node"><title>Node1</title>
<polygon fill="#bfbfbf" stroke="black" points="0.5,-22.5 0.5,-41.5 139.5,-41.5 139.5,-22.5 0.5,-22.5"/>
<text text-anchor="middle" x="70" y="-29.5" font-family="Helvetica,sans-Serif" font-size="10.00">psi::PointGroup::PointGroup</text>
</g>
<!-- Node2 -->
<g id="node2" class="node"><title>Node2</title>
<g id="a_node2"><a xlink:href="classpsi_1_1PointGroup.html#ac609c4b937ac9e5920275c2aab451b0f" target="_top" xlink:title="Sets (or resets) the Schoenflies symbol.">
<polygon fill="none" stroke="black" points="181,-39 181,-69 285,-69 285,-39 181,-39"/>
<text text-anchor="start" x="189" y="-57" font-family="Helvetica,sans-Serif" font-size="10.00">psi::PointGroup::set</text>
<text text-anchor="middle" x="233" y="-46" font-family="Helvetica,sans-Serif" font-size="10.00">_symbol</text>
</a>
</g>
</g>
<!-- Node1&#45;&gt;Node2 -->
<g id="edge1" class="edge"><title>Node1&#45;&gt;Node2</title>
<path fill="none" stroke="midnightblue" d="M139.745,-41.3938C150.002,-42.7952 160.518,-44.2322 170.609,-45.6112"/>
<polygon fill="midnightblue" stroke="midnightblue" points="170.151,-49.081 180.533,-46.9672 171.099,-42.1455 170.151,-49.081"/>
</g>
<!-- Node3 -->
<g id="node3" class="node"><title>Node3</title>
<g id="a_node3"><a xlink:href="classpsi_1_1PointGroup.html#a99b6c6c04fc986dc03fea00e84911e70" target="_top" xlink:title="psi::PointGroup::origin">
<polygon fill="none" stroke="black" points="176.5,-0.5 176.5,-19.5 289.5,-19.5 289.5,-0.5 176.5,-0.5"/>
<text text-anchor="middle" x="233" y="-7.5" font-family="Helvetica,sans-Serif" font-size="10.00">psi::PointGroup::origin</text>
</a>
</g>
</g>
<!-- Node1&#45;&gt;Node3 -->
<g id="edge2" class="edge"><title>Node1&#45;&gt;Node3</title>
<path fill="none" stroke="midnightblue" d="M139.745,-22.6062C148.469,-21.4142 157.38,-20.1966 166.057,-19.0108"/>
<polygon fill="midnightblue" stroke="midnightblue" points="166.678,-22.4586 176.112,-17.6369 165.73,-15.5231 166.678,-22.4586"/>
</g>
</g>
</svg>
