<?xml version="1.0" encoding="UTF-8" standalone="no"?>
<!DOCTYPE svg PUBLIC "-//W3C//DTD SVG 1.1//EN"
 "http://www.w3.org/Graphics/SVG/1.1/DTD/svg11.dtd">
<!-- Generated by graphviz version 2.30.1 (20140110.0959)
 -->
<!-- Title: psi::TDARHamiltonian Pages: 1 -->
<svg width="122pt" height="196pt"
 viewBox="0.00 0.00 122.00 196.00" xmlns="http://www.w3.org/2000/svg" xmlns:xlink="http://www.w3.org/1999/xlink">
<g id="graph0" class="graph" transform="scale(1 1) rotate(0) translate(4 192)">
<title>psi::TDARHamiltonian</title>
<!-- Node1 -->
<g id="node1" class="node"><title>Node1</title>
<polygon fill="#bfbfbf" stroke="black" points="-0.5,-0.5 -0.5,-19.5 114.5,-19.5 114.5,-0.5 -0.5,-0.5"/>
<text text-anchor="middle" x="57" y="-7.5" font-family="Helvetica,sans-Serif" font-size="10.00">psi::TDARHamiltonian</text>
</g>
<!-- Node2 -->
<g id="node2" class="node"><title>Node2</title>
<g id="a_node2"><a xlink:href="classpsi_1_1CISRHamiltonian.html" target="_top" xlink:title="psi::CISRHamiltonian">
<polygon fill="none" stroke="black" points="1,-56.5 1,-75.5 113,-75.5 113,-56.5 1,-56.5"/>
<text text-anchor="middle" x="57" y="-63.5" font-family="Helvetica,sans-Serif" font-size="10.00">psi::CISRHamiltonian</text>
</a>
</g>
</g>
<!-- Node2&#45;&gt;Node1 -->
<g id="edge1" class="edge"><title>Node2&#45;&gt;Node1</title>
<path fill="none" stroke="midnightblue" d="M57,-45.8045C57,-36.9102 57,-26.7798 57,-19.7511"/>
<polygon fill="midnightblue" stroke="midnightblue" points="53.5001,-46.083 57,-56.083 60.5001,-46.083 53.5001,-46.083"/>
</g>
<!-- Node3 -->
<g id="node3" class="node"><title>Node3</title>
<g id="a_node3"><a xlink:href="classpsi_1_1RHamiltonian.html" target="_top" xlink:title="psi::RHamiltonian">
<polygon fill="none" stroke="black" points="9.5,-112.5 9.5,-131.5 104.5,-131.5 104.5,-112.5 9.5,-112.5"/>
<text text-anchor="middle" x="57" y="-119.5" font-family="Helvetica,sans-Serif" font-size="10.00">psi::RHamiltonian</text>
</a>
</g>
</g>
<!-- Node3&#45;&gt;Node2 -->
<g id="edge2" class="edge"><title>Node3&#45;&gt;Node2</title>
<path fill="none" stroke="midnightblue" d="M57,-101.805C57,-92.9102 57,-82.7798 57,-75.7511"/>
<polygon fill="midnightblue" stroke="midnightblue" points="53.5001,-102.083 57,-112.083 60.5001,-102.083 53.5001,-102.083"/>
</g>
<!-- Node4 -->
<g id="node4" class="node"><title>Node4</title>
<g id="a_node4"><a xlink:href="classpsi_1_1Hamiltonian.html" target="_top" xlink:title="psi::Hamiltonian">
<polygon fill="none" stroke="black" points="13.5,-168.5 13.5,-187.5 100.5,-187.5 100.5,-168.5 13.5,-168.5"/>
<text text-anchor="middle" x="57" y="-175.5" font-family="Helvetica,sans-Serif" font-size="10.00">psi::Hamiltonian</text>
</a>
</g>
</g>
<!-- Node4&#45;&gt;Node3 -->
<g id="edge3" class="edge"><title>Node4&#45;&gt;Node3</title>
<path fill="none" stroke="midnightblue" d="M57,-157.805C57,-148.91 57,-138.78 57,-131.751"/>
<polygon fill="midnightblue" stroke="midnightblue" points="53.5001,-158.083 57,-168.083 60.5001,-158.083 53.5001,-158.083"/>
</g>
</g>
</svg>
