<?xml version="1.0" encoding="UTF-8" standalone="no"?>
<!DOCTYPE svg PUBLIC "-//W3C//DTD SVG 1.1//EN"
 "http://www.w3.org/Graphics/SVG/1.1/DTD/svg11.dtd">
<!-- Generated by graphviz version 2.30.1 (20140110.0959)
 -->
<!-- Title: psi::LimitExceeded::LimitExceeded Pages: 1 -->
<svg width="244pt" height="87pt"
 viewBox="0.00 0.00 244.00 87.00" xmlns="http://www.w3.org/2000/svg" xmlns:xlink="http://www.w3.org/1999/xlink">
<g id="graph0" class="graph" transform="scale(1 1) rotate(0) translate(4 83)">
<title>psi::LimitExceeded::LimitExceeded</title>
<!-- Node1 -->
<g id="node1" class="node"><title>Node1</title>
<polygon fill="#bfbfbf" stroke="black" points="0,-24 0,-54 100,-54 100,-24 0,-24"/>
<text text-anchor="start" x="8" y="-42" font-family="Helvetica,sans-Serif" font-size="10.00">psi::LimitExceeded</text>
<text text-anchor="middle" x="50" y="-31" font-family="Helvetica,sans-Serif" font-size="10.00">::LimitExceeded</text>
</g>
<!-- Node2 -->
<g id="node2" class="node"><title>Node2</title>
<g id="a_node2"><a xlink:href="classpsi_1_1PsiException.html#a6fd41d3ac47d28bdcffa087a51d40bcd" target="_top" xlink:title="psi::PsiException::\lrewrite_msg">
<polygon fill="none" stroke="black" points="136.5,-49 136.5,-79 235.5,-79 235.5,-49 136.5,-49"/>
<text text-anchor="start" x="144.5" y="-67" font-family="Helvetica,sans-Serif" font-size="10.00">psi::PsiException::</text>
<text text-anchor="middle" x="186" y="-56" font-family="Helvetica,sans-Serif" font-size="10.00">rewrite_msg</text>
</a>
</g>
</g>
<!-- Node1&#45;&gt;Node2 -->
<g id="edge1" class="edge"><title>Node1&#45;&gt;Node2</title>
<path fill="none" stroke="midnightblue" d="M100.136,-48.1671C108.618,-49.7497 117.513,-51.4091 126.219,-53.0335"/>
<polygon fill="midnightblue" stroke="midnightblue" points="125.846,-56.5241 136.318,-54.9175 127.129,-49.6428 125.846,-56.5241"/>
</g>
<!-- Node3 -->
<g id="node3" class="node"><title>Node3</title>
<g id="a_node3"><a xlink:href="classpsi_1_1LimitExceeded.html#aa6f1c34b52bef7e0cbecf9fd6450caf6" target="_top" xlink:title="psi::LimitExceeded\l::description">
<polygon fill="none" stroke="black" points="136,-0 136,-30 236,-30 236,-0 136,-0"/>
<text text-anchor="start" x="144" y="-18" font-family="Helvetica,sans-Serif" font-size="10.00">psi::LimitExceeded</text>
<text text-anchor="middle" x="186" y="-7" font-family="Helvetica,sans-Serif" font-size="10.00">::description</text>
</a>
</g>
</g>
<!-- Node1&#45;&gt;Node3 -->
<g id="edge2" class="edge"><title>Node1&#45;&gt;Node3</title>
<path fill="none" stroke="midnightblue" d="M100.136,-30.1996C108.511,-28.6995 117.288,-27.1276 125.889,-25.5871"/>
<polygon fill="midnightblue" stroke="midnightblue" points="126.644,-29.0076 135.87,-23.7994 125.41,-22.1173 126.644,-29.0076"/>
</g>
</g>
</svg>
