<?xml version="1.0" encoding="UTF-8" standalone="no"?>
<!DOCTYPE svg PUBLIC "-//W3C//DTD SVG 1.1//EN"
 "http://www.w3.org/Graphics/SVG/1.1/DTD/svg11.dtd">
<!-- Generated by graphviz version 2.30.1 (20140110.0959)
 -->
<!-- Title: psi::MOInfoSCF Pages: 1 -->
<svg width="98pt" height="154pt"
 viewBox="0.00 0.00 98.00 154.00" xmlns="http://www.w3.org/2000/svg" xmlns:xlink="http://www.w3.org/1999/xlink">
<g id="graph0" class="graph" transform="scale(1 1) rotate(0) translate(4 150)">
<title>psi::MOInfoSCF</title>
<!-- Node1 -->
<g id="node1" class="node"><title>Node1</title>
<polygon fill="#bfbfbf" stroke="black" points="1,-0.5 1,-19.5 89,-19.5 89,-0.5 1,-0.5"/>
<text text-anchor="middle" x="45" y="-7.5" font-family="Helvetica,sans-Serif" font-size="10.00">psi::MOInfoSCF</text>
</g>
<!-- Node2 -->
<g id="node2" class="node"><title>Node2</title>
<g id="a_node2"><a xlink:href="classpsi_1_1MOInfoBase.html" target="_top" xlink:title="psi::MOInfoBase">
<polygon fill="none" stroke="black" points="0,-58.5 0,-77.5 90,-77.5 90,-58.5 0,-58.5"/>
<text text-anchor="middle" x="45" y="-65.5" font-family="Helvetica,sans-Serif" font-size="10.00">psi::MOInfoBase</text>
</a>
</g>
</g>
<!-- Node2&#45;&gt;Node1 -->
<g id="edge1" class="edge"><title>Node2&#45;&gt;Node1</title>
<path fill="none" stroke="midnightblue" d="M45,-47.953C45,-38.2875 45,-27.0312 45,-19.5052"/>
<polygon fill="midnightblue" stroke="midnightblue" points="41.5001,-48.25 45,-58.25 48.5001,-48.25 41.5001,-48.25"/>
</g>
<!-- Node3 -->
<g id="node3" class="node"><title>Node3</title>
<g id="a_node3"><a xlink:href="classpsi_1_1Options.html" target="_top" xlink:title="psi::Options">
<polygon fill="none" stroke="black" points="10.5,-126.5 10.5,-145.5 79.5,-145.5 79.5,-126.5 10.5,-126.5"/>
<text text-anchor="middle" x="45" y="-133.5" font-family="Helvetica,sans-Serif" font-size="10.00">psi::Options</text>
</a>
</g>
</g>
<!-- Node3&#45;&gt;Node2 -->
<g id="edge2" class="edge"><title>Node3&#45;&gt;Node2</title>
<path fill="none" stroke="#9a32cd" stroke-dasharray="5,2" d="M45,-116.041C45,-103.472 45,-87.5631 45,-77.8411"/>
<polygon fill="#9a32cd" stroke="#9a32cd" points="41.5001,-116.372 45,-126.372 48.5001,-116.372 41.5001,-116.372"/>
<text text-anchor="middle" x="62.5" y="-99.5" font-family="Helvetica,sans-Serif" font-size="10.00"> options</text>
</g>
</g>
</svg>
