<?xml version="1.0" encoding="UTF-8" standalone="no"?>
<!DOCTYPE svg PUBLIC "-//W3C//DTD SVG 1.1//EN"
 "http://www.w3.org/Graphics/SVG/1.1/DTD/svg11.dtd">
<!-- Generated by graphviz version 2.30.1 (20140110.0959)
 -->
<!-- Title: psi::dcft::DCFTSolver::build_AO_tensors Pages: 1 -->
<svg width="514pt" height="142pt"
 viewBox="0.00 0.00 514.00 142.00" xmlns="http://www.w3.org/2000/svg" xmlns:xlink="http://www.w3.org/1999/xlink">
<g id="graph0" class="graph" transform="scale(1 1) rotate(0) translate(4 138)">
<title>psi::dcft::DCFTSolver::build_AO_tensors</title>
<!-- Node1 -->
<g id="node1" class="node"><title>Node1</title>
<polygon fill="#bfbfbf" stroke="black" points="0.5,-52 0.5,-82 113.5,-82 113.5,-52 0.5,-52"/>
<text text-anchor="start" x="8.5" y="-70" font-family="Helvetica,sans-Serif" font-size="10.00">psi::dcft::DCFTSolver</text>
<text text-anchor="middle" x="57" y="-59" font-family="Helvetica,sans-Serif" font-size="10.00">::build_AO_tensors</text>
</g>
<!-- Node2 -->
<g id="node2" class="node"><title>Node2</title>
<g id="a_node2"><a xlink:href="group__CIOMR.html#ga8847103aa5444911a3271169daf06294" target="_top" xlink:title="psi::init_int_matrix">
<polygon fill="none" stroke="black" points="155,-95.5 155,-114.5 251,-114.5 251,-95.5 155,-95.5"/>
<text text-anchor="middle" x="203" y="-102.5" font-family="Helvetica,sans-Serif" font-size="10.00">psi::init_int_matrix</text>
</a>
</g>
</g>
<!-- Node1&#45;&gt;Node2 -->
<g id="edge1" class="edge"><title>Node1&#45;&gt;Node2</title>
<path fill="none" stroke="midnightblue" d="M113.674,-81.6918C127.549,-85.3532 142.278,-89.24 155.649,-92.7685"/>
<polygon fill="midnightblue" stroke="midnightblue" points="155.011,-96.2197 165.573,-95.3872 156.797,-89.4514 155.011,-96.2197"/>
</g>
<!-- Node3 -->
<g id="node3" class="node"><title>Node3</title>
<g id="a_node3"><a xlink:href="classpsi_1_1DPD.html#a2147603515dcdd52230ab14507f9a6cb" target="_top" xlink:title="psi::DPD::buf4_scm">
<polygon fill="none" stroke="black" points="150,-57.5 150,-76.5 256,-76.5 256,-57.5 150,-57.5"/>
<text text-anchor="middle" x="203" y="-64.5" font-family="Helvetica,sans-Serif" font-size="10.00">psi::DPD::buf4_scm</text>
</a>
</g>
</g>
<!-- Node1&#45;&gt;Node3 -->
<g id="edge2" class="edge"><title>Node1&#45;&gt;Node3</title>
<path fill="none" stroke="midnightblue" d="M113.674,-67C122.207,-67 131.062,-67 139.727,-67"/>
<polygon fill="midnightblue" stroke="midnightblue" points="139.779,-70.5001 149.779,-67 139.779,-63.5001 139.779,-70.5001"/>
</g>
<!-- Node9 -->
<g id="node9" class="node"><title>Node9</title>
<g id="a_node9"><a xlink:href="group__CIOMR.html#ga745c4af9d06f1793980918e23565982e" target="_top" xlink:title="psi::free_int_matrix">
<polygon fill="none" stroke="black" points="153,-19.5 153,-38.5 253,-38.5 253,-19.5 153,-19.5"/>
<text text-anchor="middle" x="203" y="-26.5" font-family="Helvetica,sans-Serif" font-size="10.00">psi::free_int_matrix</text>
</a>
</g>
</g>
<!-- Node1&#45;&gt;Node9 -->
<g id="edge9" class="edge"><title>Node1&#45;&gt;Node9</title>
<path fill="none" stroke="midnightblue" d="M113.674,-52.3082C127.549,-48.6468 142.278,-44.76 155.649,-41.2315"/>
<polygon fill="midnightblue" stroke="midnightblue" points="156.797,-44.5486 165.573,-38.6128 155.011,-37.7803 156.797,-44.5486"/>
</g>
<!-- Node4 -->
<g id="node4" class="node"><title>Node4</title>
<g id="a_node4"><a xlink:href="group__QT.html#ga76e23a17ad31a5648f238a8ddce4d41a" target="_top" xlink:title="psi::timer_on">
<polygon fill="none" stroke="black" points="302.5,-114.5 302.5,-133.5 375.5,-133.5 375.5,-114.5 302.5,-114.5"/>
<text text-anchor="middle" x="339" y="-121.5" font-family="Helvetica,sans-Serif" font-size="10.00">psi::timer_on</text>
</a>
</g>
</g>
<!-- Node3&#45;&gt;Node4 -->
<g id="edge3" class="edge"><title>Node3&#45;&gt;Node4</title>
<path fill="none" stroke="midnightblue" d="M232.344,-76.5693C240.098,-79.3997 248.446,-82.6448 256,-86 272.534,-93.3435 275.621,-97.316 292,-105 295.872,-106.817 299.967,-108.641 304.053,-110.402"/>
<polygon fill="midnightblue" stroke="midnightblue" points="302.889,-113.71 313.463,-114.364 305.605,-107.258 302.889,-113.71"/>
</g>
<!-- Node6 -->
<g id="node6" class="node"><title>Node6</title>
<g id="a_node6"><a xlink:href="group__PSIO.html#gabb84738717252302864b0da5f6f65f9d" target="_top" xlink:title="psi::psio_tocscan">
<polygon fill="none" stroke="black" points="292.5,-76.5 292.5,-95.5 385.5,-95.5 385.5,-76.5 292.5,-76.5"/>
<text text-anchor="middle" x="339" y="-83.5" font-family="Helvetica,sans-Serif" font-size="10.00">psi::psio_tocscan</text>
</a>
</g>
</g>
<!-- Node3&#45;&gt;Node6 -->
<g id="edge5" class="edge"><title>Node3&#45;&gt;Node6</title>
<path fill="none" stroke="midnightblue" d="M256.192,-74.4003C264.748,-75.6135 273.644,-76.8749 282.282,-78.0997"/>
<polygon fill="midnightblue" stroke="midnightblue" points="281.876,-81.577 292.268,-79.5157 282.859,-74.6464 281.876,-81.577"/>
</g>
<!-- Node7 -->
<g id="node7" class="node"><title>Node7</title>
<g id="a_node7"><a xlink:href="group__QT.html#gaed877a653f8542c11a21987ae0f1e160" target="_top" xlink:title="psi::C_DSCAL">
<polygon fill="none" stroke="black" points="298,-38.5 298,-57.5 380,-57.5 380,-38.5 298,-38.5"/>
<text text-anchor="middle" x="339" y="-45.5" font-family="Helvetica,sans-Serif" font-size="10.00">psi::C_DSCAL</text>
</a>
</g>
</g>
<!-- Node3&#45;&gt;Node7 -->
<g id="edge6" class="edge"><title>Node3&#45;&gt;Node7</title>
<path fill="none" stroke="midnightblue" d="M256.192,-59.5997C266.553,-58.1305 277.412,-56.5908 287.709,-55.1309"/>
<polygon fill="midnightblue" stroke="midnightblue" points="288.369,-58.5723 297.779,-53.703 287.386,-51.6417 288.369,-58.5723"/>
</g>
<!-- Node8 -->
<g id="node8" class="node"><title>Node8</title>
<g id="a_node8"><a xlink:href="group__QT.html#gae1479e3f831fb539222f1ba2c5fa0452" target="_top" xlink:title="psi::timer_off">
<polygon fill="none" stroke="black" points="302,-0.5 302,-19.5 376,-19.5 376,-0.5 302,-0.5"/>
<text text-anchor="middle" x="339" y="-7.5" font-family="Helvetica,sans-Serif" font-size="10.00">psi::timer_off</text>
</a>
</g>
</g>
<!-- Node3&#45;&gt;Node8 -->
<g id="edge7" class="edge"><title>Node3&#45;&gt;Node8</title>
<path fill="none" stroke="midnightblue" d="M232.344,-57.4307C240.098,-54.6003 248.446,-51.3552 256,-48 272.534,-40.6565 275.621,-36.684 292,-29 295.872,-27.1834 299.967,-25.359 304.053,-23.5976"/>
<polygon fill="midnightblue" stroke="midnightblue" points="305.605,-26.7417 313.463,-19.6357 302.889,-20.2902 305.605,-26.7417"/>
</g>
<!-- Node5 -->
<g id="node5" class="node"><title>Node5</title>
<g id="a_node5"><a xlink:href="group__QT.html#ga86ba9a6fa70806080a0e81eb75a32f73" target="_top" xlink:title="psi::timer_scan">
<polygon fill="none" stroke="black" points="422.5,-57.5 422.5,-76.5 505.5,-76.5 505.5,-57.5 422.5,-57.5"/>
<text text-anchor="middle" x="464" y="-64.5" font-family="Helvetica,sans-Serif" font-size="10.00">psi::timer_scan</text>
</a>
</g>
</g>
<!-- Node4&#45;&gt;Node5 -->
<g id="edge4" class="edge"><title>Node4&#45;&gt;Node5</title>
<path fill="none" stroke="midnightblue" d="M364.005,-114.439C371.127,-111.507 378.916,-108.207 386,-105 402.599,-97.4861 420.901,-88.4848 435.495,-81.1293"/>
<polygon fill="midnightblue" stroke="midnightblue" points="437.159,-84.2098 444.495,-76.5656 433.993,-77.9666 437.159,-84.2098"/>
</g>
<!-- Node8&#45;&gt;Node5 -->
<g id="edge8" class="edge"><title>Node8&#45;&gt;Node5</title>
<path fill="none" stroke="midnightblue" d="M364.005,-19.561C371.127,-22.4927 378.916,-25.7931 386,-29 402.599,-36.5139 420.901,-45.5152 435.495,-52.8707"/>
<polygon fill="midnightblue" stroke="midnightblue" points="433.993,-56.0334 444.495,-57.4344 437.159,-49.7902 433.993,-56.0334"/>
</g>
</g>
</svg>
