<?xml version="1.0" encoding="UTF-8" standalone="no"?>
<!DOCTYPE svg PUBLIC "-//W3C//DTD SVG 1.1//EN"
 "http://www.w3.org/Graphics/SVG/1.1/DTD/svg11.dtd">
<!-- Generated by graphviz version 2.30.1 (20140110.0959)
 -->
<!-- Title: yeti::TensorSymmetryFilter Pages: 1 -->
<svg width="206pt" height="212pt"
 viewBox="0.00 0.00 206.00 212.00" xmlns="http://www.w3.org/2000/svg" xmlns:xlink="http://www.w3.org/1999/xlink">
<g id="graph0" class="graph" transform="scale(1 1) rotate(0) translate(4 208)">
<title>yeti::TensorSymmetryFilter</title>
<!-- Node1 -->
<g id="node1" class="node"><title>Node1</title>
<polygon fill="#bfbfbf" stroke="black" points="-0.5,-0.5 -0.5,-19.5 134.5,-19.5 134.5,-0.5 -0.5,-0.5"/>
<text text-anchor="middle" x="67" y="-7.5" font-family="Helvetica,sans-Serif" font-size="10.00">yeti::TensorSymmetryFilter</text>
</g>
<!-- Node2 -->
<g id="node2" class="node"><title>Node2</title>
<g id="a_node2"><a xlink:href="classyeti_1_1TensorElementFilter.html" target="_top" xlink:title="yeti::TensorElementFilter">
<polygon fill="none" stroke="black" points="4,-58.5 4,-77.5 130,-77.5 130,-58.5 4,-58.5"/>
<text text-anchor="middle" x="67" y="-65.5" font-family="Helvetica,sans-Serif" font-size="10.00">yeti::TensorElementFilter</text>
</a>
</g>
</g>
<!-- Node2&#45;&gt;Node1 -->
<g id="edge1" class="edge"><title>Node2&#45;&gt;Node1</title>
<path fill="none" stroke="midnightblue" d="M67,-47.953C67,-38.2875 67,-27.0312 67,-19.5052"/>
<polygon fill="midnightblue" stroke="midnightblue" points="63.5001,-48.25 67,-58.25 70.5001,-48.25 63.5001,-48.25"/>
</g>
<!-- Node3 -->
<g id="node3" class="node"><title>Node3</title>
<g id="a_node3"><a xlink:href="classsmartptr_1_1Countable.html" target="_top" xlink:title="smartptr::Countable">
<polygon fill="none" stroke="black" points="27.5,-184.5 27.5,-203.5 130.5,-203.5 130.5,-184.5 27.5,-184.5"/>
<text text-anchor="middle" x="79" y="-191.5" font-family="Helvetica,sans-Serif" font-size="10.00">smartptr::Countable</text>
</a>
</g>
</g>
<!-- Node3&#45;&gt;Node2 -->
<g id="edge2" class="edge"><title>Node3&#45;&gt;Node2</title>
<path fill="none" stroke="midnightblue" d="M74.7612,-174.352C72.9817,-165.765 71.0783,-155.412 70,-146 67.1677,-121.278 66.8674,-91.8325 66.9149,-77.5778"/>
<polygon fill="midnightblue" stroke="midnightblue" points="71.401,-175.371 76.9493,-184.397 78.2406,-173.882 71.401,-175.371"/>
</g>
<!-- Node4 -->
<g id="node4" class="node"><title>Node4</title>
<g id="a_node4"><a xlink:href="classyeti_1_1TensorIndexDescr.html" target="_top" xlink:title="yeti::TensorIndexDescr">
<polygon fill="none" stroke="black" points="79.5,-126.5 79.5,-145.5 198.5,-145.5 198.5,-126.5 79.5,-126.5"/>
<text text-anchor="middle" x="139" y="-133.5" font-family="Helvetica,sans-Serif" font-size="10.00">yeti::TensorIndexDescr</text>
</a>
</g>
</g>
<!-- Node3&#45;&gt;Node4 -->
<g id="edge4" class="edge"><title>Node3&#45;&gt;Node4</title>
<path fill="none" stroke="midnightblue" d="M95.4989,-177.601C106.552,-167.285 120.695,-154.085 129.802,-145.585"/>
<polygon fill="midnightblue" stroke="midnightblue" points="93.0352,-175.113 88.1127,-184.495 97.8114,-180.23 93.0352,-175.113"/>
</g>
<!-- Node4&#45;&gt;Node2 -->
<g id="edge3" class="edge"><title>Node4&#45;&gt;Node2</title>
<path fill="none" stroke="#9a32cd" stroke-dasharray="5,2" d="M121.995,-119.412C107.851,-106.447 88.2247,-88.4559 76.6449,-77.8411"/>
<polygon fill="#9a32cd" stroke="#9a32cd" points="119.851,-122.194 129.587,-126.372 124.581,-117.034 119.851,-122.194"/>
<text text-anchor="middle" x="125.5" y="-99.5" font-family="Helvetica,sans-Serif" font-size="10.00"> descr_</text>
</g>
</g>
</svg>
