<?xml version="1.0" encoding="UTF-8" standalone="no"?>
<!DOCTYPE svg PUBLIC "-//W3C//DTD SVG 1.1//EN"
 "http://www.w3.org/Graphics/SVG/1.1/DTD/svg11.dtd">
<!-- Generated by graphviz version 2.30.1 (20140110.0959)
 -->
<!-- Title: yeti::SymmMatrixTemplate&lt; T &gt; Pages: 1 -->
<svg width="166pt" height="282pt"
 viewBox="0.00 0.00 166.00 282.00" xmlns="http://www.w3.org/2000/svg" xmlns:xlink="http://www.w3.org/1999/xlink">
<g id="graph0" class="graph" transform="scale(1 1) rotate(0) translate(4 278)">
<title>yeti::SymmMatrixTemplate&lt; T &gt;</title>
<!-- Node1 -->
<g id="node1" class="node"><title>Node1</title>
<polygon fill="#bfbfbf" stroke="black" points="0,-138.5 0,-157.5 158,-157.5 158,-138.5 0,-138.5"/>
<text text-anchor="middle" x="79" y="-145.5" font-family="Helvetica,sans-Serif" font-size="10.00">yeti::SymmMatrixTemplate&lt; T &gt;</text>
</g>
<!-- Node4 -->
<g id="node4" class="node"><title>Node4</title>
<g id="a_node4"><a xlink:href="classyeti_1_1SymmMatrixTemplate.html" target="_top" xlink:title="yeti::SymmMatrixTemplate\l\&lt; Matrix \&gt;">
<polygon fill="none" stroke="black" points="12,-59 12,-89 146,-89 146,-59 12,-59"/>
<text text-anchor="start" x="20" y="-77" font-family="Helvetica,sans-Serif" font-size="10.00">yeti::SymmMatrixTemplate</text>
<text text-anchor="middle" x="79" y="-66" font-family="Helvetica,sans-Serif" font-size="10.00">&lt; Matrix &gt;</text>
</a>
</g>
</g>
<!-- Node1&#45;&gt;Node4 -->
<g id="edge3" class="edge"><title>Node1&#45;&gt;Node4</title>
<path fill="none" stroke="orange" stroke-dasharray="5,2" d="M79,-128.085C79,-115.915 79,-100.354 79,-89.2316"/>
<polygon fill="orange" stroke="orange" points="75.5001,-128.458 79,-138.458 82.5001,-128.458 75.5001,-128.458"/>
<text text-anchor="middle" x="103.5" y="-111.5" font-family="Helvetica,sans-Serif" font-size="10.00"> &lt; Matrix &gt;</text>
</g>
<!-- Node2 -->
<g id="node2" class="node"><title>Node2</title>
<g id="a_node2"><a xlink:href="classyeti_1_1MatrixTemplate.html" target="_top" xlink:title="yeti::MatrixTemplate\&lt; T \&gt;">
<polygon fill="none" stroke="black" points="14,-196.5 14,-215.5 144,-215.5 144,-196.5 14,-196.5"/>
<text text-anchor="middle" x="79" y="-203.5" font-family="Helvetica,sans-Serif" font-size="10.00">yeti::MatrixTemplate&lt; T &gt;</text>
</a>
</g>
</g>
<!-- Node2&#45;&gt;Node1 -->
<g id="edge1" class="edge"><title>Node2&#45;&gt;Node1</title>
<path fill="none" stroke="midnightblue" d="M79,-185.953C79,-176.287 79,-165.031 79,-157.505"/>
<polygon fill="midnightblue" stroke="midnightblue" points="75.5001,-186.25 79,-196.25 82.5001,-186.25 75.5001,-186.25"/>
</g>
<!-- Node3 -->
<g id="node3" class="node"><title>Node3</title>
<polygon fill="none" stroke="#bfbfbf" points="17,-254.5 17,-273.5 141,-273.5 141,-254.5 17,-254.5"/>
<text text-anchor="middle" x="79" y="-261.5" font-family="Helvetica,sans-Serif" font-size="10.00">boost::intrusive_ptr&lt; T &gt;</text>
</g>
<!-- Node3&#45;&gt;Node2 -->
<g id="edge2" class="edge"><title>Node3&#45;&gt;Node2</title>
<path fill="none" stroke="midnightblue" d="M79,-243.953C79,-234.287 79,-223.031 79,-215.505"/>
<polygon fill="midnightblue" stroke="midnightblue" points="75.5001,-244.25 79,-254.25 82.5001,-244.25 75.5001,-244.25"/>
</g>
<!-- Node5 -->
<g id="node5" class="node"><title>Node5</title>
<g id="a_node5"><a xlink:href="classyeti_1_1SymmMatrixPtr.html" target="_top" xlink:title="yeti::SymmMatrixPtr">
<polygon fill="none" stroke="black" points="25.5,-0.5 25.5,-19.5 132.5,-19.5 132.5,-0.5 25.5,-0.5"/>
<text text-anchor="middle" x="79" y="-7.5" font-family="Helvetica,sans-Serif" font-size="10.00">yeti::SymmMatrixPtr</text>
</a>
</g>
</g>
<!-- Node4&#45;&gt;Node5 -->
<g id="edge4" class="edge"><title>Node4&#45;&gt;Node5</title>
<path fill="none" stroke="midnightblue" d="M79,-48.8706C79,-38.6625 79,-27.4077 79,-19.8419"/>
<polygon fill="midnightblue" stroke="midnightblue" points="75.5001,-48.9312 79,-58.9312 82.5001,-48.9313 75.5001,-48.9312"/>
</g>
</g>
</svg>
