<?xml version="1.0" encoding="UTF-8" standalone="no"?>
<!DOCTYPE svg PUBLIC "-//W3C//DTD SVG 1.1//EN"
 "http://www.w3.org/Graphics/SVG/1.1/DTD/svg11.dtd">
<!-- Generated by graphviz version 2.30.1 (20140110.0959)
 -->
<!-- Title: psi::DFJK::DFJK Pages: 1 -->
<svg width="420pt" height="28pt"
 viewBox="0.00 0.00 420.00 28.00" xmlns="http://www.w3.org/2000/svg" xmlns:xlink="http://www.w3.org/1999/xlink">
<g id="graph0" class="graph" transform="scale(1 1) rotate(0) translate(4 24)">
<title>psi::DFJK::DFJK</title>
<!-- Node1 -->
<g id="node1" class="node"><title>Node1</title>
<polygon fill="#bfbfbf" stroke="black" points="0,-0.5 0,-19.5 92,-19.5 92,-0.5 0,-0.5"/>
<text text-anchor="middle" x="46" y="-7.5" font-family="Helvetica,sans-Serif" font-size="10.00">psi::DFJK::DFJK</text>
</g>
<!-- Node2 -->
<g id="node2" class="node"><title>Node2</title>
<g id="a_node2"><a xlink:href="classpsi_1_1DFJK.html#aa2cb4274f0bc064bf0a72a33df69e1fe" target="_top" xlink:title="Common initialization.">
<polygon fill="none" stroke="black" points="128,-0.5 128,-19.5 250,-19.5 250,-0.5 128,-0.5"/>
<text text-anchor="middle" x="189" y="-7.5" font-family="Helvetica,sans-Serif" font-size="10.00">psi::DFJK::common_init</text>
</a>
</g>
</g>
<!-- Node1&#45;&gt;Node2 -->
<g id="edge1" class="edge"><title>Node1&#45;&gt;Node2</title>
<path fill="none" stroke="midnightblue" d="M92.001,-10C100.227,-10 108.988,-10 117.744,-10"/>
<polygon fill="midnightblue" stroke="midnightblue" points="117.988,-13.5001 127.988,-10 117.988,-6.5001 117.988,-13.5001"/>
</g>
<!-- Node3 -->
<g id="node3" class="node"><title>Node3</title>
<g id="a_node3"><a xlink:href="classpsi_1_1PSIO.html#a8f4e355e2b12b394eb494da809bd1874" target="_top" xlink:title="Return the global shared object.">
<polygon fill="none" stroke="black" points="286,-0.5 286,-19.5 412,-19.5 412,-0.5 286,-0.5"/>
<text text-anchor="middle" x="349" y="-7.5" font-family="Helvetica,sans-Serif" font-size="10.00">psi::PSIO::shared_object</text>
</a>
</g>
</g>
<!-- Node2&#45;&gt;Node3 -->
<g id="edge2" class="edge"><title>Node2&#45;&gt;Node3</title>
<path fill="none" stroke="midnightblue" d="M250.184,-10C258.583,-10 267.284,-10 275.875,-10"/>
<polygon fill="midnightblue" stroke="midnightblue" points="275.886,-13.5001 285.886,-10 275.885,-6.5001 275.886,-13.5001"/>
</g>
</g>
</svg>
