<?xml version="1.0" encoding="UTF-8" standalone="no"?>
<!DOCTYPE svg PUBLIC "-//W3C//DTD SVG 1.1//EN"
 "http://www.w3.org/Graphics/SVG/1.1/DTD/svg11.dtd">
<!-- Generated by graphviz version 2.30.1 (20140110.0959)
 -->
<!-- Title: yeti::Vector::data Pages: 1 -->
<svg width="386pt" height="218pt"
 viewBox="0.00 0.00 386.00 218.00" xmlns="http://www.w3.org/2000/svg" xmlns:xlink="http://www.w3.org/1999/xlink">
<g id="graph0" class="graph" transform="scale(1 1) rotate(0) translate(4 214)">
<title>yeti::Vector::data</title>
<!-- Node1 -->
<g id="node1" class="node"><title>Node1</title>
<polygon fill="#bfbfbf" stroke="black" points="0,-95.5 0,-114.5 92,-114.5 92,-95.5 0,-95.5"/>
<text text-anchor="middle" x="46" y="-102.5" font-family="Helvetica,sans-Serif" font-size="10.00">yeti::Vector::data</text>
</g>
<!-- Node2 -->
<g id="node2" class="node"><title>Node2</title>
<g id="a_node2"><a xlink:href="classyeti_1_1Matrix.html#a1aa1ebad000ff51bf6a5a9f3858ed27f" target="_top" xlink:title="yeti::Matrix::Matrix">
<polygon fill="none" stroke="black" points="141,-190.5 141,-209.5 239,-209.5 239,-190.5 141,-190.5"/>
<text text-anchor="middle" x="190" y="-197.5" font-family="Helvetica,sans-Serif" font-size="10.00">yeti::Matrix::Matrix</text>
</a>
</g>
</g>
<!-- Node1&#45;&gt;Node2 -->
<g id="edge1" class="edge"><title>Node1&#45;&gt;Node2</title>
<path fill="none" stroke="midnightblue" d="M61.1867,-122.266C76.1483,-139.432 101.227,-165.394 128,-181 134.516,-184.798 141.875,-187.92 149.168,-190.455"/>
<polygon fill="midnightblue" stroke="midnightblue" points="63.8365,-119.979 54.6915,-114.63 58.5043,-124.515 63.8365,-119.979"/>
</g>
<!-- Node3 -->
<g id="node3" class="node"><title>Node3</title>
<g id="a_node3"><a xlink:href="classyeti_1_1Vector.html#af1c713e0e0ff0e7fa500765a42a191ad" target="_top" xlink:title="yeti::Vector::toMatrix">
<polygon fill="none" stroke="black" points="136,-152.5 136,-171.5 244,-171.5 244,-152.5 136,-152.5"/>
<text text-anchor="middle" x="190" y="-159.5" font-family="Helvetica,sans-Serif" font-size="10.00">yeti::Vector::toMatrix</text>
</a>
</g>
</g>
<!-- Node1&#45;&gt;Node3 -->
<g id="edge2" class="edge"><title>Node1&#45;&gt;Node3</title>
<path fill="none" stroke="midnightblue" d="M74.6872,-119.139C90.1488,-126.742 109.893,-135.971 128,-143 136.789,-146.412 146.467,-149.653 155.474,-152.46"/>
<polygon fill="midnightblue" stroke="midnightblue" points="76.1785,-115.972 65.6665,-114.65 73.0597,-122.239 76.1785,-115.972"/>
</g>
<!-- Node5 -->
<g id="node5" class="node"><title>Node5</title>
<g id="a_node5"><a xlink:href="classyeti_1_1Vector.html#a3a51e938bbdf77e2a14f03b8157cb85e" target="_top" xlink:title="yeti::Vector::add">
<polygon fill="none" stroke="black" points="145.5,-114.5 145.5,-133.5 234.5,-133.5 234.5,-114.5 145.5,-114.5"/>
<text text-anchor="middle" x="190" y="-121.5" font-family="Helvetica,sans-Serif" font-size="10.00">yeti::Vector::add</text>
</a>
</g>
</g>
<!-- Node1&#45;&gt;Node5 -->
<g id="edge4" class="edge"><title>Node1&#45;&gt;Node5</title>
<path fill="none" stroke="midnightblue" d="M102.434,-112.417C116.582,-114.31 131.597,-116.319 145.079,-118.123"/>
<polygon fill="midnightblue" stroke="midnightblue" points="102.696,-108.921 92.3201,-111.064 101.768,-115.859 102.696,-108.921"/>
</g>
<!-- Node6 -->
<g id="node6" class="node"><title>Node6</title>
<g id="a_node6"><a xlink:href="classyeti_1_1Vector.html#a4cb5783dcde769be15f515372919893f" target="_top" xlink:title="yeti::Vector::subtract">
<polygon fill="none" stroke="black" points="136,-76.5 136,-95.5 244,-95.5 244,-76.5 136,-76.5"/>
<text text-anchor="middle" x="190" y="-83.5" font-family="Helvetica,sans-Serif" font-size="10.00">yeti::Vector::subtract</text>
</a>
</g>
</g>
<!-- Node1&#45;&gt;Node6 -->
<g id="edge5" class="edge"><title>Node1&#45;&gt;Node6</title>
<path fill="none" stroke="midnightblue" d="M102.296,-97.6013C113.357,-96.1212 124.955,-94.5694 135.939,-93.0997"/>
<polygon fill="midnightblue" stroke="midnightblue" points="101.768,-94.1407 92.3201,-98.936 102.696,-101.079 101.768,-94.1407"/>
</g>
<!-- Node7 -->
<g id="node7" class="node"><title>Node7</title>
<g id="a_node7"><a xlink:href="classyeti_1_1Vector.html#a9b7e814cc1d89ad301340a09539d7b18" target="_top" xlink:title="yeti::Vector::accumulate">
<polygon fill="none" stroke="black" points="128.5,-38.5 128.5,-57.5 251.5,-57.5 251.5,-38.5 128.5,-38.5"/>
<text text-anchor="middle" x="190" y="-45.5" font-family="Helvetica,sans-Serif" font-size="10.00">yeti::Vector::accumulate</text>
</a>
</g>
</g>
<!-- Node1&#45;&gt;Node7 -->
<g id="edge6" class="edge"><title>Node1&#45;&gt;Node7</title>
<path fill="none" stroke="midnightblue" d="M74.6872,-90.8607C90.1488,-83.2582 109.893,-74.0294 128,-67 136.789,-63.5879 146.467,-60.347 155.474,-57.5398"/>
<polygon fill="midnightblue" stroke="midnightblue" points="73.0597,-87.7611 65.6665,-95.3499 76.1785,-94.0279 73.0597,-87.7611"/>
</g>
<!-- Node8 -->
<g id="node8" class="node"><title>Node8</title>
<g id="a_node8"><a xlink:href="classyeti_1_1Vector.html#a02f38928122e91b984bc834fd695c579" target="_top" xlink:title="yeti::Vector::dot">
<polygon fill="none" stroke="black" points="147,-0.5 147,-19.5 233,-19.5 233,-0.5 147,-0.5"/>
<text text-anchor="middle" x="190" y="-7.5" font-family="Helvetica,sans-Serif" font-size="10.00">yeti::Vector::dot</text>
</a>
</g>
</g>
<!-- Node1&#45;&gt;Node8 -->
<g id="edge7" class="edge"><title>Node1&#45;&gt;Node8</title>
<path fill="none" stroke="midnightblue" d="M61.1867,-87.7339C76.1483,-70.5677 101.227,-44.6059 128,-29 134.516,-25.2016 141.875,-22.0805 149.168,-19.5449"/>
<polygon fill="midnightblue" stroke="midnightblue" points="58.5043,-85.4854 54.6915,-95.3705 63.8365,-90.0206 58.5043,-85.4854"/>
</g>
<!-- Node4 -->
<g id="node4" class="node"><title>Node4</title>
<g id="a_node4"><a xlink:href="classyeti_1_1Matrix.html#ad69c4d2dab30e181cfe721985c342bf4" target="_top" xlink:title="yeti::Matrix::mult">
<polygon fill="none" stroke="black" points="288,-152.5 288,-171.5 378,-171.5 378,-152.5 288,-152.5"/>
<text text-anchor="middle" x="333" y="-159.5" font-family="Helvetica,sans-Serif" font-size="10.00">yeti::Matrix::mult</text>
</a>
</g>
</g>
<!-- Node3&#45;&gt;Node4 -->
<g id="edge3" class="edge"><title>Node3&#45;&gt;Node4</title>
<path fill="none" stroke="midnightblue" d="M254.529,-162C265.77,-162 277.25,-162 287.81,-162"/>
<polygon fill="midnightblue" stroke="midnightblue" points="254.306,-158.5 244.306,-162 254.306,-165.5 254.306,-158.5"/>
</g>
</g>
</svg>
