<?xml version="1.0" encoding="UTF-8" standalone="no"?>
<!DOCTYPE svg PUBLIC "-//W3C//DTD SVG 1.1//EN"
 "http://www.w3.org/Graphics/SVG/1.1/DTD/svg11.dtd">
<!-- Generated by graphviz version 2.30.1 (20140110.0959)
 -->
<!-- Title: rapidxml::xml_node::insert_attribute Pages: 1 -->
<svg width="524pt" height="87pt"
 viewBox="0.00 0.00 524.00 87.00" xmlns="http://www.w3.org/2000/svg" xmlns:xlink="http://www.w3.org/1999/xlink">
<g id="graph0" class="graph" transform="scale(1 1) rotate(0) translate(4 83)">
<title>rapidxml::xml_node::insert_attribute</title>
<!-- Node1 -->
<g id="node1" class="node"><title>Node1</title>
<polygon fill="#bfbfbf" stroke="black" points="0.5,-24 0.5,-54 101.5,-54 101.5,-24 0.5,-24"/>
<text text-anchor="start" x="8.5" y="-42" font-family="Helvetica,sans-Serif" font-size="10.00">rapidxml::xml_node</text>
<text text-anchor="middle" x="51" y="-31" font-family="Helvetica,sans-Serif" font-size="10.00">::insert_attribute</text>
</g>
<!-- Node2 -->
<g id="node2" class="node"><title>Node2</title>
<g id="a_node2"><a xlink:href="classrapidxml_1_1xml__node.html#a8b62ee76489faf8e2d1210869d547684" target="_top" xlink:title="rapidxml::xml_node\l::prepend_attribute">
<polygon fill="none" stroke="black" points="138.5,-49 138.5,-79 239.5,-79 239.5,-49 138.5,-49"/>
<text text-anchor="start" x="146.5" y="-67" font-family="Helvetica,sans-Serif" font-size="10.00">rapidxml::xml_node</text>
<text text-anchor="middle" x="189" y="-56" font-family="Helvetica,sans-Serif" font-size="10.00">::prepend_attribute</text>
</a>
</g>
</g>
<!-- Node1&#45;&gt;Node2 -->
<g id="edge1" class="edge"><title>Node1&#45;&gt;Node2</title>
<path fill="none" stroke="midnightblue" d="M101.869,-48.1671C110.462,-49.7466 119.471,-51.4027 128.291,-53.0241"/>
<polygon fill="midnightblue" stroke="midnightblue" points="127.669,-56.4683 138.137,-54.834 128.934,-49.5836 127.669,-56.4683"/>
</g>
<!-- Node6 -->
<g id="node6" class="node"><title>Node6</title>
<g id="a_node6"><a xlink:href="classrapidxml_1_1xml__node.html#a33ce3386f8c42dd4db658b75cbb6e6c4" target="_top" xlink:title="rapidxml::xml_node\l::append_attribute">
<polygon fill="none" stroke="black" points="138.5,-0 138.5,-30 239.5,-30 239.5,-0 138.5,-0"/>
<text text-anchor="start" x="146.5" y="-18" font-family="Helvetica,sans-Serif" font-size="10.00">rapidxml::xml_node</text>
<text text-anchor="middle" x="189" y="-7" font-family="Helvetica,sans-Serif" font-size="10.00">::append_attribute</text>
</a>
</g>
</g>
<!-- Node1&#45;&gt;Node6 -->
<g id="edge5" class="edge"><title>Node1&#45;&gt;Node6</title>
<path fill="none" stroke="midnightblue" d="M101.869,-30.1996C110.369,-28.6995 119.277,-27.1276 128.006,-25.5871"/>
<polygon fill="midnightblue" stroke="midnightblue" points="128.897,-28.984 138.137,-23.7994 127.681,-22.0906 128.897,-28.984"/>
</g>
<!-- Node3 -->
<g id="node3" class="node"><title>Node3</title>
<g id="a_node3"><a xlink:href="classrapidxml_1_1xml__node.html#ae426802be58114ffc41bf30ac6b8c37d" target="_top" xlink:title="rapidxml::xml_node\l::first_attribute">
<polygon fill="none" stroke="black" points="276.5,-24 276.5,-54 377.5,-54 377.5,-24 276.5,-24"/>
<text text-anchor="start" x="284.5" y="-42" font-family="Helvetica,sans-Serif" font-size="10.00">rapidxml::xml_node</text>
<text text-anchor="middle" x="327" y="-31" font-family="Helvetica,sans-Serif" font-size="10.00">::first_attribute</text>
</a>
</g>
</g>
<!-- Node2&#45;&gt;Node3 -->
<g id="edge2" class="edge"><title>Node2&#45;&gt;Node3</title>
<path fill="none" stroke="midnightblue" d="M239.869,-54.8329C248.462,-53.2534 257.471,-51.5973 266.291,-49.9759"/>
<polygon fill="midnightblue" stroke="midnightblue" points="266.934,-53.4164 276.137,-48.166 265.669,-46.5317 266.934,-53.4164"/>
</g>
<!-- Node4 -->
<g id="node4" class="node"><title>Node4</title>
<g id="a_node4"><a xlink:href="classrapidxml_1_1xml__base.html#a9a09739310469995db078ebd0da3ed45" target="_top" xlink:title="rapidxml::xml_base\l::name">
<polygon fill="none" stroke="black" points="414.5,-49 414.5,-79 515.5,-79 515.5,-49 414.5,-49"/>
<text text-anchor="start" x="422.5" y="-67" font-family="Helvetica,sans-Serif" font-size="10.00">rapidxml::xml_base</text>
<text text-anchor="middle" x="465" y="-56" font-family="Helvetica,sans-Serif" font-size="10.00">::name</text>
</a>
</g>
</g>
<!-- Node3&#45;&gt;Node4 -->
<g id="edge3" class="edge"><title>Node3&#45;&gt;Node4</title>
<path fill="none" stroke="midnightblue" d="M377.869,-48.1671C386.462,-49.7466 395.471,-51.4027 404.291,-53.0241"/>
<polygon fill="midnightblue" stroke="midnightblue" points="403.669,-56.4683 414.137,-54.834 404.934,-49.5836 403.669,-56.4683"/>
</g>
<!-- Node5 -->
<g id="node5" class="node"><title>Node5</title>
<g id="a_node5"><a xlink:href="classrapidxml_1_1xml__base.html#a7e7f98b3d01e1eab8dc1ca69aad9af84" target="_top" xlink:title="rapidxml::xml_base\l::name_size">
<polygon fill="none" stroke="black" points="414.5,-0 414.5,-30 515.5,-30 515.5,-0 414.5,-0"/>
<text text-anchor="start" x="422.5" y="-18" font-family="Helvetica,sans-Serif" font-size="10.00">rapidxml::xml_base</text>
<text text-anchor="middle" x="465" y="-7" font-family="Helvetica,sans-Serif" font-size="10.00">::name_size</text>
</a>
</g>
</g>
<!-- Node3&#45;&gt;Node5 -->
<g id="edge4" class="edge"><title>Node3&#45;&gt;Node5</title>
<path fill="none" stroke="midnightblue" d="M377.869,-30.1996C386.369,-28.6995 395.277,-27.1276 404.006,-25.5871"/>
<polygon fill="midnightblue" stroke="midnightblue" points="404.897,-28.984 414.137,-23.7994 403.681,-22.0906 404.897,-28.984"/>
</g>
<!-- Node6&#45;&gt;Node3 -->
<g id="edge6" class="edge"><title>Node6&#45;&gt;Node3</title>
<path fill="none" stroke="midnightblue" d="M239.869,-23.8004C248.369,-25.3005 257.277,-26.8724 266.006,-28.4129"/>
<polygon fill="midnightblue" stroke="midnightblue" points="265.681,-31.9094 276.137,-30.2006 266.897,-25.016 265.681,-31.9094"/>
</g>
</g>
</svg>
