<?xml version="1.0" encoding="UTF-8" standalone="no"?>
<!DOCTYPE svg PUBLIC "-//W3C//DTD SVG 1.1//EN"
 "http://www.w3.org/Graphics/SVG/1.1/DTD/svg11.dtd">
<!-- Generated by graphviz version 2.30.1 (20140110.0959)
 -->
<!-- Title: yeti::RectMatrixPtr Pages: 1 -->
<svg width="283pt" height="316pt"
 viewBox="0.00 0.00 283.00 316.00" xmlns="http://www.w3.org/2000/svg" xmlns:xlink="http://www.w3.org/1999/xlink">
<g id="graph0" class="graph" transform="scale(1 1) rotate(0) translate(4 312)">
<title>yeti::RectMatrixPtr</title>
<!-- Node1 -->
<g id="node1" class="node"><title>Node1</title>
<polygon fill="#bfbfbf" stroke="black" points="90.5,-0.5 90.5,-19.5 189.5,-19.5 189.5,-0.5 90.5,-0.5"/>
<text text-anchor="middle" x="140" y="-7.5" font-family="Helvetica,sans-Serif" font-size="10.00">yeti::RectMatrixPtr</text>
</g>
<!-- Node2 -->
<g id="node2" class="node"><title>Node2</title>
<g id="a_node2"><a xlink:href="classyeti_1_1RectMatrixTemplate.html" target="_top" xlink:title="yeti::RectMatrixTemplate\l\&lt; Matrix \&gt;">
<polygon fill="none" stroke="black" points="76.5,-59 76.5,-89 203.5,-89 203.5,-59 76.5,-59"/>
<text text-anchor="start" x="84.5" y="-77" font-family="Helvetica,sans-Serif" font-size="10.00">yeti::RectMatrixTemplate</text>
<text text-anchor="middle" x="140" y="-66" font-family="Helvetica,sans-Serif" font-size="10.00">&lt; Matrix &gt;</text>
</a>
</g>
</g>
<!-- Node2&#45;&gt;Node1 -->
<g id="edge1" class="edge"><title>Node2&#45;&gt;Node1</title>
<path fill="none" stroke="midnightblue" d="M140,-48.8706C140,-38.6625 140,-27.4077 140,-19.8419"/>
<polygon fill="midnightblue" stroke="midnightblue" points="136.5,-48.9312 140,-58.9312 143.5,-48.9313 136.5,-48.9312"/>
</g>
<!-- Node3 -->
<g id="node3" class="node"><title>Node3</title>
<g id="a_node3"><a xlink:href="classyeti_1_1MatrixTemplate.html" target="_top" xlink:title="yeti::MatrixTemplate\l\&lt; Matrix \&gt;">
<polygon fill="none" stroke="black" points="0,-139 0,-169 106,-169 106,-139 0,-139"/>
<text text-anchor="start" x="8" y="-157" font-family="Helvetica,sans-Serif" font-size="10.00">yeti::MatrixTemplate</text>
<text text-anchor="middle" x="53" y="-146" font-family="Helvetica,sans-Serif" font-size="10.00">&lt; Matrix &gt;</text>
</a>
</g>
</g>
<!-- Node3&#45;&gt;Node2 -->
<g id="edge2" class="edge"><title>Node3&#45;&gt;Node2</title>
<path fill="none" stroke="midnightblue" d="M76.4315,-131.992C91.5484,-118.439 110.806,-101.174 124.144,-89.2157"/>
<polygon fill="midnightblue" stroke="midnightblue" points="74.0664,-129.412 68.9571,-138.694 78.7393,-134.624 74.0664,-129.412"/>
</g>
<!-- Node4 -->
<g id="node4" class="node"><title>Node4</title>
<polygon fill="none" stroke="#bfbfbf" points="3,-219 3,-249 103,-249 103,-219 3,-219"/>
<text text-anchor="start" x="11" y="-237" font-family="Helvetica,sans-Serif" font-size="10.00">boost::intrusive_ptr</text>
<text text-anchor="middle" x="53" y="-226" font-family="Helvetica,sans-Serif" font-size="10.00">&lt; Matrix &gt;</text>
</g>
<!-- Node4&#45;&gt;Node3 -->
<g id="edge3" class="edge"><title>Node4&#45;&gt;Node3</title>
<path fill="none" stroke="midnightblue" d="M53,-208.564C53,-195.624 53,-180.186 53,-169.216"/>
<polygon fill="midnightblue" stroke="midnightblue" points="49.5001,-208.694 53,-218.694 56.5001,-208.694 49.5001,-208.694"/>
</g>
<!-- Node5 -->
<g id="node5" class="node"><title>Node5</title>
<g id="a_node5"><a xlink:href="classyeti_1_1MatrixTemplate.html" target="_top" xlink:title="yeti::MatrixTemplate\&lt; T \&gt;">
<polygon fill="none" stroke="black" points="128,-224.5 128,-243.5 258,-243.5 258,-224.5 128,-224.5"/>
<text text-anchor="middle" x="193" y="-231.5" font-family="Helvetica,sans-Serif" font-size="10.00">yeti::MatrixTemplate&lt; T &gt;</text>
</a>
</g>
</g>
<!-- Node5&#45;&gt;Node3 -->
<g id="edge4" class="edge"><title>Node5&#45;&gt;Node3</title>
<path fill="none" stroke="orange" stroke-dasharray="5,2" d="M168.527,-219.365C143.216,-205.263 103.881,-183.348 78.2782,-169.084"/>
<polygon fill="orange" stroke="orange" points="167.043,-222.545 177.483,-224.355 170.45,-216.43 167.043,-222.545"/>
<text text-anchor="middle" x="156.5" y="-191.5" font-family="Helvetica,sans-Serif" font-size="10.00"> &lt; Matrix &gt;</text>
</g>
<!-- Node7 -->
<g id="node7" class="node"><title>Node7</title>
<g id="a_node7"><a xlink:href="classyeti_1_1RectMatrixTemplate.html" target="_top" xlink:title="yeti::RectMatrixTemplate\&lt; T \&gt;">
<polygon fill="none" stroke="black" points="124.5,-144.5 124.5,-163.5 275.5,-163.5 275.5,-144.5 124.5,-144.5"/>
<text text-anchor="middle" x="200" y="-151.5" font-family="Helvetica,sans-Serif" font-size="10.00">yeti::RectMatrixTemplate&lt; T &gt;</text>
</a>
</g>
</g>
<!-- Node5&#45;&gt;Node7 -->
<g id="edge7" class="edge"><title>Node5&#45;&gt;Node7</title>
<path fill="none" stroke="midnightblue" d="M194.699,-214.072C196.128,-198.145 198.108,-176.078 199.199,-163.924"/>
<polygon fill="midnightblue" stroke="midnightblue" points="191.184,-214.082 193.776,-224.355 198.156,-214.708 191.184,-214.082"/>
</g>
<!-- Node6 -->
<g id="node6" class="node"><title>Node6</title>
<polygon fill="none" stroke="#bfbfbf" points="131,-288.5 131,-307.5 255,-307.5 255,-288.5 131,-288.5"/>
<text text-anchor="middle" x="193" y="-295.5" font-family="Helvetica,sans-Serif" font-size="10.00">boost::intrusive_ptr&lt; T &gt;</text>
</g>
<!-- Node6&#45;&gt;Node5 -->
<g id="edge5" class="edge"><title>Node6&#45;&gt;Node5</title>
<path fill="none" stroke="midnightblue" d="M193,-278.037C193,-266.53 193,-252.403 193,-243.548"/>
<polygon fill="midnightblue" stroke="midnightblue" points="189.5,-278.379 193,-288.379 196.5,-278.379 189.5,-278.379"/>
</g>
<!-- Node7&#45;&gt;Node2 -->
<g id="edge6" class="edge"><title>Node7&#45;&gt;Node2</title>
<path fill="none" stroke="orange" stroke-dasharray="5,2" d="M186.999,-136.099C176.231,-122.1 161.101,-102.431 150.944,-89.227"/>
<polygon fill="orange" stroke="orange" points="184.478,-138.562 193.35,-144.355 190.027,-134.294 184.478,-138.562"/>
<text text-anchor="middle" x="197.5" y="-111.5" font-family="Helvetica,sans-Serif" font-size="10.00"> &lt; Matrix &gt;</text>
</g>
</g>
</svg>
