<?xml version="1.0" encoding="UTF-8" standalone="no"?>
<!DOCTYPE svg PUBLIC "-//W3C//DTD SVG 1.1//EN"
 "http://www.w3.org/Graphics/SVG/1.1/DTD/svg11.dtd">
<!-- Generated by graphviz version 2.30.1 (20140110.0959)
 -->
<!-- Title: deanti_UHF.cc Pages: 1 -->
<!--zoomable 196 -->
<svg id="main" version="1.1" xmlns="http://www.w3.org/2000/svg" xmlns:xlink="http://www.w3.org/1999/xlink" xml:space="preserve" onload="init(evt)">
        <defs>
                <circle id="rim" cx="0" cy="0" r="7"/>
                <circle id="rim2" cx="0" cy="0" r="3.5"/>
                <g id="zoomPlus">
                        <use xlink:href="#rim" fill="#404040">
                                <set attributeName="fill" to="#808080" begin="zoomplus.mouseover" end="zoomplus.mouseout"/>
                        </use>
                        <path d="M-4,0h8M0,-4v8" fill="none" stroke="white" stroke-width="1.5" pointer-events="none"/>
                </g>
                <g id="zoomMin">
                        <use xlink:href="#rim" fill="#404040">
                                <set attributeName="fill" to="#808080" begin="zoomminus.mouseover" end="zoomminus.mouseout"/>
                        </use>
                        <path d="M-4,0h8" fill="none" stroke="white" stroke-width="1.5" pointer-events="none"/>
                </g>
                <g id="dirArrow">
                        <path fill="none" stroke="white" stroke-width="1.5" d="M0,-3.0v7 M-2.5,-0.5L0,-3.0L2.5,-0.5"/>
                </g>
               <g id="resetDef">
                       <use xlink:href="#rim2" fill="#404040">
                               <set attributeName="fill" to="#808080" begin="reset.mouseover" end="reset.mouseout"/>
                       </use>
               </g>
        </defs>

<script type="text/javascript">
var viewWidth = 845;
var viewHeight = 196;
var sectionId = 'dynsection-0';
</script>
<script xlink:href="svgpan.js"/>
<svg id="graph" class="graph">
<g id="viewport">
<title>deanti_UHF.cc</title>
<!-- Node1 -->
<g id="node1" class="node"><title>Node1</title>
<polygon fill="#bfbfbf" stroke="black" points="448.258,-168.5 448.258,-187.5 531.258,-187.5 531.258,-168.5 448.258,-168.5"/>
<text text-anchor="middle" x="489.758" y="-175.5" font-family="Helvetica,sans-Serif" font-size="10.00">deanti_UHF.cc</text>
</g>
<!-- Node2 -->
<g id="node2" class="node"><title>Node2</title>
<polygon fill="none" stroke="#bfbfbf" points="80.2585,-0.5 80.2585,-19.5 123.258,-19.5 123.258,-0.5 80.2585,-0.5"/>
<text text-anchor="middle" x="101.758" y="-7.5" font-family="Helvetica,sans-Serif" font-size="10.00">cstdio</text>
</g>
<!-- Node1&#45;&gt;Node2 -->
<g id="edge1" class="edge"><title>Node1&#45;&gt;Node2</title>
<path fill="none" stroke="midnightblue" d="M448.243,-174.926C359.295,-170.067 153.118,-156.466 87.7585,-132 41.5262,-114.694 -19.6396,-97.7143 6.7585,-56 20.5752,-34.1668 48.1656,-22.7195 70.0689,-16.8482"/>
<polygon fill="midnightblue" stroke="midnightblue" points="71.0702,-20.2071 79.9703,-14.4591 69.4283,-13.4024 71.0702,-20.2071"/>
</g>
<!-- Node3 -->
<g id="node3" class="node"><title>Node3</title>
<polygon fill="none" stroke="#bfbfbf" points="490.758,-112.5 490.758,-131.5 544.758,-131.5 544.758,-112.5 490.758,-112.5"/>
<text text-anchor="middle" x="517.758" y="-119.5" font-family="Helvetica,sans-Serif" font-size="10.00">strings.h</text>
</g>
<!-- Node1&#45;&gt;Node3 -->
<g id="edge2" class="edge"><title>Node1&#45;&gt;Node3</title>
<path fill="none" stroke="midnightblue" d="M494.382,-168.083C498.215,-160.691 503.783,-149.953 508.523,-140.811"/>
<polygon fill="midnightblue" stroke="midnightblue" points="511.725,-142.24 513.221,-131.751 505.511,-139.018 511.725,-142.24"/>
</g>
<!-- Node4 -->
<g id="node4" class="node"><title>Node4</title>
<polygon fill="none" stroke="#bfbfbf" points="563.258,-112.5 563.258,-131.5 612.258,-131.5 612.258,-112.5 563.258,-112.5"/>
<text text-anchor="middle" x="587.758" y="-119.5" font-family="Helvetica,sans-Serif" font-size="10.00">string.h</text>
</g>
<!-- Node1&#45;&gt;Node4 -->
<g id="edge3" class="edge"><title>Node1&#45;&gt;Node4</title>
<path fill="none" stroke="midnightblue" d="M505.504,-168.324C521.077,-159.743 545.136,-146.486 563.218,-136.522"/>
<polygon fill="midnightblue" stroke="midnightblue" points="564.983,-139.546 572.052,-131.655 561.605,-133.415 564.983,-139.546"/>
</g>
<!-- Node5 -->
<g id="node5" class="node"><title>Node5</title>
<g id="a_node5"><a xlink:href="iwl_8h_source.html" target="_top" xlink:title="libiwl/iwl.h">
<polygon fill="none" stroke="black" points="96.7585,-112.5 96.7585,-131.5 158.758,-131.5 158.758,-112.5 96.7585,-112.5"/>
<text text-anchor="middle" x="127.758" y="-119.5" font-family="Helvetica,sans-Serif" font-size="10.00">libiwl/iwl.h</text>
</a>
</g>
</g>
<!-- Node1&#45;&gt;Node5 -->
<g id="edge4" class="edge"><title>Node1&#45;&gt;Node5</title>
<path fill="none" stroke="midnightblue" d="M448.232,-170.806C378.457,-160.397 238.516,-139.522 168.96,-129.146"/>
<polygon fill="midnightblue" stroke="midnightblue" points="169.23,-125.648 158.823,-127.634 168.197,-132.571 169.23,-125.648"/>
</g>
<!-- Node9 -->
<g id="node9" class="node"><title>Node9</title>
<g id="a_node9"><a xlink:href="lib_2libdpd_2dpd_8h.html" target="_top" xlink:title="Enter brief description of file here.">
<polygon fill="none" stroke="black" points="329.258,-56.5 329.258,-75.5 398.258,-75.5 398.258,-56.5 329.258,-56.5"/>
<text text-anchor="middle" x="363.758" y="-63.5" font-family="Helvetica,sans-Serif" font-size="10.00">libdpd/dpd.h</text>
</a>
</g>
</g>
<!-- Node1&#45;&gt;Node9 -->
<g id="edge10" class="edge"><title>Node1&#45;&gt;Node9</title>
<path fill="none" stroke="midnightblue" d="M479.871,-168.368C458.618,-149.814 408.331,-105.913 381.442,-82.4376"/>
<polygon fill="midnightblue" stroke="midnightblue" points="383.435,-79.5314 373.6,-75.5914 378.831,-84.8046 383.435,-79.5314"/>
</g>
<!-- Node10 -->
<g id="node10" class="node"><title>Node10</title>
<g id="a_node10"><a xlink:href="psifiles_8h_source.html" target="_top" xlink:title="psifiles.h">
<polygon fill="none" stroke="black" points="429.758,-0.5 429.758,-19.5 485.758,-19.5 485.758,-0.5 429.758,-0.5"/>
<text text-anchor="middle" x="457.758" y="-7.5" font-family="Helvetica,sans-Serif" font-size="10.00">psifiles.h</text>
</a>
</g>
</g>
<!-- Node1&#45;&gt;Node10 -->
<g id="edge16" class="edge"><title>Node1&#45;&gt;Node10</title>
<path fill="none" stroke="midnightblue" d="M488.038,-168.075C483.001,-141.945 468.209,-65.2106 461.34,-29.577"/>
<polygon fill="midnightblue" stroke="midnightblue" points="464.74,-28.7248 459.41,-19.5681 457.866,-30.0499 464.74,-28.7248"/>
</g>
<!-- Node13 -->
<g id="node13" class="node"><title>Node13</title>
<g id="a_node13"><a xlink:href="ccdensity_2MOInfo_8h.html" target="_top" xlink:title="Enter brief description of file here.">
<polygon fill="none" stroke="black" points="630.258,-112.5 630.258,-131.5 687.258,-131.5 687.258,-112.5 630.258,-112.5"/>
<text text-anchor="middle" x="658.758" y="-119.5" font-family="Helvetica,sans-Serif" font-size="10.00">MOInfo.h</text>
</a>
</g>
</g>
<!-- Node1&#45;&gt;Node13 -->
<g id="edge17" class="edge"><title>Node1&#45;&gt;Node13</title>
<path fill="none" stroke="midnightblue" d="M516.537,-168.444C545.092,-159.32 590.491,-144.813 622.295,-134.651"/>
<polygon fill="midnightblue" stroke="midnightblue" points="623.645,-137.894 632.105,-131.516 621.514,-131.226 623.645,-137.894"/>
</g>
<!-- Node14 -->
<g id="node14" class="node"><title>Node14</title>
<g id="a_node14"><a xlink:href="ccdensity_2Params_8h.html" target="_top" xlink:title="Enter brief description of file here.">
<polygon fill="none" stroke="black" points="705.258,-112.5 705.258,-131.5 764.258,-131.5 764.258,-112.5 705.258,-112.5"/>
<text text-anchor="middle" x="734.758" y="-119.5" font-family="Helvetica,sans-Serif" font-size="10.00">Params.h</text>
</a>
</g>
</g>
<!-- Node1&#45;&gt;Node14 -->
<g id="edge18" class="edge"><title>Node1&#45;&gt;Node14</title>
<path fill="none" stroke="midnightblue" d="M529.665,-168.428C569.16,-159.911 631.603,-146.36 695.162,-132.114"/>
<polygon fill="midnightblue" stroke="midnightblue" points="695.966,-135.521 704.956,-129.915 694.432,-128.691 695.966,-135.521"/>
</g>
<!-- Node16 -->
<g id="node16" class="node"><title>Node16</title>
<g id="a_node16"><a xlink:href="Frozen_8h.html" target="_top" xlink:title="Enter brief description of file here.">
<polygon fill="none" stroke="black" points="782.258,-112.5 782.258,-131.5 837.258,-131.5 837.258,-112.5 782.258,-112.5"/>
<text text-anchor="middle" x="809.758" y="-119.5" font-family="Helvetica,sans-Serif" font-size="10.00">Frozen.h</text>
</a>
</g>
</g>
<!-- Node1&#45;&gt;Node16 -->
<g id="edge20" class="edge"><title>Node1&#45;&gt;Node16</title>
<path fill="none" stroke="midnightblue" d="M531.665,-171.418C585.126,-164.058 680.629,-150.114 771.967,-132.019"/>
<polygon fill="midnightblue" stroke="midnightblue" points="772.813,-135.419 781.932,-130.024 771.44,-128.555 772.813,-135.419"/>
</g>
<!-- Node17 -->
<g id="node17" class="node"><title>Node17</title>
<g id="a_node17"><a xlink:href="ccdensity_2globals_8h.html" target="_top" xlink:title="Enter brief description of file here.">
<polygon fill="none" stroke="black" points="335.758,-112.5 335.758,-131.5 391.758,-131.5 391.758,-112.5 335.758,-112.5"/>
<text text-anchor="middle" x="363.758" y="-119.5" font-family="Helvetica,sans-Serif" font-size="10.00">globals.h</text>
</a>
</g>
</g>
<!-- Node1&#45;&gt;Node17 -->
<g id="edge21" class="edge"><title>Node1&#45;&gt;Node17</title>
<path fill="none" stroke="midnightblue" d="M469.793,-168.444C449.149,-159.596 416.696,-145.687 393.127,-135.586"/>
<polygon fill="midnightblue" stroke="midnightblue" points="394.2,-132.239 383.63,-131.516 391.443,-138.673 394.2,-132.239"/>
</g>
<!-- Node5&#45;&gt;Node2 -->
<g id="edge5" class="edge"><title>Node5&#45;&gt;Node2</title>
<path fill="none" stroke="midnightblue" d="M125.05,-112.431C122.258,-103.419 117.881,-88.7984 114.758,-76 111.003,-60.608 107.527,-42.9725 105.116,-29.958"/>
<polygon fill="midnightblue" stroke="midnightblue" points="108.518,-29.0992 103.291,-19.8832 101.63,-30.3469 108.518,-29.0992"/>
</g>
<!-- Node6 -->
<g id="node6" class="node"><title>Node6</title>
<g id="a_node6"><a xlink:href="psio_8h_source.html" target="_top" xlink:title="libpsio/psio.h">
<polygon fill="none" stroke="black" points="123.758,-56.5 123.758,-75.5 197.758,-75.5 197.758,-56.5 123.758,-56.5"/>
<text text-anchor="middle" x="160.758" y="-63.5" font-family="Helvetica,sans-Serif" font-size="10.00">libpsio/psio.h</text>
</a>
</g>
</g>
<!-- Node5&#45;&gt;Node6 -->
<g id="edge6" class="edge"><title>Node5&#45;&gt;Node6</title>
<path fill="none" stroke="midnightblue" d="M133.208,-112.083C137.773,-104.613 144.427,-93.7244 150.052,-84.5199"/>
<polygon fill="midnightblue" stroke="midnightblue" points="153.183,-86.109 155.411,-75.7511 147.21,-82.4588 153.183,-86.109"/>
</g>
<!-- Node8 -->
<g id="node8" class="node"><title>Node8</title>
<g id="a_node8"><a xlink:href="libiwl_2config_8h_source.html" target="_top" xlink:title="config.h">
<polygon fill="none" stroke="black" points="16.2585,-56.5 16.2585,-75.5 67.2585,-75.5 67.2585,-56.5 16.2585,-56.5"/>
<text text-anchor="middle" x="41.7585" y="-63.5" font-family="Helvetica,sans-Serif" font-size="10.00">config.h</text>
</a>
</g>
</g>
<!-- Node5&#45;&gt;Node8 -->
<g id="edge9" class="edge"><title>Node5&#45;&gt;Node8</title>
<path fill="none" stroke="midnightblue" d="M113.941,-112.324C100.526,-103.9 79.9344,-90.9709 64.1729,-81.0741"/>
<polygon fill="midnightblue" stroke="midnightblue" points="65.8717,-78.0081 55.5416,-75.6545 62.1493,-83.9364 65.8717,-78.0081"/>
</g>
<!-- Node6&#45;&gt;Node2 -->
<g id="edge7" class="edge"><title>Node6&#45;&gt;Node2</title>
<path fill="none" stroke="midnightblue" d="M151.279,-56.324C142.557,-48.3414 129.415,-36.3128 118.861,-26.6529"/>
<polygon fill="midnightblue" stroke="midnightblue" points="121.15,-24.0036 111.41,-19.8339 116.424,-29.1674 121.15,-24.0036"/>
</g>
<!-- Node7 -->
<g id="node7" class="node"><title>Node7</title>
<g id="a_node7"><a xlink:href="libpsio_2config_8h_source.html" target="_top" xlink:title="libpsio/config.h">
<polygon fill="none" stroke="black" points="141.758,-0.5 141.758,-19.5 223.758,-19.5 223.758,-0.5 141.758,-0.5"/>
<text text-anchor="middle" x="182.758" y="-7.5" font-family="Helvetica,sans-Serif" font-size="10.00">libpsio/config.h</text>
</a>
</g>
</g>
<!-- Node6&#45;&gt;Node7 -->
<g id="edge8" class="edge"><title>Node6&#45;&gt;Node7</title>
<path fill="none" stroke="midnightblue" d="M164.391,-56.083C167.371,-48.77 171.685,-38.1814 175.383,-29.1034"/>
<polygon fill="midnightblue" stroke="midnightblue" points="178.662,-30.3326 179.193,-19.7511 172.179,-27.6914 178.662,-30.3326"/>
</g>
<!-- Node9&#45;&gt;Node2 -->
<g id="edge11" class="edge"><title>Node9&#45;&gt;Node2</title>
<path fill="none" stroke="midnightblue" d="M329.179,-57.8876C325.995,-57.2446 322.818,-56.6073 319.758,-56 239.822,-40.1308 216.737,-39.8208 133.294,-19.9387"/>
<polygon fill="midnightblue" stroke="midnightblue" points="133.912,-16.4876 123.371,-17.5507 132.274,-23.2933 133.912,-16.4876"/>
</g>
<!-- Node9&#45;&gt;Node10 -->
<g id="edge12" class="edge"><title>Node9&#45;&gt;Node10</title>
<path fill="none" stroke="midnightblue" d="M378.861,-56.324C393.662,-47.8215 416.453,-34.7288 433.741,-24.7975"/>
<polygon fill="midnightblue" stroke="midnightblue" points="435.766,-27.6707 442.693,-19.6545 432.279,-21.6009 435.766,-27.6707"/>
</g>
<!-- Node9&#45;&gt;Node7 -->
<g id="edge13" class="edge"><title>Node9&#45;&gt;Node7</title>
<path fill="none" stroke="midnightblue" d="M335.079,-56.4435C304.232,-47.2406 255.03,-32.5617 220.929,-22.3879"/>
<polygon fill="midnightblue" stroke="midnightblue" points="221.888,-19.0215 211.304,-19.5164 219.886,-25.7293 221.888,-19.0215"/>
</g>
<!-- Node11 -->
<g id="node11" class="node"><title>Node11</title>
<polygon fill="none" stroke="#bfbfbf" points="241.758,-0.5 241.758,-19.5 349.758,-19.5 349.758,-0.5 241.758,-0.5"/>
<text text-anchor="middle" x="295.758" y="-7.5" font-family="Helvetica,sans-Serif" font-size="10.00">boost/shared_ptr.hpp</text>
</g>
<!-- Node9&#45;&gt;Node11 -->
<g id="edge14" class="edge"><title>Node9&#45;&gt;Node11</title>
<path fill="none" stroke="midnightblue" d="M352.833,-56.324C342.584,-48.1849 327.038,-35.8395 314.757,-26.0874"/>
<polygon fill="midnightblue" stroke="midnightblue" points="316.89,-23.3119 306.883,-19.8339 312.537,-28.7937 316.89,-23.3119"/>
</g>
<!-- Node12 -->
<g id="node12" class="node"><title>Node12</title>
<polygon fill="none" stroke="#bfbfbf" points="367.758,-0.5 367.758,-19.5 411.758,-19.5 411.758,-0.5 367.758,-0.5"/>
<text text-anchor="middle" x="389.758" y="-7.5" font-family="Helvetica,sans-Serif" font-size="10.00">vector</text>
</g>
<!-- Node9&#45;&gt;Node12 -->
<g id="edge15" class="edge"><title>Node9&#45;&gt;Node12</title>
<path fill="none" stroke="midnightblue" d="M368.052,-56.083C371.611,-48.6913 376.781,-37.9533 381.183,-28.8111"/>
<polygon fill="midnightblue" stroke="midnightblue" points="384.36,-30.2795 385.545,-19.7511 378.053,-27.2427 384.36,-30.2795"/>
</g>
<!-- Node15 -->
<g id="node15" class="node"><title>Node15</title>
<polygon fill="none" stroke="#bfbfbf" points="714.258,-56.5 714.258,-75.5 755.258,-75.5 755.258,-56.5 714.258,-56.5"/>
<text text-anchor="middle" x="734.758" y="-63.5" font-family="Helvetica,sans-Serif" font-size="10.00">string</text>
</g>
<!-- Node14&#45;&gt;Node15 -->
<g id="edge19" class="edge"><title>Node14&#45;&gt;Node15</title>
<path fill="none" stroke="midnightblue" d="M734.758,-112.083C734.758,-105.006 734.758,-94.8611 734.758,-85.9865"/>
<polygon fill="midnightblue" stroke="midnightblue" points="738.259,-85.751 734.758,-75.7511 731.259,-85.7511 738.259,-85.751"/>
</g>
<!-- Node17&#45;&gt;Node10 -->
<g id="edge22" class="edge"><title>Node17&#45;&gt;Node10</title>
<path fill="none" stroke="midnightblue" d="M372.588,-112.274C381.47,-103.378 395.437,-89.0666 406.758,-76 420.496,-60.1459 435.182,-41.1923 445.25,-27.8548"/>
<polygon fill="midnightblue" stroke="midnightblue" points="448.22,-29.7277 451.413,-19.6256 442.617,-25.5313 448.22,-29.7277"/>
</g>
<!-- Node17&#45;&gt;Node9 -->
<g id="edge23" class="edge"><title>Node17&#45;&gt;Node9</title>
<path fill="none" stroke="midnightblue" d="M363.758,-112.083C363.758,-105.006 363.758,-94.8611 363.758,-85.9865"/>
<polygon fill="midnightblue" stroke="midnightblue" points="367.259,-85.751 363.758,-75.7511 360.259,-85.7511 367.259,-85.751"/>
</g>
<!-- Node17&#45;&gt;Node6 -->
<g id="edge24" class="edge"><title>Node17&#45;&gt;Node6</title>
<path fill="none" stroke="midnightblue" d="M335.532,-113.492C300.984,-104.301 242.183,-88.6597 202.427,-78.0843"/>
<polygon fill="midnightblue" stroke="midnightblue" points="203.32,-74.7002 192.756,-75.5118 201.521,-81.4649 203.32,-74.7002"/>
</g>
<!-- Node18 -->
<g id="node18" class="node"><title>Node18</title>
<g id="a_node18"><a xlink:href="libciomr_8h_source.html" target="_top" xlink:title="libciomr/libciomr.h">
<polygon fill="none" stroke="black" points="216.258,-56.5 216.258,-75.5 311.258,-75.5 311.258,-56.5 216.258,-56.5"/>
<text text-anchor="middle" x="263.758" y="-63.5" font-family="Helvetica,sans-Serif" font-size="10.00">libciomr/libciomr.h</text>
</a>
</g>
</g>
<!-- Node17&#45;&gt;Node18 -->
<g id="edge25" class="edge"><title>Node17&#45;&gt;Node18</title>
<path fill="none" stroke="midnightblue" d="M347.692,-112.324C331.801,-103.743 307.251,-90.486 288.8,-80.5224"/>
<polygon fill="midnightblue" stroke="midnightblue" points="290.247,-77.3264 279.785,-75.6545 286.921,-83.4857 290.247,-77.3264"/>
</g>
<!-- Node18&#45;&gt;Node2 -->
<g id="edge26" class="edge"><title>Node18&#45;&gt;Node2</title>
<path fill="none" stroke="midnightblue" d="M238.089,-56.4435C209.633,-46.9583 163.726,-31.656 133.153,-21.4647"/>
<polygon fill="midnightblue" stroke="midnightblue" points="134.013,-18.0623 123.419,-18.2203 131.799,-24.703 134.013,-18.0623"/>
</g>
</g>
</svg>
        <g id="navigator" transform="translate(0 0)" fill="#404254">
                <rect fill="#f2f5e9" fill-opacity="0.5" stroke="#606060" stroke-width=".5" x="0" y="0" width="60" height="60"/>
                <use id="zoomplus" xlink:href="#zoomPlus" x="17" y="9" onmousedown="handleZoom(evt,'in')"/>
                <use id="zoomminus" xlink:href="#zoomMin" x="42" y="9" onmousedown="handleZoom(evt,'out')"/>
                <use id="reset" xlink:href="#resetDef" x="30" y="36" onmousedown="handleReset()"/>
                <g id="arrowUp" xlink:href="#dirArrow" transform="translate(30 24)" onmousedown="handlePan(0,-1)">
                  <use xlink:href="#rim" fill="#404040">
                        <set attributeName="fill" to="#808080" begin="arrowUp.mouseover" end="arrowUp.mouseout"/>
                  </use>
                  <path fill="none" stroke="white" stroke-width="1.5" d="M0,-3.0v7 M-2.5,-0.5L0,-3.0L2.5,-0.5"/>
                </g>
                <g id="arrowRight" xlink:href="#dirArrow" transform="rotate(90) translate(36 -43)" onmousedown="handlePan(1,0)">
                  <use xlink:href="#rim" fill="#404040">
                        <set attributeName="fill" to="#808080" begin="arrowRight.mouseover" end="arrowRight.mouseout"/>
                  </use>
                  <path fill="none" stroke="white" stroke-width="1.5" d="M0,-3.0v7 M-2.5,-0.5L0,-3.0L2.5,-0.5"/>
                </g>
                <g id="arrowDown" xlink:href="#dirArrow" transform="rotate(180) translate(-30 -48)" onmousedown="handlePan(0,1)">
                  <use xlink:href="#rim" fill="#404040">
                        <set attributeName="fill" to="#808080" begin="arrowDown.mouseover" end="arrowDown.mouseout"/>
                  </use>
                  <path fill="none" stroke="white" stroke-width="1.5" d="M0,-3.0v7 M-2.5,-0.5L0,-3.0L2.5,-0.5"/>
                </g>
                <g id="arrowLeft" xlink:href="#dirArrow" transform="rotate(270) translate(-36 17)" onmousedown="handlePan(-1,0)">
                  <use xlink:href="#rim" fill="#404040">
                        <set attributeName="fill" to="#808080" begin="arrowLeft.mouseover" end="arrowLeft.mouseout"/>
                  </use>
                  <path fill="none" stroke="white" stroke-width="1.5" d="M0,-3.0v7 M-2.5,-0.5L0,-3.0L2.5,-0.5"/>
                </g>
        </g>
        <svg viewBox="0 0 15 15" width="100%" height="30px" preserveAspectRatio="xMaxYMin meet">
         <g id="arrow_out" transform="scale(0.3 0.3)">
          <a xlink:href="deanti__UHF_8cc__incl_org.svg" target="_base">
           <rect id="button" ry="5" rx="5" y="6" x="6" height="38" width="38"
                fill="#f2f5e9" fill-opacity="0.5" stroke="#606060" stroke-width="1.0"/>
           <path id="arrow"
             d="M 11.500037,31.436501 C 11.940474,20.09759 22.043105,11.32322 32.158766,21.979434 L 37.068811,17.246167 C 37.068811,17.246167 37.088388,32 37.088388,32 L 22.160133,31.978069 C 22.160133,31.978069 26.997745,27.140456 26.997745,27.140456 C 18.528582,18.264221 13.291696,25.230495 11.500037,31.436501 z"
             style="fill:#404040;"/>
          </a>
         </g>
        </svg>
</svg>
