<?xml version="1.0" encoding="UTF-8" standalone="no"?>
<!DOCTYPE svg PUBLIC "-//W3C//DTD SVG 1.1//EN"
 "http://www.w3.org/Graphics/SVG/1.1/DTD/svg11.dtd">
<!-- Generated by graphviz version 2.30.1 (20140110.0959)
 -->
<!-- Title: indpairs.h Pages: 1 -->
<svg width="149pt" height="84pt"
 viewBox="0.00 0.00 149.00 84.00" xmlns="http://www.w3.org/2000/svg" xmlns:xlink="http://www.w3.org/1999/xlink">
<g id="graph0" class="graph" transform="scale(1 1) rotate(0) translate(4 80)">
<title>indpairs.h</title>
<!-- Node1 -->
<g id="node1" class="node"><title>Node1</title>
<polygon fill="#bfbfbf" stroke="black" points="39.5,-56.5 39.5,-75.5 98.5,-75.5 98.5,-56.5 39.5,-56.5"/>
<text text-anchor="middle" x="69" y="-63.5" font-family="Helvetica,sans-Serif" font-size="10.00">indpairs.h</text>
</g>
<!-- Node2 -->
<g id="node2" class="node"><title>Node2</title>
<g id="a_node2"><a xlink:href="detcas_8cc.html" target="_top" xlink:title="Orbital optimizer for detci.">
<polygon fill="none" stroke="black" points="-0.5,-0.5 -0.5,-19.5 58.5,-19.5 58.5,-0.5 -0.5,-0.5"/>
<text text-anchor="middle" x="29" y="-7.5" font-family="Helvetica,sans-Serif" font-size="10.00">detcas.cc</text>
</a>
</g>
</g>
<!-- Node1&#45;&gt;Node2 -->
<g id="edge1" class="edge"><title>Node1&#45;&gt;Node2</title>
<path fill="none" stroke="midnightblue" d="M56.3003,-47.8554C49.374,-38.5048 41.0937,-27.3265 35.4823,-19.7511"/>
<polygon fill="midnightblue" stroke="midnightblue" points="53.63,-50.1307 62.3948,-56.083 59.255,-45.9641 53.63,-50.1307"/>
</g>
<!-- Node3 -->
<g id="node3" class="node"><title>Node3</title>
<g id="a_node3"><a xlink:href="detcas_2indpairs_8cc.html" target="_top" xlink:title="Enter brief description of file here.">
<polygon fill="none" stroke="black" points="77,-0.5 77,-19.5 141,-19.5 141,-0.5 77,-0.5"/>
<text text-anchor="middle" x="109" y="-7.5" font-family="Helvetica,sans-Serif" font-size="10.00">indpairs.cc</text>
</a>
</g>
</g>
<!-- Node1&#45;&gt;Node3 -->
<g id="edge2" class="edge"><title>Node1&#45;&gt;Node3</title>
<path fill="none" stroke="midnightblue" d="M81.6997,-47.8554C88.626,-38.5048 96.9063,-27.3265 102.518,-19.7511"/>
<polygon fill="midnightblue" stroke="midnightblue" points="78.745,-45.9641 75.6052,-56.083 84.37,-50.1307 78.745,-45.9641"/>
</g>
</g>
</svg>
