<?xml version="1.0" encoding="UTF-8" standalone="no"?>
<!DOCTYPE svg PUBLIC "-//W3C//DTD SVG 1.1//EN"
 "http://www.w3.org/Graphics/SVG/1.1/DTD/svg11.dtd">
<!-- Generated by graphviz version 2.30.1 (20140110.0959)
 -->
<!-- Title: globals.h Pages: 1 -->
<!--zoomable 84 -->
<svg id="main" version="1.1" xmlns="http://www.w3.org/2000/svg" xmlns:xlink="http://www.w3.org/1999/xlink" xml:space="preserve" onload="init(evt)">
        <defs>
                <circle id="rim" cx="0" cy="0" r="7"/>
                <circle id="rim2" cx="0" cy="0" r="3.5"/>
                <g id="zoomPlus">
                        <use xlink:href="#rim" fill="#404040">
                                <set attributeName="fill" to="#808080" begin="zoomplus.mouseover" end="zoomplus.mouseout"/>
                        </use>
                        <path d="M-4,0h8M0,-4v8" fill="none" stroke="white" stroke-width="1.5" pointer-events="none"/>
                </g>
                <g id="zoomMin">
                        <use xlink:href="#rim" fill="#404040">
                                <set attributeName="fill" to="#808080" begin="zoomminus.mouseover" end="zoomminus.mouseout"/>
                        </use>
                        <path d="M-4,0h8" fill="none" stroke="white" stroke-width="1.5" pointer-events="none"/>
                </g>
                <g id="dirArrow">
                        <path fill="none" stroke="white" stroke-width="1.5" d="M0,-3.0v7 M-2.5,-0.5L0,-3.0L2.5,-0.5"/>
                </g>
               <g id="resetDef">
                       <use xlink:href="#rim2" fill="#404040">
                               <set attributeName="fill" to="#808080" begin="reset.mouseover" end="reset.mouseout"/>
                       </use>
               </g>
        </defs>

<script type="text/javascript">
var viewWidth = 3024;
var viewHeight = 84;
var sectionId = 'dynsection-1';
</script>
<script xlink:href="svgpan.js"/>
<svg id="graph" class="graph">
<g id="viewport">
<title>globals.h</title>
<!-- Node1 -->
<g id="node1" class="node"><title>Node1</title>
<polygon fill="#bfbfbf" stroke="black" points="1617,-56.5 1617,-75.5 1673,-75.5 1673,-56.5 1617,-56.5"/>
<text text-anchor="middle" x="1645" y="-63.5" font-family="Helvetica,sans-Serif" font-size="10.00">globals.h</text>
</g>
<!-- Node2 -->
<g id="node2" class="node"><title>Node2</title>
<g id="a_node2"><a xlink:href="b2brepl_8cc.html" target="_top" xlink:title="Contains code to do block&#45;to&#45;block single replacement lists.">
<polygon fill="none" stroke="black" points="0,-0.5 0,-19.5 62,-19.5 62,-0.5 0,-0.5"/>
<text text-anchor="middle" x="31" y="-7.5" font-family="Helvetica,sans-Serif" font-size="10.00">b2brepl.cc</text>
</a>
</g>
</g>
<!-- Node1&#45;&gt;Node2 -->
<g id="edge1" class="edge"><title>Node1&#45;&gt;Node2</title>
<path fill="none" stroke="midnightblue" d="M1606.58,-64.9058C1396.16,-64.2377 381.599,-59.012 71,-20 68.175,-19.6452 65.2562,-19.1815 62.342,-18.6517"/>
<polygon fill="midnightblue" stroke="midnightblue" points="1606.81,-68.4064 1616.82,-64.9367 1606.83,-61.4065 1606.81,-68.4064"/>
</g>
<!-- Node3 -->
<g id="node3" class="node"><title>Node3</title>
<g id="a_node3"><a xlink:href="calc__d_8cc.html" target="_top" xlink:title="Enter brief description of file here.">
<polygon fill="none" stroke="black" points="80.5,-0.5 80.5,-19.5 139.5,-19.5 139.5,-0.5 80.5,-0.5"/>
<text text-anchor="middle" x="110" y="-7.5" font-family="Helvetica,sans-Serif" font-size="10.00">calc_d.cc</text>
</a>
</g>
</g>
<!-- Node1&#45;&gt;Node3 -->
<g id="edge2" class="edge"><title>Node1&#45;&gt;Node3</title>
<path fill="none" stroke="midnightblue" d="M1606.55,-64.8677C1402.35,-64.0094 443.152,-57.9885 149,-20 145.968,-19.6084 142.826,-19.0855 139.701,-18.4881"/>
<polygon fill="midnightblue" stroke="midnightblue" points="1606.77,-68.3685 1616.78,-64.909 1606.79,-61.3685 1606.77,-68.3685"/>
</g>
<!-- Node4 -->
<g id="node4" class="node"><title>Node4</title>
<g id="a_node4"><a xlink:href="calc__hd__block_8cc.html" target="_top" xlink:title="Enter brief description of file here.">
<polygon fill="none" stroke="black" points="158,-0.5 158,-19.5 250,-19.5 250,-0.5 158,-0.5"/>
<text text-anchor="middle" x="204" y="-7.5" font-family="Helvetica,sans-Serif" font-size="10.00">calc_hd_block.cc</text>
</a>
</g>
</g>
<!-- Node1&#45;&gt;Node4 -->
<g id="edge3" class="edge"><title>Node1&#45;&gt;Node4</title>
<path fill="none" stroke="midnightblue" d="M1606.96,-64.4333C1412.85,-61.4396 531.341,-46.5902 259,-20 256.111,-19.7179 253.144,-19.3784 250.157,-18.9987"/>
<polygon fill="midnightblue" stroke="midnightblue" points="1606.91,-67.9329 1616.97,-64.5865 1607.02,-60.9337 1606.91,-67.9329"/>
</g>
<!-- Node5 -->
<g id="node5" class="node"><title>Node5</title>
<g id="a_node5"><a xlink:href="calc__pt__block_8cc.html" target="_top" xlink:title="Enter brief description of file here.">
<polygon fill="none" stroke="black" points="268,-0.5 268,-19.5 358,-19.5 358,-0.5 268,-0.5"/>
<text text-anchor="middle" x="313" y="-7.5" font-family="Helvetica,sans-Serif" font-size="10.00">calc_pt_block.cc</text>
</a>
</g>
</g>
<!-- Node1&#45;&gt;Node5 -->
<g id="edge4" class="edge"><title>Node1&#45;&gt;Node5</title>
<path fill="none" stroke="midnightblue" d="M1606.72,-64.324C1421.44,-60.9496 616.603,-45.0874 367,-20 364.068,-19.7054 361.055,-19.3501 358.023,-18.9532"/>
<polygon fill="midnightblue" stroke="midnightblue" points="1606.74,-67.8248 1616.8,-64.5064 1606.86,-60.826 1606.74,-67.8248"/>
</g>
<!-- Node6 -->
<g id="node6" class="node"><title>Node6</title>
<g id="a_node6"><a xlink:href="civect_8cc.html" target="_top" xlink:title="Code for the CI vector class.">
<polygon fill="none" stroke="black" points="376,-0.5 376,-19.5 432,-19.5 432,-0.5 376,-0.5"/>
<text text-anchor="middle" x="404" y="-7.5" font-family="Helvetica,sans-Serif" font-size="10.00">civect.cc</text>
</a>
</g>
</g>
<!-- Node1&#45;&gt;Node6 -->
<g id="edge5" class="edge"><title>Node1&#45;&gt;Node6</title>
<path fill="none" stroke="midnightblue" d="M1606.63,-64.6048C1427.7,-62.603 674.113,-52.3715 441,-20 438.119,-19.5999 435.135,-19.0715 432.169,-18.4706"/>
<polygon fill="midnightblue" stroke="midnightblue" points="1606.83,-68.1071 1616.87,-64.7173 1606.91,-61.1076 1606.83,-68.1071"/>
</g>
<!-- Node7 -->
<g id="node7" class="node"><title>Node7</title>
<g id="a_node7"><a xlink:href="compute__cc_8cc.html" target="_top" xlink:title="Arbitrary&#45;order coupled&#45;cluster code.">
<polygon fill="none" stroke="black" points="450.5,-0.5 450.5,-19.5 533.5,-19.5 533.5,-0.5 450.5,-0.5"/>
<text text-anchor="middle" x="492" y="-7.5" font-family="Helvetica,sans-Serif" font-size="10.00">compute_cc.cc</text>
</a>
</g>
</g>
<!-- Node1&#45;&gt;Node7 -->
<g id="edge6" class="edge"><title>Node1&#45;&gt;Node7</title>
<path fill="none" stroke="midnightblue" d="M1606.42,-65.3381C1464.33,-66.1778 956.97,-65.594 542,-20 539.282,-19.7014 536.489,-19.3431 533.68,-18.944"/>
<polygon fill="midnightblue" stroke="midnightblue" points="1606.79,-68.8358 1616.77,-65.2703 1606.75,-61.8359 1606.79,-68.8358"/>
</g>
<!-- Node8 -->
<g id="node8" class="node"><title>Node8</title>
<g id="a_node8"><a xlink:href="detci_8cc.html" target="_top" xlink:title="Determinant&#45;based CI program.">
<polygon fill="none" stroke="black" points="551.5,-0.5 551.5,-19.5 602.5,-19.5 602.5,-0.5 551.5,-0.5"/>
<text text-anchor="middle" x="577" y="-7.5" font-family="Helvetica,sans-Serif" font-size="10.00">detci.cc</text>
</a>
</g>
</g>
<!-- Node1&#45;&gt;Node8 -->
<g id="edge7" class="edge"><title>Node1&#45;&gt;Node8</title>
<path fill="none" stroke="midnightblue" d="M1606.91,-64.4399C1444.45,-61.8818 808.719,-50.1113 611,-20 608.344,-19.5955 605.597,-19.0642 602.868,-18.4616"/>
<polygon fill="midnightblue" stroke="midnightblue" points="1606.87,-67.9395 1616.92,-64.5952 1606.98,-60.9404 1606.87,-67.9395"/>
</g>
<!-- Node9 -->
<g id="node9" class="node"><title>Node9</title>
<g id="a_node9"><a xlink:href="form__ov_8cc.html" target="_top" xlink:title="Form OV arrays of Bendazzoli and Evangelisti, JCP 98, 3141 (1993)">
<polygon fill="none" stroke="black" points="620.5,-0.5 620.5,-19.5 685.5,-19.5 685.5,-0.5 620.5,-0.5"/>
<text text-anchor="middle" x="653" y="-7.5" font-family="Helvetica,sans-Serif" font-size="10.00">form_ov.cc</text>
</a>
</g>
</g>
<!-- Node1&#45;&gt;Node9 -->
<g id="edge8" class="edge"><title>Node1&#45;&gt;Node9</title>
<path fill="none" stroke="midnightblue" d="M1606.67,-65.4983C1477.45,-66.6865 1046.22,-66.6523 694,-20 691.255,-19.6364 688.421,-19.1824 685.586,-18.6729"/>
<polygon fill="midnightblue" stroke="midnightblue" points="1606.87,-68.9965 1616.84,-65.3962 1606.8,-61.9968 1606.87,-68.9965"/>
</g>
<!-- Node10 -->
<g id="node10" class="node"><title>Node10</title>
<g id="a_node10"><a xlink:href="detci_2get__mo__info_8cc.html" target="_top" xlink:title="Enter brief description of file here.">
<polygon fill="none" stroke="black" points="703.5,-0.5 703.5,-19.5 786.5,-19.5 786.5,-0.5 703.5,-0.5"/>
<text text-anchor="middle" x="745" y="-7.5" font-family="Helvetica,sans-Serif" font-size="10.00">get_mo_info.cc</text>
</a>
</g>
</g>
<!-- Node1&#45;&gt;Node10 -->
<g id="edge9" class="edge"><title>Node1&#45;&gt;Node10</title>
<path fill="none" stroke="midnightblue" d="M1606.51,-64.6257C1486.32,-63.1007 1107.39,-55.5945 796,-20 792.963,-19.6528 789.833,-19.2391 786.688,-18.7827"/>
<polygon fill="midnightblue" stroke="midnightblue" points="1606.64,-68.1274 1616.68,-64.7481 1606.72,-61.1279 1606.64,-68.1274"/>
</g>
<!-- Node11 -->
<g id="node11" class="node"><title>Node11</title>
<g id="a_node11"><a xlink:href="graphset_8cc.html" target="_top" xlink:title="Routines needed to maintain the GraphSet Object.">
<polygon fill="none" stroke="black" points="805,-0.5 805,-19.5 873,-19.5 873,-0.5 805,-0.5"/>
<text text-anchor="middle" x="839" y="-7.5" font-family="Helvetica,sans-Serif" font-size="10.00">graphset.cc</text>
</a>
</g>
</g>
<!-- Node1&#45;&gt;Node11 -->
<g id="edge10" class="edge"><title>Node1&#45;&gt;Node11</title>
<path fill="none" stroke="midnightblue" d="M1606.66,-64.732C1494.62,-63.5214 1158.18,-56.8427 882,-20 879.127,-19.6168 876.16,-19.149 873.189,-18.6302"/>
<polygon fill="midnightblue" stroke="midnightblue" points="1606.76,-68.2331 1616.8,-64.8329 1606.83,-61.2334 1606.76,-68.2331"/>
</g>
<!-- Node12 -->
<g id="node12" class="node"><title>Node12</title>
<g id="a_node12"><a xlink:href="h0block_8cc.html" target="_top" xlink:title="Some code associated with the H0block structure, which does the preconditioning for the Olsen/Davidso...">
<polygon fill="none" stroke="black" points="891,-0.5 891,-19.5 955,-19.5 955,-0.5 891,-0.5"/>
<text text-anchor="middle" x="923" y="-7.5" font-family="Helvetica,sans-Serif" font-size="10.00">h0block.cc</text>
</a>
</g>
</g>
<!-- Node1&#45;&gt;Node12 -->
<g id="edge11" class="edge"><title>Node1&#45;&gt;Node12</title>
<path fill="none" stroke="midnightblue" d="M1606.65,-64.479C1502.69,-62.6334 1207.03,-54.5047 964,-20 961.114,-19.5902 958.129,-19.0888 955.146,-18.5344"/>
<polygon fill="midnightblue" stroke="midnightblue" points="1606.89,-67.9836 1616.95,-64.6522 1607.01,-60.9846 1606.89,-67.9836"/>
</g>
<!-- Node13 -->
<g id="node13" class="node"><title>Node13</title>
<g id="a_node13"><a xlink:href="import__vector_8cc.html" target="_top" xlink:title="Enter brief description of file here.">
<polygon fill="none" stroke="black" points="973.5,-0.5 973.5,-19.5 1062.5,-19.5 1062.5,-0.5 973.5,-0.5"/>
<text text-anchor="middle" x="1018" y="-7.5" font-family="Helvetica,sans-Serif" font-size="10.00">import_vector.cc</text>
</a>
</g>
</g>
<!-- Node1&#45;&gt;Node13 -->
<g id="edge12" class="edge"><title>Node1&#45;&gt;Node13</title>
<path fill="none" stroke="midnightblue" d="M1606.64,-63.1399C1514.32,-58.4126 1272.55,-44.5409 1072,-20 1068.98,-19.6306 1065.87,-19.2129 1062.75,-18.7648"/>
<polygon fill="midnightblue" stroke="midnightblue" points="1606.73,-66.6487 1616.89,-63.6585 1607.08,-59.6576 1606.73,-66.6487"/>
</g>
<!-- Node14 -->
<g id="node14" class="node"><title>Node14</title>
<g id="a_node14"><a xlink:href="detci_2ints_8cc.html" target="_top" xlink:title="Enter brief description of file here.">
<polygon fill="none" stroke="black" points="1081,-0.5 1081,-19.5 1127,-19.5 1127,-0.5 1081,-0.5"/>
<text text-anchor="middle" x="1104" y="-7.5" font-family="Helvetica,sans-Serif" font-size="10.00">ints.cc</text>
</a>
</g>
</g>
<!-- Node1&#45;&gt;Node14 -->
<g id="edge13" class="edge"><title>Node1&#45;&gt;Node14</title>
<path fill="none" stroke="midnightblue" d="M1606.66,-64.0409C1521.38,-61.3789 1309.85,-51.846 1136,-20 1133.16,-19.4801 1130.21,-18.8199 1127.3,-18.0941"/>
<polygon fill="midnightblue" stroke="midnightblue" points="1606.79,-67.5464 1616.89,-64.3459 1607,-60.5495 1606.79,-67.5464"/>
</g>
<!-- Node15 -->
<g id="node15" class="node"><title>Node15</title>
<g id="a_node15"><a xlink:href="mitrush__iter_8cc.html" target="_top" xlink:title="Mitrushenkov iterative scheme for RAS CI&#39;s.">
<polygon fill="none" stroke="black" points="1145.5,-0.5 1145.5,-19.5 1226.5,-19.5 1226.5,-0.5 1145.5,-0.5"/>
<text text-anchor="middle" x="1186" y="-7.5" font-family="Helvetica,sans-Serif" font-size="10.00">mitrush_iter.cc</text>
</a>
</g>
</g>
<!-- Node1&#45;&gt;Node15 -->
<g id="edge14" class="edge"><title>Node1&#45;&gt;Node15</title>
<path fill="none" stroke="midnightblue" d="M1606.51,-61.7114C1533.74,-55.2871 1371.07,-39.9374 1235,-20 1232.26,-19.5988 1229.44,-19.1572 1226.6,-18.6917"/>
<polygon fill="midnightblue" stroke="midnightblue" points="1606.31,-65.2075 1616.58,-62.594 1606.92,-58.2342 1606.31,-65.2075"/>
</g>
<!-- Node16 -->
<g id="node16" class="node"><title>Node16</title>
<g id="a_node16"><a xlink:href="mpn_8cc.html" target="_top" xlink:title="Enter brief description of file here.">
<polygon fill="none" stroke="black" points="1244.5,-0.5 1244.5,-19.5 1293.5,-19.5 1293.5,-0.5 1244.5,-0.5"/>
<text text-anchor="middle" x="1269" y="-7.5" font-family="Helvetica,sans-Serif" font-size="10.00">mpn.cc</text>
</a>
</g>
</g>
<!-- Node1&#45;&gt;Node16 -->
<g id="edge15" class="edge"><title>Node1&#45;&gt;Node16</title>
<path fill="none" stroke="midnightblue" d="M1606.8,-61.6969C1543.16,-55.8138 1411.6,-42.029 1302,-20 1299.32,-19.4617 1296.54,-18.8263 1293.78,-18.146"/>
<polygon fill="midnightblue" stroke="midnightblue" points="1606.5,-65.1845 1616.78,-62.6061 1607.14,-58.2133 1606.5,-65.1845"/>
</g>
<!-- Node17 -->
<g id="node17" class="node"><title>Node17</title>
<g id="a_node17"><a xlink:href="og__addr_8cc.html" target="_top" xlink:title="Enter brief description of file here.">
<polygon fill="none" stroke="black" points="1311.5,-0.5 1311.5,-19.5 1376.5,-19.5 1376.5,-0.5 1311.5,-0.5"/>
<text text-anchor="middle" x="1344" y="-7.5" font-family="Helvetica,sans-Serif" font-size="10.00">og_addr.cc</text>
</a>
</g>
</g>
<!-- Node1&#45;&gt;Node17 -->
<g id="edge16" class="edge"><title>Node1&#45;&gt;Node17</title>
<path fill="none" stroke="midnightblue" d="M1606.65,-58.9124C1555.84,-50.722 1463.48,-35.3972 1385,-20 1382.28,-19.4669 1379.47,-18.8937 1376.65,-18.3041"/>
<polygon fill="midnightblue" stroke="midnightblue" points="1606.41,-62.4191 1616.84,-60.5493 1607.52,-55.5076 1606.41,-62.4191"/>
</g>
<!-- Node18 -->
<g id="node18" class="node"><title>Node18</title>
<g id="a_node18"><a xlink:href="olsengraph_8cc.html" target="_top" xlink:title="Enter brief description of file here.">
<polygon fill="none" stroke="black" points="1394.5,-0.5 1394.5,-19.5 1471.5,-19.5 1471.5,-0.5 1394.5,-0.5"/>
<text text-anchor="middle" x="1433" y="-7.5" font-family="Helvetica,sans-Serif" font-size="10.00">olsengraph.cc</text>
</a>
</g>
</g>
<!-- Node1&#45;&gt;Node18 -->
<g id="edge17" class="edge"><title>Node1&#45;&gt;Node18</title>
<path fill="none" stroke="midnightblue" d="M1606.95,-55.3068C1566.97,-45.1236 1504.7,-29.2632 1466.52,-19.5371"/>
<polygon fill="midnightblue" stroke="midnightblue" points="1606.29,-58.7525 1616.85,-57.8292 1608.02,-51.9691 1606.29,-58.7525"/>
</g>
<!-- Node19 -->
<g id="node19" class="node"><title>Node19</title>
<g id="a_node19"><a xlink:href="olsenupdt_8cc.html" target="_top" xlink:title="Enter brief description of file here.">
<polygon fill="none" stroke="black" points="1490,-0.5 1490,-19.5 1562,-19.5 1562,-0.5 1490,-0.5"/>
<text text-anchor="middle" x="1526" y="-7.5" font-family="Helvetica,sans-Serif" font-size="10.00">olsenupdt.cc</text>
</a>
</g>
</g>
<!-- Node1&#45;&gt;Node19 -->
<g id="edge18" class="edge"><title>Node1&#45;&gt;Node19</title>
<path fill="none" stroke="midnightblue" d="M1616.86,-52.2321C1594.6,-42.1312 1564.14,-28.3091 1544.77,-19.5164"/>
<polygon fill="midnightblue" stroke="midnightblue" points="1615.59,-55.4984 1626.14,-56.4435 1618.48,-49.124 1615.59,-55.4984"/>
</g>
<!-- Node20 -->
<g id="node20" class="node"><title>Node20</title>
<g id="a_node20"><a xlink:href="detci_2opdm_8cc.html" target="_top" xlink:title="Enter brief description of file here.">
<polygon fill="none" stroke="black" points="1580,-0.5 1580,-19.5 1634,-19.5 1634,-0.5 1580,-0.5"/>
<text text-anchor="middle" x="1607" y="-7.5" font-family="Helvetica,sans-Serif" font-size="10.00">opdm.cc</text>
</a>
</g>
</g>
<!-- Node1&#45;&gt;Node20 -->
<g id="edge19" class="edge"><title>Node1&#45;&gt;Node20</title>
<path fill="none" stroke="midnightblue" d="M1632.94,-47.8554C1626.36,-38.5048 1618.49,-27.3265 1613.16,-19.7511"/>
<polygon fill="midnightblue" stroke="midnightblue" points="1630.11,-49.9192 1638.73,-56.083 1635.83,-45.8907 1630.11,-49.9192"/>
</g>
<!-- Node21 -->
<g id="node21" class="node"><title>Node21</title>
<g id="a_node21"><a xlink:href="detci_2params_8cc.html" target="_top" xlink:title="Enter brief description of file here.">
<polygon fill="none" stroke="black" points="1652,-0.5 1652,-19.5 1714,-19.5 1714,-0.5 1652,-0.5"/>
<text text-anchor="middle" x="1683" y="-7.5" font-family="Helvetica,sans-Serif" font-size="10.00">params.cc</text>
</a>
</g>
</g>
<!-- Node1&#45;&gt;Node21 -->
<g id="edge20" class="edge"><title>Node1&#45;&gt;Node21</title>
<path fill="none" stroke="midnightblue" d="M1657.06,-47.8554C1663.64,-38.5048 1671.51,-27.3265 1676.84,-19.7511"/>
<polygon fill="midnightblue" stroke="midnightblue" points="1654.17,-45.8907 1651.27,-56.083 1659.89,-49.9192 1654.17,-45.8907"/>
</g>
<!-- Node22 -->
<g id="node22" class="node"><title>Node22</title>
<g id="a_node22"><a xlink:href="printing_8cc.html" target="_top" xlink:title="Enter brief description of file here.">
<polygon fill="none" stroke="black" points="1732,-0.5 1732,-19.5 1794,-19.5 1794,-0.5 1732,-0.5"/>
<text text-anchor="middle" x="1763" y="-7.5" font-family="Helvetica,sans-Serif" font-size="10.00">printing.cc</text>
</a>
</g>
</g>
<!-- Node1&#45;&gt;Node22 -->
<g id="edge21" class="edge"><title>Node1&#45;&gt;Node22</title>
<path fill="none" stroke="midnightblue" d="M1672.9,-52.2321C1694.97,-42.1312 1725.18,-28.3091 1744.39,-19.5164"/>
<polygon fill="midnightblue" stroke="midnightblue" points="1671.33,-49.0997 1663.7,-56.4435 1674.25,-55.4648 1671.33,-49.0997"/>
</g>
<!-- Node23 -->
<g id="node23" class="node"><title>Node23</title>
<g id="a_node23"><a xlink:href="s1_8cc.html" target="_top" xlink:title="Enter brief description of file here.">
<polygon fill="none" stroke="black" points="1812.5,-0.5 1812.5,-19.5 1853.5,-19.5 1853.5,-0.5 1812.5,-0.5"/>
<text text-anchor="middle" x="1833" y="-7.5" font-family="Helvetica,sans-Serif" font-size="10.00">s1.cc</text>
</a>
</g>
</g>
<!-- Node1&#45;&gt;Node23 -->
<g id="edge22" class="edge"><title>Node1&#45;&gt;Node23</title>
<path fill="none" stroke="midnightblue" d="M1682.85,-54.3809C1714.88,-45.3546 1761.99,-31.9895 1803,-20 1806.03,-19.1149 1809.22,-18.1689 1812.35,-17.235"/>
<polygon fill="midnightblue" stroke="midnightblue" points="1681.68,-51.0732 1673,-57.1518 1683.58,-57.8113 1681.68,-51.0732"/>
</g>
<!-- Node24 -->
<g id="node24" class="node"><title>Node24</title>
<g id="a_node24"><a xlink:href="s1v_8cc.html" target="_top" xlink:title="Enter brief description of file here.">
<polygon fill="none" stroke="black" points="1872,-0.5 1872,-19.5 1918,-19.5 1918,-0.5 1872,-0.5"/>
<text text-anchor="middle" x="1895" y="-7.5" font-family="Helvetica,sans-Serif" font-size="10.00">s1v.cc</text>
</a>
</g>
</g>
<!-- Node1&#45;&gt;Node24 -->
<g id="edge23" class="edge"><title>Node1&#45;&gt;Node24</title>
<path fill="none" stroke="midnightblue" d="M1683.07,-57.8441C1726.53,-49.5054 1799.65,-34.9514 1862,-20 1865.23,-19.2245 1868.63,-18.3576 1871.97,-17.4764"/>
<polygon fill="midnightblue" stroke="midnightblue" points="1682.38,-54.413 1673.21,-59.7268 1683.69,-61.2887 1682.38,-54.413"/>
</g>
<!-- Node25 -->
<g id="node25" class="node"><title>Node25</title>
<g id="a_node25"><a xlink:href="s2_8cc.html" target="_top" xlink:title="Enter brief description of file here.">
<polygon fill="none" stroke="black" points="1936.5,-0.5 1936.5,-19.5 1977.5,-19.5 1977.5,-0.5 1936.5,-0.5"/>
<text text-anchor="middle" x="1957" y="-7.5" font-family="Helvetica,sans-Serif" font-size="10.00">s2.cc</text>
</a>
</g>
</g>
<!-- Node1&#45;&gt;Node25 -->
<g id="edge24" class="edge"><title>Node1&#45;&gt;Node25</title>
<path fill="none" stroke="midnightblue" d="M1683.51,-60.507C1738.1,-53.7653 1840.91,-39.6896 1927,-20 1930.07,-19.2968 1933.3,-18.4503 1936.44,-17.5615"/>
<polygon fill="midnightblue" stroke="midnightblue" points="1682.76,-57.0727 1673.26,-61.757 1683.61,-64.0212 1682.76,-57.0727"/>
</g>
<!-- Node26 -->
<g id="node26" class="node"><title>Node26</title>
<g id="a_node26"><a xlink:href="s2v_8cc.html" target="_top" xlink:title="Enter brief description of file here.">
<polygon fill="none" stroke="black" points="1996,-0.5 1996,-19.5 2042,-19.5 2042,-0.5 1996,-0.5"/>
<text text-anchor="middle" x="2019" y="-7.5" font-family="Helvetica,sans-Serif" font-size="10.00">s2v.cc</text>
</a>
</g>
</g>
<!-- Node1&#45;&gt;Node26 -->
<g id="edge25" class="edge"><title>Node1&#45;&gt;Node26</title>
<path fill="none" stroke="midnightblue" d="M1683.37,-61.6413C1746.79,-55.7103 1877.26,-41.8987 1986,-20 1989.14,-19.3669 1992.43,-18.6005 1995.66,-17.7851"/>
<polygon fill="midnightblue" stroke="midnightblue" points="1682.69,-58.1889 1673.06,-62.5915 1683.34,-65.1594 1682.69,-58.1889"/>
</g>
<!-- Node27 -->
<g id="node27" class="node"><title>Node27</title>
<g id="a_node27"><a xlink:href="s3_8cc.html" target="_top" xlink:title="Enter brief description of file here.">
<polygon fill="none" stroke="black" points="2060.5,-0.5 2060.5,-19.5 2101.5,-19.5 2101.5,-0.5 2060.5,-0.5"/>
<text text-anchor="middle" x="2081" y="-7.5" font-family="Helvetica,sans-Serif" font-size="10.00">s3.cc</text>
</a>
</g>
</g>
<!-- Node1&#45;&gt;Node27 -->
<g id="edge26" class="edge"><title>Node1&#45;&gt;Node27</title>
<path fill="none" stroke="midnightblue" d="M1683.36,-63.0675C1755.82,-58.9063 1917.54,-47.182 2051,-20 2054.09,-19.3706 2057.32,-18.5644 2060.47,-17.6938"/>
<polygon fill="midnightblue" stroke="midnightblue" points="1683.12,-59.5753 1673.33,-63.6275 1683.51,-66.5645 1683.12,-59.5753"/>
</g>
<!-- Node28 -->
<g id="node28" class="node"><title>Node28</title>
<g id="a_node28"><a xlink:href="s3__block__bz_8cc.html" target="_top" xlink:title="Enter brief description of file here.">
<polygon fill="none" stroke="black" points="2119.5,-0.5 2119.5,-19.5 2204.5,-19.5 2204.5,-0.5 2119.5,-0.5"/>
<text text-anchor="middle" x="2162" y="-7.5" font-family="Helvetica,sans-Serif" font-size="10.00">s3_block_bz.cc</text>
</a>
</g>
</g>
<!-- Node1&#45;&gt;Node28 -->
<g id="edge27" class="edge"><title>Node1&#45;&gt;Node28</title>
<path fill="none" stroke="midnightblue" d="M1683.17,-62.2798C1762.75,-56.3944 1952.11,-41.2731 2110,-20 2113.09,-19.5841 2116.27,-19.1198 2119.47,-18.6275"/>
<polygon fill="midnightblue" stroke="midnightblue" points="1682.84,-58.7941 1673.13,-63.0164 1683.36,-65.7754 1682.84,-58.7941"/>
</g>
<!-- Node29 -->
<g id="node29" class="node"><title>Node29</title>
<g id="a_node29"><a xlink:href="s3v_8cc.html" target="_top" xlink:title="Enter brief description of file here.">
<polygon fill="none" stroke="black" points="2223,-0.5 2223,-19.5 2269,-19.5 2269,-0.5 2223,-0.5"/>
<text text-anchor="middle" x="2246" y="-7.5" font-family="Helvetica,sans-Serif" font-size="10.00">s3v.cc</text>
</a>
</g>
</g>
<!-- Node1&#45;&gt;Node29 -->
<g id="edge28" class="edge"><title>Node1&#45;&gt;Node29</title>
<path fill="none" stroke="midnightblue" d="M1683.22,-64.4339C1775.16,-62.5392 2015.68,-54.4108 2213,-20 2216.16,-19.4491 2219.45,-18.7301 2222.69,-17.9385"/>
<polygon fill="midnightblue" stroke="midnightblue" points="1682.94,-60.9386 1673.01,-64.6309 1683.08,-67.9373 1682.94,-60.9386"/>
</g>
<!-- Node30 -->
<g id="node30" class="node"><title>Node30</title>
<g id="a_node30"><a xlink:href="sem_8cc.html" target="_top" xlink:title="Enter brief description of file here.">
<polygon fill="none" stroke="black" points="2287.5,-0.5 2287.5,-19.5 2336.5,-19.5 2336.5,-0.5 2287.5,-0.5"/>
<text text-anchor="middle" x="2312" y="-7.5" font-family="Helvetica,sans-Serif" font-size="10.00">sem.cc</text>
</a>
</g>
</g>
<!-- Node1&#45;&gt;Node30 -->
<g id="edge29" class="edge"><title>Node1&#45;&gt;Node30</title>
<path fill="none" stroke="midnightblue" d="M1683.44,-64.7717C1782.6,-63.643 2054.91,-57.1173 2278,-20 2281.01,-19.4989 2284.14,-18.8503 2287.23,-18.1308"/>
<polygon fill="midnightblue" stroke="midnightblue" points="1683.26,-61.2732 1673.3,-64.8748 1683.33,-68.2729 1683.26,-61.2732"/>
</g>
<!-- Node31 -->
<g id="node31" class="node"><title>Node31</title>
<g id="a_node31"><a xlink:href="sem__test_8cc.html" target="_top" xlink:title="Enter brief description of file here.">
<polygon fill="none" stroke="black" points="2354.5,-0.5 2354.5,-19.5 2425.5,-19.5 2425.5,-0.5 2354.5,-0.5"/>
<text text-anchor="middle" x="2390" y="-7.5" font-family="Helvetica,sans-Serif" font-size="10.00">sem_test.cc</text>
</a>
</g>
</g>
<!-- Node1&#45;&gt;Node31 -->
<g id="edge30" class="edge"><title>Node1&#45;&gt;Node31</title>
<path fill="none" stroke="midnightblue" d="M1683.32,-64.327C1789.12,-62.0836 2094.03,-53.0143 2345,-20 2348,-19.6051 2351.1,-19.1292 2354.21,-18.6049"/>
<polygon fill="midnightblue" stroke="midnightblue" points="1683.07,-60.8314 1673.14,-64.5347 1683.21,-67.83 1683.07,-60.8314"/>
</g>
<!-- Node32 -->
<g id="node32" class="node"><title>Node32</title>
<g id="a_node32"><a xlink:href="set__ciblks_8cc.html" target="_top" xlink:title="Enter brief description of file here.">
<polygon fill="none" stroke="black" points="2444,-0.5 2444,-19.5 2518,-19.5 2518,-0.5 2444,-0.5"/>
<text text-anchor="middle" x="2481" y="-7.5" font-family="Helvetica,sans-Serif" font-size="10.00">set_ciblks.cc</text>
</a>
</g>
</g>
<!-- Node1&#45;&gt;Node32 -->
<g id="edge31" class="edge"><title>Node1&#45;&gt;Node32</title>
<path fill="none" stroke="midnightblue" d="M1683.42,-64.6056C1797.98,-63.0445 2147.1,-55.4929 2434,-20 2437.22,-19.6022 2440.54,-19.1167 2443.87,-18.5795"/>
<polygon fill="midnightblue" stroke="midnightblue" points="1683.03,-61.1103 1673.07,-64.7387 1683.12,-68.1097 1683.03,-61.1103"/>
</g>
<!-- Node33 -->
<g id="node33" class="node"><title>Node33</title>
<g id="a_node33"><a xlink:href="shift_8cc.html" target="_top" xlink:title="Shifts SCF eigenvalues corresponding to SOCC orbitals for ZAPTn.">
<polygon fill="none" stroke="black" points="2536.5,-0.5 2536.5,-19.5 2585.5,-19.5 2585.5,-0.5 2536.5,-0.5"/>
<text text-anchor="middle" x="2561" y="-7.5" font-family="Helvetica,sans-Serif" font-size="10.00">shift.cc</text>
</a>
</g>
</g>
<!-- Node1&#45;&gt;Node33 -->
<g id="edge32" class="edge"><title>Node1&#45;&gt;Node33</title>
<path fill="none" stroke="midnightblue" d="M1683.52,-64.0998C1831.14,-60.4855 2360.74,-45.9578 2527,-20 2530.02,-19.5291 2533.15,-18.8987 2536.24,-18.1893"/>
<polygon fill="midnightblue" stroke="midnightblue" points="1683.08,-60.6094 1673.17,-64.3507 1683.25,-67.6073 1683.08,-60.6094"/>
</g>
<!-- Node34 -->
<g id="node34" class="node"><title>Node34</title>
<g id="a_node34"><a xlink:href="sigma_8cc.html" target="_top" xlink:title="Routines to compute sigma = H * c.">
<polygon fill="none" stroke="black" points="2604,-0.5 2604,-19.5 2660,-19.5 2660,-0.5 2604,-0.5"/>
<text text-anchor="middle" x="2632" y="-7.5" font-family="Helvetica,sans-Serif" font-size="10.00">sigma.cc</text>
</a>
</g>
</g>
<!-- Node1&#45;&gt;Node34 -->
<g id="edge33" class="edge"><title>Node1&#45;&gt;Node34</title>
<path fill="none" stroke="midnightblue" d="M1683.87,-64.1177C1838.95,-60.4489 2413.76,-45.3937 2594,-20 2597.22,-19.546 2600.57,-18.9458 2603.89,-18.2703"/>
<polygon fill="midnightblue" stroke="midnightblue" points="1683.35,-60.6287 1673.44,-64.3622 1683.52,-67.6268 1683.35,-60.6287"/>
</g>
<!-- Node35 -->
<g id="node35" class="node"><title>Node35</title>
<g id="a_node35"><a xlink:href="ssq_8cc.html" target="_top" xlink:title="Compute expectation value of S^2.">
<polygon fill="none" stroke="black" points="2678,-0.5 2678,-19.5 2724,-19.5 2724,-0.5 2678,-0.5"/>
<text text-anchor="middle" x="2701" y="-7.5" font-family="Helvetica,sans-Serif" font-size="10.00">ssq.cc</text>
</a>
</g>
</g>
<!-- Node1&#45;&gt;Node35 -->
<g id="edge34" class="edge"><title>Node1&#45;&gt;Node35</title>
<path fill="none" stroke="midnightblue" d="M1683.75,-64.4895C1846.31,-62.1643 2473.84,-51.3029 2669,-20 2671.85,-19.543 2674.81,-18.9212 2677.72,-18.2164"/>
<polygon fill="midnightblue" stroke="midnightblue" points="1683.24,-60.9962 1673.29,-64.6364 1683.34,-67.9955 1683.24,-60.9962"/>
</g>
<!-- Node36 -->
<g id="node36" class="node"><title>Node36</title>
<g id="a_node36"><a xlink:href="stringlist_8cc.html" target="_top" xlink:title="Code to form the CI space as strings with all single replacements.">
<polygon fill="none" stroke="black" points="2742.5,-0.5 2742.5,-19.5 2809.5,-19.5 2809.5,-0.5 2742.5,-0.5"/>
<text text-anchor="middle" x="2776" y="-7.5" font-family="Helvetica,sans-Serif" font-size="10.00">stringlist.cc</text>
</a>
</g>
</g>
<!-- Node1&#45;&gt;Node36 -->
<g id="edge35" class="edge"><title>Node1&#45;&gt;Node36</title>
<path fill="none" stroke="midnightblue" d="M1683.11,-64.2681C1850.74,-60.9193 2523.39,-46.0891 2733,-20 2736.03,-19.6232 2739.16,-19.1444 2742.29,-18.6047"/>
<polygon fill="midnightblue" stroke="midnightblue" points="1682.96,-60.7703 1673.03,-64.4677 1683.1,-67.7689 1682.96,-60.7703"/>
</g>
<!-- Node37 -->
<g id="node37" class="node"><title>Node37</title>
<g id="a_node37"><a xlink:href="time_8cc.html" target="_top" xlink:title="DETCI&#45;specific timing routines.">
<polygon fill="none" stroke="black" points="2827.5,-0.5 2827.5,-19.5 2876.5,-19.5 2876.5,-0.5 2827.5,-0.5"/>
<text text-anchor="middle" x="2852" y="-7.5" font-family="Helvetica,sans-Serif" font-size="10.00">time.cc</text>
</a>
</g>
</g>
<!-- Node1&#45;&gt;Node37 -->
<g id="edge36" class="edge"><title>Node1&#45;&gt;Node37</title>
<path fill="none" stroke="midnightblue" d="M1683.25,-64.6653C1859.19,-62.9526 2591.6,-53.8835 2818,-20 2821.02,-19.5481 2824.16,-18.9294 2827.25,-18.2263"/>
<polygon fill="midnightblue" stroke="midnightblue" points="1683.14,-61.1661 1673.18,-64.7612 1683.21,-68.1658 1683.14,-61.1661"/>
</g>
<!-- Node38 -->
<g id="node38" class="node"><title>Node38</title>
<g id="a_node38"><a xlink:href="tpdm_8cc.html" target="_top" xlink:title="Compute the two&#45;particle density matrix (TPDM)">
<polygon fill="none" stroke="black" points="2895,-0.5 2895,-19.5 2947,-19.5 2947,-0.5 2895,-0.5"/>
<text text-anchor="middle" x="2921" y="-7.5" font-family="Helvetica,sans-Serif" font-size="10.00">tpdm.cc</text>
</a>
</g>
</g>
<!-- Node1&#45;&gt;Node38 -->
<g id="edge37" class="edge"><title>Node1&#45;&gt;Node38</title>
<path fill="none" stroke="midnightblue" d="M1683.35,-64.6858C1865.51,-63.0287 2644.5,-54.0449 2885,-20 2888.19,-19.5485 2891.51,-18.9301 2894.78,-18.2271"/>
<polygon fill="midnightblue" stroke="midnightblue" points="1683.15,-61.1873 1673.18,-64.7763 1683.21,-68.1871 1683.15,-61.1873"/>
</g>
<!-- Node39 -->
<g id="node39" class="node"><title>Node39</title>
<g id="a_node39"><a xlink:href="tpool_8cc.html" target="_top" xlink:title="Thread pools.">
<polygon fill="none" stroke="black" points="2965.5,-0.5 2965.5,-19.5 3016.5,-19.5 3016.5,-0.5 2965.5,-0.5"/>
<text text-anchor="middle" x="2991" y="-7.5" font-family="Helvetica,sans-Serif" font-size="10.00">tpool.cc</text>
</a>
</g>
</g>
<!-- Node1&#45;&gt;Node39 -->
<g id="edge38" class="edge"><title>Node1&#45;&gt;Node39</title>
<path fill="none" stroke="midnightblue" d="M1683.4,-64.8072C1871.96,-63.6888 2700.88,-56.7329 2956,-20 2958.98,-19.5708 2962.07,-18.9862 2965.13,-18.3194"/>
<polygon fill="midnightblue" stroke="midnightblue" points="1683.14,-61.3086 1673.16,-64.8659 1683.18,-68.3085 1683.14,-61.3086"/>
</g>
</g>
</svg>
        <g id="navigator" transform="translate(0 0)" fill="#404254">
                <rect fill="#f2f5e9" fill-opacity="0.5" stroke="#606060" stroke-width=".5" x="0" y="0" width="60" height="60"/>
                <use id="zoomplus" xlink:href="#zoomPlus" x="17" y="9" onmousedown="handleZoom(evt,'in')"/>
                <use id="zoomminus" xlink:href="#zoomMin" x="42" y="9" onmousedown="handleZoom(evt,'out')"/>
                <use id="reset" xlink:href="#resetDef" x="30" y="36" onmousedown="handleReset()"/>
                <g id="arrowUp" xlink:href="#dirArrow" transform="translate(30 24)" onmousedown="handlePan(0,-1)">
                  <use xlink:href="#rim" fill="#404040">
                        <set attributeName="fill" to="#808080" begin="arrowUp.mouseover" end="arrowUp.mouseout"/>
                  </use>
                  <path fill="none" stroke="white" stroke-width="1.5" d="M0,-3.0v7 M-2.5,-0.5L0,-3.0L2.5,-0.5"/>
                </g>
                <g id="arrowRight" xlink:href="#dirArrow" transform="rotate(90) translate(36 -43)" onmousedown="handlePan(1,0)">
                  <use xlink:href="#rim" fill="#404040">
                        <set attributeName="fill" to="#808080" begin="arrowRight.mouseover" end="arrowRight.mouseout"/>
                  </use>
                  <path fill="none" stroke="white" stroke-width="1.5" d="M0,-3.0v7 M-2.5,-0.5L0,-3.0L2.5,-0.5"/>
                </g>
                <g id="arrowDown" xlink:href="#dirArrow" transform="rotate(180) translate(-30 -48)" onmousedown="handlePan(0,1)">
                  <use xlink:href="#rim" fill="#404040">
                        <set attributeName="fill" to="#808080" begin="arrowDown.mouseover" end="arrowDown.mouseout"/>
                  </use>
                  <path fill="none" stroke="white" stroke-width="1.5" d="M0,-3.0v7 M-2.5,-0.5L0,-3.0L2.5,-0.5"/>
                </g>
                <g id="arrowLeft" xlink:href="#dirArrow" transform="rotate(270) translate(-36 17)" onmousedown="handlePan(-1,0)">
                  <use xlink:href="#rim" fill="#404040">
                        <set attributeName="fill" to="#808080" begin="arrowLeft.mouseover" end="arrowLeft.mouseout"/>
                  </use>
                  <path fill="none" stroke="white" stroke-width="1.5" d="M0,-3.0v7 M-2.5,-0.5L0,-3.0L2.5,-0.5"/>
                </g>
        </g>
        <svg viewBox="0 0 15 15" width="100%" height="30px" preserveAspectRatio="xMaxYMin meet">
         <g id="arrow_out" transform="scale(0.3 0.3)">
          <a xlink:href="detci_2globals_8h__dep__incl_org.svg" target="_base">
           <rect id="button" ry="5" rx="5" y="6" x="6" height="38" width="38"
                fill="#f2f5e9" fill-opacity="0.5" stroke="#606060" stroke-width="1.0"/>
           <path id="arrow"
             d="M 11.500037,31.436501 C 11.940474,20.09759 22.043105,11.32322 32.158766,21.979434 L 37.068811,17.246167 C 37.068811,17.246167 37.088388,32 37.088388,32 L 22.160133,31.978069 C 22.160133,31.978069 26.997745,27.140456 26.997745,27.140456 C 18.528582,18.264221 13.291696,25.230495 11.500037,31.436501 z"
             style="fill:#404040;"/>
          </a>
         </g>
        </svg>
</svg>
