<?xml version="1.0" encoding="UTF-8" standalone="no"?>
<!DOCTYPE svg PUBLIC "-//W3C//DTD SVG 1.1//EN"
 "http://www.w3.org/Graphics/SVG/1.1/DTD/svg11.dtd">
<!-- Generated by graphviz version 2.30.1 (20140110.0959)
 -->
<!-- Title: get_mo_info.cc Pages: 1 -->
<svg width="1946pt" height="432pt"
 viewBox="0.00 0.00 1946.00 432.00" xmlns="http://www.w3.org/2000/svg" xmlns:xlink="http://www.w3.org/1999/xlink">
<g id="graph0" class="graph" transform="scale(1 1) rotate(0) translate(4 428)">
<title>get_mo_info.cc</title>
<!-- Node1 -->
<g id="node1" class="node"><title>Node1</title>
<polygon fill="#bfbfbf" stroke="black" points="382.5,-404.5 382.5,-423.5 465.5,-423.5 465.5,-404.5 382.5,-404.5"/>
<text text-anchor="middle" x="424" y="-411.5" font-family="Helvetica,sans-Serif" font-size="10.00">get_mo_info.cc</text>
</g>
<!-- Node2 -->
<g id="node2" class="node"><title>Node2</title>
<polygon fill="none" stroke="#bfbfbf" points="268.5,-0.5 268.5,-19.5 311.5,-19.5 311.5,-0.5 268.5,-0.5"/>
<text text-anchor="middle" x="290" y="-7.5" font-family="Helvetica,sans-Serif" font-size="10.00">cstdio</text>
</g>
<!-- Node1&#45;&gt;Node2 -->
<g id="edge1" class="edge"><title>Node1&#45;&gt;Node2</title>
<path fill="none" stroke="midnightblue" d="M382.368,-411.337C334.981,-407.998 256.34,-397.984 196,-368 157.096,-348.668 123,-346.442 123,-303 123,-303 123,-303 123,-133 123,-66.6279 210.073,-32.4972 258.472,-18.6523"/>
<polygon fill="midnightblue" stroke="midnightblue" points="259.445,-22.015 268.168,-16.0016 257.599,-15.2628 259.445,-22.015"/>
</g>
<!-- Node3 -->
<g id="node3" class="node"><title>Node3</title>
<polygon fill="none" stroke="#bfbfbf" points="1663.5,-0.5 1663.5,-19.5 1708.5,-19.5 1708.5,-0.5 1663.5,-0.5"/>
<text text-anchor="middle" x="1686" y="-7.5" font-family="Helvetica,sans-Serif" font-size="10.00">cstdlib</text>
</g>
<!-- Node1&#45;&gt;Node3 -->
<g id="edge2" class="edge"><title>Node1&#45;&gt;Node3</title>
<path fill="none" stroke="midnightblue" d="M465.697,-413.29C642.039,-414.213 1327.1,-414.661 1537,-368 1609.92,-351.79 1692,-377.701 1692,-303 1692,-303 1692,-303 1692,-133 1692,-96.3697 1689.27,-53.6275 1687.49,-29.6983"/>
<polygon fill="midnightblue" stroke="midnightblue" points="1690.97,-29.2736 1686.71,-19.5717 1683.99,-29.8109 1690.97,-29.2736"/>
</g>
<!-- Node4 -->
<g id="node4" class="node"><title>Node4</title>
<polygon fill="none" stroke="#bfbfbf" points="1720,-348.5 1720,-367.5 1834,-367.5 1834,-348.5 1720,-348.5"/>
<text text-anchor="middle" x="1777" y="-355.5" font-family="Helvetica,sans-Serif" font-size="10.00">boost/lexical_cast.hpp</text>
</g>
<!-- Node1&#45;&gt;Node4 -->
<g id="edge3" class="edge"><title>Node1&#45;&gt;Node4</title>
<path fill="none" stroke="midnightblue" d="M465.583,-412.914C625.919,-412.293 1219.3,-407.307 1706,-368 1707.11,-367.91 1708.24,-367.815 1709.37,-367.716"/>
<polygon fill="midnightblue" stroke="midnightblue" points="1710.08,-371.164 1719.7,-366.718 1709.41,-364.196 1710.08,-371.164"/>
</g>
<!-- Node5 -->
<g id="node5" class="node"><title>Node5</title>
<g id="a_node5"><a xlink:href="libciomr_8h_source.html" target="_top" xlink:title="libciomr/libciomr.h">
<polygon fill="none" stroke="black" points="-0.5,-236.5 -0.5,-255.5 94.5,-255.5 94.5,-236.5 -0.5,-236.5"/>
<text text-anchor="middle" x="47" y="-243.5" font-family="Helvetica,sans-Serif" font-size="10.00">libciomr/libciomr.h</text>
</a>
</g>
</g>
<!-- Node1&#45;&gt;Node5 -->
<g id="edge4" class="edge"><title>Node1&#45;&gt;Node5</title>
<path fill="none" stroke="midnightblue" d="M382.288,-411.719C306.965,-408.659 152.063,-398.716 109,-368 74.2076,-343.183 57.6166,-292.946 50.8843,-265.658"/>
<polygon fill="midnightblue" stroke="midnightblue" points="54.2752,-264.786 48.6412,-255.813 47.4501,-266.341 54.2752,-264.786"/>
</g>
<!-- Node6 -->
<g id="node6" class="node"><title>Node6</title>
<g id="a_node6"><a xlink:href="chkpt_8h_source.html" target="_top" xlink:title="libchkpt/chkpt.h">
<polygon fill="none" stroke="black" points="1852,-348.5 1852,-367.5 1938,-367.5 1938,-348.5 1852,-348.5"/>
<text text-anchor="middle" x="1895" y="-355.5" font-family="Helvetica,sans-Serif" font-size="10.00">libchkpt/chkpt.h</text>
</a>
</g>
</g>
<!-- Node1&#45;&gt;Node6 -->
<g id="edge6" class="edge"><title>Node1&#45;&gt;Node6</title>
<path fill="none" stroke="midnightblue" d="M465.798,-412.463C667.776,-409.75 1544.72,-396.578 1841.62,-367.955"/>
<polygon fill="midnightblue" stroke="midnightblue" points="1842.33,-371.402 1851.93,-366.931 1841.64,-364.436 1842.33,-371.402"/>
</g>
<!-- Node7 -->
<g id="node7" class="node"><title>Node7</title>
<g id="a_node7"><a xlink:href="wavefunction_8h_source.html" target="_top" xlink:title="libmints/wavefunction.h">
<polygon fill="none" stroke="black" points="1409.5,-348.5 1409.5,-367.5 1528.5,-367.5 1528.5,-348.5 1409.5,-348.5"/>
<text text-anchor="middle" x="1469" y="-355.5" font-family="Helvetica,sans-Serif" font-size="10.00">libmints/wavefunction.h</text>
</a>
</g>
</g>
<!-- Node1&#45;&gt;Node7 -->
<g id="edge7" class="edge"><title>Node1&#45;&gt;Node7</title>
<path fill="none" stroke="midnightblue" d="M465.61,-410.85C625.118,-402.607 1198.63,-372.971 1399.17,-362.608"/>
<polygon fill="midnightblue" stroke="midnightblue" points="1399.48,-366.097 1409.29,-362.085 1399.12,-359.106 1399.48,-366.097"/>
</g>
<!-- Node37 -->
<g id="node37" class="node"><title>Node37</title>
<g id="a_node37"><a xlink:href="qt_8h.html" target="_top" xlink:title="Header file for the Quantum Trio LibraryDavid Sherrill 1994.">
<polygon fill="none" stroke="black" points="263,-62.5 263,-81.5 317,-81.5 317,-62.5 263,-62.5"/>
<text text-anchor="middle" x="290" y="-69.5" font-family="Helvetica,sans-Serif" font-size="10.00">libqt/qt.h</text>
</a>
</g>
</g>
<!-- Node1&#45;&gt;Node37 -->
<g id="edge53" class="edge"><title>Node1&#45;&gt;Node37</title>
<path fill="none" stroke="midnightblue" d="M402.54,-404.456C368.763,-389.428 307,-354.857 307,-303 307,-303 307,-303 307,-189 307,-154.35 299.482,-114.487 294.445,-91.6669"/>
<polygon fill="midnightblue" stroke="midnightblue" points="297.799,-90.6324 292.153,-81.6674 290.976,-92.1966 297.799,-90.6324"/>
</g>
<!-- Node38 -->
<g id="node38" class="node"><title>Node38</title>
<g id="a_node38"><a xlink:href="psio_8h_source.html" target="_top" xlink:title="libpsio/psio.h">
<polygon fill="none" stroke="black" points="205,-348.5 205,-367.5 279,-367.5 279,-348.5 205,-348.5"/>
<text text-anchor="middle" x="242" y="-355.5" font-family="Helvetica,sans-Serif" font-size="10.00">libpsio/psio.h</text>
</a>
</g>
</g>
<!-- Node1&#45;&gt;Node38 -->
<g id="edge56" class="edge"><title>Node1&#45;&gt;Node38</title>
<path fill="none" stroke="midnightblue" d="M395.162,-404.444C364.144,-395.241 314.671,-380.562 280.382,-370.388"/>
<polygon fill="midnightblue" stroke="midnightblue" points="281.286,-367.006 270.704,-367.516 279.295,-373.716 281.286,-367.006"/>
</g>
<!-- Node40 -->
<g id="node40" class="node"><title>Node40</title>
<g id="a_node40"><a xlink:href="structs_8h.html" target="_top" xlink:title="Enter brief description of file here.">
<polygon fill="none" stroke="black" points="429.5,-292.5 429.5,-311.5 484.5,-311.5 484.5,-292.5 429.5,-292.5"/>
<text text-anchor="middle" x="457" y="-299.5" font-family="Helvetica,sans-Serif" font-size="10.00">structs.h</text>
</a>
</g>
</g>
<!-- Node1&#45;&gt;Node40 -->
<g id="edge59" class="edge"><title>Node1&#45;&gt;Node40</title>
<path fill="none" stroke="midnightblue" d="M426.589,-404.368C431.939,-386.537 444.311,-345.295 451.518,-321.272"/>
<polygon fill="midnightblue" stroke="midnightblue" points="454.901,-322.175 454.423,-311.591 448.197,-320.164 454.901,-322.175"/>
</g>
<!-- Node41 -->
<g id="node41" class="node"><title>Node41</title>
<g id="a_node41"><a xlink:href="detci_2globals_8h.html" target="_top" xlink:title="Enter brief description of file here.">
<polygon fill="none" stroke="black" points="373,-236.5 373,-255.5 429,-255.5 429,-236.5 373,-236.5"/>
<text text-anchor="middle" x="401" y="-243.5" font-family="Helvetica,sans-Serif" font-size="10.00">globals.h</text>
</a>
</g>
</g>
<!-- Node1&#45;&gt;Node41 -->
<g id="edge61" class="edge"><title>Node1&#45;&gt;Node41</title>
<path fill="none" stroke="midnightblue" d="M422.763,-404.075C419.143,-377.945 408.511,-301.211 403.574,-265.577"/>
<polygon fill="midnightblue" stroke="midnightblue" points="407.027,-264.993 402.187,-255.568 400.093,-265.954 407.027,-264.993"/>
</g>
<!-- Node5&#45;&gt;Node2 -->
<g id="edge5" class="edge"><title>Node5&#45;&gt;Node2</title>
<path fill="none" stroke="midnightblue" d="M47.066,-236.318C47.786,-206.419 54.3589,-106.776 109,-56 149.957,-17.9405 218.007,-10.7503 257.97,-10.102"/>
<polygon fill="midnightblue" stroke="midnightblue" points="258.222,-13.6014 268.211,-10.07 258.2,-6.6014 258.222,-13.6014"/>
</g>
<!-- Node8 -->
<g id="node8" class="node"><title>Node8</title>
<polygon fill="none" stroke="#bfbfbf" points="1536,-292.5 1536,-311.5 1588,-311.5 1588,-292.5 1536,-292.5"/>
<text text-anchor="middle" x="1562" y="-299.5" font-family="Helvetica,sans-Serif" font-size="10.00">stddef.h</text>
</g>
<!-- Node7&#45;&gt;Node8 -->
<g id="edge8" class="edge"><title>Node7&#45;&gt;Node8</title>
<path fill="none" stroke="midnightblue" d="M1483.94,-348.324C1498.59,-339.822 1521.13,-326.729 1538.24,-316.797"/>
<polygon fill="midnightblue" stroke="midnightblue" points="1540.2,-319.703 1547.1,-311.655 1536.69,-313.649 1540.2,-319.703"/>
</g>
<!-- Node9 -->
<g id="node9" class="node"><title>Node9</title>
<polygon fill="none" stroke="#bfbfbf" points="1390,-0.5 1390,-19.5 1434,-19.5 1434,-0.5 1390,-0.5"/>
<text text-anchor="middle" x="1412" y="-7.5" font-family="Helvetica,sans-Serif" font-size="10.00">vector</text>
</g>
<!-- Node7&#45;&gt;Node9 -->
<g id="edge9" class="edge"><title>Node7&#45;&gt;Node9</title>
<path fill="none" stroke="midnightblue" d="M1474.22,-348.455C1496.66,-310.511 1580.9,-154.799 1516,-56 1500.22,-31.9729 1468.57,-20.7135 1444.31,-15.4746"/>
<polygon fill="midnightblue" stroke="midnightblue" points="1444.91,-12.0266 1434.43,-13.5783 1443.59,-18.9011 1444.91,-12.0266"/>
</g>
<!-- Node10 -->
<g id="node10" class="node"><title>Node10</title>
<g id="a_node10"><a xlink:href="typedefs_8h_source.html" target="_top" xlink:title="typedefs.h">
<polygon fill="none" stroke="black" points="1184,-124.5 1184,-143.5 1246,-143.5 1246,-124.5 1184,-124.5"/>
<text text-anchor="middle" x="1215" y="-131.5" font-family="Helvetica,sans-Serif" font-size="10.00">typedefs.h</text>
</a>
</g>
</g>
<!-- Node7&#45;&gt;Node10 -->
<g id="edge10" class="edge"><title>Node7&#45;&gt;Node10</title>
<path fill="none" stroke="midnightblue" d="M1440.58,-348.458C1398.55,-334.672 1319.18,-304.099 1267,-256 1245.24,-235.946 1242.69,-227.179 1231,-200 1224.6,-185.138 1220.43,-167.217 1217.96,-153.96"/>
<polygon fill="midnightblue" stroke="midnightblue" points="1221.34,-152.972 1216.21,-143.704 1214.44,-154.151 1221.34,-152.972"/>
</g>
<!-- Node15 -->
<g id="node15" class="node"><title>Node15</title>
<polygon fill="none" stroke="#bfbfbf" points="1440.5,-62.5 1440.5,-81.5 1507.5,-81.5 1507.5,-62.5 1440.5,-62.5"/>
<text text-anchor="middle" x="1474" y="-69.5" font-family="Helvetica,sans-Serif" font-size="10.00">exception.h</text>
</g>
<!-- Node7&#45;&gt;Node15 -->
<g id="edge17" class="edge"><title>Node7&#45;&gt;Node15</title>
<path fill="none" stroke="midnightblue" d="M1527.71,-348.48C1552.08,-342.156 1578.85,-331.149 1597,-312 1617.7,-290.154 1616,-277.098 1616,-247 1616,-247 1616,-247 1616,-189 1616,-134.808 1553.2,-101.393 1511.13,-85.0872"/>
<polygon fill="midnightblue" stroke="midnightblue" points="1512.31,-81.791 1501.72,-81.5864 1509.87,-88.3521 1512.31,-81.791"/>
</g>
<!-- Node16 -->
<g id="node16" class="node"><title>Node16</title>
<g id="a_node16"><a xlink:href="parallel_8h_source.html" target="_top" xlink:title="libparallel/parallel.h">
<polygon fill="none" stroke="black" points="1380.5,-292.5 1380.5,-311.5 1479.5,-311.5 1479.5,-292.5 1380.5,-292.5"/>
<text text-anchor="middle" x="1430" y="-299.5" font-family="Helvetica,sans-Serif" font-size="10.00">libparallel/parallel.h</text>
</a>
</g>
</g>
<!-- Node7&#45;&gt;Node16 -->
<g id="edge18" class="edge"><title>Node7&#45;&gt;Node16</title>
<path fill="none" stroke="midnightblue" d="M1462.56,-348.083C1457.05,-340.455 1448.97,-329.264 1442.24,-319.941"/>
<polygon fill="midnightblue" stroke="midnightblue" points="1445.01,-317.809 1436.32,-311.751 1439.34,-321.907 1445.01,-317.809"/>
</g>
<!-- Node11 -->
<g id="node11" class="node"><title>Node11</title>
<g id="a_node11"><a xlink:href="compiler_8h_source.html" target="_top" xlink:title="compiler.h">
<polygon fill="none" stroke="black" points="1564,-62.5 1564,-81.5 1626,-81.5 1626,-62.5 1564,-62.5"/>
<text text-anchor="middle" x="1595" y="-69.5" font-family="Helvetica,sans-Serif" font-size="10.00">compiler.h</text>
</a>
</g>
</g>
<!-- Node10&#45;&gt;Node11 -->
<g id="edge11" class="edge"><title>Node10&#45;&gt;Node11</title>
<path fill="none" stroke="midnightblue" d="M1246.26,-128.738C1301.02,-121.182 1417.8,-104.656 1516,-88 1528.37,-85.9025 1541.78,-83.4297 1553.99,-81.1034"/>
<polygon fill="midnightblue" stroke="midnightblue" points="1554.75,-84.5214 1563.91,-79.1953 1553.43,-77.6474 1554.75,-84.5214"/>
</g>
<!-- Node13 -->
<g id="node13" class="node"><title>Node13</title>
<g id="a_node13"><a xlink:href="dimension_8h_source.html" target="_top" xlink:title="dimension.h">
<polygon fill="none" stroke="black" points="1142.5,-62.5 1142.5,-81.5 1211.5,-81.5 1211.5,-62.5 1142.5,-62.5"/>
<text text-anchor="middle" x="1177" y="-69.5" font-family="Helvetica,sans-Serif" font-size="10.00">dimension.h</text>
</a>
</g>
</g>
<!-- Node10&#45;&gt;Node13 -->
<g id="edge13" class="edge"><title>Node10&#45;&gt;Node13</title>
<path fill="none" stroke="midnightblue" d="M1209.56,-124.403C1203.91,-115.493 1194.94,-101.325 1187.84,-90.1177"/>
<polygon fill="midnightblue" stroke="midnightblue" points="1190.74,-88.1561 1182.43,-81.5806 1184.83,-91.9015 1190.74,-88.1561"/>
</g>
<!-- Node12 -->
<g id="node12" class="node"><title>Node12</title>
<polygon fill="none" stroke="#bfbfbf" points="1569,-0.5 1569,-19.5 1633,-19.5 1633,-0.5 1569,-0.5"/>
<text text-anchor="middle" x="1601" y="-7.5" font-family="Helvetica,sans-Serif" font-size="10.00">psiconfig.h</text>
</g>
<!-- Node11&#45;&gt;Node12 -->
<g id="edge12" class="edge"><title>Node11&#45;&gt;Node12</title>
<path fill="none" stroke="midnightblue" d="M1595.86,-62.4035C1596.71,-53.9381 1598.03,-40.7283 1599.12,-29.8199"/>
<polygon fill="midnightblue" stroke="midnightblue" points="1602.63,-29.8793 1600.14,-19.5806 1595.66,-29.1827 1602.63,-29.8793"/>
</g>
<!-- Node14 -->
<g id="node14" class="node"><title>Node14</title>
<polygon fill="none" stroke="#bfbfbf" points="881.5,-0.5 881.5,-19.5 922.5,-19.5 922.5,-0.5 881.5,-0.5"/>
<text text-anchor="middle" x="902" y="-7.5" font-family="Helvetica,sans-Serif" font-size="10.00">string</text>
</g>
<!-- Node13&#45;&gt;Node14 -->
<g id="edge14" class="edge"><title>Node13&#45;&gt;Node14</title>
<path fill="none" stroke="midnightblue" d="M1150.94,-62.492C1143.57,-60.229 1135.51,-57.8909 1128,-56 1058.83,-38.5734 976.382,-23.5926 932.705,-16.104"/>
<polygon fill="midnightblue" stroke="midnightblue" points="933.166,-12.6323 922.721,-14.4073 931.993,-19.5333 933.166,-12.6323"/>
</g>
<!-- Node13&#45;&gt;Node2 -->
<g id="edge15" class="edge"><title>Node13&#45;&gt;Node2</title>
<path fill="none" stroke="midnightblue" d="M1142.43,-63.6853C1127.86,-60.859 1110.66,-57.8631 1095,-56 795.668,-20.3972 430.28,-12.8497 321.798,-11.3505"/>
<polygon fill="midnightblue" stroke="midnightblue" points="321.588,-7.84751 311.543,-11.2165 321.497,-14.8469 321.588,-7.84751"/>
</g>
<!-- Node13&#45;&gt;Node9 -->
<g id="edge16" class="edge"><title>Node13&#45;&gt;Node9</title>
<path fill="none" stroke="midnightblue" d="M1200.6,-62.4339C1207.16,-60.1954 1214.32,-57.8843 1221,-56 1288.14,-37.0622 1308.66,-38.0415 1379.8,-20.1767"/>
<polygon fill="midnightblue" stroke="midnightblue" points="1380.87,-23.5156 1389.69,-17.653 1379.14,-16.7327 1380.87,-23.5156"/>
</g>
<!-- Node17 -->
<g id="node17" class="node"><title>Node17</title>
<polygon fill="none" stroke="#bfbfbf" points="1324,-124.5 1324,-143.5 1432,-143.5 1432,-124.5 1324,-124.5"/>
<text text-anchor="middle" x="1378" y="-131.5" font-family="Helvetica,sans-Serif" font-size="10.00">boost/shared_ptr.hpp</text>
</g>
<!-- Node16&#45;&gt;Node17 -->
<g id="edge19" class="edge"><title>Node16&#45;&gt;Node17</title>
<path fill="none" stroke="midnightblue" d="M1430.66,-292.353C1431.87,-271.877 1432.96,-219.207 1416,-180 1411.25,-169.019 1402.91,-158.676 1395.24,-150.682"/>
<polygon fill="midnightblue" stroke="midnightblue" points="1397.55,-148.044 1387.97,-143.533 1392.65,-153.038 1397.55,-148.044"/>
</g>
<!-- Node16&#45;&gt;Node12 -->
<g id="edge20" class="edge"><title>Node16&#45;&gt;Node12</title>
<path fill="none" stroke="midnightblue" d="M1479.71,-298.065C1545.71,-291.175 1654,-268.118 1654,-191 1654,-191 1654,-191 1654,-133 1654,-97.7513 1650.16,-87.8237 1635,-56 1630.06,-45.6334 1622.51,-35.3218 1615.78,-27.19"/>
<polygon fill="midnightblue" stroke="midnightblue" points="1618.4,-24.8642 1609.21,-19.594 1613.11,-29.4456 1618.4,-24.8642"/>
</g>
<!-- Node16&#45;&gt;Node2 -->
<g id="edge21" class="edge"><title>Node16&#45;&gt;Node2</title>
<path fill="none" stroke="midnightblue" d="M1380.38,-300.503C1175.53,-298.246 404.449,-287.672 364,-256 340.303,-237.444 345,-221.098 345,-191 345,-191 345,-191 345,-133 345,-97.7513 341.596,-87.6107 326,-56 320.809,-45.4786 312.82,-35.154 305.685,-27.0536"/>
<polygon fill="midnightblue" stroke="midnightblue" points="308.068,-24.475 298.713,-19.5023 302.925,-29.2237 308.068,-24.475"/>
</g>
<!-- Node18 -->
<g id="node18" class="node"><title>Node18</title>
<g id="a_node18"><a xlink:href="libparallel_2local_8h_source.html" target="_top" xlink:title="libparallel/local.h">
<polygon fill="none" stroke="black" points="1275.5,-236.5 1275.5,-255.5 1364.5,-255.5 1364.5,-236.5 1275.5,-236.5"/>
<text text-anchor="middle" x="1320" y="-243.5" font-family="Helvetica,sans-Serif" font-size="10.00">libparallel/local.h</text>
</a>
</g>
</g>
<!-- Node16&#45;&gt;Node18 -->
<g id="edge22" class="edge"><title>Node16&#45;&gt;Node18</title>
<path fill="none" stroke="midnightblue" d="M1412.33,-292.324C1394.61,-283.625 1367.1,-270.12 1346.71,-260.113"/>
<polygon fill="midnightblue" stroke="midnightblue" points="1348.15,-256.919 1337.63,-255.655 1345.06,-263.203 1348.15,-256.919"/>
</g>
<!-- Node19 -->
<g id="node19" class="node"><title>Node19</title>
<g id="a_node19"><a xlink:href="psi4-dec_8h_source.html" target="_top" xlink:title="psi4&#45;dec.h">
<polygon fill="none" stroke="black" points="864,-180.5 864,-199.5 926,-199.5 926,-180.5 864,-180.5"/>
<text text-anchor="middle" x="895" y="-187.5" font-family="Helvetica,sans-Serif" font-size="10.00">psi4&#45;dec.h</text>
</a>
</g>
</g>
<!-- Node18&#45;&gt;Node19 -->
<g id="edge23" class="edge"><title>Node18&#45;&gt;Node19</title>
<path fill="none" stroke="midnightblue" d="M1275.32,-239.323C1192.51,-228.802 1016.35,-206.419 936.223,-196.238"/>
<polygon fill="midnightblue" stroke="midnightblue" points="936.389,-192.731 926.028,-194.942 935.507,-199.675 936.389,-192.731"/>
</g>
<!-- Node35 -->
<g id="node35" class="node"><title>Node35</title>
<polygon fill="none" stroke="#bfbfbf" points="1240,-180.5 1240,-199.5 1286,-199.5 1286,-180.5 1240,-180.5"/>
<text text-anchor="middle" x="1263" y="-187.5" font-family="Helvetica,sans-Serif" font-size="10.00">cstring</text>
</g>
<!-- Node18&#45;&gt;Node35 -->
<g id="edge51" class="edge"><title>Node18&#45;&gt;Node35</title>
<path fill="none" stroke="midnightblue" d="M1310.84,-236.324C1302.5,-228.42 1289.97,-216.548 1279.82,-206.938"/>
<polygon fill="midnightblue" stroke="midnightblue" points="1281.99,-204.171 1272.32,-199.834 1277.18,-209.252 1281.99,-204.171"/>
</g>
<!-- Node36 -->
<g id="node36" class="node"><title>Node36</title>
<g id="a_node36"><a xlink:href="openmp_8h_source.html" target="_top" xlink:title="libparallel/openmp.h">
<polygon fill="none" stroke="black" points="1304.5,-180.5 1304.5,-199.5 1407.5,-199.5 1407.5,-180.5 1304.5,-180.5"/>
<text text-anchor="middle" x="1356" y="-187.5" font-family="Helvetica,sans-Serif" font-size="10.00">libparallel/openmp.h</text>
</a>
</g>
</g>
<!-- Node18&#45;&gt;Node36 -->
<g id="edge52" class="edge"><title>Node18&#45;&gt;Node36</title>
<path fill="none" stroke="midnightblue" d="M1325.94,-236.083C1330.98,-228.534 1338.34,-217.495 1344.51,-208.23"/>
<polygon fill="midnightblue" stroke="midnightblue" points="1347.53,-210.013 1350.17,-199.751 1341.71,-206.13 1347.53,-210.013"/>
</g>
<!-- Node19&#45;&gt;Node17 -->
<g id="edge24" class="edge"><title>Node19&#45;&gt;Node17</title>
<path fill="none" stroke="midnightblue" d="M926.319,-185.499C1004.31,-176.779 1208.46,-153.954 1313.51,-142.21"/>
<polygon fill="midnightblue" stroke="midnightblue" points="1314.12,-145.664 1323.67,-141.075 1313.34,-138.708 1314.12,-145.664"/>
</g>
<!-- Node20 -->
<g id="node20" class="node"><title>Node20</title>
<polygon fill="none" stroke="#bfbfbf" points="742,-62.5 742,-81.5 874,-81.5 874,-62.5 742,-62.5"/>
<text text-anchor="middle" x="808" y="-69.5" font-family="Helvetica,sans-Serif" font-size="10.00">boost/current_function.hpp</text>
</g>
<!-- Node19&#45;&gt;Node20 -->
<g id="edge25" class="edge"><title>Node19&#45;&gt;Node20</title>
<path fill="none" stroke="midnightblue" d="M882.166,-180.191C870.774,-171.879 854.239,-158.55 843,-144 830.561,-127.897 820.803,-106.671 814.785,-91.634"/>
<polygon fill="midnightblue" stroke="midnightblue" points="817.92,-90.0318 811.08,-81.9407 811.381,-92.5312 817.92,-90.0318"/>
</g>
<!-- Node19&#45;&gt;Node14 -->
<g id="edge26" class="edge"><title>Node19&#45;&gt;Node14</title>
<path fill="none" stroke="midnightblue" d="M895.401,-180.374C895.818,-171.316 896.481,-156.658 897,-144 898.667,-103.358 900.406,-55.7197 901.329,-29.9257"/>
<polygon fill="midnightblue" stroke="midnightblue" points="904.835,-29.8334 901.693,-19.7151 897.839,-29.5841 904.835,-29.8334"/>
</g>
<!-- Node21 -->
<g id="node21" class="node"><title>Node21</title>
<polygon fill="none" stroke="#bfbfbf" points="859.5,-124.5 859.5,-143.5 888.5,-143.5 888.5,-124.5 859.5,-124.5"/>
<text text-anchor="middle" x="874" y="-131.5" font-family="Helvetica,sans-Serif" font-size="10.00">list</text>
</g>
<!-- Node19&#45;&gt;Node21 -->
<g id="edge27" class="edge"><title>Node19&#45;&gt;Node21</title>
<path fill="none" stroke="midnightblue" d="M891.532,-180.083C888.688,-172.77 884.571,-162.181 881.04,-153.103"/>
<polygon fill="midnightblue" stroke="midnightblue" points="884.29,-151.803 877.403,-143.751 877.766,-154.34 884.29,-151.803"/>
</g>
<!-- Node22 -->
<g id="node22" class="node"><title>Node22</title>
<polygon fill="none" stroke="#bfbfbf" points="930.5,-62.5 930.5,-81.5 965.5,-81.5 965.5,-62.5 930.5,-62.5"/>
<text text-anchor="middle" x="948" y="-69.5" font-family="Helvetica,sans-Serif" font-size="10.00">map</text>
</g>
<!-- Node19&#45;&gt;Node22 -->
<g id="edge28" class="edge"><title>Node19&#45;&gt;Node22</title>
<path fill="none" stroke="midnightblue" d="M881.483,-180.391C864.032,-168.152 837.325,-144.885 850,-124 865.256,-98.8621 897.387,-85.5419 920.71,-78.9005"/>
<polygon fill="midnightblue" stroke="midnightblue" points="921.608,-82.2834 930.402,-76.3742 919.842,-75.5097 921.608,-82.2834"/>
</g>
<!-- Node23 -->
<g id="node23" class="node"><title>Node23</title>
<g id="a_node23"><a xlink:href="liboptions_8h_source.html" target="_top" xlink:title="liboptions/liboptions.h">
<polygon fill="none" stroke="black" points="1056,-124.5 1056,-143.5 1166,-143.5 1166,-124.5 1056,-124.5"/>
<text text-anchor="middle" x="1111" y="-131.5" font-family="Helvetica,sans-Serif" font-size="10.00">liboptions/liboptions.h</text>
</a>
</g>
</g>
<!-- Node19&#45;&gt;Node23 -->
<g id="edge29" class="edge"><title>Node19&#45;&gt;Node23</title>
<path fill="none" stroke="midnightblue" d="M926.408,-181.148C963.376,-171.906 1025.01,-156.497 1066.79,-146.052"/>
<polygon fill="midnightblue" stroke="midnightblue" points="1067.85,-149.397 1076.7,-143.576 1066.15,-142.606 1067.85,-149.397"/>
</g>
<!-- Node30 -->
<g id="node30" class="node"><title>Node30</title>
<g id="a_node30"><a xlink:href="include_2exception_8h_source.html" target="_top" xlink:title="exception.h">
<polygon fill="none" stroke="black" points="631.5,-124.5 631.5,-143.5 698.5,-143.5 698.5,-124.5 631.5,-124.5"/>
<text text-anchor="middle" x="665" y="-131.5" font-family="Helvetica,sans-Serif" font-size="10.00">exception.h</text>
</a>
</g>
</g>
<!-- Node19&#45;&gt;Node30 -->
<g id="edge44" class="edge"><title>Node19&#45;&gt;Node30</title>
<path fill="none" stroke="midnightblue" d="M863.981,-181.717C823.855,-172.296 753.734,-155.833 708.354,-145.179"/>
<polygon fill="midnightblue" stroke="midnightblue" points="709.041,-141.745 698.505,-142.867 707.441,-148.56 709.041,-141.745"/>
</g>
<!-- Node19&#45;&gt;Node10 -->
<g id="edge50" class="edge"><title>Node19&#45;&gt;Node10</title>
<path fill="none" stroke="midnightblue" d="M926.186,-184.632C976.292,-177.476 1078.03,-162.372 1173.76,-144.148"/>
<polygon fill="midnightblue" stroke="midnightblue" points="1174.43,-147.581 1183.6,-142.259 1173.12,-140.707 1174.43,-147.581"/>
</g>
<!-- Node23&#45;&gt;Node14 -->
<g id="edge30" class="edge"><title>Node23&#45;&gt;Node14</title>
<path fill="none" stroke="midnightblue" d="M1111.93,-124.486C1113.16,-108.692 1113.31,-74.7596 1095,-56 1072.67,-33.1194 981.03,-19.7426 932.494,-14.1301"/>
<polygon fill="midnightblue" stroke="midnightblue" points="932.877,-10.6513 922.55,-13.0194 932.1,-17.608 932.877,-10.6513"/>
</g>
<!-- Node23&#45;&gt;Node9 -->
<g id="edge31" class="edge"><title>Node23&#45;&gt;Node9</title>
<path fill="none" stroke="midnightblue" d="M1166.16,-124.939C1246.8,-113.046 1387.83,-91.7904 1392,-88 1408.1,-73.3685 1411.96,-47.595 1412.55,-29.9277"/>
<polygon fill="midnightblue" stroke="midnightblue" points="1416.05,-29.6901 1412.55,-19.6869 1409.05,-29.6837 1416.05,-29.6901"/>
</g>
<!-- Node23&#45;&gt;Node22 -->
<g id="edge32" class="edge"><title>Node23&#45;&gt;Node22</title>
<path fill="none" stroke="midnightblue" d="M1079.59,-124.43C1051.62,-116.372 1009.85,-103.283 975,-88 973.812,-87.4791 972.608,-86.9226 971.401,-86.3421"/>
<polygon fill="midnightblue" stroke="midnightblue" points="972.804,-83.127 962.319,-81.6085 969.569,-89.3344 972.804,-83.127"/>
</g>
<!-- Node23&#45;&gt;Node15 -->
<g id="edge33" class="edge"><title>Node23&#45;&gt;Node15</title>
<path fill="none" stroke="midnightblue" d="M1166.3,-125.215C1254.97,-112.717 1419.71,-89.4222 1426,-88 1430.43,-86.998 1435.04,-85.7837 1439.58,-84.4848"/>
<polygon fill="midnightblue" stroke="midnightblue" points="1440.73,-87.7938 1449.29,-81.5556 1438.71,-81.0919 1440.73,-87.7938"/>
</g>
<!-- Node24 -->
<g id="node24" class="node"><title>Node24</title>
<g id="a_node24"><a xlink:href="libutil_8h_source.html" target="_top" xlink:title="libutil/libutil.h">
<polygon fill="none" stroke="black" points="1310.5,-62.5 1310.5,-81.5 1383.5,-81.5 1383.5,-62.5 1310.5,-62.5"/>
<text text-anchor="middle" x="1347" y="-69.5" font-family="Helvetica,sans-Serif" font-size="10.00">libutil/libutil.h</text>
</a>
</g>
</g>
<!-- Node23&#45;&gt;Node24 -->
<g id="edge34" class="edge"><title>Node23&#45;&gt;Node24</title>
<path fill="none" stroke="midnightblue" d="M1151.28,-124.474C1189.91,-116.059 1249.76,-102.395 1301,-88 1304.61,-86.9861 1308.36,-85.8699 1312.09,-84.7179"/>
<polygon fill="midnightblue" stroke="midnightblue" points="1313.34,-87.9935 1321.81,-81.6303 1311.22,-81.322 1313.34,-87.9935"/>
</g>
<!-- Node26 -->
<g id="node26" class="node"><title>Node26</title>
<g id="a_node26"><a xlink:href="libutil_2ref_8h_source.html" target="_top" xlink:title="libutil/ref.h">
<polygon fill="none" stroke="black" points="1230,-62.5 1230,-81.5 1292,-81.5 1292,-62.5 1230,-62.5"/>
<text text-anchor="middle" x="1261" y="-69.5" font-family="Helvetica,sans-Serif" font-size="10.00">libutil/ref.h</text>
</a>
</g>
</g>
<!-- Node23&#45;&gt;Node26 -->
<g id="edge38" class="edge"><title>Node23&#45;&gt;Node26</title>
<path fill="none" stroke="midnightblue" d="M1132.49,-124.403C1158.11,-114.156 1201.11,-96.9561 1230.24,-85.3021"/>
<polygon fill="midnightblue" stroke="midnightblue" points="1231.56,-88.5442 1239.55,-81.5806 1228.96,-82.0449 1231.56,-88.5442"/>
</g>
<!-- Node29 -->
<g id="node29" class="node"><title>Node29</title>
<polygon fill="none" stroke="#bfbfbf" points="984,-57 984,-87 1086,-87 1086,-57 984,-57"/>
<text text-anchor="start" x="992" y="-75" font-family="Helvetica,sans-Serif" font-size="10.00">boost/python/object</text>
<text text-anchor="middle" x="1035" y="-64" font-family="Helvetica,sans-Serif" font-size="10.00">_fwd.hpp</text>
</g>
<!-- Node23&#45;&gt;Node29 -->
<g id="edge43" class="edge"><title>Node23&#45;&gt;Node29</title>
<path fill="none" stroke="midnightblue" d="M1100.11,-124.403C1089.91,-116.353 1074.28,-104.013 1060.89,-93.4406"/>
<polygon fill="midnightblue" stroke="midnightblue" points="1062.93,-90.5902 1052.91,-87.1408 1058.59,-96.0844 1062.93,-90.5902"/>
</g>
<!-- Node24&#45;&gt;Node14 -->
<g id="edge35" class="edge"><title>Node24&#45;&gt;Node14</title>
<path fill="none" stroke="midnightblue" d="M1323.85,-62.4378C1316.62,-60.0377 1308.55,-57.6394 1301,-56 1165.81,-26.6528 1000.44,-15.7634 932.928,-12.3506"/>
<polygon fill="midnightblue" stroke="midnightblue" points="932.742,-8.83753 922.584,-11.8482 932.403,-15.8293 932.742,-8.83753"/>
</g>
<!-- Node24&#45;&gt;Node9 -->
<g id="edge36" class="edge"><title>Node24&#45;&gt;Node9</title>
<path fill="none" stroke="midnightblue" d="M1356.31,-62.4035C1366.45,-53.047 1382.86,-37.8948 1395.25,-26.4599"/>
<polygon fill="midnightblue" stroke="midnightblue" points="1397.73,-28.9352 1402.7,-19.5806 1392.98,-23.7916 1397.73,-28.9352"/>
</g>
<!-- Node25 -->
<g id="node25" class="node"><title>Node25</title>
<polygon fill="none" stroke="#bfbfbf" points="1310,-0.5 1310,-19.5 1372,-19.5 1372,-0.5 1310,-0.5"/>
<text text-anchor="middle" x="1341" y="-7.5" font-family="Helvetica,sans-Serif" font-size="10.00">sys/time.h</text>
</g>
<!-- Node24&#45;&gt;Node25 -->
<g id="edge37" class="edge"><title>Node24&#45;&gt;Node25</title>
<path fill="none" stroke="midnightblue" d="M1346.14,-62.4035C1345.29,-53.9381 1343.97,-40.7283 1342.88,-29.8199"/>
<polygon fill="midnightblue" stroke="midnightblue" points="1346.34,-29.1827 1341.86,-19.5806 1339.37,-29.8793 1346.34,-29.1827"/>
</g>
<!-- Node27 -->
<g id="node27" class="node"><title>Node27</title>
<polygon fill="none" stroke="#bfbfbf" points="1169.5,-0.5 1169.5,-19.5 1218.5,-19.5 1218.5,-0.5 1169.5,-0.5"/>
<text text-anchor="middle" x="1194" y="-7.5" font-family="Helvetica,sans-Serif" font-size="10.00">cstddef</text>
</g>
<!-- Node26&#45;&gt;Node27 -->
<g id="edge39" class="edge"><title>Node26&#45;&gt;Node27</title>
<path fill="none" stroke="midnightblue" d="M1251.4,-62.4035C1240.95,-53.047 1224.03,-37.8948 1211.26,-26.4599"/>
<polygon fill="midnightblue" stroke="midnightblue" points="1213.37,-23.6445 1203.58,-19.5806 1208.7,-28.8592 1213.37,-23.6445"/>
</g>
<!-- Node26&#45;&gt;Node2 -->
<g id="edge40" class="edge"><title>Node26&#45;&gt;Node2</title>
<path fill="none" stroke="midnightblue" d="M1241.33,-62.4363C1234.68,-59.9122 1227.13,-57.4423 1220,-56 1042.61,-20.1272 464.037,-12.5809 321.802,-11.2529"/>
<polygon fill="midnightblue" stroke="midnightblue" points="321.619,-7.75123 311.588,-11.1614 321.557,-14.751 321.619,-7.75123"/>
</g>
<!-- Node26&#45;&gt;Node3 -->
<g id="edge41" class="edge"><title>Node26&#45;&gt;Node3</title>
<path fill="none" stroke="midnightblue" d="M1281.56,-62.3608C1288,-59.9576 1295.21,-57.5769 1302,-56 1450.02,-21.6374 1491.83,-43.2526 1642,-20 1645.68,-19.4295 1649.53,-18.7582 1653.34,-18.0436"/>
<polygon fill="midnightblue" stroke="midnightblue" points="1654.11,-21.4603 1663.24,-16.0905 1652.75,-14.5927 1654.11,-21.4603"/>
</g>
<!-- Node28 -->
<g id="node28" class="node"><title>Node28</title>
<polygon fill="none" stroke="#bfbfbf" points="1237,-0.5 1237,-19.5 1289,-19.5 1289,-0.5 1237,-0.5"/>
<text text-anchor="middle" x="1263" y="-7.5" font-family="Helvetica,sans-Serif" font-size="10.00">assert.h</text>
</g>
<!-- Node26&#45;&gt;Node28 -->
<g id="edge42" class="edge"><title>Node26&#45;&gt;Node28</title>
<path fill="none" stroke="midnightblue" d="M1261.29,-62.4035C1261.57,-53.9381 1262.01,-40.7283 1262.37,-29.8199"/>
<polygon fill="midnightblue" stroke="midnightblue" points="1265.88,-29.6917 1262.71,-19.5806 1258.88,-29.4584 1265.88,-29.6917"/>
</g>
<!-- Node31 -->
<g id="node31" class="node"><title>Node31</title>
<polygon fill="none" stroke="#bfbfbf" points="449.5,-62.5 449.5,-81.5 508.5,-81.5 508.5,-62.5 449.5,-62.5"/>
<text text-anchor="middle" x="479" y="-69.5" font-family="Helvetica,sans-Serif" font-size="10.00">exception</text>
</g>
<!-- Node30&#45;&gt;Node31 -->
<g id="edge45" class="edge"><title>Node30&#45;&gt;Node31</title>
<path fill="none" stroke="midnightblue" d="M634.439,-124.49C604.349,-115.927 557.192,-102.017 517,-88 514.451,-87.111 511.82,-86.1548 509.187,-85.1709"/>
<polygon fill="midnightblue" stroke="midnightblue" points="510.383,-81.8807 499.793,-81.5579 507.87,-88.4142 510.383,-81.8807"/>
</g>
<!-- Node32 -->
<g id="node32" class="node"><title>Node32</title>
<polygon fill="none" stroke="#bfbfbf" points="526.5,-62.5 526.5,-81.5 585.5,-81.5 585.5,-62.5 526.5,-62.5"/>
<text text-anchor="middle" x="556" y="-69.5" font-family="Helvetica,sans-Serif" font-size="10.00">stdexcept</text>
</g>
<!-- Node30&#45;&gt;Node32 -->
<g id="edge46" class="edge"><title>Node30&#45;&gt;Node32</title>
<path fill="none" stroke="midnightblue" d="M649.383,-124.403C631.414,-114.512 601.679,-98.1442 580.594,-86.5378"/>
<polygon fill="midnightblue" stroke="midnightblue" points="582.036,-83.3367 571.588,-81.5806 578.661,-89.4691 582.036,-83.3367"/>
</g>
<!-- Node33 -->
<g id="node33" class="node"><title>Node33</title>
<polygon fill="none" stroke="#bfbfbf" points="604,-62.5 604,-81.5 656,-81.5 656,-62.5 604,-62.5"/>
<text text-anchor="middle" x="630" y="-69.5" font-family="Helvetica,sans-Serif" font-size="10.00">sstream</text>
</g>
<!-- Node30&#45;&gt;Node33 -->
<g id="edge47" class="edge"><title>Node30&#45;&gt;Node33</title>
<path fill="none" stroke="midnightblue" d="M659.985,-124.403C654.839,-115.582 646.688,-101.608 640.182,-90.4548"/>
<polygon fill="midnightblue" stroke="midnightblue" points="643.067,-88.4548 635.005,-81.5806 637.021,-91.982 643.067,-88.4548"/>
</g>
<!-- Node34 -->
<g id="node34" class="node"><title>Node34</title>
<polygon fill="none" stroke="#bfbfbf" points="674.5,-62.5 674.5,-81.5 723.5,-81.5 723.5,-62.5 674.5,-62.5"/>
<text text-anchor="middle" x="699" y="-69.5" font-family="Helvetica,sans-Serif" font-size="10.00">string.h</text>
</g>
<!-- Node30&#45;&gt;Node34 -->
<g id="edge48" class="edge"><title>Node30&#45;&gt;Node34</title>
<path fill="none" stroke="midnightblue" d="M669.871,-124.403C674.87,-115.582 682.789,-101.608 689.109,-90.4548"/>
<polygon fill="midnightblue" stroke="midnightblue" points="692.253,-92.0064 694.138,-81.5806 686.162,-88.5553 692.253,-92.0064"/>
</g>
<!-- Node30&#45;&gt;Node20 -->
<g id="edge49" class="edge"><title>Node30&#45;&gt;Node20</title>
<path fill="none" stroke="midnightblue" d="M685.488,-124.403C709.806,-114.2 750.549,-97.1055 778.317,-85.4544"/>
<polygon fill="midnightblue" stroke="midnightblue" points="779.683,-88.6771 787.55,-81.5806 776.974,-82.2223 779.683,-88.6771"/>
</g>
<!-- Node37&#45;&gt;Node2 -->
<g id="edge54" class="edge"><title>Node37&#45;&gt;Node2</title>
<path fill="none" stroke="midnightblue" d="M290,-62.4035C290,-53.9381 290,-40.7283 290,-29.8199"/>
<polygon fill="midnightblue" stroke="midnightblue" points="293.5,-29.5806 290,-19.5806 286.5,-29.5806 293.5,-29.5806"/>
</g>
<!-- Node37&#45;&gt;Node14 -->
<g id="edge55" class="edge"><title>Node37&#45;&gt;Node14</title>
<path fill="none" stroke="midnightblue" d="M317.306,-65.0941C332.47,-61.9965 351.711,-58.3648 369,-56 558.976,-30.0156 789.236,-16.6729 871.209,-12.4832"/>
<polygon fill="midnightblue" stroke="midnightblue" points="871.525,-15.9718 881.337,-11.9739 871.174,-8.98064 871.525,-15.9718"/>
</g>
<!-- Node38&#45;&gt;Node2 -->
<g id="edge57" class="edge"><title>Node38&#45;&gt;Node2</title>
<path fill="none" stroke="midnightblue" d="M242.024,-348.295C242.195,-301.819 243.551,-83.9888 254,-56 258.094,-45.0335 265.965,-34.6916 273.306,-26.694"/>
<polygon fill="midnightblue" stroke="midnightblue" points="275.815,-29.135 280.311,-19.5416 270.813,-24.2373 275.815,-29.135"/>
</g>
<!-- Node39 -->
<g id="node39" class="node"><title>Node39</title>
<g id="a_node39"><a xlink:href="libpsio_2config_8h_source.html" target="_top" xlink:title="libpsio/config.h">
<polygon fill="none" stroke="black" points="151,-292.5 151,-311.5 233,-311.5 233,-292.5 151,-292.5"/>
<text text-anchor="middle" x="192" y="-299.5" font-family="Helvetica,sans-Serif" font-size="10.00">libpsio/config.h</text>
</a>
</g>
</g>
<!-- Node38&#45;&gt;Node39 -->
<g id="edge58" class="edge"><title>Node38&#45;&gt;Node39</title>
<path fill="none" stroke="midnightblue" d="M233.744,-348.083C226.535,-340.298 215.89,-328.801 207.154,-319.367"/>
<polygon fill="midnightblue" stroke="midnightblue" points="209.465,-316.711 200.103,-311.751 204.329,-321.467 209.465,-316.711"/>
</g>
<!-- Node40&#45;&gt;Node14 -->
<g id="edge60" class="edge"><title>Node40&#45;&gt;Node14</title>
<path fill="none" stroke="midnightblue" d="M454.83,-292.395C445.159,-253.139 407.84,-91.4446 440,-56 468.968,-24.0731 772.287,-14.0793 871.084,-11.6587"/>
<polygon fill="midnightblue" stroke="midnightblue" points="871.392,-15.1525 881.307,-11.4176 871.227,-8.15441 871.392,-15.1525"/>
</g>
<!-- Node41&#45;&gt;Node19 -->
<g id="edge62" class="edge"><title>Node41&#45;&gt;Node19</title>
<path fill="none" stroke="midnightblue" d="M429.334,-241.903C512.513,-232.81 756.269,-206.165 853.885,-195.494"/>
<polygon fill="midnightblue" stroke="midnightblue" points="854.398,-198.959 863.959,-194.393 853.638,-192.001 854.398,-198.959"/>
</g>
<!-- Node41&#45;&gt;Node14 -->
<g id="edge63" class="edge"><title>Node41&#45;&gt;Node14</title>
<path fill="none" stroke="midnightblue" d="M397.831,-236.378C387.528,-206.676 358.357,-107.597 407,-56 438.908,-22.1539 768.223,-13.3991 871.319,-11.4793"/>
<polygon fill="midnightblue" stroke="midnightblue" points="871.455,-14.9776 881.391,-11.3004 871.331,-7.97868 871.455,-14.9776"/>
</g>
</g>
</svg>
