<?xml version="1.0" encoding="UTF-8" standalone="no"?>
<!DOCTYPE svg PUBLIC "-//W3C//DTD SVG 1.1//EN"
 "http://www.w3.org/Graphics/SVG/1.1/DTD/svg11.dtd">
<!-- Generated by graphviz version 2.30.1 (20140110.0959)
 -->
<!-- Title: dipquad.cc Pages: 1 -->
<!--zoomable 140 -->
<svg id="main" version="1.1" xmlns="http://www.w3.org/2000/svg" xmlns:xlink="http://www.w3.org/1999/xlink" xml:space="preserve" onload="init(evt)">
        <defs>
                <circle id="rim" cx="0" cy="0" r="7"/>
                <circle id="rim2" cx="0" cy="0" r="3.5"/>
                <g id="zoomPlus">
                        <use xlink:href="#rim" fill="#404040">
                                <set attributeName="fill" to="#808080" begin="zoomplus.mouseover" end="zoomplus.mouseout"/>
                        </use>
                        <path d="M-4,0h8M0,-4v8" fill="none" stroke="white" stroke-width="1.5" pointer-events="none"/>
                </g>
                <g id="zoomMin">
                        <use xlink:href="#rim" fill="#404040">
                                <set attributeName="fill" to="#808080" begin="zoomminus.mouseover" end="zoomminus.mouseout"/>
                        </use>
                        <path d="M-4,0h8" fill="none" stroke="white" stroke-width="1.5" pointer-events="none"/>
                </g>
                <g id="dirArrow">
                        <path fill="none" stroke="white" stroke-width="1.5" d="M0,-3.0v7 M-2.5,-0.5L0,-3.0L2.5,-0.5"/>
                </g>
               <g id="resetDef">
                       <use xlink:href="#rim2" fill="#404040">
                               <set attributeName="fill" to="#808080" begin="reset.mouseover" end="reset.mouseout"/>
                       </use>
               </g>
        </defs>

<script type="text/javascript">
var viewWidth = 678;
var viewHeight = 140;
var sectionId = 'dynsection-0';
</script>
<script xlink:href="svgpan.js"/>
<svg id="graph" class="graph">
<g id="viewport">
<title>dipquad.cc</title>
<!-- Node1 -->
<g id="node1" class="node"><title>Node1</title>
<polygon fill="#bfbfbf" stroke="black" points="293.904,-112.5 293.904,-131.5 357.904,-131.5 357.904,-112.5 293.904,-112.5"/>
<text text-anchor="middle" x="325.904" y="-119.5" font-family="Helvetica,sans-Serif" font-size="10.00">dipquad.cc</text>
</g>
<!-- Node2 -->
<g id="node2" class="node"><title>Node2</title>
<polygon fill="none" stroke="#bfbfbf" points="138.404,-0.5 138.404,-19.5 181.404,-19.5 181.404,-0.5 138.404,-0.5"/>
<text text-anchor="middle" x="159.904" y="-7.5" font-family="Helvetica,sans-Serif" font-size="10.00">cstdio</text>
</g>
<!-- Node1&#45;&gt;Node2 -->
<g id="edge1" class="edge"><title>Node1&#45;&gt;Node2</title>
<path fill="none" stroke="midnightblue" d="M293.812,-121.517C220.602,-121.939 44.7393,-118.414 7.90428,-76 -27.9105,-34.7603 73.5284,-18.9138 127.943,-13.4969"/>
<polygon fill="midnightblue" stroke="midnightblue" points="128.512,-16.9592 138.145,-12.5481 127.863,-9.98929 128.512,-16.9592"/>
</g>
<!-- Node3 -->
<g id="node3" class="node"><title>Node3</title>
<polygon fill="none" stroke="#bfbfbf" points="17.4043,-56.5 17.4043,-75.5 62.4043,-75.5 62.4043,-56.5 17.4043,-56.5"/>
<text text-anchor="middle" x="39.9043" y="-63.5" font-family="Helvetica,sans-Serif" font-size="10.00">cstdlib</text>
</g>
<!-- Node1&#45;&gt;Node3 -->
<g id="edge2" class="edge"><title>Node1&#45;&gt;Node3</title>
<path fill="none" stroke="midnightblue" d="M293.622,-116.328C246.976,-109.349 157.857,-95.1692 72.4181,-75.9185"/>
<polygon fill="midnightblue" stroke="midnightblue" points="73.0868,-72.4812 62.5589,-73.6703 71.5305,-79.306 73.0868,-72.4812"/>
</g>
<!-- Node4 -->
<g id="node4" class="node"><title>Node4</title>
<polygon fill="none" stroke="#bfbfbf" points="80.9043,-56.5 80.9043,-75.5 126.904,-75.5 126.904,-56.5 80.9043,-56.5"/>
<text text-anchor="middle" x="103.904" y="-63.5" font-family="Helvetica,sans-Serif" font-size="10.00">cstring</text>
</g>
<!-- Node1&#45;&gt;Node4 -->
<g id="edge3" class="edge"><title>Node1&#45;&gt;Node4</title>
<path fill="none" stroke="midnightblue" d="M293.867,-113.84C257.94,-105.717 197.714,-91.8209 136.735,-76.1359"/>
<polygon fill="midnightblue" stroke="midnightblue" points="137.503,-72.7195 126.945,-73.6038 135.75,-79.4965 137.503,-72.7195"/>
</g>
<!-- Node5 -->
<g id="node5" class="node"><title>Node5</title>
<g id="a_node5"><a xlink:href="libciomr_8h_source.html" target="_top" xlink:title="libciomr/libciomr.h">
<polygon fill="none" stroke="black" points="145.404,-56.5 145.404,-75.5 240.404,-75.5 240.404,-56.5 145.404,-56.5"/>
<text text-anchor="middle" x="192.904" y="-63.5" font-family="Helvetica,sans-Serif" font-size="10.00">libciomr/libciomr.h</text>
</a>
</g>
</g>
<!-- Node1&#45;&gt;Node5 -->
<g id="edge4" class="edge"><title>Node1&#45;&gt;Node5</title>
<path fill="none" stroke="midnightblue" d="M304.83,-112.444C282.845,-103.517 248.17,-89.4387 223.24,-79.3168"/>
<polygon fill="midnightblue" stroke="midnightblue" points="224.462,-76.0355 213.88,-75.5164 221.829,-82.5213 224.462,-76.0355"/>
</g>
<!-- Node6 -->
<g id="node6" class="node"><title>Node6</title>
<g id="a_node6"><a xlink:href="qt_8h.html" target="_top" xlink:title="Header file for the Quantum Trio LibraryDavid Sherrill 1994.">
<polygon fill="none" stroke="black" points="258.904,-56.5 258.904,-75.5 312.904,-75.5 312.904,-56.5 258.904,-56.5"/>
<text text-anchor="middle" x="285.904" y="-63.5" font-family="Helvetica,sans-Serif" font-size="10.00">libqt/qt.h</text>
</a>
</g>
</g>
<!-- Node1&#45;&gt;Node6 -->
<g id="edge6" class="edge"><title>Node1&#45;&gt;Node6</title>
<path fill="none" stroke="midnightblue" d="M319.299,-112.083C313.649,-104.455 305.359,-93.2645 298.453,-83.9408"/>
<polygon fill="midnightblue" stroke="midnightblue" points="301.151,-81.7034 292.387,-75.7511 295.526,-85.87 301.151,-81.7034"/>
</g>
<!-- Node8 -->
<g id="node8" class="node"><title>Node8</title>
<g id="a_node8"><a xlink:href="lib_2libdpd_2dpd_8h.html" target="_top" xlink:title="Enter brief description of file here.">
<polygon fill="none" stroke="black" points="331.404,-56.5 331.404,-75.5 400.404,-75.5 400.404,-56.5 331.404,-56.5"/>
<text text-anchor="middle" x="365.904" y="-63.5" font-family="Helvetica,sans-Serif" font-size="10.00">libdpd/dpd.h</text>
</a>
</g>
</g>
<!-- Node1&#45;&gt;Node8 -->
<g id="edge9" class="edge"><title>Node1&#45;&gt;Node8</title>
<path fill="none" stroke="midnightblue" d="M332.509,-112.083C338.16,-104.455 346.449,-93.2645 353.356,-83.9408"/>
<polygon fill="midnightblue" stroke="midnightblue" points="356.282,-85.87 359.422,-75.7511 350.657,-81.7034 356.282,-85.87"/>
</g>
<!-- Node9 -->
<g id="node9" class="node"><title>Node9</title>
<g id="a_node9"><a xlink:href="psifiles_8h_source.html" target="_top" xlink:title="psifiles.h">
<polygon fill="none" stroke="black" points="546.904,-0.5 546.904,-19.5 602.904,-19.5 602.904,-0.5 546.904,-0.5"/>
<text text-anchor="middle" x="574.904" y="-7.5" font-family="Helvetica,sans-Serif" font-size="10.00">psifiles.h</text>
</a>
</g>
</g>
<!-- Node1&#45;&gt;Node9 -->
<g id="edge15" class="edge"><title>Node1&#45;&gt;Node9</title>
<path fill="none" stroke="midnightblue" d="M358.273,-118.98C415.328,-114.754 530.463,-103.038 558.904,-76 571.266,-64.248 574.713,-44.607 575.403,-29.9851"/>
<polygon fill="midnightblue" stroke="midnightblue" points="578.906,-29.6082 575.484,-19.5813 571.906,-29.5539 578.906,-29.6082"/>
</g>
<!-- Node13 -->
<g id="node13" class="node"><title>Node13</title>
<g id="a_node13"><a xlink:href="attic_2response_2MOInfo_8h.html" target="_top" xlink:title="MOInfo structure with checkpoint information about MO&#39;s.">
<polygon fill="none" stroke="black" points="493.404,-56.5 493.404,-75.5 550.404,-75.5 550.404,-56.5 493.404,-56.5"/>
<text text-anchor="middle" x="521.904" y="-63.5" font-family="Helvetica,sans-Serif" font-size="10.00">MOInfo.h</text>
</a>
</g>
</g>
<!-- Node1&#45;&gt;Node13 -->
<g id="edge16" class="edge"><title>Node1&#45;&gt;Node13</title>
<path fill="none" stroke="midnightblue" d="M356.961,-112.444C391.198,-103.011 446.316,-87.8252 483.305,-77.6345"/>
<polygon fill="midnightblue" stroke="midnightblue" points="484.514,-80.932 493.225,-74.9015 482.654,-74.1835 484.514,-80.932"/>
</g>
<!-- Node14 -->
<g id="node14" class="node"><title>Node14</title>
<g id="a_node14"><a xlink:href="attic_2response_2Params_8h.html" target="_top" xlink:title="Enter brief description of file here.">
<polygon fill="none" stroke="black" points="610.404,-56.5 610.404,-75.5 669.404,-75.5 669.404,-56.5 610.404,-56.5"/>
<text text-anchor="middle" x="639.904" y="-63.5" font-family="Helvetica,sans-Serif" font-size="10.00">Params.h</text>
</a>
</g>
</g>
<!-- Node1&#45;&gt;Node14 -->
<g id="edge17" class="edge"><title>Node1&#45;&gt;Node14</title>
<path fill="none" stroke="midnightblue" d="M358.002,-115.827C408.182,-107.686 508.24,-91.2388 592.904,-76 595.373,-75.5557 597.912,-75.0911 600.472,-74.6171"/>
<polygon fill="midnightblue" stroke="midnightblue" points="601.155,-78.05 610.338,-72.7654 599.864,-71.1702 601.155,-78.05"/>
</g>
<!-- Node16 -->
<g id="node16" class="node"><title>Node16</title>
<g id="a_node16"><a xlink:href="attic_2response_2globals_8h.html" target="_top" xlink:title="Enter brief description of file here.">
<polygon fill="none" stroke="black" points="418.904,-56.5 418.904,-75.5 474.904,-75.5 474.904,-56.5 418.904,-56.5"/>
<text text-anchor="middle" x="446.904" y="-63.5" font-family="Helvetica,sans-Serif" font-size="10.00">globals.h</text>
</a>
</g>
</g>
<!-- Node1&#45;&gt;Node16 -->
<g id="edge19" class="edge"><title>Node1&#45;&gt;Node16</title>
<path fill="none" stroke="midnightblue" d="M345.077,-112.444C364.813,-103.636 395.789,-89.8116 418.398,-79.722"/>
<polygon fill="midnightblue" stroke="midnightblue" points="420.116,-82.788 427.821,-75.5164 417.263,-76.3957 420.116,-82.788"/>
</g>
<!-- Node5&#45;&gt;Node2 -->
<g id="edge5" class="edge"><title>Node5&#45;&gt;Node2</title>
<path fill="none" stroke="midnightblue" d="M187.455,-56.083C182.89,-48.6127 176.236,-37.7244 170.611,-28.5199"/>
<polygon fill="midnightblue" stroke="midnightblue" points="173.453,-26.4588 165.252,-19.7511 167.48,-30.109 173.453,-26.4588"/>
</g>
<!-- Node6&#45;&gt;Node2 -->
<g id="edge7" class="edge"><title>Node6&#45;&gt;Node2</title>
<path fill="none" stroke="midnightblue" d="M265.939,-56.4435C245.295,-47.5961 212.842,-33.6875 189.273,-23.5865"/>
<polygon fill="midnightblue" stroke="midnightblue" points="190.346,-20.2387 179.776,-19.5164 187.589,-26.6727 190.346,-20.2387"/>
</g>
<!-- Node7 -->
<g id="node7" class="node"><title>Node7</title>
<polygon fill="none" stroke="#bfbfbf" points="199.404,-0.5 199.404,-19.5 240.404,-19.5 240.404,-0.5 199.404,-0.5"/>
<text text-anchor="middle" x="219.904" y="-7.5" font-family="Helvetica,sans-Serif" font-size="10.00">string</text>
</g>
<!-- Node6&#45;&gt;Node7 -->
<g id="edge8" class="edge"><title>Node6&#45;&gt;Node7</title>
<path fill="none" stroke="midnightblue" d="M275.3,-56.324C265.448,-48.2631 250.553,-36.0765 238.689,-26.3695"/>
<polygon fill="midnightblue" stroke="midnightblue" points="240.657,-23.4575 230.701,-19.8339 236.225,-28.8752 240.657,-23.4575"/>
</g>
<!-- Node8&#45;&gt;Node2 -->
<g id="edge10" class="edge"><title>Node8&#45;&gt;Node2</title>
<path fill="none" stroke="midnightblue" d="M331.394,-56.6217C297.843,-48.3778 245.218,-35.1889 191.238,-20.2958"/>
<polygon fill="midnightblue" stroke="midnightblue" points="192.075,-16.8961 181.504,-17.5955 190.204,-23.6413 192.075,-16.8961"/>
</g>
<!-- Node8&#45;&gt;Node9 -->
<g id="edge11" class="edge"><title>Node8&#45;&gt;Node9</title>
<path fill="none" stroke="midnightblue" d="M399.021,-56.4435C436.504,-46.7589 497.459,-31.0098 536.864,-20.8287"/>
<polygon fill="midnightblue" stroke="midnightblue" points="537.828,-24.1945 546.634,-18.3042 536.077,-17.4171 537.828,-24.1945"/>
</g>
<!-- Node10 -->
<g id="node10" class="node"><title>Node10</title>
<g id="a_node10"><a xlink:href="libpsio_2config_8h_source.html" target="_top" xlink:title="libpsio/config.h">
<polygon fill="none" stroke="black" points="446.904,-0.5 446.904,-19.5 528.904,-19.5 528.904,-0.5 446.904,-0.5"/>
<text text-anchor="middle" x="487.904" y="-7.5" font-family="Helvetica,sans-Serif" font-size="10.00">libpsio/config.h</text>
</a>
</g>
</g>
<!-- Node8&#45;&gt;Node10 -->
<g id="edge12" class="edge"><title>Node8&#45;&gt;Node10</title>
<path fill="none" stroke="midnightblue" d="M385.236,-56.4435C405.224,-47.5961 436.647,-33.6875 459.468,-23.5865"/>
<polygon fill="midnightblue" stroke="midnightblue" points="460.936,-26.7645 468.663,-19.5164 458.103,-20.3635 460.936,-26.7645"/>
</g>
<!-- Node11 -->
<g id="node11" class="node"><title>Node11</title>
<polygon fill="none" stroke="#bfbfbf" points="258.904,-0.5 258.904,-19.5 366.904,-19.5 366.904,-0.5 258.904,-0.5"/>
<text text-anchor="middle" x="312.904" y="-7.5" font-family="Helvetica,sans-Serif" font-size="10.00">boost/shared_ptr.hpp</text>
</g>
<!-- Node8&#45;&gt;Node11 -->
<g id="edge13" class="edge"><title>Node8&#45;&gt;Node11</title>
<path fill="none" stroke="midnightblue" d="M357.152,-56.083C349.435,-48.2195 338,-36.5688 328.688,-27.0813"/>
<polygon fill="midnightblue" stroke="midnightblue" points="330.996,-24.4363 321.493,-19.7511 326,-29.3396 330.996,-24.4363"/>
</g>
<!-- Node12 -->
<g id="node12" class="node"><title>Node12</title>
<polygon fill="none" stroke="#bfbfbf" points="384.904,-0.5 384.904,-19.5 428.904,-19.5 428.904,-0.5 384.904,-0.5"/>
<text text-anchor="middle" x="406.904" y="-7.5" font-family="Helvetica,sans-Serif" font-size="10.00">vector</text>
</g>
<!-- Node8&#45;&gt;Node12 -->
<g id="edge14" class="edge"><title>Node8&#45;&gt;Node12</title>
<path fill="none" stroke="midnightblue" d="M372.675,-56.083C378.466,-48.4554 386.963,-37.2645 394.042,-27.9408"/>
<polygon fill="midnightblue" stroke="midnightblue" points="397,-29.8321 400.26,-19.7511 391.425,-25.5991 397,-29.8321"/>
</g>
<!-- Node15 -->
<g id="node15" class="node"><title>Node15</title>
<polygon fill="none" stroke="#bfbfbf" points="621.404,-0.5 621.404,-19.5 670.404,-19.5 670.404,-0.5 621.404,-0.5"/>
<text text-anchor="middle" x="645.904" y="-7.5" font-family="Helvetica,sans-Serif" font-size="10.00">string.h</text>
</g>
<!-- Node14&#45;&gt;Node15 -->
<g id="edge18" class="edge"><title>Node14&#45;&gt;Node15</title>
<path fill="none" stroke="midnightblue" d="M640.895,-56.083C641.69,-48.9272 642.834,-38.6353 643.827,-29.6911"/>
<polygon fill="midnightblue" stroke="midnightblue" points="647.306,-30.0765 644.932,-19.7511 640.349,-29.3034 647.306,-30.0765"/>
</g>
<!-- Node16&#45;&gt;Node9 -->
<g id="edge20" class="edge"><title>Node16&#45;&gt;Node9</title>
<path fill="none" stroke="midnightblue" d="M467.186,-56.4435C488.252,-47.5566 521.421,-33.5632 545.39,-23.4514"/>
<polygon fill="midnightblue" stroke="midnightblue" points="546.864,-26.6283 554.717,-19.5164 544.143,-20.1787 546.864,-26.6283"/>
</g>
</g>
</svg>
        <g id="navigator" transform="translate(0 0)" fill="#404254">
                <rect fill="#f2f5e9" fill-opacity="0.5" stroke="#606060" stroke-width=".5" x="0" y="0" width="60" height="60"/>
                <use id="zoomplus" xlink:href="#zoomPlus" x="17" y="9" onmousedown="handleZoom(evt,'in')"/>
                <use id="zoomminus" xlink:href="#zoomMin" x="42" y="9" onmousedown="handleZoom(evt,'out')"/>
                <use id="reset" xlink:href="#resetDef" x="30" y="36" onmousedown="handleReset()"/>
                <g id="arrowUp" xlink:href="#dirArrow" transform="translate(30 24)" onmousedown="handlePan(0,-1)">
                  <use xlink:href="#rim" fill="#404040">
                        <set attributeName="fill" to="#808080" begin="arrowUp.mouseover" end="arrowUp.mouseout"/>
                  </use>
                  <path fill="none" stroke="white" stroke-width="1.5" d="M0,-3.0v7 M-2.5,-0.5L0,-3.0L2.5,-0.5"/>
                </g>
                <g id="arrowRight" xlink:href="#dirArrow" transform="rotate(90) translate(36 -43)" onmousedown="handlePan(1,0)">
                  <use xlink:href="#rim" fill="#404040">
                        <set attributeName="fill" to="#808080" begin="arrowRight.mouseover" end="arrowRight.mouseout"/>
                  </use>
                  <path fill="none" stroke="white" stroke-width="1.5" d="M0,-3.0v7 M-2.5,-0.5L0,-3.0L2.5,-0.5"/>
                </g>
                <g id="arrowDown" xlink:href="#dirArrow" transform="rotate(180) translate(-30 -48)" onmousedown="handlePan(0,1)">
                  <use xlink:href="#rim" fill="#404040">
                        <set attributeName="fill" to="#808080" begin="arrowDown.mouseover" end="arrowDown.mouseout"/>
                  </use>
                  <path fill="none" stroke="white" stroke-width="1.5" d="M0,-3.0v7 M-2.5,-0.5L0,-3.0L2.5,-0.5"/>
                </g>
                <g id="arrowLeft" xlink:href="#dirArrow" transform="rotate(270) translate(-36 17)" onmousedown="handlePan(-1,0)">
                  <use xlink:href="#rim" fill="#404040">
                        <set attributeName="fill" to="#808080" begin="arrowLeft.mouseover" end="arrowLeft.mouseout"/>
                  </use>
                  <path fill="none" stroke="white" stroke-width="1.5" d="M0,-3.0v7 M-2.5,-0.5L0,-3.0L2.5,-0.5"/>
                </g>
        </g>
        <svg viewBox="0 0 15 15" width="100%" height="30px" preserveAspectRatio="xMaxYMin meet">
         <g id="arrow_out" transform="scale(0.3 0.3)">
          <a xlink:href="dipquad_8cc__incl_org.svg" target="_base">
           <rect id="button" ry="5" rx="5" y="6" x="6" height="38" width="38"
                fill="#f2f5e9" fill-opacity="0.5" stroke="#606060" stroke-width="1.0"/>
           <path id="arrow"
             d="M 11.500037,31.436501 C 11.940474,20.09759 22.043105,11.32322 32.158766,21.979434 L 37.068811,17.246167 C 37.068811,17.246167 37.088388,32 37.088388,32 L 22.160133,31.978069 C 22.160133,31.978069 26.997745,27.140456 26.997745,27.140456 C 18.528582,18.264221 13.291696,25.230495 11.500037,31.436501 z"
             style="fill:#404040;"/>
          </a>
         </g>
        </svg>
</svg>
