<?xml version="1.0" encoding="UTF-8" standalone="no"?>
<!DOCTYPE svg PUBLIC "-//W3C//DTD SVG 1.1//EN"
 "http://www.w3.org/Graphics/SVG/1.1/DTD/svg11.dtd">
<!-- Generated by graphviz version 2.30.1 (20140110.0959)
 -->
<!-- Title: libdist_matrix Pages: 1 -->
<svg width="115pt" height="223pt"
 viewBox="0.00 0.00 115.00 223.00" xmlns="http://www.w3.org/2000/svg" xmlns:xlink="http://www.w3.org/1999/xlink">
<g id="graph0" class="graph" transform="scale(1 1) rotate(0) translate(4 219)">
<title>libdist_matrix</title>
<g id="clust1" class="cluster"><title>clusterdir_d7c0ff2308c59c781da80d18a2c7d15b</title>
<g id="a_clust1"><a xlink:href="dir_d7c0ff2308c59c781da80d18a2c7d15b.html" target="_top" xlink:title="attic">
<polygon fill="#ddddee" stroke="black" points="9,-136 9,-207 99,-207 99,-136 9,-136"/>
<text text-anchor="middle" x="54" y="-195" font-family="Helvetica,sans-Serif" font-size="10.00">attic</text>
</a>
</g>
</g>
<!-- dir_e7d166c7f3929aa5c200617c3fa2de81 -->
<g id="node1" class="node"><title>dir_e7d166c7f3929aa5c200617c3fa2de81</title>
<g id="a_node1"><a xlink:href="dir_e7d166c7f3929aa5c200617c3fa2de81.html" target="_top" xlink:title="libdist_matrix">
<polygon fill="#eeeeff" stroke="black" points="91,-180 17,-180 17,-144 91,-144 91,-180"/>
<text text-anchor="middle" x="54" y="-159.5" font-family="Helvetica,sans-Serif" font-size="10.00">libdist_matrix</text>
</a>
</g>
</g>
<!-- dir_dd3a669fb84fd3fd5a3bb40246daffbd -->
<g id="node2" class="node"><title>dir_dd3a669fb84fd3fd5a3bb40246daffbd</title>
<g id="a_node2"><a xlink:href="dir_dd3a669fb84fd3fd5a3bb40246daffbd.html" target="_top" xlink:title="libqt">
<polygon fill="none" stroke="black" points="54,-108 0,-108 0,-72 54,-72 54,-108"/>
<text text-anchor="middle" x="27" y="-87.5" font-family="Helvetica,sans-Serif" font-size="10.00">libqt</text>
</a>
</g>
</g>
<!-- dir_e7d166c7f3929aa5c200617c3fa2de81&#45;&gt;dir_dd3a669fb84fd3fd5a3bb40246daffbd -->
<g id="edge2" class="edge"><title>dir_e7d166c7f3929aa5c200617c3fa2de81&#45;&gt;dir_dd3a669fb84fd3fd5a3bb40246daffbd</title>
<path fill="none" stroke="black" d="M47.3258,-143.697C44.2851,-135.813 40.6173,-126.304 37.2393,-117.546"/>
<polygon fill="black" stroke="black" points="40.4617,-116.175 33.5974,-108.104 33.9307,-118.694 40.4617,-116.175"/>
<g id="a_edge2&#45;headlabel"><a xlink:href="dir_000058_000003.html" target="_top" xlink:title="2">
<text text-anchor="middle" x="44.4043" y="-116.007" font-family="Helvetica,sans-Serif" font-size="10.00">2</text>
</a>
</g>
</g>
<!-- dir_507a655048d2203b316637ed1c589e22 -->
<g id="node3" class="node"><title>dir_507a655048d2203b316637ed1c589e22</title>
<g id="a_node3"><a xlink:href="dir_507a655048d2203b316637ed1c589e22.html" target="_top" xlink:title="libdpd">
<polygon fill="none" stroke="black" points="54,-36 0,-36 0,-0 54,-0 54,-36"/>
<text text-anchor="middle" x="27" y="-15.5" font-family="Helvetica,sans-Serif" font-size="10.00">libdpd</text>
</a>
</g>
</g>
<!-- dir_e7d166c7f3929aa5c200617c3fa2de81&#45;&gt;dir_507a655048d2203b316637ed1c589e22 -->
<g id="edge3" class="edge"><title>dir_e7d166c7f3929aa5c200617c3fa2de81&#45;&gt;dir_507a655048d2203b316637ed1c589e22</title>
<path fill="none" stroke="black" d="M59.6461,-143.877C64.7573,-125.661 70.4405,-96.196 63,-72 59.9911,-62.2153 54.493,-52.6161 48.6843,-44.3336"/>
<polygon fill="black" stroke="black" points="51.4072,-42.1306 42.6099,-36.2264 45.8052,-46.3279 51.4072,-42.1306"/>
<g id="a_edge3&#45;headlabel"><a xlink:href="dir_000058_000004.html" target="_top" xlink:title="1">
<text text-anchor="middle" x="55.8348" y="-40.8048" font-family="Helvetica,sans-Serif" font-size="10.00">1</text>
</a>
</g>
</g>
<!-- dir_dd3a669fb84fd3fd5a3bb40246daffbd&#45;&gt;dir_507a655048d2203b316637ed1c589e22 -->
<g id="edge1" class="edge"><title>dir_dd3a669fb84fd3fd5a3bb40246daffbd&#45;&gt;dir_507a655048d2203b316637ed1c589e22</title>
<path fill="none" stroke="black" d="M21.0843,-71.6966C20.2886,-63.9827 20.0621,-54.7125 20.4047,-46.1124"/>
<polygon fill="black" stroke="black" points="23.8984,-46.3243 21.105,-36.1043 16.9154,-45.8356 23.8984,-46.3243"/>
<g id="a_edge1&#45;headlabel"><a xlink:href="dir_000003_000004.html" target="_top" xlink:title="1">
<text text-anchor="middle" x="26.4799" y="-47.6083" font-family="Helvetica,sans-Serif" font-size="10.00">1</text>
</a>
</g>
</g>
<!-- dir_507a655048d2203b316637ed1c589e22&#45;&gt;dir_dd3a669fb84fd3fd5a3bb40246daffbd -->
<g id="edge4" class="edge"><title>dir_507a655048d2203b316637ed1c589e22&#45;&gt;dir_dd3a669fb84fd3fd5a3bb40246daffbd</title>
<path fill="none" stroke="black" d="M32.895,-36.1043C33.7005,-43.7913 33.9369,-53.0537 33.604,-61.6651"/>
<polygon fill="black" stroke="black" points="30.1085,-61.4805 32.9157,-71.6966 37.0921,-61.9597 30.1085,-61.4805"/>
<g id="a_edge4&#45;headlabel"><a xlink:href="dir_000004_000003.html" target="_top" xlink:title="49">
<text text-anchor="middle" x="27.5219" y="-55.2" font-family="Helvetica,sans-Serif" font-size="10.00">49</text>
</a>
</g>
</g>
</g>
</svg>
