<?xml version="1.0" encoding="UTF-8" standalone="no"?>
<!DOCTYPE svg PUBLIC "-//W3C//DTD SVG 1.1//EN"
 "http://www.w3.org/Graphics/SVG/1.1/DTD/svg11.dtd">
<!-- Generated by graphviz version 2.30.1 (20140110.0959)
 -->
<!-- Title: attic Pages: 1 -->
<!--zoomable 231 -->
<svg id="main" version="1.1" xmlns="http://www.w3.org/2000/svg" xmlns:xlink="http://www.w3.org/1999/xlink" xml:space="preserve" onload="init(evt)">
        <defs>
                <circle id="rim" cx="0" cy="0" r="7"/>
                <circle id="rim2" cx="0" cy="0" r="3.5"/>
                <g id="zoomPlus">
                        <use xlink:href="#rim" fill="#404040">
                                <set attributeName="fill" to="#808080" begin="zoomplus.mouseover" end="zoomplus.mouseout"/>
                        </use>
                        <path d="M-4,0h8M0,-4v8" fill="none" stroke="white" stroke-width="1.5" pointer-events="none"/>
                </g>
                <g id="zoomMin">
                        <use xlink:href="#rim" fill="#404040">
                                <set attributeName="fill" to="#808080" begin="zoomminus.mouseover" end="zoomminus.mouseout"/>
                        </use>
                        <path d="M-4,0h8" fill="none" stroke="white" stroke-width="1.5" pointer-events="none"/>
                </g>
                <g id="dirArrow">
                        <path fill="none" stroke="white" stroke-width="1.5" d="M0,-3.0v7 M-2.5,-0.5L0,-3.0L2.5,-0.5"/>
                </g>
               <g id="resetDef">
                       <use xlink:href="#rim2" fill="#404040">
                               <set attributeName="fill" to="#808080" begin="reset.mouseover" end="reset.mouseout"/>
                       </use>
               </g>
        </defs>

<script type="text/javascript">
var viewWidth = 524;
var viewHeight = 231;
var sectionId = 'dynsection-0';
</script>
<script xlink:href="svgpan.js"/>
<svg id="graph" class="graph">
<g id="viewport">
<title>attic</title>
<g id="clust1" class="cluster"><title>clusterdir_c85d3e3c5052e9ad9ce18c6863244a25</title>
<g id="a_clust1"><a xlink:href="dir_c85d3e3c5052e9ad9ce18c6863244a25.html" target="_top" xlink:title="lib">
<polygon fill="#ddddee" stroke="black" points="8,-128 8,-215 508,-215 508,-128 8,-128"/>
<text text-anchor="middle" x="258" y="-203" font-family="Helvetica,sans-Serif" font-size="10.00">lib</text>
</a>
</g>
</g>
<g id="clust2" class="cluster"><title>clusterdir_d7c0ff2308c59c781da80d18a2c7d15b</title>
<g id="a_clust2"><a xlink:href="dir_d7c0ff2308c59c781da80d18a2c7d15b.html" target="_top">
<polygon fill="#eeeeff" stroke="black" points="16,-136 16,-188 500,-188 500,-136 16,-136"/>
</a>
</g>
</g>
<!-- dir_d7c0ff2308c59c781da80d18a2c7d15b -->
<g id="node1" class="node"><title>dir_d7c0ff2308c59c781da80d18a2c7d15b</title>
<text text-anchor="middle" x="465" y="-159.5" font-family="Helvetica,sans-Serif" font-size="10.00">attic</text>
</g>
<!-- dir_e7d166c7f3929aa5c200617c3fa2de81 -->
<g id="node2" class="node"><title>dir_e7d166c7f3929aa5c200617c3fa2de81</title>
<g id="a_node2"><a xlink:href="dir_e7d166c7f3929aa5c200617c3fa2de81.html" target="_top" xlink:title="libdist_matrix">
<polygon fill="white" stroke="black" points="420,-180 346,-180 346,-144 420,-144 420,-180"/>
<text text-anchor="middle" x="383" y="-159.5" font-family="Helvetica,sans-Serif" font-size="10.00">libdist_matrix</text>
</a>
</g>
</g>
<!-- dir_dd3a669fb84fd3fd5a3bb40246daffbd -->
<g id="node7" class="node"><title>dir_dd3a669fb84fd3fd5a3bb40246daffbd</title>
<g id="a_node7"><a xlink:href="dir_dd3a669fb84fd3fd5a3bb40246daffbd.html" target="_top" xlink:title="libqt">
<polygon fill="none" stroke="black" points="355,-108 301,-108 301,-72 355,-72 355,-108"/>
<text text-anchor="middle" x="328" y="-87.5" font-family="Helvetica,sans-Serif" font-size="10.00">libqt</text>
</a>
</g>
</g>
<!-- dir_e7d166c7f3929aa5c200617c3fa2de81&#45;&gt;dir_dd3a669fb84fd3fd5a3bb40246daffbd -->
<g id="edge3" class="edge"><title>dir_e7d166c7f3929aa5c200617c3fa2de81&#45;&gt;dir_dd3a669fb84fd3fd5a3bb40246daffbd</title>
<path fill="none" stroke="black" d="M369.404,-143.697C362.877,-135.389 354.932,-125.277 347.753,-116.141"/>
<polygon fill="black" stroke="black" points="350.369,-113.805 341.439,-108.104 344.865,-118.13 350.369,-113.805"/>
<g id="a_edge3&#45;headlabel"><a xlink:href="dir_000058_000003.html" target="_top" xlink:title="2">
<text text-anchor="middle" x="354.823" y="-112.377" font-family="Helvetica,sans-Serif" font-size="10.00">2</text>
</a>
</g>
</g>
<!-- dir_507a655048d2203b316637ed1c589e22 -->
<g id="node8" class="node"><title>dir_507a655048d2203b316637ed1c589e22</title>
<g id="a_node8"><a xlink:href="dir_507a655048d2203b316637ed1c589e22.html" target="_top" xlink:title="libdpd">
<polygon fill="none" stroke="black" points="355,-36 301,-36 301,-0 355,-0 355,-36"/>
<text text-anchor="middle" x="328" y="-15.5" font-family="Helvetica,sans-Serif" font-size="10.00">libdpd</text>
</a>
</g>
</g>
<!-- dir_e7d166c7f3929aa5c200617c3fa2de81&#45;&gt;dir_507a655048d2203b316637ed1c589e22 -->
<g id="edge4" class="edge"><title>dir_e7d166c7f3929aa5c200617c3fa2de81&#45;&gt;dir_507a655048d2203b316637ed1c589e22</title>
<path fill="none" stroke="black" d="M381.303,-143.674C379.05,-125.29 374.112,-95.6852 364,-72 359.916,-62.4333 354.012,-52.7836 348.162,-44.3881"/>
<polygon fill="black" stroke="black" points="350.88,-42.1741 342.165,-36.1492 345.22,-46.2938 350.88,-42.1741"/>
<g id="a_edge4&#45;headlabel"><a xlink:href="dir_000058_000004.html" target="_top" xlink:title="1">
<text text-anchor="middle" x="355.291" y="-40.9093" font-family="Helvetica,sans-Serif" font-size="10.00">1</text>
</a>
</g>
</g>
<!-- dir_d11bdacec1af5b463b1ca0cfc95b51b4 -->
<g id="node3" class="node"><title>dir_d11bdacec1af5b463b1ca0cfc95b51b4</title>
<g id="a_node3"><a xlink:href="dir_d11bdacec1af5b463b1ca0cfc95b51b4.html" target="_top" xlink:title="liblmp2_solver">
<polygon fill="white" stroke="black" points="327.25,-180 248.75,-180 248.75,-144 327.25,-144 327.25,-180"/>
<text text-anchor="middle" x="288" y="-159.5" font-family="Helvetica,sans-Serif" font-size="10.00">liblmp2_solver</text>
</a>
</g>
</g>
<!-- dir_d11bdacec1af5b463b1ca0cfc95b51b4&#45;&gt;dir_dd3a669fb84fd3fd5a3bb40246daffbd -->
<g id="edge1" class="edge"><title>dir_d11bdacec1af5b463b1ca0cfc95b51b4&#45;&gt;dir_dd3a669fb84fd3fd5a3bb40246daffbd</title>
<path fill="none" stroke="black" d="M297.888,-143.697C302.489,-135.644 308.06,-125.894 313.153,-116.982"/>
<polygon fill="black" stroke="black" points="316.304,-118.523 318.226,-108.104 310.226,-115.05 316.304,-118.523"/>
<g id="a_edge1&#45;headlabel"><a xlink:href="dir_000045_000003.html" target="_top" xlink:title="11">
<text text-anchor="middle" x="316.985" y="-120.553" font-family="Helvetica,sans-Serif" font-size="10.00">11</text>
</a>
</g>
</g>
<!-- dir_6cf5530dd93e1d12f345e42dc6b56b31 -->
<g id="node4" class="node"><title>dir_6cf5530dd93e1d12f345e42dc6b56b31</title>
<g id="a_node4"><a xlink:href="dir_6cf5530dd93e1d12f345e42dc6b56b31.html" target="_top" xlink:title="libmatrix">
<polygon fill="white" stroke="red" points="230,-180 176,-180 176,-144 230,-144 230,-180"/>
<text text-anchor="middle" x="203" y="-159.5" font-family="Helvetica,sans-Serif" font-size="10.00">libmatrix</text>
</a>
</g>
</g>
<!-- dir_6ecdb240e7a37d28f6bf139092abfade -->
<g id="node5" class="node"><title>dir_6ecdb240e7a37d28f6bf139092abfade</title>
<g id="a_node5"><a xlink:href="dir_6ecdb240e7a37d28f6bf139092abfade.html" target="_top" xlink:title="libsmartptr">
<polygon fill="white" stroke="black" points="158,-180 96,-180 96,-144 158,-144 158,-180"/>
<text text-anchor="middle" x="127" y="-159.5" font-family="Helvetica,sans-Serif" font-size="10.00">libsmartptr</text>
</a>
</g>
</g>
<!-- dir_fdd3160c0cb5d30ab09ac3db0c3a00c8 -->
<g id="node6" class="node"><title>dir_fdd3160c0cb5d30ab09ac3db0c3a00c8</title>
<g id="a_node6"><a xlink:href="dir_fdd3160c0cb5d30ab09ac3db0c3a00c8.html" target="_top" xlink:title="libyeti">
<polygon fill="white" stroke="black" points="78,-180 24,-180 24,-144 78,-144 78,-180"/>
<text text-anchor="middle" x="51" y="-159.5" font-family="Helvetica,sans-Serif" font-size="10.00">libyeti</text>
</a>
</g>
</g>
<!-- dir_dd3a669fb84fd3fd5a3bb40246daffbd&#45;&gt;dir_507a655048d2203b316637ed1c589e22 -->
<g id="edge2" class="edge"><title>dir_dd3a669fb84fd3fd5a3bb40246daffbd&#45;&gt;dir_507a655048d2203b316637ed1c589e22</title>
<path fill="none" stroke="black" d="M322.084,-71.6966C321.289,-63.9827 321.062,-54.7125 321.405,-46.1124"/>
<polygon fill="black" stroke="black" points="324.898,-46.3243 322.105,-36.1043 317.915,-45.8356 324.898,-46.3243"/>
<g id="a_edge2&#45;headlabel"><a xlink:href="dir_000003_000004.html" target="_top" xlink:title="1">
<text text-anchor="middle" x="327.48" y="-47.6083" font-family="Helvetica,sans-Serif" font-size="10.00">1</text>
</a>
</g>
</g>
<!-- dir_507a655048d2203b316637ed1c589e22&#45;&gt;dir_dd3a669fb84fd3fd5a3bb40246daffbd -->
<g id="edge5" class="edge"><title>dir_507a655048d2203b316637ed1c589e22&#45;&gt;dir_dd3a669fb84fd3fd5a3bb40246daffbd</title>
<path fill="none" stroke="black" d="M333.895,-36.1043C334.701,-43.7913 334.937,-53.0537 334.604,-61.6651"/>
<polygon fill="black" stroke="black" points="331.109,-61.4805 333.916,-71.6966 338.092,-61.9597 331.109,-61.4805"/>
<g id="a_edge5&#45;headlabel"><a xlink:href="dir_000004_000003.html" target="_top" xlink:title="49">
<text text-anchor="middle" x="328.522" y="-55.2" font-family="Helvetica,sans-Serif" font-size="10.00">49</text>
</a>
</g>
</g>
</g>
</svg>
        <g id="navigator" transform="translate(0 0)" fill="#404254">
                <rect fill="#f2f5e9" fill-opacity="0.5" stroke="#606060" stroke-width=".5" x="0" y="0" width="60" height="60"/>
                <use id="zoomplus" xlink:href="#zoomPlus" x="17" y="9" onmousedown="handleZoom(evt,'in')"/>
                <use id="zoomminus" xlink:href="#zoomMin" x="42" y="9" onmousedown="handleZoom(evt,'out')"/>
                <use id="reset" xlink:href="#resetDef" x="30" y="36" onmousedown="handleReset()"/>
                <g id="arrowUp" xlink:href="#dirArrow" transform="translate(30 24)" onmousedown="handlePan(0,-1)">
                  <use xlink:href="#rim" fill="#404040">
                        <set attributeName="fill" to="#808080" begin="arrowUp.mouseover" end="arrowUp.mouseout"/>
                  </use>
                  <path fill="none" stroke="white" stroke-width="1.5" d="M0,-3.0v7 M-2.5,-0.5L0,-3.0L2.5,-0.5"/>
                </g>
                <g id="arrowRight" xlink:href="#dirArrow" transform="rotate(90) translate(36 -43)" onmousedown="handlePan(1,0)">
                  <use xlink:href="#rim" fill="#404040">
                        <set attributeName="fill" to="#808080" begin="arrowRight.mouseover" end="arrowRight.mouseout"/>
                  </use>
                  <path fill="none" stroke="white" stroke-width="1.5" d="M0,-3.0v7 M-2.5,-0.5L0,-3.0L2.5,-0.5"/>
                </g>
                <g id="arrowDown" xlink:href="#dirArrow" transform="rotate(180) translate(-30 -48)" onmousedown="handlePan(0,1)">
                  <use xlink:href="#rim" fill="#404040">
                        <set attributeName="fill" to="#808080" begin="arrowDown.mouseover" end="arrowDown.mouseout"/>
                  </use>
                  <path fill="none" stroke="white" stroke-width="1.5" d="M0,-3.0v7 M-2.5,-0.5L0,-3.0L2.5,-0.5"/>
                </g>
                <g id="arrowLeft" xlink:href="#dirArrow" transform="rotate(270) translate(-36 17)" onmousedown="handlePan(-1,0)">
                  <use xlink:href="#rim" fill="#404040">
                        <set attributeName="fill" to="#808080" begin="arrowLeft.mouseover" end="arrowLeft.mouseout"/>
                  </use>
                  <path fill="none" stroke="white" stroke-width="1.5" d="M0,-3.0v7 M-2.5,-0.5L0,-3.0L2.5,-0.5"/>
                </g>
        </g>
        <svg viewBox="0 0 15 15" width="100%" height="30px" preserveAspectRatio="xMaxYMin meet">
         <g id="arrow_out" transform="scale(0.3 0.3)">
          <a xlink:href="dir_d7c0ff2308c59c781da80d18a2c7d15b_dep_org.svg" target="_base">
           <rect id="button" ry="5" rx="5" y="6" x="6" height="38" width="38"
                fill="#f2f5e9" fill-opacity="0.5" stroke="#606060" stroke-width="1.0"/>
           <path id="arrow"
             d="M 11.500037,31.436501 C 11.940474,20.09759 22.043105,11.32322 32.158766,21.979434 L 37.068811,17.246167 C 37.068811,17.246167 37.088388,32 37.088388,32 L 22.160133,31.978069 C 22.160133,31.978069 26.997745,27.140456 26.997745,27.140456 C 18.528582,18.264221 13.291696,25.230495 11.500037,31.436501 z"
             style="fill:#404040;"/>
          </a>
         </g>
        </svg>
</svg>
