<?xml version="1.0" encoding="UTF-8" standalone="no"?>
<!DOCTYPE svg PUBLIC "-//W3C//DTD SVG 1.1//EN"
 "http://www.w3.org/Graphics/SVG/1.1/DTD/svg11.dtd">
<!-- Generated by graphviz version 2.30.1 (20140110.0959)
 -->
<!-- Title: attic Pages: 1 -->
<svg width="782pt" height="159pt"
 viewBox="0.00 0.00 782.00 159.00" xmlns="http://www.w3.org/2000/svg" xmlns:xlink="http://www.w3.org/1999/xlink">
<g id="graph0" class="graph" transform="scale(1 1) rotate(0) translate(4 155)">
<title>attic</title>
<g id="clust1" class="cluster"><title>clusterdir_031c4fc26031de218e3c67acfca35073</title>
<g id="a_clust1"><a xlink:href="dir_031c4fc26031de218e3c67acfca35073.html" target="_top" xlink:title="bin">
<polygon fill="#ddddee" stroke="black" points="8,-56 8,-143 766,-143 766,-56 8,-56"/>
<text text-anchor="middle" x="387" y="-131" font-family="Helvetica,sans-Serif" font-size="10.00">bin</text>
</a>
</g>
</g>
<g id="clust2" class="cluster"><title>clusterdir_8f0e51b91cf05e6244884b0ba791663a</title>
<g id="a_clust2"><a xlink:href="dir_8f0e51b91cf05e6244884b0ba791663a.html" target="_top">
<polygon fill="#eeeeff" stroke="black" points="16,-64 16,-116 758,-116 758,-64 16,-64"/>
</a>
</g>
</g>
<!-- dir_8f0e51b91cf05e6244884b0ba791663a -->
<g id="node1" class="node"><title>dir_8f0e51b91cf05e6244884b0ba791663a</title>
<text text-anchor="middle" x="723" y="-87.5" font-family="Helvetica,sans-Serif" font-size="10.00">attic</text>
</g>
<!-- dir_0b38e18ae76dd9e03afdede10df1dee3 -->
<g id="node2" class="node"><title>dir_0b38e18ae76dd9e03afdede10df1dee3</title>
<g id="a_node2"><a xlink:href="dir_0b38e18ae76dd9e03afdede10df1dee3.html" target="_top" xlink:title="cis">
<polygon fill="white" stroke="black" points="678,-108 624,-108 624,-72 678,-72 678,-108"/>
<text text-anchor="middle" x="651" y="-87.5" font-family="Helvetica,sans-Serif" font-size="10.00">cis</text>
</a>
</g>
</g>
<!-- dir_c85d3e3c5052e9ad9ce18c6863244a25 -->
<g id="node11" class="node"><title>dir_c85d3e3c5052e9ad9ce18c6863244a25</title>
<g id="a_node11"><a xlink:href="dir_c85d3e3c5052e9ad9ce18c6863244a25.html" target="_top" xlink:title="lib">
<polygon fill="none" stroke="red" points="456,-36 402,-36 402,-0 456,-0 456,-36"/>
<text text-anchor="middle" x="429" y="-15.5" font-family="Helvetica,sans-Serif" font-size="10.00">lib</text>
</a>
</g>
</g>
<!-- dir_0b38e18ae76dd9e03afdede10df1dee3&#45;&gt;dir_c85d3e3c5052e9ad9ce18c6863244a25 -->
<g id="edge3" class="edge"><title>dir_0b38e18ae76dd9e03afdede10df1dee3&#45;&gt;dir_c85d3e3c5052e9ad9ce18c6863244a25</title>
<path fill="none" stroke="black" d="M635.965,-71.7867C629.996,-65.9432 622.714,-59.9101 615,-56 567.353,-31.8478 505.391,-23.4479 466.396,-20.5347"/>
<polygon fill="black" stroke="black" points="466.247,-17.0173 456.038,-19.85 465.785,-24.002 466.247,-17.0173"/>
<g id="a_edge3&#45;headlabel"><a xlink:href="dir_000015_000001.html" target="_top" xlink:title="18">
<text text-anchor="middle" x="470.021" y="-11.9212" font-family="Helvetica,sans-Serif" font-size="10.00">18</text>
</a>
</g>
</g>
<!-- dir_c93bae3fcdc24ecc57006234c179d2eb -->
<g id="node3" class="node"><title>dir_c93bae3fcdc24ecc57006234c179d2eb</title>
<g id="a_node3"><a xlink:href="dir_c93bae3fcdc24ecc57006234c179d2eb.html" target="_top" xlink:title="clag">
<polygon fill="white" stroke="black" points="606,-108 552,-108 552,-72 606,-72 606,-108"/>
<text text-anchor="middle" x="579" y="-87.5" font-family="Helvetica,sans-Serif" font-size="10.00">clag</text>
</a>
</g>
</g>
<!-- dir_c93bae3fcdc24ecc57006234c179d2eb&#45;&gt;dir_c85d3e3c5052e9ad9ce18c6863244a25 -->
<g id="edge6" class="edge"><title>dir_c93bae3fcdc24ecc57006234c179d2eb&#45;&gt;dir_c85d3e3c5052e9ad9ce18c6863244a25</title>
<path fill="none" stroke="black" d="M563.347,-71.93C557.42,-66.2404 550.324,-60.2708 543,-56 519.043,-42.0309 489.132,-32.5783 465.96,-26.7258"/>
<polygon fill="black" stroke="black" points="466.699,-23.3036 456.157,-24.3611 465.057,-30.1085 466.699,-23.3036"/>
<g id="a_edge6&#45;headlabel"><a xlink:href="dir_000047_000001.html" target="_top" xlink:title="5">
<text text-anchor="middle" x="470.859" y="-18.8864" font-family="Helvetica,sans-Serif" font-size="10.00">5</text>
</a>
</g>
</g>
<!-- dir_9ef05cf196d9b162f53b349eb1b26abe -->
<g id="node4" class="node"><title>dir_9ef05cf196d9b162f53b349eb1b26abe</title>
<g id="a_node4"><a xlink:href="dir_9ef05cf196d9b162f53b349eb1b26abe.html" target="_top" xlink:title="detcas">
<polygon fill="white" stroke="black" points="534,-108 480,-108 480,-72 534,-72 534,-108"/>
<text text-anchor="middle" x="507" y="-87.5" font-family="Helvetica,sans-Serif" font-size="10.00">detcas</text>
</a>
</g>
</g>
<!-- dir_9ef05cf196d9b162f53b349eb1b26abe&#45;&gt;dir_c85d3e3c5052e9ad9ce18c6863244a25 -->
<g id="edge7" class="edge"><title>dir_9ef05cf196d9b162f53b349eb1b26abe&#45;&gt;dir_c85d3e3c5052e9ad9ce18c6863244a25</title>
<path fill="none" stroke="black" d="M487.719,-71.6966C478.085,-63.0503 466.271,-52.4486 455.773,-43.027"/>
<polygon fill="black" stroke="black" points="457.839,-40.1786 448.059,-36.1043 453.164,-45.3883 457.839,-40.1786"/>
<g id="a_edge7&#45;headlabel"><a xlink:href="dir_000043_000001.html" target="_top" xlink:title="12">
<text text-anchor="middle" x="462.411" y="-37.9664" font-family="Helvetica,sans-Serif" font-size="10.00">12</text>
</a>
</g>
</g>
<!-- dir_f16891c8d54d008d047261a141736c56 -->
<g id="node5" class="node"><title>dir_f16891c8d54d008d047261a141736c56</title>
<g id="a_node5"><a xlink:href="dir_f16891c8d54d008d047261a141736c56.html" target="_top" xlink:title="detcasman">
<polygon fill="white" stroke="black" points="461.25,-108 396.75,-108 396.75,-72 461.25,-72 461.25,-108"/>
<text text-anchor="middle" x="429" y="-87.5" font-family="Helvetica,sans-Serif" font-size="10.00">detcasman</text>
</a>
</g>
</g>
<!-- dir_f16891c8d54d008d047261a141736c56&#45;&gt;dir_c85d3e3c5052e9ad9ce18c6863244a25 -->
<g id="edge5" class="edge"><title>dir_f16891c8d54d008d047261a141736c56&#45;&gt;dir_c85d3e3c5052e9ad9ce18c6863244a25</title>
<path fill="none" stroke="black" d="M429,-71.6966C429,-63.9827 429,-54.7125 429,-46.1124"/>
<polygon fill="black" stroke="black" points="432.5,-46.1043 429,-36.1043 425.5,-46.1044 432.5,-46.1043"/>
<g id="a_edge5&#45;headlabel"><a xlink:href="dir_000054_000001.html" target="_top" xlink:title="1">
<text text-anchor="middle" x="435.339" y="-47.199" font-family="Helvetica,sans-Serif" font-size="10.00">1</text>
</a>
</g>
</g>
<!-- dir_d967c88587ba66422ebd30a5dbfa0cfc -->
<g id="node6" class="node"><title>dir_d967c88587ba66422ebd30a5dbfa0cfc</title>
<g id="a_node6"><a xlink:href="dir_d967c88587ba66422ebd30a5dbfa0cfc.html" target="_top" xlink:title="giao">
<polygon fill="white" stroke="black" points="378,-108 324,-108 324,-72 378,-72 378,-108"/>
<text text-anchor="middle" x="351" y="-87.5" font-family="Helvetica,sans-Serif" font-size="10.00">giao</text>
</a>
</g>
</g>
<!-- dir_439b6e42dda306e18b15f8d2c881abfd -->
<g id="node7" class="node"><title>dir_439b6e42dda306e18b15f8d2c881abfd</title>
<g id="a_node7"><a xlink:href="dir_439b6e42dda306e18b15f8d2c881abfd.html" target="_top" xlink:title="lmp2">
<polygon fill="white" stroke="black" points="306,-108 252,-108 252,-72 306,-72 306,-108"/>
<text text-anchor="middle" x="279" y="-87.5" font-family="Helvetica,sans-Serif" font-size="10.00">lmp2</text>
</a>
</g>
</g>
<!-- dir_439b6e42dda306e18b15f8d2c881abfd&#45;&gt;dir_c85d3e3c5052e9ad9ce18c6863244a25 -->
<g id="edge2" class="edge"><title>dir_439b6e42dda306e18b15f8d2c881abfd&#45;&gt;dir_c85d3e3c5052e9ad9ce18c6863244a25</title>
<path fill="none" stroke="black" d="M294.653,-71.93C300.58,-66.2404 307.676,-60.2708 315,-56 338.957,-42.0309 368.868,-32.5783 392.04,-26.7258"/>
<polygon fill="black" stroke="black" points="392.943,-30.1085 401.843,-24.3611 391.301,-23.3036 392.943,-30.1085"/>
<g id="a_edge2&#45;headlabel"><a xlink:href="dir_000073_000001.html" target="_top" xlink:title="2">
<text text-anchor="middle" x="390.114" y="-31.2114" font-family="Helvetica,sans-Serif" font-size="10.00">2</text>
</a>
</g>
</g>
<!-- dir_3e7294290a416e7189dc1ca40e875dd7 -->
<g id="node8" class="node"><title>dir_3e7294290a416e7189dc1ca40e875dd7</title>
<g id="a_node8"><a xlink:href="dir_3e7294290a416e7189dc1ca40e875dd7.html" target="_top" xlink:title="mp2">
<polygon fill="white" stroke="black" points="234,-108 180,-108 180,-72 234,-72 234,-108"/>
<text text-anchor="middle" x="207" y="-87.5" font-family="Helvetica,sans-Serif" font-size="10.00">mp2</text>
</a>
</g>
</g>
<!-- dir_3e7294290a416e7189dc1ca40e875dd7&#45;&gt;dir_c85d3e3c5052e9ad9ce18c6863244a25 -->
<g id="edge4" class="edge"><title>dir_3e7294290a416e7189dc1ca40e875dd7&#45;&gt;dir_c85d3e3c5052e9ad9ce18c6863244a25</title>
<path fill="none" stroke="black" d="M222.035,-71.7867C228.004,-65.9432 235.286,-59.9101 243,-56 290.647,-31.8478 352.609,-23.4479 391.604,-20.5347"/>
<polygon fill="black" stroke="black" points="392.215,-24.002 401.962,-19.85 391.753,-17.0173 392.215,-24.002"/>
<g id="a_edge4&#45;headlabel"><a xlink:href="dir_000020_000001.html" target="_top" xlink:title="32">
<text text-anchor="middle" x="388.815" y="-24.5721" font-family="Helvetica,sans-Serif" font-size="10.00">32</text>
</a>
</g>
</g>
<!-- dir_acfc474d3d15e3dc7c05ebee3d897ead -->
<g id="node9" class="node"><title>dir_acfc474d3d15e3dc7c05ebee3d897ead</title>
<g id="a_node9"><a xlink:href="dir_acfc474d3d15e3dc7c05ebee3d897ead.html" target="_top" xlink:title="nonbonded">
<polygon fill="white" stroke="black" points="162,-108 98,-108 98,-72 162,-72 162,-108"/>
<text text-anchor="middle" x="130" y="-87.5" font-family="Helvetica,sans-Serif" font-size="10.00">nonbonded</text>
</a>
</g>
</g>
<!-- dir_b4cb3b07d77c90d222579b9993ba2e36 -->
<g id="node10" class="node"><title>dir_b4cb3b07d77c90d222579b9993ba2e36</title>
<g id="a_node10"><a xlink:href="dir_b4cb3b07d77c90d222579b9993ba2e36.html" target="_top" xlink:title="response">
<polygon fill="white" stroke="black" points="80,-108 24,-108 24,-72 80,-72 80,-108"/>
<text text-anchor="middle" x="52" y="-87.5" font-family="Helvetica,sans-Serif" font-size="10.00">response</text>
</a>
</g>
</g>
<!-- dir_b4cb3b07d77c90d222579b9993ba2e36&#45;&gt;dir_c85d3e3c5052e9ad9ce18c6863244a25 -->
<g id="edge1" class="edge"><title>dir_b4cb3b07d77c90d222579b9993ba2e36&#45;&gt;dir_c85d3e3c5052e9ad9ce18c6863244a25</title>
<path fill="none" stroke="black" d="M66.9913,-71.76C73.1803,-65.7649 80.8204,-59.6367 89,-56 142.438,-32.2415 314.947,-23.1388 391.644,-20.2045"/>
<polygon fill="black" stroke="black" points="391.944,-23.696 401.808,-19.8305 391.686,-16.7007 391.944,-23.696"/>
<g id="a_edge1&#45;headlabel"><a xlink:href="dir_000036_000001.html" target="_top" xlink:title="16">
<text text-anchor="middle" x="388.456" y="-24.1654" font-family="Helvetica,sans-Serif" font-size="10.00">16</text>
</a>
</g>
</g>
</g>
</svg>
