<?xml version="1.0" encoding="UTF-8" standalone="no"?>
<!DOCTYPE svg PUBLIC "-//W3C//DTD SVG 1.1//EN"
 "http://www.w3.org/Graphics/SVG/1.1/DTD/svg11.dtd">
<!-- Generated by graphviz version 2.30.1 (20140110.0959)
 -->
<!-- Title: bin Pages: 1 -->
<!--zoomable 159 -->
<svg id="main" version="1.1" xmlns="http://www.w3.org/2000/svg" xmlns:xlink="http://www.w3.org/1999/xlink" xml:space="preserve" onload="init(evt)">
        <defs>
                <circle id="rim" cx="0" cy="0" r="7"/>
                <circle id="rim2" cx="0" cy="0" r="3.5"/>
                <g id="zoomPlus">
                        <use xlink:href="#rim" fill="#404040">
                                <set attributeName="fill" to="#808080" begin="zoomplus.mouseover" end="zoomplus.mouseout"/>
                        </use>
                        <path d="M-4,0h8M0,-4v8" fill="none" stroke="white" stroke-width="1.5" pointer-events="none"/>
                </g>
                <g id="zoomMin">
                        <use xlink:href="#rim" fill="#404040">
                                <set attributeName="fill" to="#808080" begin="zoomminus.mouseover" end="zoomminus.mouseout"/>
                        </use>
                        <path d="M-4,0h8" fill="none" stroke="white" stroke-width="1.5" pointer-events="none"/>
                </g>
                <g id="dirArrow">
                        <path fill="none" stroke="white" stroke-width="1.5" d="M0,-3.0v7 M-2.5,-0.5L0,-3.0L2.5,-0.5"/>
                </g>
               <g id="resetDef">
                       <use xlink:href="#rim2" fill="#404040">
                               <set attributeName="fill" to="#808080" begin="reset.mouseover" end="reset.mouseout"/>
                       </use>
               </g>
        </defs>

<script type="text/javascript">
var viewWidth = 2563;
var viewHeight = 159;
var sectionId = 'dynsection-0';
</script>
<script xlink:href="svgpan.js"/>
<svg id="graph" class="graph">
<g id="viewport">
<title>bin</title>
<g id="clust1" class="cluster"><title>clusterdir_68267d1309a1af8e8297ef4c3efbcdba</title>
<g id="a_clust1"><a xlink:href="dir_68267d1309a1af8e8297ef4c3efbcdba.html" target="_top" xlink:title="src">
<polygon fill="#ddddee" stroke="black" points="8,-56 8,-143 2547,-143 2547,-56 8,-56"/>
<text text-anchor="middle" x="1277.5" y="-131" font-family="Helvetica,sans-Serif" font-size="10.00">src</text>
</a>
</g>
</g>
<g id="clust2" class="cluster"><title>clusterdir_031c4fc26031de218e3c67acfca35073</title>
<g id="a_clust2"><a xlink:href="dir_031c4fc26031de218e3c67acfca35073.html" target="_top">
<polygon fill="#eeeeff" stroke="black" points="16,-64 16,-116 2539,-116 2539,-64 16,-64"/>
</a>
</g>
</g>
<!-- dir_031c4fc26031de218e3c67acfca35073 -->
<g id="node1" class="node"><title>dir_031c4fc26031de218e3c67acfca35073</title>
<text text-anchor="middle" x="2504" y="-87.5" font-family="Helvetica,sans-Serif" font-size="10.00">bin</text>
</g>
<!-- dir_bf1d2a0973a49ec52999c5d1f6c3f04e -->
<g id="node2" class="node"><title>dir_bf1d2a0973a49ec52999c5d1f6c3f04e</title>
<g id="a_node2"><a xlink:href="dir_bf1d2a0973a49ec52999c5d1f6c3f04e.html" target="_top" xlink:title="adc">
<polygon fill="white" stroke="black" points="2459,-108 2405,-108 2405,-72 2459,-72 2459,-108"/>
<text text-anchor="middle" x="2432" y="-87.5" font-family="Helvetica,sans-Serif" font-size="10.00">adc</text>
</a>
</g>
</g>
<!-- dir_c85d3e3c5052e9ad9ce18c6863244a25 -->
<g id="node35" class="node"><title>dir_c85d3e3c5052e9ad9ce18c6863244a25</title>
<g id="a_node35"><a xlink:href="dir_c85d3e3c5052e9ad9ce18c6863244a25.html" target="_top" xlink:title="lib">
<polygon fill="none" stroke="red" points="1364,-36 1310,-36 1310,-0 1364,-0 1364,-36"/>
<text text-anchor="middle" x="1337" y="-15.5" font-family="Helvetica,sans-Serif" font-size="10.00">lib</text>
</a>
</g>
</g>
<!-- dir_bf1d2a0973a49ec52999c5d1f6c3f04e&#45;&gt;dir_c85d3e3c5052e9ad9ce18c6863244a25 -->
<g id="edge22" class="edge"><title>dir_bf1d2a0973a49ec52999c5d1f6c3f04e&#45;&gt;dir_c85d3e3c5052e9ad9ce18c6863244a25</title>
<path fill="none" stroke="black" d="M2417.97,-71.7938C2411.92,-65.6467 2404.32,-59.4038 2396,-56 2299.96,-16.6959 1550.5,-17.9331 1374.1,-18.7794"/>
<polygon fill="black" stroke="black" points="1374,-15.2797 1364.01,-18.8304 1374.03,-22.2796 1374,-15.2797"/>
<g id="a_edge22&#45;headlabel"><a xlink:href="dir_000007_000001.html" target="_top" xlink:title="6">
<text text-anchor="middle" x="1377.58" y="-9.9224" font-family="Helvetica,sans-Serif" font-size="10.00">6</text>
</a>
</g>
</g>
<!-- dir_8f0e51b91cf05e6244884b0ba791663a -->
<g id="node3" class="node"><title>dir_8f0e51b91cf05e6244884b0ba791663a</title>
<g id="a_node3"><a xlink:href="dir_8f0e51b91cf05e6244884b0ba791663a.html" target="_top" xlink:title="attic">
<polygon fill="white" stroke="red" points="2387,-108 2333,-108 2333,-72 2387,-72 2387,-108"/>
<text text-anchor="middle" x="2360" y="-87.5" font-family="Helvetica,sans-Serif" font-size="10.00">attic</text>
</a>
</g>
</g>
<!-- dir_8f0e51b91cf05e6244884b0ba791663a&#45;&gt;dir_c85d3e3c5052e9ad9ce18c6863244a25 -->
<g id="edge19" class="edge"><title>dir_8f0e51b91cf05e6244884b0ba791663a&#45;&gt;dir_c85d3e3c5052e9ad9ce18c6863244a25</title>
<path fill="none" stroke="black" d="M2345.49,-71.799C2339.26,-65.6525 2331.46,-59.4089 2323,-56 2233.85,-20.0889 1543.16,-18.7061 1374.2,-18.911"/>
<polygon fill="black" stroke="black" points="1374.06,-15.4111 1364.06,-18.926 1374.07,-22.4111 1374.06,-15.4111"/>
<g id="a_edge19&#45;headlabel"><a xlink:href="dir_000014_000001.html" target="_top" xlink:title="86">
<text text-anchor="middle" x="1377.65" y="-10.0666" font-family="Helvetica,sans-Serif" font-size="10.00">86</text>
</a>
</g>
</g>
<!-- dir_fd7e39601798b05eba5051c8af3ba847 -->
<g id="node4" class="node"><title>dir_fd7e39601798b05eba5051c8af3ba847</title>
<g id="a_node4"><a xlink:href="dir_fd7e39601798b05eba5051c8af3ba847.html" target="_top" xlink:title="ccdensity">
<polygon fill="white" stroke="black" points="2314.25,-108 2255.75,-108 2255.75,-72 2314.25,-72 2314.25,-108"/>
<text text-anchor="middle" x="2285" y="-87.5" font-family="Helvetica,sans-Serif" font-size="10.00">ccdensity</text>
</a>
</g>
</g>
<!-- dir_fd7e39601798b05eba5051c8af3ba847&#45;&gt;dir_c85d3e3c5052e9ad9ce18c6863244a25 -->
<g id="edge15" class="edge"><title>dir_fd7e39601798b05eba5051c8af3ba847&#45;&gt;dir_c85d3e3c5052e9ad9ce18c6863244a25</title>
<path fill="none" stroke="black" d="M2269.55,-71.8029C2262.95,-65.657 2254.76,-59.4127 2246,-56 2164,-24.0553 1535.78,-19.6888 1374.59,-19.0936"/>
<polygon fill="black" stroke="black" points="1374.25,-15.5925 1364.23,-19.0583 1374.22,-22.5925 1374.25,-15.5925"/>
<g id="a_edge15&#45;headlabel"><a xlink:href="dir_000009_000001.html" target="_top" xlink:title="129">
<text text-anchor="middle" x="1377.85" y="-10.2654" font-family="Helvetica,sans-Serif" font-size="10.00">129</text>
</a>
</g>
</g>
<!-- dir_56425ab0d14dfd073cd71a5d8a0af9b3 -->
<g id="node5" class="node"><title>dir_56425ab0d14dfd073cd71a5d8a0af9b3</title>
<g id="a_node5"><a xlink:href="dir_56425ab0d14dfd073cd71a5d8a0af9b3.html" target="_top" xlink:title="ccenergy">
<polygon fill="white" stroke="black" points="2237,-108 2181,-108 2181,-72 2237,-72 2237,-108"/>
<text text-anchor="middle" x="2209" y="-87.5" font-family="Helvetica,sans-Serif" font-size="10.00">ccenergy</text>
</a>
</g>
</g>
<!-- dir_56425ab0d14dfd073cd71a5d8a0af9b3&#45;&gt;dir_c85d3e3c5052e9ad9ce18c6863244a25 -->
<g id="edge9" class="edge"><title>dir_56425ab0d14dfd073cd71a5d8a0af9b3&#45;&gt;dir_c85d3e3c5052e9ad9ce18c6863244a25</title>
<path fill="none" stroke="black" d="M2194.48,-71.8285C2188.25,-65.6861 2180.45,-59.4375 2172,-56 2097.59,-25.7346 1527.16,-20.1441 1374.49,-19.1862"/>
<polygon fill="black" stroke="black" points="1374.25,-15.6848 1364.23,-19.1249 1374.21,-22.6847 1374.25,-15.6848"/>
<g id="a_edge9&#45;headlabel"><a xlink:href="dir_000016_000001.html" target="_top" xlink:title="102">
<text text-anchor="middle" x="1377.86" y="-10.3669" font-family="Helvetica,sans-Serif" font-size="10.00">102</text>
</a>
</g>
</g>
<!-- dir_ac7ed8406943db7a4ea1e438ab9c0b5b -->
<g id="node6" class="node"><title>dir_ac7ed8406943db7a4ea1e438ab9c0b5b</title>
<g id="a_node6"><a xlink:href="dir_ac7ed8406943db7a4ea1e438ab9c0b5b.html" target="_top" xlink:title="cceom">
<polygon fill="white" stroke="black" points="2163,-108 2109,-108 2109,-72 2163,-72 2163,-108"/>
<text text-anchor="middle" x="2136" y="-87.5" font-family="Helvetica,sans-Serif" font-size="10.00">cceom</text>
</a>
</g>
</g>
<!-- dir_ac7ed8406943db7a4ea1e438ab9c0b5b&#45;&gt;dir_c85d3e3c5052e9ad9ce18c6863244a25 -->
<g id="edge12" class="edge"><title>dir_ac7ed8406943db7a4ea1e438ab9c0b5b&#45;&gt;dir_c85d3e3c5052e9ad9ce18c6863244a25</title>
<path fill="none" stroke="black" d="M2121.95,-71.8517C2115.89,-65.7125 2108.29,-59.46 2100,-56 2032.76,-27.9498 1518.74,-20.7927 1374.52,-19.3282"/>
<polygon fill="black" stroke="black" points="1374.43,-15.8273 1364.4,-19.2288 1374.36,-22.827 1374.43,-15.8273"/>
<g id="a_edge12&#45;headlabel"><a xlink:href="dir_000017_000001.html" target="_top" xlink:title="28">
<text text-anchor="middle" x="1378.05" y="-10.5234" font-family="Helvetica,sans-Serif" font-size="10.00">28</text>
</a>
</g>
</g>
<!-- dir_19a8c55ff87ac3d1b326e989885a3824 -->
<g id="node7" class="node"><title>dir_19a8c55ff87ac3d1b326e989885a3824</title>
<g id="a_node7"><a xlink:href="dir_19a8c55ff87ac3d1b326e989885a3824.html" target="_top" xlink:title="cchbar">
<polygon fill="white" stroke="black" points="2091,-108 2037,-108 2037,-72 2091,-72 2091,-108"/>
<text text-anchor="middle" x="2064" y="-87.5" font-family="Helvetica,sans-Serif" font-size="10.00">cchbar</text>
</a>
</g>
</g>
<!-- dir_19a8c55ff87ac3d1b326e989885a3824&#45;&gt;dir_c85d3e3c5052e9ad9ce18c6863244a25 -->
<g id="edge16" class="edge"><title>dir_19a8c55ff87ac3d1b326e989885a3824&#45;&gt;dir_c85d3e3c5052e9ad9ce18c6863244a25</title>
<path fill="none" stroke="black" d="M2049.47,-71.8689C2043.23,-65.7321 2035.44,-59.4767 2027,-56 1966.59,-31.1032 1509.32,-21.7856 1374.38,-19.5614"/>
<polygon fill="black" stroke="black" points="1374.19,-16.0581 1364.14,-19.3962 1374.08,-23.0572 1374.19,-16.0581"/>
<g id="a_edge16&#45;headlabel"><a xlink:href="dir_000040_000001.html" target="_top" xlink:title="41">
<text text-anchor="middle" x="1377.83" y="-10.7771" font-family="Helvetica,sans-Serif" font-size="10.00">41</text>
</a>
</g>
</g>
<!-- dir_69b86c059f3398b199ca030a0763e68b -->
<g id="node8" class="node"><title>dir_69b86c059f3398b199ca030a0763e68b</title>
<g id="a_node8"><a xlink:href="dir_69b86c059f3398b199ca030a0763e68b.html" target="_top" xlink:title="cclambda">
<polygon fill="white" stroke="black" points="2018.25,-108 1959.75,-108 1959.75,-72 2018.25,-72 2018.25,-108"/>
<text text-anchor="middle" x="1989" y="-87.5" font-family="Helvetica,sans-Serif" font-size="10.00">cclambda</text>
</a>
</g>
</g>
<!-- dir_69b86c059f3398b199ca030a0763e68b&#45;&gt;dir_c85d3e3c5052e9ad9ce18c6863244a25 -->
<g id="edge1" class="edge"><title>dir_69b86c059f3398b199ca030a0763e68b&#45;&gt;dir_c85d3e3c5052e9ad9ce18c6863244a25</title>
<path fill="none" stroke="black" d="M1973.51,-71.8912C1966.91,-65.7574 1958.73,-59.4984 1950,-56 1896.69,-34.6295 1498.86,-23.0215 1374.22,-19.8816"/>
<polygon fill="black" stroke="black" points="1374.12,-16.3781 1364.04,-19.6286 1373.95,-23.3759 1374.12,-16.3781"/>
<g id="a_edge1&#45;headlabel"><a xlink:href="dir_000032_000001.html" target="_top" xlink:title="66">
<text text-anchor="middle" x="1377.78" y="-11.1288" font-family="Helvetica,sans-Serif" font-size="10.00">66</text>
</a>
</g>
</g>
<!-- dir_7c281fe1a0031d6181ae7bc22326bcff -->
<g id="node9" class="node"><title>dir_7c281fe1a0031d6181ae7bc22326bcff</title>
<g id="a_node9"><a xlink:href="dir_7c281fe1a0031d6181ae7bc22326bcff.html" target="_top" xlink:title="ccresponse">
<polygon fill="white" stroke="black" points="1941.25,-108 1874.75,-108 1874.75,-72 1941.25,-72 1941.25,-108"/>
<text text-anchor="middle" x="1908" y="-87.5" font-family="Helvetica,sans-Serif" font-size="10.00">ccresponse</text>
</a>
</g>
</g>
<!-- dir_7c281fe1a0031d6181ae7bc22326bcff&#45;&gt;dir_c85d3e3c5052e9ad9ce18c6863244a25 -->
<g id="edge27" class="edge"><title>dir_7c281fe1a0031d6181ae7bc22326bcff&#45;&gt;dir_c85d3e3c5052e9ad9ce18c6863244a25</title>
<path fill="none" stroke="black" d="M1890.62,-71.929C1883.3,-65.8004 1874.33,-59.5351 1865,-56 1775.07,-21.918 1479.23,-18.8337 1374.31,-18.8423"/>
<polygon fill="black" stroke="black" points="1374.18,-15.3423 1364.19,-18.853 1374.19,-22.3423 1374.18,-15.3423"/>
<g id="a_edge27&#45;headlabel"><a xlink:href="dir_000018_000001.html" target="_top" xlink:title="50">
<text text-anchor="middle" x="1377.78" y="-9.99933" font-family="Helvetica,sans-Serif" font-size="10.00">50</text>
</a>
</g>
</g>
<!-- dir_d352739f43cb0eb5ad5ebd93b0fa0276 -->
<g id="node10" class="node"><title>dir_d352739f43cb0eb5ad5ebd93b0fa0276</title>
<g id="a_node10"><a xlink:href="dir_d352739f43cb0eb5ad5ebd93b0fa0276.html" target="_top" xlink:title="ccsort">
<polygon fill="white" stroke="black" points="1856,-108 1802,-108 1802,-72 1856,-72 1856,-108"/>
<text text-anchor="middle" x="1829" y="-87.5" font-family="Helvetica,sans-Serif" font-size="10.00">ccsort</text>
</a>
</g>
</g>
<!-- dir_d352739f43cb0eb5ad5ebd93b0fa0276&#45;&gt;dir_c85d3e3c5052e9ad9ce18c6863244a25 -->
<g id="edge21" class="edge"><title>dir_d352739f43cb0eb5ad5ebd93b0fa0276&#45;&gt;dir_c85d3e3c5052e9ad9ce18c6863244a25</title>
<path fill="none" stroke="black" d="M1814.89,-71.9901C1808.83,-65.87 1801.24,-59.5944 1793,-56 1718.17,-23.3479 1469.46,-19.2774 1374.39,-18.9406"/>
<polygon fill="black" stroke="black" points="1374.11,-15.44 1364.11,-18.9169 1374.1,-22.44 1374.11,-15.44"/>
<g id="a_edge21&#45;headlabel"><a xlink:href="dir_000030_000001.html" target="_top" xlink:title="39">
<text text-anchor="middle" x="1377.71" y="-10.1089" font-family="Helvetica,sans-Serif" font-size="10.00">39</text>
</a>
</g>
</g>
<!-- dir_3b975f85ae203656b239f91ba673fdeb -->
<g id="node11" class="node"><title>dir_3b975f85ae203656b239f91ba673fdeb</title>
<g id="a_node11"><a xlink:href="dir_3b975f85ae203656b239f91ba673fdeb.html" target="_top" xlink:title="cctriples">
<polygon fill="white" stroke="black" points="1784,-108 1730,-108 1730,-72 1784,-72 1784,-108"/>
<text text-anchor="middle" x="1757" y="-87.5" font-family="Helvetica,sans-Serif" font-size="10.00">cctriples</text>
</a>
</g>
</g>
<!-- dir_3b975f85ae203656b239f91ba673fdeb&#45;&gt;dir_c85d3e3c5052e9ad9ce18c6863244a25 -->
<g id="edge28" class="edge"><title>dir_3b975f85ae203656b239f91ba673fdeb&#45;&gt;dir_c85d3e3c5052e9ad9ce18c6863244a25</title>
<path fill="none" stroke="black" d="M1742.52,-71.7079C1736.51,-65.7064 1729.05,-59.5875 1721,-56 1659.54,-28.6275 1458.04,-21.4302 1374.16,-19.6001"/>
<polygon fill="black" stroke="black" points="1374.13,-16.0989 1364.06,-19.3936 1373.99,-23.0974 1374.13,-16.0989"/>
<g id="a_edge28&#45;headlabel"><a xlink:href="dir_000041_000001.html" target="_top" xlink:title="38">
<text text-anchor="middle" x="1377.78" y="-10.8336" font-family="Helvetica,sans-Serif" font-size="10.00">38</text>
</a>
</g>
</g>
<!-- dir_5f34aa100d2d39789d6aa60cfcd496af -->
<g id="node12" class="node"><title>dir_5f34aa100d2d39789d6aa60cfcd496af</title>
<g id="a_node12"><a xlink:href="dir_5f34aa100d2d39789d6aa60cfcd496af.html" target="_top" xlink:title="dcft">
<polygon fill="white" stroke="black" points="1712,-108 1658,-108 1658,-72 1712,-72 1712,-108"/>
<text text-anchor="middle" x="1685" y="-87.5" font-family="Helvetica,sans-Serif" font-size="10.00">dcft</text>
</a>
</g>
</g>
<!-- dir_5f34aa100d2d39789d6aa60cfcd496af&#45;&gt;dir_c85d3e3c5052e9ad9ce18c6863244a25 -->
<g id="edge26" class="edge"><title>dir_5f34aa100d2d39789d6aa60cfcd496af&#45;&gt;dir_c85d3e3c5052e9ad9ce18c6863244a25</title>
<path fill="none" stroke="black" d="M1669.99,-71.8033C1663.8,-65.8134 1656.16,-59.6776 1648,-56 1599.9,-34.3273 1446.05,-24.252 1374.38,-20.6444"/>
<polygon fill="black" stroke="black" points="1374.18,-17.1305 1364.02,-20.1393 1373.84,-24.1222 1374.18,-17.1305"/>
<g id="a_edge26&#45;headlabel"><a xlink:href="dir_000021_000001.html" target="_top" xlink:title="21">
<text text-anchor="middle" x="1377.91" y="-11.9696" font-family="Helvetica,sans-Serif" font-size="10.00">21</text>
</a>
</g>
</g>
<!-- dir_44d492d18ad0abd2eba8f8a67455ba4e -->
<g id="node13" class="node"><title>dir_44d492d18ad0abd2eba8f8a67455ba4e</title>
<g id="a_node13"><a xlink:href="dir_44d492d18ad0abd2eba8f8a67455ba4e.html" target="_top" xlink:title="deriv_wrapper">
<polygon fill="white" stroke="black" points="1639.25,-108 1562.75,-108 1562.75,-72 1639.25,-72 1639.25,-108"/>
<text text-anchor="middle" x="1601" y="-87.5" font-family="Helvetica,sans-Serif" font-size="10.00">deriv_wrapper</text>
</a>
</g>
</g>
<!-- dir_44d492d18ad0abd2eba8f8a67455ba4e&#45;&gt;dir_c85d3e3c5052e9ad9ce18c6863244a25 -->
<g id="edge6" class="edge"><title>dir_44d492d18ad0abd2eba8f8a67455ba4e&#45;&gt;dir_c85d3e3c5052e9ad9ce18c6863244a25</title>
<path fill="none" stroke="black" d="M1580.16,-71.7575C1572.12,-65.9107 1562.56,-59.8832 1553,-56 1493.45,-31.801 1418.42,-23.4275 1374.28,-20.5309"/>
<polygon fill="black" stroke="black" points="1374.47,-17.0364 1364.28,-19.9345 1374.06,-24.024 1374.47,-17.0364"/>
<g id="a_edge6&#45;headlabel"><a xlink:href="dir_000074_000001.html" target="_top" xlink:title="1">
<text text-anchor="middle" x="1378.23" y="-11.9161" font-family="Helvetica,sans-Serif" font-size="10.00">1</text>
</a>
</g>
</g>
<!-- dir_f7dde439a3636e80f87b5ddf0fe732d3 -->
<g id="node14" class="node"><title>dir_f7dde439a3636e80f87b5ddf0fe732d3</title>
<g id="a_node14"><a xlink:href="dir_f7dde439a3636e80f87b5ddf0fe732d3.html" target="_top" xlink:title="detci">
<polygon fill="white" stroke="red" points="1544,-108 1490,-108 1490,-72 1544,-72 1544,-108"/>
<text text-anchor="middle" x="1517" y="-87.5" font-family="Helvetica,sans-Serif" font-size="10.00">detci</text>
</a>
</g>
</g>
<!-- dir_f7dde439a3636e80f87b5ddf0fe732d3&#45;&gt;dir_c85d3e3c5052e9ad9ce18c6863244a25 -->
<g id="edge29" class="edge"><title>dir_f7dde439a3636e80f87b5ddf0fe732d3&#45;&gt;dir_c85d3e3c5052e9ad9ce18c6863244a25</title>
<path fill="none" stroke="black" d="M1501.49,-71.6734C1495.58,-65.9597 1488.45,-60.0404 1481,-56 1447.4,-37.7894 1404.51,-28.2672 1374.3,-23.4746"/>
<polygon fill="black" stroke="black" points="1374.59,-19.979 1364.18,-21.9702 1373.56,-26.9029 1374.59,-19.979"/>
<g id="a_edge29&#45;headlabel"><a xlink:href="dir_000029_000001.html" target="_top" xlink:title="33">
<text text-anchor="middle" x="1378.56" y="-15.1992" font-family="Helvetica,sans-Serif" font-size="10.00">33</text>
</a>
</g>
</g>
<!-- dir_084664a96088d7f348dd8efd8d40f0fa -->
<g id="node15" class="node"><title>dir_084664a96088d7f348dd8efd8d40f0fa</title>
<g id="a_node15"><a xlink:href="dir_084664a96088d7f348dd8efd8d40f0fa.html" target="_top" xlink:title="dfmp2">
<polygon fill="white" stroke="red" points="1472,-108 1418,-108 1418,-72 1472,-72 1472,-108"/>
<text text-anchor="middle" x="1445" y="-87.5" font-family="Helvetica,sans-Serif" font-size="10.00">dfmp2</text>
</a>
</g>
</g>
<!-- dir_084664a96088d7f348dd8efd8d40f0fa&#45;&gt;dir_c85d3e3c5052e9ad9ce18c6863244a25 -->
<g id="edge10" class="edge"><title>dir_084664a96088d7f348dd8efd8d40f0fa&#45;&gt;dir_c85d3e3c5052e9ad9ce18c6863244a25</title>
<path fill="none" stroke="black" d="M1428.22,-71.8925C1422.41,-66.4551 1415.68,-60.6516 1409,-56 1397.99,-48.3316 1385.18,-41.2366 1373.44,-35.354"/>
<polygon fill="black" stroke="black" points="1374.83,-32.1398 1364.31,-30.9083 1371.77,-38.4333 1374.83,-32.1398"/>
<g id="a_edge10&#45;headlabel"><a xlink:href="dir_000051_000001.html" target="_top" xlink:title="5">
<text text-anchor="middle" x="1379.31" y="-28.6609" font-family="Helvetica,sans-Serif" font-size="10.00">5</text>
</a>
</g>
</g>
<!-- dir_adb2f06b3e3e627e3814c31a0459df7c -->
<g id="node16" class="node"><title>dir_adb2f06b3e3e627e3814c31a0459df7c</title>
<g id="a_node16"><a xlink:href="dir_adb2f06b3e3e627e3814c31a0459df7c.html" target="_top" xlink:title="dfocc">
<polygon fill="white" stroke="black" points="1400,-108 1346,-108 1346,-72 1400,-72 1400,-108"/>
<text text-anchor="middle" x="1373" y="-87.5" font-family="Helvetica,sans-Serif" font-size="10.00">dfocc</text>
</a>
</g>
</g>
<!-- dir_adb2f06b3e3e627e3814c31a0459df7c&#45;&gt;dir_c85d3e3c5052e9ad9ce18c6863244a25 -->
<g id="edge17" class="edge"><title>dir_adb2f06b3e3e627e3814c31a0459df7c&#45;&gt;dir_c85d3e3c5052e9ad9ce18c6863244a25</title>
<path fill="none" stroke="black" d="M1364.1,-71.6966C1360,-63.7284 1355.05,-54.0995 1350.51,-45.2641"/>
<polygon fill="black" stroke="black" points="1353.48,-43.3965 1345.8,-36.1043 1347.26,-46.598 1353.48,-43.3965"/>
<g id="a_edge17&#45;headlabel"><a xlink:href="dir_000024_000001.html" target="_top" xlink:title="41">
<text text-anchor="middle" x="1357.65" y="-42.7946" font-family="Helvetica,sans-Serif" font-size="10.00">41</text>
</a>
</g>
</g>
<!-- dir_6ba6faff65171f0cb3b84943f0e959a9 -->
<g id="node17" class="node"><title>dir_6ba6faff65171f0cb3b84943f0e959a9</title>
<g id="a_node17"><a xlink:href="dir_6ba6faff65171f0cb3b84943f0e959a9.html" target="_top" xlink:title="dftsapt">
<polygon fill="white" stroke="black" points="1328,-108 1274,-108 1274,-72 1328,-72 1328,-108"/>
<text text-anchor="middle" x="1301" y="-87.5" font-family="Helvetica,sans-Serif" font-size="10.00">dftsapt</text>
</a>
</g>
</g>
<!-- dir_6ba6faff65171f0cb3b84943f0e959a9&#45;&gt;dir_c85d3e3c5052e9ad9ce18c6863244a25 -->
<g id="edge13" class="edge"><title>dir_6ba6faff65171f0cb3b84943f0e959a9&#45;&gt;dir_c85d3e3c5052e9ad9ce18c6863244a25</title>
<path fill="none" stroke="black" d="M1309.9,-71.6966C1314,-63.7284 1318.95,-54.0995 1323.49,-45.2641"/>
<polygon fill="black" stroke="black" points="1326.74,-46.598 1328.2,-36.1043 1320.52,-43.3965 1326.74,-46.598"/>
<g id="a_edge13&#45;headlabel"><a xlink:href="dir_000027_000001.html" target="_top" xlink:title="6">
<text text-anchor="middle" x="1327.62" y="-48.5931" font-family="Helvetica,sans-Serif" font-size="10.00">6</text>
</a>
</g>
</g>
<!-- dir_33590672ae6336431f585193807847e6 -->
<g id="node18" class="node"><title>dir_33590672ae6336431f585193807847e6</title>
<g id="a_node18"><a xlink:href="dir_33590672ae6336431f585193807847e6.html" target="_top" xlink:title="findif">
<polygon fill="white" stroke="red" points="1256,-108 1202,-108 1202,-72 1256,-72 1256,-108"/>
<text text-anchor="middle" x="1229" y="-87.5" font-family="Helvetica,sans-Serif" font-size="10.00">findif</text>
</a>
</g>
</g>
<!-- dir_33590672ae6336431f585193807847e6&#45;&gt;dir_c85d3e3c5052e9ad9ce18c6863244a25 -->
<g id="edge8" class="edge"><title>dir_33590672ae6336431f585193807847e6&#45;&gt;dir_c85d3e3c5052e9ad9ce18c6863244a25</title>
<path fill="none" stroke="black" d="M1245.78,-71.8925C1251.59,-66.4551 1258.32,-60.6516 1265,-56 1276.01,-48.3316 1288.82,-41.2366 1300.56,-35.354"/>
<polygon fill="black" stroke="black" points="1302.23,-38.4333 1309.69,-30.9083 1299.17,-32.1398 1302.23,-38.4333"/>
<g id="a_edge8&#45;headlabel"><a xlink:href="dir_000060_000001.html" target="_top" xlink:title="1">
<text text-anchor="middle" x="1300.24" y="-40.0597" font-family="Helvetica,sans-Serif" font-size="10.00">1</text>
</a>
</g>
</g>
<!-- dir_1fde06fc6146b4e0e52e6821075660ea -->
<g id="node19" class="node"><title>dir_1fde06fc6146b4e0e52e6821075660ea</title>
<g id="a_node19"><a xlink:href="dir_1fde06fc6146b4e0e52e6821075660ea.html" target="_top" xlink:title="fnocc">
<polygon fill="white" stroke="black" points="1184,-108 1130,-108 1130,-72 1184,-72 1184,-108"/>
<text text-anchor="middle" x="1157" y="-87.5" font-family="Helvetica,sans-Serif" font-size="10.00">fnocc</text>
</a>
</g>
</g>
<!-- dir_1fde06fc6146b4e0e52e6821075660ea&#45;&gt;dir_c85d3e3c5052e9ad9ce18c6863244a25 -->
<g id="edge14" class="edge"><title>dir_1fde06fc6146b4e0e52e6821075660ea&#45;&gt;dir_c85d3e3c5052e9ad9ce18c6863244a25</title>
<path fill="none" stroke="black" d="M1172.51,-71.6734C1178.42,-65.9597 1185.55,-60.0404 1193,-56 1226.6,-37.7894 1269.49,-28.2672 1299.7,-23.4746"/>
<polygon fill="black" stroke="black" points="1300.44,-26.9029 1309.82,-21.9702 1299.41,-19.979 1300.44,-26.9029"/>
<g id="a_edge14&#45;headlabel"><a xlink:href="dir_000033_000001.html" target="_top" xlink:title="13">
<text text-anchor="middle" x="1297.3" y="-27.7398" font-family="Helvetica,sans-Serif" font-size="10.00">13</text>
</a>
</g>
</g>
<!-- dir_676850bc84e69ce53ac33780e17096c4 -->
<g id="node20" class="node"><title>dir_676850bc84e69ce53ac33780e17096c4</title>
<g id="a_node20"><a xlink:href="dir_676850bc84e69ce53ac33780e17096c4.html" target="_top" xlink:title="lmp2">
<polygon fill="white" stroke="black" points="1112,-108 1058,-108 1058,-72 1112,-72 1112,-108"/>
<text text-anchor="middle" x="1085" y="-87.5" font-family="Helvetica,sans-Serif" font-size="10.00">lmp2</text>
</a>
</g>
</g>
<!-- dir_676850bc84e69ce53ac33780e17096c4&#45;&gt;dir_c85d3e3c5052e9ad9ce18c6863244a25 -->
<g id="edge25" class="edge"><title>dir_676850bc84e69ce53ac33780e17096c4&#45;&gt;dir_c85d3e3c5052e9ad9ce18c6863244a25</title>
<path fill="none" stroke="black" d="M1099.98,-71.6745C1105.94,-65.8188 1113.23,-59.8067 1121,-56 1179.03,-27.5498 1255.16,-20.5652 1299.82,-19.0855"/>
<polygon fill="black" stroke="black" points="1300.02,-22.5817 1309.92,-18.8276 1299.84,-15.5839 1300.02,-22.5817"/>
<g id="a_edge25&#45;headlabel"><a xlink:href="dir_000072_000001.html" target="_top" xlink:title="1">
<text text-anchor="middle" x="1296.5" y="-23.0116" font-family="Helvetica,sans-Serif" font-size="10.00">1</text>
</a>
</g>
</g>
<!-- dir_b99270b47ed9cddd6f8d0bb09c98f619 -->
<g id="node21" class="node"><title>dir_b99270b47ed9cddd6f8d0bb09c98f619</title>
<g id="a_node21"><a xlink:href="dir_b99270b47ed9cddd6f8d0bb09c98f619.html" target="_top" xlink:title="mcscf">
<polygon fill="white" stroke="black" points="1040,-108 986,-108 986,-72 1040,-72 1040,-108"/>
<text text-anchor="middle" x="1013" y="-87.5" font-family="Helvetica,sans-Serif" font-size="10.00">mcscf</text>
</a>
</g>
</g>
<!-- dir_b99270b47ed9cddd6f8d0bb09c98f619&#45;&gt;dir_c85d3e3c5052e9ad9ce18c6863244a25 -->
<g id="edge2" class="edge"><title>dir_b99270b47ed9cddd6f8d0bb09c98f619&#45;&gt;dir_c85d3e3c5052e9ad9ce18c6863244a25</title>
<path fill="none" stroke="black" d="M1027.55,-71.8425C1033.56,-65.8576 1041,-59.7147 1049,-56 1092.72,-35.69 1231.88,-25.0748 1299.46,-21.005"/>
<polygon fill="black" stroke="black" points="1299.88,-24.4861 1309.66,-20.4076 1299.47,-17.498 1299.88,-24.4861"/>
<g id="a_edge2&#45;headlabel"><a xlink:href="dir_000011_000001.html" target="_top" xlink:title="2">
<text text-anchor="middle" x="1296.46" y="-25.0305" font-family="Helvetica,sans-Serif" font-size="10.00">2</text>
</a>
</g>
</g>
<!-- dir_68846de65c4b1591ce5a1262bbdafe36 -->
<g id="node22" class="node"><title>dir_68846de65c4b1591ce5a1262bbdafe36</title>
<g id="a_node22"><a xlink:href="dir_68846de65c4b1591ce5a1262bbdafe36.html" target="_top" xlink:title="mints_wrapper">
<polygon fill="white" stroke="black" points="968,-108 888,-108 888,-72 968,-72 968,-108"/>
<text text-anchor="middle" x="928" y="-87.5" font-family="Helvetica,sans-Serif" font-size="10.00">mints_wrapper</text>
</a>
</g>
</g>
<!-- dir_cb50ae607b66923cf630d4fdffe522b2 -->
<g id="node23" class="node"><title>dir_cb50ae607b66923cf630d4fdffe522b2</title>
<g id="a_node23"><a xlink:href="dir_cb50ae607b66923cf630d4fdffe522b2.html" target="_top" xlink:title="mrcc">
<polygon fill="white" stroke="black" points="870,-108 816,-108 816,-72 870,-72 870,-108"/>
<text text-anchor="middle" x="843" y="-87.5" font-family="Helvetica,sans-Serif" font-size="10.00">mrcc</text>
</a>
</g>
</g>
<!-- dir_cb50ae607b66923cf630d4fdffe522b2&#45;&gt;dir_c85d3e3c5052e9ad9ce18c6863244a25 -->
<g id="edge7" class="edge"><title>dir_cb50ae607b66923cf630d4fdffe522b2&#45;&gt;dir_c85d3e3c5052e9ad9ce18c6863244a25</title>
<path fill="none" stroke="black" d="M857.11,-71.9886C863.174,-65.8683 870.762,-59.5929 879,-56 954.236,-23.1856 1204.46,-19.2185 1299.73,-18.9247"/>
<polygon fill="black" stroke="black" points="1299.78,-22.4247 1309.78,-18.9058 1299.77,-15.4247 1299.78,-22.4247"/>
<g id="a_edge7&#45;headlabel"><a xlink:href="dir_000078_000001.html" target="_top" xlink:title="2">
<text text-anchor="middle" x="1296.19" y="-22.7706" font-family="Helvetica,sans-Serif" font-size="10.00">2</text>
</a>
</g>
</g>
<!-- dir_ca094cf8cca7738f6a1ab9810e09fa16 -->
<g id="node24" class="node"><title>dir_ca094cf8cca7738f6a1ab9810e09fa16</title>
<g id="a_node24"><a xlink:href="dir_ca094cf8cca7738f6a1ab9810e09fa16.html" target="_top" xlink:title="occ">
<polygon fill="white" stroke="black" points="798,-108 744,-108 744,-72 798,-72 798,-108"/>
<text text-anchor="middle" x="771" y="-87.5" font-family="Helvetica,sans-Serif" font-size="10.00">occ</text>
</a>
</g>
</g>
<!-- dir_ca094cf8cca7738f6a1ab9810e09fa16&#45;&gt;dir_c85d3e3c5052e9ad9ce18c6863244a25 -->
<g id="edge23" class="edge"><title>dir_ca094cf8cca7738f6a1ab9810e09fa16&#45;&gt;dir_c85d3e3c5052e9ad9ce18c6863244a25</title>
<path fill="none" stroke="black" d="M785.09,-71.9423C791.151,-65.8155 798.743,-59.5479 807,-56 895.794,-17.8475 1194.35,-17.3638 1299.76,-18.4442"/>
<polygon fill="black" stroke="black" points="1299.88,-21.9457 1309.92,-18.5596 1299.96,-14.9462 1299.88,-21.9457"/>
<g id="a_edge23&#45;headlabel"><a xlink:href="dir_000026_000001.html" target="_top" xlink:title="24">
<text text-anchor="middle" x="1296.26" y="-22.2441" font-family="Helvetica,sans-Serif" font-size="10.00">24</text>
</a>
</g>
</g>
<!-- dir_a867fa757b9c933048513df5c55e33f0 -->
<g id="node25" class="node"><title>dir_a867fa757b9c933048513df5c55e33f0</title>
<g id="a_node25"><a xlink:href="dir_a867fa757b9c933048513df5c55e33f0.html" target="_top" xlink:title="optking">
<polygon fill="white" stroke="black" points="726,-108 672,-108 672,-72 726,-72 726,-108"/>
<text text-anchor="middle" x="699" y="-87.5" font-family="Helvetica,sans-Serif" font-size="10.00">optking</text>
</a>
</g>
</g>
<!-- dir_e67db0fc1bd7e92c0d40c4c811620b40 -->
<g id="node26" class="node"><title>dir_e67db0fc1bd7e92c0d40c4c811620b40</title>
<g id="a_node26"><a xlink:href="dir_e67db0fc1bd7e92c0d40c4c811620b40.html" target="_top" xlink:title="psi4">
<polygon fill="white" stroke="black" points="654,-108 600,-108 600,-72 654,-72 654,-108"/>
<text text-anchor="middle" x="627" y="-87.5" font-family="Helvetica,sans-Serif" font-size="10.00">psi4</text>
</a>
</g>
</g>
<!-- dir_e67db0fc1bd7e92c0d40c4c811620b40&#45;&gt;dir_c85d3e3c5052e9ad9ce18c6863244a25 -->
<g id="edge5" class="edge"><title>dir_e67db0fc1bd7e92c0d40c4c811620b40&#45;&gt;dir_c85d3e3c5052e9ad9ce18c6863244a25</title>
<path fill="none" stroke="black" d="M641.063,-71.879C647.121,-65.7435 654.717,-59.4865 663,-56 721.695,-31.2952 1166.62,-21.8685 1299.59,-19.5858"/>
<polygon fill="black" stroke="black" points="1299.75,-23.0836 1309.69,-19.4159 1299.63,-16.0846 1299.75,-23.0836"/>
<g id="a_edge5&#45;headlabel"><a xlink:href="dir_000049_000001.html" target="_top" xlink:title="1">
<text text-anchor="middle" x="1296.2" y="-23.4829" font-family="Helvetica,sans-Serif" font-size="10.00">1</text>
</a>
</g>
</g>
<!-- dir_3ce5c0923c0947d2db26ff6f0f1dc3c3 -->
<g id="node27" class="node"><title>dir_3ce5c0923c0947d2db26ff6f0f1dc3c3</title>
<g id="a_node27"><a xlink:href="dir_3ce5c0923c0947d2db26ff6f0f1dc3c3.html" target="_top" xlink:title="psimrcc">
<polygon fill="white" stroke="black" points="582,-108 528,-108 528,-72 582,-72 582,-108"/>
<text text-anchor="middle" x="555" y="-87.5" font-family="Helvetica,sans-Serif" font-size="10.00">psimrcc</text>
</a>
</g>
</g>
<!-- dir_3ce5c0923c0947d2db26ff6f0f1dc3c3&#45;&gt;dir_c85d3e3c5052e9ad9ce18c6863244a25 -->
<g id="edge30" class="edge"><title>dir_3ce5c0923c0947d2db26ff6f0f1dc3c3&#45;&gt;dir_c85d3e3c5052e9ad9ce18c6863244a25</title>
<path fill="none" stroke="black" d="M569.054,-71.8564C575.11,-65.7179 582.707,-59.4646 591,-56 656.594,-28.595 1157.19,-20.9911 1299.42,-19.3737"/>
<polygon fill="black" stroke="black" points="1299.83,-22.8695 1309.79,-19.2593 1299.75,-15.8699 1299.83,-22.8695"/>
<g id="a_edge30&#45;headlabel"><a xlink:href="dir_000012_000001.html" target="_top" xlink:title="10">
<text text-anchor="middle" x="1296.27" y="-23.2482" font-family="Helvetica,sans-Serif" font-size="10.00">10</text>
</a>
</g>
</g>
<!-- dir_8d178b4dc19ed30b40ba6514123944f2 -->
<g id="node28" class="node"><title>dir_8d178b4dc19ed30b40ba6514123944f2</title>
<g id="a_node28"><a xlink:href="dir_8d178b4dc19ed30b40ba6514123944f2.html" target="_top" xlink:title="sapt">
<polygon fill="white" stroke="black" points="510,-108 456,-108 456,-72 510,-72 510,-108"/>
<text text-anchor="middle" x="483" y="-87.5" font-family="Helvetica,sans-Serif" font-size="10.00">sapt</text>
</a>
</g>
</g>
<!-- dir_8d178b4dc19ed30b40ba6514123944f2&#45;&gt;dir_c85d3e3c5052e9ad9ce18c6863244a25 -->
<g id="edge18" class="edge"><title>dir_8d178b4dc19ed30b40ba6514123944f2&#45;&gt;dir_c85d3e3c5052e9ad9ce18c6863244a25</title>
<path fill="none" stroke="black" d="M497.046,-71.8378C503.101,-65.6967 510.7,-59.4465 519,-56 591.601,-25.8533 1149.42,-20.1797 1299.77,-19.1941"/>
<polygon fill="black" stroke="black" points="1299.9,-22.6934 1309.88,-19.131 1299.86,-15.6936 1299.9,-22.6934"/>
<g id="a_edge18&#45;headlabel"><a xlink:href="dir_000081_000001.html" target="_top" xlink:title="1">
<text text-anchor="middle" x="1296.32" y="-23.055" font-family="Helvetica,sans-Serif" font-size="10.00">1</text>
</a>
</g>
</g>
<!-- dir_f44a829c93f18f8daed8daf478f5d3b1 -->
<g id="node29" class="node"><title>dir_f44a829c93f18f8daed8daf478f5d3b1</title>
<g id="a_node29"><a xlink:href="dir_f44a829c93f18f8daed8daf478f5d3b1.html" target="_top" xlink:title="scf">
<polygon fill="white" stroke="black" points="438,-108 384,-108 384,-72 438,-72 438,-108"/>
<text text-anchor="middle" x="411" y="-87.5" font-family="Helvetica,sans-Serif" font-size="10.00">scf</text>
</a>
</g>
</g>
<!-- dir_f44a829c93f18f8daed8daf478f5d3b1&#45;&gt;dir_c85d3e3c5052e9ad9ce18c6863244a25 -->
<g id="edge24" class="edge"><title>dir_f44a829c93f18f8daed8daf478f5d3b1&#45;&gt;dir_c85d3e3c5052e9ad9ce18c6863244a25</title>
<path fill="none" stroke="black" d="M425.04,-71.8222C431.094,-65.6789 438.694,-59.4314 447,-56 526.554,-23.1363 1140.86,-19.4497 1299.64,-19.047"/>
<polygon fill="black" stroke="black" points="1299.86,-22.5466 1309.85,-19.0241 1299.84,-15.5466 1299.86,-22.5466"/>
<g id="a_edge24&#45;headlabel"><a xlink:href="dir_000075_000001.html" target="_top" xlink:title="1">
<text text-anchor="middle" x="1296.27" y="-22.8938" font-family="Helvetica,sans-Serif" font-size="10.00">1</text>
</a>
</g>
</g>
<!-- dir_c44f072fe5819ee5f609ae866c340ce8 -->
<g id="node30" class="node"><title>dir_c44f072fe5819ee5f609ae866c340ce8</title>
<g id="a_node30"><a xlink:href="dir_c44f072fe5819ee5f609ae866c340ce8.html" target="_top" xlink:title="scfgrad">
<polygon fill="white" stroke="black" points="366,-108 312,-108 312,-72 366,-72 366,-108"/>
<text text-anchor="middle" x="339" y="-87.5" font-family="Helvetica,sans-Serif" font-size="10.00">scfgrad</text>
</a>
</g>
</g>
<!-- dir_c44f072fe5819ee5f609ae866c340ce8&#45;&gt;dir_c85d3e3c5052e9ad9ce18c6863244a25 -->
<g id="edge4" class="edge"><title>dir_c44f072fe5819ee5f609ae866c340ce8&#45;&gt;dir_c85d3e3c5052e9ad9ce18c6863244a25</title>
<path fill="none" stroke="black" d="M353.034,-71.8089C359.088,-65.6638 366.688,-59.4185 375,-56 461.498,-20.4248 1132.19,-18.7739 1299.35,-18.9207"/>
<polygon fill="black" stroke="black" points="1299.62,-22.4209 1309.63,-18.9326 1299.63,-15.4209 1299.62,-22.4209"/>
<g id="a_edge4&#45;headlabel"><a xlink:href="dir_000068_000001.html" target="_top" xlink:title="3">
<text text-anchor="middle" x="1296.02" y="-22.7561" font-family="Helvetica,sans-Serif" font-size="10.00">3</text>
</a>
</g>
</g>
<!-- dir_cb1892f00b61c846e29e84da5fcaec54 -->
<g id="node31" class="node"><title>dir_cb1892f00b61c846e29e84da5fcaec54</title>
<g id="a_node31"><a xlink:href="dir_cb1892f00b61c846e29e84da5fcaec54.html" target="_top" xlink:title="stable">
<polygon fill="white" stroke="black" points="294,-108 240,-108 240,-72 294,-72 294,-108"/>
<text text-anchor="middle" x="267" y="-87.5" font-family="Helvetica,sans-Serif" font-size="10.00">stable</text>
</a>
</g>
</g>
<!-- dir_cb1892f00b61c846e29e84da5fcaec54&#45;&gt;dir_c85d3e3c5052e9ad9ce18c6863244a25 -->
<g id="edge3" class="edge"><title>dir_cb1892f00b61c846e29e84da5fcaec54&#45;&gt;dir_c85d3e3c5052e9ad9ce18c6863244a25</title>
<path fill="none" stroke="black" d="M281.029,-71.7975C287.082,-65.6508 294.684,-59.4074 303,-56 396.565,-17.6647 1125.42,-18.1413 1299.67,-18.8125"/>
<polygon fill="black" stroke="black" points="1299.86,-22.3132 1309.88,-18.8546 1299.89,-15.3133 1299.86,-22.3132"/>
<g id="a_edge3&#45;headlabel"><a xlink:href="dir_000037_000001.html" target="_top" xlink:title="13">
<text text-anchor="middle" x="1296.26" y="-22.6377" font-family="Helvetica,sans-Serif" font-size="10.00">13</text>
</a>
</g>
</g>
<!-- dir_1cf59c77585e60762304be612c87f12a -->
<g id="node32" class="node"><title>dir_1cf59c77585e60762304be612c87f12a</title>
<g id="a_node32"><a xlink:href="dir_1cf59c77585e60762304be612c87f12a.html" target="_top" xlink:title="thermo">
<polygon fill="white" stroke="black" points="222,-108 168,-108 168,-72 222,-72 222,-108"/>
<text text-anchor="middle" x="195" y="-87.5" font-family="Helvetica,sans-Serif" font-size="10.00">thermo</text>
</a>
</g>
</g>
<!-- dir_3304c856a1232bb5b33adc58da800fe7 -->
<g id="node33" class="node"><title>dir_3304c856a1232bb5b33adc58da800fe7</title>
<g id="a_node33"><a xlink:href="dir_3304c856a1232bb5b33adc58da800fe7.html" target="_top" xlink:title="transqt">
<polygon fill="white" stroke="black" points="150,-108 96,-108 96,-72 150,-72 150,-108"/>
<text text-anchor="middle" x="123" y="-87.5" font-family="Helvetica,sans-Serif" font-size="10.00">transqt</text>
</a>
</g>
</g>
<!-- dir_3304c856a1232bb5b33adc58da800fe7&#45;&gt;dir_c85d3e3c5052e9ad9ce18c6863244a25 -->
<g id="edge11" class="edge"><title>dir_3304c856a1232bb5b33adc58da800fe7&#45;&gt;dir_c85d3e3c5052e9ad9ce18c6863244a25</title>
<path fill="none" stroke="black" d="M137.022,-71.7787C143.074,-65.6295 150.676,-59.3892 159,-56 213.023,-34.0036 1105.64,-21.8348 1299.88,-19.4401"/>
<polygon fill="black" stroke="black" points="1299.93,-22.9399 1309.88,-19.3179 1299.84,-15.9404 1299.93,-22.9399"/>
<g id="a_edge11&#45;headlabel"><a xlink:href="dir_000031_000001.html" target="_top" xlink:title="10">
<text text-anchor="middle" x="1296.37" y="-23.3228" font-family="Helvetica,sans-Serif" font-size="10.00">10</text>
</a>
</g>
</g>
<!-- dir_937a185f2de0af9443a05c6443452058 -->
<g id="node34" class="node"><title>dir_937a185f2de0af9443a05c6443452058</title>
<g id="a_node34"><a xlink:href="dir_937a185f2de0af9443a05c6443452058.html" target="_top" xlink:title="transqt2">
<polygon fill="white" stroke="black" points="78,-108 24,-108 24,-72 78,-72 78,-108"/>
<text text-anchor="middle" x="51" y="-87.5" font-family="Helvetica,sans-Serif" font-size="10.00">transqt2</text>
</a>
</g>
</g>
<!-- dir_937a185f2de0af9443a05c6443452058&#45;&gt;dir_c85d3e3c5052e9ad9ce18c6863244a25 -->
<g id="edge20" class="edge"><title>dir_937a185f2de0af9443a05c6443452058&#45;&gt;dir_c85d3e3c5052e9ad9ce18c6863244a25</title>
<path fill="none" stroke="black" d="M65.0186,-71.771C71.0699,-65.6207 78.6732,-59.3817 87,-56 144.556,-32.6254 1098.58,-21.4698 1299.89,-19.3702"/>
<polygon fill="black" stroke="black" points="1300,-22.8693 1309.96,-19.2662 1299.93,-15.8697 1300,-22.8693"/>
<g id="a_edge20&#45;headlabel"><a xlink:href="dir_000042_000001.html" target="_top" xlink:title="11">
<text text-anchor="middle" x="1296.43" y="-23.2455" font-family="Helvetica,sans-Serif" font-size="10.00">11</text>
</a>
</g>
</g>
</g>
</svg>
        <g id="navigator" transform="translate(0 0)" fill="#404254">
                <rect fill="#f2f5e9" fill-opacity="0.5" stroke="#606060" stroke-width=".5" x="0" y="0" width="60" height="60"/>
                <use id="zoomplus" xlink:href="#zoomPlus" x="17" y="9" onmousedown="handleZoom(evt,'in')"/>
                <use id="zoomminus" xlink:href="#zoomMin" x="42" y="9" onmousedown="handleZoom(evt,'out')"/>
                <use id="reset" xlink:href="#resetDef" x="30" y="36" onmousedown="handleReset()"/>
                <g id="arrowUp" xlink:href="#dirArrow" transform="translate(30 24)" onmousedown="handlePan(0,-1)">
                  <use xlink:href="#rim" fill="#404040">
                        <set attributeName="fill" to="#808080" begin="arrowUp.mouseover" end="arrowUp.mouseout"/>
                  </use>
                  <path fill="none" stroke="white" stroke-width="1.5" d="M0,-3.0v7 M-2.5,-0.5L0,-3.0L2.5,-0.5"/>
                </g>
                <g id="arrowRight" xlink:href="#dirArrow" transform="rotate(90) translate(36 -43)" onmousedown="handlePan(1,0)">
                  <use xlink:href="#rim" fill="#404040">
                        <set attributeName="fill" to="#808080" begin="arrowRight.mouseover" end="arrowRight.mouseout"/>
                  </use>
                  <path fill="none" stroke="white" stroke-width="1.5" d="M0,-3.0v7 M-2.5,-0.5L0,-3.0L2.5,-0.5"/>
                </g>
                <g id="arrowDown" xlink:href="#dirArrow" transform="rotate(180) translate(-30 -48)" onmousedown="handlePan(0,1)">
                  <use xlink:href="#rim" fill="#404040">
                        <set attributeName="fill" to="#808080" begin="arrowDown.mouseover" end="arrowDown.mouseout"/>
                  </use>
                  <path fill="none" stroke="white" stroke-width="1.5" d="M0,-3.0v7 M-2.5,-0.5L0,-3.0L2.5,-0.5"/>
                </g>
                <g id="arrowLeft" xlink:href="#dirArrow" transform="rotate(270) translate(-36 17)" onmousedown="handlePan(-1,0)">
                  <use xlink:href="#rim" fill="#404040">
                        <set attributeName="fill" to="#808080" begin="arrowLeft.mouseover" end="arrowLeft.mouseout"/>
                  </use>
                  <path fill="none" stroke="white" stroke-width="1.5" d="M0,-3.0v7 M-2.5,-0.5L0,-3.0L2.5,-0.5"/>
                </g>
        </g>
        <svg viewBox="0 0 15 15" width="100%" height="30px" preserveAspectRatio="xMaxYMin meet">
         <g id="arrow_out" transform="scale(0.3 0.3)">
          <a xlink:href="dir_031c4fc26031de218e3c67acfca35073_dep_org.svg" target="_base">
           <rect id="button" ry="5" rx="5" y="6" x="6" height="38" width="38"
                fill="#f2f5e9" fill-opacity="0.5" stroke="#606060" stroke-width="1.0"/>
           <path id="arrow"
             d="M 11.500037,31.436501 C 11.940474,20.09759 22.043105,11.32322 32.158766,21.979434 L 37.068811,17.246167 C 37.068811,17.246167 37.088388,32 37.088388,32 L 22.160133,31.978069 C 22.160133,31.978069 26.997745,27.140456 26.997745,27.140456 C 18.528582,18.264221 13.291696,25.230495 11.500037,31.436501 z"
             style="fill:#404040;"/>
          </a>
         </g>
        </svg>
</svg>
