<?xml version="1.0" encoding="UTF-8" standalone="no"?>
<!DOCTYPE svg PUBLIC "-//W3C//DTD SVG 1.1//EN"
 "http://www.w3.org/Graphics/SVG/1.1/DTD/svg11.dtd">
<!-- Generated by graphviz version 2.30.1 (20140110.0959)
 -->
<!-- Title: dist_container.h Pages: 1 -->
<svg width="915pt" height="140pt"
 viewBox="0.00 0.00 915.00 140.00" xmlns="http://www.w3.org/2000/svg" xmlns:xlink="http://www.w3.org/1999/xlink">
<g id="graph0" class="graph" transform="scale(1 1) rotate(0) translate(4 136)">
<title>dist_container.h</title>
<!-- Node1 -->
<g id="node1" class="node"><title>Node1</title>
<polygon fill="#bfbfbf" stroke="black" points="152,-112.5 152,-131.5 238,-131.5 238,-112.5 152,-112.5"/>
<text text-anchor="middle" x="195" y="-119.5" font-family="Helvetica,sans-Serif" font-size="10.00">dist_container.h</text>
</g>
<!-- Node2 -->
<g id="node2" class="node"><title>Node2</title>
<g id="a_node2"><a xlink:href="dist__container_8cc.html" target="_top" xlink:title="dist_container.cc">
<polygon fill="none" stroke="black" points="75.5,-56.5 75.5,-75.5 166.5,-75.5 166.5,-56.5 75.5,-56.5"/>
<text text-anchor="middle" x="121" y="-63.5" font-family="Helvetica,sans-Serif" font-size="10.00">dist_container.cc</text>
</a>
</g>
</g>
<!-- Node1&#45;&gt;Node2 -->
<g id="edge1" class="edge"><title>Node1&#45;&gt;Node2</title>
<path fill="none" stroke="midnightblue" d="M174.966,-106.38C161.591,-96.6204 144.441,-84.1057 133.106,-75.8339"/>
<polygon fill="midnightblue" stroke="midnightblue" points="172.97,-109.257 183.111,-112.324 177.096,-103.602 172.97,-109.257"/>
</g>
<!-- Node3 -->
<g id="node3" class="node"><title>Node3</title>
<g id="a_node3"><a xlink:href="lib_2attic_2liblmp2__solver_2lmp2_8cc.html" target="_top" xlink:title="lmp2.cc">
<polygon fill="none" stroke="black" points="-0.5,-0.5 -0.5,-19.5 50.5,-19.5 50.5,-0.5 -0.5,-0.5"/>
<text text-anchor="middle" x="25" y="-7.5" font-family="Helvetica,sans-Serif" font-size="10.00">lmp2.cc</text>
</a>
</g>
</g>
<!-- Node1&#45;&gt;Node3 -->
<g id="edge2" class="edge"><title>Node1&#45;&gt;Node3</title>
<path fill="none" stroke="midnightblue" d="M193.839,-101.796C191.963,-87.3636 187.164,-68.0785 175,-56 170.478,-51.51 92.1139,-29.4573 50.5005,-17.9771"/>
<polygon fill="midnightblue" stroke="midnightblue" points="190.387,-102.469 194.802,-112.1 197.357,-101.818 190.387,-102.469"/>
</g>
<!-- Node4 -->
<g id="node4" class="node"><title>Node4</title>
<g id="a_node4"><a xlink:href="lmp2_8h.html" target="_top" xlink:title="Enter brief description of file here.">
<polygon fill="none" stroke="black" points="393,-56.5 393,-75.5 439,-75.5 439,-56.5 393,-56.5"/>
<text text-anchor="middle" x="416" y="-63.5" font-family="Helvetica,sans-Serif" font-size="10.00">lmp2.h</text>
</a>
</g>
</g>
<!-- Node1&#45;&gt;Node4 -->
<g id="edge3" class="edge"><title>Node1&#45;&gt;Node4</title>
<path fill="none" stroke="midnightblue" d="M239.816,-110.049C286.213,-98.7126 356.862,-81.4499 392.982,-72.6243"/>
<polygon fill="midnightblue" stroke="midnightblue" points="238.902,-106.67 230.018,-112.444 240.563,-113.47 238.902,-106.67"/>
</g>
<!-- Node5 -->
<g id="node5" class="node"><title>Node5</title>
<g id="a_node5"><a xlink:href="check__convergence_8cc.html" target="_top" xlink:title="check_convergence.cc">
<polygon fill="none" stroke="black" points="68.5,-0.5 68.5,-19.5 185.5,-19.5 185.5,-0.5 68.5,-0.5"/>
<text text-anchor="middle" x="127" y="-7.5" font-family="Helvetica,sans-Serif" font-size="10.00">check_convergence.cc</text>
</a>
</g>
</g>
<!-- Node4&#45;&gt;Node5 -->
<g id="edge4" class="edge"><title>Node4&#45;&gt;Node5</title>
<path fill="none" stroke="midnightblue" d="M382.872,-58.8101C331.185,-49.1523 231.228,-30.4752 172.718,-19.5425"/>
<polygon fill="midnightblue" stroke="midnightblue" points="382.366,-62.2759 392.838,-60.6722 383.651,-55.395 382.366,-62.2759"/>
</g>
<!-- Node6 -->
<g id="node6" class="node"><title>Node6</title>
<g id="a_node6"><a xlink:href="lib_2attic_2liblmp2__solver_2diis_8cc.html" target="_top" xlink:title="diis.cc">
<polygon fill="none" stroke="black" points="203.5,-0.5 203.5,-19.5 248.5,-19.5 248.5,-0.5 203.5,-0.5"/>
<text text-anchor="middle" x="226" y="-7.5" font-family="Helvetica,sans-Serif" font-size="10.00">diis.cc</text>
</a>
</g>
</g>
<!-- Node4&#45;&gt;Node6 -->
<g id="edge5" class="edge"><title>Node4&#45;&gt;Node6</title>
<path fill="none" stroke="midnightblue" d="M383.002,-55.6215C344.522,-44.6851 281.945,-26.9003 248.6,-17.4233"/>
<polygon fill="midnightblue" stroke="midnightblue" points="382.126,-59.0113 392.702,-58.3785 384.04,-52.278 382.126,-59.0113"/>
</g>
<!-- Node7 -->
<g id="node7" class="node"><title>Node7</title>
<g id="a_node7"><a xlink:href="direct__int__transf_8cc.html" target="_top" xlink:title="direct_int_transf.cc">
<polygon fill="none" stroke="black" points="267,-0.5 267,-19.5 367,-19.5 367,-0.5 267,-0.5"/>
<text text-anchor="middle" x="317" y="-7.5" font-family="Helvetica,sans-Serif" font-size="10.00">direct_int_transf.cc</text>
</a>
</g>
</g>
<!-- Node4&#45;&gt;Node7 -->
<g id="edge6" class="edge"><title>Node4&#45;&gt;Node7</title>
<path fill="none" stroke="midnightblue" d="M391.163,-51.4526C372.886,-41.4835 348.584,-28.2279 332.867,-19.6545"/>
<polygon fill="midnightblue" stroke="midnightblue" points="389.639,-54.608 400.094,-56.324 392.991,-48.4628 389.639,-54.608"/>
</g>
<!-- Node8 -->
<g id="node8" class="node"><title>Node8</title>
<g id="a_node8"><a xlink:href="domain_8cc.html" target="_top" xlink:title="domain.cc">
<polygon fill="none" stroke="black" points="385,-0.5 385,-19.5 447,-19.5 447,-0.5 385,-0.5"/>
<text text-anchor="middle" x="416" y="-7.5" font-family="Helvetica,sans-Serif" font-size="10.00">domain.cc</text>
</a>
</g>
</g>
<!-- Node4&#45;&gt;Node8 -->
<g id="edge7" class="edge"><title>Node4&#45;&gt;Node8</title>
<path fill="none" stroke="midnightblue" d="M416,-45.8045C416,-36.9102 416,-26.7798 416,-19.7511"/>
<polygon fill="midnightblue" stroke="midnightblue" points="412.5,-46.083 416,-56.083 419.5,-46.083 412.5,-46.083"/>
</g>
<!-- Node9 -->
<g id="node9" class="node"><title>Node9</title>
<g id="a_node9"><a xlink:href="lib_2attic_2liblmp2__solver_2energy_8cc.html" target="_top" xlink:title="energy.cc">
<polygon fill="none" stroke="black" points="465.5,-0.5 465.5,-19.5 524.5,-19.5 524.5,-0.5 465.5,-0.5"/>
<text text-anchor="middle" x="495" y="-7.5" font-family="Helvetica,sans-Serif" font-size="10.00">energy.cc</text>
</a>
</g>
</g>
<!-- Node4&#45;&gt;Node9 -->
<g id="edge8" class="edge"><title>Node4&#45;&gt;Node9</title>
<path fill="none" stroke="midnightblue" d="M437.034,-50.6221C451.466,-40.7574 470.141,-27.9919 482.339,-19.6545"/>
<polygon fill="midnightblue" stroke="midnightblue" points="434.973,-47.7914 428.693,-56.324 438.923,-53.5703 434.973,-47.7914"/>
</g>
<!-- Node10 -->
<g id="node10" class="node"><title>Node10</title>
<g id="a_node10"><a xlink:href="lib_2attic_2liblmp2__solver_2get__params_8cc.html" target="_top" xlink:title="get_params.cc">
<polygon fill="none" stroke="black" points="542.5,-0.5 542.5,-19.5 623.5,-19.5 623.5,-0.5 542.5,-0.5"/>
<text text-anchor="middle" x="583" y="-7.5" font-family="Helvetica,sans-Serif" font-size="10.00">get_params.cc</text>
</a>
</g>
</g>
<!-- Node4&#45;&gt;Node10 -->
<g id="edge9" class="edge"><title>Node4&#45;&gt;Node10</title>
<path fill="none" stroke="midnightblue" d="M448.882,-54.3674C480.448,-44.1605 527.514,-28.9417 556.677,-19.5118"/>
<polygon fill="midnightblue" stroke="midnightblue" points="447.659,-51.0845 439.221,-57.4915 449.812,-57.745 447.659,-51.0845"/>
</g>
<!-- Node4&#45;&gt;Node3 -->
<g id="edge10" class="edge"><title>Node4&#45;&gt;Node3</title>
<path fill="none" stroke="midnightblue" d="M382.662,-62.2937C319.229,-56.8146 176.963,-42.9412 59,-20 56.2429,-19.4638 53.3788,-18.8297 50.5352,-18.1502"/>
<polygon fill="midnightblue" stroke="midnightblue" points="382.599,-65.8009 392.86,-63.1605 383.192,-58.8261 382.599,-65.8009"/>
</g>
<!-- Node11 -->
<g id="node11" class="node"><title>Node11</title>
<g id="a_node11"><a xlink:href="localize_8cc.html" target="_top" xlink:title="localize.cc">
<polygon fill="none" stroke="black" points="641.5,-0.5 641.5,-19.5 704.5,-19.5 704.5,-0.5 641.5,-0.5"/>
<text text-anchor="middle" x="673" y="-7.5" font-family="Helvetica,sans-Serif" font-size="10.00">localize.cc</text>
</a>
</g>
</g>
<!-- Node4&#45;&gt;Node11 -->
<g id="edge11" class="edge"><title>Node4&#45;&gt;Node11</title>
<path fill="none" stroke="midnightblue" d="M449.067,-58.2255C491.467,-49.5125 567.254,-33.8503 632,-20 634.993,-19.3597 638.108,-18.6873 641.223,-18.0105"/>
<polygon fill="midnightblue" stroke="midnightblue" points="448.125,-54.8457 439.034,-60.2856 449.533,-61.7027 448.125,-54.8457"/>
</g>
<!-- Node12 -->
<g id="node12" class="node"><title>Node12</title>
<g id="a_node12"><a xlink:href="projection_8cc.html" target="_top" xlink:title="projection.cc">
<polygon fill="none" stroke="black" points="723,-0.5 723,-19.5 795,-19.5 795,-0.5 723,-0.5"/>
<text text-anchor="middle" x="759" y="-7.5" font-family="Helvetica,sans-Serif" font-size="10.00">projection.cc</text>
</a>
</g>
</g>
<!-- Node4&#45;&gt;Node12 -->
<g id="edge12" class="edge"><title>Node4&#45;&gt;Node12</title>
<path fill="none" stroke="midnightblue" d="M449.37,-60.4194C504.407,-52.758 617.62,-36.5486 713,-20 716.207,-19.4436 719.535,-18.8413 722.868,-18.2211"/>
<polygon fill="midnightblue" stroke="midnightblue" points="448.585,-56.9947 439.161,-61.8353 449.547,-63.9283 448.585,-56.9947"/>
</g>
<!-- Node13 -->
<g id="node13" class="node"><title>Node13</title>
<g id="a_node13"><a xlink:href="T2__amplitudes_8cc.html" target="_top" xlink:title="T2_amplitudes.cc">
<polygon fill="none" stroke="black" points="813,-0.5 813,-19.5 907,-19.5 907,-0.5 813,-0.5"/>
<text text-anchor="middle" x="860" y="-7.5" font-family="Helvetica,sans-Serif" font-size="10.00">T2_amplitudes.cc</text>
</a>
</g>
</g>
<!-- Node4&#45;&gt;Node13 -->
<g id="edge13" class="edge"><title>Node4&#45;&gt;Node13</title>
<path fill="none" stroke="midnightblue" d="M449.213,-61.6447C516.349,-54.7526 672.968,-38.1189 804,-20 806.926,-19.5954 809.936,-19.162 812.969,-18.7121"/>
<polygon fill="midnightblue" stroke="midnightblue" points="448.816,-58.1669 439.224,-62.6659 449.528,-65.1306 448.816,-58.1669"/>
</g>
</g>
</svg>
