<?xml version="1.0" encoding="UTF-8" standalone="no"?>
<!DOCTYPE svg PUBLIC "-//W3C//DTD SVG 1.1//EN"
 "http://www.w3.org/Graphics/SVG/1.1/DTD/svg11.dtd">
<!-- Generated by graphviz version 2.30.1 (20140110.0959)
 -->
<!-- Title: e_labeled.cc Pages: 1 -->
<svg width="786pt" height="140pt"
 viewBox="0.00 0.00 786.00 140.00" xmlns="http://www.w3.org/2000/svg" xmlns:xlink="http://www.w3.org/1999/xlink">
<g id="graph0" class="graph" transform="scale(1 1) rotate(0) translate(4 136)">
<title>e_labeled.cc</title>
<!-- Node1 -->
<g id="node1" class="node"><title>Node1</title>
<polygon fill="#bfbfbf" stroke="black" points="231.5,-112.5 231.5,-131.5 302.5,-131.5 302.5,-112.5 231.5,-112.5"/>
<text text-anchor="middle" x="267" y="-119.5" font-family="Helvetica,sans-Serif" font-size="10.00">e_labeled.cc</text>
</g>
<!-- Node2 -->
<g id="node2" class="node"><title>Node2</title>
<polygon fill="none" stroke="#bfbfbf" points="-0.5,-56.5 -0.5,-75.5 42.5,-75.5 42.5,-56.5 -0.5,-56.5"/>
<text text-anchor="middle" x="21" y="-63.5" font-family="Helvetica,sans-Serif" font-size="10.00">cstdio</text>
</g>
<!-- Node1&#45;&gt;Node2 -->
<g id="edge1" class="edge"><title>Node1&#45;&gt;Node2</title>
<path fill="none" stroke="midnightblue" d="M231.43,-114.417C190.559,-106.664 121.296,-92.947 52.3471,-75.9287"/>
<polygon fill="midnightblue" stroke="midnightblue" points="53.1727,-72.5275 42.6232,-73.5057 51.4802,-79.3198 53.1727,-72.5275"/>
</g>
<!-- Node3 -->
<g id="node3" class="node"><title>Node3</title>
<polygon fill="none" stroke="#bfbfbf" points="61,-56.5 61,-75.5 107,-75.5 107,-56.5 61,-56.5"/>
<text text-anchor="middle" x="84" y="-63.5" font-family="Helvetica,sans-Serif" font-size="10.00">cstring</text>
</g>
<!-- Node1&#45;&gt;Node3 -->
<g id="edge2" class="edge"><title>Node1&#45;&gt;Node3</title>
<path fill="none" stroke="midnightblue" d="M238.003,-112.444C204.981,-102.699 151.153,-86.8158 116.674,-76.6414"/>
<polygon fill="midnightblue" stroke="midnightblue" points="117.649,-73.28 107.067,-73.8067 115.668,-79.9938 117.649,-73.28"/>
</g>
<!-- Node4 -->
<g id="node4" class="node"><title>Node4</title>
<polygon fill="none" stroke="#bfbfbf" points="125.5,-56.5 125.5,-75.5 170.5,-75.5 170.5,-56.5 125.5,-56.5"/>
<text text-anchor="middle" x="148" y="-63.5" font-family="Helvetica,sans-Serif" font-size="10.00">cstdlib</text>
</g>
<!-- Node1&#45;&gt;Node4 -->
<g id="edge3" class="edge"><title>Node1&#45;&gt;Node4</title>
<path fill="none" stroke="midnightblue" d="M248.144,-112.444C228.734,-103.636 198.27,-89.8116 176.035,-79.722"/>
<polygon fill="midnightblue" stroke="midnightblue" points="177.32,-76.4615 166.768,-75.5164 174.428,-82.836 177.32,-76.4615"/>
</g>
<!-- Node5 -->
<g id="node5" class="node"><title>Node5</title>
<g id="a_node5"><a xlink:href="psifiles_8h_source.html" target="_top" xlink:title="psifiles.h">
<polygon fill="none" stroke="black" points="189,-56.5 189,-75.5 245,-75.5 245,-56.5 189,-56.5"/>
<text text-anchor="middle" x="217" y="-63.5" font-family="Helvetica,sans-Serif" font-size="10.00">psifiles.h</text>
</a>
</g>
</g>
<!-- Node1&#45;&gt;Node5 -->
<g id="edge4" class="edge"><title>Node1&#45;&gt;Node5</title>
<path fill="none" stroke="midnightblue" d="M258.744,-112.083C251.535,-104.298 240.89,-92.8015 232.154,-83.3665"/>
<polygon fill="midnightblue" stroke="midnightblue" points="234.465,-80.7108 225.103,-75.7511 229.329,-85.4666 234.465,-80.7108"/>
</g>
<!-- Node6 -->
<g id="node6" class="node"><title>Node6</title>
<polygon fill="none" stroke="#bfbfbf" points="263,-56.5 263,-75.5 371,-75.5 371,-56.5 263,-56.5"/>
<text text-anchor="middle" x="317" y="-63.5" font-family="Helvetica,sans-Serif" font-size="10.00">boost/shared_ptr.hpp</text>
</g>
<!-- Node1&#45;&gt;Node6 -->
<g id="edge5" class="edge"><title>Node1&#45;&gt;Node6</title>
<path fill="none" stroke="midnightblue" d="M275.256,-112.083C282.465,-104.298 293.11,-92.8015 301.846,-83.3665"/>
<polygon fill="midnightblue" stroke="midnightblue" points="304.671,-85.4666 308.897,-75.7511 299.535,-80.7108 304.671,-85.4666"/>
</g>
<!-- Node7 -->
<g id="node7" class="node"><title>Node7</title>
<g id="a_node7"><a xlink:href="psio_8hpp_source.html" target="_top" xlink:title="libpsio/psio.hpp">
<polygon fill="none" stroke="black" points="389,-56.5 389,-75.5 473,-75.5 473,-56.5 389,-56.5"/>
<text text-anchor="middle" x="431" y="-63.5" font-family="Helvetica,sans-Serif" font-size="10.00">libpsio/psio.hpp</text>
</a>
</g>
</g>
<!-- Node1&#45;&gt;Node7 -->
<g id="edge6" class="edge"><title>Node1&#45;&gt;Node7</title>
<path fill="none" stroke="midnightblue" d="M292.986,-112.444C320.696,-103.32 364.752,-88.8133 395.616,-78.6509"/>
<polygon fill="midnightblue" stroke="midnightblue" points="396.732,-81.9684 405.135,-75.5164 394.542,-75.3196 396.732,-81.9684"/>
</g>
<!-- Node13 -->
<g id="node13" class="node"><title>Node13</title>
<g id="a_node13"><a xlink:href="chkpt_8h_source.html" target="_top" xlink:title="libchkpt/chkpt.h">
<polygon fill="none" stroke="black" points="491,-56.5 491,-75.5 577,-75.5 577,-56.5 491,-56.5"/>
<text text-anchor="middle" x="534" y="-63.5" font-family="Helvetica,sans-Serif" font-size="10.00">libchkpt/chkpt.h</text>
</a>
</g>
</g>
<!-- Node1&#45;&gt;Node13 -->
<g id="edge12" class="edge"><title>Node1&#45;&gt;Node13</title>
<path fill="none" stroke="midnightblue" d="M302.732,-113.773C348.788,-104.459 429.21,-88.1936 482.032,-77.5104"/>
<polygon fill="midnightblue" stroke="midnightblue" points="482.777,-80.9307 491.885,-75.5177 481.389,-74.0696 482.777,-80.9307"/>
</g>
<!-- Node14 -->
<g id="node14" class="node"><title>Node14</title>
<g id="a_node14"><a xlink:href="chkpt_8hpp_source.html" target="_top" xlink:title="libchkpt/chkpt.hpp">
<polygon fill="none" stroke="black" points="611,-56.5 611,-75.5 707,-75.5 707,-56.5 611,-56.5"/>
<text text-anchor="middle" x="659" y="-63.5" font-family="Helvetica,sans-Serif" font-size="10.00">libchkpt/chkpt.hpp</text>
</a>
</g>
</g>
<!-- Node1&#45;&gt;Node14 -->
<g id="edge13" class="edge"><title>Node1&#45;&gt;Node14</title>
<path fill="none" stroke="midnightblue" d="M302.827,-116.065C370.684,-106.717 518.51,-86.3533 600.787,-75.0192"/>
<polygon fill="midnightblue" stroke="midnightblue" points="601.3,-78.4816 610.729,-73.6496 600.345,-71.5471 601.3,-78.4816"/>
</g>
<!-- Node8 -->
<g id="node8" class="node"><title>Node8</title>
<polygon fill="none" stroke="#bfbfbf" points="563.5,-0.5 563.5,-19.5 604.5,-19.5 604.5,-0.5 563.5,-0.5"/>
<text text-anchor="middle" x="584" y="-7.5" font-family="Helvetica,sans-Serif" font-size="10.00">string</text>
</g>
<!-- Node7&#45;&gt;Node8 -->
<g id="edge7" class="edge"><title>Node7&#45;&gt;Node8</title>
<path fill="none" stroke="midnightblue" d="M455.243,-56.4435C481.926,-47.0262 524.855,-31.8746 553.728,-21.6842"/>
<polygon fill="midnightblue" stroke="midnightblue" points="555.04,-24.9329 563.305,-18.3042 552.71,-18.332 555.04,-24.9329"/>
</g>
<!-- Node9 -->
<g id="node9" class="node"><title>Node9</title>
<polygon fill="none" stroke="#bfbfbf" points="299.5,-0.5 299.5,-19.5 334.5,-19.5 334.5,-0.5 299.5,-0.5"/>
<text text-anchor="middle" x="317" y="-7.5" font-family="Helvetica,sans-Serif" font-size="10.00">map</text>
</g>
<!-- Node7&#45;&gt;Node9 -->
<g id="edge8" class="edge"><title>Node7&#45;&gt;Node9</title>
<path fill="none" stroke="midnightblue" d="M412.936,-56.4435C394.316,-47.6235 365.078,-33.7736 343.77,-23.6805"/>
<polygon fill="midnightblue" stroke="midnightblue" points="345.14,-20.4568 334.605,-19.339 342.144,-26.783 345.14,-20.4568"/>
</g>
<!-- Node10 -->
<g id="node10" class="node"><title>Node10</title>
<polygon fill="none" stroke="#bfbfbf" points="353,-0.5 353,-19.5 383,-19.5 383,-0.5 353,-0.5"/>
<text text-anchor="middle" x="368" y="-7.5" font-family="Helvetica,sans-Serif" font-size="10.00">set</text>
</g>
<!-- Node7&#45;&gt;Node10 -->
<g id="edge9" class="edge"><title>Node7&#45;&gt;Node10</title>
<path fill="none" stroke="midnightblue" d="M420.878,-56.324C411.474,-48.2631 397.256,-36.0765 385.931,-26.3695"/>
<polygon fill="midnightblue" stroke="midnightblue" points="388.177,-23.6844 378.306,-19.8339 383.621,-28.9993 388.177,-23.6844"/>
</g>
<!-- Node11 -->
<g id="node11" class="node"><title>Node11</title>
<polygon fill="none" stroke="#bfbfbf" points="401.5,-0.5 401.5,-19.5 444.5,-19.5 444.5,-0.5 401.5,-0.5"/>
<text text-anchor="middle" x="423" y="-7.5" font-family="Helvetica,sans-Serif" font-size="10.00">queue</text>
</g>
<!-- Node7&#45;&gt;Node11 -->
<g id="edge10" class="edge"><title>Node7&#45;&gt;Node11</title>
<path fill="none" stroke="midnightblue" d="M429.679,-56.083C428.619,-48.9272 427.094,-38.6353 425.769,-29.6911"/>
<polygon fill="midnightblue" stroke="midnightblue" points="429.224,-29.1302 424.296,-19.7511 422.3,-30.1561 429.224,-29.1302"/>
</g>
<!-- Node12 -->
<g id="node12" class="node"><title>Node12</title>
<g id="a_node12"><a xlink:href="libpsio_2config_8h_source.html" target="_top" xlink:title="libpsio/config.h">
<polygon fill="none" stroke="black" points="463,-0.5 463,-19.5 545,-19.5 545,-0.5 463,-0.5"/>
<text text-anchor="middle" x="504" y="-7.5" font-family="Helvetica,sans-Serif" font-size="10.00">libpsio/config.h</text>
</a>
</g>
</g>
<!-- Node7&#45;&gt;Node12 -->
<g id="edge11" class="edge"><title>Node7&#45;&gt;Node12</title>
<path fill="none" stroke="midnightblue" d="M442.729,-56.324C453.837,-48.1066 470.742,-35.6017 483.983,-25.8069"/>
<polygon fill="midnightblue" stroke="midnightblue" points="486.1,-28.5948 492.058,-19.8339 481.937,-22.9671 486.1,-28.5948"/>
</g>
<!-- Node15 -->
<g id="node15" class="node"><title>Node15</title>
<g id="a_node15"><a xlink:href="libchkpt_2config_8h_source.html" target="_top" xlink:title="libchkpt/config.h">
<polygon fill="none" stroke="black" points="623,-0.5 623,-19.5 711,-19.5 711,-0.5 623,-0.5"/>
<text text-anchor="middle" x="667" y="-7.5" font-family="Helvetica,sans-Serif" font-size="10.00">libchkpt/config.h</text>
</a>
</g>
</g>
<!-- Node14&#45;&gt;Node15 -->
<g id="edge14" class="edge"><title>Node14&#45;&gt;Node15</title>
<path fill="none" stroke="midnightblue" d="M660.321,-56.083C661.381,-48.9272 662.906,-38.6353 664.231,-29.6911"/>
<polygon fill="midnightblue" stroke="midnightblue" points="667.7,-30.1561 665.704,-19.7511 660.776,-29.1302 667.7,-30.1561"/>
</g>
<!-- Node14&#45;&gt;Node8 -->
<g id="edge15" class="edge"><title>Node14&#45;&gt;Node8</title>
<path fill="none" stroke="midnightblue" d="M646.95,-56.324C635.537,-48.1066 618.169,-35.6017 604.565,-25.8069"/>
<polygon fill="midnightblue" stroke="midnightblue" points="606.43,-22.8366 596.269,-19.8339 602.34,-28.5174 606.43,-22.8366"/>
</g>
<!-- Node16 -->
<g id="node16" class="node"><title>Node16</title>
<polygon fill="none" stroke="#bfbfbf" points="729.5,-0.5 729.5,-19.5 778.5,-19.5 778.5,-0.5 729.5,-0.5"/>
<text text-anchor="middle" x="754" y="-7.5" font-family="Helvetica,sans-Serif" font-size="10.00">string.h</text>
</g>
<!-- Node14&#45;&gt;Node16 -->
<g id="edge16" class="edge"><title>Node14&#45;&gt;Node16</title>
<path fill="none" stroke="midnightblue" d="M674.263,-56.324C689.221,-47.8215 712.255,-34.7288 729.727,-24.7975"/>
<polygon fill="midnightblue" stroke="midnightblue" points="731.81,-27.639 738.774,-19.6545 728.351,-21.5534 731.81,-27.639"/>
</g>
</g>
</svg>
