<?xml version="1.0" encoding="UTF-8" standalone="no"?>
<!DOCTYPE svg PUBLIC "-//W3C//DTD SVG 1.1//EN"
 "http://www.w3.org/Graphics/SVG/1.1/DTD/svg11.dtd">
<!-- Generated by graphviz version 2.30.1 (20140110.0959)
 -->
<!-- Title: f_act.cc Pages: 1 -->
<svg width="1427pt" height="320pt"
 viewBox="0.00 0.00 1427.00 320.00" xmlns="http://www.w3.org/2000/svg" xmlns:xlink="http://www.w3.org/1999/xlink">
<g id="graph0" class="graph" transform="scale(1 1) rotate(0) translate(4 316)">
<title>f_act.cc</title>
<!-- Node1 -->
<g id="node1" class="node"><title>Node1</title>
<polygon fill="#bfbfbf" stroke="black" points="272,-292.5 272,-311.5 324,-311.5 324,-292.5 272,-292.5"/>
<text text-anchor="middle" x="298" y="-299.5" font-family="Helvetica,sans-Serif" font-size="10.00">f_act.cc</text>
</g>
<!-- Node2 -->
<g id="node2" class="node"><title>Node2</title>
<polygon fill="none" stroke="#bfbfbf" points="-0.5,-0.5 -0.5,-19.5 44.5,-19.5 44.5,-0.5 -0.5,-0.5"/>
<text text-anchor="middle" x="22" y="-7.5" font-family="Helvetica,sans-Serif" font-size="10.00">cstdlib</text>
</g>
<!-- Node1&#45;&gt;Node2 -->
<g id="edge1" class="edge"><title>Node1&#45;&gt;Node2</title>
<path fill="none" stroke="midnightblue" d="M271.824,-296.266C203.494,-283.166 25,-243.887 25,-191 25,-191 25,-191 25,-133 25,-96.4028 23.6342,-53.649 22.7457,-29.7088"/>
<polygon fill="midnightblue" stroke="midnightblue" points="26.2378,-29.4351 22.3559,-19.5771 19.243,-29.7043 26.2378,-29.4351"/>
</g>
<!-- Node3 -->
<g id="node3" class="node"><title>Node3</title>
<polygon fill="none" stroke="#bfbfbf" points="200.5,-0.5 200.5,-19.5 243.5,-19.5 243.5,-0.5 200.5,-0.5"/>
<text text-anchor="middle" x="222" y="-7.5" font-family="Helvetica,sans-Serif" font-size="10.00">cstdio</text>
</g>
<!-- Node1&#45;&gt;Node3 -->
<g id="edge2" class="edge"><title>Node1&#45;&gt;Node3</title>
<path fill="none" stroke="midnightblue" d="M271.87,-294.897C228.411,-283.02 146,-252.402 146,-191 146,-191 146,-191 146,-133 146,-89.2172 181.699,-48.1424 204.163,-26.6295"/>
<polygon fill="midnightblue" stroke="midnightblue" points="206.78,-28.9768 211.75,-19.62 202.03,-23.8353 206.78,-28.9768"/>
</g>
<!-- Node4 -->
<g id="node4" class="node"><title>Node4</title>
<polygon fill="none" stroke="#bfbfbf" points="400,-236.5 400,-255.5 478,-255.5 478,-236.5 400,-236.5"/>
<text text-anchor="middle" x="439" y="-243.5" font-family="Helvetica,sans-Serif" font-size="10.00">libipv1/ip_lib.h</text>
</g>
<!-- Node1&#45;&gt;Node4 -->
<g id="edge3" class="edge"><title>Node1&#45;&gt;Node4</title>
<path fill="none" stroke="midnightblue" d="M320.342,-292.444C343.753,-283.478 380.736,-269.314 407.19,-259.183"/>
<polygon fill="midnightblue" stroke="midnightblue" points="408.676,-262.361 416.763,-255.516 406.172,-255.824 408.676,-262.361"/>
</g>
<!-- Node5 -->
<g id="node5" class="node"><title>Node5</title>
<g id="a_node5"><a xlink:href="libciomr_8h_source.html" target="_top" xlink:title="libciomr/libciomr.h">
<polygon fill="none" stroke="black" points="174.5,-180.5 174.5,-199.5 269.5,-199.5 269.5,-180.5 174.5,-180.5"/>
<text text-anchor="middle" x="222" y="-187.5" font-family="Helvetica,sans-Serif" font-size="10.00">libciomr/libciomr.h</text>
</a>
</g>
</g>
<!-- Node1&#45;&gt;Node5 -->
<g id="edge4" class="edge"><title>Node1&#45;&gt;Node5</title>
<path fill="none" stroke="midnightblue" d="M292.036,-292.368C279.494,-274.215 250.19,-231.802 233.739,-207.99"/>
<polygon fill="midnightblue" stroke="midnightblue" points="236.5,-205.829 227.936,-199.591 230.741,-209.808 236.5,-205.829"/>
</g>
<!-- Node6 -->
<g id="node6" class="node"><title>Node6</title>
<g id="a_node6"><a xlink:href="qt_8h.html" target="_top" xlink:title="Header file for the Quantum Trio LibraryDavid Sherrill 1994.">
<polygon fill="none" stroke="black" points="252,-62.5 252,-81.5 306,-81.5 306,-62.5 252,-62.5"/>
<text text-anchor="middle" x="279" y="-69.5" font-family="Helvetica,sans-Serif" font-size="10.00">libqt/qt.h</text>
</a>
</g>
</g>
<!-- Node1&#45;&gt;Node6 -->
<g id="edge6" class="edge"><title>Node1&#45;&gt;Node6</title>
<path fill="none" stroke="midnightblue" d="M297.278,-292.341C294.504,-259.046 284.484,-138.805 280.576,-91.912"/>
<polygon fill="midnightblue" stroke="midnightblue" points="284.041,-91.3429 279.722,-81.6681 277.065,-91.9242 284.041,-91.3429"/>
</g>
<!-- Node8 -->
<g id="node8" class="node"><title>Node8</title>
<g id="a_node8"><a xlink:href="globaldefs_8h.html" target="_top" xlink:title="Enter brief description of file here.">
<polygon fill="none" stroke="black" points="496.5,-236.5 496.5,-255.5 565.5,-255.5 565.5,-236.5 496.5,-236.5"/>
<text text-anchor="middle" x="531" y="-243.5" font-family="Helvetica,sans-Serif" font-size="10.00">globaldefs.h</text>
</a>
</g>
</g>
<!-- Node1&#45;&gt;Node8 -->
<g id="edge9" class="edge"><title>Node1&#45;&gt;Node8</title>
<path fill="none" stroke="midnightblue" d="M324.275,-294.91C363.609,-285.795 438.297,-268.485 486.309,-257.357"/>
<polygon fill="midnightblue" stroke="midnightblue" points="487.176,-260.75 496.127,-255.082 485.595,-253.93 487.176,-260.75"/>
</g>
<!-- Node9 -->
<g id="node9" class="node"><title>Node9</title>
<g id="a_node9"><a xlink:href="attic_2detcas_2globals_8h.html" target="_top" xlink:title="Enter brief description of file here.">
<polygon fill="none" stroke="black" points="326,-236.5 326,-255.5 382,-255.5 382,-236.5 326,-236.5"/>
<text text-anchor="middle" x="354" y="-243.5" font-family="Helvetica,sans-Serif" font-size="10.00">globals.h</text>
</a>
</g>
</g>
<!-- Node1&#45;&gt;Node9 -->
<g id="edge10" class="edge"><title>Node1&#45;&gt;Node9</title>
<path fill="none" stroke="midnightblue" d="M306.997,-292.324C315.194,-284.42 327.506,-272.548 337.472,-262.938"/>
<polygon fill="midnightblue" stroke="midnightblue" points="340.07,-265.295 344.839,-255.834 335.211,-260.256 340.07,-265.295"/>
</g>
<!-- Node5&#45;&gt;Node3 -->
<g id="edge5" class="edge"><title>Node5&#45;&gt;Node3</title>
<path fill="none" stroke="midnightblue" d="M222,-180.415C222,-153.227 222,-68.5626 222,-30.2169"/>
<polygon fill="midnightblue" stroke="midnightblue" points="225.5,-29.9184 222,-19.9185 218.5,-29.9185 225.5,-29.9184"/>
</g>
<!-- Node6&#45;&gt;Node3 -->
<g id="edge7" class="edge"><title>Node6&#45;&gt;Node3</title>
<path fill="none" stroke="midnightblue" d="M270.833,-62.4035C262.114,-53.2252 248.096,-38.4699 237.311,-27.1173"/>
<polygon fill="midnightblue" stroke="midnightblue" points="239.577,-24.42 230.152,-19.5806 234.502,-29.2412 239.577,-24.42"/>
</g>
<!-- Node7 -->
<g id="node7" class="node"><title>Node7</title>
<polygon fill="none" stroke="#bfbfbf" points="403.5,-0.5 403.5,-19.5 444.5,-19.5 444.5,-0.5 403.5,-0.5"/>
<text text-anchor="middle" x="424" y="-7.5" font-family="Helvetica,sans-Serif" font-size="10.00">string</text>
</g>
<!-- Node6&#45;&gt;Node7 -->
<g id="edge8" class="edge"><title>Node6&#45;&gt;Node7</title>
<path fill="none" stroke="midnightblue" d="M299.775,-62.4035C324.432,-52.2004 365.745,-35.1055 393.902,-23.4544"/>
<polygon fill="midnightblue" stroke="midnightblue" points="395.362,-26.6382 403.264,-19.5806 392.685,-20.1701 395.362,-26.6382"/>
</g>
<!-- Node10 -->
<g id="node10" class="node"><title>Node10</title>
<g id="a_node10"><a xlink:href="calcinfo_8h.html" target="_top" xlink:title="Enter brief description of file here.">
<polygon fill="none" stroke="black" points="740.5,-180.5 740.5,-199.5 799.5,-199.5 799.5,-180.5 740.5,-180.5"/>
<text text-anchor="middle" x="770" y="-187.5" font-family="Helvetica,sans-Serif" font-size="10.00">calcinfo.h</text>
</a>
</g>
</g>
<!-- Node9&#45;&gt;Node10 -->
<g id="edge11" class="edge"><title>Node9&#45;&gt;Node10</title>
<path fill="none" stroke="midnightblue" d="M382.201,-237.731C385.16,-237.091 388.134,-236.498 391,-236 537.496,-210.544 579.349,-224.499 730.17,-199.928"/>
<polygon fill="midnightblue" stroke="midnightblue" points="730.972,-203.343 740.264,-198.253 729.826,-196.438 730.972,-203.343"/>
</g>
<!-- Node11 -->
<g id="node11" class="node"><title>Node11</title>
<g id="a_node11"><a xlink:href="detcas_2params_8h.html" target="_top" xlink:title="Enter brief description of file here.">
<polygon fill="none" stroke="black" points="326.5,-180.5 326.5,-199.5 383.5,-199.5 383.5,-180.5 326.5,-180.5"/>
<text text-anchor="middle" x="355" y="-187.5" font-family="Helvetica,sans-Serif" font-size="10.00">params.h</text>
</a>
</g>
</g>
<!-- Node9&#45;&gt;Node11 -->
<g id="edge12" class="edge"><title>Node9&#45;&gt;Node11</title>
<path fill="none" stroke="midnightblue" d="M354.165,-236.083C354.296,-229.006 354.484,-218.861 354.648,-209.986"/>
<polygon fill="midnightblue" stroke="midnightblue" points="358.152,-209.814 354.838,-199.751 351.153,-209.685 358.152,-209.814"/>
</g>
<!-- Node12 -->
<g id="node12" class="node"><title>Node12</title>
<g id="a_node12"><a xlink:href="psi4-dec_8h_source.html" target="_top" xlink:title="psi4&#45;dec.h">
<polygon fill="none" stroke="black" points="660,-180.5 660,-199.5 722,-199.5 722,-180.5 660,-180.5"/>
<text text-anchor="middle" x="691" y="-187.5" font-family="Helvetica,sans-Serif" font-size="10.00">psi4&#45;dec.h</text>
</a>
</g>
</g>
<!-- Node9&#45;&gt;Node12 -->
<g id="edge14" class="edge"><title>Node9&#45;&gt;Node12</title>
<path fill="none" stroke="midnightblue" d="M382.224,-237.858C385.179,-237.193 388.146,-236.56 391,-236 482.71,-218.006 591.427,-203.335 649.507,-196.027"/>
<polygon fill="midnightblue" stroke="midnightblue" points="650.257,-199.461 659.746,-194.749 649.39,-192.515 650.257,-199.461"/>
</g>
<!-- Node11&#45;&gt;Node7 -->
<g id="edge13" class="edge"><title>Node11&#45;&gt;Node7</title>
<path fill="none" stroke="midnightblue" d="M352.077,-180.206C345.191,-157.813 330.182,-97.4781 353,-56 361.713,-40.1617 378.617,-29.1151 393.745,-21.9312"/>
<polygon fill="midnightblue" stroke="midnightblue" points="395.557,-24.9597 403.326,-17.7566 392.76,-18.5424 395.557,-24.9597"/>
</g>
<!-- Node13 -->
<g id="node13" class="node"><title>Node13</title>
<polygon fill="none" stroke="#bfbfbf" points="701,-124.5 701,-143.5 809,-143.5 809,-124.5 701,-124.5"/>
<text text-anchor="middle" x="755" y="-131.5" font-family="Helvetica,sans-Serif" font-size="10.00">boost/shared_ptr.hpp</text>
</g>
<!-- Node12&#45;&gt;Node13 -->
<g id="edge15" class="edge"><title>Node12&#45;&gt;Node13</title>
<path fill="none" stroke="midnightblue" d="M701.283,-180.324C710.836,-172.263 725.28,-160.077 736.784,-150.369"/>
<polygon fill="midnightblue" stroke="midnightblue" points="739.144,-152.958 744.53,-143.834 734.63,-147.608 739.144,-152.958"/>
</g>
<!-- Node14 -->
<g id="node14" class="node"><title>Node14</title>
<polygon fill="none" stroke="#bfbfbf" points="942,-62.5 942,-81.5 1074,-81.5 1074,-62.5 942,-62.5"/>
<text text-anchor="middle" x="1008" y="-69.5" font-family="Helvetica,sans-Serif" font-size="10.00">boost/current_function.hpp</text>
</g>
<!-- Node12&#45;&gt;Node14 -->
<g id="edge16" class="edge"><title>Node12&#45;&gt;Node14</title>
<path fill="none" stroke="midnightblue" d="M715.391,-180.496C740.992,-171.539 782.391,-156.961 818,-144 873.74,-123.712 938.389,-99.3828 976.089,-85.1144"/>
<polygon fill="midnightblue" stroke="midnightblue" points="977.413,-88.3556 985.525,-81.5403 974.934,-81.8095 977.413,-88.3556"/>
</g>
<!-- Node12&#45;&gt;Node7 -->
<g id="edge17" class="edge"><title>Node12&#45;&gt;Node7</title>
<path fill="none" stroke="midnightblue" d="M659.864,-181.634C613.939,-169.349 527.695,-140.668 474,-88 456.284,-70.6233 441.624,-45.9034 432.855,-29.1988"/>
<polygon fill="midnightblue" stroke="midnightblue" points="435.822,-27.3107 428.181,-19.9709 429.577,-30.4734 435.822,-27.3107"/>
</g>
<!-- Node15 -->
<g id="node15" class="node"><title>Node15</title>
<polygon fill="none" stroke="#bfbfbf" points="1173.5,-124.5 1173.5,-143.5 1202.5,-143.5 1202.5,-124.5 1173.5,-124.5"/>
<text text-anchor="middle" x="1188" y="-131.5" font-family="Helvetica,sans-Serif" font-size="10.00">list</text>
</g>
<!-- Node12&#45;&gt;Node15 -->
<g id="edge18" class="edge"><title>Node12&#45;&gt;Node15</title>
<path fill="none" stroke="midnightblue" d="M722.365,-181.512C725.274,-180.948 728.186,-180.431 731,-180 918.616,-151.235 973.707,-185.107 1163.45,-143.421"/>
<polygon fill="midnightblue" stroke="midnightblue" points="1164.48,-146.777 1173.47,-141.177 1162.95,-139.946 1164.48,-146.777"/>
</g>
<!-- Node16 -->
<g id="node16" class="node"><title>Node16</title>
<polygon fill="none" stroke="#bfbfbf" points="1384.5,-62.5 1384.5,-81.5 1419.5,-81.5 1419.5,-62.5 1384.5,-62.5"/>
<text text-anchor="middle" x="1402" y="-69.5" font-family="Helvetica,sans-Serif" font-size="10.00">map</text>
</g>
<!-- Node12&#45;&gt;Node16 -->
<g id="edge19" class="edge"><title>Node12&#45;&gt;Node16</title>
<path fill="none" stroke="midnightblue" d="M722.361,-181.488C725.271,-180.929 728.184,-180.42 731,-180 942.591,-148.435 1001.42,-186.912 1211,-144 1286.46,-128.551 1304.61,-119.271 1375,-88 1376.19,-87.4734 1377.39,-86.9124 1378.59,-86.3282"/>
<polygon fill="midnightblue" stroke="midnightblue" points="1380.43,-89.3176 1387.67,-81.582 1377.19,-83.1146 1380.43,-89.3176"/>
</g>
<!-- Node17 -->
<g id="node17" class="node"><title>Node17</title>
<g id="a_node17"><a xlink:href="liboptions_8h_source.html" target="_top" xlink:title="liboptions/liboptions.h">
<polygon fill="none" stroke="black" points="573,-124.5 573,-143.5 683,-143.5 683,-124.5 573,-124.5"/>
<text text-anchor="middle" x="628" y="-131.5" font-family="Helvetica,sans-Serif" font-size="10.00">liboptions/liboptions.h</text>
</a>
</g>
</g>
<!-- Node12&#45;&gt;Node17 -->
<g id="edge20" class="edge"><title>Node12&#45;&gt;Node17</title>
<path fill="none" stroke="midnightblue" d="M680.878,-180.324C671.474,-172.263 657.256,-160.077 645.931,-150.369"/>
<polygon fill="midnightblue" stroke="midnightblue" points="648.177,-147.684 638.306,-143.834 643.621,-152.999 648.177,-147.684"/>
</g>
<!-- Node26 -->
<g id="node26" class="node"><title>Node26</title>
<g id="a_node26"><a xlink:href="include_2exception_8h_source.html" target="_top" xlink:title="exception.h">
<polygon fill="none" stroke="black" points="1088.5,-124.5 1088.5,-143.5 1155.5,-143.5 1155.5,-124.5 1088.5,-124.5"/>
<text text-anchor="middle" x="1122" y="-131.5" font-family="Helvetica,sans-Serif" font-size="10.00">exception.h</text>
</a>
</g>
</g>
<!-- Node12&#45;&gt;Node26 -->
<g id="edge35" class="edge"><title>Node12&#45;&gt;Node26</title>
<path fill="none" stroke="midnightblue" d="M722.38,-181.607C725.286,-181.023 728.193,-180.476 731,-180 856.211,-158.771 1005.71,-144.648 1078.23,-138.502"/>
<polygon fill="midnightblue" stroke="midnightblue" points="1078.68,-141.976 1088.36,-137.654 1078.1,-135.001 1078.68,-141.976"/>
</g>
<!-- Node31 -->
<g id="node31" class="node"><title>Node31</title>
<g id="a_node31"><a xlink:href="typedefs_8h_source.html" target="_top" xlink:title="libmints/typedefs.h">
<polygon fill="none" stroke="black" points="362.5,-124.5 362.5,-143.5 461.5,-143.5 461.5,-124.5 362.5,-124.5"/>
<text text-anchor="middle" x="412" y="-131.5" font-family="Helvetica,sans-Serif" font-size="10.00">libmints/typedefs.h</text>
</a>
</g>
</g>
<!-- Node12&#45;&gt;Node31 -->
<g id="edge41" class="edge"><title>Node12&#45;&gt;Node31</title>
<path fill="none" stroke="midnightblue" d="M659.807,-182.963C612.992,-173.902 523.918,-156.662 466.291,-145.508"/>
<polygon fill="midnightblue" stroke="midnightblue" points="466.75,-142.032 456.267,-143.568 465.419,-148.904 466.75,-142.032"/>
</g>
<!-- Node17&#45;&gt;Node7 -->
<g id="edge21" class="edge"><title>Node17&#45;&gt;Node7</title>
<path fill="none" stroke="midnightblue" d="M600.442,-124.469C577.286,-116.693 543.779,-103.993 517,-88 501.281,-78.6128 463.712,-46.1843 441.431,-26.5302"/>
<polygon fill="midnightblue" stroke="midnightblue" points="443.524,-23.7084 433.718,-19.6976 438.883,-28.9483 443.524,-23.7084"/>
</g>
<!-- Node18 -->
<g id="node18" class="node"><title>Node18</title>
<polygon fill="none" stroke="#bfbfbf" points="491,-0.5 491,-19.5 535,-19.5 535,-0.5 491,-0.5"/>
<text text-anchor="middle" x="513" y="-7.5" font-family="Helvetica,sans-Serif" font-size="10.00">vector</text>
</g>
<!-- Node17&#45;&gt;Node18 -->
<g id="edge22" class="edge"><title>Node17&#45;&gt;Node18</title>
<path fill="none" stroke="midnightblue" d="M628.033,-124.316C627.643,-108.84 624.73,-76.2178 608,-56 599.359,-45.5578 568.764,-32.0838 544.599,-22.6115"/>
<polygon fill="midnightblue" stroke="midnightblue" points="545.642,-19.2627 535.052,-18.9426 543.131,-25.7968 545.642,-19.2627"/>
</g>
<!-- Node17&#45;&gt;Node16 -->
<g id="edge23" class="edge"><title>Node17&#45;&gt;Node16</title>
<path fill="none" stroke="midnightblue" d="M683.122,-124.938C686.122,-124.596 689.096,-124.28 692,-124 843.286,-109.404 1228.93,-129.985 1375,-88 1376.7,-87.5112 1378.41,-86.8991 1380.1,-86.2037"/>
<polygon fill="midnightblue" stroke="midnightblue" points="1381.96,-89.1881 1389.34,-81.5875 1378.83,-82.9262 1381.96,-89.1881"/>
</g>
<!-- Node19 -->
<g id="node19" class="node"><title>Node19</title>
<polygon fill="none" stroke="#bfbfbf" points="736.5,-62.5 736.5,-81.5 803.5,-81.5 803.5,-62.5 736.5,-62.5"/>
<text text-anchor="middle" x="770" y="-69.5" font-family="Helvetica,sans-Serif" font-size="10.00">exception.h</text>
</g>
<!-- Node17&#45;&gt;Node19 -->
<g id="edge24" class="edge"><title>Node17&#45;&gt;Node19</title>
<path fill="none" stroke="midnightblue" d="M648.345,-124.403C672.387,-114.245 712.597,-97.2547 740.163,-85.6074"/>
<polygon fill="midnightblue" stroke="midnightblue" points="741.843,-88.6968 749.693,-81.5806 739.119,-82.2488 741.843,-88.6968"/>
</g>
<!-- Node20 -->
<g id="node20" class="node"><title>Node20</title>
<g id="a_node20"><a xlink:href="libutil_8h_source.html" target="_top" xlink:title="libutil/libutil.h">
<polygon fill="none" stroke="black" points="526.5,-62.5 526.5,-81.5 599.5,-81.5 599.5,-62.5 526.5,-62.5"/>
<text text-anchor="middle" x="563" y="-69.5" font-family="Helvetica,sans-Serif" font-size="10.00">libutil/libutil.h</text>
</a>
</g>
</g>
<!-- Node17&#45;&gt;Node20 -->
<g id="edge25" class="edge"><title>Node17&#45;&gt;Node20</title>
<path fill="none" stroke="midnightblue" d="M618.687,-124.403C608.551,-115.047 592.136,-99.8948 579.748,-88.4599"/>
<polygon fill="midnightblue" stroke="midnightblue" points="582.018,-85.7916 572.296,-81.5806 577.27,-90.9352 582.018,-85.7916"/>
</g>
<!-- Node22 -->
<g id="node22" class="node"><title>Node22</title>
<g id="a_node22"><a xlink:href="libutil_2ref_8h_source.html" target="_top" xlink:title="libutil/ref.h">
<polygon fill="none" stroke="black" points="56,-62.5 56,-81.5 118,-81.5 118,-62.5 56,-62.5"/>
<text text-anchor="middle" x="87" y="-69.5" font-family="Helvetica,sans-Serif" font-size="10.00">libutil/ref.h</text>
</a>
</g>
</g>
<!-- Node17&#45;&gt;Node22 -->
<g id="edge29" class="edge"><title>Node17&#45;&gt;Node22</title>
<path fill="none" stroke="midnightblue" d="M572.898,-126.889C464.273,-114.842 224.692,-88.2708 128.334,-77.5842"/>
<polygon fill="midnightblue" stroke="midnightblue" points="128.44,-74.0746 118.115,-76.4509 127.669,-81.0319 128.44,-74.0746"/>
</g>
<!-- Node25 -->
<g id="node25" class="node"><title>Node25</title>
<polygon fill="none" stroke="#bfbfbf" points="822,-57 822,-87 924,-87 924,-57 822,-57"/>
<text text-anchor="start" x="830" y="-75" font-family="Helvetica,sans-Serif" font-size="10.00">boost/python/object</text>
<text text-anchor="middle" x="873" y="-64" font-family="Helvetica,sans-Serif" font-size="10.00">_fwd.hpp</text>
</g>
<!-- Node17&#45;&gt;Node25 -->
<g id="edge34" class="edge"><title>Node17&#45;&gt;Node25</title>
<path fill="none" stroke="midnightblue" d="M662.935,-124.47C699.949,-115.429 760.098,-100.728 812,-88 812.099,-87.9756 812.199,-87.9513 812.298,-87.9269"/>
<polygon fill="midnightblue" stroke="midnightblue" points="812.869,-91.3908 821.746,-85.6084 811.2,-84.5925 812.869,-91.3908"/>
</g>
<!-- Node20&#45;&gt;Node7 -->
<g id="edge26" class="edge"><title>Node20&#45;&gt;Node7</title>
<path fill="none" stroke="midnightblue" d="M543.085,-62.4035C519.551,-52.245 480.19,-35.2547 453.207,-23.6074"/>
<polygon fill="midnightblue" stroke="midnightblue" points="454.447,-20.3303 443.878,-19.5806 451.672,-26.7572 454.447,-20.3303"/>
</g>
<!-- Node20&#45;&gt;Node18 -->
<g id="edge27" class="edge"><title>Node20&#45;&gt;Node18</title>
<path fill="none" stroke="midnightblue" d="M555.836,-62.4035C548.262,-53.3143 536.13,-38.7559 526.707,-27.4489"/>
<polygon fill="midnightblue" stroke="midnightblue" points="529.241,-25.0222 520.15,-19.5806 523.864,-29.5035 529.241,-25.0222"/>
</g>
<!-- Node21 -->
<g id="node21" class="node"><title>Node21</title>
<polygon fill="none" stroke="#bfbfbf" points="553,-0.5 553,-19.5 615,-19.5 615,-0.5 553,-0.5"/>
<text text-anchor="middle" x="584" y="-7.5" font-family="Helvetica,sans-Serif" font-size="10.00">sys/time.h</text>
</g>
<!-- Node20&#45;&gt;Node21 -->
<g id="edge28" class="edge"><title>Node20&#45;&gt;Node21</title>
<path fill="none" stroke="midnightblue" d="M566.009,-62.4035C569.034,-53.7599 573.79,-40.17 577.653,-29.1341"/>
<polygon fill="midnightblue" stroke="midnightblue" points="580.997,-30.1754 580.997,-19.5806 574.39,-27.8629 580.997,-30.1754"/>
</g>
<!-- Node23 -->
<g id="node23" class="node"><title>Node23</title>
<polygon fill="none" stroke="#bfbfbf" points="62.5,-0.5 62.5,-19.5 111.5,-19.5 111.5,-0.5 62.5,-0.5"/>
<text text-anchor="middle" x="87" y="-7.5" font-family="Helvetica,sans-Serif" font-size="10.00">cstddef</text>
</g>
<!-- Node22&#45;&gt;Node23 -->
<g id="edge30" class="edge"><title>Node22&#45;&gt;Node23</title>
<path fill="none" stroke="midnightblue" d="M87,-62.4035C87,-53.9381 87,-40.7283 87,-29.8199"/>
<polygon fill="midnightblue" stroke="midnightblue" points="90.5001,-29.5806 87,-19.5806 83.5001,-29.5806 90.5001,-29.5806"/>
</g>
<!-- Node22&#45;&gt;Node3 -->
<g id="edge31" class="edge"><title>Node22&#45;&gt;Node3</title>
<path fill="none" stroke="midnightblue" d="M106.342,-62.4035C129.099,-52.2896 167.092,-35.4036 193.288,-23.761"/>
<polygon fill="midnightblue" stroke="midnightblue" points="194.977,-26.8404 202.694,-19.5806 192.134,-20.4437 194.977,-26.8404"/>
</g>
<!-- Node22&#45;&gt;Node2 -->
<g id="edge32" class="edge"><title>Node22&#45;&gt;Node2</title>
<path fill="none" stroke="midnightblue" d="M77.6871,-62.4035C67.5509,-53.047 51.136,-37.8948 38.7482,-26.4599"/>
<polygon fill="midnightblue" stroke="midnightblue" points="41.0177,-23.7916 31.2956,-19.5806 36.2697,-28.9352 41.0177,-23.7916"/>
</g>
<!-- Node24 -->
<g id="node24" class="node"><title>Node24</title>
<polygon fill="none" stroke="#bfbfbf" points="130,-0.5 130,-19.5 182,-19.5 182,-0.5 130,-0.5"/>
<text text-anchor="middle" x="156" y="-7.5" font-family="Helvetica,sans-Serif" font-size="10.00">assert.h</text>
</g>
<!-- Node22&#45;&gt;Node24 -->
<g id="edge33" class="edge"><title>Node22&#45;&gt;Node24</title>
<path fill="none" stroke="midnightblue" d="M96.886,-62.4035C107.646,-53.047 125.071,-37.8948 138.221,-26.4599"/>
<polygon fill="midnightblue" stroke="midnightblue" points="140.883,-28.7835 146.132,-19.5806 136.29,-23.5013 140.883,-28.7835"/>
</g>
<!-- Node27 -->
<g id="node27" class="node"><title>Node27</title>
<polygon fill="none" stroke="#bfbfbf" points="1092.5,-62.5 1092.5,-81.5 1151.5,-81.5 1151.5,-62.5 1092.5,-62.5"/>
<text text-anchor="middle" x="1122" y="-69.5" font-family="Helvetica,sans-Serif" font-size="10.00">exception</text>
</g>
<!-- Node26&#45;&gt;Node27 -->
<g id="edge36" class="edge"><title>Node26&#45;&gt;Node27</title>
<path fill="none" stroke="midnightblue" d="M1122,-124.403C1122,-115.938 1122,-102.728 1122,-91.8199"/>
<polygon fill="midnightblue" stroke="midnightblue" points="1125.5,-91.5806 1122,-81.5806 1118.5,-91.5806 1125.5,-91.5806"/>
</g>
<!-- Node28 -->
<g id="node28" class="node"><title>Node28</title>
<polygon fill="none" stroke="#bfbfbf" points="1169.5,-62.5 1169.5,-81.5 1228.5,-81.5 1228.5,-62.5 1169.5,-62.5"/>
<text text-anchor="middle" x="1199" y="-69.5" font-family="Helvetica,sans-Serif" font-size="10.00">stdexcept</text>
</g>
<!-- Node26&#45;&gt;Node28 -->
<g id="edge37" class="edge"><title>Node26&#45;&gt;Node28</title>
<path fill="none" stroke="midnightblue" d="M1133.03,-124.403C1145.27,-114.869 1165.23,-99.3154 1179.99,-87.8106"/>
<polygon fill="midnightblue" stroke="midnightblue" points="1182.25,-90.4879 1187.99,-81.5806 1177.95,-84.9663 1182.25,-90.4879"/>
</g>
<!-- Node29 -->
<g id="node29" class="node"><title>Node29</title>
<polygon fill="none" stroke="#bfbfbf" points="1247,-62.5 1247,-81.5 1299,-81.5 1299,-62.5 1247,-62.5"/>
<text text-anchor="middle" x="1273" y="-69.5" font-family="Helvetica,sans-Serif" font-size="10.00">sstream</text>
</g>
<!-- Node26&#45;&gt;Node29 -->
<g id="edge38" class="edge"><title>Node26&#45;&gt;Node29</title>
<path fill="none" stroke="midnightblue" d="M1144.53,-124.349C1167.76,-115.393 1204.99,-100.928 1237,-88 1238.88,-87.2392 1240.82,-86.4508 1242.77,-85.6516"/>
<polygon fill="midnightblue" stroke="midnightblue" points="1244.57,-88.6973 1252.47,-81.6444 1241.89,-82.2276 1244.57,-88.6973"/>
</g>
<!-- Node30 -->
<g id="node30" class="node"><title>Node30</title>
<polygon fill="none" stroke="#bfbfbf" points="1317.5,-62.5 1317.5,-81.5 1366.5,-81.5 1366.5,-62.5 1317.5,-62.5"/>
<text text-anchor="middle" x="1342" y="-69.5" font-family="Helvetica,sans-Serif" font-size="10.00">string.h</text>
</g>
<!-- Node26&#45;&gt;Node30 -->
<g id="edge39" class="edge"><title>Node26&#45;&gt;Node30</title>
<path fill="none" stroke="midnightblue" d="M1155.86,-125.568C1201.45,-115.432 1280.07,-97.4551 1308,-88 1310.27,-87.2319 1312.59,-86.3712 1314.91,-85.4608"/>
<polygon fill="midnightblue" stroke="midnightblue" points="1316.37,-88.6448 1324.24,-81.549 1313.66,-82.1896 1316.37,-88.6448"/>
</g>
<!-- Node26&#45;&gt;Node14 -->
<g id="edge40" class="edge"><title>Node26&#45;&gt;Node14</title>
<path fill="none" stroke="midnightblue" d="M1105.67,-124.403C1086.79,-114.468 1055.49,-97.9966 1033.42,-86.3812"/>
<polygon fill="midnightblue" stroke="midnightblue" points="1034.78,-83.1409 1024.3,-81.5806 1031.52,-89.3353 1034.78,-83.1409"/>
</g>
<!-- Node32 -->
<g id="node32" class="node"><title>Node32</title>
<g id="a_node32"><a xlink:href="compiler_8h_source.html" target="_top" xlink:title="compiler.h">
<polygon fill="none" stroke="black" points="656,-62.5 656,-81.5 718,-81.5 718,-62.5 656,-62.5"/>
<text text-anchor="middle" x="687" y="-69.5" font-family="Helvetica,sans-Serif" font-size="10.00">compiler.h</text>
</a>
</g>
</g>
<!-- Node31&#45;&gt;Node32 -->
<g id="edge42" class="edge"><title>Node31&#45;&gt;Node32</title>
<path fill="none" stroke="midnightblue" d="M451.109,-124.467C502.685,-113.214 593.046,-93.4991 645.696,-82.0118"/>
<polygon fill="midnightblue" stroke="midnightblue" points="646.676,-85.3803 655.7,-79.829 645.184,-78.5412 646.676,-85.3803"/>
</g>
<!-- Node34 -->
<g id="node34" class="node"><title>Node34</title>
<g id="a_node34"><a xlink:href="dimension_8h_source.html" target="_top" xlink:title="dimension.h">
<polygon fill="none" stroke="black" points="362.5,-62.5 362.5,-81.5 431.5,-81.5 431.5,-62.5 362.5,-62.5"/>
<text text-anchor="middle" x="397" y="-69.5" font-family="Helvetica,sans-Serif" font-size="10.00">dimension.h</text>
</a>
</g>
</g>
<!-- Node31&#45;&gt;Node34 -->
<g id="edge44" class="edge"><title>Node31&#45;&gt;Node34</title>
<path fill="none" stroke="midnightblue" d="M409.851,-124.403C407.712,-115.849 404.362,-102.45 401.619,-91.4762"/>
<polygon fill="midnightblue" stroke="midnightblue" points="404.966,-90.4331 399.145,-81.5806 398.175,-92.1309 404.966,-90.4331"/>
</g>
<!-- Node33 -->
<g id="node33" class="node"><title>Node33</title>
<polygon fill="none" stroke="#bfbfbf" points="655,-0.5 655,-19.5 719,-19.5 719,-0.5 655,-0.5"/>
<text text-anchor="middle" x="687" y="-7.5" font-family="Helvetica,sans-Serif" font-size="10.00">psiconfig.h</text>
</g>
<!-- Node32&#45;&gt;Node33 -->
<g id="edge43" class="edge"><title>Node32&#45;&gt;Node33</title>
<path fill="none" stroke="midnightblue" d="M687,-62.4035C687,-53.9381 687,-40.7283 687,-29.8199"/>
<polygon fill="midnightblue" stroke="midnightblue" points="690.5,-29.5806 687,-19.5806 683.5,-29.5806 690.5,-29.5806"/>
</g>
<!-- Node34&#45;&gt;Node7 -->
<g id="edge45" class="edge"><title>Node34&#45;&gt;Node7</title>
<path fill="none" stroke="midnightblue" d="M400.868,-62.4035C404.798,-53.6707 411,-39.8893 415.993,-28.7936"/>
<polygon fill="midnightblue" stroke="midnightblue" points="419.227,-30.1361 420.139,-19.5806 412.843,-27.2635 419.227,-30.1361"/>
</g>
<!-- Node34&#45;&gt;Node3 -->
<g id="edge46" class="edge"><title>Node34&#45;&gt;Node3</title>
<path fill="none" stroke="midnightblue" d="M371.927,-62.4035C340.75,-51.7144 287.512,-33.4611 253.581,-21.8277"/>
<polygon fill="midnightblue" stroke="midnightblue" points="254.311,-18.3781 243.716,-18.4456 252.041,-24.9998 254.311,-18.3781"/>
</g>
<!-- Node34&#45;&gt;Node18 -->
<g id="edge47" class="edge"><title>Node34&#45;&gt;Node18</title>
<path fill="none" stroke="midnightblue" d="M413.62,-62.4035C432.915,-52.4232 464.959,-35.8487 487.431,-24.2253"/>
<polygon fill="midnightblue" stroke="midnightblue" points="489.137,-27.2836 496.411,-19.5806 485.921,-21.0661 489.137,-27.2836"/>
</g>
</g>
</svg>
