<?xml version="1.0" encoding="UTF-8" standalone="no"?>
<!DOCTYPE svg PUBLIC "-//W3C//DTD SVG 1.1//EN"
 "http://www.w3.org/Graphics/SVG/1.1/DTD/svg11.dtd">
<!-- Generated by graphviz version 2.30.1 (20140110.0959)
 -->
<!-- Title: file2_mat_wrt.cc Pages: 1 -->
<svg width="414pt" height="140pt"
 viewBox="0.00 0.00 414.00 140.00" xmlns="http://www.w3.org/2000/svg" xmlns:xlink="http://www.w3.org/1999/xlink">
<g id="graph0" class="graph" transform="scale(1 1) rotate(0) translate(4 136)">
<title>file2_mat_wrt.cc</title>
<!-- Node1 -->
<g id="node1" class="node"><title>Node1</title>
<polygon fill="#bfbfbf" stroke="black" points="107.5,-112.5 107.5,-131.5 196.5,-131.5 196.5,-112.5 107.5,-112.5"/>
<text text-anchor="middle" x="152" y="-119.5" font-family="Helvetica,sans-Serif" font-size="10.00">file2_mat_wrt.cc</text>
</g>
<!-- Node2 -->
<g id="node2" class="node"><title>Node2</title>
<g id="a_node2"><a xlink:href="psio_8h_source.html" target="_top" xlink:title="libpsio/psio.h">
<polygon fill="none" stroke="black" points="77,-56.5 77,-75.5 151,-75.5 151,-56.5 77,-56.5"/>
<text text-anchor="middle" x="114" y="-63.5" font-family="Helvetica,sans-Serif" font-size="10.00">libpsio/psio.h</text>
</a>
</g>
</g>
<!-- Node1&#45;&gt;Node2 -->
<g id="edge1" class="edge"><title>Node1&#45;&gt;Node2</title>
<path fill="none" stroke="midnightblue" d="M145.725,-112.083C140.358,-104.455 132.482,-93.2645 125.921,-83.9408"/>
<polygon fill="midnightblue" stroke="midnightblue" points="128.775,-81.9149 120.158,-75.7511 123.051,-85.9434 128.775,-81.9149"/>
</g>
<!-- Node5 -->
<g id="node5" class="node"><title>Node5</title>
<g id="a_node5"><a xlink:href="lib_2libdpd_2dpd_8h.html" target="_top" xlink:title="Enter brief description of file here.">
<polygon fill="none" stroke="black" points="169.5,-56.5 169.5,-75.5 210.5,-75.5 210.5,-56.5 169.5,-56.5"/>
<text text-anchor="middle" x="190" y="-63.5" font-family="Helvetica,sans-Serif" font-size="10.00">dpd.h</text>
</a>
</g>
</g>
<!-- Node1&#45;&gt;Node5 -->
<g id="edge4" class="edge"><title>Node1&#45;&gt;Node5</title>
<path fill="none" stroke="midnightblue" d="M158.275,-112.083C163.642,-104.455 171.518,-93.2645 178.079,-83.9408"/>
<polygon fill="midnightblue" stroke="midnightblue" points="180.949,-85.9434 183.842,-75.7511 175.225,-81.9149 180.949,-85.9434"/>
</g>
<!-- Node3 -->
<g id="node3" class="node"><title>Node3</title>
<polygon fill="none" stroke="#bfbfbf" points="100.5,-0.5 100.5,-19.5 143.5,-19.5 143.5,-0.5 100.5,-0.5"/>
<text text-anchor="middle" x="122" y="-7.5" font-family="Helvetica,sans-Serif" font-size="10.00">cstdio</text>
</g>
<!-- Node2&#45;&gt;Node3 -->
<g id="edge2" class="edge"><title>Node2&#45;&gt;Node3</title>
<path fill="none" stroke="midnightblue" d="M115.321,-56.083C116.381,-48.9272 117.906,-38.6353 119.231,-29.6911"/>
<polygon fill="midnightblue" stroke="midnightblue" points="122.7,-30.1561 120.704,-19.7511 115.776,-29.1302 122.7,-30.1561"/>
</g>
<!-- Node4 -->
<g id="node4" class="node"><title>Node4</title>
<g id="a_node4"><a xlink:href="libpsio_2config_8h_source.html" target="_top" xlink:title="libpsio/config.h">
<polygon fill="none" stroke="black" points="0,-0.5 0,-19.5 82,-19.5 82,-0.5 0,-0.5"/>
<text text-anchor="middle" x="41" y="-7.5" font-family="Helvetica,sans-Serif" font-size="10.00">libpsio/config.h</text>
</a>
</g>
</g>
<!-- Node2&#45;&gt;Node4 -->
<g id="edge3" class="edge"><title>Node2&#45;&gt;Node4</title>
<path fill="none" stroke="midnightblue" d="M102.271,-56.324C91.1626,-48.1066 74.2578,-35.6017 61.0167,-25.8069"/>
<polygon fill="midnightblue" stroke="midnightblue" points="63.0631,-22.9671 52.9421,-19.8339 58.9001,-28.5948 63.0631,-22.9671"/>
</g>
<!-- Node5&#45;&gt;Node3 -->
<g id="edge5" class="edge"><title>Node5&#45;&gt;Node3</title>
<path fill="none" stroke="midnightblue" d="M179.075,-56.324C168.825,-48.1849 153.279,-35.8395 140.999,-26.0874"/>
<polygon fill="midnightblue" stroke="midnightblue" points="143.132,-23.3119 133.124,-19.8339 138.779,-28.7937 143.132,-23.3119"/>
</g>
<!-- Node6 -->
<g id="node6" class="node"><title>Node6</title>
<g id="a_node6"><a xlink:href="psifiles_8h_source.html" target="_top" xlink:title="psifiles.h">
<polygon fill="none" stroke="black" points="162,-0.5 162,-19.5 218,-19.5 218,-0.5 162,-0.5"/>
<text text-anchor="middle" x="190" y="-7.5" font-family="Helvetica,sans-Serif" font-size="10.00">psifiles.h</text>
</a>
</g>
</g>
<!-- Node5&#45;&gt;Node6 -->
<g id="edge6" class="edge"><title>Node5&#45;&gt;Node6</title>
<path fill="none" stroke="midnightblue" d="M190,-56.083C190,-49.0059 190,-38.8611 190,-29.9865"/>
<polygon fill="midnightblue" stroke="midnightblue" points="193.5,-29.751 190,-19.7511 186.5,-29.7511 193.5,-29.751"/>
</g>
<!-- Node5&#45;&gt;Node4 -->
<g id="edge7" class="edge"><title>Node5&#45;&gt;Node4</title>
<path fill="none" stroke="midnightblue" d="M169.282,-57.4915C144.676,-48.5739 103.309,-33.5819 74.2171,-23.0384"/>
<polygon fill="midnightblue" stroke="midnightblue" points="75.0804,-19.6286 64.4862,-19.5118 72.6952,-26.2097 75.0804,-19.6286"/>
</g>
<!-- Node7 -->
<g id="node7" class="node"><title>Node7</title>
<polygon fill="none" stroke="#bfbfbf" points="236,-0.5 236,-19.5 344,-19.5 344,-0.5 236,-0.5"/>
<text text-anchor="middle" x="290" y="-7.5" font-family="Helvetica,sans-Serif" font-size="10.00">boost/shared_ptr.hpp</text>
</g>
<!-- Node5&#45;&gt;Node7 -->
<g id="edge8" class="edge"><title>Node5&#45;&gt;Node7</title>
<path fill="none" stroke="midnightblue" d="M206.067,-56.324C221.958,-47.7428 246.507,-34.486 264.958,-24.5224"/>
<polygon fill="midnightblue" stroke="midnightblue" points="266.837,-27.4857 273.973,-19.6545 263.511,-21.3264 266.837,-27.4857"/>
</g>
<!-- Node8 -->
<g id="node8" class="node"><title>Node8</title>
<polygon fill="none" stroke="#bfbfbf" points="362,-0.5 362,-19.5 406,-19.5 406,-0.5 362,-0.5"/>
<text text-anchor="middle" x="384" y="-7.5" font-family="Helvetica,sans-Serif" font-size="10.00">vector</text>
</g>
<!-- Node5&#45;&gt;Node8 -->
<g id="edge9" class="edge"><title>Node5&#45;&gt;Node8</title>
<path fill="none" stroke="midnightblue" d="M210.609,-59.404C239.868,-51.4392 295.365,-36.2587 352.134,-20.2186"/>
<polygon fill="midnightblue" stroke="midnightblue" points="353.326,-23.5189 361.995,-17.4274 351.42,-16.7835 353.326,-23.5189"/>
</g>
</g>
</svg>
