<?xml version="1.0" encoding="UTF-8" standalone="no"?>
<!DOCTYPE svg PUBLIC "-//W3C//DTD SVG 1.1//EN"
 "http://www.w3.org/Graphics/SVG/1.1/DTD/svg11.dtd">
<!-- Generated by graphviz version 2.30.1 (20140110.0959)
 -->
<!-- Title: file2_scm.cc Pages: 1 -->
<svg width="472pt" height="140pt"
 viewBox="0.00 0.00 472.00 140.00" xmlns="http://www.w3.org/2000/svg" xmlns:xlink="http://www.w3.org/1999/xlink">
<g id="graph0" class="graph" transform="scale(1 1) rotate(0) translate(4 136)">
<title>file2_scm.cc</title>
<!-- Node1 -->
<g id="node1" class="node"><title>Node1</title>
<polygon fill="#bfbfbf" stroke="black" points="307,-112.5 307,-131.5 379,-131.5 379,-112.5 307,-112.5"/>
<text text-anchor="middle" x="343" y="-119.5" font-family="Helvetica,sans-Serif" font-size="10.00">file2_scm.cc</text>
</g>
<!-- Node2 -->
<g id="node2" class="node"><title>Node2</title>
<polygon fill="none" stroke="#bfbfbf" points="362.5,-0.5 362.5,-19.5 405.5,-19.5 405.5,-0.5 362.5,-0.5"/>
<text text-anchor="middle" x="384" y="-7.5" font-family="Helvetica,sans-Serif" font-size="10.00">cstdio</text>
</g>
<!-- Node1&#45;&gt;Node2 -->
<g id="edge1" class="edge"><title>Node1&#45;&gt;Node2</title>
<path fill="none" stroke="midnightblue" d="M346.217,-112.368C352.864,-94.5366 368.235,-53.2953 377.19,-29.2717"/>
<polygon fill="midnightblue" stroke="midnightblue" points="380.585,-30.1841 380.798,-19.5914 374.026,-27.7393 380.585,-30.1841"/>
</g>
<!-- Node3 -->
<g id="node3" class="node"><title>Node3</title>
<g id="a_node3"><a xlink:href="lib_2libdpd_2dpd_8h.html" target="_top" xlink:title="Enter brief description of file here.">
<polygon fill="none" stroke="black" points="203.5,-56.5 203.5,-75.5 244.5,-75.5 244.5,-56.5 203.5,-56.5"/>
<text text-anchor="middle" x="224" y="-63.5" font-family="Helvetica,sans-Serif" font-size="10.00">dpd.h</text>
</a>
</g>
</g>
<!-- Node1&#45;&gt;Node3 -->
<g id="edge2" class="edge"><title>Node1&#45;&gt;Node3</title>
<path fill="none" stroke="midnightblue" d="M324.144,-112.444C304.734,-103.636 274.27,-89.8116 252.035,-79.722"/>
<polygon fill="midnightblue" stroke="midnightblue" points="253.32,-76.4615 242.768,-75.5164 250.428,-82.836 253.32,-76.4615"/>
</g>
<!-- Node8 -->
<g id="node8" class="node"><title>Node8</title>
<g id="a_node8"><a xlink:href="qt_8h.html" target="_top" xlink:title="Header file for the Quantum Trio LibraryDavid Sherrill 1994.">
<polygon fill="none" stroke="black" points="404,-56.5 404,-75.5 458,-75.5 458,-56.5 404,-56.5"/>
<text text-anchor="middle" x="431" y="-63.5" font-family="Helvetica,sans-Serif" font-size="10.00">libqt/qt.h</text>
</a>
</g>
</g>
<!-- Node1&#45;&gt;Node8 -->
<g id="edge8" class="edge"><title>Node1&#45;&gt;Node8</title>
<path fill="none" stroke="midnightblue" d="M357.139,-112.324C370.866,-103.9 391.936,-90.9709 408.064,-81.0741"/>
<polygon fill="midnightblue" stroke="midnightblue" points="410.204,-83.8678 416.896,-75.6545 406.543,-77.9016 410.204,-83.8678"/>
</g>
<!-- Node10 -->
<g id="node10" class="node"><title>Node10</title>
<g id="a_node10"><a xlink:href="psio_8h_source.html" target="_top" xlink:title="libpsio/psio.h">
<polygon fill="none" stroke="black" points="274,-56.5 274,-75.5 348,-75.5 348,-56.5 274,-56.5"/>
<text text-anchor="middle" x="311" y="-63.5" font-family="Helvetica,sans-Serif" font-size="10.00">libpsio/psio.h</text>
</a>
</g>
</g>
<!-- Node1&#45;&gt;Node10 -->
<g id="edge11" class="edge"><title>Node1&#45;&gt;Node10</title>
<path fill="none" stroke="midnightblue" d="M337.716,-112.083C333.289,-104.613 326.837,-93.7244 321.382,-84.5199"/>
<polygon fill="midnightblue" stroke="midnightblue" points="324.295,-82.5697 316.186,-75.7511 318.273,-86.1383 324.295,-82.5697"/>
</g>
<!-- Node3&#45;&gt;Node2 -->
<g id="edge3" class="edge"><title>Node3&#45;&gt;Node2</title>
<path fill="none" stroke="midnightblue" d="M244.59,-58.051C272.007,-48.7977 320.752,-32.3462 352.725,-21.5553"/>
<polygon fill="midnightblue" stroke="midnightblue" points="354.113,-24.781 362.468,-18.2669 351.874,-18.1485 354.113,-24.781"/>
</g>
<!-- Node4 -->
<g id="node4" class="node"><title>Node4</title>
<g id="a_node4"><a xlink:href="psifiles_8h_source.html" target="_top" xlink:title="psifiles.h">
<polygon fill="none" stroke="black" points="0,-0.5 0,-19.5 56,-19.5 56,-0.5 0,-0.5"/>
<text text-anchor="middle" x="28" y="-7.5" font-family="Helvetica,sans-Serif" font-size="10.00">psifiles.h</text>
</a>
</g>
</g>
<!-- Node3&#45;&gt;Node4 -->
<g id="edge4" class="edge"><title>Node3&#45;&gt;Node4</title>
<path fill="none" stroke="midnightblue" d="M203.395,-59.3231C170.798,-50.3424 106.836,-32.7202 65.8211,-21.4201"/>
<polygon fill="midnightblue" stroke="midnightblue" points="66.7446,-18.0442 56.1741,-18.7622 64.8852,-24.7927 66.7446,-18.0442"/>
</g>
<!-- Node5 -->
<g id="node5" class="node"><title>Node5</title>
<g id="a_node5"><a xlink:href="libpsio_2config_8h_source.html" target="_top" xlink:title="libpsio/config.h">
<polygon fill="none" stroke="black" points="262,-0.5 262,-19.5 344,-19.5 344,-0.5 262,-0.5"/>
<text text-anchor="middle" x="303" y="-7.5" font-family="Helvetica,sans-Serif" font-size="10.00">libpsio/config.h</text>
</a>
</g>
</g>
<!-- Node3&#45;&gt;Node5 -->
<g id="edge5" class="edge"><title>Node3&#45;&gt;Node5</title>
<path fill="none" stroke="midnightblue" d="M236.693,-56.324C248.901,-47.979 267.578,-35.2122 282.003,-25.3524"/>
<polygon fill="midnightblue" stroke="midnightblue" points="284.058,-28.1871 290.339,-19.6545 280.108,-22.4082 284.058,-28.1871"/>
</g>
<!-- Node6 -->
<g id="node6" class="node"><title>Node6</title>
<polygon fill="none" stroke="#bfbfbf" points="74,-0.5 74,-19.5 182,-19.5 182,-0.5 74,-0.5"/>
<text text-anchor="middle" x="128" y="-7.5" font-family="Helvetica,sans-Serif" font-size="10.00">boost/shared_ptr.hpp</text>
</g>
<!-- Node3&#45;&gt;Node6 -->
<g id="edge6" class="edge"><title>Node3&#45;&gt;Node6</title>
<path fill="none" stroke="midnightblue" d="M208.576,-56.324C193.46,-47.8215 170.185,-34.7288 152.529,-24.7975"/>
<polygon fill="midnightblue" stroke="midnightblue" points="153.817,-21.5066 143.386,-19.6545 150.386,-27.6077 153.817,-21.5066"/>
</g>
<!-- Node7 -->
<g id="node7" class="node"><title>Node7</title>
<polygon fill="none" stroke="#bfbfbf" points="200,-0.5 200,-19.5 244,-19.5 244,-0.5 200,-0.5"/>
<text text-anchor="middle" x="222" y="-7.5" font-family="Helvetica,sans-Serif" font-size="10.00">vector</text>
</g>
<!-- Node3&#45;&gt;Node7 -->
<g id="edge7" class="edge"><title>Node3&#45;&gt;Node7</title>
<path fill="none" stroke="midnightblue" d="M223.67,-56.083C223.408,-49.0059 223.032,-38.8611 222.703,-29.9865"/>
<polygon fill="midnightblue" stroke="midnightblue" points="226.192,-29.6147 222.324,-19.7511 219.197,-29.8738 226.192,-29.6147"/>
</g>
<!-- Node8&#45;&gt;Node2 -->
<g id="edge9" class="edge"><title>Node8&#45;&gt;Node2</title>
<path fill="none" stroke="midnightblue" d="M423.239,-56.083C416.463,-48.2982 406.457,-36.8015 398.245,-27.3665"/>
<polygon fill="midnightblue" stroke="midnightblue" points="400.822,-24.9963 391.617,-19.7511 395.542,-29.592 400.822,-24.9963"/>
</g>
<!-- Node9 -->
<g id="node9" class="node"><title>Node9</title>
<polygon fill="none" stroke="#bfbfbf" points="423.5,-0.5 423.5,-19.5 464.5,-19.5 464.5,-0.5 423.5,-0.5"/>
<text text-anchor="middle" x="444" y="-7.5" font-family="Helvetica,sans-Serif" font-size="10.00">string</text>
</g>
<!-- Node8&#45;&gt;Node9 -->
<g id="edge10" class="edge"><title>Node8&#45;&gt;Node9</title>
<path fill="none" stroke="midnightblue" d="M433.147,-56.083C434.869,-48.9272 437.347,-38.6353 439.5,-29.6911"/>
<polygon fill="midnightblue" stroke="midnightblue" points="442.955,-30.2925 441.893,-19.7511 436.15,-28.6541 442.955,-30.2925"/>
</g>
<!-- Node10&#45;&gt;Node2 -->
<g id="edge12" class="edge"><title>Node10&#45;&gt;Node2</title>
<path fill="none" stroke="midnightblue" d="M322.729,-56.324C333.837,-48.1066 350.742,-35.6017 363.983,-25.8069"/>
<polygon fill="midnightblue" stroke="midnightblue" points="366.1,-28.5948 372.058,-19.8339 361.937,-22.9671 366.1,-28.5948"/>
</g>
<!-- Node10&#45;&gt;Node5 -->
<g id="edge13" class="edge"><title>Node10&#45;&gt;Node5</title>
<path fill="none" stroke="midnightblue" d="M309.679,-56.083C308.619,-48.9272 307.094,-38.6353 305.769,-29.6911"/>
<polygon fill="midnightblue" stroke="midnightblue" points="309.224,-29.1302 304.296,-19.7511 302.3,-30.1561 309.224,-29.1302"/>
</g>
</g>
</svg>
