<?xml version="1.0" encoding="UTF-8" standalone="no"?>
<!DOCTYPE svg PUBLIC "-//W3C//DTD SVG 1.1//EN"
 "http://www.w3.org/Graphics/SVG/1.1/DTD/svg11.dtd">
<!-- Generated by graphviz version 2.30.1 (20140110.0959)
 -->
<!-- Title: file2_init.cc Pages: 1 -->
<svg width="413pt" height="140pt"
 viewBox="0.00 0.00 413.00 140.00" xmlns="http://www.w3.org/2000/svg" xmlns:xlink="http://www.w3.org/1999/xlink">
<g id="graph0" class="graph" transform="scale(1 1) rotate(0) translate(4 136)">
<title>file2_init.cc</title>
<!-- Node1 -->
<g id="node1" class="node"><title>Node1</title>
<polygon fill="#bfbfbf" stroke="black" points="141,-112.5 141,-131.5 207,-131.5 207,-112.5 141,-112.5"/>
<text text-anchor="middle" x="174" y="-119.5" font-family="Helvetica,sans-Serif" font-size="10.00">file2_init.cc</text>
</g>
<!-- Node2 -->
<g id="node2" class="node"><title>Node2</title>
<polygon fill="none" stroke="#bfbfbf" points="-0.5,-0.5 -0.5,-19.5 42.5,-19.5 42.5,-0.5 -0.5,-0.5"/>
<text text-anchor="middle" x="21" y="-7.5" font-family="Helvetica,sans-Serif" font-size="10.00">cstdio</text>
</g>
<!-- Node1&#45;&gt;Node2 -->
<g id="edge1" class="edge"><title>Node1&#45;&gt;Node2</title>
<path fill="none" stroke="midnightblue" d="M140.901,-115.869C114.102,-110.196 76.8498,-98.6708 52,-76 38.4574,-63.6449 30.2585,-44.1196 25.7246,-29.6907"/>
<polygon fill="midnightblue" stroke="midnightblue" points="29.0322,-28.5244 22.9442,-19.8534 22.2961,-30.4284 29.0322,-28.5244"/>
</g>
<!-- Node3 -->
<g id="node3" class="node"><title>Node3</title>
<polygon fill="none" stroke="#bfbfbf" points="212.5,-56.5 212.5,-75.5 257.5,-75.5 257.5,-56.5 212.5,-56.5"/>
<text text-anchor="middle" x="235" y="-63.5" font-family="Helvetica,sans-Serif" font-size="10.00">cstdlib</text>
</g>
<!-- Node1&#45;&gt;Node3 -->
<g id="edge2" class="edge"><title>Node1&#45;&gt;Node3</title>
<path fill="none" stroke="midnightblue" d="M183.801,-112.324C192.818,-104.341 206.406,-92.3128 217.318,-82.6529"/>
<polygon fill="midnightblue" stroke="midnightblue" points="219.853,-85.083 225.021,-75.8339 215.213,-79.8416 219.853,-85.083"/>
</g>
<!-- Node4 -->
<g id="node4" class="node"><title>Node4</title>
<polygon fill="none" stroke="#bfbfbf" points="276,-56.5 276,-75.5 322,-75.5 322,-56.5 276,-56.5"/>
<text text-anchor="middle" x="299" y="-63.5" font-family="Helvetica,sans-Serif" font-size="10.00">cstring</text>
</g>
<!-- Node1&#45;&gt;Node4 -->
<g id="edge3" class="edge"><title>Node1&#45;&gt;Node4</title>
<path fill="none" stroke="midnightblue" d="M193.807,-112.444C214.287,-103.596 246.483,-89.6875 269.865,-79.5865"/>
<polygon fill="midnightblue" stroke="midnightblue" points="271.494,-82.6953 279.286,-75.5164 268.718,-76.2692 271.494,-82.6953"/>
</g>
<!-- Node5 -->
<g id="node5" class="node"><title>Node5</title>
<g id="a_node5"><a xlink:href="psio_8h_source.html" target="_top" xlink:title="libpsio/psio.h">
<polygon fill="none" stroke="black" points="61,-56.5 61,-75.5 135,-75.5 135,-56.5 61,-56.5"/>
<text text-anchor="middle" x="98" y="-63.5" font-family="Helvetica,sans-Serif" font-size="10.00">libpsio/psio.h</text>
</a>
</g>
</g>
<!-- Node1&#45;&gt;Node5 -->
<g id="edge4" class="edge"><title>Node1&#45;&gt;Node5</title>
<path fill="none" stroke="midnightblue" d="M161.789,-112.324C150.224,-104.107 132.625,-91.6017 118.839,-81.8069"/>
<polygon fill="midnightblue" stroke="midnightblue" points="120.612,-78.7729 110.433,-75.8339 116.557,-84.4791 120.612,-78.7729"/>
</g>
<!-- Node7 -->
<g id="node7" class="node"><title>Node7</title>
<g id="a_node7"><a xlink:href="lib_2libdpd_2dpd_8h.html" target="_top" xlink:title="Enter brief description of file here.">
<polygon fill="none" stroke="black" points="153.5,-56.5 153.5,-75.5 194.5,-75.5 194.5,-56.5 153.5,-56.5"/>
<text text-anchor="middle" x="174" y="-63.5" font-family="Helvetica,sans-Serif" font-size="10.00">dpd.h</text>
</a>
</g>
</g>
<!-- Node1&#45;&gt;Node7 -->
<g id="edge7" class="edge"><title>Node1&#45;&gt;Node7</title>
<path fill="none" stroke="midnightblue" d="M174,-112.083C174,-105.006 174,-94.8611 174,-85.9865"/>
<polygon fill="midnightblue" stroke="midnightblue" points="177.5,-85.751 174,-75.7511 170.5,-85.7511 177.5,-85.751"/>
</g>
<!-- Node5&#45;&gt;Node2 -->
<g id="edge5" class="edge"><title>Node5&#45;&gt;Node2</title>
<path fill="none" stroke="midnightblue" d="M85.6286,-56.324C73.8415,-48.0577 55.8677,-35.4527 41.8645,-25.6322"/>
<polygon fill="midnightblue" stroke="midnightblue" points="43.5376,-22.5307 33.3407,-19.6545 39.5184,-28.2619 43.5376,-22.5307"/>
</g>
<!-- Node6 -->
<g id="node6" class="node"><title>Node6</title>
<g id="a_node6"><a xlink:href="libpsio_2config_8h_source.html" target="_top" xlink:title="libpsio/config.h">
<polygon fill="none" stroke="black" points="61,-0.5 61,-19.5 143,-19.5 143,-0.5 61,-0.5"/>
<text text-anchor="middle" x="102" y="-7.5" font-family="Helvetica,sans-Serif" font-size="10.00">libpsio/config.h</text>
</a>
</g>
</g>
<!-- Node5&#45;&gt;Node6 -->
<g id="edge6" class="edge"><title>Node5&#45;&gt;Node6</title>
<path fill="none" stroke="midnightblue" d="M98.6605,-56.083C99.1848,-49.0059 99.9362,-38.8611 100.594,-29.9865"/>
<polygon fill="midnightblue" stroke="midnightblue" points="104.103,-29.9823 101.352,-19.7511 97.1225,-29.4652 104.103,-29.9823"/>
</g>
<!-- Node7&#45;&gt;Node2 -->
<g id="edge8" class="edge"><title>Node7&#45;&gt;Node2</title>
<path fill="none" stroke="midnightblue" d="M153.366,-57.7173C127.424,-48.5612 82.635,-32.7535 52.4247,-22.0911"/>
<polygon fill="midnightblue" stroke="midnightblue" points="53.3814,-18.7172 42.7866,-18.6894 51.0516,-25.3181 53.3814,-18.7172"/>
</g>
<!-- Node8 -->
<g id="node8" class="node"><title>Node8</title>
<g id="a_node8"><a xlink:href="psifiles_8h_source.html" target="_top" xlink:title="psifiles.h">
<polygon fill="none" stroke="black" points="161,-0.5 161,-19.5 217,-19.5 217,-0.5 161,-0.5"/>
<text text-anchor="middle" x="189" y="-7.5" font-family="Helvetica,sans-Serif" font-size="10.00">psifiles.h</text>
</a>
</g>
</g>
<!-- Node7&#45;&gt;Node8 -->
<g id="edge9" class="edge"><title>Node7&#45;&gt;Node8</title>
<path fill="none" stroke="midnightblue" d="M176.477,-56.083C178.486,-48.8486 181.386,-38.4087 183.89,-29.3968"/>
<polygon fill="midnightblue" stroke="midnightblue" points="187.265,-30.323 186.569,-19.7511 180.52,-28.4495 187.265,-30.323"/>
</g>
<!-- Node7&#45;&gt;Node6 -->
<g id="edge10" class="edge"><title>Node7&#45;&gt;Node6</title>
<path fill="none" stroke="midnightblue" d="M162.432,-56.324C151.58,-48.1849 135.119,-35.8395 122.117,-26.0874"/>
<polygon fill="midnightblue" stroke="midnightblue" points="123.879,-23.0339 113.779,-19.8339 119.679,-28.6339 123.879,-23.0339"/>
</g>
<!-- Node9 -->
<g id="node9" class="node"><title>Node9</title>
<polygon fill="none" stroke="#bfbfbf" points="235,-0.5 235,-19.5 343,-19.5 343,-0.5 235,-0.5"/>
<text text-anchor="middle" x="289" y="-7.5" font-family="Helvetica,sans-Serif" font-size="10.00">boost/shared_ptr.hpp</text>
</g>
<!-- Node7&#45;&gt;Node9 -->
<g id="edge11" class="edge"><title>Node7&#45;&gt;Node9</title>
<path fill="none" stroke="midnightblue" d="M192.222,-56.4435C210.896,-47.6751 240.156,-33.9355 261.617,-23.8579"/>
<polygon fill="midnightblue" stroke="midnightblue" points="263.299,-26.935 270.863,-19.5164 260.324,-20.5988 263.299,-26.935"/>
</g>
<!-- Node10 -->
<g id="node10" class="node"><title>Node10</title>
<polygon fill="none" stroke="#bfbfbf" points="361,-0.5 361,-19.5 405,-19.5 405,-0.5 361,-0.5"/>
<text text-anchor="middle" x="383" y="-7.5" font-family="Helvetica,sans-Serif" font-size="10.00">vector</text>
</g>
<!-- Node7&#45;&gt;Node10 -->
<g id="edge12" class="edge"><title>Node7&#45;&gt;Node10</title>
<path fill="none" stroke="midnightblue" d="M194.616,-58.6592C197.752,-57.7399 200.956,-56.8261 204,-56 266.27,-39.0989 284.866,-37.556 350.626,-20.2742"/>
<polygon fill="midnightblue" stroke="midnightblue" points="351.914,-23.5538 360.682,-17.6065 350.119,-16.7879 351.914,-23.5538"/>
</g>
</g>
</svg>
