<?xml version="1.0" encoding="UTF-8" standalone="no"?>
<!DOCTYPE svg PUBLIC "-//W3C//DTD SVG 1.1//EN"
 "http://www.w3.org/Graphics/SVG/1.1/DTD/svg11.dtd">
<!-- Generated by graphviz version 2.30.1 (20140110.0959)
 -->
<!-- Title: form_ov.cc Pages: 1 -->
<svg width="1367pt" height="320pt"
 viewBox="0.00 0.00 1366.71 320.00" xmlns="http://www.w3.org/2000/svg" xmlns:xlink="http://www.w3.org/1999/xlink">
<g id="graph0" class="graph" transform="scale(1 1) rotate(0) translate(4 316)">
<title>form_ov.cc</title>
<!-- Node1 -->
<g id="node1" class="node"><title>Node1</title>
<polygon fill="#bfbfbf" stroke="black" points="119.5,-292.5 119.5,-311.5 184.5,-311.5 184.5,-292.5 119.5,-292.5"/>
<text text-anchor="middle" x="152" y="-299.5" font-family="Helvetica,sans-Serif" font-size="10.00">form_ov.cc</text>
</g>
<!-- Node2 -->
<g id="node2" class="node"><title>Node2</title>
<polygon fill="none" stroke="#bfbfbf" points="162.5,-0.5 162.5,-19.5 205.5,-19.5 205.5,-0.5 162.5,-0.5"/>
<text text-anchor="middle" x="184" y="-7.5" font-family="Helvetica,sans-Serif" font-size="10.00">cstdio</text>
</g>
<!-- Node1&#45;&gt;Node2 -->
<g id="edge1" class="edge"><title>Node1&#45;&gt;Node2</title>
<path fill="none" stroke="midnightblue" d="M119.392,-293.066C74.7296,-280.026 0,-249.471 0,-191 0,-191 0,-191 0,-133 0,-60.775 99.6948,-28.7753 152.317,-16.9155"/>
<polygon fill="midnightblue" stroke="midnightblue" points="153.124,-20.322 162.17,-14.8061 151.659,-13.4771 153.124,-20.322"/>
</g>
<!-- Node3 -->
<g id="node3" class="node"><title>Node3</title>
<polygon fill="none" stroke="#bfbfbf" points="420.5,-0.5 420.5,-19.5 465.5,-19.5 465.5,-0.5 420.5,-0.5"/>
<text text-anchor="middle" x="443" y="-7.5" font-family="Helvetica,sans-Serif" font-size="10.00">cstdlib</text>
</g>
<!-- Node1&#45;&gt;Node3 -->
<g id="edge2" class="edge"><title>Node1&#45;&gt;Node3</title>
<path fill="none" stroke="midnightblue" d="M150.166,-292.429C142.015,-253.325 110.809,-92.201 142,-56 176.364,-16.1172 339.608,-11.0581 410.27,-10.7745"/>
<polygon fill="midnightblue" stroke="midnightblue" points="410.394,-14.2745 420.391,-10.7645 410.387,-7.27446 410.394,-14.2745"/>
</g>
<!-- Node4 -->
<g id="node4" class="node"><title>Node4</title>
<g id="a_node4"><a xlink:href="libciomr_8h_source.html" target="_top" xlink:title="libciomr/libciomr.h">
<polygon fill="none" stroke="black" points="28.5,-180.5 28.5,-199.5 123.5,-199.5 123.5,-180.5 28.5,-180.5"/>
<text text-anchor="middle" x="76" y="-187.5" font-family="Helvetica,sans-Serif" font-size="10.00">libciomr/libciomr.h</text>
</a>
</g>
</g>
<!-- Node1&#45;&gt;Node4 -->
<g id="edge3" class="edge"><title>Node1&#45;&gt;Node4</title>
<path fill="none" stroke="midnightblue" d="M146.036,-292.368C133.494,-274.215 104.19,-231.802 87.7387,-207.99"/>
<polygon fill="midnightblue" stroke="midnightblue" points="90.4998,-205.829 81.9359,-199.591 84.7407,-209.808 90.4998,-205.829"/>
</g>
<!-- Node5 -->
<g id="node5" class="node"><title>Node5</title>
<g id="a_node5"><a xlink:href="structs_8h.html" target="_top" xlink:title="Enter brief description of file here.">
<polygon fill="none" stroke="black" points="1072.5,-236.5 1072.5,-255.5 1127.5,-255.5 1127.5,-236.5 1072.5,-236.5"/>
<text text-anchor="middle" x="1100" y="-243.5" font-family="Helvetica,sans-Serif" font-size="10.00">structs.h</text>
</a>
</g>
</g>
<!-- Node1&#45;&gt;Node5 -->
<g id="edge5" class="edge"><title>Node1&#45;&gt;Node5</title>
<path fill="none" stroke="midnightblue" d="M184.632,-299.141C328.663,-290.937 907.164,-257.984 1061.82,-249.175"/>
<polygon fill="midnightblue" stroke="midnightblue" points="1062.43,-252.646 1072.21,-248.583 1062.03,-245.657 1062.43,-252.646"/>
</g>
<!-- Node7 -->
<g id="node7" class="node"><title>Node7</title>
<g id="a_node7"><a xlink:href="detci_2globals_8h.html" target="_top" xlink:title="Enter brief description of file here.">
<polygon fill="none" stroke="black" points="746,-236.5 746,-255.5 802,-255.5 802,-236.5 746,-236.5"/>
<text text-anchor="middle" x="774" y="-243.5" font-family="Helvetica,sans-Serif" font-size="10.00">globals.h</text>
</a>
</g>
</g>
<!-- Node1&#45;&gt;Node7 -->
<g id="edge7" class="edge"><title>Node1&#45;&gt;Node7</title>
<path fill="none" stroke="midnightblue" d="M184.566,-298.173C290.023,-289.017 621.902,-260.205 735.454,-250.346"/>
<polygon fill="midnightblue" stroke="midnightblue" points="736.087,-253.805 745.746,-249.453 735.481,-246.831 736.087,-253.805"/>
</g>
<!-- Node4&#45;&gt;Node2 -->
<g id="edge4" class="edge"><title>Node4&#45;&gt;Node2</title>
<path fill="none" stroke="midnightblue" d="M75.9499,-180.271C76.2485,-157.512 79.8587,-95.403 109,-56 120.066,-41.0368 137.727,-30.0866 153.132,-22.7367"/>
<polygon fill="midnightblue" stroke="midnightblue" points="154.647,-25.8933 162.353,-18.6219 151.794,-19.5009 154.647,-25.8933"/>
</g>
<!-- Node6 -->
<g id="node6" class="node"><title>Node6</title>
<polygon fill="none" stroke="#bfbfbf" points="1154.5,-0.5 1154.5,-19.5 1195.5,-19.5 1195.5,-0.5 1154.5,-0.5"/>
<text text-anchor="middle" x="1175" y="-7.5" font-family="Helvetica,sans-Serif" font-size="10.00">string</text>
</g>
<!-- Node5&#45;&gt;Node6 -->
<g id="edge6" class="edge"><title>Node5&#45;&gt;Node6</title>
<path fill="none" stroke="midnightblue" d="M1127.68,-243.796C1182.94,-240.752 1303.77,-230.665 1329,-200 1369.66,-150.574 1367.39,-107.21 1329,-56 1321.48,-45.9625 1248.28,-27.7682 1205.57,-17.8674"/>
<polygon fill="midnightblue" stroke="midnightblue" points="1206.21,-14.4232 1195.68,-15.5967 1204.64,-21.2457 1206.21,-14.4232"/>
</g>
<!-- Node8 -->
<g id="node8" class="node"><title>Node8</title>
<g id="a_node8"><a xlink:href="psi4-dec_8h_source.html" target="_top" xlink:title="psi4&#45;dec.h">
<polygon fill="none" stroke="black" points="743,-180.5 743,-199.5 805,-199.5 805,-180.5 743,-180.5"/>
<text text-anchor="middle" x="774" y="-187.5" font-family="Helvetica,sans-Serif" font-size="10.00">psi4&#45;dec.h</text>
</a>
</g>
</g>
<!-- Node7&#45;&gt;Node8 -->
<g id="edge8" class="edge"><title>Node7&#45;&gt;Node8</title>
<path fill="none" stroke="midnightblue" d="M774,-236.083C774,-229.006 774,-218.861 774,-209.986"/>
<polygon fill="midnightblue" stroke="midnightblue" points="777.5,-209.751 774,-199.751 770.5,-209.751 777.5,-209.751"/>
</g>
<!-- Node7&#45;&gt;Node6 -->
<g id="edge42" class="edge"><title>Node7&#45;&gt;Node6</title>
<path fill="none" stroke="midnightblue" d="M802.114,-244.012C901.061,-239.894 1230.71,-220.55 1295,-144 1320.16,-114.049 1318.32,-88.1182 1296,-56 1285.38,-40.7217 1237.64,-26.3328 1205.4,-18.1062"/>
<polygon fill="midnightblue" stroke="midnightblue" points="1206.09,-14.6715 1195.54,-15.6585 1204.4,-21.4652 1206.09,-14.6715"/>
</g>
<!-- Node9 -->
<g id="node9" class="node"><title>Node9</title>
<polygon fill="none" stroke="#bfbfbf" points="597,-124.5 597,-143.5 705,-143.5 705,-124.5 597,-124.5"/>
<text text-anchor="middle" x="651" y="-131.5" font-family="Helvetica,sans-Serif" font-size="10.00">boost/shared_ptr.hpp</text>
</g>
<!-- Node8&#45;&gt;Node9 -->
<g id="edge9" class="edge"><title>Node8&#45;&gt;Node9</title>
<path fill="none" stroke="midnightblue" d="M754.51,-180.444C734.358,-171.596 702.677,-157.687 679.669,-147.586"/>
<polygon fill="midnightblue" stroke="midnightblue" points="680.962,-144.332 670.399,-143.516 678.148,-150.741 680.962,-144.332"/>
</g>
<!-- Node10 -->
<g id="node10" class="node"><title>Node10</title>
<polygon fill="none" stroke="#bfbfbf" points="443,-62.5 443,-81.5 575,-81.5 575,-62.5 443,-62.5"/>
<text text-anchor="middle" x="509" y="-69.5" font-family="Helvetica,sans-Serif" font-size="10.00">boost/current_function.hpp</text>
</g>
<!-- Node8&#45;&gt;Node10 -->
<g id="edge10" class="edge"><title>Node8&#45;&gt;Node10</title>
<path fill="none" stroke="midnightblue" d="M742.725,-186.167C704.37,-181.658 638.267,-170.473 588,-144 561.879,-130.243 537.533,-105.926 522.957,-89.636"/>
<polygon fill="midnightblue" stroke="midnightblue" points="525.472,-87.1946 516.268,-81.9478 520.191,-91.7894 525.472,-87.1946"/>
</g>
<!-- Node8&#45;&gt;Node6 -->
<g id="edge11" class="edge"><title>Node8&#45;&gt;Node6</title>
<path fill="none" stroke="midnightblue" d="M805.295,-185.405C889.324,-175.089 1116.78,-142.579 1165,-88 1178.98,-72.1711 1179.6,-46.875 1177.97,-29.6293"/>
<polygon fill="midnightblue" stroke="midnightblue" points="1181.43,-29.1151 1176.69,-19.6394 1174.49,-30.0024 1181.43,-29.1151"/>
</g>
<!-- Node11 -->
<g id="node11" class="node"><title>Node11</title>
<polygon fill="none" stroke="#bfbfbf" points="1140.5,-124.5 1140.5,-143.5 1169.5,-143.5 1169.5,-124.5 1140.5,-124.5"/>
<text text-anchor="middle" x="1155" y="-131.5" font-family="Helvetica,sans-Serif" font-size="10.00">list</text>
</g>
<!-- Node8&#45;&gt;Node11 -->
<g id="edge12" class="edge"><title>Node8&#45;&gt;Node11</title>
<path fill="none" stroke="midnightblue" d="M805.387,-186.827C867.282,-182.139 1009.21,-169.387 1126,-144 1127.48,-143.678 1129,-143.315 1130.52,-142.924"/>
<polygon fill="midnightblue" stroke="midnightblue" points="1131.74,-146.214 1140.38,-140.08 1129.8,-139.488 1131.74,-146.214"/>
</g>
<!-- Node12 -->
<g id="node12" class="node"><title>Node12</title>
<polygon fill="none" stroke="#bfbfbf" points="593.5,-62.5 593.5,-81.5 628.5,-81.5 628.5,-62.5 593.5,-62.5"/>
<text text-anchor="middle" x="611" y="-69.5" font-family="Helvetica,sans-Serif" font-size="10.00">map</text>
</g>
<!-- Node8&#45;&gt;Node12 -->
<g id="edge13" class="edge"><title>Node8&#45;&gt;Node12</title>
<path fill="none" stroke="midnightblue" d="M767.834,-180.439C757.803,-166.993 736.768,-140.736 714,-124 683.885,-101.863 671.242,-105.085 638,-88 637.022,-87.4975 636.028,-86.9793 635.026,-86.4512"/>
<polygon fill="midnightblue" stroke="midnightblue" points="636.504,-83.2709 626.044,-81.5833 633.168,-89.4252 636.504,-83.2709"/>
</g>
<!-- Node13 -->
<g id="node13" class="node"><title>Node13</title>
<g id="a_node13"><a xlink:href="liboptions_8h_source.html" target="_top" xlink:title="liboptions/liboptions.h">
<polygon fill="none" stroke="black" points="761,-124.5 761,-143.5 871,-143.5 871,-124.5 761,-124.5"/>
<text text-anchor="middle" x="816" y="-131.5" font-family="Helvetica,sans-Serif" font-size="10.00">liboptions/liboptions.h</text>
</a>
</g>
</g>
<!-- Node8&#45;&gt;Node13 -->
<g id="edge14" class="edge"><title>Node8&#45;&gt;Node13</title>
<path fill="none" stroke="midnightblue" d="M780.935,-180.083C786.929,-172.377 795.752,-161.033 803.048,-151.653"/>
<polygon fill="midnightblue" stroke="midnightblue" points="805.817,-153.793 809.194,-143.751 800.291,-149.496 805.817,-153.793"/>
</g>
<!-- Node22 -->
<g id="node22" class="node"><title>Node22</title>
<g id="a_node22"><a xlink:href="include_2exception_8h_source.html" target="_top" xlink:title="exception.h">
<polygon fill="none" stroke="black" points="328.5,-124.5 328.5,-143.5 395.5,-143.5 395.5,-124.5 328.5,-124.5"/>
<text text-anchor="middle" x="362" y="-131.5" font-family="Helvetica,sans-Serif" font-size="10.00">exception.h</text>
</a>
</g>
</g>
<!-- Node8&#45;&gt;Node22 -->
<g id="edge29" class="edge"><title>Node8&#45;&gt;Node22</title>
<path fill="none" stroke="midnightblue" d="M742.695,-184.897C669.867,-175.352 488.942,-151.638 405.465,-140.697"/>
<polygon fill="midnightblue" stroke="midnightblue" points="405.914,-137.226 395.544,-139.397 405.004,-144.166 405.914,-137.226"/>
</g>
<!-- Node27 -->
<g id="node27" class="node"><title>Node27</title>
<g id="a_node27"><a xlink:href="typedefs_8h_source.html" target="_top" xlink:title="libmints/typedefs.h">
<polygon fill="none" stroke="black" points="1187.5,-124.5 1187.5,-143.5 1286.5,-143.5 1286.5,-124.5 1187.5,-124.5"/>
<text text-anchor="middle" x="1237" y="-131.5" font-family="Helvetica,sans-Serif" font-size="10.00">libmints/typedefs.h</text>
</a>
</g>
</g>
<!-- Node8&#45;&gt;Node27 -->
<g id="edge35" class="edge"><title>Node8&#45;&gt;Node27</title>
<path fill="none" stroke="midnightblue" d="M805.226,-185.957C871.608,-179.393 1031.88,-163.053 1177.44,-144.024"/>
<polygon fill="midnightblue" stroke="midnightblue" points="1177.99,-147.481 1187.45,-142.708 1177.08,-140.541 1177.99,-147.481"/>
</g>
<!-- Node13&#45;&gt;Node6 -->
<g id="edge15" class="edge"><title>Node13&#45;&gt;Node6</title>
<path fill="none" stroke="midnightblue" d="M871.307,-131.551C952.182,-128.409 1097.61,-118.559 1139,-88 1157.88,-74.0641 1167.19,-47.7359 1171.54,-29.7848"/>
<polygon fill="midnightblue" stroke="midnightblue" points="1174.99,-30.3853 1173.65,-19.876 1168.15,-28.9291 1174.99,-30.3853"/>
</g>
<!-- Node14 -->
<g id="node14" class="node"><title>Node14</title>
<polygon fill="none" stroke="#bfbfbf" points="983,-0.5 983,-19.5 1027,-19.5 1027,-0.5 983,-0.5"/>
<text text-anchor="middle" x="1005" y="-7.5" font-family="Helvetica,sans-Serif" font-size="10.00">vector</text>
</g>
<!-- Node13&#45;&gt;Node14 -->
<g id="edge16" class="edge"><title>Node13&#45;&gt;Node14</title>
<path fill="none" stroke="midnightblue" d="M796.704,-124.48C782.571,-117.081 764.443,-104.887 756,-88 749.64,-75.2793 746.881,-66.9143 756,-56 783.234,-23.4024 911.418,-14.3749 972.489,-11.909"/>
<polygon fill="midnightblue" stroke="midnightblue" points="972.863,-15.3977 982.728,-11.5321 972.606,-8.40239 972.863,-15.3977"/>
</g>
<!-- Node13&#45;&gt;Node12 -->
<g id="edge17" class="edge"><title>Node13&#45;&gt;Node12</title>
<path fill="none" stroke="midnightblue" d="M768.482,-124.485C732.011,-117.121 680.819,-104.971 638,-88 636.629,-87.4566 635.241,-86.8569 633.856,-86.2192"/>
<polygon fill="midnightblue" stroke="midnightblue" points="635.45,-83.1033 624.954,-81.6548 632.256,-89.3322 635.45,-83.1033"/>
</g>
<!-- Node15 -->
<g id="node15" class="node"><title>Node15</title>
<polygon fill="none" stroke="#bfbfbf" points="885.5,-62.5 885.5,-81.5 952.5,-81.5 952.5,-62.5 885.5,-62.5"/>
<text text-anchor="middle" x="919" y="-69.5" font-family="Helvetica,sans-Serif" font-size="10.00">exception.h</text>
</g>
<!-- Node13&#45;&gt;Node15 -->
<g id="edge18" class="edge"><title>Node13&#45;&gt;Node15</title>
<path fill="none" stroke="midnightblue" d="M830.757,-124.403C847.661,-114.557 875.583,-98.2915 895.49,-86.6949"/>
<polygon fill="midnightblue" stroke="midnightblue" points="897.391,-89.6384 904.27,-81.5806 893.867,-83.5898 897.391,-89.6384"/>
</g>
<!-- Node16 -->
<g id="node16" class="node"><title>Node16</title>
<g id="a_node16"><a xlink:href="libutil_8h_source.html" target="_top" xlink:title="libutil/libutil.h">
<polygon fill="none" stroke="black" points="1057.5,-62.5 1057.5,-81.5 1130.5,-81.5 1130.5,-62.5 1057.5,-62.5"/>
<text text-anchor="middle" x="1094" y="-69.5" font-family="Helvetica,sans-Serif" font-size="10.00">libutil/libutil.h</text>
</a>
</g>
</g>
<!-- Node13&#45;&gt;Node16 -->
<g id="edge19" class="edge"><title>Node13&#45;&gt;Node16</title>
<path fill="none" stroke="midnightblue" d="M869.866,-124.495C917.159,-116.567 987.628,-103.634 1048,-88 1051.91,-86.9866 1055.98,-85.8241 1060.01,-84.6043"/>
<polygon fill="midnightblue" stroke="midnightblue" points="1061.33,-87.8559 1069.82,-81.5069 1059.23,-81.1808 1061.33,-87.8559"/>
</g>
<!-- Node18 -->
<g id="node18" class="node"><title>Node18</title>
<g id="a_node18"><a xlink:href="libutil_2ref_8h_source.html" target="_top" xlink:title="libutil/ref.h">
<polygon fill="none" stroke="black" points="647,-62.5 647,-81.5 709,-81.5 709,-62.5 647,-62.5"/>
<text text-anchor="middle" x="678" y="-69.5" font-family="Helvetica,sans-Serif" font-size="10.00">libutil/ref.h</text>
</a>
</g>
</g>
<!-- Node13&#45;&gt;Node18 -->
<g id="edge23" class="edge"><title>Node13&#45;&gt;Node18</title>
<path fill="none" stroke="midnightblue" d="M796.228,-124.403C772.864,-114.245 733.786,-97.2547 706.997,-85.6074"/>
<polygon fill="midnightblue" stroke="midnightblue" points="708.302,-82.3582 697.735,-81.5806 705.511,-88.7777 708.302,-82.3582"/>
</g>
<!-- Node21 -->
<g id="node21" class="node"><title>Node21</title>
<polygon fill="none" stroke="#bfbfbf" points="765,-57 765,-87 867,-87 867,-57 765,-57"/>
<text text-anchor="start" x="773" y="-75" font-family="Helvetica,sans-Serif" font-size="10.00">boost/python/object</text>
<text text-anchor="middle" x="816" y="-64" font-family="Helvetica,sans-Serif" font-size="10.00">_fwd.hpp</text>
</g>
<!-- Node13&#45;&gt;Node21 -->
<g id="edge28" class="edge"><title>Node13&#45;&gt;Node21</title>
<path fill="none" stroke="midnightblue" d="M816,-124.403C816,-117.341 816,-106.975 816,-97.399"/>
<polygon fill="midnightblue" stroke="midnightblue" points="819.5,-97.1408 816,-87.1408 812.5,-97.1408 819.5,-97.1408"/>
</g>
<!-- Node16&#45;&gt;Node6 -->
<g id="edge20" class="edge"><title>Node16&#45;&gt;Node6</title>
<path fill="none" stroke="midnightblue" d="M1105.61,-62.4035C1118.48,-52.8688 1139.47,-37.3154 1155.01,-25.8106"/>
<polygon fill="midnightblue" stroke="midnightblue" points="1157.46,-28.3454 1163.42,-19.5806 1153.3,-22.7204 1157.46,-28.3454"/>
</g>
<!-- Node16&#45;&gt;Node14 -->
<g id="edge21" class="edge"><title>Node16&#45;&gt;Node14</title>
<path fill="none" stroke="midnightblue" d="M1081.25,-62.4035C1066.97,-52.7797 1043.6,-37.0242 1026.49,-25.4891"/>
<polygon fill="midnightblue" stroke="midnightblue" points="1027.98,-22.2684 1017.73,-19.5806 1024.06,-28.0727 1027.98,-22.2684"/>
</g>
<!-- Node17 -->
<g id="node17" class="node"><title>Node17</title>
<polygon fill="none" stroke="#bfbfbf" points="1063,-0.5 1063,-19.5 1125,-19.5 1125,-0.5 1063,-0.5"/>
<text text-anchor="middle" x="1094" y="-7.5" font-family="Helvetica,sans-Serif" font-size="10.00">sys/time.h</text>
</g>
<!-- Node16&#45;&gt;Node17 -->
<g id="edge22" class="edge"><title>Node16&#45;&gt;Node17</title>
<path fill="none" stroke="midnightblue" d="M1094,-62.4035C1094,-53.9381 1094,-40.7283 1094,-29.8199"/>
<polygon fill="midnightblue" stroke="midnightblue" points="1097.5,-29.5806 1094,-19.5806 1090.5,-29.5806 1097.5,-29.5806"/>
</g>
<!-- Node19 -->
<g id="node19" class="node"><title>Node19</title>
<polygon fill="none" stroke="#bfbfbf" points="687.5,-0.5 687.5,-19.5 736.5,-19.5 736.5,-0.5 687.5,-0.5"/>
<text text-anchor="middle" x="712" y="-7.5" font-family="Helvetica,sans-Serif" font-size="10.00">cstddef</text>
</g>
<!-- Node18&#45;&gt;Node19 -->
<g id="edge24" class="edge"><title>Node18&#45;&gt;Node19</title>
<path fill="none" stroke="midnightblue" d="M682.871,-62.4035C687.87,-53.5816 695.789,-39.6075 702.109,-28.4548"/>
<polygon fill="midnightblue" stroke="midnightblue" points="705.253,-30.0064 707.138,-19.5806 699.162,-26.5553 705.253,-30.0064"/>
</g>
<!-- Node18&#45;&gt;Node2 -->
<g id="edge25" class="edge"><title>Node18&#45;&gt;Node2</title>
<path fill="none" stroke="midnightblue" d="M657.868,-62.4906C651.318,-60.0331 643.945,-57.5887 637,-56 481.692,-20.475 290.085,-12.9948 215.648,-11.4199"/>
<polygon fill="midnightblue" stroke="midnightblue" points="215.599,-7.91847 205.534,-11.2278 215.466,-14.9172 215.599,-7.91847"/>
</g>
<!-- Node18&#45;&gt;Node3 -->
<g id="edge26" class="edge"><title>Node18&#45;&gt;Node3</title>
<path fill="none" stroke="midnightblue" d="M656.037,-62.4014C649.924,-60.1628 643.247,-57.8597 637,-56 581.115,-39.3641 514.669,-25.1177 475.83,-17.3321"/>
<polygon fill="midnightblue" stroke="midnightblue" points="476.129,-13.8233 465.639,-15.3109 474.767,-20.6896 476.129,-13.8233"/>
</g>
<!-- Node20 -->
<g id="node20" class="node"><title>Node20</title>
<polygon fill="none" stroke="#bfbfbf" points="617,-0.5 617,-19.5 669,-19.5 669,-0.5 617,-0.5"/>
<text text-anchor="middle" x="643" y="-7.5" font-family="Helvetica,sans-Serif" font-size="10.00">assert.h</text>
</g>
<!-- Node18&#45;&gt;Node20 -->
<g id="edge27" class="edge"><title>Node18&#45;&gt;Node20</title>
<path fill="none" stroke="midnightblue" d="M672.985,-62.4035C667.839,-53.5816 659.688,-39.6075 653.182,-28.4548"/>
<polygon fill="midnightblue" stroke="midnightblue" points="656.067,-26.4548 648.005,-19.5806 650.021,-29.982 656.067,-26.4548"/>
</g>
<!-- Node23 -->
<g id="node23" class="node"><title>Node23</title>
<polygon fill="none" stroke="#bfbfbf" points="218.5,-62.5 218.5,-81.5 277.5,-81.5 277.5,-62.5 218.5,-62.5"/>
<text text-anchor="middle" x="248" y="-69.5" font-family="Helvetica,sans-Serif" font-size="10.00">exception</text>
</g>
<!-- Node22&#45;&gt;Node23 -->
<g id="edge30" class="edge"><title>Node22&#45;&gt;Node23</title>
<path fill="none" stroke="midnightblue" d="M345.667,-124.403C326.789,-114.468 295.493,-97.9966 273.424,-86.3812"/>
<polygon fill="midnightblue" stroke="midnightblue" points="274.782,-83.1409 264.303,-81.5806 271.522,-89.3353 274.782,-83.1409"/>
</g>
<!-- Node24 -->
<g id="node24" class="node"><title>Node24</title>
<polygon fill="none" stroke="#bfbfbf" points="295.5,-62.5 295.5,-81.5 354.5,-81.5 354.5,-62.5 295.5,-62.5"/>
<text text-anchor="middle" x="325" y="-69.5" font-family="Helvetica,sans-Serif" font-size="10.00">stdexcept</text>
</g>
<!-- Node22&#45;&gt;Node24 -->
<g id="edge31" class="edge"><title>Node22&#45;&gt;Node24</title>
<path fill="none" stroke="midnightblue" d="M356.699,-124.403C351.204,-115.493 342.467,-101.325 335.556,-90.1177"/>
<polygon fill="midnightblue" stroke="midnightblue" points="338.519,-88.2552 330.291,-81.5806 332.561,-91.9294 338.519,-88.2552"/>
</g>
<!-- Node25 -->
<g id="node25" class="node"><title>Node25</title>
<polygon fill="none" stroke="#bfbfbf" points="373,-62.5 373,-81.5 425,-81.5 425,-62.5 373,-62.5"/>
<text text-anchor="middle" x="399" y="-69.5" font-family="Helvetica,sans-Serif" font-size="10.00">sstream</text>
</g>
<!-- Node22&#45;&gt;Node25 -->
<g id="edge32" class="edge"><title>Node22&#45;&gt;Node25</title>
<path fill="none" stroke="midnightblue" d="M367.301,-124.403C372.796,-115.493 381.533,-101.325 388.444,-90.1177"/>
<polygon fill="midnightblue" stroke="midnightblue" points="391.439,-91.9294 393.709,-81.5806 385.481,-88.2552 391.439,-91.9294"/>
</g>
<!-- Node26 -->
<g id="node26" class="node"><title>Node26</title>
<polygon fill="none" stroke="#bfbfbf" points="151.5,-62.5 151.5,-81.5 200.5,-81.5 200.5,-62.5 151.5,-62.5"/>
<text text-anchor="middle" x="176" y="-69.5" font-family="Helvetica,sans-Serif" font-size="10.00">string.h</text>
</g>
<!-- Node22&#45;&gt;Node26 -->
<g id="edge33" class="edge"><title>Node22&#45;&gt;Node26</title>
<path fill="none" stroke="midnightblue" d="M328.43,-124.584C297.132,-116.396 249.35,-103.019 209,-88 207.098,-87.292 205.151,-86.5243 203.202,-85.7232"/>
<polygon fill="midnightblue" stroke="midnightblue" points="204.186,-82.3349 193.619,-81.5612 201.397,-88.7554 204.186,-82.3349"/>
</g>
<!-- Node22&#45;&gt;Node10 -->
<g id="edge34" class="edge"><title>Node22&#45;&gt;Node10</title>
<path fill="none" stroke="midnightblue" d="M383.062,-124.403C408.059,-114.2 449.942,-97.1055 478.487,-85.4544"/>
<polygon fill="midnightblue" stroke="midnightblue" points="480.042,-88.6001 487.978,-81.5806 477.396,-82.1192 480.042,-88.6001"/>
</g>
<!-- Node28 -->
<g id="node28" class="node"><title>Node28</title>
<g id="a_node28"><a xlink:href="compiler_8h_source.html" target="_top" xlink:title="compiler.h">
<polygon fill="none" stroke="black" points="1225,-62.5 1225,-81.5 1287,-81.5 1287,-62.5 1225,-62.5"/>
<text text-anchor="middle" x="1256" y="-69.5" font-family="Helvetica,sans-Serif" font-size="10.00">compiler.h</text>
</a>
</g>
</g>
<!-- Node27&#45;&gt;Node28 -->
<g id="edge36" class="edge"><title>Node27&#45;&gt;Node28</title>
<path fill="none" stroke="midnightblue" d="M1239.72,-124.403C1242.46,-115.76 1246.76,-102.17 1250.26,-91.1341"/>
<polygon fill="midnightblue" stroke="midnightblue" points="1253.6,-92.1707 1253.28,-81.5806 1246.93,-90.0574 1253.6,-92.1707"/>
</g>
<!-- Node30 -->
<g id="node30" class="node"><title>Node30</title>
<g id="a_node30"><a xlink:href="dimension_8h_source.html" target="_top" xlink:title="dimension.h">
<polygon fill="none" stroke="black" points="970.5,-62.5 970.5,-81.5 1039.5,-81.5 1039.5,-62.5 970.5,-62.5"/>
<text text-anchor="middle" x="1005" y="-69.5" font-family="Helvetica,sans-Serif" font-size="10.00">dimension.h</text>
</a>
</g>
</g>
<!-- Node27&#45;&gt;Node30 -->
<g id="edge38" class="edge"><title>Node27&#45;&gt;Node30</title>
<path fill="none" stroke="midnightblue" d="M1195.76,-124.45C1157.26,-116.169 1098.34,-102.731 1048,-88 1044.64,-87.0153 1041.15,-85.9217 1037.68,-84.7864"/>
<polygon fill="midnightblue" stroke="midnightblue" points="1038.66,-81.4255 1028.07,-81.5325 1036.42,-88.0556 1038.66,-81.4255"/>
</g>
<!-- Node29 -->
<g id="node29" class="node"><title>Node29</title>
<polygon fill="none" stroke="#bfbfbf" points="1224,-0.5 1224,-19.5 1288,-19.5 1288,-0.5 1224,-0.5"/>
<text text-anchor="middle" x="1256" y="-7.5" font-family="Helvetica,sans-Serif" font-size="10.00">psiconfig.h</text>
</g>
<!-- Node28&#45;&gt;Node29 -->
<g id="edge37" class="edge"><title>Node28&#45;&gt;Node29</title>
<path fill="none" stroke="midnightblue" d="M1256,-62.4035C1256,-53.9381 1256,-40.7283 1256,-29.8199"/>
<polygon fill="midnightblue" stroke="midnightblue" points="1259.5,-29.5806 1256,-19.5806 1252.5,-29.5806 1259.5,-29.5806"/>
</g>
<!-- Node30&#45;&gt;Node6 -->
<g id="edge39" class="edge"><title>Node30&#45;&gt;Node6</title>
<path fill="none" stroke="midnightblue" d="M1029.36,-62.4035C1059.81,-51.6557 1111.93,-33.2603 1144.86,-21.6366"/>
<polygon fill="midnightblue" stroke="midnightblue" points="1146.16,-24.8913 1154.42,-18.2626 1143.83,-18.2904 1146.16,-24.8913"/>
</g>
<!-- Node30&#45;&gt;Node2 -->
<g id="edge40" class="edge"><title>Node30&#45;&gt;Node2</title>
<path fill="none" stroke="midnightblue" d="M983.832,-62.4894C976.692,-59.9689 968.604,-57.4876 961,-56 887.084,-41.5389 352.532,-18.1329 215.79,-12.3324"/>
<polygon fill="midnightblue" stroke="midnightblue" points="215.712,-8.8261 205.573,-11.9005 215.416,-15.8199 215.712,-8.8261"/>
</g>
<!-- Node30&#45;&gt;Node14 -->
<g id="edge41" class="edge"><title>Node30&#45;&gt;Node14</title>
<path fill="none" stroke="midnightblue" d="M1005,-62.4035C1005,-53.9381 1005,-40.7283 1005,-29.8199"/>
<polygon fill="midnightblue" stroke="midnightblue" points="1008.5,-29.5806 1005,-19.5806 1001.5,-29.5806 1008.5,-29.5806"/>
</g>
</g>
</svg>
