<?xml version="1.0" encoding="UTF-8" standalone="no"?>
<!DOCTYPE svg PUBLIC "-//W3C//DTD SVG 1.1//EN"
 "http://www.w3.org/Graphics/SVG/1.1/DTD/svg11.dtd">
<!-- Generated by graphviz version 2.30.1 (20140110.0959)
 -->
<!-- Title: frag.h Pages: 1 -->
<svg width="248pt" height="252pt"
 viewBox="0.00 0.00 247.95 252.00" xmlns="http://www.w3.org/2000/svg" xmlns:xlink="http://www.w3.org/1999/xlink">
<g id="graph0" class="graph" transform="scale(1 1) rotate(0) translate(4 248)">
<title>frag.h</title>
<!-- Node1 -->
<g id="node1" class="node"><title>Node1</title>
<polygon fill="#bfbfbf" stroke="black" points="68.5,-224.5 68.5,-243.5 109.5,-243.5 109.5,-224.5 68.5,-224.5"/>
<text text-anchor="middle" x="89" y="-231.5" font-family="Helvetica,sans-Serif" font-size="10.00">frag.h</text>
</g>
<!-- Node2 -->
<g id="node2" class="node"><title>Node2</title>
<polygon fill="none" stroke="#bfbfbf" points="-0.5,-0.5 -0.5,-19.5 42.5,-19.5 42.5,-0.5 -0.5,-0.5"/>
<text text-anchor="middle" x="21" y="-7.5" font-family="Helvetica,sans-Serif" font-size="10.00">cstdio</text>
</g>
<!-- Node1&#45;&gt;Node2 -->
<g id="edge1" class="edge"><title>Node1&#45;&gt;Node2</title>
<path fill="none" stroke="midnightblue" d="M70.2922,-224.375C55.8408,-216.776 36.4357,-204.367 25,-188 -8.83537,-139.573 5.8803,-64.0926 15.3168,-29.4778"/>
<polygon fill="midnightblue" stroke="midnightblue" points="18.7108,-30.34 18.1269,-19.7613 11.9864,-28.3952 18.7108,-30.34"/>
</g>
<!-- Node3 -->
<g id="node3" class="node"><title>Node3</title>
<polygon fill="none" stroke="#bfbfbf" points="34,-168.5 34,-187.5 78,-187.5 78,-168.5 34,-168.5"/>
<text text-anchor="middle" x="56" y="-175.5" font-family="Helvetica,sans-Serif" font-size="10.00">vector</text>
</g>
<!-- Node1&#45;&gt;Node3 -->
<g id="edge2" class="edge"><title>Node1&#45;&gt;Node3</title>
<path fill="none" stroke="midnightblue" d="M83.5507,-224.083C78.9855,-216.613 72.3316,-205.724 66.7066,-196.52"/>
<polygon fill="midnightblue" stroke="midnightblue" points="69.5489,-194.459 61.3479,-187.751 63.5759,-198.109 69.5489,-194.459"/>
</g>
<!-- Node4 -->
<g id="node4" class="node"><title>Node4</title>
<polygon fill="none" stroke="#bfbfbf" points="192.5,-0.5 192.5,-19.5 233.5,-19.5 233.5,-0.5 192.5,-0.5"/>
<text text-anchor="middle" x="213" y="-7.5" font-family="Helvetica,sans-Serif" font-size="10.00">string</text>
</g>
<!-- Node1&#45;&gt;Node4 -->
<g id="edge3" class="edge"><title>Node1&#45;&gt;Node4</title>
<path fill="none" stroke="midnightblue" d="M109.509,-225.793C142.568,-212.911 206.503,-182.457 232,-132 248.951,-98.4547 233.438,-53.5509 222.209,-28.9639"/>
<polygon fill="midnightblue" stroke="midnightblue" points="225.266,-27.2459 217.765,-19.7628 218.962,-30.2898 225.266,-27.2459"/>
</g>
<!-- Node5 -->
<g id="node5" class="node"><title>Node5</title>
<g id="a_node5"><a xlink:href="intcos_8h.html" target="_top" xlink:title="internal coordinate includes class declaration">
<polygon fill="none" stroke="black" points="96.5,-168.5 96.5,-187.5 147.5,-187.5 147.5,-168.5 96.5,-168.5"/>
<text text-anchor="middle" x="122" y="-175.5" font-family="Helvetica,sans-Serif" font-size="10.00">intcos.h</text>
</a>
</g>
</g>
<!-- Node1&#45;&gt;Node5 -->
<g id="edge4" class="edge"><title>Node1&#45;&gt;Node5</title>
<path fill="none" stroke="midnightblue" d="M94.4493,-224.083C99.0145,-216.613 105.668,-205.724 111.293,-196.52"/>
<polygon fill="midnightblue" stroke="midnightblue" points="114.424,-198.109 116.652,-187.751 108.451,-194.459 114.424,-198.109"/>
</g>
<!-- Node6 -->
<g id="node6" class="node"><title>Node6</title>
<g id="a_node6"><a xlink:href="simple_8h.html" target="_top" xlink:title="simple internal coordinate base class">
<polygon fill="none" stroke="black" points="86.5,-56.5 86.5,-75.5 139.5,-75.5 139.5,-56.5 86.5,-56.5"/>
<text text-anchor="middle" x="113" y="-63.5" font-family="Helvetica,sans-Serif" font-size="10.00">simple.h</text>
</a>
</g>
</g>
<!-- Node5&#45;&gt;Node6 -->
<g id="edge5" class="edge"><title>Node5&#45;&gt;Node6</title>
<path fill="none" stroke="midnightblue" d="M118.4,-168.222C114.944,-159.285 109.967,-144.942 108,-132 105.659,-116.595 107.282,-98.9606 109.282,-85.9498"/>
<polygon fill="midnightblue" stroke="midnightblue" points="112.769,-86.3326 111.047,-75.8785 105.874,-85.1242 112.769,-86.3326"/>
</g>
<!-- Node8 -->
<g id="node8" class="node"><title>Node8</title>
<g id="a_node8"><a xlink:href="stre_8h.html" target="_top" xlink:title="STRE class declaration.">
<polygon fill="none" stroke="black" points="117.5,-112.5 117.5,-131.5 158.5,-131.5 158.5,-112.5 117.5,-112.5"/>
<text text-anchor="middle" x="138" y="-119.5" font-family="Helvetica,sans-Serif" font-size="10.00">stre.h</text>
</a>
</g>
</g>
<!-- Node5&#45;&gt;Node8 -->
<g id="edge9" class="edge"><title>Node5&#45;&gt;Node8</title>
<path fill="none" stroke="midnightblue" d="M124.642,-168.083C126.786,-160.849 129.879,-150.409 132.549,-141.397"/>
<polygon fill="midnightblue" stroke="midnightblue" points="135.922,-142.333 135.407,-131.751 129.21,-140.345 135.922,-142.333"/>
</g>
<!-- Node9 -->
<g id="node9" class="node"><title>Node9</title>
<g id="a_node9"><a xlink:href="bend_8h.html" target="_top" xlink:title="BEND class declaration.">
<polygon fill="none" stroke="black" points="177,-112.5 177,-131.5 223,-131.5 223,-112.5 177,-112.5"/>
<text text-anchor="middle" x="200" y="-119.5" font-family="Helvetica,sans-Serif" font-size="10.00">bend.h</text>
</a>
</g>
</g>
<!-- Node5&#45;&gt;Node9 -->
<g id="edge11" class="edge"><title>Node5&#45;&gt;Node9</title>
<path fill="none" stroke="midnightblue" d="M134.532,-168.324C146.586,-159.979 165.027,-147.212 179.269,-137.352"/>
<polygon fill="midnightblue" stroke="midnightblue" points="181.269,-140.224 187.499,-131.655 177.285,-134.469 181.269,-140.224"/>
</g>
<!-- Node10 -->
<g id="node10" class="node"><title>Node10</title>
<g id="a_node10"><a xlink:href="tors_8h.html" target="_top" xlink:title="TORS class declaration.">
<polygon fill="none" stroke="black" points="19.5,-112.5 19.5,-131.5 60.5,-131.5 60.5,-112.5 19.5,-112.5"/>
<text text-anchor="middle" x="40" y="-119.5" font-family="Helvetica,sans-Serif" font-size="10.00">tors.h</text>
</a>
</g>
</g>
<!-- Node5&#45;&gt;Node10 -->
<g id="edge13" class="edge"><title>Node5&#45;&gt;Node10</title>
<path fill="none" stroke="midnightblue" d="M108.825,-168.324C96.1532,-159.979 76.7666,-147.212 61.7944,-137.352"/>
<polygon fill="midnightblue" stroke="midnightblue" points="63.4187,-134.231 53.142,-131.655 59.5688,-140.078 63.4187,-134.231"/>
</g>
<!-- Node6&#45;&gt;Node2 -->
<g id="edge6" class="edge"><title>Node6&#45;&gt;Node2</title>
<path fill="none" stroke="midnightblue" d="M98.2186,-56.324C83.7329,-47.8215 61.4269,-34.7288 44.5068,-24.7975"/>
<polygon fill="midnightblue" stroke="midnightblue" points="46.1406,-21.6981 35.7447,-19.6545 42.5972,-27.735 46.1406,-21.6981"/>
</g>
<!-- Node6&#45;&gt;Node4 -->
<g id="edge7" class="edge"><title>Node6&#45;&gt;Node4</title>
<path fill="none" stroke="midnightblue" d="M129.067,-56.324C144.958,-47.7428 169.507,-34.486 187.958,-24.5224"/>
<polygon fill="midnightblue" stroke="midnightblue" points="189.837,-27.4857 196.973,-19.6545 186.511,-21.3264 189.837,-27.4857"/>
</g>
<!-- Node7 -->
<g id="node7" class="node"><title>Node7</title>
<g id="a_node7"><a xlink:href="mem_8h.html" target="_top" xlink:title="mem.h">
<polygon fill="none" stroke="black" points="89.5,-0.5 89.5,-19.5 136.5,-19.5 136.5,-0.5 89.5,-0.5"/>
<text text-anchor="middle" x="113" y="-7.5" font-family="Helvetica,sans-Serif" font-size="10.00">mem.h</text>
</a>
</g>
</g>
<!-- Node6&#45;&gt;Node7 -->
<g id="edge8" class="edge"><title>Node6&#45;&gt;Node7</title>
<path fill="none" stroke="midnightblue" d="M113,-56.083C113,-49.0059 113,-38.8611 113,-29.9865"/>
<polygon fill="midnightblue" stroke="midnightblue" points="116.5,-29.751 113,-19.7511 109.5,-29.7511 116.5,-29.751"/>
</g>
<!-- Node8&#45;&gt;Node6 -->
<g id="edge10" class="edge"><title>Node8&#45;&gt;Node6</title>
<path fill="none" stroke="midnightblue" d="M133.872,-112.083C130.486,-104.77 125.584,-94.1814 121.381,-85.1034"/>
<polygon fill="midnightblue" stroke="midnightblue" points="124.429,-83.3553 117.051,-75.7511 118.077,-86.2962 124.429,-83.3553"/>
</g>
<!-- Node9&#45;&gt;Node6 -->
<g id="edge12" class="edge"><title>Node9&#45;&gt;Node6</title>
<path fill="none" stroke="midnightblue" d="M186.022,-112.324C172.45,-103.9 151.62,-90.9709 135.675,-81.0741"/>
<polygon fill="midnightblue" stroke="midnightblue" points="137.286,-77.9544 126.943,-75.6545 133.594,-83.9019 137.286,-77.9544"/>
</g>
<!-- Node10&#45;&gt;Node6 -->
<g id="edge14" class="edge"><title>Node10&#45;&gt;Node6</title>
<path fill="none" stroke="midnightblue" d="M51.7287,-112.324C62.8374,-104.107 79.7422,-91.6017 92.9833,-81.8069"/>
<polygon fill="midnightblue" stroke="midnightblue" points="95.0999,-84.5948 101.058,-75.8339 90.9369,-78.9671 95.0999,-84.5948"/>
</g>
</g>
</svg>
