<?xml version="1.0" encoding="UTF-8" standalone="no"?>
<!DOCTYPE svg PUBLIC "-//W3C//DTD SVG 1.1//EN"
 "http://www.w3.org/Graphics/SVG/1.1/DTD/svg11.dtd">
<!-- Generated by graphviz version 2.30.1 (20140110.0959)
 -->
<!-- Title: get_rho_params.cc Pages: 1 -->
<svg width="1108pt" height="208pt"
 viewBox="0.00 0.00 1108.00 208.00" xmlns="http://www.w3.org/2000/svg" xmlns:xlink="http://www.w3.org/1999/xlink">
<g id="graph0" class="graph" transform="scale(1 1) rotate(0) translate(4 204)">
<title>get_rho_params.cc</title>
<!-- Node1 -->
<g id="node1" class="node"><title>Node1</title>
<polygon fill="#bfbfbf" stroke="black" points="582,-180.5 582,-199.5 682,-199.5 682,-180.5 582,-180.5"/>
<text text-anchor="middle" x="632" y="-187.5" font-family="Helvetica,sans-Serif" font-size="10.00">get_rho_params.cc</text>
</g>
<!-- Node2 -->
<g id="node2" class="node"><title>Node2</title>
<polygon fill="none" stroke="#bfbfbf" points="718.5,-0.5 718.5,-19.5 761.5,-19.5 761.5,-0.5 718.5,-0.5"/>
<text text-anchor="middle" x="740" y="-7.5" font-family="Helvetica,sans-Serif" font-size="10.00">cstdio</text>
</g>
<!-- Node1&#45;&gt;Node2 -->
<g id="edge1" class="edge"><title>Node1&#45;&gt;Node2</title>
<path fill="none" stroke="midnightblue" d="M645.043,-180.347C656.575,-172.14 673.198,-158.878 684,-144 687.585,-139.062 718.153,-64.5958 732.553,-29.2988"/>
<polygon fill="midnightblue" stroke="midnightblue" points="735.923,-30.3038 736.455,-19.7224 729.44,-27.6623 735.923,-30.3038"/>
</g>
<!-- Node3 -->
<g id="node3" class="node"><title>Node3</title>
<polygon fill="none" stroke="#bfbfbf" points="64.5,-0.5 64.5,-19.5 109.5,-19.5 109.5,-0.5 64.5,-0.5"/>
<text text-anchor="middle" x="87" y="-7.5" font-family="Helvetica,sans-Serif" font-size="10.00">cstdlib</text>
</g>
<!-- Node1&#45;&gt;Node3 -->
<g id="edge2" class="edge"><title>Node1&#45;&gt;Node3</title>
<path fill="none" stroke="midnightblue" d="M581.903,-187.232C510.468,-183.731 375.725,-173.487 265,-144 203.023,-127.495 180.209,-130.302 132,-88 113.591,-71.8472 100.752,-46.26 93.6271,-29.063"/>
<polygon fill="midnightblue" stroke="midnightblue" points="96.8291,-27.6404 89.9308,-19.599 90.3087,-30.1871 96.8291,-27.6404"/>
</g>
<!-- Node4 -->
<g id="node4" class="node"><title>Node4</title>
<polygon fill="none" stroke="#bfbfbf" points="274,-124.5 274,-143.5 320,-143.5 320,-124.5 274,-124.5"/>
<text text-anchor="middle" x="297" y="-131.5" font-family="Helvetica,sans-Serif" font-size="10.00">cstring</text>
</g>
<!-- Node1&#45;&gt;Node4 -->
<g id="edge3" class="edge"><title>Node1&#45;&gt;Node4</title>
<path fill="none" stroke="midnightblue" d="M581.788,-183.519C523.464,-176.715 424.222,-163.785 330.285,-144.052"/>
<polygon fill="midnightblue" stroke="midnightblue" points="330.843,-140.592 320.333,-141.931 329.384,-147.439 330.843,-140.592"/>
</g>
<!-- Node5 -->
<g id="node5" class="node"><title>Node5</title>
<g id="a_node5"><a xlink:href="lib_2libdpd_2dpd_8h.html" target="_top" xlink:title="Enter brief description of file here.">
<polygon fill="none" stroke="black" points="937.5,-62.5 937.5,-81.5 1006.5,-81.5 1006.5,-62.5 937.5,-62.5"/>
<text text-anchor="middle" x="972" y="-69.5" font-family="Helvetica,sans-Serif" font-size="10.00">libdpd/dpd.h</text>
</a>
</g>
</g>
<!-- Node1&#45;&gt;Node5 -->
<g id="edge4" class="edge"><title>Node1&#45;&gt;Node5</title>
<path fill="none" stroke="midnightblue" d="M682.133,-188.015C760.584,-185.478 907.495,-176.411 947,-144 962.597,-131.204 968.474,-108.022 970.682,-91.6335"/>
<polygon fill="midnightblue" stroke="midnightblue" points="974.175,-91.8855 971.699,-81.5839 967.21,-91.1806 974.175,-91.8855"/>
</g>
<!-- Node10 -->
<g id="node10" class="node"><title>Node10</title>
<g id="a_node10"><a xlink:href="qt_8h.html" target="_top" xlink:title="Header file for the Quantum Trio LibraryDavid Sherrill 1994.">
<polygon fill="none" stroke="black" points="621,-62.5 621,-81.5 675,-81.5 675,-62.5 621,-62.5"/>
<text text-anchor="middle" x="648" y="-69.5" font-family="Helvetica,sans-Serif" font-size="10.00">libqt/qt.h</text>
</a>
</g>
</g>
<!-- Node1&#45;&gt;Node10 -->
<g id="edge10" class="edge"><title>Node1&#45;&gt;Node10</title>
<path fill="none" stroke="midnightblue" d="M616.28,-180.39C597.142,-168.689 568.69,-146.62 580,-124 588.252,-107.495 604.667,-94.9458 619.302,-86.4258"/>
<polygon fill="midnightblue" stroke="midnightblue" points="620.983,-89.4957 628.095,-81.6423 617.638,-83.3467 620.983,-89.4957"/>
</g>
<!-- Node12 -->
<g id="node12" class="node"><title>Node12</title>
<g id="a_node12"><a xlink:href="chkpt_8h_source.html" target="_top" xlink:title="libchkpt/chkpt.h">
<polygon fill="none" stroke="black" points="589,-124.5 589,-143.5 675,-143.5 675,-124.5 589,-124.5"/>
<text text-anchor="middle" x="632" y="-131.5" font-family="Helvetica,sans-Serif" font-size="10.00">libchkpt/chkpt.h</text>
</a>
</g>
</g>
<!-- Node1&#45;&gt;Node12 -->
<g id="edge13" class="edge"><title>Node1&#45;&gt;Node12</title>
<path fill="none" stroke="midnightblue" d="M632,-180.083C632,-173.006 632,-162.861 632,-153.986"/>
<polygon fill="midnightblue" stroke="midnightblue" points="635.5,-153.751 632,-143.751 628.5,-153.751 635.5,-153.751"/>
</g>
<!-- Node13 -->
<g id="node13" class="node"><title>Node13</title>
<g id="a_node13"><a xlink:href="liboptions_8h_source.html" target="_top" xlink:title="liboptions/liboptions.h">
<polygon fill="none" stroke="black" points="338,-124.5 338,-143.5 448,-143.5 448,-124.5 338,-124.5"/>
<text text-anchor="middle" x="393" y="-131.5" font-family="Helvetica,sans-Serif" font-size="10.00">liboptions/liboptions.h</text>
</a>
</g>
</g>
<!-- Node1&#45;&gt;Node13 -->
<g id="edge14" class="edge"><title>Node1&#45;&gt;Node13</title>
<path fill="none" stroke="midnightblue" d="M594.13,-180.444C552.524,-171.043 485.631,-155.929 440.531,-145.739"/>
<polygon fill="midnightblue" stroke="midnightblue" points="441.219,-142.306 430.693,-143.516 439.676,-149.134 441.219,-142.306"/>
</g>
<!-- Node22 -->
<g id="node22" class="node"><title>Node22</title>
<g id="a_node22"><a xlink:href="ccdensity_2MOInfo_8h.html" target="_top" xlink:title="Enter brief description of file here.">
<polygon fill="none" stroke="black" points="731.5,-124.5 731.5,-143.5 788.5,-143.5 788.5,-124.5 731.5,-124.5"/>
<text text-anchor="middle" x="760" y="-131.5" font-family="Helvetica,sans-Serif" font-size="10.00">MOInfo.h</text>
</a>
</g>
</g>
<!-- Node1&#45;&gt;Node22 -->
<g id="edge29" class="edge"><title>Node1&#45;&gt;Node22</title>
<path fill="none" stroke="midnightblue" d="M652.282,-180.444C673.347,-171.557 706.517,-157.563 730.486,-147.451"/>
<polygon fill="midnightblue" stroke="midnightblue" points="731.96,-150.628 739.813,-143.516 729.239,-144.179 731.96,-150.628"/>
</g>
<!-- Node23 -->
<g id="node23" class="node"><title>Node23</title>
<g id="a_node23"><a xlink:href="ccdensity_2Params_8h.html" target="_top" xlink:title="Enter brief description of file here.">
<polygon fill="none" stroke="black" points="-0.5,-124.5 -0.5,-143.5 58.5,-143.5 58.5,-124.5 -0.5,-124.5"/>
<text text-anchor="middle" x="29" y="-131.5" font-family="Helvetica,sans-Serif" font-size="10.00">Params.h</text>
</a>
</g>
</g>
<!-- Node1&#45;&gt;Node23 -->
<g id="edge30" class="edge"><title>Node1&#45;&gt;Node23</title>
<path fill="none" stroke="midnightblue" d="M581.665,-186.999C483.447,-182.641 259.526,-170.484 73,-144 71.5526,-143.794 70.0811,-143.571 68.597,-143.333"/>
<polygon fill="midnightblue" stroke="midnightblue" points="69.193,-139.884 58.7368,-141.592 67.9761,-146.777 69.193,-139.884"/>
</g>
<!-- Node24 -->
<g id="node24" class="node"><title>Node24</title>
<g id="a_node24"><a xlink:href="Frozen_8h.html" target="_top" xlink:title="Enter brief description of file here.">
<polygon fill="none" stroke="black" points="883.5,-124.5 883.5,-143.5 938.5,-143.5 938.5,-124.5 883.5,-124.5"/>
<text text-anchor="middle" x="911" y="-131.5" font-family="Helvetica,sans-Serif" font-size="10.00">Frozen.h</text>
</a>
</g>
</g>
<!-- Node1&#45;&gt;Node24 -->
<g id="edge32" class="edge"><title>Node1&#45;&gt;Node24</title>
<path fill="none" stroke="midnightblue" d="M682.215,-180.489C729.068,-172.362 801.145,-159.388 873.019,-144.115"/>
<polygon fill="midnightblue" stroke="midnightblue" points="874.111,-147.461 883.157,-141.946 872.646,-140.616 874.111,-147.461"/>
</g>
<!-- Node25 -->
<g id="node25" class="node"><title>Node25</title>
<g id="a_node25"><a xlink:href="ccdensity_2globals_8h.html" target="_top" xlink:title="Enter brief description of file here.">
<polygon fill="none" stroke="black" points="809,-124.5 809,-143.5 865,-143.5 865,-124.5 809,-124.5"/>
<text text-anchor="middle" x="837" y="-131.5" font-family="Helvetica,sans-Serif" font-size="10.00">globals.h</text>
</a>
</g>
</g>
<!-- Node1&#45;&gt;Node25 -->
<g id="edge33" class="edge"><title>Node1&#45;&gt;Node25</title>
<path fill="none" stroke="midnightblue" d="M664.483,-180.444C701.067,-170.807 760.446,-155.165 799.113,-144.98"/>
<polygon fill="midnightblue" stroke="midnightblue" points="800.173,-148.32 808.951,-142.388 798.39,-141.551 800.173,-148.32"/>
</g>
<!-- Node5&#45;&gt;Node2 -->
<g id="edge5" class="edge"><title>Node5&#45;&gt;Node2</title>
<path fill="none" stroke="midnightblue" d="M948.381,-62.494C941.82,-60.2558 934.667,-57.9298 928,-56 873.486,-40.221 808.96,-25.6529 771.436,-17.5808"/>
<polygon fill="midnightblue" stroke="midnightblue" points="772.109,-14.1457 761.599,-15.4807 770.648,-20.9915 772.109,-14.1457"/>
</g>
<!-- Node6 -->
<g id="node6" class="node"><title>Node6</title>
<g id="a_node6"><a xlink:href="psifiles_8h_source.html" target="_top" xlink:title="psifiles.h">
<polygon fill="none" stroke="black" points="1044,-0.5 1044,-19.5 1100,-19.5 1100,-0.5 1044,-0.5"/>
<text text-anchor="middle" x="1072" y="-7.5" font-family="Helvetica,sans-Serif" font-size="10.00">psifiles.h</text>
</a>
</g>
</g>
<!-- Node5&#45;&gt;Node6 -->
<g id="edge6" class="edge"><title>Node5&#45;&gt;Node6</title>
<path fill="none" stroke="midnightblue" d="M986.328,-62.4035C1002.66,-52.6014 1029.6,-36.4385 1048.91,-24.8526"/>
<polygon fill="midnightblue" stroke="midnightblue" points="1050.92,-27.7268 1057.7,-19.5806 1047.32,-21.7244 1050.92,-27.7268"/>
</g>
<!-- Node7 -->
<g id="node7" class="node"><title>Node7</title>
<g id="a_node7"><a xlink:href="libpsio_2config_8h_source.html" target="_top" xlink:title="libpsio/config.h">
<polygon fill="none" stroke="black" points="818,-0.5 818,-19.5 900,-19.5 900,-0.5 818,-0.5"/>
<text text-anchor="middle" x="859" y="-7.5" font-family="Helvetica,sans-Serif" font-size="10.00">libpsio/config.h</text>
</a>
</g>
</g>
<!-- Node5&#45;&gt;Node7 -->
<g id="edge7" class="edge"><title>Node5&#45;&gt;Node7</title>
<path fill="none" stroke="midnightblue" d="M955.81,-62.4035C937.098,-52.4678 906.077,-35.9966 884.201,-24.3812"/>
<polygon fill="midnightblue" stroke="midnightblue" points="885.634,-21.179 875.16,-19.5806 882.351,-27.3616 885.634,-21.179"/>
</g>
<!-- Node8 -->
<g id="node8" class="node"><title>Node8</title>
<polygon fill="none" stroke="#bfbfbf" points="918,-0.5 918,-19.5 1026,-19.5 1026,-0.5 918,-0.5"/>
<text text-anchor="middle" x="972" y="-7.5" font-family="Helvetica,sans-Serif" font-size="10.00">boost/shared_ptr.hpp</text>
</g>
<!-- Node5&#45;&gt;Node8 -->
<g id="edge8" class="edge"><title>Node5&#45;&gt;Node8</title>
<path fill="none" stroke="midnightblue" d="M972,-62.4035C972,-53.9381 972,-40.7283 972,-29.8199"/>
<polygon fill="midnightblue" stroke="midnightblue" points="975.5,-29.5806 972,-19.5806 968.5,-29.5806 975.5,-29.5806"/>
</g>
<!-- Node9 -->
<g id="node9" class="node"><title>Node9</title>
<polygon fill="none" stroke="#bfbfbf" points="371,-0.5 371,-19.5 415,-19.5 415,-0.5 371,-0.5"/>
<text text-anchor="middle" x="393" y="-7.5" font-family="Helvetica,sans-Serif" font-size="10.00">vector</text>
</g>
<!-- Node5&#45;&gt;Node9 -->
<g id="edge9" class="edge"><title>Node5&#45;&gt;Node9</title>
<path fill="none" stroke="midnightblue" d="M950.361,-62.4483C943.33,-59.9885 935.426,-57.5535 928,-56 921.799,-54.7028 540.007,-23.1317 425.265,-13.6612"/>
<polygon fill="midnightblue" stroke="midnightblue" points="425.27,-10.1498 415.016,-12.8155 424.695,-17.1261 425.27,-10.1498"/>
</g>
<!-- Node10&#45;&gt;Node2 -->
<g id="edge11" class="edge"><title>Node10&#45;&gt;Node2</title>
<path fill="none" stroke="midnightblue" d="M661.181,-62.4035C676.074,-52.6905 700.544,-36.7319 718.273,-25.1697"/>
<polygon fill="midnightblue" stroke="midnightblue" points="720.379,-27.975 726.843,-19.5806 716.555,-22.1117 720.379,-27.975"/>
</g>
<!-- Node11 -->
<g id="node11" class="node"><title>Node11</title>
<polygon fill="none" stroke="#bfbfbf" points="127.5,-0.5 127.5,-19.5 168.5,-19.5 168.5,-0.5 127.5,-0.5"/>
<text text-anchor="middle" x="148" y="-7.5" font-family="Helvetica,sans-Serif" font-size="10.00">string</text>
</g>
<!-- Node10&#45;&gt;Node11 -->
<g id="edge12" class="edge"><title>Node10&#45;&gt;Node11</title>
<path fill="none" stroke="midnightblue" d="M630.426,-62.3904C624.68,-59.9276 618.184,-57.5053 612,-56 427.154,-11.0049 370.118,-54.4661 178.628,-19.658"/>
<polygon fill="midnightblue" stroke="midnightblue" points="178.989,-16.165 168.517,-17.7706 177.705,-23.0462 178.989,-16.165"/>
</g>
<!-- Node13&#45;&gt;Node11 -->
<g id="edge15" class="edge"><title>Node13&#45;&gt;Node11</title>
<path fill="none" stroke="midnightblue" d="M337.976,-124.874C266.549,-114.063 150.223,-95.4482 144,-88 130.425,-71.7516 135.152,-46.1869 140.747,-29.0211"/>
<polygon fill="midnightblue" stroke="midnightblue" points="144.053,-30.1706 144.187,-19.5766 137.476,-27.7749 144.053,-30.1706"/>
</g>
<!-- Node13&#45;&gt;Node9 -->
<g id="edge16" class="edge"><title>Node13&#45;&gt;Node9</title>
<path fill="none" stroke="midnightblue" d="M393,-124.226C393,-104.53 393,-56.4371 393,-29.7004"/>
<polygon fill="midnightblue" stroke="midnightblue" points="396.5,-29.6944 393,-19.6944 389.5,-29.6945 396.5,-29.6944"/>
</g>
<!-- Node14 -->
<g id="node14" class="node"><title>Node14</title>
<polygon fill="none" stroke="#bfbfbf" points="244.5,-62.5 244.5,-81.5 279.5,-81.5 279.5,-62.5 244.5,-62.5"/>
<text text-anchor="middle" x="262" y="-69.5" font-family="Helvetica,sans-Serif" font-size="10.00">map</text>
</g>
<!-- Node13&#45;&gt;Node14 -->
<g id="edge17" class="edge"><title>Node13&#45;&gt;Node14</title>
<path fill="none" stroke="midnightblue" d="M370.938,-124.432C349.451,-115.88 316.021,-102.026 288,-88 287.021,-87.5102 286.028,-86.9997 285.03,-86.4754"/>
<polygon fill="midnightblue" stroke="midnightblue" points="286.583,-83.335 276.138,-81.5614 283.197,-89.4617 286.583,-83.335"/>
</g>
<!-- Node15 -->
<g id="node15" class="node"><title>Node15</title>
<polygon fill="none" stroke="#bfbfbf" points="297.5,-62.5 297.5,-81.5 364.5,-81.5 364.5,-62.5 297.5,-62.5"/>
<text text-anchor="middle" x="331" y="-69.5" font-family="Helvetica,sans-Serif" font-size="10.00">exception.h</text>
</g>
<!-- Node13&#45;&gt;Node15 -->
<g id="edge18" class="edge"><title>Node13&#45;&gt;Node15</title>
<path fill="none" stroke="midnightblue" d="M384.117,-124.403C374.541,-115.136 359.089,-100.183 347.314,-88.7876"/>
<polygon fill="midnightblue" stroke="midnightblue" points="349.487,-86.0197 339.867,-81.5806 344.619,-91.05 349.487,-86.0197"/>
</g>
<!-- Node16 -->
<g id="node16" class="node"><title>Node16</title>
<g id="a_node16"><a xlink:href="libutil_8h_source.html" target="_top" xlink:title="libutil/libutil.h">
<polygon fill="none" stroke="black" points="153.5,-62.5 153.5,-81.5 226.5,-81.5 226.5,-62.5 153.5,-62.5"/>
<text text-anchor="middle" x="190" y="-69.5" font-family="Helvetica,sans-Serif" font-size="10.00">libutil/libutil.h</text>
</a>
</g>
</g>
<!-- Node13&#45;&gt;Node16 -->
<g id="edge19" class="edge"><title>Node13&#45;&gt;Node16</title>
<path fill="none" stroke="midnightblue" d="M361.402,-124.444C329.42,-115.68 278.601,-101.469 235,-88 231.673,-86.9723 228.218,-85.875 224.767,-84.7589"/>
<polygon fill="midnightblue" stroke="midnightblue" points="225.758,-81.4004 215.165,-81.6067 223.574,-88.0512 225.758,-81.4004"/>
</g>
<!-- Node18 -->
<g id="node18" class="node"><title>Node18</title>
<g id="a_node18"><a xlink:href="libutil_2ref_8h_source.html" target="_top" xlink:title="libutil/ref.h">
<polygon fill="none" stroke="black" points="541,-62.5 541,-81.5 603,-81.5 603,-62.5 541,-62.5"/>
<text text-anchor="middle" x="572" y="-69.5" font-family="Helvetica,sans-Serif" font-size="10.00">libutil/ref.h</text>
</a>
</g>
</g>
<!-- Node13&#45;&gt;Node18 -->
<g id="edge23" class="edge"><title>Node13&#45;&gt;Node18</title>
<path fill="none" stroke="midnightblue" d="M420.553,-124.488C448.687,-115.701 493.565,-101.42 532,-88 534.602,-87.0916 537.291,-86.1308 539.987,-85.1522"/>
<polygon fill="midnightblue" stroke="midnightblue" points="541.47,-88.3357 549.64,-81.5904 539.047,-81.7684 541.47,-88.3357"/>
</g>
<!-- Node21 -->
<g id="node21" class="node"><title>Node21</title>
<polygon fill="none" stroke="#bfbfbf" points="421,-57 421,-87 523,-87 523,-57 421,-57"/>
<text text-anchor="start" x="429" y="-75" font-family="Helvetica,sans-Serif" font-size="10.00">boost/python/object</text>
<text text-anchor="middle" x="472" y="-64" font-family="Helvetica,sans-Serif" font-size="10.00">_fwd.hpp</text>
</g>
<!-- Node13&#45;&gt;Node21 -->
<g id="edge28" class="edge"><title>Node13&#45;&gt;Node21</title>
<path fill="none" stroke="midnightblue" d="M404.319,-124.403C414.918,-116.353 431.167,-104.013 445.086,-93.4406"/>
<polygon fill="midnightblue" stroke="midnightblue" points="447.535,-95.9764 453.381,-87.1408 443.301,-90.4019 447.535,-95.9764"/>
</g>
<!-- Node16&#45;&gt;Node11 -->
<g id="edge20" class="edge"><title>Node16&#45;&gt;Node11</title>
<path fill="none" stroke="midnightblue" d="M183.982,-62.4035C177.682,-53.4034 167.629,-39.0408 159.748,-27.7824"/>
<polygon fill="midnightblue" stroke="midnightblue" points="162.608,-25.7658 154.006,-19.5806 156.874,-29.7801 162.608,-25.7658"/>
</g>
<!-- Node16&#45;&gt;Node9 -->
<g id="edge21" class="edge"><title>Node16&#45;&gt;Node9</title>
<path fill="none" stroke="midnightblue" d="M215.165,-62.3933C221.612,-60.2483 228.548,-57.993 235,-56 278.524,-42.5553 329.239,-28.371 361.231,-19.6031"/>
<polygon fill="midnightblue" stroke="midnightblue" points="362.203,-22.9659 370.927,-16.9545 360.358,-16.2132 362.203,-22.9659"/>
</g>
<!-- Node17 -->
<g id="node17" class="node"><title>Node17</title>
<polygon fill="none" stroke="#bfbfbf" points="187,-0.5 187,-19.5 249,-19.5 249,-0.5 187,-0.5"/>
<text text-anchor="middle" x="218" y="-7.5" font-family="Helvetica,sans-Serif" font-size="10.00">sys/time.h</text>
</g>
<!-- Node16&#45;&gt;Node17 -->
<g id="edge22" class="edge"><title>Node16&#45;&gt;Node17</title>
<path fill="none" stroke="midnightblue" d="M194.012,-62.4035C198.087,-53.6707 204.518,-39.8893 209.696,-28.7936"/>
<polygon fill="midnightblue" stroke="midnightblue" points="212.938,-30.1225 213.996,-19.5806 206.595,-27.1623 212.938,-30.1225"/>
</g>
<!-- Node19 -->
<g id="node19" class="node"><title>Node19</title>
<polygon fill="none" stroke="#bfbfbf" points="512.5,-0.5 512.5,-19.5 561.5,-19.5 561.5,-0.5 512.5,-0.5"/>
<text text-anchor="middle" x="537" y="-7.5" font-family="Helvetica,sans-Serif" font-size="10.00">cstddef</text>
</g>
<!-- Node18&#45;&gt;Node19 -->
<g id="edge24" class="edge"><title>Node18&#45;&gt;Node19</title>
<path fill="none" stroke="midnightblue" d="M566.985,-62.4035C561.839,-53.5816 553.688,-39.6075 547.182,-28.4548"/>
<polygon fill="midnightblue" stroke="midnightblue" points="550.067,-26.4548 542.005,-19.5806 544.021,-29.982 550.067,-26.4548"/>
</g>
<!-- Node18&#45;&gt;Node2 -->
<g id="edge25" class="edge"><title>Node18&#45;&gt;Node2</title>
<path fill="none" stroke="midnightblue" d="M594.815,-62.3514C600.426,-60.2502 606.423,-58.0257 612,-56 644.837,-44.0725 682.588,-30.8614 708.538,-21.8574"/>
<polygon fill="midnightblue" stroke="midnightblue" points="709.906,-25.0877 718.209,-18.507 707.614,-18.4734 709.906,-25.0877"/>
</g>
<!-- Node18&#45;&gt;Node3 -->
<g id="edge26" class="edge"><title>Node18&#45;&gt;Node3</title>
<path fill="none" stroke="midnightblue" d="M552.387,-62.4323C545.999,-59.9717 538.799,-57.5402 532,-56 355.035,-15.9151 301.433,-52.5733 119.456,-19.9247"/>
<polygon fill="midnightblue" stroke="midnightblue" points="120.032,-16.4719 109.564,-18.1048 118.765,-23.3563 120.032,-16.4719"/>
</g>
<!-- Node20 -->
<g id="node20" class="node"><title>Node20</title>
<polygon fill="none" stroke="#bfbfbf" points="580,-0.5 580,-19.5 632,-19.5 632,-0.5 580,-0.5"/>
<text text-anchor="middle" x="606" y="-7.5" font-family="Helvetica,sans-Serif" font-size="10.00">assert.h</text>
</g>
<!-- Node18&#45;&gt;Node20 -->
<g id="edge27" class="edge"><title>Node18&#45;&gt;Node20</title>
<path fill="none" stroke="midnightblue" d="M576.871,-62.4035C581.87,-53.5816 589.789,-39.6075 596.109,-28.4548"/>
<polygon fill="midnightblue" stroke="midnightblue" points="599.253,-30.0064 601.138,-19.5806 593.162,-26.5553 599.253,-30.0064"/>
</g>
<!-- Node23&#45;&gt;Node11 -->
<g id="edge31" class="edge"><title>Node23&#45;&gt;Node11</title>
<path fill="none" stroke="midnightblue" d="M37.5582,-124.226C57.4562,-103.826 107.066,-52.9657 132.472,-26.9198"/>
<polygon fill="midnightblue" stroke="midnightblue" points="135.042,-29.2969 139.519,-19.6944 130.031,-24.4091 135.042,-29.2969"/>
</g>
<!-- Node25&#45;&gt;Node6 -->
<g id="edge34" class="edge"><title>Node25&#45;&gt;Node6</title>
<path fill="none" stroke="midnightblue" d="M865.376,-126.085C914.82,-114 1011.85,-90.1133 1015,-88 1037.17,-73.135 1053.95,-46.6429 1063.38,-28.946"/>
<polygon fill="midnightblue" stroke="midnightblue" points="1066.67,-30.199 1068.07,-19.697 1060.42,-27.0337 1066.67,-30.199"/>
</g>
<!-- Node25&#45;&gt;Node5 -->
<g id="edge35" class="edge"><title>Node25&#45;&gt;Node5</title>
<path fill="none" stroke="midnightblue" d="M856.342,-124.403C879.099,-114.29 917.092,-97.4036 943.288,-85.761"/>
<polygon fill="midnightblue" stroke="midnightblue" points="944.977,-88.8404 952.694,-81.5806 942.134,-82.4437 944.977,-88.8404"/>
</g>
<!-- Node26 -->
<g id="node26" class="node"><title>Node26</title>
<g id="a_node26"><a xlink:href="psio_8h_source.html" target="_top" xlink:title="libpsio/psio.h">
<polygon fill="none" stroke="black" points="845,-62.5 845,-81.5 919,-81.5 919,-62.5 845,-62.5"/>
<text text-anchor="middle" x="882" y="-69.5" font-family="Helvetica,sans-Serif" font-size="10.00">libpsio/psio.h</text>
</a>
</g>
</g>
<!-- Node25&#45;&gt;Node26 -->
<g id="edge36" class="edge"><title>Node25&#45;&gt;Node26</title>
<path fill="none" stroke="midnightblue" d="M843.447,-124.403C850.197,-115.403 860.969,-101.041 869.413,-89.7824"/>
<polygon fill="midnightblue" stroke="midnightblue" points="872.365,-91.6806 875.565,-81.5806 866.765,-87.4806 872.365,-91.6806"/>
</g>
<!-- Node27 -->
<g id="node27" class="node"><title>Node27</title>
<g id="a_node27"><a xlink:href="libciomr_8h_source.html" target="_top" xlink:title="libciomr/libciomr.h">
<polygon fill="none" stroke="black" points="731.5,-62.5 731.5,-81.5 826.5,-81.5 826.5,-62.5 731.5,-62.5"/>
<text text-anchor="middle" x="779" y="-69.5" font-family="Helvetica,sans-Serif" font-size="10.00">libciomr/libciomr.h</text>
</a>
</g>
</g>
<!-- Node25&#45;&gt;Node27 -->
<g id="edge39" class="edge"><title>Node25&#45;&gt;Node27</title>
<path fill="none" stroke="midnightblue" d="M828.69,-124.403C819.732,-115.136 805.277,-100.183 794.261,-88.7876"/>
<polygon fill="midnightblue" stroke="midnightblue" points="796.761,-86.3379 787.295,-81.5806 791.728,-91.2031 796.761,-86.3379"/>
</g>
<!-- Node26&#45;&gt;Node2 -->
<g id="edge37" class="edge"><title>Node26&#45;&gt;Node2</title>
<path fill="none" stroke="midnightblue" d="M861.655,-62.4035C837.613,-52.245 797.403,-35.2547 769.837,-23.6074"/>
<polygon fill="midnightblue" stroke="midnightblue" points="770.881,-20.2488 760.307,-19.5806 768.157,-26.6968 770.881,-20.2488"/>
</g>
<!-- Node26&#45;&gt;Node7 -->
<g id="edge38" class="edge"><title>Node26&#45;&gt;Node7</title>
<path fill="none" stroke="midnightblue" d="M878.705,-62.4035C875.391,-53.7599 870.182,-40.17 865.951,-29.1341"/>
<polygon fill="midnightblue" stroke="midnightblue" points="869.137,-27.6653 862.289,-19.5806 862.601,-30.1709 869.137,-27.6653"/>
</g>
<!-- Node27&#45;&gt;Node2 -->
<g id="edge40" class="edge"><title>Node27&#45;&gt;Node2</title>
<path fill="none" stroke="midnightblue" d="M773.412,-62.4035C767.62,-53.4925 758.411,-39.3247 751.126,-28.1177"/>
<polygon fill="midnightblue" stroke="midnightblue" points="753.962,-26.0576 745.577,-19.5806 748.093,-29.8725 753.962,-26.0576"/>
</g>
</g>
</svg>
