<?xml version="1.0" encoding="UTF-8" standalone="no"?>
<!DOCTYPE svg PUBLIC "-//W3C//DTD SVG 1.1//EN"
 "http://www.w3.org/Graphics/SVG/1.1/DTD/svg11.dtd">
<!-- Generated by graphviz version 2.30.1 (20140110.0959)
 -->
<!-- Title: get_numvols.cc Pages: 1 -->
<!--zoomable 140 -->
<svg id="main" version="1.1" xmlns="http://www.w3.org/2000/svg" xmlns:xlink="http://www.w3.org/1999/xlink" xml:space="preserve" onload="init(evt)">
        <defs>
                <circle id="rim" cx="0" cy="0" r="7"/>
                <circle id="rim2" cx="0" cy="0" r="3.5"/>
                <g id="zoomPlus">
                        <use xlink:href="#rim" fill="#404040">
                                <set attributeName="fill" to="#808080" begin="zoomplus.mouseover" end="zoomplus.mouseout"/>
                        </use>
                        <path d="M-4,0h8M0,-4v8" fill="none" stroke="white" stroke-width="1.5" pointer-events="none"/>
                </g>
                <g id="zoomMin">
                        <use xlink:href="#rim" fill="#404040">
                                <set attributeName="fill" to="#808080" begin="zoomminus.mouseover" end="zoomminus.mouseout"/>
                        </use>
                        <path d="M-4,0h8" fill="none" stroke="white" stroke-width="1.5" pointer-events="none"/>
                </g>
                <g id="dirArrow">
                        <path fill="none" stroke="white" stroke-width="1.5" d="M0,-3.0v7 M-2.5,-0.5L0,-3.0L2.5,-0.5"/>
                </g>
               <g id="resetDef">
                       <use xlink:href="#rim2" fill="#404040">
                               <set attributeName="fill" to="#808080" begin="reset.mouseover" end="reset.mouseout"/>
                       </use>
               </g>
        </defs>

<script type="text/javascript">
var viewWidth = 526;
var viewHeight = 140;
var sectionId = 'dynsection-0';
</script>
<script xlink:href="svgpan.js"/>
<svg id="graph" class="graph">
<g id="viewport">
<title>get_numvols.cc</title>
<!-- Node1 -->
<g id="node1" class="node"><title>Node1</title>
<polygon fill="#bfbfbf" stroke="black" points="144,-112.5 144,-131.5 230,-131.5 230,-112.5 144,-112.5"/>
<text text-anchor="middle" x="187" y="-119.5" font-family="Helvetica,sans-Serif" font-size="10.00">get_numvols.cc</text>
</g>
<!-- Node2 -->
<g id="node2" class="node"><title>Node2</title>
<polygon fill="none" stroke="#bfbfbf" points="0,-56.5 0,-75.5 108,-75.5 108,-56.5 0,-56.5"/>
<text text-anchor="middle" x="54" y="-63.5" font-family="Helvetica,sans-Serif" font-size="10.00">boost/shared_ptr.hpp</text>
</g>
<!-- Node1&#45;&gt;Node2 -->
<g id="edge1" class="edge"><title>Node1&#45;&gt;Node2</title>
<path fill="none" stroke="midnightblue" d="M165.926,-112.444C143.94,-103.517 109.266,-89.4387 84.3359,-79.3168"/>
<polygon fill="midnightblue" stroke="midnightblue" points="85.5578,-76.0355 74.9756,-75.5164 82.9244,-82.5213 85.5578,-76.0355"/>
</g>
<!-- Node3 -->
<g id="node3" class="node"><title>Node3</title>
<polygon fill="none" stroke="#bfbfbf" points="133.5,-0.5 133.5,-19.5 176.5,-19.5 176.5,-0.5 133.5,-0.5"/>
<text text-anchor="middle" x="155" y="-7.5" font-family="Helvetica,sans-Serif" font-size="10.00">cstdio</text>
</g>
<!-- Node1&#45;&gt;Node3 -->
<g id="edge2" class="edge"><title>Node1&#45;&gt;Node3</title>
<path fill="none" stroke="midnightblue" d="M178.249,-112.286C170.437,-103.84 159.549,-90.2462 155,-76 150.221,-61.034 150.64,-43.1223 152.017,-29.895"/>
<polygon fill="midnightblue" stroke="midnightblue" points="155.528,-30.0406 153.366,-19.6686 148.588,-29.1246 155.528,-30.0406"/>
</g>
<!-- Node4 -->
<g id="node4" class="node"><title>Node4</title>
<polygon fill="none" stroke="#bfbfbf" points="164.5,-56.5 164.5,-75.5 209.5,-75.5 209.5,-56.5 164.5,-56.5"/>
<text text-anchor="middle" x="187" y="-63.5" font-family="Helvetica,sans-Serif" font-size="10.00">cstdlib</text>
</g>
<!-- Node1&#45;&gt;Node4 -->
<g id="edge3" class="edge"><title>Node1&#45;&gt;Node4</title>
<path fill="none" stroke="midnightblue" d="M187,-112.083C187,-105.006 187,-94.8611 187,-85.9865"/>
<polygon fill="midnightblue" stroke="midnightblue" points="190.5,-85.751 187,-75.7511 183.5,-85.7511 190.5,-85.751"/>
</g>
<!-- Node5 -->
<g id="node5" class="node"><title>Node5</title>
<g id="a_node5"><a xlink:href="psio_8h_source.html" target="_top" xlink:title="libpsio/psio.h">
<polygon fill="none" stroke="black" points="228,-56.5 228,-75.5 302,-75.5 302,-56.5 228,-56.5"/>
<text text-anchor="middle" x="265" y="-63.5" font-family="Helvetica,sans-Serif" font-size="10.00">libpsio/psio.h</text>
</a>
</g>
</g>
<!-- Node1&#45;&gt;Node5 -->
<g id="edge4" class="edge"><title>Node1&#45;&gt;Node5</title>
<path fill="none" stroke="midnightblue" d="M199.532,-112.324C211.586,-103.979 230.027,-91.2122 244.269,-81.3524"/>
<polygon fill="midnightblue" stroke="midnightblue" points="246.269,-84.2243 252.499,-75.6545 242.285,-78.469 246.269,-84.2243"/>
</g>
<!-- Node7 -->
<g id="node7" class="node"><title>Node7</title>
<g id="a_node7"><a xlink:href="psio_8hpp_source.html" target="_top" xlink:title="libpsio/psio.hpp">
<polygon fill="none" stroke="black" points="339,-56.5 339,-75.5 423,-75.5 423,-56.5 339,-56.5"/>
<text text-anchor="middle" x="381" y="-63.5" font-family="Helvetica,sans-Serif" font-size="10.00">libpsio/psio.hpp</text>
</a>
</g>
</g>
<!-- Node1&#45;&gt;Node7 -->
<g id="edge7" class="edge"><title>Node1&#45;&gt;Node7</title>
<path fill="none" stroke="midnightblue" d="M217.74,-112.444C250.944,-103.201 303.991,-88.4356 340.557,-78.2572"/>
<polygon fill="midnightblue" stroke="midnightblue" points="341.709,-81.5699 350.404,-75.5164 339.832,-74.8262 341.709,-81.5699"/>
</g>
<!-- Node5&#45;&gt;Node3 -->
<g id="edge5" class="edge"><title>Node5&#45;&gt;Node3</title>
<path fill="none" stroke="midnightblue" d="M247.327,-56.324C229.606,-47.6247 202.097,-34.1202 181.712,-24.113"/>
<polygon fill="midnightblue" stroke="midnightblue" points="183.149,-20.9195 172.63,-19.6545 180.064,-27.2031 183.149,-20.9195"/>
</g>
<!-- Node6 -->
<g id="node6" class="node"><title>Node6</title>
<g id="a_node6"><a xlink:href="libpsio_2config_8h_source.html" target="_top" xlink:title="libpsio/config.h">
<polygon fill="none" stroke="black" points="214,-0.5 214,-19.5 296,-19.5 296,-0.5 214,-0.5"/>
<text text-anchor="middle" x="255" y="-7.5" font-family="Helvetica,sans-Serif" font-size="10.00">libpsio/config.h</text>
</a>
</g>
</g>
<!-- Node5&#45;&gt;Node6 -->
<g id="edge6" class="edge"><title>Node5&#45;&gt;Node6</title>
<path fill="none" stroke="midnightblue" d="M263.349,-56.083C262.024,-48.9272 260.118,-38.6353 258.461,-29.6911"/>
<polygon fill="midnightblue" stroke="midnightblue" points="261.883,-28.9466 256.621,-19.7511 255,-30.2212 261.883,-28.9466"/>
</g>
<!-- Node8 -->
<g id="node8" class="node"><title>Node8</title>
<polygon fill="none" stroke="#bfbfbf" points="314.5,-0.5 314.5,-19.5 355.5,-19.5 355.5,-0.5 314.5,-0.5"/>
<text text-anchor="middle" x="335" y="-7.5" font-family="Helvetica,sans-Serif" font-size="10.00">string</text>
</g>
<!-- Node7&#45;&gt;Node8 -->
<g id="edge8" class="edge"><title>Node7&#45;&gt;Node8</title>
<path fill="none" stroke="midnightblue" d="M373.404,-56.083C366.773,-48.2982 356.979,-36.8015 348.942,-27.3665"/>
<polygon fill="midnightblue" stroke="midnightblue" points="351.604,-25.0939 342.455,-19.7511 346.275,-29.6332 351.604,-25.0939"/>
</g>
<!-- Node9 -->
<g id="node9" class="node"><title>Node9</title>
<polygon fill="none" stroke="#bfbfbf" points="373.5,-0.5 373.5,-19.5 408.5,-19.5 408.5,-0.5 373.5,-0.5"/>
<text text-anchor="middle" x="391" y="-7.5" font-family="Helvetica,sans-Serif" font-size="10.00">map</text>
</g>
<!-- Node7&#45;&gt;Node9 -->
<g id="edge9" class="edge"><title>Node7&#45;&gt;Node9</title>
<path fill="none" stroke="midnightblue" d="M382.651,-56.083C383.976,-48.9272 385.882,-38.6353 387.539,-29.6911"/>
<polygon fill="midnightblue" stroke="midnightblue" points="391,-30.2212 389.379,-19.7511 384.117,-28.9466 391,-30.2212"/>
</g>
<!-- Node10 -->
<g id="node10" class="node"><title>Node10</title>
<polygon fill="none" stroke="#bfbfbf" points="427,-0.5 427,-19.5 457,-19.5 457,-0.5 427,-0.5"/>
<text text-anchor="middle" x="442" y="-7.5" font-family="Helvetica,sans-Serif" font-size="10.00">set</text>
</g>
<!-- Node7&#45;&gt;Node10 -->
<g id="edge10" class="edge"><title>Node7&#45;&gt;Node10</title>
<path fill="none" stroke="midnightblue" d="M390.801,-56.324C399.818,-48.3414 413.406,-36.3128 424.318,-26.6529"/>
<polygon fill="midnightblue" stroke="midnightblue" points="426.853,-29.083 432.021,-19.8339 422.213,-23.8416 426.853,-29.083"/>
</g>
<!-- Node11 -->
<g id="node11" class="node"><title>Node11</title>
<polygon fill="none" stroke="#bfbfbf" points="475.5,-0.5 475.5,-19.5 518.5,-19.5 518.5,-0.5 475.5,-0.5"/>
<text text-anchor="middle" x="497" y="-7.5" font-family="Helvetica,sans-Serif" font-size="10.00">queue</text>
</g>
<!-- Node7&#45;&gt;Node11 -->
<g id="edge11" class="edge"><title>Node7&#45;&gt;Node11</title>
<path fill="none" stroke="midnightblue" d="M399.381,-56.4435C418.216,-47.6751 447.731,-33.9355 469.379,-23.8579"/>
<polygon fill="midnightblue" stroke="midnightblue" points="471.117,-26.9098 478.705,-19.5164 468.162,-20.5637 471.117,-26.9098"/>
</g>
<!-- Node7&#45;&gt;Node6 -->
<g id="edge12" class="edge"><title>Node7&#45;&gt;Node6</title>
<path fill="none" stroke="midnightblue" d="M361.035,-56.4435C340.391,-47.5961 307.937,-33.6875 284.368,-23.5865"/>
<polygon fill="midnightblue" stroke="midnightblue" points="285.442,-20.2387 274.872,-19.5164 282.684,-26.6727 285.442,-20.2387"/>
</g>
</g>
</svg>
        <g id="navigator" transform="translate(0 0)" fill="#404254">
                <rect fill="#f2f5e9" fill-opacity="0.5" stroke="#606060" stroke-width=".5" x="0" y="0" width="60" height="60"/>
                <use id="zoomplus" xlink:href="#zoomPlus" x="17" y="9" onmousedown="handleZoom(evt,'in')"/>
                <use id="zoomminus" xlink:href="#zoomMin" x="42" y="9" onmousedown="handleZoom(evt,'out')"/>
                <use id="reset" xlink:href="#resetDef" x="30" y="36" onmousedown="handleReset()"/>
                <g id="arrowUp" xlink:href="#dirArrow" transform="translate(30 24)" onmousedown="handlePan(0,-1)">
                  <use xlink:href="#rim" fill="#404040">
                        <set attributeName="fill" to="#808080" begin="arrowUp.mouseover" end="arrowUp.mouseout"/>
                  </use>
                  <path fill="none" stroke="white" stroke-width="1.5" d="M0,-3.0v7 M-2.5,-0.5L0,-3.0L2.5,-0.5"/>
                </g>
                <g id="arrowRight" xlink:href="#dirArrow" transform="rotate(90) translate(36 -43)" onmousedown="handlePan(1,0)">
                  <use xlink:href="#rim" fill="#404040">
                        <set attributeName="fill" to="#808080" begin="arrowRight.mouseover" end="arrowRight.mouseout"/>
                  </use>
                  <path fill="none" stroke="white" stroke-width="1.5" d="M0,-3.0v7 M-2.5,-0.5L0,-3.0L2.5,-0.5"/>
                </g>
                <g id="arrowDown" xlink:href="#dirArrow" transform="rotate(180) translate(-30 -48)" onmousedown="handlePan(0,1)">
                  <use xlink:href="#rim" fill="#404040">
                        <set attributeName="fill" to="#808080" begin="arrowDown.mouseover" end="arrowDown.mouseout"/>
                  </use>
                  <path fill="none" stroke="white" stroke-width="1.5" d="M0,-3.0v7 M-2.5,-0.5L0,-3.0L2.5,-0.5"/>
                </g>
                <g id="arrowLeft" xlink:href="#dirArrow" transform="rotate(270) translate(-36 17)" onmousedown="handlePan(-1,0)">
                  <use xlink:href="#rim" fill="#404040">
                        <set attributeName="fill" to="#808080" begin="arrowLeft.mouseover" end="arrowLeft.mouseout"/>
                  </use>
                  <path fill="none" stroke="white" stroke-width="1.5" d="M0,-3.0v7 M-2.5,-0.5L0,-3.0L2.5,-0.5"/>
                </g>
        </g>
        <svg viewBox="0 0 15 15" width="100%" height="30px" preserveAspectRatio="xMaxYMin meet">
         <g id="arrow_out" transform="scale(0.3 0.3)">
          <a xlink:href="get__numvols_8cc__incl_org.svg" target="_base">
           <rect id="button" ry="5" rx="5" y="6" x="6" height="38" width="38"
                fill="#f2f5e9" fill-opacity="0.5" stroke="#606060" stroke-width="1.0"/>
           <path id="arrow"
             d="M 11.500037,31.436501 C 11.940474,20.09759 22.043105,11.32322 32.158766,21.979434 L 37.068811,17.246167 C 37.068811,17.246167 37.088388,32 37.088388,32 L 22.160133,31.978069 C 22.160133,31.978069 26.997745,27.140456 26.997745,27.140456 C 18.528582,18.264221 13.291696,25.230495 11.500037,31.436501 z"
             style="fill:#404040;"/>
          </a>
         </g>
        </svg>
</svg>
