<?xml version="1.0" encoding="UTF-8" standalone="no"?>
<!DOCTYPE svg PUBLIC "-//W3C//DTD SVG 1.1//EN"
 "http://www.w3.org/Graphics/SVG/1.1/DTD/svg11.dtd">
<!-- Generated by graphviz version 2.30.1 (20140110.0959)
 -->
<!-- Title: get_writer_file_prefix.cc Pages: 1 -->
<!--zoomable 264 -->
<svg id="main" version="1.1" xmlns="http://www.w3.org/2000/svg" xmlns:xlink="http://www.w3.org/1999/xlink" xml:space="preserve" onload="init(evt)">
        <defs>
                <circle id="rim" cx="0" cy="0" r="7"/>
                <circle id="rim2" cx="0" cy="0" r="3.5"/>
                <g id="zoomPlus">
                        <use xlink:href="#rim" fill="#404040">
                                <set attributeName="fill" to="#808080" begin="zoomplus.mouseover" end="zoomplus.mouseout"/>
                        </use>
                        <path d="M-4,0h8M0,-4v8" fill="none" stroke="white" stroke-width="1.5" pointer-events="none"/>
                </g>
                <g id="zoomMin">
                        <use xlink:href="#rim" fill="#404040">
                                <set attributeName="fill" to="#808080" begin="zoomminus.mouseover" end="zoomminus.mouseout"/>
                        </use>
                        <path d="M-4,0h8" fill="none" stroke="white" stroke-width="1.5" pointer-events="none"/>
                </g>
                <g id="dirArrow">
                        <path fill="none" stroke="white" stroke-width="1.5" d="M0,-3.0v7 M-2.5,-0.5L0,-3.0L2.5,-0.5"/>
                </g>
               <g id="resetDef">
                       <use xlink:href="#rim2" fill="#404040">
                               <set attributeName="fill" to="#808080" begin="reset.mouseover" end="reset.mouseout"/>
                       </use>
               </g>
        </defs>

<script type="text/javascript">
var viewWidth = 1353;
var viewHeight = 264;
var sectionId = 'dynsection-0';
</script>
<script xlink:href="svgpan.js"/>
<svg id="graph" class="graph">
<g id="viewport">
<title>get_writer_file_prefix.cc</title>
<!-- Node1 -->
<g id="node1" class="node"><title>Node1</title>
<polygon fill="#bfbfbf" stroke="black" points="670,-236.5 670,-255.5 790,-255.5 790,-236.5 670,-236.5"/>
<text text-anchor="middle" x="730" y="-243.5" font-family="Helvetica,sans-Serif" font-size="10.00">get_writer_file_prefix.cc</text>
</g>
<!-- Node2 -->
<g id="node2" class="node"><title>Node2</title>
<polygon fill="none" stroke="#bfbfbf" points="82.5,-0.5 82.5,-19.5 127.5,-19.5 127.5,-0.5 82.5,-0.5"/>
<text text-anchor="middle" x="105" y="-7.5" font-family="Helvetica,sans-Serif" font-size="10.00">cstdlib</text>
</g>
<!-- Node1&#45;&gt;Node2 -->
<g id="edge1" class="edge"><title>Node1&#45;&gt;Node2</title>
<path fill="none" stroke="midnightblue" d="M669.752,-237.086C614.959,-229.377 532.044,-216.43 461,-200 290.701,-160.617 188.527,-228.096 84,-88 70.8393,-70.361 82.0924,-44.9701 92.5314,-28.2359"/>
<polygon fill="midnightblue" stroke="midnightblue" points="95.7235,-29.7605 98.393,-19.5074 89.9123,-25.8579 95.7235,-29.7605"/>
</g>
<!-- Node3 -->
<g id="node3" class="node"><title>Node3</title>
<polygon fill="none" stroke="#bfbfbf" points="779.5,-180.5 779.5,-199.5 830.5,-199.5 830.5,-180.5 779.5,-180.5"/>
<text text-anchor="middle" x="805" y="-187.5" font-family="Helvetica,sans-Serif" font-size="10.00">unistd.h</text>
</g>
<!-- Node1&#45;&gt;Node3 -->
<g id="edge2" class="edge"><title>Node1&#45;&gt;Node3</title>
<path fill="none" stroke="midnightblue" d="M742.05,-236.324C753.463,-228.107 770.831,-215.602 784.435,-205.807"/>
<polygon fill="midnightblue" stroke="midnightblue" points="786.66,-208.517 792.731,-199.834 782.57,-202.837 786.66,-208.517"/>
</g>
<!-- Node4 -->
<g id="node4" class="node"><title>Node4</title>
<polygon fill="none" stroke="#bfbfbf" points="849,-180.5 849,-199.5 895,-199.5 895,-180.5 849,-180.5"/>
<text text-anchor="middle" x="872" y="-187.5" font-family="Helvetica,sans-Serif" font-size="10.00">cstring</text>
</g>
<!-- Node1&#45;&gt;Node4 -->
<g id="edge3" class="edge"><title>Node1&#45;&gt;Node4</title>
<path fill="none" stroke="midnightblue" d="M752.5,-236.444C776.077,-227.478 813.322,-213.314 839.964,-203.183"/>
<polygon fill="midnightblue" stroke="midnightblue" points="841.502,-206.342 849.605,-199.516 839.014,-199.8 841.502,-206.342"/>
</g>
<!-- Node5 -->
<g id="node5" class="node"><title>Node5</title>
<polygon fill="none" stroke="#bfbfbf" points="913,-180.5 913,-199.5 999,-199.5 999,-180.5 913,-180.5"/>
<text text-anchor="middle" x="956" y="-187.5" font-family="Helvetica,sans-Serif" font-size="10.00">boost/regex.hpp</text>
</g>
<!-- Node1&#45;&gt;Node5 -->
<g id="edge4" class="edge"><title>Node1&#45;&gt;Node5</title>
<path fill="none" stroke="midnightblue" d="M765.81,-236.444C804.988,-227.083 867.877,-212.056 910.515,-201.868"/>
<polygon fill="midnightblue" stroke="midnightblue" points="911.444,-205.245 920.357,-199.516 909.818,-198.436 911.444,-205.245"/>
</g>
<!-- Node6 -->
<g id="node6" class="node"><title>Node6</title>
<polygon fill="none" stroke="#bfbfbf" points="549,-124.5 549,-143.5 657,-143.5 657,-124.5 549,-124.5"/>
<text text-anchor="middle" x="603" y="-131.5" font-family="Helvetica,sans-Serif" font-size="10.00">boost/shared_ptr.hpp</text>
</g>
<!-- Node1&#45;&gt;Node6 -->
<g id="edge5" class="edge"><title>Node1&#45;&gt;Node6</title>
<path fill="none" stroke="midnightblue" d="M720.035,-236.368C698.612,-217.814 647.927,-173.913 620.823,-150.438"/>
<polygon fill="midnightblue" stroke="midnightblue" points="622.77,-147.493 612.919,-143.591 618.187,-152.784 622.77,-147.493"/>
</g>
<!-- Node7 -->
<g id="node7" class="node"><title>Node7</title>
<g id="a_node7"><a xlink:href="psi4-dec_8h_source.html" target="_top" xlink:title="psi4&#45;dec.h">
<polygon fill="none" stroke="black" points="699,-180.5 699,-199.5 761,-199.5 761,-180.5 699,-180.5"/>
<text text-anchor="middle" x="730" y="-187.5" font-family="Helvetica,sans-Serif" font-size="10.00">psi4&#45;dec.h</text>
</a>
</g>
</g>
<!-- Node1&#45;&gt;Node7 -->
<g id="edge6" class="edge"><title>Node1&#45;&gt;Node7</title>
<path fill="none" stroke="midnightblue" d="M730,-236.083C730,-229.006 730,-218.861 730,-209.986"/>
<polygon fill="midnightblue" stroke="midnightblue" points="733.5,-209.751 730,-199.751 726.5,-209.751 733.5,-209.751"/>
</g>
<!-- Node31 -->
<g id="node31" class="node"><title>Node31</title>
<g id="a_node31"><a xlink:href="lib_2libmints_2molecule_8h_source.html" target="_top" xlink:title="libmints/molecule.h">
<polygon fill="none" stroke="black" points="470.5,-180.5 470.5,-199.5 571.5,-199.5 571.5,-180.5 470.5,-180.5"/>
<text text-anchor="middle" x="521" y="-187.5" font-family="Helvetica,sans-Serif" font-size="10.00">libmints/molecule.h</text>
</a>
</g>
</g>
<!-- Node1&#45;&gt;Node31 -->
<g id="edge40" class="edge"><title>Node1&#45;&gt;Node31</title>
<path fill="none" stroke="midnightblue" d="M696.883,-236.444C660.882,-227.142 603.23,-212.246 563.814,-202.062"/>
<polygon fill="midnightblue" stroke="midnightblue" points="564.519,-198.629 553.962,-199.516 562.768,-205.407 564.519,-198.629"/>
</g>
<!-- Node7&#45;&gt;Node6 -->
<g id="edge7" class="edge"><title>Node7&#45;&gt;Node6</title>
<path fill="none" stroke="midnightblue" d="M709.876,-180.444C688.976,-171.557 656.065,-157.563 632.284,-147.451"/>
<polygon fill="midnightblue" stroke="midnightblue" points="633.602,-144.208 623.029,-143.516 630.862,-150.65 633.602,-144.208"/>
</g>
<!-- Node8 -->
<g id="node8" class="node"><title>Node8</title>
<polygon fill="none" stroke="#bfbfbf" points="921,-62.5 921,-81.5 1053,-81.5 1053,-62.5 921,-62.5"/>
<text text-anchor="middle" x="987" y="-69.5" font-family="Helvetica,sans-Serif" font-size="10.00">boost/current_function.hpp</text>
</g>
<!-- Node7&#45;&gt;Node8 -->
<g id="edge8" class="edge"><title>Node7&#45;&gt;Node8</title>
<path fill="none" stroke="midnightblue" d="M761.422,-181.827C764.319,-181.197 767.212,-180.579 770,-180 853.724,-162.612 893.143,-198.542 959,-144 974.754,-130.953 981.69,-107.823 984.714,-91.5147"/>
<polygon fill="midnightblue" stroke="midnightblue" points="988.19,-91.9366 986.243,-81.5222 981.27,-90.8778 988.19,-91.9366"/>
</g>
<!-- Node9 -->
<g id="node9" class="node"><title>Node9</title>
<polygon fill="none" stroke="#bfbfbf" points="538.5,-0.5 538.5,-19.5 579.5,-19.5 579.5,-0.5 538.5,-0.5"/>
<text text-anchor="middle" x="559" y="-7.5" font-family="Helvetica,sans-Serif" font-size="10.00">string</text>
</g>
<!-- Node7&#45;&gt;Node9 -->
<g id="edge9" class="edge"><title>Node7&#45;&gt;Node9</title>
<path fill="none" stroke="midnightblue" d="M759.42,-180.463C789.612,-171.227 833.963,-156.186 847,-144 876.794,-116.152 899.714,-86.8152 873,-56 836.544,-13.9465 661.913,-10.2471 590.024,-10.5526"/>
<polygon fill="midnightblue" stroke="midnightblue" points="589.772,-7.05425 579.798,-10.6267 589.823,-14.0541 589.772,-7.05425"/>
</g>
<!-- Node10 -->
<g id="node10" class="node"><title>Node10</title>
<polygon fill="none" stroke="#bfbfbf" points="921.5,-124.5 921.5,-143.5 950.5,-143.5 950.5,-124.5 921.5,-124.5"/>
<text text-anchor="middle" x="936" y="-131.5" font-family="Helvetica,sans-Serif" font-size="10.00">list</text>
</g>
<!-- Node7&#45;&gt;Node10 -->
<g id="edge10" class="edge"><title>Node7&#45;&gt;Node10</title>
<path fill="none" stroke="midnightblue" d="M761.145,-181.601C796.601,-173.057 856.191,-158.332 907,-144 908.459,-143.589 909.955,-143.156 911.463,-142.712"/>
<polygon fill="midnightblue" stroke="midnightblue" points="912.74,-145.983 921.291,-139.727 910.705,-139.285 912.74,-145.983"/>
</g>
<!-- Node11 -->
<g id="node11" class="node"><title>Node11</title>
<polygon fill="none" stroke="#bfbfbf" points="829.5,-62.5 829.5,-81.5 864.5,-81.5 864.5,-62.5 829.5,-62.5"/>
<text text-anchor="middle" x="847" y="-69.5" font-family="Helvetica,sans-Serif" font-size="10.00">map</text>
</g>
<!-- Node7&#45;&gt;Node11 -->
<g id="edge11" class="edge"><title>Node7&#45;&gt;Node11</title>
<path fill="none" stroke="midnightblue" d="M761.319,-181.842C782.718,-175.389 810.148,-163.786 827,-144 839.428,-129.408 844.16,-107.609 845.947,-92.0186"/>
<polygon fill="midnightblue" stroke="midnightblue" points="849.443,-92.2139 846.796,-81.9551 842.468,-91.6256 849.443,-92.2139"/>
</g>
<!-- Node12 -->
<g id="node12" class="node"><title>Node12</title>
<g id="a_node12"><a xlink:href="liboptions_8h_source.html" target="_top" xlink:title="liboptions/liboptions.h">
<polygon fill="none" stroke="black" points="675,-124.5 675,-143.5 785,-143.5 785,-124.5 675,-124.5"/>
<text text-anchor="middle" x="730" y="-131.5" font-family="Helvetica,sans-Serif" font-size="10.00">liboptions/liboptions.h</text>
</a>
</g>
</g>
<!-- Node7&#45;&gt;Node12 -->
<g id="edge12" class="edge"><title>Node7&#45;&gt;Node12</title>
<path fill="none" stroke="midnightblue" d="M730,-180.083C730,-173.006 730,-162.861 730,-153.986"/>
<polygon fill="midnightblue" stroke="midnightblue" points="733.5,-153.751 730,-143.751 726.5,-153.751 733.5,-153.751"/>
</g>
<!-- Node22 -->
<g id="node22" class="node"><title>Node22</title>
<g id="a_node22"><a xlink:href="include_2exception_8h_source.html" target="_top" xlink:title="exception.h">
<polygon fill="none" stroke="black" points="1104.5,-124.5 1104.5,-143.5 1171.5,-143.5 1171.5,-124.5 1104.5,-124.5"/>
<text text-anchor="middle" x="1138" y="-131.5" font-family="Helvetica,sans-Serif" font-size="10.00">exception.h</text>
</a>
</g>
</g>
<!-- Node7&#45;&gt;Node22 -->
<g id="edge27" class="edge"><title>Node7&#45;&gt;Node22</title>
<path fill="none" stroke="midnightblue" d="M761.384,-181.628C764.289,-181.04 767.195,-180.486 770,-180 886.425,-159.835 1025.11,-145.451 1094.26,-138.925"/>
<polygon fill="midnightblue" stroke="midnightblue" points="1094.72,-142.398 1104.35,-137.983 1094.07,-135.428 1094.72,-142.398"/>
</g>
<!-- Node27 -->
<g id="node27" class="node"><title>Node27</title>
<g id="a_node27"><a xlink:href="typedefs_8h_source.html" target="_top" xlink:title="libmints/typedefs.h">
<polygon fill="none" stroke="black" points="359.5,-124.5 359.5,-143.5 458.5,-143.5 458.5,-124.5 359.5,-124.5"/>
<text text-anchor="middle" x="409" y="-131.5" font-family="Helvetica,sans-Serif" font-size="10.00">libmints/typedefs.h</text>
</a>
</g>
</g>
<!-- Node7&#45;&gt;Node27 -->
<g id="edge33" class="edge"><title>Node7&#45;&gt;Node27</title>
<path fill="none" stroke="midnightblue" d="M698.93,-183.773C645.876,-174.848 536.953,-156.525 468.76,-145.053"/>
<polygon fill="midnightblue" stroke="midnightblue" points="469.035,-141.55 458.593,-143.343 467.874,-148.453 469.035,-141.55"/>
</g>
<!-- Node12&#45;&gt;Node9 -->
<g id="edge13" class="edge"><title>Node12&#45;&gt;Node9</title>
<path fill="none" stroke="midnightblue" d="M692.725,-124.484C668.491,-117.593 637.203,-106.019 614,-88 593.284,-71.9119 577.014,-45.9397 567.703,-28.6707"/>
<polygon fill="midnightblue" stroke="midnightblue" points="570.742,-26.9281 563.044,-19.6492 564.523,-30.1403 570.742,-26.9281"/>
</g>
<!-- Node13 -->
<g id="node13" class="node"><title>Node13</title>
<polygon fill="none" stroke="#bfbfbf" points="371,-0.5 371,-19.5 415,-19.5 415,-0.5 371,-0.5"/>
<text text-anchor="middle" x="393" y="-7.5" font-family="Helvetica,sans-Serif" font-size="10.00">vector</text>
</g>
<!-- Node12&#45;&gt;Node13 -->
<g id="edge14" class="edge"><title>Node12&#45;&gt;Node13</title>
<path fill="none" stroke="midnightblue" d="M674.736,-124.803C593.488,-112.673 450.823,-91.0411 446,-88 423.864,-74.043 408.586,-47.1186 400.31,-29.1002"/>
<polygon fill="midnightblue" stroke="midnightblue" points="403.52,-27.7057 396.339,-19.9153 397.094,-30.4832 403.52,-27.7057"/>
</g>
<!-- Node12&#45;&gt;Node11 -->
<g id="edge15" class="edge"><title>Node12&#45;&gt;Node11</title>
<path fill="none" stroke="midnightblue" d="M747.706,-124.429C765.939,-115.537 795.123,-101.122 820,-88 820.972,-87.4871 821.962,-86.9602 822.96,-86.4248"/>
<polygon fill="midnightblue" stroke="midnightblue" points="824.829,-89.3922 831.926,-81.5258 821.472,-83.2494 824.829,-89.3922"/>
</g>
<!-- Node14 -->
<g id="node14" class="node"><title>Node14</title>
<polygon fill="none" stroke="#bfbfbf" points="623.5,-62.5 623.5,-81.5 690.5,-81.5 690.5,-62.5 623.5,-62.5"/>
<text text-anchor="middle" x="657" y="-69.5" font-family="Helvetica,sans-Serif" font-size="10.00">exception.h</text>
</g>
<!-- Node12&#45;&gt;Node14 -->
<g id="edge16" class="edge"><title>Node12&#45;&gt;Node14</title>
<path fill="none" stroke="midnightblue" d="M719.541,-124.403C708.049,-114.958 689.37,-99.6056 675.413,-88.1342"/>
<polygon fill="midnightblue" stroke="midnightblue" points="677.388,-85.2264 667.44,-81.5806 672.943,-90.6342 677.388,-85.2264"/>
</g>
<!-- Node15 -->
<g id="node15" class="node"><title>Node15</title>
<g id="a_node15"><a xlink:href="libutil_8h_source.html" target="_top" xlink:title="libutil/libutil.h">
<polygon fill="none" stroke="black" points="455.5,-62.5 455.5,-81.5 528.5,-81.5 528.5,-62.5 455.5,-62.5"/>
<text text-anchor="middle" x="492" y="-69.5" font-family="Helvetica,sans-Serif" font-size="10.00">libutil/libutil.h</text>
</a>
</g>
</g>
<!-- Node12&#45;&gt;Node15 -->
<g id="edge17" class="edge"><title>Node12&#45;&gt;Node15</title>
<path fill="none" stroke="midnightblue" d="M696.153,-124.467C653.948,-113.827 581.732,-95.6215 535.472,-83.9593"/>
<polygon fill="midnightblue" stroke="midnightblue" points="536.282,-80.5542 525.73,-81.5034 534.571,-87.3418 536.282,-80.5542"/>
</g>
<!-- Node17 -->
<g id="node17" class="node"><title>Node17</title>
<g id="a_node17"><a xlink:href="libutil_2ref_8h_source.html" target="_top" xlink:title="libutil/ref.h">
<polygon fill="none" stroke="black" points="173,-62.5 173,-81.5 235,-81.5 235,-62.5 173,-62.5"/>
<text text-anchor="middle" x="204" y="-69.5" font-family="Helvetica,sans-Serif" font-size="10.00">libutil/ref.h</text>
</a>
</g>
</g>
<!-- Node12&#45;&gt;Node17 -->
<g id="edge21" class="edge"><title>Node12&#45;&gt;Node17</title>
<path fill="none" stroke="midnightblue" d="M674.859,-125.117C671.863,-124.729 668.896,-124.354 666,-124 512.535,-105.232 473.566,-105.915 320,-88 295.275,-85.1155 267.63,-81.5541 245.532,-78.6253"/>
<polygon fill="midnightblue" stroke="midnightblue" points="245.858,-75.138 235.483,-77.2867 244.934,-82.0767 245.858,-75.138"/>
</g>
<!-- Node21 -->
<g id="node21" class="node"><title>Node21</title>
<polygon fill="none" stroke="#bfbfbf" points="709,-57 709,-87 811,-87 811,-57 709,-57"/>
<text text-anchor="start" x="717" y="-75" font-family="Helvetica,sans-Serif" font-size="10.00">boost/python/object</text>
<text text-anchor="middle" x="760" y="-64" font-family="Helvetica,sans-Serif" font-size="10.00">_fwd.hpp</text>
</g>
<!-- Node12&#45;&gt;Node21 -->
<g id="edge26" class="edge"><title>Node12&#45;&gt;Node21</title>
<path fill="none" stroke="midnightblue" d="M734.298,-124.403C737.982,-117.037 743.461,-106.077 748.416,-96.168"/>
<polygon fill="midnightblue" stroke="midnightblue" points="751.588,-97.6504 752.93,-87.1408 745.327,-94.5198 751.588,-97.6504"/>
</g>
<!-- Node15&#45;&gt;Node9 -->
<g id="edge18" class="edge"><title>Node15&#45;&gt;Node9</title>
<path fill="none" stroke="midnightblue" d="M501.599,-62.4035C512.048,-53.047 528.968,-37.8948 541.736,-26.4599"/>
<polygon fill="midnightblue" stroke="midnightblue" points="544.304,-28.8592 549.418,-19.5806 539.634,-23.6445 544.304,-28.8592"/>
</g>
<!-- Node15&#45;&gt;Node13 -->
<g id="edge19" class="edge"><title>Node15&#45;&gt;Node13</title>
<path fill="none" stroke="midnightblue" d="M477.816,-62.4035C461.642,-52.6014 434.974,-36.4385 415.857,-24.8526"/>
<polygon fill="midnightblue" stroke="midnightblue" points="417.524,-21.7705 407.158,-19.5806 413.896,-27.7569 417.524,-21.7705"/>
</g>
<!-- Node16 -->
<g id="node16" class="node"><title>Node16</title>
<polygon fill="none" stroke="#bfbfbf" points="458,-0.5 458,-19.5 520,-19.5 520,-0.5 458,-0.5"/>
<text text-anchor="middle" x="489" y="-7.5" font-family="Helvetica,sans-Serif" font-size="10.00">sys/time.h</text>
</g>
<!-- Node15&#45;&gt;Node16 -->
<g id="edge20" class="edge"><title>Node15&#45;&gt;Node16</title>
<path fill="none" stroke="midnightblue" d="M491.57,-62.4035C491.147,-53.9381 490.486,-40.7283 489.941,-29.8199"/>
<polygon fill="midnightblue" stroke="midnightblue" points="493.424,-29.3933 489.429,-19.5806 486.433,-29.7429 493.424,-29.3933"/>
</g>
<!-- Node18 -->
<g id="node18" class="node"><title>Node18</title>
<polygon fill="none" stroke="#bfbfbf" points="145.5,-0.5 145.5,-19.5 194.5,-19.5 194.5,-0.5 145.5,-0.5"/>
<text text-anchor="middle" x="170" y="-7.5" font-family="Helvetica,sans-Serif" font-size="10.00">cstddef</text>
</g>
<!-- Node17&#45;&gt;Node18 -->
<g id="edge22" class="edge"><title>Node17&#45;&gt;Node18</title>
<path fill="none" stroke="midnightblue" d="M199.129,-62.4035C194.13,-53.5816 186.211,-39.6075 179.891,-28.4548"/>
<polygon fill="midnightblue" stroke="midnightblue" points="182.838,-26.5553 174.862,-19.5806 176.747,-30.0064 182.838,-26.5553"/>
</g>
<!-- Node19 -->
<g id="node19" class="node"><title>Node19</title>
<polygon fill="none" stroke="#bfbfbf" points="283.5,-0.5 283.5,-19.5 326.5,-19.5 326.5,-0.5 283.5,-0.5"/>
<text text-anchor="middle" x="305" y="-7.5" font-family="Helvetica,sans-Serif" font-size="10.00">cstdio</text>
</g>
<!-- Node17&#45;&gt;Node19 -->
<g id="edge23" class="edge"><title>Node17&#45;&gt;Node19</title>
<path fill="none" stroke="midnightblue" d="M218.471,-62.4035C235.046,-52.5569 262.426,-36.2915 281.947,-24.6949"/>
<polygon fill="midnightblue" stroke="midnightblue" points="283.746,-27.6971 290.556,-19.5806 280.171,-21.6789 283.746,-27.6971"/>
</g>
<!-- Node17&#45;&gt;Node2 -->
<g id="edge24" class="edge"><title>Node17&#45;&gt;Node2</title>
<path fill="none" stroke="midnightblue" d="M189.816,-62.4035C173.642,-52.6014 146.974,-36.4385 127.857,-24.8526"/>
<polygon fill="midnightblue" stroke="midnightblue" points="129.524,-21.7705 119.158,-19.5806 125.896,-27.7569 129.524,-21.7705"/>
</g>
<!-- Node20 -->
<g id="node20" class="node"><title>Node20</title>
<polygon fill="none" stroke="#bfbfbf" points="213,-0.5 213,-19.5 265,-19.5 265,-0.5 213,-0.5"/>
<text text-anchor="middle" x="239" y="-7.5" font-family="Helvetica,sans-Serif" font-size="10.00">assert.h</text>
</g>
<!-- Node17&#45;&gt;Node20 -->
<g id="edge25" class="edge"><title>Node17&#45;&gt;Node20</title>
<path fill="none" stroke="midnightblue" d="M209.015,-62.4035C214.161,-53.5816 222.312,-39.6075 228.818,-28.4548"/>
<polygon fill="midnightblue" stroke="midnightblue" points="231.979,-29.982 233.995,-19.5806 225.933,-26.4548 231.979,-29.982"/>
</g>
<!-- Node23 -->
<g id="node23" class="node"><title>Node23</title>
<polygon fill="none" stroke="#bfbfbf" points="1286.5,-62.5 1286.5,-81.5 1345.5,-81.5 1345.5,-62.5 1286.5,-62.5"/>
<text text-anchor="middle" x="1316" y="-69.5" font-family="Helvetica,sans-Serif" font-size="10.00">exception</text>
</g>
<!-- Node22&#45;&gt;Node23 -->
<g id="edge28" class="edge"><title>Node22&#45;&gt;Node23</title>
<path fill="none" stroke="midnightblue" d="M1165.84,-124.474C1194.01,-115.733 1238.74,-101.539 1277,-88 1279.54,-87.1008 1282.17,-86.1466 1284.8,-85.1723"/>
<polygon fill="midnightblue" stroke="midnightblue" points="1286.09,-88.4243 1294.21,-81.6185 1283.62,-81.8752 1286.09,-88.4243"/>
</g>
<!-- Node24 -->
<g id="node24" class="node"><title>Node24</title>
<polygon fill="none" stroke="#bfbfbf" points="1071.5,-62.5 1071.5,-81.5 1130.5,-81.5 1130.5,-62.5 1071.5,-62.5"/>
<text text-anchor="middle" x="1101" y="-69.5" font-family="Helvetica,sans-Serif" font-size="10.00">stdexcept</text>
</g>
<!-- Node22&#45;&gt;Node24 -->
<g id="edge29" class="edge"><title>Node22&#45;&gt;Node24</title>
<path fill="none" stroke="midnightblue" d="M1132.7,-124.403C1127.2,-115.493 1118.47,-101.325 1111.56,-90.1177"/>
<polygon fill="midnightblue" stroke="midnightblue" points="1114.52,-88.2552 1106.29,-81.5806 1108.56,-91.9294 1114.52,-88.2552"/>
</g>
<!-- Node25 -->
<g id="node25" class="node"><title>Node25</title>
<polygon fill="none" stroke="#bfbfbf" points="1149,-62.5 1149,-81.5 1201,-81.5 1201,-62.5 1149,-62.5"/>
<text text-anchor="middle" x="1175" y="-69.5" font-family="Helvetica,sans-Serif" font-size="10.00">sstream</text>
</g>
<!-- Node22&#45;&gt;Node25 -->
<g id="edge30" class="edge"><title>Node22&#45;&gt;Node25</title>
<path fill="none" stroke="midnightblue" d="M1143.3,-124.403C1148.8,-115.493 1157.53,-101.325 1164.44,-90.1177"/>
<polygon fill="midnightblue" stroke="midnightblue" points="1167.44,-91.9294 1169.71,-81.5806 1161.48,-88.2552 1167.44,-91.9294"/>
</g>
<!-- Node26 -->
<g id="node26" class="node"><title>Node26</title>
<polygon fill="none" stroke="#bfbfbf" points="1219.5,-62.5 1219.5,-81.5 1268.5,-81.5 1268.5,-62.5 1219.5,-62.5"/>
<text text-anchor="middle" x="1244" y="-69.5" font-family="Helvetica,sans-Serif" font-size="10.00">string.h</text>
</g>
<!-- Node22&#45;&gt;Node26 -->
<g id="edge31" class="edge"><title>Node22&#45;&gt;Node26</title>
<path fill="none" stroke="midnightblue" d="M1153.19,-124.403C1170.66,-114.512 1199.58,-98.1442 1220.08,-86.5378"/>
<polygon fill="midnightblue" stroke="midnightblue" points="1221.86,-89.5525 1228.84,-81.5806 1218.41,-83.4607 1221.86,-89.5525"/>
</g>
<!-- Node22&#45;&gt;Node8 -->
<g id="edge32" class="edge"><title>Node22&#45;&gt;Node8</title>
<path fill="none" stroke="midnightblue" d="M1116.37,-124.403C1090.58,-114.156 1047.29,-96.9561 1017.96,-85.3021"/>
<polygon fill="midnightblue" stroke="midnightblue" points="1019.18,-82.0207 1008.59,-81.5806 1016.6,-88.526 1019.18,-82.0207"/>
</g>
<!-- Node28 -->
<g id="node28" class="node"><title>Node28</title>
<g id="a_node28"><a xlink:href="compiler_8h_source.html" target="_top" xlink:title="compiler.h">
<polygon fill="none" stroke="black" points="93,-62.5 93,-81.5 155,-81.5 155,-62.5 93,-62.5"/>
<text text-anchor="middle" x="124" y="-69.5" font-family="Helvetica,sans-Serif" font-size="10.00">compiler.h</text>
</a>
</g>
</g>
<!-- Node27&#45;&gt;Node28 -->
<g id="edge34" class="edge"><title>Node27&#45;&gt;Node28</title>
<path fill="none" stroke="midnightblue" d="M359.144,-126.487C309.222,-119.35 230.475,-106.412 164,-88 160.855,-87.1289 157.61,-86.1141 154.391,-85.0308"/>
<polygon fill="midnightblue" stroke="midnightblue" points="155.538,-81.724 144.943,-81.6503 153.18,-88.3148 155.538,-81.724"/>
</g>
<!-- Node30 -->
<g id="node30" class="node"><title>Node30</title>
<g id="a_node30"><a xlink:href="dimension_8h_source.html" target="_top" xlink:title="dimension.h">
<polygon fill="none" stroke="black" points="329.5,-62.5 329.5,-81.5 398.5,-81.5 398.5,-62.5 329.5,-62.5"/>
<text text-anchor="middle" x="364" y="-69.5" font-family="Helvetica,sans-Serif" font-size="10.00">dimension.h</text>
</a>
</g>
</g>
<!-- Node27&#45;&gt;Node30 -->
<g id="edge36" class="edge"><title>Node27&#45;&gt;Node30</title>
<path fill="none" stroke="midnightblue" d="M402.553,-124.403C395.803,-115.403 385.031,-101.041 376.587,-89.7824"/>
<polygon fill="midnightblue" stroke="midnightblue" points="379.235,-87.4806 370.435,-81.5806 373.635,-91.6806 379.235,-87.4806"/>
</g>
<!-- Node29 -->
<g id="node29" class="node"><title>Node29</title>
<polygon fill="none" stroke="#bfbfbf" points="0,-0.5 0,-19.5 64,-19.5 64,-0.5 0,-0.5"/>
<text text-anchor="middle" x="32" y="-7.5" font-family="Helvetica,sans-Serif" font-size="10.00">psiconfig.h</text>
</g>
<!-- Node28&#45;&gt;Node29 -->
<g id="edge35" class="edge"><title>Node28&#45;&gt;Node29</title>
<path fill="none" stroke="midnightblue" d="M110.819,-62.4035C95.9255,-52.6905 71.4556,-36.7319 53.7269,-25.1697"/>
<polygon fill="midnightblue" stroke="midnightblue" points="55.445,-22.1117 45.1569,-19.5806 51.6211,-27.975 55.445,-22.1117"/>
</g>
<!-- Node30&#45;&gt;Node9 -->
<g id="edge37" class="edge"><title>Node30&#45;&gt;Node9</title>
<path fill="none" stroke="midnightblue" d="M391.939,-62.4035C428.133,-51.2668 491.012,-31.9192 528.443,-20.4023"/>
<polygon fill="midnightblue" stroke="midnightblue" points="529.753,-23.661 538.282,-17.3749 527.695,-16.9706 529.753,-23.661"/>
</g>
<!-- Node30&#45;&gt;Node19 -->
<g id="edge38" class="edge"><title>Node30&#45;&gt;Node19</title>
<path fill="none" stroke="midnightblue" d="M355.547,-62.4035C346.434,-53.1361 331.73,-38.1828 320.524,-26.7876"/>
<polygon fill="midnightblue" stroke="midnightblue" points="322.945,-24.2569 313.438,-19.5806 317.953,-29.1649 322.945,-24.2569"/>
</g>
<!-- Node30&#45;&gt;Node13 -->
<g id="edge39" class="edge"><title>Node30&#45;&gt;Node13</title>
<path fill="none" stroke="midnightblue" d="M368.155,-62.4035C372.376,-53.6707 379.037,-39.8893 384.4,-28.7936"/>
<polygon fill="midnightblue" stroke="midnightblue" points="387.652,-30.1072 388.853,-19.5806 381.35,-27.061 387.652,-30.1072"/>
</g>
<!-- Node31&#45;&gt;Node13 -->
<g id="edge41" class="edge"><title>Node31&#45;&gt;Node13</title>
<path fill="none" stroke="midnightblue" d="M470.216,-186.289C433.433,-181.975 384.338,-171.102 350,-144 317.564,-118.4 299.857,-92.0794 320,-56 328.895,-40.0676 346.005,-29.0763 361.426,-21.9468"/>
<polygon fill="midnightblue" stroke="midnightblue" points="362.886,-25.1294 370.72,-17.997 360.148,-18.6869 362.886,-25.1294"/>
</g>
<!-- Node31&#45;&gt;Node9 -->
<g id="edge42" class="edge"><title>Node31&#45;&gt;Node9</title>
<path fill="none" stroke="midnightblue" d="M522.833,-180.415C528.662,-153.11 546.867,-67.8317 555.003,-29.7237"/>
<polygon fill="midnightblue" stroke="midnightblue" points="558.431,-30.4289 557.096,-19.9185 551.585,-28.9673 558.431,-30.4289"/>
</g>
<!-- Node31&#45;&gt;Node19 -->
<g id="edge43" class="edge"><title>Node31&#45;&gt;Node19</title>
<path fill="none" stroke="midnightblue" d="M470.282,-183.021C419.753,-176.086 346.784,-163.103 326,-144 294.397,-114.952 297.326,-59.1471 301.509,-29.9152"/>
<polygon fill="midnightblue" stroke="midnightblue" points="305.002,-30.2374 303.162,-19.8036 298.094,-29.1074 305.002,-30.2374"/>
</g>
<!-- Node31&#45;&gt;Node11 -->
<g id="edge44" class="edge"><title>Node31&#45;&gt;Node11</title>
<path fill="none" stroke="midnightblue" d="M571.703,-185.175C640.088,-179.257 757.526,-166.185 794,-144 814.678,-131.423 829.959,-107.485 838.666,-90.9027"/>
<polygon fill="midnightblue" stroke="midnightblue" points="841.924,-92.2102 843.227,-81.6958 835.652,-89.1027 841.924,-92.2102"/>
</g>
<!-- Node31&#45;&gt;Node27 -->
<g id="edge45" class="edge"><title>Node31&#45;&gt;Node27</title>
<path fill="none" stroke="midnightblue" d="M503.005,-180.324C484.962,-171.625 456.953,-158.12 436.197,-148.113"/>
<polygon fill="midnightblue" stroke="midnightblue" points="437.478,-144.845 426.95,-143.655 434.438,-151.15 437.478,-144.845"/>
</g>
<!-- Node31&#45;&gt;Node6 -->
<g id="edge46" class="edge"><title>Node31&#45;&gt;Node6</title>
<path fill="none" stroke="midnightblue" d="M534.175,-180.324C546.847,-171.979 566.233,-159.212 581.206,-149.352"/>
<polygon fill="midnightblue" stroke="midnightblue" points="583.431,-152.078 589.858,-143.655 579.581,-146.231 583.431,-152.078"/>
</g>
</g>
</svg>
        <g id="navigator" transform="translate(0 0)" fill="#404254">
                <rect fill="#f2f5e9" fill-opacity="0.5" stroke="#606060" stroke-width=".5" x="0" y="0" width="60" height="60"/>
                <use id="zoomplus" xlink:href="#zoomPlus" x="17" y="9" onmousedown="handleZoom(evt,'in')"/>
                <use id="zoomminus" xlink:href="#zoomMin" x="42" y="9" onmousedown="handleZoom(evt,'out')"/>
                <use id="reset" xlink:href="#resetDef" x="30" y="36" onmousedown="handleReset()"/>
                <g id="arrowUp" xlink:href="#dirArrow" transform="translate(30 24)" onmousedown="handlePan(0,-1)">
                  <use xlink:href="#rim" fill="#404040">
                        <set attributeName="fill" to="#808080" begin="arrowUp.mouseover" end="arrowUp.mouseout"/>
                  </use>
                  <path fill="none" stroke="white" stroke-width="1.5" d="M0,-3.0v7 M-2.5,-0.5L0,-3.0L2.5,-0.5"/>
                </g>
                <g id="arrowRight" xlink:href="#dirArrow" transform="rotate(90) translate(36 -43)" onmousedown="handlePan(1,0)">
                  <use xlink:href="#rim" fill="#404040">
                        <set attributeName="fill" to="#808080" begin="arrowRight.mouseover" end="arrowRight.mouseout"/>
                  </use>
                  <path fill="none" stroke="white" stroke-width="1.5" d="M0,-3.0v7 M-2.5,-0.5L0,-3.0L2.5,-0.5"/>
                </g>
                <g id="arrowDown" xlink:href="#dirArrow" transform="rotate(180) translate(-30 -48)" onmousedown="handlePan(0,1)">
                  <use xlink:href="#rim" fill="#404040">
                        <set attributeName="fill" to="#808080" begin="arrowDown.mouseover" end="arrowDown.mouseout"/>
                  </use>
                  <path fill="none" stroke="white" stroke-width="1.5" d="M0,-3.0v7 M-2.5,-0.5L0,-3.0L2.5,-0.5"/>
                </g>
                <g id="arrowLeft" xlink:href="#dirArrow" transform="rotate(270) translate(-36 17)" onmousedown="handlePan(-1,0)">
                  <use xlink:href="#rim" fill="#404040">
                        <set attributeName="fill" to="#808080" begin="arrowLeft.mouseover" end="arrowLeft.mouseout"/>
                  </use>
                  <path fill="none" stroke="white" stroke-width="1.5" d="M0,-3.0v7 M-2.5,-0.5L0,-3.0L2.5,-0.5"/>
                </g>
        </g>
        <svg viewBox="0 0 15 15" width="100%" height="30px" preserveAspectRatio="xMaxYMin meet">
         <g id="arrow_out" transform="scale(0.3 0.3)">
          <a xlink:href="get__writer__file__prefix_8cc__incl_org.svg" target="_base">
           <rect id="button" ry="5" rx="5" y="6" x="6" height="38" width="38"
                fill="#f2f5e9" fill-opacity="0.5" stroke="#606060" stroke-width="1.0"/>
           <path id="arrow"
             d="M 11.500037,31.436501 C 11.940474,20.09759 22.043105,11.32322 32.158766,21.979434 L 37.068811,17.246167 C 37.068811,17.246167 37.088388,32 37.088388,32 L 22.160133,31.978069 C 22.160133,31.978069 26.997745,27.140456 26.997745,27.140456 C 18.528582,18.264221 13.291696,25.230495 11.500037,31.436501 z"
             style="fill:#404040;"/>
          </a>
         </g>
        </svg>
</svg>
