<?xml version="1.0" encoding="UTF-8" standalone="no"?>
<!DOCTYPE svg PUBLIC "-//W3C//DTD SVG 1.1//EN"
 "http://www.w3.org/Graphics/SVG/1.1/DTD/svg11.dtd">
<!-- Generated by graphviz version 2.30.1 (20140110.0959)
 -->
<!-- Title: psi::reorder_qt_uhf Pages: 1 -->
<svg width="402pt" height="38pt"
 viewBox="0.00 0.00 402.00 38.00" xmlns="http://www.w3.org/2000/svg" xmlns:xlink="http://www.w3.org/1999/xlink">
<g id="graph0" class="graph" transform="scale(1 1) rotate(0) translate(4 34)">
<title>psi::reorder_qt_uhf</title>
<!-- Node1 -->
<g id="node1" class="node"><title>Node1</title>
<polygon fill="#bfbfbf" stroke="black" points="0,-5.5 0,-24.5 98,-24.5 98,-5.5 0,-5.5"/>
<text text-anchor="middle" x="49" y="-12.5" font-family="Helvetica,sans-Serif" font-size="10.00">psi::reorder_qt_uhf</text>
</g>
<!-- Node2 -->
<g id="node2" class="node"><title>Node2</title>
<g id="a_node2"><a xlink:href="classpsi_1_1IntegralTransform.html#accf2db5a41c4ab07be9939387751f3ac" target="_top" xlink:title="psi::IntegralTransform\l::initialize">
<polygon fill="none" stroke="black" points="134,-0 134,-30 246,-30 246,-0 134,-0"/>
<text text-anchor="start" x="142" y="-18" font-family="Helvetica,sans-Serif" font-size="10.00">psi::IntegralTransform</text>
<text text-anchor="middle" x="190" y="-7" font-family="Helvetica,sans-Serif" font-size="10.00">::initialize</text>
</a>
</g>
</g>
<!-- Node1&#45;&gt;Node2 -->
<g id="edge1" class="edge"><title>Node1&#45;&gt;Node2</title>
<path fill="none" stroke="midnightblue" d="M108.332,-15C116.737,-15 125.366,-15 133.709,-15"/>
<polygon fill="midnightblue" stroke="midnightblue" points="108.225,-11.5001 98.2254,-15 108.225,-18.5001 108.225,-11.5001"/>
</g>
<!-- Node3 -->
<g id="node3" class="node"><title>Node3</title>
<g id="a_node3"><a xlink:href="classpsi_1_1IntegralTransform.html#a6c53d01c47558e48a8b5be6ffdecf47b" target="_top" xlink:title="psi::IntegralTransform\l::IntegralTransform">
<polygon fill="none" stroke="black" points="282,-0 282,-30 394,-30 394,-0 282,-0"/>
<text text-anchor="start" x="290" y="-18" font-family="Helvetica,sans-Serif" font-size="10.00">psi::IntegralTransform</text>
<text text-anchor="middle" x="338" y="-7" font-family="Helvetica,sans-Serif" font-size="10.00">::IntegralTransform</text>
</a>
</g>
</g>
<!-- Node2&#45;&gt;Node3 -->
<g id="edge2" class="edge"><title>Node2&#45;&gt;Node3</title>
<path fill="none" stroke="midnightblue" d="M256.41,-15C264.865,-15 273.457,-15 281.726,-15"/>
<polygon fill="midnightblue" stroke="midnightblue" points="256.196,-11.5001 246.196,-15 256.196,-18.5001 256.196,-11.5001"/>
</g>
</g>
</svg>
