<?xml version="1.0" encoding="UTF-8" standalone="no"?>
<!DOCTYPE svg PUBLIC "-//W3C//DTD SVG 1.1//EN"
 "http://www.w3.org/Graphics/SVG/1.1/DTD/svg11.dtd">
<!-- Generated by graphviz version 2.30.1 (20140110.0959)
 -->
<!-- Title: psi::C_DSWAP Pages: 1 -->
<svg width="264pt" height="160pt"
 viewBox="0.00 0.00 264.00 160.00" xmlns="http://www.w3.org/2000/svg" xmlns:xlink="http://www.w3.org/1999/xlink">
<g id="graph0" class="graph" transform="scale(1 1) rotate(0) translate(4 156)">
<title>psi::C_DSWAP</title>
<!-- Node1 -->
<g id="node1" class="node"><title>Node1</title>
<polygon fill="#bfbfbf" stroke="black" points="0,-75.5 0,-94.5 86,-94.5 86,-75.5 0,-75.5"/>
<text text-anchor="middle" x="43" y="-82.5" font-family="Helvetica,sans-Serif" font-size="10.00">psi::C_DSWAP</text>
</g>
<!-- Node2 -->
<g id="node2" class="node"><title>Node2</title>
<g id="a_node2"><a xlink:href="namespacepsi.html#ae94898dbde057458f7f55480abd1ef90" target="_top" xlink:title="psi::benchmark_blas1">
<polygon fill="none" stroke="black" points="133,-132.5 133,-151.5 245,-151.5 245,-132.5 133,-132.5"/>
<text text-anchor="middle" x="189" y="-139.5" font-family="Helvetica,sans-Serif" font-size="10.00">psi::benchmark_blas1</text>
</a>
</g>
</g>
<!-- Node1&#45;&gt;Node2 -->
<g id="edge1" class="edge"><title>Node1&#45;&gt;Node2</title>
<path fill="none" stroke="midnightblue" d="M70.6749,-99.4204C85.5101,-107.075 104.468,-116.264 122,-123 131.127,-126.507 141.179,-129.716 150.626,-132.459"/>
<polygon fill="midnightblue" stroke="midnightblue" points="72.0598,-96.1948 61.5777,-94.6532 68.8106,-102.395 72.0598,-96.1948"/>
</g>
<!-- Node3 -->
<g id="node3" class="node"><title>Node3</title>
<g id="a_node3"><a xlink:href="classpsi_1_1Matrix.html#ae18fcc19187704e4e061aea83f103623" target="_top" xlink:title="Swap rows i and j.">
<polygon fill="none" stroke="black" points="130,-94.5 130,-113.5 248,-113.5 248,-94.5 130,-94.5"/>
<text text-anchor="middle" x="189" y="-101.5" font-family="Helvetica,sans-Serif" font-size="10.00">psi::Matrix::swap_rows</text>
</a>
</g>
</g>
<!-- Node1&#45;&gt;Node3 -->
<g id="edge2" class="edge"><title>Node1&#45;&gt;Node3</title>
<path fill="none" stroke="midnightblue" d="M96.2634,-91.8959C107.176,-93.3357 118.744,-94.8621 129.855,-96.3281"/>
<polygon fill="midnightblue" stroke="midnightblue" points="96.4098,-88.3849 86.0379,-90.5467 95.4941,-95.3248 96.4098,-88.3849"/>
</g>
<!-- Node4 -->
<g id="node4" class="node"><title>Node4</title>
<g id="a_node4"><a xlink:href="classpsi_1_1Matrix.html#a85b202025623bd2e860e3715e1eb9591" target="_top" xlink:title="Swap cols i and j.">
<polygon fill="none" stroke="black" points="122,-56.5 122,-75.5 256,-75.5 256,-56.5 122,-56.5"/>
<text text-anchor="middle" x="189" y="-63.5" font-family="Helvetica,sans-Serif" font-size="10.00">psi::Matrix::swap_columns</text>
</a>
</g>
</g>
<!-- Node1&#45;&gt;Node4 -->
<g id="edge3" class="edge"><title>Node1&#45;&gt;Node4</title>
<path fill="none" stroke="midnightblue" d="M96.0181,-78.1365C104.387,-77.0323 113.147,-75.8765 121.794,-74.7355"/>
<polygon fill="midnightblue" stroke="midnightblue" points="95.4941,-74.6752 86.0379,-79.4533 96.4098,-81.6151 95.4941,-74.6752"/>
</g>
<!-- Node5 -->
<g id="node5" class="node"><title>Node5</title>
<g id="a_node5"><a xlink:href="namespacepsi.html#adbd1fe3bc60351d13c0b2d9b739a3064" target="_top" xlink:title="PSI_DSWAP, a wrapper to C_DSWAP using objects.">
<polygon fill="none" stroke="black" points="141.5,-0.5 141.5,-19.5 236.5,-19.5 236.5,-0.5 141.5,-0.5"/>
<text text-anchor="middle" x="189" y="-7.5" font-family="Helvetica,sans-Serif" font-size="10.00">psi::PSI_DSWAP</text>
</a>
</g>
</g>
<!-- Node1&#45;&gt;Node5 -->
<g id="edge4" class="edge"><title>Node1&#45;&gt;Node5</title>
<path fill="none" stroke="midnightblue" d="M71.6505,-70.5987C100.444,-55.6023 144.736,-32.5334 169.54,-19.6144"/>
<polygon fill="midnightblue" stroke="midnightblue" points="69.783,-67.625 62.5307,-75.3486 73.0166,-73.8334 69.783,-67.625"/>
</g>
<!-- Node5&#45;&gt;Node5 -->
<g id="edge5" class="edge"><title>Node5&#45;&gt;Node5</title>
<path fill="none" stroke="midnightblue" d="M161.747,-28.6539C162.887,-33.9368 171.971,-38 189,-38 214.949,-38 222.45,-28.5653 211.503,-19.7571"/>
<polygon fill="midnightblue" stroke="midnightblue" points="164.875,-30.227 166.497,-19.7571 158.7,-26.9303 164.875,-30.227"/>
</g>
</g>
</svg>
