<?xml version="1.0" encoding="UTF-8" standalone="no"?>
<!DOCTYPE svg PUBLIC "-//W3C//DTD SVG 1.1//EN"
 "http://www.w3.org/Graphics/SVG/1.1/DTD/svg11.dtd">
<!-- Generated by graphviz version 2.30.1 (20140110.0959)
 -->
<!-- Title: psi::slaterdetset_init Pages: 1 -->
<svg width="418pt" height="28pt"
 viewBox="0.00 0.00 418.00 28.00" xmlns="http://www.w3.org/2000/svg" xmlns:xlink="http://www.w3.org/1999/xlink">
<g id="graph0" class="graph" transform="scale(1 1) rotate(0) translate(4 24)">
<title>psi::slaterdetset_init</title>
<!-- Node1 -->
<g id="node1" class="node"><title>Node1</title>
<polygon fill="#bfbfbf" stroke="black" points="0,-0.5 0,-19.5 104,-19.5 104,-0.5 0,-0.5"/>
<text text-anchor="middle" x="52" y="-7.5" font-family="Helvetica,sans-Serif" font-size="10.00">psi::slaterdetset_init</text>
</g>
<!-- Node2 -->
<g id="node2" class="node"><title>Node2</title>
<g id="a_node2"><a xlink:href="group__QT.html#ga4a2d65a1290e904986d93f3436848ab0" target="_top" xlink:title="psi::slaterdetset_read">
<polygon fill="none" stroke="black" points="140,-0.5 140,-19.5 250,-19.5 250,-0.5 140,-0.5"/>
<text text-anchor="middle" x="195" y="-7.5" font-family="Helvetica,sans-Serif" font-size="10.00">psi::slaterdetset_read</text>
</a>
</g>
</g>
<!-- Node1&#45;&gt;Node2 -->
<g id="edge1" class="edge"><title>Node1&#45;&gt;Node2</title>
<path fill="none" stroke="midnightblue" d="M114.425,-10C122.82,-10 131.39,-10 139.648,-10"/>
<polygon fill="midnightblue" stroke="midnightblue" points="114.303,-6.5001 104.303,-10 114.303,-13.5001 114.303,-6.5001"/>
</g>
<!-- Node3 -->
<g id="node3" class="node"><title>Node3</title>
<g id="a_node3"><a xlink:href="group__QT.html#ga67eca5299660efcf885f7bd743b587f9" target="_top" xlink:title="psi::slaterdetvector_read">
<polygon fill="none" stroke="black" points="286,-0.5 286,-19.5 410,-19.5 410,-0.5 286,-0.5"/>
<text text-anchor="middle" x="348" y="-7.5" font-family="Helvetica,sans-Serif" font-size="10.00">psi::slaterdetvector_read</text>
</a>
</g>
</g>
<!-- Node2&#45;&gt;Node3 -->
<g id="edge2" class="edge"><title>Node2&#45;&gt;Node3</title>
<path fill="none" stroke="midnightblue" d="M260.296,-10C268.768,-10 277.432,-10 285.849,-10"/>
<polygon fill="midnightblue" stroke="midnightblue" points="260.088,-6.5001 250.088,-10 260.088,-13.5001 260.088,-6.5001"/>
</g>
</g>
</svg>
