<?xml version="1.0" encoding="UTF-8" standalone="no"?>
<!DOCTYPE svg PUBLIC "-//W3C//DTD SVG 1.1//EN"
 "http://www.w3.org/Graphics/SVG/1.1/DTD/svg11.dtd">
<!-- Generated by graphviz version 2.30.1 (20140110.0959)
 -->
<!-- Title: psi::init_int_array Pages: 1 -->
<!--zoomable 726 -->
<svg id="main" version="1.1" xmlns="http://www.w3.org/2000/svg" xmlns:xlink="http://www.w3.org/1999/xlink" xml:space="preserve" onload="init(evt)">
        <defs>
                <circle id="rim" cx="0" cy="0" r="7"/>
                <circle id="rim2" cx="0" cy="0" r="3.5"/>
                <g id="zoomPlus">
                        <use xlink:href="#rim" fill="#404040">
                                <set attributeName="fill" to="#808080" begin="zoomplus.mouseover" end="zoomplus.mouseout"/>
                        </use>
                        <path d="M-4,0h8M0,-4v8" fill="none" stroke="white" stroke-width="1.5" pointer-events="none"/>
                </g>
                <g id="zoomMin">
                        <use xlink:href="#rim" fill="#404040">
                                <set attributeName="fill" to="#808080" begin="zoomminus.mouseover" end="zoomminus.mouseout"/>
                        </use>
                        <path d="M-4,0h8" fill="none" stroke="white" stroke-width="1.5" pointer-events="none"/>
                </g>
                <g id="dirArrow">
                        <path fill="none" stroke="white" stroke-width="1.5" d="M0,-3.0v7 M-2.5,-0.5L0,-3.0L2.5,-0.5"/>
                </g>
               <g id="resetDef">
                       <use xlink:href="#rim2" fill="#404040">
                               <set attributeName="fill" to="#808080" begin="reset.mouseover" end="reset.mouseout"/>
                       </use>
               </g>
        </defs>

<script type="text/javascript">
var viewWidth = 604;
var viewHeight = 726;
var sectionId = 'dynsection-12';
</script>
<script xlink:href="svgpan.js"/>
<svg id="graph" class="graph">
<g id="viewport">
<title>psi::init_int_array</title>
<!-- Node1 -->
<g id="node1" class="node"><title>Node1</title>
<polygon fill="#bfbfbf" stroke="black" points="0.5,-343.5 0.5,-362.5 91.5,-362.5 91.5,-343.5 0.5,-343.5"/>
<text text-anchor="middle" x="46" y="-350.5" font-family="Helvetica,sans-Serif" font-size="10.00">psi::init_int_array</text>
</g>
<!-- Node2 -->
<g id="node2" class="node"><title>Node2</title>
<g id="a_node2"><a xlink:href="namespacepsi.html#a7fe743339b4c555d69aa96c0bdea7474" target="_top" xlink:title="psi::benchmark_blas3">
<polygon fill="none" stroke="black" points="150,-698.5 150,-717.5 262,-717.5 262,-698.5 150,-698.5"/>
<text text-anchor="middle" x="206" y="-705.5" font-family="Helvetica,sans-Serif" font-size="10.00">psi::benchmark_blas3</text>
</a>
</g>
</g>
<!-- Node1&#45;&gt;Node2 -->
<g id="edge1" class="edge"><title>Node1&#45;&gt;Node2</title>
<path fill="none" stroke="midnightblue" d="M49.1062,-372.925C56.391,-438.096 82.5923,-643.348 128,-689 134.02,-695.053 141.641,-699.288 149.733,-702.231"/>
<polygon fill="midnightblue" stroke="midnightblue" points="52.5619,-372.328 47.9985,-362.767 45.6031,-373.087 52.5619,-372.328"/>
</g>
<!-- Node3 -->
<g id="node3" class="node"><title>Node3</title>
<g id="a_node3"><a xlink:href="group__QT.html#gaf4c6345ae60fb29588e8d1064f8f53d1" target="_top" xlink:title="psi::david">
<polygon fill="none" stroke="black" points="176.5,-660.5 176.5,-679.5 235.5,-679.5 235.5,-660.5 176.5,-660.5"/>
<text text-anchor="middle" x="206" y="-667.5" font-family="Helvetica,sans-Serif" font-size="10.00">psi::david</text>
</a>
</g>
</g>
<!-- Node1&#45;&gt;Node3 -->
<g id="edge2" class="edge"><title>Node1&#45;&gt;Node3</title>
<path fill="none" stroke="midnightblue" d="M49.745,-372.509C58.5104,-432.103 87.6383,-610.125 128,-650 140.675,-662.522 160.128,-667.503 176.309,-669.362"/>
<polygon fill="midnightblue" stroke="midnightblue" points="53.1977,-371.93 48.3064,-362.531 46.2693,-372.929 53.1977,-371.93"/>
</g>
<!-- Node4 -->
<g id="node4" class="node"><title>Node4</title>
<g id="a_node4"><a xlink:href="classpsi_1_1dcft_1_1DCFTSolver.html#a9bbe8074891c302a459ffbd59d3ac0ee" target="_top" xlink:title="psi::dcft::DCFTSolver\l::print_orbital_energies">
<polygon fill="none" stroke="black" points="148.5,-611 148.5,-641 263.5,-641 263.5,-611 148.5,-611"/>
<text text-anchor="start" x="156.5" y="-629" font-family="Helvetica,sans-Serif" font-size="10.00">psi::dcft::DCFTSolver</text>
<text text-anchor="middle" x="206" y="-618" font-family="Helvetica,sans-Serif" font-size="10.00">::print_orbital_energies</text>
</a>
</g>
</g>
<!-- Node1&#45;&gt;Node4 -->
<g id="edge3" class="edge"><title>Node1&#45;&gt;Node4</title>
<path fill="none" stroke="midnightblue" d="M47.6526,-372.896C50.2645,-419.447 63.2827,-536.396 128,-601 133.769,-606.759 140.877,-611.192 148.42,-614.604"/>
<polygon fill="midnightblue" stroke="midnightblue" points="51.1375,-372.483 47.1876,-362.652 44.1447,-372.801 51.1375,-372.483"/>
</g>
<!-- Node5 -->
<g id="node5" class="node"><title>Node5</title>
<g id="a_node5"><a xlink:href="classpsi_1_1dcft_1_1DCFTSolver.html#ad17b2f50cc79f89505a0069603d635c0" target="_top" xlink:title="psi::dcft::DCFTSolver\l::print_opdm">
<polygon fill="none" stroke="black" points="149.5,-562 149.5,-592 262.5,-592 262.5,-562 149.5,-562"/>
<text text-anchor="start" x="157.5" y="-580" font-family="Helvetica,sans-Serif" font-size="10.00">psi::dcft::DCFTSolver</text>
<text text-anchor="middle" x="206" y="-569" font-family="Helvetica,sans-Serif" font-size="10.00">::print_opdm</text>
</a>
</g>
</g>
<!-- Node1&#45;&gt;Node5 -->
<g id="edge4" class="edge"><title>Node1&#45;&gt;Node5</title>
<path fill="none" stroke="midnightblue" d="M49.9546,-372.461C56.7802,-410.945 77.1326,-497.339 128,-547 134.262,-553.114 141.912,-558.017 149.932,-561.94"/>
<polygon fill="midnightblue" stroke="midnightblue" points="53.3995,-371.84 48.3123,-362.546 46.4936,-372.984 53.3995,-371.84"/>
</g>
<!-- Node6 -->
<g id="node6" class="node"><title>Node6</title>
<g id="a_node6"><a xlink:href="group__DETCAS.html#ga49dc2a89174a68bb1842a80e93925e11" target="_top" xlink:title="psi::detcas::bfgs_hessian">
<polygon fill="none" stroke="black" points="320,-523.5 320,-542.5 448,-542.5 448,-523.5 320,-523.5"/>
<text text-anchor="middle" x="384" y="-530.5" font-family="Helvetica,sans-Serif" font-size="10.00">psi::detcas::bfgs_hessian</text>
</a>
</g>
</g>
<!-- Node1&#45;&gt;Node6 -->
<g id="edge5" class="edge"><title>Node1&#45;&gt;Node6</title>
<path fill="none" stroke="midnightblue" d="M50.4762,-372.776C57.8162,-407.97 78.482,-480.879 128,-514 189.992,-555.464 280.439,-550.689 335.296,-542.507"/>
<polygon fill="midnightblue" stroke="midnightblue" points="53.8768,-371.926 48.5416,-362.773 47.0041,-373.256 53.8768,-371.926"/>
</g>
<!-- Node7 -->
<g id="node7" class="node"><title>Node7</title>
<g id="a_node7"><a xlink:href="classpsi_1_1IntegralTransform.html#accf2db5a41c4ab07be9939387751f3ac" target="_top" xlink:title="psi::IntegralTransform\l::initialize">
<polygon fill="none" stroke="black" points="328,-33 328,-63 440,-63 440,-33 328,-33"/>
<text text-anchor="start" x="336" y="-51" font-family="Helvetica,sans-Serif" font-size="10.00">psi::IntegralTransform</text>
<text text-anchor="middle" x="384" y="-40" font-family="Helvetica,sans-Serif" font-size="10.00">::initialize</text>
</a>
</g>
</g>
<!-- Node1&#45;&gt;Node7 -->
<g id="edge6" class="edge"><title>Node1&#45;&gt;Node7</title>
<path fill="none" stroke="midnightblue" d="M49.6705,-333.129C58.0395,-274.057 85.7422,-101.494 128,-67 183.799,-21.4524 271.299,-26.0078 327.903,-35.4528"/>
<polygon fill="midnightblue" stroke="midnightblue" points="46.1591,-332.97 48.2558,-343.355 53.0931,-333.929 46.1591,-332.97"/>
</g>
<!-- Node9 -->
<g id="node9" class="node"><title>Node9</title>
<g id="a_node9"><a xlink:href="classpsi_1_1IntegralTransform.html#a4bb43f6f7eec118b92ec3b1da7cb912b" target="_top" xlink:title="psi::IntegralTransform\l::transform_oei">
<polygon fill="none" stroke="black" points="150,-436 150,-466 262,-466 262,-436 150,-436"/>
<text text-anchor="start" x="158" y="-454" font-family="Helvetica,sans-Serif" font-size="10.00">psi::IntegralTransform</text>
<text text-anchor="middle" x="206" y="-443" font-family="Helvetica,sans-Serif" font-size="10.00">::transform_oei</text>
</a>
</g>
</g>
<!-- Node1&#45;&gt;Node9 -->
<g id="edge8" class="edge"><title>Node1&#45;&gt;Node9</title>
<path fill="none" stroke="midnightblue" d="M62.5154,-370.737C77.7264,-387.143 102.314,-411.166 128,-426 134.816,-429.936 142.334,-433.347 149.922,-436.273"/>
<polygon fill="midnightblue" stroke="midnightblue" points="64.7649,-368.007 55.4596,-362.941 59.5749,-372.704 64.7649,-368.007"/>
</g>
<!-- Node10 -->
<g id="node10" class="node"><title>Node10</title>
<g id="a_node10"><a xlink:href="classpsi_1_1IntegralTransform.html#afb6664b90fe6b6c369002eb15bad9f6a" target="_top" xlink:title="psi::IntegralTransform\l::generate_oei">
<polygon fill="none" stroke="black" points="150,-387 150,-417 262,-417 262,-387 150,-387"/>
<text text-anchor="start" x="158" y="-405" font-family="Helvetica,sans-Serif" font-size="10.00">psi::IntegralTransform</text>
<text text-anchor="middle" x="206" y="-394" font-family="Helvetica,sans-Serif" font-size="10.00">::generate_oei</text>
</a>
</g>
</g>
<!-- Node1&#45;&gt;Node10 -->
<g id="edge9" class="edge"><title>Node1&#45;&gt;Node10</title>
<path fill="none" stroke="midnightblue" d="M87.4435,-365.543C108.497,-372.072 134.391,-380.102 156.513,-386.963"/>
<polygon fill="midnightblue" stroke="midnightblue" points="88.4271,-362.183 77.8391,-362.564 86.3535,-368.869 88.4271,-362.183"/>
</g>
<!-- Node11 -->
<g id="node11" class="node"><title>Node11</title>
<g id="a_node11"><a xlink:href="classpsi_1_1IntegralTransform.html#a2684abdabaf56269556c432f092d97dd" target="_top" xlink:title="psi::IntegralTransform\l::presort_mo_tpdm_restricted">
<polygon fill="none" stroke="black" points="134,-338 134,-368 278,-368 278,-338 134,-338"/>
<text text-anchor="start" x="142" y="-356" font-family="Helvetica,sans-Serif" font-size="10.00">psi::IntegralTransform</text>
<text text-anchor="middle" x="206" y="-345" font-family="Helvetica,sans-Serif" font-size="10.00">::presort_mo_tpdm_restricted</text>
</a>
</g>
</g>
<!-- Node1&#45;&gt;Node11 -->
<g id="edge10" class="edge"><title>Node1&#45;&gt;Node11</title>
<path fill="none" stroke="midnightblue" d="M101.898,-353C112.172,-353 123.047,-353 133.732,-353"/>
<polygon fill="midnightblue" stroke="midnightblue" points="101.854,-349.5 91.8538,-353 101.854,-356.5 101.854,-349.5"/>
</g>
<!-- Node12 -->
<g id="node12" class="node"><title>Node12</title>
<g id="a_node12"><a xlink:href="classpsi_1_1IntegralTransform.html#a77d1083a6304e17ff7c52ecbca5f9226" target="_top" xlink:title="psi::IntegralTransform\l::presort_mo_tpdm_unrestricted">
<polygon fill="none" stroke="black" points="128.5,-289 128.5,-319 283.5,-319 283.5,-289 128.5,-289"/>
<text text-anchor="start" x="136.5" y="-307" font-family="Helvetica,sans-Serif" font-size="10.00">psi::IntegralTransform</text>
<text text-anchor="middle" x="206" y="-296" font-family="Helvetica,sans-Serif" font-size="10.00">::presort_mo_tpdm_unrestricted</text>
</a>
</g>
</g>
<!-- Node1&#45;&gt;Node12 -->
<g id="edge11" class="edge"><title>Node1&#45;&gt;Node12</title>
<path fill="none" stroke="midnightblue" d="M87.4435,-340.457C108.497,-333.928 134.391,-325.898 156.513,-319.037"/>
<polygon fill="midnightblue" stroke="midnightblue" points="86.3535,-337.131 77.8391,-343.436 88.4271,-343.817 86.3535,-337.131"/>
</g>
<!-- Node13 -->
<g id="node13" class="node"><title>Node13</title>
<g id="a_node13"><a xlink:href="classpsi_1_1IntegralTransform.html#af352bc8a8f1dc75e14237cb79aab0b22" target="_top" xlink:title="psi::IntegralTransform\l::presort_so_tei">
<polygon fill="none" stroke="black" points="150,-240 150,-270 262,-270 262,-240 150,-240"/>
<text text-anchor="start" x="158" y="-258" font-family="Helvetica,sans-Serif" font-size="10.00">psi::IntegralTransform</text>
<text text-anchor="middle" x="206" y="-247" font-family="Helvetica,sans-Serif" font-size="10.00">::presort_so_tei</text>
</a>
</g>
</g>
<!-- Node1&#45;&gt;Node13 -->
<g id="edge12" class="edge"><title>Node1&#45;&gt;Node13</title>
<path fill="none" stroke="midnightblue" d="M62.5154,-335.263C77.7264,-318.857 102.314,-294.834 128,-280 134.816,-276.064 142.334,-272.653 149.922,-269.727"/>
<polygon fill="midnightblue" stroke="midnightblue" points="59.5749,-333.296 55.4596,-343.059 64.7649,-337.993 59.5749,-333.296"/>
</g>
<!-- Node14 -->
<g id="node14" class="node"><title>Node14</title>
<g id="a_node14"><a xlink:href="classpsi_1_1IntegralTransform.html#a978a6cc3c273d0daf27f9c6887bdedd1" target="_top" xlink:title="psi::IntegralTransform\l::backtransform_density">
<polygon fill="none" stroke="black" points="145,-191 145,-221 267,-221 267,-191 145,-191"/>
<text text-anchor="start" x="153" y="-209" font-family="Helvetica,sans-Serif" font-size="10.00">psi::IntegralTransform</text>
<text text-anchor="middle" x="206" y="-198" font-family="Helvetica,sans-Serif" font-size="10.00">::backtransform_density</text>
</a>
</g>
</g>
<!-- Node1&#45;&gt;Node14 -->
<g id="edge13" class="edge"><title>Node1&#45;&gt;Node14</title>
<path fill="none" stroke="midnightblue" d="M54.6961,-334.091C66.5341,-307.314 91.7097,-258.549 128,-231 133.15,-227.091 138.935,-223.779 144.961,-220.977"/>
<polygon fill="midnightblue" stroke="midnightblue" points="51.391,-332.919 50.692,-343.49 57.8311,-335.662 51.391,-332.919"/>
</g>
<!-- Node15 -->
<g id="node15" class="node"><title>Node15</title>
<g id="a_node15"><a xlink:href="group__QT.html#gaaa00bb931504d4953c047ee58e7ba317" target="_top" xlink:title="psi::invert_matrix">
<polygon fill="none" stroke="black" points="160,-485.5 160,-504.5 252,-504.5 252,-485.5 160,-485.5"/>
<text text-anchor="middle" x="206" y="-492.5" font-family="Helvetica,sans-Serif" font-size="10.00">psi::invert_matrix</text>
</a>
</g>
</g>
<!-- Node1&#45;&gt;Node15 -->
<g id="edge14" class="edge"><title>Node1&#45;&gt;Node15</title>
<path fill="none" stroke="midnightblue" d="M54.4781,-372.206C66.0496,-399.344 90.9022,-448.549 128,-475 137.334,-481.655 148.71,-486.097 159.822,-489.062"/>
<polygon fill="midnightblue" stroke="midnightblue" points="57.602,-370.598 50.5744,-362.67 51.1238,-373.25 57.602,-370.598"/>
</g>
<!-- Node17 -->
<g id="node17" class="node"><title>Node17</title>
<g id="a_node17"><a xlink:href="group__QT.html#gabd746c0469f6028198246aa188960c51" target="_top" xlink:title="psi::ras_set">
<polygon fill="none" stroke="black" points="172,-114.5 172,-133.5 240,-133.5 240,-114.5 172,-114.5"/>
<text text-anchor="middle" x="206" y="-121.5" font-family="Helvetica,sans-Serif" font-size="10.00">psi::ras_set</text>
</a>
</g>
</g>
<!-- Node1&#45;&gt;Node17 -->
<g id="edge17" class="edge"><title>Node1&#45;&gt;Node17</title>
<path fill="none" stroke="midnightblue" d="M48.6598,-333.334C53.2647,-291.662 69.9902,-194.114 128,-143 139.984,-132.441 156.917,-127.55 171.854,-125.358"/>
<polygon fill="midnightblue" stroke="midnightblue" points="45.1745,-333.013 47.6763,-343.308 52.1408,-333.7 45.1745,-333.013"/>
</g>
<!-- Node18 -->
<g id="node18" class="node"><title>Node18</title>
<g id="a_node18"><a xlink:href="group__QT.html#gac0920198d52591837122f0c9f5e37b9e" target="_top" xlink:title="psi::ras_set2">
<polygon fill="none" stroke="black" points="169.5,-76.5 169.5,-95.5 242.5,-95.5 242.5,-76.5 169.5,-76.5"/>
<text text-anchor="middle" x="206" y="-83.5" font-family="Helvetica,sans-Serif" font-size="10.00">psi::ras_set2</text>
</a>
</g>
</g>
<!-- Node1&#45;&gt;Node18 -->
<g id="edge18" class="edge"><title>Node1&#45;&gt;Node18</title>
<path fill="none" stroke="midnightblue" d="M47.3212,-333.406C49.197,-286.594 60.7036,-167.507 128,-105 139.097,-94.6924 154.875,-89.7349 169.261,-87.4329"/>
<polygon fill="midnightblue" stroke="midnightblue" points="43.8217,-333.341 47.0278,-343.439 50.8187,-333.546 43.8217,-333.341"/>
</g>
<!-- Node19 -->
<g id="node19" class="node"><title>Node19</title>
<g id="a_node19"><a xlink:href="group__QT.html#ga0f8e6d4ea44ce054f9729f2ceda3107e" target="_top" xlink:title="psi::reorder_qt">
<polygon fill="none" stroke="black" points="166.5,-152.5 166.5,-171.5 245.5,-171.5 245.5,-152.5 166.5,-152.5"/>
<text text-anchor="middle" x="206" y="-159.5" font-family="Helvetica,sans-Serif" font-size="10.00">psi::reorder_qt</text>
</a>
</g>
</g>
<!-- Node1&#45;&gt;Node19 -->
<g id="edge19" class="edge"><title>Node1&#45;&gt;Node19</title>
<path fill="none" stroke="midnightblue" d="M50.7386,-332.921C58.4989,-297.022 79.8139,-221.873 128,-182 138.747,-173.107 153,-168.118 166.319,-165.337"/>
<polygon fill="midnightblue" stroke="midnightblue" points="47.2312,-332.607 48.6784,-343.102 54.0922,-333.995 47.2312,-332.607"/>
</g>
<!-- Node20 -->
<g id="node20" class="node"><title>Node20</title>
<g id="a_node20"><a xlink:href="group__QT.html#gad87b453ce47998937967e1b4d0336fc9" target="_top" xlink:title="psi::reorder_qt_uhf">
<polygon fill="none" stroke="black" points="157,-0.5 157,-19.5 255,-19.5 255,-0.5 157,-0.5"/>
<text text-anchor="middle" x="206" y="-7.5" font-family="Helvetica,sans-Serif" font-size="10.00">psi::reorder_qt_uhf</text>
</a>
</g>
</g>
<!-- Node1&#45;&gt;Node20 -->
<g id="edge21" class="edge"><title>Node1&#45;&gt;Node20</title>
<path fill="none" stroke="midnightblue" d="M49.4635,-333.378C57.6765,-270.932 85.9986,-78.31 128,-34 135.706,-25.8701 146.116,-20.4777 156.786,-16.9057"/>
<polygon fill="midnightblue" stroke="midnightblue" points="45.9714,-333.093 48.1652,-343.459 52.914,-333.988 45.9714,-333.093"/>
</g>
<!-- Node8 -->
<g id="node8" class="node"><title>Node8</title>
<g id="a_node8"><a xlink:href="classpsi_1_1IntegralTransform.html#a6c53d01c47558e48a8b5be6ffdecf47b" target="_top" xlink:title="psi::IntegralTransform\l::IntegralTransform">
<polygon fill="none" stroke="black" points="484,-33 484,-63 596,-63 596,-33 484,-33"/>
<text text-anchor="start" x="492" y="-51" font-family="Helvetica,sans-Serif" font-size="10.00">psi::IntegralTransform</text>
<text text-anchor="middle" x="540" y="-40" font-family="Helvetica,sans-Serif" font-size="10.00">::IntegralTransform</text>
</a>
</g>
</g>
<!-- Node7&#45;&gt;Node8 -->
<g id="edge7" class="edge"><title>Node7&#45;&gt;Node8</title>
<path fill="none" stroke="midnightblue" d="M450.326,-48C461.527,-48 473.066,-48 483.964,-48"/>
<polygon fill="midnightblue" stroke="midnightblue" points="450.163,-44.5001 440.163,-48 450.163,-51.5001 450.163,-44.5001"/>
</g>
<!-- Node15&#45;&gt;Node6 -->
<g id="edge15" class="edge"><title>Node15&#45;&gt;Node6</title>
<path fill="none" stroke="midnightblue" d="M261.433,-506.753C286.319,-512.126 315.419,-518.409 338.907,-523.48"/>
<polygon fill="midnightblue" stroke="midnightblue" points="261.926,-503.278 251.412,-504.589 260.448,-510.121 261.926,-503.278"/>
</g>
<!-- Node16 -->
<g id="node16" class="node"><title>Node16</title>
<g id="a_node16"><a xlink:href="classpsi_1_1Matrix.html#a308d4af446e31177b7663b46eb42632e" target="_top" xlink:title="psi::Matrix::invert">
<polygon fill="none" stroke="black" points="338,-485.5 338,-504.5 430,-504.5 430,-485.5 338,-485.5"/>
<text text-anchor="middle" x="384" y="-492.5" font-family="Helvetica,sans-Serif" font-size="10.00">psi::Matrix::invert</text>
</a>
</g>
</g>
<!-- Node15&#45;&gt;Node16 -->
<g id="edge16" class="edge"><title>Node15&#45;&gt;Node16</title>
<path fill="none" stroke="midnightblue" d="M262.466,-495C286.741,-495 314.859,-495 337.829,-495"/>
<polygon fill="midnightblue" stroke="midnightblue" points="262.324,-491.5 252.324,-495 262.324,-498.5 262.324,-491.5"/>
</g>
<!-- Node19&#45;&gt;Node7 -->
<g id="edge20" class="edge"><title>Node19&#45;&gt;Node7</title>
<path fill="none" stroke="midnightblue" d="M255.391,-154.159C265.22,-151.452 275.225,-147.832 284,-143 321.351,-122.432 354.871,-84.1811 371.656,-63.0314"/>
<polygon fill="midnightblue" stroke="midnightblue" points="254.535,-150.765 245.673,-156.572 256.222,-157.558 254.535,-150.765"/>
</g>
<!-- Node20&#45;&gt;Node7 -->
<g id="edge22" class="edge"><title>Node20&#45;&gt;Node7</title>
<path fill="none" stroke="midnightblue" d="M261.215,-21.7055C282.385,-26.2762 306.63,-31.5111 327.886,-36.1003"/>
<polygon fill="midnightblue" stroke="midnightblue" points="261.926,-18.2784 251.412,-19.589 260.448,-25.1207 261.926,-18.2784"/>
</g>
</g>
</svg>
        <g id="navigator" transform="translate(0 0)" fill="#404254">
                <rect fill="#f2f5e9" fill-opacity="0.5" stroke="#606060" stroke-width=".5" x="0" y="0" width="60" height="60"/>
                <use id="zoomplus" xlink:href="#zoomPlus" x="17" y="9" onmousedown="handleZoom(evt,'in')"/>
                <use id="zoomminus" xlink:href="#zoomMin" x="42" y="9" onmousedown="handleZoom(evt,'out')"/>
                <use id="reset" xlink:href="#resetDef" x="30" y="36" onmousedown="handleReset()"/>
                <g id="arrowUp" xlink:href="#dirArrow" transform="translate(30 24)" onmousedown="handlePan(0,-1)">
                  <use xlink:href="#rim" fill="#404040">
                        <set attributeName="fill" to="#808080" begin="arrowUp.mouseover" end="arrowUp.mouseout"/>
                  </use>
                  <path fill="none" stroke="white" stroke-width="1.5" d="M0,-3.0v7 M-2.5,-0.5L0,-3.0L2.5,-0.5"/>
                </g>
                <g id="arrowRight" xlink:href="#dirArrow" transform="rotate(90) translate(36 -43)" onmousedown="handlePan(1,0)">
                  <use xlink:href="#rim" fill="#404040">
                        <set attributeName="fill" to="#808080" begin="arrowRight.mouseover" end="arrowRight.mouseout"/>
                  </use>
                  <path fill="none" stroke="white" stroke-width="1.5" d="M0,-3.0v7 M-2.5,-0.5L0,-3.0L2.5,-0.5"/>
                </g>
                <g id="arrowDown" xlink:href="#dirArrow" transform="rotate(180) translate(-30 -48)" onmousedown="handlePan(0,1)">
                  <use xlink:href="#rim" fill="#404040">
                        <set attributeName="fill" to="#808080" begin="arrowDown.mouseover" end="arrowDown.mouseout"/>
                  </use>
                  <path fill="none" stroke="white" stroke-width="1.5" d="M0,-3.0v7 M-2.5,-0.5L0,-3.0L2.5,-0.5"/>
                </g>
                <g id="arrowLeft" xlink:href="#dirArrow" transform="rotate(270) translate(-36 17)" onmousedown="handlePan(-1,0)">
                  <use xlink:href="#rim" fill="#404040">
                        <set attributeName="fill" to="#808080" begin="arrowLeft.mouseover" end="arrowLeft.mouseout"/>
                  </use>
                  <path fill="none" stroke="white" stroke-width="1.5" d="M0,-3.0v7 M-2.5,-0.5L0,-3.0L2.5,-0.5"/>
                </g>
        </g>
        <svg viewBox="0 0 15 15" width="100%" height="30px" preserveAspectRatio="xMaxYMin meet">
         <g id="arrow_out" transform="scale(0.3 0.3)">
          <a xlink:href="group__CIOMR_gae22ab2f8c96f4c132c42cd405c805841_icgraph_org.svg" target="_base">
           <rect id="button" ry="5" rx="5" y="6" x="6" height="38" width="38"
                fill="#f2f5e9" fill-opacity="0.5" stroke="#606060" stroke-width="1.0"/>
           <path id="arrow"
             d="M 11.500037,31.436501 C 11.940474,20.09759 22.043105,11.32322 32.158766,21.979434 L 37.068811,17.246167 C 37.068811,17.246167 37.088388,32 37.088388,32 L 22.160133,31.978069 C 22.160133,31.978069 26.997745,27.140456 26.997745,27.140456 C 18.528582,18.264221 13.291696,25.230495 11.500037,31.436501 z"
             style="fill:#404040;"/>
          </a>
         </g>
        </svg>
</svg>
