<?xml version="1.0" encoding="UTF-8" standalone="no"?>
<!DOCTYPE svg PUBLIC "-//W3C//DTD SVG 1.1//EN"
 "http://www.w3.org/Graphics/SVG/1.1/DTD/svg11.dtd">
<!-- Generated by graphviz version 2.30.1 (20140110.0959)
 -->
<!-- Title: psi::ras_set2 Pages: 1 -->
<svg width="218pt" height="142pt"
 viewBox="0.00 0.00 218.00 142.00" xmlns="http://www.w3.org/2000/svg" xmlns:xlink="http://www.w3.org/1999/xlink">
<g id="graph0" class="graph" transform="scale(1 1) rotate(0) translate(4 138)">
<title>psi::ras_set2</title>
<!-- Node1 -->
<g id="node1" class="node"><title>Node1</title>
<polygon fill="#bfbfbf" stroke="black" points="0.5,-57.5 0.5,-76.5 73.5,-76.5 73.5,-57.5 0.5,-57.5"/>
<text text-anchor="middle" x="37" y="-64.5" font-family="Helvetica,sans-Serif" font-size="10.00">psi::ras_set2</text>
</g>
<!-- Node2 -->
<g id="node2" class="node"><title>Node2</title>
<g id="a_node2"><a xlink:href="group__CIOMR.html#gae22ab2f8c96f4c132c42cd405c805841" target="_top" xlink:title="psi::init_int_array">
<polygon fill="none" stroke="black" points="114.5,-114.5 114.5,-133.5 205.5,-133.5 205.5,-114.5 114.5,-114.5"/>
<text text-anchor="middle" x="160" y="-121.5" font-family="Helvetica,sans-Serif" font-size="10.00">psi::init_int_array</text>
</a>
</g>
</g>
<!-- Node1&#45;&gt;Node2 -->
<g id="edge1" class="edge"><title>Node1&#45;&gt;Node2</title>
<path fill="none" stroke="midnightblue" d="M54.888,-76.6261C69.3055,-84.6703 90.7091,-96.205 110,-105 114.224,-106.926 118.704,-108.836 123.172,-110.662"/>
<polygon fill="midnightblue" stroke="midnightblue" points="122.243,-114.059 132.828,-114.495 124.825,-107.553 122.243,-114.059"/>
</g>
<!-- Node3 -->
<g id="node3" class="node"><title>Node3</title>
<g id="a_node3"><a xlink:href="group__CIOMR.html#ga20eede3931a4c5f9fe18ab0a9a53b688" target="_top" xlink:title="psi::zero_int_array">
<polygon fill="none" stroke="black" points="111.5,-76.5 111.5,-95.5 208.5,-95.5 208.5,-76.5 111.5,-76.5"/>
<text text-anchor="middle" x="160" y="-83.5" font-family="Helvetica,sans-Serif" font-size="10.00">psi::zero_int_array</text>
</a>
</g>
</g>
<!-- Node1&#45;&gt;Node3 -->
<g id="edge2" class="edge"><title>Node1&#45;&gt;Node3</title>
<path fill="none" stroke="midnightblue" d="M73.6495,-72.5979C82.3525,-73.9644 91.8859,-75.4614 101.327,-76.9439"/>
<polygon fill="midnightblue" stroke="midnightblue" points="101.07,-80.4464 111.492,-78.5401 102.156,-73.5312 101.07,-80.4464"/>
</g>
<!-- Node4 -->
<g id="node4" class="node"><title>Node4</title>
<g id="a_node4"><a xlink:href="group__CIOMR.html#ga8847103aa5444911a3271169daf06294" target="_top" xlink:title="psi::init_int_matrix">
<polygon fill="none" stroke="black" points="112,-38.5 112,-57.5 208,-57.5 208,-38.5 112,-38.5"/>
<text text-anchor="middle" x="160" y="-45.5" font-family="Helvetica,sans-Serif" font-size="10.00">psi::init_int_matrix</text>
</a>
</g>
</g>
<!-- Node1&#45;&gt;Node4 -->
<g id="edge3" class="edge"><title>Node1&#45;&gt;Node4</title>
<path fill="none" stroke="midnightblue" d="M73.6495,-61.4021C82.5486,-60.0048 92.3158,-58.4711 101.965,-56.9559"/>
<polygon fill="midnightblue" stroke="midnightblue" points="102.601,-60.3991 111.937,-55.3901 101.515,-53.4838 102.601,-60.3991"/>
</g>
<!-- Node5 -->
<g id="node5" class="node"><title>Node5</title>
<g id="a_node5"><a xlink:href="group__CIOMR.html#ga745c4af9d06f1793980918e23565982e" target="_top" xlink:title="psi::free_int_matrix">
<polygon fill="none" stroke="black" points="110,-0.5 110,-19.5 210,-19.5 210,-0.5 110,-0.5"/>
<text text-anchor="middle" x="160" y="-7.5" font-family="Helvetica,sans-Serif" font-size="10.00">psi::free_int_matrix</text>
</a>
</g>
</g>
<!-- Node1&#45;&gt;Node5 -->
<g id="edge4" class="edge"><title>Node1&#45;&gt;Node5</title>
<path fill="none" stroke="midnightblue" d="M54.888,-57.3739C69.3055,-49.3297 90.7091,-37.795 110,-29 114.224,-27.0744 118.704,-25.1637 123.172,-23.3382"/>
<polygon fill="midnightblue" stroke="midnightblue" points="124.825,-26.4474 132.828,-19.5048 122.243,-19.9413 124.825,-26.4474"/>
</g>
</g>
</svg>
