<?xml version="1.0" encoding="UTF-8" standalone="no"?>
<!DOCTYPE svg PUBLIC "-//W3C//DTD SVG 1.1//EN"
 "http://www.w3.org/Graphics/SVG/1.1/DTD/svg11.dtd">
<!-- Generated by graphviz version 2.30.1 (20140110.0959)
 -->
<!-- Title: psi::zero_arr Pages: 1 -->
<svg width="234pt" height="116pt"
 viewBox="0.00 0.00 234.00 116.00" xmlns="http://www.w3.org/2000/svg" xmlns:xlink="http://www.w3.org/1999/xlink">
<g id="graph0" class="graph" transform="scale(1 1) rotate(0) translate(4 112)">
<title>psi::zero_arr</title>
<!-- Node1 -->
<g id="node1" class="node"><title>Node1</title>
<polygon fill="#bfbfbf" stroke="black" points="0.5,-44.5 0.5,-63.5 71.5,-63.5 71.5,-44.5 0.5,-44.5"/>
<text text-anchor="middle" x="36" y="-51.5" font-family="Helvetica,sans-Serif" font-size="10.00">psi::zero_arr</text>
</g>
<!-- Node2 -->
<g id="node2" class="node"><title>Node2</title>
<g id="a_node2"><a xlink:href="group__QT.html#ga7dc5435261bcef5693d54a4913e0864f" target="_top" xlink:title="psi::pople">
<polygon fill="none" stroke="black" points="137.5,-88.5 137.5,-107.5 196.5,-107.5 196.5,-88.5 137.5,-88.5"/>
<text text-anchor="middle" x="167" y="-95.5" font-family="Helvetica,sans-Serif" font-size="10.00">psi::pople</text>
</a>
</g>
</g>
<!-- Node1&#45;&gt;Node2 -->
<g id="edge1" class="edge"><title>Node1&#45;&gt;Node2</title>
<path fill="none" stroke="midnightblue" d="M74.5588,-66.8108C94.8511,-73.7322 119.481,-82.1329 138.064,-88.4713"/>
<polygon fill="midnightblue" stroke="midnightblue" points="75.5856,-63.463 64.9911,-63.5473 73.3258,-70.0883 75.5856,-63.463"/>
</g>
<!-- Node3 -->
<g id="node3" class="node"><title>Node3</title>
<g id="a_node3"><a xlink:href="classpsi_1_1scf_1_1RHF.html#a9f279b3205e4258055ad10a60a2974b8" target="_top" xlink:title="Check the stability of the wavefunction, and correct (if requested)">
<polygon fill="none" stroke="black" points="109,-39 109,-69 225,-69 225,-39 109,-39"/>
<text text-anchor="start" x="117" y="-57" font-family="Helvetica,sans-Serif" font-size="10.00">psi::scf::RHF::stability</text>
<text text-anchor="middle" x="167" y="-46" font-family="Helvetica,sans-Serif" font-size="10.00">_analysis</text>
</a>
</g>
</g>
<!-- Node1&#45;&gt;Node3 -->
<g id="edge2" class="edge"><title>Node1&#45;&gt;Node3</title>
<path fill="none" stroke="midnightblue" d="M81.6087,-54C90.4133,-54 99.7661,-54 108.917,-54"/>
<polygon fill="midnightblue" stroke="midnightblue" points="81.5697,-50.5001 71.5696,-54 81.5696,-57.5001 81.5697,-50.5001"/>
</g>
<!-- Node4 -->
<g id="node4" class="node"><title>Node4</title>
<g id="a_node4"><a xlink:href="group__DETCI.html#gaa9f21f264d40791316233934813f0fd2" target="_top" xlink:title="psi::detci::s1_block_fci">
<polygon fill="none" stroke="black" points="108.5,-0.5 108.5,-19.5 225.5,-19.5 225.5,-0.5 108.5,-0.5"/>
<text text-anchor="middle" x="167" y="-7.5" font-family="Helvetica,sans-Serif" font-size="10.00">psi::detci::s1_block_fci</text>
</a>
</g>
</g>
<!-- Node1&#45;&gt;Node4 -->
<g id="edge3" class="edge"><title>Node1&#45;&gt;Node4</title>
<path fill="none" stroke="midnightblue" d="M74.5588,-41.1892C94.8511,-34.2678 119.481,-25.8671 138.064,-19.5287"/>
<polygon fill="midnightblue" stroke="midnightblue" points="73.3258,-37.9117 64.9911,-44.4527 75.5856,-44.537 73.3258,-37.9117"/>
</g>
</g>
</svg>
