<?xml version="1.0" encoding="UTF-8" standalone="no"?>
<!DOCTYPE svg PUBLIC "-//W3C//DTD SVG 1.1//EN"
 "http://www.w3.org/Graphics/SVG/1.1/DTD/svg11.dtd">
<!-- Generated by graphviz version 2.30.1 (20140110.0959)
 -->
<!-- Title: psi::ras_set Pages: 1 -->
<svg width="212pt" height="142pt"
 viewBox="0.00 0.00 212.00 142.00" xmlns="http://www.w3.org/2000/svg" xmlns:xlink="http://www.w3.org/1999/xlink">
<g id="graph0" class="graph" transform="scale(1 1) rotate(0) translate(4 138)">
<title>psi::ras_set</title>
<!-- Node1 -->
<g id="node1" class="node"><title>Node1</title>
<polygon fill="#bfbfbf" stroke="black" points="0,-57.5 0,-76.5 68,-76.5 68,-57.5 0,-57.5"/>
<text text-anchor="middle" x="34" y="-64.5" font-family="Helvetica,sans-Serif" font-size="10.00">psi::ras_set</text>
</g>
<!-- Node2 -->
<g id="node2" class="node"><title>Node2</title>
<g id="a_node2"><a xlink:href="group__CIOMR.html#gae22ab2f8c96f4c132c42cd405c805841" target="_top" xlink:title="psi::init_int_array">
<polygon fill="none" stroke="black" points="108.5,-114.5 108.5,-133.5 199.5,-133.5 199.5,-114.5 108.5,-114.5"/>
<text text-anchor="middle" x="154" y="-121.5" font-family="Helvetica,sans-Serif" font-size="10.00">psi::init_int_array</text>
</a>
</g>
</g>
<!-- Node1&#45;&gt;Node2 -->
<g id="edge1" class="edge"><title>Node1&#45;&gt;Node2</title>
<path fill="none" stroke="midnightblue" d="M50.8572,-76.5265C64.6436,-84.6153 85.2873,-96.2668 104,-105 108.159,-106.941 112.574,-108.852 116.986,-110.671"/>
<polygon fill="midnightblue" stroke="midnightblue" points="115.95,-114.026 126.536,-114.481 118.544,-107.525 115.95,-114.026"/>
</g>
<!-- Node3 -->
<g id="node3" class="node"><title>Node3</title>
<g id="a_node3"><a xlink:href="group__CIOMR.html#ga20eede3931a4c5f9fe18ab0a9a53b688" target="_top" xlink:title="psi::zero_int_array">
<polygon fill="none" stroke="black" points="105.5,-76.5 105.5,-95.5 202.5,-95.5 202.5,-76.5 105.5,-76.5"/>
<text text-anchor="middle" x="154" y="-83.5" font-family="Helvetica,sans-Serif" font-size="10.00">psi::zero_int_array</text>
</a>
</g>
</g>
<!-- Node1&#45;&gt;Node3 -->
<g id="edge2" class="edge"><title>Node1&#45;&gt;Node3</title>
<path fill="none" stroke="midnightblue" d="M68.1836,-72.3431C76.5937,-73.6973 85.8755,-75.1918 95.1207,-76.6805"/>
<polygon fill="midnightblue" stroke="midnightblue" points="94.666,-80.1522 105.095,-78.2865 95.7788,-73.2413 94.666,-80.1522"/>
</g>
<!-- Node4 -->
<g id="node4" class="node"><title>Node4</title>
<g id="a_node4"><a xlink:href="group__CIOMR.html#ga8847103aa5444911a3271169daf06294" target="_top" xlink:title="psi::init_int_matrix">
<polygon fill="none" stroke="black" points="106,-38.5 106,-57.5 202,-57.5 202,-38.5 106,-38.5"/>
<text text-anchor="middle" x="154" y="-45.5" font-family="Helvetica,sans-Serif" font-size="10.00">psi::init_int_matrix</text>
</a>
</g>
</g>
<!-- Node1&#45;&gt;Node4 -->
<g id="edge3" class="edge"><title>Node1&#45;&gt;Node4</title>
<path fill="none" stroke="midnightblue" d="M68.1836,-61.6569C76.8855,-60.2557 86.5208,-58.7043 96.083,-57.1646"/>
<polygon fill="midnightblue" stroke="midnightblue" points="96.6627,-60.6164 105.979,-55.5712 95.5499,-53.7054 96.6627,-60.6164"/>
</g>
<!-- Node5 -->
<g id="node5" class="node"><title>Node5</title>
<g id="a_node5"><a xlink:href="group__CIOMR.html#ga745c4af9d06f1793980918e23565982e" target="_top" xlink:title="psi::free_int_matrix">
<polygon fill="none" stroke="black" points="104,-0.5 104,-19.5 204,-19.5 204,-0.5 104,-0.5"/>
<text text-anchor="middle" x="154" y="-7.5" font-family="Helvetica,sans-Serif" font-size="10.00">psi::free_int_matrix</text>
</a>
</g>
</g>
<!-- Node1&#45;&gt;Node5 -->
<g id="edge4" class="edge"><title>Node1&#45;&gt;Node5</title>
<path fill="none" stroke="midnightblue" d="M50.8572,-57.4735C64.6436,-49.3847 85.2873,-37.7332 104,-29 108.159,-27.0592 112.574,-25.1476 116.986,-23.3287"/>
<polygon fill="midnightblue" stroke="midnightblue" points="118.544,-26.4754 126.536,-19.5193 115.95,-19.9737 118.544,-26.4754"/>
</g>
</g>
</svg>
