<?xml version="1.0" encoding="UTF-8" standalone="no"?>
<!DOCTYPE svg PUBLIC "-//W3C//DTD SVG 1.1//EN"
 "http://www.w3.org/Graphics/SVG/1.1/DTD/svg11.dtd">
<!-- Generated by graphviz version 2.30.1 (20140110.0959)
 -->
<!-- Title: psi::C_DROT Pages: 1 -->
<svg width="250pt" height="222pt"
 viewBox="0.00 0.00 250.00 222.00" xmlns="http://www.w3.org/2000/svg" xmlns:xlink="http://www.w3.org/1999/xlink">
<g id="graph0" class="graph" transform="scale(1 1) rotate(0) translate(4 218)">
<title>psi::C_DROT</title>
<!-- Node1 -->
<g id="node1" class="node"><title>Node1</title>
<polygon fill="#bfbfbf" stroke="black" points="0.5,-106.5 0.5,-125.5 77.5,-125.5 77.5,-106.5 0.5,-106.5"/>
<text text-anchor="middle" x="39" y="-113.5" font-family="Helvetica,sans-Serif" font-size="10.00">psi::C_DROT</text>
</g>
<!-- Node2 -->
<g id="node2" class="node"><title>Node2</title>
<g id="a_node2"><a xlink:href="namespacepsi.html#ae94898dbde057458f7f55480abd1ef90" target="_top" xlink:title="psi::benchmark_blas1">
<polygon fill="none" stroke="black" points="122,-194.5 122,-213.5 234,-213.5 234,-194.5 122,-194.5"/>
<text text-anchor="middle" x="178" y="-201.5" font-family="Helvetica,sans-Serif" font-size="10.00">psi::benchmark_blas1</text>
</a>
</g>
</g>
<!-- Node1&#45;&gt;Node2 -->
<g id="edge1" class="edge"><title>Node1&#45;&gt;Node2</title>
<path fill="none" stroke="midnightblue" d="M54.9286,-133.497C68.8215,-148.78 90.8191,-170.564 114,-184 121.248,-188.201 129.485,-191.632 137.557,-194.391"/>
<polygon fill="midnightblue" stroke="midnightblue" points="57.3372,-130.937 48.0881,-125.769 52.0958,-135.577 57.3372,-130.937"/>
</g>
<!-- Node3 -->
<g id="node3" class="node"><title>Node3</title>
<g id="a_node3"><a xlink:href="classpsi_1_1BoysLocalizer.html#a3693b32652ba543341490806b0fec6fb" target="_top" xlink:title="Perform the localization algorithm.">
<polygon fill="none" stroke="black" points="129.5,-145 129.5,-175 226.5,-175 226.5,-145 129.5,-145"/>
<text text-anchor="start" x="137.5" y="-163" font-family="Helvetica,sans-Serif" font-size="10.00">psi::BoysLocalizer</text>
<text text-anchor="middle" x="178" y="-152" font-family="Helvetica,sans-Serif" font-size="10.00">::localize</text>
</a>
</g>
</g>
<!-- Node1&#45;&gt;Node3 -->
<g id="edge2" class="edge"><title>Node1&#45;&gt;Node3</title>
<path fill="none" stroke="midnightblue" d="M79.6789,-128.744C95.4376,-133.805 113.685,-139.665 130.092,-144.935"/>
<polygon fill="midnightblue" stroke="midnightblue" points="80.3182,-125.273 69.727,-125.547 78.1777,-131.938 80.3182,-125.273"/>
</g>
<!-- Node4 -->
<g id="node4" class="node"><title>Node4</title>
<g id="a_node4"><a xlink:href="classpsi_1_1PMLocalizer.html#acea82b7ec34143dfa85538cc56048099" target="_top" xlink:title="Perform the localization algorithm.">
<polygon fill="none" stroke="black" points="114,-106.5 114,-125.5 242,-125.5 242,-106.5 114,-106.5"/>
<text text-anchor="middle" x="178" y="-113.5" font-family="Helvetica,sans-Serif" font-size="10.00">psi::PMLocalizer::localize</text>
</a>
</g>
</g>
<!-- Node1&#45;&gt;Node4 -->
<g id="edge3" class="edge"><title>Node1&#45;&gt;Node4</title>
<path fill="none" stroke="midnightblue" d="M88.0655,-116C96.3913,-116 105.16,-116 113.816,-116"/>
<polygon fill="midnightblue" stroke="midnightblue" points="87.7985,-112.5 77.7985,-116 87.7985,-119.5 87.7985,-112.5"/>
</g>
<!-- Node5 -->
<g id="node5" class="node"><title>Node5</title>
<g id="a_node5"><a xlink:href="classpsi_1_1Matrix.html#a5e67cb7be2768fb88b32d80025bdb57c" target="_top" xlink:title="psi::Matrix::rotate\l_columns">
<polygon fill="none" stroke="black" points="131.5,-57 131.5,-87 224.5,-87 224.5,-57 131.5,-57"/>
<text text-anchor="start" x="139.5" y="-75" font-family="Helvetica,sans-Serif" font-size="10.00">psi::Matrix::rotate</text>
<text text-anchor="middle" x="178" y="-64" font-family="Helvetica,sans-Serif" font-size="10.00">_columns</text>
</a>
</g>
</g>
<!-- Node1&#45;&gt;Node5 -->
<g id="edge4" class="edge"><title>Node1&#45;&gt;Node5</title>
<path fill="none" stroke="midnightblue" d="M79.4499,-103.33C95.6888,-98.1146 114.601,-92.0405 131.427,-86.6366"/>
<polygon fill="midnightblue" stroke="midnightblue" points="78.1777,-100.062 69.727,-106.453 80.3182,-106.727 78.1777,-100.062"/>
</g>
<!-- Node6 -->
<g id="node6" class="node"><title>Node6</title>
<g id="a_node6"><a xlink:href="namespacepsi.html#a9abc57fcb61e7b68697a29f7f9593487" target="_top" xlink:title="PSI_DROT, a wrapper to C_DROT using objects.">
<polygon fill="none" stroke="black" points="135,-0.5 135,-19.5 221,-19.5 221,-0.5 135,-0.5"/>
<text text-anchor="middle" x="178" y="-7.5" font-family="Helvetica,sans-Serif" font-size="10.00">psi::PSI_DROT</text>
</a>
</g>
</g>
<!-- Node1&#45;&gt;Node6 -->
<g id="edge5" class="edge"><title>Node1&#45;&gt;Node6</title>
<path fill="none" stroke="midnightblue" d="M56.7274,-98.8042C71.1939,-84.3922 93.0281,-63.7112 114,-48 128.414,-37.2017 146.062,-26.7708 159.008,-19.5782"/>
<polygon fill="midnightblue" stroke="midnightblue" points="54.055,-96.5285 49.5006,-106.095 59.0264,-101.457 54.055,-96.5285"/>
</g>
<!-- Node6&#45;&gt;Node6 -->
<g id="edge6" class="edge"><title>Node6&#45;&gt;Node6</title>
<path fill="none" stroke="midnightblue" d="M152.33,-29.0292C153.731,-34.128 162.287,-38 178,-38 202.527,-38 209.617,-28.5653 199.27,-19.7571"/>
<polygon fill="midnightblue" stroke="midnightblue" points="155.605,-30.292 156.73,-19.7571 149.281,-27.2911 155.605,-30.292"/>
</g>
</g>
</svg>
