<?xml version="1.0" encoding="UTF-8" standalone="no"?>
<!DOCTYPE svg PUBLIC "-//W3C//DTD SVG 1.1//EN"
 "http://www.w3.org/Graphics/SVG/1.1/DTD/svg11.dtd">
<!-- Generated by graphviz version 2.30.1 (20140110.0959)
 -->
<!-- Title: psi::invert_matrix Pages: 1 -->
<svg width="228pt" height="66pt"
 viewBox="0.00 0.00 228.00 66.00" xmlns="http://www.w3.org/2000/svg" xmlns:xlink="http://www.w3.org/1999/xlink">
<g id="graph0" class="graph" transform="scale(1 1) rotate(0) translate(4 62)">
<title>psi::invert_matrix</title>
<!-- Node1 -->
<g id="node1" class="node"><title>Node1</title>
<polygon fill="#bfbfbf" stroke="black" points="0,-19.5 0,-38.5 92,-38.5 92,-19.5 0,-19.5"/>
<text text-anchor="middle" x="46" y="-26.5" font-family="Helvetica,sans-Serif" font-size="10.00">psi::invert_matrix</text>
</g>
<!-- Node2 -->
<g id="node2" class="node"><title>Node2</title>
<g id="a_node2"><a xlink:href="group__CIOMR.html#ga35255b9a71ed5869db7c1c5507923929" target="_top" xlink:title="psi::init_array">
<polygon fill="none" stroke="black" points="136.5,-38.5 136.5,-57.5 211.5,-57.5 211.5,-38.5 136.5,-38.5"/>
<text text-anchor="middle" x="174" y="-45.5" font-family="Helvetica,sans-Serif" font-size="10.00">psi::init_array</text>
</a>
</g>
</g>
<!-- Node1&#45;&gt;Node2 -->
<g id="edge1" class="edge"><title>Node1&#45;&gt;Node2</title>
<path fill="none" stroke="midnightblue" d="M92.133,-35.8058C103.27,-37.4852 115.219,-39.2871 126.424,-40.9766"/>
<polygon fill="midnightblue" stroke="midnightblue" points="126.049,-44.4596 136.459,-42.4899 127.093,-37.5378 126.049,-44.4596"/>
</g>
<!-- Node3 -->
<g id="node3" class="node"><title>Node3</title>
<g id="a_node3"><a xlink:href="group__CIOMR.html#gae22ab2f8c96f4c132c42cd405c805841" target="_top" xlink:title="psi::init_int_array">
<polygon fill="none" stroke="black" points="128.5,-0.5 128.5,-19.5 219.5,-19.5 219.5,-0.5 128.5,-0.5"/>
<text text-anchor="middle" x="174" y="-7.5" font-family="Helvetica,sans-Serif" font-size="10.00">psi::init_int_array</text>
</a>
</g>
</g>
<!-- Node1&#45;&gt;Node3 -->
<g id="edge2" class="edge"><title>Node1&#45;&gt;Node3</title>
<path fill="none" stroke="midnightblue" d="M92.133,-22.1942C100.558,-20.9238 109.448,-19.5832 118.129,-18.2743"/>
<polygon fill="midnightblue" stroke="midnightblue" points="118.816,-21.7103 128.182,-16.7583 117.772,-14.7885 118.816,-21.7103"/>
</g>
</g>
</svg>
