<?xml version="1.0" encoding="UTF-8" standalone="no"?>
<!DOCTYPE svg PUBLIC "-//W3C//DTD SVG 1.1//EN"
 "http://www.w3.org/Graphics/SVG/1.1/DTD/svg11.dtd">
<!-- Generated by graphviz version 2.30.1 (20140110.0959)
 -->
<!-- Title: psi::init_matrix Pages: 1 -->
<svg width="424pt" height="154pt"
 viewBox="0.00 0.00 424.00 154.00" xmlns="http://www.w3.org/2000/svg" xmlns:xlink="http://www.w3.org/1999/xlink">
<g id="graph0" class="graph" transform="scale(1 1) rotate(0) translate(4 150)">
<title>psi::init_matrix</title>
<!-- Node1 -->
<g id="node1" class="node"><title>Node1</title>
<polygon fill="#bfbfbf" stroke="black" points="0,-60.5 0,-79.5 80,-79.5 80,-60.5 0,-60.5"/>
<text text-anchor="middle" x="40" y="-67.5" font-family="Helvetica,sans-Serif" font-size="10.00">psi::init_matrix</text>
</g>
<!-- Node2 -->
<g id="node2" class="node"><title>Node2</title>
<g id="a_node2"><a xlink:href="classopt_1_1FRAG.html#a57196fc6ea7d699629d92287d608d34a" target="_top" xlink:title="opt::FRAG::FRAG">
<polygon fill="none" stroke="black" points="133,-126.5 133,-145.5 231,-145.5 231,-126.5 133,-126.5"/>
<text text-anchor="middle" x="182" y="-133.5" font-family="Helvetica,sans-Serif" font-size="10.00">opt::FRAG::FRAG</text>
</a>
</g>
</g>
<!-- Node1&#45;&gt;Node2 -->
<g id="edge1" class="edge"><title>Node1&#45;&gt;Node2</title>
<path fill="none" stroke="midnightblue" d="M62.5701,-85.2492C77.1399,-95.0336 97.0947,-107.459 116,-116 124.931,-120.035 134.903,-123.555 144.303,-126.471"/>
<polygon fill="midnightblue" stroke="midnightblue" points="64.4809,-82.3158 54.2517,-79.5567 60.5276,-88.0927 64.4809,-82.3158"/>
</g>
<!-- Node3 -->
<g id="node3" class="node"><title>Node3</title>
<g id="a_node3"><a xlink:href="classopt_1_1FRAG.html#a9c57888dc16fade62ef5a9b72b4e0c9d" target="_top" xlink:title="opt::FRAG::inertia\l_tensor">
<polygon fill="none" stroke="black" points="134,-77 134,-107 230,-107 230,-77 134,-77"/>
<text text-anchor="start" x="142" y="-95" font-family="Helvetica,sans-Serif" font-size="10.00">opt::FRAG::inertia</text>
<text text-anchor="middle" x="182" y="-84" font-family="Helvetica,sans-Serif" font-size="10.00">_tensor</text>
</a>
</g>
</g>
<!-- Node1&#45;&gt;Node3 -->
<g id="edge2" class="edge"><title>Node1&#45;&gt;Node3</title>
<path fill="none" stroke="midnightblue" d="M90.425,-77.7668C104.584,-79.9917 119.975,-82.4104 133.985,-84.6119"/>
<polygon fill="midnightblue" stroke="midnightblue" points="90.7925,-74.2817 80.3704,-76.1868 89.7058,-81.1968 90.7925,-74.2817"/>
</g>
<!-- Node4 -->
<g id="node4" class="node"><title>Node4</title>
<g id="a_node4"><a xlink:href="classopt_1_1FRAG.html#a15634d106cceec13d93b484af25e8ae8" target="_top" xlink:title="opt::FRAG::principal_axes">
<polygon fill="none" stroke="black" points="116,-38.5 116,-57.5 248,-57.5 248,-38.5 116,-38.5"/>
<text text-anchor="middle" x="182" y="-45.5" font-family="Helvetica,sans-Serif" font-size="10.00">opt::FRAG::principal_axes</text>
</a>
</g>
</g>
<!-- Node1&#45;&gt;Node4 -->
<g id="edge3" class="edge"><title>Node1&#45;&gt;Node4</title>
<path fill="none" stroke="midnightblue" d="M90.2889,-62.2546C100.046,-60.7213 110.393,-59.0954 120.473,-57.5113"/>
<polygon fill="midnightblue" stroke="midnightblue" points="89.7058,-58.8032 80.3704,-63.8132 90.7925,-65.7183 89.7058,-58.8032"/>
</g>
<!-- Node6 -->
<g id="node6" class="node"><title>Node6</title>
<g id="a_node6"><a xlink:href="group__CIOMR.html#gafcab75421c56def41337f3b0d7efe502" target="_top" xlink:title="psi::mmult">
<polygon fill="none" stroke="black" points="151,-0.5 151,-19.5 213,-19.5 213,-0.5 151,-0.5"/>
<text text-anchor="middle" x="182" y="-7.5" font-family="Helvetica,sans-Serif" font-size="10.00">psi::mmult</text>
</a>
</g>
</g>
<!-- Node1&#45;&gt;Node6 -->
<g id="edge5" class="edge"><title>Node1&#45;&gt;Node6</title>
<path fill="none" stroke="midnightblue" d="M65.0714,-55.1026C79.4675,-46.6389 98.3405,-36.3072 116,-29 127.081,-24.4149 139.651,-20.4672 150.764,-17.377"/>
<polygon fill="midnightblue" stroke="midnightblue" points="63.0979,-52.2048 56.3154,-60.3441 66.6933,-58.2109 63.0979,-52.2048"/>
</g>
<!-- Node5 -->
<g id="node5" class="node"><title>Node5</title>
<g id="a_node5"><a xlink:href="classopt_1_1FRAG.html#a6f2b4d1fe01a2dffc7e6a7d2e4d97102" target="_top" xlink:title="opt::FRAG::principal_axes">
<polygon fill="none" stroke="black" points="284,-38.5 284,-57.5 416,-57.5 416,-38.5 284,-38.5"/>
<text text-anchor="middle" x="350" y="-45.5" font-family="Helvetica,sans-Serif" font-size="10.00">opt::FRAG::principal_axes</text>
</a>
</g>
</g>
<!-- Node4&#45;&gt;Node5 -->
<g id="edge4" class="edge"><title>Node4&#45;&gt;Node5</title>
<path fill="none" stroke="midnightblue" d="M258.393,-48C266.869,-48 275.452,-48 283.784,-48"/>
<polygon fill="midnightblue" stroke="midnightblue" points="258.131,-44.5001 248.131,-48 258.131,-51.5001 258.131,-44.5001"/>
</g>
<!-- Node7 -->
<g id="node7" class="node"><title>Node7</title>
<g id="a_node7"><a xlink:href="group__CIOMR.html#gaba9bacbf72523bc02749d6738f768997" target="_top" xlink:title="psi::mxmb">
<polygon fill="none" stroke="black" points="319,-0.5 319,-19.5 381,-19.5 381,-0.5 319,-0.5"/>
<text text-anchor="middle" x="350" y="-7.5" font-family="Helvetica,sans-Serif" font-size="10.00">psi::mxmb</text>
</a>
</g>
</g>
<!-- Node6&#45;&gt;Node7 -->
<g id="edge6" class="edge"><title>Node6&#45;&gt;Node7</title>
<path fill="none" stroke="midnightblue" d="M223.429,-10C252.886,-10 292.154,-10 318.882,-10"/>
<polygon fill="midnightblue" stroke="midnightblue" points="223.061,-6.5001 213.061,-10 223.061,-13.5001 223.061,-6.5001"/>
</g>
</g>
</svg>
