<?xml version="1.0" encoding="UTF-8" standalone="no"?>
<!DOCTYPE svg PUBLIC "-//W3C//DTD SVG 1.1//EN"
 "http://www.w3.org/Graphics/SVG/1.1/DTD/svg11.dtd">
<!-- Generated by graphviz version 2.30.1 (20140110.0959)
 -->
<!-- Title: psi::factorial Pages: 1 -->
<svg width="380pt" height="66pt"
 viewBox="0.00 0.00 380.00 66.00" xmlns="http://www.w3.org/2000/svg" xmlns:xlink="http://www.w3.org/1999/xlink">
<g id="graph0" class="graph" transform="scale(1 1) rotate(0) translate(4 62)">
<title>psi::factorial</title>
<!-- Node1 -->
<g id="node1" class="node"><title>Node1</title>
<polygon fill="#bfbfbf" stroke="black" points="0,-19.5 0,-38.5 70,-38.5 70,-19.5 0,-19.5"/>
<text text-anchor="middle" x="35" y="-26.5" font-family="Helvetica,sans-Serif" font-size="10.00">psi::factorial</text>
</g>
<!-- Node2 -->
<g id="node2" class="node"><title>Node2</title>
<g id="a_node2"><a xlink:href="group__QT.html#gabc6c5e50bb519f541ce97a049a11f36c" target="_top" xlink:title="psi::combinations">
<polygon fill="none" stroke="black" points="106.5,-19.5 106.5,-38.5 199.5,-38.5 199.5,-19.5 106.5,-19.5"/>
<text text-anchor="middle" x="153" y="-26.5" font-family="Helvetica,sans-Serif" font-size="10.00">psi::combinations</text>
</a>
</g>
</g>
<!-- Node1&#45;&gt;Node2 -->
<g id="edge1" class="edge"><title>Node1&#45;&gt;Node2</title>
<path fill="none" stroke="midnightblue" d="M80.3448,-29C88.8959,-29 97.8669,-29 106.455,-29"/>
<polygon fill="midnightblue" stroke="midnightblue" points="80.1765,-25.5001 70.1764,-29 80.1764,-32.5001 80.1765,-25.5001"/>
</g>
<!-- Node3 -->
<g id="node3" class="node"><title>Node3</title>
<g id="a_node3"><a xlink:href="namespacepsi.html#a10438bc4af3d0303663c48f3c3cfe32a" target="_top" xlink:title="psi::benchmark_integrals">
<polygon fill="none" stroke="black" points="241.5,-38.5 241.5,-57.5 366.5,-57.5 366.5,-38.5 241.5,-38.5"/>
<text text-anchor="middle" x="304" y="-45.5" font-family="Helvetica,sans-Serif" font-size="10.00">psi::benchmark_integrals</text>
</a>
</g>
</g>
<!-- Node2&#45;&gt;Node3 -->
<g id="edge2" class="edge"><title>Node2&#45;&gt;Node3</title>
<path fill="none" stroke="midnightblue" d="M209.636,-36.0945C219.962,-37.4113 230.806,-38.794 241.3,-40.1322"/>
<polygon fill="midnightblue" stroke="midnightblue" points="209.877,-32.597 199.515,-34.8039 208.991,-39.5408 209.877,-32.597"/>
</g>
<!-- Node4 -->
<g id="node4" class="node"><title>Node4</title>
<g id="a_node4"><a xlink:href="namespacepsi.html#a606ca1816a4c81be0b012a273d2b645b" target="_top" xlink:title="psi::generate_combinations">
<polygon fill="none" stroke="black" points="236,-0.5 236,-19.5 372,-19.5 372,-0.5 236,-0.5"/>
<text text-anchor="middle" x="304" y="-7.5" font-family="Helvetica,sans-Serif" font-size="10.00">psi::generate_combinations</text>
</a>
</g>
</g>
<!-- Node2&#45;&gt;Node4 -->
<g id="edge3" class="edge"><title>Node2&#45;&gt;Node4</title>
<path fill="none" stroke="midnightblue" d="M209.699,-21.8975C218.218,-20.8112 227.087,-19.6801 235.822,-18.5664"/>
<polygon fill="midnightblue" stroke="midnightblue" points="208.991,-18.4592 199.515,-23.1961 209.877,-25.403 208.991,-18.4592"/>
</g>
</g>
</svg>
