<?xml version="1.0" encoding="UTF-8" standalone="no"?>
<!DOCTYPE svg PUBLIC "-//W3C//DTD SVG 1.1//EN"
 "http://www.w3.org/Graphics/SVG/1.1/DTD/svg11.dtd">
<!-- Generated by graphviz version 2.30.1 (20140110.0959)
 -->
<!-- Title: psi::detcas::check_conv Pages: 1 -->
<svg width="252pt" height="142pt"
 viewBox="0.00 0.00 252.00 142.00" xmlns="http://www.w3.org/2000/svg" xmlns:xlink="http://www.w3.org/1999/xlink">
<g id="graph0" class="graph" transform="scale(1 1) rotate(0) translate(4 138)">
<title>psi::detcas::check_conv</title>
<!-- Node1 -->
<g id="node1" class="node"><title>Node1</title>
<polygon fill="#bfbfbf" stroke="black" points="0.5,-57.5 0.5,-76.5 123.5,-76.5 123.5,-57.5 0.5,-57.5"/>
<text text-anchor="middle" x="62" y="-64.5" font-family="Helvetica,sans-Serif" font-size="10.00">psi::detcas::check_conv</text>
</g>
<!-- Node2 -->
<g id="node2" class="node"><title>Node2</title>
<g id="a_node2"><a xlink:href="group__CIOMR.html#gad5a35e3396f46acf0fb3e9174b5d4c5e" target="_top" xlink:title="psi::ffile_noexit">
<polygon fill="none" stroke="black" points="160.5,-114.5 160.5,-133.5 243.5,-133.5 243.5,-114.5 160.5,-114.5"/>
<text text-anchor="middle" x="202" y="-121.5" font-family="Helvetica,sans-Serif" font-size="10.00">psi::ffile_noexit</text>
</a>
</g>
</g>
<!-- Node1&#45;&gt;Node2 -->
<g id="edge1" class="edge"><title>Node1&#45;&gt;Node2</title>
<path fill="none" stroke="midnightblue" d="M86.0981,-76.5405C108.587,-85.8294 142.981,-100.036 168.281,-110.486"/>
<polygon fill="midnightblue" stroke="midnightblue" points="167.248,-113.846 177.827,-114.428 169.92,-107.376 167.248,-113.846"/>
</g>
<!-- Node3 -->
<g id="node3" class="node"><title>Node3</title>
<g id="a_node3"><a xlink:href="group__CHKPT.html#ga15bbb87c306dee581a2e7d855ab528e1" target="_top" xlink:title="chkpt_init">
<polygon fill="none" stroke="black" points="172.5,-76.5 172.5,-95.5 231.5,-95.5 231.5,-76.5 172.5,-76.5"/>
<text text-anchor="middle" x="202" y="-83.5" font-family="Helvetica,sans-Serif" font-size="10.00">chkpt_init</text>
</a>
</g>
</g>
<!-- Node1&#45;&gt;Node3 -->
<g id="edge2" class="edge"><title>Node1&#45;&gt;Node3</title>
<path fill="none" stroke="midnightblue" d="M123.529,-75.3337C136.636,-77.1382 150.156,-78.9998 162.161,-80.6526"/>
<polygon fill="midnightblue" stroke="midnightblue" points="161.887,-84.1479 172.271,-82.0446 162.842,-77.2133 161.887,-84.1479"/>
</g>
<!-- Node4 -->
<g id="node4" class="node"><title>Node4</title>
<g id="a_node4"><a xlink:href="group__CHKPT.html#ga332aa4f6fb76a3d23b56b5caf450f3cf" target="_top" xlink:title="chkpt_rd_etot">
<polygon fill="none" stroke="black" points="164,-38.5 164,-57.5 240,-57.5 240,-38.5 164,-38.5"/>
<text text-anchor="middle" x="202" y="-45.5" font-family="Helvetica,sans-Serif" font-size="10.00">chkpt_rd_etot</text>
</a>
</g>
</g>
<!-- Node1&#45;&gt;Node4 -->
<g id="edge3" class="edge"><title>Node1&#45;&gt;Node4</title>
<path fill="none" stroke="midnightblue" d="M123.529,-58.6663C133.741,-57.2603 144.205,-55.8196 154.007,-54.4701"/>
<polygon fill="midnightblue" stroke="midnightblue" points="154.514,-57.9333 163.943,-53.102 153.559,-50.9987 154.514,-57.9333"/>
</g>
<!-- Node5 -->
<g id="node5" class="node"><title>Node5</title>
<g id="a_node5"><a xlink:href="group__CHKPT.html#ga60573214bdcdaae8b41af01bbe9fc66a" target="_top" xlink:title="chkpt_close">
<polygon fill="none" stroke="black" points="167.5,-0.5 167.5,-19.5 236.5,-19.5 236.5,-0.5 167.5,-0.5"/>
<text text-anchor="middle" x="202" y="-7.5" font-family="Helvetica,sans-Serif" font-size="10.00">chkpt_close</text>
</a>
</g>
</g>
<!-- Node1&#45;&gt;Node5 -->
<g id="edge4" class="edge"><title>Node1&#45;&gt;Node5</title>
<path fill="none" stroke="midnightblue" d="M86.0981,-57.4595C108.587,-48.1706 142.981,-33.9642 168.281,-23.5143"/>
<polygon fill="midnightblue" stroke="midnightblue" points="169.92,-26.6242 177.827,-19.5716 167.248,-20.1544 169.92,-26.6242"/>
</g>
</g>
</svg>
