<?xml version="1.0" encoding="UTF-8" standalone="no"?>
<!DOCTYPE svg PUBLIC "-//W3C//DTD SVG 1.1//EN"
 "http://www.w3.org/Graphics/SVG/1.1/DTD/svg11.dtd">
<!-- Generated by graphviz version 2.30.1 (20140110.0959)
 -->
<!-- Title: psi::slaterdetvector_read Pages: 1 -->
<svg width="696pt" height="180pt"
 viewBox="0.00 0.00 696.00 180.00" xmlns="http://www.w3.org/2000/svg" xmlns:xlink="http://www.w3.org/1999/xlink">
<g id="graph0" class="graph" transform="scale(1 1) rotate(0) translate(4 176)">
<title>psi::slaterdetvector_read</title>
<!-- Node1 -->
<g id="node1" class="node"><title>Node1</title>
<polygon fill="#bfbfbf" stroke="black" points="0,-38.5 0,-57.5 124,-57.5 124,-38.5 0,-38.5"/>
<text text-anchor="middle" x="62" y="-45.5" font-family="Helvetica,sans-Serif" font-size="10.00">psi::slaterdetvector_read</text>
</g>
<!-- Node2 -->
<g id="node2" class="node"><title>Node2</title>
<g id="a_node2"><a xlink:href="group__QT.html#ga4a2d65a1290e904986d93f3436848ab0" target="_top" xlink:title="psi::slaterdetset_read">
<polygon fill="none" stroke="black" points="172,-95.5 172,-114.5 282,-114.5 282,-95.5 172,-95.5"/>
<text text-anchor="middle" x="227" y="-102.5" font-family="Helvetica,sans-Serif" font-size="10.00">psi::slaterdetset_read</text>
</a>
</g>
</g>
<!-- Node1&#45;&gt;Node2 -->
<g id="edge1" class="edge"><title>Node1&#45;&gt;Node2</title>
<path fill="none" stroke="midnightblue" d="M90.2825,-57.5405C117.316,-66.9938 158.913,-81.5402 188.93,-92.037"/>
<polygon fill="midnightblue" stroke="midnightblue" points="188.034,-95.4312 198.628,-95.4284 190.344,-88.8235 188.034,-95.4312"/>
</g>
<!-- Node8 -->
<g id="node8" class="node"><title>Node8</title>
<g id="a_node8"><a xlink:href="group__QT.html#gad92f6aaa81bb1d58628d4789be57d1d4" target="_top" xlink:title="psi::slaterdetvector_init">
<polygon fill="none" stroke="black" points="168,-38.5 168,-57.5 286,-57.5 286,-38.5 168,-38.5"/>
<text text-anchor="middle" x="227" y="-45.5" font-family="Helvetica,sans-Serif" font-size="10.00">psi::slaterdetvector_init</text>
</a>
</g>
</g>
<!-- Node1&#45;&gt;Node8 -->
<g id="edge9" class="edge"><title>Node1&#45;&gt;Node8</title>
<path fill="none" stroke="midnightblue" d="M124.159,-48C135.087,-48 146.536,-48 157.65,-48"/>
<polygon fill="midnightblue" stroke="midnightblue" points="157.738,-51.5001 167.738,-48 157.738,-44.5001 157.738,-51.5001"/>
</g>
<!-- Node10 -->
<g id="node10" class="node"><title>Node10</title>
<g id="a_node10"><a xlink:href="group__QT.html#ga1c0d9992fdf633f70982de16d3021933" target="_top" xlink:title="psi::slaterdetset_read_vect">
<polygon fill="none" stroke="black" points="160,-0.5 160,-19.5 294,-19.5 294,-0.5 160,-0.5"/>
<text text-anchor="middle" x="227" y="-7.5" font-family="Helvetica,sans-Serif" font-size="10.00">psi::slaterdetset_read_vect</text>
</a>
</g>
</g>
<!-- Node1&#45;&gt;Node10 -->
<g id="edge11" class="edge"><title>Node1&#45;&gt;Node10</title>
<path fill="none" stroke="midnightblue" d="M104.132,-38.411C125.738,-33.3739 152.409,-27.1562 175.286,-21.8229"/>
<polygon fill="midnightblue" stroke="midnightblue" points="176.22,-25.1991 185.164,-19.5201 174.63,-18.3819 176.22,-25.1991"/>
</g>
<!-- Node3 -->
<g id="node3" class="node"><title>Node3</title>
<g id="a_node3"><a xlink:href="group__QT.html#gac15eb8e301802fa8f61e31f6a4b0b3c2" target="_top" xlink:title="psi::stringset_read">
<polygon fill="none" stroke="black" points="333.5,-152.5 333.5,-171.5 430.5,-171.5 430.5,-152.5 333.5,-152.5"/>
<text text-anchor="middle" x="382" y="-159.5" font-family="Helvetica,sans-Serif" font-size="10.00">psi::stringset_read</text>
</a>
</g>
</g>
<!-- Node2&#45;&gt;Node3 -->
<g id="edge2" class="edge"><title>Node2&#45;&gt;Node3</title>
<path fill="none" stroke="midnightblue" d="M253.609,-114.541C278.873,-123.953 317.69,-138.414 345.837,-148.9"/>
<polygon fill="midnightblue" stroke="midnightblue" points="344.715,-152.217 355.308,-152.428 347.159,-145.657 344.715,-152.217"/>
</g>
<!-- Node4 -->
<g id="node4" class="node"><title>Node4</title>
<g id="a_node4"><a xlink:href="group__PSIO.html#ga99f8fc4eb069614c46d11d44646251e6" target="_top" xlink:title="psi::psio_read_entry">
<polygon fill="none" stroke="black" points="470,-76.5 470,-95.5 574,-95.5 574,-76.5 470,-76.5"/>
<text text-anchor="middle" x="522" y="-83.5" font-family="Helvetica,sans-Serif" font-size="10.00">psi::psio_read_entry</text>
</a>
</g>
</g>
<!-- Node2&#45;&gt;Node4 -->
<g id="edge7" class="edge"><title>Node2&#45;&gt;Node4</title>
<path fill="none" stroke="midnightblue" d="M282.082,-101.493C332.308,-98.236 407.029,-93.3906 459.504,-89.9878"/>
<polygon fill="midnightblue" stroke="midnightblue" points="459.936,-93.4672 469.688,-89.3274 459.483,-86.4819 459.936,-93.4672"/>
</g>
<!-- Node7 -->
<g id="node7" class="node"><title>Node7</title>
<g id="a_node7"><a xlink:href="group__QT.html#ga0cbaa8b39c036ee7aaef4c9bd40e8361" target="_top" xlink:title="psi::slaterdetset_init">
<polygon fill="none" stroke="black" points="330,-114.5 330,-133.5 434,-133.5 434,-114.5 330,-114.5"/>
<text text-anchor="middle" x="382" y="-121.5" font-family="Helvetica,sans-Serif" font-size="10.00">psi::slaterdetset_init</text>
</a>
</g>
</g>
<!-- Node2&#45;&gt;Node7 -->
<g id="edge8" class="edge"><title>Node2&#45;&gt;Node7</title>
<path fill="none" stroke="midnightblue" d="M282.373,-111.752C294.451,-113.252 307.335,-114.852 319.671,-116.384"/>
<polygon fill="midnightblue" stroke="midnightblue" points="319.519,-119.892 329.874,-117.651 320.381,-112.945 319.519,-119.892"/>
</g>
<!-- Node3&#45;&gt;Node4 -->
<g id="edge3" class="edge"><title>Node3&#45;&gt;Node4</title>
<path fill="none" stroke="midnightblue" d="M415.374,-152.481C421.81,-149.899 428.326,-146.754 434,-143 453.402,-130.163 450.598,-117.837 470,-105 472.925,-103.064 476.075,-101.291 479.322,-99.6724"/>
<polygon fill="midnightblue" stroke="midnightblue" points="480.922,-102.791 488.626,-95.5188 478.068,-96.3993 480.922,-102.791"/>
</g>
<!-- Node6 -->
<g id="node6" class="node"><title>Node6</title>
<g id="a_node6"><a xlink:href="group__QT.html#gafada6de1652da33accacc15f68333d5b" target="_top" xlink:title="psi::stringset_init">
<polygon fill="none" stroke="black" points="476.5,-114.5 476.5,-133.5 567.5,-133.5 567.5,-114.5 476.5,-114.5"/>
<text text-anchor="middle" x="522" y="-121.5" font-family="Helvetica,sans-Serif" font-size="10.00">psi::stringset_init</text>
</a>
</g>
</g>
<!-- Node3&#45;&gt;Node6 -->
<g id="edge5" class="edge"><title>Node3&#45;&gt;Node6</title>
<path fill="none" stroke="midnightblue" d="M417.823,-152.411C435.638,-147.506 457.518,-141.48 476.539,-136.243"/>
<polygon fill="midnightblue" stroke="midnightblue" points="477.476,-139.615 486.188,-133.586 475.618,-132.866 477.476,-139.615"/>
</g>
<!-- Node5 -->
<g id="node5" class="node"><title>Node5</title>
<g id="a_node5"><a xlink:href="group__PSIO.html#ga7fb52625f96f6373eca3de9dcdf9487f" target="_top" xlink:title="psi::psio_read">
<polygon fill="none" stroke="black" points="610.5,-114.5 610.5,-133.5 687.5,-133.5 687.5,-114.5 610.5,-114.5"/>
<text text-anchor="middle" x="649" y="-121.5" font-family="Helvetica,sans-Serif" font-size="10.00">psi::psio_read</text>
</a>
</g>
</g>
<!-- Node3&#45;&gt;Node5 -->
<g id="edge6" class="edge"><title>Node3&#45;&gt;Node5</title>
<path fill="none" stroke="midnightblue" d="M430.764,-159.272C469.567,-156.571 525.601,-151.569 574,-143 584.187,-141.196 595.037,-138.728 605.199,-136.167"/>
<polygon fill="midnightblue" stroke="midnightblue" points="606.284,-139.501 615.082,-133.597 604.523,-132.727 606.284,-139.501"/>
</g>
<!-- Node4&#45;&gt;Node5 -->
<g id="edge4" class="edge"><title>Node4&#45;&gt;Node5</title>
<path fill="none" stroke="midnightblue" d="M554.543,-95.589C570.383,-100.404 589.773,-106.299 606.776,-111.468"/>
<polygon fill="midnightblue" stroke="midnightblue" points="605.882,-114.854 616.467,-114.414 607.918,-108.157 605.882,-114.854"/>
</g>
<!-- Node9 -->
<g id="node9" class="node"><title>Node9</title>
<g id="a_node9"><a xlink:href="group__CIOMR.html#ga35255b9a71ed5869db7c1c5507923929" target="_top" xlink:title="psi::init_array">
<polygon fill="none" stroke="black" points="344.5,-38.5 344.5,-57.5 419.5,-57.5 419.5,-38.5 344.5,-38.5"/>
<text text-anchor="middle" x="382" y="-45.5" font-family="Helvetica,sans-Serif" font-size="10.00">psi::init_array</text>
</a>
</g>
</g>
<!-- Node8&#45;&gt;Node9 -->
<g id="edge10" class="edge"><title>Node8&#45;&gt;Node9</title>
<path fill="none" stroke="midnightblue" d="M286.279,-48C302.061,-48 318.94,-48 334.014,-48"/>
<polygon fill="midnightblue" stroke="midnightblue" points="334.126,-51.5001 344.126,-48 334.126,-44.5001 334.126,-51.5001"/>
</g>
<!-- Node10&#45;&gt;Node4 -->
<g id="edge12" class="edge"><title>Node10&#45;&gt;Node4</title>
<path fill="none" stroke="midnightblue" d="M294.203,-8.04462C335.467,-8.7718 389.073,-13.3101 434,-29 459.84,-38.0242 485.581,-56.3452 502.281,-69.79"/>
<polygon fill="midnightblue" stroke="midnightblue" points="500.209,-72.6181 510.143,-76.3012 504.674,-67.227 500.209,-72.6181"/>
</g>
</g>
</svg>
