<?xml version="1.0" encoding="UTF-8" standalone="no"?>
<!DOCTYPE svg PUBLIC "-//W3C//DTD SVG 1.1//EN"
 "http://www.w3.org/Graphics/SVG/1.1/DTD/svg11.dtd">
<!-- Generated by graphviz version 2.30.1 (20140110.0959)
 -->
<!-- Title: psi::stringset_read Pages: 1 -->
<svg width="360pt" height="79pt"
 viewBox="0.00 0.00 360.00 79.18" xmlns="http://www.w3.org/2000/svg" xmlns:xlink="http://www.w3.org/1999/xlink">
<g id="graph0" class="graph" transform="scale(1 1) rotate(0) translate(4 75.1792)">
<title>psi::stringset_read</title>
<!-- Node1 -->
<g id="node1" class="node"><title>Node1</title>
<polygon fill="#bfbfbf" stroke="black" points="0.5,-13.6792 0.5,-32.6792 97.5,-32.6792 97.5,-13.6792 0.5,-13.6792"/>
<text text-anchor="middle" x="49" y="-20.6792" font-family="Helvetica,sans-Serif" font-size="10.00">psi::stringset_read</text>
</g>
<!-- Node2 -->
<g id="node2" class="node"><title>Node2</title>
<g id="a_node2"><a xlink:href="group__PSIO.html#ga99f8fc4eb069614c46d11d44646251e6" target="_top" xlink:title="psi::psio_read_entry">
<polygon fill="none" stroke="black" points="134,-51.6792 134,-70.6792 238,-70.6792 238,-51.6792 134,-51.6792"/>
<text text-anchor="middle" x="186" y="-58.6792" font-family="Helvetica,sans-Serif" font-size="10.00">psi::psio_read_entry</text>
</a>
</g>
</g>
<!-- Node1&#45;&gt;Node2 -->
<g id="edge1" class="edge"><title>Node1&#45;&gt;Node2</title>
<path fill="none" stroke="midnightblue" d="M84.0662,-32.7682C101.413,-37.6511 122.702,-43.6435 141.249,-48.8642"/>
<polygon fill="midnightblue" stroke="midnightblue" points="140.37,-52.2527 150.945,-51.5933 142.267,-45.5146 140.37,-52.2527"/>
</g>
<!-- Node4 -->
<g id="node4" class="node"><title>Node4</title>
<g id="a_node4"><a xlink:href="group__QT.html#gafada6de1652da33accacc15f68333d5b" target="_top" xlink:title="psi::stringset_init">
<polygon fill="none" stroke="black" points="140.5,-13.6792 140.5,-32.6792 231.5,-32.6792 231.5,-13.6792 140.5,-13.6792"/>
<text text-anchor="middle" x="186" y="-20.6792" font-family="Helvetica,sans-Serif" font-size="10.00">psi::stringset_init</text>
</a>
</g>
</g>
<!-- Node1&#45;&gt;Node4 -->
<g id="edge3" class="edge"><title>Node1&#45;&gt;Node4</title>
<path fill="none" stroke="midnightblue" d="M97.5959,-23.1792C108.066,-23.1792 119.238,-23.1792 129.973,-23.1792"/>
<polygon fill="midnightblue" stroke="midnightblue" points="130.095,-26.6793 140.095,-23.1792 130.095,-19.6793 130.095,-26.6793"/>
</g>
<!-- Node3 -->
<g id="node3" class="node"><title>Node3</title>
<g id="a_node3"><a xlink:href="group__PSIO.html#ga7fb52625f96f6373eca3de9dcdf9487f" target="_top" xlink:title="psi::psio_read">
<polygon fill="none" stroke="black" points="274.5,-13.6792 274.5,-32.6792 351.5,-32.6792 351.5,-13.6792 274.5,-13.6792"/>
<text text-anchor="middle" x="313" y="-20.6792" font-family="Helvetica,sans-Serif" font-size="10.00">psi::psio_read</text>
</a>
</g>
</g>
<!-- Node1&#45;&gt;Node3 -->
<g id="edge4" class="edge"><title>Node1&#45;&gt;Node3</title>
<path fill="none" stroke="midnightblue" d="M84.0366,-13.6715C99.1991,-9.90696 117.358,-6.0379 134,-4.1792 179.937,0.951213 192.142,1.61399 238,-4.1792 249.284,-5.60472 261.311,-8.20703 272.318,-11.0378"/>
<polygon fill="midnightblue" stroke="midnightblue" points="271.522,-14.4482 282.089,-13.6746 273.346,-7.68993 271.522,-14.4482"/>
</g>
<!-- Node2&#45;&gt;Node3 -->
<g id="edge2" class="edge"><title>Node2&#45;&gt;Node3</title>
<path fill="none" stroke="midnightblue" d="M218.543,-51.5902C234.383,-46.7748 253.773,-40.8804 270.776,-35.7112"/>
<polygon fill="midnightblue" stroke="midnightblue" points="271.918,-39.0225 280.467,-32.7651 269.882,-32.3251 271.918,-39.0225"/>
</g>
</g>
</svg>
