<?xml version="1.0" encoding="UTF-8" standalone="no"?>
<!DOCTYPE svg PUBLIC "-//W3C//DTD SVG 1.1//EN"
 "http://www.w3.org/Graphics/SVG/1.1/DTD/svg11.dtd">
<!-- Generated by graphviz version 2.30.1 (20140110.0959)
 -->
<!-- Title: psi::PSIO::rw Pages: 1 -->
<!--zoomable 385 -->
<svg id="main" version="1.1" xmlns="http://www.w3.org/2000/svg" xmlns:xlink="http://www.w3.org/1999/xlink" xml:space="preserve" onload="init(evt)">
        <defs>
                <circle id="rim" cx="0" cy="0" r="7"/>
                <circle id="rim2" cx="0" cy="0" r="3.5"/>
                <g id="zoomPlus">
                        <use xlink:href="#rim" fill="#404040">
                                <set attributeName="fill" to="#808080" begin="zoomplus.mouseover" end="zoomplus.mouseout"/>
                        </use>
                        <path d="M-4,0h8M0,-4v8" fill="none" stroke="white" stroke-width="1.5" pointer-events="none"/>
                </g>
                <g id="zoomMin">
                        <use xlink:href="#rim" fill="#404040">
                                <set attributeName="fill" to="#808080" begin="zoomminus.mouseover" end="zoomminus.mouseout"/>
                        </use>
                        <path d="M-4,0h8" fill="none" stroke="white" stroke-width="1.5" pointer-events="none"/>
                </g>
                <g id="dirArrow">
                        <path fill="none" stroke="white" stroke-width="1.5" d="M0,-3.0v7 M-2.5,-0.5L0,-3.0L2.5,-0.5"/>
                </g>
               <g id="resetDef">
                       <use xlink:href="#rim2" fill="#404040">
                               <set attributeName="fill" to="#808080" begin="reset.mouseover" end="reset.mouseout"/>
                       </use>
               </g>
        </defs>

<script type="text/javascript">
var viewWidth = 800;
var viewHeight = 385;
var sectionId = 'dynsection-13';
</script>
<script xlink:href="svgpan.js"/>
<svg id="graph" class="graph">
<g id="viewport">
<title>psi::PSIO::rw</title>
<!-- Node1 -->
<g id="node1" class="node"><title>Node1</title>
<polygon fill="#bfbfbf" stroke="black" points="0,-186.712 0,-205.712 76,-205.712 76,-186.712 0,-186.712"/>
<text text-anchor="middle" x="38" y="-193.712" font-family="Helvetica,sans-Serif" font-size="10.00">psi::PSIO::rw</text>
</g>
<!-- Node2 -->
<g id="node2" class="node"><title>Node2</title>
<g id="a_node2"><a xlink:href="group__PSIO.html#ga0608b284b1f4b703c858612d39bef88c" target="_top" xlink:title="psi::psio_volseek">
<polygon fill="none" stroke="black" points="112,-357.712 112,-376.712 204,-376.712 204,-357.712 112,-357.712"/>
<text text-anchor="middle" x="158" y="-364.712" font-family="Helvetica,sans-Serif" font-size="10.00">psi::psio_volseek</text>
</a>
</g>
</g>
<!-- Node1&#45;&gt;Node2 -->
<g id="edge1" class="edge"><title>Node1&#45;&gt;Node2</title>
<path fill="none" stroke="midnightblue" d="M41.5859,-206.025C48.7546,-231.579 71.1008,-301.107 112,-343.212 115.37,-346.681 119.351,-349.762 123.528,-352.463"/>
<polygon fill="midnightblue" stroke="midnightblue" points="121.832,-355.526 132.246,-357.476 125.322,-349.457 121.832,-355.526"/>
</g>
<!-- Node3 -->
<g id="node3" class="node"><title>Node3</title>
<g id="a_node3"><a xlink:href="group__PSIO.html#ga1e6c081b5776af1cc3d21a8a1cb5c337" target="_top" xlink:title="psi::psio_error">
<polygon fill="none" stroke="black" points="533,-230.712 533,-249.712 611,-249.712 611,-230.712 533,-230.712"/>
<text text-anchor="middle" x="572" y="-237.712" font-family="Helvetica,sans-Serif" font-size="10.00">psi::psio_error</text>
</a>
</g>
</g>
<!-- Node1&#45;&gt;Node3 -->
<g id="edge2" class="edge"><title>Node1&#45;&gt;Node3</title>
<path fill="none" stroke="midnightblue" d="M52.7694,-205.818C84.17,-227.066 164.23,-277.564 240,-295.212 339.558,-318.399 370.939,-320.435 470,-295.212 499.899,-287.599 530.503,-269.136 550.067,-255.697"/>
<polygon fill="midnightblue" stroke="midnightblue" points="552.335,-258.38 558.484,-249.752 548.297,-252.662 552.335,-258.38"/>
</g>
<!-- Node5 -->
<g id="node5" class="node"><title>Node5</title>
<g id="a_node5"><a xlink:href="classpsi_1_1PSIO.html#abaa2e29b2fbcab920d8daf8f5ae5419c" target="_top" xlink:title="psi::PSIO::write">
<polygon fill="none" stroke="black" points="115,-186.712 115,-205.712 201,-205.712 201,-186.712 115,-186.712"/>
<text text-anchor="middle" x="158" y="-193.712" font-family="Helvetica,sans-Serif" font-size="10.00">psi::PSIO::write</text>
</a>
</g>
</g>
<!-- Node1&#45;&gt;Node5 -->
<g id="edge4" class="edge"><title>Node1&#45;&gt;Node5</title>
<path fill="none" stroke="midnightblue" d="M76.0122,-189.897C85.0459,-189.523 94.8821,-189.39 104.486,-189.498"/>
<polygon fill="midnightblue" stroke="midnightblue" points="104.698,-193.003 114.768,-189.71 104.842,-186.004 104.698,-193.003"/>
</g>
<!-- Node17 -->
<g id="node17" class="node"><title>Node17</title>
<g id="a_node17"><a xlink:href="classpsi_1_1PSIO.html#a20e9bd359e831a80b55ec64673394cd0" target="_top" xlink:title="psi::PSIO::read">
<polygon fill="none" stroke="black" points="116,-148.712 116,-167.712 200,-167.712 200,-148.712 116,-148.712"/>
<text text-anchor="middle" x="158" y="-155.712" font-family="Helvetica,sans-Serif" font-size="10.00">psi::PSIO::read</text>
</a>
</g>
</g>
<!-- Node1&#45;&gt;Node17 -->
<g id="edge25" class="edge"><title>Node1&#45;&gt;Node17</title>
<path fill="none" stroke="midnightblue" d="M54.4264,-186.512C67.6728,-180.67 87.54,-173.619 106.272,-167.857"/>
<polygon fill="midnightblue" stroke="midnightblue" points="107.343,-171.19 115.923,-164.974 105.34,-164.483 107.343,-171.19"/>
</g>
<!-- Node4 -->
<g id="node4" class="node"><title>Node4</title>
<g id="a_node4"><a xlink:href="group__PSIO.html#gaee16f35954f733e1fce461d5981e3871" target="_top" xlink:title="psi::psio_tocwrite">
<polygon fill="none" stroke="black" points="686.5,-230.712 686.5,-249.712 779.5,-249.712 779.5,-230.712 686.5,-230.712"/>
<text text-anchor="middle" x="733" y="-237.712" font-family="Helvetica,sans-Serif" font-size="10.00">psi::psio_tocwrite</text>
</a>
</g>
</g>
<!-- Node3&#45;&gt;Node4 -->
<g id="edge3" class="edge"><title>Node3&#45;&gt;Node4</title>
<path fill="none" stroke="midnightblue" d="M611.084,-240.212C630.595,-240.212 654.723,-240.212 676.281,-240.212"/>
<polygon fill="midnightblue" stroke="midnightblue" points="676.302,-243.712 686.302,-240.212 676.302,-236.712 676.302,-243.712"/>
</g>
<!-- Node6 -->
<g id="node6" class="node"><title>Node6</title>
<g id="a_node6"><a xlink:href="classpsi_1_1PSIO.html#a5646f6a4991f52588a42e54bad3261ef" target="_top" xlink:title="Scans the TOC for a particular keyword and returns either a pointer to the entry or NULL to the calle...">
<polygon fill="none" stroke="black" points="242,-167.712 242,-186.712 342,-186.712 342,-167.712 242,-167.712"/>
<text text-anchor="middle" x="292" y="-174.712" font-family="Helvetica,sans-Serif" font-size="10.00">psi::PSIO::tocscan</text>
</a>
</g>
</g>
<!-- Node5&#45;&gt;Node6 -->
<g id="edge5" class="edge"><title>Node5&#45;&gt;Node6</title>
<path fill="none" stroke="midnightblue" d="M201.129,-190.148C210.862,-188.747 221.395,-187.23 231.708,-185.746"/>
<polygon fill="midnightblue" stroke="midnightblue" points="232.51,-189.167 241.91,-184.278 231.513,-182.238 232.51,-189.167"/>
</g>
<!-- Node5&#45;&gt;Node3 -->
<g id="edge20" class="edge"><title>Node5&#45;&gt;Node3</title>
<path fill="none" stroke="midnightblue" d="M165.39,-205.801C177.52,-223.024 205.752,-258.66 240,-272.212 342.468,-312.756 476.145,-275.051 537.529,-253.243"/>
<polygon fill="midnightblue" stroke="midnightblue" points="538.889,-256.472 547.09,-249.765 536.496,-249.894 538.889,-256.472"/>
</g>
<!-- Node15 -->
<g id="node15" class="node"><title>Node15</title>
<g id="a_node15"><a xlink:href="namespacepsi.html#a5f3a891c486a6de00fdb7e85ce849e96" target="_top" xlink:title="Same as strncpy(), but make sure that dest ends in \0.">
<polygon fill="none" stroke="black" points="258,-243.712 258,-262.712 326,-262.712 326,-243.712 258,-243.712"/>
<text text-anchor="middle" x="292" y="-250.712" font-family="Helvetica,sans-Serif" font-size="10.00">psi::strncpy</text>
</a>
</g>
</g>
<!-- Node5&#45;&gt;Node15 -->
<g id="edge21" class="edge"><title>Node5&#45;&gt;Node15</title>
<path fill="none" stroke="midnightblue" d="M181.094,-205.752C202.51,-215 235.213,-229.122 259.382,-239.558"/>
<polygon fill="midnightblue" stroke="midnightblue" points="258.266,-242.889 268.834,-243.64 261.041,-236.462 258.266,-242.889"/>
</g>
<!-- Node14 -->
<g id="node14" class="node"><title>Node14</title>
<g id="a_node14"><a xlink:href="group__PSIO.html#gacd1b580899ec1cec5064f2cb0058a364" target="_top" xlink:title="psi::psio_get_address">
<polygon fill="none" stroke="black" points="677,-15.7116 677,-34.7116 789,-34.7116 789,-15.7116 677,-15.7116"/>
<text text-anchor="middle" x="733" y="-22.7116" font-family="Helvetica,sans-Serif" font-size="10.00">psi::psio_get_address</text>
</a>
</g>
</g>
<!-- Node5&#45;&gt;Node14 -->
<g id="edge22" class="edge"><title>Node5&#45;&gt;Node14</title>
<path fill="none" stroke="midnightblue" d="M182.991,-186.533C189.832,-183.651 197.256,-180.408 204,-177.212 220.349,-169.464 223.497,-165.625 240,-158.212 285.031,-137.983 299.846,-141.288 344,-119.212 360.982,-110.72 363.159,-104.979 380,-96.2116 433.737,-68.2381 447.121,-58.473 506,-44.2116 559.188,-31.3286 621.239,-26.834 666.851,-25.4167"/>
<polygon fill="midnightblue" stroke="midnightblue" points="667.005,-28.914 676.907,-25.1457 666.816,-21.9165 667.005,-28.914"/>
</g>
<!-- Node16 -->
<g id="node16" class="node"><title>Node16</title>
<g id="a_node16"><a xlink:href="group__PSIO.html#ga760073b297d2340a38f2771b5b13560f" target="_top" xlink:title="psi::psio_get_global\l_address">
<polygon fill="none" stroke="black" points="240.5,-80.2116 240.5,-110.212 343.5,-110.212 343.5,-80.2116 240.5,-80.2116"/>
<text text-anchor="start" x="248.5" y="-98.2116" font-family="Helvetica,sans-Serif" font-size="10.00">psi::psio_get_global</text>
<text text-anchor="middle" x="292" y="-87.2116" font-family="Helvetica,sans-Serif" font-size="10.00">_address</text>
</a>
</g>
</g>
<!-- Node5&#45;&gt;Node16 -->
<g id="edge23" class="edge"><title>Node5&#45;&gt;Node16</title>
<path fill="none" stroke="midnightblue" d="M188.45,-186.625C193.941,-184.072 199.393,-180.955 204,-177.212 225.815,-159.485 219.404,-144.341 240,-125.212 243.575,-121.891 247.58,-118.77 251.731,-115.888"/>
<polygon fill="midnightblue" stroke="midnightblue" points="253.857,-118.682 260.367,-110.323 250.065,-112.798 253.857,-118.682"/>
</g>
<!-- Node5&#45;&gt;Node1 -->
<g id="edge24" class="edge"><title>Node5&#45;&gt;Node1</title>
<path fill="none" stroke="midnightblue" d="M114.768,-202.713C105.467,-202.996 95.5596,-203.037 86.0807,-202.838"/>
<polygon fill="midnightblue" stroke="midnightblue" points="86.1156,-199.337 76.0122,-202.526 85.8992,-206.334 86.1156,-199.337"/>
</g>
<!-- Node6&#45;&gt;Node3 -->
<g id="edge6" class="edge"><title>Node6&#45;&gt;Node3</title>
<path fill="none" stroke="midnightblue" d="M335.222,-186.78C385.737,-198.227 470.105,-217.347 523.035,-229.342"/>
<polygon fill="midnightblue" stroke="midnightblue" points="522.334,-232.772 532.86,-231.568 523.881,-225.945 522.334,-232.772"/>
</g>
<!-- Node7 -->
<g id="node7" class="node"><title>Node7</title>
<g id="a_node7"><a xlink:href="classpsi_1_1PSIO.html#ae49be2f291d20fa98b7ed6612b3a524d" target="_top" xlink:title="return 1 if unit is open">
<polygon fill="none" stroke="black" points="674,-72.7116 674,-91.7116 792,-91.7116 792,-72.7116 674,-72.7116"/>
<text text-anchor="middle" x="733" y="-79.7116" font-family="Helvetica,sans-Serif" font-size="10.00">psi::PSIO::open_check</text>
</a>
</g>
</g>
<!-- Node6&#45;&gt;Node7 -->
<g id="edge7" class="edge"><title>Node6&#45;&gt;Node7</title>
<path fill="none" stroke="midnightblue" d="M317.164,-167.642C325.931,-163.712 335.711,-158.772 344,-153.212 362.025,-141.12 360.224,-129.156 380,-120.212 429.09,-98.0092 576.017,-88.3951 663.763,-84.5401"/>
<polygon fill="midnightblue" stroke="midnightblue" points="664.055,-88.0309 673.897,-84.1089 663.758,-81.0373 664.055,-88.0309"/>
</g>
<!-- Node8 -->
<g id="node8" class="node"><title>Node8</title>
<g id="a_node8"><a xlink:href="classpsi_1_1PSIO.html#ad9843039bda332ccadfc7f47ec4ada25" target="_top" xlink:title="open unit. status can be PSIO_OPEN_OLD (if existing file is to be opened) or PSIO_OPEN_NEW if new fil...">
<polygon fill="none" stroke="black" points="382,-167.712 382,-186.712 468,-186.712 468,-167.712 382,-167.712"/>
<text text-anchor="middle" x="425" y="-174.712" font-family="Helvetica,sans-Serif" font-size="10.00">psi::PSIO::open</text>
</a>
</g>
</g>
<!-- Node6&#45;&gt;Node8 -->
<g id="edge8" class="edge"><title>Node6&#45;&gt;Node8</title>
<path fill="none" stroke="midnightblue" d="M342.152,-177.212C351.851,-177.212 362.061,-177.212 371.855,-177.212"/>
<polygon fill="midnightblue" stroke="midnightblue" points="371.872,-180.712 381.872,-177.212 371.872,-173.712 371.872,-180.712"/>
</g>
<!-- Node12 -->
<g id="node12" class="node"><title>Node12</title>
<g id="a_node12"><a xlink:href="classpsi_1_1PSIO.html#adbd402c15bc7514c6ccaf1838a138858" target="_top" xlink:title="close unit. if keep == 0, will remove the file, else keep it">
<polygon fill="none" stroke="black" points="380.5,-129.712 380.5,-148.712 469.5,-148.712 469.5,-129.712 380.5,-129.712"/>
<text text-anchor="middle" x="425" y="-136.712" font-family="Helvetica,sans-Serif" font-size="10.00">psi::PSIO::close</text>
</a>
</g>
</g>
<!-- Node6&#45;&gt;Node12 -->
<g id="edge13" class="edge"><title>Node6&#45;&gt;Node12</title>
<path fill="none" stroke="midnightblue" d="M326.057,-167.623C342.813,-162.762 363.358,-156.802 381.297,-151.599"/>
<polygon fill="midnightblue" stroke="midnightblue" points="382.325,-154.945 390.954,-148.797 380.375,-148.222 382.325,-154.945"/>
</g>
<!-- Node8&#45;&gt;Node3 -->
<g id="edge9" class="edge"><title>Node8&#45;&gt;Node3</title>
<path fill="none" stroke="midnightblue" d="M448.022,-186.78C472.401,-197.372 511.898,-214.533 539.534,-226.54"/>
<polygon fill="midnightblue" stroke="midnightblue" points="538.204,-229.778 548.77,-230.553 540.993,-223.358 538.204,-229.778"/>
</g>
<!-- Node9 -->
<g id="node9" class="node"><title>Node9</title>
<g id="a_node9"><a xlink:href="classpsi_1_1PSIO.html#aef650f478b5b6d852921deec3f0e8e4a" target="_top" xlink:title="grab the filename of unit and strdup into name.">
<polygon fill="none" stroke="black" points="511.5,-179.712 511.5,-198.712 632.5,-198.712 632.5,-179.712 511.5,-179.712"/>
<text text-anchor="middle" x="572" y="-186.712" font-family="Helvetica,sans-Serif" font-size="10.00">psi::PSIO::get_filename</text>
</a>
</g>
</g>
<!-- Node8&#45;&gt;Node9 -->
<g id="edge10" class="edge"><title>Node8&#45;&gt;Node9</title>
<path fill="none" stroke="midnightblue" d="M468.33,-180.715C478.634,-181.567 489.927,-182.502 501.137,-183.43"/>
<polygon fill="midnightblue" stroke="midnightblue" points="501.122,-186.94 511.376,-184.277 501.699,-179.964 501.122,-186.94"/>
</g>
<!-- Node11 -->
<g id="node11" class="node"><title>Node11</title>
<g id="a_node11"><a xlink:href="classpsi_1_1PSIOManager.html#ac53f8dde17257977d98f1137616c2b48" target="_top" xlink:title="The one and (should be) only instance of PSIOManager for a PSI4 instance.">
<polygon fill="none" stroke="black" points="506,-130.212 506,-160.212 638,-160.212 638,-130.212 506,-130.212"/>
<text text-anchor="start" x="514" y="-148.212" font-family="Helvetica,sans-Serif" font-size="10.00">psi::PSIOManager::shared</text>
<text text-anchor="middle" x="572" y="-137.212" font-family="Helvetica,sans-Serif" font-size="10.00">_object</text>
</a>
</g>
</g>
<!-- Node8&#45;&gt;Node11 -->
<g id="edge12" class="edge"><title>Node8&#45;&gt;Node11</title>
<path fill="none" stroke="midnightblue" d="M468.33,-167.87C477.077,-165.939 486.538,-163.851 496.056,-161.751"/>
<polygon fill="midnightblue" stroke="midnightblue" points="496.956,-165.137 505.966,-159.564 495.447,-158.301 496.956,-165.137"/>
</g>
<!-- Node10 -->
<g id="node10" class="node"><title>Node10</title>
<g id="a_node10"><a xlink:href="classpsi_1_1PSIO.html#a4877f88ce7323ba45691dbfb4d403936" target="_top" xlink:title="psi::PSIO::filecfg_kwd">
<polygon fill="none" stroke="black" points="675.5,-179.712 675.5,-198.712 790.5,-198.712 790.5,-179.712 675.5,-179.712"/>
<text text-anchor="middle" x="733" y="-186.712" font-family="Helvetica,sans-Serif" font-size="10.00">psi::PSIO::filecfg_kwd</text>
</a>
</g>
</g>
<!-- Node9&#45;&gt;Node10 -->
<g id="edge11" class="edge"><title>Node9&#45;&gt;Node10</title>
<path fill="none" stroke="midnightblue" d="M632.658,-189.212C643.276,-189.212 654.398,-189.212 665.199,-189.212"/>
<polygon fill="midnightblue" stroke="midnightblue" points="665.429,-192.712 675.429,-189.212 665.429,-185.712 665.429,-192.712"/>
</g>
<!-- Node12&#45;&gt;Node3 -->
<g id="edge14" class="edge"><title>Node12&#45;&gt;Node3</title>
<path fill="none" stroke="midnightblue" d="M454.281,-148.73C459.808,-151.312 465.331,-154.458 470,-158.212 491.34,-175.37 485.094,-190.527 506,-208.212 514.587,-215.476 525.106,-221.569 535.16,-226.424"/>
<polygon fill="midnightblue" stroke="midnightblue" points="534.025,-229.753 544.578,-230.697 536.917,-223.378 534.025,-229.753"/>
</g>
<!-- Node13 -->
<g id="node13" class="node"><title>Node13</title>
<g id="a_node13"><a xlink:href="classpsi_1_1PSIO.html#a32fcd89fe9072099cb993a455233cf15" target="_top" xlink:title="Write the table of contents for file number &#39;unit&#39;. NB: This function should NOT call psio_error beca...">
<polygon fill="none" stroke="black" points="522,-53.7116 522,-72.7116 622,-72.7116 622,-53.7116 522,-53.7116"/>
<text text-anchor="middle" x="572" y="-60.7116" font-family="Helvetica,sans-Serif" font-size="10.00">psi::PSIO::tocwrite</text>
</a>
</g>
</g>
<!-- Node12&#45;&gt;Node13 -->
<g id="edge15" class="edge"><title>Node12&#45;&gt;Node13</title>
<path fill="none" stroke="midnightblue" d="M444.364,-129.586C469.423,-116.452 514.528,-92.8105 543.595,-77.5758"/>
<polygon fill="midnightblue" stroke="midnightblue" points="545.552,-80.5012 552.785,-72.7588 542.303,-74.3013 545.552,-80.5012"/>
</g>
<!-- Node12&#45;&gt;Node11 -->
<g id="edge19" class="edge"><title>Node12&#45;&gt;Node11</title>
<path fill="none" stroke="midnightblue" d="M469.505,-141.012C477.808,-141.355 486.719,-141.724 495.688,-142.095"/>
<polygon fill="midnightblue" stroke="midnightblue" points="495.672,-145.597 505.809,-142.514 495.962,-138.603 495.672,-145.597"/>
</g>
<!-- Node13&#45;&gt;Node7 -->
<g id="edge16" class="edge"><title>Node13&#45;&gt;Node7</title>
<path fill="none" stroke="midnightblue" d="M622.003,-69.0672C635.219,-70.6465 649.761,-72.3842 663.821,-74.0643"/>
<polygon fill="midnightblue" stroke="midnightblue" points="663.602,-77.5631 673.947,-75.2744 664.433,-70.6125 663.602,-77.5631"/>
</g>
<!-- Node13&#45;&gt;Node14 -->
<g id="edge17" class="edge"><title>Node13&#45;&gt;Node14</title>
<path fill="none" stroke="midnightblue" d="M613.122,-53.6225C634.104,-48.608 659.982,-42.4235 682.23,-37.1063"/>
<polygon fill="midnightblue" stroke="midnightblue" points="683.254,-40.4603 692.166,-34.7316 681.626,-33.652 683.254,-40.4603"/>
</g>
<!-- Node13&#45;&gt;Node1 -->
<g id="edge18" class="edge"><title>Node13&#45;&gt;Node1</title>
<path fill="none" stroke="midnightblue" d="M521.77,-57.169C456.226,-50.7135 337.263,-44.5689 240,-70.2116 164.004,-90.2474 89.6194,-150.425 56.6717,-179.767"/>
<polygon fill="midnightblue" stroke="midnightblue" points="54.2773,-177.213 49.2122,-186.519 58.9749,-182.403 54.2773,-177.213"/>
</g>
<!-- Node17&#45;&gt;Node6 -->
<g id="edge26" class="edge"><title>Node17&#45;&gt;Node6</title>
<path fill="none" stroke="midnightblue" d="M200.042,-164.119C210.021,-165.556 220.893,-167.12 231.537,-168.652"/>
<polygon fill="midnightblue" stroke="midnightblue" points="231.237,-172.145 241.634,-170.106 232.235,-165.217 231.237,-172.145"/>
</g>
<!-- Node17&#45;&gt;Node3 -->
<g id="edge27" class="edge"><title>Node17&#45;&gt;Node3</title>
<path fill="none" stroke="midnightblue" d="M182.991,-167.891C189.832,-170.772 197.256,-174.016 204,-177.212 220.349,-184.96 222.891,-190.329 240,-196.212 336.659,-229.445 457.186,-237.772 522.852,-239.736"/>
<polygon fill="midnightblue" stroke="midnightblue" points="522.82,-243.236 532.908,-240 523.003,-236.239 522.82,-243.236"/>
</g>
<!-- Node17&#45;&gt;Node14 -->
<g id="edge28" class="edge"><title>Node17&#45;&gt;Node14</title>
<path fill="none" stroke="midnightblue" d="M165.739,-148.485C178.436,-130.781 207.557,-93.0231 240,-70.2116 295.235,-31.3746 313.816,-24.5878 380,-11.2116 480.419,9.08381 600.135,-3.17537 670.898,-14.0752"/>
<polygon fill="midnightblue" stroke="midnightblue" points="670.551,-17.5638 680.976,-15.6695 671.645,-10.6497 670.551,-17.5638"/>
</g>
<!-- Node17&#45;&gt;Node16 -->
<g id="edge29" class="edge"><title>Node17&#45;&gt;Node16</title>
<path fill="none" stroke="midnightblue" d="M179.048,-148.643C197.894,-139.648 226.665,-125.917 250.32,-114.627"/>
<polygon fill="midnightblue" stroke="midnightblue" points="251.918,-117.743 259.435,-110.277 248.903,-111.425 251.918,-117.743"/>
</g>
<!-- Node17&#45;&gt;Node1 -->
<g id="edge30" class="edge"><title>Node17&#45;&gt;Node1</title>
<path fill="none" stroke="midnightblue" d="M141.728,-167.842C127.575,-174.099 105.768,-181.758 85.8813,-187.736"/>
<polygon fill="midnightblue" stroke="midnightblue" points="84.6363,-184.453 76.0122,-190.607 86.5918,-191.174 84.6363,-184.453"/>
</g>
</g>
</svg>
        <g id="navigator" transform="translate(0 0)" fill="#404254">
                <rect fill="#f2f5e9" fill-opacity="0.5" stroke="#606060" stroke-width=".5" x="0" y="0" width="60" height="60"/>
                <use id="zoomplus" xlink:href="#zoomPlus" x="17" y="9" onmousedown="handleZoom(evt,'in')"/>
                <use id="zoomminus" xlink:href="#zoomMin" x="42" y="9" onmousedown="handleZoom(evt,'out')"/>
                <use id="reset" xlink:href="#resetDef" x="30" y="36" onmousedown="handleReset()"/>
                <g id="arrowUp" xlink:href="#dirArrow" transform="translate(30 24)" onmousedown="handlePan(0,-1)">
                  <use xlink:href="#rim" fill="#404040">
                        <set attributeName="fill" to="#808080" begin="arrowUp.mouseover" end="arrowUp.mouseout"/>
                  </use>
                  <path fill="none" stroke="white" stroke-width="1.5" d="M0,-3.0v7 M-2.5,-0.5L0,-3.0L2.5,-0.5"/>
                </g>
                <g id="arrowRight" xlink:href="#dirArrow" transform="rotate(90) translate(36 -43)" onmousedown="handlePan(1,0)">
                  <use xlink:href="#rim" fill="#404040">
                        <set attributeName="fill" to="#808080" begin="arrowRight.mouseover" end="arrowRight.mouseout"/>
                  </use>
                  <path fill="none" stroke="white" stroke-width="1.5" d="M0,-3.0v7 M-2.5,-0.5L0,-3.0L2.5,-0.5"/>
                </g>
                <g id="arrowDown" xlink:href="#dirArrow" transform="rotate(180) translate(-30 -48)" onmousedown="handlePan(0,1)">
                  <use xlink:href="#rim" fill="#404040">
                        <set attributeName="fill" to="#808080" begin="arrowDown.mouseover" end="arrowDown.mouseout"/>
                  </use>
                  <path fill="none" stroke="white" stroke-width="1.5" d="M0,-3.0v7 M-2.5,-0.5L0,-3.0L2.5,-0.5"/>
                </g>
                <g id="arrowLeft" xlink:href="#dirArrow" transform="rotate(270) translate(-36 17)" onmousedown="handlePan(-1,0)">
                  <use xlink:href="#rim" fill="#404040">
                        <set attributeName="fill" to="#808080" begin="arrowLeft.mouseover" end="arrowLeft.mouseout"/>
                  </use>
                  <path fill="none" stroke="white" stroke-width="1.5" d="M0,-3.0v7 M-2.5,-0.5L0,-3.0L2.5,-0.5"/>
                </g>
        </g>
        <svg viewBox="0 0 15 15" width="100%" height="30px" preserveAspectRatio="xMaxYMin meet">
         <g id="arrow_out" transform="scale(0.3 0.3)">
          <a xlink:href="group__PSIO_ga0b989c316ebc107f83ab7eb921a6f38c_cgraph_org.svg" target="_base">
           <rect id="button" ry="5" rx="5" y="6" x="6" height="38" width="38"
                fill="#f2f5e9" fill-opacity="0.5" stroke="#606060" stroke-width="1.0"/>
           <path id="arrow"
             d="M 11.500037,31.436501 C 11.940474,20.09759 22.043105,11.32322 32.158766,21.979434 L 37.068811,17.246167 C 37.068811,17.246167 37.088388,32 37.088388,32 L 22.160133,31.978069 C 22.160133,31.978069 26.997745,27.140456 26.997745,27.140456 C 18.528582,18.264221 13.291696,25.230495 11.500037,31.436501 z"
             style="fill:#404040;"/>
          </a>
         </g>
        </svg>
</svg>
