<?xml version="1.0" encoding="UTF-8" standalone="no"?>
<!DOCTYPE svg PUBLIC "-//W3C//DTD SVG 1.1//EN"
 "http://www.w3.org/Graphics/SVG/1.1/DTD/svg11.dtd">
<!-- Generated by graphviz version 2.30.1 (20140110.0959)
 -->
<!-- Title: psi::psio_read Pages: 1 -->
<!--zoomable 522 -->
<svg id="main" version="1.1" xmlns="http://www.w3.org/2000/svg" xmlns:xlink="http://www.w3.org/1999/xlink" xml:space="preserve" onload="init(evt)">
        <defs>
                <circle id="rim" cx="0" cy="0" r="7"/>
                <circle id="rim2" cx="0" cy="0" r="3.5"/>
                <g id="zoomPlus">
                        <use xlink:href="#rim" fill="#404040">
                                <set attributeName="fill" to="#808080" begin="zoomplus.mouseover" end="zoomplus.mouseout"/>
                        </use>
                        <path d="M-4,0h8M0,-4v8" fill="none" stroke="white" stroke-width="1.5" pointer-events="none"/>
                </g>
                <g id="zoomMin">
                        <use xlink:href="#rim" fill="#404040">
                                <set attributeName="fill" to="#808080" begin="zoomminus.mouseover" end="zoomminus.mouseout"/>
                        </use>
                        <path d="M-4,0h8" fill="none" stroke="white" stroke-width="1.5" pointer-events="none"/>
                </g>
                <g id="dirArrow">
                        <path fill="none" stroke="white" stroke-width="1.5" d="M0,-3.0v7 M-2.5,-0.5L0,-3.0L2.5,-0.5"/>
                </g>
               <g id="resetDef">
                       <use xlink:href="#rim2" fill="#404040">
                               <set attributeName="fill" to="#808080" begin="reset.mouseover" end="reset.mouseout"/>
                       </use>
               </g>
        </defs>

<script type="text/javascript">
var viewWidth = 746;
var viewHeight = 522;
var sectionId = 'dynsection-5';
</script>
<script xlink:href="svgpan.js"/>
<svg id="graph" class="graph">
<g id="viewport">
<title>psi::psio_read</title>
<!-- Node1 -->
<g id="node1" class="node"><title>Node1</title>
<polygon fill="#bfbfbf" stroke="black" points="0.5,-95.5 0.5,-114.5 77.5,-114.5 77.5,-95.5 0.5,-95.5"/>
<text text-anchor="middle" x="39" y="-102.5" font-family="Helvetica,sans-Serif" font-size="10.00">psi::psio_read</text>
</g>
<!-- Node2 -->
<g id="node2" class="node"><title>Node2</title>
<g id="a_node2"><a xlink:href="group__IWL.html#gac911d759b786733d5f666d7b22d4b626" target="_top" xlink:title="psi::iwl_buf_fetch">
<polygon fill="none" stroke="black" points="119.5,-342.5 119.5,-361.5 212.5,-361.5 212.5,-342.5 119.5,-342.5"/>
<text text-anchor="middle" x="166" y="-349.5" font-family="Helvetica,sans-Serif" font-size="10.00">psi::iwl_buf_fetch</text>
</a>
</g>
</g>
<!-- Node1&#45;&gt;Node2 -->
<g id="edge1" class="edge"><title>Node1&#45;&gt;Node2</title>
<path fill="none" stroke="midnightblue" d="M49.4262,-123.626C74.3734,-172.922 141.485,-305.534 160.134,-342.384"/>
<polygon fill="midnightblue" stroke="midnightblue" points="52.5385,-122.025 44.9001,-114.683 46.2928,-125.186 52.5385,-122.025"/>
</g>
<!-- Node14 -->
<g id="node14" class="node"><title>Node14</title>
<g id="a_node14"><a xlink:href="group__PSIO.html#ga99f8fc4eb069614c46d11d44646251e6" target="_top" xlink:title="psi::psio_read_entry">
<polygon fill="none" stroke="black" points="114,-95.5 114,-114.5 218,-114.5 218,-95.5 114,-95.5"/>
<text text-anchor="middle" x="166" y="-102.5" font-family="Helvetica,sans-Serif" font-size="10.00">psi::psio_read_entry</text>
</a>
</g>
</g>
<!-- Node1&#45;&gt;Node14 -->
<g id="edge15" class="edge"><title>Node1&#45;&gt;Node14</title>
<path fill="none" stroke="midnightblue" d="M87.6423,-105C96.1499,-105 105.047,-105 113.653,-105"/>
<polygon fill="midnightblue" stroke="midnightblue" points="87.5042,-101.5 77.5041,-105 87.5041,-108.5 87.5042,-101.5"/>
</g>
<!-- Node18 -->
<g id="node18" class="node"><title>Node18</title>
<g id="a_node18"><a xlink:href="group__QT.html#gac15eb8e301802fa8f61e31f6a4b0b3c2" target="_top" xlink:title="psi::stringset_read">
<polygon fill="none" stroke="black" points="269.5,-0.5 269.5,-19.5 366.5,-19.5 366.5,-0.5 269.5,-0.5"/>
<text text-anchor="middle" x="318" y="-7.5" font-family="Helvetica,sans-Serif" font-size="10.00">psi::stringset_read</text>
</a>
</g>
</g>
<!-- Node1&#45;&gt;Node18 -->
<g id="edge25" class="edge"><title>Node1&#45;&gt;Node18</title>
<path fill="none" stroke="midnightblue" d="M75.0995,-91.947C117.346,-76.3726 190.535,-49.8262 254,-29 263.769,-25.7942 274.456,-22.4942 284.208,-19.5624"/>
<polygon fill="midnightblue" stroke="midnightblue" points="73.7239,-88.7239 65.5565,-95.4725 76.1498,-95.2901 73.7239,-88.7239"/>
</g>
<!-- Node3 -->
<g id="node3" class="node"><title>Node3</title>
<g id="a_node3"><a xlink:href="group__IWL.html#gaf17e4eee1412d1540e2c3091fd526658" target="_top" xlink:title="psi::iwl_buf_init">
<polygon fill="none" stroke="black" points="276,-266.5 276,-285.5 360,-285.5 360,-266.5 276,-266.5"/>
<text text-anchor="middle" x="318" y="-273.5" font-family="Helvetica,sans-Serif" font-size="10.00">psi::iwl_buf_init</text>
</a>
</g>
</g>
<!-- Node2&#45;&gt;Node3 -->
<g id="edge2" class="edge"><title>Node2&#45;&gt;Node3</title>
<path fill="none" stroke="midnightblue" d="M187.397,-336.201C204.428,-323.623 229.752,-306.31 254,-295 261.868,-291.33 270.617,-288.164 279.031,-285.527"/>
<polygon fill="midnightblue" stroke="midnightblue" points="185.187,-333.484 179.296,-342.29 189.393,-339.079 185.187,-333.484"/>
</g>
<!-- Node7 -->
<g id="node7" class="node"><title>Node7</title>
<g id="a_node7"><a xlink:href="group__IWL.html#gaff560dfd22becae1d1953b0a5fab8d33" target="_top" xlink:title="psi::iwl_buf_rd">
<polygon fill="none" stroke="black" points="278,-228.5 278,-247.5 358,-247.5 358,-228.5 278,-228.5"/>
<text text-anchor="middle" x="318" y="-235.5" font-family="Helvetica,sans-Serif" font-size="10.00">psi::iwl_buf_rd</text>
</a>
</g>
</g>
<!-- Node2&#45;&gt;Node7 -->
<g id="edge6" class="edge"><title>Node2&#45;&gt;Node7</title>
<path fill="none" stroke="midnightblue" d="M178.996,-333.838C194.052,-312.429 221.837,-277.215 254,-257 261.254,-252.441 269.665,-248.922 277.933,-246.226"/>
<polygon fill="midnightblue" stroke="midnightblue" points="175.936,-332.113 173.176,-342.342 181.712,-336.067 175.936,-332.113"/>
</g>
<!-- Node8 -->
<g id="node8" class="node"><title>Node8</title>
<g id="a_node8"><a xlink:href="group__IWL.html#gabb82f44066ccb9b3acafee95ee0f253e" target="_top" xlink:title="psi::iwl_buf_rd_all">
<polygon fill="none" stroke="black" points="270.5,-494.5 270.5,-513.5 365.5,-513.5 365.5,-494.5 270.5,-494.5"/>
<text text-anchor="middle" x="318" y="-501.5" font-family="Helvetica,sans-Serif" font-size="10.00">psi::iwl_buf_rd_all</text>
</a>
</g>
</g>
<!-- Node2&#45;&gt;Node8 -->
<g id="edge7" class="edge"><title>Node2&#45;&gt;Node8</title>
<path fill="none" stroke="midnightblue" d="M174.409,-371.099C186.608,-400.042 213.66,-454.826 254,-485 259.214,-488.9 265.23,-492.006 271.432,-494.477"/>
<polygon fill="midnightblue" stroke="midnightblue" points="177.597,-369.646 170.59,-361.699 171.112,-372.281 177.597,-369.646"/>
</g>
<!-- Node9 -->
<g id="node9" class="node"><title>Node9</title>
<g id="a_node9"><a xlink:href="group__IWL.html#ga0e4b3d93ffdef73a198ac43312132321" target="_top" xlink:title="psi::iwl_buf_rd_all2">
<polygon fill="none" stroke="black" points="268,-456.5 268,-475.5 368,-475.5 368,-456.5 268,-456.5"/>
<text text-anchor="middle" x="318" y="-463.5" font-family="Helvetica,sans-Serif" font-size="10.00">psi::iwl_buf_rd_all2</text>
</a>
</g>
</g>
<!-- Node2&#45;&gt;Node9 -->
<g id="edge9" class="edge"><title>Node2&#45;&gt;Node9</title>
<path fill="none" stroke="midnightblue" d="M178.996,-370.162C194.052,-391.571 221.837,-426.785 254,-447 260.094,-450.83 267.003,-453.925 273.959,-456.416"/>
<polygon fill="midnightblue" stroke="midnightblue" points="181.712,-367.933 173.176,-361.658 175.936,-371.887 181.712,-367.933"/>
</g>
<!-- Node10 -->
<g id="node10" class="node"><title>Node10</title>
<g id="a_node10"><a xlink:href="group__IWL.html#gaf821d0ea97d511cd28db1f7a3a508cfc" target="_top" xlink:title="psi::iwl_buf_rd_all_act">
<polygon fill="none" stroke="black" points="261.5,-418.5 261.5,-437.5 374.5,-437.5 374.5,-418.5 261.5,-418.5"/>
<text text-anchor="middle" x="318" y="-425.5" font-family="Helvetica,sans-Serif" font-size="10.00">psi::iwl_buf_rd_all_act</text>
</a>
</g>
</g>
<!-- Node2&#45;&gt;Node10 -->
<g id="edge10" class="edge"><title>Node2&#45;&gt;Node10</title>
<path fill="none" stroke="midnightblue" d="M187.397,-367.799C204.428,-380.377 229.752,-397.69 254,-409 261.868,-412.67 270.617,-415.836 279.031,-418.473"/>
<polygon fill="midnightblue" stroke="midnightblue" points="189.393,-364.921 179.296,-361.71 185.187,-370.516 189.393,-364.921"/>
</g>
<!-- Node11 -->
<g id="node11" class="node"><title>Node11</title>
<g id="a_node11"><a xlink:href="group__IWL.html#ga7f4f2041c90edf88b8a4bed5aec99124" target="_top" xlink:title="psi::iwl_buf_rd_arr">
<polygon fill="none" stroke="black" points="270,-380.5 270,-399.5 366,-399.5 366,-380.5 270,-380.5"/>
<text text-anchor="middle" x="318" y="-387.5" font-family="Helvetica,sans-Serif" font-size="10.00">psi::iwl_buf_rd_arr</text>
</a>
</g>
</g>
<!-- Node2&#45;&gt;Node11 -->
<g id="edge12" class="edge"><title>Node2&#45;&gt;Node11</title>
<path fill="none" stroke="midnightblue" d="M214.811,-364.112C235.702,-369.404 259.847,-375.521 279.421,-380.48"/>
<polygon fill="midnightblue" stroke="midnightblue" points="215.405,-360.652 204.851,-361.589 213.686,-367.438 215.405,-360.652"/>
</g>
<!-- Node12 -->
<g id="node12" class="node"><title>Node12</title>
<g id="a_node12"><a xlink:href="namespacepsi.html#add566862dea77a013c26ba269a9b9f6d" target="_top" xlink:title="psi::iwl_buf_rd_arr2">
<polygon fill="none" stroke="black" points="267.5,-342.5 267.5,-361.5 368.5,-361.5 368.5,-342.5 267.5,-342.5"/>
<text text-anchor="middle" x="318" y="-349.5" font-family="Helvetica,sans-Serif" font-size="10.00">psi::iwl_buf_rd_arr2</text>
</a>
</g>
</g>
<!-- Node2&#45;&gt;Node12 -->
<g id="edge13" class="edge"><title>Node2&#45;&gt;Node12</title>
<path fill="none" stroke="midnightblue" d="M223.161,-352C237.653,-352 253.149,-352 267.287,-352"/>
<polygon fill="midnightblue" stroke="midnightblue" points="222.82,-348.5 212.82,-352 222.82,-355.5 222.82,-348.5"/>
</g>
<!-- Node13 -->
<g id="node13" class="node"><title>Node13</title>
<g id="a_node13"><a xlink:href="group__IWL.html#gac31f5ede2e3c350a3ecf3054f9e64dd0" target="_top" xlink:title="psi::sortbuf">
<polygon fill="none" stroke="black" points="285.5,-304.5 285.5,-323.5 350.5,-323.5 350.5,-304.5 285.5,-304.5"/>
<text text-anchor="middle" x="318" y="-311.5" font-family="Helvetica,sans-Serif" font-size="10.00">psi::sortbuf</text>
</a>
</g>
</g>
<!-- Node2&#45;&gt;Node13 -->
<g id="edge14" class="edge"><title>Node2&#45;&gt;Node13</title>
<path fill="none" stroke="midnightblue" d="M214.778,-339.896C237.802,-334.063 264.786,-327.228 285.246,-322.044"/>
<polygon fill="midnightblue" stroke="midnightblue" points="213.686,-336.562 204.851,-342.411 215.405,-343.348 213.686,-336.562"/>
</g>
<!-- Node4 -->
<g id="node4" class="node"><title>Node4</title>
<g id="a_node4"><a xlink:href="classpsi_1_1fnocc_1_1CoupledCluster.html#ad09cb827149e33397d773458478fe83a" target="_top" xlink:title="mp2">
<polygon fill="none" stroke="black" points="418.5,-285.5 418.5,-304.5 577.5,-304.5 577.5,-285.5 418.5,-285.5"/>
<text text-anchor="middle" x="498" y="-292.5" font-family="Helvetica,sans-Serif" font-size="10.00">psi::fnocc::CoupledCluster::MP2</text>
</a>
</g>
</g>
<!-- Node3&#45;&gt;Node4 -->
<g id="edge3" class="edge"><title>Node3&#45;&gt;Node4</title>
<path fill="none" stroke="midnightblue" d="M370.321,-281.478C385.258,-283.072 401.931,-284.852 418.149,-286.583"/>
<polygon fill="midnightblue" stroke="midnightblue" points="370.599,-277.988 360.284,-280.407 369.856,-284.948 370.599,-277.988"/>
</g>
<!-- Node5 -->
<g id="node5" class="node"><title>Node5</title>
<g id="a_node5"><a xlink:href="group__IWL.html#gaa898acb8e7fafcc7490a76d418ff11b2" target="_top" xlink:title="psi::iwl_rdtwo">
<polygon fill="none" stroke="black" points="459.5,-418.5 459.5,-437.5 536.5,-437.5 536.5,-418.5 459.5,-418.5"/>
<text text-anchor="middle" x="498" y="-425.5" font-family="Helvetica,sans-Serif" font-size="10.00">psi::iwl_rdtwo</text>
</a>
</g>
</g>
<!-- Node3&#45;&gt;Node5 -->
<g id="edge4" class="edge"><title>Node3&#45;&gt;Node5</title>
<path fill="none" stroke="midnightblue" d="M369.714,-288.458C374.015,-290.352 378.177,-292.52 382,-295 434.5,-329.051 476.662,-393.854 491.377,-418.322"/>
<polygon fill="midnightblue" stroke="midnightblue" points="370.739,-285.102 360.15,-284.737 368.201,-291.625 370.739,-285.102"/>
</g>
<!-- Node6 -->
<g id="node6" class="node"><title>Node6</title>
<g id="a_node6"><a xlink:href="group__IWL.html#gaf47bc515c18b41235322d0ad21796d91" target="_top" xlink:title="psi::iwl_wrttwo">
<polygon fill="none" stroke="black" points="457,-247.5 457,-266.5 539,-266.5 539,-247.5 457,-247.5"/>
<text text-anchor="middle" x="498" y="-254.5" font-family="Helvetica,sans-Serif" font-size="10.00">psi::iwl_wrttwo</text>
</a>
</g>
</g>
<!-- Node3&#45;&gt;Node6 -->
<g id="edge5" class="edge"><title>Node3&#45;&gt;Node6</title>
<path fill="none" stroke="midnightblue" d="M370.504,-270.502C397.99,-267.568 431.315,-264.011 456.859,-261.285"/>
<polygon fill="midnightblue" stroke="midnightblue" points="369.856,-267.052 360.284,-271.593 370.599,-274.012 369.856,-267.052"/>
</g>
<!-- Node8&#45;&gt;Node5 -->
<g id="edge8" class="edge"><title>Node8&#45;&gt;Node5</title>
<path fill="none" stroke="midnightblue" d="M363.899,-491.468C370.037,-489.463 376.213,-487.288 382,-485 417.849,-470.825 457.764,-449.778 479.878,-437.62"/>
<polygon fill="midnightblue" stroke="midnightblue" points="362.835,-488.134 354.346,-494.473 364.936,-494.811 362.835,-488.134"/>
</g>
<!-- Node10&#45;&gt;Node5 -->
<g id="edge11" class="edge"><title>Node10&#45;&gt;Node5</title>
<path fill="none" stroke="midnightblue" d="M385.027,-428C410.107,-428 437.801,-428 459.371,-428"/>
<polygon fill="midnightblue" stroke="midnightblue" points="384.832,-424.5 374.832,-428 384.832,-431.5 384.832,-424.5"/>
</g>
<!-- Node15 -->
<g id="node15" class="node"><title>Node15</title>
<g id="a_node15"><a xlink:href="group__DETCAS.html#ga49dc2a89174a68bb1842a80e93925e11" target="_top" xlink:title="psi::detcas::bfgs_hessian">
<polygon fill="none" stroke="black" points="254,-38.5 254,-57.5 382,-57.5 382,-38.5 254,-38.5"/>
<text text-anchor="middle" x="318" y="-45.5" font-family="Helvetica,sans-Serif" font-size="10.00">psi::detcas::bfgs_hessian</text>
</a>
</g>
</g>
<!-- Node14&#45;&gt;Node15 -->
<g id="edge16" class="edge"><title>Node14&#45;&gt;Node15</title>
<path fill="none" stroke="midnightblue" d="M201.745,-91.797C229.287,-81.331 267.122,-66.9538 291.811,-57.5716"/>
<polygon fill="midnightblue" stroke="midnightblue" points="200.211,-88.6355 192.107,-95.4595 202.698,-95.179 200.211,-88.6355"/>
</g>
<!-- Node16 -->
<g id="node16" class="node"><title>Node16</title>
<g id="a_node16"><a xlink:href="group__DETCAS.html#ga6b15594d59b975bfc46689b9bf583ca9" target="_top" xlink:title="psi::detcas::ds_hessian">
<polygon fill="none" stroke="black" points="258,-190.5 258,-209.5 378,-209.5 378,-190.5 258,-190.5"/>
<text text-anchor="middle" x="318" y="-197.5" font-family="Helvetica,sans-Serif" font-size="10.00">psi::detcas::ds_hessian</text>
</a>
</g>
</g>
<!-- Node14&#45;&gt;Node16 -->
<g id="edge17" class="edge"><title>Node14&#45;&gt;Node16</title>
<path fill="none" stroke="midnightblue" d="M182.469,-122.266C198.721,-139.432 225.8,-165.394 254,-181 260.797,-184.762 268.428,-187.865 275.971,-190.395"/>
<polygon fill="midnightblue" stroke="midnightblue" points="184.763,-119.592 175.402,-114.629 179.625,-124.346 184.763,-119.592"/>
</g>
<!-- Node17 -->
<g id="node17" class="node"><title>Node17</title>
<g id="a_node17"><a xlink:href="group__IWL.html#ga3c5b528801e437b9c547b411c6aecb96" target="_top" xlink:title="psi::iwl_rdone">
<polygon fill="none" stroke="black" points="279.5,-152.5 279.5,-171.5 356.5,-171.5 356.5,-152.5 279.5,-152.5"/>
<text text-anchor="middle" x="318" y="-159.5" font-family="Helvetica,sans-Serif" font-size="10.00">psi::iwl_rdone</text>
</a>
</g>
</g>
<!-- Node14&#45;&gt;Node17 -->
<g id="edge18" class="edge"><title>Node14&#45;&gt;Node17</title>
<path fill="none" stroke="midnightblue" d="M201.745,-118.203C229.287,-128.669 267.122,-143.046 291.811,-152.428"/>
<polygon fill="midnightblue" stroke="midnightblue" points="202.698,-114.821 192.107,-114.541 200.211,-121.365 202.698,-114.821"/>
</g>
<!-- Node14&#45;&gt;Node18 -->
<g id="edge19" class="edge"><title>Node14&#45;&gt;Node18</title>
<path fill="none" stroke="midnightblue" d="M186.642,-88.7632C196.186,-80.7916 207.775,-70.9902 218,-62 234.301,-47.6681 235.136,-39.7364 254,-29 260.652,-25.2139 268.138,-22.1081 275.565,-19.586"/>
<polygon fill="midnightblue" stroke="midnightblue" points="184.316,-86.1451 178.867,-95.2311 188.793,-91.5265 184.316,-86.1451"/>
</g>
<!-- Node19 -->
<g id="node19" class="node"><title>Node19</title>
<g id="a_node19"><a xlink:href="group__QT.html#ga4a2d65a1290e904986d93f3436848ab0" target="_top" xlink:title="psi::slaterdetset_read">
<polygon fill="none" stroke="black" points="443,-76.5 443,-95.5 553,-95.5 553,-76.5 443,-76.5"/>
<text text-anchor="middle" x="498" y="-83.5" font-family="Helvetica,sans-Serif" font-size="10.00">psi::slaterdetset_read</text>
</a>
</g>
</g>
<!-- Node14&#45;&gt;Node19 -->
<g id="edge22" class="edge"><title>Node14&#45;&gt;Node19</title>
<path fill="none" stroke="midnightblue" d="M228.56,-101.456C290.192,-97.9071 384.095,-92.5006 442.935,-89.1128"/>
<polygon fill="midnightblue" stroke="midnightblue" points="227.983,-97.983 218.2,-102.052 228.385,-104.971 227.983,-97.983"/>
</g>
<!-- Node21 -->
<g id="node21" class="node"><title>Node21</title>
<g id="a_node21"><a xlink:href="group__QT.html#ga1c0d9992fdf633f70982de16d3021933" target="_top" xlink:title="psi::slaterdetset_read_vect">
<polygon fill="none" stroke="black" points="431,-114.5 431,-133.5 565,-133.5 565,-114.5 431,-114.5"/>
<text text-anchor="middle" x="498" y="-121.5" font-family="Helvetica,sans-Serif" font-size="10.00">psi::slaterdetset_read_vect</text>
</a>
</g>
</g>
<!-- Node14&#45;&gt;Node21 -->
<g id="edge23" class="edge"><title>Node14&#45;&gt;Node21</title>
<path fill="none" stroke="midnightblue" d="M228.252,-108.527C285.823,-111.841 371.75,-116.789 430.861,-120.192"/>
<polygon fill="midnightblue" stroke="midnightblue" points="228.385,-105.029 218.2,-107.948 227.983,-112.017 228.385,-105.029"/>
</g>
<!-- Node18&#45;&gt;Node19 -->
<g id="edge20" class="edge"><title>Node18&#45;&gt;Node19</title>
<path fill="none" stroke="midnightblue" d="M363.899,-22.5317C370.037,-24.5374 376.213,-26.7119 382,-29 417.849,-43.1749 457.764,-64.2223 479.878,-76.3802"/>
<polygon fill="midnightblue" stroke="midnightblue" points="364.936,-19.1888 354.346,-19.5266 362.835,-25.8662 364.936,-19.1888"/>
</g>
<!-- Node20 -->
<g id="node20" class="node"><title>Node20</title>
<g id="a_node20"><a xlink:href="group__QT.html#ga67eca5299660efcf885f7bd743b587f9" target="_top" xlink:title="psi::slaterdetvector_read">
<polygon fill="none" stroke="black" points="614,-95.5 614,-114.5 738,-114.5 738,-95.5 614,-95.5"/>
<text text-anchor="middle" x="676" y="-102.5" font-family="Helvetica,sans-Serif" font-size="10.00">psi::slaterdetvector_read</text>
</a>
</g>
</g>
<!-- Node19&#45;&gt;Node20 -->
<g id="edge21" class="edge"><title>Node19&#45;&gt;Node20</title>
<path fill="none" stroke="midnightblue" d="M563.338,-92.9456C579.838,-94.7268 597.537,-96.6375 613.87,-98.4008"/>
<polygon fill="midnightblue" stroke="midnightblue" points="563.56,-89.4493 553.242,-91.8557 562.808,-96.4088 563.56,-89.4493"/>
</g>
<!-- Node21&#45;&gt;Node20 -->
<g id="edge24" class="edge"><title>Node21&#45;&gt;Node20</title>
<path fill="none" stroke="midnightblue" d="M575.276,-115.766C588.162,-114.375 601.389,-112.947 613.826,-111.604"/>
<polygon fill="midnightblue" stroke="midnightblue" points="574.603,-112.318 565.037,-116.871 575.355,-119.277 574.603,-112.318"/>
</g>
</g>
</svg>
        <g id="navigator" transform="translate(0 0)" fill="#404254">
                <rect fill="#f2f5e9" fill-opacity="0.5" stroke="#606060" stroke-width=".5" x="0" y="0" width="60" height="60"/>
                <use id="zoomplus" xlink:href="#zoomPlus" x="17" y="9" onmousedown="handleZoom(evt,'in')"/>
                <use id="zoomminus" xlink:href="#zoomMin" x="42" y="9" onmousedown="handleZoom(evt,'out')"/>
                <use id="reset" xlink:href="#resetDef" x="30" y="36" onmousedown="handleReset()"/>
                <g id="arrowUp" xlink:href="#dirArrow" transform="translate(30 24)" onmousedown="handlePan(0,-1)">
                  <use xlink:href="#rim" fill="#404040">
                        <set attributeName="fill" to="#808080" begin="arrowUp.mouseover" end="arrowUp.mouseout"/>
                  </use>
                  <path fill="none" stroke="white" stroke-width="1.5" d="M0,-3.0v7 M-2.5,-0.5L0,-3.0L2.5,-0.5"/>
                </g>
                <g id="arrowRight" xlink:href="#dirArrow" transform="rotate(90) translate(36 -43)" onmousedown="handlePan(1,0)">
                  <use xlink:href="#rim" fill="#404040">
                        <set attributeName="fill" to="#808080" begin="arrowRight.mouseover" end="arrowRight.mouseout"/>
                  </use>
                  <path fill="none" stroke="white" stroke-width="1.5" d="M0,-3.0v7 M-2.5,-0.5L0,-3.0L2.5,-0.5"/>
                </g>
                <g id="arrowDown" xlink:href="#dirArrow" transform="rotate(180) translate(-30 -48)" onmousedown="handlePan(0,1)">
                  <use xlink:href="#rim" fill="#404040">
                        <set attributeName="fill" to="#808080" begin="arrowDown.mouseover" end="arrowDown.mouseout"/>
                  </use>
                  <path fill="none" stroke="white" stroke-width="1.5" d="M0,-3.0v7 M-2.5,-0.5L0,-3.0L2.5,-0.5"/>
                </g>
                <g id="arrowLeft" xlink:href="#dirArrow" transform="rotate(270) translate(-36 17)" onmousedown="handlePan(-1,0)">
                  <use xlink:href="#rim" fill="#404040">
                        <set attributeName="fill" to="#808080" begin="arrowLeft.mouseover" end="arrowLeft.mouseout"/>
                  </use>
                  <path fill="none" stroke="white" stroke-width="1.5" d="M0,-3.0v7 M-2.5,-0.5L0,-3.0L2.5,-0.5"/>
                </g>
        </g>
        <svg viewBox="0 0 15 15" width="100%" height="30px" preserveAspectRatio="xMaxYMin meet">
         <g id="arrow_out" transform="scale(0.3 0.3)">
          <a xlink:href="group__PSIO_ga7fb52625f96f6373eca3de9dcdf9487f_icgraph_org.svg" target="_base">
           <rect id="button" ry="5" rx="5" y="6" x="6" height="38" width="38"
                fill="#f2f5e9" fill-opacity="0.5" stroke="#606060" stroke-width="1.0"/>
           <path id="arrow"
             d="M 11.500037,31.436501 C 11.940474,20.09759 22.043105,11.32322 32.158766,21.979434 L 37.068811,17.246167 C 37.068811,17.246167 37.088388,32 37.088388,32 L 22.160133,31.978069 C 22.160133,31.978069 26.997745,27.140456 26.997745,27.140456 C 18.528582,18.264221 13.291696,25.230495 11.500037,31.436501 z"
             style="fill:#404040;"/>
          </a>
         </g>
        </svg>
</svg>
