<?xml version="1.0" encoding="UTF-8" standalone="no"?>
<!DOCTYPE svg PUBLIC "-//W3C//DTD SVG 1.1//EN"
 "http://www.w3.org/Graphics/SVG/1.1/DTD/svg11.dtd">
<!-- Generated by graphviz version 2.30.1 (20140110.0959)
 -->
<!-- Title: psi::C_DGETRF Pages: 1 -->
<svg width="246pt" height="172pt"
 viewBox="0.00 0.00 246.00 172.00" xmlns="http://www.w3.org/2000/svg" xmlns:xlink="http://www.w3.org/1999/xlink">
<g id="graph0" class="graph" transform="scale(1 1) rotate(0) translate(4 168)">
<title>psi::C_DGETRF</title>
<!-- Node1 -->
<g id="node1" class="node"><title>Node1</title>
<polygon fill="#bfbfbf" stroke="black" points="0.5,-78.5 0.5,-97.5 89.5,-97.5 89.5,-78.5 0.5,-78.5"/>
<text text-anchor="middle" x="45" y="-85.5" font-family="Helvetica,sans-Serif" font-size="10.00">psi::C_DGETRF</text>
</g>
<!-- Node2 -->
<g id="node2" class="node"><title>Node2</title>
<g id="a_node2"><a xlink:href="namespacepsi.html#a7fe743339b4c555d69aa96c0bdea7474" target="_top" xlink:title="psi::benchmark_blas3">
<polygon fill="none" stroke="black" points="126,-144.5 126,-163.5 238,-163.5 238,-144.5 126,-144.5"/>
<text text-anchor="middle" x="182" y="-151.5" font-family="Helvetica,sans-Serif" font-size="10.00">psi::benchmark_blas3</text>
</a>
</g>
</g>
<!-- Node1&#45;&gt;Node2 -->
<g id="edge1" class="edge"><title>Node1&#45;&gt;Node2</title>
<path fill="none" stroke="midnightblue" d="M69.4317,-102.913C85.0812,-112.509 106.327,-124.851 126,-134 134.199,-137.813 143.345,-141.392 151.788,-144.439"/>
<polygon fill="midnightblue" stroke="midnightblue" points="71.2598,-99.928 60.9183,-97.6246 67.5662,-105.874 71.2598,-99.928"/>
</g>
<!-- Node3 -->
<g id="node3" class="node"><title>Node3</title>
<g id="a_node3"><a xlink:href="classpsi_1_1Matrix.html#aea2c06dc15f334f26c5a028c45cd59ab" target="_top" xlink:title="psi::Matrix::general\l_invert">
<polygon fill="none" stroke="black" points="132,-95 132,-125 232,-125 232,-95 132,-95"/>
<text text-anchor="start" x="140" y="-113" font-family="Helvetica,sans-Serif" font-size="10.00">psi::Matrix::general</text>
<text text-anchor="middle" x="182" y="-102" font-family="Helvetica,sans-Serif" font-size="10.00">_invert</text>
</a>
</g>
</g>
<!-- Node1&#45;&gt;Node3 -->
<g id="edge2" class="edge"><title>Node1&#45;&gt;Node3</title>
<path fill="none" stroke="midnightblue" d="M99.7788,-96.764C110.342,-98.4853 121.373,-100.283 131.777,-101.978"/>
<polygon fill="midnightblue" stroke="midnightblue" points="100.263,-93.2968 89.8306,-95.1428 99.1375,-100.206 100.263,-93.2968"/>
</g>
<!-- Node4 -->
<g id="node4" class="node"><title>Node4</title>
<g id="a_node4"><a xlink:href="classpsi_1_1Matrix.html#a6bb79187817468bb2fc22feca7e973ca" target="_top" xlink:title="psi::Matrix::expm">
<polygon fill="none" stroke="black" points="136,-56.5 136,-75.5 228,-75.5 228,-56.5 136,-56.5"/>
<text text-anchor="middle" x="182" y="-63.5" font-family="Helvetica,sans-Serif" font-size="10.00">psi::Matrix::expm</text>
</a>
</g>
</g>
<!-- Node1&#45;&gt;Node4 -->
<g id="edge3" class="edge"><title>Node1&#45;&gt;Node4</title>
<path fill="none" stroke="midnightblue" d="M99.9966,-79.2005C111.776,-77.281 124.127,-75.2682 135.535,-73.4091"/>
<polygon fill="midnightblue" stroke="midnightblue" points="99.1375,-75.7943 89.8306,-80.8572 100.263,-82.7032 99.1375,-75.7943"/>
</g>
<!-- Node5 -->
<g id="node5" class="node"><title>Node5</title>
<g id="a_node5"><a xlink:href="namespacepsi.html#aed34ec6d85ff4cdcec6233dbd511bd85" target="_top" xlink:title="PSI_DGETRF, a wrapper to return C_DGETRF using objects.">
<polygon fill="none" stroke="black" points="133,-0.5 133,-19.5 231,-19.5 231,-0.5 133,-0.5"/>
<text text-anchor="middle" x="182" y="-7.5" font-family="Helvetica,sans-Serif" font-size="10.00">psi::PSI_DGETRF</text>
</a>
</g>
</g>
<!-- Node1&#45;&gt;Node5 -->
<g id="edge4" class="edge"><title>Node1&#45;&gt;Node5</title>
<path fill="none" stroke="midnightblue" d="M71.4947,-73.2697C98.7144,-57.5428 141.059,-33.0769 164.311,-19.6426"/>
<polygon fill="midnightblue" stroke="midnightblue" points="69.4613,-70.4023 62.5536,-78.4357 72.9633,-76.4634 69.4613,-70.4023"/>
</g>
<!-- Node5&#45;&gt;Node5 -->
<g id="edge5" class="edge"><title>Node5&#45;&gt;Node5</title>
<path fill="none" stroke="midnightblue" d="M156.702,-29.0292C158.082,-34.128 166.515,-38 182,-38 206.172,-38 213.159,-28.5653 202.962,-19.7571"/>
<polygon fill="midnightblue" stroke="midnightblue" points="159.973,-30.2982 161.038,-19.7571 153.632,-27.3329 159.973,-30.2982"/>
</g>
</g>
</svg>
