<?xml version="1.0" encoding="UTF-8" standalone="no"?>
<!DOCTYPE svg PUBLIC "-//W3C//DTD SVG 1.1//EN"
 "http://www.w3.org/Graphics/SVG/1.1/DTD/svg11.dtd">
<!-- Generated by graphviz version 2.30.1 (20140110.0959)
 -->
<!-- Title: psi::psio_write_entry Pages: 1 -->
<svg width="590pt" height="218pt"
 viewBox="0.00 0.00 590.00 218.00" xmlns="http://www.w3.org/2000/svg" xmlns:xlink="http://www.w3.org/1999/xlink">
<g id="graph0" class="graph" transform="scale(1 1) rotate(0) translate(4 214)">
<title>psi::psio_write_entry</title>
<!-- Node1 -->
<g id="node1" class="node"><title>Node1</title>
<polygon fill="#bfbfbf" stroke="black" points="0.5,-95.5 0.5,-114.5 107.5,-114.5 107.5,-95.5 0.5,-95.5"/>
<text text-anchor="middle" x="54" y="-102.5" font-family="Helvetica,sans-Serif" font-size="10.00">psi::psio_write_entry</text>
</g>
<!-- Node2 -->
<g id="node2" class="node"><title>Node2</title>
<g id="a_node2"><a xlink:href="group__DETCAS.html#ga49dc2a89174a68bb1842a80e93925e11" target="_top" xlink:title="psi::detcas::bfgs_hessian">
<polygon fill="none" stroke="black" points="144,-190.5 144,-209.5 272,-209.5 272,-190.5 144,-190.5"/>
<text text-anchor="middle" x="208" y="-197.5" font-family="Helvetica,sans-Serif" font-size="10.00">psi::detcas::bfgs_hessian</text>
</a>
</g>
</g>
<!-- Node1&#45;&gt;Node2 -->
<g id="edge1" class="edge"><title>Node1&#45;&gt;Node2</title>
<path fill="none" stroke="midnightblue" d="M70.9034,-122.248C87.5924,-139.4 115.342,-165.35 144,-181 150.918,-184.778 158.684,-187.9 166.338,-190.445"/>
<polygon fill="midnightblue" stroke="midnightblue" points="73.0727,-119.45 63.6437,-114.618 68.0015,-124.276 73.0727,-119.45"/>
</g>
<!-- Node3 -->
<g id="node3" class="node"><title>Node3</title>
<g id="a_node3"><a xlink:href="group__DETCAS.html#ga6b15594d59b975bfc46689b9bf583ca9" target="_top" xlink:title="psi::detcas::ds_hessian">
<polygon fill="none" stroke="black" points="148,-152.5 148,-171.5 268,-171.5 268,-152.5 148,-152.5"/>
<text text-anchor="middle" x="208" y="-159.5" font-family="Helvetica,sans-Serif" font-size="10.00">psi::detcas::ds_hessian</text>
</a>
</g>
</g>
<!-- Node1&#45;&gt;Node3 -->
<g id="edge2" class="edge"><title>Node1&#45;&gt;Node3</title>
<path fill="none" stroke="midnightblue" d="M85.0569,-118.816C102.152,-126.425 124.066,-135.764 144,-143 153.235,-146.352 163.375,-149.597 172.77,-152.427"/>
<polygon fill="midnightblue" stroke="midnightblue" points="86.1558,-115.473 75.5999,-114.565 83.2859,-121.857 86.1558,-115.473"/>
</g>
<!-- Node4 -->
<g id="node4" class="node"><title>Node4</title>
<g id="a_node4"><a xlink:href="group__QT.html#gaf365a9600d2d5b4a83eb37faa58b1d34" target="_top" xlink:title="psi::stringset_write">
<polygon fill="none" stroke="black" points="158.5,-114.5 158.5,-133.5 257.5,-133.5 257.5,-114.5 158.5,-114.5"/>
<text text-anchor="middle" x="208" y="-121.5" font-family="Helvetica,sans-Serif" font-size="10.00">psi::stringset_write</text>
</a>
</g>
</g>
<!-- Node1&#45;&gt;Node4 -->
<g id="edge3" class="edge"><title>Node1&#45;&gt;Node4</title>
<path fill="none" stroke="midnightblue" d="M117.938,-112.867C131.463,-114.558 145.556,-116.32 158.436,-117.93"/>
<polygon fill="midnightblue" stroke="midnightblue" points="118.093,-109.359 107.736,-111.592 117.224,-116.305 118.093,-109.359"/>
</g>
<!-- Node5 -->
<g id="node5" class="node"><title>Node5</title>
<g id="a_node5"><a xlink:href="group__QT.html#ga7821e5bc1ee8563d8284274163c9eb9e" target="_top" xlink:title="psi::slaterdetset_write">
<polygon fill="none" stroke="black" points="320.5,-76.5 320.5,-95.5 433.5,-95.5 433.5,-76.5 320.5,-76.5"/>
<text text-anchor="middle" x="377" y="-83.5" font-family="Helvetica,sans-Serif" font-size="10.00">psi::slaterdetset_write</text>
</a>
</g>
</g>
<!-- Node1&#45;&gt;Node5 -->
<g id="edge6" class="edge"><title>Node1&#45;&gt;Node5</title>
<path fill="none" stroke="midnightblue" d="M117.937,-101.275C176.827,-97.7891 263.955,-92.6319 320.359,-89.2934"/>
<polygon fill="midnightblue" stroke="midnightblue" points="117.423,-97.799 107.647,-101.884 117.837,-104.787 117.423,-97.799"/>
</g>
<!-- Node7 -->
<g id="node7" class="node"><title>Node7</title>
<g id="a_node7"><a xlink:href="group__QT.html#gab353180af2fc2bcd3e513d37a3425fbd" target="_top" xlink:title="psi::slaterdetset_write_vect">
<polygon fill="none" stroke="black" points="308.5,-38.5 308.5,-57.5 445.5,-57.5 445.5,-38.5 308.5,-38.5"/>
<text text-anchor="middle" x="377" y="-45.5" font-family="Helvetica,sans-Serif" font-size="10.00">psi::slaterdetset_write_vect</text>
</a>
</g>
</g>
<!-- Node1&#45;&gt;Node7 -->
<g id="edge7" class="edge"><title>Node1&#45;&gt;Node7</title>
<path fill="none" stroke="midnightblue" d="M113.857,-93.6029C123.908,-91.7009 134.249,-89.7717 144,-88 203.516,-77.1861 271.758,-65.5066 318.744,-57.5767"/>
<polygon fill="midnightblue" stroke="midnightblue" points="113.105,-90.1829 103.935,-95.4889 114.413,-97.0598 113.105,-90.1829"/>
</g>
<!-- Node8 -->
<g id="node8" class="node"><title>Node8</title>
<g id="a_node8"><a xlink:href="group__IWL.html#gabe5a0cef49daf49b3df5d3cc2d1a3a3d" target="_top" xlink:title="psi::iwl_wrtone">
<polygon fill="none" stroke="black" points="167,-0.5 167,-19.5 249,-19.5 249,-0.5 167,-0.5"/>
<text text-anchor="middle" x="208" y="-7.5" font-family="Helvetica,sans-Serif" font-size="10.00">psi::iwl_wrtone</text>
</a>
</g>
</g>
<!-- Node1&#45;&gt;Node8 -->
<g id="edge9" class="edge"><title>Node1&#45;&gt;Node8</title>
<path fill="none" stroke="midnightblue" d="M72.4572,-88.3393C89.5885,-72.6809 117.004,-49.4096 144,-34 154.063,-28.2559 165.765,-23.3652 176.333,-19.527"/>
<polygon fill="midnightblue" stroke="midnightblue" points="69.8607,-85.9744 64.9203,-95.3469 74.6272,-91.1009 69.8607,-85.9744"/>
</g>
<!-- Node4&#45;&gt;Node5 -->
<g id="edge4" class="edge"><title>Node4&#45;&gt;Node5</title>
<path fill="none" stroke="midnightblue" d="M260.965,-112.176C284.509,-106.818 311.974,-100.569 334.162,-95.5201"/>
<polygon fill="midnightblue" stroke="midnightblue" points="260.115,-108.779 251.141,-114.411 261.668,-115.605 260.115,-108.779"/>
</g>
<!-- Node6 -->
<g id="node6" class="node"><title>Node6</title>
<g id="a_node6"><a xlink:href="group__QT.html#gac46021bca516a5b4b429384151036ed8" target="_top" xlink:title="psi::slaterdetvector\l_write">
<polygon fill="none" stroke="black" points="482,-52 482,-82 582,-82 582,-52 482,-52"/>
<text text-anchor="start" x="490" y="-70" font-family="Helvetica,sans-Serif" font-size="10.00">psi::slaterdetvector</text>
<text text-anchor="middle" x="532" y="-59" font-family="Helvetica,sans-Serif" font-size="10.00">_write</text>
</a>
</g>
</g>
<!-- Node5&#45;&gt;Node6 -->
<g id="edge5" class="edge"><title>Node5&#45;&gt;Node6</title>
<path fill="none" stroke="midnightblue" d="M443.76,-77.8337C456.485,-76.2535 469.614,-74.6231 481.702,-73.122"/>
<polygon fill="midnightblue" stroke="midnightblue" points="443.162,-74.381 433.669,-79.0868 444.024,-81.3277 443.162,-74.381"/>
</g>
<!-- Node7&#45;&gt;Node6 -->
<g id="edge8" class="edge"><title>Node7&#45;&gt;Node6</title>
<path fill="none" stroke="midnightblue" d="M455.578,-57.6339C464.472,-58.7384 473.347,-59.8405 481.721,-60.8804"/>
<polygon fill="midnightblue" stroke="midnightblue" points="455.909,-54.1481 445.553,-56.389 455.046,-61.0948 455.909,-54.1481"/>
</g>
</g>
</svg>
