<?xml version="1.0" encoding="UTF-8" standalone="no"?>
<!DOCTYPE svg PUBLIC "-//W3C//DTD SVG 1.1//EN"
 "http://www.w3.org/Graphics/SVG/1.1/DTD/svg11.dtd">
<!-- Generated by graphviz version 2.30.1 (20140110.0959)
 -->
<!-- Title: psi::init_array Pages: 1 -->
<svg width="582pt" height="1412pt"
 viewBox="0.00 0.00 582.00 1412.00" xmlns="http://www.w3.org/2000/svg" xmlns:xlink="http://www.w3.org/1999/xlink">
<g id="graph0" class="graph" transform="scale(1 1) rotate(0) translate(4 1408)">
<title>psi::init_array</title>
<!-- Node1 -->
<g id="node1" class="node"><title>Node1</title>
<polygon fill="#bfbfbf" stroke="black" points="0.5,-692.5 0.5,-711.5 75.5,-711.5 75.5,-692.5 0.5,-692.5"/>
<text text-anchor="middle" x="38" y="-699.5" font-family="Helvetica,sans-Serif" font-size="10.00">psi::init_array</text>
</g>
<!-- Node2 -->
<g id="node2" class="node"><title>Node2</title>
<g id="a_node2"><a xlink:href="namespacepsi.html#ae94898dbde057458f7f55480abd1ef90" target="_top" xlink:title="psi::benchmark_blas1">
<polygon fill="none" stroke="black" points="130,-1384.5 130,-1403.5 242,-1403.5 242,-1384.5 130,-1384.5"/>
<text text-anchor="middle" x="186" y="-1391.5" font-family="Helvetica,sans-Serif" font-size="10.00">psi::benchmark_blas1</text>
</a>
</g>
</g>
<!-- Node1&#45;&gt;Node2 -->
<g id="edge1" class="edge"><title>Node1&#45;&gt;Node2</title>
<path fill="none" stroke="midnightblue" d="M39.8313,-721.959C44.4294,-828.181 68.143,-1324.19 112,-1375 116.792,-1380.55 122.981,-1384.58 129.726,-1387.49"/>
<polygon fill="midnightblue" stroke="midnightblue" points="43.3168,-721.542 39.3947,-711.7 36.3232,-721.84 43.3168,-721.542"/>
</g>
<!-- Node3 -->
<g id="node3" class="node"><title>Node3</title>
<g id="a_node3"><a xlink:href="namespacepsi.html#a4f4e9e11a4a771b54e65f2223ceba66b" target="_top" xlink:title="psi::benchmark_blas2">
<polygon fill="none" stroke="black" points="130,-1346.5 130,-1365.5 242,-1365.5 242,-1346.5 130,-1346.5"/>
<text text-anchor="middle" x="186" y="-1353.5" font-family="Helvetica,sans-Serif" font-size="10.00">psi::benchmark_blas2</text>
</a>
</g>
</g>
<!-- Node1&#45;&gt;Node3 -->
<g id="edge2" class="edge"><title>Node1&#45;&gt;Node3</title>
<path fill="none" stroke="midnightblue" d="M39.9586,-721.784C45.0826,-823.995 70.5659,-1289.31 112,-1337 116.81,-1342.54 123.009,-1346.56 129.758,-1349.47"/>
<polygon fill="midnightblue" stroke="midnightblue" points="43.4462,-721.445 39.4571,-711.63 36.4547,-721.79 43.4462,-721.445"/>
</g>
<!-- Node4 -->
<g id="node4" class="node"><title>Node4</title>
<g id="a_node4"><a xlink:href="namespacepsi.html#a7fe743339b4c555d69aa96c0bdea7474" target="_top" xlink:title="psi::benchmark_blas3">
<polygon fill="none" stroke="black" points="130,-1308.5 130,-1327.5 242,-1327.5 242,-1308.5 130,-1308.5"/>
<text text-anchor="middle" x="186" y="-1315.5" font-family="Helvetica,sans-Serif" font-size="10.00">psi::benchmark_blas3</text>
</a>
</g>
</g>
<!-- Node1&#45;&gt;Node4 -->
<g id="edge3" class="edge"><title>Node1&#45;&gt;Node4</title>
<path fill="none" stroke="midnightblue" d="M38.5569,-721.802C36.8803,-815.156 34.513,-1210.46 112,-1299 116.83,-1304.52 123.04,-1308.53 129.795,-1311.43"/>
<polygon fill="midnightblue" stroke="midnightblue" points="42.0616,-721.597 38.7619,-711.529 35.063,-721.457 42.0616,-721.597"/>
</g>
<!-- Node5 -->
<g id="node5" class="node"><title>Node5</title>
<g id="a_node5"><a xlink:href="namespacepsi.html#ad2d2b10d46e85d8d8389d849b2c24607" target="_top" xlink:title="psi::benchmark_disk">
<polygon fill="none" stroke="black" points="132.5,-1270.5 132.5,-1289.5 239.5,-1289.5 239.5,-1270.5 132.5,-1270.5"/>
<text text-anchor="middle" x="186" y="-1277.5" font-family="Helvetica,sans-Serif" font-size="10.00">psi::benchmark_disk</text>
</a>
</g>
</g>
<!-- Node1&#45;&gt;Node5 -->
<g id="edge4" class="edge"><title>Node1&#45;&gt;Node5</title>
<path fill="none" stroke="midnightblue" d="M38.7686,-721.9C38.1354,-811.589 40.0603,-1177.43 112,-1260 117.438,-1266.24 124.621,-1270.62 132.36,-1273.68"/>
<polygon fill="midnightblue" stroke="midnightblue" points="42.2698,-721.777 38.861,-711.745 35.2701,-721.713 42.2698,-721.777"/>
</g>
<!-- Node6 -->
<g id="node6" class="node"><title>Node6</title>
<g id="a_node6"><a xlink:href="classpsi_1_1adc_1_1ADC.html#a6ea74772a80dcf1f9db7986deef6498c" target="_top" xlink:title="Compute energy. Subclasses override this function to compute its energy.">
<polygon fill="none" stroke="black" points="125,-1221 125,-1251 247,-1251 247,-1221 125,-1221"/>
<text text-anchor="start" x="133" y="-1239" font-family="Helvetica,sans-Serif" font-size="10.00">psi::adc::ADC::compute</text>
<text text-anchor="middle" x="186" y="-1228" font-family="Helvetica,sans-Serif" font-size="10.00">_energy</text>
</a>
</g>
</g>
<!-- Node1&#45;&gt;Node6 -->
<g id="edge5" class="edge"><title>Node1&#45;&gt;Node6</title>
<path fill="none" stroke="midnightblue" d="M39.1684,-721.9C40.2746,-806.381 48.6465,-1134.5 112,-1211 115.589,-1215.33 119.965,-1218.92 124.773,-1221.88"/>
<polygon fill="midnightblue" stroke="midnightblue" points="42.6655,-721.609 39.0556,-711.648 35.6659,-721.686 42.6655,-721.609"/>
</g>
<!-- Node7 -->
<g id="node7" class="node"><title>Node7</title>
<g id="a_node7"><a xlink:href="group__QT.html#gaf4c6345ae60fb29588e8d1064f8f53d1" target="_top" xlink:title="psi::david">
<polygon fill="none" stroke="black" points="332.5,-1159.5 332.5,-1178.5 391.5,-1178.5 391.5,-1159.5 332.5,-1159.5"/>
<text text-anchor="middle" x="362" y="-1166.5" font-family="Helvetica,sans-Serif" font-size="10.00">psi::david</text>
</a>
</g>
</g>
<!-- Node1&#45;&gt;Node7 -->
<g id="edge6" class="edge"><title>Node1&#45;&gt;Node7</title>
<path fill="none" stroke="midnightblue" d="M39.4023,-721.953C41.3811,-798.741 52.5735,-1073.79 112,-1132 142.752,-1162.12 273.627,-1167.8 332.319,-1168.81"/>
<polygon fill="midnightblue" stroke="midnightblue" points="42.8967,-721.666 39.1651,-711.751 35.8986,-721.829 42.8967,-721.666"/>
</g>
<!-- Node8 -->
<g id="node8" class="node"><title>Node8</title>
<g id="a_node8"><a xlink:href="classpsi_1_1dcft_1_1DCFTSolver.html#a99ead8eddf76cf7bb580782e57c170b3" target="_top" xlink:title="psi::dcft::DCFTSolver\l::scf_guess">
<polygon fill="none" stroke="black" points="129.5,-943 129.5,-973 242.5,-973 242.5,-943 129.5,-943"/>
<text text-anchor="start" x="137.5" y="-961" font-family="Helvetica,sans-Serif" font-size="10.00">psi::dcft::DCFTSolver</text>
<text text-anchor="middle" x="186" y="-950" font-family="Helvetica,sans-Serif" font-size="10.00">::scf_guess</text>
</a>
</g>
</g>
<!-- Node1&#45;&gt;Node8 -->
<g id="edge7" class="edge"><title>Node1&#45;&gt;Node8</title>
<path fill="none" stroke="midnightblue" d="M39.5277,-721.935C41.7774,-766.081 53.3441,-872.928 112,-933 116.96,-938.08 122.995,-942.128 129.448,-945.354"/>
<polygon fill="midnightblue" stroke="midnightblue" points="43.0234,-721.756 39.127,-711.903 36.029,-722.035 43.0234,-721.756"/>
</g>
<!-- Node9 -->
<g id="node9" class="node"><title>Node9</title>
<g id="a_node9"><a xlink:href="classpsi_1_1dcft_1_1DCFTSolver.html#aa7f484633a16d0dc7d2195322f4cfa1a" target="_top" xlink:title="psi::dcft::DCFTSolver\l::process_so_ints">
<polygon fill="none" stroke="black" points="129.5,-894 129.5,-924 242.5,-924 242.5,-894 129.5,-894"/>
<text text-anchor="start" x="137.5" y="-912" font-family="Helvetica,sans-Serif" font-size="10.00">psi::dcft::DCFTSolver</text>
<text text-anchor="middle" x="186" y="-901" font-family="Helvetica,sans-Serif" font-size="10.00">::process_so_ints</text>
</a>
</g>
</g>
<!-- Node1&#45;&gt;Node9 -->
<g id="edge8" class="edge"><title>Node1&#45;&gt;Node9</title>
<path fill="none" stroke="midnightblue" d="M41.5086,-721.925C47.2175,-759.014 64.5744,-838.956 112,-884 117.051,-888.797 123.062,-892.677 129.434,-895.814"/>
<polygon fill="midnightblue" stroke="midnightblue" points="44.9536,-721.289 40.0904,-711.876 38.0223,-722.267 44.9536,-721.289"/>
</g>
<!-- Node10 -->
<g id="node10" class="node"><title>Node10</title>
<g id="a_node10"><a xlink:href="classpsi_1_1dcft_1_1DCFTSolver.html#adeff6829f457fcaf9ece52b5c65ea3f5" target="_top" xlink:title="psi::dcft::DCFTSolver\l::build_G">
<polygon fill="none" stroke="black" points="129.5,-845 129.5,-875 242.5,-875 242.5,-845 129.5,-845"/>
<text text-anchor="start" x="137.5" y="-863" font-family="Helvetica,sans-Serif" font-size="10.00">psi::dcft::DCFTSolver</text>
<text text-anchor="middle" x="186" y="-852" font-family="Helvetica,sans-Serif" font-size="10.00">::build_G</text>
</a>
</g>
</g>
<!-- Node1&#45;&gt;Node10 -->
<g id="edge9" class="edge"><title>Node1&#45;&gt;Node10</title>
<path fill="none" stroke="midnightblue" d="M44.6112,-721.284C53.9478,-750.069 75.3606,-804.178 112,-835 117.126,-839.312 123.034,-842.893 129.223,-845.865"/>
<polygon fill="midnightblue" stroke="midnightblue" points="47.9133,-720.115 41.6176,-711.594 41.2251,-722.181 47.9133,-720.115"/>
</g>
<!-- Node11 -->
<g id="node11" class="node"><title>Node11</title>
<g id="a_node11"><a xlink:href="group__DETCAS.html#ga32b5155937984a1497bbadb7360614d7" target="_top" xlink:title="psi::detcas::calc_gradient">
<polygon fill="none" stroke="black" points="122,-806.5 122,-825.5 250,-825.5 250,-806.5 122,-806.5"/>
<text text-anchor="middle" x="186" y="-813.5" font-family="Helvetica,sans-Serif" font-size="10.00">psi::detcas::calc_gradient</text>
</a>
</g>
</g>
<!-- Node1&#45;&gt;Node11 -->
<g id="edge10" class="edge"><title>Node1&#45;&gt;Node11</title>
<path fill="none" stroke="midnightblue" d="M48.3879,-720.692C60.2413,-742.36 82.678,-777.574 112,-797 117.895,-800.906 124.552,-804.009 131.386,-806.475"/>
<polygon fill="midnightblue" stroke="midnightblue" points="51.4579,-719.011 43.6997,-711.796 45.2651,-722.274 51.4579,-719.011"/>
</g>
<!-- Node12 -->
<g id="node12" class="node"><title>Node12</title>
<g id="a_node12"><a xlink:href="group__DETCAS.html#ga49dc2a89174a68bb1842a80e93925e11" target="_top" xlink:title="psi::detcas::bfgs_hessian">
<polygon fill="none" stroke="black" points="298,-730.5 298,-749.5 426,-749.5 426,-730.5 298,-730.5"/>
<text text-anchor="middle" x="362" y="-737.5" font-family="Helvetica,sans-Serif" font-size="10.00">psi::detcas::bfgs_hessian</text>
</a>
</g>
</g>
<!-- Node1&#45;&gt;Node12 -->
<g id="edge11" class="edge"><title>Node1&#45;&gt;Node12</title>
<path fill="none" stroke="midnightblue" d="M80.6082,-714.197C90.7998,-716.804 101.731,-719.286 112,-721 174.755,-731.475 247.385,-736.184 297.948,-738.296"/>
<polygon fill="midnightblue" stroke="midnightblue" points="81.2782,-710.753 70.715,-711.571 79.4826,-717.519 81.2782,-710.753"/>
</g>
<!-- Node13 -->
<g id="node13" class="node"><title>Node13</title>
<g id="a_node13"><a xlink:href="group__DETCAS.html#ga6b15594d59b975bfc46689b9bf583ca9" target="_top" xlink:title="psi::detcas::ds_hessian">
<polygon fill="none" stroke="black" points="302,-673.5 302,-692.5 422,-692.5 422,-673.5 302,-673.5"/>
<text text-anchor="middle" x="362" y="-680.5" font-family="Helvetica,sans-Serif" font-size="10.00">psi::detcas::ds_hessian</text>
</a>
</g>
</g>
<!-- Node1&#45;&gt;Node13 -->
<g id="edge12" class="edge"><title>Node1&#45;&gt;Node13</title>
<path fill="none" stroke="midnightblue" d="M78.4688,-689.772C89.2361,-686.975 100.975,-684.411 112,-683 176.533,-674.739 251.248,-676.191 301.869,-678.791"/>
<polygon fill="midnightblue" stroke="midnightblue" points="77.2227,-686.485 68.4983,-692.496 79.0671,-693.237 77.2227,-686.485"/>
</g>
<!-- Node14 -->
<g id="node14" class="node"><title>Node14</title>
<g id="a_node14"><a xlink:href="group__DETCAS.html#ga2d0fd998c6a4881c119055da973cf5ed" target="_top" xlink:title="psi::detcas::calc_hessian">
<polygon fill="none" stroke="black" points="122,-692.5 122,-711.5 250,-711.5 250,-692.5 122,-692.5"/>
<text text-anchor="middle" x="186" y="-699.5" font-family="Helvetica,sans-Serif" font-size="10.00">psi::detcas::calc_hessian</text>
</a>
</g>
</g>
<!-- Node1&#45;&gt;Node14 -->
<g id="edge13" class="edge"><title>Node1&#45;&gt;Node14</title>
<path fill="none" stroke="midnightblue" d="M85.992,-702C97.3833,-702 109.747,-702 121.752,-702"/>
<polygon fill="midnightblue" stroke="midnightblue" points="85.842,-698.5 75.842,-702 85.8419,-705.5 85.842,-698.5"/>
</g>
<!-- Node15 -->
<g id="node15" class="node"><title>Node15</title>
<g id="a_node15"><a xlink:href="group__DETCAS.html#ga4d1d5d2ab4588d0f3e9fa3faf47499ff" target="_top" xlink:title="psi::detcas::scale\l_gradient">
<polygon fill="none" stroke="black" points="139,-605 139,-635 233,-635 233,-605 139,-605"/>
<text text-anchor="start" x="147" y="-623" font-family="Helvetica,sans-Serif" font-size="10.00">psi::detcas::scale</text>
<text text-anchor="middle" x="186" y="-612" font-family="Helvetica,sans-Serif" font-size="10.00">_gradient</text>
</a>
</g>
</g>
<!-- Node1&#45;&gt;Node15 -->
<g id="edge16" class="edge"><title>Node1&#45;&gt;Node15</title>
<path fill="none" stroke="midnightblue" d="M58.9029,-685.923C73.1351,-674.911 93.0481,-660.463 112,-650 121.956,-644.503 133.13,-639.417 143.685,-635.054"/>
<polygon fill="midnightblue" stroke="midnightblue" points="56.531,-683.336 50.8349,-692.27 60.8587,-688.838 56.531,-683.336"/>
</g>
<!-- Node16 -->
<g id="node16" class="node"><title>Node16</title>
<g id="a_node16"><a xlink:href="group__DETCAS.html#gabbbc259c11ea4304d1109d9f9726f5f1" target="_top" xlink:title="psi::detcas::rotate_orbs">
<polygon fill="none" stroke="black" points="126.5,-566.5 126.5,-585.5 245.5,-585.5 245.5,-566.5 126.5,-566.5"/>
<text text-anchor="middle" x="186" y="-573.5" font-family="Helvetica,sans-Serif" font-size="10.00">psi::detcas::rotate_orbs</text>
</a>
</g>
</g>
<!-- Node1&#45;&gt;Node16 -->
<g id="edge17" class="edge"><title>Node1&#45;&gt;Node16</title>
<path fill="none" stroke="midnightblue" d="M47.0393,-683.001C58.1366,-659.086 80.4205,-618.429 112,-596 118.107,-591.663 125.113,-588.266 132.316,-585.605"/>
<polygon fill="midnightblue" stroke="midnightblue" points="43.7226,-681.845 42.8537,-692.404 50.1177,-684.692 43.7226,-681.845"/>
</g>
<!-- Node17 -->
<g id="node17" class="node"><title>Node17</title>
<g id="a_node17"><a xlink:href="classpsi_1_1DIISManager.html#ad3e194725156df78c8daa37c5727f8e7" target="_top" xlink:title="psi::DIISManager::extrapolate">
<polygon fill="none" stroke="black" points="112.5,-528.5 112.5,-547.5 259.5,-547.5 259.5,-528.5 112.5,-528.5"/>
<text text-anchor="middle" x="186" y="-535.5" font-family="Helvetica,sans-Serif" font-size="10.00">psi::DIISManager::extrapolate</text>
</a>
</g>
</g>
<!-- Node1&#45;&gt;Node17 -->
<g id="edge18" class="edge"><title>Node1&#45;&gt;Node17</title>
<path fill="none" stroke="midnightblue" d="M43.3496,-682.373C51.3432,-651.009 71.4043,-589.795 112,-557 116.788,-553.132 122.278,-550.044 128.052,-547.58"/>
<polygon fill="midnightblue" stroke="midnightblue" points="39.9392,-681.586 41.0116,-692.126 46.7464,-683.218 39.9392,-681.586"/>
</g>
<!-- Node18 -->
<g id="node18" class="node"><title>Node18</title>
<g id="a_node18"><a xlink:href="group__CIOMR.html#gafd02dddc9cfd72712540c0e7a437e55d" target="_top" xlink:title="psi::flin">
<polygon fill="none" stroke="black" points="162,-490.5 162,-509.5 210,-509.5 210,-490.5 162,-490.5"/>
<text text-anchor="middle" x="186" y="-497.5" font-family="Helvetica,sans-Serif" font-size="10.00">psi::flin</text>
</a>
</g>
</g>
<!-- Node1&#45;&gt;Node18 -->
<g id="edge19" class="edge"><title>Node1&#45;&gt;Node18</title>
<path fill="none" stroke="midnightblue" d="M41.0905,-682.16C46.1382,-644.536 62.4882,-562.682 112,-519 125.65,-506.957 145.999,-502.39 161.747,-500.732"/>
<polygon fill="midnightblue" stroke="midnightblue" points="37.5872,-681.977 39.8626,-692.325 44.5367,-682.817 37.5872,-681.977"/>
</g>
<!-- Node20 -->
<g id="node20" class="node"><title>Node20</title>
<g id="a_node20"><a xlink:href="classopt_1_1FRAG.html#a57196fc6ea7d699629d92287d608d34a" target="_top" xlink:title="opt::FRAG::FRAG">
<polygon fill="none" stroke="black" points="137,-414.5 137,-433.5 235,-433.5 235,-414.5 137,-414.5"/>
<text text-anchor="middle" x="186" y="-421.5" font-family="Helvetica,sans-Serif" font-size="10.00">opt::FRAG::FRAG</text>
</a>
</g>
</g>
<!-- Node1&#45;&gt;Node20 -->
<g id="edge21" class="edge"><title>Node1&#45;&gt;Node20</title>
<path fill="none" stroke="midnightblue" d="M38.7858,-682.321C39.3646,-635.235 47.4649,-515.02 112,-448 118.755,-440.985 127.594,-436.019 136.778,-432.504"/>
<polygon fill="midnightblue" stroke="midnightblue" points="35.2857,-682.4 38.7686,-692.406 42.2857,-682.412 35.2857,-682.4"/>
</g>
<!-- Node21 -->
<g id="node21" class="node"><title>Node21</title>
<g id="a_node21"><a xlink:href="classopt_1_1FRAG.html#ae4ae3631fc390b689766c6201b5d1427" target="_top" xlink:title="opt::FRAG::com">
<polygon fill="none" stroke="black" points="141.5,-376.5 141.5,-395.5 230.5,-395.5 230.5,-376.5 141.5,-376.5"/>
<text text-anchor="middle" x="186" y="-383.5" font-family="Helvetica,sans-Serif" font-size="10.00">opt::FRAG::com</text>
</a>
</g>
</g>
<!-- Node1&#45;&gt;Node21 -->
<g id="edge22" class="edge"><title>Node1&#45;&gt;Node21</title>
<path fill="none" stroke="midnightblue" d="M41.1935,-682.513C48.2781,-622.983 72.4147,-445.128 112,-405 119.817,-397.075 130.491,-392.319 141.263,-389.5"/>
<polygon fill="midnightblue" stroke="midnightblue" points="37.713,-682.143 40.0366,-692.48 44.6663,-682.95 37.713,-682.143"/>
</g>
<!-- Node22 -->
<g id="node22" class="node"><title>Node22</title>
<g id="a_node22"><a xlink:href="classopt_1_1FRAG.html#a15634d106cceec13d93b484af25e8ae8" target="_top" xlink:title="opt::FRAG::principal_axes">
<polygon fill="none" stroke="black" points="120,-338.5 120,-357.5 252,-357.5 252,-338.5 120,-338.5"/>
<text text-anchor="middle" x="186" y="-345.5" font-family="Helvetica,sans-Serif" font-size="10.00">opt::FRAG::principal_axes</text>
</a>
</g>
</g>
<!-- Node1&#45;&gt;Node22 -->
<g id="edge23" class="edge"><title>Node1&#45;&gt;Node22</title>
<path fill="none" stroke="midnightblue" d="M40.6371,-682.177C46.3871,-617.334 67.7481,-413.062 112,-367 115.72,-363.128 120.121,-360.009 124.889,-357.501"/>
<polygon fill="midnightblue" stroke="midnightblue" points="37.1377,-682.021 39.7687,-692.284 44.112,-682.62 37.1377,-682.021"/>
</g>
<!-- Node24 -->
<g id="node24" class="node"><title>Node24</title>
<g id="a_node24"><a xlink:href="classpsi_1_1scf_1_1HF.html#a61f77c5eb1e465341ef479fac9484eb0" target="_top" xlink:title="Formation of H is the same regardless of RHF, ROHF, UHF.">
<polygon fill="none" stroke="black" points="132.5,-300.5 132.5,-319.5 239.5,-319.5 239.5,-300.5 132.5,-300.5"/>
<text text-anchor="middle" x="186" y="-307.5" font-family="Helvetica,sans-Serif" font-size="10.00">psi::scf::HF::form_H</text>
</a>
</g>
</g>
<!-- Node1&#45;&gt;Node24 -->
<g id="edge25" class="edge"><title>Node1&#45;&gt;Node24</title>
<path fill="none" stroke="midnightblue" d="M40.1562,-682.225C44.6165,-612.736 62.9691,-381.135 112,-329 117.562,-323.085 124.712,-318.921 132.355,-316.006"/>
<polygon fill="midnightblue" stroke="midnightblue" points="36.6593,-682.068 39.5375,-692.265 43.646,-682.499 36.6593,-682.068"/>
</g>
<!-- Node25 -->
<g id="node25" class="node"><title>Node25</title>
<g id="a_node25"><a xlink:href="classpsi_1_1IntegralTransform.html#a4bb43f6f7eec118b92ec3b1da7cb912b" target="_top" xlink:title="psi::IntegralTransform\l::transform_oei">
<polygon fill="none" stroke="black" points="130,-251 130,-281 242,-281 242,-251 130,-251"/>
<text text-anchor="start" x="138" y="-269" font-family="Helvetica,sans-Serif" font-size="10.00">psi::IntegralTransform</text>
<text text-anchor="middle" x="186" y="-258" font-family="Helvetica,sans-Serif" font-size="10.00">::transform_oei</text>
</a>
</g>
</g>
<!-- Node1&#45;&gt;Node25 -->
<g id="edge26" class="edge"><title>Node1&#45;&gt;Node25</title>
<path fill="none" stroke="midnightblue" d="M39.9093,-682.296C43.6851,-608.719 60.4231,-351.211 112,-291 116.88,-285.303 123.119,-280.902 129.887,-277.502"/>
<polygon fill="midnightblue" stroke="midnightblue" points="36.4046,-682.307 39.4113,-692.467 43.3962,-682.65 36.4046,-682.307"/>
</g>
<!-- Node26 -->
<g id="node26" class="node"><title>Node26</title>
<g id="a_node26"><a xlink:href="classpsi_1_1IntegralTransform.html#afb6664b90fe6b6c369002eb15bad9f6a" target="_top" xlink:title="psi::IntegralTransform\l::generate_oei">
<polygon fill="none" stroke="black" points="130,-202 130,-232 242,-232 242,-202 130,-202"/>
<text text-anchor="start" x="138" y="-220" font-family="Helvetica,sans-Serif" font-size="10.00">psi::IntegralTransform</text>
<text text-anchor="middle" x="186" y="-209" font-family="Helvetica,sans-Serif" font-size="10.00">::generate_oei</text>
</a>
</g>
</g>
<!-- Node1&#45;&gt;Node26 -->
<g id="edge27" class="edge"><title>Node1&#45;&gt;Node26</title>
<path fill="none" stroke="midnightblue" d="M39.4624,-682.463C41.7144,-603.54 53.9349,-309.227 112,-241 116.842,-235.311 123.059,-230.962 129.817,-227.639"/>
<polygon fill="midnightblue" stroke="midnightblue" points="35.9629,-682.403 39.1982,-692.492 42.9604,-682.588 35.9629,-682.403"/>
</g>
<!-- Node27 -->
<g id="node27" class="node"><title>Node27</title>
<g id="a_node27"><a xlink:href="classpsi_1_1IntegralTransform.html#af352bc8a8f1dc75e14237cb79aab0b22" target="_top" xlink:title="psi::IntegralTransform\l::presort_so_tei">
<polygon fill="none" stroke="black" points="130,-153 130,-183 242,-183 242,-153 130,-153"/>
<text text-anchor="start" x="138" y="-171" font-family="Helvetica,sans-Serif" font-size="10.00">psi::IntegralTransform</text>
<text text-anchor="middle" x="186" y="-160" font-family="Helvetica,sans-Serif" font-size="10.00">::presort_so_tei</text>
</a>
</g>
</g>
<!-- Node1&#45;&gt;Node27 -->
<g id="edge28" class="edge"><title>Node1&#45;&gt;Node27</title>
<path fill="none" stroke="midnightblue" d="M39.1355,-682.3C40.1062,-597.986 47.999,-268.346 112,-192 116.8,-186.275 122.992,-181.906 129.74,-178.574"/>
<polygon fill="midnightblue" stroke="midnightblue" points="35.6356,-682.291 39.0408,-692.323 42.6353,-682.357 35.6356,-682.291"/>
</g>
<!-- Node28 -->
<g id="node28" class="node"><title>Node28</title>
<g id="a_node28"><a xlink:href="group__QT.html#gaaa00bb931504d4953c047ee58e7ba317" target="_top" xlink:title="psi::invert_matrix">
<polygon fill="none" stroke="black" points="140,-768.5 140,-787.5 232,-787.5 232,-768.5 140,-768.5"/>
<text text-anchor="middle" x="186" y="-775.5" font-family="Helvetica,sans-Serif" font-size="10.00">psi::invert_matrix</text>
</a>
</g>
</g>
<!-- Node1&#45;&gt;Node28 -->
<g id="edge29" class="edge"><title>Node1&#45;&gt;Node28</title>
<path fill="none" stroke="midnightblue" d="M58.1722,-718.11C72.3278,-729.374 92.4525,-744.112 112,-754 123.548,-759.841 136.825,-764.701 148.863,-768.485"/>
<polygon fill="midnightblue" stroke="midnightblue" points="60.1557,-715.212 50.1883,-711.62 55.7403,-720.644 60.1557,-715.212"/>
</g>
<!-- Node19 -->
<g id="node19" class="node"><title>Node19</title>
<g id="a_node19"><a xlink:href="group__QT.html#ga7dc5435261bcef5693d54a4913e0864f" target="_top" xlink:title="psi::pople">
<polygon fill="none" stroke="black" points="332.5,-471.5 332.5,-490.5 391.5,-490.5 391.5,-471.5 332.5,-471.5"/>
<text text-anchor="middle" x="362" y="-478.5" font-family="Helvetica,sans-Serif" font-size="10.00">psi::pople</text>
</a>
</g>
</g>
<!-- Node1&#45;&gt;Node19 -->
<g id="edge32" class="edge"><title>Node1&#45;&gt;Node19</title>
<path fill="none" stroke="midnightblue" d="M38.5472,-682.063C38.7486,-637.188 46.3267,-528.47 112,-481 178.566,-432.884 283.483,-456.19 333.156,-471.406"/>
<polygon fill="midnightblue" stroke="midnightblue" points="35.0487,-682.277 38.6289,-692.248 42.0485,-682.22 35.0487,-682.277"/>
</g>
<!-- Node30 -->
<g id="node30" class="node"><title>Node30</title>
<g id="a_node30"><a xlink:href="classpsi_1_1scf_1_1RHF.html#a9f279b3205e4258055ad10a60a2974b8" target="_top" xlink:title="Check the stability of the wavefunction, and correct (if requested)">
<polygon fill="none" stroke="black" points="304,-1110 304,-1140 420,-1140 420,-1110 304,-1110"/>
<text text-anchor="start" x="312" y="-1128" font-family="Helvetica,sans-Serif" font-size="10.00">psi::scf::RHF::stability</text>
<text text-anchor="middle" x="362" y="-1117" font-family="Helvetica,sans-Serif" font-size="10.00">_analysis</text>
</a>
</g>
</g>
<!-- Node1&#45;&gt;Node30 -->
<g id="edge33" class="edge"><title>Node1&#45;&gt;Node30</title>
<path fill="none" stroke="midnightblue" d="M39.6588,-721.78C42.5113,-794.445 56.3004,-1045.11 112,-1097 163.006,-1144.52 247.725,-1143.52 303.963,-1136.12"/>
<polygon fill="midnightblue" stroke="midnightblue" points="43.1536,-721.569 39.2902,-711.704 36.1582,-721.825 43.1536,-721.569"/>
</g>
<!-- Node31 -->
<g id="node31" class="node"><title>Node31</title>
<g id="a_node31"><a xlink:href="classpsi_1_1scf_1_1ROHF.html#a69ea47a67dc5d1cd5cca0f02a92d05d0" target="_top" xlink:title="Check the stability of the wavefunction, and correct (if requested)">
<polygon fill="none" stroke="black" points="300.5,-1022 300.5,-1052 423.5,-1052 423.5,-1022 300.5,-1022"/>
<text text-anchor="start" x="308.5" y="-1040" font-family="Helvetica,sans-Serif" font-size="10.00">psi::scf::ROHF::stability</text>
<text text-anchor="middle" x="362" y="-1029" font-family="Helvetica,sans-Serif" font-size="10.00">_analysis</text>
</a>
</g>
</g>
<!-- Node1&#45;&gt;Node31 -->
<g id="edge34" class="edge"><title>Node1&#45;&gt;Node31</title>
<path fill="none" stroke="midnightblue" d="M40.7203,-721.815C46.5438,-783.948 67.6741,-973.139 112,-1012 163.046,-1056.75 244.539,-1056.19 300.297,-1048.95"/>
<polygon fill="midnightblue" stroke="midnightblue" points="44.1972,-721.4 39.809,-711.756 37.2257,-722.031 44.1972,-721.4"/>
</g>
<!-- Node32 -->
<g id="node32" class="node"><title>Node32</title>
<g id="a_node32"><a xlink:href="group__CIOMR.html#gaa72584deffae950af7604ff8f9f345d9" target="_top" xlink:title="psi::rsp">
<polygon fill="none" stroke="black" points="161.5,-114.5 161.5,-133.5 210.5,-133.5 210.5,-114.5 161.5,-114.5"/>
<text text-anchor="middle" x="186" y="-121.5" font-family="Helvetica,sans-Serif" font-size="10.00">psi::rsp</text>
</a>
</g>
</g>
<!-- Node1&#45;&gt;Node32 -->
<g id="edge35" class="edge"><title>Node1&#45;&gt;Node32</title>
<path fill="none" stroke="midnightblue" d="M38.7387,-682.043C37.9751,-592.101 39.4157,-225.257 112,-143 124.217,-129.155 145.122,-124.797 161.438,-123.676"/>
<polygon fill="midnightblue" stroke="midnightblue" points="35.2408,-682.264 38.8461,-692.227 42.2404,-682.19 35.2408,-682.264"/>
</g>
<!-- Node33 -->
<g id="node33" class="node"><title>Node33</title>
<g id="a_node33"><a xlink:href="classpsi_1_1scf_1_1HF.html#ad515b121286e6df12f79cc2d390114ab" target="_top" xlink:title="Perform casting of C from old basis to new basis if desired.">
<polygon fill="none" stroke="black" points="114.5,-76.5 114.5,-95.5 257.5,-95.5 257.5,-76.5 114.5,-76.5"/>
<text text-anchor="middle" x="186" y="-83.5" font-family="Helvetica,sans-Serif" font-size="10.00">psi::scf::HF::BasisProjection</text>
</a>
</g>
</g>
<!-- Node1&#45;&gt;Node33 -->
<g id="edge36" class="edge"><title>Node1&#45;&gt;Node33</title>
<path fill="none" stroke="midnightblue" d="M38.5569,-682.198C36.8803,-588.844 34.513,-193.54 112,-105 115.364,-101.157 119.397,-98.0433 123.817,-95.5268"/>
<polygon fill="midnightblue" stroke="midnightblue" points="35.063,-682.543 38.7619,-692.471 42.0616,-682.403 35.063,-682.543"/>
</g>
<!-- Node34 -->
<g id="node34" class="node"><title>Node34</title>
<g id="a_node34"><a xlink:href="group__QT.html#ga43680fa9286ea2dedee13fc24abd81f3" target="_top" xlink:title="psi::schmidt">
<polygon fill="none" stroke="black" points="151,-38.5 151,-57.5 221,-57.5 221,-38.5 151,-38.5"/>
<text text-anchor="middle" x="186" y="-45.5" font-family="Helvetica,sans-Serif" font-size="10.00">psi::schmidt</text>
</a>
</g>
</g>
<!-- Node1&#45;&gt;Node34 -->
<g id="edge37" class="edge"><title>Node1&#45;&gt;Node34</title>
<path fill="none" stroke="midnightblue" d="M39.9586,-682.216C45.0826,-580.005 70.5659,-114.691 112,-67 121.62,-55.9278 136.795,-50.9071 150.823,-48.762"/>
<polygon fill="midnightblue" stroke="midnightblue" points="36.4547,-682.21 39.4571,-692.37 43.4462,-682.555 36.4547,-682.21"/>
</g>
<!-- Node36 -->
<g id="node36" class="node"><title>Node36</title>
<g id="a_node36"><a xlink:href="group__QT.html#ga58cc29b51212aa4d022ee0fbe39a3f90" target="_top" xlink:title="psi::schmidt_add">
<polygon fill="none" stroke="black" points="140.5,-1182.5 140.5,-1201.5 231.5,-1201.5 231.5,-1182.5 140.5,-1182.5"/>
<text text-anchor="middle" x="186" y="-1189.5" font-family="Helvetica,sans-Serif" font-size="10.00">psi::schmidt_add</text>
</a>
</g>
</g>
<!-- Node1&#45;&gt;Node36 -->
<g id="edge39" class="edge"><title>Node1&#45;&gt;Node36</title>
<path fill="none" stroke="midnightblue" d="M39.4314,-721.747C41.5626,-801.519 53.3777,-1099 112,-1168 119.256,-1176.54 129.61,-1182.06 140.247,-1185.62"/>
<polygon fill="midnightblue" stroke="midnightblue" points="42.927,-721.522 39.1828,-711.61 35.9291,-721.693 42.927,-721.522"/>
</g>
<!-- Node37 -->
<g id="node37" class="node"><title>Node37</title>
<g id="a_node37"><a xlink:href="group__QT.html#gad92f6aaa81bb1d58628d4789be57d1d4" target="_top" xlink:title="psi::slaterdetvector_init">
<polygon fill="none" stroke="black" points="127,-0.5 127,-19.5 245,-19.5 245,-0.5 127,-0.5"/>
<text text-anchor="middle" x="186" y="-7.5" font-family="Helvetica,sans-Serif" font-size="10.00">psi::slaterdetvector_init</text>
</a>
</g>
</g>
<!-- Node1&#45;&gt;Node37 -->
<g id="edge41" class="edge"><title>Node1&#45;&gt;Node37</title>
<path fill="none" stroke="midnightblue" d="M39.8313,-682.041C44.4294,-575.819 68.143,-79.8072 112,-29 116.107,-24.2416 121.241,-20.5996 126.872,-17.8227"/>
<polygon fill="midnightblue" stroke="midnightblue" points="36.3232,-682.16 39.3947,-692.3 43.3168,-682.458 36.3232,-682.16"/>
</g>
<!-- Node39 -->
<g id="node39" class="node"><title>Node39</title>
<g id="a_node39"><a xlink:href="group__CIOMR.html#ga07d6bbb5ebb9cfc28d07621acc323cf4" target="_top" xlink:title="psi::sq_rsp">
<polygon fill="none" stroke="black" points="153.5,-1068.5 153.5,-1087.5 218.5,-1087.5 218.5,-1068.5 153.5,-1068.5"/>
<text text-anchor="middle" x="186" y="-1075.5" font-family="Helvetica,sans-Serif" font-size="10.00">psi::sq_rsp</text>
</a>
</g>
</g>
<!-- Node1&#45;&gt;Node39 -->
<g id="edge43" class="edge"><title>Node1&#45;&gt;Node39</title>
<path fill="none" stroke="midnightblue" d="M40.5379,-721.847C46.0936,-788.63 67.2066,-1003.83 112,-1054 122.484,-1065.74 138.813,-1071.76 153.371,-1074.83"/>
<polygon fill="midnightblue" stroke="midnightblue" points="44.0208,-721.493 39.7283,-711.807 37.0435,-722.056 44.0208,-721.493"/>
</g>
<!-- Node43 -->
<g id="node43" class="node"><title>Node43</title>
<g id="a_node43"><a xlink:href="classpsi_1_1scf_1_1UHF.html#a9e8b86d0712f69b95479d18eb68de40d" target="_top" xlink:title="Check the stability of the wavefunction, and correct (if requested)">
<polygon fill="none" stroke="black" points="304,-973 304,-1003 420,-1003 420,-973 304,-973"/>
<text text-anchor="start" x="312" y="-991" font-family="Helvetica,sans-Serif" font-size="10.00">psi::scf::UHF::stability</text>
<text text-anchor="middle" x="362" y="-980" font-family="Helvetica,sans-Serif" font-size="10.00">_analysis</text>
</a>
</g>
</g>
<!-- Node1&#45;&gt;Node43 -->
<g id="edge51" class="edge"><title>Node1&#45;&gt;Node43</title>
<path fill="none" stroke="midnightblue" d="M41.1288,-721.915C47.8165,-780.316 70.4681,-949.101 112,-982 167.928,-1026.3 255.201,-1015.99 310.18,-1003.06"/>
<polygon fill="midnightblue" stroke="midnightblue" points="44.5857,-721.332 40.0033,-711.779 37.6284,-722.105 44.5857,-721.332"/>
</g>
<!-- Node14&#45;&gt;Node12 -->
<g id="edge14" class="edge"><title>Node14&#45;&gt;Node12</title>
<path fill="none" stroke="midnightblue" d="M240.814,-713.753C265.418,-719.126 294.187,-725.409 317.408,-730.48"/>
<polygon fill="midnightblue" stroke="midnightblue" points="241.424,-710.303 230.908,-711.589 239.93,-717.142 241.424,-710.303"/>
</g>
<!-- Node14&#45;&gt;Node13 -->
<g id="edge15" class="edge"><title>Node14&#45;&gt;Node13</title>
<path fill="none" stroke="midnightblue" d="M260.285,-693.998C274.129,-692.486 288.447,-690.922 301.791,-689.465"/>
<polygon fill="midnightblue" stroke="midnightblue" points="259.871,-690.522 250.31,-695.087 260.631,-697.481 259.871,-690.522"/>
</g>
<!-- Node18&#45;&gt;Node19 -->
<g id="edge20" class="edge"><title>Node18&#45;&gt;Node19</title>
<path fill="none" stroke="midnightblue" d="M220.433,-496.349C252.869,-492.807 301.569,-487.49 332.297,-484.134"/>
<polygon fill="midnightblue" stroke="midnightblue" points="219.667,-492.912 210.106,-497.477 220.427,-499.871 219.667,-492.912"/>
</g>
<!-- Node23 -->
<g id="node23" class="node"><title>Node23</title>
<g id="a_node23"><a xlink:href="classopt_1_1FRAG.html#a6f2b4d1fe01a2dffc7e6a7d2e4d97102" target="_top" xlink:title="opt::FRAG::principal_axes">
<polygon fill="none" stroke="black" points="296,-338.5 296,-357.5 428,-357.5 428,-338.5 296,-338.5"/>
<text text-anchor="middle" x="362" y="-345.5" font-family="Helvetica,sans-Serif" font-size="10.00">opt::FRAG::principal_axes</text>
</a>
</g>
</g>
<!-- Node22&#45;&gt;Node23 -->
<g id="edge24" class="edge"><title>Node22&#45;&gt;Node23</title>
<path fill="none" stroke="midnightblue" d="M262.437,-348C273.592,-348 285.006,-348 295.927,-348"/>
<polygon fill="midnightblue" stroke="midnightblue" points="262.286,-344.5 252.286,-348 262.286,-351.5 262.286,-344.5"/>
</g>
<!-- Node28&#45;&gt;Node12 -->
<g id="edge30" class="edge"><title>Node28&#45;&gt;Node12</title>
<path fill="none" stroke="midnightblue" d="M240.814,-766.247C265.418,-760.874 294.187,-754.591 317.408,-749.52"/>
<polygon fill="midnightblue" stroke="midnightblue" points="239.93,-762.858 230.908,-768.411 241.424,-769.697 239.93,-762.858"/>
</g>
<!-- Node29 -->
<g id="node29" class="node"><title>Node29</title>
<g id="a_node29"><a xlink:href="classpsi_1_1Matrix.html#a308d4af446e31177b7663b46eb42632e" target="_top" xlink:title="psi::Matrix::invert">
<polygon fill="none" stroke="black" points="316,-768.5 316,-787.5 408,-787.5 408,-768.5 316,-768.5"/>
<text text-anchor="middle" x="362" y="-775.5" font-family="Helvetica,sans-Serif" font-size="10.00">psi::Matrix::invert</text>
</a>
</g>
</g>
<!-- Node28&#45;&gt;Node29 -->
<g id="edge31" class="edge"><title>Node28&#45;&gt;Node29</title>
<path fill="none" stroke="midnightblue" d="M242.523,-778C266.23,-778 293.542,-778 315.964,-778"/>
<polygon fill="midnightblue" stroke="midnightblue" points="242.262,-774.5 232.262,-778 242.262,-781.5 242.262,-774.5"/>
</g>
<!-- Node35 -->
<g id="node35" class="node"><title>Node35</title>
<g id="a_node35"><a xlink:href="classpsi_1_1Matrix.html#aca090605e9988ed8485f0eff61c2bc25" target="_top" xlink:title="psi::Matrix::schmidt">
<polygon fill="none" stroke="black" points="310.5,-38.5 310.5,-57.5 413.5,-57.5 413.5,-38.5 310.5,-38.5"/>
<text text-anchor="middle" x="362" y="-45.5" font-family="Helvetica,sans-Serif" font-size="10.00">psi::Matrix::schmidt</text>
</a>
</g>
</g>
<!-- Node34&#45;&gt;Node35 -->
<g id="edge38" class="edge"><title>Node34&#45;&gt;Node35</title>
<path fill="none" stroke="midnightblue" d="M231.624,-48C255.625,-48 285.32,-48 310.204,-48"/>
<polygon fill="midnightblue" stroke="midnightblue" points="231.377,-44.5001 221.377,-48 231.377,-51.5001 231.377,-44.5001"/>
</g>
<!-- Node36&#45;&gt;Node7 -->
<g id="edge40" class="edge"><title>Node36&#45;&gt;Node7</title>
<path fill="none" stroke="midnightblue" d="M241.754,-1184.76C271.828,-1180.79 307.892,-1176.02 332.427,-1172.78"/>
<polygon fill="midnightblue" stroke="midnightblue" points="241.264,-1181.3 231.809,-1186.08 242.182,-1188.24 241.264,-1181.3"/>
</g>
<!-- Node38 -->
<g id="node38" class="node"><title>Node38</title>
<g id="a_node38"><a xlink:href="group__QT.html#ga67eca5299660efcf885f7bd743b587f9" target="_top" xlink:title="psi::slaterdetvector_read">
<polygon fill="none" stroke="black" points="300,-0.5 300,-19.5 424,-19.5 424,-0.5 300,-0.5"/>
<text text-anchor="middle" x="362" y="-7.5" font-family="Helvetica,sans-Serif" font-size="10.00">psi::slaterdetvector_read</text>
</a>
</g>
</g>
<!-- Node37&#45;&gt;Node38 -->
<g id="edge42" class="edge"><title>Node37&#45;&gt;Node38</title>
<path fill="none" stroke="midnightblue" d="M255.836,-10C270.341,-10 285.551,-10 299.754,-10"/>
<polygon fill="midnightblue" stroke="midnightblue" points="255.424,-6.5001 245.424,-10 255.423,-13.5001 255.424,-6.5001"/>
</g>
<!-- Node39&#45;&gt;Node7 -->
<g id="edge44" class="edge"><title>Node39&#45;&gt;Node7</title>
<path fill="none" stroke="midnightblue" d="M207.287,-1093.71C228.448,-1109.47 263.071,-1133.58 296,-1149 307.441,-1154.36 320.674,-1158.73 332.201,-1162.01"/>
<polygon fill="midnightblue" stroke="midnightblue" points="209.174,-1090.74 199.086,-1087.51 204.953,-1096.33 209.174,-1090.74"/>
</g>
<!-- Node40 -->
<g id="node40" class="node"><title>Node40</title>
<g id="a_node40"><a xlink:href="classpsi_1_1Matrix.html#a6870f5e151177ed498f0b575cc44cef6" target="_top" xlink:title="psi::Matrix::diagonalize">
<polygon fill="none" stroke="black" points="303.5,-1071.5 303.5,-1090.5 420.5,-1090.5 420.5,-1071.5 303.5,-1071.5"/>
<text text-anchor="middle" x="362" y="-1078.5" font-family="Helvetica,sans-Serif" font-size="10.00">psi::Matrix::diagonalize</text>
</a>
</g>
</g>
<!-- Node39&#45;&gt;Node40 -->
<g id="edge45" class="edge"><title>Node39&#45;&gt;Node40</title>
<path fill="none" stroke="midnightblue" d="M228.679,-1078.72C251.035,-1079.1 278.931,-1079.59 303.337,-1080.01"/>
<polygon fill="midnightblue" stroke="midnightblue" points="228.569,-1075.22 218.51,-1078.54 228.448,-1082.22 228.569,-1075.22"/>
</g>
<!-- Node39&#45;&gt;Node30 -->
<g id="edge48" class="edge"><title>Node39&#45;&gt;Node30</title>
<path fill="none" stroke="midnightblue" d="M228.322,-1089.16C251.381,-1095.39 280.415,-1103.23 305.44,-1109.99"/>
<polygon fill="midnightblue" stroke="midnightblue" points="229.077,-1085.74 218.51,-1086.51 227.251,-1092.5 229.077,-1085.74"/>
</g>
<!-- Node39&#45;&gt;Node31 -->
<g id="edge49" class="edge"><title>Node39&#45;&gt;Node31</title>
<path fill="none" stroke="midnightblue" d="M228.283,-1068.27C249.741,-1063.22 276.381,-1056.94 300.151,-1051.34"/>
<polygon fill="midnightblue" stroke="midnightblue" points="227.441,-1064.87 218.51,-1070.58 229.046,-1071.69 227.441,-1064.87"/>
</g>
<!-- Node39&#45;&gt;Node43 -->
<g id="edge50" class="edge"><title>Node39&#45;&gt;Node43</title>
<path fill="none" stroke="midnightblue" d="M209.856,-1062.8C231.482,-1048.81 265.137,-1028 296,-1013 303.177,-1009.51 310.974,-1006.16 318.593,-1003.11"/>
<polygon fill="midnightblue" stroke="midnightblue" points="207.826,-1059.95 201.367,-1068.35 211.653,-1065.81 207.826,-1059.95"/>
</g>
<!-- Node41 -->
<g id="node41" class="node"><title>Node41</title>
<g id="a_node41"><a xlink:href="classpsi_1_1Matrix.html#a54f3fe98fb5df1ac03e568d54396c7e2" target="_top" xlink:title="psi::Matrix::canonical\l_orthogonalization">
<polygon fill="none" stroke="black" points="464,-1091 464,-1121 574,-1121 574,-1091 464,-1091"/>
<text text-anchor="start" x="472" y="-1109" font-family="Helvetica,sans-Serif" font-size="10.00">psi::Matrix::canonical</text>
<text text-anchor="middle" x="519" y="-1098" font-family="Helvetica,sans-Serif" font-size="10.00">_orthogonalization</text>
</a>
</g>
</g>
<!-- Node40&#45;&gt;Node41 -->
<g id="edge46" class="edge"><title>Node40&#45;&gt;Node41</title>
<path fill="none" stroke="midnightblue" d="M430.77,-1091.93C441.828,-1093.71 453.154,-1095.54 463.829,-1097.26"/>
<polygon fill="midnightblue" stroke="midnightblue" points="431.146,-1088.45 420.716,-1090.31 430.031,-1095.36 431.146,-1088.45"/>
</g>
<!-- Node42 -->
<g id="node42" class="node"><title>Node42</title>
<g id="a_node42"><a xlink:href="classpsi_1_1Matrix.html#ad5ac8f470c206b075e5c15523acb576c" target="_top" xlink:title="psi::Matrix::partial\l_square_root">
<polygon fill="none" stroke="black" points="471.5,-1042 471.5,-1072 566.5,-1072 566.5,-1042 471.5,-1042"/>
<text text-anchor="start" x="479.5" y="-1060" font-family="Helvetica,sans-Serif" font-size="10.00">psi::Matrix::partial</text>
<text text-anchor="middle" x="519" y="-1049" font-family="Helvetica,sans-Serif" font-size="10.00">_square_root</text>
</a>
</g>
</g>
<!-- Node40&#45;&gt;Node42 -->
<g id="edge47" class="edge"><title>Node40&#45;&gt;Node42</title>
<path fill="none" stroke="midnightblue" d="M430.625,-1070.53C444.37,-1068.4 458.537,-1066.21 471.357,-1064.22"/>
<polygon fill="midnightblue" stroke="midnightblue" points="430.063,-1067.07 420.716,-1072.06 431.134,-1073.99 430.063,-1067.07"/>
</g>
</g>
</svg>
