<?xml version="1.0" encoding="UTF-8" standalone="no"?>
<!DOCTYPE svg PUBLIC "-//W3C//DTD SVG 1.1//EN"
 "http://www.w3.org/Graphics/SVG/1.1/DTD/svg11.dtd">
<!-- Generated by graphviz version 2.30.1 (20140110.0959)
 -->
<!-- Title: psi::iwl_wrttwo Pages: 1 -->
<svg width="472pt" height="161pt"
 viewBox="0.00 0.00 472.00 161.00" xmlns="http://www.w3.org/2000/svg" xmlns:xlink="http://www.w3.org/1999/xlink">
<g id="graph0" class="graph" transform="scale(1 1) rotate(0) translate(4 157)">
<title>psi::iwl_wrttwo</title>
<!-- Node1 -->
<g id="node1" class="node"><title>Node1</title>
<polygon fill="#bfbfbf" stroke="black" points="0,-57.5 0,-76.5 82,-76.5 82,-57.5 0,-57.5"/>
<text text-anchor="middle" x="41" y="-64.5" font-family="Helvetica,sans-Serif" font-size="10.00">psi::iwl_wrttwo</text>
</g>
<!-- Node2 -->
<g id="node2" class="node"><title>Node2</title>
<g id="a_node2"><a xlink:href="group__IWL.html#gaf17e4eee1412d1540e2c3091fd526658" target="_top" xlink:title="psi::iwl_buf_init">
<polygon fill="none" stroke="black" points="126,-114.5 126,-133.5 210,-133.5 210,-114.5 126,-114.5"/>
<text text-anchor="middle" x="168" y="-121.5" font-family="Helvetica,sans-Serif" font-size="10.00">psi::iwl_buf_init</text>
</a>
</g>
</g>
<!-- Node1&#45;&gt;Node2 -->
<g id="edge1" class="edge"><title>Node1&#45;&gt;Node2</title>
<path fill="none" stroke="midnightblue" d="M59.8926,-76.5425C75.1515,-84.5357 97.7664,-96.0423 118,-105 122.409,-106.952 127.085,-108.907 131.731,-110.782"/>
<polygon fill="midnightblue" stroke="midnightblue" points="130.542,-114.075 141.129,-114.489 133.111,-107.564 130.542,-114.075"/>
</g>
<!-- Node6 -->
<g id="node6" class="node"><title>Node6</title>
<g id="a_node6"><a xlink:href="group__IWL.html#gac32d69b5c4a1ad12b2528d0e29ed5261" target="_top" xlink:title="psi::iwl_buf_wrt_all">
<polygon fill="none" stroke="black" points="118,-76.5 118,-95.5 218,-95.5 218,-76.5 118,-76.5"/>
<text text-anchor="middle" x="168" y="-83.5" font-family="Helvetica,sans-Serif" font-size="10.00">psi::iwl_buf_wrt_all</text>
</a>
</g>
</g>
<!-- Node1&#45;&gt;Node6 -->
<g id="edge5" class="edge"><title>Node1&#45;&gt;Node6</title>
<path fill="none" stroke="midnightblue" d="M82.2388,-73.1163C90.3438,-74.3483 99.0233,-75.6675 107.624,-76.9748"/>
<polygon fill="midnightblue" stroke="midnightblue" points="107.232,-80.4554 117.644,-78.4979 108.284,-73.5349 107.232,-80.4554"/>
</g>
<!-- Node9 -->
<g id="node9" class="node"><title>Node9</title>
<g id="a_node9"><a xlink:href="group__IWL.html#gaf25d77d2b1ba5f862f8a9c62b9beade5" target="_top" xlink:title="psi::iwl_buf_flush">
<polygon fill="none" stroke="black" points="122,-38.5 122,-57.5 214,-57.5 214,-38.5 122,-38.5"/>
<text text-anchor="middle" x="168" y="-45.5" font-family="Helvetica,sans-Serif" font-size="10.00">psi::iwl_buf_flush</text>
</a>
</g>
</g>
<!-- Node1&#45;&gt;Node9 -->
<g id="edge8" class="edge"><title>Node1&#45;&gt;Node9</title>
<path fill="none" stroke="midnightblue" d="M82.2388,-60.8837C91.5616,-59.4666 101.644,-57.9341 111.493,-56.4371"/>
<polygon fill="midnightblue" stroke="midnightblue" points="112.269,-59.8595 121.629,-54.8964 111.217,-52.9389 112.269,-59.8595"/>
</g>
<!-- Node10 -->
<g id="node10" class="node"><title>Node10</title>
<g id="a_node10"><a xlink:href="group__IWL.html#gab605ef0d64ce923bd9955c2fb7242623" target="_top" xlink:title="psi::iwl_buf_close">
<polygon fill="none" stroke="black" points="120.5,-0.5 120.5,-19.5 215.5,-19.5 215.5,-0.5 120.5,-0.5"/>
<text text-anchor="middle" x="168" y="-7.5" font-family="Helvetica,sans-Serif" font-size="10.00">psi::iwl_buf_close</text>
</a>
</g>
</g>
<!-- Node1&#45;&gt;Node10 -->
<g id="edge10" class="edge"><title>Node1&#45;&gt;Node10</title>
<path fill="none" stroke="midnightblue" d="M59.8926,-57.4575C75.1515,-49.4643 97.7664,-37.9577 118,-29 122.409,-27.0482 127.085,-25.0926 131.731,-23.2179"/>
<polygon fill="midnightblue" stroke="midnightblue" points="133.111,-26.4362 141.129,-19.5107 130.542,-19.9246 133.111,-26.4362"/>
</g>
<!-- Node3 -->
<g id="node3" class="node"><title>Node3</title>
<g id="a_node3"><a xlink:href="group__PSIO.html#gabb84738717252302864b0da5f6f65f9d" target="_top" xlink:title="psi::psio_tocscan">
<polygon fill="none" stroke="black" points="254.5,-133.5 254.5,-152.5 347.5,-152.5 347.5,-133.5 254.5,-133.5"/>
<text text-anchor="middle" x="301" y="-140.5" font-family="Helvetica,sans-Serif" font-size="10.00">psi::psio_tocscan</text>
</a>
</g>
</g>
<!-- Node2&#45;&gt;Node3 -->
<g id="edge2" class="edge"><title>Node2&#45;&gt;Node3</title>
<path fill="none" stroke="midnightblue" d="M210.09,-129.96C220.884,-131.525 232.711,-133.241 244.138,-134.898"/>
<polygon fill="midnightblue" stroke="midnightblue" points="243.641,-138.362 254.04,-136.334 244.646,-131.435 243.641,-138.362"/>
</g>
<!-- Node4 -->
<g id="node4" class="node"><title>Node4</title>
<g id="a_node4"><a xlink:href="group__IWL.html#gac911d759b786733d5f666d7b22d4b626" target="_top" xlink:title="psi::iwl_buf_fetch">
<polygon fill="none" stroke="black" points="254.5,-95.5 254.5,-114.5 347.5,-114.5 347.5,-95.5 254.5,-95.5"/>
<text text-anchor="middle" x="301" y="-102.5" font-family="Helvetica,sans-Serif" font-size="10.00">psi::iwl_buf_fetch</text>
</a>
</g>
</g>
<!-- Node2&#45;&gt;Node4 -->
<g id="edge3" class="edge"><title>Node2&#45;&gt;Node4</title>
<path fill="none" stroke="midnightblue" d="M210.09,-118.04C220.884,-116.475 232.711,-114.759 244.138,-113.102"/>
<polygon fill="midnightblue" stroke="midnightblue" points="244.646,-116.565 254.04,-111.666 243.641,-109.638 244.646,-116.565"/>
</g>
<!-- Node5 -->
<g id="node5" class="node"><title>Node5</title>
<g id="a_node5"><a xlink:href="group__PSIO.html#ga7fb52625f96f6373eca3de9dcdf9487f" target="_top" xlink:title="psi::psio_read">
<polygon fill="none" stroke="black" points="385.5,-95.5 385.5,-114.5 462.5,-114.5 462.5,-95.5 385.5,-95.5"/>
<text text-anchor="middle" x="424" y="-102.5" font-family="Helvetica,sans-Serif" font-size="10.00">psi::psio_read</text>
</a>
</g>
</g>
<!-- Node4&#45;&gt;Node5 -->
<g id="edge4" class="edge"><title>Node4&#45;&gt;Node5</title>
<path fill="none" stroke="midnightblue" d="M347.745,-105C356.789,-105 366.302,-105 375.405,-105"/>
<polygon fill="midnightblue" stroke="midnightblue" points="375.463,-108.5 385.463,-105 375.463,-101.5 375.463,-108.5"/>
</g>
<!-- Node7 -->
<g id="node7" class="node"><title>Node7</title>
<g id="a_node7"><a xlink:href="group__IWL.html#ga305abfee9d72d2cd5c2c39a823da7680" target="_top" xlink:title="psi::iwl_buf_put">
<polygon fill="none" stroke="black" points="258.5,-48.5 258.5,-67.5 343.5,-67.5 343.5,-48.5 258.5,-48.5"/>
<text text-anchor="middle" x="301" y="-55.5" font-family="Helvetica,sans-Serif" font-size="10.00">psi::iwl_buf_put</text>
</a>
</g>
</g>
<!-- Node6&#45;&gt;Node7 -->
<g id="edge6" class="edge"><title>Node6&#45;&gt;Node7</title>
<path fill="none" stroke="midnightblue" d="M213.716,-76.4423C224.838,-74.0652 236.851,-71.4974 248.279,-69.0549"/>
<polygon fill="midnightblue" stroke="midnightblue" points="249.085,-72.4617 258.133,-66.9487 247.622,-65.6163 249.085,-72.4617"/>
</g>
<!-- Node8 -->
<g id="node8" class="node"><title>Node8</title>
<g id="a_node8"><a xlink:href="group__PSIO.html#gaac73c196234f26dcd094674cc29a6b18" target="_top" xlink:title="psi::psio_write">
<polygon fill="none" stroke="black" points="384,-48.5 384,-67.5 464,-67.5 464,-48.5 384,-48.5"/>
<text text-anchor="middle" x="424" y="-55.5" font-family="Helvetica,sans-Serif" font-size="10.00">psi::psio_write</text>
</a>
</g>
</g>
<!-- Node7&#45;&gt;Node8 -->
<g id="edge7" class="edge"><title>Node7&#45;&gt;Node8</title>
<path fill="none" stroke="midnightblue" d="M343.641,-58C353.281,-58 363.631,-58 373.568,-58"/>
<polygon fill="midnightblue" stroke="midnightblue" points="373.728,-61.5001 383.728,-58 373.728,-54.5001 373.728,-61.5001"/>
</g>
<!-- Node9&#45;&gt;Node7 -->
<g id="edge9" class="edge"><title>Node9&#45;&gt;Node7</title>
<path fill="none" stroke="midnightblue" d="M214.083,-51.4414C225.076,-52.2806 236.921,-53.1848 248.199,-54.0458"/>
<polygon fill="midnightblue" stroke="midnightblue" points="248.119,-57.5497 258.357,-54.8211 248.652,-50.57 248.119,-57.5497"/>
</g>
</g>
</svg>
