<?xml version="1.0" encoding="UTF-8" standalone="no"?>
<!DOCTYPE svg PUBLIC "-//W3C//DTD SVG 1.1//EN"
 "http://www.w3.org/Graphics/SVG/1.1/DTD/svg11.dtd">
<!-- Generated by graphviz version 2.30.1 (20140110.0959)
 -->
<!-- Title: psi::pople Pages: 1 -->
<svg width="308pt" height="294pt"
 viewBox="0.00 0.00 308.00 294.00" xmlns="http://www.w3.org/2000/svg" xmlns:xlink="http://www.w3.org/1999/xlink">
<g id="graph0" class="graph" transform="scale(1 1) rotate(0) translate(4 290)">
<title>psi::pople</title>
<!-- Node1 -->
<g id="node1" class="node"><title>Node1</title>
<polygon fill="#bfbfbf" stroke="black" points="0.5,-133.5 0.5,-152.5 59.5,-152.5 59.5,-133.5 0.5,-133.5"/>
<text text-anchor="middle" x="30" y="-140.5" font-family="Helvetica,sans-Serif" font-size="10.00">psi::pople</text>
</g>
<!-- Node2 -->
<g id="node2" class="node"><title>Node2</title>
<g id="a_node2"><a xlink:href="group__CIOMR.html#ga5342d96a20702d84857440badc8be2ec" target="_top" xlink:title="psi::block_matrix">
<polygon fill="none" stroke="black" points="96.5,-266.5 96.5,-285.5 187.5,-285.5 187.5,-266.5 96.5,-266.5"/>
<text text-anchor="middle" x="142" y="-273.5" font-family="Helvetica,sans-Serif" font-size="10.00">psi::block_matrix</text>
</a>
</g>
</g>
<!-- Node1&#45;&gt;Node2 -->
<g id="edge1" class="edge"><title>Node1&#45;&gt;Node2</title>
<path fill="none" stroke="midnightblue" d="M34.6353,-152.614C42.809,-173.156 64.4246,-221.898 96,-252 99.749,-255.574 104.134,-258.768 108.67,-261.569"/>
<polygon fill="midnightblue" stroke="midnightblue" points="107.01,-264.651 117.448,-266.467 110.421,-258.538 107.01,-264.651"/>
</g>
<!-- Node3 -->
<g id="node3" class="node"><title>Node3</title>
<g id="a_node3"><a xlink:href="group__CIOMR.html#ga35255b9a71ed5869db7c1c5507923929" target="_top" xlink:title="psi::init_array">
<polygon fill="none" stroke="black" points="224.5,-152.5 224.5,-171.5 299.5,-171.5 299.5,-152.5 224.5,-152.5"/>
<text text-anchor="middle" x="262" y="-159.5" font-family="Helvetica,sans-Serif" font-size="10.00">psi::init_array</text>
</a>
</g>
</g>
<!-- Node1&#45;&gt;Node3 -->
<g id="edge2" class="edge"><title>Node1&#45;&gt;Node3</title>
<path fill="none" stroke="midnightblue" d="M35.618,-152.528C44.522,-169.649 65.88,-205.127 96,-219 133.139,-236.106 149.337,-232.307 188,-219 210.877,-211.126 232.081,-192.817 245.675,-179.059"/>
<polygon fill="midnightblue" stroke="midnightblue" points="248.41,-181.261 252.755,-171.598 243.332,-176.443 248.41,-181.261"/>
</g>
<!-- Node4 -->
<g id="node4" class="node"><title>Node4</title>
<g id="a_node4"><a xlink:href="group__CIOMR.html#ga86db3a2fc816b99e6b32eb307cbaa651" target="_top" xlink:title="psi::print_mat">
<polygon fill="none" stroke="black" points="104,-190.5 104,-209.5 180,-209.5 180,-190.5 104,-190.5"/>
<text text-anchor="middle" x="142" y="-197.5" font-family="Helvetica,sans-Serif" font-size="10.00">psi::print_mat</text>
</a>
</g>
</g>
<!-- Node1&#45;&gt;Node4 -->
<g id="edge3" class="edge"><title>Node1&#45;&gt;Node4</title>
<path fill="none" stroke="midnightblue" d="M46.1861,-152.634C59.1653,-160.683 78.468,-172.22 96,-181 99.5662,-182.786 103.341,-184.557 107.127,-186.258"/>
<polygon fill="midnightblue" stroke="midnightblue" points="105.884,-189.534 116.45,-190.312 108.675,-183.115 105.884,-189.534"/>
</g>
<!-- Node5 -->
<g id="node5" class="node"><title>Node5</title>
<g id="a_node5"><a xlink:href="group__CIOMR.html#ga954427c4da622125955f2d13e45aa9fb" target="_top" xlink:title="psi::dot_arr">
<polygon fill="none" stroke="black" points="109.5,-152.5 109.5,-171.5 174.5,-171.5 174.5,-152.5 109.5,-152.5"/>
<text text-anchor="middle" x="142" y="-159.5" font-family="Helvetica,sans-Serif" font-size="10.00">psi::dot_arr</text>
</a>
</g>
</g>
<!-- Node1&#45;&gt;Node5 -->
<g id="edge4" class="edge"><title>Node1&#45;&gt;Node5</title>
<path fill="none" stroke="midnightblue" d="M59.6141,-147.942C71.7885,-150.045 86.2234,-152.539 99.5314,-154.837"/>
<polygon fill="midnightblue" stroke="midnightblue" points="98.9825,-158.294 109.432,-156.547 100.174,-151.396 98.9825,-158.294"/>
</g>
<!-- Node6 -->
<g id="node6" class="node"><title>Node6</title>
<g id="a_node6"><a xlink:href="group__CIOMR.html#ga4fe0e3d471a7dea06882d4c997775e1b" target="_top" xlink:title="psi::zero_mat">
<polygon fill="none" stroke="black" points="104,-114.5 104,-133.5 180,-133.5 180,-114.5 104,-114.5"/>
<text text-anchor="middle" x="142" y="-121.5" font-family="Helvetica,sans-Serif" font-size="10.00">psi::zero_mat</text>
</a>
</g>
</g>
<!-- Node1&#45;&gt;Node6 -->
<g id="edge5" class="edge"><title>Node1&#45;&gt;Node6</title>
<path fill="none" stroke="midnightblue" d="M59.6141,-138.058C70.0518,-136.255 82.1512,-134.165 93.7774,-132.157"/>
<polygon fill="midnightblue" stroke="midnightblue" points="94.5606,-135.573 103.819,-130.422 93.3691,-128.675 94.5606,-135.573"/>
</g>
<!-- Node7 -->
<g id="node7" class="node"><title>Node7</title>
<g id="a_node7"><a xlink:href="group__CIOMR.html#gafd02dddc9cfd72712540c0e7a437e55d" target="_top" xlink:title="psi::flin">
<polygon fill="none" stroke="black" points="118,-76.5 118,-95.5 166,-95.5 166,-76.5 118,-76.5"/>
<text text-anchor="middle" x="142" y="-83.5" font-family="Helvetica,sans-Serif" font-size="10.00">psi::flin</text>
</a>
</g>
</g>
<!-- Node1&#45;&gt;Node7 -->
<g id="edge6" class="edge"><title>Node1&#45;&gt;Node7</title>
<path fill="none" stroke="midnightblue" d="M46.1861,-133.366C59.1653,-125.317 78.468,-113.78 96,-105 100.033,-102.98 104.333,-100.98 108.614,-99.0775"/>
<polygon fill="midnightblue" stroke="midnightblue" points="110.047,-102.271 117.847,-95.101 107.278,-95.8421 110.047,-102.271"/>
</g>
<!-- Node8 -->
<g id="node8" class="node"><title>Node8</title>
<g id="a_node8"><a xlink:href="group__CIOMR.html#ga683e8ba2785d12eb3a459661fc3f2b68" target="_top" xlink:title="psi::zero_arr">
<polygon fill="none" stroke="black" points="106.5,-38.5 106.5,-57.5 177.5,-57.5 177.5,-38.5 106.5,-38.5"/>
<text text-anchor="middle" x="142" y="-45.5" font-family="Helvetica,sans-Serif" font-size="10.00">psi::zero_arr</text>
</a>
</g>
</g>
<!-- Node1&#45;&gt;Node8 -->
<g id="edge8" class="edge"><title>Node1&#45;&gt;Node8</title>
<path fill="none" stroke="midnightblue" d="M37.075,-133.336C47.4313,-117.544 69.9325,-86.0615 96,-67 98.3745,-65.2637 100.932,-63.649 103.579,-62.155"/>
<polygon fill="midnightblue" stroke="midnightblue" points="105.416,-65.1489 112.787,-57.5385 102.279,-58.8912 105.416,-65.1489"/>
</g>
<!-- Node9 -->
<g id="node9" class="node"><title>Node9</title>
<g id="a_node9"><a xlink:href="group__CIOMR.html#gaeb4fe42f2b28f61fece2c6d63096126e" target="_top" xlink:title="psi::free_block">
<polygon fill="none" stroke="black" points="102,-0.5 102,-19.5 182,-19.5 182,-0.5 102,-0.5"/>
<text text-anchor="middle" x="142" y="-7.5" font-family="Helvetica,sans-Serif" font-size="10.00">psi::free_block</text>
</a>
</g>
</g>
<!-- Node1&#45;&gt;Node9 -->
<g id="edge9" class="edge"><title>Node1&#45;&gt;Node9</title>
<path fill="none" stroke="midnightblue" d="M34.0788,-133.364C41.4198,-111.815 61.9261,-59.2521 96,-29 97.7003,-27.4904 99.5381,-26.0886 101.466,-24.7885"/>
<polygon fill="midnightblue" stroke="midnightblue" points="103.396,-27.7171 110.347,-19.7217 99.9271,-21.6369 103.396,-27.7171"/>
</g>
<!-- Node7&#45;&gt;Node3 -->
<g id="edge7" class="edge"><title>Node7&#45;&gt;Node3</title>
<path fill="none" stroke="midnightblue" d="M166.46,-94.536C173.57,-97.4822 181.273,-101.048 188,-105 207.933,-116.712 228.503,-133.248 242.707,-145.496"/>
<polygon fill="midnightblue" stroke="midnightblue" points="240.456,-148.177 250.281,-152.142 245.073,-142.915 240.456,-148.177"/>
</g>
</g>
</svg>
