<?xml version="1.0" encoding="UTF-8" standalone="no"?>
<!DOCTYPE svg PUBLIC "-//W3C//DTD SVG 1.1//EN"
 "http://www.w3.org/Graphics/SVG/1.1/DTD/svg11.dtd">
<!-- Generated by graphviz version 2.30.1 (20140110.0959)
 -->
<!-- Title: psi::psio_error Pages: 1 -->
<!--zoomable 629 -->
<svg id="main" version="1.1" xmlns="http://www.w3.org/2000/svg" xmlns:xlink="http://www.w3.org/1999/xlink" xml:space="preserve" onload="init(evt)">
        <defs>
                <circle id="rim" cx="0" cy="0" r="7"/>
                <circle id="rim2" cx="0" cy="0" r="3.5"/>
                <g id="zoomPlus">
                        <use xlink:href="#rim" fill="#404040">
                                <set attributeName="fill" to="#808080" begin="zoomplus.mouseover" end="zoomplus.mouseout"/>
                        </use>
                        <path d="M-4,0h8M0,-4v8" fill="none" stroke="white" stroke-width="1.5" pointer-events="none"/>
                </g>
                <g id="zoomMin">
                        <use xlink:href="#rim" fill="#404040">
                                <set attributeName="fill" to="#808080" begin="zoomminus.mouseover" end="zoomminus.mouseout"/>
                        </use>
                        <path d="M-4,0h8" fill="none" stroke="white" stroke-width="1.5" pointer-events="none"/>
                </g>
                <g id="dirArrow">
                        <path fill="none" stroke="white" stroke-width="1.5" d="M0,-3.0v7 M-2.5,-0.5L0,-3.0L2.5,-0.5"/>
                </g>
               <g id="resetDef">
                       <use xlink:href="#rim2" fill="#404040">
                               <set attributeName="fill" to="#808080" begin="reset.mouseover" end="reset.mouseout"/>
                       </use>
               </g>
        </defs>

<script type="text/javascript">
var viewWidth = 906;
var viewHeight = 629;
var sectionId = 'dynsection-1';
</script>
<script xlink:href="svgpan.js"/>
<svg id="graph" class="graph">
<g id="viewport">
<title>psi::psio_error</title>
<!-- Node1 -->
<g id="node1" class="node"><title>Node1</title>
<polygon fill="#bfbfbf" stroke="black" points="0,-189.508 0,-208.508 78,-208.508 78,-189.508 0,-189.508"/>
<text text-anchor="middle" x="39" y="-196.508" font-family="Helvetica,sans-Serif" font-size="10.00">psi::psio_error</text>
</g>
<!-- Node2 -->
<g id="node2" class="node"><title>Node2</title>
<g id="a_node2"><a xlink:href="classpsi_1_1PSIO.html#adbd402c15bc7514c6ccaf1838a138858" target="_top" xlink:title="close unit. if keep == 0, will remove the file, else keep it">
<polygon fill="none" stroke="black" points="114.5,-383.508 114.5,-402.508 203.5,-402.508 203.5,-383.508 114.5,-383.508"/>
<text text-anchor="middle" x="159" y="-390.508" font-family="Helvetica,sans-Serif" font-size="10.00">psi::PSIO::close</text>
</a>
</g>
</g>
<!-- Node1&#45;&gt;Node2 -->
<g id="edge1" class="edge"><title>Node1&#45;&gt;Node2</title>
<path fill="none" stroke="midnightblue" d="M51.2015,-217.424C75.7341,-257.757 133.504,-352.735 152.113,-383.33"/>
<polygon fill="midnightblue" stroke="midnightblue" points="54.0387,-215.354 45.8516,-208.629 48.0581,-218.991 54.0387,-215.354"/>
</g>
<!-- Node22 -->
<g id="node22" class="node"><title>Node22</title>
<g id="a_node22"><a xlink:href="classpsi_1_1PSIO.html#ad9843039bda332ccadfc7f47ec4ada25" target="_top" xlink:title="open unit. status can be PSIO_OPEN_OLD (if existing file is to be opened) or PSIO_OPEN_NEW if new fil...">
<polygon fill="none" stroke="black" points="116,-285.508 116,-304.508 202,-304.508 202,-285.508 116,-285.508"/>
<text text-anchor="middle" x="159" y="-292.508" font-family="Helvetica,sans-Serif" font-size="10.00">psi::PSIO::open</text>
</a>
</g>
</g>
<!-- Node1&#45;&gt;Node22 -->
<g id="edge27" class="edge"><title>Node1&#45;&gt;Node22</title>
<path fill="none" stroke="midnightblue" d="M59.4675,-215.212C74.3468,-227.558 95.3961,-244.943 114,-260.008 124.62,-268.608 136.783,-278.269 145.626,-285.259"/>
<polygon fill="midnightblue" stroke="midnightblue" points="61.4135,-212.278 51.4849,-208.58 56.9403,-217.662 61.4135,-212.278"/>
</g>
<!-- Node7 -->
<g id="node7" class="node"><title>Node7</title>
<g id="a_node7"><a xlink:href="classpsi_1_1PSIO.html#a55e993b2eb05c261d90888c90d854e23" target="_top" xlink:title="check if a psi unit already exists or not">
<polygon fill="none" stroke="black" points="245,-573.508 245,-592.508 337,-592.508 337,-573.508 245,-573.508"/>
<text text-anchor="middle" x="291" y="-580.508" font-family="Helvetica,sans-Serif" font-size="10.00">psi::PSIO::exists</text>
</a>
</g>
</g>
<!-- Node1&#45;&gt;Node7 -->
<g id="edge37" class="edge"><title>Node1&#45;&gt;Node7</title>
<path fill="none" stroke="midnightblue" d="M44.2803,-218.932C53.2095,-257.915 76.192,-346.204 114,-412.008 156.868,-486.619 171.751,-506.601 240,-559.008 247.484,-564.755 256.566,-569.619 264.925,-573.434"/>
<polygon fill="midnightblue" stroke="midnightblue" points="47.6359,-217.899 42.046,-208.898 40.8033,-219.42 47.6359,-217.899"/>
</g>
<!-- Node13 -->
<g id="node13" class="node"><title>Node13</title>
<g id="a_node13"><a xlink:href="classpsi_1_1PSIO.html#a20e9bd359e831a80b55ec64673394cd0" target="_top" xlink:title="psi::PSIO::read">
<polygon fill="none" stroke="black" points="385,-67.5082 385,-86.5082 469,-86.5082 469,-67.5082 385,-67.5082"/>
<text text-anchor="middle" x="427" y="-74.5082" font-family="Helvetica,sans-Serif" font-size="10.00">psi::PSIO::read</text>
</a>
</g>
</g>
<!-- Node1&#45;&gt;Node13 -->
<g id="edge38" class="edge"><title>Node1&#45;&gt;Node13</title>
<path fill="none" stroke="midnightblue" d="M48.1885,-180.154C59.3576,-157.004 81.7373,-118.65 114,-101.008 200.871,-53.5049 322.181,-61.4744 384.867,-70.0087"/>
<polygon fill="midnightblue" stroke="midnightblue" points="44.9734,-178.768 43.9708,-189.315 51.3319,-181.695 44.9734,-178.768"/>
</g>
<!-- Node14 -->
<g id="node14" class="node"><title>Node14</title>
<g id="a_node14"><a xlink:href="group__PSIO.html#ga0b989c316ebc107f83ab7eb921a6f38c" target="_top" xlink:title="psi::PSIO::rw">
<polygon fill="none" stroke="black" points="527,-86.5082 527,-105.508 603,-105.508 603,-86.5082 527,-86.5082"/>
<text text-anchor="middle" x="565" y="-93.5082" font-family="Helvetica,sans-Serif" font-size="10.00">psi::PSIO::rw</text>
</a>
</g>
</g>
<!-- Node1&#45;&gt;Node14 -->
<g id="edge39" class="edge"><title>Node1&#45;&gt;Node14</title>
<path fill="none" stroke="midnightblue" d="M68.401,-184.975C81.9816,-178.62 98.6014,-171.353 114,-166.008 261.145,-114.933 448.305,-101.013 526.758,-97.3101"/>
<polygon fill="midnightblue" stroke="midnightblue" points="66.6335,-181.94 59.1103,-189.4 69.6436,-188.26 66.6335,-181.94"/>
</g>
<!-- Node16 -->
<g id="node16" class="node"><title>Node16</title>
<g id="a_node16"><a xlink:href="classpsi_1_1PSIO.html#a8662dbc5874d1024d04427ecc01a2f93" target="_top" xlink:title="Delete all TOC entries after the given key. If a blank key is given, the entire TOC will be wiped...">
<polygon fill="none" stroke="black" points="793,-377.508 793,-396.508 895,-396.508 895,-377.508 793,-377.508"/>
<text text-anchor="middle" x="844" y="-384.508" font-family="Helvetica,sans-Serif" font-size="10.00">psi::PSIO::tocclean</text>
</a>
</g>
</g>
<!-- Node1&#45;&gt;Node16 -->
<g id="edge40" class="edge"><title>Node1&#45;&gt;Node16</title>
<path fill="none" stroke="midnightblue" d="M41.9849,-218.759C51.5461,-302.132 100.502,-621.008 290,-621.008 290,-621.008 290,-621.008 566,-621.008 707.329,-621.008 813.806,-441.051 837.87,-396.765"/>
<polygon fill="midnightblue" stroke="midnightblue" points="45.4428,-218.18 40.8866,-208.615 38.4834,-218.934 45.4428,-218.18"/>
</g>
<!-- Node19 -->
<g id="node19" class="node"><title>Node19</title>
<g id="a_node19"><a xlink:href="classpsi_1_1PSIO.html#acaf0018068dc555a9fdbb0ba4662cc95" target="_top" xlink:title="psi::PSIO::rd_toclen">
<polygon fill="none" stroke="black" points="512.5,-38.5082 512.5,-57.5082 617.5,-57.5082 617.5,-38.5082 512.5,-38.5082"/>
<text text-anchor="middle" x="565" y="-45.5082" font-family="Helvetica,sans-Serif" font-size="10.00">psi::PSIO::rd_toclen</text>
</a>
</g>
</g>
<!-- Node1&#45;&gt;Node19 -->
<g id="edge41" class="edge"><title>Node1&#45;&gt;Node19</title>
<path fill="none" stroke="midnightblue" d="M44.6765,-179.55C52.984,-149.718 73.3966,-93.4646 114,-68.0082 178.932,-27.299 408.219,-37.2021 512.13,-44.0804"/>
<polygon fill="midnightblue" stroke="midnightblue" points="41.2865,-178.68 42.1486,-189.24 48.0597,-180.447 41.2865,-178.68"/>
</g>
<!-- Node11 -->
<g id="node11" class="node"><title>Node11</title>
<g id="a_node11"><a xlink:href="classpsi_1_1PSIO.html#a5646f6a4991f52588a42e54bad3261ef" target="_top" xlink:title="Scans the TOC for a particular keyword and returns either a pointer to the entry or NULL to the calle...">
<polygon fill="none" stroke="black" points="241,-143.508 241,-162.508 341,-162.508 341,-143.508 241,-143.508"/>
<text text-anchor="middle" x="291" y="-150.508" font-family="Helvetica,sans-Serif" font-size="10.00">psi::PSIO::tocscan</text>
</a>
</g>
</g>
<!-- Node1&#45;&gt;Node11 -->
<g id="edge42" class="edge"><title>Node1&#45;&gt;Node11</title>
<path fill="none" stroke="midnightblue" d="M88.0857,-190.16C131.9,-182.099 196.337,-170.242 240.567,-162.104"/>
<polygon fill="midnightblue" stroke="midnightblue" points="87.4433,-186.72 78.2418,-191.972 88.7101,-193.604 87.4433,-186.72"/>
</g>
<!-- Node21 -->
<g id="node21" class="node"><title>Node21</title>
<g id="a_node21"><a xlink:href="classpsi_1_1PSIO.html#abb58a8a71cf2dcdfa8f596310e8e7a11" target="_top" xlink:title="Checks the TOC to see if a particular keyword exists there or not.">
<polygon fill="none" stroke="black" points="240.5,-258.008 240.5,-288.008 341.5,-288.008 341.5,-258.008 240.5,-258.008"/>
<text text-anchor="start" x="248.5" y="-276.008" font-family="Helvetica,sans-Serif" font-size="10.00">psi::PSIO::tocentry</text>
<text text-anchor="middle" x="291" y="-265.008" font-family="Helvetica,sans-Serif" font-size="10.00">_exists</text>
</a>
</g>
</g>
<!-- Node1&#45;&gt;Node21 -->
<g id="edge43" class="edge"><title>Node1&#45;&gt;Node21</title>
<path fill="none" stroke="midnightblue" d="M81.9002,-211.411C125.552,-224.332 193.923,-244.569 240.28,-258.291"/>
<polygon fill="midnightblue" stroke="midnightblue" points="82.7535,-208.013 72.1713,-208.531 80.7667,-214.725 82.7535,-208.013"/>
</g>
<!-- Node17 -->
<g id="node17" class="node"><title>Node17</title>
<g id="a_node17"><a xlink:href="classpsi_1_1PSIO.html#abaa2e29b2fbcab920d8daf8f5ae5419c" target="_top" xlink:title="psi::PSIO::write">
<polygon fill="none" stroke="black" points="661,-86.5082 661,-105.508 747,-105.508 747,-86.5082 661,-86.5082"/>
<text text-anchor="middle" x="704" y="-93.5082" font-family="Helvetica,sans-Serif" font-size="10.00">psi::PSIO::write</text>
</a>
</g>
</g>
<!-- Node1&#45;&gt;Node17 -->
<g id="edge44" class="edge"><title>Node1&#45;&gt;Node17</title>
<path fill="none" stroke="midnightblue" d="M43.4282,-179.41C50.3962,-145.687 69.4956,-76.8598 114,-41.0082 176.469,9.31498 209.783,-1.0082 290,-1.0082 290,-1.0082 290,-1.0082 428,-1.0082 513.356,-1.0082 539.613,4.77448 618,-29.0082 649.751,-42.692 679.771,-71.3176 694.146,-86.3371"/>
<polygon fill="midnightblue" stroke="midnightblue" points="39.9581,-178.922 41.5111,-189.402 46.8327,-180.241 39.9581,-178.922"/>
</g>
<!-- Node3 -->
<g id="node3" class="node"><title>Node3</title>
<g id="a_node3"><a xlink:href="classpsi_1_1IWL.html#a202f7c51f0e4852cb5c6068bc594acc3" target="_top" xlink:title="psi::IWL::init">
<polygon fill="none" stroke="black" points="391,-295.508 391,-314.508 463,-314.508 463,-295.508 391,-295.508"/>
<text text-anchor="middle" x="427" y="-302.508" font-family="Helvetica,sans-Serif" font-size="10.00">psi::IWL::init</text>
</a>
</g>
</g>
<!-- Node2&#45;&gt;Node3 -->
<g id="edge2" class="edge"><title>Node2&#45;&gt;Node3</title>
<path fill="none" stroke="midnightblue" d="M176.695,-409.711C191.775,-423.529 215.331,-442.119 240,-450.008 283.179,-463.817 305.435,-476.806 342,-450.008 384.856,-418.6 345.776,-378.254 378,-336.008 384.859,-327.016 395.127,-319.885 404.409,-314.741"/>
<polygon fill="midnightblue" stroke="midnightblue" points="178.896,-406.975 169.235,-402.624 174.074,-412.049 178.896,-406.975"/>
</g>
<!-- Node4 -->
<g id="node4" class="node"><title>Node4</title>
<g id="a_node4"><a xlink:href="classpsi_1_1Chkpt.html#aca792d05dece12c66d19cf2938bf0c50" target="_top" xlink:title="psi::Chkpt::~Chkpt">
<polygon fill="none" stroke="black" points="241,-497.508 241,-516.508 341,-516.508 341,-497.508 241,-497.508"/>
<text text-anchor="middle" x="291" y="-504.508" font-family="Helvetica,sans-Serif" font-size="10.00">psi::Chkpt::~Chkpt</text>
</a>
</g>
</g>
<!-- Node2&#45;&gt;Node4 -->
<g id="edge3" class="edge"><title>Node2&#45;&gt;Node4</title>
<path fill="none" stroke="midnightblue" d="M172.5,-410.902C186.953,-430.575 212.328,-462.153 240,-483.008 247.613,-488.745 256.815,-493.635 265.239,-497.473"/>
<polygon fill="midnightblue" stroke="midnightblue" points="175.169,-408.618 166.49,-402.541 169.485,-412.704 175.169,-408.618"/>
</g>
<!-- Node5 -->
<g id="node5" class="node"><title>Node5</title>
<g id="a_node5"><a xlink:href="classpsi_1_1Matrix.html#a504437ba978cdadc160b0a41e7bdc1b0" target="_top" xlink:title="psi::Matrix::save">
<polygon fill="none" stroke="black" points="246.5,-383.508 246.5,-402.508 335.5,-402.508 335.5,-383.508 246.5,-383.508"/>
<text text-anchor="middle" x="291" y="-390.508" font-family="Helvetica,sans-Serif" font-size="10.00">psi::Matrix::save</text>
</a>
</g>
</g>
<!-- Node2&#45;&gt;Node5 -->
<g id="edge4" class="edge"><title>Node2&#45;&gt;Node5</title>
<path fill="none" stroke="midnightblue" d="M213.829,-393.008C224.623,-393.008 235.842,-393.008 246.244,-393.008"/>
<polygon fill="midnightblue" stroke="midnightblue" points="213.65,-389.508 203.65,-393.008 213.65,-396.508 213.65,-389.508"/>
</g>
<!-- Node6 -->
<g id="node6" class="node"><title>Node6</title>
<g id="a_node6"><a xlink:href="classpsi_1_1Matrix.html#a5565e99a42eea2302f10857c1dc2b28c" target="_top" xlink:title="psi::Matrix::load">
<polygon fill="none" stroke="black" points="248,-307.508 248,-326.508 334,-326.508 334,-307.508 248,-307.508"/>
<text text-anchor="middle" x="291" y="-314.508" font-family="Helvetica,sans-Serif" font-size="10.00">psi::Matrix::load</text>
</a>
</g>
</g>
<!-- Node2&#45;&gt;Node6 -->
<g id="edge5" class="edge"><title>Node2&#45;&gt;Node6</title>
<path fill="none" stroke="midnightblue" d="M179.467,-376.976C195.121,-364.631 218.049,-347.748 240,-336.008 246.633,-332.461 254.074,-329.256 261.148,-326.533"/>
<polygon fill="midnightblue" stroke="midnightblue" points="177.184,-374.32 171.571,-383.306 181.563,-379.782 177.184,-374.32"/>
</g>
<!-- Node2&#45;&gt;Node7 -->
<g id="edge6" class="edge"><title>Node2&#45;&gt;Node7</title>
<path fill="none" stroke="midnightblue" d="M168.172,-411.712C186.2,-452.701 228.678,-547.704 240,-559.008 246.064,-565.063 253.955,-569.809 261.67,-573.424"/>
<polygon fill="midnightblue" stroke="midnightblue" points="171.371,-410.291 164.149,-402.538 164.96,-413.102 171.371,-410.291"/>
</g>
<!-- Node8 -->
<g id="node8" class="node"><title>Node8</title>
<g id="a_node8"><a xlink:href="classpsi_1_1PSIO.html#a23ff92893b98ff855a4a2a0f46798965" target="_top" xlink:title="sync up the object to the file on disk by closing and opening the file, if necessary">
<polygon fill="none" stroke="black" points="243.5,-345.508 243.5,-364.508 338.5,-364.508 338.5,-345.508 243.5,-345.508"/>
<text text-anchor="middle" x="291" y="-352.508" font-family="Helvetica,sans-Serif" font-size="10.00">psi::PSIO::rehash</text>
</a>
</g>
</g>
<!-- Node2&#45;&gt;Node8 -->
<g id="edge7" class="edge"><title>Node2&#45;&gt;Node8</title>
<path fill="none" stroke="midnightblue" d="M202.884,-380.473C220.569,-375.303 240.734,-369.409 257.206,-364.594"/>
<polygon fill="midnightblue" stroke="midnightblue" points="201.421,-377.254 192.804,-383.419 203.385,-383.973 201.421,-377.254"/>
</g>
<!-- Node10 -->
<g id="node10" class="node"><title>Node10</title>
<g id="a_node10"><a xlink:href="classpsi_1_1PSIO.html#a12ae14f94e24babb41b403a059ab9855" target="_top" xlink:title="Print the table of contents for the given unit.">
<polygon fill="none" stroke="black" points="242,-421.508 242,-440.508 340,-440.508 340,-421.508 242,-421.508"/>
<text text-anchor="middle" x="291" y="-428.508" font-family="Helvetica,sans-Serif" font-size="10.00">psi::PSIO::tocprint</text>
</a>
</g>
</g>
<!-- Node2&#45;&gt;Node10 -->
<g id="edge9" class="edge"><title>Node2&#45;&gt;Node10</title>
<path fill="none" stroke="midnightblue" d="M202.884,-405.543C220.569,-410.713 240.734,-416.607 257.206,-421.422"/>
<polygon fill="midnightblue" stroke="midnightblue" points="203.385,-402.044 192.804,-402.597 201.421,-408.762 203.385,-402.044"/>
</g>
<!-- Node2&#45;&gt;Node11 -->
<g id="edge10" class="edge"><title>Node2&#45;&gt;Node11</title>
<path fill="none" stroke="midnightblue" d="M170.455,-374.454C179.429,-358.476 192.669,-334.78 204,-314.008 235.11,-256.979 271.543,-188.044 284.824,-162.841"/>
<polygon fill="midnightblue" stroke="midnightblue" points="167.326,-372.877 165.474,-383.309 173.427,-376.309 167.326,-372.877"/>
</g>
<!-- Node2&#45;&gt;Node21 -->
<g id="edge26" class="edge"><title>Node2&#45;&gt;Node21</title>
<path fill="none" stroke="midnightblue" d="M171.935,-374.762C186.177,-354.078 211.653,-320.341 240,-298.008 244.65,-294.345 249.923,-291.007 255.258,-288.049"/>
<polygon fill="midnightblue" stroke="midnightblue" points="168.895,-373.009 166.211,-383.259 174.701,-376.92 168.895,-373.009"/>
</g>
<!-- Node9 -->
<g id="node9" class="node"><title>Node9</title>
<g id="a_node9"><a xlink:href="classpsi_1_1Chkpt.html#a7e767ca0c7ddc8c6657bc2963a875531" target="_top" xlink:title="update this object. call rehash() if the state of the checkpoint file may have changed">
<polygon fill="none" stroke="black" points="378.5,-345.508 378.5,-364.508 475.5,-364.508 475.5,-345.508 378.5,-345.508"/>
<text text-anchor="middle" x="427" y="-352.508" font-family="Helvetica,sans-Serif" font-size="10.00">psi::Chkpt::rehash</text>
</a>
</g>
</g>
<!-- Node8&#45;&gt;Node9 -->
<g id="edge8" class="edge"><title>Node8&#45;&gt;Node9</title>
<path fill="none" stroke="midnightblue" d="M348.97,-355.008C358.803,-355.008 368.93,-355.008 378.48,-355.008"/>
<polygon fill="midnightblue" stroke="midnightblue" points="348.867,-351.508 338.867,-355.008 348.867,-358.508 348.867,-351.508"/>
</g>
<!-- Node11&#45;&gt;Node3 -->
<g id="edge11" class="edge"><title>Node11&#45;&gt;Node3</title>
<path fill="none" stroke="midnightblue" d="M307.444,-170.136C317.894,-182.189 331.629,-198.969 342,-215.008 361.21,-244.719 351.854,-262.172 378,-286.008 382.239,-289.873 387.358,-292.992 392.653,-295.498"/>
<polygon fill="midnightblue" stroke="midnightblue" points="310.053,-167.803 300.816,-162.615 304.801,-172.431 310.053,-167.803"/>
</g>
<!-- Node12 -->
<g id="node12" class="node"><title>Node12</title>
<g id="a_node12"><a xlink:href="classpsi_1_1Chkpt.html#a077936f112012a2de9dd5c36f6450263" target="_top" xlink:title="psi::Chkpt::Chkpt">
<polygon fill="none" stroke="black" points="380,-257.508 380,-276.508 474,-276.508 474,-257.508 380,-257.508"/>
<text text-anchor="middle" x="427" y="-264.508" font-family="Helvetica,sans-Serif" font-size="10.00">psi::Chkpt::Chkpt</text>
</a>
</g>
</g>
<!-- Node11&#45;&gt;Node12 -->
<g id="edge12" class="edge"><title>Node11&#45;&gt;Node12</title>
<path fill="none" stroke="midnightblue" d="M329.107,-167.335C333.774,-170.103 338.226,-173.315 342,-177.008 367.288,-201.752 351.854,-224.172 378,-248.008 382.239,-251.873 387.358,-254.992 392.653,-257.498"/>
<polygon fill="midnightblue" stroke="midnightblue" points="330.474,-164.099 319.993,-162.55 327.22,-170.297 330.474,-164.099"/>
</g>
<!-- Node11&#45;&gt;Node13 -->
<g id="edge13" class="edge"><title>Node11&#45;&gt;Node13</title>
<path fill="none" stroke="midnightblue" d="M317.839,-138.353C344.769,-123.08 386.183,-99.5909 409.167,-86.5555"/>
<polygon fill="midnightblue" stroke="midnightblue" points="315.943,-135.405 308.971,-143.383 319.396,-141.494 315.943,-135.405"/>
</g>
<!-- Node11&#45;&gt;Node16 -->
<g id="edge23" class="edge"><title>Node11&#45;&gt;Node16</title>
<path fill="none" stroke="midnightblue" d="M338.18,-165.25C375.793,-175.711 430.008,-191.91 476,-210.008 614.562,-264.533 773.391,-349.063 825.472,-377.389"/>
<polygon fill="midnightblue" stroke="midnightblue" points="339.082,-161.868 328.511,-162.586 337.222,-168.617 339.082,-161.868"/>
</g>
<!-- Node20 -->
<g id="node20" class="node"><title>Node20</title>
<g id="a_node20"><a xlink:href="classpsi_1_1PSIO.html#abb4334d8aaaa03e32d8b9d9450b598e1" target="_top" xlink:title="delete a specific TOC entry (only deletes entry, not data)">
<polygon fill="none" stroke="black" points="381,-219.508 381,-238.508 473,-238.508 473,-219.508 381,-219.508"/>
<text text-anchor="middle" x="427" y="-226.508" font-family="Helvetica,sans-Serif" font-size="10.00">psi::PSIO::tocdel</text>
</a>
</g>
</g>
<!-- Node11&#45;&gt;Node20 -->
<g id="edge24" class="edge"><title>Node11&#45;&gt;Node20</title>
<path fill="none" stroke="midnightblue" d="M323.869,-167.046C330.013,-170.101 336.305,-173.483 342,-177.008 359.235,-187.677 360.852,-194.201 378,-205.008 386.355,-210.274 396.021,-215.294 404.479,-219.368"/>
<polygon fill="midnightblue" stroke="midnightblue" points="324.975,-163.695 314.443,-162.538 321.955,-170.01 324.975,-163.695"/>
</g>
<!-- Node11&#45;&gt;Node17 -->
<g id="edge25" class="edge"><title>Node11&#45;&gt;Node17</title>
<path fill="none" stroke="midnightblue" d="M351.242,-147.968C416.769,-141.959 525.347,-130.72 618,-115.008 633.206,-112.43 649.789,-108.889 664.237,-105.563"/>
<polygon fill="midnightblue" stroke="midnightblue" points="350.747,-144.498 341.104,-148.887 351.379,-151.469 350.747,-144.498"/>
</g>
<!-- Node13&#45;&gt;Node14 -->
<g id="edge14" class="edge"><title>Node13&#45;&gt;Node14</title>
<path fill="none" stroke="midnightblue" d="M479.296,-77.6089C498.48,-79.8576 519.556,-83.1277 535.885,-86.4919"/>
<polygon fill="midnightblue" stroke="midnightblue" points="479.495,-74.1099 469.174,-76.5008 478.733,-81.0683 479.495,-74.1099"/>
</g>
<!-- Node13&#45;&gt;Node19 -->
<g id="edge22" class="edge"><title>Node13&#45;&gt;Node19</title>
<path fill="none" stroke="midnightblue" d="M479.046,-66.1234C492.234,-63.3112 506.331,-60.3052 519.176,-57.5663"/>
<polygon fill="midnightblue" stroke="midnightblue" points="478.224,-62.7199 469.174,-68.2285 479.684,-69.566 478.224,-62.7199"/>
</g>
<!-- Node14&#45;&gt;Node13 -->
<g id="edge15" class="edge"><title>Node14&#45;&gt;Node13</title>
<path fill="none" stroke="midnightblue" d="M516.844,-95.88C496.625,-93.6351 473.684,-90.1411 456.179,-86.5377"/>
<polygon fill="midnightblue" stroke="midnightblue" points="516.514,-99.3645 526.819,-96.9055 517.229,-92.4012 516.514,-99.3645"/>
</g>
<!-- Node15 -->
<g id="node15" class="node"><title>Node15</title>
<g id="a_node15"><a xlink:href="classpsi_1_1PSIO.html#a32fcd89fe9072099cb993a455233cf15" target="_top" xlink:title="Write the table of contents for file number &#39;unit&#39;. NB: This function should NOT call psio_error beca...">
<polygon fill="none" stroke="black" points="654,-377.508 654,-396.508 754,-396.508 754,-377.508 654,-377.508"/>
<text text-anchor="middle" x="704" y="-384.508" font-family="Helvetica,sans-Serif" font-size="10.00">psi::PSIO::tocwrite</text>
</a>
</g>
</g>
<!-- Node14&#45;&gt;Node15 -->
<g id="edge16" class="edge"><title>Node14&#45;&gt;Node15</title>
<path fill="none" stroke="midnightblue" d="M574.869,-114.846C601.275,-170.935 678.766,-335.533 698.425,-377.29"/>
<polygon fill="midnightblue" stroke="midnightblue" points="577.984,-113.247 570.558,-105.69 571.651,-116.229 577.984,-113.247"/>
</g>
<!-- Node14&#45;&gt;Node17 -->
<g id="edge19" class="edge"><title>Node14&#45;&gt;Node17</title>
<path fill="none" stroke="midnightblue" d="M613.395,-89.5514C628.726,-89.1125 645.62,-89.1663 660.567,-89.7128"/>
<polygon fill="midnightblue" stroke="midnightblue" points="612.938,-86.0659 603.074,-89.934 613.197,-93.0611 612.938,-86.0659"/>
</g>
<!-- Node15&#45;&gt;Node2 -->
<g id="edge17" class="edge"><title>Node15&#45;&gt;Node2</title>
<path fill="none" stroke="midnightblue" d="M676.339,-401.23C617.852,-431.527 473.034,-501.653 342,-526.008 297.43,-534.292 276.434,-552.984 240,-526.008 195.933,-493.381 242.137,-447.403 204,-408.008 201.979,-405.921 199.657,-404.124 197.157,-402.577"/>
<polygon fill="midnightblue" stroke="midnightblue" points="678.044,-404.288 685.287,-396.555 674.803,-398.084 678.044,-404.288"/>
</g>
<!-- Node15&#45;&gt;Node16 -->
<g id="edge18" class="edge"><title>Node15&#45;&gt;Node16</title>
<path fill="none" stroke="midnightblue" d="M764.212,-387.008C773.708,-387.008 783.457,-387.008 792.718,-387.008"/>
<polygon fill="midnightblue" stroke="midnightblue" points="764.042,-383.508 754.042,-387.008 764.042,-390.508 764.042,-383.508"/>
</g>
<!-- Node17&#45;&gt;Node14 -->
<g id="edge20" class="edge"><title>Node17&#45;&gt;Node14</title>
<path fill="none" stroke="midnightblue" d="M650.402,-102.594C634.615,-102.926 617.635,-102.755 603.074,-102.082"/>
<polygon fill="midnightblue" stroke="midnightblue" points="650.671,-106.088 660.567,-102.304 650.471,-99.0906 650.671,-106.088"/>
</g>
<!-- Node18 -->
<g id="node18" class="node"><title>Node18</title>
<g id="a_node18"><a xlink:href="classpsi_1_1PSIO.html#abc5f81207cc631e4b944507ca0621381" target="_top" xlink:title="psi::PSIO::zero_disk">
<polygon fill="none" stroke="black" points="790.5,-86.5082 790.5,-105.508 897.5,-105.508 897.5,-86.5082 790.5,-86.5082"/>
<text text-anchor="middle" x="844" y="-93.5082" font-family="Helvetica,sans-Serif" font-size="10.00">psi::PSIO::zero_disk</text>
</a>
</g>
</g>
<!-- Node17&#45;&gt;Node18 -->
<g id="edge21" class="edge"><title>Node17&#45;&gt;Node18</title>
<path fill="none" stroke="midnightblue" d="M757.314,-96.0082C768.136,-96.0082 779.54,-96.0082 790.373,-96.0082"/>
<polygon fill="midnightblue" stroke="midnightblue" points="757.154,-92.5083 747.154,-96.0082 757.154,-99.5083 757.154,-92.5083"/>
</g>
<!-- Node22&#45;&gt;Node3 -->
<g id="edge28" class="edge"><title>Node22&#45;&gt;Node3</title>
<path fill="none" stroke="midnightblue" d="M179.757,-279.337C195.171,-268.164 217.651,-254.087 240,-248.008 283.744,-236.109 300.356,-230.096 342,-248.008 363.371,-257.201 358.729,-272.975 378,-286.008 383.494,-289.724 389.822,-292.879 396.044,-295.487"/>
<polygon fill="midnightblue" stroke="midnightblue" points="177.447,-276.694 171.552,-285.497 181.65,-282.292 177.447,-276.694"/>
</g>
<!-- Node22&#45;&gt;Node12 -->
<g id="edge29" class="edge"><title>Node22&#45;&gt;Node12</title>
<path fill="none" stroke="midnightblue" d="M175.503,-277.784C190.344,-262.69 214.233,-241.824 240,-233.008 282.892,-218.333 297.547,-224.118 342,-233.008 358.997,-236.408 361.941,-241.485 378,-248.008 385.639,-251.111 393.987,-254.438 401.547,-257.427"/>
<polygon fill="midnightblue" stroke="midnightblue" points="172.947,-275.393 168.604,-285.057 178.025,-280.21 172.947,-275.393"/>
</g>
<!-- Node22&#45;&gt;Node5 -->
<g id="edge30" class="edge"><title>Node22&#45;&gt;Node5</title>
<path fill="none" stroke="midnightblue" d="M173.797,-312.369C188.562,-329.965 213.469,-356.96 240,-374.008 245.781,-377.723 252.398,-380.878 258.884,-383.486"/>
<polygon fill="midnightblue" stroke="midnightblue" points="176.448,-310.082 167.4,-304.57 171.036,-314.521 176.448,-310.082"/>
</g>
<!-- Node22&#45;&gt;Node6 -->
<g id="edge31" class="edge"><title>Node22&#45;&gt;Node6</title>
<path fill="none" stroke="midnightblue" d="M212.312,-303.861C224.023,-305.843 236.306,-307.922 247.56,-309.826"/>
<polygon fill="midnightblue" stroke="midnightblue" points="212.651,-300.369 202.207,-302.151 211.483,-307.271 212.651,-300.369"/>
</g>
<!-- Node22&#45;&gt;Node7 -->
<g id="edge32" class="edge"><title>Node22&#45;&gt;Node7</title>
<path fill="none" stroke="midnightblue" d="M172.185,-313.427C182.006,-328.999 195.53,-352.193 204,-374.008 229.129,-438.725 208.168,-464.311 240,-526.008 249.778,-544.96 267.203,-562.751 278.682,-573.262"/>
<polygon fill="midnightblue" stroke="midnightblue" points="174.984,-311.309 166.627,-304.797 169.099,-315.099 174.984,-311.309"/>
</g>
<!-- Node22&#45;&gt;Node8 -->
<g id="edge33" class="edge"><title>Node22&#45;&gt;Node8</title>
<path fill="none" stroke="midnightblue" d="M186.18,-309.352C201.634,-317.585 221.695,-327.869 240,-336.008 247.467,-339.328 255.709,-342.611 263.31,-345.489"/>
<polygon fill="midnightblue" stroke="midnightblue" points="187.675,-306.182 177.21,-304.529 184.36,-312.347 187.675,-306.182"/>
</g>
<!-- Node22&#45;&gt;Node10 -->
<g id="edge34" class="edge"><title>Node22&#45;&gt;Node10</title>
<path fill="none" stroke="midnightblue" d="M168.449,-314.006C180.735,-339.621 205.849,-385.113 240,-412.008 244.815,-415.8 250.471,-418.9 256.213,-421.412"/>
<polygon fill="midnightblue" stroke="midnightblue" points="171.493,-312.251 164.111,-304.652 165.142,-315.196 171.493,-312.251"/>
</g>
<!-- Node22&#45;&gt;Node11 -->
<g id="edge35" class="edge"><title>Node22&#45;&gt;Node11</title>
<path fill="none" stroke="midnightblue" d="M168.745,-276.256C181.373,-250.893 206.877,-205.551 240,-177.008 246.856,-171.1 255.419,-166.294 263.51,-162.579"/>
<polygon fill="midnightblue" stroke="midnightblue" points="165.475,-274.979 164.273,-285.506 171.777,-278.026 165.475,-274.979"/>
</g>
<!-- Node22&#45;&gt;Node21 -->
<g id="edge36" class="edge"><title>Node22&#45;&gt;Node21</title>
<path fill="none" stroke="midnightblue" d="M212.116,-286.189C221.416,-284.615 231.081,-282.979 240.311,-281.417"/>
<polygon fill="midnightblue" stroke="midnightblue" points="211.483,-282.746 202.207,-287.865 212.651,-289.648 211.483,-282.746"/>
</g>
</g>
</svg>
        <g id="navigator" transform="translate(0 0)" fill="#404254">
                <rect fill="#f2f5e9" fill-opacity="0.5" stroke="#606060" stroke-width=".5" x="0" y="0" width="60" height="60"/>
                <use id="zoomplus" xlink:href="#zoomPlus" x="17" y="9" onmousedown="handleZoom(evt,'in')"/>
                <use id="zoomminus" xlink:href="#zoomMin" x="42" y="9" onmousedown="handleZoom(evt,'out')"/>
                <use id="reset" xlink:href="#resetDef" x="30" y="36" onmousedown="handleReset()"/>
                <g id="arrowUp" xlink:href="#dirArrow" transform="translate(30 24)" onmousedown="handlePan(0,-1)">
                  <use xlink:href="#rim" fill="#404040">
                        <set attributeName="fill" to="#808080" begin="arrowUp.mouseover" end="arrowUp.mouseout"/>
                  </use>
                  <path fill="none" stroke="white" stroke-width="1.5" d="M0,-3.0v7 M-2.5,-0.5L0,-3.0L2.5,-0.5"/>
                </g>
                <g id="arrowRight" xlink:href="#dirArrow" transform="rotate(90) translate(36 -43)" onmousedown="handlePan(1,0)">
                  <use xlink:href="#rim" fill="#404040">
                        <set attributeName="fill" to="#808080" begin="arrowRight.mouseover" end="arrowRight.mouseout"/>
                  </use>
                  <path fill="none" stroke="white" stroke-width="1.5" d="M0,-3.0v7 M-2.5,-0.5L0,-3.0L2.5,-0.5"/>
                </g>
                <g id="arrowDown" xlink:href="#dirArrow" transform="rotate(180) translate(-30 -48)" onmousedown="handlePan(0,1)">
                  <use xlink:href="#rim" fill="#404040">
                        <set attributeName="fill" to="#808080" begin="arrowDown.mouseover" end="arrowDown.mouseout"/>
                  </use>
                  <path fill="none" stroke="white" stroke-width="1.5" d="M0,-3.0v7 M-2.5,-0.5L0,-3.0L2.5,-0.5"/>
                </g>
                <g id="arrowLeft" xlink:href="#dirArrow" transform="rotate(270) translate(-36 17)" onmousedown="handlePan(-1,0)">
                  <use xlink:href="#rim" fill="#404040">
                        <set attributeName="fill" to="#808080" begin="arrowLeft.mouseover" end="arrowLeft.mouseout"/>
                  </use>
                  <path fill="none" stroke="white" stroke-width="1.5" d="M0,-3.0v7 M-2.5,-0.5L0,-3.0L2.5,-0.5"/>
                </g>
        </g>
        <svg viewBox="0 0 15 15" width="100%" height="30px" preserveAspectRatio="xMaxYMin meet">
         <g id="arrow_out" transform="scale(0.3 0.3)">
          <a xlink:href="group__PSIO_ga1e6c081b5776af1cc3d21a8a1cb5c337_icgraph_org.svg" target="_base">
           <rect id="button" ry="5" rx="5" y="6" x="6" height="38" width="38"
                fill="#f2f5e9" fill-opacity="0.5" stroke="#606060" stroke-width="1.0"/>
           <path id="arrow"
             d="M 11.500037,31.436501 C 11.940474,20.09759 22.043105,11.32322 32.158766,21.979434 L 37.068811,17.246167 C 37.068811,17.246167 37.088388,32 37.088388,32 L 22.160133,31.978069 C 22.160133,31.978069 26.997745,27.140456 26.997745,27.140456 C 18.528582,18.264221 13.291696,25.230495 11.500037,31.436501 z"
             style="fill:#404040;"/>
          </a>
         </g>
        </svg>
</svg>
