<?xml version="1.0" encoding="UTF-8" standalone="no"?>
<!DOCTYPE svg PUBLIC "-//W3C//DTD SVG 1.1//EN"
 "http://www.w3.org/Graphics/SVG/1.1/DTD/svg11.dtd">
<!-- Generated by graphviz version 2.30.1 (20140110.0959)
 -->
<!-- Title: psi::iwl_buf_wrt_all Pages: 1 -->
<svg width="346pt" height="28pt"
 viewBox="0.00 0.00 346.00 28.00" xmlns="http://www.w3.org/2000/svg" xmlns:xlink="http://www.w3.org/1999/xlink">
<g id="graph0" class="graph" transform="scale(1 1) rotate(0) translate(4 24)">
<title>psi::iwl_buf_wrt_all</title>
<!-- Node1 -->
<g id="node1" class="node"><title>Node1</title>
<polygon fill="#bfbfbf" stroke="black" points="0,-0.5 0,-19.5 100,-19.5 100,-0.5 0,-0.5"/>
<text text-anchor="middle" x="50" y="-7.5" font-family="Helvetica,sans-Serif" font-size="10.00">psi::iwl_buf_wrt_all</text>
</g>
<!-- Node2 -->
<g id="node2" class="node"><title>Node2</title>
<g id="a_node2"><a xlink:href="group__IWL.html#ga305abfee9d72d2cd5c2c39a823da7680" target="_top" xlink:title="psi::iwl_buf_put">
<polygon fill="none" stroke="black" points="136.5,-0.5 136.5,-19.5 221.5,-19.5 221.5,-0.5 136.5,-0.5"/>
<text text-anchor="middle" x="179" y="-7.5" font-family="Helvetica,sans-Serif" font-size="10.00">psi::iwl_buf_put</text>
</a>
</g>
</g>
<!-- Node1&#45;&gt;Node2 -->
<g id="edge1" class="edge"><title>Node1&#45;&gt;Node2</title>
<path fill="none" stroke="midnightblue" d="M100.102,-10C108.731,-10 117.734,-10 126.428,-10"/>
<polygon fill="midnightblue" stroke="midnightblue" points="126.451,-13.5001 136.451,-10 126.451,-6.5001 126.451,-13.5001"/>
</g>
<!-- Node3 -->
<g id="node3" class="node"><title>Node3</title>
<g id="a_node3"><a xlink:href="group__PSIO.html#gaac73c196234f26dcd094674cc29a6b18" target="_top" xlink:title="psi::psio_write">
<polygon fill="none" stroke="black" points="258,-0.5 258,-19.5 338,-19.5 338,-0.5 258,-0.5"/>
<text text-anchor="middle" x="298" y="-7.5" font-family="Helvetica,sans-Serif" font-size="10.00">psi::psio_write</text>
</a>
</g>
</g>
<!-- Node2&#45;&gt;Node3 -->
<g id="edge2" class="edge"><title>Node2&#45;&gt;Node3</title>
<path fill="none" stroke="midnightblue" d="M221.579,-10C230.077,-10 239.096,-10 247.83,-10"/>
<polygon fill="midnightblue" stroke="midnightblue" points="247.903,-13.5001 257.903,-10 247.903,-6.5001 247.903,-13.5001"/>
</g>
</g>
</svg>
