<?xml version="1.0" encoding="UTF-8" standalone="no"?>
<!DOCTYPE svg PUBLIC "-//W3C//DTD SVG 1.1//EN"
 "http://www.w3.org/Graphics/SVG/1.1/DTD/svg11.dtd">
<!-- Generated by graphviz version 2.30.1 (20140110.0959)
 -->
<!-- Title: psi::iwl_buf_wrt_mp2 Pages: 1 -->
<svg width="356pt" height="28pt"
 viewBox="0.00 0.00 356.00 28.00" xmlns="http://www.w3.org/2000/svg" xmlns:xlink="http://www.w3.org/1999/xlink">
<g id="graph0" class="graph" transform="scale(1 1) rotate(0) translate(4 24)">
<title>psi::iwl_buf_wrt_mp2</title>
<!-- Node1 -->
<g id="node1" class="node"><title>Node1</title>
<polygon fill="#bfbfbf" stroke="black" points="0.5,-0.5 0.5,-19.5 109.5,-19.5 109.5,-0.5 0.5,-0.5"/>
<text text-anchor="middle" x="55" y="-7.5" font-family="Helvetica,sans-Serif" font-size="10.00">psi::iwl_buf_wrt_mp2</text>
</g>
<!-- Node2 -->
<g id="node2" class="node"><title>Node2</title>
<g id="a_node2"><a xlink:href="group__IWL.html#ga305abfee9d72d2cd5c2c39a823da7680" target="_top" xlink:title="psi::iwl_buf_put">
<polygon fill="none" stroke="black" points="146.5,-0.5 146.5,-19.5 231.5,-19.5 231.5,-0.5 146.5,-0.5"/>
<text text-anchor="middle" x="189" y="-7.5" font-family="Helvetica,sans-Serif" font-size="10.00">psi::iwl_buf_put</text>
</a>
</g>
</g>
<!-- Node1&#45;&gt;Node2 -->
<g id="edge1" class="edge"><title>Node1&#45;&gt;Node2</title>
<path fill="none" stroke="midnightblue" d="M109.689,-10C118.316,-10 127.233,-10 135.824,-10"/>
<polygon fill="midnightblue" stroke="midnightblue" points="136.098,-13.5001 146.098,-10 136.098,-6.5001 136.098,-13.5001"/>
</g>
<!-- Node3 -->
<g id="node3" class="node"><title>Node3</title>
<g id="a_node3"><a xlink:href="group__PSIO.html#gaac73c196234f26dcd094674cc29a6b18" target="_top" xlink:title="psi::psio_write">
<polygon fill="none" stroke="black" points="268,-0.5 268,-19.5 348,-19.5 348,-0.5 268,-0.5"/>
<text text-anchor="middle" x="308" y="-7.5" font-family="Helvetica,sans-Serif" font-size="10.00">psi::psio_write</text>
</a>
</g>
</g>
<!-- Node2&#45;&gt;Node3 -->
<g id="edge2" class="edge"><title>Node2&#45;&gt;Node3</title>
<path fill="none" stroke="midnightblue" d="M231.579,-10C240.077,-10 249.096,-10 257.83,-10"/>
<polygon fill="midnightblue" stroke="midnightblue" points="257.903,-13.5001 267.903,-10 257.903,-6.5001 257.903,-13.5001"/>
</g>
</g>
</svg>
