<?xml version="1.0" encoding="UTF-8" standalone="no"?>
<!DOCTYPE svg PUBLIC "-//W3C//DTD SVG 1.1//EN"
 "http://www.w3.org/Graphics/SVG/1.1/DTD/svg11.dtd">
<!-- Generated by graphviz version 2.30.1 (20140110.0959)
 -->
<!-- Title: import_vector.cc Pages: 1 -->
<svg width="1570pt" height="320pt"
 viewBox="0.00 0.00 1570.00 320.00" xmlns="http://www.w3.org/2000/svg" xmlns:xlink="http://www.w3.org/1999/xlink">
<g id="graph0" class="graph" transform="scale(1 1) rotate(0) translate(4 316)">
<title>import_vector.cc</title>
<!-- Node1 -->
<g id="node1" class="node"><title>Node1</title>
<polygon fill="#bfbfbf" stroke="black" points="216.5,-292.5 216.5,-311.5 305.5,-311.5 305.5,-292.5 216.5,-292.5"/>
<text text-anchor="middle" x="261" y="-299.5" font-family="Helvetica,sans-Serif" font-size="10.00">import_vector.cc</text>
</g>
<!-- Node2 -->
<g id="node2" class="node"><title>Node2</title>
<polygon fill="none" stroke="#bfbfbf" points="288.5,-0.5 288.5,-19.5 333.5,-19.5 333.5,-0.5 288.5,-0.5"/>
<text text-anchor="middle" x="311" y="-7.5" font-family="Helvetica,sans-Serif" font-size="10.00">cstdlib</text>
</g>
<!-- Node1&#45;&gt;Node2 -->
<g id="edge1" class="edge"><title>Node1&#45;&gt;Node2</title>
<path fill="none" stroke="midnightblue" d="M223.898,-292.458C204.555,-285.918 182.572,-274.724 171,-256 163.799,-244.348 170.556,-210.113 179,-180 186.311,-153.927 188.074,-146.593 203,-124 228.979,-84.677 269.415,-46.7014 292.736,-26.3429"/>
<polygon fill="midnightblue" stroke="midnightblue" points="295.195,-28.8438 300.495,-19.6695 290.631,-23.5367 295.195,-28.8438"/>
</g>
<!-- Node3 -->
<g id="node3" class="node"><title>Node3</title>
<polygon fill="none" stroke="#bfbfbf" points="194.5,-0.5 194.5,-19.5 237.5,-19.5 237.5,-0.5 194.5,-0.5"/>
<text text-anchor="middle" x="216" y="-7.5" font-family="Helvetica,sans-Serif" font-size="10.00">cstdio</text>
</g>
<!-- Node1&#45;&gt;Node3 -->
<g id="edge2" class="edge"><title>Node1&#45;&gt;Node3</title>
<path fill="none" stroke="midnightblue" d="M216.429,-301.43C141.884,-299.561 0,-283.813 0,-191 0,-191 0,-191 0,-133 0,-49.3048 124.469,-22.3751 184.436,-14.2575"/>
<polygon fill="midnightblue" stroke="midnightblue" points="185.015,-17.7124 194.499,-12.9906 184.141,-10.7672 185.015,-17.7124"/>
</g>
<!-- Node4 -->
<g id="node4" class="node"><title>Node4</title>
<g id="a_node4"><a xlink:href="psifiles_8h_source.html" target="_top" xlink:title="psifiles.h">
<polygon fill="none" stroke="black" points="68,-236.5 68,-255.5 124,-255.5 124,-236.5 68,-236.5"/>
<text text-anchor="middle" x="96" y="-243.5" font-family="Helvetica,sans-Serif" font-size="10.00">psifiles.h</text>
</a>
</g>
</g>
<!-- Node1&#45;&gt;Node4 -->
<g id="edge3" class="edge"><title>Node1&#45;&gt;Node4</title>
<path fill="none" stroke="midnightblue" d="M234.855,-292.444C206.977,-283.32 162.652,-268.813 131.6,-258.651"/>
<polygon fill="midnightblue" stroke="midnightblue" points="132.615,-255.3 122.022,-255.516 130.438,-261.953 132.615,-255.3"/>
</g>
<!-- Node5 -->
<g id="node5" class="node"><title>Node5</title>
<g id="a_node5"><a xlink:href="libciomr_8h_source.html" target="_top" xlink:title="libciomr/libciomr.h">
<polygon fill="none" stroke="black" points="28.5,-180.5 28.5,-199.5 123.5,-199.5 123.5,-180.5 28.5,-180.5"/>
<text text-anchor="middle" x="76" y="-187.5" font-family="Helvetica,sans-Serif" font-size="10.00">libciomr/libciomr.h</text>
</a>
</g>
</g>
<!-- Node1&#45;&gt;Node5 -->
<g id="edge4" class="edge"><title>Node1&#45;&gt;Node5</title>
<path fill="none" stroke="midnightblue" d="M216.27,-297.431C162.87,-292.134 78.3281,-280.108 59,-256 48.0921,-242.395 55.7219,-222.512 63.958,-208.325"/>
<polygon fill="midnightblue" stroke="midnightblue" points="67.1201,-209.875 69.5364,-199.559 61.2146,-206.116 67.1201,-209.875"/>
</g>
<!-- Node6 -->
<g id="node6" class="node"><title>Node6</title>
<g id="a_node6"><a xlink:href="qt_8h.html" target="_top" xlink:title="Header file for the Quantum Trio LibraryDavid Sherrill 1994.">
<polygon fill="none" stroke="black" points="278,-62.5 278,-81.5 332,-81.5 332,-62.5 278,-62.5"/>
<text text-anchor="middle" x="305" y="-69.5" font-family="Helvetica,sans-Serif" font-size="10.00">libqt/qt.h</text>
</a>
</g>
</g>
<!-- Node1&#45;&gt;Node6 -->
<g id="edge6" class="edge"><title>Node1&#45;&gt;Node6</title>
<path fill="none" stroke="midnightblue" d="M264.626,-292.497C268.347,-283.54 274.126,-268.963 278,-256 292.604,-207.133 296.698,-194.612 303,-144 305.188,-126.427 305.551,-106.227 305.447,-91.8771"/>
<polygon fill="midnightblue" stroke="midnightblue" points="308.946,-91.7296 305.29,-81.7852 301.946,-91.8385 308.946,-91.7296"/>
</g>
<!-- Node8 -->
<g id="node8" class="node"><title>Node8</title>
<g id="a_node8"><a xlink:href="slaterdset_8h.html" target="_top" xlink:title="Header file for SlaterDetSetsEdward Valeev, June 2002.">
<polygon fill="none" stroke="black" points="180.5,-236.5 180.5,-255.5 269.5,-255.5 269.5,-236.5 180.5,-236.5"/>
<text text-anchor="middle" x="225" y="-243.5" font-family="Helvetica,sans-Serif" font-size="10.00">libqt/slaterdset.h</text>
</a>
</g>
</g>
<!-- Node1&#45;&gt;Node8 -->
<g id="edge9" class="edge"><title>Node1&#45;&gt;Node8</title>
<path fill="none" stroke="midnightblue" d="M255.055,-292.083C250.023,-284.534 242.663,-273.495 236.487,-264.23"/>
<polygon fill="midnightblue" stroke="midnightblue" points="239.293,-262.13 230.834,-255.751 233.469,-266.013 239.293,-262.13"/>
</g>
<!-- Node11 -->
<g id="node11" class="node"><title>Node11</title>
<polygon fill="none" stroke="#bfbfbf" points="326,-236.5 326,-255.5 396,-255.5 396,-236.5 326,-236.5"/>
<text text-anchor="middle" x="361" y="-243.5" font-family="Helvetica,sans-Serif" font-size="10.00">physconst.h</text>
</g>
<!-- Node1&#45;&gt;Node11 -->
<g id="edge13" class="edge"><title>Node1&#45;&gt;Node11</title>
<path fill="none" stroke="midnightblue" d="M277.067,-292.324C292.958,-283.743 317.507,-270.486 335.958,-260.522"/>
<polygon fill="midnightblue" stroke="midnightblue" points="337.837,-263.486 344.973,-255.655 334.511,-257.326 337.837,-263.486"/>
</g>
<!-- Node12 -->
<g id="node12" class="node"><title>Node12</title>
<g id="a_node12"><a xlink:href="structs_8h.html" target="_top" xlink:title="Enter brief description of file here.">
<polygon fill="none" stroke="black" points="326.5,-180.5 326.5,-199.5 381.5,-199.5 381.5,-180.5 326.5,-180.5"/>
<text text-anchor="middle" x="354" y="-187.5" font-family="Helvetica,sans-Serif" font-size="10.00">structs.h</text>
</a>
</g>
</g>
<!-- Node1&#45;&gt;Node12 -->
<g id="edge14" class="edge"><title>Node1&#45;&gt;Node12</title>
<path fill="none" stroke="midnightblue" d="M305.709,-300.248C338.996,-297.043 382.426,-286.705 405,-256 418.115,-238.161 396.872,-218.203 377.937,-205.167"/>
<polygon fill="midnightblue" stroke="midnightblue" points="379.821,-202.217 369.53,-199.697 376.003,-208.084 379.821,-202.217"/>
</g>
<!-- Node13 -->
<g id="node13" class="node"><title>Node13</title>
<g id="a_node13"><a xlink:href="ci__tol_8h.html" target="_top" xlink:title="Enter brief description of file here.">
<polygon fill="none" stroke="black" points="452,-236.5 452,-255.5 500,-255.5 500,-236.5 452,-236.5"/>
<text text-anchor="middle" x="476" y="-243.5" font-family="Helvetica,sans-Serif" font-size="10.00">ci_tol.h</text>
</a>
</g>
</g>
<!-- Node1&#45;&gt;Node13 -->
<g id="edge16" class="edge"><title>Node1&#45;&gt;Node13</title>
<path fill="none" stroke="midnightblue" d="M295.067,-292.444C335.261,-282.348 401.689,-265.664 441.897,-255.565"/>
<polygon fill="midnightblue" stroke="midnightblue" points="442.921,-258.917 451.767,-253.086 441.216,-252.128 442.921,-258.917"/>
</g>
<!-- Node14 -->
<g id="node14" class="node"><title>Node14</title>
<g id="a_node14"><a xlink:href="detci_2globals_8h.html" target="_top" xlink:title="Enter brief description of file here.">
<polygon fill="none" stroke="black" points="518,-236.5 518,-255.5 574,-255.5 574,-236.5 518,-236.5"/>
<text text-anchor="middle" x="546" y="-243.5" font-family="Helvetica,sans-Serif" font-size="10.00">globals.h</text>
</a>
</g>
</g>
<!-- Node1&#45;&gt;Node14 -->
<g id="edge17" class="edge"><title>Node1&#45;&gt;Node14</title>
<path fill="none" stroke="midnightblue" d="M305.506,-293.74C353.221,-285.775 431.412,-272.201 507.949,-256.128"/>
<polygon fill="midnightblue" stroke="midnightblue" points="508.699,-259.546 517.758,-254.052 507.25,-252.698 508.699,-259.546"/>
</g>
<!-- Node5&#45;&gt;Node3 -->
<g id="edge5" class="edge"><title>Node5&#45;&gt;Node3</title>
<path fill="none" stroke="midnightblue" d="M77.5313,-180.461C82.0175,-157.636 97.0785,-94.3412 132,-56 146.248,-40.3565 167.226,-29.1119 184.653,-21.7755"/>
<polygon fill="midnightblue" stroke="midnightblue" points="186.418,-24.8411 194.426,-17.9038 183.84,-18.3332 186.418,-24.8411"/>
</g>
<!-- Node6&#45;&gt;Node3 -->
<g id="edge7" class="edge"><title>Node6&#45;&gt;Node3</title>
<path fill="none" stroke="midnightblue" d="M292.248,-62.4035C277.973,-52.7797 254.603,-37.0242 237.492,-25.4891"/>
<polygon fill="midnightblue" stroke="midnightblue" points="238.976,-22.2684 228.728,-19.5806 235.063,-28.0727 238.976,-22.2684"/>
</g>
<!-- Node7 -->
<g id="node7" class="node"><title>Node7</title>
<polygon fill="none" stroke="#bfbfbf" points="415.5,-0.5 415.5,-19.5 456.5,-19.5 456.5,-0.5 415.5,-0.5"/>
<text text-anchor="middle" x="436" y="-7.5" font-family="Helvetica,sans-Serif" font-size="10.00">string</text>
</g>
<!-- Node6&#45;&gt;Node7 -->
<g id="edge8" class="edge"><title>Node6&#45;&gt;Node7</title>
<path fill="none" stroke="midnightblue" d="M323.769,-62.4035C345.851,-52.2896 382.719,-35.4036 408.139,-23.761"/>
<polygon fill="midnightblue" stroke="midnightblue" points="409.631,-26.9269 417.266,-19.5806 406.716,-20.5627 409.631,-26.9269"/>
</g>
<!-- Node9 -->
<g id="node9" class="node"><title>Node9</title>
<g id="a_node9"><a xlink:href="psio_8h_source.html" target="_top" xlink:title="libpsio/psio.h">
<polygon fill="none" stroke="black" points="188,-180.5 188,-199.5 262,-199.5 262,-180.5 188,-180.5"/>
<text text-anchor="middle" x="225" y="-187.5" font-family="Helvetica,sans-Serif" font-size="10.00">libpsio/psio.h</text>
</a>
</g>
</g>
<!-- Node8&#45;&gt;Node9 -->
<g id="edge10" class="edge"><title>Node8&#45;&gt;Node9</title>
<path fill="none" stroke="midnightblue" d="M225,-236.083C225,-229.006 225,-218.861 225,-209.986"/>
<polygon fill="midnightblue" stroke="midnightblue" points="228.5,-209.751 225,-199.751 221.5,-209.751 228.5,-209.751"/>
</g>
<!-- Node9&#45;&gt;Node3 -->
<g id="edge11" class="edge"><title>Node9&#45;&gt;Node3</title>
<path fill="none" stroke="midnightblue" d="M219.362,-180.481C213.946,-171.745 206.136,-157.556 203,-144 193.707,-103.833 203.58,-55.3445 210.488,-29.4414"/>
<polygon fill="midnightblue" stroke="midnightblue" points="213.938,-30.1006 213.288,-19.5258 207.202,-28.198 213.938,-30.1006"/>
</g>
<!-- Node10 -->
<g id="node10" class="node"><title>Node10</title>
<g id="a_node10"><a xlink:href="libpsio_2config_8h_source.html" target="_top" xlink:title="libpsio/config.h">
<polygon fill="none" stroke="black" points="212,-124.5 212,-143.5 294,-143.5 294,-124.5 212,-124.5"/>
<text text-anchor="middle" x="253" y="-131.5" font-family="Helvetica,sans-Serif" font-size="10.00">libpsio/config.h</text>
</a>
</g>
</g>
<!-- Node9&#45;&gt;Node10 -->
<g id="edge12" class="edge"><title>Node9&#45;&gt;Node10</title>
<path fill="none" stroke="midnightblue" d="M229.624,-180.083C233.456,-172.691 239.024,-161.953 243.765,-152.811"/>
<polygon fill="midnightblue" stroke="midnightblue" points="246.966,-154.24 248.462,-143.751 240.752,-151.018 246.966,-154.24"/>
</g>
<!-- Node12&#45;&gt;Node7 -->
<g id="edge15" class="edge"><title>Node12&#45;&gt;Node7</title>
<path fill="none" stroke="midnightblue" d="M354.129,-180.224C354.828,-157.873 359.067,-97.6286 384,-56 391.285,-43.8374 403,-33.2756 413.468,-25.4467"/>
<polygon fill="midnightblue" stroke="midnightblue" points="415.69,-28.1627 421.844,-19.538 411.655,-22.4428 415.69,-28.1627"/>
</g>
<!-- Node15 -->
<g id="node15" class="node"><title>Node15</title>
<g id="a_node15"><a xlink:href="psi4-dec_8h_source.html" target="_top" xlink:title="psi4&#45;dec.h">
<polygon fill="none" stroke="black" points="612,-180.5 612,-199.5 674,-199.5 674,-180.5 612,-180.5"/>
<text text-anchor="middle" x="643" y="-187.5" font-family="Helvetica,sans-Serif" font-size="10.00">psi4&#45;dec.h</text>
</a>
</g>
</g>
<!-- Node14&#45;&gt;Node15 -->
<g id="edge18" class="edge"><title>Node14&#45;&gt;Node15</title>
<path fill="none" stroke="midnightblue" d="M561.585,-236.324C576.999,-227.743 600.812,-214.486 618.71,-204.522"/>
<polygon fill="midnightblue" stroke="midnightblue" points="620.419,-207.577 627.454,-199.655 617.014,-201.461 620.419,-207.577"/>
</g>
<!-- Node14&#45;&gt;Node7 -->
<g id="edge52" class="edge"><title>Node14&#45;&gt;Node7</title>
<path fill="none" stroke="midnightblue" d="M526.074,-236.461C495.919,-222.299 439.794,-190.796 417,-144 398.515,-106.05 415.661,-55.2884 427.298,-28.795"/>
<polygon fill="midnightblue" stroke="midnightblue" points="430.523,-30.1596 431.545,-19.6142 424.17,-27.2207 430.523,-30.1596"/>
</g>
<!-- Node16 -->
<g id="node16" class="node"><title>Node16</title>
<polygon fill="none" stroke="#bfbfbf" points="426,-124.5 426,-143.5 534,-143.5 534,-124.5 426,-124.5"/>
<text text-anchor="middle" x="480" y="-131.5" font-family="Helvetica,sans-Serif" font-size="10.00">boost/shared_ptr.hpp</text>
</g>
<!-- Node15&#45;&gt;Node16 -->
<g id="edge19" class="edge"><title>Node15&#45;&gt;Node16</title>
<path fill="none" stroke="midnightblue" d="M617.172,-180.444C589.751,-171.359 546.223,-156.939 515.568,-146.783"/>
<polygon fill="midnightblue" stroke="midnightblue" points="516.3,-143.339 505.707,-143.516 514.099,-149.984 516.3,-143.339"/>
</g>
<!-- Node17 -->
<g id="node17" class="node"><title>Node17</title>
<polygon fill="none" stroke="#bfbfbf" points="1138,-62.5 1138,-81.5 1270,-81.5 1270,-62.5 1138,-62.5"/>
<text text-anchor="middle" x="1204" y="-69.5" font-family="Helvetica,sans-Serif" font-size="10.00">boost/current_function.hpp</text>
</g>
<!-- Node15&#45;&gt;Node17 -->
<g id="edge20" class="edge"><title>Node15&#45;&gt;Node17</title>
<path fill="none" stroke="midnightblue" d="M674.199,-185.255C727.676,-178.596 840.16,-163.539 934,-144 1017.41,-126.633 1113.57,-99.6406 1165.65,-84.4296"/>
<polygon fill="midnightblue" stroke="midnightblue" points="1166.85,-87.7249 1175.46,-81.5509 1164.88,-81.0081 1166.85,-87.7249"/>
</g>
<!-- Node15&#45;&gt;Node7 -->
<g id="edge21" class="edge"><title>Node15&#45;&gt;Node7</title>
<path fill="none" stroke="midnightblue" d="M630.321,-180.331C607.562,-164.841 560.518,-133.173 543,-124 505.564,-104.399 482.615,-119.986 455,-88 441.109,-71.9108 437.062,-47.2256 436.038,-30.1624"/>
<polygon fill="midnightblue" stroke="midnightblue" points="439.525,-29.6577 435.728,-19.7664 432.528,-29.8663 439.525,-29.6577"/>
</g>
<!-- Node18 -->
<g id="node18" class="node"><title>Node18</title>
<polygon fill="none" stroke="#bfbfbf" points="628.5,-124.5 628.5,-143.5 657.5,-143.5 657.5,-124.5 628.5,-124.5"/>
<text text-anchor="middle" x="643" y="-131.5" font-family="Helvetica,sans-Serif" font-size="10.00">list</text>
</g>
<!-- Node15&#45;&gt;Node18 -->
<g id="edge22" class="edge"><title>Node15&#45;&gt;Node18</title>
<path fill="none" stroke="midnightblue" d="M643,-180.083C643,-173.006 643,-162.861 643,-153.986"/>
<polygon fill="midnightblue" stroke="midnightblue" points="646.5,-153.751 643,-143.751 639.5,-153.751 646.5,-153.751"/>
</g>
<!-- Node19 -->
<g id="node19" class="node"><title>Node19</title>
<polygon fill="none" stroke="#bfbfbf" points="464.5,-62.5 464.5,-81.5 499.5,-81.5 499.5,-62.5 464.5,-62.5"/>
<text text-anchor="middle" x="482" y="-69.5" font-family="Helvetica,sans-Serif" font-size="10.00">map</text>
</g>
<!-- Node15&#45;&gt;Node19 -->
<g id="edge23" class="edge"><title>Node15&#45;&gt;Node19</title>
<path fill="none" stroke="midnightblue" d="M635.4,-180.224C623.606,-166.95 599.769,-141.465 576,-124 564.296,-115.401 531.792,-98.2651 508.281,-86.2381"/>
<polygon fill="midnightblue" stroke="midnightblue" points="509.653,-83.0093 499.153,-81.5936 506.478,-89.2481 509.653,-83.0093"/>
</g>
<!-- Node20 -->
<g id="node20" class="node"><title>Node20</title>
<g id="a_node20"><a xlink:href="liboptions_8h_source.html" target="_top" xlink:title="liboptions/liboptions.h">
<polygon fill="none" stroke="black" points="676,-124.5 676,-143.5 786,-143.5 786,-124.5 676,-124.5"/>
<text text-anchor="middle" x="731" y="-131.5" font-family="Helvetica,sans-Serif" font-size="10.00">liboptions/liboptions.h</text>
</a>
</g>
</g>
<!-- Node15&#45;&gt;Node20 -->
<g id="edge24" class="edge"><title>Node15&#45;&gt;Node20</title>
<path fill="none" stroke="midnightblue" d="M657.139,-180.324C670.866,-171.9 691.936,-158.971 708.064,-149.074"/>
<polygon fill="midnightblue" stroke="midnightblue" points="710.204,-151.868 716.896,-143.655 706.543,-145.902 710.204,-151.868"/>
</g>
<!-- Node29 -->
<g id="node29" class="node"><title>Node29</title>
<g id="a_node29"><a xlink:href="include_2exception_8h_source.html" target="_top" xlink:title="exception.h">
<polygon fill="none" stroke="black" points="1322.5,-124.5 1322.5,-143.5 1389.5,-143.5 1389.5,-124.5 1322.5,-124.5"/>
<text text-anchor="middle" x="1356" y="-131.5" font-family="Helvetica,sans-Serif" font-size="10.00">exception.h</text>
</a>
</g>
</g>
<!-- Node15&#45;&gt;Node29 -->
<g id="edge39" class="edge"><title>Node15&#45;&gt;Node29</title>
<path fill="none" stroke="midnightblue" d="M674.095,-186.645C787.615,-178.047 1179.93,-148.335 1312.12,-138.323"/>
<polygon fill="midnightblue" stroke="midnightblue" points="1312.57,-141.799 1322.28,-137.554 1312.05,-134.819 1312.57,-141.799"/>
</g>
<!-- Node34 -->
<g id="node34" class="node"><title>Node34</title>
<g id="a_node34"><a xlink:href="typedefs_8h_source.html" target="_top" xlink:title="libmints/typedefs.h">
<polygon fill="none" stroke="black" points="826.5,-124.5 826.5,-143.5 925.5,-143.5 925.5,-124.5 826.5,-124.5"/>
<text text-anchor="middle" x="876" y="-131.5" font-family="Helvetica,sans-Serif" font-size="10.00">libmints/typedefs.h</text>
</a>
</g>
</g>
<!-- Node15&#45;&gt;Node34 -->
<g id="edge45" class="edge"><title>Node15&#45;&gt;Node34</title>
<path fill="none" stroke="midnightblue" d="M674.423,-181.717C714.15,-172.51 782.896,-156.578 828.908,-145.914"/>
<polygon fill="midnightblue" stroke="midnightblue" points="829.984,-149.257 838.936,-143.59 828.404,-142.438 829.984,-149.257"/>
</g>
<!-- Node20&#45;&gt;Node7 -->
<g id="edge25" class="edge"><title>Node20&#45;&gt;Node7</title>
<path fill="none" stroke="midnightblue" d="M686.558,-124.498C640.27,-115.225 571.195,-100.093 547,-88 526.944,-77.976 526.211,-69.0797 508,-56 492.384,-44.7842 473.991,-33.316 459.704,-24.7639"/>
<polygon fill="midnightblue" stroke="midnightblue" points="461.366,-21.6809 450.978,-19.5971 457.8,-27.704 461.366,-21.6809"/>
</g>
<!-- Node21 -->
<g id="node21" class="node"><title>Node21</title>
<polygon fill="none" stroke="#bfbfbf" points="969,-0.5 969,-19.5 1013,-19.5 1013,-0.5 969,-0.5"/>
<text text-anchor="middle" x="991" y="-7.5" font-family="Helvetica,sans-Serif" font-size="10.00">vector</text>
</g>
<!-- Node20&#45;&gt;Node21 -->
<g id="edge26" class="edge"><title>Node20&#45;&gt;Node21</title>
<path fill="none" stroke="midnightblue" d="M786.299,-125.938C865.558,-115.552 1002.78,-96.4745 1010,-88 1024.31,-71.1949 1013.25,-45.2415 1002.98,-28.1876"/>
<polygon fill="midnightblue" stroke="midnightblue" points="1005.89,-26.2419 997.52,-19.7435 1000.01,-30.0418 1005.89,-26.2419"/>
</g>
<!-- Node20&#45;&gt;Node19 -->
<g id="edge27" class="edge"><title>Node20&#45;&gt;Node19</title>
<path fill="none" stroke="midnightblue" d="M675.666,-125.19C631.248,-118.052 567.662,-105.867 514,-88 511.872,-87.2913 509.698,-86.4791 507.537,-85.6074"/>
<polygon fill="midnightblue" stroke="midnightblue" points="508.869,-82.3699 498.307,-81.5413 506.047,-88.7758 508.869,-82.3699"/>
</g>
<!-- Node22 -->
<g id="node22" class="node"><title>Node22</title>
<polygon fill="none" stroke="#bfbfbf" points="756.5,-62.5 756.5,-81.5 823.5,-81.5 823.5,-62.5 756.5,-62.5"/>
<text text-anchor="middle" x="790" y="-69.5" font-family="Helvetica,sans-Serif" font-size="10.00">exception.h</text>
</g>
<!-- Node20&#45;&gt;Node22 -->
<g id="edge28" class="edge"><title>Node20&#45;&gt;Node22</title>
<path fill="none" stroke="midnightblue" d="M739.453,-124.403C748.566,-115.136 763.27,-100.183 774.476,-88.7876"/>
<polygon fill="midnightblue" stroke="midnightblue" points="777.047,-91.1649 781.562,-81.5806 772.055,-86.2569 777.047,-91.1649"/>
</g>
<!-- Node23 -->
<g id="node23" class="node"><title>Node23</title>
<g id="a_node23"><a xlink:href="libutil_8h_source.html" target="_top" xlink:title="libutil/libutil.h">
<polygon fill="none" stroke="black" points="928.5,-62.5 928.5,-81.5 1001.5,-81.5 1001.5,-62.5 928.5,-62.5"/>
<text text-anchor="middle" x="965" y="-69.5" font-family="Helvetica,sans-Serif" font-size="10.00">libutil/libutil.h</text>
</a>
</g>
</g>
<!-- Node20&#45;&gt;Node23 -->
<g id="edge29" class="edge"><title>Node20&#45;&gt;Node23</title>
<path fill="none" stroke="midnightblue" d="M770.85,-124.437C809.07,-115.995 868.29,-102.312 919,-88 922.608,-86.9818 926.355,-85.8628 930.084,-84.7091"/>
<polygon fill="midnightblue" stroke="midnightblue" points="931.334,-87.9844 939.804,-81.6194 929.214,-81.3134 931.334,-87.9844"/>
</g>
<!-- Node25 -->
<g id="node25" class="node"><title>Node25</title>
<g id="a_node25"><a xlink:href="libutil_2ref_8h_source.html" target="_top" xlink:title="libutil/ref.h">
<polygon fill="none" stroke="black" points="556,-62.5 556,-81.5 618,-81.5 618,-62.5 556,-62.5"/>
<text text-anchor="middle" x="587" y="-69.5" font-family="Helvetica,sans-Serif" font-size="10.00">libutil/ref.h</text>
</a>
</g>
</g>
<!-- Node20&#45;&gt;Node25 -->
<g id="edge33" class="edge"><title>Node20&#45;&gt;Node25</title>
<path fill="none" stroke="midnightblue" d="M710.368,-124.403C685.881,-114.2 644.853,-97.1055 616.891,-85.4544"/>
<polygon fill="midnightblue" stroke="midnightblue" points="618.17,-82.196 607.593,-81.5806 615.478,-88.6576 618.17,-82.196"/>
</g>
<!-- Node28 -->
<g id="node28" class="node"><title>Node28</title>
<polygon fill="none" stroke="#bfbfbf" points="636,-57 636,-87 738,-87 738,-57 636,-57"/>
<text text-anchor="start" x="644" y="-75" font-family="Helvetica,sans-Serif" font-size="10.00">boost/python/object</text>
<text text-anchor="middle" x="687" y="-64" font-family="Helvetica,sans-Serif" font-size="10.00">_fwd.hpp</text>
</g>
<!-- Node20&#45;&gt;Node28 -->
<g id="edge38" class="edge"><title>Node20&#45;&gt;Node28</title>
<path fill="none" stroke="midnightblue" d="M724.696,-124.403C719.127,-116.809 710.757,-105.396 703.318,-95.2518"/>
<polygon fill="midnightblue" stroke="midnightblue" points="706.106,-93.1351 697.37,-87.1408 700.461,-97.2747 706.106,-93.1351"/>
</g>
<!-- Node23&#45;&gt;Node7 -->
<g id="edge30" class="edge"><title>Node23&#45;&gt;Node7</title>
<path fill="none" stroke="midnightblue" d="M942.344,-62.4876C934.992,-60.0299 926.735,-57.5862 919,-56 743.275,-19.9644 695.486,-37.9057 517,-20 500.46,-18.3407 482.042,-16.3089 466.953,-14.596"/>
<polygon fill="midnightblue" stroke="midnightblue" points="466.961,-11.0742 456.628,-13.4149 466.166,-18.0288 466.961,-11.0742"/>
</g>
<!-- Node23&#45;&gt;Node21 -->
<g id="edge31" class="edge"><title>Node23&#45;&gt;Node21</title>
<path fill="none" stroke="midnightblue" d="M968.725,-62.4035C972.509,-53.6707 978.481,-39.8893 983.289,-28.7936"/>
<polygon fill="midnightblue" stroke="midnightblue" points="986.517,-30.1478 987.282,-19.5806 980.094,-27.3645 986.517,-30.1478"/>
</g>
<!-- Node24 -->
<g id="node24" class="node"><title>Node24</title>
<polygon fill="none" stroke="#bfbfbf" points="889,-0.5 889,-19.5 951,-19.5 951,-0.5 889,-0.5"/>
<text text-anchor="middle" x="920" y="-7.5" font-family="Helvetica,sans-Serif" font-size="10.00">sys/time.h</text>
</g>
<!-- Node23&#45;&gt;Node24 -->
<g id="edge32" class="edge"><title>Node23&#45;&gt;Node24</title>
<path fill="none" stroke="midnightblue" d="M958.553,-62.4035C951.803,-53.4034 941.031,-39.0408 932.587,-27.7824"/>
<polygon fill="midnightblue" stroke="midnightblue" points="935.235,-25.4806 926.435,-19.5806 929.635,-29.6806 935.235,-25.4806"/>
</g>
<!-- Node26 -->
<g id="node26" class="node"><title>Node26</title>
<polygon fill="none" stroke="#bfbfbf" points="596.5,-0.5 596.5,-19.5 645.5,-19.5 645.5,-0.5 596.5,-0.5"/>
<text text-anchor="middle" x="621" y="-7.5" font-family="Helvetica,sans-Serif" font-size="10.00">cstddef</text>
</g>
<!-- Node25&#45;&gt;Node26 -->
<g id="edge34" class="edge"><title>Node25&#45;&gt;Node26</title>
<path fill="none" stroke="midnightblue" d="M591.871,-62.4035C596.87,-53.5816 604.789,-39.6075 611.109,-28.4548"/>
<polygon fill="midnightblue" stroke="midnightblue" points="614.253,-30.0064 616.138,-19.5806 608.162,-26.5553 614.253,-30.0064"/>
</g>
<!-- Node25&#45;&gt;Node3 -->
<g id="edge35" class="edge"><title>Node25&#45;&gt;Node3</title>
<path fill="none" stroke="midnightblue" d="M555.903,-64.8372C541.371,-62.0237 523.822,-58.7204 508,-56 413.454,-39.7439 301.198,-23.2216 247.575,-15.4989"/>
<polygon fill="midnightblue" stroke="midnightblue" points="248.05,-12.0314 237.655,-14.0744 247.055,-18.9604 248.05,-12.0314"/>
</g>
<!-- Node25&#45;&gt;Node2 -->
<g id="edge36" class="edge"><title>Node25&#45;&gt;Node2</title>
<path fill="none" stroke="midnightblue" d="M555.876,-64.2339C503.273,-52.7985 397.289,-29.7584 343.664,-18.1009"/>
<polygon fill="midnightblue" stroke="midnightblue" points="344.184,-14.6322 333.669,-15.928 342.697,-21.4725 344.184,-14.6322"/>
</g>
<!-- Node27 -->
<g id="node27" class="node"><title>Node27</title>
<polygon fill="none" stroke="#bfbfbf" points="526,-0.5 526,-19.5 578,-19.5 578,-0.5 526,-0.5"/>
<text text-anchor="middle" x="552" y="-7.5" font-family="Helvetica,sans-Serif" font-size="10.00">assert.h</text>
</g>
<!-- Node25&#45;&gt;Node27 -->
<g id="edge37" class="edge"><title>Node25&#45;&gt;Node27</title>
<path fill="none" stroke="midnightblue" d="M581.985,-62.4035C576.839,-53.5816 568.688,-39.6075 562.182,-28.4548"/>
<polygon fill="midnightblue" stroke="midnightblue" points="565.067,-26.4548 557.005,-19.5806 559.021,-29.982 565.067,-26.4548"/>
</g>
<!-- Node30 -->
<g id="node30" class="node"><title>Node30</title>
<polygon fill="none" stroke="#bfbfbf" points="1288.5,-62.5 1288.5,-81.5 1347.5,-81.5 1347.5,-62.5 1288.5,-62.5"/>
<text text-anchor="middle" x="1318" y="-69.5" font-family="Helvetica,sans-Serif" font-size="10.00">exception</text>
</g>
<!-- Node29&#45;&gt;Node30 -->
<g id="edge40" class="edge"><title>Node29&#45;&gt;Node30</title>
<path fill="none" stroke="midnightblue" d="M1350.56,-124.403C1344.91,-115.493 1335.94,-101.325 1328.84,-90.1177"/>
<polygon fill="midnightblue" stroke="midnightblue" points="1331.74,-88.1561 1323.43,-81.5806 1325.83,-91.9015 1331.74,-88.1561"/>
</g>
<!-- Node31 -->
<g id="node31" class="node"><title>Node31</title>
<polygon fill="none" stroke="#bfbfbf" points="1365.5,-62.5 1365.5,-81.5 1424.5,-81.5 1424.5,-62.5 1365.5,-62.5"/>
<text text-anchor="middle" x="1395" y="-69.5" font-family="Helvetica,sans-Serif" font-size="10.00">stdexcept</text>
</g>
<!-- Node29&#45;&gt;Node31 -->
<g id="edge41" class="edge"><title>Node29&#45;&gt;Node31</title>
<path fill="none" stroke="midnightblue" d="M1361.59,-124.403C1367.38,-115.493 1376.59,-101.325 1383.87,-90.1177"/>
<polygon fill="midnightblue" stroke="midnightblue" points="1386.91,-91.8725 1389.42,-81.5806 1381.04,-88.0576 1386.91,-91.8725"/>
</g>
<!-- Node32 -->
<g id="node32" class="node"><title>Node32</title>
<polygon fill="none" stroke="#bfbfbf" points="1443,-62.5 1443,-81.5 1495,-81.5 1495,-62.5 1443,-62.5"/>
<text text-anchor="middle" x="1469" y="-69.5" font-family="Helvetica,sans-Serif" font-size="10.00">sstream</text>
</g>
<!-- Node29&#45;&gt;Node32 -->
<g id="edge42" class="edge"><title>Node29&#45;&gt;Node32</title>
<path fill="none" stroke="midnightblue" d="M1372.19,-124.403C1390.9,-114.468 1421.92,-97.9966 1443.8,-86.3812"/>
<polygon fill="midnightblue" stroke="midnightblue" points="1445.65,-89.3616 1452.84,-81.5806 1442.37,-83.179 1445.65,-89.3616"/>
</g>
<!-- Node33 -->
<g id="node33" class="node"><title>Node33</title>
<polygon fill="none" stroke="#bfbfbf" points="1513.5,-62.5 1513.5,-81.5 1562.5,-81.5 1562.5,-62.5 1513.5,-62.5"/>
<text text-anchor="middle" x="1538" y="-69.5" font-family="Helvetica,sans-Serif" font-size="10.00">string.h</text>
</g>
<!-- Node29&#45;&gt;Node33 -->
<g id="edge43" class="edge"><title>Node29&#45;&gt;Node33</title>
<path fill="none" stroke="midnightblue" d="M1388.13,-124.437C1418.36,-116.097 1464.72,-102.575 1504,-88 1506.11,-87.2158 1508.28,-86.3663 1510.45,-85.4839"/>
<polygon fill="midnightblue" stroke="midnightblue" points="1511.98,-88.6382 1519.81,-81.5052 1509.24,-82.1959 1511.98,-88.6382"/>
</g>
<!-- Node29&#45;&gt;Node17 -->
<g id="edge44" class="edge"><title>Node29&#45;&gt;Node17</title>
<path fill="none" stroke="midnightblue" d="M1334.22,-124.403C1308.26,-114.156 1264.69,-96.9561 1235.17,-85.3021"/>
<polygon fill="midnightblue" stroke="midnightblue" points="1236.32,-81.9968 1225.74,-81.5806 1233.75,-88.5079 1236.32,-81.9968"/>
</g>
<!-- Node35 -->
<g id="node35" class="node"><title>Node35</title>
<g id="a_node35"><a xlink:href="compiler_8h_source.html" target="_top" xlink:title="compiler.h">
<polygon fill="none" stroke="black" points="1058,-62.5 1058,-81.5 1120,-81.5 1120,-62.5 1058,-62.5"/>
<text text-anchor="middle" x="1089" y="-69.5" font-family="Helvetica,sans-Serif" font-size="10.00">compiler.h</text>
</a>
</g>
</g>
<!-- Node34&#45;&gt;Node35 -->
<g id="edge46" class="edge"><title>Node34&#45;&gt;Node35</title>
<path fill="none" stroke="midnightblue" d="M910.276,-124.461C944.348,-115.823 998.019,-101.808 1044,-88 1047.42,-86.9741 1050.96,-85.866 1054.5,-84.7329"/>
<polygon fill="midnightblue" stroke="midnightblue" points="1055.91,-87.9549 1064.33,-81.5205 1053.73,-81.3015 1055.91,-87.9549"/>
</g>
<!-- Node37 -->
<g id="node37" class="node"><title>Node37</title>
<g id="a_node37"><a xlink:href="dimension_8h_source.html" target="_top" xlink:title="dimension.h">
<polygon fill="none" stroke="black" points="841.5,-62.5 841.5,-81.5 910.5,-81.5 910.5,-62.5 841.5,-62.5"/>
<text text-anchor="middle" x="876" y="-69.5" font-family="Helvetica,sans-Serif" font-size="10.00">dimension.h</text>
</a>
</g>
</g>
<!-- Node34&#45;&gt;Node37 -->
<g id="edge48" class="edge"><title>Node34&#45;&gt;Node37</title>
<path fill="none" stroke="midnightblue" d="M876,-124.403C876,-115.938 876,-102.728 876,-91.8199"/>
<polygon fill="midnightblue" stroke="midnightblue" points="879.5,-91.5806 876,-81.5806 872.5,-91.5806 879.5,-91.5806"/>
</g>
<!-- Node36 -->
<g id="node36" class="node"><title>Node36</title>
<polygon fill="none" stroke="#bfbfbf" points="1057,-0.5 1057,-19.5 1121,-19.5 1121,-0.5 1057,-0.5"/>
<text text-anchor="middle" x="1089" y="-7.5" font-family="Helvetica,sans-Serif" font-size="10.00">psiconfig.h</text>
</g>
<!-- Node35&#45;&gt;Node36 -->
<g id="edge47" class="edge"><title>Node35&#45;&gt;Node36</title>
<path fill="none" stroke="midnightblue" d="M1089,-62.4035C1089,-53.9381 1089,-40.7283 1089,-29.8199"/>
<polygon fill="midnightblue" stroke="midnightblue" points="1092.5,-29.5806 1089,-19.5806 1085.5,-29.5806 1092.5,-29.5806"/>
</g>
<!-- Node37&#45;&gt;Node7 -->
<g id="edge49" class="edge"><title>Node37&#45;&gt;Node7</title>
<path fill="none" stroke="midnightblue" d="M853.883,-62.4219C846.965,-60.0212 839.245,-57.6265 832,-56 827.53,-54.9965 559.24,-24.8336 466.858,-14.4624"/>
<polygon fill="midnightblue" stroke="midnightblue" points="467.067,-10.964 456.739,-13.3266 466.286,-17.9203 467.067,-10.964"/>
</g>
<!-- Node37&#45;&gt;Node3 -->
<g id="edge50" class="edge"><title>Node37&#45;&gt;Node3</title>
<path fill="none" stroke="midnightblue" d="M854.379,-62.3639C847.349,-59.8996 839.44,-57.4832 832,-56 590.455,-7.84555 523.981,-45.4347 279,-20 268.723,-18.933 257.548,-17.4446 247.501,-15.985"/>
<polygon fill="midnightblue" stroke="midnightblue" points="247.934,-12.5108 237.526,-14.4933 246.898,-19.4339 247.934,-12.5108"/>
</g>
<!-- Node37&#45;&gt;Node21 -->
<g id="edge51" class="edge"><title>Node37&#45;&gt;Node21</title>
<path fill="none" stroke="midnightblue" d="M892.477,-62.4035C911.605,-52.4232 943.373,-35.8487 965.652,-24.2253"/>
<polygon fill="midnightblue" stroke="midnightblue" points="967.307,-27.3094 974.554,-19.5806 964.069,-21.1033 967.307,-27.3094"/>
</g>
</g>
</svg>
