<?xml version="1.0" encoding="UTF-8" standalone="no"?>
<!DOCTYPE svg PUBLIC "-//W3C//DTD SVG 1.1//EN"
 "http://www.w3.org/Graphics/SVG/1.1/DTD/svg11.dtd">
<!-- Generated by graphviz version 2.30.1 (20140110.0959)
 -->
<!-- Title: Graphical Class Hierarchy Pages: 1 -->
<svg width="282pt" height="66pt"
 viewBox="0.00 0.00 282.00 66.00" xmlns="http://www.w3.org/2000/svg" xmlns:xlink="http://www.w3.org/1999/xlink">
<g id="graph0" class="graph" transform="scale(1 1) rotate(0) translate(4 62)">
<title>Graphical Class Hierarchy</title>
<!-- Node1 -->
<g id="node1" class="node"><title>Node1</title>
<g id="a_node1"><a xlink:href="classpsi_1_1psimrcc_1_1Updater.html" target="_top" xlink:title="Containts the procedure for updating the amplitudes.">
<polygon fill="none" stroke="black" points="0,-19.5 0,-38.5 110,-38.5 110,-19.5 0,-19.5"/>
<text text-anchor="middle" x="55" y="-26.5" font-family="Helvetica,sans-Serif" font-size="10.00">psi::psimrcc::Updater</text>
</a>
</g>
</g>
<!-- Node2 -->
<g id="node2" class="node"><title>Node2</title>
<g id="a_node2"><a xlink:href="classpsi_1_1psimrcc_1_1BWUpdater.html" target="_top" xlink:title="psi::psimrcc::BWUpdater">
<polygon fill="none" stroke="black" points="146.5,-38.5 146.5,-57.5 273.5,-57.5 273.5,-38.5 146.5,-38.5"/>
<text text-anchor="middle" x="210" y="-45.5" font-family="Helvetica,sans-Serif" font-size="10.00">psi::psimrcc::BWUpdater</text>
</a>
</g>
</g>
<!-- Node1&#45;&gt;Node2 -->
<g id="edge1" class="edge"><title>Node1&#45;&gt;Node2</title>
<path fill="none" stroke="midnightblue" d="M120.38,-36.995C129.011,-38.0668 137.853,-39.1648 146.452,-40.2326"/>
<polygon fill="midnightblue" stroke="midnightblue" points="120.728,-33.5113 110.373,-35.7522 119.865,-40.458 120.728,-33.5113"/>
</g>
<!-- Node3 -->
<g id="node3" class="node"><title>Node3</title>
<g id="a_node3"><a xlink:href="classpsi_1_1psimrcc_1_1MkUpdater.html" target="_top" xlink:title="psi::psimrcc::MkUpdater">
<polygon fill="none" stroke="black" points="148,-0.5 148,-19.5 272,-19.5 272,-0.5 148,-0.5"/>
<text text-anchor="middle" x="210" y="-7.5" font-family="Helvetica,sans-Serif" font-size="10.00">psi::psimrcc::MkUpdater</text>
</a>
</g>
</g>
<!-- Node1&#45;&gt;Node3 -->
<g id="edge2" class="edge"><title>Node1&#45;&gt;Node3</title>
<path fill="none" stroke="midnightblue" d="M120.461,-20.995C129.508,-19.8716 138.785,-18.7195 147.769,-17.6038"/>
<polygon fill="midnightblue" stroke="midnightblue" points="119.865,-17.542 110.373,-22.2478 120.728,-24.4887 119.865,-17.542"/>
</g>
</g>
</svg>
