<?xml version="1.0" encoding="UTF-8" standalone="no"?>
<!DOCTYPE svg PUBLIC "-//W3C//DTD SVG 1.1//EN"
 "http://www.w3.org/Graphics/SVG/1.1/DTD/svg11.dtd">
<!-- Generated by graphviz version 2.30.1 (20140110.0959)
 -->
<!-- Title: Graphical Class Hierarchy Pages: 1 -->
<svg width="286pt" height="66pt"
 viewBox="0.00 0.00 286.00 66.00" xmlns="http://www.w3.org/2000/svg" xmlns:xlink="http://www.w3.org/1999/xlink">
<g id="graph0" class="graph" transform="scale(1 1) rotate(0) translate(4 62)">
<title>Graphical Class Hierarchy</title>
<!-- Node1 -->
<g id="node1" class="node"><title>Node1</title>
<g id="a_node1"><a xlink:href="classpsi_1_1scfgrad_1_1JKGrad.html" target="_top" xlink:title="psi::scfgrad::JKGrad">
<polygon fill="none" stroke="black" points="0.5,-19.5 0.5,-38.5 107.5,-38.5 107.5,-19.5 0.5,-19.5"/>
<text text-anchor="middle" x="54" y="-26.5" font-family="Helvetica,sans-Serif" font-size="10.00">psi::scfgrad::JKGrad</text>
</a>
</g>
</g>
<!-- Node2 -->
<g id="node2" class="node"><title>Node2</title>
<g id="a_node2"><a xlink:href="classpsi_1_1scfgrad_1_1DFJKGrad.html" target="_top" xlink:title="psi::scfgrad::DFJKGrad">
<polygon fill="none" stroke="black" points="151,-38.5 151,-57.5 271,-57.5 271,-38.5 151,-38.5"/>
<text text-anchor="middle" x="211" y="-45.5" font-family="Helvetica,sans-Serif" font-size="10.00">psi::scfgrad::DFJKGrad</text>
</a>
</g>
</g>
<!-- Node1&#45;&gt;Node2 -->
<g id="edge1" class="edge"><title>Node1&#45;&gt;Node2</title>
<path fill="none" stroke="midnightblue" d="M118.153,-36.7414C128.993,-38.0701 140.22,-39.4463 150.947,-40.7612"/>
<polygon fill="midnightblue" stroke="midnightblue" points="118.26,-33.2284 107.909,-35.4856 117.409,-40.1764 118.26,-33.2284"/>
</g>
<!-- Node3 -->
<g id="node3" class="node"><title>Node3</title>
<g id="a_node3"><a xlink:href="classpsi_1_1scfgrad_1_1DirectJKGrad.html" target="_top" xlink:title="psi::scfgrad::DirectJKGrad">
<polygon fill="none" stroke="black" points="144.5,-0.5 144.5,-19.5 277.5,-19.5 277.5,-0.5 144.5,-0.5"/>
<text text-anchor="middle" x="211" y="-7.5" font-family="Helvetica,sans-Serif" font-size="10.00">psi::scfgrad::DirectJKGrad</text>
</a>
</g>
</g>
<!-- Node1&#45;&gt;Node3 -->
<g id="edge2" class="edge"><title>Node1&#45;&gt;Node3</title>
<path fill="none" stroke="midnightblue" d="M117.996,-21.2779C126.712,-20.2095 135.682,-19.1099 144.443,-18.036"/>
<polygon fill="midnightblue" stroke="midnightblue" points="117.409,-17.8236 107.909,-22.5144 118.26,-24.7716 117.409,-17.8236"/>
</g>
</g>
</svg>
