<?xml version="1.0" encoding="UTF-8" standalone="no"?>
<!DOCTYPE svg PUBLIC "-//W3C//DTD SVG 1.1//EN"
 "http://www.w3.org/Graphics/SVG/1.1/DTD/svg11.dtd">
<!-- Generated by graphviz version 2.30.1 (20140110.0959)
 -->
<!-- Title: Graphical Class Hierarchy Pages: 1 -->
<svg width="808pt" height="807pt"
 viewBox="0.00 0.00 808.00 807.00" xmlns="http://www.w3.org/2000/svg" xmlns:xlink="http://www.w3.org/1999/xlink">
<g id="graph0" class="graph" transform="scale(1 1) rotate(0) translate(4 803)">
<title>Graphical Class Hierarchy</title>
<!-- Node1 -->
<g id="node1" class="node"><title>Node1</title>
<g id="a_node1"><a xlink:href="classpsi_1_1scf_1_1KS.html" target="_top" xlink:title="psi::scf::KS">
<polygon fill="none" stroke="black" points="401,-741.5 401,-760.5 469,-760.5 469,-741.5 401,-741.5"/>
<text text-anchor="middle" x="435" y="-748.5" font-family="Helvetica,sans-Serif" font-size="10.00">psi::scf::KS</text>
</a>
</g>
</g>
<!-- Node2 -->
<g id="node2" class="node"><title>Node2</title>
<g id="a_node2"><a xlink:href="classpsi_1_1scf_1_1RKS.html" target="_top" xlink:title="psi::scf::RKS">
<polygon fill="none" stroke="black" points="565,-760.5 565,-779.5 641,-779.5 641,-760.5 565,-760.5"/>
<text text-anchor="middle" x="603" y="-767.5" font-family="Helvetica,sans-Serif" font-size="10.00">psi::scf::RKS</text>
</a>
</g>
</g>
<!-- Node1&#45;&gt;Node2 -->
<g id="edge1" class="edge"><title>Node1&#45;&gt;Node2</title>
<path fill="none" stroke="midnightblue" d="M479.352,-755.962C505.889,-758.999 539.493,-762.846 564.814,-765.744"/>
<polygon fill="midnightblue" stroke="midnightblue" points="479.527,-752.459 469.194,-754.799 478.731,-759.414 479.527,-752.459"/>
</g>
<!-- Node3 -->
<g id="node3" class="node"><title>Node3</title>
<g id="a_node3"><a xlink:href="classpsi_1_1scf_1_1UKS.html" target="_top" xlink:title="psi::scf::UKS">
<polygon fill="none" stroke="black" points="565,-674.5 565,-693.5 641,-693.5 641,-674.5 565,-674.5"/>
<text text-anchor="middle" x="603" y="-681.5" font-family="Helvetica,sans-Serif" font-size="10.00">psi::scf::UKS</text>
</a>
</g>
</g>
<!-- Node1&#45;&gt;Node3 -->
<g id="edge2" class="edge"><title>Node1&#45;&gt;Node3</title>
<path fill="none" stroke="midnightblue" d="M478.949,-741.278C488.63,-738.644 498.768,-735.528 508,-732 536.413,-721.141 567.502,-704.182 585.85,-693.6"/>
<polygon fill="midnightblue" stroke="midnightblue" points="477.88,-737.94 469.084,-743.846 479.643,-744.714 477.88,-737.94"/>
</g>
<!-- Node4 -->
<g id="node4" class="node"><title>Node4</title>
<g id="a_node4"><a xlink:href="classpsi_1_1Wavefunction.html" target="_top" xlink:title="Simple wavefunction base class.">
<polygon fill="none" stroke="black" points="0.5,-342.5 0.5,-361.5 95.5,-361.5 95.5,-342.5 0.5,-342.5"/>
<text text-anchor="middle" x="48" y="-349.5" font-family="Helvetica,sans-Serif" font-size="10.00">psi::Wavefunction</text>
</a>
</g>
</g>
<!-- Node5 -->
<g id="node5" class="node"><title>Node5</title>
<g id="a_node5"><a xlink:href="classpsi_1_1adc_1_1ADC.html" target="_top" xlink:title="psi::adc::ADC">
<polygon fill="none" stroke="black" points="189.5,-646.5 189.5,-665.5 268.5,-665.5 268.5,-646.5 189.5,-646.5"/>
<text text-anchor="middle" x="229" y="-653.5" font-family="Helvetica,sans-Serif" font-size="10.00">psi::adc::ADC</text>
</a>
</g>
</g>
<!-- Node4&#45;&gt;Node5 -->
<g id="edge3" class="edge"><title>Node4&#45;&gt;Node5</title>
<path fill="none" stroke="midnightblue" d="M48.3051,-371.868C47.6484,-423.917 53.5548,-565.171 132,-637 147.287,-650.998 169.807,-655.969 189.193,-657.338"/>
<polygon fill="midnightblue" stroke="midnightblue" points="51.809,-371.735 48.5382,-361.658 44.8108,-371.575 51.809,-371.735"/>
</g>
<!-- Node6 -->
<g id="node6" class="node"><title>Node6</title>
<g id="a_node6"><a xlink:href="classpsi_1_1ccenergy_1_1CCEnergyWavefunction.html" target="_top" xlink:title="psi::ccenergy::CCEnergyWavefunction">
<polygon fill="none" stroke="black" points="135.5,-608.5 135.5,-627.5 322.5,-627.5 322.5,-608.5 135.5,-608.5"/>
<text text-anchor="middle" x="229" y="-615.5" font-family="Helvetica,sans-Serif" font-size="10.00">psi::ccenergy::CCEnergyWavefunction</text>
</a>
</g>
</g>
<!-- Node4&#45;&gt;Node6 -->
<g id="edge4" class="edge"><title>Node4&#45;&gt;Node6</title>
<path fill="none" stroke="midnightblue" d="M49.336,-371.735C51.2731,-418.844 63.0945,-538.443 132,-599 136.211,-602.701 140.932,-605.764 145.961,-608.291"/>
<polygon fill="midnightblue" stroke="midnightblue" points="52.8313,-371.524 49.0319,-361.634 45.8345,-371.735 52.8313,-371.524"/>
</g>
<!-- Node7 -->
<g id="node7" class="node"><title>Node7</title>
<g id="a_node7"><a xlink:href="classpsi_1_1cclambda_1_1CCLambdaWavefunction.html" target="_top" xlink:title="psi::cclambda::CCLambdaWavefunction">
<polygon fill="none" stroke="black" points="132.5,-570.5 132.5,-589.5 325.5,-589.5 325.5,-570.5 132.5,-570.5"/>
<text text-anchor="middle" x="229" y="-577.5" font-family="Helvetica,sans-Serif" font-size="10.00">psi::cclambda::CCLambdaWavefunction</text>
</a>
</g>
</g>
<!-- Node4&#45;&gt;Node7 -->
<g id="edge5" class="edge"><title>Node4&#45;&gt;Node7</title>
<path fill="none" stroke="midnightblue" d="M50.7111,-371.798C55.4498,-413.708 72.6248,-511.587 132,-561 136.571,-564.804 141.686,-567.923 147.112,-570.473"/>
<polygon fill="midnightblue" stroke="midnightblue" points="54.1848,-371.36 49.6984,-361.762 47.2202,-372.063 54.1848,-371.36"/>
</g>
<!-- Node8 -->
<g id="node8" class="node"><title>Node8</title>
<g id="a_node8"><a xlink:href="classpsi_1_1dcft_1_1DCFTSolver.html" target="_top" xlink:title="psi::dcft::DCFTSolver">
<polygon fill="none" stroke="black" points="172.5,-532.5 172.5,-551.5 285.5,-551.5 285.5,-532.5 172.5,-532.5"/>
<text text-anchor="middle" x="229" y="-539.5" font-family="Helvetica,sans-Serif" font-size="10.00">psi::dcft::DCFTSolver</text>
</a>
</g>
</g>
<!-- Node4&#45;&gt;Node8 -->
<g id="edge6" class="edge"><title>Node4&#45;&gt;Node8</title>
<path fill="none" stroke="midnightblue" d="M52.6478,-371.859C60.3891,-408.023 82.0197,-484.438 132,-523 143.434,-531.822 157.858,-536.88 172.027,-539.701"/>
<polygon fill="midnightblue" stroke="midnightblue" points="55.9957,-370.751 50.6041,-361.631 49.1314,-372.123 55.9957,-370.751"/>
</g>
<!-- Node9 -->
<g id="node9" class="node"><title>Node9</title>
<g id="a_node9"><a xlink:href="classpsi_1_1detci_1_1CIWavefunction.html" target="_top" xlink:title="psi::detci::CIWavefunction">
<polygon fill="none" stroke="black" points="162.5,-494.5 162.5,-513.5 295.5,-513.5 295.5,-494.5 162.5,-494.5"/>
<text text-anchor="middle" x="229" y="-501.5" font-family="Helvetica,sans-Serif" font-size="10.00">psi::detci::CIWavefunction</text>
</a>
</g>
</g>
<!-- Node4&#45;&gt;Node9 -->
<g id="edge7" class="edge"><title>Node4&#45;&gt;Node9</title>
<path fill="none" stroke="midnightblue" d="M55.3157,-371.148C66.0817,-400.615 90.903,-456.634 132,-485 141.019,-491.225 151.587,-495.519 162.352,-498.461"/>
<polygon fill="midnightblue" stroke="midnightblue" points="58.5809,-369.882 51.981,-361.594 51.9718,-372.189 58.5809,-369.882"/>
</g>
<!-- Node10 -->
<g id="node10" class="node"><title>Node10</title>
<g id="a_node10"><a xlink:href="classpsi_1_1dfmp2_1_1DFMP2.html" target="_top" xlink:title="psi::dfmp2::DFMP2">
<polygon fill="none" stroke="black" points="178,-456.5 178,-475.5 280,-475.5 280,-456.5 178,-456.5"/>
<text text-anchor="middle" x="229" y="-463.5" font-family="Helvetica,sans-Serif" font-size="10.00">psi::dfmp2::DFMP2</text>
</a>
</g>
</g>
<!-- Node4&#45;&gt;Node10 -->
<g id="edge8" class="edge"><title>Node4&#45;&gt;Node10</title>
<path fill="none" stroke="midnightblue" d="M59.7148,-370.369C73.5159,-392.28 99.6253,-428.289 132,-447 145.827,-454.992 162.444,-459.676 177.936,-462.405"/>
<polygon fill="midnightblue" stroke="midnightblue" points="62.6072,-368.389 54.4161,-361.67 56.6289,-372.031 62.6072,-368.389"/>
</g>
<!-- Node14 -->
<g id="node14" class="node"><title>Node14</title>
<g id="a_node14"><a xlink:href="classpsi_1_1dfmp2_1_1DFMP2Energy.html" target="_top" xlink:title="psi::dfmp2::DFMP2Energy">
<polygon fill="none" stroke="black" points="162.5,-418.5 162.5,-437.5 295.5,-437.5 295.5,-418.5 162.5,-418.5"/>
<text text-anchor="middle" x="229" y="-425.5" font-family="Helvetica,sans-Serif" font-size="10.00">psi::dfmp2::DFMP2Energy</text>
</a>
</g>
</g>
<!-- Node4&#45;&gt;Node14 -->
<g id="edge12" class="edge"><title>Node4&#45;&gt;Node14</title>
<path fill="none" stroke="midnightblue" d="M67.9598,-368.382C83.9791,-381.359 108.076,-398.925 132,-409 141.551,-413.022 152.002,-416.207 162.38,-418.724"/>
<polygon fill="midnightblue" stroke="midnightblue" points="69.872,-365.421 59.9437,-361.722 65.3986,-370.805 69.872,-365.421"/>
</g>
<!-- Node15 -->
<g id="node15" class="node"><title>Node15</title>
<g id="a_node15"><a xlink:href="classpsi_1_1dfoccwave_1_1DFOCC.html" target="_top" xlink:title="psi::dfoccwave::DFOCC">
<polygon fill="none" stroke="black" points="166.5,-380.5 166.5,-399.5 291.5,-399.5 291.5,-380.5 166.5,-380.5"/>
<text text-anchor="middle" x="229" y="-387.5" font-family="Helvetica,sans-Serif" font-size="10.00">psi::dfoccwave::DFOCC</text>
</a>
</g>
</g>
<!-- Node4&#45;&gt;Node15 -->
<g id="edge13" class="edge"><title>Node4&#45;&gt;Node15</title>
<path fill="none" stroke="midnightblue" d="M99.5335,-363.819C110.24,-366.253 121.483,-368.756 132,-371 146.954,-374.191 163.259,-377.486 178.117,-380.419"/>
<polygon fill="midnightblue" stroke="midnightblue" points="100.003,-360.336 89.4741,-361.518 98.4417,-367.16 100.003,-360.336"/>
</g>
<!-- Node16 -->
<g id="node16" class="node"><title>Node16</title>
<g id="a_node16"><a xlink:href="classpsi_1_1fnocc_1_1CoupledCluster.html" target="_top" xlink:title="psi::fnocc::CoupledCluster">
<polygon fill="none" stroke="black" points="162.5,-342.5 162.5,-361.5 295.5,-361.5 295.5,-342.5 162.5,-342.5"/>
<text text-anchor="middle" x="229" y="-349.5" font-family="Helvetica,sans-Serif" font-size="10.00">psi::fnocc::CoupledCluster</text>
</a>
</g>
</g>
<!-- Node4&#45;&gt;Node16 -->
<g id="edge14" class="edge"><title>Node4&#45;&gt;Node16</title>
<path fill="none" stroke="midnightblue" d="M105.643,-352C123.702,-352 143.833,-352 162.467,-352"/>
<polygon fill="midnightblue" stroke="midnightblue" points="105.563,-348.5 95.5629,-352 105.563,-355.5 105.563,-348.5"/>
</g>
<!-- Node19 -->
<g id="node19" class="node"><title>Node19</title>
<g id="a_node19"><a xlink:href="classpsi_1_1fnocc_1_1FrozenNO.html" target="_top" xlink:title="psi::fnocc::FrozenNO">
<polygon fill="none" stroke="black" points="174,-304.5 174,-323.5 284,-323.5 284,-304.5 174,-304.5"/>
<text text-anchor="middle" x="229" y="-311.5" font-family="Helvetica,sans-Serif" font-size="10.00">psi::fnocc::FrozenNO</text>
</a>
</g>
</g>
<!-- Node4&#45;&gt;Node19 -->
<g id="edge17" class="edge"><title>Node4&#45;&gt;Node19</title>
<path fill="none" stroke="midnightblue" d="M99.5335,-340.181C110.24,-337.747 121.483,-335.244 132,-333 146.954,-329.809 163.259,-326.514 178.117,-323.581"/>
<polygon fill="midnightblue" stroke="midnightblue" points="98.4417,-336.84 89.4741,-342.482 100.003,-343.664 98.4417,-336.84"/>
</g>
<!-- Node21 -->
<g id="node21" class="node"><title>Node21</title>
<g id="a_node21"><a xlink:href="classpsi_1_1lmp2_1_1Lmp2.html" target="_top" xlink:title="psi::lmp2::Lmp2">
<polygon fill="none" stroke="black" points="186,-266.5 186,-285.5 272,-285.5 272,-266.5 186,-266.5"/>
<text text-anchor="middle" x="229" y="-273.5" font-family="Helvetica,sans-Serif" font-size="10.00">psi::lmp2::Lmp2</text>
</a>
</g>
</g>
<!-- Node4&#45;&gt;Node21 -->
<g id="edge19" class="edge"><title>Node4&#45;&gt;Node21</title>
<path fill="none" stroke="midnightblue" d="M67.9598,-335.618C83.9791,-322.641 108.076,-305.075 132,-295 148.911,-287.878 168.639,-283.384 185.798,-280.568"/>
<polygon fill="midnightblue" stroke="midnightblue" points="65.3986,-333.195 59.9437,-342.278 69.872,-338.579 65.3986,-333.195"/>
</g>
<!-- Node22 -->
<g id="node22" class="node"><title>Node22</title>
<g id="a_node22"><a xlink:href="classpsi_1_1mcscf_1_1SCF.html" target="_top" xlink:title="psi::mcscf::SCF">
<polygon fill="none" stroke="black" points="184.5,-228.5 184.5,-247.5 273.5,-247.5 273.5,-228.5 184.5,-228.5"/>
<text text-anchor="middle" x="229" y="-235.5" font-family="Helvetica,sans-Serif" font-size="10.00">psi::mcscf::SCF</text>
</a>
</g>
</g>
<!-- Node4&#45;&gt;Node22 -->
<g id="edge20" class="edge"><title>Node4&#45;&gt;Node22</title>
<path fill="none" stroke="midnightblue" d="M59.7148,-333.631C73.5159,-311.72 99.6253,-275.711 132,-257 147.74,-247.903 167.093,-243.092 184.289,-240.572"/>
<polygon fill="midnightblue" stroke="midnightblue" points="56.6289,-331.969 54.4161,-342.33 62.6072,-335.611 56.6289,-331.969"/>
</g>
<!-- Node23 -->
<g id="node23" class="node"><title>Node23</title>
<g id="a_node23"><a xlink:href="classpsi_1_1mp2_1_1MP2Wavefunction.html" target="_top" xlink:title="psi::mp2::MP2Wavefunction">
<polygon fill="none" stroke="black" points="159,-190.5 159,-209.5 299,-209.5 299,-190.5 159,-190.5"/>
<text text-anchor="middle" x="229" y="-197.5" font-family="Helvetica,sans-Serif" font-size="10.00">psi::mp2::MP2Wavefunction</text>
</a>
</g>
</g>
<!-- Node4&#45;&gt;Node23 -->
<g id="edge21" class="edge"><title>Node4&#45;&gt;Node23</title>
<path fill="none" stroke="midnightblue" d="M55.3157,-332.852C66.0817,-303.385 90.903,-247.366 132,-219 139.97,-213.499 149.15,-209.506 158.607,-206.621"/>
<polygon fill="midnightblue" stroke="midnightblue" points="51.9718,-331.811 51.981,-342.406 58.5809,-334.118 51.9718,-331.811"/>
</g>
<!-- Node24 -->
<g id="node24" class="node"><title>Node24</title>
<g id="a_node24"><a xlink:href="classpsi_1_1occwave_1_1OCCWave.html" target="_top" xlink:title="psi::occwave::OCCWave">
<polygon fill="none" stroke="black" points="165,-152.5 165,-171.5 293,-171.5 293,-152.5 165,-152.5"/>
<text text-anchor="middle" x="229" y="-159.5" font-family="Helvetica,sans-Serif" font-size="10.00">psi::occwave::OCCWave</text>
</a>
</g>
</g>
<!-- Node4&#45;&gt;Node24 -->
<g id="edge22" class="edge"><title>Node4&#45;&gt;Node24</title>
<path fill="none" stroke="midnightblue" d="M52.6478,-332.141C60.3891,-295.977 82.0197,-219.562 132,-181 141.416,-173.735 152.86,-169.022 164.52,-166.01"/>
<polygon fill="midnightblue" stroke="midnightblue" points="49.1314,-331.877 50.6041,-342.369 55.9957,-333.249 49.1314,-331.877"/>
</g>
<!-- Node25 -->
<g id="node25" class="node"><title>Node25</title>
<g id="a_node25"><a xlink:href="classpsi_1_1RBase.html" target="_top" xlink:title="psi::RBase">
<polygon fill="none" stroke="black" points="196.5,-114.5 196.5,-133.5 261.5,-133.5 261.5,-114.5 196.5,-114.5"/>
<text text-anchor="middle" x="229" y="-121.5" font-family="Helvetica,sans-Serif" font-size="10.00">psi::RBase</text>
</a>
</g>
</g>
<!-- Node4&#45;&gt;Node25 -->
<g id="edge23" class="edge"><title>Node4&#45;&gt;Node25</title>
<path fill="none" stroke="midnightblue" d="M50.7111,-332.202C55.4498,-290.292 72.6248,-192.413 132,-143 149.761,-128.219 175.744,-123.781 196.202,-122.867"/>
<polygon fill="midnightblue" stroke="midnightblue" points="47.2202,-331.937 49.6984,-342.238 54.1848,-332.64 47.2202,-331.937"/>
</g>
<!-- Node32 -->
<g id="node32" class="node"><title>Node32</title>
<g id="a_node32"><a xlink:href="classpsi_1_1sapt_1_1SAPT.html" target="_top" xlink:title="psi::sapt::SAPT">
<polygon fill="none" stroke="black" points="186,-76.5 186,-95.5 272,-95.5 272,-76.5 186,-76.5"/>
<text text-anchor="middle" x="229" y="-83.5" font-family="Helvetica,sans-Serif" font-size="10.00">psi::sapt::SAPT</text>
</a>
</g>
</g>
<!-- Node4&#45;&gt;Node32 -->
<g id="edge30" class="edge"><title>Node4&#45;&gt;Node32</title>
<path fill="none" stroke="midnightblue" d="M49.336,-332.265C51.2731,-285.156 63.0945,-165.557 132,-105 146.549,-92.214 167.177,-87.0478 185.585,-85.2505"/>
<polygon fill="midnightblue" stroke="midnightblue" points="45.8345,-332.265 49.0319,-342.366 52.8313,-332.476 45.8345,-332.265"/>
</g>
<!-- Node37 -->
<g id="node37" class="node"><title>Node37</title>
<g id="a_node37"><a xlink:href="classpsi_1_1scf_1_1HF.html" target="_top" xlink:title="psi::scf::HF">
<polygon fill="none" stroke="black" points="195,-684.5 195,-703.5 263,-703.5 263,-684.5 195,-684.5"/>
<text text-anchor="middle" x="229" y="-691.5" font-family="Helvetica,sans-Serif" font-size="10.00">psi::scf::HF</text>
</a>
</g>
</g>
<!-- Node4&#45;&gt;Node37 -->
<g id="edge35" class="edge"><title>Node4&#45;&gt;Node37</title>
<path fill="none" stroke="midnightblue" d="M51.3674,-372.061C59.3068,-435.879 87.0452,-632.5 132,-675 148.544,-690.64 174.071,-695.113 194.644,-695.824"/>
<polygon fill="midnightblue" stroke="midnightblue" points="54.7962,-371.263 50.1156,-361.758 47.8473,-372.107 54.7962,-371.263"/>
</g>
<!-- Node42 -->
<g id="node42" class="node"><title>Node42</title>
<g id="a_node42"><a xlink:href="classpsi_1_1scfgrad_1_1SCFGrad.html" target="_top" xlink:title="psi::scfgrad::SCFGrad">
<polygon fill="none" stroke="black" points="171.5,-38.5 171.5,-57.5 286.5,-57.5 286.5,-38.5 171.5,-38.5"/>
<text text-anchor="middle" x="229" y="-45.5" font-family="Helvetica,sans-Serif" font-size="10.00">psi::scfgrad::SCFGrad</text>
</a>
</g>
</g>
<!-- Node4&#45;&gt;Node42 -->
<g id="edge42" class="edge"><title>Node4&#45;&gt;Node42</title>
<path fill="none" stroke="midnightblue" d="M48.3051,-332.132C47.6484,-280.083 53.5548,-138.829 132,-67 142.776,-57.1326 157.146,-51.7507 171.479,-48.9541"/>
<polygon fill="midnightblue" stroke="midnightblue" points="44.8108,-332.425 48.5382,-342.342 51.809,-332.265 44.8108,-332.425"/>
</g>
<!-- Node43 -->
<g id="node43" class="node"><title>Node43</title>
<g id="a_node43"><a xlink:href="classpsi_1_1THCEW.html" target="_top" xlink:title="psi::THCEW">
<polygon fill="none" stroke="black" points="192.5,-0.5 192.5,-19.5 265.5,-19.5 265.5,-0.5 192.5,-0.5"/>
<text text-anchor="middle" x="229" y="-7.5" font-family="Helvetica,sans-Serif" font-size="10.00">psi::THCEW</text>
</a>
</g>
</g>
<!-- Node4&#45;&gt;Node43 -->
<g id="edge43" class="edge"><title>Node4&#45;&gt;Node43</title>
<path fill="none" stroke="midnightblue" d="M51.3674,-331.939C59.3068,-268.121 87.0452,-71.4996 132,-29 147.926,-13.9433 172.179,-9.23644 192.321,-8.27192"/>
<polygon fill="midnightblue" stroke="midnightblue" points="47.8473,-331.893 50.1156,-342.242 54.7962,-332.737 47.8473,-331.893"/>
</g>
<!-- Node11 -->
<g id="node11" class="node"><title>Node11</title>
<g id="a_node11"><a xlink:href="classpsi_1_1dfmp2_1_1RDFMP2.html" target="_top" xlink:title="psi::dfmp2::RDFMP2">
<polygon fill="none" stroke="black" points="380,-475.5 380,-494.5 490,-494.5 490,-475.5 380,-475.5"/>
<text text-anchor="middle" x="435" y="-482.5" font-family="Helvetica,sans-Serif" font-size="10.00">psi::dfmp2::RDFMP2</text>
</a>
</g>
</g>
<!-- Node10&#45;&gt;Node11 -->
<g id="edge9" class="edge"><title>Node10&#45;&gt;Node11</title>
<path fill="none" stroke="midnightblue" d="M290.351,-471.621C318.689,-474.26 352.206,-477.382 379.734,-479.946"/>
<polygon fill="midnightblue" stroke="midnightblue" points="290.447,-468.115 280.165,-470.672 289.798,-475.085 290.447,-468.115"/>
</g>
<!-- Node12 -->
<g id="node12" class="node"><title>Node12</title>
<g id="a_node12"><a xlink:href="classpsi_1_1dfmp2_1_1UDFMP2.html" target="_top" xlink:title="psi::dfmp2::UDFMP2">
<polygon fill="none" stroke="black" points="380,-437.5 380,-456.5 490,-456.5 490,-437.5 380,-437.5"/>
<text text-anchor="middle" x="435" y="-444.5" font-family="Helvetica,sans-Serif" font-size="10.00">psi::dfmp2::UDFMP2</text>
</a>
</g>
</g>
<!-- Node10&#45;&gt;Node12 -->
<g id="edge10" class="edge"><title>Node10&#45;&gt;Node12</title>
<path fill="none" stroke="midnightblue" d="M290.351,-460.379C318.689,-457.74 352.206,-454.618 379.734,-452.054"/>
<polygon fill="midnightblue" stroke="midnightblue" points="289.798,-456.915 280.165,-461.328 290.447,-463.885 289.798,-456.915"/>
</g>
<!-- Node13 -->
<g id="node13" class="node"><title>Node13</title>
<g id="a_node13"><a xlink:href="classpsi_1_1dfmp2_1_1RODFMP2.html" target="_top" xlink:title="psi::dfmp2::RODFMP2">
<polygon fill="none" stroke="black" points="544.5,-437.5 544.5,-456.5 661.5,-456.5 661.5,-437.5 544.5,-437.5"/>
<text text-anchor="middle" x="603" y="-444.5" font-family="Helvetica,sans-Serif" font-size="10.00">psi::dfmp2::RODFMP2</text>
</a>
</g>
</g>
<!-- Node12&#45;&gt;Node13 -->
<g id="edge11" class="edge"><title>Node12&#45;&gt;Node13</title>
<path fill="none" stroke="midnightblue" d="M500.684,-447C515.093,-447 530.278,-447 544.382,-447"/>
<polygon fill="midnightblue" stroke="midnightblue" points="500.355,-443.5 490.355,-447 500.355,-450.5 500.355,-443.5"/>
</g>
<!-- Node17 -->
<g id="node17" class="node"><title>Node17</title>
<g id="a_node17"><a xlink:href="classpsi_1_1fnocc_1_1CoupledPair.html" target="_top" xlink:title="psi::fnocc::CoupledPair">
<polygon fill="none" stroke="black" points="375.5,-380.5 375.5,-399.5 494.5,-399.5 494.5,-380.5 375.5,-380.5"/>
<text text-anchor="middle" x="435" y="-387.5" font-family="Helvetica,sans-Serif" font-size="10.00">psi::fnocc::CoupledPair</text>
</a>
</g>
</g>
<!-- Node16&#45;&gt;Node17 -->
<g id="edge15" class="edge"><title>Node16&#45;&gt;Node17</title>
<path fill="none" stroke="midnightblue" d="M291.297,-363.418C320.486,-368.855 354.994,-375.283 382.764,-380.456"/>
<polygon fill="midnightblue" stroke="midnightblue" points="291.686,-359.93 281.214,-361.54 290.404,-366.812 291.686,-359.93"/>
</g>
<!-- Node18 -->
<g id="node18" class="node"><title>Node18</title>
<g id="a_node18"><a xlink:href="classpsi_1_1fnocc_1_1DFCoupledCluster.html" target="_top" xlink:title="psi::fnocc::DFCoupledCluster">
<polygon fill="none" stroke="black" points="362,-342.5 362,-361.5 508,-361.5 508,-342.5 362,-342.5"/>
<text text-anchor="middle" x="435" y="-349.5" font-family="Helvetica,sans-Serif" font-size="10.00">psi::fnocc::DFCoupledCluster</text>
</a>
</g>
</g>
<!-- Node16&#45;&gt;Node18 -->
<g id="edge16" class="edge"><title>Node16&#45;&gt;Node18</title>
<path fill="none" stroke="midnightblue" d="M305.71,-352C324.037,-352 343.58,-352 361.743,-352"/>
<polygon fill="midnightblue" stroke="midnightblue" points="305.67,-348.5 295.67,-352 305.67,-355.5 305.67,-348.5"/>
</g>
<!-- Node20 -->
<g id="node20" class="node"><title>Node20</title>
<g id="a_node20"><a xlink:href="classpsi_1_1fnocc_1_1DFFrozenNO.html" target="_top" xlink:title="psi::fnocc::DFFrozenNO">
<polygon fill="none" stroke="black" points="373,-304.5 373,-323.5 497,-323.5 497,-304.5 373,-304.5"/>
<text text-anchor="middle" x="435" y="-311.5" font-family="Helvetica,sans-Serif" font-size="10.00">psi::fnocc::DFFrozenNO</text>
</a>
</g>
</g>
<!-- Node19&#45;&gt;Node20 -->
<g id="edge18" class="edge"><title>Node19&#45;&gt;Node20</title>
<path fill="none" stroke="midnightblue" d="M294.279,-314C319.36,-314 347.983,-314 372.764,-314"/>
<polygon fill="midnightblue" stroke="midnightblue" points="294.133,-310.5 284.133,-314 294.133,-317.5 294.133,-310.5"/>
</g>
<!-- Node26 -->
<g id="node26" class="node"><title>Node26</title>
<g id="a_node26"><a xlink:href="classpsi_1_1RCIS.html" target="_top" xlink:title="psi::RCIS">
<polygon fill="none" stroke="black" points="405,-190.5 405,-209.5 465,-209.5 465,-190.5 405,-190.5"/>
<text text-anchor="middle" x="435" y="-197.5" font-family="Helvetica,sans-Serif" font-size="10.00">psi::RCIS</text>
</a>
</g>
</g>
<!-- Node25&#45;&gt;Node26 -->
<g id="edge24" class="edge"><title>Node25&#45;&gt;Node26</title>
<path fill="none" stroke="midnightblue" d="M271.925,-126.662C289.483,-129.169 309.583,-133.948 326,-143 346.373,-154.233 341.989,-169.135 362,-181 375.01,-188.714 391.168,-193.346 404.878,-196.101"/>
<polygon fill="midnightblue" stroke="midnightblue" points="272.28,-123.179 261.928,-125.433 271.426,-130.127 272.28,-123.179"/>
</g>
<!-- Node28 -->
<g id="node28" class="node"><title>Node28</title>
<g id="a_node28"><a xlink:href="classpsi_1_1RCPHF.html" target="_top" xlink:title="psi::RCPHF">
<polygon fill="none" stroke="black" points="399.5,-152.5 399.5,-171.5 470.5,-171.5 470.5,-152.5 399.5,-152.5"/>
<text text-anchor="middle" x="435" y="-159.5" font-family="Helvetica,sans-Serif" font-size="10.00">psi::RCPHF</text>
</a>
</g>
</g>
<!-- Node25&#45;&gt;Node28 -->
<g id="edge26" class="edge"><title>Node25&#45;&gt;Node28</title>
<path fill="none" stroke="midnightblue" d="M272.003,-131.824C309.606,-138.829 364.086,-148.977 399.279,-155.532"/>
<polygon fill="midnightblue" stroke="midnightblue" points="272.347,-128.328 261.875,-129.938 271.065,-135.21 272.347,-128.328"/>
</g>
<!-- Node30 -->
<g id="node30" class="node"><title>Node30</title>
<g id="a_node30"><a xlink:href="classpsi_1_1RTDHF.html" target="_top" xlink:title="psi::RTDHF">
<polygon fill="none" stroke="black" points="400,-114.5 400,-133.5 470,-133.5 470,-114.5 400,-114.5"/>
<text text-anchor="middle" x="435" y="-121.5" font-family="Helvetica,sans-Serif" font-size="10.00">psi::RTDHF</text>
</a>
</g>
</g>
<!-- Node25&#45;&gt;Node30 -->
<g id="edge28" class="edge"><title>Node25&#45;&gt;Node30</title>
<path fill="none" stroke="midnightblue" d="M272.067,-124C309.915,-124 364.823,-124 399.97,-124"/>
<polygon fill="midnightblue" stroke="midnightblue" points="271.875,-120.5 261.875,-124 271.875,-127.5 271.875,-120.5"/>
</g>
<!-- Node27 -->
<g id="node27" class="node"><title>Node27</title>
<g id="a_node27"><a xlink:href="classpsi_1_1RTDA.html" target="_top" xlink:title="psi::RTDA">
<polygon fill="none" stroke="black" points="571.5,-190.5 571.5,-209.5 634.5,-209.5 634.5,-190.5 571.5,-190.5"/>
<text text-anchor="middle" x="603" y="-197.5" font-family="Helvetica,sans-Serif" font-size="10.00">psi::RTDA</text>
</a>
</g>
</g>
<!-- Node26&#45;&gt;Node27 -->
<g id="edge25" class="edge"><title>Node26&#45;&gt;Node27</title>
<path fill="none" stroke="midnightblue" d="M475.607,-200C504.945,-200 544.346,-200 571.311,-200"/>
<polygon fill="midnightblue" stroke="midnightblue" points="475.295,-196.5 465.295,-200 475.295,-203.5 475.295,-196.5"/>
</g>
<!-- Node29 -->
<g id="node29" class="node"><title>Node29</title>
<g id="a_node29"><a xlink:href="classpsi_1_1RCPKS.html" target="_top" xlink:title="psi::RCPKS">
<polygon fill="none" stroke="black" points="567.5,-152.5 567.5,-171.5 638.5,-171.5 638.5,-152.5 567.5,-152.5"/>
<text text-anchor="middle" x="603" y="-159.5" font-family="Helvetica,sans-Serif" font-size="10.00">psi::RCPKS</text>
</a>
</g>
</g>
<!-- Node28&#45;&gt;Node29 -->
<g id="edge27" class="edge"><title>Node28&#45;&gt;Node29</title>
<path fill="none" stroke="midnightblue" d="M480.835,-162C508,-162 542.136,-162 567.247,-162"/>
<polygon fill="midnightblue" stroke="midnightblue" points="480.799,-158.5 470.799,-162 480.799,-165.5 480.799,-158.5"/>
</g>
<!-- Node31 -->
<g id="node31" class="node"><title>Node31</title>
<g id="a_node31"><a xlink:href="classpsi_1_1RTDDFT.html" target="_top" xlink:title="psi::RTDDFT">
<polygon fill="none" stroke="black" points="565,-114.5 565,-133.5 641,-133.5 641,-114.5 565,-114.5"/>
<text text-anchor="middle" x="603" y="-121.5" font-family="Helvetica,sans-Serif" font-size="10.00">psi::RTDDFT</text>
</a>
</g>
</g>
<!-- Node30&#45;&gt;Node31 -->
<g id="edge29" class="edge"><title>Node30&#45;&gt;Node31</title>
<path fill="none" stroke="midnightblue" d="M480.497,-124C506.832,-124 539.811,-124 564.763,-124"/>
<polygon fill="midnightblue" stroke="midnightblue" points="480.395,-120.5 470.395,-124 480.395,-127.5 480.395,-120.5"/>
</g>
<!-- Node33 -->
<g id="node33" class="node"><title>Node33</title>
<g id="a_node33"><a xlink:href="classpsi_1_1sapt_1_1SAPT0.html" target="_top" xlink:title="psi::sapt::SAPT0">
<polygon fill="none" stroke="black" points="389,-76.5 389,-95.5 481,-95.5 481,-76.5 389,-76.5"/>
<text text-anchor="middle" x="435" y="-83.5" font-family="Helvetica,sans-Serif" font-size="10.00">psi::sapt::SAPT0</text>
</a>
</g>
</g>
<!-- Node32&#45;&gt;Node33 -->
<g id="edge31" class="edge"><title>Node32&#45;&gt;Node33</title>
<path fill="none" stroke="midnightblue" d="M282.621,-86C315.561,-86 357.557,-86 388.955,-86"/>
<polygon fill="midnightblue" stroke="midnightblue" points="282.269,-82.5001 272.269,-86 282.269,-89.5001 282.269,-82.5001"/>
</g>
<!-- Node34 -->
<g id="node34" class="node"><title>Node34</title>
<g id="a_node34"><a xlink:href="classpsi_1_1sapt_1_1SAPT2.html" target="_top" xlink:title="psi::sapt::SAPT2">
<polygon fill="none" stroke="black" points="389,-38.5 389,-57.5 481,-57.5 481,-38.5 389,-38.5"/>
<text text-anchor="middle" x="435" y="-45.5" font-family="Helvetica,sans-Serif" font-size="10.00">psi::sapt::SAPT2</text>
</a>
</g>
</g>
<!-- Node32&#45;&gt;Node34 -->
<g id="edge32" class="edge"><title>Node32&#45;&gt;Node34</title>
<path fill="none" stroke="midnightblue" d="M282.193,-76.2777C315.197,-70.13 357.421,-62.2648 388.955,-56.3907"/>
<polygon fill="midnightblue" stroke="midnightblue" points="281.459,-72.8542 272.269,-78.1264 282.741,-79.7359 281.459,-72.8542"/>
</g>
<!-- Node35 -->
<g id="node35" class="node"><title>Node35</title>
<g id="a_node35"><a xlink:href="classpsi_1_1sapt_1_1SAPT2p.html" target="_top" xlink:title="psi::sapt::SAPT2p">
<polygon fill="none" stroke="black" points="554.5,-38.5 554.5,-57.5 651.5,-57.5 651.5,-38.5 554.5,-38.5"/>
<text text-anchor="middle" x="603" y="-45.5" font-family="Helvetica,sans-Serif" font-size="10.00">psi::sapt::SAPT2p</text>
</a>
</g>
</g>
<!-- Node34&#45;&gt;Node35 -->
<g id="edge33" class="edge"><title>Node34&#45;&gt;Node35</title>
<path fill="none" stroke="midnightblue" d="M491.453,-48C511.843,-48 534.735,-48 554.375,-48"/>
<polygon fill="midnightblue" stroke="midnightblue" points="491.36,-44.5001 481.36,-48 491.36,-51.5001 491.36,-44.5001"/>
</g>
<!-- Node36 -->
<g id="node36" class="node"><title>Node36</title>
<g id="a_node36"><a xlink:href="classpsi_1_1sapt_1_1SAPT2p3.html" target="_top" xlink:title="psi::sapt::SAPT2p3">
<polygon fill="none" stroke="black" points="698,-38.5 698,-57.5 800,-57.5 800,-38.5 698,-38.5"/>
<text text-anchor="middle" x="749" y="-45.5" font-family="Helvetica,sans-Serif" font-size="10.00">psi::sapt::SAPT2p3</text>
</a>
</g>
</g>
<!-- Node35&#45;&gt;Node36 -->
<g id="edge34" class="edge"><title>Node35&#45;&gt;Node36</title>
<path fill="none" stroke="midnightblue" d="M661.778,-48C673.611,-48 685.979,-48 697.531,-48"/>
<polygon fill="midnightblue" stroke="midnightblue" points="661.55,-44.5001 651.55,-48 661.55,-51.5001 661.55,-44.5001"/>
</g>
<!-- Node38 -->
<g id="node38" class="node"><title>Node38</title>
<g id="a_node38"><a xlink:href="classpsi_1_1scf_1_1CUHF.html" target="_top" xlink:title="psi::scf::CUHF">
<polygon fill="none" stroke="black" points="393.5,-703.5 393.5,-722.5 476.5,-722.5 476.5,-703.5 393.5,-703.5"/>
<text text-anchor="middle" x="435" y="-710.5" font-family="Helvetica,sans-Serif" font-size="10.00">psi::scf::CUHF</text>
</a>
</g>
</g>
<!-- Node37&#45;&gt;Node38 -->
<g id="edge36" class="edge"><title>Node37&#45;&gt;Node38</title>
<path fill="none" stroke="midnightblue" d="M273.293,-698.032C308.789,-701.338 358.666,-705.984 393.406,-709.219"/>
<polygon fill="midnightblue" stroke="midnightblue" points="273.512,-694.537 263.23,-697.095 272.862,-701.507 273.512,-694.537"/>
</g>
<!-- Node39 -->
<g id="node39" class="node"><title>Node39</title>
<g id="a_node39"><a xlink:href="classpsi_1_1scf_1_1RHF.html" target="_top" xlink:title="psi::scf::RHF">
<polygon fill="none" stroke="black" points="397,-779.5 397,-798.5 473,-798.5 473,-779.5 397,-779.5"/>
<text text-anchor="middle" x="435" y="-786.5" font-family="Helvetica,sans-Serif" font-size="10.00">psi::scf::RHF</text>
</a>
</g>
</g>
<!-- Node37&#45;&gt;Node39 -->
<g id="edge37" class="edge"><title>Node37&#45;&gt;Node39</title>
<path fill="none" stroke="midnightblue" d="M252.579,-709.489C278.133,-726.416 321.487,-753.337 362,-770 373,-774.524 385.392,-778.25 396.756,-781.168"/>
<polygon fill="midnightblue" stroke="midnightblue" points="254.263,-706.405 244.008,-703.743 250.365,-712.219 254.263,-706.405"/>
</g>
<!-- Node40 -->
<g id="node40" class="node"><title>Node40</title>
<g id="a_node40"><a xlink:href="classpsi_1_1scf_1_1ROHF.html" target="_top" xlink:title="psi::scf::ROHF">
<polygon fill="none" stroke="black" points="393.5,-665.5 393.5,-684.5 476.5,-684.5 476.5,-665.5 393.5,-665.5"/>
<text text-anchor="middle" x="435" y="-672.5" font-family="Helvetica,sans-Serif" font-size="10.00">psi::scf::ROHF</text>
</a>
</g>
</g>
<!-- Node37&#45;&gt;Node40 -->
<g id="edge39" class="edge"><title>Node37&#45;&gt;Node40</title>
<path fill="none" stroke="midnightblue" d="M273.293,-689.968C308.789,-686.662 358.666,-682.016 393.406,-678.781"/>
<polygon fill="midnightblue" stroke="midnightblue" points="272.862,-686.493 263.23,-690.905 273.512,-693.463 272.862,-686.493"/>
</g>
<!-- Node41 -->
<g id="node41" class="node"><title>Node41</title>
<g id="a_node41"><a xlink:href="classpsi_1_1scf_1_1UHF.html" target="_top" xlink:title="psi::scf::UHF">
<polygon fill="none" stroke="black" points="397,-627.5 397,-646.5 473,-646.5 473,-627.5 397,-627.5"/>
<text text-anchor="middle" x="435" y="-634.5" font-family="Helvetica,sans-Serif" font-size="10.00">psi::scf::UHF</text>
</a>
</g>
</g>
<!-- Node37&#45;&gt;Node41 -->
<g id="edge40" class="edge"><title>Node37&#45;&gt;Node41</title>
<path fill="none" stroke="midnightblue" d="M273.165,-688.2C289.951,-685.239 309.157,-680.968 326,-675 343.053,-668.958 345.145,-662.573 362,-656 373.081,-651.679 385.496,-648.01 396.856,-645.082"/>
<polygon fill="midnightblue" stroke="midnightblue" points="272.36,-684.786 263.069,-689.878 273.508,-691.691 272.36,-684.786"/>
</g>
<!-- Node39&#45;&gt;Node2 -->
<g id="edge38" class="edge"><title>Node39&#45;&gt;Node2</title>
<path fill="none" stroke="midnightblue" d="M483.231,-783.594C509.124,-780.63 540.761,-777.009 564.871,-774.25"/>
<polygon fill="midnightblue" stroke="midnightblue" points="482.791,-780.121 473.254,-784.736 483.587,-787.076 482.791,-780.121"/>
</g>
<!-- Node41&#45;&gt;Node3 -->
<g id="edge41" class="edge"><title>Node41&#45;&gt;Node3</title>
<path fill="none" stroke="midnightblue" d="M482.765,-649.112C491.178,-651.356 499.859,-653.714 508,-656 528.984,-661.893 552.484,-668.893 570.738,-674.419"/>
<polygon fill="midnightblue" stroke="midnightblue" points="483.622,-645.718 473.059,-646.541 481.829,-652.485 483.622,-645.718"/>
</g>
<!-- Node44 -->
<g id="node44" class="node"><title>Node44</title>
<g id="a_node44"><a xlink:href="classpsi_1_1RTHCEW.html" target="_top" xlink:title="psi::RTHCEW">
<polygon fill="none" stroke="black" points="395,-0.5 395,-19.5 475,-19.5 475,-0.5 395,-0.5"/>
<text text-anchor="middle" x="435" y="-7.5" font-family="Helvetica,sans-Serif" font-size="10.00">psi::RTHCEW</text>
</a>
</g>
</g>
<!-- Node43&#45;&gt;Node44 -->
<g id="edge44" class="edge"><title>Node43&#45;&gt;Node44</title>
<path fill="none" stroke="midnightblue" d="M275.705,-10C311.471,-10 360.682,-10 394.697,-10"/>
<polygon fill="midnightblue" stroke="midnightblue" points="275.534,-6.5001 265.534,-10 275.534,-13.5001 275.534,-6.5001"/>
</g>
</g>
</svg>
