<?xml version="1.0" encoding="UTF-8" standalone="no"?>
<!DOCTYPE svg PUBLIC "-//W3C//DTD SVG 1.1//EN"
 "http://www.w3.org/Graphics/SVG/1.1/DTD/svg11.dtd">
<!-- Generated by graphviz version 2.30.1 (20140110.0959)
 -->
<!-- Title: Graphical Class Hierarchy Pages: 1 -->
<svg width="320pt" height="66pt"
 viewBox="0.00 0.00 320.00 66.00" xmlns="http://www.w3.org/2000/svg" xmlns:xlink="http://www.w3.org/1999/xlink">
<g id="graph0" class="graph" transform="scale(1 1) rotate(0) translate(4 62)">
<title>Graphical Class Hierarchy</title>
<!-- Node1 -->
<g id="node1" class="node"><title>Node1</title>
<g id="a_node1"><a xlink:href="classpsi_1_1SAPTDenominator.html" target="_top" xlink:title="psi::SAPTDenominator">
<polygon fill="none" stroke="black" points="0.5,-19.5 0.5,-38.5 117.5,-38.5 117.5,-19.5 0.5,-19.5"/>
<text text-anchor="middle" x="59" y="-26.5" font-family="Helvetica,sans-Serif" font-size="10.00">psi::SAPTDenominator</text>
</a>
</g>
</g>
<!-- Node2 -->
<g id="node2" class="node"><title>Node2</title>
<g id="a_node2"><a xlink:href="classpsi_1_1SAPTCholeskyDenominator.html" target="_top" xlink:title="psi::SAPTCholeskyDenominator">
<polygon fill="none" stroke="black" points="154,-38.5 154,-57.5 312,-57.5 312,-38.5 154,-38.5"/>
<text text-anchor="middle" x="233" y="-45.5" font-family="Helvetica,sans-Serif" font-size="10.00">psi::SAPTCholeskyDenominator</text>
</a>
</g>
</g>
<!-- Node1&#45;&gt;Node2 -->
<g id="edge1" class="edge"><title>Node1&#45;&gt;Node2</title>
<path fill="none" stroke="midnightblue" d="M127.712,-36.4799C136.316,-37.4303 145.176,-38.409 153.926,-39.3755"/>
<polygon fill="midnightblue" stroke="midnightblue" points="128.076,-32.9988 117.752,-35.3796 127.307,-39.9565 128.076,-32.9988"/>
</g>
<!-- Node3 -->
<g id="node3" class="node"><title>Node3</title>
<g id="a_node3"><a xlink:href="classpsi_1_1SAPTLaplaceDenominator.html" target="_top" xlink:title="psi::SAPTLaplaceDenominator">
<polygon fill="none" stroke="black" points="157.5,-0.5 157.5,-19.5 308.5,-19.5 308.5,-0.5 157.5,-0.5"/>
<text text-anchor="middle" x="233" y="-7.5" font-family="Helvetica,sans-Serif" font-size="10.00">psi::SAPTLaplaceDenominator</text>
</a>
</g>
</g>
<!-- Node1&#45;&gt;Node3 -->
<g id="edge2" class="edge"><title>Node1&#45;&gt;Node3</title>
<path fill="none" stroke="midnightblue" d="M127.727,-21.5186C137.433,-20.4464 147.464,-19.3383 157.295,-18.2523"/>
<polygon fill="midnightblue" stroke="midnightblue" points="127.307,-18.0435 117.752,-22.6204 128.076,-25.0012 127.307,-18.0435"/>
</g>
</g>
</svg>
