<?xml version="1.0" encoding="UTF-8" standalone="no"?>
<!DOCTYPE svg PUBLIC "-//W3C//DTD SVG 1.1//EN"
 "http://www.w3.org/Graphics/SVG/1.1/DTD/svg11.dtd">
<!-- Generated by graphviz version 2.30.1 (20140110.0959)
 -->
<!-- Title: Graphical Class Hierarchy Pages: 1 -->
<svg width="246pt" height="66pt"
 viewBox="0.00 0.00 246.00 66.00" xmlns="http://www.w3.org/2000/svg" xmlns:xlink="http://www.w3.org/1999/xlink">
<g id="graph0" class="graph" transform="scale(1 1) rotate(0) translate(4 62)">
<title>Graphical Class Hierarchy</title>
<!-- Node1 -->
<g id="node1" class="node"><title>Node1</title>
<g id="a_node1"><a xlink:href="classpsi_1_1GridBlocker.html" target="_top" xlink:title="psi::GridBlocker">
<polygon fill="none" stroke="black" points="0,-19.5 0,-38.5 86,-38.5 86,-19.5 0,-19.5"/>
<text text-anchor="middle" x="43" y="-26.5" font-family="Helvetica,sans-Serif" font-size="10.00">psi::GridBlocker</text>
</a>
</g>
</g>
<!-- Node2 -->
<g id="node2" class="node"><title>Node2</title>
<g id="a_node2"><a xlink:href="classpsi_1_1NaiveGridBlocker.html" target="_top" xlink:title="psi::NaiveGridBlocker">
<polygon fill="none" stroke="black" points="124,-38.5 124,-57.5 236,-57.5 236,-38.5 124,-38.5"/>
<text text-anchor="middle" x="180" y="-45.5" font-family="Helvetica,sans-Serif" font-size="10.00">psi::NaiveGridBlocker</text>
</a>
</g>
</g>
<!-- Node1&#45;&gt;Node2 -->
<g id="edge1" class="edge"><title>Node1&#45;&gt;Node2</title>
<path fill="none" stroke="midnightblue" d="M96.3493,-36.3677C105.387,-37.6397 114.808,-38.9655 123.915,-40.2474"/>
<polygon fill="midnightblue" stroke="midnightblue" points="96.7347,-32.8875 86.3444,-34.9596 95.759,-39.8192 96.7347,-32.8875"/>
</g>
<!-- Node3 -->
<g id="node3" class="node"><title>Node3</title>
<g id="a_node3"><a xlink:href="classpsi_1_1OctreeGridBlocker.html" target="_top" xlink:title="psi::OctreeGridBlocker">
<polygon fill="none" stroke="black" points="122,-0.5 122,-19.5 238,-19.5 238,-0.5 122,-0.5"/>
<text text-anchor="middle" x="180" y="-7.5" font-family="Helvetica,sans-Serif" font-size="10.00">psi::OctreeGridBlocker</text>
</a>
</g>
</g>
<!-- Node1&#45;&gt;Node3 -->
<g id="edge2" class="edge"><title>Node1&#45;&gt;Node3</title>
<path fill="none" stroke="midnightblue" d="M96.372,-21.6291C104.757,-20.449 113.47,-19.2227 121.957,-18.0282"/>
<polygon fill="midnightblue" stroke="midnightblue" points="95.759,-18.1808 86.3444,-23.0404 96.7347,-25.1125 95.759,-18.1808"/>
</g>
</g>
</svg>
