<?xml version="1.0" encoding="UTF-8" standalone="no"?>
<!DOCTYPE svg PUBLIC "-//W3C//DTD SVG 1.1//EN"
 "http://www.w3.org/Graphics/SVG/1.1/DTD/svg11.dtd">
<!-- Generated by graphviz version 2.30.1 (20140110.0959)
 -->
<!-- Title: Graphical Class Hierarchy Pages: 1 -->
<svg width="452pt" height="104pt"
 viewBox="0.00 0.00 452.00 104.00" xmlns="http://www.w3.org/2000/svg" xmlns:xlink="http://www.w3.org/1999/xlink">
<g id="graph0" class="graph" transform="scale(1 1) rotate(0) translate(4 100)">
<title>Graphical Class Hierarchy</title>
<!-- Node1 -->
<g id="node1" class="node"><title>Node1</title>
<g id="a_node1"><a xlink:href="classpsi_1_1Solver.html" target="_top" xlink:title="psi::Solver">
<polygon fill="none" stroke="black" points="0.5,-19.5 0.5,-38.5 63.5,-38.5 63.5,-19.5 0.5,-19.5"/>
<text text-anchor="middle" x="32" y="-26.5" font-family="Helvetica,sans-Serif" font-size="10.00">psi::Solver</text>
</a>
</g>
</g>
<!-- Node2 -->
<g id="node2" class="node"><title>Node2</title>
<g id="a_node2"><a xlink:href="classpsi_1_1RSolver.html" target="_top" xlink:title="psi::RSolver">
<polygon fill="none" stroke="black" points="100.5,-38.5 100.5,-57.5 171.5,-57.5 171.5,-38.5 100.5,-38.5"/>
<text text-anchor="middle" x="136" y="-45.5" font-family="Helvetica,sans-Serif" font-size="10.00">psi::RSolver</text>
</a>
</g>
</g>
<!-- Node1&#45;&gt;Node2 -->
<g id="edge1" class="edge"><title>Node1&#45;&gt;Node2</title>
<path fill="none" stroke="midnightblue" d="M73.4515,-36.5351C82.3998,-38.2019 91.8011,-39.9532 100.487,-41.5712"/>
<polygon fill="midnightblue" stroke="midnightblue" points="74.0752,-33.0911 63.6034,-34.7006 72.7933,-39.9728 74.0752,-33.0911"/>
</g>
<!-- Node7 -->
<g id="node7" class="node"><title>Node7</title>
<g id="a_node7"><a xlink:href="classpsi_1_1USolver.html" target="_top" xlink:title="psi::USolver">
<polygon fill="none" stroke="black" points="100.5,-0.5 100.5,-19.5 171.5,-19.5 171.5,-0.5 100.5,-0.5"/>
<text text-anchor="middle" x="136" y="-7.5" font-family="Helvetica,sans-Serif" font-size="10.00">psi::USolver</text>
</a>
</g>
</g>
<!-- Node1&#45;&gt;Node7 -->
<g id="edge6" class="edge"><title>Node1&#45;&gt;Node7</title>
<path fill="none" stroke="midnightblue" d="M73.4515,-21.4649C82.3998,-19.7981 91.8011,-18.0468 100.487,-16.4288"/>
<polygon fill="midnightblue" stroke="midnightblue" points="72.7933,-18.0272 63.6034,-23.2994 74.0752,-24.9089 72.7933,-18.0272"/>
</g>
<!-- Node3 -->
<g id="node3" class="node"><title>Node3</title>
<g id="a_node3"><a xlink:href="classpsi_1_1CGRSolver.html" target="_top" xlink:title="psi::CGRSolver">
<polygon fill="none" stroke="black" points="210,-76.5 210,-95.5 296,-95.5 296,-76.5 210,-76.5"/>
<text text-anchor="middle" x="253" y="-83.5" font-family="Helvetica,sans-Serif" font-size="10.00">psi::CGRSolver</text>
</a>
</g>
</g>
<!-- Node2&#45;&gt;Node3 -->
<g id="edge2" class="edge"><title>Node2&#45;&gt;Node3</title>
<path fill="none" stroke="midnightblue" d="M175.815,-60.8259C191.246,-65.9247 208.691,-71.6891 222.99,-76.4141"/>
<polygon fill="midnightblue" stroke="midnightblue" points="176.613,-57.4033 166.019,-57.589 174.416,-64.0498 176.613,-57.4033"/>
</g>
<!-- Node4 -->
<g id="node4" class="node"><title>Node4</title>
<g id="a_node4"><a xlink:href="classpsi_1_1DLRSolver.html" target="_top" xlink:title="psi::DLRSolver">
<polygon fill="none" stroke="black" points="211.5,-38.5 211.5,-57.5 294.5,-57.5 294.5,-38.5 211.5,-38.5"/>
<text text-anchor="middle" x="253" y="-45.5" font-family="Helvetica,sans-Serif" font-size="10.00">psi::DLRSolver</text>
</a>
</g>
</g>
<!-- Node2&#45;&gt;Node4 -->
<g id="edge3" class="edge"><title>Node2&#45;&gt;Node4</title>
<path fill="none" stroke="midnightblue" d="M181.524,-48C191.376,-48 201.764,-48 211.448,-48"/>
<polygon fill="midnightblue" stroke="midnightblue" points="181.504,-44.5001 171.504,-48 181.504,-51.5001 181.504,-44.5001"/>
</g>
<!-- Node6 -->
<g id="node6" class="node"><title>Node6</title>
<g id="a_node6"><a xlink:href="classpsi_1_1DLRXSolver.html" target="_top" xlink:title="psi::DLRXSolver">
<polygon fill="none" stroke="black" points="208,-0.5 208,-19.5 298,-19.5 298,-0.5 208,-0.5"/>
<text text-anchor="middle" x="253" y="-7.5" font-family="Helvetica,sans-Serif" font-size="10.00">psi::DLRXSolver</text>
</a>
</g>
</g>
<!-- Node2&#45;&gt;Node6 -->
<g id="edge5" class="edge"><title>Node2&#45;&gt;Node6</title>
<path fill="none" stroke="midnightblue" d="M175.815,-35.1741C191.246,-30.0753 208.691,-24.3109 222.99,-19.5859"/>
<polygon fill="midnightblue" stroke="midnightblue" points="174.416,-31.9502 166.019,-38.411 176.613,-38.5967 174.416,-31.9502"/>
</g>
<!-- Node5 -->
<g id="node5" class="node"><title>Node5</title>
<g id="a_node5"><a xlink:href="classpsi_1_1RayleighRSolver.html" target="_top" xlink:title="psi::RayleighRSolver">
<polygon fill="none" stroke="black" points="334.5,-38.5 334.5,-57.5 443.5,-57.5 443.5,-38.5 334.5,-38.5"/>
<text text-anchor="middle" x="389" y="-45.5" font-family="Helvetica,sans-Serif" font-size="10.00">psi::RayleighRSolver</text>
</a>
</g>
</g>
<!-- Node4&#45;&gt;Node5 -->
<g id="edge4" class="edge"><title>Node4&#45;&gt;Node5</title>
<path fill="none" stroke="midnightblue" d="M304.78,-48C314.4,-48 324.495,-48 334.204,-48"/>
<polygon fill="midnightblue" stroke="midnightblue" points="304.568,-44.5001 294.568,-48 304.568,-51.5001 304.568,-44.5001"/>
</g>
</g>
</svg>
