<?xml version="1.0" encoding="UTF-8" standalone="no"?>
<!DOCTYPE svg PUBLIC "-//W3C//DTD SVG 1.1//EN"
 "http://www.w3.org/Graphics/SVG/1.1/DTD/svg11.dtd">
<!-- Generated by graphviz version 2.30.1 (20140110.0959)
 -->
<!-- Title: Graphical Class Hierarchy Pages: 1 -->
<svg width="416pt" height="104pt"
 viewBox="0.00 0.00 416.00 104.00" xmlns="http://www.w3.org/2000/svg" xmlns:xlink="http://www.w3.org/1999/xlink">
<g id="graph0" class="graph" transform="scale(1 1) rotate(0) translate(4 100)">
<title>Graphical Class Hierarchy</title>
<!-- Node1 -->
<g id="node1" class="node"><title>Node1</title>
<g id="a_node1"><a xlink:href="classyeti_1_1Malloc.html" target="_top" xlink:title="yeti::Malloc\&lt; ThreadLock \&gt;">
<polygon fill="none" stroke="black" points="0,-38.5 0,-57.5 136,-57.5 136,-38.5 0,-38.5"/>
<text text-anchor="middle" x="68" y="-45.5" font-family="Helvetica,sans-Serif" font-size="10.00">yeti::Malloc&lt; ThreadLock &gt;</text>
</a>
</g>
</g>
<!-- Node2 -->
<g id="node2" class="node"><title>Node2</title>
<g id="a_node2"><a xlink:href="classyeti_1_1ThreadLock.html" target="_top" xlink:title="yeti::ThreadLock">
<polygon fill="none" stroke="black" points="172.5,-38.5 172.5,-57.5 261.5,-57.5 261.5,-38.5 172.5,-38.5"/>
<text text-anchor="middle" x="217" y="-45.5" font-family="Helvetica,sans-Serif" font-size="10.00">yeti::ThreadLock</text>
</a>
</g>
</g>
<!-- Node1&#45;&gt;Node2 -->
<g id="edge1" class="edge"><title>Node1&#45;&gt;Node2</title>
<path fill="none" stroke="midnightblue" d="M146.136,-48C155.07,-48 163.932,-48 172.192,-48"/>
<polygon fill="midnightblue" stroke="midnightblue" points="146.047,-44.5001 136.047,-48 146.047,-51.5001 146.047,-44.5001"/>
</g>
<!-- Node3 -->
<g id="node3" class="node"><title>Node3</title>
<g id="a_node3"><a xlink:href="classyeti_1_1MultiThreadLock.html" target="_top" xlink:title="yeti::MultiThreadLock">
<polygon fill="none" stroke="black" points="298,-76.5 298,-95.5 408,-95.5 408,-76.5 298,-76.5"/>
<text text-anchor="middle" x="353" y="-83.5" font-family="Helvetica,sans-Serif" font-size="10.00">yeti::MultiThreadLock</text>
</a>
</g>
</g>
<!-- Node2&#45;&gt;Node3 -->
<g id="edge2" class="edge"><title>Node2&#45;&gt;Node3</title>
<path fill="none" stroke="midnightblue" d="M261.438,-60.3183C279.849,-65.5393 300.98,-71.5316 318.197,-76.4141"/>
<polygon fill="midnightblue" stroke="midnightblue" points="262.389,-56.9501 251.814,-57.589 260.48,-63.6845 262.389,-56.9501"/>
</g>
<!-- Node4 -->
<g id="node4" class="node"><title>Node4</title>
<g id="a_node4"><a xlink:href="classyeti_1_1NullThreadLock.html" target="_top" xlink:title="yeti::NullThreadLock">
<polygon fill="none" stroke="black" points="299.5,-38.5 299.5,-57.5 406.5,-57.5 406.5,-38.5 299.5,-38.5"/>
<text text-anchor="middle" x="353" y="-45.5" font-family="Helvetica,sans-Serif" font-size="10.00">yeti::NullThreadLock</text>
</a>
</g>
</g>
<!-- Node2&#45;&gt;Node4 -->
<g id="edge3" class="edge"><title>Node2&#45;&gt;Node4</title>
<path fill="none" stroke="midnightblue" d="M271.634,-48C280.768,-48 290.248,-48 299.357,-48"/>
<polygon fill="midnightblue" stroke="midnightblue" points="271.506,-44.5001 261.506,-48 271.506,-51.5001 271.506,-44.5001"/>
</g>
<!-- Node5 -->
<g id="node5" class="node"><title>Node5</title>
<g id="a_node5"><a xlink:href="classyeti_1_1pThreadLock.html" target="_top" xlink:title="yeti::pThreadLock">
<polygon fill="none" stroke="black" points="305.5,-0.5 305.5,-19.5 400.5,-19.5 400.5,-0.5 305.5,-0.5"/>
<text text-anchor="middle" x="353" y="-7.5" font-family="Helvetica,sans-Serif" font-size="10.00">yeti::pThreadLock</text>
</a>
</g>
</g>
<!-- Node2&#45;&gt;Node5 -->
<g id="edge4" class="edge"><title>Node2&#45;&gt;Node5</title>
<path fill="none" stroke="midnightblue" d="M261.438,-35.6817C279.849,-30.4607 300.98,-24.4684 318.197,-19.5859"/>
<polygon fill="midnightblue" stroke="midnightblue" points="260.48,-32.3155 251.814,-38.411 262.389,-39.0499 260.48,-32.3155"/>
</g>
</g>
</svg>
