<?xml version="1.0" encoding="UTF-8" standalone="no"?>
<!DOCTYPE svg PUBLIC "-//W3C//DTD SVG 1.1//EN"
 "http://www.w3.org/Graphics/SVG/1.1/DTD/svg11.dtd">
<!-- Generated by graphviz version 2.30.1 (20140110.0959)
 -->
<!-- Title: Graphical Class Hierarchy Pages: 1 -->
<svg width="598pt" height="66pt"
 viewBox="0.00 0.00 598.00 66.00" xmlns="http://www.w3.org/2000/svg" xmlns:xlink="http://www.w3.org/1999/xlink">
<g id="graph0" class="graph" transform="scale(1 1) rotate(0) translate(4 62)">
<title>Graphical Class Hierarchy</title>
<!-- Node1 -->
<g id="node1" class="node"><title>Node1</title>
<g id="a_node1"><a xlink:href="classyeti_1_1Malloc.html" target="_top" xlink:title="yeti::Malloc\&lt; StorageBlock \&gt;">
<polygon fill="none" stroke="black" points="0.5,-19.5 0.5,-38.5 143.5,-38.5 143.5,-19.5 0.5,-19.5"/>
<text text-anchor="middle" x="72" y="-26.5" font-family="Helvetica,sans-Serif" font-size="10.00">yeti::Malloc&lt; StorageBlock &gt;</text>
</a>
</g>
</g>
<!-- Node2 -->
<g id="node2" class="node"><title>Node2</title>
<g id="a_node2"><a xlink:href="classyeti_1_1StorageBlock.html" target="_top" xlink:title="yeti::StorageBlock">
<polygon fill="none" stroke="black" points="180.5,-19.5 180.5,-38.5 277.5,-38.5 277.5,-19.5 180.5,-19.5"/>
<text text-anchor="middle" x="229" y="-26.5" font-family="Helvetica,sans-Serif" font-size="10.00">yeti::StorageBlock</text>
</a>
</g>
</g>
<!-- Node1&#45;&gt;Node2 -->
<g id="edge1" class="edge"><title>Node1&#45;&gt;Node2</title>
<path fill="none" stroke="midnightblue" d="M153.94,-29C163.013,-29 172.023,-29 180.471,-29"/>
<polygon fill="midnightblue" stroke="midnightblue" points="153.696,-25.5001 143.696,-29 153.696,-32.5001 153.696,-25.5001"/>
</g>
<!-- Node3 -->
<g id="node3" class="node"><title>Node3</title>
<g id="a_node3"><a xlink:href="classyeti_1_1CachedStorageBlock.html" target="_top" xlink:title="yeti::CachedStorageBlock">
<polygon fill="none" stroke="black" points="314.5,-38.5 314.5,-57.5 445.5,-57.5 445.5,-38.5 314.5,-38.5"/>
<text text-anchor="middle" x="380" y="-45.5" font-family="Helvetica,sans-Serif" font-size="10.00">yeti::CachedStorageBlock</text>
</a>
</g>
</g>
<!-- Node2&#45;&gt;Node3 -->
<g id="edge2" class="edge"><title>Node2&#45;&gt;Node3</title>
<path fill="none" stroke="midnightblue" d="M287.61,-36.3463C296.33,-37.4582 305.376,-38.6117 314.235,-39.7413"/>
<polygon fill="midnightblue" stroke="midnightblue" points="287.917,-32.8571 277.554,-35.064 287.031,-39.8009 287.917,-32.8571"/>
</g>
<!-- Node5 -->
<g id="node5" class="node"><title>Node5</title>
<g id="a_node5"><a xlink:href="classyeti_1_1InCoreBlock.html" target="_top" xlink:title="yeti::InCoreBlock">
<polygon fill="none" stroke="black" points="334,-0.5 334,-19.5 426,-19.5 426,-0.5 334,-0.5"/>
<text text-anchor="middle" x="380" y="-7.5" font-family="Helvetica,sans-Serif" font-size="10.00">yeti::InCoreBlock</text>
</a>
</g>
</g>
<!-- Node2&#45;&gt;Node5 -->
<g id="edge4" class="edge"><title>Node2&#45;&gt;Node5</title>
<path fill="none" stroke="midnightblue" d="M287.494,-21.6686C302.889,-19.7054 319.308,-17.6118 333.926,-15.7478"/>
<polygon fill="midnightblue" stroke="midnightblue" points="287.031,-18.1991 277.554,-22.936 287.917,-25.1429 287.031,-18.1991"/>
</g>
<!-- Node4 -->
<g id="node4" class="node"><title>Node4</title>
<g id="a_node4"><a xlink:href="classyeti_1_1LocalDiskBlock.html" target="_top" xlink:title="yeti::LocalDiskBlock">
<polygon fill="none" stroke="black" points="482.5,-38.5 482.5,-57.5 589.5,-57.5 589.5,-38.5 482.5,-38.5"/>
<text text-anchor="middle" x="536" y="-45.5" font-family="Helvetica,sans-Serif" font-size="10.00">yeti::LocalDiskBlock</text>
</a>
</g>
</g>
<!-- Node3&#45;&gt;Node4 -->
<g id="edge3" class="edge"><title>Node3&#45;&gt;Node4</title>
<path fill="none" stroke="midnightblue" d="M455.911,-48C464.846,-48 473.82,-48 482.349,-48"/>
<polygon fill="midnightblue" stroke="midnightblue" points="455.864,-44.5001 445.864,-48 455.863,-51.5001 455.864,-44.5001"/>
</g>
</g>
</svg>
