<?xml version="1.0" encoding="UTF-8" standalone="no"?>
<!DOCTYPE svg PUBLIC "-//W3C//DTD SVG 1.1//EN"
 "http://www.w3.org/Graphics/SVG/1.1/DTD/svg11.dtd">
<!-- Generated by graphviz version 2.30.1 (20140110.0959)
 -->
<!-- Title: Graphical Class Hierarchy Pages: 1 -->
<svg width="226pt" height="66pt"
 viewBox="0.00 0.00 226.00 66.00" xmlns="http://www.w3.org/2000/svg" xmlns:xlink="http://www.w3.org/1999/xlink">
<g id="graph0" class="graph" transform="scale(1 1) rotate(0) translate(4 62)">
<title>Graphical Class Hierarchy</title>
<!-- Node1 -->
<g id="node1" class="node"><title>Node1</title>
<g id="a_node1"><a xlink:href="classpsi_1_1CoordValue.html" target="_top" xlink:title="psi::CoordValue">
<polygon fill="none" stroke="black" points="0,-19.5 0,-38.5 86,-38.5 86,-19.5 0,-19.5"/>
<text text-anchor="middle" x="43" y="-26.5" font-family="Helvetica,sans-Serif" font-size="10.00">psi::CoordValue</text>
</a>
</g>
</g>
<!-- Node2 -->
<g id="node2" class="node"><title>Node2</title>
<g id="a_node2"><a xlink:href="classpsi_1_1NumberValue.html" target="_top" xlink:title="psi::NumberValue">
<polygon fill="none" stroke="black" points="122.5,-38.5 122.5,-57.5 217.5,-57.5 217.5,-38.5 122.5,-38.5"/>
<text text-anchor="middle" x="170" y="-45.5" font-family="Helvetica,sans-Serif" font-size="10.00">psi::NumberValue</text>
</a>
</g>
</g>
<!-- Node1&#45;&gt;Node2 -->
<g id="edge1" class="edge"><title>Node1&#45;&gt;Node2</title>
<path fill="none" stroke="midnightblue" d="M96.3259,-36.9535C104.99,-38.2705 113.922,-39.6282 122.432,-40.9217"/>
<polygon fill="midnightblue" stroke="midnightblue" points="96.7317,-33.4751 86.3193,-35.4325 95.6798,-40.3956 96.7317,-33.4751"/>
</g>
<!-- Node3 -->
<g id="node3" class="node"><title>Node3</title>
<g id="a_node3"><a xlink:href="classpsi_1_1VariableValue.html" target="_top" xlink:title="psi::VariableValue">
<polygon fill="none" stroke="black" points="122.5,-0.5 122.5,-19.5 217.5,-19.5 217.5,-0.5 122.5,-0.5"/>
<text text-anchor="middle" x="170" y="-7.5" font-family="Helvetica,sans-Serif" font-size="10.00">psi::VariableValue</text>
</a>
</g>
</g>
<!-- Node1&#45;&gt;Node3 -->
<g id="edge2" class="edge"><title>Node1&#45;&gt;Node3</title>
<path fill="none" stroke="midnightblue" d="M96.3259,-21.0465C104.99,-19.7295 113.922,-18.3718 122.432,-17.0783"/>
<polygon fill="midnightblue" stroke="midnightblue" points="95.6798,-17.6044 86.3193,-22.5675 96.7317,-24.5249 95.6798,-17.6044"/>
</g>
</g>
</svg>
