<?xml version="1.0" encoding="UTF-8" standalone="no"?>
<!DOCTYPE svg PUBLIC "-//W3C//DTD SVG 1.1//EN"
 "http://www.w3.org/Graphics/SVG/1.1/DTD/svg11.dtd">
<!-- Generated by graphviz version 2.30.1 (20140110.0959)
 -->
<!-- Title: Graphical Class Hierarchy Pages: 1 -->
<svg width="364pt" height="77pt"
 viewBox="0.00 0.00 364.00 77.00" xmlns="http://www.w3.org/2000/svg" xmlns:xlink="http://www.w3.org/1999/xlink">
<g id="graph0" class="graph" transform="scale(1 1) rotate(0) translate(4 73)">
<title>Graphical Class Hierarchy</title>
<!-- Node1 -->
<g id="node1" class="node"><title>Node1</title>
<g id="a_node1"><a xlink:href="classyeti_1_1ConfigureElementComputerRetrieve.html" target="_top" xlink:title="yeti::ConfigureElementComputer\lRetrieve">
<polygon fill="none" stroke="black" points="0.5,-39 0.5,-69 159.5,-69 159.5,-39 0.5,-39"/>
<text text-anchor="start" x="8.5" y="-57" font-family="Helvetica,sans-Serif" font-size="10.00">yeti::ConfigureElementComputer</text>
<text text-anchor="middle" x="80" y="-46" font-family="Helvetica,sans-Serif" font-size="10.00">Retrieve</text>
</a>
</g>
</g>
<!-- Node2 -->
<g id="node2" class="node"><title>Node2</title>
<g id="a_node2"><a xlink:href="classyeti_1_1ConfigureElementComputerAndSortBranchRetrieve.html" target="_top" xlink:title="yeti::ConfigureElementComputer\lAndSortBranchRetrieve">
<polygon fill="none" stroke="black" points="196.5,-17 196.5,-47 355.5,-47 355.5,-17 196.5,-17"/>
<text text-anchor="start" x="204.5" y="-35" font-family="Helvetica,sans-Serif" font-size="10.00">yeti::ConfigureElementComputer</text>
<text text-anchor="middle" x="276" y="-24" font-family="Helvetica,sans-Serif" font-size="10.00">AndSortBranchRetrieve</text>
</a>
</g>
</g>
<!-- Node1&#45;&gt;Node2 -->
<g id="edge1" class="edge"><title>Node1&#45;&gt;Node2</title>
<path fill="none" stroke="#8b1a1a" d="M169.608,-43.9516C178.498,-42.9435 187.483,-41.9246 196.26,-40.9292"/>
<polygon fill="#8b1a1a" stroke="#8b1a1a" points="169.169,-40.4789 159.628,-45.0835 169.958,-47.4343 169.169,-40.4789"/>
</g>
<!-- Node3 -->
<g id="node3" class="node"><title>Node3</title>
<g id="a_node3"><a xlink:href="classyeti_1_1SortedBranchRetrieve.html" target="_top" xlink:title="yeti::SortedBranchRetrieve">
<polygon fill="none" stroke="black" points="13,-0.5 13,-19.5 147,-19.5 147,-0.5 13,-0.5"/>
<text text-anchor="middle" x="80" y="-7.5" font-family="Helvetica,sans-Serif" font-size="10.00">yeti::SortedBranchRetrieve</text>
</a>
</g>
</g>
<!-- Node3&#45;&gt;Node2 -->
<g id="edge2" class="edge"><title>Node3&#45;&gt;Node2</title>
<path fill="none" stroke="#8b1a1a" d="M157.368,-18.6603C170.177,-20.1129 183.49,-21.6225 196.355,-23.0815"/>
<polygon fill="#8b1a1a" stroke="#8b1a1a" points="157.552,-15.1588 147.221,-17.5096 156.763,-22.1142 157.552,-15.1588"/>
</g>
</g>
</svg>
