<?xml version="1.0" encoding="UTF-8" standalone="no"?>
<!DOCTYPE svg PUBLIC "-//W3C//DTD SVG 1.1//EN"
 "http://www.w3.org/Graphics/SVG/1.1/DTD/svg11.dtd">
<!-- Generated by graphviz version 2.30.1 (20140110.0959)
 -->
<!-- Title: Graphical Class Hierarchy Pages: 1 -->
<svg width="184pt" height="104pt"
 viewBox="0.00 0.00 184.00 104.00" xmlns="http://www.w3.org/2000/svg" xmlns:xlink="http://www.w3.org/1999/xlink">
<g id="graph0" class="graph" transform="scale(1 1) rotate(0) translate(4 100)">
<title>Graphical Class Hierarchy</title>
<!-- Node1 -->
<g id="node1" class="node"><title>Node1</title>
<g id="a_node1"><a xlink:href="classopt_1_1SIMPLE.html" target="_top" xlink:title="opt::SIMPLE">
<polygon fill="none" stroke="black" points="0.5,-38.5 0.5,-57.5 73.5,-57.5 73.5,-38.5 0.5,-38.5"/>
<text text-anchor="middle" x="37" y="-45.5" font-family="Helvetica,sans-Serif" font-size="10.00">opt::SIMPLE</text>
</a>
</g>
</g>
<!-- Node2 -->
<g id="node2" class="node"><title>Node2</title>
<g id="a_node2"><a xlink:href="classopt_1_1BEND.html" target="_top" xlink:title="opt::BEND">
<polygon fill="none" stroke="black" points="110.5,-76.5 110.5,-95.5 175.5,-95.5 175.5,-76.5 110.5,-76.5"/>
<text text-anchor="middle" x="143" y="-83.5" font-family="Helvetica,sans-Serif" font-size="10.00">opt::BEND</text>
</a>
</g>
</g>
<!-- Node1&#45;&gt;Node2 -->
<g id="edge1" class="edge"><title>Node1&#45;&gt;Node2</title>
<path fill="none" stroke="midnightblue" d="M73.9019,-61.118C87.6571,-66.1439 103.08,-71.7791 115.765,-76.4141"/>
<polygon fill="midnightblue" stroke="midnightblue" points="74.8374,-57.7336 64.2436,-57.589 72.435,-64.3084 74.8374,-57.7336"/>
</g>
<!-- Node3 -->
<g id="node3" class="node"><title>Node3</title>
<g id="a_node3"><a xlink:href="classopt_1_1STRE.html" target="_top" xlink:title="opt::STRE">
<polygon fill="none" stroke="black" points="111.5,-38.5 111.5,-57.5 174.5,-57.5 174.5,-38.5 111.5,-38.5"/>
<text text-anchor="middle" x="143" y="-45.5" font-family="Helvetica,sans-Serif" font-size="10.00">opt::STRE</text>
</a>
</g>
</g>
<!-- Node1&#45;&gt;Node3 -->
<g id="edge2" class="edge"><title>Node1&#45;&gt;Node3</title>
<path fill="none" stroke="midnightblue" d="M83.7815,-48C93.0451,-48 102.576,-48 111.175,-48"/>
<polygon fill="midnightblue" stroke="midnightblue" points="83.5001,-44.5001 73.5,-48 83.5,-51.5001 83.5001,-44.5001"/>
</g>
<!-- Node4 -->
<g id="node4" class="node"><title>Node4</title>
<g id="a_node4"><a xlink:href="classopt_1_1TORS.html" target="_top" xlink:title="opt::TORS">
<polygon fill="none" stroke="black" points="111,-0.5 111,-19.5 175,-19.5 175,-0.5 111,-0.5"/>
<text text-anchor="middle" x="143" y="-7.5" font-family="Helvetica,sans-Serif" font-size="10.00">opt::TORS</text>
</a>
</g>
</g>
<!-- Node1&#45;&gt;Node4 -->
<g id="edge3" class="edge"><title>Node1&#45;&gt;Node4</title>
<path fill="none" stroke="midnightblue" d="M73.9019,-34.882C87.6571,-29.8561 103.08,-24.2209 115.765,-19.5859"/>
<polygon fill="midnightblue" stroke="midnightblue" points="72.435,-31.6916 64.2436,-38.411 74.8374,-38.2664 72.435,-31.6916"/>
</g>
</g>
</svg>
