<?xml version="1.0" encoding="UTF-8" standalone="no"?>
<!DOCTYPE svg PUBLIC "-//W3C//DTD SVG 1.1//EN"
 "http://www.w3.org/Graphics/SVG/1.1/DTD/svg11.dtd">
<!-- Generated by graphviz version 2.30.1 (20140110.0959)
 -->
<!-- Title: Graphical Class Hierarchy Pages: 1 -->
<svg width="194pt" height="66pt"
 viewBox="0.00 0.00 194.00 66.00" xmlns="http://www.w3.org/2000/svg" xmlns:xlink="http://www.w3.org/1999/xlink">
<g id="graph0" class="graph" transform="scale(1 1) rotate(0) translate(4 62)">
<title>Graphical Class Hierarchy</title>
<!-- Node1 -->
<g id="node1" class="node"><title>Node1</title>
<g id="a_node1"><a xlink:href="classpsi_1_1Serializable.html" target="_top" xlink:title="psi::Serializable">
<polygon fill="none" stroke="black" points="0,-19.5 0,-38.5 86,-38.5 86,-19.5 0,-19.5"/>
<text text-anchor="middle" x="43" y="-26.5" font-family="Helvetica,sans-Serif" font-size="10.00">psi::Serializable</text>
</a>
</g>
</g>
<!-- Node2 -->
<g id="node2" class="node"><title>Node2</title>
<g id="a_node2"><a xlink:href="classpsi_1_1Matrix.html" target="_top" xlink:title="Makes using matrices just a little easier.">
<polygon fill="none" stroke="black" points="123,-38.5 123,-57.5 185,-57.5 185,-38.5 123,-38.5"/>
<text text-anchor="middle" x="154" y="-45.5" font-family="Helvetica,sans-Serif" font-size="10.00">psi::Matrix</text>
</a>
</g>
</g>
<!-- Node1&#45;&gt;Node2 -->
<g id="edge1" class="edge"><title>Node1&#45;&gt;Node2</title>
<path fill="none" stroke="midnightblue" d="M96.0168,-38.0671C105.196,-39.6673 114.47,-41.2838 122.793,-42.7346"/>
<polygon fill="midnightblue" stroke="midnightblue" points="96.5948,-34.6152 86.1422,-36.3459 95.3926,-41.5112 96.5948,-34.6152"/>
</g>
<!-- Node3 -->
<g id="node3" class="node"><title>Node3</title>
<g id="a_node3"><a xlink:href="classpsi_1_1Vector.html" target="_top" xlink:title="psi::Vector">
<polygon fill="none" stroke="black" points="122,-0.5 122,-19.5 186,-19.5 186,-0.5 122,-0.5"/>
<text text-anchor="middle" x="154" y="-7.5" font-family="Helvetica,sans-Serif" font-size="10.00">psi::Vector</text>
</a>
</g>
</g>
<!-- Node1&#45;&gt;Node3 -->
<g id="edge2" class="edge"><title>Node1&#45;&gt;Node3</title>
<path fill="none" stroke="midnightblue" d="M96.0081,-19.9344C104.823,-18.3978 113.725,-16.8461 121.789,-15.4405"/>
<polygon fill="midnightblue" stroke="midnightblue" points="95.3926,-16.4888 86.1422,-21.6541 96.5948,-23.3848 95.3926,-16.4888"/>
</g>
</g>
</svg>
