<?xml version="1.0" encoding="UTF-8" standalone="no"?>
<!DOCTYPE svg PUBLIC "-//W3C//DTD SVG 1.1//EN"
 "http://www.w3.org/Graphics/SVG/1.1/DTD/svg11.dtd">
<!-- Generated by graphviz version 2.30.1 (20140110.0959)
 -->
<!-- Title: init_matrix.cc Pages: 1 -->
<svg width="325pt" height="84pt"
 viewBox="0.00 0.00 325.00 84.00" xmlns="http://www.w3.org/2000/svg" xmlns:xlink="http://www.w3.org/1999/xlink">
<g id="graph0" class="graph" transform="scale(1 1) rotate(0) translate(4 80)">
<title>init_matrix.cc</title>
<!-- Node1 -->
<g id="node1" class="node"><title>Node1</title>
<polygon fill="#bfbfbf" stroke="black" points="120.5,-56.5 120.5,-75.5 195.5,-75.5 195.5,-56.5 120.5,-56.5"/>
<text text-anchor="middle" x="158" y="-63.5" font-family="Helvetica,sans-Serif" font-size="10.00">init_matrix.cc</text>
</g>
<!-- Node2 -->
<g id="node2" class="node"><title>Node2</title>
<g id="a_node2"><a xlink:href="psifiles_8h_source.html" target="_top" xlink:title="psifiles.h">
<polygon fill="none" stroke="black" points="0,-0.5 0,-19.5 56,-19.5 56,-0.5 0,-0.5"/>
<text text-anchor="middle" x="28" y="-7.5" font-family="Helvetica,sans-Serif" font-size="10.00">psifiles.h</text>
</a>
</g>
</g>
<!-- Node1&#45;&gt;Node2 -->
<g id="edge1" class="edge"><title>Node1&#45;&gt;Node2</title>
<path fill="none" stroke="midnightblue" d="M137.401,-56.4435C116.007,-47.5566 82.3188,-33.5632 57.9756,-23.4514"/>
<polygon fill="midnightblue" stroke="midnightblue" points="59.0801,-20.1203 48.5025,-19.5164 56.3948,-26.5848 59.0801,-20.1203"/>
</g>
<!-- Node3 -->
<g id="node3" class="node"><title>Node3</title>
<polygon fill="none" stroke="#bfbfbf" points="74.5,-0.5 74.5,-19.5 117.5,-19.5 117.5,-0.5 74.5,-0.5"/>
<text text-anchor="middle" x="96" y="-7.5" font-family="Helvetica,sans-Serif" font-size="10.00">cstdio</text>
</g>
<!-- Node1&#45;&gt;Node3 -->
<g id="edge2" class="edge"><title>Node1&#45;&gt;Node3</title>
<path fill="none" stroke="midnightblue" d="M148.039,-56.324C138.873,-48.3414 125.063,-36.3128 113.972,-26.6529"/>
<polygon fill="midnightblue" stroke="midnightblue" points="115.982,-23.7624 106.143,-19.8339 111.385,-29.041 115.982,-23.7624"/>
</g>
<!-- Node4 -->
<g id="node4" class="node"><title>Node4</title>
<polygon fill="none" stroke="#bfbfbf" points="135.5,-0.5 135.5,-19.5 180.5,-19.5 180.5,-0.5 135.5,-0.5"/>
<text text-anchor="middle" x="158" y="-7.5" font-family="Helvetica,sans-Serif" font-size="10.00">cstdlib</text>
</g>
<!-- Node1&#45;&gt;Node4 -->
<g id="edge3" class="edge"><title>Node1&#45;&gt;Node4</title>
<path fill="none" stroke="midnightblue" d="M158,-56.083C158,-49.0059 158,-38.8611 158,-29.9865"/>
<polygon fill="midnightblue" stroke="midnightblue" points="161.5,-29.751 158,-19.7511 154.5,-29.7511 161.5,-29.751"/>
</g>
<!-- Node5 -->
<g id="node5" class="node"><title>Node5</title>
<polygon fill="none" stroke="#bfbfbf" points="199,-0.5 199,-19.5 245,-19.5 245,-0.5 199,-0.5"/>
<text text-anchor="middle" x="222" y="-7.5" font-family="Helvetica,sans-Serif" font-size="10.00">cstring</text>
</g>
<!-- Node1&#45;&gt;Node5 -->
<g id="edge4" class="edge"><title>Node1&#45;&gt;Node5</title>
<path fill="none" stroke="midnightblue" d="M168.283,-56.324C177.836,-48.2631 192.28,-36.0765 203.784,-26.3695"/>
<polygon fill="midnightblue" stroke="midnightblue" points="206.144,-28.9577 211.53,-19.8339 201.63,-23.6076 206.144,-28.9577"/>
</g>
<!-- Node6 -->
<g id="node6" class="node"><title>Node6</title>
<polygon fill="none" stroke="#bfbfbf" points="263,-0.5 263,-19.5 317,-19.5 317,-0.5 263,-0.5"/>
<text text-anchor="middle" x="290" y="-7.5" font-family="Helvetica,sans-Serif" font-size="10.00">strings.h</text>
</g>
<!-- Node1&#45;&gt;Node6 -->
<g id="edge5" class="edge"><title>Node1&#45;&gt;Node6</title>
<path fill="none" stroke="midnightblue" d="M178.916,-56.4435C200.736,-47.5171 235.15,-33.4387 259.892,-23.3168"/>
<polygon fill="midnightblue" stroke="midnightblue" points="261.252,-26.5422 269.182,-19.5164 258.601,-20.0634 261.252,-26.5422"/>
</g>
</g>
</svg>
