<?xml version="1.0" encoding="UTF-8" standalone="no"?>
<!DOCTYPE svg PUBLIC "-//W3C//DTD SVG 1.1//EN"
 "http://www.w3.org/Graphics/SVG/1.1/DTD/svg11.dtd">
<!-- Generated by graphviz version 2.30.1 (20140110.0959)
 -->
<!-- Title: irr_labs.cc Pages: 1 -->
<!--zoomable 140 -->
<svg id="main" version="1.1" xmlns="http://www.w3.org/2000/svg" xmlns:xlink="http://www.w3.org/1999/xlink" xml:space="preserve" onload="init(evt)">
        <defs>
                <circle id="rim" cx="0" cy="0" r="7"/>
                <circle id="rim2" cx="0" cy="0" r="3.5"/>
                <g id="zoomPlus">
                        <use xlink:href="#rim" fill="#404040">
                                <set attributeName="fill" to="#808080" begin="zoomplus.mouseover" end="zoomplus.mouseout"/>
                        </use>
                        <path d="M-4,0h8M0,-4v8" fill="none" stroke="white" stroke-width="1.5" pointer-events="none"/>
                </g>
                <g id="zoomMin">
                        <use xlink:href="#rim" fill="#404040">
                                <set attributeName="fill" to="#808080" begin="zoomminus.mouseover" end="zoomminus.mouseout"/>
                        </use>
                        <path d="M-4,0h8" fill="none" stroke="white" stroke-width="1.5" pointer-events="none"/>
                </g>
                <g id="dirArrow">
                        <path fill="none" stroke="white" stroke-width="1.5" d="M0,-3.0v7 M-2.5,-0.5L0,-3.0L2.5,-0.5"/>
                </g>
               <g id="resetDef">
                       <use xlink:href="#rim2" fill="#404040">
                               <set attributeName="fill" to="#808080" begin="reset.mouseover" end="reset.mouseout"/>
                       </use>
               </g>
        </defs>

<script type="text/javascript">
var viewWidth = 785;
var viewHeight = 140;
var sectionId = 'dynsection-0';
</script>
<script xlink:href="svgpan.js"/>
<svg id="graph" class="graph">
<g id="viewport">
<title>irr_labs.cc</title>
<!-- Node1 -->
<g id="node1" class="node"><title>Node1</title>
<polygon fill="#bfbfbf" stroke="black" points="235,-112.5 235,-131.5 297,-131.5 297,-112.5 235,-112.5"/>
<text text-anchor="middle" x="266" y="-119.5" font-family="Helvetica,sans-Serif" font-size="10.00">irr_labs.cc</text>
</g>
<!-- Node2 -->
<g id="node2" class="node"><title>Node2</title>
<polygon fill="none" stroke="#bfbfbf" points="-0.5,-56.5 -0.5,-75.5 42.5,-75.5 42.5,-56.5 -0.5,-56.5"/>
<text text-anchor="middle" x="21" y="-63.5" font-family="Helvetica,sans-Serif" font-size="10.00">cstdio</text>
</g>
<!-- Node1&#45;&gt;Node2 -->
<g id="edge1" class="edge"><title>Node1&#45;&gt;Node2</title>
<path fill="none" stroke="midnightblue" d="M234.834,-115.34C194.725,-107.868 122.71,-93.822 52.4654,-76.2174"/>
<polygon fill="midnightblue" stroke="midnightblue" points="53.1222,-72.7732 42.5688,-73.71 51.4029,-79.5588 53.1222,-72.7732"/>
</g>
<!-- Node3 -->
<g id="node3" class="node"><title>Node3</title>
<polygon fill="none" stroke="#bfbfbf" points="60.5,-56.5 60.5,-75.5 105.5,-75.5 105.5,-56.5 60.5,-56.5"/>
<text text-anchor="middle" x="83" y="-63.5" font-family="Helvetica,sans-Serif" font-size="10.00">cstdlib</text>
</g>
<!-- Node1&#45;&gt;Node3 -->
<g id="edge2" class="edge"><title>Node1&#45;&gt;Node3</title>
<path fill="none" stroke="midnightblue" d="M237.003,-112.444C203.94,-102.687 150.02,-86.7764 115.545,-76.6036"/>
<polygon fill="midnightblue" stroke="midnightblue" points="116.097,-73.1172 105.515,-73.6439 114.116,-79.831 116.097,-73.1172"/>
</g>
<!-- Node4 -->
<g id="node4" class="node"><title>Node4</title>
<polygon fill="none" stroke="#bfbfbf" points="124,-56.5 124,-75.5 170,-75.5 170,-56.5 124,-56.5"/>
<text text-anchor="middle" x="147" y="-63.5" font-family="Helvetica,sans-Serif" font-size="10.00">cctype</text>
</g>
<!-- Node1&#45;&gt;Node4 -->
<g id="edge3" class="edge"><title>Node1&#45;&gt;Node4</title>
<path fill="none" stroke="midnightblue" d="M247.144,-112.444C227.734,-103.636 197.27,-89.8116 175.035,-79.722"/>
<polygon fill="midnightblue" stroke="midnightblue" points="176.32,-76.4615 165.768,-75.5164 173.428,-82.836 176.32,-76.4615"/>
</g>
<!-- Node5 -->
<g id="node5" class="node"><title>Node5</title>
<g id="a_node5"><a xlink:href="psifiles_8h_source.html" target="_top" xlink:title="psifiles.h">
<polygon fill="none" stroke="black" points="188,-56.5 188,-75.5 244,-75.5 244,-56.5 188,-56.5"/>
<text text-anchor="middle" x="216" y="-63.5" font-family="Helvetica,sans-Serif" font-size="10.00">psifiles.h</text>
</a>
</g>
</g>
<!-- Node1&#45;&gt;Node5 -->
<g id="edge4" class="edge"><title>Node1&#45;&gt;Node5</title>
<path fill="none" stroke="midnightblue" d="M257.744,-112.083C250.535,-104.298 239.89,-92.8015 231.154,-83.3665"/>
<polygon fill="midnightblue" stroke="midnightblue" points="233.465,-80.7108 224.103,-75.7511 228.329,-85.4666 233.465,-80.7108"/>
</g>
<!-- Node6 -->
<g id="node6" class="node"><title>Node6</title>
<polygon fill="none" stroke="#bfbfbf" points="262,-56.5 262,-75.5 370,-75.5 370,-56.5 262,-56.5"/>
<text text-anchor="middle" x="316" y="-63.5" font-family="Helvetica,sans-Serif" font-size="10.00">boost/shared_ptr.hpp</text>
</g>
<!-- Node1&#45;&gt;Node6 -->
<g id="edge5" class="edge"><title>Node1&#45;&gt;Node6</title>
<path fill="none" stroke="midnightblue" d="M274.256,-112.083C281.465,-104.298 292.11,-92.8015 300.846,-83.3665"/>
<polygon fill="midnightblue" stroke="midnightblue" points="303.671,-85.4666 307.897,-75.7511 298.535,-80.7108 303.671,-85.4666"/>
</g>
<!-- Node7 -->
<g id="node7" class="node"><title>Node7</title>
<g id="a_node7"><a xlink:href="psio_8hpp_source.html" target="_top" xlink:title="libpsio/psio.hpp">
<polygon fill="none" stroke="black" points="388,-56.5 388,-75.5 472,-75.5 472,-56.5 388,-56.5"/>
<text text-anchor="middle" x="430" y="-63.5" font-family="Helvetica,sans-Serif" font-size="10.00">libpsio/psio.hpp</text>
</a>
</g>
</g>
<!-- Node1&#45;&gt;Node7 -->
<g id="edge6" class="edge"><title>Node1&#45;&gt;Node7</title>
<path fill="none" stroke="midnightblue" d="M291.986,-112.444C319.696,-103.32 363.752,-88.8133 394.616,-78.6509"/>
<polygon fill="midnightblue" stroke="midnightblue" points="395.732,-81.9684 404.135,-75.5164 393.542,-75.3196 395.732,-81.9684"/>
</g>
<!-- Node13 -->
<g id="node13" class="node"><title>Node13</title>
<g id="a_node13"><a xlink:href="chkpt_8h_source.html" target="_top" xlink:title="libchkpt/chkpt.h">
<polygon fill="none" stroke="black" points="490,-56.5 490,-75.5 576,-75.5 576,-56.5 490,-56.5"/>
<text text-anchor="middle" x="533" y="-63.5" font-family="Helvetica,sans-Serif" font-size="10.00">libchkpt/chkpt.h</text>
</a>
</g>
</g>
<!-- Node1&#45;&gt;Node13 -->
<g id="edge12" class="edge"><title>Node1&#45;&gt;Node13</title>
<path fill="none" stroke="midnightblue" d="M297.151,-114.7C342.217,-105.585 426.173,-88.6054 480.8,-77.5574"/>
<polygon fill="midnightblue" stroke="midnightblue" points="481.535,-80.9797 490.642,-75.5667 480.147,-74.1186 481.535,-80.9797"/>
</g>
<!-- Node14 -->
<g id="node14" class="node"><title>Node14</title>
<g id="a_node14"><a xlink:href="chkpt_8hpp_source.html" target="_top" xlink:title="libchkpt/chkpt.hpp">
<polygon fill="none" stroke="black" points="610,-56.5 610,-75.5 706,-75.5 706,-56.5 610,-56.5"/>
<text text-anchor="middle" x="658" y="-63.5" font-family="Helvetica,sans-Serif" font-size="10.00">libchkpt/chkpt.hpp</text>
</a>
</g>
</g>
<!-- Node1&#45;&gt;Node14 -->
<g id="edge13" class="edge"><title>Node1&#45;&gt;Node14</title>
<path fill="none" stroke="midnightblue" d="M297.087,-116.718C362.603,-107.692 515.74,-86.597 599.954,-74.9962"/>
<polygon fill="midnightblue" stroke="midnightblue" points="600.443,-78.462 609.871,-73.63 599.487,-71.5275 600.443,-78.462"/>
</g>
<!-- Node8 -->
<g id="node8" class="node"><title>Node8</title>
<polygon fill="none" stroke="#bfbfbf" points="562.5,-0.5 562.5,-19.5 603.5,-19.5 603.5,-0.5 562.5,-0.5"/>
<text text-anchor="middle" x="583" y="-7.5" font-family="Helvetica,sans-Serif" font-size="10.00">string</text>
</g>
<!-- Node7&#45;&gt;Node8 -->
<g id="edge7" class="edge"><title>Node7&#45;&gt;Node8</title>
<path fill="none" stroke="midnightblue" d="M454.243,-56.4435C480.926,-47.0262 523.855,-31.8746 552.728,-21.6842"/>
<polygon fill="midnightblue" stroke="midnightblue" points="554.04,-24.9329 562.305,-18.3042 551.71,-18.332 554.04,-24.9329"/>
</g>
<!-- Node9 -->
<g id="node9" class="node"><title>Node9</title>
<polygon fill="none" stroke="#bfbfbf" points="298.5,-0.5 298.5,-19.5 333.5,-19.5 333.5,-0.5 298.5,-0.5"/>
<text text-anchor="middle" x="316" y="-7.5" font-family="Helvetica,sans-Serif" font-size="10.00">map</text>
</g>
<!-- Node7&#45;&gt;Node9 -->
<g id="edge8" class="edge"><title>Node7&#45;&gt;Node9</title>
<path fill="none" stroke="midnightblue" d="M411.936,-56.4435C393.316,-47.6235 364.078,-33.7736 342.77,-23.6805"/>
<polygon fill="midnightblue" stroke="midnightblue" points="344.14,-20.4568 333.605,-19.339 341.144,-26.783 344.14,-20.4568"/>
</g>
<!-- Node10 -->
<g id="node10" class="node"><title>Node10</title>
<polygon fill="none" stroke="#bfbfbf" points="352,-0.5 352,-19.5 382,-19.5 382,-0.5 352,-0.5"/>
<text text-anchor="middle" x="367" y="-7.5" font-family="Helvetica,sans-Serif" font-size="10.00">set</text>
</g>
<!-- Node7&#45;&gt;Node10 -->
<g id="edge9" class="edge"><title>Node7&#45;&gt;Node10</title>
<path fill="none" stroke="midnightblue" d="M419.878,-56.324C410.474,-48.2631 396.256,-36.0765 384.931,-26.3695"/>
<polygon fill="midnightblue" stroke="midnightblue" points="387.177,-23.6844 377.306,-19.8339 382.621,-28.9993 387.177,-23.6844"/>
</g>
<!-- Node11 -->
<g id="node11" class="node"><title>Node11</title>
<polygon fill="none" stroke="#bfbfbf" points="400.5,-0.5 400.5,-19.5 443.5,-19.5 443.5,-0.5 400.5,-0.5"/>
<text text-anchor="middle" x="422" y="-7.5" font-family="Helvetica,sans-Serif" font-size="10.00">queue</text>
</g>
<!-- Node7&#45;&gt;Node11 -->
<g id="edge10" class="edge"><title>Node7&#45;&gt;Node11</title>
<path fill="none" stroke="midnightblue" d="M428.679,-56.083C427.619,-48.9272 426.094,-38.6353 424.769,-29.6911"/>
<polygon fill="midnightblue" stroke="midnightblue" points="428.224,-29.1302 423.296,-19.7511 421.3,-30.1561 428.224,-29.1302"/>
</g>
<!-- Node12 -->
<g id="node12" class="node"><title>Node12</title>
<g id="a_node12"><a xlink:href="libpsio_2config_8h_source.html" target="_top" xlink:title="libpsio/config.h">
<polygon fill="none" stroke="black" points="462,-0.5 462,-19.5 544,-19.5 544,-0.5 462,-0.5"/>
<text text-anchor="middle" x="503" y="-7.5" font-family="Helvetica,sans-Serif" font-size="10.00">libpsio/config.h</text>
</a>
</g>
</g>
<!-- Node7&#45;&gt;Node12 -->
<g id="edge11" class="edge"><title>Node7&#45;&gt;Node12</title>
<path fill="none" stroke="midnightblue" d="M441.729,-56.324C452.837,-48.1066 469.742,-35.6017 482.983,-25.8069"/>
<polygon fill="midnightblue" stroke="midnightblue" points="485.1,-28.5948 491.058,-19.8339 480.937,-22.9671 485.1,-28.5948"/>
</g>
<!-- Node15 -->
<g id="node15" class="node"><title>Node15</title>
<g id="a_node15"><a xlink:href="libchkpt_2config_8h_source.html" target="_top" xlink:title="libchkpt/config.h">
<polygon fill="none" stroke="black" points="622,-0.5 622,-19.5 710,-19.5 710,-0.5 622,-0.5"/>
<text text-anchor="middle" x="666" y="-7.5" font-family="Helvetica,sans-Serif" font-size="10.00">libchkpt/config.h</text>
</a>
</g>
</g>
<!-- Node14&#45;&gt;Node15 -->
<g id="edge14" class="edge"><title>Node14&#45;&gt;Node15</title>
<path fill="none" stroke="midnightblue" d="M659.321,-56.083C660.381,-48.9272 661.906,-38.6353 663.231,-29.6911"/>
<polygon fill="midnightblue" stroke="midnightblue" points="666.7,-30.1561 664.704,-19.7511 659.776,-29.1302 666.7,-30.1561"/>
</g>
<!-- Node14&#45;&gt;Node8 -->
<g id="edge15" class="edge"><title>Node14&#45;&gt;Node8</title>
<path fill="none" stroke="midnightblue" d="M645.95,-56.324C634.537,-48.1066 617.169,-35.6017 603.565,-25.8069"/>
<polygon fill="midnightblue" stroke="midnightblue" points="605.43,-22.8366 595.269,-19.8339 601.34,-28.5174 605.43,-22.8366"/>
</g>
<!-- Node16 -->
<g id="node16" class="node"><title>Node16</title>
<polygon fill="none" stroke="#bfbfbf" points="728.5,-0.5 728.5,-19.5 777.5,-19.5 777.5,-0.5 728.5,-0.5"/>
<text text-anchor="middle" x="753" y="-7.5" font-family="Helvetica,sans-Serif" font-size="10.00">string.h</text>
</g>
<!-- Node14&#45;&gt;Node16 -->
<g id="edge16" class="edge"><title>Node14&#45;&gt;Node16</title>
<path fill="none" stroke="midnightblue" d="M673.263,-56.324C688.221,-47.8215 711.255,-34.7288 728.727,-24.7975"/>
<polygon fill="midnightblue" stroke="midnightblue" points="730.81,-27.639 737.774,-19.6545 727.351,-21.5534 730.81,-27.639"/>
</g>
</g>
</svg>
        <g id="navigator" transform="translate(0 0)" fill="#404254">
                <rect fill="#f2f5e9" fill-opacity="0.5" stroke="#606060" stroke-width=".5" x="0" y="0" width="60" height="60"/>
                <use id="zoomplus" xlink:href="#zoomPlus" x="17" y="9" onmousedown="handleZoom(evt,'in')"/>
                <use id="zoomminus" xlink:href="#zoomMin" x="42" y="9" onmousedown="handleZoom(evt,'out')"/>
                <use id="reset" xlink:href="#resetDef" x="30" y="36" onmousedown="handleReset()"/>
                <g id="arrowUp" xlink:href="#dirArrow" transform="translate(30 24)" onmousedown="handlePan(0,-1)">
                  <use xlink:href="#rim" fill="#404040">
                        <set attributeName="fill" to="#808080" begin="arrowUp.mouseover" end="arrowUp.mouseout"/>
                  </use>
                  <path fill="none" stroke="white" stroke-width="1.5" d="M0,-3.0v7 M-2.5,-0.5L0,-3.0L2.5,-0.5"/>
                </g>
                <g id="arrowRight" xlink:href="#dirArrow" transform="rotate(90) translate(36 -43)" onmousedown="handlePan(1,0)">
                  <use xlink:href="#rim" fill="#404040">
                        <set attributeName="fill" to="#808080" begin="arrowRight.mouseover" end="arrowRight.mouseout"/>
                  </use>
                  <path fill="none" stroke="white" stroke-width="1.5" d="M0,-3.0v7 M-2.5,-0.5L0,-3.0L2.5,-0.5"/>
                </g>
                <g id="arrowDown" xlink:href="#dirArrow" transform="rotate(180) translate(-30 -48)" onmousedown="handlePan(0,1)">
                  <use xlink:href="#rim" fill="#404040">
                        <set attributeName="fill" to="#808080" begin="arrowDown.mouseover" end="arrowDown.mouseout"/>
                  </use>
                  <path fill="none" stroke="white" stroke-width="1.5" d="M0,-3.0v7 M-2.5,-0.5L0,-3.0L2.5,-0.5"/>
                </g>
                <g id="arrowLeft" xlink:href="#dirArrow" transform="rotate(270) translate(-36 17)" onmousedown="handlePan(-1,0)">
                  <use xlink:href="#rim" fill="#404040">
                        <set attributeName="fill" to="#808080" begin="arrowLeft.mouseover" end="arrowLeft.mouseout"/>
                  </use>
                  <path fill="none" stroke="white" stroke-width="1.5" d="M0,-3.0v7 M-2.5,-0.5L0,-3.0L2.5,-0.5"/>
                </g>
        </g>
        <svg viewBox="0 0 15 15" width="100%" height="30px" preserveAspectRatio="xMaxYMin meet">
         <g id="arrow_out" transform="scale(0.3 0.3)">
          <a xlink:href="irr__labs_8cc__incl_org.svg" target="_base">
           <rect id="button" ry="5" rx="5" y="6" x="6" height="38" width="38"
                fill="#f2f5e9" fill-opacity="0.5" stroke="#606060" stroke-width="1.0"/>
           <path id="arrow"
             d="M 11.500037,31.436501 C 11.940474,20.09759 22.043105,11.32322 32.158766,21.979434 L 37.068811,17.246167 C 37.068811,17.246167 37.088388,32 37.088388,32 L 22.160133,31.978069 C 22.160133,31.978069 26.997745,27.140456 26.997745,27.140456 C 18.528582,18.264221 13.291696,25.230495 11.500037,31.436501 z"
             style="fill:#404040;"/>
          </a>
         </g>
        </svg>
</svg>
