<?xml version="1.0" encoding="UTF-8" standalone="no"?>
<!DOCTYPE svg PUBLIC "-//W3C//DTD SVG 1.1//EN"
 "http://www.w3.org/Graphics/SVG/1.1/DTD/svg11.dtd">
<!-- Generated by graphviz version 2.30.1 (20140110.0959)
 -->
<!-- Title: L1.cc Pages: 1 -->
<!--zoomable 196 -->
<svg id="main" version="1.1" xmlns="http://www.w3.org/2000/svg" xmlns:xlink="http://www.w3.org/1999/xlink" xml:space="preserve" onload="init(evt)">
        <defs>
                <circle id="rim" cx="0" cy="0" r="7"/>
                <circle id="rim2" cx="0" cy="0" r="3.5"/>
                <g id="zoomPlus">
                        <use xlink:href="#rim" fill="#404040">
                                <set attributeName="fill" to="#808080" begin="zoomplus.mouseover" end="zoomplus.mouseout"/>
                        </use>
                        <path d="M-4,0h8M0,-4v8" fill="none" stroke="white" stroke-width="1.5" pointer-events="none"/>
                </g>
                <g id="zoomMin">
                        <use xlink:href="#rim" fill="#404040">
                                <set attributeName="fill" to="#808080" begin="zoomminus.mouseover" end="zoomminus.mouseout"/>
                        </use>
                        <path d="M-4,0h8" fill="none" stroke="white" stroke-width="1.5" pointer-events="none"/>
                </g>
                <g id="dirArrow">
                        <path fill="none" stroke="white" stroke-width="1.5" d="M0,-3.0v7 M-2.5,-0.5L0,-3.0L2.5,-0.5"/>
                </g>
               <g id="resetDef">
                       <use xlink:href="#rim2" fill="#404040">
                               <set attributeName="fill" to="#808080" begin="reset.mouseover" end="reset.mouseout"/>
                       </use>
               </g>
        </defs>

<script type="text/javascript">
var viewWidth = 719;
var viewHeight = 196;
var sectionId = 'dynsection-0';
</script>
<script xlink:href="svgpan.js"/>
<svg id="graph" class="graph">
<g id="viewport">
<title>L1.cc</title>
<!-- Node1 -->
<g id="node1" class="node"><title>Node1</title>
<polygon fill="#bfbfbf" stroke="black" points="283.5,-168.5 283.5,-187.5 324.5,-187.5 324.5,-168.5 283.5,-168.5"/>
<text text-anchor="middle" x="304" y="-175.5" font-family="Helvetica,sans-Serif" font-size="10.00">L1.cc</text>
</g>
<!-- Node2 -->
<g id="node2" class="node"><title>Node2</title>
<polygon fill="none" stroke="#bfbfbf" points="0,-112.5 0,-131.5 46,-131.5 46,-112.5 0,-112.5"/>
<text text-anchor="middle" x="23" y="-119.5" font-family="Helvetica,sans-Serif" font-size="10.00">stdio.h</text>
</g>
<!-- Node1&#45;&gt;Node2 -->
<g id="edge1" class="edge"><title>Node1&#45;&gt;Node2</title>
<path fill="none" stroke="midnightblue" d="M283.204,-173.929C241.797,-167.669 145.959,-152.455 55.8309,-132.009"/>
<polygon fill="midnightblue" stroke="midnightblue" points="56.5341,-128.579 46.0045,-129.753 54.9679,-135.402 56.5341,-128.579"/>
</g>
<!-- Node3 -->
<g id="node3" class="node"><title>Node3</title>
<polygon fill="none" stroke="#bfbfbf" points="64,-112.5 64,-131.5 112,-131.5 112,-112.5 64,-112.5"/>
<text text-anchor="middle" x="88" y="-119.5" font-family="Helvetica,sans-Serif" font-size="10.00">stdlib.h</text>
</g>
<!-- Node1&#45;&gt;Node3 -->
<g id="edge2" class="edge"><title>Node1&#45;&gt;Node3</title>
<path fill="none" stroke="midnightblue" d="M283.289,-171.822C246.064,-162.516 167.514,-142.879 122.197,-131.549"/>
<polygon fill="midnightblue" stroke="midnightblue" points="122.797,-128.092 112.247,-129.062 121.1,-134.883 122.797,-128.092"/>
</g>
<!-- Node4 -->
<g id="node4" class="node"><title>Node4</title>
<polygon fill="none" stroke="#bfbfbf" points="170.5,-56.5 170.5,-75.5 211.5,-75.5 211.5,-56.5 170.5,-56.5"/>
<text text-anchor="middle" x="191" y="-63.5" font-family="Helvetica,sans-Serif" font-size="10.00">string</text>
</g>
<!-- Node1&#45;&gt;Node4 -->
<g id="edge3" class="edge"><title>Node1&#45;&gt;Node4</title>
<path fill="none" stroke="midnightblue" d="M283.274,-177.541C250.785,-177.122 188.625,-170.935 160,-132 148.733,-116.675 161.807,-96.6076 174.27,-82.8475"/>
<polygon fill="midnightblue" stroke="midnightblue" points="176.892,-85.1706 181.348,-75.5582 171.871,-80.2939 176.892,-85.1706"/>
</g>
<!-- Node5 -->
<g id="node5" class="node"><title>Node5</title>
<polygon fill="none" stroke="#bfbfbf" points="496.5,-112.5 496.5,-131.5 545.5,-131.5 545.5,-112.5 496.5,-112.5"/>
<text text-anchor="middle" x="521" y="-119.5" font-family="Helvetica,sans-Serif" font-size="10.00">string.h</text>
</g>
<!-- Node1&#45;&gt;Node5 -->
<g id="edge4" class="edge"><title>Node1&#45;&gt;Node5</title>
<path fill="none" stroke="midnightblue" d="M324.807,-171.822C362.185,-162.521 441.034,-142.899 486.572,-131.567"/>
<polygon fill="midnightblue" stroke="midnightblue" points="487.442,-134.958 496.3,-129.146 485.751,-128.165 487.442,-134.958"/>
</g>
<!-- Node6 -->
<g id="node6" class="node"><title>Node6</title>
<g id="a_node6"><a xlink:href="lib_2libdpd_2dpd_8h.html" target="_top" xlink:title="Enter brief description of file here.">
<polygon fill="none" stroke="black" points="512.5,-56.5 512.5,-75.5 581.5,-75.5 581.5,-56.5 512.5,-56.5"/>
<text text-anchor="middle" x="547" y="-63.5" font-family="Helvetica,sans-Serif" font-size="10.00">libdpd/dpd.h</text>
</a>
</g>
</g>
<!-- Node1&#45;&gt;Node6 -->
<g id="edge5" class="edge"><title>Node1&#45;&gt;Node6</title>
<path fill="none" stroke="midnightblue" d="M324.862,-172.505C353.673,-165.862 406.855,-152.01 449,-132 478.295,-118.091 508.966,-96.4174 528.027,-81.97"/>
<polygon fill="midnightblue" stroke="midnightblue" points="530.37,-84.5834 536.158,-75.7092 526.099,-79.0371 530.37,-84.5834"/>
</g>
<!-- Node12 -->
<g id="node12" class="node"><title>Node12</title>
<g id="a_node12"><a xlink:href="qt_8h.html" target="_top" xlink:title="Header file for the Quantum Trio LibraryDavid Sherrill 1994.">
<polygon fill="none" stroke="black" points="312,-112.5 312,-131.5 366,-131.5 366,-112.5 312,-112.5"/>
<text text-anchor="middle" x="339" y="-119.5" font-family="Helvetica,sans-Serif" font-size="10.00">libqt/qt.h</text>
</a>
</g>
</g>
<!-- Node1&#45;&gt;Node12 -->
<g id="edge11" class="edge"><title>Node1&#45;&gt;Node12</title>
<path fill="none" stroke="midnightblue" d="M309.78,-168.083C314.672,-160.534 321.827,-149.495 327.833,-140.23"/>
<polygon fill="midnightblue" stroke="midnightblue" points="330.826,-142.046 333.328,-131.751 324.952,-138.239 330.826,-142.046"/>
</g>
<!-- Node13 -->
<g id="node13" class="node"><title>Node13</title>
<g id="a_node13"><a xlink:href="cclambda_2MOInfo_8h.html" target="_top" xlink:title="Enter brief description of file here.">
<polygon fill="none" stroke="black" points="563.5,-112.5 563.5,-131.5 620.5,-131.5 620.5,-112.5 563.5,-112.5"/>
<text text-anchor="middle" x="592" y="-119.5" font-family="Helvetica,sans-Serif" font-size="10.00">MOInfo.h</text>
</a>
</g>
</g>
<!-- Node1&#45;&gt;Node13 -->
<g id="edge14" class="edge"><title>Node1&#45;&gt;Node13</title>
<path fill="none" stroke="midnightblue" d="M324.816,-173.647C366.278,-166.885 462.308,-150.807 553.462,-132.014"/>
<polygon fill="midnightblue" stroke="midnightblue" points="554.324,-135.41 563.403,-129.949 552.901,-128.556 554.324,-135.41"/>
</g>
<!-- Node14 -->
<g id="node14" class="node"><title>Node14</title>
<g id="a_node14"><a xlink:href="cclambda_2Params_8h.html" target="_top" xlink:title="Enter brief description of file here.">
<polygon fill="none" stroke="black" points="168.5,-112.5 168.5,-131.5 227.5,-131.5 227.5,-112.5 168.5,-112.5"/>
<text text-anchor="middle" x="198" y="-119.5" font-family="Helvetica,sans-Serif" font-size="10.00">Params.h</text>
</a>
</g>
</g>
<!-- Node1&#45;&gt;Node14 -->
<g id="edge15" class="edge"><title>Node1&#45;&gt;Node14</title>
<path fill="none" stroke="midnightblue" d="M286.969,-168.324C269.97,-159.664 243.624,-146.242 224.007,-136.249"/>
<polygon fill="midnightblue" stroke="midnightblue" points="225.488,-133.075 214.988,-131.655 222.31,-139.312 225.488,-133.075"/>
</g>
<!-- Node15 -->
<g id="node15" class="node"><title>Node15</title>
<g id="a_node15"><a xlink:href="cclambda_2Local_8h.html" target="_top" xlink:title="Enter brief description of file here.">
<polygon fill="none" stroke="black" points="246,-112.5 246,-131.5 294,-131.5 294,-112.5 246,-112.5"/>
<text text-anchor="middle" x="270" y="-119.5" font-family="Helvetica,sans-Serif" font-size="10.00">Local.h</text>
</a>
</g>
</g>
<!-- Node1&#45;&gt;Node15 -->
<g id="edge17" class="edge"><title>Node1&#45;&gt;Node15</title>
<path fill="none" stroke="midnightblue" d="M298.386,-168.083C293.633,-160.534 286.682,-149.495 280.848,-140.23"/>
<polygon fill="midnightblue" stroke="midnightblue" points="283.8,-138.349 275.51,-131.751 277.876,-142.078 283.8,-138.349"/>
</g>
<!-- Node16 -->
<g id="node16" class="node"><title>Node16</title>
<g id="a_node16"><a xlink:href="cclambda_2globals_8h.html" target="_top" xlink:title="Enter brief description of file here.">
<polygon fill="none" stroke="black" points="384,-112.5 384,-131.5 440,-131.5 440,-112.5 384,-112.5"/>
<text text-anchor="middle" x="412" y="-119.5" font-family="Helvetica,sans-Serif" font-size="10.00">globals.h</text>
</a>
</g>
</g>
<!-- Node1&#45;&gt;Node16 -->
<g id="edge19" class="edge"><title>Node1&#45;&gt;Node16</title>
<path fill="none" stroke="midnightblue" d="M321.352,-168.324C338.672,-159.664 365.515,-146.242 385.502,-136.249"/>
<polygon fill="midnightblue" stroke="midnightblue" points="387.312,-139.257 394.691,-131.655 384.181,-132.996 387.312,-139.257"/>
</g>
<!-- Node7 -->
<g id="node7" class="node"><title>Node7</title>
<polygon fill="none" stroke="#bfbfbf" points="299.5,-0.5 299.5,-19.5 342.5,-19.5 342.5,-0.5 299.5,-0.5"/>
<text text-anchor="middle" x="321" y="-7.5" font-family="Helvetica,sans-Serif" font-size="10.00">cstdio</text>
</g>
<!-- Node6&#45;&gt;Node7 -->
<g id="edge6" class="edge"><title>Node6&#45;&gt;Node7</title>
<path fill="none" stroke="midnightblue" d="M512.5,-56.8389C474.602,-47.8615 411.945,-32.9829 358,-20 356.12,-19.5475 354.187,-19.081 352.236,-18.6095"/>
<polygon fill="midnightblue" stroke="midnightblue" points="353.06,-15.2079 342.517,-16.2526 351.411,-22.0107 353.06,-15.2079"/>
</g>
<!-- Node8 -->
<g id="node8" class="node"><title>Node8</title>
<g id="a_node8"><a xlink:href="psifiles_8h_source.html" target="_top" xlink:title="psifiles.h">
<polygon fill="none" stroke="black" points="467,-0.5 467,-19.5 523,-19.5 523,-0.5 467,-0.5"/>
<text text-anchor="middle" x="495" y="-7.5" font-family="Helvetica,sans-Serif" font-size="10.00">psifiles.h</text>
</a>
</g>
</g>
<!-- Node6&#45;&gt;Node8 -->
<g id="edge7" class="edge"><title>Node6&#45;&gt;Node8</title>
<path fill="none" stroke="midnightblue" d="M538.413,-56.083C530.841,-48.2195 519.622,-36.5688 510.486,-27.0813"/>
<polygon fill="midnightblue" stroke="midnightblue" points="512.885,-24.5266 503.427,-19.7511 507.842,-29.3821 512.885,-24.5266"/>
</g>
<!-- Node9 -->
<g id="node9" class="node"><title>Node9</title>
<g id="a_node9"><a xlink:href="libpsio_2config_8h_source.html" target="_top" xlink:title="libpsio/config.h">
<polygon fill="none" stroke="black" points="367,-0.5 367,-19.5 449,-19.5 449,-0.5 367,-0.5"/>
<text text-anchor="middle" x="408" y="-7.5" font-family="Helvetica,sans-Serif" font-size="10.00">libpsio/config.h</text>
</a>
</g>
</g>
<!-- Node6&#45;&gt;Node9 -->
<g id="edge8" class="edge"><title>Node6&#45;&gt;Node9</title>
<path fill="none" stroke="midnightblue" d="M524.975,-56.4435C501.896,-47.4776 465.438,-33.314 439.359,-23.1827"/>
<polygon fill="midnightblue" stroke="midnightblue" points="440.511,-19.8753 429.922,-19.5164 437.976,-26.4002 440.511,-19.8753"/>
</g>
<!-- Node10 -->
<g id="node10" class="node"><title>Node10</title>
<polygon fill="none" stroke="#bfbfbf" points="603,-0.5 603,-19.5 711,-19.5 711,-0.5 603,-0.5"/>
<text text-anchor="middle" x="657" y="-7.5" font-family="Helvetica,sans-Serif" font-size="10.00">boost/shared_ptr.hpp</text>
</g>
<!-- Node6&#45;&gt;Node10 -->
<g id="edge9" class="edge"><title>Node6&#45;&gt;Node10</title>
<path fill="none" stroke="midnightblue" d="M564.673,-56.324C582.394,-47.6247 609.903,-34.1202 630.288,-24.113"/>
<polygon fill="midnightblue" stroke="midnightblue" points="631.936,-27.2031 639.37,-19.6545 628.851,-20.9195 631.936,-27.2031"/>
</g>
<!-- Node11 -->
<g id="node11" class="node"><title>Node11</title>
<polygon fill="none" stroke="#bfbfbf" points="541,-0.5 541,-19.5 585,-19.5 585,-0.5 541,-0.5"/>
<text text-anchor="middle" x="563" y="-7.5" font-family="Helvetica,sans-Serif" font-size="10.00">vector</text>
</g>
<!-- Node6&#45;&gt;Node11 -->
<g id="edge10" class="edge"><title>Node6&#45;&gt;Node11</title>
<path fill="none" stroke="midnightblue" d="M549.642,-56.083C551.786,-48.8486 554.879,-38.4087 557.549,-29.3968"/>
<polygon fill="midnightblue" stroke="midnightblue" points="560.922,-30.3334 560.407,-19.7511 554.21,-28.3447 560.922,-30.3334"/>
</g>
<!-- Node12&#45;&gt;Node7 -->
<g id="edge12" class="edge"><title>Node12&#45;&gt;Node7</title>
<path fill="none" stroke="midnightblue" d="M311.878,-113.423C293.69,-106.772 271.105,-95.1052 260,-76 248.16,-55.6292 271.979,-36.498 293.23,-24.3372"/>
<polygon fill="midnightblue" stroke="midnightblue" points="294.929,-27.3971 302.069,-19.5688 291.606,-21.2364 294.929,-27.3971"/>
</g>
<!-- Node12&#45;&gt;Node4 -->
<g id="edge13" class="edge"><title>Node12&#45;&gt;Node4</title>
<path fill="none" stroke="midnightblue" d="M315.549,-112.444C290.141,-103.173 249.505,-88.3464 221.601,-78.1652"/>
<polygon fill="midnightblue" stroke="midnightblue" points="222.542,-74.783 211.948,-74.6433 220.143,-81.359 222.542,-74.783"/>
</g>
<!-- Node14&#45;&gt;Node4 -->
<g id="edge16" class="edge"><title>Node14&#45;&gt;Node4</title>
<path fill="none" stroke="midnightblue" d="M196.844,-112.083C195.916,-104.927 194.582,-94.6353 193.423,-85.6911"/>
<polygon fill="midnightblue" stroke="midnightblue" points="196.891,-85.2181 192.134,-75.7511 189.949,-86.1181 196.891,-85.2181"/>
</g>
<!-- Node15&#45;&gt;Node4 -->
<g id="edge18" class="edge"><title>Node15&#45;&gt;Node4</title>
<path fill="none" stroke="midnightblue" d="M257.307,-112.324C245.099,-103.979 226.422,-91.2122 211.997,-81.3524"/>
<polygon fill="midnightblue" stroke="midnightblue" points="213.892,-78.4082 203.661,-75.6545 209.942,-84.1871 213.892,-78.4082"/>
</g>
<!-- Node16&#45;&gt;Node8 -->
<g id="edge20" class="edge"><title>Node16&#45;&gt;Node8</title>
<path fill="none" stroke="midnightblue" d="M425.182,-112.311C436.86,-104.08 453.756,-90.8024 465,-76 475.797,-61.7869 483.921,-43.0652 488.973,-29.366"/>
<polygon fill="midnightblue" stroke="midnightblue" points="492.377,-30.2333 492.359,-19.6385 485.766,-27.9322 492.377,-30.2333"/>
</g>
<!-- Node16&#45;&gt;Node6 -->
<g id="edge21" class="edge"><title>Node16&#45;&gt;Node6</title>
<path fill="none" stroke="midnightblue" d="M433.391,-112.444C455.707,-103.517 490.903,-89.4387 516.208,-79.3168"/>
<polygon fill="midnightblue" stroke="midnightblue" points="517.724,-82.4801 525.709,-75.5164 515.124,-75.9807 517.724,-82.4801"/>
</g>
<!-- Node17 -->
<g id="node17" class="node"><title>Node17</title>
<g id="a_node17"><a xlink:href="libciomr_8h_source.html" target="_top" xlink:title="libciomr/libciomr.h">
<polygon fill="none" stroke="black" points="268.5,-56.5 268.5,-75.5 363.5,-75.5 363.5,-56.5 268.5,-56.5"/>
<text text-anchor="middle" x="316" y="-63.5" font-family="Helvetica,sans-Serif" font-size="10.00">libciomr/libciomr.h</text>
</a>
</g>
</g>
<!-- Node16&#45;&gt;Node17 -->
<g id="edge22" class="edge"><title>Node16&#45;&gt;Node17</title>
<path fill="none" stroke="midnightblue" d="M396.576,-112.324C381.46,-103.822 358.185,-90.7288 340.529,-80.7975"/>
<polygon fill="midnightblue" stroke="midnightblue" points="341.817,-77.5066 331.386,-75.6545 338.386,-83.6077 341.817,-77.5066"/>
</g>
<!-- Node18 -->
<g id="node18" class="node"><title>Node18</title>
<g id="a_node18"><a xlink:href="psio_8h_source.html" target="_top" xlink:title="libpsio/psio.h">
<polygon fill="none" stroke="black" points="382,-56.5 382,-75.5 456,-75.5 456,-56.5 382,-56.5"/>
<text text-anchor="middle" x="419" y="-63.5" font-family="Helvetica,sans-Serif" font-size="10.00">libpsio/psio.h</text>
</a>
</g>
</g>
<!-- Node16&#45;&gt;Node18 -->
<g id="edge24" class="edge"><title>Node16&#45;&gt;Node18</title>
<path fill="none" stroke="midnightblue" d="M413.156,-112.083C414.084,-104.927 415.418,-94.6353 416.577,-85.6911"/>
<polygon fill="midnightblue" stroke="midnightblue" points="420.051,-86.1181 417.866,-75.7511 413.109,-85.2181 420.051,-86.1181"/>
</g>
<!-- Node17&#45;&gt;Node7 -->
<g id="edge23" class="edge"><title>Node17&#45;&gt;Node7</title>
<path fill="none" stroke="midnightblue" d="M316.826,-56.083C317.481,-49.0059 318.42,-38.8611 319.242,-29.9865"/>
<polygon fill="midnightblue" stroke="midnightblue" points="322.753,-30.0312 320.19,-19.7511 315.783,-29.3858 322.753,-30.0312"/>
</g>
<!-- Node18&#45;&gt;Node7 -->
<g id="edge25" class="edge"><title>Node18&#45;&gt;Node7</title>
<path fill="none" stroke="midnightblue" d="M403.255,-56.324C387.681,-47.7428 363.623,-34.486 345.541,-24.5224"/>
<polygon fill="midnightblue" stroke="midnightblue" points="347.154,-21.4152 336.706,-19.6545 343.776,-27.546 347.154,-21.4152"/>
</g>
<!-- Node18&#45;&gt;Node9 -->
<g id="edge26" class="edge"><title>Node18&#45;&gt;Node9</title>
<path fill="none" stroke="midnightblue" d="M417.184,-56.083C415.726,-48.9272 413.629,-38.6353 411.807,-29.6911"/>
<polygon fill="midnightblue" stroke="midnightblue" points="415.208,-28.8512 409.783,-19.7511 408.349,-30.2485 415.208,-28.8512"/>
</g>
</g>
</svg>
        <g id="navigator" transform="translate(0 0)" fill="#404254">
                <rect fill="#f2f5e9" fill-opacity="0.5" stroke="#606060" stroke-width=".5" x="0" y="0" width="60" height="60"/>
                <use id="zoomplus" xlink:href="#zoomPlus" x="17" y="9" onmousedown="handleZoom(evt,'in')"/>
                <use id="zoomminus" xlink:href="#zoomMin" x="42" y="9" onmousedown="handleZoom(evt,'out')"/>
                <use id="reset" xlink:href="#resetDef" x="30" y="36" onmousedown="handleReset()"/>
                <g id="arrowUp" xlink:href="#dirArrow" transform="translate(30 24)" onmousedown="handlePan(0,-1)">
                  <use xlink:href="#rim" fill="#404040">
                        <set attributeName="fill" to="#808080" begin="arrowUp.mouseover" end="arrowUp.mouseout"/>
                  </use>
                  <path fill="none" stroke="white" stroke-width="1.5" d="M0,-3.0v7 M-2.5,-0.5L0,-3.0L2.5,-0.5"/>
                </g>
                <g id="arrowRight" xlink:href="#dirArrow" transform="rotate(90) translate(36 -43)" onmousedown="handlePan(1,0)">
                  <use xlink:href="#rim" fill="#404040">
                        <set attributeName="fill" to="#808080" begin="arrowRight.mouseover" end="arrowRight.mouseout"/>
                  </use>
                  <path fill="none" stroke="white" stroke-width="1.5" d="M0,-3.0v7 M-2.5,-0.5L0,-3.0L2.5,-0.5"/>
                </g>
                <g id="arrowDown" xlink:href="#dirArrow" transform="rotate(180) translate(-30 -48)" onmousedown="handlePan(0,1)">
                  <use xlink:href="#rim" fill="#404040">
                        <set attributeName="fill" to="#808080" begin="arrowDown.mouseover" end="arrowDown.mouseout"/>
                  </use>
                  <path fill="none" stroke="white" stroke-width="1.5" d="M0,-3.0v7 M-2.5,-0.5L0,-3.0L2.5,-0.5"/>
                </g>
                <g id="arrowLeft" xlink:href="#dirArrow" transform="rotate(270) translate(-36 17)" onmousedown="handlePan(-1,0)">
                  <use xlink:href="#rim" fill="#404040">
                        <set attributeName="fill" to="#808080" begin="arrowLeft.mouseover" end="arrowLeft.mouseout"/>
                  </use>
                  <path fill="none" stroke="white" stroke-width="1.5" d="M0,-3.0v7 M-2.5,-0.5L0,-3.0L2.5,-0.5"/>
                </g>
        </g>
        <svg viewBox="0 0 15 15" width="100%" height="30px" preserveAspectRatio="xMaxYMin meet">
         <g id="arrow_out" transform="scale(0.3 0.3)">
          <a xlink:href="L1_8cc__incl_org.svg" target="_base">
           <rect id="button" ry="5" rx="5" y="6" x="6" height="38" width="38"
                fill="#f2f5e9" fill-opacity="0.5" stroke="#606060" stroke-width="1.0"/>
           <path id="arrow"
             d="M 11.500037,31.436501 C 11.940474,20.09759 22.043105,11.32322 32.158766,21.979434 L 37.068811,17.246167 C 37.068811,17.246167 37.088388,32 37.088388,32 L 22.160133,31.978069 C 22.160133,31.978069 26.997745,27.140456 26.997745,27.140456 C 18.528582,18.264221 13.291696,25.230495 11.500037,31.436501 z"
             style="fill:#404040;"/>
          </a>
         </g>
        </svg>
</svg>
