<?xml version="1.0" encoding="UTF-8" standalone="no"?>
<!DOCTYPE svg PUBLIC "-//W3C//DTD SVG 1.1//EN"
 "http://www.w3.org/Graphics/SVG/1.1/DTD/svg11.dtd">
<!-- Generated by graphviz version 2.30.1 (20140110.0959)
 -->
<!-- Title: lambda_residuals.cc Pages: 1 -->
<svg width="478pt" height="140pt"
 viewBox="0.00 0.00 478.00 140.00" xmlns="http://www.w3.org/2000/svg" xmlns:xlink="http://www.w3.org/1999/xlink">
<g id="graph0" class="graph" transform="scale(1 1) rotate(0) translate(4 136)">
<title>lambda_residuals.cc</title>
<!-- Node1 -->
<g id="node1" class="node"><title>Node1</title>
<polygon fill="#bfbfbf" stroke="black" points="212,-112.5 212,-131.5 318,-131.5 318,-112.5 212,-112.5"/>
<text text-anchor="middle" x="265" y="-119.5" font-family="Helvetica,sans-Serif" font-size="10.00">lambda_residuals.cc</text>
</g>
<!-- Node2 -->
<g id="node2" class="node"><title>Node2</title>
<g id="a_node2"><a xlink:href="lib_2libdpd_2dpd_8h.html" target="_top" xlink:title="Enter brief description of file here.">
<polygon fill="none" stroke="black" points="144.5,-56.5 144.5,-75.5 213.5,-75.5 213.5,-56.5 144.5,-56.5"/>
<text text-anchor="middle" x="179" y="-63.5" font-family="Helvetica,sans-Serif" font-size="10.00">libdpd/dpd.h</text>
</a>
</g>
</g>
<!-- Node1&#45;&gt;Node2 -->
<g id="edge1" class="edge"><title>Node1&#45;&gt;Node2</title>
<path fill="none" stroke="midnightblue" d="M251.183,-112.324C237.767,-103.9 217.176,-90.9709 201.414,-81.0741"/>
<polygon fill="midnightblue" stroke="midnightblue" points="203.113,-78.0081 192.783,-75.6545 199.391,-83.9364 203.113,-78.0081"/>
</g>
<!-- Node8 -->
<g id="node8" class="node"><title>Node8</title>
<g id="a_node8"><a xlink:href="ccresponse_2MOInfo_8h.html" target="_top" xlink:title="Enter brief description of file here.">
<polygon fill="none" stroke="black" points="236.5,-56.5 236.5,-75.5 293.5,-75.5 293.5,-56.5 236.5,-56.5"/>
<text text-anchor="middle" x="265" y="-63.5" font-family="Helvetica,sans-Serif" font-size="10.00">MOInfo.h</text>
</a>
</g>
</g>
<!-- Node1&#45;&gt;Node8 -->
<g id="edge7" class="edge"><title>Node1&#45;&gt;Node8</title>
<path fill="none" stroke="midnightblue" d="M265,-112.083C265,-105.006 265,-94.8611 265,-85.9865"/>
<polygon fill="midnightblue" stroke="midnightblue" points="268.5,-85.751 265,-75.7511 261.5,-85.7511 268.5,-85.751"/>
</g>
<!-- Node9 -->
<g id="node9" class="node"><title>Node9</title>
<g id="a_node9"><a xlink:href="ccresponse_2Params_8h.html" target="_top" xlink:title="Enter brief description of file here.">
<polygon fill="none" stroke="black" points="411.5,-56.5 411.5,-75.5 470.5,-75.5 470.5,-56.5 411.5,-56.5"/>
<text text-anchor="middle" x="441" y="-63.5" font-family="Helvetica,sans-Serif" font-size="10.00">Params.h</text>
</a>
</g>
</g>
<!-- Node1&#45;&gt;Node9 -->
<g id="edge8" class="edge"><title>Node1&#45;&gt;Node9</title>
<path fill="none" stroke="midnightblue" d="M292.888,-112.444C322.754,-103.28 370.315,-88.6876 403.456,-78.5192"/>
<polygon fill="midnightblue" stroke="midnightblue" points="404.709,-81.7958 413.243,-75.5164 402.656,-75.1037 404.709,-81.7958"/>
</g>
<!-- Node11 -->
<g id="node11" class="node"><title>Node11</title>
<g id="a_node11"><a xlink:href="ccresponse_2Local_8h.html" target="_top" xlink:title="Enter brief description of file here.">
<polygon fill="none" stroke="black" points="323,-56.5 323,-75.5 371,-75.5 371,-56.5 323,-56.5"/>
<text text-anchor="middle" x="347" y="-63.5" font-family="Helvetica,sans-Serif" font-size="10.00">Local.h</text>
</a>
</g>
</g>
<!-- Node1&#45;&gt;Node11 -->
<g id="edge10" class="edge"><title>Node1&#45;&gt;Node11</title>
<path fill="none" stroke="midnightblue" d="M278.175,-112.324C290.847,-103.979 310.233,-91.2122 325.206,-81.3524"/>
<polygon fill="midnightblue" stroke="midnightblue" points="327.431,-84.0776 333.858,-75.6545 323.581,-78.2313 327.431,-84.0776"/>
</g>
<!-- Node12 -->
<g id="node12" class="node"><title>Node12</title>
<g id="a_node12"><a xlink:href="ccresponse_2globals_8h.html" target="_top" xlink:title="Enter brief description of file here.">
<polygon fill="none" stroke="black" points="61,-56.5 61,-75.5 117,-75.5 117,-56.5 61,-56.5"/>
<text text-anchor="middle" x="89" y="-63.5" font-family="Helvetica,sans-Serif" font-size="10.00">globals.h</text>
</a>
</g>
</g>
<!-- Node1&#45;&gt;Node12 -->
<g id="edge12" class="edge"><title>Node1&#45;&gt;Node12</title>
<path fill="none" stroke="midnightblue" d="M237.112,-112.444C207.246,-103.28 159.685,-88.6876 126.544,-78.5192"/>
<polygon fill="midnightblue" stroke="midnightblue" points="127.344,-75.1037 116.757,-75.5164 125.291,-81.7958 127.344,-75.1037"/>
</g>
<!-- Node3 -->
<g id="node3" class="node"><title>Node3</title>
<polygon fill="none" stroke="#bfbfbf" points="-0.5,-0.5 -0.5,-19.5 42.5,-19.5 42.5,-0.5 -0.5,-0.5"/>
<text text-anchor="middle" x="21" y="-7.5" font-family="Helvetica,sans-Serif" font-size="10.00">cstdio</text>
</g>
<!-- Node2&#45;&gt;Node3 -->
<g id="edge2" class="edge"><title>Node2&#45;&gt;Node3</title>
<path fill="none" stroke="midnightblue" d="M153.964,-56.4435C126.446,-47.0385 82.1934,-31.9142 52.3782,-21.7242"/>
<polygon fill="midnightblue" stroke="midnightblue" points="53.46,-18.3952 42.8655,-18.473 51.1962,-25.0191 53.46,-18.3952"/>
</g>
<!-- Node4 -->
<g id="node4" class="node"><title>Node4</title>
<g id="a_node4"><a xlink:href="psifiles_8h_source.html" target="_top" xlink:title="psifiles.h">
<polygon fill="none" stroke="black" points="61,-0.5 61,-19.5 117,-19.5 117,-0.5 61,-0.5"/>
<text text-anchor="middle" x="89" y="-7.5" font-family="Helvetica,sans-Serif" font-size="10.00">psifiles.h</text>
</a>
</g>
</g>
<!-- Node2&#45;&gt;Node4 -->
<g id="edge3" class="edge"><title>Node2&#45;&gt;Node4</title>
<path fill="none" stroke="midnightblue" d="M164.54,-56.324C150.5,-47.9002 128.952,-34.9709 112.457,-25.0741"/>
<polygon fill="midnightblue" stroke="midnightblue" points="113.8,-21.7983 103.424,-19.6545 110.198,-27.8007 113.8,-21.7983"/>
</g>
<!-- Node5 -->
<g id="node5" class="node"><title>Node5</title>
<g id="a_node5"><a xlink:href="libpsio_2config_8h_source.html" target="_top" xlink:title="libpsio/config.h">
<polygon fill="none" stroke="black" points="135,-0.5 135,-19.5 217,-19.5 217,-0.5 135,-0.5"/>
<text text-anchor="middle" x="176" y="-7.5" font-family="Helvetica,sans-Serif" font-size="10.00">libpsio/config.h</text>
</a>
</g>
</g>
<!-- Node2&#45;&gt;Node5 -->
<g id="edge4" class="edge"><title>Node2&#45;&gt;Node5</title>
<path fill="none" stroke="midnightblue" d="M178.505,-56.083C178.111,-49.0059 177.548,-38.8611 177.055,-29.9865"/>
<polygon fill="midnightblue" stroke="midnightblue" points="180.536,-29.5415 176.486,-19.7511 173.546,-29.9299 180.536,-29.5415"/>
</g>
<!-- Node6 -->
<g id="node6" class="node"><title>Node6</title>
<polygon fill="none" stroke="#bfbfbf" points="235,-0.5 235,-19.5 343,-19.5 343,-0.5 235,-0.5"/>
<text text-anchor="middle" x="289" y="-7.5" font-family="Helvetica,sans-Serif" font-size="10.00">boost/shared_ptr.hpp</text>
</g>
<!-- Node2&#45;&gt;Node6 -->
<g id="edge5" class="edge"><title>Node2&#45;&gt;Node6</title>
<path fill="none" stroke="midnightblue" d="M196.673,-56.324C214.394,-47.6247 241.903,-34.1202 262.288,-24.113"/>
<polygon fill="midnightblue" stroke="midnightblue" points="263.936,-27.2031 271.37,-19.6545 260.851,-20.9195 263.936,-27.2031"/>
</g>
<!-- Node7 -->
<g id="node7" class="node"><title>Node7</title>
<polygon fill="none" stroke="#bfbfbf" points="361,-0.5 361,-19.5 405,-19.5 405,-0.5 361,-0.5"/>
<text text-anchor="middle" x="383" y="-7.5" font-family="Helvetica,sans-Serif" font-size="10.00">vector</text>
</g>
<!-- Node2&#45;&gt;Node7 -->
<g id="edge6" class="edge"><title>Node2&#45;&gt;Node7</title>
<path fill="none" stroke="midnightblue" d="M212.888,-56.4848C245.841,-48.1379 297.549,-34.8671 351.023,-20.217"/>
<polygon fill="midnightblue" stroke="midnightblue" points="351.956,-23.5903 360.67,-17.564 350.1,-16.8409 351.956,-23.5903"/>
</g>
<!-- Node10 -->
<g id="node10" class="node"><title>Node10</title>
<polygon fill="none" stroke="#bfbfbf" points="423.5,-0.5 423.5,-19.5 464.5,-19.5 464.5,-0.5 423.5,-0.5"/>
<text text-anchor="middle" x="444" y="-7.5" font-family="Helvetica,sans-Serif" font-size="10.00">string</text>
</g>
<!-- Node9&#45;&gt;Node10 -->
<g id="edge9" class="edge"><title>Node9&#45;&gt;Node10</title>
<path fill="none" stroke="midnightblue" d="M441.495,-56.083C441.889,-49.0059 442.452,-38.8611 442.945,-29.9865"/>
<polygon fill="midnightblue" stroke="midnightblue" points="446.454,-29.9299 443.514,-19.7511 439.464,-29.5415 446.454,-29.9299"/>
</g>
<!-- Node11&#45;&gt;Node10 -->
<g id="edge11" class="edge"><title>Node11&#45;&gt;Node10</title>
<path fill="none" stroke="midnightblue" d="M362.585,-56.324C377.999,-47.7428 401.812,-34.486 419.71,-24.5224"/>
<polygon fill="midnightblue" stroke="midnightblue" points="421.419,-27.5767 428.454,-19.6545 418.014,-21.4606 421.419,-27.5767"/>
</g>
<!-- Node12&#45;&gt;Node4 -->
<g id="edge13" class="edge"><title>Node12&#45;&gt;Node4</title>
<path fill="none" stroke="midnightblue" d="M89,-56.083C89,-49.0059 89,-38.8611 89,-29.9865"/>
<polygon fill="midnightblue" stroke="midnightblue" points="92.5001,-29.751 89,-19.7511 85.5001,-29.7511 92.5001,-29.751"/>
</g>
<!-- Node12&#45;&gt;Node3 -->
<g id="edge14" class="edge"><title>Node12&#45;&gt;Node3</title>
<path fill="none" stroke="midnightblue" d="M78.0746,-56.324C67.8254,-48.1849 52.2794,-35.8395 39.999,-26.0874"/>
<polygon fill="midnightblue" stroke="midnightblue" points="42.1319,-23.3119 32.1242,-19.8339 37.7787,-28.7937 42.1319,-23.3119"/>
</g>
</g>
</svg>
