<?xml version="1.0" encoding="UTF-8" standalone="no"?>
<!DOCTYPE svg PUBLIC "-//W3C//DTD SVG 1.1//EN"
 "http://www.w3.org/Graphics/SVG/1.1/DTD/svg11.dtd">
<!-- Generated by graphviz version 2.30.1 (20140110.0959)
 -->
<!-- Title: dpd.h Pages: 1 -->
<!--zoomable 96 -->
<svg id="main" version="1.1" xmlns="http://www.w3.org/2000/svg" xmlns:xlink="http://www.w3.org/1999/xlink" xml:space="preserve" onload="init(evt)">
        <defs>
                <circle id="rim" cx="0" cy="0" r="7"/>
                <circle id="rim2" cx="0" cy="0" r="3.5"/>
                <g id="zoomPlus">
                        <use xlink:href="#rim" fill="#404040">
                                <set attributeName="fill" to="#808080" begin="zoomplus.mouseover" end="zoomplus.mouseout"/>
                        </use>
                        <path d="M-4,0h8M0,-4v8" fill="none" stroke="white" stroke-width="1.5" pointer-events="none"/>
                </g>
                <g id="zoomMin">
                        <use xlink:href="#rim" fill="#404040">
                                <set attributeName="fill" to="#808080" begin="zoomminus.mouseover" end="zoomminus.mouseout"/>
                        </use>
                        <path d="M-4,0h8" fill="none" stroke="white" stroke-width="1.5" pointer-events="none"/>
                </g>
                <g id="dirArrow">
                        <path fill="none" stroke="white" stroke-width="1.5" d="M0,-3.0v7 M-2.5,-0.5L0,-3.0L2.5,-0.5"/>
                </g>
               <g id="resetDef">
                       <use xlink:href="#rim2" fill="#404040">
                               <set attributeName="fill" to="#808080" begin="reset.mouseover" end="reset.mouseout"/>
                       </use>
               </g>
        </defs>

<script type="text/javascript">
var viewWidth = 5294;
var viewHeight = 96;
var sectionId = 'dynsection-1';
</script>
<script xlink:href="svgpan.js"/>
<svg id="graph" class="graph">
<g id="viewport">
<title>dpd.h</title>
<!-- Node1 -->
<g id="node1" class="node"><title>Node1</title>
<polygon fill="#bfbfbf" stroke="black" points="2689.5,-68.5 2689.5,-87.5 2730.5,-87.5 2730.5,-68.5 2689.5,-68.5"/>
<text text-anchor="middle" x="2710" y="-75.5" font-family="Helvetica,sans-Serif" font-size="10.00">dpd.h</text>
</g>
<!-- Node2 -->
<g id="node2" class="node"><title>Node2</title>
<g id="a_node2"><a xlink:href="dist__mat_8h_source.html" target="_top" xlink:title="dist_mat.h">
<polygon fill="none" stroke="red" points="0,-6.5 0,-25.5 62,-25.5 62,-6.5 0,-6.5"/>
<text text-anchor="middle" x="31" y="-13.5" font-family="Helvetica,sans-Serif" font-size="10.00">dist_mat.h</text>
</a>
</g>
</g>
<!-- Node1&#45;&gt;Node2 -->
<g id="edge1" class="edge"><title>Node1&#45;&gt;Node2</title>
<path fill="none" stroke="midnightblue" d="M2679.11,-77.1113C2401.44,-78.0281 339.617,-83.0787 71,-32 63.8596,-30.6422 56.3243,-28.1258 49.7427,-25.5368"/>
<polygon fill="midnightblue" stroke="midnightblue" points="2679.28,-80.6108 2689.27,-77.0769 2679.26,-73.6108 2679.28,-80.6108"/>
</g>
<!-- Node3 -->
<g id="node3" class="node"><title>Node3</title>
<g id="a_node3"><a xlink:href="3d__sort_8cc.html" target="_top" xlink:title="Enter brief description of file here.">
<polygon fill="none" stroke="black" points="80,-6.5 80,-25.5 142,-25.5 142,-6.5 80,-6.5"/>
<text text-anchor="middle" x="111" y="-13.5" font-family="Helvetica,sans-Serif" font-size="10.00">3d_sort.cc</text>
</a>
</g>
</g>
<!-- Node1&#45;&gt;Node3 -->
<g id="edge2" class="edge"><title>Node1&#45;&gt;Node3</title>
<path fill="none" stroke="midnightblue" d="M2678.8,-77.0944C2404.69,-77.8395 411.066,-81.5243 151,-32 143.86,-30.6403 136.325,-28.1235 129.743,-25.5347"/>
<polygon fill="midnightblue" stroke="midnightblue" points="2679.2,-80.5933 2689.19,-77.0652 2679.18,-73.5934 2679.2,-80.5933"/>
</g>
<!-- Node4 -->
<g id="node4" class="node"><title>Node4</title>
<g id="a_node4"><a xlink:href="4mat__irrep__print_8cc.html" target="_top" xlink:title="Enter brief description of file here.">
<polygon fill="none" stroke="black" points="160,-6.5 160,-25.5 260,-25.5 260,-6.5 160,-6.5"/>
<text text-anchor="middle" x="210" y="-13.5" font-family="Helvetica,sans-Serif" font-size="10.00">4mat_irrep_print.cc</text>
</a>
</g>
</g>
<!-- Node1&#45;&gt;Node4 -->
<g id="edge3" class="edge"><title>Node1&#45;&gt;Node4</title>
<path fill="none" stroke="midnightblue" d="M2679.45,-76.8636C2415.14,-75.6281 519.023,-65.6281 269,-32 258.735,-30.6193 247.683,-28.0976 237.951,-25.5107"/>
<polygon fill="midnightblue" stroke="midnightblue" points="2679.48,-80.3637 2689.49,-76.91 2679.51,-73.3638 2679.48,-80.3637"/>
</g>
<!-- Node5 -->
<g id="node5" class="node"><title>Node5</title>
<g id="a_node5"><a xlink:href="lib_2libdpd_2block__matrix_8cc.html" target="_top" xlink:title="Enter brief description of file here.">
<polygon fill="none" stroke="black" points="278,-6.5 278,-25.5 364,-25.5 364,-6.5 278,-6.5"/>
<text text-anchor="middle" x="321" y="-13.5" font-family="Helvetica,sans-Serif" font-size="10.00">block_matrix.cc</text>
</a>
</g>
</g>
<!-- Node1&#45;&gt;Node5 -->
<g id="edge4" class="edge"><title>Node1&#45;&gt;Node5</title>
<path fill="none" stroke="midnightblue" d="M2679.17,-76.8943C2420.2,-75.9426 611.327,-68.0306 373,-32 363.896,-30.6236 354.141,-28.1028 345.569,-25.5155"/>
<polygon fill="midnightblue" stroke="midnightblue" points="2679.35,-80.3949 2689.36,-76.9311 2679.37,-73.3949 2679.35,-80.3949"/>
</g>
<!-- Node6 -->
<g id="node6" class="node"><title>Node6</title>
<g id="a_node6"><a xlink:href="buf4__axpbycz_8cc.html" target="_top" xlink:title="Enter brief description of file here.">
<polygon fill="none" stroke="black" points="382.5,-6.5 382.5,-25.5 473.5,-25.5 473.5,-6.5 382.5,-6.5"/>
<text text-anchor="middle" x="428" y="-13.5" font-family="Helvetica,sans-Serif" font-size="10.00">buf4_axpbycz.cc</text>
</a>
</g>
</g>
<!-- Node1&#45;&gt;Node6 -->
<g id="edge5" class="edge"><title>Node1&#45;&gt;Node6</title>
<path fill="none" stroke="midnightblue" d="M2679.07,-76.8443C2426.67,-75.5126 708.9,-65.2654 482,-32 472.565,-30.6168 462.441,-28.0945 453.537,-25.5078"/>
<polygon fill="midnightblue" stroke="midnightblue" points="2679.33,-80.3456 2689.35,-76.8979 2679.37,-73.3457 2679.33,-80.3456"/>
</g>
<!-- Node7 -->
<g id="node7" class="node"><title>Node7</title>
<g id="a_node7"><a xlink:href="buf4__axpy_8cc.html" target="_top" xlink:title="Enter brief description of file here.">
<polygon fill="none" stroke="black" points="491.5,-6.5 491.5,-25.5 566.5,-25.5 566.5,-6.5 491.5,-6.5"/>
<text text-anchor="middle" x="529" y="-13.5" font-family="Helvetica,sans-Serif" font-size="10.00">buf4_axpy.cc</text>
</a>
</g>
</g>
<!-- Node1&#45;&gt;Node7 -->
<g id="edge6" class="edge"><title>Node1&#45;&gt;Node7</title>
<path fill="none" stroke="midnightblue" d="M2679.21,-76.8976C2433.26,-76.0084 791.321,-68.7198 575,-32 566.884,-30.6224 558.241,-28.1013 550.663,-25.5141"/>
<polygon fill="midnightblue" stroke="midnightblue" points="2679.23,-80.3976 2689.24,-76.9331 2679.26,-73.3977 2679.23,-80.3976"/>
</g>
<!-- Node8 -->
<g id="node8" class="node"><title>Node8</title>
<g id="a_node8"><a xlink:href="buf4__close_8cc.html" target="_top" xlink:title="Enter brief description of file here.">
<polygon fill="none" stroke="black" points="584.5,-6.5 584.5,-25.5 661.5,-25.5 661.5,-6.5 584.5,-6.5"/>
<text text-anchor="middle" x="623" y="-13.5" font-family="Helvetica,sans-Serif" font-size="10.00">buf4_close.cc</text>
</a>
</g>
</g>
<!-- Node1&#45;&gt;Node8 -->
<g id="edge7" class="edge"><title>Node1&#45;&gt;Node8</title>
<path fill="none" stroke="midnightblue" d="M2679.11,-76.8532C2439.14,-75.6424 876.367,-66.4675 670,-32 661.721,-30.6172 652.893,-28.0949 645.149,-25.5082"/>
<polygon fill="midnightblue" stroke="midnightblue" points="2679.22,-80.3536 2689.23,-76.9034 2679.25,-73.3537 2679.22,-80.3536"/>
</g>
<!-- Node9 -->
<g id="node9" class="node"><title>Node9</title>
<g id="a_node9"><a xlink:href="buf4__copy_8cc.html" target="_top" xlink:title="Enter brief description of file here.">
<polygon fill="none" stroke="black" points="679.5,-6.5 679.5,-25.5 754.5,-25.5 754.5,-6.5 679.5,-6.5"/>
<text text-anchor="middle" x="717" y="-13.5" font-family="Helvetica,sans-Serif" font-size="10.00">buf4_copy.cc</text>
</a>
</g>
</g>
<!-- Node1&#45;&gt;Node9 -->
<g id="edge8" class="edge"><title>Node1&#45;&gt;Node9</title>
<path fill="none" stroke="midnightblue" d="M2679.11,-76.8179C2445.49,-75.3705 960.44,-64.917 764,-32 755.722,-30.6128 746.894,-28.0895 739.15,-25.5032"/>
<polygon fill="midnightblue" stroke="midnightblue" points="2679.26,-80.3187 2689.28,-76.88 2679.3,-73.3189 2679.26,-80.3187"/>
</g>
<!-- Node10 -->
<g id="node10" class="node"><title>Node10</title>
<g id="a_node10"><a xlink:href="buf4__dirprd_8cc.html" target="_top" xlink:title="Enter brief description of file here.">
<polygon fill="none" stroke="black" points="773,-6.5 773,-25.5 851,-25.5 851,-6.5 773,-6.5"/>
<text text-anchor="middle" x="812" y="-13.5" font-family="Helvetica,sans-Serif" font-size="10.00">buf4_dirprd.cc</text>
</a>
</g>
</g>
<!-- Node1&#45;&gt;Node10 -->
<g id="edge9" class="edge"><title>Node1&#45;&gt;Node10</title>
<path fill="none" stroke="midnightblue" d="M2679.25,-76.7681C2452.74,-74.9919 1046.44,-62.7778 860,-32 851.73,-30.6349 842.913,-28.1842 835.122,-25.6541"/>
<polygon fill="midnightblue" stroke="midnightblue" points="2679.39,-80.2692 2689.41,-76.847 2679.44,-73.2694 2679.39,-80.2692"/>
</g>
<!-- Node11 -->
<g id="node11" class="node"><title>Node11</title>
<g id="a_node11"><a xlink:href="buf4__dot_8cc.html" target="_top" xlink:title="Enter brief description of file here.">
<polygon fill="none" stroke="black" points="869,-6.5 869,-25.5 937,-25.5 937,-6.5 869,-6.5"/>
<text text-anchor="middle" x="903" y="-13.5" font-family="Helvetica,sans-Serif" font-size="10.00">buf4_dot.cc</text>
</a>
</g>
</g>
<!-- Node1&#45;&gt;Node11 -->
<g id="edge10" class="edge"><title>Node1&#45;&gt;Node11</title>
<path fill="none" stroke="midnightblue" d="M2678.97,-76.787C2457.68,-75.1917 1122.8,-64.2767 946,-32 938.533,-30.6369 930.62,-28.1867 923.644,-25.6565"/>
<polygon fill="midnightblue" stroke="midnightblue" points="2679.19,-80.2885 2689.21,-76.8598 2679.24,-73.2887 2679.19,-80.2885"/>
</g>
<!-- Node12 -->
<g id="node12" class="node"><title>Node12</title>
<g id="a_node12"><a xlink:href="buf4__dot__self_8cc.html" target="_top" xlink:title="Enter brief description of file here.">
<polygon fill="none" stroke="black" points="955.5,-6.5 955.5,-25.5 1044.5,-25.5 1044.5,-6.5 955.5,-6.5"/>
<text text-anchor="middle" x="1000" y="-13.5" font-family="Helvetica,sans-Serif" font-size="10.00">buf4_dot_self.cc</text>
</a>
</g>
</g>
<!-- Node1&#45;&gt;Node12 -->
<g id="edge11" class="edge"><title>Node1&#45;&gt;Node12</title>
<path fill="none" stroke="midnightblue" d="M2679.01,-77.1875C2480.44,-78.2338 1384.61,-81.6474 1054,-32 1044.67,-30.5984 1034.65,-28.1054 1025.82,-25.5493"/>
<polygon fill="midnightblue" stroke="midnightblue" points="2679.31,-80.6859 2689.29,-77.1311 2679.27,-73.6861 2679.31,-80.6859"/>
</g>
<!-- Node13 -->
<g id="node13" class="node"><title>Node13</title>
<g id="a_node13"><a xlink:href="buf4__dump_8cc.html" target="_top" xlink:title="Enter brief description of file here.">
<polygon fill="none" stroke="black" points="1063,-6.5 1063,-25.5 1141,-25.5 1141,-6.5 1063,-6.5"/>
<text text-anchor="middle" x="1102" y="-13.5" font-family="Helvetica,sans-Serif" font-size="10.00">buf4_dump.cc</text>
</a>
</g>
</g>
<!-- Node1&#45;&gt;Node13 -->
<g id="edge12" class="edge"><title>Node1&#45;&gt;Node13</title>
<path fill="none" stroke="midnightblue" d="M2679.44,-76.6217C2474.73,-74.0206 1305.96,-58.1075 1150,-32 1141.73,-30.6162 1132.92,-28.1609 1125.13,-25.6323"/>
<polygon fill="midnightblue" stroke="midnightblue" points="2679.45,-80.122 2689.5,-76.7485 2679.54,-73.1225 2679.45,-80.122"/>
</g>
<!-- Node14 -->
<g id="node14" class="node"><title>Node14</title>
<g id="a_node14"><a xlink:href="buf4__init_8cc.html" target="_top" xlink:title="Enter brief description of file here.">
<polygon fill="none" stroke="black" points="1159.5,-6.5 1159.5,-25.5 1226.5,-25.5 1226.5,-6.5 1159.5,-6.5"/>
<text text-anchor="middle" x="1193" y="-13.5" font-family="Helvetica,sans-Serif" font-size="10.00">buf4_init.cc</text>
</a>
</g>
</g>
<!-- Node1&#45;&gt;Node14 -->
<g id="edge13" class="edge"><title>Node1&#45;&gt;Node14</title>
<path fill="none" stroke="midnightblue" d="M2679.25,-76.6378C2480.55,-74.2211 1381.46,-59.6759 1235,-32 1227.7,-30.6199 1219.96,-28.1654 1213.15,-25.6365"/>
<polygon fill="midnightblue" stroke="midnightblue" points="2679.25,-80.138 2689.3,-76.7589 2679.34,-73.1385 2679.25,-80.138"/>
</g>
<!-- Node15 -->
<g id="node15" class="node"><title>Node15</title>
<g id="a_node15"><a xlink:href="buf4__mat__irrep__close_8cc.html" target="_top" xlink:title="Enter brief description of file here.">
<polygon fill="none" stroke="black" points="1244.5,-6.5 1244.5,-25.5 1367.5,-25.5 1367.5,-6.5 1244.5,-6.5"/>
<text text-anchor="middle" x="1306" y="-13.5" font-family="Helvetica,sans-Serif" font-size="10.00">buf4_mat_irrep_close.cc</text>
</a>
</g>
</g>
<!-- Node1&#45;&gt;Node15 -->
<g id="edge14" class="edge"><title>Node1&#45;&gt;Node15</title>
<path fill="none" stroke="midnightblue" d="M2679.02,-76.6887C2504.35,-74.8223 1640.99,-64.0928 1377,-32 1364.99,-30.5404 1352.01,-28.0662 1340.47,-25.5435"/>
<polygon fill="midnightblue" stroke="midnightblue" points="2679.04,-80.189 2689.08,-76.7944 2679.11,-73.1894 2679.04,-80.189"/>
</g>
<!-- Node16 -->
<g id="node16" class="node"><title>Node16</title>
<g id="a_node16"><a xlink:href="buf4__mat__irrep__close__block_8cc.html" target="_top" xlink:title="Enter brief description of file here.">
<polygon fill="none" stroke="black" points="1386,-1 1386,-31 1496,-31 1496,-1 1386,-1"/>
<text text-anchor="start" x="1394" y="-19" font-family="Helvetica,sans-Serif" font-size="10.00">buf4_mat_irrep_close</text>
<text text-anchor="middle" x="1441" y="-8" font-family="Helvetica,sans-Serif" font-size="10.00">_block.cc</text>
</a>
</g>
</g>
<!-- Node1&#45;&gt;Node16 -->
<g id="edge15" class="edge"><title>Node1&#45;&gt;Node16</title>
<path fill="none" stroke="midnightblue" d="M2678.95,-76.6518C2514.29,-74.6818 1741.79,-63.8663 1505,-32 1502.06,-31.6043 1499.06,-31.1342 1496.03,-30.6089"/>
<polygon fill="midnightblue" stroke="midnightblue" points="2679.28,-80.1558 2689.32,-76.7737 2679.37,-73.1563 2679.28,-80.1558"/>
</g>
<!-- Node17 -->
<g id="node17" class="node"><title>Node17</title>
<g id="a_node17"><a xlink:href="buf4__mat__irrep__init_8cc.html" target="_top" xlink:title="Enter brief description of file here.">
<polygon fill="none" stroke="black" points="1514.5,-6.5 1514.5,-25.5 1627.5,-25.5 1627.5,-6.5 1514.5,-6.5"/>
<text text-anchor="middle" x="1571" y="-13.5" font-family="Helvetica,sans-Serif" font-size="10.00">buf4_mat_irrep_init.cc</text>
</a>
</g>
</g>
<!-- Node1&#45;&gt;Node17 -->
<g id="edge16" class="edge"><title>Node1&#45;&gt;Node17</title>
<path fill="none" stroke="midnightblue" d="M2678.97,-76.475C2525.38,-73.7577 1845.5,-60.3145 1636,-32 1624.98,-30.5109 1613.09,-28.0293 1602.52,-25.5089"/>
<polygon fill="midnightblue" stroke="midnightblue" points="2679.05,-79.9767 2689.11,-76.6521 2679.17,-72.9778 2679.05,-79.9767"/>
</g>
<!-- Node18 -->
<g id="node18" class="node"><title>Node18</title>
<g id="a_node18"><a xlink:href="buf4__mat__irrep__init__block_8cc.html" target="_top" xlink:title="Enter brief description of file here.">
<polygon fill="none" stroke="black" points="1645.5,-1 1645.5,-31 1744.5,-31 1744.5,-1 1645.5,-1"/>
<text text-anchor="start" x="1653.5" y="-19" font-family="Helvetica,sans-Serif" font-size="10.00">buf4_mat_irrep_init</text>
<text text-anchor="middle" x="1695" y="-8" font-family="Helvetica,sans-Serif" font-size="10.00">_block.cc</text>
</a>
</g>
</g>
<!-- Node1&#45;&gt;Node18 -->
<g id="edge17" class="edge"><title>Node1&#45;&gt;Node18</title>
<path fill="none" stroke="midnightblue" d="M2679.27,-76.3885C2536.68,-73.4237 1938.79,-59.5507 1754,-32 1750.97,-31.548 1747.87,-31.006 1744.75,-30.4"/>
<polygon fill="midnightblue" stroke="midnightblue" points="2679.4,-79.8918 2689.47,-76.598 2679.54,-72.8933 2679.4,-79.8918"/>
</g>
<!-- Node19 -->
<g id="node19" class="node"><title>Node19</title>
<g id="a_node19"><a xlink:href="buf4__mat__irrep__rd_8cc.html" target="_top" xlink:title="Enter brief description of file here.">
<polygon fill="none" stroke="black" points="1763,-6.5 1763,-25.5 1871,-25.5 1871,-6.5 1763,-6.5"/>
<text text-anchor="middle" x="1817" y="-13.5" font-family="Helvetica,sans-Serif" font-size="10.00">buf4_mat_irrep_rd.cc</text>
</a>
</g>
</g>
<!-- Node1&#45;&gt;Node19 -->
<g id="edge18" class="edge"><title>Node1&#45;&gt;Node19</title>
<path fill="none" stroke="midnightblue" d="M2679.33,-77.315C2570.03,-78.0188 2189.6,-76.8783 1880,-32 1869.43,-30.4677 1858.03,-28.007 1847.87,-25.518"/>
<polygon fill="midnightblue" stroke="midnightblue" points="2679.36,-80.815 2689.33,-77.2401 2679.31,-73.8152 2679.36,-80.815"/>
</g>
<!-- Node20 -->
<g id="node20" class="node"><title>Node20</title>
<g id="a_node20"><a xlink:href="buf4__mat__irrep__rd__block_8cc.html" target="_top" xlink:title="Enter brief description of file here.">
<polygon fill="none" stroke="black" points="1889.5,-6.5 1889.5,-25.5 2026.5,-25.5 2026.5,-6.5 1889.5,-6.5"/>
<text text-anchor="middle" x="1958" y="-13.5" font-family="Helvetica,sans-Serif" font-size="10.00">buf4_mat_irrep_rd_block.cc</text>
</a>
</g>
</g>
<!-- Node1&#45;&gt;Node20 -->
<g id="edge19" class="edge"><title>Node1&#45;&gt;Node20</title>
<path fill="none" stroke="midnightblue" d="M2679.07,-76.2914C2583.2,-73.8051 2282.67,-63.829 2036,-32 2023.28,-30.3588 2009.51,-27.9304 1997.13,-25.5034"/>
<polygon fill="midnightblue" stroke="midnightblue" points="2679.14,-79.7942 2689.23,-76.5463 2679.32,-72.7964 2679.14,-79.7942"/>
</g>
<!-- Node21 -->
<g id="node21" class="node"><title>Node21</title>
<g id="a_node21"><a xlink:href="buf4__mat__irrep__row__close_8cc.html" target="_top" xlink:title="Enter brief description of file here.">
<polygon fill="none" stroke="black" points="2045,-1 2045,-31 2147,-31 2147,-1 2045,-1"/>
<text text-anchor="start" x="2053" y="-19" font-family="Helvetica,sans-Serif" font-size="10.00">buf4_mat_irrep_row</text>
<text text-anchor="middle" x="2096" y="-8" font-family="Helvetica,sans-Serif" font-size="10.00">_close.cc</text>
</a>
</g>
</g>
<!-- Node1&#45;&gt;Node21 -->
<g id="edge20" class="edge"><title>Node1&#45;&gt;Node21</title>
<path fill="none" stroke="midnightblue" d="M2679.34,-76.2707C2595.18,-73.8908 2353.72,-64.5195 2156,-32 2153.14,-31.5295 2150.21,-30.9914 2147.27,-30.4052"/>
<polygon fill="midnightblue" stroke="midnightblue" points="2679.39,-79.7733 2689.48,-76.5447 2679.58,-72.7759 2679.39,-79.7733"/>
</g>
<!-- Node22 -->
<g id="node22" class="node"><title>Node22</title>
<g id="a_node22"><a xlink:href="buf4__mat__irrep__row__init_8cc.html" target="_top" xlink:title="Enter brief description of file here.">
<polygon fill="none" stroke="black" points="2165,-1 2165,-31 2267,-31 2267,-1 2165,-1"/>
<text text-anchor="start" x="2173" y="-19" font-family="Helvetica,sans-Serif" font-size="10.00">buf4_mat_irrep_row</text>
<text text-anchor="middle" x="2216" y="-8" font-family="Helvetica,sans-Serif" font-size="10.00">_init.cc</text>
</a>
</g>
</g>
<!-- Node1&#45;&gt;Node22 -->
<g id="edge21" class="edge"><title>Node1&#45;&gt;Node22</title>
<path fill="none" stroke="midnightblue" d="M2678.95,-75.2952C2607.43,-71.0389 2425.73,-58.3422 2276,-32 2273.14,-31.4977 2270.22,-30.9345 2267.28,-30.3288"/>
<polygon fill="midnightblue" stroke="midnightblue" points="2678.89,-78.7974 2689.08,-75.8847 2679.3,-71.8092 2678.89,-78.7974"/>
</g>
<!-- Node23 -->
<g id="node23" class="node"><title>Node23</title>
<g id="a_node23"><a xlink:href="buf4__mat__irrep__row__rd_8cc.html" target="_top" xlink:title="Enter brief description of file here.">
<polygon fill="none" stroke="black" points="2285,-1 2285,-31 2387,-31 2387,-1 2285,-1"/>
<text text-anchor="start" x="2293" y="-19" font-family="Helvetica,sans-Serif" font-size="10.00">buf4_mat_irrep_row</text>
<text text-anchor="middle" x="2336" y="-8" font-family="Helvetica,sans-Serif" font-size="10.00">_rd.cc</text>
</a>
</g>
</g>
<!-- Node1&#45;&gt;Node23 -->
<g id="edge22" class="edge"><title>Node1&#45;&gt;Node23</title>
<path fill="none" stroke="midnightblue" d="M2679.26,-73.656C2622.83,-67.2833 2499.06,-52.2123 2396,-32 2393.16,-31.4421 2390.24,-30.835 2387.31,-30.1953"/>
<polygon fill="midnightblue" stroke="midnightblue" points="2678.98,-77.1465 2689.3,-74.7788 2679.75,-70.1898 2678.98,-77.1465"/>
</g>
<!-- Node24 -->
<g id="node24" class="node"><title>Node24</title>
<g id="a_node24"><a xlink:href="buf4__mat__irrep__row__wrt_8cc.html" target="_top" xlink:title="Enter brief description of file here.">
<polygon fill="none" stroke="black" points="2405,-1 2405,-31 2507,-31 2507,-1 2405,-1"/>
<text text-anchor="start" x="2413" y="-19" font-family="Helvetica,sans-Serif" font-size="10.00">buf4_mat_irrep_row</text>
<text text-anchor="middle" x="2456" y="-8" font-family="Helvetica,sans-Serif" font-size="10.00">_wrt.cc</text>
</a>
</g>
</g>
<!-- Node1&#45;&gt;Node24 -->
<g id="edge23" class="edge"><title>Node1&#45;&gt;Node24</title>
<path fill="none" stroke="midnightblue" d="M2679.31,-70.0511C2641.03,-61.3452 2573.61,-45.8812 2516,-32 2513.08,-31.2957 2510.08,-30.5661 2507.05,-29.825"/>
<polygon fill="midnightblue" stroke="midnightblue" points="2678.77,-73.5184 2689.3,-72.3204 2680.32,-66.6923 2678.77,-73.5184"/>
</g>
<!-- Node25 -->
<g id="node25" class="node"><title>Node25</title>
<g id="a_node25"><a xlink:href="buf4__mat__irrep__row__zero_8cc.html" target="_top" xlink:title="Enter brief description of file here.">
<polygon fill="none" stroke="black" points="2525,-1 2525,-31 2627,-31 2627,-1 2525,-1"/>
<text text-anchor="start" x="2533" y="-19" font-family="Helvetica,sans-Serif" font-size="10.00">buf4_mat_irrep_row</text>
<text text-anchor="middle" x="2576" y="-8" font-family="Helvetica,sans-Serif" font-size="10.00">_zero.cc</text>
</a>
</g>
</g>
<!-- Node1&#45;&gt;Node25 -->
<g id="edge24" class="edge"><title>Node1&#45;&gt;Node25</title>
<path fill="none" stroke="midnightblue" d="M2681.43,-64.2093C2659.67,-54.4654 2629.74,-41.0616 2607.32,-31.0253"/>
<polygon fill="midnightblue" stroke="midnightblue" points="2680.24,-67.5112 2690.8,-68.4035 2683.1,-61.1224 2680.24,-67.5112"/>
</g>
<!-- Node26 -->
<g id="node26" class="node"><title>Node26</title>
<g id="a_node26"><a xlink:href="buf4__mat__irrep__shift13_8cc.html" target="_top" xlink:title="Enter brief description of file here.">
<polygon fill="none" stroke="black" points="2645.5,-6.5 2645.5,-25.5 2774.5,-25.5 2774.5,-6.5 2645.5,-6.5"/>
<text text-anchor="middle" x="2710" y="-13.5" font-family="Helvetica,sans-Serif" font-size="10.00">buf4_mat_irrep_shift13.cc</text>
</a>
</g>
</g>
<!-- Node1&#45;&gt;Node26 -->
<g id="edge25" class="edge"><title>Node1&#45;&gt;Node26</title>
<path fill="none" stroke="midnightblue" d="M2710,-58.1595C2710,-47.2482 2710,-34.04 2710,-25.5806"/>
<polygon fill="midnightblue" stroke="midnightblue" points="2706.5,-58.4034 2710,-68.4035 2713.5,-58.4035 2706.5,-58.4034"/>
</g>
<!-- Node27 -->
<g id="node27" class="node"><title>Node27</title>
<g id="a_node27"><a xlink:href="buf4__mat__irrep__shift31_8cc.html" target="_top" xlink:title="Enter brief description of file here.">
<polygon fill="none" stroke="black" points="2792.5,-6.5 2792.5,-25.5 2921.5,-25.5 2921.5,-6.5 2792.5,-6.5"/>
<text text-anchor="middle" x="2857" y="-13.5" font-family="Helvetica,sans-Serif" font-size="10.00">buf4_mat_irrep_shift31.cc</text>
</a>
</g>
</g>
<!-- Node1&#45;&gt;Node27 -->
<g id="edge26" class="edge"><title>Node1&#45;&gt;Node27</title>
<path fill="none" stroke="midnightblue" d="M2740.23,-64.6623C2768.76,-53.0181 2810.79,-35.8605 2835.88,-25.6205"/>
<polygon fill="midnightblue" stroke="midnightblue" points="2738.69,-61.5112 2730.75,-68.5307 2741.33,-67.9922 2738.69,-61.5112"/>
</g>
<!-- Node28 -->
<g id="node28" class="node"><title>Node28</title>
<g id="a_node28"><a xlink:href="buf4__mat__irrep__wrt_8cc.html" target="_top" xlink:title="Enter brief description of file here.">
<polygon fill="none" stroke="black" points="2939.5,-6.5 2939.5,-25.5 3052.5,-25.5 3052.5,-6.5 2939.5,-6.5"/>
<text text-anchor="middle" x="2996" y="-13.5" font-family="Helvetica,sans-Serif" font-size="10.00">buf4_mat_irrep_wrt.cc</text>
</a>
</g>
</g>
<!-- Node1&#45;&gt;Node28 -->
<g id="edge27" class="edge"><title>Node1&#45;&gt;Node28</title>
<path fill="none" stroke="midnightblue" d="M2740.65,-70.9488C2783.2,-62.499 2862.55,-46.5613 2930,-32 2939.42,-29.9667 2949.57,-27.697 2959.03,-25.5509"/>
<polygon fill="midnightblue" stroke="midnightblue" points="2739.78,-67.5525 2730.66,-72.9304 2741.15,-74.4188 2739.78,-67.5525"/>
</g>
<!-- Node29 -->
<g id="node29" class="node"><title>Node29</title>
<g id="a_node29"><a xlink:href="buf4__mat__irrep__wrt__block_8cc.html" target="_top" xlink:title="Enter brief description of file here.">
<polygon fill="none" stroke="black" points="3071,-1 3071,-31 3171,-31 3171,-1 3071,-1"/>
<text text-anchor="start" x="3079" y="-19" font-family="Helvetica,sans-Serif" font-size="10.00">buf4_mat_irrep_wrt</text>
<text text-anchor="middle" x="3121" y="-8" font-family="Helvetica,sans-Serif" font-size="10.00">_block.cc</text>
</a>
</g>
</g>
<!-- Node1&#45;&gt;Node29 -->
<g id="edge28" class="edge"><title>Node1&#45;&gt;Node29</title>
<path fill="none" stroke="midnightblue" d="M2740.87,-74.2728C2802.21,-68.5821 2943.67,-54.1074 3061,-32 3064.17,-31.4035 3067.41,-30.7409 3070.68,-30.0357"/>
<polygon fill="midnightblue" stroke="midnightblue" points="2740.34,-70.8058 2730.71,-75.2026 2740.98,-77.7767 2740.34,-70.8058"/>
</g>
<!-- Node30 -->
<g id="node30" class="node"><title>Node30</title>
<g id="a_node30"><a xlink:href="buf4__print_8cc.html" target="_top" xlink:title="Enter brief description of file here.">
<polygon fill="none" stroke="black" points="3189.5,-6.5 3189.5,-25.5 3262.5,-25.5 3262.5,-6.5 3189.5,-6.5"/>
<text text-anchor="middle" x="3226" y="-13.5" font-family="Helvetica,sans-Serif" font-size="10.00">buf4_print.cc</text>
</a>
</g>
</g>
<!-- Node1&#45;&gt;Node30 -->
<g id="edge29" class="edge"><title>Node1&#45;&gt;Node30</title>
<path fill="none" stroke="midnightblue" d="M2741.13,-76.3754C2816.98,-74.3456 3017.08,-65.9306 3180,-32 3187.57,-30.4243 3195.63,-28.0439 3202.87,-25.6406"/>
<polygon fill="midnightblue" stroke="midnightblue" points="2740.77,-72.8832 2730.86,-76.6308 2740.94,-79.881 2740.77,-72.8832"/>
</g>
<!-- Node31 -->
<g id="node31" class="node"><title>Node31</title>
<g id="a_node31"><a xlink:href="buf4__scm_8cc.html" target="_top" xlink:title="Enter brief description of file here.">
<polygon fill="none" stroke="black" points="3280.5,-6.5 3280.5,-25.5 3353.5,-25.5 3353.5,-6.5 3280.5,-6.5"/>
<text text-anchor="middle" x="3317" y="-13.5" font-family="Helvetica,sans-Serif" font-size="10.00">buf4_scm.cc</text>
</a>
</g>
</g>
<!-- Node1&#45;&gt;Node31 -->
<g id="edge30" class="edge"><title>Node1&#45;&gt;Node31</title>
<path fill="none" stroke="midnightblue" d="M2740.63,-77.0563C2825.69,-76.6756 3071.63,-71.923 3271,-32 3278.74,-30.4497 3287,-28.0155 3294.35,-25.5555"/>
<polygon fill="midnightblue" stroke="midnightblue" points="2740.61,-73.5563 2730.62,-77.0836 2740.63,-80.5563 2740.61,-73.5563"/>
</g>
<!-- Node32 -->
<g id="node32" class="node"><title>Node32</title>
<g id="a_node32"><a xlink:href="buf4__scmcopy_8cc.html" target="_top" xlink:title="Enter brief description of file here.">
<polygon fill="none" stroke="black" points="3372,-6.5 3372,-25.5 3466,-25.5 3466,-6.5 3372,-6.5"/>
<text text-anchor="middle" x="3419" y="-13.5" font-family="Helvetica,sans-Serif" font-size="10.00">buf4_scmcopy.cc</text>
</a>
</g>
</g>
<!-- Node1&#45;&gt;Node32 -->
<g id="edge31" class="edge"><title>Node1&#45;&gt;Node32</title>
<path fill="none" stroke="midnightblue" d="M2740.95,-76.925C2834.98,-76.2576 3125.34,-70.9486 3362,-32 3371.49,-30.438 3381.7,-28.0007 3390.81,-25.5414"/>
<polygon fill="midnightblue" stroke="midnightblue" points="2740.7,-73.4263 2730.72,-76.9843 2740.74,-80.4262 2740.7,-73.4263"/>
</g>
<!-- Node33 -->
<g id="node33" class="node"><title>Node33</title>
<g id="a_node33"><a xlink:href="buf4__sort_8cc.html" target="_top" xlink:title="Enter brief description of file here.">
<polygon fill="none" stroke="black" points="3484.5,-6.5 3484.5,-25.5 3555.5,-25.5 3555.5,-6.5 3484.5,-6.5"/>
<text text-anchor="middle" x="3520" y="-13.5" font-family="Helvetica,sans-Serif" font-size="10.00">buf4_sort.cc</text>
</a>
</g>
</g>
<!-- Node1&#45;&gt;Node33 -->
<g id="edge32" class="edge"><title>Node1&#45;&gt;Node33</title>
<path fill="none" stroke="midnightblue" d="M2741.17,-76.2585C2866.1,-73.1184 3330.75,-59.7802 3475,-32 3482.76,-30.505 3491.03,-28.0218 3498.34,-25.5019"/>
<polygon fill="midnightblue" stroke="midnightblue" points="2740.72,-72.7686 2730.81,-76.5151 2740.89,-79.7665 2740.72,-72.7686"/>
</g>
<!-- Node34 -->
<g id="node34" class="node"><title>Node34</title>
<g id="a_node34"><a xlink:href="buf4__sort__axpy_8cc.html" target="_top" xlink:title="Enter brief description of file here.">
<polygon fill="none" stroke="black" points="3573.5,-6.5 3573.5,-25.5 3670.5,-25.5 3670.5,-6.5 3573.5,-6.5"/>
<text text-anchor="middle" x="3622" y="-13.5" font-family="Helvetica,sans-Serif" font-size="10.00">buf4_sort_axpy.cc</text>
</a>
</g>
</g>
<!-- Node1&#45;&gt;Node34 -->
<g id="edge33" class="edge"><title>Node1&#45;&gt;Node34</title>
<path fill="none" stroke="midnightblue" d="M2740.79,-76.2052C2873.89,-72.6422 3400.4,-57.2045 3564,-32 3573.77,-30.4955 3584.27,-28.042 3593.62,-25.5509"/>
<polygon fill="midnightblue" stroke="midnightblue" points="2740.42,-72.7137 2730.52,-76.4775 2740.6,-79.7112 2740.42,-72.7137"/>
</g>
<!-- Node35 -->
<g id="node35" class="node"><title>Node35</title>
<g id="a_node35"><a xlink:href="buf4__sort__ooc_8cc.html" target="_top" xlink:title="Enter brief description of file here.">
<polygon fill="none" stroke="black" points="3689,-6.5 3689,-25.5 3781,-25.5 3781,-6.5 3689,-6.5"/>
<text text-anchor="middle" x="3735" y="-13.5" font-family="Helvetica,sans-Serif" font-size="10.00">buf4_sort_ooc.cc</text>
</a>
</g>
</g>
<!-- Node1&#45;&gt;Node35 -->
<g id="edge34" class="edge"><title>Node1&#45;&gt;Node35</title>
<path fill="none" stroke="midnightblue" d="M2741.16,-76.4553C2885.72,-73.7903 3491.87,-61.0591 3679,-32 3688.55,-30.5173 3698.81,-28.0373 3707.91,-25.5164"/>
<polygon fill="midnightblue" stroke="midnightblue" points="2740.75,-72.962 2730.82,-76.6432 2740.88,-79.9609 2740.75,-72.962"/>
</g>
<!-- Node36 -->
<g id="node36" class="node"><title>Node36</title>
<g id="a_node36"><a xlink:href="buf4__symm_8cc.html" target="_top" xlink:title="Enter brief description of file here.">
<polygon fill="none" stroke="black" points="3799.5,-6.5 3799.5,-25.5 3880.5,-25.5 3880.5,-6.5 3799.5,-6.5"/>
<text text-anchor="middle" x="3840" y="-13.5" font-family="Helvetica,sans-Serif" font-size="10.00">buf4_symm.cc</text>
</a>
</g>
</g>
<!-- Node1&#45;&gt;Node36 -->
<g id="edge35" class="edge"><title>Node1&#45;&gt;Node36</title>
<path fill="none" stroke="midnightblue" d="M2740.74,-76.7543C2894.41,-75.3685 3580.13,-67.2808 3790,-32 3798.58,-30.5577 3807.76,-28.0877 3815.87,-25.5637"/>
<polygon fill="midnightblue" stroke="midnightblue" points="2740.58,-73.2555 2730.61,-76.8428 2740.64,-80.2552 2740.58,-73.2555"/>
</g>
<!-- Node37 -->
<g id="node37" class="node"><title>Node37</title>
<g id="a_node37"><a xlink:href="buf4__symm2_8cc.html" target="_top" xlink:title="Enter brief description of file here.">
<polygon fill="none" stroke="black" points="3899,-6.5 3899,-25.5 3985,-25.5 3985,-6.5 3899,-6.5"/>
<text text-anchor="middle" x="3942" y="-13.5" font-family="Helvetica,sans-Serif" font-size="10.00">buf4_symm2.cc</text>
</a>
</g>
</g>
<!-- Node1&#45;&gt;Node37 -->
<g id="edge36" class="edge"><title>Node1&#45;&gt;Node37</title>
<path fill="none" stroke="midnightblue" d="M2740.93,-76.8131C2903.28,-75.681 3658.35,-68.5078 3889,-32 3898.07,-30.5648 3907.79,-28.0966 3916.4,-25.572"/>
<polygon fill="midnightblue" stroke="midnightblue" points="2740.66,-73.3147 2730.69,-76.8818 2740.71,-80.3145 2740.66,-73.3147"/>
</g>
<!-- Node38 -->
<g id="node38" class="node"><title>Node38</title>
<g id="a_node38"><a xlink:href="cc3__sigma__RHF_8cc.html" target="_top" xlink:title="Enter brief description of file here.">
<polygon fill="none" stroke="black" points="4003,-6.5 4003,-25.5 4107,-25.5 4107,-6.5 4003,-6.5"/>
<text text-anchor="middle" x="4055" y="-13.5" font-family="Helvetica,sans-Serif" font-size="10.00">cc3_sigma_RHF.cc</text>
</a>
</g>
</g>
<!-- Node1&#45;&gt;Node38 -->
<g id="edge37" class="edge"><title>Node1&#45;&gt;Node38</title>
<path fill="none" stroke="midnightblue" d="M2740.65,-76.7828C2910.8,-75.4471 3740.67,-67.2028 3994,-32 4004.37,-30.559 4015.54,-28.0894 4025.45,-25.5652"/>
<polygon fill="midnightblue" stroke="midnightblue" points="2740.6,-73.283 2730.63,-76.8594 2740.65,-80.2828 2740.6,-73.283"/>
</g>
<!-- Node39 -->
<g id="node39" class="node"><title>Node39</title>
<g id="a_node39"><a xlink:href="cc3__sigma__RHF__ic_8cc.html" target="_top" xlink:title="Enter brief description of file here.">
<polygon fill="none" stroke="black" points="4125,-6.5 4125,-25.5 4241,-25.5 4241,-6.5 4125,-6.5"/>
<text text-anchor="middle" x="4183" y="-13.5" font-family="Helvetica,sans-Serif" font-size="10.00">cc3_sigma_RHF_ic.cc</text>
</a>
</g>
</g>
<!-- Node1&#45;&gt;Node39 -->
<g id="edge38" class="edge"><title>Node1&#45;&gt;Node39</title>
<path fill="none" stroke="midnightblue" d="M2740.67,-76.804C2920.2,-75.5378 3836.72,-67.4112 4116,-32 4127.35,-30.5606 4139.61,-28.0914 4150.5,-25.5671"/>
<polygon fill="midnightblue" stroke="midnightblue" points="2740.57,-73.3045 2730.6,-76.8732 2740.62,-80.3043 2740.57,-73.3045"/>
</g>
<!-- Node40 -->
<g id="node40" class="node"><title>Node40</title>
<g id="a_node40"><a xlink:href="cc3__sigma__UHF_8cc.html" target="_top" xlink:title="Enter brief description of file here.">
<polygon fill="none" stroke="black" points="4259,-6.5 4259,-25.5 4363,-25.5 4363,-6.5 4259,-6.5"/>
<text text-anchor="middle" x="4311" y="-13.5" font-family="Helvetica,sans-Serif" font-size="10.00">cc3_sigma_UHF.cc</text>
</a>
</g>
</g>
<!-- Node1&#45;&gt;Node40 -->
<g id="edge39" class="edge"><title>Node1&#45;&gt;Node40</title>
<path fill="none" stroke="midnightblue" d="M2740.87,-76.9891C2930.82,-76.7878 3943.05,-73.7433 4250,-32 4260.48,-30.5745 4271.78,-28.0757 4281.77,-25.5216"/>
<polygon fill="midnightblue" stroke="midnightblue" points="2740.74,-73.4891 2730.75,-76.9979 2740.75,-80.4891 2740.74,-73.4891"/>
</g>
<!-- Node41 -->
<g id="node41" class="node"><title>Node41</title>
<g id="a_node41"><a xlink:href="libdpd_2close_8cc.html" target="_top" xlink:title="Enter brief description of file here.">
<polygon fill="none" stroke="black" points="4381.5,-6.5 4381.5,-25.5 4434.5,-25.5 4434.5,-6.5 4381.5,-6.5"/>
<text text-anchor="middle" x="4408" y="-13.5" font-family="Helvetica,sans-Serif" font-size="10.00">close.cc</text>
</a>
</g>
</g>
<!-- Node1&#45;&gt;Node41 -->
<g id="edge40" class="edge"><title>Node1&#45;&gt;Node41</title>
<path fill="none" stroke="midnightblue" d="M2740.9,-76.8442C2954.41,-75.6784 4206.84,-67.3623 4372,-32 4378.49,-30.6107 4385.28,-28.087 4391.2,-25.5009"/>
<polygon fill="midnightblue" stroke="midnightblue" points="2740.7,-73.3452 2730.72,-76.8987 2740.74,-80.3451 2740.7,-73.3452"/>
</g>
<!-- Node42 -->
<g id="node42" class="node"><title>Node42</title>
<g id="a_node42"><a xlink:href="contract222_8cc.html" target="_top" xlink:title="Enter brief description of file here.">
<polygon fill="none" stroke="black" points="4452.5,-6.5 4452.5,-25.5 4533.5,-25.5 4533.5,-6.5 4452.5,-6.5"/>
<text text-anchor="middle" x="4493" y="-13.5" font-family="Helvetica,sans-Serif" font-size="10.00">contract222.cc</text>
</a>
</g>
</g>
<!-- Node1&#45;&gt;Node42 -->
<g id="edge41" class="edge"><title>Node1&#45;&gt;Node42</title>
<path fill="none" stroke="midnightblue" d="M2740.82,-76.6923C2959.15,-74.4478 4268.74,-59.8905 4443,-32 4451.68,-30.6107 4460.96,-28.1206 4469.14,-25.5635"/>
<polygon fill="midnightblue" stroke="midnightblue" points="2740.67,-73.1936 2730.7,-76.7955 2740.74,-80.1932 2740.67,-73.1936"/>
</g>
<!-- Node43 -->
<g id="node43" class="node"><title>Node43</title>
<g id="a_node43"><a xlink:href="contract244_8cc.html" target="_top" xlink:title="Enter brief description of file here.">
<polygon fill="none" stroke="black" points="4551.5,-6.5 4551.5,-25.5 4632.5,-25.5 4632.5,-6.5 4551.5,-6.5"/>
<text text-anchor="middle" x="4592" y="-13.5" font-family="Helvetica,sans-Serif" font-size="10.00">contract244.cc</text>
</a>
</g>
</g>
<!-- Node1&#45;&gt;Node43 -->
<g id="edge42" class="edge"><title>Node1&#45;&gt;Node43</title>
<path fill="none" stroke="midnightblue" d="M2740.8,-76.7387C2966.19,-74.7621 4357.3,-61.4297 4542,-32 4550.68,-30.6167 4559.96,-28.1282 4568.14,-25.5705"/>
<polygon fill="midnightblue" stroke="midnightblue" points="2740.65,-73.2399 2730.68,-76.8267 2740.71,-80.2396 2740.65,-73.2399"/>
</g>
<!-- Node44 -->
<g id="node44" class="node"><title>Node44</title>
<g id="a_node44"><a xlink:href="contract422_8cc.html" target="_top" xlink:title="Enter brief description of file here.">
<polygon fill="none" stroke="black" points="4650.5,-6.5 4650.5,-25.5 4731.5,-25.5 4731.5,-6.5 4650.5,-6.5"/>
<text text-anchor="middle" x="4691" y="-13.5" font-family="Helvetica,sans-Serif" font-size="10.00">contract422.cc</text>
</a>
</g>
</g>
<!-- Node1&#45;&gt;Node44 -->
<g id="edge43" class="edge"><title>Node1&#45;&gt;Node44</title>
<path fill="none" stroke="midnightblue" d="M2740.65,-76.7815C2972.43,-75.0637 4445.8,-62.9766 4641,-32 4649.68,-30.6222 4658.96,-28.135 4667.14,-25.5769"/>
<polygon fill="midnightblue" stroke="midnightblue" points="2740.53,-73.2821 2730.56,-76.8555 2740.59,-80.2819 2740.53,-73.2821"/>
</g>
<!-- Node45 -->
<g id="node45" class="node"><title>Node45</title>
<g id="a_node45"><a xlink:href="contract424_8cc.html" target="_top" xlink:title="Enter brief description of file here.">
<polygon fill="none" stroke="black" points="4749.5,-6.5 4749.5,-25.5 4830.5,-25.5 4830.5,-6.5 4749.5,-6.5"/>
<text text-anchor="middle" x="4790" y="-13.5" font-family="Helvetica,sans-Serif" font-size="10.00">contract424.cc</text>
</a>
</g>
</g>
<!-- Node1&#45;&gt;Node45 -->
<g id="edge44" class="edge"><title>Node1&#45;&gt;Node45</title>
<path fill="none" stroke="midnightblue" d="M2740.73,-76.8183C2979.49,-75.3409 4534.35,-64.5143 4740,-32 4748.77,-30.613 4758.16,-28.0897 4766.4,-25.5034"/>
<polygon fill="midnightblue" stroke="midnightblue" points="2740.64,-73.3187 2730.66,-76.8798 2740.68,-80.3185 2740.64,-73.3187"/>
</g>
<!-- Node46 -->
<g id="node46" class="node"><title>Node46</title>
<g id="a_node46"><a xlink:href="contract442_8cc.html" target="_top" xlink:title="Enter brief description of file here.">
<polygon fill="none" stroke="black" points="4848.5,-6.5 4848.5,-25.5 4929.5,-25.5 4929.5,-6.5 4848.5,-6.5"/>
<text text-anchor="middle" x="4889" y="-13.5" font-family="Helvetica,sans-Serif" font-size="10.00">contract442.cc</text>
</a>
</g>
</g>
<!-- Node1&#45;&gt;Node46 -->
<g id="edge45" class="edge"><title>Node1&#45;&gt;Node46</title>
<path fill="none" stroke="midnightblue" d="M2740.7,-76.8524C2985.9,-75.6078 4622.87,-66.0581 4839,-32 4847.77,-30.6175 4857.16,-28.0953 4865.4,-25.5086"/>
<polygon fill="midnightblue" stroke="midnightblue" points="2740.68,-73.3524 2730.69,-76.9025 2740.71,-80.3523 2740.68,-73.3524"/>
</g>
<!-- Node47 -->
<g id="node47" class="node"><title>Node47</title>
<g id="a_node47"><a xlink:href="contract444_8cc.html" target="_top" xlink:title="Enter brief description of file here.">
<polygon fill="none" stroke="black" points="4947.5,-6.5 4947.5,-25.5 5028.5,-25.5 5028.5,-6.5 4947.5,-6.5"/>
<text text-anchor="middle" x="4988" y="-13.5" font-family="Helvetica,sans-Serif" font-size="10.00">contract444.cc</text>
</a>
</g>
</g>
<!-- Node1&#45;&gt;Node47 -->
<g id="edge46" class="edge"><title>Node1&#45;&gt;Node47</title>
<path fill="none" stroke="midnightblue" d="M2740.93,-76.8824C2993.38,-75.8559 4711.45,-67.5905 4938,-32 4946.77,-30.6216 4956.16,-28.1004 4964.4,-25.5133"/>
<polygon fill="midnightblue" stroke="midnightblue" points="2740.64,-73.3834 2730.66,-76.9234 2740.67,-80.3833 2740.64,-73.3834"/>
</g>
<!-- Node48 -->
<g id="node48" class="node"><title>Node48</title>
<g id="a_node48"><a xlink:href="contract444__df_8cc.html" target="_top" xlink:title="Enter brief description of file here.">
<polygon fill="none" stroke="black" points="5046.5,-6.5 5046.5,-25.5 5141.5,-25.5 5141.5,-6.5 5046.5,-6.5"/>
<text text-anchor="middle" x="5094" y="-13.5" font-family="Helvetica,sans-Serif" font-size="10.00">contract444_df.cc</text>
</a>
</g>
</g>
<!-- Node1&#45;&gt;Node48 -->
<g id="edge47" class="edge"><title>Node1&#45;&gt;Node48</title>
<path fill="none" stroke="midnightblue" d="M2740.69,-76.8487C2998.5,-75.5201 4799.29,-65.0939 5037,-32 5046.93,-30.6172 5057.61,-28.095 5067.01,-25.5083"/>
<polygon fill="midnightblue" stroke="midnightblue" points="2740.53,-73.3494 2730.55,-76.9004 2740.57,-80.3493 2740.53,-73.3494"/>
</g>
<!-- Node49 -->
<g id="node49" class="node"><title>Node49</title>
<g id="a_node49"><a xlink:href="dot13_8cc.html" target="_top" xlink:title="Enter brief description of file here.">
<polygon fill="none" stroke="black" points="5160,-6.5 5160,-25.5 5214,-25.5 5214,-6.5 5160,-6.5"/>
<text text-anchor="middle" x="5187" y="-13.5" font-family="Helvetica,sans-Serif" font-size="10.00">dot13.cc</text>
</a>
</g>
</g>
<!-- Node1&#45;&gt;Node49 -->
<g id="edge48" class="edge"><title>Node1&#45;&gt;Node49</title>
<path fill="none" stroke="midnightblue" d="M2740.58,-77.1124C3005.14,-77.9969 4902.95,-82.5432 5150,-32 5156.65,-30.6385 5163.64,-28.1212 5169.72,-25.5326"/>
<polygon fill="midnightblue" stroke="midnightblue" points="2740.54,-73.6124 2730.53,-77.0779 2740.52,-80.6123 2740.54,-73.6124"/>
</g>
<!-- Node50 -->
<g id="node50" class="node"><title>Node50</title>
<g id="a_node50"><a xlink:href="dot14_8cc.html" target="_top" xlink:title="Enter brief description of file here.">
<polygon fill="none" stroke="black" points="5232,-6.5 5232,-25.5 5286,-25.5 5286,-6.5 5232,-6.5"/>
<text text-anchor="middle" x="5259" y="-13.5" font-family="Helvetica,sans-Serif" font-size="10.00">dot14.cc</text>
</a>
</g>
</g>
<!-- Node1&#45;&gt;Node50 -->
<g id="edge49" class="edge"><title>Node1&#45;&gt;Node50</title>
<path fill="none" stroke="midnightblue" d="M2740.75,-76.7795C3019.04,-74.7436 5095.51,-58.688 5223,-32 5229.49,-30.6405 5236.29,-28.1237 5242.21,-25.5348"/>
<polygon fill="midnightblue" stroke="midnightblue" points="2740.54,-73.2809 2730.57,-76.8536 2740.59,-80.2807 2740.54,-73.2809"/>
</g>
</g>
</svg>
        <g id="navigator" transform="translate(0 0)" fill="#404254">
                <rect fill="#f2f5e9" fill-opacity="0.5" stroke="#606060" stroke-width=".5" x="0" y="0" width="60" height="60"/>
                <use id="zoomplus" xlink:href="#zoomPlus" x="17" y="9" onmousedown="handleZoom(evt,'in')"/>
                <use id="zoomminus" xlink:href="#zoomMin" x="42" y="9" onmousedown="handleZoom(evt,'out')"/>
                <use id="reset" xlink:href="#resetDef" x="30" y="36" onmousedown="handleReset()"/>
                <g id="arrowUp" xlink:href="#dirArrow" transform="translate(30 24)" onmousedown="handlePan(0,-1)">
                  <use xlink:href="#rim" fill="#404040">
                        <set attributeName="fill" to="#808080" begin="arrowUp.mouseover" end="arrowUp.mouseout"/>
                  </use>
                  <path fill="none" stroke="white" stroke-width="1.5" d="M0,-3.0v7 M-2.5,-0.5L0,-3.0L2.5,-0.5"/>
                </g>
                <g id="arrowRight" xlink:href="#dirArrow" transform="rotate(90) translate(36 -43)" onmousedown="handlePan(1,0)">
                  <use xlink:href="#rim" fill="#404040">
                        <set attributeName="fill" to="#808080" begin="arrowRight.mouseover" end="arrowRight.mouseout"/>
                  </use>
                  <path fill="none" stroke="white" stroke-width="1.5" d="M0,-3.0v7 M-2.5,-0.5L0,-3.0L2.5,-0.5"/>
                </g>
                <g id="arrowDown" xlink:href="#dirArrow" transform="rotate(180) translate(-30 -48)" onmousedown="handlePan(0,1)">
                  <use xlink:href="#rim" fill="#404040">
                        <set attributeName="fill" to="#808080" begin="arrowDown.mouseover" end="arrowDown.mouseout"/>
                  </use>
                  <path fill="none" stroke="white" stroke-width="1.5" d="M0,-3.0v7 M-2.5,-0.5L0,-3.0L2.5,-0.5"/>
                </g>
                <g id="arrowLeft" xlink:href="#dirArrow" transform="rotate(270) translate(-36 17)" onmousedown="handlePan(-1,0)">
                  <use xlink:href="#rim" fill="#404040">
                        <set attributeName="fill" to="#808080" begin="arrowLeft.mouseover" end="arrowLeft.mouseout"/>
                  </use>
                  <path fill="none" stroke="white" stroke-width="1.5" d="M0,-3.0v7 M-2.5,-0.5L0,-3.0L2.5,-0.5"/>
                </g>
        </g>
        <svg viewBox="0 0 15 15" width="100%" height="30px" preserveAspectRatio="xMaxYMin meet">
         <g id="arrow_out" transform="scale(0.3 0.3)">
          <a xlink:href="lib_2libdpd_2dpd_8h__dep__incl_org.svg" target="_base">
           <rect id="button" ry="5" rx="5" y="6" x="6" height="38" width="38"
                fill="#f2f5e9" fill-opacity="0.5" stroke="#606060" stroke-width="1.0"/>
           <path id="arrow"
             d="M 11.500037,31.436501 C 11.940474,20.09759 22.043105,11.32322 32.158766,21.979434 L 37.068811,17.246167 C 37.068811,17.246167 37.088388,32 37.088388,32 L 22.160133,31.978069 C 22.160133,31.978069 26.997745,27.140456 26.997745,27.140456 C 18.528582,18.264221 13.291696,25.230495 11.500037,31.436501 z"
             style="fill:#404040;"/>
          </a>
         </g>
        </svg>
</svg>
