<?xml version="1.0" encoding="UTF-8" standalone="no"?>
<!DOCTYPE svg PUBLIC "-//W3C//DTD SVG 1.1//EN"
 "http://www.w3.org/Graphics/SVG/1.1/DTD/svg11.dtd">
<!-- Generated by graphviz version 2.30.1 (20140110.0959)
 -->
<!-- Title: init.cc Pages: 1 -->
<svg width="634pt" height="140pt"
 viewBox="0.00 0.00 634.00 140.00" xmlns="http://www.w3.org/2000/svg" xmlns:xlink="http://www.w3.org/1999/xlink">
<g id="graph0" class="graph" transform="scale(1 1) rotate(0) translate(4 136)">
<title>init.cc</title>
<!-- Node1 -->
<g id="node1" class="node"><title>Node1</title>
<polygon fill="#bfbfbf" stroke="black" points="218.5,-112.5 218.5,-131.5 261.5,-131.5 261.5,-112.5 218.5,-112.5"/>
<text text-anchor="middle" x="240" y="-119.5" font-family="Helvetica,sans-Serif" font-size="10.00">init.cc</text>
</g>
<!-- Node2 -->
<g id="node2" class="node"><title>Node2</title>
<polygon fill="none" stroke="#bfbfbf" points="-0.5,-56.5 -0.5,-75.5 42.5,-75.5 42.5,-56.5 -0.5,-56.5"/>
<text text-anchor="middle" x="21" y="-63.5" font-family="Helvetica,sans-Serif" font-size="10.00">cstdio</text>
</g>
<!-- Node1&#45;&gt;Node2 -->
<g id="edge1" class="edge"><title>Node1&#45;&gt;Node2</title>
<path fill="none" stroke="midnightblue" d="M218.356,-116.274C184.779,-108.851 117.918,-93.7068 52.2616,-76.2329"/>
<polygon fill="midnightblue" stroke="midnightblue" points="53.1528,-72.8483 42.5875,-73.6385 51.3396,-79.6094 53.1528,-72.8483"/>
</g>
<!-- Node3 -->
<g id="node3" class="node"><title>Node3</title>
<polygon fill="none" stroke="#bfbfbf" points="60.5,-56.5 60.5,-75.5 105.5,-75.5 105.5,-56.5 60.5,-56.5"/>
<text text-anchor="middle" x="83" y="-63.5" font-family="Helvetica,sans-Serif" font-size="10.00">cstdlib</text>
</g>
<!-- Node1&#45;&gt;Node3 -->
<g id="edge2" class="edge"><title>Node1&#45;&gt;Node3</title>
<path fill="none" stroke="midnightblue" d="M218.499,-113.605C191.865,-104.444 146.236,-88.7501 115.364,-78.1317"/>
<polygon fill="midnightblue" stroke="midnightblue" points="116.104,-74.6849 105.509,-74.742 113.827,-81.3043 116.104,-74.6849"/>
</g>
<!-- Node4 -->
<g id="node4" class="node"><title>Node4</title>
<g id="a_node4"><a xlink:href="psifiles_8h_source.html" target="_top" xlink:title="psifiles.h">
<polygon fill="none" stroke="black" points="124,-56.5 124,-75.5 180,-75.5 180,-56.5 124,-56.5"/>
<text text-anchor="middle" x="152" y="-63.5" font-family="Helvetica,sans-Serif" font-size="10.00">psifiles.h</text>
</a>
</g>
</g>
<!-- Node1&#45;&gt;Node4 -->
<g id="edge3" class="edge"><title>Node1&#45;&gt;Node4</title>
<path fill="none" stroke="midnightblue" d="M225.861,-112.324C212.134,-103.9 191.064,-90.9709 174.936,-81.0741"/>
<polygon fill="midnightblue" stroke="midnightblue" points="176.457,-77.9016 166.104,-75.6545 172.796,-83.8678 176.457,-77.9016"/>
</g>
<!-- Node5 -->
<g id="node5" class="node"><title>Node5</title>
<g id="a_node5"><a xlink:href="psio_8hpp_source.html" target="_top" xlink:title="libpsio/psio.hpp">
<polygon fill="none" stroke="black" points="198,-56.5 198,-75.5 282,-75.5 282,-56.5 198,-56.5"/>
<text text-anchor="middle" x="240" y="-63.5" font-family="Helvetica,sans-Serif" font-size="10.00">libpsio/psio.hpp</text>
</a>
</g>
</g>
<!-- Node1&#45;&gt;Node5 -->
<g id="edge4" class="edge"><title>Node1&#45;&gt;Node5</title>
<path fill="none" stroke="midnightblue" d="M240,-112.083C240,-105.006 240,-94.8611 240,-85.9865"/>
<polygon fill="midnightblue" stroke="midnightblue" points="243.5,-85.751 240,-75.7511 236.5,-85.7511 243.5,-85.751"/>
</g>
<!-- Node11 -->
<g id="node11" class="node"><title>Node11</title>
<g id="a_node11"><a xlink:href="chkpt_8h_source.html" target="_top" xlink:title="libchkpt/chkpt.h">
<polygon fill="none" stroke="black" points="300,-56.5 300,-75.5 386,-75.5 386,-56.5 300,-56.5"/>
<text text-anchor="middle" x="343" y="-63.5" font-family="Helvetica,sans-Serif" font-size="10.00">libchkpt/chkpt.h</text>
</a>
</g>
</g>
<!-- Node1&#45;&gt;Node11 -->
<g id="edge10" class="edge"><title>Node1&#45;&gt;Node11</title>
<path fill="none" stroke="midnightblue" d="M256.549,-112.324C272.992,-103.703 298.435,-90.3643 317.468,-80.3855"/>
<polygon fill="midnightblue" stroke="midnightblue" points="319.261,-83.3977 326.492,-75.6545 316.011,-77.198 319.261,-83.3977"/>
</g>
<!-- Node12 -->
<g id="node12" class="node"><title>Node12</title>
<g id="a_node12"><a xlink:href="chkpt_8hpp_source.html" target="_top" xlink:title="libchkpt/chkpt.hpp">
<polygon fill="none" stroke="black" points="404,-56.5 404,-75.5 500,-75.5 500,-56.5 404,-56.5"/>
<text text-anchor="middle" x="452" y="-63.5" font-family="Helvetica,sans-Serif" font-size="10.00">libchkpt/chkpt.hpp</text>
</a>
</g>
</g>
<!-- Node1&#45;&gt;Node12 -->
<g id="edge11" class="edge"><title>Node1&#45;&gt;Node12</title>
<path fill="none" stroke="midnightblue" d="M261.889,-115.424C296.411,-106.631 364.153,-89.3761 408.746,-78.0174"/>
<polygon fill="midnightblue" stroke="midnightblue" points="409.616,-81.4077 418.443,-75.5476 407.888,-74.6243 409.616,-81.4077"/>
</g>
<!-- Node15 -->
<g id="node15" class="node"><title>Node15</title>
<polygon fill="none" stroke="#bfbfbf" points="518,-56.5 518,-75.5 626,-75.5 626,-56.5 518,-56.5"/>
<text text-anchor="middle" x="572" y="-63.5" font-family="Helvetica,sans-Serif" font-size="10.00">boost/shared_ptr.hpp</text>
</g>
<!-- Node1&#45;&gt;Node15 -->
<g id="edge15" class="edge"><title>Node1&#45;&gt;Node15</title>
<path fill="none" stroke="midnightblue" d="M261.528,-117.499C310.864,-109.474 433.653,-89.5022 509.192,-77.2157"/>
<polygon fill="midnightblue" stroke="midnightblue" points="510.217,-80.5952 519.525,-75.5351 509.093,-73.686 510.217,-80.5952"/>
</g>
<!-- Node6 -->
<g id="node6" class="node"><title>Node6</title>
<polygon fill="none" stroke="#bfbfbf" points="364.5,-0.5 364.5,-19.5 405.5,-19.5 405.5,-0.5 364.5,-0.5"/>
<text text-anchor="middle" x="385" y="-7.5" font-family="Helvetica,sans-Serif" font-size="10.00">string</text>
</g>
<!-- Node5&#45;&gt;Node6 -->
<g id="edge5" class="edge"><title>Node5&#45;&gt;Node6</title>
<path fill="none" stroke="midnightblue" d="M262.976,-56.4435C287.868,-47.1732 327.681,-32.3464 355.019,-22.1652"/>
<polygon fill="midnightblue" stroke="midnightblue" points="356.327,-25.4133 364.476,-18.6433 353.883,-18.8534 356.327,-25.4133"/>
</g>
<!-- Node7 -->
<g id="node7" class="node"><title>Node7</title>
<polygon fill="none" stroke="#bfbfbf" points="100.5,-0.5 100.5,-19.5 135.5,-19.5 135.5,-0.5 100.5,-0.5"/>
<text text-anchor="middle" x="118" y="-7.5" font-family="Helvetica,sans-Serif" font-size="10.00">map</text>
</g>
<!-- Node5&#45;&gt;Node7 -->
<g id="edge6" class="edge"><title>Node5&#45;&gt;Node7</title>
<path fill="none" stroke="midnightblue" d="M220.669,-56.4435C200.21,-47.3879 167.772,-33.0302 144.84,-22.8799"/>
<polygon fill="midnightblue" stroke="midnightblue" points="146.217,-19.6621 135.656,-18.8151 143.384,-26.0631 146.217,-19.6621"/>
</g>
<!-- Node8 -->
<g id="node8" class="node"><title>Node8</title>
<polygon fill="none" stroke="#bfbfbf" points="154,-0.5 154,-19.5 184,-19.5 184,-0.5 154,-0.5"/>
<text text-anchor="middle" x="169" y="-7.5" font-family="Helvetica,sans-Serif" font-size="10.00">set</text>
</g>
<!-- Node5&#45;&gt;Node8 -->
<g id="edge7" class="edge"><title>Node5&#45;&gt;Node8</title>
<path fill="none" stroke="midnightblue" d="M228.593,-56.324C217.891,-48.1849 201.659,-35.8395 188.837,-26.0874"/>
<polygon fill="midnightblue" stroke="midnightblue" points="190.693,-23.1018 180.615,-19.8339 186.456,-28.6734 190.693,-23.1018"/>
</g>
<!-- Node9 -->
<g id="node9" class="node"><title>Node9</title>
<polygon fill="none" stroke="#bfbfbf" points="202.5,-0.5 202.5,-19.5 245.5,-19.5 245.5,-0.5 202.5,-0.5"/>
<text text-anchor="middle" x="224" y="-7.5" font-family="Helvetica,sans-Serif" font-size="10.00">queue</text>
</g>
<!-- Node5&#45;&gt;Node9 -->
<g id="edge8" class="edge"><title>Node5&#45;&gt;Node9</title>
<path fill="none" stroke="midnightblue" d="M237.358,-56.083C235.214,-48.8486 232.121,-38.4087 229.451,-29.3968"/>
<polygon fill="midnightblue" stroke="midnightblue" points="232.79,-28.3447 226.593,-19.7511 226.078,-30.3334 232.79,-28.3447"/>
</g>
<!-- Node10 -->
<g id="node10" class="node"><title>Node10</title>
<g id="a_node10"><a xlink:href="libpsio_2config_8h_source.html" target="_top" xlink:title="libpsio/config.h">
<polygon fill="none" stroke="black" points="264,-0.5 264,-19.5 346,-19.5 346,-0.5 264,-0.5"/>
<text text-anchor="middle" x="305" y="-7.5" font-family="Helvetica,sans-Serif" font-size="10.00">libpsio/config.h</text>
</a>
</g>
</g>
<!-- Node5&#45;&gt;Node10 -->
<g id="edge9" class="edge"><title>Node5&#45;&gt;Node10</title>
<path fill="none" stroke="midnightblue" d="M250.443,-56.324C260.146,-48.2631 274.815,-36.0765 286.5,-26.3695"/>
<polygon fill="midnightblue" stroke="midnightblue" points="288.911,-28.9163 294.367,-19.8339 284.438,-23.532 288.911,-28.9163"/>
</g>
<!-- Node13 -->
<g id="node13" class="node"><title>Node13</title>
<g id="a_node13"><a xlink:href="libchkpt_2config_8h_source.html" target="_top" xlink:title="libchkpt/config.h">
<polygon fill="none" stroke="black" points="424,-0.5 424,-19.5 512,-19.5 512,-0.5 424,-0.5"/>
<text text-anchor="middle" x="468" y="-7.5" font-family="Helvetica,sans-Serif" font-size="10.00">libchkpt/config.h</text>
</a>
</g>
</g>
<!-- Node12&#45;&gt;Node13 -->
<g id="edge12" class="edge"><title>Node12&#45;&gt;Node13</title>
<path fill="none" stroke="midnightblue" d="M454.642,-56.083C456.786,-48.8486 459.879,-38.4087 462.549,-29.3968"/>
<polygon fill="midnightblue" stroke="midnightblue" points="465.922,-30.3334 465.407,-19.7511 459.21,-28.3447 465.922,-30.3334"/>
</g>
<!-- Node12&#45;&gt;Node6 -->
<g id="edge13" class="edge"><title>Node12&#45;&gt;Node6</title>
<path fill="none" stroke="midnightblue" d="M441.235,-56.324C431.234,-48.2631 416.113,-36.0765 404.07,-26.3695"/>
<polygon fill="midnightblue" stroke="midnightblue" points="405.943,-23.3841 395.961,-19.8339 401.55,-28.8343 405.943,-23.3841"/>
</g>
<!-- Node14 -->
<g id="node14" class="node"><title>Node14</title>
<polygon fill="none" stroke="#bfbfbf" points="530.5,-0.5 530.5,-19.5 579.5,-19.5 579.5,-0.5 530.5,-0.5"/>
<text text-anchor="middle" x="555" y="-7.5" font-family="Helvetica,sans-Serif" font-size="10.00">string.h</text>
</g>
<!-- Node12&#45;&gt;Node14 -->
<g id="edge14" class="edge"><title>Node12&#45;&gt;Node14</title>
<path fill="none" stroke="midnightblue" d="M468.549,-56.324C484.992,-47.7034 510.435,-34.3643 529.468,-24.3855"/>
<polygon fill="midnightblue" stroke="midnightblue" points="531.261,-27.3977 538.492,-19.6545 528.011,-21.198 531.261,-27.3977"/>
</g>
</g>
</svg>
