<?xml version="1.0" encoding="UTF-8" standalone="no"?>
<!DOCTYPE svg PUBLIC "-//W3C//DTD SVG 1.1//EN"
 "http://www.w3.org/Graphics/SVG/1.1/DTD/svg11.dtd">
<!-- Generated by graphviz version 2.30.1 (20140110.0959)
 -->
<!-- Title: mem_man.h Pages: 1 -->
<svg width="366pt" height="84pt"
 viewBox="0.00 0.00 366.00 84.00" xmlns="http://www.w3.org/2000/svg" xmlns:xlink="http://www.w3.org/1999/xlink">
<g id="graph0" class="graph" transform="scale(1 1) rotate(0) translate(4 80)">
<title>mem_man.h</title>
<!-- Node1 -->
<g id="node1" class="node"><title>Node1</title>
<polygon fill="#bfbfbf" stroke="black" points="172.5,-56.5 172.5,-75.5 243.5,-75.5 243.5,-56.5 172.5,-56.5"/>
<text text-anchor="middle" x="208" y="-63.5" font-family="Helvetica,sans-Serif" font-size="10.00">mem_man.h</text>
</g>
<!-- Node2 -->
<g id="node2" class="node"><title>Node2</title>
<g id="a_node2"><a xlink:href="emit__deriv12__managers_8c.html" target="_top" xlink:title="Enter brief description of file here.">
<polygon fill="none" stroke="black" points="0,-0.5 0,-19.5 128,-19.5 128,-0.5 0,-0.5"/>
<text text-anchor="middle" x="64" y="-7.5" font-family="Helvetica,sans-Serif" font-size="10.00">emit_deriv12_managers.c</text>
</a>
</g>
</g>
<!-- Node1&#45;&gt;Node2 -->
<g id="edge1" class="edge"><title>Node1&#45;&gt;Node2</title>
<path fill="none" stroke="midnightblue" d="M175.749,-52.9058C148.676,-42.7536 110.683,-28.5063 86.7105,-19.5164"/>
<polygon fill="midnightblue" stroke="midnightblue" points="174.591,-56.2094 185.183,-56.4435 177.048,-49.6551 174.591,-56.2094"/>
</g>
<!-- Node3 -->
<g id="node3" class="node"><title>Node3</title>
<g id="a_node3"><a xlink:href="emit__deriv1__managers_8c.html" target="_top" xlink:title="Enter brief description of file here.">
<polygon fill="none" stroke="black" points="146.5,-0.5 146.5,-19.5 269.5,-19.5 269.5,-0.5 146.5,-0.5"/>
<text text-anchor="middle" x="208" y="-7.5" font-family="Helvetica,sans-Serif" font-size="10.00">emit_deriv1_managers.c</text>
</a>
</g>
</g>
<!-- Node1&#45;&gt;Node3 -->
<g id="edge2" class="edge"><title>Node1&#45;&gt;Node3</title>
<path fill="none" stroke="midnightblue" d="M208,-45.8045C208,-36.9102 208,-26.7798 208,-19.7511"/>
<polygon fill="midnightblue" stroke="midnightblue" points="204.5,-46.083 208,-56.083 211.5,-46.083 204.5,-46.083"/>
</g>
<!-- Node4 -->
<g id="node4" class="node"><title>Node4</title>
<g id="a_node4"><a xlink:href="libderiv_2mem__man_8c.html" target="_top" xlink:title="Enter brief description of file here.">
<polygon fill="none" stroke="black" points="287.5,-0.5 287.5,-19.5 358.5,-19.5 358.5,-0.5 287.5,-0.5"/>
<text text-anchor="middle" x="323" y="-7.5" font-family="Helvetica,sans-Serif" font-size="10.00">mem_man.c</text>
</a>
</g>
</g>
<!-- Node1&#45;&gt;Node4 -->
<g id="edge3" class="edge"><title>Node1&#45;&gt;Node4</title>
<path fill="none" stroke="midnightblue" d="M235.481,-52.096C256.966,-42.0073 286.222,-28.2697 304.863,-19.5164"/>
<polygon fill="midnightblue" stroke="midnightblue" points="233.786,-49.025 226.222,-56.4435 236.762,-55.3612 233.786,-49.025"/>
</g>
</g>
</svg>
