<?xml version="1.0" encoding="UTF-8" standalone="no"?>
<!DOCTYPE svg PUBLIC "-//W3C//DTD SVG 1.1//EN"
 "http://www.w3.org/Graphics/SVG/1.1/DTD/svg11.dtd">
<!-- Generated by graphviz version 2.30.1 (20140110.0959)
 -->
<!-- Title: linresp.cc Pages: 1 -->
<svg width="730pt" height="140pt"
 viewBox="0.00 0.00 730.00 140.00" xmlns="http://www.w3.org/2000/svg" xmlns:xlink="http://www.w3.org/1999/xlink">
<g id="graph0" class="graph" transform="scale(1 1) rotate(0) translate(4 136)">
<title>linresp.cc</title>
<!-- Node1 -->
<g id="node1" class="node"><title>Node1</title>
<polygon fill="#bfbfbf" stroke="black" points="356.5,-112.5 356.5,-131.5 415.5,-131.5 415.5,-112.5 356.5,-112.5"/>
<text text-anchor="middle" x="386" y="-119.5" font-family="Helvetica,sans-Serif" font-size="10.00">linresp.cc</text>
</g>
<!-- Node2 -->
<g id="node2" class="node"><title>Node2</title>
<polygon fill="none" stroke="#bfbfbf" points="160.5,-0.5 160.5,-19.5 203.5,-19.5 203.5,-0.5 160.5,-0.5"/>
<text text-anchor="middle" x="182" y="-7.5" font-family="Helvetica,sans-Serif" font-size="10.00">cstdio</text>
</g>
<!-- Node1&#45;&gt;Node2 -->
<g id="edge1" class="edge"><title>Node1&#45;&gt;Node2</title>
<path fill="none" stroke="midnightblue" d="M356.395,-120.478C294.42,-118.695 154.327,-110.816 125,-76 109.855,-58.0206 134.578,-37.7106 156.055,-24.6519"/>
<polygon fill="midnightblue" stroke="midnightblue" points="158.023,-27.5572 164.934,-19.5272 154.524,-21.4944 158.023,-27.5572"/>
</g>
<!-- Node3 -->
<g id="node3" class="node"><title>Node3</title>
<polygon fill="none" stroke="#bfbfbf" points="538,-56.5 538,-75.5 584,-75.5 584,-56.5 538,-56.5"/>
<text text-anchor="middle" x="561" y="-63.5" font-family="Helvetica,sans-Serif" font-size="10.00">cstring</text>
</g>
<!-- Node1&#45;&gt;Node3 -->
<g id="edge2" class="edge"><title>Node1&#45;&gt;Node3</title>
<path fill="none" stroke="midnightblue" d="M413.729,-112.444C444.823,-102.849 495.206,-87.3021 528.223,-77.1141"/>
<polygon fill="midnightblue" stroke="midnightblue" points="529.348,-80.4298 537.871,-74.1368 527.284,-73.741 529.348,-80.4298"/>
</g>
<!-- Node4 -->
<g id="node4" class="node"><title>Node4</title>
<polygon fill="none" stroke="#bfbfbf" points="602.5,-56.5 602.5,-75.5 647.5,-75.5 647.5,-56.5 602.5,-56.5"/>
<text text-anchor="middle" x="625" y="-63.5" font-family="Helvetica,sans-Serif" font-size="10.00">cstdlib</text>
</g>
<!-- Node1&#45;&gt;Node4 -->
<g id="edge3" class="edge"><title>Node1&#45;&gt;Node4</title>
<path fill="none" stroke="midnightblue" d="M415.609,-115.146C454.095,-107.411 523.586,-93.0135 592.589,-75.9811"/>
<polygon fill="midnightblue" stroke="midnightblue" points="593.46,-79.3712 602.319,-73.5607 591.77,-72.5782 593.46,-79.3712"/>
</g>
<!-- Node5 -->
<g id="node5" class="node"><title>Node5</title>
<g id="a_node5"><a xlink:href="libciomr_8h_source.html" target="_top" xlink:title="libciomr/libciomr.h">
<polygon fill="none" stroke="black" points="134.5,-56.5 134.5,-75.5 229.5,-75.5 229.5,-56.5 134.5,-56.5"/>
<text text-anchor="middle" x="182" y="-63.5" font-family="Helvetica,sans-Serif" font-size="10.00">libciomr/libciomr.h</text>
</a>
</g>
</g>
<!-- Node1&#45;&gt;Node5 -->
<g id="edge4" class="edge"><title>Node1&#45;&gt;Node5</title>
<path fill="none" stroke="midnightblue" d="M356.337,-113.148C321.57,-103.945 263.703,-88.6274 224.253,-78.1846"/>
<polygon fill="midnightblue" stroke="midnightblue" points="224.959,-74.7511 214.397,-75.5756 223.168,-81.518 224.959,-74.7511"/>
</g>
<!-- Node6 -->
<g id="node6" class="node"><title>Node6</title>
<g id="a_node6"><a xlink:href="psio_8h_source.html" target="_top" xlink:title="libpsio/psio.h">
<polygon fill="none" stroke="black" points="4,-56.5 4,-75.5 78,-75.5 78,-56.5 4,-56.5"/>
<text text-anchor="middle" x="41" y="-63.5" font-family="Helvetica,sans-Serif" font-size="10.00">libpsio/psio.h</text>
</a>
</g>
</g>
<!-- Node1&#45;&gt;Node6 -->
<g id="edge6" class="edge"><title>Node1&#45;&gt;Node6</title>
<path fill="none" stroke="midnightblue" d="M356.336,-116.688C303.257,-108.921 188.549,-91.9059 92,-76 90.7275,-75.7904 89.4375,-75.576 88.1359,-75.358"/>
<polygon fill="midnightblue" stroke="midnightblue" points="88.4761,-71.8656 78.0303,-73.6368 87.3007,-78.7662 88.4761,-71.8656"/>
</g>
<!-- Node8 -->
<g id="node8" class="node"><title>Node8</title>
<g id="a_node8"><a xlink:href="qt_8h.html" target="_top" xlink:title="Header file for the Quantum Trio LibraryDavid Sherrill 1994.">
<polygon fill="none" stroke="black" points="322,-56.5 322,-75.5 376,-75.5 376,-56.5 322,-56.5"/>
<text text-anchor="middle" x="349" y="-63.5" font-family="Helvetica,sans-Serif" font-size="10.00">libqt/qt.h</text>
</a>
</g>
</g>
<!-- Node1&#45;&gt;Node8 -->
<g id="edge9" class="edge"><title>Node1&#45;&gt;Node8</title>
<path fill="none" stroke="midnightblue" d="M379.89,-112.083C374.718,-104.534 367.154,-93.4948 360.806,-84.2298"/>
<polygon fill="midnightblue" stroke="midnightblue" points="363.536,-82.0221 354.996,-75.7511 357.761,-85.9787 363.536,-82.0221"/>
</g>
<!-- Node10 -->
<g id="node10" class="node"><title>Node10</title>
<g id="a_node10"><a xlink:href="ccresponse_2MOInfo_8h.html" target="_top" xlink:title="Enter brief description of file here.">
<polygon fill="none" stroke="black" points="665.5,-56.5 665.5,-75.5 722.5,-75.5 722.5,-56.5 665.5,-56.5"/>
<text text-anchor="middle" x="694" y="-63.5" font-family="Helvetica,sans-Serif" font-size="10.00">MOInfo.h</text>
</a>
</g>
</g>
<!-- Node1&#45;&gt;Node10 -->
<g id="edge12" class="edge"><title>Node1&#45;&gt;Node10</title>
<path fill="none" stroke="midnightblue" d="M415.685,-116.722C463.824,-109.64 562.1,-94.5836 655.515,-75.9775"/>
<polygon fill="midnightblue" stroke="midnightblue" points="656.297,-79.3903 665.412,-73.989 654.918,-72.5275 656.297,-79.3903"/>
</g>
<!-- Node11 -->
<g id="node11" class="node"><title>Node11</title>
<g id="a_node11"><a xlink:href="ccresponse_2Params_8h.html" target="_top" xlink:title="Enter brief description of file here.">
<polygon fill="none" stroke="black" points="394.5,-56.5 394.5,-75.5 453.5,-75.5 453.5,-56.5 394.5,-56.5"/>
<text text-anchor="middle" x="424" y="-63.5" font-family="Helvetica,sans-Serif" font-size="10.00">Params.h</text>
</a>
</g>
</g>
<!-- Node1&#45;&gt;Node11 -->
<g id="edge13" class="edge"><title>Node1&#45;&gt;Node11</title>
<path fill="none" stroke="midnightblue" d="M392.275,-112.083C397.642,-104.455 405.518,-93.2645 412.079,-83.9408"/>
<polygon fill="midnightblue" stroke="midnightblue" points="414.949,-85.9434 417.842,-75.7511 409.225,-81.9149 414.949,-85.9434"/>
</g>
<!-- Node12 -->
<g id="node12" class="node"><title>Node12</title>
<g id="a_node12"><a xlink:href="ccresponse_2Local_8h.html" target="_top" xlink:title="Enter brief description of file here.">
<polygon fill="none" stroke="black" points="472,-56.5 472,-75.5 520,-75.5 520,-56.5 472,-56.5"/>
<text text-anchor="middle" x="496" y="-63.5" font-family="Helvetica,sans-Serif" font-size="10.00">Local.h</text>
</a>
</g>
</g>
<!-- Node1&#45;&gt;Node12 -->
<g id="edge15" class="edge"><title>Node1&#45;&gt;Node12</title>
<path fill="none" stroke="midnightblue" d="M403.673,-112.324C421.394,-103.625 448.903,-90.1202 469.288,-80.113"/>
<polygon fill="midnightblue" stroke="midnightblue" points="470.936,-83.2031 478.37,-75.6545 467.851,-76.9195 470.936,-83.2031"/>
</g>
<!-- Node13 -->
<g id="node13" class="node"><title>Node13</title>
<g id="a_node13"><a xlink:href="ccresponse_2globals_8h.html" target="_top" xlink:title="Enter brief description of file here.">
<polygon fill="none" stroke="black" points="248,-56.5 248,-75.5 304,-75.5 304,-56.5 248,-56.5"/>
<text text-anchor="middle" x="276" y="-63.5" font-family="Helvetica,sans-Serif" font-size="10.00">globals.h</text>
</a>
</g>
</g>
<!-- Node1&#45;&gt;Node13 -->
<g id="edge17" class="edge"><title>Node1&#45;&gt;Node13</title>
<path fill="none" stroke="midnightblue" d="M368.327,-112.324C350.606,-103.625 323.097,-90.1202 302.712,-80.113"/>
<polygon fill="midnightblue" stroke="midnightblue" points="304.149,-76.9195 293.63,-75.6545 301.064,-83.2031 304.149,-76.9195"/>
</g>
<!-- Node5&#45;&gt;Node2 -->
<g id="edge5" class="edge"><title>Node5&#45;&gt;Node2</title>
<path fill="none" stroke="midnightblue" d="M182,-56.083C182,-49.0059 182,-38.8611 182,-29.9865"/>
<polygon fill="midnightblue" stroke="midnightblue" points="185.5,-29.751 182,-19.7511 178.5,-29.7511 185.5,-29.751"/>
</g>
<!-- Node6&#45;&gt;Node2 -->
<g id="edge7" class="edge"><title>Node6&#45;&gt;Node2</title>
<path fill="none" stroke="midnightblue" d="M63.3419,-56.4435C86.8907,-47.4249 124.171,-33.1472 150.655,-23.0043"/>
<polygon fill="midnightblue" stroke="midnightblue" points="152.139,-26.184 160.226,-19.339 149.636,-19.647 152.139,-26.184"/>
</g>
<!-- Node7 -->
<g id="node7" class="node"><title>Node7</title>
<g id="a_node7"><a xlink:href="libpsio_2config_8h_source.html" target="_top" xlink:title="libpsio/config.h">
<polygon fill="none" stroke="black" points="0,-0.5 0,-19.5 82,-19.5 82,-0.5 0,-0.5"/>
<text text-anchor="middle" x="41" y="-7.5" font-family="Helvetica,sans-Serif" font-size="10.00">libpsio/config.h</text>
</a>
</g>
</g>
<!-- Node6&#45;&gt;Node7 -->
<g id="edge8" class="edge"><title>Node6&#45;&gt;Node7</title>
<path fill="none" stroke="midnightblue" d="M41,-56.083C41,-49.0059 41,-38.8611 41,-29.9865"/>
<polygon fill="midnightblue" stroke="midnightblue" points="44.5001,-29.751 41,-19.7511 37.5001,-29.7511 44.5001,-29.751"/>
</g>
<!-- Node8&#45;&gt;Node2 -->
<g id="edge10" class="edge"><title>Node8&#45;&gt;Node2</title>
<path fill="none" stroke="midnightblue" d="M322.538,-56.4435C292.828,-46.8366 244.663,-31.2622 213.157,-21.0749"/>
<polygon fill="midnightblue" stroke="midnightblue" points="214.15,-17.7175 203.558,-17.971 211.996,-24.378 214.15,-17.7175"/>
</g>
<!-- Node9 -->
<g id="node9" class="node"><title>Node9</title>
<polygon fill="none" stroke="#bfbfbf" points="403.5,-0.5 403.5,-19.5 444.5,-19.5 444.5,-0.5 403.5,-0.5"/>
<text text-anchor="middle" x="424" y="-7.5" font-family="Helvetica,sans-Serif" font-size="10.00">string</text>
</g>
<!-- Node8&#45;&gt;Node9 -->
<g id="edge11" class="edge"><title>Node8&#45;&gt;Node9</title>
<path fill="none" stroke="midnightblue" d="M361.05,-56.324C372.463,-48.1066 389.831,-35.6017 403.435,-25.8069"/>
<polygon fill="midnightblue" stroke="midnightblue" points="405.66,-28.5174 411.731,-19.8339 401.57,-22.8366 405.66,-28.5174"/>
</g>
<!-- Node11&#45;&gt;Node9 -->
<g id="edge14" class="edge"><title>Node11&#45;&gt;Node9</title>
<path fill="none" stroke="midnightblue" d="M424,-56.083C424,-49.0059 424,-38.8611 424,-29.9865"/>
<polygon fill="midnightblue" stroke="midnightblue" points="427.5,-29.751 424,-19.7511 420.5,-29.7511 427.5,-29.751"/>
</g>
<!-- Node12&#45;&gt;Node9 -->
<g id="edge16" class="edge"><title>Node12&#45;&gt;Node9</title>
<path fill="none" stroke="midnightblue" d="M484.432,-56.324C473.58,-48.1849 457.119,-35.8395 444.117,-26.0874"/>
<polygon fill="midnightblue" stroke="midnightblue" points="445.879,-23.0339 435.779,-19.8339 441.679,-28.6339 445.879,-23.0339"/>
</g>
<!-- Node14 -->
<g id="node14" class="node"><title>Node14</title>
<g id="a_node14"><a xlink:href="psifiles_8h_source.html" target="_top" xlink:title="psifiles.h">
<polygon fill="none" stroke="black" points="248,-0.5 248,-19.5 304,-19.5 304,-0.5 248,-0.5"/>
<text text-anchor="middle" x="276" y="-7.5" font-family="Helvetica,sans-Serif" font-size="10.00">psifiles.h</text>
</a>
</g>
</g>
<!-- Node13&#45;&gt;Node14 -->
<g id="edge18" class="edge"><title>Node13&#45;&gt;Node14</title>
<path fill="none" stroke="midnightblue" d="M276,-56.083C276,-49.0059 276,-38.8611 276,-29.9865"/>
<polygon fill="midnightblue" stroke="midnightblue" points="279.5,-29.751 276,-19.7511 272.5,-29.7511 279.5,-29.751"/>
</g>
<!-- Node13&#45;&gt;Node2 -->
<g id="edge19" class="edge"><title>Node13&#45;&gt;Node2</title>
<path fill="none" stroke="midnightblue" d="M260.897,-56.324C246.097,-47.8215 223.306,-34.7288 206.018,-24.7975"/>
<polygon fill="midnightblue" stroke="midnightblue" points="207.48,-21.6009 197.065,-19.6545 203.993,-27.6707 207.48,-21.6009"/>
</g>
</g>
</svg>
