<?xml version="1.0" encoding="UTF-8" standalone="no"?>
<!DOCTYPE svg PUBLIC "-//W3C//DTD SVG 1.1//EN"
 "http://www.w3.org/Graphics/SVG/1.1/DTD/svg11.dtd">
<!-- Generated by graphviz version 2.30.1 (20140110.0959)
 -->
<!-- Title: local_magnetic.cc Pages: 1 -->
<!--zoomable 196 -->
<svg id="main" version="1.1" xmlns="http://www.w3.org/2000/svg" xmlns:xlink="http://www.w3.org/1999/xlink" xml:space="preserve" onload="init(evt)">
        <defs>
                <circle id="rim" cx="0" cy="0" r="7"/>
                <circle id="rim2" cx="0" cy="0" r="3.5"/>
                <g id="zoomPlus">
                        <use xlink:href="#rim" fill="#404040">
                                <set attributeName="fill" to="#808080" begin="zoomplus.mouseover" end="zoomplus.mouseout"/>
                        </use>
                        <path d="M-4,0h8M0,-4v8" fill="none" stroke="white" stroke-width="1.5" pointer-events="none"/>
                </g>
                <g id="zoomMin">
                        <use xlink:href="#rim" fill="#404040">
                                <set attributeName="fill" to="#808080" begin="zoomminus.mouseover" end="zoomminus.mouseout"/>
                        </use>
                        <path d="M-4,0h8" fill="none" stroke="white" stroke-width="1.5" pointer-events="none"/>
                </g>
                <g id="dirArrow">
                        <path fill="none" stroke="white" stroke-width="1.5" d="M0,-3.0v7 M-2.5,-0.5L0,-3.0L2.5,-0.5"/>
                </g>
               <g id="resetDef">
                       <use xlink:href="#rim2" fill="#404040">
                               <set attributeName="fill" to="#808080" begin="reset.mouseover" end="reset.mouseout"/>
                       </use>
               </g>
        </defs>

<script type="text/javascript">
var viewWidth = 1063;
var viewHeight = 196;
var sectionId = 'dynsection-0';
</script>
<script xlink:href="svgpan.js"/>
<svg id="graph" class="graph">
<g id="viewport">
<title>local_magnetic.cc</title>
<!-- Node1 -->
<g id="node1" class="node"><title>Node1</title>
<polygon fill="#bfbfbf" stroke="black" points="468.098,-168.5 468.098,-187.5 563.098,-187.5 563.098,-168.5 468.098,-168.5"/>
<text text-anchor="middle" x="515.598" y="-175.5" font-family="Helvetica,sans-Serif" font-size="10.00">local_magnetic.cc</text>
</g>
<!-- Node2 -->
<g id="node2" class="node"><title>Node2</title>
<polygon fill="none" stroke="#bfbfbf" points="187.098,-0.5 187.098,-19.5 230.098,-19.5 230.098,-0.5 187.098,-0.5"/>
<text text-anchor="middle" x="208.598" y="-7.5" font-family="Helvetica,sans-Serif" font-size="10.00">cstdio</text>
</g>
<!-- Node1&#45;&gt;Node2 -->
<g id="edge1" class="edge"><title>Node1&#45;&gt;Node2</title>
<path fill="none" stroke="midnightblue" d="M467.979,-176.572C365.418,-174.975 127.141,-167.443 55.5977,-132 25.1634,-116.923 16.0123,-107.614 3.59775,-76 0.348702,-67.7262 -1.97323,-62.9265 3.59775,-56 24.9626,-29.4366 124.609,-17.664 176.693,-13.2515"/>
<polygon fill="midnightblue" stroke="midnightblue" points="177.053,-16.7339 186.739,-12.4419 176.49,-9.75655 177.053,-16.7339"/>
</g>
<!-- Node3 -->
<g id="node3" class="node"><title>Node3</title>
<polygon fill="none" stroke="#bfbfbf" points="704.098,-112.5 704.098,-131.5 749.098,-131.5 749.098,-112.5 704.098,-112.5"/>
<text text-anchor="middle" x="726.598" y="-119.5" font-family="Helvetica,sans-Serif" font-size="10.00">cstdlib</text>
</g>
<!-- Node1&#45;&gt;Node3 -->
<g id="edge2" class="edge"><title>Node1&#45;&gt;Node3</title>
<path fill="none" stroke="midnightblue" d="M550.657,-168.492C584.822,-160.134 638.472,-146.83 694.204,-132.049"/>
<polygon fill="midnightblue" stroke="midnightblue" points="695.13,-135.425 703.894,-129.47 693.33,-128.66 695.13,-135.425"/>
</g>
<!-- Node4 -->
<g id="node4" class="node"><title>Node4</title>
<polygon fill="none" stroke="#bfbfbf" points="767.598,-112.5 767.598,-131.5 813.598,-131.5 813.598,-112.5 767.598,-112.5"/>
<text text-anchor="middle" x="790.598" y="-119.5" font-family="Helvetica,sans-Serif" font-size="10.00">cstring</text>
</g>
<!-- Node1&#45;&gt;Node4 -->
<g id="edge3" class="edge"><title>Node1&#45;&gt;Node4</title>
<path fill="none" stroke="midnightblue" d="M563.134,-169.351C612.105,-161.194 690.531,-147.354 757.598,-132 757.699,-131.977 757.801,-131.954 757.902,-131.93"/>
<polygon fill="midnightblue" stroke="midnightblue" points="758.712,-135.335 767.58,-129.538 757.032,-128.54 758.712,-135.335"/>
</g>
<!-- Node5 -->
<g id="node5" class="node"><title>Node5</title>
<polygon fill="none" stroke="#bfbfbf" points="831.598,-112.5 831.598,-131.5 875.598,-131.5 875.598,-112.5 831.598,-112.5"/>
<text text-anchor="middle" x="853.598" y="-119.5" font-family="Helvetica,sans-Serif" font-size="10.00">cmath</text>
</g>
<!-- Node1&#45;&gt;Node5 -->
<g id="edge4" class="edge"><title>Node1&#45;&gt;Node5</title>
<path fill="none" stroke="midnightblue" d="M563.294,-172.06C621.957,-165.532 724.688,-152.632 821.399,-132.01"/>
<polygon fill="midnightblue" stroke="midnightblue" points="822.307,-135.394 831.34,-129.858 820.826,-128.553 822.307,-135.394"/>
</g>
<!-- Node6 -->
<g id="node6" class="node"><title>Node6</title>
<g id="a_node6"><a xlink:href="libciomr_8h_source.html" target="_top" xlink:title="libciomr/libciomr.h">
<polygon fill="none" stroke="black" points="213.098,-56.5 213.098,-75.5 308.098,-75.5 308.098,-56.5 213.098,-56.5"/>
<text text-anchor="middle" x="260.598" y="-63.5" font-family="Helvetica,sans-Serif" font-size="10.00">libciomr/libciomr.h</text>
</a>
</g>
</g>
<!-- Node1&#45;&gt;Node6 -->
<g id="edge5" class="edge"><title>Node1&#45;&gt;Node6</title>
<path fill="none" stroke="midnightblue" d="M468.043,-173.728C407.263,-168.592 306.651,-156.574 279.598,-132 266.699,-120.283 262.367,-100.345 261.006,-85.6328"/>
<polygon fill="midnightblue" stroke="midnightblue" points="264.5,-85.4151 260.452,-75.624 257.51,-85.8022 264.5,-85.4151"/>
</g>
<!-- Node7 -->
<g id="node7" class="node"><title>Node7</title>
<g id="a_node7"><a xlink:href="psio_8h_source.html" target="_top" xlink:title="libpsio/psio.h">
<polygon fill="none" stroke="black" points="120.598,-56.5 120.598,-75.5 194.598,-75.5 194.598,-56.5 120.598,-56.5"/>
<text text-anchor="middle" x="157.598" y="-63.5" font-family="Helvetica,sans-Serif" font-size="10.00">libpsio/psio.h</text>
</a>
</g>
</g>
<!-- Node1&#45;&gt;Node7 -->
<g id="edge7" class="edge"><title>Node1&#45;&gt;Node7</title>
<path fill="none" stroke="midnightblue" d="M467.748,-173.779C415.984,-169.088 331.723,-157.907 263.598,-132 230.905,-119.568 197.135,-96.8355 176.747,-81.821"/>
<polygon fill="midnightblue" stroke="midnightblue" points="178.72,-78.9257 168.622,-75.7207 174.517,-84.5237 178.72,-78.9257"/>
</g>
<!-- Node9 -->
<g id="node9" class="node"><title>Node9</title>
<g id="a_node9"><a xlink:href="iwl_8h_source.html" target="_top" xlink:title="libiwl/iwl.h">
<polygon fill="none" stroke="black" points="64.5977,-112.5 64.5977,-131.5 126.598,-131.5 126.598,-112.5 64.5977,-112.5"/>
<text text-anchor="middle" x="95.5977" y="-119.5" font-family="Helvetica,sans-Serif" font-size="10.00">libiwl/iwl.h</text>
</a>
</g>
</g>
<!-- Node1&#45;&gt;Node9 -->
<g id="edge10" class="edge"><title>Node1&#45;&gt;Node9</title>
<path fill="none" stroke="midnightblue" d="M467.827,-170.858C384.698,-160.17 214.852,-138.333 136.664,-128.28"/>
<polygon fill="midnightblue" stroke="midnightblue" points="137.067,-124.803 126.703,-126.999 136.175,-131.746 137.067,-124.803"/>
</g>
<!-- Node11 -->
<g id="node11" class="node"><title>Node11</title>
<g id="a_node11"><a xlink:href="chkpt_8h_source.html" target="_top" xlink:title="libchkpt/chkpt.h">
<polygon fill="none" stroke="black" points="893.598,-112.5 893.598,-131.5 979.598,-131.5 979.598,-112.5 893.598,-112.5"/>
<text text-anchor="middle" x="936.598" y="-119.5" font-family="Helvetica,sans-Serif" font-size="10.00">libchkpt/chkpt.h</text>
</a>
</g>
</g>
<!-- Node1&#45;&gt;Node11 -->
<g id="edge14" class="edge"><title>Node1&#45;&gt;Node11</title>
<path fill="none" stroke="midnightblue" d="M563.173,-171.968C631.632,-164.558 762.127,-149.801 883.299,-132.128"/>
<polygon fill="midnightblue" stroke="midnightblue" points="884.109,-135.547 893.494,-130.631 883.092,-128.621 884.109,-135.547"/>
</g>
<!-- Node12 -->
<g id="node12" class="node"><title>Node12</title>
<g id="a_node12"><a xlink:href="lib_2libdpd_2dpd_8h.html" target="_top" xlink:title="Enter brief description of file here.">
<polygon fill="none" stroke="black" points="401.098,-112.5 401.098,-131.5 470.098,-131.5 470.098,-112.5 401.098,-112.5"/>
<text text-anchor="middle" x="435.598" y="-119.5" font-family="Helvetica,sans-Serif" font-size="10.00">libdpd/dpd.h</text>
</a>
</g>
</g>
<!-- Node1&#45;&gt;Node12 -->
<g id="edge15" class="edge"><title>Node1&#45;&gt;Node12</title>
<path fill="none" stroke="midnightblue" d="M502.744,-168.324C490.381,-159.979 471.468,-147.212 456.861,-137.352"/>
<polygon fill="midnightblue" stroke="midnightblue" points="458.666,-134.348 448.419,-131.655 454.75,-140.15 458.666,-134.348"/>
</g>
<!-- Node16 -->
<g id="node16" class="node"><title>Node16</title>
<g id="a_node16"><a xlink:href="qt_8h.html" target="_top" xlink:title="Header file for the Quantum Trio LibraryDavid Sherrill 1994.">
<polygon fill="none" stroke="black" points="488.598,-112.5 488.598,-131.5 542.598,-131.5 542.598,-112.5 488.598,-112.5"/>
<text text-anchor="middle" x="515.598" y="-119.5" font-family="Helvetica,sans-Serif" font-size="10.00">libqt/qt.h</text>
</a>
</g>
</g>
<!-- Node1&#45;&gt;Node16 -->
<g id="edge21" class="edge"><title>Node1&#45;&gt;Node16</title>
<path fill="none" stroke="midnightblue" d="M515.598,-168.083C515.598,-161.006 515.598,-150.861 515.598,-141.986"/>
<polygon fill="midnightblue" stroke="midnightblue" points="519.098,-141.751 515.598,-131.751 512.098,-141.751 519.098,-141.751"/>
</g>
<!-- Node13 -->
<g id="node13" class="node"><title>Node13</title>
<g id="a_node13"><a xlink:href="psifiles_8h_source.html" target="_top" xlink:title="psifiles.h">
<polygon fill="none" stroke="black" points="326.598,-56.5 326.598,-75.5 382.598,-75.5 382.598,-56.5 326.598,-56.5"/>
<text text-anchor="middle" x="354.598" y="-63.5" font-family="Helvetica,sans-Serif" font-size="10.00">psifiles.h</text>
</a>
</g>
</g>
<!-- Node1&#45;&gt;Node13 -->
<g id="edge24" class="edge"><title>Node1&#45;&gt;Node13</title>
<path fill="none" stroke="midnightblue" d="M469.508,-168.444C444.279,-161.886 413.742,-150.679 391.598,-132 376.902,-119.604 366.828,-99.8036 360.946,-85.3105"/>
<polygon fill="midnightblue" stroke="midnightblue" points="364.195,-84.0045 357.398,-75.877 357.643,-86.469 364.195,-84.0045"/>
</g>
<!-- Node18 -->
<g id="node18" class="node"><title>Node18</title>
<g id="a_node18"><a xlink:href="ccsort_2MOInfo_8h.html" target="_top" xlink:title="Enter brief description of file here.">
<polygon fill="none" stroke="black" points="998.098,-112.5 998.098,-131.5 1055.1,-131.5 1055.1,-112.5 998.098,-112.5"/>
<text text-anchor="middle" x="1026.6" y="-119.5" font-family="Helvetica,sans-Serif" font-size="10.00">MOInfo.h</text>
</a>
</g>
</g>
<!-- Node1&#45;&gt;Node18 -->
<g id="edge25" class="edge"><title>Node1&#45;&gt;Node18</title>
<path fill="none" stroke="midnightblue" d="M563.208,-174.644C647.05,-170.022 826.607,-158.015 987.941,-131.868"/>
<polygon fill="midnightblue" stroke="midnightblue" points="988.749,-135.282 998.049,-130.207 987.614,-128.374 988.749,-135.282"/>
</g>
<!-- Node19 -->
<g id="node19" class="node"><title>Node19</title>
<g id="a_node19"><a xlink:href="ccsort_2Params_8h.html" target="_top" xlink:title="Enter brief description of file here.">
<polygon fill="none" stroke="black" points="627.098,-112.5 627.098,-131.5 686.098,-131.5 686.098,-112.5 627.098,-112.5"/>
<text text-anchor="middle" x="656.598" y="-119.5" font-family="Helvetica,sans-Serif" font-size="10.00">Params.h</text>
</a>
</g>
</g>
<!-- Node1&#45;&gt;Node19 -->
<g id="edge26" class="edge"><title>Node1&#45;&gt;Node19</title>
<path fill="none" stroke="midnightblue" d="M537.94,-168.444C561.351,-159.478 598.333,-145.314 624.787,-135.183"/>
<polygon fill="midnightblue" stroke="midnightblue" points="626.274,-138.361 634.36,-131.516 623.77,-131.824 626.274,-138.361"/>
</g>
<!-- Node20 -->
<g id="node20" class="node"><title>Node20</title>
<g id="a_node20"><a xlink:href="ccsort_2Local_8h.html" target="_top" xlink:title="Enter brief description of file here.">
<polygon fill="none" stroke="black" points="560.598,-112.5 560.598,-131.5 608.598,-131.5 608.598,-112.5 560.598,-112.5"/>
<text text-anchor="middle" x="584.598" y="-119.5" font-family="Helvetica,sans-Serif" font-size="10.00">Local.h</text>
</a>
</g>
</g>
<!-- Node1&#45;&gt;Node20 -->
<g id="edge28" class="edge"><title>Node1&#45;&gt;Node20</title>
<path fill="none" stroke="midnightblue" d="M526.684,-168.324C537.084,-160.185 552.858,-147.839 565.319,-138.087"/>
<polygon fill="midnightblue" stroke="midnightblue" points="567.592,-140.753 573.31,-131.834 563.278,-135.241 567.592,-140.753"/>
</g>
<!-- Node21 -->
<g id="node21" class="node"><title>Node21</title>
<g id="a_node21"><a xlink:href="ccsort_2globals_8h.html" target="_top" xlink:title="Enter brief description of file here.">
<polygon fill="none" stroke="black" points="288.598,-112.5 288.598,-131.5 344.598,-131.5 344.598,-112.5 288.598,-112.5"/>
<text text-anchor="middle" x="316.598" y="-119.5" font-family="Helvetica,sans-Serif" font-size="10.00">globals.h</text>
</a>
</g>
</g>
<!-- Node1&#45;&gt;Node21 -->
<g id="edge30" class="edge"><title>Node1&#45;&gt;Node21</title>
<path fill="none" stroke="midnightblue" d="M484.066,-168.444C449.004,-158.929 392.373,-143.562 354.818,-133.371"/>
<polygon fill="midnightblue" stroke="midnightblue" points="355.332,-129.884 344.765,-130.643 353.499,-136.64 355.332,-129.884"/>
</g>
<!-- Node6&#45;&gt;Node2 -->
<g id="edge6" class="edge"><title>Node6&#45;&gt;Node2</title>
<path fill="none" stroke="midnightblue" d="M252.011,-56.083C244.439,-48.2195 233.22,-36.5688 224.083,-27.0813"/>
<polygon fill="midnightblue" stroke="midnightblue" points="226.482,-24.5266 217.025,-19.7511 221.44,-29.3821 226.482,-24.5266"/>
</g>
<!-- Node7&#45;&gt;Node2 -->
<g id="edge8" class="edge"><title>Node7&#45;&gt;Node2</title>
<path fill="none" stroke="midnightblue" d="M166.019,-56.083C173.446,-48.2195 184.449,-36.5688 193.41,-27.0813"/>
<polygon fill="midnightblue" stroke="midnightblue" points="196.011,-29.4244 200.333,-19.7511 190.922,-24.618 196.011,-29.4244"/>
</g>
<!-- Node8 -->
<g id="node8" class="node"><title>Node8</title>
<g id="a_node8"><a xlink:href="libpsio_2config_8h_source.html" target="_top" xlink:title="libpsio/config.h">
<polygon fill="none" stroke="black" points="447.598,-0.5 447.598,-19.5 529.598,-19.5 529.598,-0.5 447.598,-0.5"/>
<text text-anchor="middle" x="488.598" y="-7.5" font-family="Helvetica,sans-Serif" font-size="10.00">libpsio/config.h</text>
</a>
</g>
</g>
<!-- Node7&#45;&gt;Node8 -->
<g id="edge9" class="edge"><title>Node7&#45;&gt;Node8</title>
<path fill="none" stroke="midnightblue" d="M194.733,-57.6133C197.73,-57.0542 200.713,-56.5098 203.598,-56 285.096,-41.5983 380.106,-27.0426 437.242,-18.5302"/>
<polygon fill="midnightblue" stroke="midnightblue" points="438.081,-21.944 447.458,-17.0124 437.053,-15.02 438.081,-21.944"/>
</g>
<!-- Node9&#45;&gt;Node2 -->
<g id="edge11" class="edge"><title>Node9&#45;&gt;Node2</title>
<path fill="none" stroke="midnightblue" d="M95.457,-112.385C95.6859,-98.8644 98.0045,-72.5072 111.598,-56 128.102,-35.9584 155.522,-24.3843 177.006,-18.0074"/>
<polygon fill="midnightblue" stroke="midnightblue" points="177.978,-21.3703 186.7,-15.3557 176.131,-14.6183 177.978,-21.3703"/>
</g>
<!-- Node9&#45;&gt;Node7 -->
<g id="edge12" class="edge"><title>Node9&#45;&gt;Node7</title>
<path fill="none" stroke="midnightblue" d="M105.559,-112.324C114.724,-104.341 128.535,-92.3128 139.626,-82.6529"/>
<polygon fill="midnightblue" stroke="midnightblue" points="142.213,-85.041 147.455,-75.8339 137.616,-79.7624 142.213,-85.041"/>
</g>
<!-- Node10 -->
<g id="node10" class="node"><title>Node10</title>
<g id="a_node10"><a xlink:href="libiwl_2config_8h_source.html" target="_top" xlink:title="config.h">
<polygon fill="none" stroke="black" points="13.0977,-56.5 13.0977,-75.5 64.0977,-75.5 64.0977,-56.5 13.0977,-56.5"/>
<text text-anchor="middle" x="38.5977" y="-63.5" font-family="Helvetica,sans-Serif" font-size="10.00">config.h</text>
</a>
</g>
</g>
<!-- Node9&#45;&gt;Node10 -->
<g id="edge13" class="edge"><title>Node9&#45;&gt;Node10</title>
<path fill="none" stroke="midnightblue" d="M86.4397,-112.324C78.0963,-104.42 65.5653,-92.5482 55.4209,-82.9377"/>
<polygon fill="midnightblue" stroke="midnightblue" points="57.5891,-80.1705 47.9224,-75.8339 52.7749,-85.2522 57.5891,-80.1705"/>
</g>
<!-- Node12&#45;&gt;Node2 -->
<g id="edge16" class="edge"><title>Node12&#45;&gt;Node2</title>
<path fill="none" stroke="midnightblue" d="M432.193,-112.328C426.199,-98.2358 412.396,-70.4873 391.598,-56 345.71,-24.0356 279.516,-14.6944 240.59,-12.0158"/>
<polygon fill="midnightblue" stroke="midnightblue" points="240.559,-8.50828 230.373,-11.4238 240.154,-15.4966 240.559,-8.50828"/>
</g>
<!-- Node12&#45;&gt;Node13 -->
<g id="edge17" class="edge"><title>Node12&#45;&gt;Node13</title>
<path fill="none" stroke="midnightblue" d="M422.584,-112.324C410.066,-103.979 390.916,-91.2122 376.126,-81.3524"/>
<polygon fill="midnightblue" stroke="midnightblue" points="377.841,-78.2894 367.58,-75.6545 373.959,-84.1137 377.841,-78.2894"/>
</g>
<!-- Node12&#45;&gt;Node8 -->
<g id="edge18" class="edge"><title>Node12&#45;&gt;Node8</title>
<path fill="none" stroke="midnightblue" d="M470.435,-113.54C521.978,-102.339 613.008,-81.8627 617.598,-76 642.37,-44.3573 585.586,-26.8603 539.641,-18.198"/>
<polygon fill="midnightblue" stroke="midnightblue" points="540.197,-14.7421 529.738,-16.4318 538.968,-21.6334 540.197,-14.7421"/>
</g>
<!-- Node14 -->
<g id="node14" class="node"><title>Node14</title>
<polygon fill="none" stroke="#bfbfbf" points="500.598,-56.5 500.598,-75.5 608.598,-75.5 608.598,-56.5 500.598,-56.5"/>
<text text-anchor="middle" x="554.598" y="-63.5" font-family="Helvetica,sans-Serif" font-size="10.00">boost/shared_ptr.hpp</text>
</g>
<!-- Node12&#45;&gt;Node14 -->
<g id="edge19" class="edge"><title>Node12&#45;&gt;Node14</title>
<path fill="none" stroke="midnightblue" d="M454.454,-112.444C473.864,-103.636 504.328,-89.8116 526.562,-79.722"/>
<polygon fill="midnightblue" stroke="midnightblue" points="528.17,-82.836 535.83,-75.5164 525.277,-76.4615 528.17,-82.836"/>
</g>
<!-- Node15 -->
<g id="node15" class="node"><title>Node15</title>
<polygon fill="none" stroke="#bfbfbf" points="438.598,-56.5 438.598,-75.5 482.598,-75.5 482.598,-56.5 438.598,-56.5"/>
<text text-anchor="middle" x="460.598" y="-63.5" font-family="Helvetica,sans-Serif" font-size="10.00">vector</text>
</g>
<!-- Node12&#45;&gt;Node15 -->
<g id="edge20" class="edge"><title>Node12&#45;&gt;Node15</title>
<path fill="none" stroke="midnightblue" d="M439.726,-112.083C443.112,-104.77 448.014,-94.1814 452.217,-85.1034"/>
<polygon fill="midnightblue" stroke="midnightblue" points="455.521,-86.2962 456.546,-75.7511 449.169,-83.3553 455.521,-86.2962"/>
</g>
<!-- Node16&#45;&gt;Node2 -->
<g id="edge22" class="edge"><title>Node16&#45;&gt;Node2</title>
<path fill="none" stroke="midnightblue" d="M542.791,-112.731C569.987,-103.845 608.984,-89.215 617.598,-76 622.452,-68.5534 623.529,-62.6202 617.598,-56 592.492,-27.9808 331.753,-15.6034 240.18,-12.098"/>
<polygon fill="midnightblue" stroke="midnightblue" points="240.247,-8.59814 230.124,-11.7229 239.986,-15.5933 240.247,-8.59814"/>
</g>
<!-- Node17 -->
<g id="node17" class="node"><title>Node17</title>
<polygon fill="none" stroke="#bfbfbf" points="703.098,-56.5 703.098,-75.5 744.098,-75.5 744.098,-56.5 703.098,-56.5"/>
<text text-anchor="middle" x="723.598" y="-63.5" font-family="Helvetica,sans-Serif" font-size="10.00">string</text>
</g>
<!-- Node16&#45;&gt;Node17 -->
<g id="edge23" class="edge"><title>Node16&#45;&gt;Node17</title>
<path fill="none" stroke="midnightblue" d="M542.79,-113.94C581.588,-103.868 652.609,-85.4297 693.132,-74.9093"/>
<polygon fill="midnightblue" stroke="midnightblue" points="694.181,-78.2533 702.98,-72.3526 692.422,-71.4779 694.181,-78.2533"/>
</g>
<!-- Node19&#45;&gt;Node17 -->
<g id="edge27" class="edge"><title>Node19&#45;&gt;Node17</title>
<path fill="none" stroke="midnightblue" d="M667.362,-112.324C677.364,-104.263 692.484,-92.0765 704.528,-82.3695"/>
<polygon fill="midnightblue" stroke="midnightblue" points="707.048,-84.8343 712.637,-75.8339 702.655,-79.3841 707.048,-84.8343"/>
</g>
<!-- Node20&#45;&gt;Node17 -->
<g id="edge29" class="edge"><title>Node20&#45;&gt;Node17</title>
<path fill="none" stroke="midnightblue" d="M606.623,-112.444C630.109,-103.319 667.451,-88.8125 693.609,-78.6501"/>
<polygon fill="midnightblue" stroke="midnightblue" points="694.981,-81.8721 703.035,-74.9883 692.446,-75.3471 694.981,-81.8721"/>
</g>
<!-- Node21&#45;&gt;Node13 -->
<g id="edge31" class="edge"><title>Node21&#45;&gt;Node13</title>
<path fill="none" stroke="midnightblue" d="M322.873,-112.083C328.24,-104.455 336.115,-93.2645 342.676,-83.9408"/>
<polygon fill="midnightblue" stroke="midnightblue" points="345.547,-85.9434 348.44,-75.7511 339.822,-81.9149 345.547,-85.9434"/>
</g>
<!-- Node21&#45;&gt;Node7 -->
<g id="edge32" class="edge"><title>Node21&#45;&gt;Node7</title>
<path fill="none" stroke="midnightblue" d="M291.404,-112.444C264.655,-103.359 222.195,-88.9388 192.293,-78.7831"/>
<polygon fill="midnightblue" stroke="midnightblue" points="193.268,-75.4182 182.674,-75.5164 191.017,-82.0464 193.268,-75.4182"/>
</g>
<!-- Node21&#45;&gt;Node6 -->
<g id="edge33" class="edge"><title>Node21&#45;&gt;Node6</title>
<path fill="none" stroke="midnightblue" d="M307.6,-112.324C299.403,-104.42 287.092,-92.5482 277.126,-82.9377"/>
<polygon fill="midnightblue" stroke="midnightblue" points="279.387,-80.2558 269.759,-75.8339 274.528,-85.2947 279.387,-80.2558"/>
</g>
</g>
</svg>
        <g id="navigator" transform="translate(0 0)" fill="#404254">
                <rect fill="#f2f5e9" fill-opacity="0.5" stroke="#606060" stroke-width=".5" x="0" y="0" width="60" height="60"/>
                <use id="zoomplus" xlink:href="#zoomPlus" x="17" y="9" onmousedown="handleZoom(evt,'in')"/>
                <use id="zoomminus" xlink:href="#zoomMin" x="42" y="9" onmousedown="handleZoom(evt,'out')"/>
                <use id="reset" xlink:href="#resetDef" x="30" y="36" onmousedown="handleReset()"/>
                <g id="arrowUp" xlink:href="#dirArrow" transform="translate(30 24)" onmousedown="handlePan(0,-1)">
                  <use xlink:href="#rim" fill="#404040">
                        <set attributeName="fill" to="#808080" begin="arrowUp.mouseover" end="arrowUp.mouseout"/>
                  </use>
                  <path fill="none" stroke="white" stroke-width="1.5" d="M0,-3.0v7 M-2.5,-0.5L0,-3.0L2.5,-0.5"/>
                </g>
                <g id="arrowRight" xlink:href="#dirArrow" transform="rotate(90) translate(36 -43)" onmousedown="handlePan(1,0)">
                  <use xlink:href="#rim" fill="#404040">
                        <set attributeName="fill" to="#808080" begin="arrowRight.mouseover" end="arrowRight.mouseout"/>
                  </use>
                  <path fill="none" stroke="white" stroke-width="1.5" d="M0,-3.0v7 M-2.5,-0.5L0,-3.0L2.5,-0.5"/>
                </g>
                <g id="arrowDown" xlink:href="#dirArrow" transform="rotate(180) translate(-30 -48)" onmousedown="handlePan(0,1)">
                  <use xlink:href="#rim" fill="#404040">
                        <set attributeName="fill" to="#808080" begin="arrowDown.mouseover" end="arrowDown.mouseout"/>
                  </use>
                  <path fill="none" stroke="white" stroke-width="1.5" d="M0,-3.0v7 M-2.5,-0.5L0,-3.0L2.5,-0.5"/>
                </g>
                <g id="arrowLeft" xlink:href="#dirArrow" transform="rotate(270) translate(-36 17)" onmousedown="handlePan(-1,0)">
                  <use xlink:href="#rim" fill="#404040">
                        <set attributeName="fill" to="#808080" begin="arrowLeft.mouseover" end="arrowLeft.mouseout"/>
                  </use>
                  <path fill="none" stroke="white" stroke-width="1.5" d="M0,-3.0v7 M-2.5,-0.5L0,-3.0L2.5,-0.5"/>
                </g>
        </g>
        <svg viewBox="0 0 15 15" width="100%" height="30px" preserveAspectRatio="xMaxYMin meet">
         <g id="arrow_out" transform="scale(0.3 0.3)">
          <a xlink:href="local__magnetic_8cc__incl_org.svg" target="_base">
           <rect id="button" ry="5" rx="5" y="6" x="6" height="38" width="38"
                fill="#f2f5e9" fill-opacity="0.5" stroke="#606060" stroke-width="1.0"/>
           <path id="arrow"
             d="M 11.500037,31.436501 C 11.940474,20.09759 22.043105,11.32322 32.158766,21.979434 L 37.068811,17.246167 C 37.068811,17.246167 37.088388,32 37.088388,32 L 22.160133,31.978069 C 22.160133,31.978069 26.997745,27.140456 26.997745,27.140456 C 18.528582,18.264221 13.291696,25.230495 11.500037,31.436501 z"
             style="fill:#404040;"/>
          </a>
         </g>
        </svg>
</svg>
