<?xml version="1.0" encoding="UTF-8" standalone="no"?>
<!DOCTYPE svg PUBLIC "-//W3C//DTD SVG 1.1//EN"
 "http://www.w3.org/Graphics/SVG/1.1/DTD/svg11.dtd">
<!-- Generated by graphviz version 2.30.1 (20140110.0959)
 -->
<!-- Title: local_polar.cc Pages: 1 -->
<!--zoomable 196 -->
<svg id="main" version="1.1" xmlns="http://www.w3.org/2000/svg" xmlns:xlink="http://www.w3.org/1999/xlink" xml:space="preserve" onload="init(evt)">
        <defs>
                <circle id="rim" cx="0" cy="0" r="7"/>
                <circle id="rim2" cx="0" cy="0" r="3.5"/>
                <g id="zoomPlus">
                        <use xlink:href="#rim" fill="#404040">
                                <set attributeName="fill" to="#808080" begin="zoomplus.mouseover" end="zoomplus.mouseout"/>
                        </use>
                        <path d="M-4,0h8M0,-4v8" fill="none" stroke="white" stroke-width="1.5" pointer-events="none"/>
                </g>
                <g id="zoomMin">
                        <use xlink:href="#rim" fill="#404040">
                                <set attributeName="fill" to="#808080" begin="zoomminus.mouseover" end="zoomminus.mouseout"/>
                        </use>
                        <path d="M-4,0h8" fill="none" stroke="white" stroke-width="1.5" pointer-events="none"/>
                </g>
                <g id="dirArrow">
                        <path fill="none" stroke="white" stroke-width="1.5" d="M0,-3.0v7 M-2.5,-0.5L0,-3.0L2.5,-0.5"/>
                </g>
               <g id="resetDef">
                       <use xlink:href="#rim2" fill="#404040">
                               <set attributeName="fill" to="#808080" begin="reset.mouseover" end="reset.mouseout"/>
                       </use>
               </g>
        </defs>

<script type="text/javascript">
var viewWidth = 977;
var viewHeight = 196;
var sectionId = 'dynsection-0';
</script>
<script xlink:href="svgpan.js"/>
<svg id="graph" class="graph">
<g id="viewport">
<title>local_polar.cc</title>
<!-- Node1 -->
<g id="node1" class="node"><title>Node1</title>
<polygon fill="#bfbfbf" stroke="black" points="428.098,-168.5 428.098,-187.5 505.098,-187.5 505.098,-168.5 428.098,-168.5"/>
<text text-anchor="middle" x="466.598" y="-175.5" font-family="Helvetica,sans-Serif" font-size="10.00">local_polar.cc</text>
</g>
<!-- Node2 -->
<g id="node2" class="node"><title>Node2</title>
<polygon fill="none" stroke="#bfbfbf" points="187.098,-0.5 187.098,-19.5 230.098,-19.5 230.098,-0.5 187.098,-0.5"/>
<text text-anchor="middle" x="208.598" y="-7.5" font-family="Helvetica,sans-Serif" font-size="10.00">cstdio</text>
</g>
<!-- Node1&#45;&gt;Node2 -->
<g id="edge1" class="edge"><title>Node1&#45;&gt;Node2</title>
<path fill="none" stroke="midnightblue" d="M428.097,-176.184C338.822,-173.753 120.374,-164.558 55.5977,-132 25.2509,-116.747 16.0123,-107.614 3.59775,-76 0.348702,-67.7262 -1.97323,-62.9265 3.59775,-56 24.9626,-29.4366 124.609,-17.664 176.693,-13.2515"/>
<polygon fill="midnightblue" stroke="midnightblue" points="177.053,-16.7339 186.739,-12.4419 176.49,-9.75655 177.053,-16.7339"/>
</g>
<!-- Node3 -->
<g id="node3" class="node"><title>Node3</title>
<polygon fill="none" stroke="#bfbfbf" points="618.098,-112.5 618.098,-131.5 663.098,-131.5 663.098,-112.5 618.098,-112.5"/>
<text text-anchor="middle" x="640.598" y="-119.5" font-family="Helvetica,sans-Serif" font-size="10.00">cstdlib</text>
</g>
<!-- Node1&#45;&gt;Node3 -->
<g id="edge2" class="edge"><title>Node1&#45;&gt;Node3</title>
<path fill="none" stroke="midnightblue" d="M494.169,-168.444C525.172,-158.822 575.461,-143.215 608.284,-133.028"/>
<polygon fill="midnightblue" stroke="midnightblue" points="609.356,-136.36 617.869,-130.054 607.281,-129.675 609.356,-136.36"/>
</g>
<!-- Node4 -->
<g id="node4" class="node"><title>Node4</title>
<polygon fill="none" stroke="#bfbfbf" points="681.598,-112.5 681.598,-131.5 725.598,-131.5 725.598,-112.5 681.598,-112.5"/>
<text text-anchor="middle" x="703.598" y="-119.5" font-family="Helvetica,sans-Serif" font-size="10.00">cmath</text>
</g>
<!-- Node1&#45;&gt;Node4 -->
<g id="edge3" class="edge"><title>Node1&#45;&gt;Node4</title>
<path fill="none" stroke="midnightblue" d="M505.292,-169.205C544.607,-161.13 607.464,-147.796 671.409,-131.924"/>
<polygon fill="midnightblue" stroke="midnightblue" points="672.41,-135.282 681.262,-129.46 670.712,-128.491 672.41,-135.282"/>
</g>
<!-- Node5 -->
<g id="node5" class="node"><title>Node5</title>
<polygon fill="none" stroke="#bfbfbf" points="743.598,-112.5 743.598,-131.5 789.598,-131.5 789.598,-112.5 743.598,-112.5"/>
<text text-anchor="middle" x="766.598" y="-119.5" font-family="Helvetica,sans-Serif" font-size="10.00">cstring</text>
</g>
<!-- Node1&#45;&gt;Node5 -->
<g id="edge4" class="edge"><title>Node1&#45;&gt;Node5</title>
<path fill="none" stroke="midnightblue" d="M505.463,-171.816C555.886,-164.797 646.736,-151.152 733.27,-132.106"/>
<polygon fill="midnightblue" stroke="midnightblue" points="734.254,-135.472 743.253,-129.879 732.731,-128.64 734.254,-135.472"/>
</g>
<!-- Node6 -->
<g id="node6" class="node"><title>Node6</title>
<g id="a_node6"><a xlink:href="libciomr_8h_source.html" target="_top" xlink:title="libciomr/libciomr.h">
<polygon fill="none" stroke="black" points="213.098,-56.5 213.098,-75.5 308.098,-75.5 308.098,-56.5 213.098,-56.5"/>
<text text-anchor="middle" x="260.598" y="-63.5" font-family="Helvetica,sans-Serif" font-size="10.00">libciomr/libciomr.h</text>
</a>
</g>
</g>
<!-- Node1&#45;&gt;Node6 -->
<g id="edge5" class="edge"><title>Node1&#45;&gt;Node6</title>
<path fill="none" stroke="midnightblue" d="M427.7,-173.205C376.794,-167.407 291.574,-154.567 270.598,-132 259.312,-119.858 257.611,-100.582 258.253,-86.1684"/>
<polygon fill="midnightblue" stroke="midnightblue" points="261.768,-86.1428 259.132,-75.8811 254.793,-85.5469 261.768,-86.1428"/>
</g>
<!-- Node7 -->
<g id="node7" class="node"><title>Node7</title>
<g id="a_node7"><a xlink:href="psio_8h_source.html" target="_top" xlink:title="libpsio/psio.h">
<polygon fill="none" stroke="black" points="120.598,-56.5 120.598,-75.5 194.598,-75.5 194.598,-56.5 120.598,-56.5"/>
<text text-anchor="middle" x="157.598" y="-63.5" font-family="Helvetica,sans-Serif" font-size="10.00">libpsio/psio.h</text>
</a>
</g>
</g>
<!-- Node1&#45;&gt;Node7 -->
<g id="edge7" class="edge"><title>Node1&#45;&gt;Node7</title>
<path fill="none" stroke="midnightblue" d="M427.971,-172.951C385.047,-167.489 314.313,-155.594 257.598,-132 226.761,-119.172 195.084,-96.7049 175.868,-81.838"/>
<polygon fill="midnightblue" stroke="midnightblue" points="177.982,-79.0483 167.963,-75.6039 173.648,-84.5446 177.982,-79.0483"/>
</g>
<!-- Node9 -->
<g id="node9" class="node"><title>Node9</title>
<g id="a_node9"><a xlink:href="iwl_8h_source.html" target="_top" xlink:title="libiwl/iwl.h">
<polygon fill="none" stroke="black" points="64.5977,-112.5 64.5977,-131.5 126.598,-131.5 126.598,-112.5 64.5977,-112.5"/>
<text text-anchor="middle" x="95.5977" y="-119.5" font-family="Helvetica,sans-Serif" font-size="10.00">libiwl/iwl.h</text>
</a>
</g>
</g>
<!-- Node1&#45;&gt;Node9 -->
<g id="edge10" class="edge"><title>Node1&#45;&gt;Node9</title>
<path fill="none" stroke="midnightblue" d="M427.944,-171.374C357.542,-161.127 209.024,-139.509 136.79,-128.996"/>
<polygon fill="midnightblue" stroke="midnightblue" points="137.104,-125.505 126.704,-127.528 136.095,-132.432 137.104,-125.505"/>
</g>
<!-- Node11 -->
<g id="node11" class="node"><title>Node11</title>
<g id="a_node11"><a xlink:href="chkpt_8h_source.html" target="_top" xlink:title="libchkpt/chkpt.h">
<polygon fill="none" stroke="black" points="807.598,-112.5 807.598,-131.5 893.598,-131.5 893.598,-112.5 807.598,-112.5"/>
<text text-anchor="middle" x="850.598" y="-119.5" font-family="Helvetica,sans-Serif" font-size="10.00">libchkpt/chkpt.h</text>
</a>
</g>
</g>
<!-- Node1&#45;&gt;Node11 -->
<g id="edge14" class="edge"><title>Node1&#45;&gt;Node11</title>
<path fill="none" stroke="midnightblue" d="M505.257,-172.227C565.432,-164.696 685.385,-149.276 797.371,-132.143"/>
<polygon fill="midnightblue" stroke="midnightblue" points="798.136,-135.566 807.487,-130.587 797.072,-128.648 798.136,-135.566"/>
</g>
<!-- Node12 -->
<g id="node12" class="node"><title>Node12</title>
<g id="a_node12"><a xlink:href="lib_2libdpd_2dpd_8h.html" target="_top" xlink:title="Enter brief description of file here.">
<polygon fill="none" stroke="black" points="392.098,-112.5 392.098,-131.5 461.098,-131.5 461.098,-112.5 392.098,-112.5"/>
<text text-anchor="middle" x="426.598" y="-119.5" font-family="Helvetica,sans-Serif" font-size="10.00">libdpd/dpd.h</text>
</a>
</g>
</g>
<!-- Node1&#45;&gt;Node12 -->
<g id="edge15" class="edge"><title>Node1&#45;&gt;Node12</title>
<path fill="none" stroke="midnightblue" d="M459.993,-168.083C454.343,-160.455 446.053,-149.264 439.146,-139.941"/>
<polygon fill="midnightblue" stroke="midnightblue" points="441.845,-137.703 433.08,-131.751 436.22,-141.87 441.845,-137.703"/>
</g>
<!-- Node16 -->
<g id="node16" class="node"><title>Node16</title>
<g id="a_node16"><a xlink:href="qt_8h.html" target="_top" xlink:title="Header file for the Quantum Trio LibraryDavid Sherrill 1994.">
<polygon fill="none" stroke="black" points="479.598,-112.5 479.598,-131.5 533.598,-131.5 533.598,-112.5 479.598,-112.5"/>
<text text-anchor="middle" x="506.598" y="-119.5" font-family="Helvetica,sans-Serif" font-size="10.00">libqt/qt.h</text>
</a>
</g>
</g>
<!-- Node1&#45;&gt;Node16 -->
<g id="edge21" class="edge"><title>Node1&#45;&gt;Node16</title>
<path fill="none" stroke="midnightblue" d="M473.203,-168.083C478.853,-160.455 487.143,-149.264 494.049,-139.941"/>
<polygon fill="midnightblue" stroke="midnightblue" points="496.976,-141.87 500.115,-131.751 491.351,-137.703 496.976,-141.87"/>
</g>
<!-- Node13 -->
<g id="node13" class="node"><title>Node13</title>
<g id="a_node13"><a xlink:href="psifiles_8h_source.html" target="_top" xlink:title="psifiles.h">
<polygon fill="none" stroke="black" points="326.598,-56.5 326.598,-75.5 382.598,-75.5 382.598,-56.5 326.598,-56.5"/>
<text text-anchor="middle" x="354.598" y="-63.5" font-family="Helvetica,sans-Serif" font-size="10.00">psifiles.h</text>
</a>
</g>
</g>
<!-- Node1&#45;&gt;Node13 -->
<g id="edge24" class="edge"><title>Node1&#45;&gt;Node13</title>
<path fill="none" stroke="midnightblue" d="M440.914,-168.47C422.595,-161.256 398.488,-149.303 382.598,-132 370.531,-118.861 363.145,-99.718 359.012,-85.6076"/>
<polygon fill="midnightblue" stroke="midnightblue" points="362.302,-84.3577 356.367,-75.5811 355.534,-86.1431 362.302,-84.3577"/>
</g>
<!-- Node18 -->
<g id="node18" class="node"><title>Node18</title>
<g id="a_node18"><a xlink:href="ccsort_2Local_8h.html" target="_top" xlink:title="Enter brief description of file here.">
<polygon fill="none" stroke="black" points="551.598,-112.5 551.598,-131.5 599.598,-131.5 599.598,-112.5 551.598,-112.5"/>
<text text-anchor="middle" x="575.598" y="-119.5" font-family="Helvetica,sans-Serif" font-size="10.00">Local.h</text>
</a>
</g>
</g>
<!-- Node1&#45;&gt;Node18 -->
<g id="edge25" class="edge"><title>Node1&#45;&gt;Node18</title>
<path fill="none" stroke="midnightblue" d="M484.11,-168.324C501.67,-159.625 528.929,-146.12 549.129,-136.113"/>
<polygon fill="midnightblue" stroke="midnightblue" points="550.722,-139.23 558.128,-131.655 547.614,-132.958 550.722,-139.23"/>
</g>
<!-- Node19 -->
<g id="node19" class="node"><title>Node19</title>
<g id="a_node19"><a xlink:href="ccsort_2MOInfo_8h.html" target="_top" xlink:title="Enter brief description of file here.">
<polygon fill="none" stroke="black" points="912.098,-112.5 912.098,-131.5 969.098,-131.5 969.098,-112.5 912.098,-112.5"/>
<text text-anchor="middle" x="940.598" y="-119.5" font-family="Helvetica,sans-Serif" font-size="10.00">MOInfo.h</text>
</a>
</g>
</g>
<!-- Node1&#45;&gt;Node19 -->
<g id="edge27" class="edge"><title>Node1&#45;&gt;Node19</title>
<path fill="none" stroke="midnightblue" d="M505.318,-174.696C580.067,-169.884 749.553,-157.202 902.028,-131.869"/>
<polygon fill="midnightblue" stroke="midnightblue" points="902.765,-135.294 912.045,-130.182 901.603,-128.391 902.765,-135.294"/>
</g>
<!-- Node20 -->
<g id="node20" class="node"><title>Node20</title>
<g id="a_node20"><a xlink:href="ccsort_2globals_8h.html" target="_top" xlink:title="Enter brief description of file here.">
<polygon fill="none" stroke="black" points="279.598,-112.5 279.598,-131.5 335.598,-131.5 335.598,-112.5 279.598,-112.5"/>
<text text-anchor="middle" x="307.598" y="-119.5" font-family="Helvetica,sans-Serif" font-size="10.00">globals.h</text>
</a>
</g>
</g>
<!-- Node1&#45;&gt;Node20 -->
<g id="edge28" class="edge"><title>Node1&#45;&gt;Node20</title>
<path fill="none" stroke="midnightblue" d="M441.404,-168.444C414.655,-159.359 372.195,-144.939 342.293,-134.783"/>
<polygon fill="midnightblue" stroke="midnightblue" points="343.268,-131.418 332.674,-131.516 341.017,-138.046 343.268,-131.418"/>
</g>
<!-- Node6&#45;&gt;Node2 -->
<g id="edge6" class="edge"><title>Node6&#45;&gt;Node2</title>
<path fill="none" stroke="midnightblue" d="M252.011,-56.083C244.439,-48.2195 233.22,-36.5688 224.083,-27.0813"/>
<polygon fill="midnightblue" stroke="midnightblue" points="226.482,-24.5266 217.025,-19.7511 221.44,-29.3821 226.482,-24.5266"/>
</g>
<!-- Node7&#45;&gt;Node2 -->
<g id="edge8" class="edge"><title>Node7&#45;&gt;Node2</title>
<path fill="none" stroke="midnightblue" d="M166.019,-56.083C173.446,-48.2195 184.449,-36.5688 193.41,-27.0813"/>
<polygon fill="midnightblue" stroke="midnightblue" points="196.011,-29.4244 200.333,-19.7511 190.922,-24.618 196.011,-29.4244"/>
</g>
<!-- Node8 -->
<g id="node8" class="node"><title>Node8</title>
<g id="a_node8"><a xlink:href="libpsio_2config_8h_source.html" target="_top" xlink:title="libpsio/config.h">
<polygon fill="none" stroke="black" points="447.598,-0.5 447.598,-19.5 529.598,-19.5 529.598,-0.5 447.598,-0.5"/>
<text text-anchor="middle" x="488.598" y="-7.5" font-family="Helvetica,sans-Serif" font-size="10.00">libpsio/config.h</text>
</a>
</g>
</g>
<!-- Node7&#45;&gt;Node8 -->
<g id="edge9" class="edge"><title>Node7&#45;&gt;Node8</title>
<path fill="none" stroke="midnightblue" d="M194.733,-57.6133C197.73,-57.0542 200.713,-56.5098 203.598,-56 285.096,-41.5983 380.106,-27.0426 437.242,-18.5302"/>
<polygon fill="midnightblue" stroke="midnightblue" points="438.081,-21.944 447.458,-17.0124 437.053,-15.02 438.081,-21.944"/>
</g>
<!-- Node9&#45;&gt;Node2 -->
<g id="edge11" class="edge"><title>Node9&#45;&gt;Node2</title>
<path fill="none" stroke="midnightblue" d="M95.457,-112.385C95.6859,-98.8644 98.0045,-72.5072 111.598,-56 128.102,-35.9584 155.522,-24.3843 177.006,-18.0074"/>
<polygon fill="midnightblue" stroke="midnightblue" points="177.978,-21.3703 186.7,-15.3557 176.131,-14.6183 177.978,-21.3703"/>
</g>
<!-- Node9&#45;&gt;Node7 -->
<g id="edge12" class="edge"><title>Node9&#45;&gt;Node7</title>
<path fill="none" stroke="midnightblue" d="M105.559,-112.324C114.724,-104.341 128.535,-92.3128 139.626,-82.6529"/>
<polygon fill="midnightblue" stroke="midnightblue" points="142.213,-85.041 147.455,-75.8339 137.616,-79.7624 142.213,-85.041"/>
</g>
<!-- Node10 -->
<g id="node10" class="node"><title>Node10</title>
<g id="a_node10"><a xlink:href="libiwl_2config_8h_source.html" target="_top" xlink:title="config.h">
<polygon fill="none" stroke="black" points="13.0977,-56.5 13.0977,-75.5 64.0977,-75.5 64.0977,-56.5 13.0977,-56.5"/>
<text text-anchor="middle" x="38.5977" y="-63.5" font-family="Helvetica,sans-Serif" font-size="10.00">config.h</text>
</a>
</g>
</g>
<!-- Node9&#45;&gt;Node10 -->
<g id="edge13" class="edge"><title>Node9&#45;&gt;Node10</title>
<path fill="none" stroke="midnightblue" d="M86.4397,-112.324C78.0963,-104.42 65.5653,-92.5482 55.4209,-82.9377"/>
<polygon fill="midnightblue" stroke="midnightblue" points="57.5891,-80.1705 47.9224,-75.8339 52.7749,-85.2522 57.5891,-80.1705"/>
</g>
<!-- Node12&#45;&gt;Node2 -->
<g id="edge16" class="edge"><title>Node12&#45;&gt;Node2</title>
<path fill="none" stroke="midnightblue" d="M424.406,-112.352C420.381,-98.2958 410.445,-70.597 391.598,-56 347.052,-21.5004 279.626,-13.0529 240.261,-11.219"/>
<polygon fill="midnightblue" stroke="midnightblue" points="240.297,-7.71819 230.181,-10.8664 240.052,-14.7139 240.297,-7.71819"/>
</g>
<!-- Node12&#45;&gt;Node13 -->
<g id="edge17" class="edge"><title>Node12&#45;&gt;Node13</title>
<path fill="none" stroke="midnightblue" d="M415.03,-112.324C404.178,-104.185 387.717,-91.8395 374.714,-82.0874"/>
<polygon fill="midnightblue" stroke="midnightblue" points="376.476,-79.0339 366.376,-75.8339 372.276,-84.6339 376.476,-79.0339"/>
</g>
<!-- Node12&#45;&gt;Node8 -->
<g id="edge18" class="edge"><title>Node12&#45;&gt;Node8</title>
<path fill="none" stroke="midnightblue" d="M461.518,-113.346C515.961,-101.333 615.146,-79.0966 617.598,-76 642.543,-44.4941 585.717,-26.9626 539.714,-18.2554"/>
<polygon fill="midnightblue" stroke="midnightblue" points="540.259,-14.7975 529.799,-16.4792 539.025,-21.6878 540.259,-14.7975"/>
</g>
<!-- Node14 -->
<g id="node14" class="node"><title>Node14</title>
<polygon fill="none" stroke="#bfbfbf" points="500.598,-56.5 500.598,-75.5 608.598,-75.5 608.598,-56.5 500.598,-56.5"/>
<text text-anchor="middle" x="554.598" y="-63.5" font-family="Helvetica,sans-Serif" font-size="10.00">boost/shared_ptr.hpp</text>
</g>
<!-- Node12&#45;&gt;Node14 -->
<g id="edge19" class="edge"><title>Node12&#45;&gt;Node14</title>
<path fill="none" stroke="midnightblue" d="M446.88,-112.444C467.945,-103.557 501.115,-89.5632 525.083,-79.4514"/>
<polygon fill="midnightblue" stroke="midnightblue" points="526.557,-82.6283 534.411,-75.5164 523.837,-76.1787 526.557,-82.6283"/>
</g>
<!-- Node15 -->
<g id="node15" class="node"><title>Node15</title>
<polygon fill="none" stroke="#bfbfbf" points="438.598,-56.5 438.598,-75.5 482.598,-75.5 482.598,-56.5 438.598,-56.5"/>
<text text-anchor="middle" x="460.598" y="-63.5" font-family="Helvetica,sans-Serif" font-size="10.00">vector</text>
</g>
<!-- Node12&#45;&gt;Node15 -->
<g id="edge20" class="edge"><title>Node12&#45;&gt;Node15</title>
<path fill="none" stroke="midnightblue" d="M432.212,-112.083C436.965,-104.534 443.916,-93.4948 449.749,-84.2298"/>
<polygon fill="midnightblue" stroke="midnightblue" points="452.721,-86.0783 455.088,-75.7511 446.798,-82.3486 452.721,-86.0783"/>
</g>
<!-- Node16&#45;&gt;Node2 -->
<g id="edge22" class="edge"><title>Node16&#45;&gt;Node2</title>
<path fill="none" stroke="midnightblue" d="M533.734,-113.763C563.351,-105.251 607.868,-90.4436 617.598,-76 622.564,-68.6278 623.529,-62.6202 617.598,-56 592.492,-27.9808 331.753,-15.6034 240.18,-12.098"/>
<polygon fill="midnightblue" stroke="midnightblue" points="240.247,-8.59814 230.124,-11.7229 239.986,-15.5933 240.247,-8.59814"/>
</g>
<!-- Node17 -->
<g id="node17" class="node"><title>Node17</title>
<polygon fill="none" stroke="#bfbfbf" points="703.098,-56.5 703.098,-75.5 744.098,-75.5 744.098,-56.5 703.098,-56.5"/>
<text text-anchor="middle" x="723.598" y="-63.5" font-family="Helvetica,sans-Serif" font-size="10.00">string</text>
</g>
<!-- Node16&#45;&gt;Node17 -->
<g id="edge23" class="edge"><title>Node16&#45;&gt;Node17</title>
<path fill="none" stroke="midnightblue" d="M533.722,-114.209C536.717,-113.462 539.722,-112.714 542.598,-112 607.461,-95.8954 623.789,-92.3222 688.598,-76 690.043,-75.6361 691.521,-75.2622 693.013,-74.8834"/>
<polygon fill="midnightblue" stroke="midnightblue" points="694.055,-78.2297 702.878,-72.3641 692.323,-71.4474 694.055,-78.2297"/>
</g>
<!-- Node18&#45;&gt;Node17 -->
<g id="edge26" class="edge"><title>Node18&#45;&gt;Node17</title>
<path fill="none" stroke="midnightblue" d="M599.049,-112.444C624.456,-103.173 665.093,-88.3464 692.997,-78.1652"/>
<polygon fill="midnightblue" stroke="midnightblue" points="694.455,-81.359 702.649,-74.6433 692.055,-74.783 694.455,-81.359"/>
</g>
<!-- Node20&#45;&gt;Node13 -->
<g id="edge29" class="edge"><title>Node20&#45;&gt;Node13</title>
<path fill="none" stroke="midnightblue" d="M315.359,-112.083C322.135,-104.298 332.141,-92.8015 340.353,-83.3665"/>
<polygon fill="midnightblue" stroke="midnightblue" points="343.056,-85.592 346.981,-75.7511 337.776,-80.9963 343.056,-85.592"/>
</g>
<!-- Node20&#45;&gt;Node7 -->
<g id="edge30" class="edge"><title>Node20&#45;&gt;Node7</title>
<path fill="none" stroke="midnightblue" d="M283.83,-112.444C258.705,-103.399 218.887,-89.064 190.697,-78.9158"/>
<polygon fill="midnightblue" stroke="midnightblue" points="191.849,-75.6106 181.254,-75.5164 189.478,-82.1968 191.849,-75.6106"/>
</g>
<!-- Node20&#45;&gt;Node6 -->
<g id="edge31" class="edge"><title>Node20&#45;&gt;Node6</title>
<path fill="none" stroke="midnightblue" d="M299.837,-112.083C293.061,-104.298 283.055,-92.8015 274.843,-83.3665"/>
<polygon fill="midnightblue" stroke="midnightblue" points="277.42,-80.9963 268.214,-75.7511 272.14,-85.592 277.42,-80.9963"/>
</g>
</g>
</svg>
        <g id="navigator" transform="translate(0 0)" fill="#404254">
                <rect fill="#f2f5e9" fill-opacity="0.5" stroke="#606060" stroke-width=".5" x="0" y="0" width="60" height="60"/>
                <use id="zoomplus" xlink:href="#zoomPlus" x="17" y="9" onmousedown="handleZoom(evt,'in')"/>
                <use id="zoomminus" xlink:href="#zoomMin" x="42" y="9" onmousedown="handleZoom(evt,'out')"/>
                <use id="reset" xlink:href="#resetDef" x="30" y="36" onmousedown="handleReset()"/>
                <g id="arrowUp" xlink:href="#dirArrow" transform="translate(30 24)" onmousedown="handlePan(0,-1)">
                  <use xlink:href="#rim" fill="#404040">
                        <set attributeName="fill" to="#808080" begin="arrowUp.mouseover" end="arrowUp.mouseout"/>
                  </use>
                  <path fill="none" stroke="white" stroke-width="1.5" d="M0,-3.0v7 M-2.5,-0.5L0,-3.0L2.5,-0.5"/>
                </g>
                <g id="arrowRight" xlink:href="#dirArrow" transform="rotate(90) translate(36 -43)" onmousedown="handlePan(1,0)">
                  <use xlink:href="#rim" fill="#404040">
                        <set attributeName="fill" to="#808080" begin="arrowRight.mouseover" end="arrowRight.mouseout"/>
                  </use>
                  <path fill="none" stroke="white" stroke-width="1.5" d="M0,-3.0v7 M-2.5,-0.5L0,-3.0L2.5,-0.5"/>
                </g>
                <g id="arrowDown" xlink:href="#dirArrow" transform="rotate(180) translate(-30 -48)" onmousedown="handlePan(0,1)">
                  <use xlink:href="#rim" fill="#404040">
                        <set attributeName="fill" to="#808080" begin="arrowDown.mouseover" end="arrowDown.mouseout"/>
                  </use>
                  <path fill="none" stroke="white" stroke-width="1.5" d="M0,-3.0v7 M-2.5,-0.5L0,-3.0L2.5,-0.5"/>
                </g>
                <g id="arrowLeft" xlink:href="#dirArrow" transform="rotate(270) translate(-36 17)" onmousedown="handlePan(-1,0)">
                  <use xlink:href="#rim" fill="#404040">
                        <set attributeName="fill" to="#808080" begin="arrowLeft.mouseover" end="arrowLeft.mouseout"/>
                  </use>
                  <path fill="none" stroke="white" stroke-width="1.5" d="M0,-3.0v7 M-2.5,-0.5L0,-3.0L2.5,-0.5"/>
                </g>
        </g>
        <svg viewBox="0 0 15 15" width="100%" height="30px" preserveAspectRatio="xMaxYMin meet">
         <g id="arrow_out" transform="scale(0.3 0.3)">
          <a xlink:href="local__polar_8cc__incl_org.svg" target="_base">
           <rect id="button" ry="5" rx="5" y="6" x="6" height="38" width="38"
                fill="#f2f5e9" fill-opacity="0.5" stroke="#606060" stroke-width="1.0"/>
           <path id="arrow"
             d="M 11.500037,31.436501 C 11.940474,20.09759 22.043105,11.32322 32.158766,21.979434 L 37.068811,17.246167 C 37.068811,17.246167 37.088388,32 37.088388,32 L 22.160133,31.978069 C 22.160133,31.978069 26.997745,27.140456 26.997745,27.140456 C 18.528582,18.264221 13.291696,25.230495 11.500037,31.436501 z"
             style="fill:#404040;"/>
          </a>
         </g>
        </svg>
</svg>
