<?xml version="1.0" encoding="UTF-8" standalone="no"?>
<!DOCTYPE svg PUBLIC "-//W3C//DTD SVG 1.1//EN"
 "http://www.w3.org/Graphics/SVG/1.1/DTD/svg11.dtd">
<!-- Generated by graphviz version 2.30.1 (20140110.0959)
 -->
<!-- Title: mem.h Pages: 1 -->
<!--zoomable 488 -->
<svg id="main" version="1.1" xmlns="http://www.w3.org/2000/svg" xmlns:xlink="http://www.w3.org/1999/xlink" xml:space="preserve" onload="init(evt)">
        <defs>
                <circle id="rim" cx="0" cy="0" r="7"/>
                <circle id="rim2" cx="0" cy="0" r="3.5"/>
                <g id="zoomPlus">
                        <use xlink:href="#rim" fill="#404040">
                                <set attributeName="fill" to="#808080" begin="zoomplus.mouseover" end="zoomplus.mouseout"/>
                        </use>
                        <path d="M-4,0h8M0,-4v8" fill="none" stroke="white" stroke-width="1.5" pointer-events="none"/>
                </g>
                <g id="zoomMin">
                        <use xlink:href="#rim" fill="#404040">
                                <set attributeName="fill" to="#808080" begin="zoomminus.mouseover" end="zoomminus.mouseout"/>
                        </use>
                        <path d="M-4,0h8" fill="none" stroke="white" stroke-width="1.5" pointer-events="none"/>
                </g>
                <g id="dirArrow">
                        <path fill="none" stroke="white" stroke-width="1.5" d="M0,-3.0v7 M-2.5,-0.5L0,-3.0L2.5,-0.5"/>
                </g>
               <g id="resetDef">
                       <use xlink:href="#rim2" fill="#404040">
                               <set attributeName="fill" to="#808080" begin="reset.mouseover" end="reset.mouseout"/>
                       </use>
               </g>
        </defs>

<script type="text/javascript">
var viewWidth = 1796;
var viewHeight = 488;
var sectionId = 'dynsection-0';
</script>
<script xlink:href="svgpan.js"/>
<svg id="graph" class="graph">
<g id="viewport">
<title>mem.h</title>
<!-- Node1 -->
<g id="node1" class="node"><title>Node1</title>
<polygon fill="#bfbfbf" stroke="black" points="640.5,-460.5 640.5,-479.5 687.5,-479.5 687.5,-460.5 640.5,-460.5"/>
<text text-anchor="middle" x="664" y="-467.5" font-family="Helvetica,sans-Serif" font-size="10.00">mem.h</text>
</g>
<!-- Node2 -->
<g id="node2" class="node"><title>Node2</title>
<g id="a_node2"><a xlink:href="simple_8h.html" target="_top" xlink:title="simple internal coordinate base class">
<polygon fill="none" stroke="black" points="143.5,-404.5 143.5,-423.5 196.5,-423.5 196.5,-404.5 143.5,-404.5"/>
<text text-anchor="middle" x="170" y="-411.5" font-family="Helvetica,sans-Serif" font-size="10.00">simple.h</text>
</a>
</g>
</g>
<!-- Node1&#45;&gt;Node2 -->
<g id="edge1" class="edge"><title>Node1&#45;&gt;Node2</title>
<path fill="none" stroke="midnightblue" d="M630.197,-465.305C537.398,-455.161 280.058,-427.031 196.543,-417.901"/>
<polygon fill="midnightblue" stroke="midnightblue" points="629.852,-468.788 640.173,-466.395 630.613,-461.829 629.852,-468.788"/>
</g>
<!-- Node10 -->
<g id="node10" class="node"><title>Node10</title>
<g id="a_node10"><a xlink:href="frag_8cc.html" target="_top" xlink:title="fragment (molecule) class">
<polygon fill="none" stroke="black" points="68.5,-6.5 68.5,-25.5 115.5,-25.5 115.5,-6.5 68.5,-6.5"/>
<text text-anchor="middle" x="92" y="-13.5" font-family="Helvetica,sans-Serif" font-size="10.00">frag.cc</text>
</a>
</g>
</g>
<!-- Node1&#45;&gt;Node10 -->
<g id="edge50" class="edge"><title>Node1&#45;&gt;Node10</title>
<path fill="none" stroke="midnightblue" d="M630.324,-466.648C536.333,-459.166 278,-431.967 278,-359 278,-359 278,-359 278,-133 278,-113.21 155.211,-49.0008 109.165,-25.6179"/>
<polygon fill="midnightblue" stroke="midnightblue" points="630.196,-470.148 640.435,-467.426 630.733,-463.169 630.196,-470.148"/>
</g>
<!-- Node15 -->
<g id="node15" class="node"><title>Node15</title>
<g id="a_node15"><a xlink:href="linear__algebra_8cc.html" target="_top" xlink:title="linear algebra functions which call lapack and blas are in global namespace and preceded with opt...">
<polygon fill="none" stroke="black" points="1698,-6.5 1698,-25.5 1788,-25.5 1788,-6.5 1698,-6.5"/>
<text text-anchor="middle" x="1743" y="-13.5" font-family="Helvetica,sans-Serif" font-size="10.00">linear_algebra.cc</text>
</a>
</g>
</g>
<!-- Node1&#45;&gt;Node15 -->
<g id="edge51" class="edge"><title>Node1&#45;&gt;Node15</title>
<path fill="none" stroke="midnightblue" d="M697.679,-466.908C793.541,-460.039 1061,-434.14 1061,-359 1061,-359 1061,-359 1061,-133 1061,8.12948 1550.06,-61.8313 1688,-32 1696.51,-30.159 1705.67,-27.8112 1714.03,-25.5226"/>
<polygon fill="midnightblue" stroke="midnightblue" points="697.38,-463.42 687.645,-467.601 697.863,-470.403 697.38,-463.42"/>
</g>
<!-- Node30 -->
<g id="node30" class="node"><title>Node30</title>
<g id="a_node30"><a xlink:href="mem_8cc.html" target="_top" xlink:title="mem.cc">
<polygon fill="none" stroke="black" points="1089,-404.5 1089,-423.5 1141,-423.5 1141,-404.5 1089,-404.5"/>
<text text-anchor="middle" x="1115" y="-411.5" font-family="Helvetica,sans-Serif" font-size="10.00">mem.cc</text>
</a>
</g>
</g>
<!-- Node1&#45;&gt;Node30 -->
<g id="edge52" class="edge"><title>Node1&#45;&gt;Node30</title>
<path fill="none" stroke="midnightblue" d="M697.828,-466.589C768.317,-461.282 935.93,-447.183 1075,-424 1079.49,-423.251 1084.24,-422.314 1088.83,-421.33"/>
<polygon fill="midnightblue" stroke="midnightblue" points="697.471,-463.106 687.757,-467.337 697.989,-470.087 697.471,-463.106"/>
</g>
<!-- Node3 -->
<g id="node3" class="node"><title>Node3</title>
<g id="a_node3"><a xlink:href="bend_8h.html" target="_top" xlink:title="BEND class declaration.">
<polygon fill="none" stroke="black" points="47,-348.5 47,-367.5 93,-367.5 93,-348.5 47,-348.5"/>
<text text-anchor="middle" x="70" y="-355.5" font-family="Helvetica,sans-Serif" font-size="10.00">bend.h</text>
</a>
</g>
</g>
<!-- Node2&#45;&gt;Node3 -->
<g id="edge2" class="edge"><title>Node2&#45;&gt;Node3</title>
<path fill="none" stroke="midnightblue" d="M144.912,-399.453C126.451,-389.483 101.903,-376.228 86.0269,-367.655"/>
<polygon fill="midnightblue" stroke="midnightblue" points="143.471,-402.652 153.933,-404.324 146.797,-396.493 143.471,-402.652"/>
</g>
<!-- Node5 -->
<g id="node5" class="node"><title>Node5</title>
<g id="a_node5"><a xlink:href="intcos_8h.html" target="_top" xlink:title="internal coordinate includes class declaration">
<polygon fill="none" stroke="black" points="116.5,-292.5 116.5,-311.5 167.5,-311.5 167.5,-292.5 116.5,-292.5"/>
<text text-anchor="middle" x="142" y="-299.5" font-family="Helvetica,sans-Serif" font-size="10.00">intcos.h</text>
</a>
</g>
</g>
<!-- Node2&#45;&gt;Node5 -->
<g id="edge43" class="edge"><title>Node2&#45;&gt;Node5</title>
<path fill="none" stroke="midnightblue" d="M155.501,-396.398C149.452,-388.388 143.117,-378.295 140,-368 134.111,-348.55 137.492,-324.316 140.019,-311.642"/>
<polygon fill="midnightblue" stroke="midnightblue" points="152.781,-398.601 161.786,-404.182 158.228,-394.203 152.781,-398.601"/>
</g>
<!-- Node27 -->
<g id="node27" class="node"><title>Node27</title>
<g id="a_node27"><a xlink:href="stre_8h.html" target="_top" xlink:title="STRE class declaration.">
<polygon fill="none" stroke="black" points="149.5,-348.5 149.5,-367.5 190.5,-367.5 190.5,-348.5 149.5,-348.5"/>
<text text-anchor="middle" x="170" y="-355.5" font-family="Helvetica,sans-Serif" font-size="10.00">stre.h</text>
</a>
</g>
</g>
<!-- Node2&#45;&gt;Node27 -->
<g id="edge44" class="edge"><title>Node2&#45;&gt;Node27</title>
<path fill="none" stroke="midnightblue" d="M170,-393.805C170,-384.91 170,-374.78 170,-367.751"/>
<polygon fill="midnightblue" stroke="midnightblue" points="166.5,-394.083 170,-404.083 173.5,-394.083 166.5,-394.083"/>
</g>
<!-- Node29 -->
<g id="node29" class="node"><title>Node29</title>
<g id="a_node29"><a xlink:href="tors_8h.html" target="_top" xlink:title="TORS class declaration.">
<polygon fill="none" stroke="black" points="208.5,-348.5 208.5,-367.5 249.5,-367.5 249.5,-348.5 208.5,-348.5"/>
<text text-anchor="middle" x="229" y="-355.5" font-family="Helvetica,sans-Serif" font-size="10.00">tors.h</text>
</a>
</g>
</g>
<!-- Node2&#45;&gt;Node29 -->
<g id="edge47" class="edge"><title>Node2&#45;&gt;Node29</title>
<path fill="none" stroke="midnightblue" d="M186.895,-397.537C197.415,-387.909 210.569,-375.869 219.348,-367.834"/>
<polygon fill="midnightblue" stroke="midnightblue" points="184.493,-394.99 179.479,-404.324 189.219,-400.154 184.493,-394.99"/>
</g>
<!-- Node4 -->
<g id="node4" class="node"><title>Node4</title>
<g id="a_node4"><a xlink:href="bend_8cc.html" target="_top" xlink:title="bend.cc">
<polygon fill="none" stroke="black" points="-0.5,-6.5 -0.5,-25.5 50.5,-25.5 50.5,-6.5 -0.5,-6.5"/>
<text text-anchor="middle" x="25" y="-13.5" font-family="Helvetica,sans-Serif" font-size="10.00">bend.cc</text>
</a>
</g>
</g>
<!-- Node3&#45;&gt;Node4 -->
<g id="edge3" class="edge"><title>Node3&#45;&gt;Node4</title>
<path fill="none" stroke="midnightblue" d="M61.8859,-338.933C53.0012,-317.468 40,-280.36 40,-247 40,-247 40,-247 40,-133 40,-92.5899 30.9361,-44.9104 26.8998,-25.6814"/>
<polygon fill="midnightblue" stroke="midnightblue" points="58.784,-340.579 65.9541,-348.379 65.2131,-337.81 58.784,-340.579"/>
</g>
<!-- Node3&#45;&gt;Node5 -->
<g id="edge4" class="edge"><title>Node3&#45;&gt;Node5</title>
<path fill="none" stroke="midnightblue" d="M89.8657,-342.101C102.823,-332.382 119.297,-320.027 130.221,-311.834"/>
<polygon fill="midnightblue" stroke="midnightblue" points="87.4681,-339.524 81.568,-348.324 91.6681,-345.124 87.4681,-339.524"/>
</g>
<!-- Node6 -->
<g id="node6" class="node"><title>Node6</title>
<g id="a_node6"><a xlink:href="frag_8h.html" target="_top" xlink:title="frag.h">
<polygon fill="none" stroke="black" points="492.5,-236.5 492.5,-255.5 533.5,-255.5 533.5,-236.5 492.5,-236.5"/>
<text text-anchor="middle" x="513" y="-243.5" font-family="Helvetica,sans-Serif" font-size="10.00">frag.h</text>
</a>
</g>
</g>
<!-- Node5&#45;&gt;Node6 -->
<g id="edge5" class="edge"><title>Node5&#45;&gt;Node6</title>
<path fill="none" stroke="midnightblue" d="M177.632,-291.883C302.26,-267.695 440.789,-253.636 492.336,-248.844"/>
<polygon fill="midnightblue" stroke="midnightblue" points="176.675,-288.504 167.539,-293.87 178.027,-295.372 176.675,-288.504"/>
</g>
<!-- Node7 -->
<g id="node7" class="node"><title>Node7</title>
<g id="a_node7"><a xlink:href="bin_2optking_2molecule_8h_source.html" target="_top" xlink:title="molecule.h">
<polygon fill="none" stroke="black" points="628,-180.5 628,-199.5 692,-199.5 692,-180.5 628,-180.5"/>
<text text-anchor="middle" x="660" y="-187.5" font-family="Helvetica,sans-Serif" font-size="10.00">molecule.h</text>
</a>
</g>
</g>
<!-- Node6&#45;&gt;Node7 -->
<g id="edge6" class="edge"><title>Node6&#45;&gt;Node7</title>
<path fill="none" stroke="midnightblue" d="M543.304,-233.868C570.924,-223.722 611.159,-208.942 636.439,-199.655"/>
<polygon fill="midnightblue" stroke="midnightblue" points="541.93,-230.644 533.75,-237.378 544.343,-237.215 541.93,-230.644"/>
</g>
<!-- Node6&#45;&gt;Node10 -->
<g id="edge39" class="edge"><title>Node6&#45;&gt;Node10</title>
<path fill="none" stroke="midnightblue" d="M491.554,-230.604C478.965,-221.986 462.858,-210.666 449,-200 376.757,-144.397 373.86,-108.121 292,-68 223.821,-34.5842 197.085,-55.8462 125,-32 119.742,-30.2607 114.2,-27.9447 109.19,-25.654"/>
<polygon fill="midnightblue" stroke="midnightblue" points="489.777,-233.628 500.016,-236.354 493.711,-227.839 489.777,-233.628"/>
</g>
<!-- Node11 -->
<g id="node11" class="node"><title>Node11</title>
<g id="a_node11"><a xlink:href="frag__apply__frozen__constraints_8cc.html" target="_top" xlink:title="apply constraints specified by given strings">
<polygon fill="none" stroke="black" points="1340.5,-6.5 1340.5,-25.5 1501.5,-25.5 1501.5,-6.5 1340.5,-6.5"/>
<text text-anchor="middle" x="1421" y="-13.5" font-family="Helvetica,sans-Serif" font-size="10.00">frag_apply_frozen_constraints.cc</text>
</a>
</g>
</g>
<!-- Node6&#45;&gt;Node11 -->
<g id="edge40" class="edge"><title>Node6&#45;&gt;Node11</title>
<path fill="none" stroke="midnightblue" d="M543.899,-239.195C581.501,-231.768 646.697,-217.718 701,-200 762.363,-179.978 776.955,-172.234 835,-144 866.133,-128.856 937.973,-78.3843 971,-68 1124.39,-19.7701 1171.61,-53.2289 1331,-32 1344.82,-30.1597 1359.77,-27.8121 1373.45,-25.5235"/>
<polygon fill="midnightblue" stroke="midnightblue" points="542.755,-235.852 533.608,-241.198 544.092,-242.723 542.755,-235.852"/>
</g>
<!-- Node12 -->
<g id="node12" class="node"><title>Node12</title>
<g id="a_node12"><a xlink:href="frag__disp_8cc.html" target="_top" xlink:title="displace fragment geometry only dq changes to values of coordinates">
<polygon fill="none" stroke="black" points="134,-6.5 134,-25.5 204,-25.5 204,-6.5 134,-6.5"/>
<text text-anchor="middle" x="169" y="-13.5" font-family="Helvetica,sans-Serif" font-size="10.00">frag_disp.cc</text>
</a>
</g>
</g>
<!-- Node6&#45;&gt;Node12 -->
<g id="edge41" class="edge"><title>Node6&#45;&gt;Node12</title>
<path fill="none" stroke="midnightblue" d="M497.966,-228.621C461.541,-189.252 368.726,-90.8786 330,-68 283.158,-40.3265 264.754,-48.7796 213,-32 206.705,-29.9589 199.928,-27.6864 193.624,-25.5402"/>
<polygon fill="midnightblue" stroke="midnightblue" points="495.49,-231.099 504.842,-236.078 500.636,-226.354 495.49,-231.099"/>
</g>
<!-- Node14 -->
<g id="node14" class="node"><title>Node14</title>
<g id="a_node14"><a xlink:href="interfrag__orient_8cc.html" target="_top" xlink:title="function moves the geometry of fragment B so that the interfragment coordinates have the given values...">
<polygon fill="none" stroke="black" points="1519.5,-6.5 1519.5,-25.5 1614.5,-25.5 1614.5,-6.5 1519.5,-6.5"/>
<text text-anchor="middle" x="1567" y="-13.5" font-family="Helvetica,sans-Serif" font-size="10.00">interfrag_orient.cc</text>
</a>
</g>
</g>
<!-- Node6&#45;&gt;Node14 -->
<g id="edge42" class="edge"><title>Node6&#45;&gt;Node14</title>
<path fill="none" stroke="midnightblue" d="M543.633,-241.329C588.26,-235.464 673.413,-222.308 743,-200 800.199,-181.663 812.121,-170.552 866,-144 882.14,-136.046 991.708,-72.9747 1009,-68 1223.54,-6.28069 1289.77,-68.564 1510,-32 1519.49,-30.4246 1529.69,-27.9837 1538.81,-25.5253"/>
<polygon fill="midnightblue" stroke="midnightblue" points="543.185,-237.858 533.711,-242.6 544.074,-244.801 543.185,-237.858"/>
</g>
<!-- Node8 -->
<g id="node8" class="node"><title>Node8</title>
<g id="a_node8"><a xlink:href="opt__data_8h.html" target="_top" xlink:title="opt_data.h">
<polygon fill="none" stroke="black" points="427,-124.5 427,-143.5 489,-143.5 489,-124.5 427,-124.5"/>
<text text-anchor="middle" x="458" y="-131.5" font-family="Helvetica,sans-Serif" font-size="10.00">opt_data.h</text>
</a>
</g>
</g>
<!-- Node7&#45;&gt;Node8 -->
<g id="edge7" class="edge"><title>Node7&#45;&gt;Node8</title>
<path fill="none" stroke="midnightblue" d="M618.152,-177.813C579.77,-167.552 523.788,-152.587 489.194,-143.339"/>
<polygon fill="midnightblue" stroke="midnightblue" points="617.428,-181.242 627.992,-180.444 619.236,-174.48 617.428,-181.242"/>
</g>
<!-- Node26 -->
<g id="node26" class="node"><title>Node26</title>
<g id="a_node26"><a xlink:href="IRC__data_8h.html" target="_top" xlink:title="IRC_data.h">
<polygon fill="none" stroke="black" points="545.5,-124.5 545.5,-143.5 612.5,-143.5 612.5,-124.5 545.5,-124.5"/>
<text text-anchor="middle" x="579" y="-131.5" font-family="Helvetica,sans-Serif" font-size="10.00">IRC_data.h</text>
</a>
</g>
</g>
<!-- Node7&#45;&gt;Node26 -->
<g id="edge29" class="edge"><title>Node7&#45;&gt;Node26</title>
<path fill="none" stroke="midnightblue" d="M638.433,-174.622C623.636,-164.757 604.488,-151.992 591.982,-143.655"/>
<polygon fill="midnightblue" stroke="midnightblue" points="636.724,-177.689 646.986,-180.324 640.607,-171.865 636.724,-177.689"/>
</g>
<!-- Node13 -->
<g id="node13" class="node"><title>Node13</title>
<g id="a_node13"><a xlink:href="geom__gradients__io_8cc.html" target="_top" xlink:title="functions to read and write the geometry, the gradient and the Hessian">
<polygon fill="none" stroke="black" points="436,-6.5 436,-25.5 548,-25.5 548,-6.5 436,-6.5"/>
<text text-anchor="middle" x="492" y="-13.5" font-family="Helvetica,sans-Serif" font-size="10.00">geom_gradients_io.cc</text>
</a>
</g>
</g>
<!-- Node7&#45;&gt;Node13 -->
<g id="edge32" class="edge"><title>Node7&#45;&gt;Node13</title>
<path fill="none" stroke="midnightblue" d="M651.3,-171.177C644.177,-157.517 633.296,-138.598 621,-124 585.008,-81.2717 530.442,-42.4484 505.408,-25.7072"/>
<polygon fill="midnightblue" stroke="midnightblue" points="648.345,-173.089 655.976,-180.438 654.593,-169.934 648.345,-173.089"/>
</g>
<!-- Node16 -->
<g id="node16" class="node"><title>Node16</title>
<g id="a_node16"><a xlink:href="molecule__fragments_8cc.html" target="_top" xlink:title="functions to handle fragments">
<polygon fill="none" stroke="black" points="566,-6.5 566,-25.5 684,-25.5 684,-6.5 566,-6.5"/>
<text text-anchor="middle" x="625" y="-13.5" font-family="Helvetica,sans-Serif" font-size="10.00">molecule_fragments.cc</text>
</a>
</g>
</g>
<!-- Node7&#45;&gt;Node16 -->
<g id="edge33" class="edge"><title>Node7&#45;&gt;Node16</title>
<path fill="none" stroke="midnightblue" d="M662.015,-169.981C663.953,-145.75 665.264,-102.837 655,-68 650.239,-51.8399 639.266,-35.4545 631.994,-25.7646"/>
<polygon fill="midnightblue" stroke="midnightblue" points="658.5,-169.977 661.061,-180.258 665.47,-170.624 658.5,-169.977"/>
</g>
<!-- Node17 -->
<g id="node17" class="node"><title>Node17</title>
<g id="a_node17"><a xlink:href="molecule__irc__step_8cc.html" target="_top" xlink:title="molecule_irc_step.cc">
<polygon fill="none" stroke="black" points="308.5,-6.5 308.5,-25.5 417.5,-25.5 417.5,-6.5 308.5,-6.5"/>
<text text-anchor="middle" x="363" y="-13.5" font-family="Helvetica,sans-Serif" font-size="10.00">molecule_irc_step.cc</text>
</a>
</g>
</g>
<!-- Node7&#45;&gt;Node17 -->
<g id="edge34" class="edge"><title>Node7&#45;&gt;Node17</title>
<path fill="none" stroke="midnightblue" d="M617.847,-178.976C592.738,-171.762 560.998,-160.388 536,-144 497.087,-118.491 501.32,-95.7872 464,-68 439.106,-49.4649 406.467,-34.3821 385.127,-25.5506"/>
<polygon fill="midnightblue" stroke="midnightblue" points="617.243,-182.439 627.813,-181.722 619.103,-175.691 617.243,-182.439"/>
</g>
<!-- Node18 -->
<g id="node18" class="node"><title>Node18</title>
<g id="a_node18"><a xlink:href="molecule__linesearch__step_8cc.html" target="_top" xlink:title="Generates geometries for a line&#45;search in internal coordinates. Currently, a static line search merel...">
<polygon fill="none" stroke="black" points="866.5,-1 866.5,-31 971.5,-31 971.5,-1 866.5,-1"/>
<text text-anchor="start" x="874.5" y="-19" font-family="Helvetica,sans-Serif" font-size="10.00">molecule_linesearch</text>
<text text-anchor="middle" x="919" y="-8" font-family="Helvetica,sans-Serif" font-size="10.00">_step.cc</text>
</a>
</g>
</g>
<!-- Node7&#45;&gt;Node18 -->
<g id="edge35" class="edge"><title>Node7&#45;&gt;Node18</title>
<path fill="none" stroke="midnightblue" d="M677.847,-173.717C706.482,-149.596 764.968,-101.955 819,-68 841.276,-54.0011 867.867,-40.584 888.027,-31.028"/>
<polygon fill="midnightblue" stroke="midnightblue" points="675.321,-171.27 669.957,-180.406 679.848,-176.609 675.321,-171.27"/>
</g>
<!-- Node19 -->
<g id="node19" class="node"><title>Node19</title>
<g id="a_node19"><a xlink:href="molecule__read__intcos_8cc.html" target="_top" xlink:title="read internal coordinates from file">
<polygon fill="none" stroke="black" points="989.5,-6.5 989.5,-25.5 1114.5,-25.5 1114.5,-6.5 989.5,-6.5"/>
<text text-anchor="middle" x="1052" y="-13.5" font-family="Helvetica,sans-Serif" font-size="10.00">molecule_read_intcos.cc</text>
</a>
</g>
</g>
<!-- Node7&#45;&gt;Node19 -->
<g id="edge36" class="edge"><title>Node7&#45;&gt;Node19</title>
<path fill="none" stroke="midnightblue" d="M685.517,-175.692C701.856,-167.001 723.404,-155.222 742,-144 794.454,-112.347 801.058,-92.9751 857,-68 884.799,-55.5892 964.894,-36.4886 1013.35,-25.5256"/>
<polygon fill="midnightblue" stroke="midnightblue" points="683.767,-172.658 676.56,-180.425 687.037,-178.847 683.767,-172.658"/>
</g>
<!-- Node20 -->
<g id="node20" class="node"><title>Node20</title>
<g id="a_node20"><a xlink:href="molecule__sd__step_8cc.html" target="_top" xlink:title="steepest&#45;descent step for molecule">
<polygon fill="none" stroke="black" points="1132.5,-6.5 1132.5,-25.5 1241.5,-25.5 1241.5,-6.5 1132.5,-6.5"/>
<text text-anchor="middle" x="1187" y="-13.5" font-family="Helvetica,sans-Serif" font-size="10.00">molecule_sd_step.cc</text>
</a>
</g>
</g>
<!-- Node7&#45;&gt;Node20 -->
<g id="edge37" class="edge"><title>Node7&#45;&gt;Node20</title>
<path fill="none" stroke="midnightblue" d="M693.716,-176.988C716.053,-168.629 745.775,-156.735 771,-144 828.703,-114.87 834.352,-90.3604 895,-68 991.255,-32.5117 1022.32,-51.7183 1123,-32 1132.63,-30.1136 1143.01,-27.8018 1152.56,-25.5633"/>
<polygon fill="midnightblue" stroke="midnightblue" points="692.491,-173.709 684.324,-180.457 694.917,-180.275 692.491,-173.709"/>
</g>
<!-- Node22 -->
<g id="node22" class="node"><title>Node22</title>
<g id="a_node22"><a xlink:href="optking_8cc.html" target="_top" xlink:title="optking.cc">
<polygon fill="none" stroke="black" points="1260,-6.5 1260,-25.5 1322,-25.5 1322,-6.5 1260,-6.5"/>
<text text-anchor="middle" x="1291" y="-13.5" font-family="Helvetica,sans-Serif" font-size="10.00">optking.cc</text>
</a>
</g>
</g>
<!-- Node7&#45;&gt;Node22 -->
<g id="edge38" class="edge"><title>Node7&#45;&gt;Node22</title>
<path fill="none" stroke="midnightblue" d="M701.764,-178.365C730.531,-170.416 769.311,-158.453 802,-144 863.562,-116.781 869.093,-89.1347 933,-68 1067.62,-23.4784 1112,-64.5888 1250,-32 1256.79,-30.3974 1263.99,-28.0094 1270.44,-25.6075"/>
<polygon fill="midnightblue" stroke="midnightblue" points="700.766,-175.009 692.033,-181.007 702.6,-181.765 700.766,-175.009"/>
</g>
<!-- Node9 -->
<g id="node9" class="node"><title>Node9</title>
<g id="a_node9"><a xlink:href="optking_2globals_8h_source.html" target="_top" xlink:title="globals.h">
<polygon fill="none" stroke="black" points="711,-68.5 711,-87.5 767,-87.5 767,-68.5 711,-68.5"/>
<text text-anchor="middle" x="739" y="-75.5" font-family="Helvetica,sans-Serif" font-size="10.00">globals.h</text>
</a>
</g>
</g>
<!-- Node8&#45;&gt;Node9 -->
<g id="edge8" class="edge"><title>Node8&#45;&gt;Node9</title>
<path fill="none" stroke="midnightblue" d="M499.035,-125.114C556.829,-114.008 660.713,-94.0445 710.662,-84.4457"/>
<polygon fill="midnightblue" stroke="midnightblue" points="498.305,-121.69 489.146,-127.015 499.626,-128.565 498.305,-121.69"/>
</g>
<!-- Node8&#45;&gt;Node10 -->
<g id="edge26" class="edge"><title>Node8&#45;&gt;Node10</title>
<path fill="none" stroke="midnightblue" d="M435.734,-119.111C410.873,-104.231 368.995,-81.003 330,-68 242.245,-38.7379 213.367,-59.3577 125,-32 119.589,-30.3249 113.904,-27.9737 108.807,-25.6288"/>
<polygon fill="midnightblue" stroke="midnightblue" points="434.023,-122.167 444.387,-124.367 437.657,-116.185 434.023,-122.167"/>
</g>
<!-- Node8&#45;&gt;Node12 -->
<g id="edge27" class="edge"><title>Node8&#45;&gt;Node12</title>
<path fill="none" stroke="midnightblue" d="M448.655,-115.299C439.75,-100.253 424.91,-79.341 406,-68 331.169,-23.1205 297.403,-54.1353 213,-32 206.13,-30.1983 198.784,-27.8629 192.101,-25.5735"/>
<polygon fill="midnightblue" stroke="midnightblue" points="445.69,-117.167 453.633,-124.179 451.797,-113.745 445.69,-117.167"/>
</g>
<!-- Node21 -->
<g id="node21" class="node"><title>Node21</title>
<g id="a_node21"><a xlink:href="opt__data_8cc.html" target="_top" xlink:title="OPT_DATA associated functions that do not do i/o.">
<polygon fill="none" stroke="black" points="222,-6.5 222,-25.5 290,-25.5 290,-6.5 222,-6.5"/>
<text text-anchor="middle" x="256" y="-13.5" font-family="Helvetica,sans-Serif" font-size="10.00">opt_data.cc</text>
</a>
</g>
</g>
<!-- Node8&#45;&gt;Node21 -->
<g id="edge28" class="edge"><title>Node8&#45;&gt;Node21</title>
<path fill="none" stroke="midnightblue" d="M458.958,-113.771C458.601,-99.3255 455.665,-80.0344 444,-68 397.786,-20.3205 362.638,-50.9555 299,-32 292.635,-30.1041 285.817,-27.8374 279.529,-25.6473"/>
<polygon fill="midnightblue" stroke="midnightblue" points="455.454,-114.037 458.809,-124.087 462.453,-114.138 455.454,-114.037"/>
</g>
<!-- Node9&#45;&gt;Node4 -->
<g id="edge9" class="edge"><title>Node9&#45;&gt;Node4</title>
<path fill="none" stroke="midnightblue" d="M700.472,-76.2116C575.456,-73.3779 182.09,-62.2248 59,-32 52.985,-30.523 46.7001,-28.0444 41.1934,-25.5231"/>
<polygon fill="midnightblue" stroke="midnightblue" points="700.631,-79.7159 710.706,-76.4384 700.786,-72.7176 700.631,-79.7159"/>
</g>
<!-- Node9&#45;&gt;Node10 -->
<g id="edge10" class="edge"><title>Node9&#45;&gt;Node10</title>
<path fill="none" stroke="midnightblue" d="M700.76,-75.9582C584.232,-72.5069 234.843,-60.0351 125,-32 119.146,-30.5059 113.042,-28.023 107.699,-25.503"/>
<polygon fill="midnightblue" stroke="midnightblue" points="700.881,-79.4631 710.978,-76.2553 701.084,-72.4661 700.881,-79.4631"/>
</g>
<!-- Node9&#45;&gt;Node11 -->
<g id="edge11" class="edge"><title>Node9&#45;&gt;Node11</title>
<path fill="none" stroke="midnightblue" d="M777.332,-75.2742C871.727,-70.7662 1122.86,-57.2051 1331,-32 1345.31,-30.2671 1360.82,-27.8708 1374.87,-25.5017"/>
<polygon fill="midnightblue" stroke="midnightblue" points="776.953,-71.7881 767.129,-75.7552 777.282,-78.7803 776.953,-71.7881"/>
</g>
<!-- Node9&#45;&gt;Node12 -->
<g id="edge12" class="edge"><title>Node9&#45;&gt;Node12</title>
<path fill="none" stroke="midnightblue" d="M700.769,-76.8946C613.393,-75.9686 392.746,-69.7385 213,-32 205.576,-30.4412 197.671,-28.0047 190.64,-25.5453"/>
<polygon fill="midnightblue" stroke="midnightblue" points="700.964,-80.3963 710.994,-76.9846 701.025,-73.3966 700.964,-80.3963"/>
</g>
<!-- Node9&#45;&gt;Node13 -->
<g id="edge13" class="edge"><title>Node9&#45;&gt;Node13</title>
<path fill="none" stroke="midnightblue" d="M700.78,-67.7157C653.341,-56.1921 573.097,-36.6996 527.135,-25.5348"/>
<polygon fill="midnightblue" stroke="midnightblue" points="700.122,-71.1578 710.666,-70.1172 701.775,-64.3556 700.122,-71.1578"/>
</g>
<!-- Node9&#45;&gt;Node14 -->
<g id="edge14" class="edge"><title>Node9&#45;&gt;Node14</title>
<path fill="none" stroke="midnightblue" d="M777.591,-75.1995C923.573,-68.3265 1437.42,-43.5508 1510,-32 1519.6,-30.4723 1529.92,-28.0127 1539.11,-25.5234"/>
<polygon fill="midnightblue" stroke="midnightblue" points="777.16,-71.7158 767.336,-75.6813 777.489,-78.7081 777.16,-71.7158"/>
</g>
<!-- Node9&#45;&gt;Node15 -->
<g id="edge15" class="edge"><title>Node9&#45;&gt;Node15</title>
<path fill="none" stroke="midnightblue" d="M777.487,-75.6734C943.884,-69.8701 1597.13,-46.3677 1688,-32 1697.38,-30.5161 1707.47,-28.0358 1716.4,-25.515"/>
<polygon fill="midnightblue" stroke="midnightblue" points="777.114,-72.1841 767.242,-76.0297 777.358,-79.1799 777.114,-72.1841"/>
</g>
<!-- Node9&#45;&gt;Node16 -->
<g id="edge16" class="edge"><title>Node9&#45;&gt;Node16</title>
<path fill="none" stroke="midnightblue" d="M713.54,-63.6001C691.461,-51.9796 660.168,-35.5093 641.303,-25.5806"/>
<polygon fill="midnightblue" stroke="midnightblue" points="712.187,-66.8432 722.667,-68.4035 715.448,-60.6487 712.187,-66.8432"/>
</g>
<!-- Node9&#45;&gt;Node17 -->
<g id="edge17" class="edge"><title>Node9&#45;&gt;Node17</title>
<path fill="none" stroke="midnightblue" d="M700.921,-72.5917C641.968,-65.5233 525.162,-50.546 427,-32 417.244,-30.1568 406.727,-27.834 397.094,-25.5704"/>
<polygon fill="midnightblue" stroke="midnightblue" points="700.554,-76.0727 710.897,-73.7785 701.381,-69.1217 700.554,-76.0727"/>
</g>
<!-- Node9&#45;&gt;Node18 -->
<g id="edge18" class="edge"><title>Node9&#45;&gt;Node18</title>
<path fill="none" stroke="midnightblue" d="M774.64,-65.1199C804.058,-55.314 845.866,-41.3781 876.924,-31.0253"/>
<polygon fill="midnightblue" stroke="midnightblue" points="773.17,-61.9207 764.79,-68.4035 775.383,-68.5615 773.17,-61.9207"/>
</g>
<!-- Node9&#45;&gt;Node19 -->
<g id="edge19" class="edge"><title>Node9&#45;&gt;Node19</title>
<path fill="none" stroke="midnightblue" d="M777.096,-70.1394C824.641,-61.519 908.42,-46.1375 980,-32 990.272,-29.9713 1001.35,-27.7032 1011.66,-25.5573"/>
<polygon fill="midnightblue" stroke="midnightblue" points="776.451,-66.6992 767.235,-71.9246 777.698,-73.5872 776.451,-66.6992"/>
</g>
<!-- Node9&#45;&gt;Node20 -->
<g id="edge20" class="edge"><title>Node9&#45;&gt;Node20</title>
<path fill="none" stroke="midnightblue" d="M777.105,-73.9792C846.332,-68.1708 997.225,-54.0355 1123,-32 1133.12,-30.2275 1144.03,-27.8474 1153.93,-25.5059"/>
<polygon fill="midnightblue" stroke="midnightblue" points="776.78,-70.494 767.103,-74.8078 777.358,-77.4701 776.78,-70.494"/>
</g>
<!-- Node9&#45;&gt;Node21 -->
<g id="edge21" class="edge"><title>Node9&#45;&gt;Node21</title>
<path fill="none" stroke="midnightblue" d="M700.661,-76.0818C623.651,-73.5818 445.043,-64.4708 299,-32 291.899,-30.4213 284.349,-28.04 277.589,-25.6369"/>
<polygon fill="midnightblue" stroke="midnightblue" points="700.738,-79.5857 710.84,-76.3925 700.951,-72.5889 700.738,-79.5857"/>
</g>
<!-- Node9&#45;&gt;Node22 -->
<g id="edge22" class="edge"><title>Node9&#45;&gt;Node22</title>
<path fill="none" stroke="midnightblue" d="M777.497,-74.9233C880.351,-69.1653 1159.85,-52.0906 1250,-32 1256.95,-30.4502 1264.33,-28.0161 1270.88,-25.5561"/>
<polygon fill="midnightblue" stroke="midnightblue" points="777.047,-71.4427 767.257,-75.4917 777.435,-78.432 777.047,-71.4427"/>
</g>
<!-- Node23 -->
<g id="node23" class="node"><title>Node23</title>
<g id="a_node23"><a xlink:href="set__params_8cc.html" target="_top" xlink:title="set optimization parameters">
<polygon fill="none" stroke="black" points="702.5,-6.5 702.5,-25.5 783.5,-25.5 783.5,-6.5 702.5,-6.5"/>
<text text-anchor="middle" x="743" y="-13.5" font-family="Helvetica,sans-Serif" font-size="10.00">set_params.cc</text>
</a>
</g>
</g>
<!-- Node9&#45;&gt;Node23 -->
<g id="edge23" class="edge"><title>Node9&#45;&gt;Node23</title>
<path fill="none" stroke="midnightblue" d="M740.256,-58.1595C740.983,-47.2482 741.864,-34.04 742.428,-25.5806"/>
<polygon fill="midnightblue" stroke="midnightblue" points="736.746,-58.1928 739.573,-68.4035 743.731,-58.6585 736.746,-58.1928"/>
</g>
<!-- Node24 -->
<g id="node24" class="node"><title>Node24</title>
<g id="a_node24"><a xlink:href="tors_8cc.html" target="_top" xlink:title="tors class">
<polygon fill="none" stroke="black" points="1632.5,-6.5 1632.5,-25.5 1679.5,-25.5 1679.5,-6.5 1632.5,-6.5"/>
<text text-anchor="middle" x="1656" y="-13.5" font-family="Helvetica,sans-Serif" font-size="10.00">tors.cc</text>
</a>
</g>
</g>
<!-- Node9&#45;&gt;Node24 -->
<g id="edge24" class="edge"><title>Node9&#45;&gt;Node24</title>
<path fill="none" stroke="midnightblue" d="M777.523,-75.4416C942.307,-68.7237 1581.41,-42.1234 1623,-32 1628.87,-30.5713 1634.98,-28.1047 1640.32,-25.5796"/>
<polygon fill="midnightblue" stroke="midnightblue" points="777.215,-71.9511 767.366,-75.8549 777.5,-78.9453 777.215,-71.9511"/>
</g>
<!-- Node25 -->
<g id="node25" class="node"><title>Node25</title>
<g id="a_node25"><a xlink:href="v3d_8cc.html" target="_top" xlink:title="v3d functions">
<polygon fill="none" stroke="black" points="802,-6.5 802,-25.5 848,-25.5 848,-6.5 802,-6.5"/>
<text text-anchor="middle" x="825" y="-13.5" font-family="Helvetica,sans-Serif" font-size="10.00">v3d.cc</text>
</a>
</g>
</g>
<!-- Node9&#45;&gt;Node25 -->
<g id="edge25" class="edge"><title>Node9&#45;&gt;Node25</title>
<path fill="none" stroke="midnightblue" d="M759.795,-62.4918C776.335,-50.952 798.917,-35.1976 812.701,-25.5806"/>
<polygon fill="midnightblue" stroke="midnightblue" points="757.52,-59.8112 751.322,-68.4035 761.526,-65.5521 757.52,-59.8112"/>
</g>
<!-- Node26&#45;&gt;Node9 -->
<g id="edge30" class="edge"><title>Node26&#45;&gt;Node9</title>
<path fill="none" stroke="midnightblue" d="M614.046,-121.172C644.174,-111.004 686.896,-96.5852 713.766,-87.5164"/>
<polygon fill="midnightblue" stroke="midnightblue" points="612.708,-117.929 604.352,-124.444 614.947,-124.562 612.708,-117.929"/>
</g>
<!-- Node26&#45;&gt;Node17 -->
<g id="edge31" class="edge"><title>Node26&#45;&gt;Node17</title>
<path fill="none" stroke="midnightblue" d="M570.153,-115.368C561.918,-100.67 548.319,-80.2268 531,-68 519.732,-60.0453 440.416,-37.8445 394.908,-25.519"/>
<polygon fill="midnightblue" stroke="midnightblue" points="567.196,-117.263 574.977,-124.453 573.379,-113.98 567.196,-117.263"/>
</g>
<!-- Node27&#45;&gt;Node5 -->
<g id="edge45" class="edge"><title>Node27&#45;&gt;Node5</title>
<path fill="none" stroke="midnightblue" d="M160.658,-338.983C155.905,-329.817 150.344,-319.092 146.538,-311.751"/>
<polygon fill="midnightblue" stroke="midnightblue" points="157.666,-340.817 165.376,-348.083 163.88,-337.594 157.666,-340.817"/>
</g>
<!-- Node28 -->
<g id="node28" class="node"><title>Node28</title>
<g id="a_node28"><a xlink:href="stre_8cc.html" target="_top" xlink:title="stretch class definition">
<polygon fill="none" stroke="black" points="185.5,-292.5 185.5,-311.5 232.5,-311.5 232.5,-292.5 185.5,-292.5"/>
<text text-anchor="middle" x="209" y="-299.5" font-family="Helvetica,sans-Serif" font-size="10.00">stre.cc</text>
</a>
</g>
</g>
<!-- Node27&#45;&gt;Node28 -->
<g id="edge46" class="edge"><title>Node27&#45;&gt;Node28</title>
<path fill="none" stroke="midnightblue" d="M182.382,-339.855C189.135,-330.505 197.209,-319.327 202.68,-311.751"/>
<polygon fill="midnightblue" stroke="midnightblue" points="179.458,-337.927 176.44,-348.083 185.132,-342.025 179.458,-337.927"/>
</g>
<!-- Node29&#45;&gt;Node5 -->
<g id="edge48" class="edge"><title>Node29&#45;&gt;Node5</title>
<path fill="none" stroke="midnightblue" d="M206.284,-342.901C190.331,-332.999 169.503,-320.071 155.943,-311.655"/>
<polygon fill="midnightblue" stroke="midnightblue" points="204.68,-346.024 215.022,-348.324 208.371,-340.077 204.68,-346.024"/>
</g>
<!-- Node29&#45;&gt;Node24 -->
<g id="edge49" class="edge"><title>Node29&#45;&gt;Node24</title>
<path fill="none" stroke="midnightblue" d="M259.922,-356.036C406.355,-351.068 1023,-325.49 1023,-247 1023,-247 1023,-247 1023,-133 1023,-102.205 1022.29,-86.3847 1047,-68 1098.44,-29.7175 1560.78,-47.5242 1623,-32 1628.86,-30.5374 1634.97,-28.0624 1640.31,-25.5399"/>
<polygon fill="midnightblue" stroke="midnightblue" points="259.708,-352.541 249.829,-356.37 259.94,-359.537 259.708,-352.541"/>
</g>
</g>
</svg>
        <g id="navigator" transform="translate(0 0)" fill="#404254">
                <rect fill="#f2f5e9" fill-opacity="0.5" stroke="#606060" stroke-width=".5" x="0" y="0" width="60" height="60"/>
                <use id="zoomplus" xlink:href="#zoomPlus" x="17" y="9" onmousedown="handleZoom(evt,'in')"/>
                <use id="zoomminus" xlink:href="#zoomMin" x="42" y="9" onmousedown="handleZoom(evt,'out')"/>
                <use id="reset" xlink:href="#resetDef" x="30" y="36" onmousedown="handleReset()"/>
                <g id="arrowUp" xlink:href="#dirArrow" transform="translate(30 24)" onmousedown="handlePan(0,-1)">
                  <use xlink:href="#rim" fill="#404040">
                        <set attributeName="fill" to="#808080" begin="arrowUp.mouseover" end="arrowUp.mouseout"/>
                  </use>
                  <path fill="none" stroke="white" stroke-width="1.5" d="M0,-3.0v7 M-2.5,-0.5L0,-3.0L2.5,-0.5"/>
                </g>
                <g id="arrowRight" xlink:href="#dirArrow" transform="rotate(90) translate(36 -43)" onmousedown="handlePan(1,0)">
                  <use xlink:href="#rim" fill="#404040">
                        <set attributeName="fill" to="#808080" begin="arrowRight.mouseover" end="arrowRight.mouseout"/>
                  </use>
                  <path fill="none" stroke="white" stroke-width="1.5" d="M0,-3.0v7 M-2.5,-0.5L0,-3.0L2.5,-0.5"/>
                </g>
                <g id="arrowDown" xlink:href="#dirArrow" transform="rotate(180) translate(-30 -48)" onmousedown="handlePan(0,1)">
                  <use xlink:href="#rim" fill="#404040">
                        <set attributeName="fill" to="#808080" begin="arrowDown.mouseover" end="arrowDown.mouseout"/>
                  </use>
                  <path fill="none" stroke="white" stroke-width="1.5" d="M0,-3.0v7 M-2.5,-0.5L0,-3.0L2.5,-0.5"/>
                </g>
                <g id="arrowLeft" xlink:href="#dirArrow" transform="rotate(270) translate(-36 17)" onmousedown="handlePan(-1,0)">
                  <use xlink:href="#rim" fill="#404040">
                        <set attributeName="fill" to="#808080" begin="arrowLeft.mouseover" end="arrowLeft.mouseout"/>
                  </use>
                  <path fill="none" stroke="white" stroke-width="1.5" d="M0,-3.0v7 M-2.5,-0.5L0,-3.0L2.5,-0.5"/>
                </g>
        </g>
        <svg viewBox="0 0 15 15" width="100%" height="30px" preserveAspectRatio="xMaxYMin meet">
         <g id="arrow_out" transform="scale(0.3 0.3)">
          <a xlink:href="mem_8h__dep__incl_org.svg" target="_base">
           <rect id="button" ry="5" rx="5" y="6" x="6" height="38" width="38"
                fill="#f2f5e9" fill-opacity="0.5" stroke="#606060" stroke-width="1.0"/>
           <path id="arrow"
             d="M 11.500037,31.436501 C 11.940474,20.09759 22.043105,11.32322 32.158766,21.979434 L 37.068811,17.246167 C 37.068811,17.246167 37.088388,32 37.088388,32 L 22.160133,31.978069 C 22.160133,31.978069 26.997745,27.140456 26.997745,27.140456 C 18.528582,18.264221 13.291696,25.230495 11.500037,31.436501 z"
             style="fill:#404040;"/>
          </a>
         </g>
        </svg>
</svg>
