<?xml version="1.0" encoding="UTF-8" standalone="no"?>
<!DOCTYPE svg PUBLIC "-//W3C//DTD SVG 1.1//EN"
 "http://www.w3.org/Graphics/SVG/1.1/DTD/svg11.dtd">
<!-- Generated by graphviz version 2.30.1 (20140110.0959)
 -->
<!-- Title: model_space.h Pages: 1 -->
<svg width="601pt" height="140pt"
 viewBox="0.00 0.00 601.00 140.00" xmlns="http://www.w3.org/2000/svg" xmlns:xlink="http://www.w3.org/1999/xlink">
<g id="graph0" class="graph" transform="scale(1 1) rotate(0) translate(4 136)">
<title>model_space.h</title>
<!-- Node1 -->
<g id="node1" class="node"><title>Node1</title>
<polygon fill="#bfbfbf" stroke="black" points="247.5,-112.5 247.5,-131.5 330.5,-131.5 330.5,-112.5 247.5,-112.5"/>
<text text-anchor="middle" x="289" y="-119.5" font-family="Helvetica,sans-Serif" font-size="10.00">model_space.h</text>
</g>
<!-- Node2 -->
<g id="node2" class="node"><title>Node2</title>
<g id="a_node2"><a xlink:href="libmoinfo_8h_source.html" target="_top" xlink:title="libmoinfo.h">
<polygon fill="none" stroke="black" points="257,-56.5 257,-75.5 321,-75.5 321,-56.5 257,-56.5"/>
<text text-anchor="middle" x="289" y="-63.5" font-family="Helvetica,sans-Serif" font-size="10.00">libmoinfo.h</text>
</a>
</g>
</g>
<!-- Node1&#45;&gt;Node2 -->
<g id="edge1" class="edge"><title>Node1&#45;&gt;Node2</title>
<path fill="none" stroke="midnightblue" d="M289,-101.805C289,-92.9102 289,-82.7798 289,-75.7511"/>
<polygon fill="midnightblue" stroke="midnightblue" points="285.5,-102.083 289,-112.083 292.5,-102.083 285.5,-102.083"/>
</g>
<!-- Node3 -->
<g id="node3" class="node"><title>Node3</title>
<g id="a_node3"><a xlink:href="scf_8h_source.html" target="_top" xlink:title="scf.h">
<polygon fill="none" stroke="black" points="0,-0.5 0,-19.5 38,-19.5 38,-0.5 0,-0.5"/>
<text text-anchor="middle" x="19" y="-7.5" font-family="Helvetica,sans-Serif" font-size="10.00">scf.h</text>
</a>
</g>
</g>
<!-- Node2&#45;&gt;Node3 -->
<g id="edge2" class="edge"><title>Node2&#45;&gt;Node3</title>
<path fill="none" stroke="midnightblue" d="M246.472,-58.7706C197.862,-51.2634 116.095,-37.4533 47,-20 44.1287,-19.2747 41.1212,-18.4161 38.1866,-17.5218"/>
<polygon fill="midnightblue" stroke="midnightblue" points="246.205,-62.2702 256.618,-60.3202 247.262,-55.3505 246.205,-62.2702"/>
</g>
<!-- Node4 -->
<g id="node4" class="node"><title>Node4</title>
<g id="a_node4"><a xlink:href="manybody_8cc.html" target="_top" xlink:title="The base class for all the many&#45;body methods.">
<polygon fill="none" stroke="black" points="56.5,-0.5 56.5,-19.5 131.5,-19.5 131.5,-0.5 56.5,-0.5"/>
<text text-anchor="middle" x="94" y="-7.5" font-family="Helvetica,sans-Serif" font-size="10.00">manybody.cc</text>
</a>
</g>
</g>
<!-- Node2&#45;&gt;Node4 -->
<g id="edge3" class="edge"><title>Node2&#45;&gt;Node4</title>
<path fill="none" stroke="midnightblue" d="M248.19,-53.6986C211.387,-43.507 158.071,-28.7429 124.754,-19.5164"/>
<polygon fill="midnightblue" stroke="midnightblue" points="247.53,-57.1477 258.102,-56.4435 249.398,-50.4016 247.53,-57.1477"/>
</g>
<!-- Node5 -->
<g id="node5" class="node"><title>Node5</title>
<g id="a_node5"><a xlink:href="manybody__denominators_8cc.html" target="_top" xlink:title="The base class for all the many&#45;body methods.">
<polygon fill="none" stroke="black" points="149.5,-0.5 149.5,-19.5 288.5,-19.5 288.5,-0.5 149.5,-0.5"/>
<text text-anchor="middle" x="219" y="-7.5" font-family="Helvetica,sans-Serif" font-size="10.00">manybody_denominators.cc</text>
</a>
</g>
</g>
<!-- Node2&#45;&gt;Node5 -->
<g id="edge4" class="edge"><title>Node2&#45;&gt;Node5</title>
<path fill="none" stroke="midnightblue" d="M269.686,-50.1008C257.088,-40.3824 241.072,-28.0269 230.451,-19.8339"/>
<polygon fill="midnightblue" stroke="midnightblue" points="267.698,-52.9871 277.753,-56.324 271.973,-47.4446 267.698,-52.9871"/>
</g>
<!-- Node6 -->
<g id="node6" class="node"><title>Node6</title>
<g id="a_node6"><a xlink:href="transform__presort_8cc.html" target="_top" xlink:title="transform_presort.cc">
<polygon fill="none" stroke="black" points="306.5,-0.5 306.5,-19.5 413.5,-19.5 413.5,-0.5 306.5,-0.5"/>
<text text-anchor="middle" x="360" y="-7.5" font-family="Helvetica,sans-Serif" font-size="10.00">transform_presort.cc</text>
</a>
</g>
</g>
<!-- Node2&#45;&gt;Node6 -->
<g id="edge5" class="edge"><title>Node2&#45;&gt;Node6</title>
<path fill="none" stroke="midnightblue" d="M308.59,-50.1008C321.368,-40.3824 337.613,-28.0269 348.385,-19.8339"/>
<polygon fill="midnightblue" stroke="midnightblue" points="306.248,-47.4844 300.407,-56.324 310.486,-53.0561 306.248,-47.4844"/>
</g>
<!-- Node7 -->
<g id="node7" class="node"><title>Node7</title>
<g id="a_node7"><a xlink:href="updater_8cc.html" target="_top" xlink:title="Contains methods for updating the CC equations.">
<polygon fill="none" stroke="black" points="432,-0.5 432,-19.5 494,-19.5 494,-0.5 432,-0.5"/>
<text text-anchor="middle" x="463" y="-7.5" font-family="Helvetica,sans-Serif" font-size="10.00">updater.cc</text>
</a>
</g>
</g>
<!-- Node2&#45;&gt;Node7 -->
<g id="edge6" class="edge"><title>Node2&#45;&gt;Node7</title>
<path fill="none" stroke="midnightblue" d="M326.261,-53.4363C359.067,-43.2551 406.083,-28.664 435.558,-19.5164"/>
<polygon fill="midnightblue" stroke="midnightblue" points="325.084,-50.1368 316.571,-56.4435 327.159,-56.8222 325.084,-50.1368"/>
</g>
<!-- Node8 -->
<g id="node8" class="node"><title>Node8</title>
<g id="a_node8"><a xlink:href="updater__mk_8cc.html" target="_top" xlink:title="Contains methods for updating the CC equations.">
<polygon fill="none" stroke="black" points="512.5,-0.5 512.5,-19.5 593.5,-19.5 593.5,-0.5 512.5,-0.5"/>
<text text-anchor="middle" x="553" y="-7.5" font-family="Helvetica,sans-Serif" font-size="10.00">updater_mk.cc</text>
</a>
</g>
</g>
<!-- Node2&#45;&gt;Node8 -->
<g id="edge7" class="edge"><title>Node2&#45;&gt;Node8</title>
<path fill="none" stroke="midnightblue" d="M330.917,-56.4261C380.737,-46.2357 463.295,-29.3487 512.49,-19.2862"/>
<polygon fill="midnightblue" stroke="midnightblue" points="330.203,-52.9995 321.108,-58.4325 331.606,-59.8575 330.203,-52.9995"/>
</g>
</g>
</svg>
