<?xml version="1.0" encoding="UTF-8" standalone="no"?>
<!DOCTYPE svg PUBLIC "-//W3C//DTD SVG 1.1//EN"
 "http://www.w3.org/Graphics/SVG/1.1/DTD/svg11.dtd">
<!-- Generated by graphviz version 2.30.1 (20140110.0959)
 -->
<!-- Title: moinfo_base.h Pages: 1 -->
<svg width="192pt" height="140pt"
 viewBox="0.00 0.00 192.00 140.00" xmlns="http://www.w3.org/2000/svg" xmlns:xlink="http://www.w3.org/1999/xlink">
<g id="graph0" class="graph" transform="scale(1 1) rotate(0) translate(4 136)">
<title>moinfo_base.h</title>
<!-- Node1 -->
<g id="node1" class="node"><title>Node1</title>
<polygon fill="#bfbfbf" stroke="black" points="10,-112.5 10,-131.5 90,-131.5 90,-112.5 10,-112.5"/>
<text text-anchor="middle" x="50" y="-119.5" font-family="Helvetica,sans-Serif" font-size="10.00">moinfo_base.h</text>
</g>
<!-- Node2 -->
<g id="node2" class="node"><title>Node2</title>
<polygon fill="none" stroke="#bfbfbf" points="-0.5,-0.5 -0.5,-19.5 40.5,-19.5 40.5,-0.5 -0.5,-0.5"/>
<text text-anchor="middle" x="20" y="-7.5" font-family="Helvetica,sans-Serif" font-size="10.00">string</text>
</g>
<!-- Node1&#45;&gt;Node2 -->
<g id="edge1" class="edge"><title>Node1&#45;&gt;Node2</title>
<path fill="none" stroke="midnightblue" d="M47.4426,-112.392C44.7726,-103.348 40.4951,-88.7017 37,-76 32.7396,-60.517 28.145,-42.8884 24.8078,-29.8997"/>
<polygon fill="midnightblue" stroke="midnightblue" points="28.1065,-28.6719 22.2387,-19.8504 21.3246,-30.4057 28.1065,-28.6719"/>
</g>
<!-- Node3 -->
<g id="node3" class="node"><title>Node3</title>
<g id="a_node3"><a xlink:href="libutil_8h_source.html" target="_top" xlink:title="libutil/libutil.h">
<polygon fill="none" stroke="black" points="46.5,-56.5 46.5,-75.5 119.5,-75.5 119.5,-56.5 46.5,-56.5"/>
<text text-anchor="middle" x="83" y="-63.5" font-family="Helvetica,sans-Serif" font-size="10.00">libutil/libutil.h</text>
</a>
</g>
</g>
<!-- Node1&#45;&gt;Node3 -->
<g id="edge2" class="edge"><title>Node1&#45;&gt;Node3</title>
<path fill="none" stroke="midnightblue" d="M55.4493,-112.083C60.0145,-104.613 66.6684,-93.7244 72.2934,-84.5199"/>
<polygon fill="midnightblue" stroke="midnightblue" points="75.4241,-86.109 77.6521,-75.7511 69.4511,-82.4588 75.4241,-86.109"/>
</g>
<!-- Node3&#45;&gt;Node2 -->
<g id="edge3" class="edge"><title>Node3&#45;&gt;Node2</title>
<path fill="none" stroke="midnightblue" d="M72.878,-56.324C63.4736,-48.2631 49.2559,-36.0765 37.931,-26.3695"/>
<polygon fill="midnightblue" stroke="midnightblue" points="40.1766,-23.6844 30.3062,-19.8339 35.621,-28.9993 40.1766,-23.6844"/>
</g>
<!-- Node4 -->
<g id="node4" class="node"><title>Node4</title>
<polygon fill="none" stroke="#bfbfbf" points="60,-0.5 60,-19.5 104,-19.5 104,-0.5 60,-0.5"/>
<text text-anchor="middle" x="82" y="-7.5" font-family="Helvetica,sans-Serif" font-size="10.00">vector</text>
</g>
<!-- Node3&#45;&gt;Node4 -->
<g id="edge4" class="edge"><title>Node3&#45;&gt;Node4</title>
<path fill="none" stroke="midnightblue" d="M82.8349,-56.083C82.7038,-49.0059 82.5159,-38.8611 82.3516,-29.9865"/>
<polygon fill="midnightblue" stroke="midnightblue" points="85.8467,-29.6845 82.1621,-19.7511 78.8479,-29.8142 85.8467,-29.6845"/>
</g>
<!-- Node5 -->
<g id="node5" class="node"><title>Node5</title>
<polygon fill="none" stroke="#bfbfbf" points="122,-0.5 122,-19.5 184,-19.5 184,-0.5 122,-0.5"/>
<text text-anchor="middle" x="153" y="-7.5" font-family="Helvetica,sans-Serif" font-size="10.00">sys/time.h</text>
</g>
<!-- Node3&#45;&gt;Node5 -->
<g id="edge5" class="edge"><title>Node3&#45;&gt;Node5</title>
<path fill="none" stroke="midnightblue" d="M94.2467,-56.324C104.797,-48.1849 120.801,-35.8395 133.442,-26.0874"/>
<polygon fill="midnightblue" stroke="midnightblue" points="135.769,-28.7132 141.549,-19.8339 131.493,-23.1707 135.769,-28.7132"/>
</g>
</g>
</svg>
