<?xml version="1.0" encoding="UTF-8" standalone="no"?>
<!DOCTYPE svg PUBLIC "-//W3C//DTD SVG 1.1//EN"
 "http://www.w3.org/Graphics/SVG/1.1/DTD/svg11.dtd">
<!-- Generated by graphviz version 2.30.1 (20140110.0959)
 -->
<!-- Title: psi::generate_combinations Pages: 1 -->
<svg width="380pt" height="28pt"
 viewBox="0.00 0.00 380.00 28.00" xmlns="http://www.w3.org/2000/svg" xmlns:xlink="http://www.w3.org/1999/xlink">
<g id="graph0" class="graph" transform="scale(1 1) rotate(0) translate(4 24)">
<title>psi::generate_combinations</title>
<!-- Node1 -->
<g id="node1" class="node"><title>Node1</title>
<polygon fill="#bfbfbf" stroke="black" points="0,-0.5 0,-19.5 136,-19.5 136,-0.5 0,-0.5"/>
<text text-anchor="middle" x="68" y="-7.5" font-family="Helvetica,sans-Serif" font-size="10.00">psi::generate_combinations</text>
</g>
<!-- Node2 -->
<g id="node2" class="node"><title>Node2</title>
<g id="a_node2"><a xlink:href="group__QT.html#gabc6c5e50bb519f541ce97a049a11f36c" target="_top" xlink:title="psi::combinations">
<polygon fill="none" stroke="black" points="172.5,-0.5 172.5,-19.5 265.5,-19.5 265.5,-0.5 172.5,-0.5"/>
<text text-anchor="middle" x="219" y="-7.5" font-family="Helvetica,sans-Serif" font-size="10.00">psi::combinations</text>
</a>
</g>
</g>
<!-- Node1&#45;&gt;Node2 -->
<g id="edge1" class="edge"><title>Node1&#45;&gt;Node2</title>
<path fill="none" stroke="midnightblue" d="M136.09,-10C144.767,-10 153.579,-10 162.049,-10"/>
<polygon fill="midnightblue" stroke="midnightblue" points="162.179,-13.5001 172.179,-10 162.179,-6.5001 162.179,-13.5001"/>
</g>
<!-- Node3 -->
<g id="node3" class="node"><title>Node3</title>
<g id="a_node3"><a xlink:href="group__QT.html#ga9ad2ce5f70c7e5d9743c22ce05d647b4" target="_top" xlink:title="psi::factorial">
<polygon fill="none" stroke="black" points="302,-0.5 302,-19.5 372,-19.5 372,-0.5 302,-0.5"/>
<text text-anchor="middle" x="337" y="-7.5" font-family="Helvetica,sans-Serif" font-size="10.00">psi::factorial</text>
</a>
</g>
</g>
<!-- Node2&#45;&gt;Node3 -->
<g id="edge2" class="edge"><title>Node2&#45;&gt;Node3</title>
<path fill="none" stroke="midnightblue" d="M265.513,-10C274.087,-10 283.043,-10 291.583,-10"/>
<polygon fill="midnightblue" stroke="midnightblue" points="291.739,-13.5001 301.739,-10 291.739,-6.5001 291.739,-13.5001"/>
</g>
</g>
</svg>
