<?xml version="1.0" encoding="UTF-8" standalone="no"?>
<!DOCTYPE svg PUBLIC "-//W3C//DTD SVG 1.1//EN"
 "http://www.w3.org/Graphics/SVG/1.1/DTD/svg11.dtd">
<!-- Generated by graphviz version 2.30.1 (20140110.0959)
 -->
<!-- Title: psi::str_to_double Pages: 1 -->
<svg width="254pt" height="164pt"
 viewBox="0.00 0.00 254.00 164.00" xmlns="http://www.w3.org/2000/svg" xmlns:xlink="http://www.w3.org/1999/xlink">
<g id="graph0" class="graph" transform="scale(1 1) rotate(0) translate(4 160)">
<title>psi::str_to_double</title>
<!-- Node1 -->
<g id="node1" class="node"><title>Node1</title>
<polygon fill="#bfbfbf" stroke="black" points="0,-76.5 0,-95.5 94,-95.5 94,-76.5 0,-76.5"/>
<text text-anchor="middle" x="47" y="-83.5" font-family="Helvetica,sans-Serif" font-size="10.00">psi::str_to_double</text>
</g>
<!-- Node2 -->
<g id="node2" class="node"><title>Node2</title>
<g id="a_node2"><a xlink:href="classpsi_1_1Matrix.html#a3745294253bc5cf6f6106347b0567d19" target="_top" xlink:title="psi::Matrix::load_mpqc">
<polygon fill="none" stroke="black" points="130,-136.5 130,-155.5 246,-155.5 246,-136.5 130,-136.5"/>
<text text-anchor="middle" x="188" y="-143.5" font-family="Helvetica,sans-Serif" font-size="10.00">psi::Matrix::load_mpqc</text>
</a>
</g>
</g>
<!-- Node1&#45;&gt;Node2 -->
<g id="edge1" class="edge"><title>Node1&#45;&gt;Node2</title>
<path fill="none" stroke="midnightblue" d="M74.4449,-100.422C90.2972,-108.763 111.003,-119.131 130,-127 138.192,-130.393 147.227,-133.628 155.644,-136.435"/>
<polygon fill="midnightblue" stroke="midnightblue" points="75.7321,-97.1423 65.2605,-95.5311 72.4418,-103.321 75.7321,-97.1423"/>
</g>
<!-- Node3 -->
<g id="node3" class="node"><title>Node3</title>
<g id="a_node3"><a xlink:href="classpsi_1_1Matrix.html#af381eb54e399bd858b19ce970feca6bd" target="_top" xlink:title="psi::Matrix::load">
<polygon fill="none" stroke="black" points="145,-98.5 145,-117.5 231,-117.5 231,-98.5 145,-98.5"/>
<text text-anchor="middle" x="188" y="-105.5" font-family="Helvetica,sans-Serif" font-size="10.00">psi::Matrix::load</text>
</a>
</g>
</g>
<!-- Node1&#45;&gt;Node3 -->
<g id="edge2" class="edge"><title>Node1&#45;&gt;Node3</title>
<path fill="none" stroke="midnightblue" d="M104.401,-94.9268C117.849,-97.0552 131.975,-99.2911 144.667,-101.3"/>
<polygon fill="midnightblue" stroke="midnightblue" points="104.709,-91.4321 94.285,-93.3257 103.615,-98.346 104.709,-91.4321"/>
</g>
<!-- Node1&#45;&gt;Node1 -->
<g id="edge3" class="edge"><title>Node1&#45;&gt;Node1</title>
<path fill="none" stroke="midnightblue" d="M20.9584,-105.029C22.3789,-110.128 31.0594,-114 47,-114 71.8828,-114 79.0755,-104.565 68.5781,-95.7571"/>
<polygon fill="midnightblue" stroke="midnightblue" points="24.238,-106.286 25.4219,-95.7571 17.9308,-103.249 24.238,-106.286"/>
</g>
<!-- Node4 -->
<g id="node4" class="node"><title>Node4</title>
<g id="a_node4"><a xlink:href="classpsi_1_1Molecule.html#a345d8ae40fd3e0d7a047df6a0da8b2a4" target="_top" xlink:title="psi::Molecule::create\l_molecule_from_string">
<polygon fill="none" stroke="black" points="130.5,-49 130.5,-79 245.5,-79 245.5,-49 130.5,-49"/>
<text text-anchor="start" x="138.5" y="-67" font-family="Helvetica,sans-Serif" font-size="10.00">psi::Molecule::create</text>
<text text-anchor="middle" x="188" y="-56" font-family="Helvetica,sans-Serif" font-size="10.00">_molecule_from_string</text>
</a>
</g>
</g>
<!-- Node1&#45;&gt;Node4 -->
<g id="edge4" class="edge"><title>Node1&#45;&gt;Node4</title>
<path fill="none" stroke="midnightblue" d="M104.209,-77.1036C112.801,-75.7436 121.675,-74.3392 130.279,-72.9775"/>
<polygon fill="midnightblue" stroke="midnightblue" points="103.615,-73.654 94.285,-78.6743 104.709,-80.5679 103.615,-73.654"/>
</g>
<!-- Node5 -->
<g id="node5" class="node"><title>Node5</title>
<g id="a_node5"><a xlink:href="classpsi_1_1Molecule.html#ad7febaf74c9fae009acb63c430580724" target="_top" xlink:title="psi::Molecule::get\l_coord_value">
<polygon fill="none" stroke="black" points="141,-0 141,-30 235,-30 235,-0 141,-0"/>
<text text-anchor="start" x="149" y="-18" font-family="Helvetica,sans-Serif" font-size="10.00">psi::Molecule::get</text>
<text text-anchor="middle" x="188" y="-7" font-family="Helvetica,sans-Serif" font-size="10.00">_coord_value</text>
</a>
</g>
</g>
<!-- Node1&#45;&gt;Node5 -->
<g id="edge5" class="edge"><title>Node1&#45;&gt;Node5</title>
<path fill="none" stroke="midnightblue" d="M72.8708,-71.2101C88.954,-61.856 110.459,-49.737 130,-40 136.77,-36.6265 144.1,-33.2287 151.176,-30.0721"/>
<polygon fill="midnightblue" stroke="midnightblue" points="70.9419,-68.2837 64.0837,-76.3593 74.481,-74.3232 70.9419,-68.2837"/>
</g>
</g>
</svg>
