<?xml version="1.0" encoding="UTF-8" standalone="no"?>
<!DOCTYPE svg PUBLIC "-//W3C//DTD SVG 1.1//EN"
 "http://www.w3.org/Graphics/SVG/1.1/DTD/svg11.dtd">
<!-- Generated by graphviz version 2.30.1 (20140110.0959)
 -->
<!-- Title: psi::C_DGER Pages: 1 -->
<svg width="250pt" height="122pt"
 viewBox="0.00 0.00 250.00 122.00" xmlns="http://www.w3.org/2000/svg" xmlns:xlink="http://www.w3.org/1999/xlink">
<g id="graph0" class="graph" transform="scale(1 1) rotate(0) translate(4 118)">
<title>psi::C_DGER</title>
<!-- Node1 -->
<g id="node1" class="node"><title>Node1</title>
<polygon fill="#bfbfbf" stroke="black" points="0.5,-38.5 0.5,-57.5 77.5,-57.5 77.5,-38.5 0.5,-38.5"/>
<text text-anchor="middle" x="39" y="-45.5" font-family="Helvetica,sans-Serif" font-size="10.00">psi::C_DGER</text>
</g>
<!-- Node2 -->
<g id="node2" class="node"><title>Node2</title>
<g id="a_node2"><a xlink:href="namespacepsi.html#a4f4e9e11a4a771b54e65f2223ceba66b" target="_top" xlink:title="psi::benchmark_blas2">
<polygon fill="none" stroke="black" points="122,-94.5 122,-113.5 234,-113.5 234,-94.5 122,-94.5"/>
<text text-anchor="middle" x="178" y="-101.5" font-family="Helvetica,sans-Serif" font-size="10.00">psi::benchmark_blas2</text>
</a>
</g>
</g>
<!-- Node1&#45;&gt;Node2 -->
<g id="edge1" class="edge"><title>Node1&#45;&gt;Node2</title>
<path fill="none" stroke="midnightblue" d="M65.9791,-62.3562C79.9476,-69.7234 97.6235,-78.4917 114,-85 122.812,-88.5019 132.532,-91.7303 141.645,-94.4944"/>
<polygon fill="midnightblue" stroke="midnightblue" points="67.4298,-59.1628 56.9624,-57.5247 64.1236,-65.3329 67.4298,-59.1628"/>
</g>
<!-- Node3 -->
<g id="node3" class="node"><title>Node3</title>
<g id="a_node3"><a xlink:href="namespacepsi.html#ac1f878c62bbcfecc0db99392efb8dbcd" target="_top" xlink:title="PSI_DGER, a wrapper to C_DGER using objects.">
<polygon fill="none" stroke="black" points="135,-38.5 135,-57.5 221,-57.5 221,-38.5 135,-38.5"/>
<text text-anchor="middle" x="178" y="-45.5" font-family="Helvetica,sans-Serif" font-size="10.00">psi::PSI_DGER</text>
</a>
</g>
</g>
<!-- Node1&#45;&gt;Node3 -->
<g id="edge2" class="edge"><title>Node1&#45;&gt;Node3</title>
<path fill="none" stroke="midnightblue" d="M88.1009,-48C103.388,-48 120.166,-48 134.988,-48"/>
<polygon fill="midnightblue" stroke="midnightblue" points="87.7985,-44.5001 77.7985,-48 87.7985,-51.5001 87.7985,-44.5001"/>
</g>
<!-- Node4 -->
<g id="node4" class="node"><title>Node4</title>
<g id="a_node4"><a xlink:href="classpsi_1_1CoreTensor.html#a900c0cb68bacba7b7f76455df18cb79d" target="_top" xlink:title="psi::CoreTensor::contract">
<polygon fill="none" stroke="black" points="114,-0.5 114,-19.5 242,-19.5 242,-0.5 114,-0.5"/>
<text text-anchor="middle" x="178" y="-7.5" font-family="Helvetica,sans-Serif" font-size="10.00">psi::CoreTensor::contract</text>
</a>
</g>
</g>
<!-- Node1&#45;&gt;Node4 -->
<g id="edge4" class="edge"><title>Node1&#45;&gt;Node4</title>
<path fill="none" stroke="midnightblue" d="M84.4108,-35.6817C103.234,-30.4607 124.838,-24.4684 142.44,-19.5859"/>
<polygon fill="midnightblue" stroke="midnightblue" points="83.2716,-32.3654 74.5709,-38.411 85.1426,-39.1108 83.2716,-32.3654"/>
</g>
<!-- Node3&#45;&gt;Node3 -->
<g id="edge3" class="edge"><title>Node3&#45;&gt;Node3</title>
<path fill="none" stroke="midnightblue" d="M152.33,-67.0292C153.731,-72.128 162.287,-76 178,-76 202.527,-76 209.617,-66.5653 199.27,-57.7571"/>
<polygon fill="midnightblue" stroke="midnightblue" points="155.605,-68.292 156.73,-57.7571 149.281,-65.2911 155.605,-68.292"/>
</g>
</g>
</svg>
