<?xml version="1.0" encoding="UTF-8" standalone="no"?>
<!DOCTYPE svg PUBLIC "-//W3C//DTD SVG 1.1//EN"
 "http://www.w3.org/Graphics/SVG/1.1/DTD/svg11.dtd">
<!-- Generated by graphviz version 2.30.1 (20140110.0959)
 -->
<!-- Title: psi::strncpy Pages: 1 -->
<!--zoomable 467 -->
<svg id="main" version="1.1" xmlns="http://www.w3.org/2000/svg" xmlns:xlink="http://www.w3.org/1999/xlink" xml:space="preserve" onload="init(evt)">
        <defs>
                <circle id="rim" cx="0" cy="0" r="7"/>
                <circle id="rim2" cx="0" cy="0" r="3.5"/>
                <g id="zoomPlus">
                        <use xlink:href="#rim" fill="#404040">
                                <set attributeName="fill" to="#808080" begin="zoomplus.mouseover" end="zoomplus.mouseout"/>
                        </use>
                        <path d="M-4,0h8M0,-4v8" fill="none" stroke="white" stroke-width="1.5" pointer-events="none"/>
                </g>
                <g id="zoomMin">
                        <use xlink:href="#rim" fill="#404040">
                                <set attributeName="fill" to="#808080" begin="zoomminus.mouseover" end="zoomminus.mouseout"/>
                        </use>
                        <path d="M-4,0h8" fill="none" stroke="white" stroke-width="1.5" pointer-events="none"/>
                </g>
                <g id="dirArrow">
                        <path fill="none" stroke="white" stroke-width="1.5" d="M0,-3.0v7 M-2.5,-0.5L0,-3.0L2.5,-0.5"/>
                </g>
               <g id="resetDef">
                       <use xlink:href="#rim2" fill="#404040">
                               <set attributeName="fill" to="#808080" begin="reset.mouseover" end="reset.mouseout"/>
                       </use>
               </g>
        </defs>

<script type="text/javascript">
var viewWidth = 1060;
var viewHeight = 467;
var sectionId = 'dynsection-185';
</script>
<script xlink:href="svgpan.js"/>
<svg id="graph" class="graph">
<g id="viewport">
<title>psi::strncpy</title>
<!-- Node1 -->
<g id="node1" class="node"><title>Node1</title>
<polygon fill="#bfbfbf" stroke="black" points="0,-270.5 0,-289.5 68,-289.5 68,-270.5 0,-270.5"/>
<text text-anchor="middle" x="34" y="-277.5" font-family="Helvetica,sans-Serif" font-size="10.00">psi::strncpy</text>
</g>
<!-- Node2 -->
<g id="node2" class="node"><title>Node2</title>
<g id="a_node2"><a xlink:href="group__CIOMR.html#gaa9996102f35b660c8148eda7ea5b2a9f" target="_top" xlink:title="psi::tstart">
<polygon fill="none" stroke="black" points="118,-270.5 118,-289.5 176,-289.5 176,-270.5 118,-270.5"/>
<text text-anchor="middle" x="147" y="-277.5" font-family="Helvetica,sans-Serif" font-size="10.00">psi::tstart</text>
</a>
</g>
</g>
<!-- Node1&#45;&gt;Node2 -->
<g id="edge1" class="edge"><title>Node1&#45;&gt;Node2</title>
<path fill="none" stroke="midnightblue" d="M78.3639,-280C91.6195,-280 105.846,-280 117.815,-280"/>
<polygon fill="midnightblue" stroke="midnightblue" points="78.0032,-276.5 68.0031,-280 78.0031,-283.5 78.0032,-276.5"/>
</g>
<!-- Node7 -->
<g id="node7" class="node"><title>Node7</title>
<g id="a_node7"><a xlink:href="group__CIOMR.html#gae474392e6a03328b747fd746b8dddb15" target="_top" xlink:title="psi::tstop">
<polygon fill="none" stroke="black" points="118.5,-308.5 118.5,-327.5 175.5,-327.5 175.5,-308.5 118.5,-308.5"/>
<text text-anchor="middle" x="147" y="-315.5" font-family="Helvetica,sans-Serif" font-size="10.00">psi::tstop</text>
</a>
</g>
</g>
<!-- Node1&#45;&gt;Node7 -->
<g id="edge6" class="edge"><title>Node1&#45;&gt;Node7</title>
<path fill="none" stroke="midnightblue" d="M72.5399,-292.852C87.554,-297.991 104.534,-303.804 118.383,-308.546"/>
<polygon fill="midnightblue" stroke="midnightblue" points="73.6046,-289.517 63.01,-289.589 71.3373,-296.139 73.6046,-289.517"/>
</g>
<!-- Node8 -->
<g id="node8" class="node"><title>Node8</title>
<g id="a_node8"><a xlink:href="classpsi_1_1PSIO.html#abaa2e29b2fbcab920d8daf8f5ae5419c" target="_top" xlink:title="psi::PSIO::write">
<polygon fill="none" stroke="black" points="104,-177.5 104,-196.5 190,-196.5 190,-177.5 104,-177.5"/>
<text text-anchor="middle" x="147" y="-184.5" font-family="Helvetica,sans-Serif" font-size="10.00">psi::PSIO::write</text>
</a>
</g>
</g>
<!-- Node1&#45;&gt;Node8 -->
<g id="edge11" class="edge"><title>Node1&#45;&gt;Node8</title>
<path fill="none" stroke="midnightblue" d="M54.2416,-263.879C77.3655,-244.505 115.422,-212.62 134.435,-196.689"/>
<polygon fill="midnightblue" stroke="midnightblue" points="51.8783,-261.293 46.4609,-270.398 56.3739,-266.658 51.8783,-261.293"/>
</g>
<!-- Node3 -->
<g id="node3" class="node"><title>Node3</title>
<g id="a_node3"><a xlink:href="classpsi_1_1fnocc_1_1CoupledCluster.html#ae628ea29adf85677c4c3c05ab9517501" target="_top" xlink:title="Compute energy. Subclasses override this function to compute its energy.">
<polygon fill="none" stroke="black" points="232.5,-216 232.5,-246 365.5,-246 365.5,-216 232.5,-216"/>
<text text-anchor="start" x="240.5" y="-234" font-family="Helvetica,sans-Serif" font-size="10.00">psi::fnocc::CoupledCluster</text>
<text text-anchor="middle" x="299" y="-223" font-family="Helvetica,sans-Serif" font-size="10.00">::compute_energy</text>
</a>
</g>
</g>
<!-- Node2&#45;&gt;Node3 -->
<g id="edge2" class="edge"><title>Node2&#45;&gt;Node3</title>
<path fill="none" stroke="midnightblue" d="M185.935,-267.608C205.992,-261.056 230.774,-252.96 251.929,-246.05"/>
<polygon fill="midnightblue" stroke="midnightblue" points="184.633,-264.351 176.214,-270.783 186.806,-271.005 184.633,-264.351"/>
</g>
<!-- Node4 -->
<g id="node4" class="node"><title>Node4</title>
<g id="a_node4"><a xlink:href="classpsi_1_1fnocc_1_1CoupledPair.html#aed2fc04f78da60ed4c0f6fb927f20137" target="_top" xlink:title="Compute energy. Subclasses override this function to compute its energy.">
<polygon fill="none" stroke="black" points="239.5,-363 239.5,-393 358.5,-393 358.5,-363 239.5,-363"/>
<text text-anchor="start" x="247.5" y="-381" font-family="Helvetica,sans-Serif" font-size="10.00">psi::fnocc::CoupledPair</text>
<text text-anchor="middle" x="299" y="-370" font-family="Helvetica,sans-Serif" font-size="10.00">::compute_energy</text>
</a>
</g>
</g>
<!-- Node2&#45;&gt;Node4 -->
<g id="edge3" class="edge"><title>Node2&#45;&gt;Node4</title>
<path fill="none" stroke="midnightblue" d="M184.28,-294.747C186.29,-296.068 188.215,-297.485 190,-299 211.99,-317.666 203.187,-335.349 226,-353 230.919,-356.806 236.458,-360.057 242.225,-362.828"/>
<polygon fill="midnightblue" stroke="midnightblue" points="185.522,-291.429 175.094,-289.558 182.079,-297.524 185.522,-291.429"/>
</g>
<!-- Node5 -->
<g id="node5" class="node"><title>Node5</title>
<g id="a_node5"><a xlink:href="classpsi_1_1dcft_1_1DCFTSolver.html#adb56439ca03c6ca1e8ae743a837a03be" target="_top" xlink:title="psi::dcft::DCFTSolver\l::compute_energy">
<polygon fill="none" stroke="black" points="242.5,-314 242.5,-344 355.5,-344 355.5,-314 242.5,-314"/>
<text text-anchor="start" x="250.5" y="-332" font-family="Helvetica,sans-Serif" font-size="10.00">psi::dcft::DCFTSolver</text>
<text text-anchor="middle" x="299" y="-321" font-family="Helvetica,sans-Serif" font-size="10.00">::compute_energy</text>
</a>
</g>
</g>
<!-- Node2&#45;&gt;Node5 -->
<g id="edge4" class="edge"><title>Node2&#45;&gt;Node5</title>
<path fill="none" stroke="midnightblue" d="M185.935,-292.392C205.992,-298.944 230.774,-307.04 251.929,-313.95"/>
<polygon fill="midnightblue" stroke="midnightblue" points="186.806,-288.995 176.214,-289.217 184.633,-295.649 186.806,-288.995"/>
</g>
<!-- Node6 -->
<g id="node6" class="node"><title>Node6</title>
<g id="a_node6"><a xlink:href="classpsi_1_1fnocc_1_1DFCoupledCluster.html#adee424029b78d42b39c8ed4fdeb4c86b" target="_top" xlink:title="Compute energy. Subclasses override this function to compute its energy.">
<polygon fill="none" stroke="black" points="226,-265 226,-295 372,-295 372,-265 226,-265"/>
<text text-anchor="start" x="234" y="-283" font-family="Helvetica,sans-Serif" font-size="10.00">psi::fnocc::DFCoupledCluster</text>
<text text-anchor="middle" x="299" y="-272" font-family="Helvetica,sans-Serif" font-size="10.00">::compute_energy</text>
</a>
</g>
</g>
<!-- Node2&#45;&gt;Node6 -->
<g id="edge5" class="edge"><title>Node2&#45;&gt;Node6</title>
<path fill="none" stroke="midnightblue" d="M186.373,-280C198.479,-280 212.273,-280 225.936,-280"/>
<polygon fill="midnightblue" stroke="midnightblue" points="186.214,-276.5 176.214,-280 186.214,-283.5 186.214,-276.5"/>
</g>
<!-- Node7&#45;&gt;Node3 -->
<g id="edge7" class="edge"><title>Node7&#45;&gt;Node3</title>
<path fill="none" stroke="midnightblue" d="M182.991,-303.684C185.44,-302.228 187.805,-300.666 190,-299 209.853,-283.93 205.485,-270.155 226,-256 231.554,-252.167 237.753,-248.87 244.119,-246.046"/>
<polygon fill="midnightblue" stroke="midnightblue" points="181.114,-300.717 173.908,-308.484 184.384,-306.906 181.114,-300.717"/>
</g>
<!-- Node7&#45;&gt;Node4 -->
<g id="edge8" class="edge"><title>Node7&#45;&gt;Node4</title>
<path fill="none" stroke="midnightblue" d="M177.44,-331.944C191.935,-338.62 209.748,-346.547 226,-353 234.609,-356.418 243.893,-359.837 252.839,-362.999"/>
<polygon fill="midnightblue" stroke="midnightblue" points="178.538,-328.595 167.995,-327.554 175.588,-334.943 178.538,-328.595"/>
</g>
<!-- Node7&#45;&gt;Node5 -->
<g id="edge9" class="edge"><title>Node7&#45;&gt;Node5</title>
<path fill="none" stroke="midnightblue" d="M185.696,-320.764C202.851,-322.022 223.501,-323.537 242.389,-324.922"/>
<polygon fill="midnightblue" stroke="midnightblue" points="185.742,-317.258 175.512,-320.018 185.23,-324.24 185.742,-317.258"/>
</g>
<!-- Node7&#45;&gt;Node6 -->
<g id="edge10" class="edge"><title>Node7&#45;&gt;Node6</title>
<path fill="none" stroke="midnightblue" d="M185.575,-308.481C201.631,-304.414 220.763,-299.567 238.652,-295.035"/>
<polygon fill="midnightblue" stroke="midnightblue" points="184.347,-305.182 175.512,-311.03 186.066,-311.967 184.347,-305.182"/>
</g>
<!-- Node9 -->
<g id="node9" class="node"><title>Node9</title>
<g id="a_node9"><a xlink:href="group__PSIO.html#ga0b989c316ebc107f83ab7eb921a6f38c" target="_top" xlink:title="psi::PSIO::rw">
<polygon fill="none" stroke="black" points="261,-177.5 261,-196.5 337,-196.5 337,-177.5 261,-177.5"/>
<text text-anchor="middle" x="299" y="-184.5" font-family="Helvetica,sans-Serif" font-size="10.00">psi::PSIO::rw</text>
</a>
</g>
</g>
<!-- Node8&#45;&gt;Node9 -->
<g id="edge12" class="edge"><title>Node8&#45;&gt;Node9</title>
<path fill="none" stroke="midnightblue" d="M200.343,-180.532C220.246,-180.023 242.498,-180.204 260.729,-181.075"/>
<polygon fill="midnightblue" stroke="midnightblue" points="200.064,-177.039 190.183,-180.861 200.291,-184.035 200.064,-177.039"/>
</g>
<!-- Node27 -->
<g id="node27" class="node"><title>Node27</title>
<g id="a_node27"><a xlink:href="classpsi_1_1PSIO.html#abc5f81207cc631e4b944507ca0621381" target="_top" xlink:title="psi::PSIO::zero_disk">
<polygon fill="none" stroke="black" points="245.5,-0.5 245.5,-19.5 352.5,-19.5 352.5,-0.5 245.5,-0.5"/>
<text text-anchor="middle" x="299" y="-7.5" font-family="Helvetica,sans-Serif" font-size="10.00">psi::PSIO::zero_disk</text>
</a>
</g>
</g>
<!-- Node8&#45;&gt;Node27 -->
<g id="edge36" class="edge"><title>Node8&#45;&gt;Node27</title>
<path fill="none" stroke="midnightblue" d="M152.868,-167.084C161.821,-134.592 183.95,-70.1832 226,-34 233.391,-27.6404 242.525,-22.952 251.777,-19.5002"/>
<polygon fill="midnightblue" stroke="midnightblue" points="149.381,-166.587 150.24,-177.147 156.154,-168.355 149.381,-166.587"/>
</g>
<!-- Node10 -->
<g id="node10" class="node"><title>Node10</title>
<g id="a_node10"><a xlink:href="classpsi_1_1PSIO.html#a20e9bd359e831a80b55ec64673394cd0" target="_top" xlink:title="psi::PSIO::read">
<polygon fill="none" stroke="black" points="817,-439.5 817,-458.5 901,-458.5 901,-439.5 817,-439.5"/>
<text text-anchor="middle" x="859" y="-446.5" font-family="Helvetica,sans-Serif" font-size="10.00">psi::PSIO::read</text>
</a>
</g>
</g>
<!-- Node9&#45;&gt;Node10 -->
<g id="edge13" class="edge"><title>Node9&#45;&gt;Node10</title>
<path fill="none" stroke="midnightblue" d="M347.028,-188.644C355.534,-191.099 364.18,-194.253 372,-198 519.046,-268.464 518.898,-350.714 670,-412 718.01,-431.472 777.842,-437.592 816.938,-441.489"/>
<polygon fill="midnightblue" stroke="midnightblue" points="347.723,-185.208 337.164,-186.09 345.968,-191.985 347.723,-185.208"/>
</g>
<!-- Node12 -->
<g id="node12" class="node"><title>Node12</title>
<g id="a_node12"><a xlink:href="classpsi_1_1PSIO.html#a32fcd89fe9072099cb993a455233cf15" target="_top" xlink:title="Write the table of contents for file number &#39;unit&#39;. NB: This function should NOT call psio_error beca...">
<polygon fill="none" stroke="black" points="408,-177.5 408,-196.5 508,-196.5 508,-177.5 408,-177.5"/>
<text text-anchor="middle" x="458" y="-184.5" font-family="Helvetica,sans-Serif" font-size="10.00">psi::PSIO::tocwrite</text>
</a>
</g>
</g>
<!-- Node9&#45;&gt;Node12 -->
<g id="edge16" class="edge"><title>Node9&#45;&gt;Node12</title>
<path fill="none" stroke="midnightblue" d="M347.218,-187C366.382,-187 388.52,-187 407.874,-187"/>
<polygon fill="midnightblue" stroke="midnightblue" points="347.207,-183.5 337.207,-187 347.207,-190.5 347.207,-183.5"/>
</g>
<!-- Node9&#45;&gt;Node8 -->
<g id="edge35" class="edge"><title>Node9&#45;&gt;Node8</title>
<path fill="none" stroke="midnightblue" d="M250.595,-193.326C231.218,-193.948 208.986,-193.886 190.183,-193.139"/>
<polygon fill="midnightblue" stroke="midnightblue" points="250.875,-196.818 260.729,-192.925 250.598,-189.824 250.875,-196.818"/>
</g>
<!-- Node10&#45;&gt;Node9 -->
<g id="edge14" class="edge"><title>Node10&#45;&gt;Node9</title>
<path fill="none" stroke="midnightblue" d="M806.916,-455.267C768.105,-454.498 714.071,-447.875 670,-430 518.898,-368.714 519.046,-286.464 372,-216 353.515,-207.142 330.421,-201.6 315.449,-196.539"/>
<polygon fill="midnightblue" stroke="midnightblue" points="806.914,-458.767 816.938,-455.337 806.963,-451.767 806.914,-458.767"/>
</g>
<!-- Node11 -->
<g id="node11" class="node"><title>Node11</title>
<g id="a_node11"><a xlink:href="classpsi_1_1PSIO.html#acaf0018068dc555a9fdbb0ba4662cc95" target="_top" xlink:title="psi::PSIO::rd_toclen">
<polygon fill="none" stroke="black" points="946.5,-439.5 946.5,-458.5 1051.5,-458.5 1051.5,-439.5 946.5,-439.5"/>
<text text-anchor="middle" x="999" y="-446.5" font-family="Helvetica,sans-Serif" font-size="10.00">psi::PSIO::rd_toclen</text>
</a>
</g>
</g>
<!-- Node10&#45;&gt;Node11 -->
<g id="edge15" class="edge"><title>Node10&#45;&gt;Node11</title>
<path fill="none" stroke="midnightblue" d="M911.305,-449C922.749,-449 934.89,-449 946.348,-449"/>
<polygon fill="midnightblue" stroke="midnightblue" points="911.031,-445.5 901.031,-449 911.031,-452.5 911.031,-445.5"/>
</g>
<!-- Node13 -->
<g id="node13" class="node"><title>Node13</title>
<g id="a_node13"><a xlink:href="classpsi_1_1PSIO.html#adbd402c15bc7514c6ccaf1838a138858" target="_top" xlink:title="close unit. if keep == 0, will remove the file, else keep it">
<polygon fill="none" stroke="black" points="544.5,-218.5 544.5,-237.5 633.5,-237.5 633.5,-218.5 544.5,-218.5"/>
<text text-anchor="middle" x="589" y="-225.5" font-family="Helvetica,sans-Serif" font-size="10.00">psi::PSIO::close</text>
</a>
</g>
</g>
<!-- Node12&#45;&gt;Node13 -->
<g id="edge17" class="edge"><title>Node12&#45;&gt;Node13</title>
<path fill="none" stroke="midnightblue" d="M498.535,-199.565C517.608,-205.627 540.124,-212.783 557.796,-218.4"/>
<polygon fill="midnightblue" stroke="midnightblue" points="499.51,-196.203 488.919,-196.509 497.389,-202.874 499.51,-196.203"/>
</g>
<!-- Node24 -->
<g id="node24" class="node"><title>Node24</title>
<g id="a_node24"><a xlink:href="classpsi_1_1PSIO.html#a8662dbc5874d1024d04427ecc01a2f93" target="_top" xlink:title="Delete all TOC entries after the given key. If a blank key is given, the entire TOC will be wiped...">
<polygon fill="none" stroke="black" points="808,-38.5 808,-57.5 910,-57.5 910,-38.5 808,-38.5"/>
<text text-anchor="middle" x="859" y="-45.5" font-family="Helvetica,sans-Serif" font-size="10.00">psi::PSIO::tocclean</text>
</a>
</g>
</g>
<!-- Node12&#45;&gt;Node24 -->
<g id="edge34" class="edge"><title>Node12&#45;&gt;Node24</title>
<path fill="none" stroke="midnightblue" d="M479.741,-171.223C516.057,-144.548 594.499,-91.0946 670,-67 715.16,-52.5883 769.236,-48.3925 807.776,-47.4715"/>
<polygon fill="midnightblue" stroke="midnightblue" points="477.379,-168.617 471.443,-177.393 481.556,-174.234 477.379,-168.617"/>
</g>
<!-- Node14 -->
<g id="node14" class="node"><title>Node14</title>
<g id="a_node14"><a xlink:href="classpsi_1_1IWL.html#a202f7c51f0e4852cb5c6068bc594acc3" target="_top" xlink:title="psi::IWL::init">
<polygon fill="none" stroke="black" points="823,-234.5 823,-253.5 895,-253.5 895,-234.5 823,-234.5"/>
<text text-anchor="middle" x="859" y="-241.5" font-family="Helvetica,sans-Serif" font-size="10.00">psi::IWL::init</text>
</a>
</g>
</g>
<!-- Node13&#45;&gt;Node14 -->
<g id="edge18" class="edge"><title>Node13&#45;&gt;Node14</title>
<path fill="none" stroke="midnightblue" d="M601.658,-245.951C615.361,-265.219 640.07,-294.713 670,-307 711.937,-324.217 728.913,-321.093 772,-307 804.367,-296.413 834.634,-268.499 849.099,-253.635"/>
<polygon fill="midnightblue" stroke="midnightblue" points="604.533,-243.954 595.999,-237.675 598.755,-247.905 604.533,-243.954"/>
</g>
<!-- Node15 -->
<g id="node15" class="node"><title>Node15</title>
<g id="a_node15"><a xlink:href="classpsi_1_1Chkpt.html#aca792d05dece12c66d19cf2938bf0c50" target="_top" xlink:title="psi::Chkpt::~Chkpt">
<polygon fill="none" stroke="black" points="671,-152.5 671,-171.5 771,-171.5 771,-152.5 671,-152.5"/>
<text text-anchor="middle" x="721" y="-159.5" font-family="Helvetica,sans-Serif" font-size="10.00">psi::Chkpt::~Chkpt</text>
</a>
</g>
</g>
<!-- Node13&#45;&gt;Node15 -->
<g id="edge19" class="edge"><title>Node13&#45;&gt;Node15</title>
<path fill="none" stroke="midnightblue" d="M613.145,-213C628.822,-203.194 650.209,-190.491 670,-181 677.117,-177.587 685.02,-174.346 692.403,-171.538"/>
<polygon fill="midnightblue" stroke="midnightblue" points="611.205,-210.086 604.629,-218.394 614.95,-216 611.205,-210.086"/>
</g>
<!-- Node16 -->
<g id="node16" class="node"><title>Node16</title>
<g id="a_node16"><a xlink:href="classpsi_1_1Matrix.html#a504437ba978cdadc160b0a41e7bdc1b0" target="_top" xlink:title="psi::Matrix::save">
<polygon fill="none" stroke="black" points="676.5,-114.5 676.5,-133.5 765.5,-133.5 765.5,-114.5 676.5,-114.5"/>
<text text-anchor="middle" x="721" y="-121.5" font-family="Helvetica,sans-Serif" font-size="10.00">psi::Matrix::save</text>
</a>
</g>
</g>
<!-- Node13&#45;&gt;Node16 -->
<g id="edge20" class="edge"><title>Node13&#45;&gt;Node16</title>
<path fill="none" stroke="midnightblue" d="M602.86,-210.123C617.304,-191.171 642.369,-161.477 670,-143 675.558,-139.283 681.945,-136.154 688.254,-133.577"/>
<polygon fill="midnightblue" stroke="midnightblue" points="599.988,-208.119 596.828,-218.232 605.605,-212.297 599.988,-208.119"/>
</g>
<!-- Node17 -->
<g id="node17" class="node"><title>Node17</title>
<g id="a_node17"><a xlink:href="classpsi_1_1Matrix.html#a5565e99a42eea2302f10857c1dc2b28c" target="_top" xlink:title="psi::Matrix::load">
<polygon fill="none" stroke="black" points="678,-392.5 678,-411.5 764,-411.5 764,-392.5 678,-392.5"/>
<text text-anchor="middle" x="721" y="-399.5" font-family="Helvetica,sans-Serif" font-size="10.00">psi::Matrix::load</text>
</a>
</g>
</g>
<!-- Node13&#45;&gt;Node17 -->
<g id="edge21" class="edge"><title>Node13&#45;&gt;Node17</title>
<path fill="none" stroke="midnightblue" d="M595.114,-247.557C604.571,-280.053 627.783,-345.315 670,-383 674.295,-386.834 679.443,-389.925 684.777,-392.409"/>
<polygon fill="midnightblue" stroke="midnightblue" points="598.475,-246.579 592.427,-237.88 591.73,-248.452 598.475,-246.579"/>
</g>
<!-- Node18 -->
<g id="node18" class="node"><title>Node18</title>
<g id="a_node18"><a xlink:href="classpsi_1_1PSIO.html#a55e993b2eb05c261d90888c90d854e23" target="_top" xlink:title="check if a psi unit already exists or not">
<polygon fill="none" stroke="black" points="675,-278.5 675,-297.5 767,-297.5 767,-278.5 675,-278.5"/>
<text text-anchor="middle" x="721" y="-285.5" font-family="Helvetica,sans-Serif" font-size="10.00">psi::PSIO::exists</text>
</a>
</g>
</g>
<!-- Node13&#45;&gt;Node18 -->
<g id="edge22" class="edge"><title>Node13&#45;&gt;Node18</title>
<path fill="none" stroke="midnightblue" d="M616.18,-242.344C631.634,-250.576 651.695,-260.861 670,-269 677.467,-272.32 685.709,-275.603 693.31,-278.481"/>
<polygon fill="midnightblue" stroke="midnightblue" points="617.675,-239.174 607.21,-237.521 614.36,-245.339 617.675,-239.174"/>
</g>
<!-- Node19 -->
<g id="node19" class="node"><title>Node19</title>
<g id="a_node19"><a xlink:href="classpsi_1_1PSIO.html#a23ff92893b98ff855a4a2a0f46798965" target="_top" xlink:title="sync up the object to the file on disk by closing and opening the file, if necessary">
<polygon fill="none" stroke="black" points="673.5,-354.5 673.5,-373.5 768.5,-373.5 768.5,-354.5 673.5,-354.5"/>
<text text-anchor="middle" x="721" y="-361.5" font-family="Helvetica,sans-Serif" font-size="10.00">psi::PSIO::rehash</text>
</a>
</g>
</g>
<!-- Node13&#45;&gt;Node19 -->
<g id="edge23" class="edge"><title>Node13&#45;&gt;Node19</title>
<path fill="none" stroke="midnightblue" d="M599.367,-246.501C612.389,-270.682 638.009,-313.107 670,-340 677.002,-345.886 685.693,-350.709 693.855,-354.446"/>
<polygon fill="midnightblue" stroke="midnightblue" points="602.461,-244.866 594.719,-237.634 596.262,-248.116 602.461,-244.866"/>
</g>
<!-- Node21 -->
<g id="node21" class="node"><title>Node21</title>
<g id="a_node21"><a xlink:href="classpsi_1_1PSIO.html#a12ae14f94e24babb41b403a059ab9855" target="_top" xlink:title="Print the table of contents for the given unit.">
<polygon fill="none" stroke="black" points="672,-240.5 672,-259.5 770,-259.5 770,-240.5 672,-240.5"/>
<text text-anchor="middle" x="721" y="-247.5" font-family="Helvetica,sans-Serif" font-size="10.00">psi::PSIO::tocprint</text>
</a>
</g>
</g>
<!-- Node13&#45;&gt;Node21 -->
<g id="edge25" class="edge"><title>Node13&#45;&gt;Node21</title>
<path fill="none" stroke="midnightblue" d="M643.61,-237.072C652.941,-238.652 662.595,-240.285 671.77,-241.838"/>
<polygon fill="midnightblue" stroke="midnightblue" points="644.094,-233.605 633.65,-235.387 642.926,-240.506 644.094,-233.605"/>
</g>
<!-- Node22 -->
<g id="node22" class="node"><title>Node22</title>
<g id="a_node22"><a xlink:href="classpsi_1_1PSIO.html#a5646f6a4991f52588a42e54bad3261ef" target="_top" xlink:title="Scans the TOC for a particular keyword and returns either a pointer to the entry or NULL to the calle...">
<polygon fill="none" stroke="black" points="671,-76.5 671,-95.5 771,-95.5 771,-76.5 671,-76.5"/>
<text text-anchor="middle" x="721" y="-83.5" font-family="Helvetica,sans-Serif" font-size="10.00">psi::PSIO::tocscan</text>
</a>
</g>
</g>
<!-- Node13&#45;&gt;Node22 -->
<g id="edge26" class="edge"><title>Node13&#45;&gt;Node22</title>
<path fill="none" stroke="midnightblue" d="M597.859,-208.778C609.723,-181.989 634.639,-133.516 670,-105 674.771,-101.153 680.405,-98.0263 686.14,-95.5048"/>
<polygon fill="midnightblue" stroke="midnightblue" points="594.543,-207.631 593.83,-218.202 600.979,-210.383 594.543,-207.631"/>
</g>
<!-- Node26 -->
<g id="node26" class="node"><title>Node26</title>
<g id="a_node26"><a xlink:href="classpsi_1_1PSIO.html#abb58a8a71cf2dcdfa8f596310e8e7a11" target="_top" xlink:title="Checks the TOC to see if a particular keyword exists there or not.">
<polygon fill="none" stroke="black" points="670.5,-191 670.5,-221 771.5,-221 771.5,-191 670.5,-191"/>
<text text-anchor="start" x="678.5" y="-209" font-family="Helvetica,sans-Serif" font-size="10.00">psi::PSIO::tocentry</text>
<text text-anchor="middle" x="721" y="-198" font-family="Helvetica,sans-Serif" font-size="10.00">_exists</text>
</a>
</g>
</g>
<!-- Node13&#45;&gt;Node26 -->
<g id="edge33" class="edge"><title>Node13&#45;&gt;Node26</title>
<path fill="none" stroke="midnightblue" d="M643.531,-218.941C652.427,-217.435 661.619,-215.88 670.412,-214.392"/>
<polygon fill="midnightblue" stroke="midnightblue" points="642.926,-215.494 633.65,-220.613 644.094,-222.395 642.926,-215.494"/>
</g>
<!-- Node20 -->
<g id="node20" class="node"><title>Node20</title>
<g id="a_node20"><a xlink:href="classpsi_1_1Chkpt.html#a7e767ca0c7ddc8c6657bc2963a875531" target="_top" xlink:title="update this object. call rehash() if the state of the checkpoint file may have changed">
<polygon fill="none" stroke="black" points="810.5,-354.5 810.5,-373.5 907.5,-373.5 907.5,-354.5 810.5,-354.5"/>
<text text-anchor="middle" x="859" y="-361.5" font-family="Helvetica,sans-Serif" font-size="10.00">psi::Chkpt::rehash</text>
</a>
</g>
</g>
<!-- Node19&#45;&gt;Node20 -->
<g id="edge24" class="edge"><title>Node19&#45;&gt;Node20</title>
<path fill="none" stroke="midnightblue" d="M779.021,-364C789.393,-364 800.114,-364 810.186,-364"/>
<polygon fill="midnightblue" stroke="midnightblue" points="778.804,-360.5 768.803,-364 778.803,-367.5 778.804,-360.5"/>
</g>
<!-- Node22&#45;&gt;Node14 -->
<g id="edge27" class="edge"><title>Node22&#45;&gt;Node14</title>
<path fill="none" stroke="midnightblue" d="M765.458,-100.364C767.762,-101.777 769.963,-103.319 772,-105 817.087,-142.208 845.299,-209.54 854.599,-234.422"/>
<polygon fill="midnightblue" stroke="midnightblue" points="766.677,-97.0528 756.192,-95.5315 763.44,-103.259 766.677,-97.0528"/>
</g>
<!-- Node23 -->
<g id="node23" class="node"><title>Node23</title>
<g id="a_node23"><a xlink:href="classpsi_1_1Chkpt.html#a077936f112012a2de9dd5c36f6450263" target="_top" xlink:title="psi::Chkpt::Chkpt">
<polygon fill="none" stroke="black" points="812,-76.5 812,-95.5 906,-95.5 906,-76.5 812,-76.5"/>
<text text-anchor="middle" x="859" y="-83.5" font-family="Helvetica,sans-Serif" font-size="10.00">psi::Chkpt::Chkpt</text>
</a>
</g>
</g>
<!-- Node22&#45;&gt;Node23 -->
<g id="edge28" class="edge"><title>Node22&#45;&gt;Node23</title>
<path fill="none" stroke="midnightblue" d="M781.188,-86C791.402,-86 801.885,-86 811.696,-86"/>
<polygon fill="midnightblue" stroke="midnightblue" points="781.099,-82.5001 771.099,-86 781.099,-89.5001 781.099,-82.5001"/>
</g>
<!-- Node22&#45;&gt;Node10 -->
<g id="edge29" class="edge"><title>Node22&#45;&gt;Node10</title>
<path fill="none" stroke="midnightblue" d="M769.285,-101.978C770.25,-102.928 771.159,-103.934 772,-105 849.192,-202.792 760.8,-267.7 808,-383 817.258,-405.616 836.269,-427.3 847.998,-439.316"/>
<polygon fill="midnightblue" stroke="midnightblue" points="771.054,-98.9309 760.95,-95.7461 766.863,-104.537 771.054,-98.9309"/>
</g>
<!-- Node22&#45;&gt;Node24 -->
<g id="edge30" class="edge"><title>Node22&#45;&gt;Node24</title>
<path fill="none" stroke="midnightblue" d="M766.087,-73.6817C784.772,-68.4607 806.218,-62.4684 823.692,-57.5859"/>
<polygon fill="midnightblue" stroke="midnightblue" points="765.008,-70.349 756.319,-76.411 766.892,-77.0908 765.008,-70.349"/>
</g>
<!-- Node25 -->
<g id="node25" class="node"><title>Node25</title>
<g id="a_node25"><a xlink:href="classpsi_1_1PSIO.html#abb4334d8aaaa03e32d8b9d9450b598e1" target="_top" xlink:title="delete a specific TOC entry (only deletes entry, not data)">
<polygon fill="none" stroke="black" points="813,-114.5 813,-133.5 905,-133.5 905,-114.5 813,-114.5"/>
<text text-anchor="middle" x="859" y="-121.5" font-family="Helvetica,sans-Serif" font-size="10.00">psi::PSIO::tocdel</text>
</a>
</g>
</g>
<!-- Node22&#45;&gt;Node25 -->
<g id="edge31" class="edge"><title>Node22&#45;&gt;Node25</title>
<path fill="none" stroke="midnightblue" d="M766.087,-98.3183C784.772,-103.539 806.218,-109.532 823.692,-114.414"/>
<polygon fill="midnightblue" stroke="midnightblue" points="766.892,-94.9092 756.319,-95.589 765.008,-101.651 766.892,-94.9092"/>
</g>
<!-- Node22&#45;&gt;Node8 -->
<g id="edge32" class="edge"><title>Node22&#45;&gt;Node8</title>
<path fill="none" stroke="midnightblue" d="M660.63,-94.3952C567.602,-107.878 381.984,-136.102 226,-168 212.482,-170.764 197.754,-174.232 184.774,-177.446"/>
<polygon fill="midnightblue" stroke="midnightblue" points="661.298,-97.8351 670.696,-92.9417 660.298,-90.907 661.298,-97.8351"/>
</g>
</g>
</svg>
        <g id="navigator" transform="translate(0 0)" fill="#404254">
                <rect fill="#f2f5e9" fill-opacity="0.5" stroke="#606060" stroke-width=".5" x="0" y="0" width="60" height="60"/>
                <use id="zoomplus" xlink:href="#zoomPlus" x="17" y="9" onmousedown="handleZoom(evt,'in')"/>
                <use id="zoomminus" xlink:href="#zoomMin" x="42" y="9" onmousedown="handleZoom(evt,'out')"/>
                <use id="reset" xlink:href="#resetDef" x="30" y="36" onmousedown="handleReset()"/>
                <g id="arrowUp" xlink:href="#dirArrow" transform="translate(30 24)" onmousedown="handlePan(0,-1)">
                  <use xlink:href="#rim" fill="#404040">
                        <set attributeName="fill" to="#808080" begin="arrowUp.mouseover" end="arrowUp.mouseout"/>
                  </use>
                  <path fill="none" stroke="white" stroke-width="1.5" d="M0,-3.0v7 M-2.5,-0.5L0,-3.0L2.5,-0.5"/>
                </g>
                <g id="arrowRight" xlink:href="#dirArrow" transform="rotate(90) translate(36 -43)" onmousedown="handlePan(1,0)">
                  <use xlink:href="#rim" fill="#404040">
                        <set attributeName="fill" to="#808080" begin="arrowRight.mouseover" end="arrowRight.mouseout"/>
                  </use>
                  <path fill="none" stroke="white" stroke-width="1.5" d="M0,-3.0v7 M-2.5,-0.5L0,-3.0L2.5,-0.5"/>
                </g>
                <g id="arrowDown" xlink:href="#dirArrow" transform="rotate(180) translate(-30 -48)" onmousedown="handlePan(0,1)">
                  <use xlink:href="#rim" fill="#404040">
                        <set attributeName="fill" to="#808080" begin="arrowDown.mouseover" end="arrowDown.mouseout"/>
                  </use>
                  <path fill="none" stroke="white" stroke-width="1.5" d="M0,-3.0v7 M-2.5,-0.5L0,-3.0L2.5,-0.5"/>
                </g>
                <g id="arrowLeft" xlink:href="#dirArrow" transform="rotate(270) translate(-36 17)" onmousedown="handlePan(-1,0)">
                  <use xlink:href="#rim" fill="#404040">
                        <set attributeName="fill" to="#808080" begin="arrowLeft.mouseover" end="arrowLeft.mouseout"/>
                  </use>
                  <path fill="none" stroke="white" stroke-width="1.5" d="M0,-3.0v7 M-2.5,-0.5L0,-3.0L2.5,-0.5"/>
                </g>
        </g>
        <svg viewBox="0 0 15 15" width="100%" height="30px" preserveAspectRatio="xMaxYMin meet">
         <g id="arrow_out" transform="scale(0.3 0.3)">
          <a xlink:href="namespacepsi_a5f3a891c486a6de00fdb7e85ce849e96_icgraph_org.svg" target="_base">
           <rect id="button" ry="5" rx="5" y="6" x="6" height="38" width="38"
                fill="#f2f5e9" fill-opacity="0.5" stroke="#606060" stroke-width="1.0"/>
           <path id="arrow"
             d="M 11.500037,31.436501 C 11.940474,20.09759 22.043105,11.32322 32.158766,21.979434 L 37.068811,17.246167 C 37.068811,17.246167 37.088388,32 37.088388,32 L 22.160133,31.978069 C 22.160133,31.978069 26.997745,27.140456 26.997745,27.140456 C 18.528582,18.264221 13.291696,25.230495 11.500037,31.436501 z"
             style="fill:#404040;"/>
          </a>
         </g>
        </svg>
</svg>
