<?xml version="1.0" encoding="UTF-8" standalone="no"?>
<!DOCTYPE svg PUBLIC "-//W3C//DTD SVG 1.1//EN"
 "http://www.w3.org/Graphics/SVG/1.1/DTD/svg11.dtd">
<!-- Generated by graphviz version 2.30.1 (20140110.0959)
 -->
<!-- Title: psi::C_DSYGV Pages: 1 -->
<svg width="246pt" height="84pt"
 viewBox="0.00 0.00 246.00 84.00" xmlns="http://www.w3.org/2000/svg" xmlns:xlink="http://www.w3.org/1999/xlink">
<g id="graph0" class="graph" transform="scale(1 1) rotate(0) translate(4 80)">
<title>psi::C_DSYGV</title>
<!-- Node1 -->
<g id="node1" class="node"><title>Node1</title>
<polygon fill="#bfbfbf" stroke="black" points="0.5,-28.5 0.5,-47.5 83.5,-47.5 83.5,-28.5 0.5,-28.5"/>
<text text-anchor="middle" x="42" y="-35.5" font-family="Helvetica,sans-Serif" font-size="10.00">psi::C_DSYGV</text>
</g>
<!-- Node2 -->
<g id="node2" class="node"><title>Node2</title>
<g id="a_node2"><a xlink:href="classpsi_1_1Matrix.html#a7cbd8e465bb1a715d30a6e254918fbfc" target="_top" xlink:title="psi::Matrix::diagonalize">
<polygon fill="none" stroke="black" points="120.5,-56.5 120.5,-75.5 237.5,-75.5 237.5,-56.5 120.5,-56.5"/>
<text text-anchor="middle" x="179" y="-63.5" font-family="Helvetica,sans-Serif" font-size="10.00">psi::Matrix::diagonalize</text>
</a>
</g>
</g>
<!-- Node1&#45;&gt;Node2 -->
<g id="edge1" class="edge"><title>Node1&#45;&gt;Node2</title>
<path fill="none" stroke="midnightblue" d="M93.3935,-48.452C105.998,-51.0662 119.454,-53.8572 131.842,-56.4264"/>
<polygon fill="midnightblue" stroke="midnightblue" points="94.0069,-45.0048 83.5045,-46.4009 92.5852,-51.8589 94.0069,-45.0048"/>
</g>
<!-- Node3 -->
<g id="node3" class="node"><title>Node3</title>
<g id="a_node3"><a xlink:href="namespacepsi.html#ad781399054cdf6781f38937c6add4a72" target="_top" xlink:title="PSI_DSYGV, a wrapper to return C_DSYGV using objects.">
<polygon fill="none" stroke="black" points="133,-0.5 133,-19.5 225,-19.5 225,-0.5 133,-0.5"/>
<text text-anchor="middle" x="179" y="-7.5" font-family="Helvetica,sans-Serif" font-size="10.00">psi::PSI_DSYGV</text>
</a>
</g>
</g>
<!-- Node1&#45;&gt;Node3 -->
<g id="edge2" class="edge"><title>Node1&#45;&gt;Node3</title>
<path fill="none" stroke="midnightblue" d="M93.5999,-27.5052C106.471,-24.8357 120.218,-21.9844 132.801,-19.3747"/>
<polygon fill="midnightblue" stroke="midnightblue" points="92.5852,-24.1411 83.5045,-29.5991 94.0069,-30.9952 92.5852,-24.1411"/>
</g>
<!-- Node3&#45;&gt;Node3 -->
<g id="edge3" class="edge"><title>Node3&#45;&gt;Node3</title>
<path fill="none" stroke="midnightblue" d="M153.702,-29.0292C155.082,-34.128 163.515,-38 179,-38 203.172,-38 210.159,-28.5653 199.962,-19.7571"/>
<polygon fill="midnightblue" stroke="midnightblue" points="156.973,-30.2982 158.038,-19.7571 150.632,-27.3329 156.973,-30.2982"/>
</g>
</g>
</svg>
