<?xml version="1.0" encoding="UTF-8" standalone="no"?>
<!DOCTYPE svg PUBLIC "-//W3C//DTD SVG 1.1//EN"
 "http://www.w3.org/Graphics/SVG/1.1/DTD/svg11.dtd">
<!-- Generated by graphviz version 2.30.1 (20140110.0959)
 -->
<!-- Title: psi::C_DGTCON Pages: 1 -->
<svg width="238pt" height="46pt"
 viewBox="0.00 0.00 238.00 46.00" xmlns="http://www.w3.org/2000/svg" xmlns:xlink="http://www.w3.org/1999/xlink">
<g id="graph0" class="graph" transform="scale(1 1) rotate(0) translate(4 42)">
<title>psi::C_DGTCON</title>
<!-- Node1 -->
<g id="node1" class="node"><title>Node1</title>
<polygon fill="#bfbfbf" stroke="black" points="0,-0.5 0,-19.5 92,-19.5 92,-0.5 0,-0.5"/>
<text text-anchor="middle" x="46" y="-7.5" font-family="Helvetica,sans-Serif" font-size="10.00">psi::C_DGTCON</text>
</g>
<!-- Node2 -->
<g id="node2" class="node"><title>Node2</title>
<g id="a_node2"><a xlink:href="namespacepsi.html#a78bda806bd6e3c27b2f49415ab6e22b6" target="_top" xlink:title="PSI_DGTCON, a wrapper to return C_DGTCON using objects.">
<polygon fill="none" stroke="black" points="128.5,-0.5 128.5,-19.5 229.5,-19.5 229.5,-0.5 128.5,-0.5"/>
<text text-anchor="middle" x="179" y="-7.5" font-family="Helvetica,sans-Serif" font-size="10.00">psi::PSI_DGTCON</text>
</a>
</g>
</g>
<!-- Node1&#45;&gt;Node2 -->
<g id="edge1" class="edge"><title>Node1&#45;&gt;Node2</title>
<path fill="none" stroke="midnightblue" d="M102.14,-10C110.838,-10 119.786,-10 128.349,-10"/>
<polygon fill="midnightblue" stroke="midnightblue" points="102.083,-6.5001 92.0828,-10 102.083,-13.5001 102.083,-6.5001"/>
</g>
<!-- Node2&#45;&gt;Node2 -->
<g id="edge2" class="edge"><title>Node2&#45;&gt;Node2</title>
<path fill="none" stroke="midnightblue" d="M154.447,-29.0292C155.786,-34.128 163.97,-38 179,-38 202.461,-38 209.243,-28.5653 199.345,-19.7571"/>
<polygon fill="midnightblue" stroke="midnightblue" points="157.709,-30.3096 158.655,-19.7571 151.335,-27.4164 157.709,-30.3096"/>
</g>
</g>
</svg>
