<?xml version="1.0" encoding="UTF-8" standalone="no"?>
<!DOCTYPE svg PUBLIC "-//W3C//DTD SVG 1.1//EN"
 "http://www.w3.org/Graphics/SVG/1.1/DTD/svg11.dtd">
<!-- Generated by graphviz version 2.30.1 (20140110.0959)
 -->
<!-- Title: psi::benchmark_blas3 Pages: 1 -->
<svg width="248pt" height="484pt"
 viewBox="0.00 0.00 248.00 484.00" xmlns="http://www.w3.org/2000/svg" xmlns:xlink="http://www.w3.org/1999/xlink">
<g id="graph0" class="graph" transform="scale(1 1) rotate(0) translate(4 480)">
<title>psi::benchmark_blas3</title>
<!-- Node1 -->
<g id="node1" class="node"><title>Node1</title>
<polygon fill="#bfbfbf" stroke="black" points="0,-228.5 0,-247.5 112,-247.5 112,-228.5 0,-228.5"/>
<text text-anchor="middle" x="56" y="-235.5" font-family="Helvetica,sans-Serif" font-size="10.00">psi::benchmark_blas3</text>
</g>
<!-- Node2 -->
<g id="node2" class="node"><title>Node2</title>
<g id="a_node2"><a xlink:href="group__CIOMR.html#ga35255b9a71ed5869db7c1c5507923929" target="_top" xlink:title="psi::init_array">
<polygon fill="none" stroke="black" points="156.5,-456.5 156.5,-475.5 231.5,-475.5 231.5,-456.5 156.5,-456.5"/>
<text text-anchor="middle" x="194" y="-463.5" font-family="Helvetica,sans-Serif" font-size="10.00">psi::init_array</text>
</a>
</g>
</g>
<!-- Node1&#45;&gt;Node2 -->
<g id="edge1" class="edge"><title>Node1&#45;&gt;Node2</title>
<path fill="none" stroke="midnightblue" d="M58.5994,-247.762C64.4357,-280.42 87.5009,-387.171 148,-447 149.447,-448.431 151.018,-449.761 152.678,-450.996"/>
<polygon fill="midnightblue" stroke="midnightblue" points="151.185,-454.185 161.543,-456.409 154.832,-448.21 151.185,-454.185"/>
</g>
<!-- Node3 -->
<g id="node3" class="node"><title>Node3</title>
<g id="a_node3"><a xlink:href="group__CIOMR.html#gae22ab2f8c96f4c132c42cd405c805841" target="_top" xlink:title="psi::init_int_array">
<polygon fill="none" stroke="black" points="148.5,-418.5 148.5,-437.5 239.5,-437.5 239.5,-418.5 148.5,-418.5"/>
<text text-anchor="middle" x="194" y="-425.5" font-family="Helvetica,sans-Serif" font-size="10.00">psi::init_int_array</text>
</a>
</g>
</g>
<!-- Node1&#45;&gt;Node3 -->
<g id="edge2" class="edge"><title>Node1&#45;&gt;Node3</title>
<path fill="none" stroke="midnightblue" d="M59.5923,-247.555C67.769,-276.001 95.6298,-361.121 148,-409 149.678,-410.534 151.498,-411.956 153.413,-413.271"/>
<polygon fill="midnightblue" stroke="midnightblue" points="151.847,-416.408 162.257,-418.378 155.348,-410.347 151.847,-416.408"/>
</g>
<!-- Node4 -->
<g id="node4" class="node"><title>Node4</title>
<g id="a_node4"><a xlink:href="namespacepsi.html#a1112df35ff9d2b780efb0c24662f4fbe" target="_top" xlink:title="psi::C_DGEMM">
<polygon fill="none" stroke="black" points="151,-380.5 151,-399.5 237,-399.5 237,-380.5 151,-380.5"/>
<text text-anchor="middle" x="194" y="-387.5" font-family="Helvetica,sans-Serif" font-size="10.00">psi::C_DGEMM</text>
</a>
</g>
</g>
<!-- Node1&#45;&gt;Node4 -->
<g id="edge3" class="edge"><title>Node1&#45;&gt;Node4</title>
<path fill="none" stroke="midnightblue" d="M61.2682,-247.763C72.2599,-271.872 103.805,-334.885 148,-371 150.011,-372.643 152.185,-374.165 154.454,-375.572"/>
<polygon fill="midnightblue" stroke="midnightblue" points="153.065,-378.798 163.533,-380.434 156.37,-372.628 153.065,-378.798"/>
</g>
<!-- Node5 -->
<g id="node5" class="node"><title>Node5</title>
<g id="a_node5"><a xlink:href="namespacepsi.html#a0e145bee7a002ac8c18e937785bd9458" target="_top" xlink:title="psi::C_DSYMM">
<polygon fill="none" stroke="black" points="151,-342.5 151,-361.5 237,-361.5 237,-342.5 151,-342.5"/>
<text text-anchor="middle" x="194" y="-349.5" font-family="Helvetica,sans-Serif" font-size="10.00">psi::C_DSYMM</text>
</a>
</g>
</g>
<!-- Node1&#45;&gt;Node5 -->
<g id="edge4" class="edge"><title>Node1&#45;&gt;Node5</title>
<path fill="none" stroke="midnightblue" d="M64.0068,-247.595C78.0666,-266.269 111.512,-307.865 148,-333 150.571,-334.771 153.333,-336.425 156.178,-337.96"/>
<polygon fill="midnightblue" stroke="midnightblue" points="154.892,-341.227 165.415,-342.452 157.953,-334.932 154.892,-341.227"/>
</g>
<!-- Node6 -->
<g id="node6" class="node"><title>Node6</title>
<g id="a_node6"><a xlink:href="group__QT.html#gada1f89a2db3689c3e7482ea755b49b27" target="_top" xlink:title="psi::C_DCOPY">
<polygon fill="none" stroke="black" points="152,-304.5 152,-323.5 236,-323.5 236,-304.5 152,-304.5"/>
<text text-anchor="middle" x="194" y="-311.5" font-family="Helvetica,sans-Serif" font-size="10.00">psi::C_DCOPY</text>
</a>
</g>
</g>
<!-- Node1&#45;&gt;Node6 -->
<g id="edge5" class="edge"><title>Node1&#45;&gt;Node6</title>
<path fill="none" stroke="midnightblue" d="M70.7747,-247.605C88.2525,-259.561 119.553,-280.206 148,-295 151.539,-296.84 155.296,-298.645 159.072,-300.367"/>
<polygon fill="midnightblue" stroke="midnightblue" points="157.819,-303.639 168.383,-304.444 160.627,-297.227 157.819,-303.639"/>
</g>
<!-- Node7 -->
<g id="node7" class="node"><title>Node7</title>
<g id="a_node7"><a xlink:href="group__QT.html#ga53680dc5cf2b74b21d23aed254e09eec" target="_top" xlink:title="psi::C_DPOTRF">
<polygon fill="none" stroke="black" points="149.5,-266.5 149.5,-285.5 238.5,-285.5 238.5,-266.5 149.5,-266.5"/>
<text text-anchor="middle" x="194" y="-273.5" font-family="Helvetica,sans-Serif" font-size="10.00">psi::C_DPOTRF</text>
</a>
</g>
</g>
<!-- Node1&#45;&gt;Node7 -->
<g id="edge6" class="edge"><title>Node1&#45;&gt;Node7</title>
<path fill="none" stroke="midnightblue" d="M91.3185,-247.589C108.794,-252.472 130.241,-258.464 148.925,-263.685"/>
<polygon fill="midnightblue" stroke="midnightblue" points="148.119,-267.094 158.692,-266.414 150.003,-260.352 148.119,-267.094"/>
</g>
<!-- Node8 -->
<g id="node8" class="node"><title>Node8</title>
<g id="a_node8"><a xlink:href="group__QT.html#ga9140c52de648ece9bdf664b8770365ef" target="_top" xlink:title="psi::C_DPOTRS">
<polygon fill="none" stroke="black" points="149,-228.5 149,-247.5 239,-247.5 239,-228.5 149,-228.5"/>
<text text-anchor="middle" x="194" y="-235.5" font-family="Helvetica,sans-Serif" font-size="10.00">psi::C_DPOTRS</text>
</a>
</g>
</g>
<!-- Node1&#45;&gt;Node8 -->
<g id="edge7" class="edge"><title>Node1&#45;&gt;Node8</title>
<path fill="none" stroke="midnightblue" d="M112.316,-238C121.091,-238 130.157,-238 138.903,-238"/>
<polygon fill="midnightblue" stroke="midnightblue" points="138.986,-241.5 148.986,-238 138.986,-234.5 138.986,-241.5"/>
</g>
<!-- Node9 -->
<g id="node9" class="node"><title>Node9</title>
<g id="a_node9"><a xlink:href="group__QT.html#ga369ad7d6d71f540b359347b1b70b4e21" target="_top" xlink:title="psi::C_DPOTRI">
<polygon fill="none" stroke="black" points="151,-190.5 151,-209.5 237,-209.5 237,-190.5 151,-190.5"/>
<text text-anchor="middle" x="194" y="-197.5" font-family="Helvetica,sans-Serif" font-size="10.00">psi::C_DPOTRI</text>
</a>
</g>
</g>
<!-- Node1&#45;&gt;Node9 -->
<g id="edge8" class="edge"><title>Node1&#45;&gt;Node9</title>
<path fill="none" stroke="midnightblue" d="M91.3185,-228.411C108.794,-223.528 130.241,-217.536 148.925,-212.315"/>
<polygon fill="midnightblue" stroke="midnightblue" points="150.003,-215.648 158.692,-209.586 148.119,-208.906 150.003,-215.648"/>
</g>
<!-- Node10 -->
<g id="node10" class="node"><title>Node10</title>
<g id="a_node10"><a xlink:href="group__QT.html#ga5a32fab1a77d1ea47a9145a8e124ea9c" target="_top" xlink:title="psi::C_DGETRF">
<polygon fill="none" stroke="black" points="149.5,-152.5 149.5,-171.5 238.5,-171.5 238.5,-152.5 149.5,-152.5"/>
<text text-anchor="middle" x="194" y="-159.5" font-family="Helvetica,sans-Serif" font-size="10.00">psi::C_DGETRF</text>
</a>
</g>
</g>
<!-- Node1&#45;&gt;Node10 -->
<g id="edge9" class="edge"><title>Node1&#45;&gt;Node10</title>
<path fill="none" stroke="midnightblue" d="M70.7747,-228.395C88.2525,-216.439 119.553,-195.794 148,-181 151.539,-179.16 155.296,-177.355 159.072,-175.633"/>
<polygon fill="midnightblue" stroke="midnightblue" points="160.627,-178.773 168.383,-171.556 157.819,-172.361 160.627,-178.773"/>
</g>
<!-- Node11 -->
<g id="node11" class="node"><title>Node11</title>
<g id="a_node11"><a xlink:href="namespacepsi.html#aa4297da7ca4fc2c7aa1234927a5bb111" target="_top" xlink:title="psi::C_DGETRS">
<polygon fill="none" stroke="black" points="149,-114.5 149,-133.5 239,-133.5 239,-114.5 149,-114.5"/>
<text text-anchor="middle" x="194" y="-121.5" font-family="Helvetica,sans-Serif" font-size="10.00">psi::C_DGETRS</text>
</a>
</g>
</g>
<!-- Node1&#45;&gt;Node11 -->
<g id="edge10" class="edge"><title>Node1&#45;&gt;Node11</title>
<path fill="none" stroke="midnightblue" d="M64.0068,-228.405C78.0666,-209.731 111.512,-168.135 148,-143 150.571,-141.229 153.333,-139.575 156.178,-138.04"/>
<polygon fill="midnightblue" stroke="midnightblue" points="157.953,-141.068 165.415,-133.548 154.892,-134.773 157.953,-141.068"/>
</g>
<!-- Node12 -->
<g id="node12" class="node"><title>Node12</title>
<g id="a_node12"><a xlink:href="group__QT.html#gacf6c02fc0a629aea55fa3ea94885e2ec" target="_top" xlink:title="psi::C_DGETRI">
<polygon fill="none" stroke="black" points="151,-76.5 151,-95.5 237,-95.5 237,-76.5 151,-76.5"/>
<text text-anchor="middle" x="194" y="-83.5" font-family="Helvetica,sans-Serif" font-size="10.00">psi::C_DGETRI</text>
</a>
</g>
</g>
<!-- Node1&#45;&gt;Node12 -->
<g id="edge11" class="edge"><title>Node1&#45;&gt;Node12</title>
<path fill="none" stroke="midnightblue" d="M61.2682,-228.237C72.2599,-204.128 103.805,-141.115 148,-105 150.011,-103.357 152.185,-101.835 154.454,-100.428"/>
<polygon fill="midnightblue" stroke="midnightblue" points="156.37,-103.372 163.533,-95.5663 153.065,-97.2015 156.37,-103.372"/>
</g>
<!-- Node13 -->
<g id="node13" class="node"><title>Node13</title>
<g id="a_node13"><a xlink:href="group__QT.html#ga61f4d27a7f03785e2090e82f51df475f" target="_top" xlink:title="psi::C_DGESV">
<polygon fill="none" stroke="black" points="152.5,-38.5 152.5,-57.5 235.5,-57.5 235.5,-38.5 152.5,-38.5"/>
<text text-anchor="middle" x="194" y="-45.5" font-family="Helvetica,sans-Serif" font-size="10.00">psi::C_DGESV</text>
</a>
</g>
</g>
<!-- Node1&#45;&gt;Node13 -->
<g id="edge12" class="edge"><title>Node1&#45;&gt;Node13</title>
<path fill="none" stroke="midnightblue" d="M59.5923,-228.445C67.769,-199.999 95.6298,-114.879 148,-67 149.678,-65.4657 151.498,-64.0445 153.413,-62.7293"/>
<polygon fill="midnightblue" stroke="midnightblue" points="155.348,-65.6535 162.257,-57.6216 151.847,-59.5917 155.348,-65.6535"/>
</g>
<!-- Node14 -->
<g id="node14" class="node"><title>Node14</title>
<g id="a_node14"><a xlink:href="group__QT.html#gaf4f1317f08bd64d633f20935ba5d8547" target="_top" xlink:title="psi::C_DSYEV">
<polygon fill="none" stroke="black" points="152.5,-0.5 152.5,-19.5 235.5,-19.5 235.5,-0.5 152.5,-0.5"/>
<text text-anchor="middle" x="194" y="-7.5" font-family="Helvetica,sans-Serif" font-size="10.00">psi::C_DSYEV</text>
</a>
</g>
</g>
<!-- Node1&#45;&gt;Node14 -->
<g id="edge13" class="edge"><title>Node1&#45;&gt;Node14</title>
<path fill="none" stroke="midnightblue" d="M58.5994,-228.238C64.4357,-195.58 87.5009,-88.8291 148,-29 149.447,-27.5689 151.018,-26.2391 152.678,-25.0042"/>
<polygon fill="midnightblue" stroke="midnightblue" points="154.832,-27.7896 161.543,-19.5912 151.185,-21.8152 154.832,-27.7896"/>
</g>
</g>
</svg>
