<?xml version="1.0" encoding="UTF-8" standalone="no"?>
<!DOCTYPE svg PUBLIC "-//W3C//DTD SVG 1.1//EN"
 "http://www.w3.org/Graphics/SVG/1.1/DTD/svg11.dtd">
<!-- Generated by graphviz version 2.30.1 (20140110.0959)
 -->
<!-- Title: normalize.cc Pages: 1 -->
<svg width="179pt" height="140pt"
 viewBox="0.00 0.00 179.00 140.00" xmlns="http://www.w3.org/2000/svg" xmlns:xlink="http://www.w3.org/1999/xlink">
<g id="graph0" class="graph" transform="scale(1 1) rotate(0) translate(4 136)">
<title>normalize.cc</title>
<!-- Node1 -->
<g id="node1" class="node"><title>Node1</title>
<polygon fill="#bfbfbf" stroke="black" points="0,-112.5 0,-131.5 72,-131.5 72,-112.5 0,-112.5"/>
<text text-anchor="middle" x="36" y="-119.5" font-family="Helvetica,sans-Serif" font-size="10.00">normalize.cc</text>
</g>
<!-- Node2 -->
<g id="node2" class="node"><title>Node2</title>
<polygon fill="none" stroke="#bfbfbf" points="33.5,-0.5 33.5,-19.5 76.5,-19.5 76.5,-0.5 33.5,-0.5"/>
<text text-anchor="middle" x="55" y="-7.5" font-family="Helvetica,sans-Serif" font-size="10.00">cstdio</text>
</g>
<!-- Node1&#45;&gt;Node2 -->
<g id="edge1" class="edge"><title>Node1&#45;&gt;Node2</title>
<path fill="none" stroke="midnightblue" d="M26.5986,-112.236C14.47,-99.813 -4.0539,-76.3293 5,-56 10.5679,-43.4981 21.5156,-33.0124 31.751,-25.3167"/>
<polygon fill="midnightblue" stroke="midnightblue" points="33.8509,-28.1193 40.0475,-19.5256 29.8442,-22.3794 33.8509,-28.1193"/>
</g>
<!-- Node3 -->
<g id="node3" class="node"><title>Node3</title>
<polygon fill="none" stroke="#bfbfbf" points="14,-56.5 14,-75.5 58,-75.5 58,-56.5 14,-56.5"/>
<text text-anchor="middle" x="36" y="-63.5" font-family="Helvetica,sans-Serif" font-size="10.00">cmath</text>
</g>
<!-- Node1&#45;&gt;Node3 -->
<g id="edge2" class="edge"><title>Node1&#45;&gt;Node3</title>
<path fill="none" stroke="midnightblue" d="M36,-112.083C36,-105.006 36,-94.8611 36,-85.9865"/>
<polygon fill="midnightblue" stroke="midnightblue" points="39.5001,-85.751 36,-75.7511 32.5001,-85.7511 39.5001,-85.751"/>
</g>
<!-- Node4 -->
<g id="node4" class="node"><title>Node4</title>
<g id="a_node4"><a xlink:href="libciomr_8h_source.html" target="_top" xlink:title="libciomr/libciomr.h">
<polygon fill="none" stroke="black" points="76.5,-56.5 76.5,-75.5 171.5,-75.5 171.5,-56.5 76.5,-56.5"/>
<text text-anchor="middle" x="124" y="-63.5" font-family="Helvetica,sans-Serif" font-size="10.00">libciomr/libciomr.h</text>
</a>
</g>
</g>
<!-- Node1&#45;&gt;Node4 -->
<g id="edge3" class="edge"><title>Node1&#45;&gt;Node4</title>
<path fill="none" stroke="midnightblue" d="M50.1387,-112.324C63.8663,-103.9 84.9363,-90.9709 101.064,-81.0741"/>
<polygon fill="midnightblue" stroke="midnightblue" points="103.204,-83.8678 109.896,-75.6545 99.5426,-77.9016 103.204,-83.8678"/>
</g>
<!-- Node4&#45;&gt;Node2 -->
<g id="edge4" class="edge"><title>Node4&#45;&gt;Node2</title>
<path fill="none" stroke="midnightblue" d="M112.914,-56.324C102.514,-48.1849 86.7394,-35.8395 74.2784,-26.0874"/>
<polygon fill="midnightblue" stroke="midnightblue" points="76.3199,-23.2407 66.2878,-19.8339 72.0057,-28.7533 76.3199,-23.2407"/>
</g>
</g>
</svg>
