<?xml version="1.0" encoding="UTF-8" standalone="no"?>
<!DOCTYPE svg PUBLIC "-//W3C//DTD SVG 1.1//EN"
 "http://www.w3.org/Graphics/SVG/1.1/DTD/svg11.dtd">
<!-- Generated by graphviz version 2.30.1 (20140110.0959)
 -->
<!-- Title: og_addr.cc Pages: 1 -->
<svg width="1288pt" height="320pt"
 viewBox="0.00 0.00 1288.02 320.00" xmlns="http://www.w3.org/2000/svg" xmlns:xlink="http://www.w3.org/1999/xlink">
<g id="graph0" class="graph" transform="scale(1 1) rotate(0) translate(4 316)">
<title>og_addr.cc</title>
<!-- Node1 -->
<g id="node1" class="node"><title>Node1</title>
<polygon fill="#bfbfbf" stroke="black" points="812.52,-292.5 812.52,-311.5 877.52,-311.5 877.52,-292.5 812.52,-292.5"/>
<text text-anchor="middle" x="845.02" y="-299.5" font-family="Helvetica,sans-Serif" font-size="10.00">og_addr.cc</text>
</g>
<!-- Node2 -->
<g id="node2" class="node"><title>Node2</title>
<polygon fill="none" stroke="#bfbfbf" points="626.52,-0.5 626.52,-19.5 669.52,-19.5 669.52,-0.5 626.52,-0.5"/>
<text text-anchor="middle" x="648.02" y="-7.5" font-family="Helvetica,sans-Serif" font-size="10.00">cstdio</text>
</g>
<!-- Node1&#45;&gt;Node2 -->
<g id="edge1" class="edge"><title>Node1&#45;&gt;Node2</title>
<path fill="none" stroke="midnightblue" d="M812.49,-300.245C657.566,-296.226 2.02046,-274.299 2.02046,-191 2.02046,-191 2.02046,-191 2.02046,-133 2.02046,-97.7513 -6.06138,-78.562 21.0205,-56 70.1007,-15.1111 516.641,-30.0815 616.523,-19.2839"/>
<polygon fill="midnightblue" stroke="midnightblue" points="617.053,-22.7441 626.484,-17.9161 616.101,-15.8092 617.053,-22.7441"/>
</g>
<!-- Node3 -->
<g id="node3" class="node"><title>Node3</title>
<g id="a_node3"><a xlink:href="structs_8h.html" target="_top" xlink:title="Enter brief description of file here.">
<polygon fill="none" stroke="black" points="1224.52,-180.5 1224.52,-199.5 1279.52,-199.5 1279.52,-180.5 1224.52,-180.5"/>
<text text-anchor="middle" x="1252.02" y="-187.5" font-family="Helvetica,sans-Serif" font-size="10.00">structs.h</text>
</a>
</g>
</g>
<!-- Node1&#45;&gt;Node3 -->
<g id="edge2" class="edge"><title>Node1&#45;&gt;Node3</title>
<path fill="none" stroke="midnightblue" d="M876.618,-292.46C950.529,-272.484 1134.45,-222.776 1214.17,-201.23"/>
<polygon fill="midnightblue" stroke="midnightblue" points="1215.52,-204.491 1224.26,-198.503 1213.69,-197.733 1215.52,-204.491"/>
</g>
<!-- Node5 -->
<g id="node5" class="node"><title>Node5</title>
<g id="a_node5"><a xlink:href="detci_2globals_8h.html" target="_top" xlink:title="Enter brief description of file here.">
<polygon fill="none" stroke="black" points="817.02,-236.5 817.02,-255.5 873.02,-255.5 873.02,-236.5 817.02,-236.5"/>
<text text-anchor="middle" x="845.02" y="-243.5" font-family="Helvetica,sans-Serif" font-size="10.00">globals.h</text>
</a>
</g>
</g>
<!-- Node1&#45;&gt;Node5 -->
<g id="edge4" class="edge"><title>Node1&#45;&gt;Node5</title>
<path fill="none" stroke="midnightblue" d="M845.02,-292.083C845.02,-285.006 845.02,-274.861 845.02,-265.986"/>
<polygon fill="midnightblue" stroke="midnightblue" points="848.521,-265.751 845.02,-255.751 841.521,-265.751 848.521,-265.751"/>
</g>
<!-- Node4 -->
<g id="node4" class="node"><title>Node4</title>
<polygon fill="none" stroke="#bfbfbf" points="1019.52,-0.5 1019.52,-19.5 1060.52,-19.5 1060.52,-0.5 1019.52,-0.5"/>
<text text-anchor="middle" x="1040.02" y="-7.5" font-family="Helvetica,sans-Serif" font-size="10.00">string</text>
</g>
<!-- Node3&#45;&gt;Node4 -->
<g id="edge3" class="edge"><title>Node3&#45;&gt;Node4</title>
<path fill="none" stroke="midnightblue" d="M1251.99,-180.393C1251.41,-156.838 1246.46,-90.7652 1210.02,-56 1172.12,-19.8448 1108.67,-11.9392 1070.93,-10.6573"/>
<polygon fill="midnightblue" stroke="midnightblue" points="1070.63,-7.15064 1060.56,-10.4506 1070.49,-14.1493 1070.63,-7.15064"/>
</g>
<!-- Node6 -->
<g id="node6" class="node"><title>Node6</title>
<g id="a_node6"><a xlink:href="psi4-dec_8h_source.html" target="_top" xlink:title="psi4&#45;dec.h">
<polygon fill="none" stroke="black" points="697.02,-180.5 697.02,-199.5 759.02,-199.5 759.02,-180.5 697.02,-180.5"/>
<text text-anchor="middle" x="728.02" y="-187.5" font-family="Helvetica,sans-Serif" font-size="10.00">psi4&#45;dec.h</text>
</a>
</g>
</g>
<!-- Node5&#45;&gt;Node6 -->
<g id="edge5" class="edge"><title>Node5&#45;&gt;Node6</title>
<path fill="none" stroke="midnightblue" d="M826.481,-236.444C807.398,-227.636 777.446,-213.812 755.585,-203.722"/>
<polygon fill="midnightblue" stroke="midnightblue" points="757.019,-200.529 746.473,-199.516 754.086,-206.885 757.019,-200.529"/>
</g>
<!-- Node5&#45;&gt;Node4 -->
<g id="edge39" class="edge"><title>Node5&#45;&gt;Node4</title>
<path fill="none" stroke="midnightblue" d="M873.353,-241.205C938.458,-230.745 1097.68,-194.809 1157.02,-88 1163.93,-75.5675 1165.07,-67.7235 1157.02,-56 1137.79,-28.003 1098.53,-17.4174 1070.8,-13.4193"/>
<polygon fill="midnightblue" stroke="midnightblue" points="1071.16,-9.93693 1060.8,-12.1869 1070.3,-16.8843 1071.16,-9.93693"/>
</g>
<!-- Node7 -->
<g id="node7" class="node"><title>Node7</title>
<polygon fill="none" stroke="#bfbfbf" points="474.02,-124.5 474.02,-143.5 582.02,-143.5 582.02,-124.5 474.02,-124.5"/>
<text text-anchor="middle" x="528.02" y="-131.5" font-family="Helvetica,sans-Serif" font-size="10.00">boost/shared_ptr.hpp</text>
</g>
<!-- Node6&#45;&gt;Node7 -->
<g id="edge6" class="edge"><title>Node6&#45;&gt;Node7</title>
<path fill="none" stroke="midnightblue" d="M696.77,-180.562C662.481,-171.304 607.289,-156.403 569.421,-146.178"/>
<polygon fill="midnightblue" stroke="midnightblue" points="570.278,-142.784 559.711,-143.556 568.453,-149.542 570.278,-142.784"/>
</g>
<!-- Node8 -->
<g id="node8" class="node"><title>Node8</title>
<polygon fill="none" stroke="#bfbfbf" points="30.0205,-62.5 30.0205,-81.5 162.02,-81.5 162.02,-62.5 30.0205,-62.5"/>
<text text-anchor="middle" x="96.0205" y="-69.5" font-family="Helvetica,sans-Serif" font-size="10.00">boost/current_function.hpp</text>
</g>
<!-- Node6&#45;&gt;Node8 -->
<g id="edge7" class="edge"><title>Node6&#45;&gt;Node8</title>
<path fill="none" stroke="midnightblue" d="M696.837,-188.84C622.762,-187.827 430.848,-181.474 276.02,-144 219.558,-130.334 157.242,-102.733 122.744,-86.2593"/>
<polygon fill="midnightblue" stroke="midnightblue" points="123.9,-82.9308 113.374,-81.7302 120.854,-89.2332 123.9,-82.9308"/>
</g>
<!-- Node6&#45;&gt;Node4 -->
<g id="edge8" class="edge"><title>Node6&#45;&gt;Node4</title>
<path fill="none" stroke="midnightblue" d="M759.113,-186.239C846.657,-177.754 1091.92,-148.871 1139.02,-88 1147.72,-76.752 1146.72,-67.9577 1139.02,-56 1124.04,-32.7365 1093.77,-21.3608 1070.62,-15.886"/>
<polygon fill="midnightblue" stroke="midnightblue" points="1071.07,-12.4048 1060.57,-13.7643 1069.63,-19.2539 1071.07,-12.4048"/>
</g>
<!-- Node9 -->
<g id="node9" class="node"><title>Node9</title>
<polygon fill="none" stroke="#bfbfbf" points="756.52,-124.5 756.52,-143.5 785.52,-143.5 785.52,-124.5 756.52,-124.5"/>
<text text-anchor="middle" x="771.02" y="-131.5" font-family="Helvetica,sans-Serif" font-size="10.00">list</text>
</g>
<!-- Node6&#45;&gt;Node9 -->
<g id="edge9" class="edge"><title>Node6&#45;&gt;Node9</title>
<path fill="none" stroke="midnightblue" d="M735.121,-180.083C741.257,-172.377 750.29,-161.033 757.76,-151.653"/>
<polygon fill="midnightblue" stroke="midnightblue" points="760.561,-153.754 764.052,-143.751 755.085,-149.394 760.561,-153.754"/>
</g>
<!-- Node10 -->
<g id="node10" class="node"><title>Node10</title>
<polygon fill="none" stroke="#bfbfbf" points="720.52,-62.5 720.52,-81.5 755.52,-81.5 755.52,-62.5 720.52,-62.5"/>
<text text-anchor="middle" x="738.02" y="-69.5" font-family="Helvetica,sans-Serif" font-size="10.00">map</text>
</g>
<!-- Node6&#45;&gt;Node10 -->
<g id="edge10" class="edge"><title>Node6&#45;&gt;Node10</title>
<path fill="none" stroke="midnightblue" d="M728.772,-180.281C730.387,-161.547 734.219,-117.098 736.41,-91.6822"/>
<polygon fill="midnightblue" stroke="midnightblue" points="739.915,-91.7685 737.287,-81.5048 732.941,-91.1672 739.915,-91.7685"/>
</g>
<!-- Node11 -->
<g id="node11" class="node"><title>Node11</title>
<g id="a_node11"><a xlink:href="liboptions_8h_source.html" target="_top" xlink:title="liboptions/liboptions.h">
<polygon fill="none" stroke="black" points="804.02,-124.5 804.02,-143.5 914.02,-143.5 914.02,-124.5 804.02,-124.5"/>
<text text-anchor="middle" x="859.02" y="-131.5" font-family="Helvetica,sans-Serif" font-size="10.00">liboptions/liboptions.h</text>
</a>
</g>
</g>
<!-- Node6&#45;&gt;Node11 -->
<g id="edge11" class="edge"><title>Node6&#45;&gt;Node11</title>
<path fill="none" stroke="midnightblue" d="M748.778,-180.444C770.337,-171.557 804.284,-157.563 828.814,-147.451"/>
<polygon fill="midnightblue" stroke="midnightblue" points="830.449,-150.563 838.36,-143.516 827.781,-144.092 830.449,-150.563"/>
</g>
<!-- Node21 -->
<g id="node21" class="node"><title>Node21</title>
<g id="a_node21"><a xlink:href="include_2exception_8h_source.html" target="_top" xlink:title="exception.h">
<polygon fill="none" stroke="black" points="285.52,-124.5 285.52,-143.5 352.52,-143.5 352.52,-124.5 285.52,-124.5"/>
<text text-anchor="middle" x="319.02" y="-131.5" font-family="Helvetica,sans-Serif" font-size="10.00">exception.h</text>
</a>
</g>
</g>
<!-- Node6&#45;&gt;Node21 -->
<g id="edge26" class="edge"><title>Node6&#45;&gt;Node21</title>
<path fill="none" stroke="midnightblue" d="M696.943,-184.897C624.809,-175.373 445.847,-151.745 362.731,-140.771"/>
<polygon fill="midnightblue" stroke="midnightblue" points="362.981,-137.274 352.608,-139.435 362.064,-144.213 362.981,-137.274"/>
</g>
<!-- Node26 -->
<g id="node26" class="node"><title>Node26</title>
<g id="a_node26"><a xlink:href="typedefs_8h_source.html" target="_top" xlink:title="libmints/typedefs.h">
<polygon fill="none" stroke="black" points="600.52,-124.5 600.52,-143.5 699.52,-143.5 699.52,-124.5 600.52,-124.5"/>
<text text-anchor="middle" x="650.02" y="-131.5" font-family="Helvetica,sans-Serif" font-size="10.00">libmints/typedefs.h</text>
</a>
</g>
</g>
<!-- Node6&#45;&gt;Node26 -->
<g id="edge32" class="edge"><title>Node6&#45;&gt;Node26</title>
<path fill="none" stroke="midnightblue" d="M715.488,-180.324C703.435,-171.979 684.994,-159.212 670.752,-149.352"/>
<polygon fill="midnightblue" stroke="midnightblue" points="672.736,-146.469 662.521,-143.655 668.751,-152.224 672.736,-146.469"/>
</g>
<!-- Node11&#45;&gt;Node4 -->
<g id="edge12" class="edge"><title>Node11&#45;&gt;Node4</title>
<path fill="none" stroke="midnightblue" d="M865.449,-124.261C877.284,-108.696 903.98,-75.9397 933.02,-56 956.792,-39.6784 987.417,-27.5439 1009.81,-20.0149"/>
<polygon fill="midnightblue" stroke="midnightblue" points="1011.03,-23.2976 1019.46,-16.8812 1008.87,-16.6396 1011.03,-23.2976"/>
</g>
<!-- Node12 -->
<g id="node12" class="node"><title>Node12</title>
<polygon fill="none" stroke="#bfbfbf" points="759.02,-0.5 759.02,-19.5 803.02,-19.5 803.02,-0.5 759.02,-0.5"/>
<text text-anchor="middle" x="781.02" y="-7.5" font-family="Helvetica,sans-Serif" font-size="10.00">vector</text>
</g>
<!-- Node11&#45;&gt;Node12 -->
<g id="edge13" class="edge"><title>Node11&#45;&gt;Node12</title>
<path fill="none" stroke="midnightblue" d="M843.743,-124.418C831.049,-116.527 813.437,-103.69 803.02,-88 791.274,-70.3074 785.713,-46.3144 783.138,-29.8386"/>
<polygon fill="midnightblue" stroke="midnightblue" points="786.59,-29.2495 781.792,-19.8032 779.652,-30.1795 786.59,-29.2495"/>
</g>
<!-- Node11&#45;&gt;Node10 -->
<g id="edge14" class="edge"><title>Node11&#45;&gt;Node10</title>
<path fill="none" stroke="midnightblue" d="M841.684,-124.403C821.467,-114.379 787.833,-97.7006 764.378,-86.0699"/>
<polygon fill="midnightblue" stroke="midnightblue" points="765.839,-82.8875 755.325,-81.5806 762.729,-89.1588 765.839,-82.8875"/>
</g>
<!-- Node13 -->
<g id="node13" class="node"><title>Node13</title>
<polygon fill="none" stroke="#bfbfbf" points="942.52,-62.5 942.52,-81.5 1009.52,-81.5 1009.52,-62.5 942.52,-62.5"/>
<text text-anchor="middle" x="976.02" y="-69.5" font-family="Helvetica,sans-Serif" font-size="10.00">exception.h</text>
</g>
<!-- Node11&#45;&gt;Node13 -->
<g id="edge15" class="edge"><title>Node11&#45;&gt;Node13</title>
<path fill="none" stroke="midnightblue" d="M875.784,-124.403C895.245,-114.423 927.565,-97.8487 950.231,-86.2253"/>
<polygon fill="midnightblue" stroke="midnightblue" points="951.987,-89.2582 959.288,-81.5806 948.793,-83.0294 951.987,-89.2582"/>
</g>
<!-- Node14 -->
<g id="node14" class="node"><title>Node14</title>
<g id="a_node14"><a xlink:href="libutil_8h_source.html" target="_top" xlink:title="libutil/libutil.h">
<polygon fill="none" stroke="black" points="812.52,-62.5 812.52,-81.5 885.52,-81.5 885.52,-62.5 812.52,-62.5"/>
<text text-anchor="middle" x="849.02" y="-69.5" font-family="Helvetica,sans-Serif" font-size="10.00">libutil/libutil.h</text>
</a>
</g>
</g>
<!-- Node11&#45;&gt;Node14 -->
<g id="edge16" class="edge"><title>Node11&#45;&gt;Node14</title>
<path fill="none" stroke="midnightblue" d="M857.588,-124.403C856.162,-115.849 853.929,-102.45 852.1,-91.4762"/>
<polygon fill="midnightblue" stroke="midnightblue" points="855.547,-90.8691 850.451,-81.5806 848.642,-92.02 855.547,-90.8691"/>
</g>
<!-- Node16 -->
<g id="node16" class="node"><title>Node16</title>
<g id="a_node16"><a xlink:href="libutil_2ref_8h_source.html" target="_top" xlink:title="libutil/ref.h">
<polygon fill="none" stroke="black" points="553.02,-62.5 553.02,-81.5 615.02,-81.5 615.02,-62.5 553.02,-62.5"/>
<text text-anchor="middle" x="584.02" y="-69.5" font-family="Helvetica,sans-Serif" font-size="10.00">libutil/ref.h</text>
</a>
</g>
</g>
<!-- Node11&#45;&gt;Node16 -->
<g id="edge20" class="edge"><title>Node11&#45;&gt;Node16</title>
<path fill="none" stroke="midnightblue" d="M803.801,-125.139C755.785,-117.662 684.606,-105.028 624.02,-88 620.879,-87.117 617.636,-86.0945 614.418,-85.0064"/>
<polygon fill="midnightblue" stroke="midnightblue" points="615.567,-81.7001 604.972,-81.6196 613.204,-88.2894 615.567,-81.7001"/>
</g>
<!-- Node20 -->
<g id="node20" class="node"><title>Node20</title>
<polygon fill="none" stroke="#bfbfbf" points="1028.02,-57 1028.02,-87 1130.02,-87 1130.02,-57 1028.02,-57"/>
<text text-anchor="start" x="1036.02" y="-75" font-family="Helvetica,sans-Serif" font-size="10.00">boost/python/object</text>
<text text-anchor="middle" x="1079.02" y="-64" font-family="Helvetica,sans-Serif" font-size="10.00">_fwd.hpp</text>
</g>
<!-- Node11&#45;&gt;Node20 -->
<g id="edge25" class="edge"><title>Node11&#45;&gt;Node20</title>
<path fill="none" stroke="midnightblue" d="M890.541,-124.403C923.759,-115.344 976.901,-100.851 1018.3,-89.5595"/>
<polygon fill="midnightblue" stroke="midnightblue" points="1019.29,-92.918 1028.02,-86.9101 1017.45,-86.1647 1019.29,-92.918"/>
</g>
<!-- Node14&#45;&gt;Node4 -->
<g id="edge17" class="edge"><title>Node14&#45;&gt;Node4</title>
<path fill="none" stroke="midnightblue" d="M876.386,-62.4035C911.743,-51.2964 973.1,-32.0221 1009.8,-20.4943"/>
<polygon fill="midnightblue" stroke="midnightblue" points="1010.96,-23.7977 1019.45,-17.4616 1008.86,-17.1195 1010.96,-23.7977"/>
</g>
<!-- Node14&#45;&gt;Node12 -->
<g id="edge18" class="edge"><title>Node14&#45;&gt;Node12</title>
<path fill="none" stroke="midnightblue" d="M839.278,-62.4035C828.674,-53.047 811.501,-37.8948 798.542,-26.4599"/>
<polygon fill="midnightblue" stroke="midnightblue" points="800.559,-23.5724 790.745,-19.5806 795.928,-28.8213 800.559,-23.5724"/>
</g>
<!-- Node15 -->
<g id="node15" class="node"><title>Node15</title>
<polygon fill="none" stroke="#bfbfbf" points="821.02,-0.5 821.02,-19.5 883.02,-19.5 883.02,-0.5 821.02,-0.5"/>
<text text-anchor="middle" x="852.02" y="-7.5" font-family="Helvetica,sans-Serif" font-size="10.00">sys/time.h</text>
</g>
<!-- Node14&#45;&gt;Node15 -->
<g id="edge19" class="edge"><title>Node14&#45;&gt;Node15</title>
<path fill="none" stroke="midnightblue" d="M849.45,-62.4035C849.874,-53.9381 850.534,-40.7283 851.079,-29.8199"/>
<polygon fill="midnightblue" stroke="midnightblue" points="854.588,-29.7429 851.591,-19.5806 847.596,-29.3933 854.588,-29.7429"/>
</g>
<!-- Node17 -->
<g id="node17" class="node"><title>Node17</title>
<polygon fill="none" stroke="#bfbfbf" points="559.52,-0.5 559.52,-19.5 608.52,-19.5 608.52,-0.5 559.52,-0.5"/>
<text text-anchor="middle" x="584.02" y="-7.5" font-family="Helvetica,sans-Serif" font-size="10.00">cstddef</text>
</g>
<!-- Node16&#45;&gt;Node17 -->
<g id="edge21" class="edge"><title>Node16&#45;&gt;Node17</title>
<path fill="none" stroke="midnightblue" d="M584.02,-62.4035C584.02,-53.9381 584.02,-40.7283 584.02,-29.8199"/>
<polygon fill="midnightblue" stroke="midnightblue" points="587.521,-29.5806 584.02,-19.5806 580.521,-29.5806 587.521,-29.5806"/>
</g>
<!-- Node16&#45;&gt;Node2 -->
<g id="edge22" class="edge"><title>Node16&#45;&gt;Node2</title>
<path fill="none" stroke="midnightblue" d="M593.19,-62.4035C603.17,-53.047 619.333,-37.8948 631.53,-26.4599"/>
<polygon fill="midnightblue" stroke="midnightblue" points="633.966,-28.9734 638.868,-19.5806 629.179,-23.8666 633.966,-28.9734"/>
</g>
<!-- Node18 -->
<g id="node18" class="node"><title>Node18</title>
<polygon fill="none" stroke="#bfbfbf" points="687.52,-0.5 687.52,-19.5 732.52,-19.5 732.52,-0.5 687.52,-0.5"/>
<text text-anchor="middle" x="710.02" y="-7.5" font-family="Helvetica,sans-Serif" font-size="10.00">cstdlib</text>
</g>
<!-- Node16&#45;&gt;Node18 -->
<g id="edge23" class="edge"><title>Node16&#45;&gt;Node18</title>
<path fill="none" stroke="midnightblue" d="M602.073,-62.4035C623.219,-52.3341 658.461,-35.5522 682.899,-23.9151"/>
<polygon fill="midnightblue" stroke="midnightblue" points="684.477,-27.04 692.001,-19.5806 681.468,-20.72 684.477,-27.04"/>
</g>
<!-- Node19 -->
<g id="node19" class="node"><title>Node19</title>
<polygon fill="none" stroke="#bfbfbf" points="489.02,-0.5 489.02,-19.5 541.02,-19.5 541.02,-0.5 489.02,-0.5"/>
<text text-anchor="middle" x="515.02" y="-7.5" font-family="Helvetica,sans-Serif" font-size="10.00">assert.h</text>
</g>
<!-- Node16&#45;&gt;Node19 -->
<g id="edge24" class="edge"><title>Node16&#45;&gt;Node19</title>
<path fill="none" stroke="midnightblue" d="M574.134,-62.4035C563.374,-53.047 545.949,-37.8948 532.799,-26.4599"/>
<polygon fill="midnightblue" stroke="midnightblue" points="534.731,-23.5013 524.888,-19.5806 530.138,-28.7835 534.731,-23.5013"/>
</g>
<!-- Node22 -->
<g id="node22" class="node"><title>Node22</title>
<polygon fill="none" stroke="#bfbfbf" points="395.52,-62.5 395.52,-81.5 454.52,-81.5 454.52,-62.5 395.52,-62.5"/>
<text text-anchor="middle" x="425.02" y="-69.5" font-family="Helvetica,sans-Serif" font-size="10.00">exception</text>
</g>
<!-- Node21&#45;&gt;Node22 -->
<g id="edge27" class="edge"><title>Node21&#45;&gt;Node22</title>
<path fill="none" stroke="midnightblue" d="M334.208,-124.403C351.682,-114.512 380.599,-98.1442 401.104,-86.5378"/>
<polygon fill="midnightblue" stroke="midnightblue" points="402.883,-89.5525 409.861,-81.5806 399.435,-83.4607 402.883,-89.5525"/>
</g>
<!-- Node23 -->
<g id="node23" class="node"><title>Node23</title>
<polygon fill="none" stroke="#bfbfbf" points="180.52,-62.5 180.52,-81.5 239.52,-81.5 239.52,-62.5 180.52,-62.5"/>
<text text-anchor="middle" x="210.02" y="-69.5" font-family="Helvetica,sans-Serif" font-size="10.00">stdexcept</text>
</g>
<!-- Node21&#45;&gt;Node23 -->
<g id="edge28" class="edge"><title>Node21&#45;&gt;Node23</title>
<path fill="none" stroke="midnightblue" d="M303.403,-124.403C285.435,-114.512 255.699,-98.1442 234.614,-86.5378"/>
<polygon fill="midnightblue" stroke="midnightblue" points="236.057,-83.3367 225.609,-81.5806 232.681,-89.4691 236.057,-83.3367"/>
</g>
<!-- Node24 -->
<g id="node24" class="node"><title>Node24</title>
<polygon fill="none" stroke="#bfbfbf" points="258.02,-62.5 258.02,-81.5 310.02,-81.5 310.02,-62.5 258.02,-62.5"/>
<text text-anchor="middle" x="284.02" y="-69.5" font-family="Helvetica,sans-Serif" font-size="10.00">sstream</text>
</g>
<!-- Node21&#45;&gt;Node24 -->
<g id="edge29" class="edge"><title>Node21&#45;&gt;Node24</title>
<path fill="none" stroke="midnightblue" d="M314.006,-124.403C308.86,-115.582 300.708,-101.608 294.202,-90.4548"/>
<polygon fill="midnightblue" stroke="midnightblue" points="297.088,-88.4548 289.026,-81.5806 291.041,-91.982 297.088,-88.4548"/>
</g>
<!-- Node25 -->
<g id="node25" class="node"><title>Node25</title>
<polygon fill="none" stroke="#bfbfbf" points="328.52,-62.5 328.52,-81.5 377.52,-81.5 377.52,-62.5 328.52,-62.5"/>
<text text-anchor="middle" x="353.02" y="-69.5" font-family="Helvetica,sans-Serif" font-size="10.00">string.h</text>
</g>
<!-- Node21&#45;&gt;Node25 -->
<g id="edge30" class="edge"><title>Node21&#45;&gt;Node25</title>
<path fill="none" stroke="midnightblue" d="M323.892,-124.403C328.891,-115.582 336.81,-101.608 343.129,-90.4548"/>
<polygon fill="midnightblue" stroke="midnightblue" points="346.273,-92.0064 348.158,-81.5806 340.183,-88.5553 346.273,-92.0064"/>
</g>
<!-- Node21&#45;&gt;Node8 -->
<g id="edge31" class="edge"><title>Node21&#45;&gt;Node8</title>
<path fill="none" stroke="midnightblue" d="M287.07,-124.403C247.741,-113.822 180.861,-95.8269 137.574,-84.1802"/>
<polygon fill="midnightblue" stroke="midnightblue" points="138.478,-80.799 127.912,-81.5806 136.659,-87.5586 138.478,-80.799"/>
</g>
<!-- Node27 -->
<g id="node27" class="node"><title>Node27</title>
<g id="a_node27"><a xlink:href="compiler_8h_source.html" target="_top" xlink:title="compiler.h">
<polygon fill="none" stroke="black" points="473.02,-62.5 473.02,-81.5 535.02,-81.5 535.02,-62.5 473.02,-62.5"/>
<text text-anchor="middle" x="504.02" y="-69.5" font-family="Helvetica,sans-Serif" font-size="10.00">compiler.h</text>
</a>
</g>
</g>
<!-- Node26&#45;&gt;Node27 -->
<g id="edge33" class="edge"><title>Node26&#45;&gt;Node27</title>
<path fill="none" stroke="midnightblue" d="M629.102,-124.403C604.275,-114.2 562.677,-97.1055 534.326,-85.4544"/>
<polygon fill="midnightblue" stroke="midnightblue" points="535.48,-82.1445 524.9,-81.5806 532.819,-88.6191 535.48,-82.1445"/>
</g>
<!-- Node29 -->
<g id="node29" class="node"><title>Node29</title>
<g id="a_node29"><a xlink:href="dimension_8h_source.html" target="_top" xlink:title="dimension.h">
<polygon fill="none" stroke="black" points="633.52,-62.5 633.52,-81.5 702.52,-81.5 702.52,-62.5 633.52,-62.5"/>
<text text-anchor="middle" x="668.02" y="-69.5" font-family="Helvetica,sans-Serif" font-size="10.00">dimension.h</text>
</a>
</g>
</g>
<!-- Node26&#45;&gt;Node29 -->
<g id="edge35" class="edge"><title>Node26&#45;&gt;Node29</title>
<path fill="none" stroke="midnightblue" d="M652.599,-124.403C655.166,-115.849 659.186,-102.45 662.478,-91.4762"/>
<polygon fill="midnightblue" stroke="midnightblue" points="665.925,-92.1646 665.446,-81.5806 659.22,-90.1531 665.925,-92.1646"/>
</g>
<!-- Node28 -->
<g id="node28" class="node"><title>Node28</title>
<polygon fill="none" stroke="#bfbfbf" points="407.02,-0.5 407.02,-19.5 471.02,-19.5 471.02,-0.5 407.02,-0.5"/>
<text text-anchor="middle" x="439.02" y="-7.5" font-family="Helvetica,sans-Serif" font-size="10.00">psiconfig.h</text>
</g>
<!-- Node27&#45;&gt;Node28 -->
<g id="edge34" class="edge"><title>Node27&#45;&gt;Node28</title>
<path fill="none" stroke="midnightblue" d="M494.708,-62.4035C484.571,-53.047 468.156,-37.8948 455.769,-26.4599"/>
<polygon fill="midnightblue" stroke="midnightblue" points="458.038,-23.7916 448.316,-19.5806 453.29,-28.9352 458.038,-23.7916"/>
</g>
<!-- Node29&#45;&gt;Node4 -->
<g id="edge36" class="edge"><title>Node29&#45;&gt;Node4</title>
<path fill="none" stroke="midnightblue" d="M690.086,-62.3551C696.733,-60.0098 704.102,-57.6623 711.02,-56 818.936,-30.0728 950.603,-17.6921 1009.27,-13.1461"/>
<polygon fill="midnightblue" stroke="midnightblue" points="1009.64,-16.628 1019.35,-12.387 1009.12,-9.64777 1009.64,-16.628"/>
</g>
<!-- Node29&#45;&gt;Node2 -->
<g id="edge37" class="edge"><title>Node29&#45;&gt;Node2</title>
<path fill="none" stroke="midnightblue" d="M665.155,-62.4035C662.274,-53.7599 657.744,-40.17 654.065,-29.1341"/>
<polygon fill="midnightblue" stroke="midnightblue" points="657.363,-27.9606 650.881,-19.5806 650.723,-30.1742 657.363,-27.9606"/>
</g>
<!-- Node29&#45;&gt;Node12 -->
<g id="edge38" class="edge"><title>Node29&#45;&gt;Node12</title>
<path fill="none" stroke="midnightblue" d="M684.211,-62.4035C702.923,-52.4678 733.944,-35.9966 755.819,-24.3812"/>
<polygon fill="midnightblue" stroke="midnightblue" points="757.67,-27.3616 764.86,-19.5806 754.387,-21.179 757.67,-27.3616"/>
</g>
</g>
</svg>
