<?xml version="1.0" encoding="UTF-8" standalone="no"?>
<!DOCTYPE svg PUBLIC "-//W3C//DTD SVG 1.1//EN"
 "http://www.w3.org/Graphics/SVG/1.1/DTD/svg11.dtd">
<!-- Generated by graphviz version 2.30.1 (20140110.0959)
 -->
<!-- Title: olsenupdt.cc Pages: 1 -->
<svg width="1295pt" height="320pt"
 viewBox="0.00 0.00 1295.00 320.00" xmlns="http://www.w3.org/2000/svg" xmlns:xlink="http://www.w3.org/1999/xlink">
<g id="graph0" class="graph" transform="scale(1 1) rotate(0) translate(4 316)">
<title>olsenupdt.cc</title>
<!-- Node1 -->
<g id="node1" class="node"><title>Node1</title>
<polygon fill="#bfbfbf" stroke="black" points="991,-292.5 991,-311.5 1063,-311.5 1063,-292.5 991,-292.5"/>
<text text-anchor="middle" x="1027" y="-299.5" font-family="Helvetica,sans-Serif" font-size="10.00">olsenupdt.cc</text>
</g>
<!-- Node2 -->
<g id="node2" class="node"><title>Node2</title>
<polygon fill="none" stroke="#bfbfbf" points="200.5,-0.5 200.5,-19.5 243.5,-19.5 243.5,-0.5 200.5,-0.5"/>
<text text-anchor="middle" x="222" y="-7.5" font-family="Helvetica,sans-Serif" font-size="10.00">cstdio</text>
</g>
<!-- Node1&#45;&gt;Node2 -->
<g id="edge1" class="edge"><title>Node1&#45;&gt;Node2</title>
<path fill="none" stroke="midnightblue" d="M990.804,-300.965C809.637,-300.324 10,-291.784 10,-191 10,-191 10,-191 10,-133 10,-97.7513 3.78734,-80.6331 29,-56 79.4895,-6.67099 116.272,-35.5413 190.184,-19.8635"/>
<polygon fill="midnightblue" stroke="midnightblue" points="191.433,-23.1653 200.368,-17.4713 189.833,-16.3508 191.433,-23.1653"/>
</g>
<!-- Node3 -->
<g id="node3" class="node"><title>Node3</title>
<polygon fill="none" stroke="#bfbfbf" points="937,-236.5 937,-255.5 981,-255.5 981,-236.5 937,-236.5"/>
<text text-anchor="middle" x="959" y="-243.5" font-family="Helvetica,sans-Serif" font-size="10.00">cmath</text>
</g>
<!-- Node1&#45;&gt;Node3 -->
<g id="edge2" class="edge"><title>Node1&#45;&gt;Node3</title>
<path fill="none" stroke="midnightblue" d="M1016.07,-292.324C1005.83,-284.185 990.279,-271.839 977.999,-262.087"/>
<polygon fill="midnightblue" stroke="midnightblue" points="980.132,-259.312 970.124,-255.834 975.779,-264.794 980.132,-259.312"/>
</g>
<!-- Node4 -->
<g id="node4" class="node"><title>Node4</title>
<g id="a_node4"><a xlink:href="detci_2globals_8h.html" target="_top" xlink:title="Enter brief description of file here.">
<polygon fill="none" stroke="black" points="999,-236.5 999,-255.5 1055,-255.5 1055,-236.5 999,-236.5"/>
<text text-anchor="middle" x="1027" y="-243.5" font-family="Helvetica,sans-Serif" font-size="10.00">globals.h</text>
</a>
</g>
</g>
<!-- Node1&#45;&gt;Node4 -->
<g id="edge3" class="edge"><title>Node1&#45;&gt;Node4</title>
<path fill="none" stroke="midnightblue" d="M1027,-292.083C1027,-285.006 1027,-274.861 1027,-265.986"/>
<polygon fill="midnightblue" stroke="midnightblue" points="1030.5,-265.751 1027,-255.751 1023.5,-265.751 1030.5,-265.751"/>
</g>
<!-- Node30 -->
<g id="node30" class="node"><title>Node30</title>
<g id="a_node30"><a xlink:href="structs_8h.html" target="_top" xlink:title="Enter brief description of file here.">
<polygon fill="none" stroke="black" points="1231.5,-180.5 1231.5,-199.5 1286.5,-199.5 1286.5,-180.5 1231.5,-180.5"/>
<text text-anchor="middle" x="1259" y="-187.5" font-family="Helvetica,sans-Serif" font-size="10.00">structs.h</text>
</a>
</g>
</g>
<!-- Node1&#45;&gt;Node30 -->
<g id="edge39" class="edge"><title>Node1&#45;&gt;Node30</title>
<path fill="none" stroke="midnightblue" d="M1034.85,-292.052C1047.58,-278.076 1074.13,-251.105 1102,-236 1122.58,-224.846 1181.93,-209.359 1221.48,-199.769"/>
<polygon fill="midnightblue" stroke="midnightblue" points="1222.41,-203.145 1231.31,-197.405 1220.77,-196.338 1222.41,-203.145"/>
</g>
<!-- Node31 -->
<g id="node31" class="node"><title>Node31</title>
<g id="a_node31"><a xlink:href="ci__tol_8h.html" target="_top" xlink:title="Enter brief description of file here.">
<polygon fill="none" stroke="black" points="1111,-236.5 1111,-255.5 1159,-255.5 1159,-236.5 1111,-236.5"/>
<text text-anchor="middle" x="1135" y="-243.5" font-family="Helvetica,sans-Serif" font-size="10.00">ci_tol.h</text>
</a>
</g>
</g>
<!-- Node1&#45;&gt;Node31 -->
<g id="edge41" class="edge"><title>Node1&#45;&gt;Node31</title>
<path fill="none" stroke="midnightblue" d="M1044.35,-292.324C1061.67,-283.664 1088.52,-270.242 1108.5,-260.249"/>
<polygon fill="midnightblue" stroke="midnightblue" points="1110.31,-263.257 1117.69,-255.655 1107.18,-256.996 1110.31,-263.257"/>
</g>
<!-- Node5 -->
<g id="node5" class="node"><title>Node5</title>
<g id="a_node5"><a xlink:href="psi4-dec_8h_source.html" target="_top" xlink:title="psi4&#45;dec.h">
<polygon fill="none" stroke="black" points="804,-180.5 804,-199.5 866,-199.5 866,-180.5 804,-180.5"/>
<text text-anchor="middle" x="835" y="-187.5" font-family="Helvetica,sans-Serif" font-size="10.00">psi4&#45;dec.h</text>
</a>
</g>
</g>
<!-- Node4&#45;&gt;Node5 -->
<g id="edge4" class="edge"><title>Node4&#45;&gt;Node5</title>
<path fill="none" stroke="midnightblue" d="M998.67,-237.032C966.061,-227.861 912.257,-212.729 875.297,-202.333"/>
<polygon fill="midnightblue" stroke="midnightblue" points="875.924,-198.874 865.35,-199.536 874.029,-205.613 875.924,-198.874"/>
</g>
<!-- Node8 -->
<g id="node8" class="node"><title>Node8</title>
<polygon fill="none" stroke="#bfbfbf" points="585.5,-0.5 585.5,-19.5 626.5,-19.5 626.5,-0.5 585.5,-0.5"/>
<text text-anchor="middle" x="606" y="-7.5" font-family="Helvetica,sans-Serif" font-size="10.00">string</text>
</g>
<!-- Node4&#45;&gt;Node8 -->
<g id="edge38" class="edge"><title>Node4&#45;&gt;Node8</title>
<path fill="none" stroke="midnightblue" d="M1042.39,-236.395C1090.1,-208.71 1228.84,-120.013 1169,-56 1130.13,-14.4156 729.349,-29.2245 636.659,-19.2371"/>
<polygon fill="midnightblue" stroke="midnightblue" points="636.898,-15.7365 626.509,-17.8132 635.926,-22.6686 636.898,-15.7365"/>
</g>
<!-- Node6 -->
<g id="node6" class="node"><title>Node6</title>
<polygon fill="none" stroke="#bfbfbf" points="887,-124.5 887,-143.5 995,-143.5 995,-124.5 887,-124.5"/>
<text text-anchor="middle" x="941" y="-131.5" font-family="Helvetica,sans-Serif" font-size="10.00">boost/shared_ptr.hpp</text>
</g>
<!-- Node5&#45;&gt;Node6 -->
<g id="edge5" class="edge"><title>Node5&#45;&gt;Node6</title>
<path fill="none" stroke="midnightblue" d="M852.031,-180.324C869.03,-171.664 895.376,-158.242 914.993,-148.249"/>
<polygon fill="midnightblue" stroke="midnightblue" points="916.69,-151.312 924.012,-143.655 913.512,-145.075 916.69,-151.312"/>
</g>
<!-- Node7 -->
<g id="node7" class="node"><title>Node7</title>
<polygon fill="none" stroke="#bfbfbf" points="1005,-62.5 1005,-81.5 1137,-81.5 1137,-62.5 1005,-62.5"/>
<text text-anchor="middle" x="1071" y="-69.5" font-family="Helvetica,sans-Serif" font-size="10.00">boost/current_function.hpp</text>
</g>
<!-- Node5&#45;&gt;Node7 -->
<g id="edge6" class="edge"><title>Node5&#45;&gt;Node7</title>
<path fill="none" stroke="midnightblue" d="M866.281,-185.875C901.793,-181.195 960.439,-169.952 1004,-144 1026.88,-130.368 1046.92,-106.716 1058.98,-90.4833"/>
<polygon fill="midnightblue" stroke="midnightblue" points="1062.14,-92.0821 1065.12,-81.9153 1056.45,-88.0039 1062.14,-92.0821"/>
</g>
<!-- Node5&#45;&gt;Node8 -->
<g id="edge7" class="edge"><title>Node5&#45;&gt;Node8</title>
<path fill="none" stroke="midnightblue" d="M866.256,-186.692C960.624,-178.666 1231.07,-147.291 1146,-56 1108.9,-16.1859 726.102,-28.9997 636.543,-19.2264"/>
<polygon fill="midnightblue" stroke="midnightblue" points="636.903,-15.7425 626.511,-17.8047 635.921,-22.6732 636.903,-15.7425"/>
</g>
<!-- Node9 -->
<g id="node9" class="node"><title>Node9</title>
<polygon fill="none" stroke="#bfbfbf" points="261.5,-124.5 261.5,-143.5 290.5,-143.5 290.5,-124.5 261.5,-124.5"/>
<text text-anchor="middle" x="276" y="-131.5" font-family="Helvetica,sans-Serif" font-size="10.00">list</text>
</g>
<!-- Node5&#45;&gt;Node9 -->
<g id="edge8" class="edge"><title>Node5&#45;&gt;Node9</title>
<path fill="none" stroke="midnightblue" d="M803.79,-189.343C722.106,-189.617 495.476,-186.367 300.381,-143.386"/>
<polygon fill="midnightblue" stroke="midnightblue" points="301.052,-139.949 290.528,-141.175 299.519,-146.779 301.052,-139.949"/>
</g>
<!-- Node10 -->
<g id="node10" class="node"><title>Node10</title>
<polygon fill="none" stroke="#bfbfbf" points="38.5,-62.5 38.5,-81.5 73.5,-81.5 73.5,-62.5 38.5,-62.5"/>
<text text-anchor="middle" x="56" y="-69.5" font-family="Helvetica,sans-Serif" font-size="10.00">map</text>
</g>
<!-- Node5&#45;&gt;Node10 -->
<g id="edge9" class="edge"><title>Node5&#45;&gt;Node10</title>
<path fill="none" stroke="midnightblue" d="M803.982,-189.238C716.342,-189.348 459.754,-185.79 252,-144 174.427,-128.396 155.457,-119.797 83,-88 81.8123,-87.4788 80.608,-86.9222 79.4009,-86.3415"/>
<polygon fill="midnightblue" stroke="midnightblue" points="80.8049,-83.1264 70.3195,-81.6073 77.569,-89.3336 80.8049,-83.1264"/>
</g>
<!-- Node11 -->
<g id="node11" class="node"><title>Node11</title>
<g id="a_node11"><a xlink:href="liboptions_8h_source.html" target="_top" xlink:title="liboptions/liboptions.h">
<polygon fill="none" stroke="black" points="309,-124.5 309,-143.5 419,-143.5 419,-124.5 309,-124.5"/>
<text text-anchor="middle" x="364" y="-131.5" font-family="Helvetica,sans-Serif" font-size="10.00">liboptions/liboptions.h</text>
</a>
</g>
</g>
<!-- Node5&#45;&gt;Node11 -->
<g id="edge10" class="edge"><title>Node5&#45;&gt;Node11</title>
<path fill="none" stroke="midnightblue" d="M803.732,-185.415C727.676,-176.695 531.739,-154.231 429.023,-142.455"/>
<polygon fill="midnightblue" stroke="midnightblue" points="429.414,-138.977 419.08,-141.315 428.616,-145.931 429.414,-138.977"/>
</g>
<!-- Node21 -->
<g id="node21" class="node"><title>Node21</title>
<g id="a_node21"><a xlink:href="include_2exception_8h_source.html" target="_top" xlink:title="exception.h">
<polygon fill="none" stroke="black" points="801.5,-124.5 801.5,-143.5 868.5,-143.5 868.5,-124.5 801.5,-124.5"/>
<text text-anchor="middle" x="835" y="-131.5" font-family="Helvetica,sans-Serif" font-size="10.00">exception.h</text>
</a>
</g>
</g>
<!-- Node5&#45;&gt;Node21 -->
<g id="edge25" class="edge"><title>Node5&#45;&gt;Node21</title>
<path fill="none" stroke="midnightblue" d="M835,-180.083C835,-173.006 835,-162.861 835,-153.986"/>
<polygon fill="midnightblue" stroke="midnightblue" points="838.5,-153.751 835,-143.751 831.5,-153.751 838.5,-153.751"/>
</g>
<!-- Node26 -->
<g id="node26" class="node"><title>Node26</title>
<g id="a_node26"><a xlink:href="typedefs_8h_source.html" target="_top" xlink:title="libmints/typedefs.h">
<polygon fill="none" stroke="black" points="613.5,-124.5 613.5,-143.5 712.5,-143.5 712.5,-124.5 613.5,-124.5"/>
<text text-anchor="middle" x="663" y="-131.5" font-family="Helvetica,sans-Serif" font-size="10.00">libmints/typedefs.h</text>
</a>
</g>
</g>
<!-- Node5&#45;&gt;Node26 -->
<g id="edge31" class="edge"><title>Node5&#45;&gt;Node26</title>
<path fill="none" stroke="midnightblue" d="M807.746,-180.444C778.559,-171.28 732.079,-156.688 699.691,-146.519"/>
<polygon fill="midnightblue" stroke="midnightblue" points="700.716,-143.173 690.126,-143.516 698.619,-149.851 700.716,-143.173"/>
</g>
<!-- Node11&#45;&gt;Node8 -->
<g id="edge11" class="edge"><title>Node11&#45;&gt;Node8</title>
<path fill="none" stroke="midnightblue" d="M419.209,-128.214C476.344,-122.157 560.475,-109.79 584,-88 600.065,-73.1201 604.69,-47.4039 605.87,-29.8174"/>
<polygon fill="midnightblue" stroke="midnightblue" points="609.375,-29.7488 606.234,-19.6301 602.379,-29.4987 609.375,-29.7488"/>
</g>
<!-- Node12 -->
<g id="node12" class="node"><title>Node12</title>
<polygon fill="none" stroke="#bfbfbf" points="428,-0.5 428,-19.5 472,-19.5 472,-0.5 428,-0.5"/>
<text text-anchor="middle" x="450" y="-7.5" font-family="Helvetica,sans-Serif" font-size="10.00">vector</text>
</g>
<!-- Node11&#45;&gt;Node12 -->
<g id="edge12" class="edge"><title>Node11&#45;&gt;Node12</title>
<path fill="none" stroke="midnightblue" d="M352.699,-124.321C335.007,-109.669 304.42,-79.3433 321,-56 342.808,-25.2953 387.189,-15.3677 417.752,-12.2557"/>
<polygon fill="midnightblue" stroke="midnightblue" points="418.249,-15.7267 427.927,-11.4163 417.673,-8.75044 418.249,-15.7267"/>
</g>
<!-- Node11&#45;&gt;Node10 -->
<g id="edge13" class="edge"><title>Node11&#45;&gt;Node10</title>
<path fill="none" stroke="midnightblue" d="M308.698,-125.197C232.953,-114.348 103.895,-95.226 83,-88 81.543,-87.4961 80.0727,-86.9163 78.6105,-86.2838"/>
<polygon fill="midnightblue" stroke="midnightblue" points="79.8102,-82.9692 69.3048,-81.5955 76.6606,-89.2206 79.8102,-82.9692"/>
</g>
<!-- Node13 -->
<g id="node13" class="node"><title>Node13</title>
<polygon fill="none" stroke="#bfbfbf" points="330.5,-62.5 330.5,-81.5 397.5,-81.5 397.5,-62.5 330.5,-62.5"/>
<text text-anchor="middle" x="364" y="-69.5" font-family="Helvetica,sans-Serif" font-size="10.00">exception.h</text>
</g>
<!-- Node11&#45;&gt;Node13 -->
<g id="edge14" class="edge"><title>Node11&#45;&gt;Node13</title>
<path fill="none" stroke="midnightblue" d="M364,-124.403C364,-115.938 364,-102.728 364,-91.8199"/>
<polygon fill="midnightblue" stroke="midnightblue" points="367.5,-91.5806 364,-81.5806 360.5,-91.5806 367.5,-91.5806"/>
</g>
<!-- Node14 -->
<g id="node14" class="node"><title>Node14</title>
<g id="a_node14"><a xlink:href="libutil_8h_source.html" target="_top" xlink:title="libutil/libutil.h">
<polygon fill="none" stroke="black" points="502.5,-62.5 502.5,-81.5 575.5,-81.5 575.5,-62.5 502.5,-62.5"/>
<text text-anchor="middle" x="539" y="-69.5" font-family="Helvetica,sans-Serif" font-size="10.00">libutil/libutil.h</text>
</a>
</g>
</g>
<!-- Node11&#45;&gt;Node14 -->
<g id="edge15" class="edge"><title>Node11&#45;&gt;Node14</title>
<path fill="none" stroke="midnightblue" d="M389.073,-124.403C419.352,-114.022 470.44,-96.5062 504.441,-84.849"/>
<polygon fill="midnightblue" stroke="midnightblue" points="505.649,-88.1347 513.973,-81.5806 503.379,-81.5131 505.649,-88.1347"/>
</g>
<!-- Node16 -->
<g id="node16" class="node"><title>Node16</title>
<g id="a_node16"><a xlink:href="libutil_2ref_8h_source.html" target="_top" xlink:title="libutil/ref.h">
<polygon fill="none" stroke="black" points="92,-62.5 92,-81.5 154,-81.5 154,-62.5 92,-62.5"/>
<text text-anchor="middle" x="123" y="-69.5" font-family="Helvetica,sans-Serif" font-size="10.00">libutil/ref.h</text>
</a>
</g>
</g>
<!-- Node11&#45;&gt;Node16 -->
<g id="edge19" class="edge"><title>Node11&#45;&gt;Node16</title>
<path fill="none" stroke="midnightblue" d="M317.226,-124.437C276.186,-116.472 215.093,-103.517 163,-88 160.039,-87.118 156.983,-86.1259 153.94,-85.0828"/>
<polygon fill="midnightblue" stroke="midnightblue" points="154.998,-81.7438 144.403,-81.65 152.627,-88.3301 154.998,-81.7438"/>
</g>
<!-- Node20 -->
<g id="node20" class="node"><title>Node20</title>
<polygon fill="none" stroke="#bfbfbf" points="172,-57 172,-87 274,-87 274,-57 172,-57"/>
<text text-anchor="start" x="180" y="-75" font-family="Helvetica,sans-Serif" font-size="10.00">boost/python/object</text>
<text text-anchor="middle" x="223" y="-64" font-family="Helvetica,sans-Serif" font-size="10.00">_fwd.hpp</text>
</g>
<!-- Node11&#45;&gt;Node20 -->
<g id="edge24" class="edge"><title>Node11&#45;&gt;Node20</title>
<path fill="none" stroke="midnightblue" d="M343.798,-124.403C323.385,-115.717 291.231,-102.035 265.228,-90.9694"/>
<polygon fill="midnightblue" stroke="midnightblue" points="266.532,-87.7204 255.959,-87.0253 263.791,-94.1615 266.532,-87.7204"/>
</g>
<!-- Node14&#45;&gt;Node8 -->
<g id="edge16" class="edge"><title>Node14&#45;&gt;Node8</title>
<path fill="none" stroke="midnightblue" d="M548.599,-62.4035C559.048,-53.047 575.968,-37.8948 588.736,-26.4599"/>
<polygon fill="midnightblue" stroke="midnightblue" points="591.304,-28.8592 596.418,-19.5806 586.634,-23.6445 591.304,-28.8592"/>
</g>
<!-- Node14&#45;&gt;Node12 -->
<g id="edge17" class="edge"><title>Node14&#45;&gt;Node12</title>
<path fill="none" stroke="midnightblue" d="M526.248,-62.4035C511.973,-52.7797 488.603,-37.0242 471.492,-25.4891"/>
<polygon fill="midnightblue" stroke="midnightblue" points="472.976,-22.2684 462.728,-19.5806 469.063,-28.0727 472.976,-22.2684"/>
</g>
<!-- Node15 -->
<g id="node15" class="node"><title>Node15</title>
<polygon fill="none" stroke="#bfbfbf" points="505,-0.5 505,-19.5 567,-19.5 567,-0.5 505,-0.5"/>
<text text-anchor="middle" x="536" y="-7.5" font-family="Helvetica,sans-Serif" font-size="10.00">sys/time.h</text>
</g>
<!-- Node14&#45;&gt;Node15 -->
<g id="edge18" class="edge"><title>Node14&#45;&gt;Node15</title>
<path fill="none" stroke="midnightblue" d="M538.57,-62.4035C538.147,-53.9381 537.486,-40.7283 536.941,-29.8199"/>
<polygon fill="midnightblue" stroke="midnightblue" points="540.424,-29.3933 536.429,-19.5806 533.433,-29.7429 540.424,-29.3933"/>
</g>
<!-- Node17 -->
<g id="node17" class="node"><title>Node17</title>
<polygon fill="none" stroke="#bfbfbf" points="-0.5,-0.5 -0.5,-19.5 48.5,-19.5 48.5,-0.5 -0.5,-0.5"/>
<text text-anchor="middle" x="24" y="-7.5" font-family="Helvetica,sans-Serif" font-size="10.00">cstddef</text>
</g>
<!-- Node16&#45;&gt;Node17 -->
<g id="edge20" class="edge"><title>Node16&#45;&gt;Node17</title>
<path fill="none" stroke="midnightblue" d="M108.816,-62.4035C92.6424,-52.6014 65.9736,-36.4385 46.8568,-24.8526"/>
<polygon fill="midnightblue" stroke="midnightblue" points="48.524,-21.7705 38.158,-19.5806 44.8959,-27.7569 48.524,-21.7705"/>
</g>
<!-- Node16&#45;&gt;Node2 -->
<g id="edge21" class="edge"><title>Node16&#45;&gt;Node2</title>
<path fill="none" stroke="midnightblue" d="M137.184,-62.4035C153.358,-52.6014 180.026,-36.4385 199.143,-24.8526"/>
<polygon fill="midnightblue" stroke="midnightblue" points="201.104,-27.7569 207.842,-19.5806 197.476,-21.7705 201.104,-27.7569"/>
</g>
<!-- Node18 -->
<g id="node18" class="node"><title>Node18</title>
<polygon fill="none" stroke="#bfbfbf" points="66.5,-0.5 66.5,-19.5 111.5,-19.5 111.5,-0.5 66.5,-0.5"/>
<text text-anchor="middle" x="89" y="-7.5" font-family="Helvetica,sans-Serif" font-size="10.00">cstdlib</text>
</g>
<!-- Node16&#45;&gt;Node18 -->
<g id="edge22" class="edge"><title>Node16&#45;&gt;Node18</title>
<path fill="none" stroke="midnightblue" d="M118.129,-62.4035C113.13,-53.5816 105.211,-39.6075 98.891,-28.4548"/>
<polygon fill="midnightblue" stroke="midnightblue" points="101.838,-26.5553 93.8623,-19.5806 95.7474,-30.0064 101.838,-26.5553"/>
</g>
<!-- Node19 -->
<g id="node19" class="node"><title>Node19</title>
<polygon fill="none" stroke="#bfbfbf" points="130,-0.5 130,-19.5 182,-19.5 182,-0.5 130,-0.5"/>
<text text-anchor="middle" x="156" y="-7.5" font-family="Helvetica,sans-Serif" font-size="10.00">assert.h</text>
</g>
<!-- Node16&#45;&gt;Node19 -->
<g id="edge23" class="edge"><title>Node16&#45;&gt;Node19</title>
<path fill="none" stroke="midnightblue" d="M127.728,-62.4035C132.58,-53.5816 140.266,-39.6075 146.4,-28.4548"/>
<polygon fill="midnightblue" stroke="midnightblue" points="149.528,-30.0295 151.281,-19.5806 143.395,-26.656 149.528,-30.0295"/>
</g>
<!-- Node22 -->
<g id="node22" class="node"><title>Node22</title>
<polygon fill="none" stroke="#bfbfbf" points="712.5,-62.5 712.5,-81.5 771.5,-81.5 771.5,-62.5 712.5,-62.5"/>
<text text-anchor="middle" x="742" y="-69.5" font-family="Helvetica,sans-Serif" font-size="10.00">exception</text>
</g>
<!-- Node21&#45;&gt;Node22 -->
<g id="edge26" class="edge"><title>Node21&#45;&gt;Node22</title>
<path fill="none" stroke="midnightblue" d="M821.675,-124.403C806.62,-114.691 781.884,-98.7319 763.963,-87.1697"/>
<polygon fill="midnightblue" stroke="midnightblue" points="765.6,-84.0609 755.3,-81.5806 761.805,-89.9429 765.6,-84.0609"/>
</g>
<!-- Node23 -->
<g id="node23" class="node"><title>Node23</title>
<polygon fill="none" stroke="#bfbfbf" points="789.5,-62.5 789.5,-81.5 848.5,-81.5 848.5,-62.5 789.5,-62.5"/>
<text text-anchor="middle" x="819" y="-69.5" font-family="Helvetica,sans-Serif" font-size="10.00">stdexcept</text>
</g>
<!-- Node21&#45;&gt;Node23 -->
<g id="edge27" class="edge"><title>Node21&#45;&gt;Node23</title>
<path fill="none" stroke="midnightblue" d="M832.708,-124.403C830.426,-115.849 826.853,-102.45 823.927,-91.4762"/>
<polygon fill="midnightblue" stroke="midnightblue" points="827.247,-90.3411 821.288,-81.5806 820.483,-92.1448 827.247,-90.3411"/>
</g>
<!-- Node24 -->
<g id="node24" class="node"><title>Node24</title>
<polygon fill="none" stroke="#bfbfbf" points="867,-62.5 867,-81.5 919,-81.5 919,-62.5 867,-62.5"/>
<text text-anchor="middle" x="893" y="-69.5" font-family="Helvetica,sans-Serif" font-size="10.00">sstream</text>
</g>
<!-- Node21&#45;&gt;Node24 -->
<g id="edge28" class="edge"><title>Node21&#45;&gt;Node24</title>
<path fill="none" stroke="midnightblue" d="M843.31,-124.403C852.268,-115.136 866.723,-100.183 877.739,-88.7876"/>
<polygon fill="midnightblue" stroke="midnightblue" points="880.272,-91.2031 884.705,-81.5806 875.239,-86.3379 880.272,-91.2031"/>
</g>
<!-- Node25 -->
<g id="node25" class="node"><title>Node25</title>
<polygon fill="none" stroke="#bfbfbf" points="937.5,-62.5 937.5,-81.5 986.5,-81.5 986.5,-62.5 937.5,-62.5"/>
<text text-anchor="middle" x="962" y="-69.5" font-family="Helvetica,sans-Serif" font-size="10.00">string.h</text>
</g>
<!-- Node21&#45;&gt;Node25 -->
<g id="edge29" class="edge"><title>Node21&#45;&gt;Node25</title>
<path fill="none" stroke="midnightblue" d="M853.196,-124.403C874.509,-114.334 910.031,-97.5522 934.663,-85.9151"/>
<polygon fill="midnightblue" stroke="midnightblue" points="936.291,-89.0169 943.838,-81.5806 933.301,-82.6877 936.291,-89.0169"/>
</g>
<!-- Node21&#45;&gt;Node7 -->
<g id="edge30" class="edge"><title>Node21&#45;&gt;Node7</title>
<path fill="none" stroke="midnightblue" d="M868.562,-124.467C910.325,-113.849 981.722,-95.6978 1027.6,-84.0327"/>
<polygon fill="midnightblue" stroke="midnightblue" points="1028.72,-87.3595 1037.55,-81.5034 1027,-80.5754 1028.72,-87.3595"/>
</g>
<!-- Node27 -->
<g id="node27" class="node"><title>Node27</title>
<g id="a_node27"><a xlink:href="compiler_8h_source.html" target="_top" xlink:title="compiler.h">
<polygon fill="none" stroke="black" points="632,-62.5 632,-81.5 694,-81.5 694,-62.5 632,-62.5"/>
<text text-anchor="middle" x="663" y="-69.5" font-family="Helvetica,sans-Serif" font-size="10.00">compiler.h</text>
</a>
</g>
</g>
<!-- Node26&#45;&gt;Node27 -->
<g id="edge32" class="edge"><title>Node26&#45;&gt;Node27</title>
<path fill="none" stroke="midnightblue" d="M663,-124.403C663,-115.938 663,-102.728 663,-91.8199"/>
<polygon fill="midnightblue" stroke="midnightblue" points="666.5,-91.5806 663,-81.5806 659.5,-91.5806 666.5,-91.5806"/>
</g>
<!-- Node29 -->
<g id="node29" class="node"><title>Node29</title>
<g id="a_node29"><a xlink:href="dimension_8h_source.html" target="_top" xlink:title="dimension.h">
<polygon fill="none" stroke="black" points="415.5,-62.5 415.5,-81.5 484.5,-81.5 484.5,-62.5 415.5,-62.5"/>
<text text-anchor="middle" x="450" y="-69.5" font-family="Helvetica,sans-Serif" font-size="10.00">dimension.h</text>
</a>
</g>
</g>
<!-- Node26&#45;&gt;Node29 -->
<g id="edge34" class="edge"><title>Node26&#45;&gt;Node29</title>
<path fill="none" stroke="midnightblue" d="M627.613,-124.476C593.07,-115.957 539.123,-102.126 493,-88 489.825,-87.0275 486.534,-85.9704 483.251,-84.8826"/>
<polygon fill="midnightblue" stroke="midnightblue" points="484.144,-81.4893 473.549,-81.5809 481.889,-88.1161 484.144,-81.4893"/>
</g>
<!-- Node28 -->
<g id="node28" class="node"><title>Node28</title>
<polygon fill="none" stroke="#bfbfbf" points="645,-0.5 645,-19.5 709,-19.5 709,-0.5 645,-0.5"/>
<text text-anchor="middle" x="677" y="-7.5" font-family="Helvetica,sans-Serif" font-size="10.00">psiconfig.h</text>
</g>
<!-- Node27&#45;&gt;Node28 -->
<g id="edge33" class="edge"><title>Node27&#45;&gt;Node28</title>
<path fill="none" stroke="midnightblue" d="M665.006,-62.4035C667.002,-53.849 670.128,-40.4497 672.689,-29.4762"/>
<polygon fill="midnightblue" stroke="midnightblue" points="676.134,-30.1143 674.998,-19.5806 669.317,-28.5237 676.134,-30.1143"/>
</g>
<!-- Node29&#45;&gt;Node8 -->
<g id="edge35" class="edge"><title>Node29&#45;&gt;Node8</title>
<path fill="none" stroke="midnightblue" d="M472.351,-62.4035C499.449,-51.9812 545.244,-34.3677 575.551,-22.7111"/>
<polygon fill="midnightblue" stroke="midnightblue" points="577.109,-25.8619 585.186,-19.0053 574.596,-19.3285 577.109,-25.8619"/>
</g>
<!-- Node29&#45;&gt;Node2 -->
<g id="edge36" class="edge"><title>Node29&#45;&gt;Node2</title>
<path fill="none" stroke="midnightblue" d="M425.916,-62.3594C419.482,-60.1693 412.507,-57.9009 406,-56 353.136,-40.5577 290.695,-26.0618 253.829,-17.8825"/>
<polygon fill="midnightblue" stroke="midnightblue" points="254.213,-14.3831 243.694,-15.6502 252.707,-21.2193 254.213,-14.3831"/>
</g>
<!-- Node29&#45;&gt;Node12 -->
<g id="edge37" class="edge"><title>Node29&#45;&gt;Node12</title>
<path fill="none" stroke="midnightblue" d="M450,-62.4035C450,-53.9381 450,-40.7283 450,-29.8199"/>
<polygon fill="midnightblue" stroke="midnightblue" points="453.5,-29.5806 450,-19.5806 446.5,-29.5806 453.5,-29.5806"/>
</g>
<!-- Node30&#45;&gt;Node8 -->
<g id="edge40" class="edge"><title>Node30&#45;&gt;Node8</title>
<path fill="none" stroke="midnightblue" d="M1259.3,-180.348C1259.64,-156.09 1256.87,-87.1642 1217,-56 1167.98,-17.6874 734.594,-30.2898 636.532,-19.2552"/>
<polygon fill="midnightblue" stroke="midnightblue" points="636.9,-15.7722 626.506,-17.8287 635.913,-22.7024 636.9,-15.7722"/>
</g>
</g>
</svg>
