<?xml version="1.0" encoding="UTF-8" standalone="no"?>
<!DOCTYPE svg PUBLIC "-//W3C//DTD SVG 1.1//EN"
 "http://www.w3.org/Graphics/SVG/1.1/DTD/svg11.dtd">
<!-- Generated by graphviz version 2.30.1 (20140110.0959)
 -->
<!-- Title: opt_data.h Pages: 1 -->
<svg width="1797pt" height="152pt"
 viewBox="0.00 0.00 1797.00 152.00" xmlns="http://www.w3.org/2000/svg" xmlns:xlink="http://www.w3.org/1999/xlink">
<g id="graph0" class="graph" transform="scale(1 1) rotate(0) translate(4 148)">
<title>opt_data.h</title>
<!-- Node1 -->
<g id="node1" class="node"><title>Node1</title>
<polygon fill="#bfbfbf" stroke="black" points="456,-124.5 456,-143.5 518,-143.5 518,-124.5 456,-124.5"/>
<text text-anchor="middle" x="487" y="-131.5" font-family="Helvetica,sans-Serif" font-size="10.00">opt_data.h</text>
</g>
<!-- Node2 -->
<g id="node2" class="node"><title>Node2</title>
<g id="a_node2"><a xlink:href="optking_2globals_8h_source.html" target="_top" xlink:title="globals.h">
<polygon fill="none" stroke="black" points="650,-68.5 650,-87.5 706,-87.5 706,-68.5 650,-68.5"/>
<text text-anchor="middle" x="678" y="-75.5" font-family="Helvetica,sans-Serif" font-size="10.00">globals.h</text>
</a>
</g>
</g>
<!-- Node1&#45;&gt;Node2 -->
<g id="edge1" class="edge"><title>Node1&#45;&gt;Node2</title>
<path fill="none" stroke="midnightblue" d="M527.153,-121.648C563.892,-111.261 617.318,-96.1561 649.745,-86.9883"/>
<polygon fill="midnightblue" stroke="midnightblue" points="525.935,-118.355 517.265,-124.444 527.84,-125.091 525.935,-118.355"/>
</g>
<!-- Node4 -->
<g id="node4" class="node"><title>Node4</title>
<g id="a_node4"><a xlink:href="frag_8cc.html" target="_top" xlink:title="fragment (molecule) class">
<polygon fill="none" stroke="black" points="-0.5,-6.5 -0.5,-25.5 46.5,-25.5 46.5,-6.5 -0.5,-6.5"/>
<text text-anchor="middle" x="23" y="-13.5" font-family="Helvetica,sans-Serif" font-size="10.00">frag.cc</text>
</a>
</g>
</g>
<!-- Node1&#45;&gt;Node4 -->
<g id="edge19" class="edge"><title>Node1&#45;&gt;Node4</title>
<path fill="none" stroke="midnightblue" d="M445.654,-126.581C367.806,-113.784 194.822,-81.9542 56,-32 50.9075,-30.1675 45.5123,-27.8734 40.5926,-25.6346"/>
<polygon fill="midnightblue" stroke="midnightblue" points="445.562,-130.112 455.993,-128.26 446.684,-123.202 445.562,-130.112"/>
</g>
<!-- Node6 -->
<g id="node6" class="node"><title>Node6</title>
<g id="a_node6"><a xlink:href="frag__disp_8cc.html" target="_top" xlink:title="displace fragment geometry only dq changes to values of coordinates">
<polygon fill="none" stroke="black" points="65,-6.5 65,-25.5 135,-25.5 135,-6.5 65,-6.5"/>
<text text-anchor="middle" x="100" y="-13.5" font-family="Helvetica,sans-Serif" font-size="10.00">frag_disp.cc</text>
</a>
</g>
</g>
<!-- Node1&#45;&gt;Node6 -->
<g id="edge20" class="edge"><title>Node1&#45;&gt;Node6</title>
<path fill="none" stroke="midnightblue" d="M446.358,-121.633C381.971,-103.49 252.672,-66.5064 144,-32 137.692,-29.9972 130.911,-27.7384 124.607,-25.5931"/>
<polygon fill="midnightblue" stroke="midnightblue" points="445.547,-125.04 456.121,-124.38 447.443,-118.302 445.547,-125.04"/>
</g>
<!-- Node15 -->
<g id="node15" class="node"><title>Node15</title>
<g id="a_node15"><a xlink:href="opt__data_8cc.html" target="_top" xlink:title="OPT_DATA associated functions that do not do i/o.">
<polygon fill="none" stroke="black" points="1721,-6.5 1721,-25.5 1789,-25.5 1789,-6.5 1721,-6.5"/>
<text text-anchor="middle" x="1755" y="-13.5" font-family="Helvetica,sans-Serif" font-size="10.00">opt_data.cc</text>
</a>
</g>
</g>
<!-- Node1&#45;&gt;Node15 -->
<g id="edge21" class="edge"><title>Node1&#45;&gt;Node15</title>
<path fill="none" stroke="midnightblue" d="M528.256,-133.251C684.539,-133.435 1254.44,-127.139 1711,-32 1718.43,-30.4524 1726.33,-28.0189 1733.36,-25.5588"/>
<polygon fill="midnightblue" stroke="midnightblue" points="528.152,-129.751 518.144,-133.229 528.137,-136.751 528.152,-129.751"/>
</g>
<!-- Node3 -->
<g id="node3" class="node"><title>Node3</title>
<g id="a_node3"><a xlink:href="bend_8cc.html" target="_top" xlink:title="bend.cc">
<polygon fill="none" stroke="black" points="590.5,-6.5 590.5,-25.5 641.5,-25.5 641.5,-6.5 590.5,-6.5"/>
<text text-anchor="middle" x="616" y="-13.5" font-family="Helvetica,sans-Serif" font-size="10.00">bend.cc</text>
</a>
</g>
</g>
<!-- Node2&#45;&gt;Node3 -->
<g id="edge2" class="edge"><title>Node2&#45;&gt;Node3</title>
<path fill="none" stroke="midnightblue" d="M661.666,-61.1928C649.887,-49.7935 634.436,-34.8414 624.867,-25.5806"/>
<polygon fill="midnightblue" stroke="midnightblue" points="659.497,-63.9643 669.117,-68.4035 664.365,-58.9341 659.497,-63.9643"/>
</g>
<!-- Node2&#45;&gt;Node4 -->
<g id="edge3" class="edge"><title>Node2&#45;&gt;Node4</title>
<path fill="none" stroke="midnightblue" d="M639.666,-75.9972C522.027,-72.6415 167.407,-60.3786 56,-32 50.1454,-30.5087 44.0412,-28.0265 38.6978,-25.5063"/>
<polygon fill="midnightblue" stroke="midnightblue" points="639.882,-79.5045 649.976,-76.2856 640.078,-72.5072 639.882,-79.5045"/>
</g>
<!-- Node5 -->
<g id="node5" class="node"><title>Node5</title>
<g id="a_node5"><a xlink:href="frag__apply__frozen__constraints_8cc.html" target="_top" xlink:title="apply constraints specified by given strings">
<polygon fill="none" stroke="black" points="659.5,-6.5 659.5,-25.5 820.5,-25.5 820.5,-6.5 659.5,-6.5"/>
<text text-anchor="middle" x="740" y="-13.5" font-family="Helvetica,sans-Serif" font-size="10.00">frag_apply_frozen_constraints.cc</text>
</a>
</g>
</g>
<!-- Node2&#45;&gt;Node5 -->
<g id="edge4" class="edge"><title>Node2&#45;&gt;Node5</title>
<path fill="none" stroke="midnightblue" d="M694.334,-61.1928C706.113,-49.7935 721.564,-34.8414 731.133,-25.5806"/>
<polygon fill="midnightblue" stroke="midnightblue" points="691.635,-58.9341 686.883,-68.4035 696.503,-63.9643 691.635,-58.9341"/>
</g>
<!-- Node2&#45;&gt;Node6 -->
<g id="edge5" class="edge"><title>Node2&#45;&gt;Node6</title>
<path fill="none" stroke="midnightblue" d="M639.776,-76.964C551.478,-76.192 326.889,-70.2768 144,-32 136.575,-30.4459 128.67,-28.0107 121.639,-25.551"/>
<polygon fill="midnightblue" stroke="midnightblue" points="639.832,-80.4644 649.857,-77.0344 639.881,-73.4645 639.832,-80.4644"/>
</g>
<!-- Node7 -->
<g id="node7" class="node"><title>Node7</title>
<g id="a_node7"><a xlink:href="geom__gradients__io_8cc.html" target="_top" xlink:title="functions to read and write the geometry, the gradient and the Hessian">
<polygon fill="none" stroke="black" points="839,-6.5 839,-25.5 951,-25.5 951,-6.5 839,-6.5"/>
<text text-anchor="middle" x="895" y="-13.5" font-family="Helvetica,sans-Serif" font-size="10.00">geom_gradients_io.cc</text>
</a>
</g>
</g>
<!-- Node2&#45;&gt;Node7 -->
<g id="edge6" class="edge"><title>Node2&#45;&gt;Node7</title>
<path fill="none" stroke="midnightblue" d="M716.253,-66.4231C758.375,-54.7766 825.272,-36.2796 864.172,-25.5239"/>
<polygon fill="midnightblue" stroke="midnightblue" points="715.075,-63.1176 706.369,-69.156 716.94,-69.8644 715.075,-63.1176"/>
</g>
<!-- Node8 -->
<g id="node8" class="node"><title>Node8</title>
<g id="a_node8"><a xlink:href="interfrag__orient_8cc.html" target="_top" xlink:title="function moves the geometry of fragment B so that the interfragment coordinates have the given values...">
<polygon fill="none" stroke="black" points="969.5,-6.5 969.5,-25.5 1064.5,-25.5 1064.5,-6.5 969.5,-6.5"/>
<text text-anchor="middle" x="1017" y="-13.5" font-family="Helvetica,sans-Serif" font-size="10.00">interfrag_orient.cc</text>
</a>
</g>
</g>
<!-- Node2&#45;&gt;Node8 -->
<g id="edge7" class="edge"><title>Node2&#45;&gt;Node8</title>
<path fill="none" stroke="midnightblue" d="M716.421,-72.0984C770.901,-64.8698 873.589,-50.2176 960,-32 968.811,-30.1424 978.3,-27.7894 986.959,-25.5012"/>
<polygon fill="midnightblue" stroke="midnightblue" points="715.646,-68.6701 706.187,-73.444 716.558,-75.6104 715.646,-68.6701"/>
</g>
<!-- Node9 -->
<g id="node9" class="node"><title>Node9</title>
<g id="a_node9"><a xlink:href="linear__algebra_8cc.html" target="_top" xlink:title="linear algebra functions which call lapack and blas are in global namespace and preceded with opt...">
<polygon fill="none" stroke="black" points="1083,-6.5 1083,-25.5 1173,-25.5 1173,-6.5 1083,-6.5"/>
<text text-anchor="middle" x="1128" y="-13.5" font-family="Helvetica,sans-Serif" font-size="10.00">linear_algebra.cc</text>
</a>
</g>
</g>
<!-- Node2&#45;&gt;Node9 -->
<g id="edge8" class="edge"><title>Node2&#45;&gt;Node9</title>
<path fill="none" stroke="midnightblue" d="M716.749,-74.5589C787.854,-69.6433 943.737,-56.8389 1073,-32 1081.84,-30.3004 1091.35,-27.9137 1099.93,-25.5432"/>
<polygon fill="midnightblue" stroke="midnightblue" points="716.225,-71.0863 706.484,-75.2541 716.698,-78.0703 716.225,-71.0863"/>
</g>
<!-- Node10 -->
<g id="node10" class="node"><title>Node10</title>
<g id="a_node10"><a xlink:href="molecule__fragments_8cc.html" target="_top" xlink:title="functions to handle fragments">
<polygon fill="none" stroke="black" points="1191,-6.5 1191,-25.5 1309,-25.5 1309,-6.5 1191,-6.5"/>
<text text-anchor="middle" x="1250" y="-13.5" font-family="Helvetica,sans-Serif" font-size="10.00">molecule_fragments.cc</text>
</a>
</g>
</g>
<!-- Node2&#45;&gt;Node10 -->
<g id="edge9" class="edge"><title>Node2&#45;&gt;Node10</title>
<path fill="none" stroke="midnightblue" d="M716.149,-75.2646C800.536,-71.0611 1009.24,-58.6553 1182,-32 1192.87,-30.3225 1204.61,-27.9422 1215.22,-25.5708"/>
<polygon fill="midnightblue" stroke="midnightblue" points="715.834,-71.7758 706.017,-75.7594 716.176,-78.7674 715.834,-71.7758"/>
</g>
<!-- Node11 -->
<g id="node11" class="node"><title>Node11</title>
<g id="a_node11"><a xlink:href="molecule__irc__step_8cc.html" target="_top" xlink:title="molecule_irc_step.cc">
<polygon fill="none" stroke="black" points="1327.5,-6.5 1327.5,-25.5 1436.5,-25.5 1436.5,-6.5 1327.5,-6.5"/>
<text text-anchor="middle" x="1382" y="-13.5" font-family="Helvetica,sans-Serif" font-size="10.00">molecule_irc_step.cc</text>
</a>
</g>
</g>
<!-- Node2&#45;&gt;Node11 -->
<g id="edge10" class="edge"><title>Node2&#45;&gt;Node11</title>
<path fill="none" stroke="midnightblue" d="M716.451,-76.4366C816.274,-74.5121 1091.67,-66.255 1318,-32 1328.49,-30.4118 1339.81,-27.9979 1349.97,-25.5679"/>
<polygon fill="midnightblue" stroke="midnightblue" points="716.184,-72.9408 706.249,-76.6227 716.311,-79.9396 716.184,-72.9408"/>
</g>
<!-- Node12 -->
<g id="node12" class="node"><title>Node12</title>
<g id="a_node12"><a xlink:href="molecule__linesearch__step_8cc.html" target="_top" xlink:title="Generates geometries for a line&#45;search in internal coordinates. Currently, a static line search merel...">
<polygon fill="none" stroke="black" points="1454.5,-1 1454.5,-31 1559.5,-31 1559.5,-1 1454.5,-1"/>
<text text-anchor="start" x="1462.5" y="-19" font-family="Helvetica,sans-Serif" font-size="10.00">molecule_linesearch</text>
<text text-anchor="middle" x="1507" y="-8" font-family="Helvetica,sans-Serif" font-size="10.00">_step.cc</text>
</a>
</g>
</g>
<!-- Node2&#45;&gt;Node12 -->
<g id="edge11" class="edge"><title>Node2&#45;&gt;Node12</title>
<path fill="none" stroke="midnightblue" d="M716.206,-77.1641C828.604,-77.1322 1167.66,-73.3459 1445,-32 1448.07,-31.5428 1451.2,-31.0061 1454.36,-30.4129"/>
<polygon fill="midnightblue" stroke="midnightblue" points="716.049,-73.6641 706.046,-77.1567 716.044,-80.6641 716.049,-73.6641"/>
</g>
<!-- Node13 -->
<g id="node13" class="node"><title>Node13</title>
<g id="a_node13"><a xlink:href="molecule__read__intcos_8cc.html" target="_top" xlink:title="read internal coordinates from file">
<polygon fill="none" stroke="black" points="1577.5,-6.5 1577.5,-25.5 1702.5,-25.5 1702.5,-6.5 1577.5,-6.5"/>
<text text-anchor="middle" x="1640" y="-13.5" font-family="Helvetica,sans-Serif" font-size="10.00">molecule_read_intcos.cc</text>
</a>
</g>
</g>
<!-- Node2&#45;&gt;Node13 -->
<g id="edge12" class="edge"><title>Node2&#45;&gt;Node13</title>
<path fill="none" stroke="midnightblue" d="M716.31,-77.1761C840.102,-77.2948 1240.35,-74.1553 1568,-32 1579.9,-30.4684 1592.77,-28.0392 1604.29,-25.578"/>
<polygon fill="midnightblue" stroke="midnightblue" points="716.205,-73.676 706.199,-77.1583 716.193,-80.676 716.205,-73.676"/>
</g>
<!-- Node14 -->
<g id="node14" class="node"><title>Node14</title>
<g id="a_node14"><a xlink:href="molecule__sd__step_8cc.html" target="_top" xlink:title="steepest&#45;descent step for molecule">
<polygon fill="none" stroke="black" points="153.5,-6.5 153.5,-25.5 262.5,-25.5 262.5,-6.5 153.5,-6.5"/>
<text text-anchor="middle" x="208" y="-13.5" font-family="Helvetica,sans-Serif" font-size="10.00">molecule_sd_step.cc</text>
</a>
</g>
</g>
<!-- Node2&#45;&gt;Node14 -->
<g id="edge13" class="edge"><title>Node2&#45;&gt;Node14</title>
<path fill="none" stroke="midnightblue" d="M639.785,-74.3003C567.563,-68.8588 406.23,-55.0835 272,-32 261.878,-30.2593 250.962,-27.8885 241.063,-25.5459"/>
<polygon fill="midnightblue" stroke="midnightblue" points="639.549,-77.7923 649.781,-75.0428 640.067,-70.8115 639.549,-77.7923"/>
</g>
<!-- Node2&#45;&gt;Node15 -->
<g id="edge14" class="edge"><title>Node2&#45;&gt;Node15</title>
<path fill="none" stroke="midnightblue" d="M716.11,-76.7893C878.66,-75.6679 1514.64,-68.9587 1711,-32 1718.61,-30.5669 1726.71,-28.0992 1733.84,-25.5745"/>
<polygon fill="midnightblue" stroke="midnightblue" points="716.074,-73.2894 706.097,-76.8554 716.12,-80.2892 716.074,-73.2894"/>
</g>
<!-- Node16 -->
<g id="node16" class="node"><title>Node16</title>
<g id="a_node16"><a xlink:href="optking_8cc.html" target="_top" xlink:title="optking.cc">
<polygon fill="none" stroke="black" points="281,-6.5 281,-25.5 343,-25.5 343,-6.5 281,-6.5"/>
<text text-anchor="middle" x="312" y="-13.5" font-family="Helvetica,sans-Serif" font-size="10.00">optking.cc</text>
</a>
</g>
</g>
<!-- Node2&#45;&gt;Node16 -->
<g id="edge15" class="edge"><title>Node2&#45;&gt;Node16</title>
<path fill="none" stroke="midnightblue" d="M639.665,-74.472C578.189,-69.8042 454.097,-57.849 352,-32 345.385,-30.3253 338.359,-27.917 332.071,-25.5187"/>
<polygon fill="midnightblue" stroke="midnightblue" points="639.459,-77.9663 649.689,-75.2103 639.973,-70.9852 639.459,-77.9663"/>
</g>
<!-- Node17 -->
<g id="node17" class="node"><title>Node17</title>
<g id="a_node17"><a xlink:href="set__params_8cc.html" target="_top" xlink:title="set optimization parameters">
<polygon fill="none" stroke="black" points="361.5,-6.5 361.5,-25.5 442.5,-25.5 442.5,-6.5 361.5,-6.5"/>
<text text-anchor="middle" x="402" y="-13.5" font-family="Helvetica,sans-Serif" font-size="10.00">set_params.cc</text>
</a>
</g>
</g>
<!-- Node2&#45;&gt;Node17 -->
<g id="edge16" class="edge"><title>Node2&#45;&gt;Node17</title>
<path fill="none" stroke="midnightblue" d="M639.861,-70.6575C594.544,-62.8413 516.789,-48.5453 451,-32 443.494,-30.1122 435.43,-27.7751 428.055,-25.5122"/>
<polygon fill="midnightblue" stroke="midnightblue" points="639.392,-74.1281 649.839,-72.3641 640.572,-67.2283 639.392,-74.1281"/>
</g>
<!-- Node18 -->
<g id="node18" class="node"><title>Node18</title>
<g id="a_node18"><a xlink:href="tors_8cc.html" target="_top" xlink:title="tors class">
<polygon fill="none" stroke="black" points="460.5,-6.5 460.5,-25.5 507.5,-25.5 507.5,-6.5 460.5,-6.5"/>
<text text-anchor="middle" x="484" y="-13.5" font-family="Helvetica,sans-Serif" font-size="10.00">tors.cc</text>
</a>
</g>
</g>
<!-- Node2&#45;&gt;Node18 -->
<g id="edge17" class="edge"><title>Node2&#45;&gt;Node18</title>
<path fill="none" stroke="midnightblue" d="M639.837,-68.0976C606.881,-59.9938 558.212,-47.0244 517,-32 511.915,-30.1463 506.523,-27.8452 501.603,-25.6066"/>
<polygon fill="midnightblue" stroke="midnightblue" points="639.411,-71.5959 649.955,-70.5541 641.063,-64.7936 639.411,-71.5959"/>
</g>
<!-- Node19 -->
<g id="node19" class="node"><title>Node19</title>
<g id="a_node19"><a xlink:href="v3d_8cc.html" target="_top" xlink:title="v3d functions">
<polygon fill="none" stroke="black" points="526,-6.5 526,-25.5 572,-25.5 572,-6.5 526,-6.5"/>
<text text-anchor="middle" x="549" y="-13.5" font-family="Helvetica,sans-Serif" font-size="10.00">v3d.cc</text>
</a>
</g>
</g>
<!-- Node2&#45;&gt;Node19 -->
<g id="edge18" class="edge"><title>Node2&#45;&gt;Node19</title>
<path fill="none" stroke="midnightblue" d="M650.218,-64.1467C630.815,-55.1618 604.317,-42.8733 581,-32 576.551,-29.9255 571.758,-27.6827 567.27,-25.5794"/>
<polygon fill="midnightblue" stroke="midnightblue" points="648.849,-67.3701 659.394,-68.3951 651.79,-61.0178 648.849,-67.3701"/>
</g>
</g>
</svg>
