<?xml version="1.0" encoding="UTF-8" standalone="no"?>
<!DOCTYPE svg PUBLIC "-//W3C//DTD SVG 1.1//EN"
 "http://www.w3.org/Graphics/SVG/1.1/DTD/svg11.dtd">
<!-- Generated by graphviz version 2.30.1 (20140110.0959)
 -->
<!-- Title: ortho_Rs.cc Pages: 1 -->
<svg width="484pt" height="196pt"
 viewBox="0.00 0.00 484.04 196.00" xmlns="http://www.w3.org/2000/svg" xmlns:xlink="http://www.w3.org/1999/xlink">
<g id="graph0" class="graph" transform="scale(1 1) rotate(0) translate(4 192)">
<title>ortho_Rs.cc</title>
<!-- Node1 -->
<g id="node1" class="node"><title>Node1</title>
<polygon fill="#bfbfbf" stroke="black" points="242.036,-168.5 242.036,-187.5 312.036,-187.5 312.036,-168.5 242.036,-168.5"/>
<text text-anchor="middle" x="277.036" y="-175.5" font-family="Helvetica,sans-Serif" font-size="10.00">ortho_Rs.cc</text>
</g>
<!-- Node2 -->
<g id="node2" class="node"><title>Node2</title>
<polygon fill="none" stroke="#bfbfbf" points="44.5361,-0.5 44.5361,-19.5 87.5361,-19.5 87.5361,-0.5 44.5361,-0.5"/>
<text text-anchor="middle" x="66.0361" y="-7.5" font-family="Helvetica,sans-Serif" font-size="10.00">cstdio</text>
</g>
<!-- Node1&#45;&gt;Node2 -->
<g id="edge1" class="edge"><title>Node1&#45;&gt;Node2</title>
<path fill="none" stroke="midnightblue" d="M241.94,-175.974C181.405,-172.08 58.6127,-154.383 4.03613,-76 -9.67006,-56.3151 15.4742,-36.8206 37.7327,-24.3935"/>
<polygon fill="midnightblue" stroke="midnightblue" points="39.4524,-27.4434 46.6593,-19.6774 36.1825,-21.2541 39.4524,-27.4434"/>
</g>
<!-- Node3 -->
<g id="node3" class="node"><title>Node3</title>
<polygon fill="none" stroke="#bfbfbf" points="280.036,-112.5 280.036,-131.5 324.036,-131.5 324.036,-112.5 280.036,-112.5"/>
<text text-anchor="middle" x="302.036" y="-119.5" font-family="Helvetica,sans-Serif" font-size="10.00">cmath</text>
</g>
<!-- Node1&#45;&gt;Node3 -->
<g id="edge2" class="edge"><title>Node1&#45;&gt;Node3</title>
<path fill="none" stroke="midnightblue" d="M281.164,-168.083C284.55,-160.77 289.452,-150.181 293.655,-141.103"/>
<polygon fill="midnightblue" stroke="midnightblue" points="296.96,-142.296 297.985,-131.751 290.607,-139.355 296.96,-142.296"/>
</g>
<!-- Node4 -->
<g id="node4" class="node"><title>Node4</title>
<g id="a_node4"><a xlink:href="lib_2libdpd_2dpd_8h.html" target="_top" xlink:title="Enter brief description of file here.">
<polygon fill="none" stroke="black" points="257.536,-56.5 257.536,-75.5 326.536,-75.5 326.536,-56.5 257.536,-56.5"/>
<text text-anchor="middle" x="292.036" y="-63.5" font-family="Helvetica,sans-Serif" font-size="10.00">libdpd/dpd.h</text>
</a>
</g>
</g>
<!-- Node1&#45;&gt;Node4 -->
<g id="edge3" class="edge"><title>Node1&#45;&gt;Node4</title>
<path fill="none" stroke="midnightblue" d="M274.596,-168.481C271.379,-155.959 266.618,-131.915 271.036,-112 273.16,-102.426 277.543,-92.4756 281.757,-84.3735"/>
<polygon fill="midnightblue" stroke="midnightblue" points="284.858,-85.9989 286.652,-75.557 278.738,-82.6012 284.858,-85.9989"/>
</g>
<!-- Node9 -->
<g id="node9" class="node"><title>Node9</title>
<g id="a_node9"><a xlink:href="cclambda_2MOInfo_8h.html" target="_top" xlink:title="Enter brief description of file here.">
<polygon fill="none" stroke="black" points="342.536,-112.5 342.536,-131.5 399.536,-131.5 399.536,-112.5 342.536,-112.5"/>
<text text-anchor="middle" x="371.036" y="-119.5" font-family="Helvetica,sans-Serif" font-size="10.00">MOInfo.h</text>
</a>
</g>
</g>
<!-- Node1&#45;&gt;Node9 -->
<g id="edge9" class="edge"><title>Node1&#45;&gt;Node9</title>
<path fill="none" stroke="midnightblue" d="M292.139,-168.324C306.939,-159.822 329.73,-146.729 347.018,-136.797"/>
<polygon fill="midnightblue" stroke="midnightblue" points="349.043,-139.671 355.971,-131.655 345.556,-133.601 349.043,-139.671"/>
</g>
<!-- Node10 -->
<g id="node10" class="node"><title>Node10</title>
<g id="a_node10"><a xlink:href="cclambda_2Params_8h.html" target="_top" xlink:title="Enter brief description of file here.">
<polygon fill="none" stroke="black" points="417.536,-112.5 417.536,-131.5 476.536,-131.5 476.536,-112.5 417.536,-112.5"/>
<text text-anchor="middle" x="447.036" y="-119.5" font-family="Helvetica,sans-Serif" font-size="10.00">Params.h</text>
</a>
</g>
</g>
<!-- Node1&#45;&gt;Node10 -->
<g id="edge10" class="edge"><title>Node1&#45;&gt;Node10</title>
<path fill="none" stroke="midnightblue" d="M303.973,-168.444C332.697,-159.32 378.365,-144.813 410.357,-134.651"/>
<polygon fill="midnightblue" stroke="midnightblue" points="411.754,-137.88 420.225,-131.516 409.635,-131.208 411.754,-137.88"/>
</g>
<!-- Node12 -->
<g id="node12" class="node"><title>Node12</title>
<g id="a_node12"><a xlink:href="cclambda_2globals_8h.html" target="_top" xlink:title="Enter brief description of file here.">
<polygon fill="none" stroke="black" points="168.036,-112.5 168.036,-131.5 224.036,-131.5 224.036,-112.5 168.036,-112.5"/>
<text text-anchor="middle" x="196.036" y="-119.5" font-family="Helvetica,sans-Serif" font-size="10.00">globals.h</text>
</a>
</g>
</g>
<!-- Node1&#45;&gt;Node12 -->
<g id="edge12" class="edge"><title>Node1&#45;&gt;Node12</title>
<path fill="none" stroke="midnightblue" d="M264.022,-168.324C251.505,-159.979 232.354,-147.212 217.565,-137.352"/>
<polygon fill="midnightblue" stroke="midnightblue" points="219.28,-134.289 209.018,-131.655 215.397,-140.114 219.28,-134.289"/>
</g>
<!-- Node4&#45;&gt;Node2 -->
<g id="edge4" class="edge"><title>Node4&#45;&gt;Node2</title>
<path fill="none" stroke="midnightblue" d="M257.536,-56.8389C219.638,-47.8615 156.981,-32.9829 103.036,-20 101.156,-19.5475 99.2227,-19.081 97.2726,-18.6095"/>
<polygon fill="midnightblue" stroke="midnightblue" points="98.0965,-15.2079 87.5533,-16.2526 96.4469,-22.0107 98.0965,-15.2079"/>
</g>
<!-- Node5 -->
<g id="node5" class="node"><title>Node5</title>
<g id="a_node5"><a xlink:href="psifiles_8h_source.html" target="_top" xlink:title="psifiles.h">
<polygon fill="none" stroke="black" points="212.036,-0.5 212.036,-19.5 268.036,-19.5 268.036,-0.5 212.036,-0.5"/>
<text text-anchor="middle" x="240.036" y="-7.5" font-family="Helvetica,sans-Serif" font-size="10.00">psifiles.h</text>
</a>
</g>
</g>
<!-- Node4&#45;&gt;Node5 -->
<g id="edge5" class="edge"><title>Node4&#45;&gt;Node5</title>
<path fill="none" stroke="midnightblue" d="M283.449,-56.083C275.877,-48.2195 264.658,-36.5688 255.522,-27.0813"/>
<polygon fill="midnightblue" stroke="midnightblue" points="257.921,-24.5266 248.463,-19.7511 252.878,-29.3821 257.921,-24.5266"/>
</g>
<!-- Node6 -->
<g id="node6" class="node"><title>Node6</title>
<g id="a_node6"><a xlink:href="libpsio_2config_8h_source.html" target="_top" xlink:title="libpsio/config.h">
<polygon fill="none" stroke="black" points="112.036,-0.5 112.036,-19.5 194.036,-19.5 194.036,-0.5 112.036,-0.5"/>
<text text-anchor="middle" x="153.036" y="-7.5" font-family="Helvetica,sans-Serif" font-size="10.00">libpsio/config.h</text>
</a>
</g>
</g>
<!-- Node4&#45;&gt;Node6 -->
<g id="edge6" class="edge"><title>Node4&#45;&gt;Node6</title>
<path fill="none" stroke="midnightblue" d="M270.011,-56.4435C246.932,-47.4776 210.474,-33.314 184.395,-23.1827"/>
<polygon fill="midnightblue" stroke="midnightblue" points="185.547,-19.8753 174.958,-19.5164 183.012,-26.4002 185.547,-19.8753"/>
</g>
<!-- Node7 -->
<g id="node7" class="node"><title>Node7</title>
<polygon fill="none" stroke="#bfbfbf" points="348.036,-0.5 348.036,-19.5 456.036,-19.5 456.036,-0.5 348.036,-0.5"/>
<text text-anchor="middle" x="402.036" y="-7.5" font-family="Helvetica,sans-Serif" font-size="10.00">boost/shared_ptr.hpp</text>
</g>
<!-- Node4&#45;&gt;Node7 -->
<g id="edge7" class="edge"><title>Node4&#45;&gt;Node7</title>
<path fill="none" stroke="midnightblue" d="M309.71,-56.324C327.43,-47.6247 354.939,-34.1202 375.325,-24.113"/>
<polygon fill="midnightblue" stroke="midnightblue" points="376.972,-27.2031 384.407,-19.6545 373.888,-20.9195 376.972,-27.2031"/>
</g>
<!-- Node8 -->
<g id="node8" class="node"><title>Node8</title>
<polygon fill="none" stroke="#bfbfbf" points="286.036,-0.5 286.036,-19.5 330.036,-19.5 330.036,-0.5 286.036,-0.5"/>
<text text-anchor="middle" x="308.036" y="-7.5" font-family="Helvetica,sans-Serif" font-size="10.00">vector</text>
</g>
<!-- Node4&#45;&gt;Node8 -->
<g id="edge8" class="edge"><title>Node4&#45;&gt;Node8</title>
<path fill="none" stroke="midnightblue" d="M294.678,-56.083C296.822,-48.8486 299.915,-38.4087 302.585,-29.3968"/>
<polygon fill="midnightblue" stroke="midnightblue" points="305.958,-30.3334 305.443,-19.7511 299.246,-28.3447 305.958,-30.3334"/>
</g>
<!-- Node11 -->
<g id="node11" class="node"><title>Node11</title>
<polygon fill="none" stroke="#bfbfbf" points="426.536,-56.5 426.536,-75.5 467.536,-75.5 467.536,-56.5 426.536,-56.5"/>
<text text-anchor="middle" x="447.036" y="-63.5" font-family="Helvetica,sans-Serif" font-size="10.00">string</text>
</g>
<!-- Node10&#45;&gt;Node11 -->
<g id="edge11" class="edge"><title>Node10&#45;&gt;Node11</title>
<path fill="none" stroke="midnightblue" d="M447.036,-112.083C447.036,-105.006 447.036,-94.8611 447.036,-85.9865"/>
<polygon fill="midnightblue" stroke="midnightblue" points="450.536,-85.751 447.036,-75.7511 443.536,-85.7511 450.536,-85.751"/>
</g>
<!-- Node12&#45;&gt;Node5 -->
<g id="edge13" class="edge"><title>Node12&#45;&gt;Node5</title>
<path fill="none" stroke="midnightblue" d="M199.489,-112.368C206.654,-94.4563 223.267,-52.9233 232.857,-28.9482"/>
<polygon fill="midnightblue" stroke="midnightblue" points="236.135,-30.1761 236.6,-19.5914 229.636,-27.5763 236.135,-30.1761"/>
</g>
<!-- Node12&#45;&gt;Node4 -->
<g id="edge14" class="edge"><title>Node12&#45;&gt;Node4</title>
<path fill="none" stroke="midnightblue" d="M211.46,-112.324C226.576,-103.822 249.852,-90.7288 267.507,-80.7975"/>
<polygon fill="midnightblue" stroke="midnightblue" points="269.651,-83.6077 276.65,-75.6545 266.219,-77.5066 269.651,-83.6077"/>
</g>
<!-- Node13 -->
<g id="node13" class="node"><title>Node13</title>
<g id="a_node13"><a xlink:href="libciomr_8h_source.html" target="_top" xlink:title="libciomr/libciomr.h">
<polygon fill="none" stroke="black" points="13.5361,-56.5 13.5361,-75.5 108.536,-75.5 108.536,-56.5 13.5361,-56.5"/>
<text text-anchor="middle" x="61.0361" y="-63.5" font-family="Helvetica,sans-Serif" font-size="10.00">libciomr/libciomr.h</text>
</a>
</g>
</g>
<!-- Node12&#45;&gt;Node13 -->
<g id="edge15" class="edge"><title>Node12&#45;&gt;Node13</title>
<path fill="none" stroke="midnightblue" d="M174.645,-112.444C152.329,-103.517 117.133,-89.4387 91.8282,-79.3168"/>
<polygon fill="midnightblue" stroke="midnightblue" points="92.9119,-75.9807 82.3272,-75.5164 90.3121,-82.4801 92.9119,-75.9807"/>
</g>
<!-- Node14 -->
<g id="node14" class="node"><title>Node14</title>
<g id="a_node14"><a xlink:href="psio_8h_source.html" target="_top" xlink:title="libpsio/psio.h">
<polygon fill="none" stroke="black" points="127.036,-56.5 127.036,-75.5 201.036,-75.5 201.036,-56.5 127.036,-56.5"/>
<text text-anchor="middle" x="164.036" y="-63.5" font-family="Helvetica,sans-Serif" font-size="10.00">libpsio/psio.h</text>
</a>
</g>
</g>
<!-- Node12&#45;&gt;Node14 -->
<g id="edge17" class="edge"><title>Node12&#45;&gt;Node14</title>
<path fill="none" stroke="midnightblue" d="M190.752,-112.083C186.325,-104.613 179.873,-93.7244 174.418,-84.5199"/>
<polygon fill="midnightblue" stroke="midnightblue" points="177.331,-82.5697 169.222,-75.7511 171.309,-86.1383 177.331,-82.5697"/>
</g>
<!-- Node13&#45;&gt;Node2 -->
<g id="edge16" class="edge"><title>Node13&#45;&gt;Node2</title>
<path fill="none" stroke="midnightblue" d="M61.8618,-56.083C62.5171,-49.0059 63.4564,-38.8611 64.2781,-29.9865"/>
<polygon fill="midnightblue" stroke="midnightblue" points="67.7889,-30.0312 65.2258,-19.7511 60.8187,-29.3858 67.7889,-30.0312"/>
</g>
<!-- Node14&#45;&gt;Node2 -->
<g id="edge18" class="edge"><title>Node14&#45;&gt;Node2</title>
<path fill="none" stroke="midnightblue" d="M148.291,-56.324C132.717,-47.7428 108.659,-34.486 90.5768,-24.5224"/>
<polygon fill="midnightblue" stroke="midnightblue" points="92.19,-21.4152 81.7424,-19.6545 88.8117,-27.546 92.19,-21.4152"/>
</g>
<!-- Node14&#45;&gt;Node6 -->
<g id="edge19" class="edge"><title>Node14&#45;&gt;Node6</title>
<path fill="none" stroke="midnightblue" d="M162.22,-56.083C160.762,-48.9272 158.666,-38.6353 156.844,-29.6911"/>
<polygon fill="midnightblue" stroke="midnightblue" points="160.244,-28.8512 154.819,-19.7511 153.385,-30.2485 160.244,-28.8512"/>
</g>
</g>
</svg>
