<?xml version="1.0" encoding="UTF-8" standalone="no"?>
<!DOCTYPE svg PUBLIC "-//W3C//DTD SVG 1.1//EN"
 "http://www.w3.org/Graphics/SVG/1.1/DTD/svg11.dtd">
<!-- Generated by graphviz version 2.30.1 (20140110.0959)
 -->
<!-- Title: override_occ.cc Pages: 1 -->
<svg width="725pt" height="140pt"
 viewBox="0.00 0.00 725.00 140.00" xmlns="http://www.w3.org/2000/svg" xmlns:xlink="http://www.w3.org/1999/xlink">
<g id="graph0" class="graph" transform="scale(1 1) rotate(0) translate(4 136)">
<title>override_occ.cc</title>
<!-- Node1 -->
<g id="node1" class="node"><title>Node1</title>
<polygon fill="#bfbfbf" stroke="black" points="213,-112.5 213,-131.5 299,-131.5 299,-112.5 213,-112.5"/>
<text text-anchor="middle" x="256" y="-119.5" font-family="Helvetica,sans-Serif" font-size="10.00">override_occ.cc</text>
</g>
<!-- Node2 -->
<g id="node2" class="node"><title>Node2</title>
<polygon fill="none" stroke="#bfbfbf" points="0,-56.5 0,-75.5 46,-75.5 46,-56.5 0,-56.5"/>
<text text-anchor="middle" x="23" y="-63.5" font-family="Helvetica,sans-Serif" font-size="10.00">stdio.h</text>
</g>
<!-- Node1&#45;&gt;Node2 -->
<g id="edge1" class="edge"><title>Node1&#45;&gt;Node2</title>
<path fill="none" stroke="midnightblue" d="M214.656,-112.425C175.98,-104.252 116.392,-91.2718 55.7679,-76.0926"/>
<polygon fill="midnightblue" stroke="midnightblue" points="56.5846,-72.689 46.0323,-73.6379 54.8731,-79.4766 56.5846,-72.689"/>
</g>
<!-- Node3 -->
<g id="node3" class="node"><title>Node3</title>
<polygon fill="none" stroke="#bfbfbf" points="64.5,-56.5 64.5,-75.5 109.5,-75.5 109.5,-56.5 64.5,-56.5"/>
<text text-anchor="middle" x="87" y="-63.5" font-family="Helvetica,sans-Serif" font-size="10.00">cstdlib</text>
</g>
<!-- Node1&#45;&gt;Node3 -->
<g id="edge2" class="edge"><title>Node1&#45;&gt;Node3</title>
<path fill="none" stroke="midnightblue" d="M229.221,-112.444C199.407,-102.917 151.229,-87.5228 119.336,-77.3321"/>
<polygon fill="midnightblue" stroke="midnightblue" points="120.188,-73.9301 109.597,-74.2203 118.057,-80.598 120.188,-73.9301"/>
</g>
<!-- Node4 -->
<g id="node4" class="node"><title>Node4</title>
<g id="a_node4"><a xlink:href="psifiles_8h_source.html" target="_top" xlink:title="psifiles.h">
<polygon fill="none" stroke="black" points="128,-56.5 128,-75.5 184,-75.5 184,-56.5 128,-56.5"/>
<text text-anchor="middle" x="156" y="-63.5" font-family="Helvetica,sans-Serif" font-size="10.00">psifiles.h</text>
</a>
</g>
</g>
<!-- Node1&#45;&gt;Node4 -->
<g id="edge3" class="edge"><title>Node1&#45;&gt;Node4</title>
<path fill="none" stroke="midnightblue" d="M239.933,-112.324C224.042,-103.743 199.493,-90.486 181.042,-80.5224"/>
<polygon fill="midnightblue" stroke="midnightblue" points="182.489,-77.3264 172.027,-75.6545 179.163,-83.4857 182.489,-77.3264"/>
</g>
<!-- Node5 -->
<g id="node5" class="node"><title>Node5</title>
<polygon fill="none" stroke="#bfbfbf" points="202,-56.5 202,-75.5 310,-75.5 310,-56.5 202,-56.5"/>
<text text-anchor="middle" x="256" y="-63.5" font-family="Helvetica,sans-Serif" font-size="10.00">boost/shared_ptr.hpp</text>
</g>
<!-- Node1&#45;&gt;Node5 -->
<g id="edge4" class="edge"><title>Node1&#45;&gt;Node5</title>
<path fill="none" stroke="midnightblue" d="M256,-112.083C256,-105.006 256,-94.8611 256,-85.9865"/>
<polygon fill="midnightblue" stroke="midnightblue" points="259.5,-85.751 256,-75.7511 252.5,-85.7511 259.5,-85.751"/>
</g>
<!-- Node6 -->
<g id="node6" class="node"><title>Node6</title>
<g id="a_node6"><a xlink:href="psio_8hpp_source.html" target="_top" xlink:title="libpsio/psio.hpp">
<polygon fill="none" stroke="black" points="328,-56.5 328,-75.5 412,-75.5 412,-56.5 328,-56.5"/>
<text text-anchor="middle" x="370" y="-63.5" font-family="Helvetica,sans-Serif" font-size="10.00">libpsio/psio.hpp</text>
</a>
</g>
</g>
<!-- Node1&#45;&gt;Node6 -->
<g id="edge5" class="edge"><title>Node1&#45;&gt;Node6</title>
<path fill="none" stroke="midnightblue" d="M274.064,-112.444C292.575,-103.675 321.581,-89.9355 342.855,-79.8579"/>
<polygon fill="midnightblue" stroke="midnightblue" points="344.482,-82.9604 352.021,-75.5164 341.485,-76.6343 344.482,-82.9604"/>
</g>
<!-- Node12 -->
<g id="node12" class="node"><title>Node12</title>
<g id="a_node12"><a xlink:href="chkpt_8h_source.html" target="_top" xlink:title="libchkpt/chkpt.h">
<polygon fill="none" stroke="black" points="430,-56.5 430,-75.5 516,-75.5 516,-56.5 430,-56.5"/>
<text text-anchor="middle" x="473" y="-63.5" font-family="Helvetica,sans-Serif" font-size="10.00">libchkpt/chkpt.h</text>
</a>
</g>
</g>
<!-- Node1&#45;&gt;Node12 -->
<g id="edge11" class="edge"><title>Node1&#45;&gt;Node12</title>
<path fill="none" stroke="midnightblue" d="M290.384,-112.444C327.922,-103.102 388.131,-88.1194 429.067,-77.9326"/>
<polygon fill="midnightblue" stroke="midnightblue" points="429.918,-81.3278 438.777,-75.5164 428.227,-74.5349 429.918,-81.3278"/>
</g>
<!-- Node13 -->
<g id="node13" class="node"><title>Node13</title>
<g id="a_node13"><a xlink:href="chkpt_8hpp_source.html" target="_top" xlink:title="libchkpt/chkpt.hpp">
<polygon fill="none" stroke="black" points="550,-56.5 550,-75.5 646,-75.5 646,-56.5 550,-56.5"/>
<text text-anchor="middle" x="598" y="-63.5" font-family="Helvetica,sans-Serif" font-size="10.00">libchkpt/chkpt.hpp</text>
</a>
</g>
</g>
<!-- Node1&#45;&gt;Node13 -->
<g id="edge12" class="edge"><title>Node1&#45;&gt;Node13</title>
<path fill="none" stroke="midnightblue" d="M299.315,-114.161C360.263,-104.537 471.493,-86.9749 539.668,-76.2103"/>
<polygon fill="midnightblue" stroke="midnightblue" points="540.482,-79.6252 549.814,-74.6083 539.391,-72.7108 540.482,-79.6252"/>
</g>
<!-- Node7 -->
<g id="node7" class="node"><title>Node7</title>
<polygon fill="none" stroke="#bfbfbf" points="502.5,-0.5 502.5,-19.5 543.5,-19.5 543.5,-0.5 502.5,-0.5"/>
<text text-anchor="middle" x="523" y="-7.5" font-family="Helvetica,sans-Serif" font-size="10.00">string</text>
</g>
<!-- Node6&#45;&gt;Node7 -->
<g id="edge6" class="edge"><title>Node6&#45;&gt;Node7</title>
<path fill="none" stroke="midnightblue" d="M394.243,-56.4435C420.926,-47.0262 463.855,-31.8746 492.728,-21.6842"/>
<polygon fill="midnightblue" stroke="midnightblue" points="494.04,-24.9329 502.305,-18.3042 491.71,-18.332 494.04,-24.9329"/>
</g>
<!-- Node8 -->
<g id="node8" class="node"><title>Node8</title>
<polygon fill="none" stroke="#bfbfbf" points="238.5,-0.5 238.5,-19.5 273.5,-19.5 273.5,-0.5 238.5,-0.5"/>
<text text-anchor="middle" x="256" y="-7.5" font-family="Helvetica,sans-Serif" font-size="10.00">map</text>
</g>
<!-- Node6&#45;&gt;Node8 -->
<g id="edge7" class="edge"><title>Node6&#45;&gt;Node8</title>
<path fill="none" stroke="midnightblue" d="M351.936,-56.4435C333.316,-47.6235 304.078,-33.7736 282.77,-23.6805"/>
<polygon fill="midnightblue" stroke="midnightblue" points="284.14,-20.4568 273.605,-19.339 281.144,-26.783 284.14,-20.4568"/>
</g>
<!-- Node9 -->
<g id="node9" class="node"><title>Node9</title>
<polygon fill="none" stroke="#bfbfbf" points="292,-0.5 292,-19.5 322,-19.5 322,-0.5 292,-0.5"/>
<text text-anchor="middle" x="307" y="-7.5" font-family="Helvetica,sans-Serif" font-size="10.00">set</text>
</g>
<!-- Node6&#45;&gt;Node9 -->
<g id="edge8" class="edge"><title>Node6&#45;&gt;Node9</title>
<path fill="none" stroke="midnightblue" d="M359.878,-56.324C350.474,-48.2631 336.256,-36.0765 324.931,-26.3695"/>
<polygon fill="midnightblue" stroke="midnightblue" points="327.177,-23.6844 317.306,-19.8339 322.621,-28.9993 327.177,-23.6844"/>
</g>
<!-- Node10 -->
<g id="node10" class="node"><title>Node10</title>
<polygon fill="none" stroke="#bfbfbf" points="340.5,-0.5 340.5,-19.5 383.5,-19.5 383.5,-0.5 340.5,-0.5"/>
<text text-anchor="middle" x="362" y="-7.5" font-family="Helvetica,sans-Serif" font-size="10.00">queue</text>
</g>
<!-- Node6&#45;&gt;Node10 -->
<g id="edge9" class="edge"><title>Node6&#45;&gt;Node10</title>
<path fill="none" stroke="midnightblue" d="M368.679,-56.083C367.619,-48.9272 366.094,-38.6353 364.769,-29.6911"/>
<polygon fill="midnightblue" stroke="midnightblue" points="368.224,-29.1302 363.296,-19.7511 361.3,-30.1561 368.224,-29.1302"/>
</g>
<!-- Node11 -->
<g id="node11" class="node"><title>Node11</title>
<g id="a_node11"><a xlink:href="libpsio_2config_8h_source.html" target="_top" xlink:title="libpsio/config.h">
<polygon fill="none" stroke="black" points="402,-0.5 402,-19.5 484,-19.5 484,-0.5 402,-0.5"/>
<text text-anchor="middle" x="443" y="-7.5" font-family="Helvetica,sans-Serif" font-size="10.00">libpsio/config.h</text>
</a>
</g>
</g>
<!-- Node6&#45;&gt;Node11 -->
<g id="edge10" class="edge"><title>Node6&#45;&gt;Node11</title>
<path fill="none" stroke="midnightblue" d="M381.729,-56.324C392.837,-48.1066 409.742,-35.6017 422.983,-25.8069"/>
<polygon fill="midnightblue" stroke="midnightblue" points="425.1,-28.5948 431.058,-19.8339 420.937,-22.9671 425.1,-28.5948"/>
</g>
<!-- Node14 -->
<g id="node14" class="node"><title>Node14</title>
<g id="a_node14"><a xlink:href="libchkpt_2config_8h_source.html" target="_top" xlink:title="libchkpt/config.h">
<polygon fill="none" stroke="black" points="562,-0.5 562,-19.5 650,-19.5 650,-0.5 562,-0.5"/>
<text text-anchor="middle" x="606" y="-7.5" font-family="Helvetica,sans-Serif" font-size="10.00">libchkpt/config.h</text>
</a>
</g>
</g>
<!-- Node13&#45;&gt;Node14 -->
<g id="edge13" class="edge"><title>Node13&#45;&gt;Node14</title>
<path fill="none" stroke="midnightblue" d="M599.321,-56.083C600.381,-48.9272 601.906,-38.6353 603.231,-29.6911"/>
<polygon fill="midnightblue" stroke="midnightblue" points="606.7,-30.1561 604.704,-19.7511 599.776,-29.1302 606.7,-30.1561"/>
</g>
<!-- Node13&#45;&gt;Node7 -->
<g id="edge14" class="edge"><title>Node13&#45;&gt;Node7</title>
<path fill="none" stroke="midnightblue" d="M585.95,-56.324C574.537,-48.1066 557.169,-35.6017 543.565,-25.8069"/>
<polygon fill="midnightblue" stroke="midnightblue" points="545.43,-22.8366 535.269,-19.8339 541.34,-28.5174 545.43,-22.8366"/>
</g>
<!-- Node15 -->
<g id="node15" class="node"><title>Node15</title>
<polygon fill="none" stroke="#bfbfbf" points="668.5,-0.5 668.5,-19.5 717.5,-19.5 717.5,-0.5 668.5,-0.5"/>
<text text-anchor="middle" x="693" y="-7.5" font-family="Helvetica,sans-Serif" font-size="10.00">string.h</text>
</g>
<!-- Node13&#45;&gt;Node15 -->
<g id="edge15" class="edge"><title>Node13&#45;&gt;Node15</title>
<path fill="none" stroke="midnightblue" d="M613.263,-56.324C628.221,-47.8215 651.255,-34.7288 668.727,-24.7975"/>
<polygon fill="midnightblue" stroke="midnightblue" points="670.81,-27.639 677.774,-19.6545 667.351,-21.5534 670.81,-27.639"/>
</g>
</g>
</svg>
