<?xml version="1.0" encoding="UTF-8" standalone="no"?>
<!DOCTYPE svg PUBLIC "-//W3C//DTD SVG 1.1//EN"
 "http://www.w3.org/Graphics/SVG/1.1/DTD/svg11.dtd">
<!-- Generated by graphviz version 2.30.1 (20140110.0959)
 -->
<!-- Title: psi4.cc Pages: 1 -->
<svg width="1852pt" height="432pt"
 viewBox="0.00 0.00 1852.27 432.00" xmlns="http://www.w3.org/2000/svg" xmlns:xlink="http://www.w3.org/1999/xlink">
<g id="graph0" class="graph" transform="scale(1 1) rotate(0) translate(4 428)">
<title>psi4.cc</title>
<!-- Node1 -->
<g id="node1" class="node"><title>Node1</title>
<polygon fill="#bfbfbf" stroke="black" points="608.27,-404.5 608.27,-423.5 656.27,-423.5 656.27,-404.5 608.27,-404.5"/>
<text text-anchor="middle" x="632.27" y="-411.5" font-family="Helvetica,sans-Serif" font-size="10.00">psi4.cc</text>
</g>
<!-- Node2 -->
<g id="node2" class="node"><title>Node2</title>
<polygon fill="none" stroke="#bfbfbf" points="125.27,-348.5 125.27,-367.5 177.27,-367.5 177.27,-348.5 125.27,-348.5"/>
<text text-anchor="middle" x="151.27" y="-355.5" font-family="Helvetica,sans-Serif" font-size="10.00">getopt.h</text>
</g>
<!-- Node1&#45;&gt;Node2 -->
<g id="edge1" class="edge"><title>Node1&#45;&gt;Node2</title>
<path fill="none" stroke="midnightblue" d="M608.236,-411.562C541.647,-407.36 349.264,-393.74 191.27,-368 190.006,-367.794 188.721,-367.572 187.426,-367.339"/>
<polygon fill="midnightblue" stroke="midnightblue" points="187.923,-363.869 177.433,-365.358 186.562,-370.735 187.923,-363.869"/>
</g>
<!-- Node3 -->
<g id="node3" class="node"><title>Node3</title>
<polygon fill="none" stroke="#bfbfbf" points="347.27,-292.5 347.27,-311.5 393.27,-311.5 393.27,-292.5 347.27,-292.5"/>
<text text-anchor="middle" x="370.27" y="-299.5" font-family="Helvetica,sans-Serif" font-size="10.00">stdio.h</text>
</g>
<!-- Node1&#45;&gt;Node3 -->
<g id="edge2" class="edge"><title>Node1&#45;&gt;Node3</title>
<path fill="none" stroke="midnightblue" d="M607.999,-411.619C553.232,-408.021 422.329,-396.579 390.27,-368 377.208,-356.355 372.567,-336.405 370.974,-321.671"/>
<polygon fill="midnightblue" stroke="midnightblue" points="374.462,-321.371 370.262,-311.644 367.479,-321.867 374.462,-321.371"/>
</g>
<!-- Node4 -->
<g id="node4" class="node"><title>Node4</title>
<polygon fill="none" stroke="#bfbfbf" points="1602.27,-0.5 1602.27,-19.5 1666.27,-19.5 1666.27,-0.5 1602.27,-0.5"/>
<text text-anchor="middle" x="1634.27" y="-7.5" font-family="Helvetica,sans-Serif" font-size="10.00">psiconfig.h</text>
</g>
<!-- Node1&#45;&gt;Node4 -->
<g id="edge3" class="edge"><title>Node1&#45;&gt;Node4</title>
<path fill="none" stroke="midnightblue" d="M656.447,-413.057C812.598,-413.117 1672.27,-408.647 1672.27,-303 1672.27,-303 1672.27,-303 1672.27,-133 1672.27,-94.3509 1654.67,-51.8037 1643.43,-28.5639"/>
<polygon fill="midnightblue" stroke="midnightblue" points="1646.54,-26.9625 1638.93,-19.5903 1640.28,-30.0986 1646.54,-26.9625"/>
</g>
<!-- Node5 -->
<g id="node5" class="node"><title>Node5</title>
<g id="a_node5"><a xlink:href="libciomr_8h_source.html" target="_top" xlink:title="libciomr/libciomr.h">
<polygon fill="none" stroke="black" points="20.7705,-236.5 20.7705,-255.5 115.77,-255.5 115.77,-236.5 20.7705,-236.5"/>
<text text-anchor="middle" x="68.2705" y="-243.5" font-family="Helvetica,sans-Serif" font-size="10.00">libciomr/libciomr.h</text>
</a>
</g>
</g>
<!-- Node1&#45;&gt;Node5 -->
<g id="edge4" class="edge"><title>Node1&#45;&gt;Node5</title>
<path fill="none" stroke="midnightblue" d="M608.146,-411.971C532.215,-408.475 299.04,-395.693 229.27,-368 168.305,-343.801 110.235,-290.093 83.5549,-263.118"/>
<polygon fill="midnightblue" stroke="midnightblue" points="85.7932,-260.399 76.314,-255.667 80.7732,-265.278 85.7932,-260.399"/>
</g>
<!-- Node7 -->
<g id="node7" class="node"><title>Node7</title>
<g id="a_node7"><a xlink:href="liboptions_8h_source.html" target="_top" xlink:title="liboptions/liboptions.h">
<polygon fill="none" stroke="black" points="584.27,-124.5 584.27,-143.5 694.27,-143.5 694.27,-124.5 584.27,-124.5"/>
<text text-anchor="middle" x="639.27" y="-131.5" font-family="Helvetica,sans-Serif" font-size="10.00">liboptions/liboptions.h</text>
</a>
</g>
</g>
<!-- Node1&#45;&gt;Node7 -->
<g id="edge6" class="edge"><title>Node1&#45;&gt;Node7</title>
<path fill="none" stroke="midnightblue" d="M632.27,-404.442C632.27,-385.936 632.27,-340.812 632.27,-303 632.27,-303 632.27,-303 632.27,-245 632.27,-212.883 635.279,-175.598 637.352,-153.726"/>
<polygon fill="midnightblue" stroke="midnightblue" points="640.857,-153.841 638.355,-143.546 633.891,-153.154 640.857,-153.841"/>
</g>
<!-- Node19 -->
<g id="node19" class="node"><title>Node19</title>
<g id="a_node19"><a xlink:href="parallel_8h_source.html" target="_top" xlink:title="libparallel/parallel.h">
<polygon fill="none" stroke="black" points="1078.77,-292.5 1078.77,-311.5 1177.77,-311.5 1177.77,-292.5 1078.77,-292.5"/>
<text text-anchor="middle" x="1128.27" y="-299.5" font-family="Helvetica,sans-Serif" font-size="10.00">libparallel/parallel.h</text>
</a>
</g>
</g>
<!-- Node1&#45;&gt;Node19 -->
<g id="edge21" class="edge"><title>Node1&#45;&gt;Node19</title>
<path fill="none" stroke="midnightblue" d="M656.36,-410.196C704.95,-404.303 818.018,-389.39 911.27,-368 976.744,-352.982 1051.45,-329.068 1093.92,-314.815"/>
<polygon fill="midnightblue" stroke="midnightblue" points="1095.14,-318.098 1103.49,-311.583 1092.9,-311.466 1095.14,-318.098"/>
</g>
<!-- Node35 -->
<g id="node35" class="node"><title>Node35</title>
<g id="a_node35"><a xlink:href="psio_8h_source.html" target="_top" xlink:title="libpsio/psio.h">
<polygon fill="none" stroke="black" points="38.2705,-124.5 38.2705,-143.5 112.27,-143.5 112.27,-124.5 38.2705,-124.5"/>
<text text-anchor="middle" x="75.2705" y="-131.5" font-family="Helvetica,sans-Serif" font-size="10.00">libpsio/psio.h</text>
</a>
</g>
</g>
<!-- Node1&#45;&gt;Node35 -->
<g id="edge48" class="edge"><title>Node1&#45;&gt;Node35</title>
<path fill="none" stroke="midnightblue" d="M607.822,-412.498C537.818,-410.654 338.181,-402.428 284.27,-368 255.484,-349.617 243.27,-337.156 243.27,-303 243.27,-303 243.27,-303 243.27,-245 243.27,-186.944 172.182,-157.873 122.49,-144.643"/>
<polygon fill="midnightblue" stroke="midnightblue" points="123.108,-141.189 112.555,-142.13 121.392,-147.975 123.108,-141.189"/>
</g>
<!-- Node37 -->
<g id="node37" class="node"><title>Node37</title>
<g id="a_node37"><a xlink:href="psio_8hpp_source.html" target="_top" xlink:title="libpsio/psio.hpp">
<polygon fill="none" stroke="black" points="169.27,-124.5 169.27,-143.5 253.27,-143.5 253.27,-124.5 169.27,-124.5"/>
<text text-anchor="middle" x="211.27" y="-131.5" font-family="Helvetica,sans-Serif" font-size="10.00">libpsio/psio.hpp</text>
</a>
</g>
</g>
<!-- Node1&#45;&gt;Node37 -->
<g id="edge51" class="edge"><title>Node1&#45;&gt;Node37</title>
<path fill="none" stroke="midnightblue" d="M607.972,-412.8C540.363,-411.767 351.951,-405.512 305.27,-368 281.266,-348.71 281.27,-333.795 281.27,-303 281.27,-303 281.27,-303 281.27,-245 281.27,-214.205 274.019,-205.842 257.27,-180 250.013,-168.803 239.515,-158.258 230.379,-150.195"/>
<polygon fill="midnightblue" stroke="midnightblue" points="232.402,-147.322 222.505,-143.54 227.883,-152.668 232.402,-147.322"/>
</g>
<!-- Node40 -->
<g id="node40" class="node"><title>Node40</title>
<g id="a_node40"><a xlink:href="wavefunction_8h_source.html" target="_top" xlink:title="libmints/wavefunction.h">
<polygon fill="none" stroke="black" points="689.77,-348.5 689.77,-367.5 808.77,-367.5 808.77,-348.5 689.77,-348.5"/>
<text text-anchor="middle" x="749.27" y="-355.5" font-family="Helvetica,sans-Serif" font-size="10.00">libmints/wavefunction.h</text>
</a>
</g>
</g>
<!-- Node1&#45;&gt;Node40 -->
<g id="edge57" class="edge"><title>Node1&#45;&gt;Node40</title>
<path fill="none" stroke="midnightblue" d="M650.809,-404.444C669.893,-395.636 699.845,-381.812 721.706,-371.722"/>
<polygon fill="midnightblue" stroke="midnightblue" points="723.205,-374.885 730.818,-367.516 720.272,-368.529 723.205,-374.885"/>
</g>
<!-- Node42 -->
<g id="node42" class="node"><title>Node42</title>
<g id="a_node42"><a xlink:href="qt_8h.html" target="_top" xlink:title="Header file for the Quantum Trio LibraryDavid Sherrill 1994.">
<polygon fill="none" stroke="black" points="282.27,-62.5 282.27,-81.5 336.27,-81.5 336.27,-62.5 282.27,-62.5"/>
<text text-anchor="middle" x="309.27" y="-69.5" font-family="Helvetica,sans-Serif" font-size="10.00">libqt/qt.h</text>
</a>
</g>
</g>
<!-- Node1&#45;&gt;Node42 -->
<g id="edge63" class="edge"><title>Node1&#45;&gt;Node42</title>
<path fill="none" stroke="midnightblue" d="M607.992,-410.887C551.713,-405.654 414.109,-390.842 374.27,-368 341.441,-349.176 319.27,-340.843 319.27,-303 319.27,-303 319.27,-303 319.27,-189 319.27,-154.589 314.848,-114.647 311.885,-91.7473"/>
<polygon fill="midnightblue" stroke="midnightblue" points="315.337,-91.1539 310.537,-81.7089 308.4,-92.0859 315.337,-91.1539"/>
</g>
<!-- Node43 -->
<g id="node43" class="node"><title>Node43</title>
<g id="a_node43"><a xlink:href="script_8h_source.html" target="_top" xlink:title="script.h">
<polygon fill="none" stroke="black" points="1280.77,-292.5 1280.77,-311.5 1329.77,-311.5 1329.77,-292.5 1280.77,-292.5"/>
<text text-anchor="middle" x="1305.27" y="-299.5" font-family="Helvetica,sans-Serif" font-size="10.00">script.h</text>
</a>
</g>
</g>
<!-- Node1&#45;&gt;Node43 -->
<g id="edge66" class="edge"><title>Node1&#45;&gt;Node43</title>
<path fill="none" stroke="midnightblue" d="M656.276,-410.141C710.676,-403.569 847.468,-386.522 961.27,-368 1074.97,-349.494 1208.87,-322.761 1270.74,-310.127"/>
<polygon fill="midnightblue" stroke="midnightblue" points="1271.64,-313.515 1280.74,-308.08 1270.24,-306.657 1271.64,-313.515"/>
</g>
<!-- Node44 -->
<g id="node44" class="node"><title>Node44</title>
<polygon fill="none" stroke="#bfbfbf" points="1700.27,-348.5 1700.27,-367.5 1770.27,-367.5 1770.27,-348.5 1700.27,-348.5"/>
<text text-anchor="middle" x="1735.27" y="-355.5" font-family="Helvetica,sans-Serif" font-size="10.00">physconst.h</text>
</g>
<!-- Node1&#45;&gt;Node44 -->
<g id="edge68" class="edge"><title>Node1&#45;&gt;Node44</title>
<path fill="none" stroke="midnightblue" d="M656.494,-413.207C771.784,-413.931 1276.31,-414.174 1686.27,-368 1687.53,-367.858 1688.8,-367.704 1690.08,-367.538"/>
<polygon fill="midnightblue" stroke="midnightblue" points="1690.64,-370.993 1700.03,-366.078 1689.63,-364.067 1690.64,-370.993"/>
</g>
<!-- Node45 -->
<g id="node45" class="node"><title>Node45</title>
<g id="a_node45"><a xlink:href="psifiles_8h_source.html" target="_top" xlink:title="psifiles.h">
<polygon fill="none" stroke="black" points="1788.27,-348.5 1788.27,-367.5 1844.27,-367.5 1844.27,-348.5 1788.27,-348.5"/>
<text text-anchor="middle" x="1816.27" y="-355.5" font-family="Helvetica,sans-Serif" font-size="10.00">psifiles.h</text>
</a>
</g>
</g>
<!-- Node1&#45;&gt;Node45 -->
<g id="edge69" class="edge"><title>Node1&#45;&gt;Node45</title>
<path fill="none" stroke="midnightblue" d="M656.428,-412.708C798.858,-410.89 1530.91,-400.17 1778.1,-367.823"/>
<polygon fill="midnightblue" stroke="midnightblue" points="1778.66,-371.279 1788.1,-366.465 1777.72,-364.343 1778.66,-371.279"/>
</g>
<!-- Node46 -->
<g id="node46" class="node"><title>Node46</title>
<g id="a_node46"><a xlink:href="psi4-def_8h_source.html" target="_top" xlink:title="psi4&#45;def.h">
<polygon fill="none" stroke="black" points="896.77,-236.5 896.77,-255.5 955.77,-255.5 955.77,-236.5 896.77,-236.5"/>
<text text-anchor="middle" x="926.27" y="-243.5" font-family="Helvetica,sans-Serif" font-size="10.00">psi4&#45;def.h</text>
</a>
</g>
</g>
<!-- Node1&#45;&gt;Node46 -->
<g id="edge70" class="edge"><title>Node1&#45;&gt;Node46</title>
<path fill="none" stroke="midnightblue" d="M656.453,-411.647C693.506,-408.622 765.47,-398.915 817.27,-368 861.814,-341.416 898.496,-290.788 915.706,-264.233"/>
<polygon fill="midnightblue" stroke="midnightblue" points="918.761,-265.952 921.144,-255.628 912.843,-262.212 918.761,-265.952"/>
</g>
<!-- Node47 -->
<g id="node47" class="node"><title>Node47</title>
<g id="a_node47"><a xlink:href="psi4_8h_source.html" target="_top" xlink:title="psi4.h">
<polygon fill="none" stroke="black" points="399.77,-348.5 399.77,-367.5 442.77,-367.5 442.77,-348.5 399.77,-348.5"/>
<text text-anchor="middle" x="421.27" y="-355.5" font-family="Helvetica,sans-Serif" font-size="10.00">psi4.h</text>
</a>
</g>
</g>
<!-- Node1&#45;&gt;Node47 -->
<g id="edge72" class="edge"><title>Node1&#45;&gt;Node47</title>
<path fill="none" stroke="midnightblue" d="M608.066,-406.806C569.765,-397.003 495.193,-377.918 452.772,-367.062"/>
<polygon fill="midnightblue" stroke="midnightblue" points="453.529,-363.643 442.973,-364.554 451.793,-370.424 453.529,-363.643"/>
</g>
<!-- Node6 -->
<g id="node6" class="node"><title>Node6</title>
<polygon fill="none" stroke="#bfbfbf" points="259.77,-0.5 259.77,-19.5 302.77,-19.5 302.77,-0.5 259.77,-0.5"/>
<text text-anchor="middle" x="281.27" y="-7.5" font-family="Helvetica,sans-Serif" font-size="10.00">cstdio</text>
</g>
<!-- Node5&#45;&gt;Node6 -->
<g id="edge5" class="edge"><title>Node5&#45;&gt;Node6</title>
<path fill="none" stroke="midnightblue" d="M61.0636,-236.311C37.8265,-207.215 -30.9382,-111.901 16.2705,-56 45.8002,-21.0331 185.657,-13.2317 249.435,-11.4951"/>
<polygon fill="midnightblue" stroke="midnightblue" points="249.79,-14.9877 259.704,-11.2505 249.623,-7.98972 249.79,-14.9877"/>
</g>
<!-- Node8 -->
<g id="node8" class="node"><title>Node8</title>
<polygon fill="none" stroke="#bfbfbf" points="678.77,-0.5 678.77,-19.5 719.77,-19.5 719.77,-0.5 678.77,-0.5"/>
<text text-anchor="middle" x="699.27" y="-7.5" font-family="Helvetica,sans-Serif" font-size="10.00">string</text>
</g>
<!-- Node7&#45;&gt;Node8 -->
<g id="edge7" class="edge"><title>Node7&#45;&gt;Node8</title>
<path fill="none" stroke="midnightblue" d="M649.596,-124.423C658.979,-116.073 672.505,-102.544 680.27,-88 690.081,-69.6252 694.932,-46.0779 697.259,-29.8881"/>
<polygon fill="midnightblue" stroke="midnightblue" points="700.78,-29.9347 698.542,-19.579 693.833,-29.0701 700.78,-29.9347"/>
</g>
<!-- Node9 -->
<g id="node9" class="node"><title>Node9</title>
<polygon fill="none" stroke="#bfbfbf" points="1019.27,-0.5 1019.27,-19.5 1063.27,-19.5 1063.27,-0.5 1019.27,-0.5"/>
<text text-anchor="middle" x="1041.27" y="-7.5" font-family="Helvetica,sans-Serif" font-size="10.00">vector</text>
</g>
<!-- Node7&#45;&gt;Node9 -->
<g id="edge8" class="edge"><title>Node7&#45;&gt;Node9</title>
<path fill="none" stroke="midnightblue" d="M694.578,-125.256C697.856,-124.824 701.106,-124.402 704.27,-124 773.288,-115.228 961.181,-131.758 1015.27,-88 1032.63,-73.9566 1038.46,-47.8517 1040.39,-29.9636"/>
<polygon fill="midnightblue" stroke="midnightblue" points="1043.89,-30.0734 1041.16,-19.8365 1036.91,-29.5419 1043.89,-30.0734"/>
</g>
<!-- Node10 -->
<g id="node10" class="node"><title>Node10</title>
<polygon fill="none" stroke="#bfbfbf" points="430.77,-62.5 430.77,-81.5 465.77,-81.5 465.77,-62.5 430.77,-62.5"/>
<text text-anchor="middle" x="448.27" y="-69.5" font-family="Helvetica,sans-Serif" font-size="10.00">map</text>
</g>
<!-- Node7&#45;&gt;Node10 -->
<g id="edge9" class="edge"><title>Node7&#45;&gt;Node10</title>
<path fill="none" stroke="midnightblue" d="M596.223,-124.449C562.327,-116.964 514.287,-104.672 474.27,-88 473.08,-87.504 471.877,-86.9636 470.674,-86.3922"/>
<polygon fill="midnightblue" stroke="midnightblue" points="472.17,-83.2237 461.697,-81.6225 468.885,-89.4054 472.17,-83.2237"/>
</g>
<!-- Node11 -->
<g id="node11" class="node"><title>Node11</title>
<polygon fill="none" stroke="#bfbfbf" points="483.77,-62.5 483.77,-81.5 550.77,-81.5 550.77,-62.5 483.77,-62.5"/>
<text text-anchor="middle" x="517.27" y="-69.5" font-family="Helvetica,sans-Serif" font-size="10.00">exception.h</text>
</g>
<!-- Node7&#45;&gt;Node11 -->
<g id="edge10" class="edge"><title>Node7&#45;&gt;Node11</title>
<path fill="none" stroke="midnightblue" d="M621.791,-124.403C601.407,-114.379 567.495,-97.7006 543.846,-86.0699"/>
<polygon fill="midnightblue" stroke="midnightblue" points="545.236,-82.8531 534.718,-81.5806 542.147,-89.1346 545.236,-82.8531"/>
</g>
<!-- Node12 -->
<g id="node12" class="node"><title>Node12</title>
<g id="a_node12"><a xlink:href="libutil_8h_source.html" target="_top" xlink:title="libutil/libutil.h">
<polygon fill="none" stroke="black" points="933.77,-62.5 933.77,-81.5 1006.77,-81.5 1006.77,-62.5 933.77,-62.5"/>
<text text-anchor="middle" x="970.27" y="-69.5" font-family="Helvetica,sans-Serif" font-size="10.00">libutil/libutil.h</text>
</a>
</g>
</g>
<!-- Node7&#45;&gt;Node12 -->
<g id="edge11" class="edge"><title>Node7&#45;&gt;Node12</title>
<path fill="none" stroke="midnightblue" d="M694.313,-125.37C764.457,-115.462 881.715,-98.2297 924.27,-88 928.405,-87.0061 932.704,-85.8187 936.939,-84.5532"/>
<polygon fill="midnightblue" stroke="midnightblue" points="938.113,-87.853 946.601,-81.5129 936.012,-81.1758 938.113,-87.853"/>
</g>
<!-- Node14 -->
<g id="node14" class="node"><title>Node14</title>
<g id="a_node14"><a xlink:href="libutil_2ref_8h_source.html" target="_top" xlink:title="libutil/ref.h">
<polygon fill="none" stroke="black" points="853.27,-62.5 853.27,-81.5 915.27,-81.5 915.27,-62.5 853.27,-62.5"/>
<text text-anchor="middle" x="884.27" y="-69.5" font-family="Helvetica,sans-Serif" font-size="10.00">libutil/ref.h</text>
</a>
</g>
</g>
<!-- Node7&#45;&gt;Node14 -->
<g id="edge15" class="edge"><title>Node7&#45;&gt;Node14</title>
<path fill="none" stroke="midnightblue" d="M674.113,-124.467C718.667,-113.556 795.71,-94.6883 843.109,-83.0803"/>
<polygon fill="midnightblue" stroke="midnightblue" points="844.16,-86.4266 853.04,-80.6483 842.494,-79.6275 844.16,-86.4266"/>
</g>
<!-- Node18 -->
<g id="node18" class="node"><title>Node18</title>
<polygon fill="none" stroke="#bfbfbf" points="569.27,-57 569.27,-87 671.27,-87 671.27,-57 569.27,-57"/>
<text text-anchor="start" x="577.27" y="-75" font-family="Helvetica,sans-Serif" font-size="10.00">boost/python/object</text>
<text text-anchor="middle" x="620.27" y="-64" font-family="Helvetica,sans-Serif" font-size="10.00">_fwd.hpp</text>
</g>
<!-- Node7&#45;&gt;Node18 -->
<g id="edge20" class="edge"><title>Node7&#45;&gt;Node18</title>
<path fill="none" stroke="midnightblue" d="M636.548,-124.403C634.264,-117.189 630.888,-106.528 627.802,-96.7823"/>
<polygon fill="midnightblue" stroke="midnightblue" points="631.104,-95.6176 624.748,-87.1408 624.431,-97.7309 631.104,-95.6176"/>
</g>
<!-- Node12&#45;&gt;Node8 -->
<g id="edge12" class="edge"><title>Node12&#45;&gt;Node8</title>
<path fill="none" stroke="midnightblue" d="M946.096,-62.4513C939.109,-60.1623 931.435,-57.8208 924.27,-56 841.858,-35.0542 816.696,-40.2774 729.618,-19.8339"/>
<polygon fill="midnightblue" stroke="midnightblue" points="730.387,-16.4192 719.847,-17.4945 728.757,-23.2268 730.387,-16.4192"/>
</g>
<!-- Node12&#45;&gt;Node9 -->
<g id="edge13" class="edge"><title>Node12&#45;&gt;Node9</title>
<path fill="none" stroke="midnightblue" d="M980.443,-62.4035C991.62,-52.9579 1009.79,-37.6056 1023.36,-26.1342"/>
<polygon fill="midnightblue" stroke="midnightblue" points="1025.74,-28.7085 1031.12,-19.5806 1021.22,-23.3619 1025.74,-28.7085"/>
</g>
<!-- Node13 -->
<g id="node13" class="node"><title>Node13</title>
<polygon fill="none" stroke="#bfbfbf" points="939.27,-0.5 939.27,-19.5 1001.27,-19.5 1001.27,-0.5 939.27,-0.5"/>
<text text-anchor="middle" x="970.27" y="-7.5" font-family="Helvetica,sans-Serif" font-size="10.00">sys/time.h</text>
</g>
<!-- Node12&#45;&gt;Node13 -->
<g id="edge14" class="edge"><title>Node12&#45;&gt;Node13</title>
<path fill="none" stroke="midnightblue" d="M970.27,-62.4035C970.27,-53.9381 970.27,-40.7283 970.27,-29.8199"/>
<polygon fill="midnightblue" stroke="midnightblue" points="973.771,-29.5806 970.27,-19.5806 966.771,-29.5806 973.771,-29.5806"/>
</g>
<!-- Node15 -->
<g id="node15" class="node"><title>Node15</title>
<polygon fill="none" stroke="#bfbfbf" points="871.77,-0.5 871.77,-19.5 920.77,-19.5 920.77,-0.5 871.77,-0.5"/>
<text text-anchor="middle" x="896.27" y="-7.5" font-family="Helvetica,sans-Serif" font-size="10.00">cstddef</text>
</g>
<!-- Node14&#45;&gt;Node15 -->
<g id="edge16" class="edge"><title>Node14&#45;&gt;Node15</title>
<path fill="none" stroke="midnightblue" d="M885.99,-62.4035C887.701,-53.849 890.381,-40.4497 892.575,-29.4762"/>
<polygon fill="midnightblue" stroke="midnightblue" points="896.025,-30.0728 894.554,-19.5806 889.161,-28.7 896.025,-30.0728"/>
</g>
<!-- Node14&#45;&gt;Node6 -->
<g id="edge17" class="edge"><title>Node14&#45;&gt;Node6</title>
<path fill="none" stroke="midnightblue" d="M853.248,-64.3518C838.733,-61.4362 821.175,-58.1871 805.27,-56 619.58,-30.4655 394.751,-16.9465 312.956,-12.5922"/>
<polygon fill="midnightblue" stroke="midnightblue" points="312.99,-9.08923 302.82,-12.0608 312.623,-16.0796 312.99,-9.08923"/>
</g>
<!-- Node16 -->
<g id="node16" class="node"><title>Node16</title>
<polygon fill="none" stroke="#bfbfbf" points="737.77,-0.5 737.77,-19.5 782.77,-19.5 782.77,-0.5 737.77,-0.5"/>
<text text-anchor="middle" x="760.27" y="-7.5" font-family="Helvetica,sans-Serif" font-size="10.00">cstdlib</text>
</g>
<!-- Node14&#45;&gt;Node16 -->
<g id="edge18" class="edge"><title>Node14&#45;&gt;Node16</title>
<path fill="none" stroke="midnightblue" d="M866.504,-62.4035C845.786,-52.3787 811.318,-35.7006 787.282,-24.0699"/>
<polygon fill="midnightblue" stroke="midnightblue" points="788.53,-20.7857 778.004,-19.5806 785.481,-27.0868 788.53,-20.7857"/>
</g>
<!-- Node17 -->
<g id="node17" class="node"><title>Node17</title>
<polygon fill="none" stroke="#bfbfbf" points="801.27,-0.5 801.27,-19.5 853.27,-19.5 853.27,-0.5 801.27,-0.5"/>
<text text-anchor="middle" x="827.27" y="-7.5" font-family="Helvetica,sans-Serif" font-size="10.00">assert.h</text>
</g>
<!-- Node14&#45;&gt;Node17 -->
<g id="edge19" class="edge"><title>Node14&#45;&gt;Node17</title>
<path fill="none" stroke="midnightblue" d="M876.104,-62.4035C867.384,-53.2252 853.367,-38.4699 842.582,-27.1173"/>
<polygon fill="midnightblue" stroke="midnightblue" points="844.847,-24.42 835.422,-19.5806 839.772,-29.2412 844.847,-24.42"/>
</g>
<!-- Node20 -->
<g id="node20" class="node"><title>Node20</title>
<polygon fill="none" stroke="#bfbfbf" points="1377.27,-124.5 1377.27,-143.5 1485.27,-143.5 1485.27,-124.5 1377.27,-124.5"/>
<text text-anchor="middle" x="1431.27" y="-131.5" font-family="Helvetica,sans-Serif" font-size="10.00">boost/shared_ptr.hpp</text>
</g>
<!-- Node19&#45;&gt;Node20 -->
<g id="edge22" class="edge"><title>Node19&#45;&gt;Node20</title>
<path fill="none" stroke="midnightblue" d="M1177.94,-293.154C1213.05,-286.376 1260.56,-274.668 1299.27,-256 1351.35,-230.886 1397.42,-178.402 1418.73,-151.57"/>
<polygon fill="midnightblue" stroke="midnightblue" points="1421.61,-153.573 1424.98,-143.53 1416.08,-149.276 1421.61,-153.573"/>
</g>
<!-- Node19&#45;&gt;Node4 -->
<g id="edge23" class="edge"><title>Node19&#45;&gt;Node4</title>
<path fill="none" stroke="midnightblue" d="M1130.03,-292.441C1135.05,-270.246 1151.57,-210.455 1189.27,-180 1238.58,-140.167 1267.83,-166.003 1327.27,-144 1346.28,-136.962 1348.9,-129.978 1368.27,-124 1474.28,-91.2913 1533.11,-162.542 1615.27,-88 1631.41,-73.3591 1634.85,-47.3954 1635.13,-29.7023"/>
<polygon fill="midnightblue" stroke="midnightblue" points="1638.63,-29.6429 1634.97,-19.7006 1631.63,-29.7558 1638.63,-29.6429"/>
</g>
<!-- Node19&#45;&gt;Node6 -->
<g id="edge24" class="edge"><title>Node19&#45;&gt;Node6</title>
<path fill="none" stroke="midnightblue" d="M1078.38,-292.864C1029.67,-284.633 953.548,-271.009 888.27,-256 612.128,-192.505 445.215,-313.214 273.27,-88 260.438,-71.1917 266.402,-45.9572 272.904,-29.004"/>
<polygon fill="midnightblue" stroke="midnightblue" points="276.181,-30.2409 276.86,-19.6678 269.736,-27.5103 276.181,-30.2409"/>
</g>
<!-- Node21 -->
<g id="node21" class="node"><title>Node21</title>
<g id="a_node21"><a xlink:href="libparallel_2local_8h_source.html" target="_top" xlink:title="libparallel/local.h">
<polygon fill="none" stroke="black" points="1201.77,-236.5 1201.77,-255.5 1290.77,-255.5 1290.77,-236.5 1201.77,-236.5"/>
<text text-anchor="middle" x="1246.27" y="-243.5" font-family="Helvetica,sans-Serif" font-size="10.00">libparallel/local.h</text>
</a>
</g>
</g>
<!-- Node19&#45;&gt;Node21 -->
<g id="edge25" class="edge"><title>Node19&#45;&gt;Node21</title>
<path fill="none" stroke="midnightblue" d="M1146.97,-292.444C1166.21,-283.636 1196.42,-269.812 1218.47,-259.722"/>
<polygon fill="midnightblue" stroke="midnightblue" points="1220.02,-262.86 1227.66,-255.516 1217.11,-256.495 1220.02,-262.86"/>
</g>
<!-- Node22 -->
<g id="node22" class="node"><title>Node22</title>
<g id="a_node22"><a xlink:href="psi4-dec_8h_source.html" target="_top" xlink:title="psi4&#45;dec.h">
<polygon fill="none" stroke="black" points="895.27,-180.5 895.27,-199.5 957.27,-199.5 957.27,-180.5 895.27,-180.5"/>
<text text-anchor="middle" x="926.27" y="-187.5" font-family="Helvetica,sans-Serif" font-size="10.00">psi4&#45;dec.h</text>
</a>
</g>
</g>
<!-- Node21&#45;&gt;Node22 -->
<g id="edge26" class="edge"><title>Node21&#45;&gt;Node22</title>
<path fill="none" stroke="midnightblue" d="M1201.44,-237.435C1139.16,-226.925 1027.37,-208.06 967.225,-197.911"/>
<polygon fill="midnightblue" stroke="midnightblue" points="967.769,-194.453 957.326,-196.241 966.604,-201.356 967.769,-194.453"/>
</g>
<!-- Node33 -->
<g id="node33" class="node"><title>Node33</title>
<polygon fill="none" stroke="#bfbfbf" points="1319.27,-180.5 1319.27,-199.5 1365.27,-199.5 1365.27,-180.5 1319.27,-180.5"/>
<text text-anchor="middle" x="1342.27" y="-187.5" font-family="Helvetica,sans-Serif" font-size="10.00">cstring</text>
</g>
<!-- Node21&#45;&gt;Node33 -->
<g id="edge46" class="edge"><title>Node21&#45;&gt;Node33</title>
<path fill="none" stroke="midnightblue" d="M1261.69,-236.324C1276.81,-227.822 1300.09,-214.729 1317.74,-204.797"/>
<polygon fill="midnightblue" stroke="midnightblue" points="1319.88,-207.608 1326.88,-199.655 1316.45,-201.507 1319.88,-207.608"/>
</g>
<!-- Node34 -->
<g id="node34" class="node"><title>Node34</title>
<g id="a_node34"><a xlink:href="openmp_8h_source.html" target="_top" xlink:title="libparallel/openmp.h">
<polygon fill="none" stroke="black" points="1197.77,-180.5 1197.77,-199.5 1300.77,-199.5 1300.77,-180.5 1197.77,-180.5"/>
<text text-anchor="middle" x="1249.27" y="-187.5" font-family="Helvetica,sans-Serif" font-size="10.00">libparallel/openmp.h</text>
</a>
</g>
</g>
<!-- Node21&#45;&gt;Node34 -->
<g id="edge47" class="edge"><title>Node21&#45;&gt;Node34</title>
<path fill="none" stroke="midnightblue" d="M1246.77,-236.083C1247.16,-229.006 1247.72,-218.861 1248.22,-209.986"/>
<polygon fill="midnightblue" stroke="midnightblue" points="1251.72,-209.93 1248.78,-199.751 1244.73,-209.542 1251.72,-209.93"/>
</g>
<!-- Node22&#45;&gt;Node20 -->
<g id="edge27" class="edge"><title>Node22&#45;&gt;Node20</title>
<path fill="none" stroke="midnightblue" d="M957.479,-185.663C1038.62,-176.986 1257.49,-153.582 1367.02,-141.871"/>
<polygon fill="midnightblue" stroke="midnightblue" points="1367.7,-145.318 1377.27,-140.775 1366.95,-138.358 1367.7,-145.318"/>
</g>
<!-- Node23 -->
<g id="node23" class="node"><title>Node23</title>
<polygon fill="none" stroke="#bfbfbf" points="1474.27,-62.5 1474.27,-81.5 1606.27,-81.5 1606.27,-62.5 1474.27,-62.5"/>
<text text-anchor="middle" x="1540.27" y="-69.5" font-family="Helvetica,sans-Serif" font-size="10.00">boost/current_function.hpp</text>
</g>
<!-- Node22&#45;&gt;Node23 -->
<g id="edge28" class="edge"><title>Node22&#45;&gt;Node23</title>
<path fill="none" stroke="midnightblue" d="M957.661,-188.32C1021.62,-186.245 1171.13,-177.853 1291.27,-144 1311.95,-138.174 1314.99,-131.067 1335.27,-124 1385.34,-106.556 1444.24,-92.5484 1486.03,-83.6599"/>
<polygon fill="midnightblue" stroke="midnightblue" points="1486.93,-87.0463 1496,-81.5666 1485.5,-80.1956 1486.93,-87.0463"/>
</g>
<!-- Node22&#45;&gt;Node8 -->
<g id="edge29" class="edge"><title>Node22&#45;&gt;Node8</title>
<path fill="none" stroke="midnightblue" d="M920.461,-180.357C904.558,-157.272 857.972,-93.3892 805.27,-56 792.619,-47.0246 756.358,-32.3961 729.758,-22.2655"/>
<polygon fill="midnightblue" stroke="midnightblue" points="730.698,-18.8792 720.106,-18.6243 728.227,-25.4287 730.698,-18.8792"/>
</g>
<!-- Node24 -->
<g id="node24" class="node"><title>Node24</title>
<polygon fill="none" stroke="#bfbfbf" points="911.77,-124.5 911.77,-143.5 940.77,-143.5 940.77,-124.5 911.77,-124.5"/>
<text text-anchor="middle" x="926.27" y="-131.5" font-family="Helvetica,sans-Serif" font-size="10.00">list</text>
</g>
<!-- Node22&#45;&gt;Node24 -->
<g id="edge30" class="edge"><title>Node22&#45;&gt;Node24</title>
<path fill="none" stroke="midnightblue" d="M926.27,-180.083C926.27,-173.006 926.27,-162.861 926.27,-153.986"/>
<polygon fill="midnightblue" stroke="midnightblue" points="929.771,-153.751 926.27,-143.751 922.771,-153.751 929.771,-153.751"/>
</g>
<!-- Node22&#45;&gt;Node10 -->
<g id="edge31" class="edge"><title>Node22&#45;&gt;Node10</title>
<path fill="none" stroke="midnightblue" d="M894.891,-188.903C832.437,-187.866 688.815,-181.235 575.27,-144 534.832,-130.739 492.614,-104.181 468.474,-87.5722"/>
<polygon fill="midnightblue" stroke="midnightblue" points="470.347,-84.6112 460.148,-81.7421 466.332,-90.3451 470.347,-84.6112"/>
</g>
<!-- Node22&#45;&gt;Node7 -->
<g id="edge32" class="edge"><title>Node22&#45;&gt;Node7</title>
<path fill="none" stroke="midnightblue" d="M895.01,-183.118C846.942,-174.074 754.205,-156.625 694.602,-145.411"/>
<polygon fill="midnightblue" stroke="midnightblue" points="695.08,-141.939 684.605,-143.53 693.786,-148.819 695.08,-141.939"/>
</g>
<!-- Node25 -->
<g id="node25" class="node"><title>Node25</title>
<g id="a_node25"><a xlink:href="include_2exception_8h_source.html" target="_top" xlink:title="exception.h">
<polygon fill="none" stroke="black" points="1215.77,-124.5 1215.77,-143.5 1282.77,-143.5 1282.77,-124.5 1215.77,-124.5"/>
<text text-anchor="middle" x="1249.27" y="-131.5" font-family="Helvetica,sans-Serif" font-size="10.00">exception.h</text>
</a>
</g>
</g>
<!-- Node22&#45;&gt;Node25 -->
<g id="edge33" class="edge"><title>Node22&#45;&gt;Node25</title>
<path fill="none" stroke="midnightblue" d="M957.535,-183.773C1015.39,-174.1 1139.29,-153.388 1205.47,-142.323"/>
<polygon fill="midnightblue" stroke="midnightblue" points="1206.29,-145.734 1215.58,-140.633 1205.14,-138.83 1206.29,-145.734"/>
</g>
<!-- Node30 -->
<g id="node30" class="node"><title>Node30</title>
<g id="a_node30"><a xlink:href="typedefs_8h_source.html" target="_top" xlink:title="libmints/typedefs.h">
<polygon fill="none" stroke="black" points="712.77,-124.5 712.77,-143.5 811.77,-143.5 811.77,-124.5 712.77,-124.5"/>
<text text-anchor="middle" x="762.27" y="-131.5" font-family="Helvetica,sans-Serif" font-size="10.00">libmints/typedefs.h</text>
</a>
</g>
</g>
<!-- Node22&#45;&gt;Node30 -->
<g id="edge39" class="edge"><title>Node22&#45;&gt;Node30</title>
<path fill="none" stroke="midnightblue" d="M900.284,-180.444C872.574,-171.32 828.518,-156.813 797.655,-146.651"/>
<polygon fill="midnightblue" stroke="midnightblue" points="798.728,-143.32 788.135,-143.516 796.539,-149.968 798.728,-143.32"/>
</g>
<!-- Node26 -->
<g id="node26" class="node"><title>Node26</title>
<polygon fill="none" stroke="#bfbfbf" points="1181.77,-62.5 1181.77,-81.5 1240.77,-81.5 1240.77,-62.5 1181.77,-62.5"/>
<text text-anchor="middle" x="1211.27" y="-69.5" font-family="Helvetica,sans-Serif" font-size="10.00">exception</text>
</g>
<!-- Node25&#45;&gt;Node26 -->
<g id="edge34" class="edge"><title>Node25&#45;&gt;Node26</title>
<path fill="none" stroke="midnightblue" d="M1243.83,-124.403C1238.18,-115.493 1229.21,-101.325 1222.11,-90.1177"/>
<polygon fill="midnightblue" stroke="midnightblue" points="1225.01,-88.1561 1216.7,-81.5806 1219.1,-91.9015 1225.01,-88.1561"/>
</g>
<!-- Node27 -->
<g id="node27" class="node"><title>Node27</title>
<polygon fill="none" stroke="#bfbfbf" points="1258.77,-62.5 1258.77,-81.5 1317.77,-81.5 1317.77,-62.5 1258.77,-62.5"/>
<text text-anchor="middle" x="1288.27" y="-69.5" font-family="Helvetica,sans-Serif" font-size="10.00">stdexcept</text>
</g>
<!-- Node25&#45;&gt;Node27 -->
<g id="edge35" class="edge"><title>Node25&#45;&gt;Node27</title>
<path fill="none" stroke="midnightblue" d="M1254.86,-124.403C1260.65,-115.493 1269.86,-101.325 1277.14,-90.1177"/>
<polygon fill="midnightblue" stroke="midnightblue" points="1280.18,-91.8725 1282.69,-81.5806 1274.31,-88.0576 1280.18,-91.8725"/>
</g>
<!-- Node28 -->
<g id="node28" class="node"><title>Node28</title>
<polygon fill="none" stroke="#bfbfbf" points="1336.27,-62.5 1336.27,-81.5 1388.27,-81.5 1388.27,-62.5 1336.27,-62.5"/>
<text text-anchor="middle" x="1362.27" y="-69.5" font-family="Helvetica,sans-Serif" font-size="10.00">sstream</text>
</g>
<!-- Node25&#45;&gt;Node28 -->
<g id="edge36" class="edge"><title>Node25&#45;&gt;Node28</title>
<path fill="none" stroke="midnightblue" d="M1265.46,-124.403C1284.17,-114.468 1315.19,-97.9966 1337.07,-86.3812"/>
<polygon fill="midnightblue" stroke="midnightblue" points="1338.92,-89.3616 1346.11,-81.5806 1335.64,-83.179 1338.92,-89.3616"/>
</g>
<!-- Node29 -->
<g id="node29" class="node"><title>Node29</title>
<polygon fill="none" stroke="#bfbfbf" points="1406.77,-62.5 1406.77,-81.5 1455.77,-81.5 1455.77,-62.5 1406.77,-62.5"/>
<text text-anchor="middle" x="1431.27" y="-69.5" font-family="Helvetica,sans-Serif" font-size="10.00">string.h</text>
</g>
<!-- Node25&#45;&gt;Node29 -->
<g id="edge37" class="edge"><title>Node25&#45;&gt;Node29</title>
<path fill="none" stroke="midnightblue" d="M1281.4,-124.437C1311.63,-116.097 1357.99,-102.575 1397.27,-88 1399.38,-87.2158 1401.55,-86.3663 1403.72,-85.4839"/>
<polygon fill="midnightblue" stroke="midnightblue" points="1405.25,-88.6382 1413.09,-81.5052 1402.51,-82.1959 1405.25,-88.6382"/>
</g>
<!-- Node25&#45;&gt;Node23 -->
<g id="edge38" class="edge"><title>Node25&#45;&gt;Node23</title>
<path fill="none" stroke="midnightblue" d="M1282.94,-126.059C1333.57,-115.619 1429.69,-95.7992 1489.05,-83.5604"/>
<polygon fill="midnightblue" stroke="midnightblue" points="1489.88,-86.963 1498.97,-81.5157 1488.47,-80.1072 1489.88,-86.963"/>
</g>
<!-- Node31 -->
<g id="node31" class="node"><title>Node31</title>
<g id="a_node31"><a xlink:href="compiler_8h_source.html" target="_top" xlink:title="compiler.h">
<polygon fill="none" stroke="black" points="1063.27,-62.5 1063.27,-81.5 1125.27,-81.5 1125.27,-62.5 1063.27,-62.5"/>
<text text-anchor="middle" x="1094.27" y="-69.5" font-family="Helvetica,sans-Serif" font-size="10.00">compiler.h</text>
</a>
</g>
</g>
<!-- Node30&#45;&gt;Node31 -->
<g id="edge40" class="edge"><title>Node30&#45;&gt;Node31</title>
<path fill="none" stroke="midnightblue" d="M811.948,-125.671C887.949,-114.389 1026.7,-93.4915 1049.27,-88 1053.21,-87.0419 1057.3,-85.8977 1061.33,-84.6745"/>
<polygon fill="midnightblue" stroke="midnightblue" points="1062.68,-87.9184 1071.13,-81.5318 1060.54,-81.2528 1062.68,-87.9184"/>
</g>
<!-- Node32 -->
<g id="node32" class="node"><title>Node32</title>
<g id="a_node32"><a xlink:href="dimension_8h_source.html" target="_top" xlink:title="dimension.h">
<polygon fill="none" stroke="black" points="727.77,-62.5 727.77,-81.5 796.77,-81.5 796.77,-62.5 727.77,-62.5"/>
<text text-anchor="middle" x="762.27" y="-69.5" font-family="Helvetica,sans-Serif" font-size="10.00">dimension.h</text>
</a>
</g>
</g>
<!-- Node30&#45;&gt;Node32 -->
<g id="edge42" class="edge"><title>Node30&#45;&gt;Node32</title>
<path fill="none" stroke="midnightblue" d="M762.27,-124.403C762.27,-115.938 762.27,-102.728 762.27,-91.8199"/>
<polygon fill="midnightblue" stroke="midnightblue" points="765.771,-91.5806 762.27,-81.5806 758.771,-91.5806 765.771,-91.5806"/>
</g>
<!-- Node31&#45;&gt;Node4 -->
<g id="edge41" class="edge"><title>Node31&#45;&gt;Node4</title>
<path fill="none" stroke="midnightblue" d="M1125.3,-64.4359C1139.82,-61.5381 1157.38,-58.2796 1173.27,-56 1326.58,-34.0082 1510.15,-19.636 1591.66,-13.8663"/>
<polygon fill="midnightblue" stroke="midnightblue" points="1592.28,-17.3315 1602.01,-13.1412 1591.79,-10.3487 1592.28,-17.3315"/>
</g>
<!-- Node32&#45;&gt;Node8 -->
<g id="edge43" class="edge"><title>Node32&#45;&gt;Node8</title>
<path fill="none" stroke="midnightblue" d="M753.244,-62.4035C743.513,-53.1361 727.812,-38.1828 715.847,-26.7876"/>
<polygon fill="midnightblue" stroke="midnightblue" points="717.935,-23.9427 708.28,-19.5806 713.108,-29.0117 717.935,-23.9427"/>
</g>
<!-- Node32&#45;&gt;Node6 -->
<g id="edge44" class="edge"><title>Node32&#45;&gt;Node6</title>
<path fill="none" stroke="midnightblue" d="M727.645,-64.122C713.058,-61.366 695.876,-58.3046 680.27,-56 544.114,-35.8928 380.646,-20.034 312.982,-13.8306"/>
<polygon fill="midnightblue" stroke="midnightblue" points="313.24,-10.3397 302.964,-12.9187 312.605,-17.3109 313.24,-10.3397"/>
</g>
<!-- Node32&#45;&gt;Node9 -->
<g id="edge45" class="edge"><title>Node32&#45;&gt;Node9</title>
<path fill="none" stroke="midnightblue" d="M796.969,-64.7688C843.224,-56.2654 927.807,-40.0297 1009.08,-20.1455"/>
<polygon fill="midnightblue" stroke="midnightblue" points="1010.11,-23.498 1018.98,-17.7027 1008.43,-16.7021 1010.11,-23.498"/>
</g>
<!-- Node35&#45;&gt;Node6 -->
<g id="edge49" class="edge"><title>Node35&#45;&gt;Node6</title>
<path fill="none" stroke="midnightblue" d="M60.318,-124.474C48.3386,-116.702 32.3974,-104.002 25.2705,-88 19.4844,-75.008 16.1257,-66.8924 25.2705,-56 53.5906,-22.2675 187.572,-13.8138 249.608,-11.701"/>
<polygon fill="midnightblue" stroke="midnightblue" points="249.73,-15.199 259.618,-11.3943 249.516,-8.20226 249.73,-15.199"/>
</g>
<!-- Node36 -->
<g id="node36" class="node"><title>Node36</title>
<g id="a_node36"><a xlink:href="libpsio_2config_8h_source.html" target="_top" xlink:title="libpsio/config.h">
<polygon fill="none" stroke="black" points="34.2705,-62.5 34.2705,-81.5 116.27,-81.5 116.27,-62.5 34.2705,-62.5"/>
<text text-anchor="middle" x="75.2705" y="-69.5" font-family="Helvetica,sans-Serif" font-size="10.00">libpsio/config.h</text>
</a>
</g>
</g>
<!-- Node35&#45;&gt;Node36 -->
<g id="edge50" class="edge"><title>Node35&#45;&gt;Node36</title>
<path fill="none" stroke="midnightblue" d="M75.2705,-124.403C75.2705,-115.938 75.2705,-102.728 75.2705,-91.8199"/>
<polygon fill="midnightblue" stroke="midnightblue" points="78.7706,-91.5806 75.2705,-81.5806 71.7706,-91.5806 78.7706,-91.5806"/>
</g>
<!-- Node37&#45;&gt;Node8 -->
<g id="edge52" class="edge"><title>Node37&#45;&gt;Node8</title>
<path fill="none" stroke="midnightblue" d="M246.36,-124.489C274.134,-116.991 313.412,-104.662 345.27,-88 366.38,-76.9596 366.253,-65.0952 388.27,-56 484.905,-16.082 611.151,-10.7115 668.514,-10.5338"/>
<polygon fill="midnightblue" stroke="midnightblue" points="668.713,-14.0342 678.72,-10.5563 668.728,-7.03419 668.713,-14.0342"/>
</g>
<!-- Node37&#45;&gt;Node10 -->
<g id="edge53" class="edge"><title>Node37&#45;&gt;Node10</title>
<path fill="none" stroke="midnightblue" d="M244.975,-124.467C292.2,-112.512 377.155,-91.0039 420.778,-79.9602"/>
<polygon fill="midnightblue" stroke="midnightblue" points="421.846,-83.3003 430.681,-77.4531 420.128,-76.5144 421.846,-83.3003"/>
</g>
<!-- Node38 -->
<g id="node38" class="node"><title>Node38</title>
<polygon fill="none" stroke="#bfbfbf" points="196.27,-62.5 196.27,-81.5 226.27,-81.5 226.27,-62.5 196.27,-62.5"/>
<text text-anchor="middle" x="211.27" y="-69.5" font-family="Helvetica,sans-Serif" font-size="10.00">set</text>
</g>
<!-- Node37&#45;&gt;Node38 -->
<g id="edge54" class="edge"><title>Node37&#45;&gt;Node38</title>
<path fill="none" stroke="midnightblue" d="M211.27,-124.403C211.27,-115.938 211.27,-102.728 211.27,-91.8199"/>
<polygon fill="midnightblue" stroke="midnightblue" points="214.771,-91.5806 211.27,-81.5806 207.771,-91.5806 214.771,-91.5806"/>
</g>
<!-- Node39 -->
<g id="node39" class="node"><title>Node39</title>
<polygon fill="none" stroke="#bfbfbf" points="134.77,-62.5 134.77,-81.5 177.77,-81.5 177.77,-62.5 134.77,-62.5"/>
<text text-anchor="middle" x="156.27" y="-69.5" font-family="Helvetica,sans-Serif" font-size="10.00">queue</text>
</g>
<!-- Node37&#45;&gt;Node39 -->
<g id="edge55" class="edge"><title>Node37&#45;&gt;Node39</title>
<path fill="none" stroke="midnightblue" d="M203.39,-124.403C194.977,-115.225 181.451,-100.47 171.045,-89.1173"/>
<polygon fill="midnightblue" stroke="midnightblue" points="173.473,-86.5871 164.136,-81.5806 168.313,-91.3172 173.473,-86.5871"/>
</g>
<!-- Node37&#45;&gt;Node36 -->
<g id="edge56" class="edge"><title>Node37&#45;&gt;Node36</title>
<path fill="none" stroke="midnightblue" d="M191.785,-124.403C168.86,-114.29 130.585,-97.4036 104.195,-85.761"/>
<polygon fill="midnightblue" stroke="midnightblue" points="105.282,-82.4148 94.7198,-81.5806 102.456,-88.8193 105.282,-82.4148"/>
</g>
<!-- Node41 -->
<g id="node41" class="node"><title>Node41</title>
<polygon fill="none" stroke="#bfbfbf" points="750.27,-292.5 750.27,-311.5 802.27,-311.5 802.27,-292.5 750.27,-292.5"/>
<text text-anchor="middle" x="776.27" y="-299.5" font-family="Helvetica,sans-Serif" font-size="10.00">stddef.h</text>
</g>
<!-- Node40&#45;&gt;Node41 -->
<g id="edge58" class="edge"><title>Node40&#45;&gt;Node41</title>
<path fill="none" stroke="midnightblue" d="M753.729,-348.083C757.425,-340.691 762.794,-329.953 767.365,-320.811"/>
<polygon fill="midnightblue" stroke="midnightblue" points="770.553,-322.261 771.895,-311.751 764.292,-319.13 770.553,-322.261"/>
</g>
<!-- Node40&#45;&gt;Node9 -->
<g id="edge59" class="edge"><title>Node40&#45;&gt;Node9</title>
<path fill="none" stroke="midnightblue" d="M765.213,-348.416C778.843,-340.438 798.262,-327.475 811.27,-312 871.129,-240.793 828.388,-179.191 903.27,-124 986.913,-62.353 1066.69,-166.927 1134.27,-88 1143.52,-77.1968 1141.83,-68.0493 1134.27,-56 1121,-34.8439 1094.66,-23.3897 1073.39,-17.342"/>
<polygon fill="midnightblue" stroke="midnightblue" points="1073.99,-13.8826 1063.44,-14.7885 1072.25,-20.6632 1073.99,-13.8826"/>
</g>
<!-- Node40&#45;&gt;Node30 -->
<g id="edge60" class="edge"><title>Node40&#45;&gt;Node30</title>
<path fill="none" stroke="midnightblue" d="M747.284,-348.433C745.303,-339.424 742.4,-324.805 741.27,-312 736.163,-254.095 749.859,-185.864 757.513,-153.641"/>
<polygon fill="midnightblue" stroke="midnightblue" points="760.938,-154.367 759.927,-143.821 754.141,-152.696 760.938,-154.367"/>
</g>
<!-- Node40&#45;&gt;Node11 -->
<g id="edge61" class="edge"><title>Node40&#45;&gt;Node11</title>
<path fill="none" stroke="midnightblue" d="M742.073,-348.189C709.326,-308.102 574.138,-142.614 530.745,-89.494"/>
<polygon fill="midnightblue" stroke="midnightblue" points="533.421,-87.2384 524.384,-81.7082 528,-91.6669 533.421,-87.2384"/>
</g>
<!-- Node40&#45;&gt;Node19 -->
<g id="edge62" class="edge"><title>Node40&#45;&gt;Node19</title>
<path fill="none" stroke="midnightblue" d="M808.906,-348.503C879.838,-338.397 997.543,-321.626 1068.52,-311.513"/>
<polygon fill="midnightblue" stroke="midnightblue" points="1069.24,-314.946 1078.65,-310.07 1068.25,-308.016 1069.24,-314.946"/>
</g>
<!-- Node42&#45;&gt;Node6 -->
<g id="edge64" class="edge"><title>Node42&#45;&gt;Node6</title>
<path fill="none" stroke="midnightblue" d="M305.259,-62.4035C301.184,-53.6707 294.752,-39.8893 289.574,-28.7936"/>
<polygon fill="midnightblue" stroke="midnightblue" points="292.675,-27.1623 285.275,-19.5806 286.332,-30.1225 292.675,-27.1623"/>
</g>
<!-- Node42&#45;&gt;Node8 -->
<g id="edge65" class="edge"><title>Node42&#45;&gt;Node8</title>
<path fill="none" stroke="midnightblue" d="M329.851,-62.4558C336.296,-60.0565 343.496,-57.654 350.27,-56 465.603,-27.8396 606.946,-16.5017 668.35,-12.6735"/>
<polygon fill="midnightblue" stroke="midnightblue" points="668.75,-16.1558 678.522,-12.0631 668.331,-9.16839 668.75,-16.1558"/>
</g>
<!-- Node43&#45;&gt;Node20 -->
<g id="edge67" class="edge"><title>Node43&#45;&gt;Node20</title>
<path fill="none" stroke="midnightblue" d="M1329.82,-296.858C1353.34,-291.558 1388.03,-280.015 1407.27,-256 1430.96,-226.435 1433.37,-179.949 1432.6,-154.047"/>
<polygon fill="midnightblue" stroke="midnightblue" points="1436.08,-153.543 1432.08,-143.729 1429.09,-153.891 1436.08,-153.543"/>
</g>
<!-- Node46&#45;&gt;Node22 -->
<g id="edge71" class="edge"><title>Node46&#45;&gt;Node22</title>
<path fill="none" stroke="midnightblue" d="M926.27,-236.083C926.27,-229.006 926.27,-218.861 926.27,-209.986"/>
<polygon fill="midnightblue" stroke="midnightblue" points="929.771,-209.751 926.27,-199.751 922.771,-209.751 929.771,-209.751"/>
</g>
<!-- Node47&#45;&gt;Node3 -->
<g id="edge73" class="edge"><title>Node47&#45;&gt;Node3</title>
<path fill="none" stroke="midnightblue" d="M412.849,-348.083C405.422,-340.22 394.419,-328.569 385.458,-319.081"/>
<polygon fill="midnightblue" stroke="midnightblue" points="387.946,-316.618 378.535,-311.751 382.857,-321.424 387.946,-316.618"/>
</g>
<!-- Node47&#45;&gt;Node8 -->
<g id="edge74" class="edge"><title>Node47&#45;&gt;Node8</title>
<path fill="none" stroke="midnightblue" d="M419.838,-348.322C412.692,-303.79 382.743,-101.266 421.27,-56 452.715,-19.0564 602.469,-12.3481 668.209,-11.199"/>
<polygon fill="midnightblue" stroke="midnightblue" points="668.423,-14.6964 678.372,-11.0545 668.323,-7.69709 668.423,-14.6964"/>
</g>
</g>
</svg>
