<?xml version="1.0" encoding="UTF-8" standalone="no"?>
<!DOCTYPE svg PUBLIC "-//W3C//DTD SVG 1.1//EN"
 "http://www.w3.org/Graphics/SVG/1.1/DTD/svg11.dtd">
<!-- Generated by graphviz version 2.30.1 (20140110.0959)
 -->
<!-- Title: qt.h Pages: 1 -->
<svg width="4661pt" height="208pt"
 viewBox="0.00 0.00 4661.00 208.00" xmlns="http://www.w3.org/2000/svg" xmlns:xlink="http://www.w3.org/1999/xlink">
<g id="graph0" class="graph" transform="scale(1 1) rotate(0) translate(4 204)">
<title>qt.h</title>
<!-- Node1 -->
<g id="node1" class="node"><title>Node1</title>
<polygon fill="#bfbfbf" stroke="black" points="2229.5,-180.5 2229.5,-199.5 2262.5,-199.5 2262.5,-180.5 2229.5,-180.5"/>
<text text-anchor="middle" x="2246" y="-187.5" font-family="Helvetica,sans-Serif" font-size="10.00">qt.h</text>
</g>
<!-- Node2 -->
<g id="node2" class="node"><title>Node2</title>
<g id="a_node2"><a xlink:href="check__convergence_8cc.html" target="_top" xlink:title="check_convergence.cc">
<polygon fill="none" stroke="black" points="-0.5,-0.5 -0.5,-19.5 116.5,-19.5 116.5,-0.5 -0.5,-0.5"/>
<text text-anchor="middle" x="58" y="-7.5" font-family="Helvetica,sans-Serif" font-size="10.00">check_convergence.cc</text>
</a>
</g>
</g>
<!-- Node1&#45;&gt;Node2 -->
<g id="edge1" class="edge"><title>Node1&#45;&gt;Node2</title>
<path fill="none" stroke="midnightblue" d="M2219.2,-188.832C1988.93,-187.336 350.04,-175.596 252,-144 170.379,-117.695 92.1226,-45.0494 66.6343,-19.7916"/>
<polygon fill="midnightblue" stroke="midnightblue" points="2219.35,-192.333 2229.37,-188.897 2219.39,-185.333 2219.35,-192.333"/>
</g>
<!-- Node3 -->
<g id="node3" class="node"><title>Node3</title>
<g id="a_node3"><a xlink:href="lib_2attic_2liblmp2__solver_2diis_8cc.html" target="_top" xlink:title="diis.cc">
<polygon fill="none" stroke="black" points="134.5,-0.5 134.5,-19.5 179.5,-19.5 179.5,-0.5 134.5,-0.5"/>
<text text-anchor="middle" x="157" y="-7.5" font-family="Helvetica,sans-Serif" font-size="10.00">diis.cc</text>
</a>
</g>
</g>
<!-- Node1&#45;&gt;Node3 -->
<g id="edge2" class="edge"><title>Node1&#45;&gt;Node3</title>
<path fill="none" stroke="midnightblue" d="M2219.25,-188.896C1992.85,-187.955 403.168,-180.073 310,-144 241.075,-117.313 182.275,-44.9121 163.368,-19.7546"/>
<polygon fill="midnightblue" stroke="midnightblue" points="2219.25,-192.396 2229.27,-188.937 2219.28,-185.396 2219.25,-192.396"/>
</g>
<!-- Node4 -->
<g id="node4" class="node"><title>Node4</title>
<g id="a_node4"><a xlink:href="direct__int__transf_8cc.html" target="_top" xlink:title="direct_int_transf.cc">
<polygon fill="none" stroke="black" points="198,-0.5 198,-19.5 298,-19.5 298,-0.5 198,-0.5"/>
<text text-anchor="middle" x="248" y="-7.5" font-family="Helvetica,sans-Serif" font-size="10.00">direct_int_transf.cc</text>
</a>
</g>
</g>
<!-- Node1&#45;&gt;Node4 -->
<g id="edge3" class="edge"><title>Node1&#45;&gt;Node4</title>
<path fill="none" stroke="midnightblue" d="M2219.14,-189.005C1995.08,-188.968 442.416,-187.153 355,-144 299.195,-116.452 262.944,-44.6026 251.717,-19.6711"/>
<polygon fill="midnightblue" stroke="midnightblue" points="2219.34,-192.505 2229.34,-189.006 2219.34,-185.505 2219.34,-192.505"/>
</g>
<!-- Node5 -->
<g id="node5" class="node"><title>Node5</title>
<g id="a_node5"><a xlink:href="dist__container_8h.html" target="_top" xlink:title="Enter brief description of file here.">
<polygon fill="none" stroke="red" points="427,-118.5 427,-137.5 513,-137.5 513,-118.5 427,-118.5"/>
<text text-anchor="middle" x="470" y="-125.5" font-family="Helvetica,sans-Serif" font-size="10.00">dist_container.h</text>
</a>
</g>
</g>
<!-- Node1&#45;&gt;Node5 -->
<g id="edge4" class="edge"><title>Node1&#45;&gt;Node5</title>
<path fill="none" stroke="midnightblue" d="M2219.18,-189.147C2028.35,-190.063 873.641,-193.467 527,-144 517.174,-142.598 506.611,-140.105 497.279,-137.549"/>
<polygon fill="midnightblue" stroke="midnightblue" points="2219.44,-192.645 2229.43,-189.095 2219.41,-185.646 2219.44,-192.645"/>
</g>
<!-- Node8 -->
<g id="node8" class="node"><title>Node8</title>
<g id="a_node8"><a xlink:href="domain_8cc.html" target="_top" xlink:title="domain.cc">
<polygon fill="none" stroke="black" points="316,-0.5 316,-19.5 378,-19.5 378,-0.5 316,-0.5"/>
<text text-anchor="middle" x="347" y="-7.5" font-family="Helvetica,sans-Serif" font-size="10.00">domain.cc</text>
</a>
</g>
</g>
<!-- Node1&#45;&gt;Node8 -->
<g id="edge16" class="edge"><title>Node1&#45;&gt;Node8</title>
<path fill="none" stroke="midnightblue" d="M2219.12,-188.798C1993.28,-187.05 419.716,-173.808 382,-144 342.849,-113.059 344.296,-43.9916 346.147,-19.6741"/>
<polygon fill="midnightblue" stroke="midnightblue" points="2219.36,-192.3 2229.39,-188.877 2219.42,-185.3 2219.36,-192.3"/>
</g>
<!-- Node9 -->
<g id="node9" class="node"><title>Node9</title>
<g id="a_node9"><a xlink:href="lib_2attic_2liblmp2__solver_2energy_8cc.html" target="_top" xlink:title="energy.cc">
<polygon fill="none" stroke="black" points="396.5,-0.5 396.5,-19.5 455.5,-19.5 455.5,-0.5 396.5,-0.5"/>
<text text-anchor="middle" x="426" y="-7.5" font-family="Helvetica,sans-Serif" font-size="10.00">energy.cc</text>
</a>
</g>
</g>
<!-- Node1&#45;&gt;Node9 -->
<g id="edge17" class="edge"><title>Node1&#45;&gt;Node9</title>
<path fill="none" stroke="midnightblue" d="M2219.1,-188.813C1994.75,-187.2 441.96,-174.927 406,-144 376.073,-118.262 381.993,-93.6027 394,-56 398.549,-41.7538 409.437,-28.16 417.249,-19.7136"/>
<polygon fill="midnightblue" stroke="midnightblue" points="2219.29,-192.315 2229.31,-188.886 2219.34,-185.315 2219.29,-192.315"/>
</g>
<!-- Node6 -->
<g id="node6" class="node"><title>Node6</title>
<g id="a_node6"><a xlink:href="lib_2attic_2liblmp2__solver_2lmp2_8cc.html" target="_top" xlink:title="lmp2.cc">
<polygon fill="none" stroke="black" points="473.5,-0.5 473.5,-19.5 524.5,-19.5 524.5,-0.5 473.5,-0.5"/>
<text text-anchor="middle" x="499" y="-7.5" font-family="Helvetica,sans-Serif" font-size="10.00">lmp2.cc</text>
</a>
</g>
</g>
<!-- Node1&#45;&gt;Node6 -->
<g id="edge18" class="edge"><title>Node1&#45;&gt;Node6</title>
<path fill="none" stroke="midnightblue" d="M2219.02,-188.899C2012.04,-188.048 682.325,-181.142 607,-144 550.977,-116.376 514.192,-44.5751 502.782,-19.6637"/>
<polygon fill="midnightblue" stroke="midnightblue" points="2219.27,-192.4 2229.29,-188.94 2219.3,-185.4 2219.27,-192.4"/>
</g>
<!-- Node7 -->
<g id="node7" class="node"><title>Node7</title>
<g id="a_node7"><a xlink:href="lmp2_8h.html" target="_top" xlink:title="Enter brief description of file here.">
<polygon fill="none" stroke="red" points="403,-56.5 403,-75.5 449,-75.5 449,-56.5 403,-56.5"/>
<text text-anchor="middle" x="426" y="-63.5" font-family="Helvetica,sans-Serif" font-size="10.00">lmp2.h</text>
</a>
</g>
</g>
<!-- Node1&#45;&gt;Node7 -->
<g id="edge19" class="edge"><title>Node1&#45;&gt;Node7</title>
<path fill="none" stroke="midnightblue" d="M2219.23,-188.857C1995.98,-187.605 450.907,-177.727 418,-144 399.979,-125.53 413.49,-91.4525 421.371,-75.5681"/>
<polygon fill="midnightblue" stroke="midnightblue" points="2219.37,-192.358 2229.39,-188.913 2219.41,-185.358 2219.37,-192.358"/>
</g>
<!-- Node10 -->
<g id="node10" class="node"><title>Node10</title>
<g id="a_node10"><a xlink:href="localize_8cc.html" target="_top" xlink:title="localize.cc">
<polygon fill="none" stroke="black" points="542.5,-0.5 542.5,-19.5 605.5,-19.5 605.5,-0.5 542.5,-0.5"/>
<text text-anchor="middle" x="574" y="-7.5" font-family="Helvetica,sans-Serif" font-size="10.00">localize.cc</text>
</a>
</g>
</g>
<!-- Node1&#45;&gt;Node10 -->
<g id="edge20" class="edge"><title>Node1&#45;&gt;Node10</title>
<path fill="none" stroke="midnightblue" d="M2219.16,-189.031C2014.69,-189.171 709.289,-188.323 640,-144 594.4,-114.83 579.2,-44.0198 575.21,-19.5141"/>
<polygon fill="midnightblue" stroke="midnightblue" points="2219.32,-192.531 2229.31,-189.023 2219.31,-185.531 2219.32,-192.531"/>
</g>
<!-- Node11 -->
<g id="node11" class="node"><title>Node11</title>
<g id="a_node11"><a xlink:href="projection_8cc.html" target="_top" xlink:title="projection.cc">
<polygon fill="none" stroke="black" points="624,-0.5 624,-19.5 696,-19.5 696,-0.5 624,-0.5"/>
<text text-anchor="middle" x="660" y="-7.5" font-family="Helvetica,sans-Serif" font-size="10.00">projection.cc</text>
</a>
</g>
</g>
<!-- Node1&#45;&gt;Node11 -->
<g id="edge21" class="edge"><title>Node1&#45;&gt;Node11</title>
<path fill="none" stroke="midnightblue" d="M2219.08,-188.753C2012.65,-186.799 688.323,-173.138 660,-144 626.524,-109.561 647.447,-43.2846 656.469,-19.6417"/>
<polygon fill="midnightblue" stroke="midnightblue" points="2219.29,-192.255 2229.32,-188.849 2219.35,-185.256 2219.29,-192.255"/>
</g>
<!-- Node12 -->
<g id="node12" class="node"><title>Node12</title>
<g id="a_node12"><a xlink:href="T2__amplitudes_8cc.html" target="_top" xlink:title="T2_amplitudes.cc">
<polygon fill="none" stroke="black" points="714,-0.5 714,-19.5 808,-19.5 808,-0.5 714,-0.5"/>
<text text-anchor="middle" x="761" y="-7.5" font-family="Helvetica,sans-Serif" font-size="10.00">T2_amplitudes.cc</text>
</a>
</g>
</g>
<!-- Node1&#45;&gt;Node12 -->
<g id="edge22" class="edge"><title>Node1&#45;&gt;Node12</title>
<path fill="none" stroke="midnightblue" d="M2219.33,-188.748C2014.86,-186.757 703.052,-172.867 675,-144 635.524,-103.377 715.267,-42.0114 747.922,-19.5899"/>
<polygon fill="midnightblue" stroke="midnightblue" points="2219.44,-192.249 2229.48,-188.846 2219.51,-185.25 2219.44,-192.249"/>
</g>
<!-- Node13 -->
<g id="node13" class="node"><title>Node13</title>
<g id="a_node13"><a xlink:href="sq__rsp_8cc.html" target="_top" xlink:title="Diagnoalize a symmetrix square matrix.">
<polygon fill="none" stroke="black" points="683.5,-118.5 683.5,-137.5 742.5,-137.5 742.5,-118.5 683.5,-118.5"/>
<text text-anchor="middle" x="713" y="-125.5" font-family="Helvetica,sans-Serif" font-size="10.00">sq_rsp.cc</text>
</a>
</g>
</g>
<!-- Node1&#45;&gt;Node13 -->
<g id="edge23" class="edge"><title>Node1&#45;&gt;Node13</title>
<path fill="none" stroke="midnightblue" d="M2218.91,-188.732C2029.03,-186.783 901.029,-173.999 752,-144 745.173,-142.626 737.982,-140.173 731.659,-137.643"/>
<polygon fill="midnightblue" stroke="midnightblue" points="2219.09,-192.234 2229.12,-188.836 2219.16,-185.234 2219.09,-192.234"/>
</g>
<!-- Node14 -->
<g id="node14" class="node"><title>Node14</title>
<g id="a_node14"><a xlink:href="lib_2libdpd_2block__matrix_8cc.html" target="_top" xlink:title="Enter brief description of file here.">
<polygon fill="none" stroke="black" points="761,-118.5 761,-137.5 847,-137.5 847,-118.5 761,-118.5"/>
<text text-anchor="middle" x="804" y="-125.5" font-family="Helvetica,sans-Serif" font-size="10.00">block_matrix.cc</text>
</a>
</g>
</g>
<!-- Node1&#45;&gt;Node14 -->
<g id="edge24" class="edge"><title>Node1&#45;&gt;Node14</title>
<path fill="none" stroke="midnightblue" d="M2219.04,-189.02C2049.92,-189.013 1133.6,-186.964 857,-144 847.834,-142.576 838.005,-140.078 829.331,-137.524"/>
<polygon fill="midnightblue" stroke="midnightblue" points="2219.29,-192.52 2229.29,-189.018 2219.29,-185.52 2219.29,-192.52"/>
</g>
<!-- Node15 -->
<g id="node15" class="node"><title>Node15</title>
<g id="a_node15"><a xlink:href="buf4__axpbycz_8cc.html" target="_top" xlink:title="Enter brief description of file here.">
<polygon fill="none" stroke="black" points="865.5,-118.5 865.5,-137.5 956.5,-137.5 956.5,-118.5 865.5,-118.5"/>
<text text-anchor="middle" x="911" y="-125.5" font-family="Helvetica,sans-Serif" font-size="10.00">buf4_axpbycz.cc</text>
</a>
</g>
</g>
<!-- Node1&#45;&gt;Node15 -->
<g id="edge25" class="edge"><title>Node1&#45;&gt;Node15</title>
<path fill="none" stroke="midnightblue" d="M2218.94,-188.899C2057.49,-188.169 1219.87,-182.549 966,-144 956.508,-142.559 946.313,-140.056 937.311,-137.503"/>
<polygon fill="midnightblue" stroke="midnightblue" points="2219.36,-192.401 2229.38,-188.944 2219.39,-185.401 2219.36,-192.401"/>
</g>
<!-- Node16 -->
<g id="node16" class="node"><title>Node16</title>
<g id="a_node16"><a xlink:href="buf4__axpy_8cc.html" target="_top" xlink:title="Enter brief description of file here.">
<polygon fill="none" stroke="black" points="974.5,-118.5 974.5,-137.5 1049.5,-137.5 1049.5,-118.5 974.5,-118.5"/>
<text text-anchor="middle" x="1012" y="-125.5" font-family="Helvetica,sans-Serif" font-size="10.00">buf4_axpy.cc</text>
</a>
</g>
</g>
<!-- Node1&#45;&gt;Node16 -->
<g id="edge26" class="edge"><title>Node1&#45;&gt;Node16</title>
<path fill="none" stroke="midnightblue" d="M2218.97,-188.968C2064.55,-188.635 1292.6,-184.919 1059,-144 1050.9,-142.581 1042.27,-140.117 1034.64,-137.591"/>
<polygon fill="midnightblue" stroke="midnightblue" points="2219.38,-192.469 2229.39,-188.987 2219.39,-185.469 2219.38,-192.469"/>
</g>
<!-- Node17 -->
<g id="node17" class="node"><title>Node17</title>
<g id="a_node17"><a xlink:href="buf4__dirprd_8cc.html" target="_top" xlink:title="Enter brief description of file here.">
<polygon fill="none" stroke="black" points="1068,-118.5 1068,-137.5 1146,-137.5 1146,-118.5 1068,-118.5"/>
<text text-anchor="middle" x="1107" y="-125.5" font-family="Helvetica,sans-Serif" font-size="10.00">buf4_dirprd.cc</text>
</a>
</g>
</g>
<!-- Node1&#45;&gt;Node17 -->
<g id="edge27" class="edge"><title>Node1&#45;&gt;Node17</title>
<path fill="none" stroke="midnightblue" d="M2218.88,-188.841C2071.82,-187.835 1368.66,-181.128 1155,-144 1146.74,-142.565 1137.93,-140.097 1130.14,-137.572"/>
<polygon fill="midnightblue" stroke="midnightblue" points="2219.2,-192.343 2229.23,-188.909 2219.25,-185.343 2219.2,-192.343"/>
</g>
<!-- Node18 -->
<g id="node18" class="node"><title>Node18</title>
<g id="a_node18"><a xlink:href="buf4__dot_8cc.html" target="_top" xlink:title="Enter brief description of file here.">
<polygon fill="none" stroke="black" points="1164,-118.5 1164,-137.5 1232,-137.5 1232,-118.5 1164,-118.5"/>
<text text-anchor="middle" x="1198" y="-125.5" font-family="Helvetica,sans-Serif" font-size="10.00">buf4_dot.cc</text>
</a>
</g>
</g>
<!-- Node1&#45;&gt;Node18 -->
<g id="edge28" class="edge"><title>Node1&#45;&gt;Node18</title>
<path fill="none" stroke="midnightblue" d="M2219.3,-188.825C2080.18,-187.76 1437.31,-180.888 1242,-144 1234.39,-142.562 1226.3,-140.093 1219.16,-137.569"/>
<polygon fill="midnightblue" stroke="midnightblue" points="2219.45,-192.326 2229.47,-188.9 2219.5,-185.327 2219.45,-192.326"/>
</g>
<!-- Node19 -->
<g id="node19" class="node"><title>Node19</title>
<g id="a_node19"><a xlink:href="buf4__mat__irrep__init_8cc.html" target="_top" xlink:title="Enter brief description of file here.">
<polygon fill="none" stroke="black" points="1250.5,-118.5 1250.5,-137.5 1363.5,-137.5 1363.5,-118.5 1250.5,-118.5"/>
<text text-anchor="middle" x="1307" y="-125.5" font-family="Helvetica,sans-Serif" font-size="10.00">buf4_mat_irrep_init.cc</text>
</a>
</g>
</g>
<!-- Node1&#45;&gt;Node19 -->
<g id="edge29" class="edge"><title>Node1&#45;&gt;Node19</title>
<path fill="none" stroke="midnightblue" d="M2218.99,-189.293C2111.52,-190.104 1704.04,-189.803 1373,-144 1361.94,-142.47 1350,-140.01 1339.36,-137.521"/>
<polygon fill="midnightblue" stroke="midnightblue" points="2219.29,-192.791 2229.25,-189.205 2219.23,-185.791 2219.29,-192.791"/>
</g>
<!-- Node20 -->
<g id="node20" class="node"><title>Node20</title>
<g id="a_node20"><a xlink:href="buf4__mat__irrep__rd_8cc.html" target="_top" xlink:title="Enter brief description of file here.">
<polygon fill="none" stroke="black" points="1382,-118.5 1382,-137.5 1490,-137.5 1490,-118.5 1382,-118.5"/>
<text text-anchor="middle" x="1436" y="-125.5" font-family="Helvetica,sans-Serif" font-size="10.00">buf4_mat_irrep_rd.cc</text>
</a>
</g>
</g>
<!-- Node1&#45;&gt;Node20 -->
<g id="edge30" class="edge"><title>Node1&#45;&gt;Node20</title>
<path fill="none" stroke="midnightblue" d="M2219.23,-189.024C2122.08,-188.762 1779.07,-184.818 1500,-144 1489.39,-142.447 1477.94,-140.013 1467.7,-137.553"/>
<polygon fill="midnightblue" stroke="midnightblue" points="2219.35,-192.524 2229.35,-189.039 2219.36,-185.524 2219.35,-192.524"/>
</g>
<!-- Node21 -->
<g id="node21" class="node"><title>Node21</title>
<g id="a_node21"><a xlink:href="buf4__mat__irrep__rd__block_8cc.html" target="_top" xlink:title="Enter brief description of file here.">
<polygon fill="none" stroke="black" points="1508.5,-118.5 1508.5,-137.5 1645.5,-137.5 1645.5,-118.5 1508.5,-118.5"/>
<text text-anchor="middle" x="1577" y="-125.5" font-family="Helvetica,sans-Serif" font-size="10.00">buf4_mat_irrep_rd_block.cc</text>
</a>
</g>
</g>
<!-- Node1&#45;&gt;Node21 -->
<g id="edge31" class="edge"><title>Node1&#45;&gt;Node21</title>
<path fill="none" stroke="midnightblue" d="M2219.33,-188.053C2135.78,-184.856 1871.69,-172.99 1655,-144 1642.43,-142.318 1628.82,-139.907 1616.54,-137.509"/>
<polygon fill="midnightblue" stroke="midnightblue" points="2219.35,-191.556 2229.48,-188.432 2219.61,-184.561 2219.35,-191.556"/>
</g>
<!-- Node22 -->
<g id="node22" class="node"><title>Node22</title>
<g id="a_node22"><a xlink:href="buf4__mat__irrep__row__init_8cc.html" target="_top" xlink:title="Enter brief description of file here.">
<polygon fill="none" stroke="black" points="1664,-113 1664,-143 1766,-143 1766,-113 1664,-113"/>
<text text-anchor="start" x="1672" y="-131" font-family="Helvetica,sans-Serif" font-size="10.00">buf4_mat_irrep_row</text>
<text text-anchor="middle" x="1715" y="-120" font-family="Helvetica,sans-Serif" font-size="10.00">_init.cc</text>
</a>
</g>
</g>
<!-- Node1&#45;&gt;Node22 -->
<g id="edge32" class="edge"><title>Node1&#45;&gt;Node22</title>
<path fill="none" stroke="midnightblue" d="M2219.19,-187.803C2147.1,-184.288 1943.18,-172.403 1776,-144 1772.77,-143.452 1769.47,-142.826 1766.14,-142.149"/>
<polygon fill="midnightblue" stroke="midnightblue" points="2219.08,-191.301 2229.23,-188.279 2219.41,-184.309 2219.08,-191.301"/>
</g>
<!-- Node23 -->
<g id="node23" class="node"><title>Node23</title>
<g id="a_node23"><a xlink:href="buf4__mat__irrep__shift13_8cc.html" target="_top" xlink:title="Enter brief description of file here.">
<polygon fill="none" stroke="black" points="1784.5,-118.5 1784.5,-137.5 1913.5,-137.5 1913.5,-118.5 1784.5,-118.5"/>
<text text-anchor="middle" x="1849" y="-125.5" font-family="Helvetica,sans-Serif" font-size="10.00">buf4_mat_irrep_shift13.cc</text>
</a>
</g>
</g>
<!-- Node1&#45;&gt;Node23 -->
<g id="edge33" class="edge"><title>Node1&#45;&gt;Node23</title>
<path fill="none" stroke="midnightblue" d="M2219.46,-185.864C2164.16,-179.206 2032.61,-162.727 1923,-144 1911.89,-142.102 1899.89,-139.786 1888.86,-137.547"/>
<polygon fill="midnightblue" stroke="midnightblue" points="2219.13,-189.349 2229.47,-187.062 2219.96,-182.399 2219.13,-189.349"/>
</g>
<!-- Node24 -->
<g id="node24" class="node"><title>Node24</title>
<g id="a_node24"><a xlink:href="buf4__mat__irrep__shift31_8cc.html" target="_top" xlink:title="Enter brief description of file here.">
<polygon fill="none" stroke="black" points="1931.5,-118.5 1931.5,-137.5 2060.5,-137.5 2060.5,-118.5 1931.5,-118.5"/>
<text text-anchor="middle" x="1996" y="-125.5" font-family="Helvetica,sans-Serif" font-size="10.00">buf4_mat_irrep_shift31.cc</text>
</a>
</g>
</g>
<!-- Node1&#45;&gt;Node24 -->
<g id="edge34" class="edge"><title>Node1&#45;&gt;Node24</title>
<path fill="none" stroke="midnightblue" d="M2219.28,-182.587C2174.09,-171.742 2082.56,-149.775 2031.85,-137.604"/>
<polygon fill="midnightblue" stroke="midnightblue" points="2218.67,-186.04 2229.21,-184.97 2220.3,-179.233 2218.67,-186.04"/>
</g>
<!-- Node25 -->
<g id="node25" class="node"><title>Node25</title>
<g id="a_node25"><a xlink:href="buf4__mat__irrep__wrt_8cc.html" target="_top" xlink:title="Enter brief description of file here.">
<polygon fill="none" stroke="black" points="2078.5,-118.5 2078.5,-137.5 2191.5,-137.5 2191.5,-118.5 2078.5,-118.5"/>
<text text-anchor="middle" x="2135" y="-125.5" font-family="Helvetica,sans-Serif" font-size="10.00">buf4_mat_irrep_wrt.cc</text>
</a>
</g>
</g>
<!-- Node1&#45;&gt;Node25 -->
<g id="edge35" class="edge"><title>Node1&#45;&gt;Node25</title>
<path fill="none" stroke="midnightblue" d="M2221.21,-175.6C2199.71,-163.98 2169.24,-147.509 2150.87,-137.581"/>
<polygon fill="midnightblue" stroke="midnightblue" points="2219.64,-178.727 2230.1,-180.403 2222.96,-172.569 2219.64,-178.727"/>
</g>
<!-- Node26 -->
<g id="node26" class="node"><title>Node26</title>
<g id="a_node26"><a xlink:href="buf4__scm_8cc.html" target="_top" xlink:title="Enter brief description of file here.">
<polygon fill="none" stroke="black" points="2209.5,-118.5 2209.5,-137.5 2282.5,-137.5 2282.5,-118.5 2209.5,-118.5"/>
<text text-anchor="middle" x="2246" y="-125.5" font-family="Helvetica,sans-Serif" font-size="10.00">buf4_scm.cc</text>
</a>
</g>
</g>
<!-- Node1&#45;&gt;Node26 -->
<g id="edge36" class="edge"><title>Node1&#45;&gt;Node26</title>
<path fill="none" stroke="midnightblue" d="M2246,-170.16C2246,-159.248 2246,-146.04 2246,-137.581"/>
<polygon fill="midnightblue" stroke="midnightblue" points="2242.5,-170.403 2246,-180.403 2249.5,-170.403 2242.5,-170.403"/>
</g>
<!-- Node27 -->
<g id="node27" class="node"><title>Node27</title>
<g id="a_node27"><a xlink:href="buf4__scmcopy_8cc.html" target="_top" xlink:title="Enter brief description of file here.">
<polygon fill="none" stroke="black" points="2301,-118.5 2301,-137.5 2395,-137.5 2395,-118.5 2301,-118.5"/>
<text text-anchor="middle" x="2348" y="-125.5" font-family="Helvetica,sans-Serif" font-size="10.00">buf4_scmcopy.cc</text>
</a>
</g>
</g>
<!-- Node1&#45;&gt;Node27 -->
<g id="edge37" class="edge"><title>Node1&#45;&gt;Node27</title>
<path fill="none" stroke="midnightblue" d="M2269.31,-175.286C2289.04,-163.685 2316.69,-147.42 2333.41,-137.581"/>
<polygon fill="midnightblue" stroke="midnightblue" points="2267.46,-172.316 2260.61,-180.403 2271.01,-178.35 2267.46,-172.316"/>
</g>
<!-- Node28 -->
<g id="node28" class="node"><title>Node28</title>
<g id="a_node28"><a xlink:href="buf4__sort_8cc.html" target="_top" xlink:title="Enter brief description of file here.">
<polygon fill="none" stroke="black" points="2413.5,-118.5 2413.5,-137.5 2484.5,-137.5 2484.5,-118.5 2413.5,-118.5"/>
<text text-anchor="middle" x="2449" y="-125.5" font-family="Helvetica,sans-Serif" font-size="10.00">buf4_sort.cc</text>
</a>
</g>
</g>
<!-- Node1&#45;&gt;Node28 -->
<g id="edge38" class="edge"><title>Node1&#45;&gt;Node28</title>
<path fill="none" stroke="midnightblue" d="M2272.44,-181.856C2303.9,-173.264 2357.97,-158.218 2404,-144 2410.45,-142.007 2417.39,-139.752 2423.84,-137.607"/>
<polygon fill="midnightblue" stroke="midnightblue" points="2271.41,-178.508 2262.68,-184.511 2273.25,-185.263 2271.41,-178.508"/>
</g>
<!-- Node29 -->
<g id="node29" class="node"><title>Node29</title>
<g id="a_node29"><a xlink:href="buf4__sort__axpy_8cc.html" target="_top" xlink:title="Enter brief description of file here.">
<polygon fill="none" stroke="black" points="2502.5,-118.5 2502.5,-137.5 2599.5,-137.5 2599.5,-118.5 2502.5,-118.5"/>
<text text-anchor="middle" x="2551" y="-125.5" font-family="Helvetica,sans-Serif" font-size="10.00">buf4_sort_axpy.cc</text>
</a>
</g>
</g>
<!-- Node1&#45;&gt;Node29 -->
<g id="edge39" class="edge"><title>Node1&#45;&gt;Node29</title>
<path fill="none" stroke="midnightblue" d="M2272.47,-184.828C2317.81,-177.536 2413.2,-161.565 2493,-144 2501.74,-142.077 2511.15,-139.754 2519.8,-137.515"/>
<polygon fill="midnightblue" stroke="midnightblue" points="2271.88,-181.377 2262.56,-186.411 2272.99,-188.29 2271.88,-181.377"/>
</g>
<!-- Node30 -->
<g id="node30" class="node"><title>Node30</title>
<g id="a_node30"><a xlink:href="buf4__sort__ooc_8cc.html" target="_top" xlink:title="Enter brief description of file here.">
<polygon fill="none" stroke="black" points="2618,-118.5 2618,-137.5 2710,-137.5 2710,-118.5 2618,-118.5"/>
<text text-anchor="middle" x="2664" y="-125.5" font-family="Helvetica,sans-Serif" font-size="10.00">buf4_sort_ooc.cc</text>
</a>
</g>
</g>
<!-- Node1&#45;&gt;Node30 -->
<g id="edge40" class="edge"><title>Node1&#45;&gt;Node30</title>
<path fill="none" stroke="midnightblue" d="M2272.92,-186.933C2333.3,-182.02 2483.94,-168.205 2608,-144 2616.89,-142.265 2626.45,-139.896 2635.11,-137.554"/>
<polygon fill="midnightblue" stroke="midnightblue" points="2272.42,-183.462 2262.73,-187.748 2272.97,-190.44 2272.42,-183.462"/>
</g>
<!-- Node31 -->
<g id="node31" class="node"><title>Node31</title>
<g id="a_node31"><a xlink:href="cc3__sigma__RHF_8cc.html" target="_top" xlink:title="Enter brief description of file here.">
<polygon fill="none" stroke="black" points="2728,-118.5 2728,-137.5 2832,-137.5 2832,-118.5 2728,-118.5"/>
<text text-anchor="middle" x="2780" y="-125.5" font-family="Helvetica,sans-Serif" font-size="10.00">cc3_sigma_RHF.cc</text>
</a>
</g>
</g>
<!-- Node1&#45;&gt;Node31 -->
<g id="edge41" class="edge"><title>Node1&#45;&gt;Node31</title>
<path fill="none" stroke="midnightblue" d="M2272.98,-187.817C2345.53,-184.337 2550.75,-172.532 2719,-144 2728.89,-142.322 2739.55,-139.913 2749.15,-137.515"/>
<polygon fill="midnightblue" stroke="midnightblue" points="2272.7,-184.326 2262.87,-188.288 2273.03,-191.318 2272.7,-184.326"/>
</g>
<!-- Node32 -->
<g id="node32" class="node"><title>Node32</title>
<g id="a_node32"><a xlink:href="cc3__sigma__RHF__ic_8cc.html" target="_top" xlink:title="Enter brief description of file here.">
<polygon fill="none" stroke="black" points="2850,-118.5 2850,-137.5 2966,-137.5 2966,-118.5 2850,-118.5"/>
<text text-anchor="middle" x="2908" y="-125.5" font-family="Helvetica,sans-Serif" font-size="10.00">cc3_sigma_RHF_ic.cc</text>
</a>
</g>
</g>
<!-- Node1&#45;&gt;Node32 -->
<g id="edge42" class="edge"><title>Node1&#45;&gt;Node32</title>
<path fill="none" stroke="midnightblue" d="M2272.89,-188.352C2357.13,-186.025 2623.31,-176.427 2841,-144 2851.96,-142.367 2863.8,-139.941 2874.44,-137.513"/>
<polygon fill="midnightblue" stroke="midnightblue" points="2272.56,-184.859 2262.66,-188.623 2272.75,-191.856 2272.56,-184.859"/>
</g>
<!-- Node33 -->
<g id="node33" class="node"><title>Node33</title>
<g id="a_node33"><a xlink:href="cc3__sigma__UHF_8cc.html" target="_top" xlink:title="Enter brief description of file here.">
<polygon fill="none" stroke="black" points="2984,-118.5 2984,-137.5 3088,-137.5 3088,-118.5 2984,-118.5"/>
<text text-anchor="middle" x="3036" y="-125.5" font-family="Helvetica,sans-Serif" font-size="10.00">cc3_sigma_UHF.cc</text>
</a>
</g>
</g>
<!-- Node1&#45;&gt;Node33 -->
<g id="edge43" class="edge"><title>Node1&#45;&gt;Node33</title>
<path fill="none" stroke="midnightblue" d="M2272.78,-189.074C2368.59,-188.974 2703.09,-185.479 2975,-144 2985.13,-142.454 2996.05,-140.021 3005.81,-137.561"/>
<polygon fill="midnightblue" stroke="midnightblue" points="2272.54,-185.574 2262.54,-189.072 2272.54,-192.574 2272.54,-185.574"/>
</g>
<!-- Node34 -->
<g id="node34" class="node"><title>Node34</title>
<g id="a_node34"><a xlink:href="contract222_8cc.html" target="_top" xlink:title="Enter brief description of file here.">
<polygon fill="none" stroke="black" points="3106.5,-118.5 3106.5,-137.5 3187.5,-137.5 3187.5,-118.5 3106.5,-118.5"/>
<text text-anchor="middle" x="3147" y="-125.5" font-family="Helvetica,sans-Serif" font-size="10.00">contract222.cc</text>
</a>
</g>
</g>
<!-- Node1&#45;&gt;Node34 -->
<g id="edge44" class="edge"><title>Node1&#45;&gt;Node34</title>
<path fill="none" stroke="midnightblue" d="M2272.86,-188.442C2398.95,-185.69 2932.87,-172.537 3097,-144 3105.57,-142.51 3114.75,-140.028 3122.87,-137.507"/>
<polygon fill="midnightblue" stroke="midnightblue" points="2272.5,-184.949 2262.58,-188.663 2272.65,-191.947 2272.5,-184.949"/>
</g>
<!-- Node35 -->
<g id="node35" class="node"><title>Node35</title>
<g id="a_node35"><a xlink:href="contract244_8cc.html" target="_top" xlink:title="Enter brief description of file here.">
<polygon fill="none" stroke="black" points="3205.5,-118.5 3205.5,-137.5 3286.5,-137.5 3286.5,-118.5 3205.5,-118.5"/>
<text text-anchor="middle" x="3246" y="-125.5" font-family="Helvetica,sans-Serif" font-size="10.00">contract244.cc</text>
</a>
</g>
</g>
<!-- Node1&#45;&gt;Node35 -->
<g id="edge45" class="edge"><title>Node1&#45;&gt;Node35</title>
<path fill="none" stroke="midnightblue" d="M2272.93,-188.611C2407.87,-186.528 3011.38,-175.576 3196,-144 3204.58,-142.533 3213.75,-140.057 3221.87,-137.535"/>
<polygon fill="midnightblue" stroke="midnightblue" points="2272.62,-185.115 2262.68,-188.766 2272.73,-192.115 2272.62,-185.115"/>
</g>
<!-- Node36 -->
<g id="node36" class="node"><title>Node36</title>
<g id="a_node36"><a xlink:href="contract422_8cc.html" target="_top" xlink:title="Enter brief description of file here.">
<polygon fill="none" stroke="black" points="3304.5,-118.5 3304.5,-137.5 3385.5,-137.5 3385.5,-118.5 3304.5,-118.5"/>
<text text-anchor="middle" x="3345" y="-125.5" font-family="Helvetica,sans-Serif" font-size="10.00">contract422.cc</text>
</a>
</g>
</g>
<!-- Node1&#45;&gt;Node36 -->
<g id="edge46" class="edge"><title>Node1&#45;&gt;Node36</title>
<path fill="none" stroke="midnightblue" d="M2272.98,-188.75C2416.31,-187.281 3089.82,-178.622 3295,-144 3303.58,-142.552 3312.75,-140.081 3320.87,-137.557"/>
<polygon fill="midnightblue" stroke="midnightblue" points="2272.84,-185.251 2262.87,-188.85 2272.9,-192.25 2272.84,-185.251"/>
</g>
<!-- Node37 -->
<g id="node37" class="node"><title>Node37</title>
<g id="a_node37"><a xlink:href="contract424_8cc.html" target="_top" xlink:title="Enter brief description of file here.">
<polygon fill="none" stroke="black" points="3403.5,-118.5 3403.5,-137.5 3484.5,-137.5 3484.5,-118.5 3403.5,-118.5"/>
<text text-anchor="middle" x="3444" y="-125.5" font-family="Helvetica,sans-Serif" font-size="10.00">contract424.cc</text>
</a>
</g>
</g>
<!-- Node1&#45;&gt;Node37 -->
<g id="edge47" class="edge"><title>Node1&#45;&gt;Node37</title>
<path fill="none" stroke="midnightblue" d="M2273.09,-188.864C2424.59,-187.964 3168.24,-181.667 3394,-144 3402.58,-142.568 3411.76,-140.101 3419.88,-137.576"/>
<polygon fill="midnightblue" stroke="midnightblue" points="2272.82,-185.365 2262.84,-188.922 2272.86,-192.365 2272.82,-185.365"/>
</g>
<!-- Node38 -->
<g id="node38" class="node"><title>Node38</title>
<g id="a_node38"><a xlink:href="contract442_8cc.html" target="_top" xlink:title="Enter brief description of file here.">
<polygon fill="none" stroke="black" points="3502.5,-118.5 3502.5,-137.5 3583.5,-137.5 3583.5,-118.5 3502.5,-118.5"/>
<text text-anchor="middle" x="3543" y="-125.5" font-family="Helvetica,sans-Serif" font-size="10.00">contract442.cc</text>
</a>
</g>
</g>
<!-- Node1&#45;&gt;Node38 -->
<g id="edge48" class="edge"><title>Node1&#45;&gt;Node38</title>
<path fill="none" stroke="midnightblue" d="M2272.88,-188.962C2431.48,-188.598 3246.44,-184.742 3493,-144 3501.67,-142.567 3510.95,-140.066 3519.13,-137.513"/>
<polygon fill="midnightblue" stroke="midnightblue" points="2272.61,-185.463 2262.61,-188.983 2272.62,-192.463 2272.61,-185.463"/>
</g>
<!-- Node39 -->
<g id="node39" class="node"><title>Node39</title>
<g id="a_node39"><a xlink:href="contract444_8cc.html" target="_top" xlink:title="Enter brief description of file here.">
<polygon fill="none" stroke="black" points="3601.5,-118.5 3601.5,-137.5 3682.5,-137.5 3682.5,-118.5 3601.5,-118.5"/>
<text text-anchor="middle" x="3642" y="-125.5" font-family="Helvetica,sans-Serif" font-size="10.00">contract444.cc</text>
</a>
</g>
</g>
<!-- Node1&#45;&gt;Node39 -->
<g id="edge49" class="edge"><title>Node1&#45;&gt;Node39</title>
<path fill="none" stroke="midnightblue" d="M2272.91,-189.045C2438.83,-189.179 3324.72,-187.802 3592,-144 3600.68,-142.578 3609.95,-140.08 3618.14,-137.526"/>
<polygon fill="midnightblue" stroke="midnightblue" points="2272.63,-185.545 2262.62,-189.034 2272.62,-192.545 2272.63,-185.545"/>
</g>
<!-- Node40 -->
<g id="node40" class="node"><title>Node40</title>
<g id="a_node40"><a xlink:href="contract444__df_8cc.html" target="_top" xlink:title="Enter brief description of file here.">
<polygon fill="none" stroke="black" points="3700.5,-118.5 3700.5,-137.5 3795.5,-137.5 3795.5,-118.5 3700.5,-118.5"/>
<text text-anchor="middle" x="3748" y="-125.5" font-family="Helvetica,sans-Serif" font-size="10.00">contract444_df.cc</text>
</a>
</g>
</g>
<!-- Node1&#45;&gt;Node40 -->
<g id="edge50" class="edge"><title>Node1&#45;&gt;Node40</title>
<path fill="none" stroke="midnightblue" d="M2272.96,-188.992C2445.99,-188.817 3402.24,-185.939 3691,-144 3700.82,-142.573 3711.39,-140.074 3720.72,-137.52"/>
<polygon fill="midnightblue" stroke="midnightblue" points="2272.92,-185.492 2262.93,-189 2272.93,-192.492 2272.92,-185.492"/>
</g>
<!-- Node41 -->
<g id="node41" class="node"><title>Node41</title>
<g id="a_node41"><a xlink:href="dot13_8cc.html" target="_top" xlink:title="Enter brief description of file here.">
<polygon fill="none" stroke="black" points="3814,-118.5 3814,-137.5 3868,-137.5 3868,-118.5 3814,-118.5"/>
<text text-anchor="middle" x="3841" y="-125.5" font-family="Helvetica,sans-Serif" font-size="10.00">dot13.cc</text>
</a>
</g>
</g>
<!-- Node1&#45;&gt;Node41 -->
<g id="edge51" class="edge"><title>Node1&#45;&gt;Node41</title>
<path fill="none" stroke="midnightblue" d="M2272.74,-188.8C2466.21,-187.275 3648.46,-176.668 3804,-144 3810.51,-142.632 3817.34,-140.181 3823.34,-137.651"/>
<polygon fill="midnightblue" stroke="midnightblue" points="2272.58,-185.301 2262.61,-188.878 2272.63,-192.301 2272.58,-185.301"/>
</g>
<!-- Node42 -->
<g id="node42" class="node"><title>Node42</title>
<g id="a_node42"><a xlink:href="dot14_8cc.html" target="_top" xlink:title="Enter brief description of file here.">
<polygon fill="none" stroke="black" points="3886,-118.5 3886,-137.5 3940,-137.5 3940,-118.5 3886,-118.5"/>
<text text-anchor="middle" x="3913" y="-125.5" font-family="Helvetica,sans-Serif" font-size="10.00">dot14.cc</text>
</a>
</g>
</g>
<!-- Node1&#45;&gt;Node42 -->
<g id="edge52" class="edge"><title>Node1&#45;&gt;Node42</title>
<path fill="none" stroke="midnightblue" d="M2272.76,-188.852C2471.44,-187.675 3713.98,-178.948 3877,-144 3883.36,-142.637 3890.01,-140.187 3895.84,-137.657"/>
<polygon fill="midnightblue" stroke="midnightblue" points="2272.6,-185.353 2262.62,-188.911 2272.64,-192.353 2272.6,-185.353"/>
</g>
<!-- Node43 -->
<g id="node43" class="node"><title>Node43</title>
<g id="a_node43"><a xlink:href="dot23_8cc.html" target="_top" xlink:title="Enter brief description of file here.">
<polygon fill="none" stroke="black" points="3958,-118.5 3958,-137.5 4012,-137.5 4012,-118.5 3958,-118.5"/>
<text text-anchor="middle" x="3985" y="-125.5" font-family="Helvetica,sans-Serif" font-size="10.00">dot23.cc</text>
</a>
</g>
</g>
<!-- Node1&#45;&gt;Node43 -->
<g id="edge53" class="edge"><title>Node1&#45;&gt;Node43</title>
<path fill="none" stroke="midnightblue" d="M2272.67,-188.886C2476.04,-187.938 3778.42,-180.465 3949,-144 3955.49,-142.613 3962.29,-140.09 3968.2,-137.503"/>
<polygon fill="midnightblue" stroke="midnightblue" points="2272.56,-185.386 2262.57,-188.932 2272.59,-192.386 2272.56,-185.386"/>
</g>
<!-- Node44 -->
<g id="node44" class="node"><title>Node44</title>
<g id="a_node44"><a xlink:href="dot24_8cc.html" target="_top" xlink:title="Enter brief description of file here.">
<polygon fill="none" stroke="black" points="4030,-118.5 4030,-137.5 4084,-137.5 4084,-118.5 4030,-118.5"/>
<text text-anchor="middle" x="4057" y="-125.5" font-family="Helvetica,sans-Serif" font-size="10.00">dot24.cc</text>
</a>
</g>
</g>
<!-- Node1&#45;&gt;Node44 -->
<g id="edge54" class="edge"><title>Node1&#45;&gt;Node44</title>
<path fill="none" stroke="midnightblue" d="M2272.82,-188.916C2481.58,-188.184 3842.92,-181.969 4021,-144 4027.49,-142.616 4034.29,-140.094 4040.2,-137.507"/>
<polygon fill="midnightblue" stroke="midnightblue" points="2272.73,-185.416 2262.74,-188.95 2272.75,-192.416 2272.73,-185.416"/>
</g>
<!-- Node45 -->
<g id="node45" class="node"><title>Node45</title>
<g id="a_node45"><a xlink:href="file2__axpbycz_8cc.html" target="_top" xlink:title="Enter brief description of file here.">
<polygon fill="none" stroke="black" points="4102,-118.5 4102,-137.5 4192,-137.5 4192,-118.5 4102,-118.5"/>
<text text-anchor="middle" x="4147" y="-125.5" font-family="Helvetica,sans-Serif" font-size="10.00">file2_axpbycz.cc</text>
</a>
</g>
</g>
<!-- Node1&#45;&gt;Node45 -->
<g id="edge55" class="edge"><title>Node1&#45;&gt;Node45</title>
<path fill="none" stroke="midnightblue" d="M2272.87,-188.746C2486.4,-186.674 3905.31,-171.917 4093,-144 4102.34,-142.611 4112.35,-140.122 4121.19,-137.564"/>
<polygon fill="midnightblue" stroke="midnightblue" points="2272.55,-185.249 2262.58,-188.845 2272.61,-192.248 2272.55,-185.249"/>
</g>
<!-- Node46 -->
<g id="node46" class="node"><title>Node46</title>
<g id="a_node46"><a xlink:href="file2__axpy_8cc.html" target="_top" xlink:title="Enter brief description of file here.">
<polygon fill="none" stroke="black" points="4210,-118.5 4210,-137.5 4284,-137.5 4284,-118.5 4210,-118.5"/>
<text text-anchor="middle" x="4247" y="-125.5" font-family="Helvetica,sans-Serif" font-size="10.00">file2_axpy.cc</text>
</a>
</g>
</g>
<!-- Node1&#45;&gt;Node46 -->
<g id="edge56" class="edge"><title>Node1&#45;&gt;Node46</title>
<path fill="none" stroke="midnightblue" d="M2272.75,-188.857C2492.88,-187.614 4002.51,-177.891 4201,-144 4209.11,-142.614 4217.76,-140.092 4225.34,-137.505"/>
<polygon fill="midnightblue" stroke="midnightblue" points="2272.69,-185.357 2262.71,-188.912 2272.73,-192.357 2272.69,-185.357"/>
</g>
<!-- Node47 -->
<g id="node47" class="node"><title>Node47</title>
<g id="a_node47"><a xlink:href="file2__dirprd_8cc.html" target="_top" xlink:title="Enter brief description of file here.">
<polygon fill="none" stroke="black" points="4302.5,-118.5 4302.5,-137.5 4379.5,-137.5 4379.5,-118.5 4302.5,-118.5"/>
<text text-anchor="middle" x="4341" y="-125.5" font-family="Helvetica,sans-Serif" font-size="10.00">file2_dirprd.cc</text>
</a>
</g>
</g>
<!-- Node1&#45;&gt;Node47 -->
<g id="edge57" class="edge"><title>Node1&#45;&gt;Node47</title>
<path fill="none" stroke="midnightblue" d="M2272.94,-188.865C2499.55,-187.673 4084.62,-178.149 4293,-144 4301.44,-142.616 4310.46,-140.094 4318.37,-137.507"/>
<polygon fill="midnightblue" stroke="midnightblue" points="2272.62,-185.367 2262.63,-188.919 2272.65,-192.367 2272.62,-185.367"/>
</g>
<!-- Node48 -->
<g id="node48" class="node"><title>Node48</title>
<g id="a_node48"><a xlink:href="file2__dot_8cc.html" target="_top" xlink:title="Enter brief description of file here.">
<polygon fill="none" stroke="black" points="4397.5,-118.5 4397.5,-137.5 4464.5,-137.5 4464.5,-118.5 4397.5,-118.5"/>
<text text-anchor="middle" x="4431" y="-125.5" font-family="Helvetica,sans-Serif" font-size="10.00">file2_dot.cc</text>
</a>
</g>
</g>
<!-- Node1&#45;&gt;Node48 -->
<g id="edge58" class="edge"><title>Node1&#45;&gt;Node48</title>
<path fill="none" stroke="midnightblue" d="M2272.76,-188.947C2504.59,-188.419 4170.1,-183.273 4388,-144 4395.63,-142.626 4403.71,-140.105 4410.79,-137.518"/>
<polygon fill="midnightblue" stroke="midnightblue" points="2272.52,-185.447 2262.53,-188.969 2272.54,-192.447 2272.52,-185.447"/>
</g>
<!-- Node49 -->
<g id="node49" class="node"><title>Node49</title>
<g id="a_node49"><a xlink:href="file2__scm_8cc.html" target="_top" xlink:title="Enter brief description of file here.">
<polygon fill="none" stroke="black" points="4483,-118.5 4483,-137.5 4555,-137.5 4555,-118.5 4483,-118.5"/>
<text text-anchor="middle" x="4519" y="-125.5" font-family="Helvetica,sans-Serif" font-size="10.00">file2_scm.cc</text>
</a>
</g>
</g>
<!-- Node1&#45;&gt;Node49 -->
<g id="edge59" class="edge"><title>Node1&#45;&gt;Node49</title>
<path fill="none" stroke="midnightblue" d="M2272.72,-188.937C2509.5,-188.318 4245.69,-182.483 4473,-144 4481.12,-142.626 4489.76,-140.106 4497.34,-137.518"/>
<polygon fill="midnightblue" stroke="midnightblue" points="2272.58,-185.437 2262.59,-188.963 2272.59,-192.437 2272.58,-185.437"/>
</g>
<!-- Node50 -->
<g id="node50" class="node"><title>Node50</title>
<g id="a_node50"><a xlink:href="file4__cache_8cc.html" target="_top" xlink:title="Enter brief description of file here.">
<polygon fill="none" stroke="black" points="4573,-118.5 4573,-137.5 4653,-137.5 4653,-118.5 4573,-118.5"/>
<text text-anchor="middle" x="4613" y="-125.5" font-family="Helvetica,sans-Serif" font-size="10.00">file4_cache.cc</text>
</a>
</g>
</g>
<!-- Node1&#45;&gt;Node50 -->
<g id="edge60" class="edge"><title>Node1&#45;&gt;Node50</title>
<path fill="none" stroke="midnightblue" d="M2272.68,-188.931C2514.69,-188.246 4326.68,-181.87 4564,-144 4572.61,-142.626 4581.81,-140.106 4589.88,-137.518"/>
<polygon fill="midnightblue" stroke="midnightblue" points="2272.64,-185.431 2262.65,-188.959 2272.66,-192.431 2272.64,-185.431"/>
</g>
<!-- Node5&#45;&gt;Node6 -->
<g id="edge5" class="edge"><title>Node5&#45;&gt;Node6</title>
<path fill="none" stroke="midnightblue" d="M474.658,-108.369C481.034,-82.8648 492.219,-38.1243 496.874,-19.5048"/>
<polygon fill="midnightblue" stroke="midnightblue" points="471.21,-107.731 472.18,-118.281 478.001,-109.429 471.21,-107.731"/>
</g>
<!-- Node5&#45;&gt;Node7 -->
<g id="edge6" class="edge"><title>Node5&#45;&gt;Node7</title>
<path fill="none" stroke="midnightblue" d="M457.678,-110.198C449.419,-98.9356 438.888,-84.5743 432.292,-75.5806"/>
<polygon fill="midnightblue" stroke="midnightblue" points="454.96,-112.409 463.696,-118.403 460.605,-108.27 454.96,-112.409"/>
</g>
<!-- Node7&#45;&gt;Node2 -->
<g id="edge7" class="edge"><title>Node7&#45;&gt;Node2</title>
<path fill="none" stroke="midnightblue" d="M392.896,-60.1424C330.39,-50.9703 194.275,-30.9969 116.184,-19.5378"/>
<polygon fill="midnightblue" stroke="midnightblue" points="392.578,-63.633 402.98,-61.6221 393.594,-56.7072 392.578,-63.633"/>
</g>
<!-- Node7&#45;&gt;Node3 -->
<g id="edge8" class="edge"><title>Node7&#45;&gt;Node3</title>
<path fill="none" stroke="midnightblue" d="M392.991,-59.6611C347.025,-52.016 261.242,-36.9839 189,-20 185.966,-19.2868 182.789,-18.474 179.663,-17.6354"/>
<polygon fill="midnightblue" stroke="midnightblue" points="392.546,-63.1349 402.982,-61.3106 393.686,-56.2284 392.546,-63.1349"/>
</g>
<!-- Node7&#45;&gt;Node4 -->
<g id="edge9" class="edge"><title>Node7&#45;&gt;Node4</title>
<path fill="none" stroke="midnightblue" d="M392.93,-54.9676C359.375,-44.788 307.986,-29.1979 276.269,-19.576"/>
<polygon fill="midnightblue" stroke="midnightblue" points="392.144,-58.3866 402.73,-57.9404 394.176,-51.688 392.144,-58.3866"/>
</g>
<!-- Node7&#45;&gt;Node8 -->
<g id="edge10" class="edge"><title>Node7&#45;&gt;Node8</title>
<path fill="none" stroke="midnightblue" d="M404.966,-50.6221C390.534,-40.7574 371.859,-27.9919 359.661,-19.6545"/>
<polygon fill="midnightblue" stroke="midnightblue" points="403.077,-53.5703 413.307,-56.324 407.027,-47.7914 403.077,-53.5703"/>
</g>
<!-- Node7&#45;&gt;Node9 -->
<g id="edge11" class="edge"><title>Node7&#45;&gt;Node9</title>
<path fill="none" stroke="midnightblue" d="M426,-45.8045C426,-36.9102 426,-26.7798 426,-19.7511"/>
<polygon fill="midnightblue" stroke="midnightblue" points="422.5,-46.083 426,-56.083 429.5,-46.083 422.5,-46.083"/>
</g>
<!-- Node7&#45;&gt;Node6 -->
<g id="edge12" class="edge"><title>Node7&#45;&gt;Node6</title>
<path fill="none" stroke="midnightblue" d="M446.142,-50.1008C459.279,-40.3824 475.982,-28.0269 487.058,-19.8339"/>
<polygon fill="midnightblue" stroke="midnightblue" points="443.687,-47.5631 437.729,-56.324 447.85,-53.1907 443.687,-47.5631"/>
</g>
<!-- Node7&#45;&gt;Node10 -->
<g id="edge13" class="edge"><title>Node7&#45;&gt;Node10</title>
<path fill="none" stroke="midnightblue" d="M458.806,-53.0303C486.611,-42.8853 525.803,-28.5854 550.549,-19.5565"/>
<polygon fill="midnightblue" stroke="midnightblue" points="457.32,-49.8468 449.125,-56.5625 459.719,-56.4228 457.32,-49.8468"/>
</g>
<!-- Node7&#45;&gt;Node11 -->
<g id="edge14" class="edge"><title>Node7&#45;&gt;Node11</title>
<path fill="none" stroke="midnightblue" d="M459.1,-57.3614C502.64,-47.3137 578.884,-29.7192 623.878,-19.3358"/>
<polygon fill="midnightblue" stroke="midnightblue" points="458.249,-53.9658 449.292,-59.6249 459.823,-60.7866 458.249,-53.9658"/>
</g>
<!-- Node7&#45;&gt;Node12 -->
<g id="edge15" class="edge"><title>Node7&#45;&gt;Node12</title>
<path fill="none" stroke="midnightblue" d="M459.041,-59.6739C518.78,-50.0445 644.925,-29.7107 713.757,-18.6152"/>
<polygon fill="midnightblue" stroke="midnightblue" points="458.341,-56.2415 449.026,-61.2884 459.455,-63.1523 458.341,-56.2415"/>
</g>
</g>
</svg>
