<?xml version="1.0" encoding="UTF-8" standalone="no"?>
<!DOCTYPE svg PUBLIC "-//W3C//DTD SVG 1.1//EN"
 "http://www.w3.org/Graphics/SVG/1.1/DTD/svg11.dtd">
<!-- Generated by graphviz version 2.30.1 (20140110.0959)
 -->
<!-- Title: ras_set.cc Pages: 1 -->
<!--zoomable 208 -->
<svg id="main" version="1.1" xmlns="http://www.w3.org/2000/svg" xmlns:xlink="http://www.w3.org/1999/xlink" xml:space="preserve" onload="init(evt)">
        <defs>
                <circle id="rim" cx="0" cy="0" r="7"/>
                <circle id="rim2" cx="0" cy="0" r="3.5"/>
                <g id="zoomPlus">
                        <use xlink:href="#rim" fill="#404040">
                                <set attributeName="fill" to="#808080" begin="zoomplus.mouseover" end="zoomplus.mouseout"/>
                        </use>
                        <path d="M-4,0h8M0,-4v8" fill="none" stroke="white" stroke-width="1.5" pointer-events="none"/>
                </g>
                <g id="zoomMin">
                        <use xlink:href="#rim" fill="#404040">
                                <set attributeName="fill" to="#808080" begin="zoomminus.mouseover" end="zoomminus.mouseout"/>
                        </use>
                        <path d="M-4,0h8" fill="none" stroke="white" stroke-width="1.5" pointer-events="none"/>
                </g>
                <g id="dirArrow">
                        <path fill="none" stroke="white" stroke-width="1.5" d="M0,-3.0v7 M-2.5,-0.5L0,-3.0L2.5,-0.5"/>
                </g>
               <g id="resetDef">
                       <use xlink:href="#rim2" fill="#404040">
                               <set attributeName="fill" to="#808080" begin="reset.mouseover" end="reset.mouseout"/>
                       </use>
               </g>
        </defs>

<script type="text/javascript">
var viewWidth = 710;
var viewHeight = 208;
var sectionId = 'dynsection-0';
</script>
<script xlink:href="svgpan.js"/>
<svg id="graph" class="graph">
<g id="viewport">
<title>ras_set.cc</title>
<!-- Node1 -->
<g id="node1" class="node"><title>Node1</title>
<polygon fill="#bfbfbf" stroke="black" points="177.387,-180.5 177.387,-199.5 239.387,-199.5 239.387,-180.5 177.387,-180.5"/>
<text text-anchor="middle" x="208.387" y="-187.5" font-family="Helvetica,sans-Serif" font-size="10.00">ras_set.cc</text>
</g>
<!-- Node2 -->
<g id="node2" class="node"><title>Node2</title>
<polygon fill="none" stroke="#bfbfbf" points="10.887,-0.5 10.887,-19.5 53.887,-19.5 53.887,-0.5 10.887,-0.5"/>
<text text-anchor="middle" x="32.387" y="-7.5" font-family="Helvetica,sans-Serif" font-size="10.00">cstdio</text>
</g>
<!-- Node1&#45;&gt;Node2 -->
<g id="edge1" class="edge"><title>Node1&#45;&gt;Node2</title>
<path fill="none" stroke="midnightblue" d="M177.133,-186.418C127.327,-181.584 33.5028,-169.287 13.387,-144 -13.3835,-110.348 8.25757,-56.1886 22.4664,-28.5114"/>
<polygon fill="midnightblue" stroke="midnightblue" points="25.6053,-30.0643 27.2615,-19.5997 19.441,-26.7474 25.6053,-30.0643"/>
</g>
<!-- Node3 -->
<g id="node3" class="node"><title>Node3</title>
<polygon fill="none" stroke="#bfbfbf" points="599.887,-0.5 599.887,-19.5 644.887,-19.5 644.887,-0.5 599.887,-0.5"/>
<text text-anchor="middle" x="622.387" y="-7.5" font-family="Helvetica,sans-Serif" font-size="10.00">cstdlib</text>
</g>
<!-- Node1&#45;&gt;Node3 -->
<g id="edge2" class="edge"><title>Node1&#45;&gt;Node3</title>
<path fill="none" stroke="midnightblue" d="M239.53,-184.932C322.655,-173.476 546.998,-138.462 599.387,-88 615.213,-72.756 620.272,-47.1237 621.821,-29.6557"/>
<polygon fill="midnightblue" stroke="midnightblue" points="625.323,-29.7337 622.411,-19.5469 618.334,-29.3262 625.323,-29.7337"/>
</g>
<!-- Node4 -->
<g id="node4" class="node"><title>Node4</title>
<g id="a_node4"><a xlink:href="libciomr_8h_source.html" target="_top" xlink:title="libciomr/libciomr.h">
<polygon fill="none" stroke="black" points="22.887,-124.5 22.887,-143.5 117.887,-143.5 117.887,-124.5 22.887,-124.5"/>
<text text-anchor="middle" x="70.387" y="-131.5" font-family="Helvetica,sans-Serif" font-size="10.00">libciomr/libciomr.h</text>
</a>
</g>
</g>
<!-- Node1&#45;&gt;Node4 -->
<g id="edge3" class="edge"><title>Node1&#45;&gt;Node4</title>
<path fill="none" stroke="midnightblue" d="M186.52,-180.444C163.608,-171.478 127.412,-157.314 101.521,-147.183"/>
<polygon fill="midnightblue" stroke="midnightblue" points="102.739,-143.901 92.1512,-143.516 100.188,-150.42 102.739,-143.901"/>
</g>
<!-- Node5 -->
<g id="node5" class="node"><title>Node5</title>
<g id="a_node5"><a xlink:href="qt_8h.html" target="_top" xlink:title="Header file for the Quantum Trio LibraryDavid Sherrill 1994.">
<polygon fill="none" stroke="black" points="49.887,-62.5 49.887,-81.5 82.887,-81.5 82.887,-62.5 49.887,-62.5"/>
<text text-anchor="middle" x="66.387" y="-69.5" font-family="Helvetica,sans-Serif" font-size="10.00">qt.h</text>
</a>
</g>
</g>
<!-- Node1&#45;&gt;Node5 -->
<g id="edge5" class="edge"><title>Node1&#45;&gt;Node5</title>
<path fill="none" stroke="midnightblue" d="M197.714,-180.281C173.645,-160.619 114.9,-112.63 84.8101,-88.0498"/>
<polygon fill="midnightblue" stroke="midnightblue" points="86.7567,-85.1207 76.798,-81.5048 82.3282,-90.5418 86.7567,-85.1207"/>
</g>
<!-- Node7 -->
<g id="node7" class="node"><title>Node7</title>
<g id="a_node7"><a xlink:href="psifiles_8h_source.html" target="_top" xlink:title="psifiles.h">
<polygon fill="none" stroke="black" points="646.387,-124.5 646.387,-143.5 702.387,-143.5 702.387,-124.5 646.387,-124.5"/>
<text text-anchor="middle" x="674.387" y="-131.5" font-family="Helvetica,sans-Serif" font-size="10.00">psifiles.h</text>
</a>
</g>
</g>
<!-- Node1&#45;&gt;Node7 -->
<g id="edge8" class="edge"><title>Node1&#45;&gt;Node7</title>
<path fill="none" stroke="midnightblue" d="M239.391,-186.835C309.638,-181.684 486.192,-167.355 632.387,-144 633.63,-143.801 634.891,-143.59 636.163,-143.368"/>
<polygon fill="midnightblue" stroke="midnightblue" points="636.822,-146.806 645.997,-141.507 635.52,-139.928 636.822,-146.806"/>
</g>
<!-- Node8 -->
<g id="node8" class="node"><title>Node8</title>
<g id="a_node8"><a xlink:href="liboptions_8h_source.html" target="_top" xlink:title="liboptions/liboptions.h">
<polygon fill="none" stroke="black" points="209.387,-124.5 209.387,-143.5 319.387,-143.5 319.387,-124.5 209.387,-124.5"/>
<text text-anchor="middle" x="264.387" y="-131.5" font-family="Helvetica,sans-Serif" font-size="10.00">liboptions/liboptions.h</text>
</a>
</g>
</g>
<!-- Node1&#45;&gt;Node8 -->
<g id="edge9" class="edge"><title>Node1&#45;&gt;Node8</title>
<path fill="none" stroke="midnightblue" d="M217.384,-180.324C225.581,-172.42 237.893,-160.548 247.859,-150.938"/>
<polygon fill="midnightblue" stroke="midnightblue" points="250.457,-153.295 255.226,-143.834 245.598,-148.256 250.457,-153.295"/>
</g>
<!-- Node4&#45;&gt;Node2 -->
<g id="edge4" class="edge"><title>Node4&#45;&gt;Node2</title>
<path fill="none" stroke="midnightblue" d="M62.7743,-124.401C55.6641,-115.828 45.4149,-101.957 40.387,-88 33.5694,-69.0746 31.9891,-45.9586 31.8525,-30.0212"/>
<polygon fill="midnightblue" stroke="midnightblue" points="35.354,-29.882 31.9539,-19.8476 28.3543,-29.8122 35.354,-29.882"/>
</g>
<!-- Node5&#45;&gt;Node2 -->
<g id="edge6" class="edge"><title>Node5&#45;&gt;Node2</title>
<path fill="none" stroke="midnightblue" d="M61.5156,-62.4035C56.5166,-53.5816 48.5979,-39.6075 42.278,-28.4548"/>
<polygon fill="midnightblue" stroke="midnightblue" points="45.2246,-26.5553 37.2493,-19.5806 39.1344,-30.0064 45.2246,-26.5553"/>
</g>
<!-- Node6 -->
<g id="node6" class="node"><title>Node6</title>
<polygon fill="none" stroke="#bfbfbf" points="82.887,-0.5 82.887,-19.5 123.887,-19.5 123.887,-0.5 82.887,-0.5"/>
<text text-anchor="middle" x="103.387" y="-7.5" font-family="Helvetica,sans-Serif" font-size="10.00">string</text>
</g>
<!-- Node5&#45;&gt;Node6 -->
<g id="edge7" class="edge"><title>Node5&#45;&gt;Node6</title>
<path fill="none" stroke="midnightblue" d="M71.6882,-62.4035C77.1833,-53.4925 85.9201,-39.3247 92.8311,-28.1177"/>
<polygon fill="midnightblue" stroke="midnightblue" points="95.8258,-29.9294 98.0956,-19.5806 89.8676,-26.2552 95.8258,-29.9294"/>
</g>
<!-- Node8&#45;&gt;Node6 -->
<g id="edge10" class="edge"><title>Node8&#45;&gt;Node6</title>
<path fill="none" stroke="midnightblue" d="M209.196,-125.982C182.358,-119.958 151.435,-108.771 130.387,-88 114.589,-72.41 108.015,-47.0603 105.292,-29.7372"/>
<polygon fill="midnightblue" stroke="midnightblue" points="108.747,-29.1675 104,-19.6957 101.805,-30.0605 108.747,-29.1675"/>
</g>
<!-- Node9 -->
<g id="node9" class="node"><title>Node9</title>
<polygon fill="none" stroke="#bfbfbf" points="222.387,-0.5 222.387,-19.5 266.387,-19.5 266.387,-0.5 222.387,-0.5"/>
<text text-anchor="middle" x="244.387" y="-7.5" font-family="Helvetica,sans-Serif" font-size="10.00">vector</text>
</g>
<!-- Node8&#45;&gt;Node9 -->
<g id="edge11" class="edge"><title>Node8&#45;&gt;Node9</title>
<path fill="none" stroke="midnightblue" d="M262.949,-124.226C259.72,-104.53 251.836,-56.4371 247.453,-29.7004"/>
<polygon fill="midnightblue" stroke="midnightblue" points="250.884,-28.9965 245.812,-19.6944 243.976,-30.129 250.884,-28.9965"/>
</g>
<!-- Node10 -->
<g id="node10" class="node"><title>Node10</title>
<polygon fill="none" stroke="#bfbfbf" points="269.887,-62.5 269.887,-81.5 304.887,-81.5 304.887,-62.5 269.887,-62.5"/>
<text text-anchor="middle" x="287.387" y="-69.5" font-family="Helvetica,sans-Serif" font-size="10.00">map</text>
</g>
<!-- Node8&#45;&gt;Node10 -->
<g id="edge12" class="edge"><title>Node8&#45;&gt;Node10</title>
<path fill="none" stroke="midnightblue" d="M267.682,-124.403C270.996,-115.76 276.205,-102.17 280.436,-91.1341"/>
<polygon fill="midnightblue" stroke="midnightblue" points="283.786,-92.1709 284.098,-81.5806 277.25,-89.6653 283.786,-92.1709"/>
</g>
<!-- Node11 -->
<g id="node11" class="node"><title>Node11</title>
<polygon fill="none" stroke="#bfbfbf" points="322.887,-62.5 322.887,-81.5 389.887,-81.5 389.887,-62.5 322.887,-62.5"/>
<text text-anchor="middle" x="356.387" y="-69.5" font-family="Helvetica,sans-Serif" font-size="10.00">exception.h</text>
</g>
<!-- Node8&#45;&gt;Node11 -->
<g id="edge13" class="edge"><title>Node8&#45;&gt;Node11</title>
<path fill="none" stroke="midnightblue" d="M277.568,-124.403C292.462,-114.691 316.931,-98.7319 334.66,-87.1697"/>
<polygon fill="midnightblue" stroke="midnightblue" points="336.766,-89.975 343.23,-81.5806 332.942,-84.1117 336.766,-89.975"/>
</g>
<!-- Node12 -->
<g id="node12" class="node"><title>Node12</title>
<g id="a_node12"><a xlink:href="libutil_8h_source.html" target="_top" xlink:title="libutil/libutil.h">
<polygon fill="none" stroke="black" points="139.887,-62.5 139.887,-81.5 212.887,-81.5 212.887,-62.5 139.887,-62.5"/>
<text text-anchor="middle" x="176.387" y="-69.5" font-family="Helvetica,sans-Serif" font-size="10.00">libutil/libutil.h</text>
</a>
</g>
</g>
<!-- Node8&#45;&gt;Node12 -->
<g id="edge14" class="edge"><title>Node8&#45;&gt;Node12</title>
<path fill="none" stroke="midnightblue" d="M251.779,-124.403C237.664,-114.78 214.556,-99.0242 197.638,-87.4891"/>
<polygon fill="midnightblue" stroke="midnightblue" points="199.206,-84.3222 188.972,-81.5806 195.262,-90.1058 199.206,-84.3222"/>
</g>
<!-- Node14 -->
<g id="node14" class="node"><title>Node14</title>
<g id="a_node14"><a xlink:href="libutil_2ref_8h_source.html" target="_top" xlink:title="libutil/ref.h">
<polygon fill="none" stroke="black" points="528.387,-62.5 528.387,-81.5 590.387,-81.5 590.387,-62.5 528.387,-62.5"/>
<text text-anchor="middle" x="559.387" y="-69.5" font-family="Helvetica,sans-Serif" font-size="10.00">libutil/ref.h</text>
</a>
</g>
</g>
<!-- Node8&#45;&gt;Node14 -->
<g id="edge18" class="edge"><title>Node8&#45;&gt;Node14</title>
<path fill="none" stroke="midnightblue" d="M319.751,-126.226C371.844,-119.151 451.737,-106.484 519.387,-88 522.606,-87.1203 525.93,-86.0864 529.222,-84.9797"/>
<polygon fill="midnightblue" stroke="midnightblue" points="530.633,-88.1921 538.865,-81.5225 528.27,-81.6028 530.633,-88.1921"/>
</g>
<!-- Node17 -->
<g id="node17" class="node"><title>Node17</title>
<polygon fill="none" stroke="#bfbfbf" points="408.387,-57 408.387,-87 510.387,-87 510.387,-57 408.387,-57"/>
<text text-anchor="start" x="416.387" y="-75" font-family="Helvetica,sans-Serif" font-size="10.00">boost/python/object</text>
<text text-anchor="middle" x="459.387" y="-64" font-family="Helvetica,sans-Serif" font-size="10.00">_fwd.hpp</text>
</g>
<!-- Node8&#45;&gt;Node17 -->
<g id="edge23" class="edge"><title>Node8&#45;&gt;Node17</title>
<path fill="none" stroke="midnightblue" d="M292.326,-124.403C321.3,-115.488 367.376,-101.311 403.807,-90.1014"/>
<polygon fill="midnightblue" stroke="midnightblue" points="405.276,-93.3115 413.805,-87.0253 403.218,-86.621 405.276,-93.3115"/>
</g>
<!-- Node12&#45;&gt;Node6 -->
<g id="edge15" class="edge"><title>Node12&#45;&gt;Node6</title>
<path fill="none" stroke="midnightblue" d="M165.928,-62.4035C154.436,-52.9579 135.757,-37.6056 121.8,-26.1342"/>
<polygon fill="midnightblue" stroke="midnightblue" points="123.775,-23.2264 113.827,-19.5806 119.33,-28.6342 123.775,-23.2264"/>
</g>
<!-- Node12&#45;&gt;Node9 -->
<g id="edge16" class="edge"><title>Node12&#45;&gt;Node9</title>
<path fill="none" stroke="midnightblue" d="M186.13,-62.4035C196.734,-53.047 213.906,-37.8948 226.866,-26.4599"/>
<polygon fill="midnightblue" stroke="midnightblue" points="229.48,-28.8213 234.662,-19.5806 224.848,-23.5724 229.48,-28.8213"/>
</g>
<!-- Node13 -->
<g id="node13" class="node"><title>Node13</title>
<polygon fill="none" stroke="#bfbfbf" points="142.387,-0.5 142.387,-19.5 204.387,-19.5 204.387,-0.5 142.387,-0.5"/>
<text text-anchor="middle" x="173.387" y="-7.5" font-family="Helvetica,sans-Serif" font-size="10.00">sys/time.h</text>
</g>
<!-- Node12&#45;&gt;Node13 -->
<g id="edge17" class="edge"><title>Node12&#45;&gt;Node13</title>
<path fill="none" stroke="midnightblue" d="M175.957,-62.4035C175.534,-53.9381 174.873,-40.7283 174.328,-29.8199"/>
<polygon fill="midnightblue" stroke="midnightblue" points="177.811,-29.3933 173.816,-19.5806 170.82,-29.7429 177.811,-29.3933"/>
</g>
<!-- Node15 -->
<g id="node15" class="node"><title>Node15</title>
<polygon fill="none" stroke="#bfbfbf" points="461.887,-0.5 461.887,-19.5 510.887,-19.5 510.887,-0.5 461.887,-0.5"/>
<text text-anchor="middle" x="486.387" y="-7.5" font-family="Helvetica,sans-Serif" font-size="10.00">cstddef</text>
</g>
<!-- Node14&#45;&gt;Node15 -->
<g id="edge19" class="edge"><title>Node14&#45;&gt;Node15</title>
<path fill="none" stroke="midnightblue" d="M548.928,-62.4035C537.436,-52.9579 518.757,-37.6056 504.8,-26.1342"/>
<polygon fill="midnightblue" stroke="midnightblue" points="506.775,-23.2264 496.827,-19.5806 502.33,-28.6342 506.775,-23.2264"/>
</g>
<!-- Node14&#45;&gt;Node2 -->
<g id="edge20" class="edge"><title>Node14&#45;&gt;Node2</title>
<path fill="none" stroke="midnightblue" d="M539.78,-62.407C533.392,-59.945 526.191,-57.5191 519.387,-56 325.298,-12.668 270.071,-49.3867 73.387,-20 70.3148,-19.541 67.129,-18.9853 63.9526,-18.3779"/>
<polygon fill="midnightblue" stroke="midnightblue" points="64.4907,-14.9152 53.989,-16.3163 63.0724,-21.77 64.4907,-14.9152"/>
</g>
<!-- Node14&#45;&gt;Node3 -->
<g id="edge21" class="edge"><title>Node14&#45;&gt;Node3</title>
<path fill="none" stroke="midnightblue" d="M568.413,-62.4035C578.144,-53.1361 593.845,-38.1828 605.81,-26.7876"/>
<polygon fill="midnightblue" stroke="midnightblue" points="608.55,-29.0117 613.377,-19.5806 603.722,-23.9427 608.55,-29.0117"/>
</g>
<!-- Node16 -->
<g id="node16" class="node"><title>Node16</title>
<polygon fill="none" stroke="#bfbfbf" points="529.387,-0.5 529.387,-19.5 581.387,-19.5 581.387,-0.5 529.387,-0.5"/>
<text text-anchor="middle" x="555.387" y="-7.5" font-family="Helvetica,sans-Serif" font-size="10.00">assert.h</text>
</g>
<!-- Node14&#45;&gt;Node16 -->
<g id="edge22" class="edge"><title>Node14&#45;&gt;Node16</title>
<path fill="none" stroke="midnightblue" d="M558.814,-62.4035C558.25,-53.9381 557.369,-40.7283 556.642,-29.8199"/>
<polygon fill="midnightblue" stroke="midnightblue" points="560.117,-29.3256 555.959,-19.5806 553.132,-29.7913 560.117,-29.3256"/>
</g>
</g>
</svg>
        <g id="navigator" transform="translate(0 0)" fill="#404254">
                <rect fill="#f2f5e9" fill-opacity="0.5" stroke="#606060" stroke-width=".5" x="0" y="0" width="60" height="60"/>
                <use id="zoomplus" xlink:href="#zoomPlus" x="17" y="9" onmousedown="handleZoom(evt,'in')"/>
                <use id="zoomminus" xlink:href="#zoomMin" x="42" y="9" onmousedown="handleZoom(evt,'out')"/>
                <use id="reset" xlink:href="#resetDef" x="30" y="36" onmousedown="handleReset()"/>
                <g id="arrowUp" xlink:href="#dirArrow" transform="translate(30 24)" onmousedown="handlePan(0,-1)">
                  <use xlink:href="#rim" fill="#404040">
                        <set attributeName="fill" to="#808080" begin="arrowUp.mouseover" end="arrowUp.mouseout"/>
                  </use>
                  <path fill="none" stroke="white" stroke-width="1.5" d="M0,-3.0v7 M-2.5,-0.5L0,-3.0L2.5,-0.5"/>
                </g>
                <g id="arrowRight" xlink:href="#dirArrow" transform="rotate(90) translate(36 -43)" onmousedown="handlePan(1,0)">
                  <use xlink:href="#rim" fill="#404040">
                        <set attributeName="fill" to="#808080" begin="arrowRight.mouseover" end="arrowRight.mouseout"/>
                  </use>
                  <path fill="none" stroke="white" stroke-width="1.5" d="M0,-3.0v7 M-2.5,-0.5L0,-3.0L2.5,-0.5"/>
                </g>
                <g id="arrowDown" xlink:href="#dirArrow" transform="rotate(180) translate(-30 -48)" onmousedown="handlePan(0,1)">
                  <use xlink:href="#rim" fill="#404040">
                        <set attributeName="fill" to="#808080" begin="arrowDown.mouseover" end="arrowDown.mouseout"/>
                  </use>
                  <path fill="none" stroke="white" stroke-width="1.5" d="M0,-3.0v7 M-2.5,-0.5L0,-3.0L2.5,-0.5"/>
                </g>
                <g id="arrowLeft" xlink:href="#dirArrow" transform="rotate(270) translate(-36 17)" onmousedown="handlePan(-1,0)">
                  <use xlink:href="#rim" fill="#404040">
                        <set attributeName="fill" to="#808080" begin="arrowLeft.mouseover" end="arrowLeft.mouseout"/>
                  </use>
                  <path fill="none" stroke="white" stroke-width="1.5" d="M0,-3.0v7 M-2.5,-0.5L0,-3.0L2.5,-0.5"/>
                </g>
        </g>
        <svg viewBox="0 0 15 15" width="100%" height="30px" preserveAspectRatio="xMaxYMin meet">
         <g id="arrow_out" transform="scale(0.3 0.3)">
          <a xlink:href="ras__set_8cc__incl_org.svg" target="_base">
           <rect id="button" ry="5" rx="5" y="6" x="6" height="38" width="38"
                fill="#f2f5e9" fill-opacity="0.5" stroke="#606060" stroke-width="1.0"/>
           <path id="arrow"
             d="M 11.500037,31.436501 C 11.940474,20.09759 22.043105,11.32322 32.158766,21.979434 L 37.068811,17.246167 C 37.068811,17.246167 37.088388,32 37.088388,32 L 22.160133,31.978069 C 22.160133,31.978069 26.997745,27.140456 26.997745,27.140456 C 18.528582,18.264221 13.291696,25.230495 11.500037,31.436501 z"
             style="fill:#404040;"/>
          </a>
         </g>
        </svg>
</svg>
