<?xml version="1.0" encoding="UTF-8" standalone="no"?>
<!DOCTYPE svg PUBLIC "-//W3C//DTD SVG 1.1//EN"
 "http://www.w3.org/Graphics/SVG/1.1/DTD/svg11.dtd">
<!-- Generated by graphviz version 2.30.1 (20140110.0959)
 -->
<!-- Title: s3v.cc Pages: 1 -->
<!--zoomable 320 -->
<svg id="main" version="1.1" xmlns="http://www.w3.org/2000/svg" xmlns:xlink="http://www.w3.org/1999/xlink" xml:space="preserve" onload="init(evt)">
        <defs>
                <circle id="rim" cx="0" cy="0" r="7"/>
                <circle id="rim2" cx="0" cy="0" r="3.5"/>
                <g id="zoomPlus">
                        <use xlink:href="#rim" fill="#404040">
                                <set attributeName="fill" to="#808080" begin="zoomplus.mouseover" end="zoomplus.mouseout"/>
                        </use>
                        <path d="M-4,0h8M0,-4v8" fill="none" stroke="white" stroke-width="1.5" pointer-events="none"/>
                </g>
                <g id="zoomMin">
                        <use xlink:href="#rim" fill="#404040">
                                <set attributeName="fill" to="#808080" begin="zoomminus.mouseover" end="zoomminus.mouseout"/>
                        </use>
                        <path d="M-4,0h8" fill="none" stroke="white" stroke-width="1.5" pointer-events="none"/>
                </g>
                <g id="dirArrow">
                        <path fill="none" stroke="white" stroke-width="1.5" d="M0,-3.0v7 M-2.5,-0.5L0,-3.0L2.5,-0.5"/>
                </g>
               <g id="resetDef">
                       <use xlink:href="#rim2" fill="#404040">
                               <set attributeName="fill" to="#808080" begin="reset.mouseover" end="reset.mouseout"/>
                       </use>
               </g>
        </defs>

<script type="text/javascript">
var viewWidth = 1483;
var viewHeight = 320;
var sectionId = 'dynsection-0';
</script>
<script xlink:href="svgpan.js"/>
<svg id="graph" class="graph">
<g id="viewport">
<title>s3v.cc</title>
<!-- Node1 -->
<g id="node1" class="node"><title>Node1</title>
<polygon fill="#bfbfbf" stroke="black" points="230,-292.5 230,-311.5 276,-311.5 276,-292.5 230,-292.5"/>
<text text-anchor="middle" x="253" y="-299.5" font-family="Helvetica,sans-Serif" font-size="10.00">s3v.cc</text>
</g>
<!-- Node2 -->
<g id="node2" class="node"><title>Node2</title>
<polygon fill="none" stroke="#bfbfbf" points="156.5,-0.5 156.5,-19.5 199.5,-19.5 199.5,-0.5 156.5,-0.5"/>
<text text-anchor="middle" x="178" y="-7.5" font-family="Helvetica,sans-Serif" font-size="10.00">cstdio</text>
</g>
<!-- Node1&#45;&gt;Node2 -->
<g id="edge1" class="edge"><title>Node1&#45;&gt;Node2</title>
<path fill="none" stroke="midnightblue" d="M229.759,-293.383C192.366,-279.497 123,-246.286 123,-191 123,-191 123,-191 123,-133 123,-97.7513 126.404,-87.6107 142,-56 147.191,-45.4786 155.18,-35.154 162.315,-27.0536"/>
<polygon fill="midnightblue" stroke="midnightblue" points="165.075,-29.2237 169.287,-19.5023 159.932,-24.475 165.075,-29.2237"/>
</g>
<!-- Node3 -->
<g id="node3" class="node"><title>Node3</title>
<polygon fill="none" stroke="#bfbfbf" points="1003.5,-0.5 1003.5,-19.5 1048.5,-19.5 1048.5,-0.5 1003.5,-0.5"/>
<text text-anchor="middle" x="1026" y="-7.5" font-family="Helvetica,sans-Serif" font-size="10.00">cstdlib</text>
</g>
<!-- Node1&#45;&gt;Node3 -->
<g id="edge2" class="edge"><title>Node1&#45;&gt;Node3</title>
<path fill="none" stroke="midnightblue" d="M276.045,-300.199C404.163,-295.446 1023,-268.478 1023,-191 1023,-191 1023,-191 1023,-133 1023,-96.4028 1024.37,-53.649 1025.25,-29.7088"/>
<polygon fill="midnightblue" stroke="midnightblue" points="1028.76,-29.7043 1025.64,-19.5771 1021.76,-29.4351 1028.76,-29.7043"/>
</g>
<!-- Node4 -->
<g id="node4" class="node"><title>Node4</title>
<g id="a_node4"><a xlink:href="libciomr_8h_source.html" target="_top" xlink:title="libciomr/libciomr.h">
<polygon fill="none" stroke="black" points="-0.5,-180.5 -0.5,-199.5 94.5,-199.5 94.5,-180.5 -0.5,-180.5"/>
<text text-anchor="middle" x="47" y="-187.5" font-family="Helvetica,sans-Serif" font-size="10.00">libciomr/libciomr.h</text>
</a>
</g>
</g>
<!-- Node1&#45;&gt;Node4 -->
<g id="edge3" class="edge"><title>Node1&#45;&gt;Node4</title>
<path fill="none" stroke="midnightblue" d="M229.8,-297.464C200.021,-292.127 147.6,-279.983 109,-256 88.8157,-243.459 70.694,-222.819 59.3304,-208.164"/>
<polygon fill="midnightblue" stroke="midnightblue" points="61.9663,-205.845 53.1703,-199.939 56.3634,-210.041 61.9663,-205.845"/>
</g>
<!-- Node5 -->
<g id="node5" class="node"><title>Node5</title>
<g id="a_node5"><a xlink:href="qt_8h.html" target="_top" xlink:title="Header file for the Quantum Trio LibraryDavid Sherrill 1994.">
<polygon fill="none" stroke="black" points="151,-62.5 151,-81.5 205,-81.5 205,-62.5 151,-62.5"/>
<text text-anchor="middle" x="178" y="-69.5" font-family="Helvetica,sans-Serif" font-size="10.00">libqt/qt.h</text>
</a>
</g>
</g>
<!-- Node1&#45;&gt;Node5 -->
<g id="edge5" class="edge"><title>Node1&#45;&gt;Node5</title>
<path fill="none" stroke="midnightblue" d="M245.242,-292.332C230.958,-275.781 200.792,-237.938 188,-200 175.56,-163.106 175.5,-116.899 176.676,-91.6325"/>
<polygon fill="midnightblue" stroke="midnightblue" points="180.173,-91.7935 177.264,-81.6059 173.185,-91.3841 180.173,-91.7935"/>
</g>
<!-- Node7 -->
<g id="node7" class="node"><title>Node7</title>
<g id="a_node7"><a xlink:href="structs_8h.html" target="_top" xlink:title="Enter brief description of file here.">
<polygon fill="none" stroke="black" points="197.5,-180.5 197.5,-199.5 252.5,-199.5 252.5,-180.5 197.5,-180.5"/>
<text text-anchor="middle" x="225" y="-187.5" font-family="Helvetica,sans-Serif" font-size="10.00">structs.h</text>
</a>
</g>
</g>
<!-- Node1&#45;&gt;Node7 -->
<g id="edge8" class="edge"><title>Node1&#45;&gt;Node7</title>
<path fill="none" stroke="midnightblue" d="M250.803,-292.368C246.284,-274.617 235.861,-233.666 229.734,-209.597"/>
<polygon fill="midnightblue" stroke="midnightblue" points="233.046,-208.419 227.187,-199.591 226.262,-210.146 233.046,-208.419"/>
</g>
<!-- Node8 -->
<g id="node8" class="node"><title>Node8</title>
<g id="a_node8"><a xlink:href="detci_2globals_8h.html" target="_top" xlink:title="Enter brief description of file here.">
<polygon fill="none" stroke="black" points="253,-236.5 253,-255.5 309,-255.5 309,-236.5 253,-236.5"/>
<text text-anchor="middle" x="281" y="-243.5" font-family="Helvetica,sans-Serif" font-size="10.00">globals.h</text>
</a>
</g>
</g>
<!-- Node1&#45;&gt;Node8 -->
<g id="edge10" class="edge"><title>Node1&#45;&gt;Node8</title>
<path fill="none" stroke="midnightblue" d="M257.624,-292.083C261.456,-284.691 267.024,-273.953 271.765,-264.811"/>
<polygon fill="midnightblue" stroke="midnightblue" points="274.966,-266.24 276.462,-255.751 268.752,-263.018 274.966,-266.24"/>
</g>
<!-- Node32 -->
<g id="node32" class="node"><title>Node32</title>
<polygon fill="none" stroke="#bfbfbf" points="1051.5,-236.5 1051.5,-255.5 1108.5,-255.5 1108.5,-236.5 1051.5,-236.5"/>
<text text-anchor="middle" x="1080" y="-243.5" font-family="Helvetica,sans-Serif" font-size="10.00">pthread.h</text>
</g>
<!-- Node1&#45;&gt;Node32 -->
<g id="edge46" class="edge"><title>Node1&#45;&gt;Node32</title>
<path fill="none" stroke="midnightblue" d="M276.207,-300.927C371.048,-300.366 738.314,-295.605 1037,-256 1038.46,-255.806 1039.95,-255.589 1041.46,-255.355"/>
<polygon fill="midnightblue" stroke="midnightblue" points="1042.18,-258.782 1051.42,-253.601 1040.97,-251.888 1042.18,-258.782"/>
</g>
<!-- Node33 -->
<g id="node33" class="node"><title>Node33</title>
<g id="a_node33"><a xlink:href="tpool_8h.html" target="_top" xlink:title="Enter brief description of file here.">
<polygon fill="none" stroke="black" points="1127,-236.5 1127,-255.5 1173,-255.5 1173,-236.5 1127,-236.5"/>
<text text-anchor="middle" x="1150" y="-243.5" font-family="Helvetica,sans-Serif" font-size="10.00">tpool.h</text>
</a>
</g>
</g>
<!-- Node1&#45;&gt;Node33 -->
<g id="edge47" class="edge"><title>Node1&#45;&gt;Node33</title>
<path fill="none" stroke="midnightblue" d="M276.072,-300.467C393.729,-297.651 928.305,-283.626 1116.66,-255.581"/>
<polygon fill="midnightblue" stroke="midnightblue" points="1117.36,-259.014 1126.7,-254.018 1116.28,-252.098 1117.36,-259.014"/>
</g>
<!-- Node4&#45;&gt;Node2 -->
<g id="edge4" class="edge"><title>Node4&#45;&gt;Node2</title>
<path fill="none" stroke="midnightblue" d="M49.2359,-180.298C55.4203,-157.606 74.6106,-95.6429 109,-56 120.345,-42.9214 136.391,-32.1489 150.154,-24.4264"/>
<polygon fill="midnightblue" stroke="midnightblue" points="152.062,-27.3757 159.232,-19.5763 148.763,-21.2016 152.062,-27.3757"/>
</g>
<!-- Node5&#45;&gt;Node2 -->
<g id="edge6" class="edge"><title>Node5&#45;&gt;Node2</title>
<path fill="none" stroke="midnightblue" d="M178,-62.4035C178,-53.9381 178,-40.7283 178,-29.8199"/>
<polygon fill="midnightblue" stroke="midnightblue" points="181.5,-29.5806 178,-19.5806 174.5,-29.5806 181.5,-29.5806"/>
</g>
<!-- Node6 -->
<g id="node6" class="node"><title>Node6</title>
<polygon fill="none" stroke="#bfbfbf" points="288.5,-0.5 288.5,-19.5 329.5,-19.5 329.5,-0.5 288.5,-0.5"/>
<text text-anchor="middle" x="309" y="-7.5" font-family="Helvetica,sans-Serif" font-size="10.00">string</text>
</g>
<!-- Node5&#45;&gt;Node6 -->
<g id="edge7" class="edge"><title>Node5&#45;&gt;Node6</title>
<path fill="none" stroke="midnightblue" d="M196.769,-62.4035C218.851,-52.2896 255.719,-35.4036 281.139,-23.761"/>
<polygon fill="midnightblue" stroke="midnightblue" points="282.631,-26.9269 290.266,-19.5806 279.716,-20.5627 282.631,-26.9269"/>
</g>
<!-- Node7&#45;&gt;Node6 -->
<g id="edge9" class="edge"><title>Node7&#45;&gt;Node6</title>
<path fill="none" stroke="midnightblue" d="M225.29,-180.219C226.394,-157.856 231.686,-97.5877 257,-56 264.371,-43.8896 276.093,-33.3317 286.543,-25.4917"/>
<polygon fill="midnightblue" stroke="midnightblue" points="288.763,-28.2085 294.898,-19.5711 284.716,-22.497 288.763,-28.2085"/>
</g>
<!-- Node9 -->
<g id="node9" class="node"><title>Node9</title>
<g id="a_node9"><a xlink:href="psi4-dec_8h_source.html" target="_top" xlink:title="psi4&#45;dec.h">
<polygon fill="none" stroke="black" points="603,-180.5 603,-199.5 665,-199.5 665,-180.5 603,-180.5"/>
<text text-anchor="middle" x="634" y="-187.5" font-family="Helvetica,sans-Serif" font-size="10.00">psi4&#45;dec.h</text>
</a>
</g>
</g>
<!-- Node8&#45;&gt;Node9 -->
<g id="edge11" class="edge"><title>Node8&#45;&gt;Node9</title>
<path fill="none" stroke="midnightblue" d="M309.291,-240.672C371.431,-231.166 520.07,-208.428 592.675,-197.322"/>
<polygon fill="midnightblue" stroke="midnightblue" points="593.46,-200.742 602.816,-195.77 592.401,-193.823 593.46,-200.742"/>
</g>
<!-- Node8&#45;&gt;Node6 -->
<g id="edge45" class="edge"><title>Node8&#45;&gt;Node6</title>
<path fill="none" stroke="midnightblue" d="M282.03,-236.394C286.085,-202.502 301.012,-77.7555 306.741,-29.8798"/>
<polygon fill="midnightblue" stroke="midnightblue" points="310.218,-30.279 307.931,-19.9339 303.268,-29.4472 310.218,-30.279"/>
</g>
<!-- Node10 -->
<g id="node10" class="node"><title>Node10</title>
<polygon fill="none" stroke="#bfbfbf" points="707,-124.5 707,-143.5 815,-143.5 815,-124.5 707,-124.5"/>
<text text-anchor="middle" x="761" y="-131.5" font-family="Helvetica,sans-Serif" font-size="10.00">boost/shared_ptr.hpp</text>
</g>
<!-- Node9&#45;&gt;Node10 -->
<g id="edge12" class="edge"><title>Node9&#45;&gt;Node10</title>
<path fill="none" stroke="midnightblue" d="M654.124,-180.444C675.024,-171.557 707.935,-157.563 731.716,-147.451"/>
<polygon fill="midnightblue" stroke="midnightblue" points="733.138,-150.65 740.971,-143.516 730.398,-144.208 733.138,-150.65"/>
</g>
<!-- Node11 -->
<g id="node11" class="node"><title>Node11</title>
<polygon fill="none" stroke="#bfbfbf" points="1343,-62.5 1343,-81.5 1475,-81.5 1475,-62.5 1343,-62.5"/>
<text text-anchor="middle" x="1409" y="-69.5" font-family="Helvetica,sans-Serif" font-size="10.00">boost/current_function.hpp</text>
</g>
<!-- Node9&#45;&gt;Node11 -->
<g id="edge13" class="edge"><title>Node9&#45;&gt;Node11</title>
<path fill="none" stroke="midnightblue" d="M665.368,-187.856C771.901,-183.779 1119.24,-168.86 1228,-144 1285.2,-130.924 1348.18,-102.867 1382.71,-86.2048"/>
<polygon fill="midnightblue" stroke="midnightblue" points="1384.63,-89.1648 1392.07,-81.6289 1381.55,-82.8759 1384.63,-89.1648"/>
</g>
<!-- Node9&#45;&gt;Node6 -->
<g id="edge14" class="edge"><title>Node9&#45;&gt;Node6</title>
<path fill="none" stroke="midnightblue" d="M602.984,-187.918C556.258,-185.252 465.944,-176.013 397,-144 361.178,-127.367 349.162,-121.348 328,-88 316.731,-70.2418 312.145,-46.2615 310.28,-29.8066"/>
<polygon fill="midnightblue" stroke="midnightblue" points="313.76,-29.4303 309.374,-19.7861 306.788,-30.0606 313.76,-29.4303"/>
</g>
<!-- Node12 -->
<g id="node12" class="node"><title>Node12</title>
<polygon fill="none" stroke="#bfbfbf" points="833.5,-124.5 833.5,-143.5 862.5,-143.5 862.5,-124.5 833.5,-124.5"/>
<text text-anchor="middle" x="848" y="-131.5" font-family="Helvetica,sans-Serif" font-size="10.00">list</text>
</g>
<!-- Node9&#45;&gt;Node12 -->
<g id="edge15" class="edge"><title>Node9&#45;&gt;Node12</title>
<path fill="none" stroke="midnightblue" d="M665.256,-182.862C701.25,-175.519 762.272,-162.23 823.545,-143.817"/>
<polygon fill="midnightblue" stroke="midnightblue" points="824.834,-147.083 833.378,-140.818 822.791,-140.388 824.834,-147.083"/>
</g>
<!-- Node13 -->
<g id="node13" class="node"><title>Node13</title>
<polygon fill="none" stroke="#bfbfbf" points="505.5,-62.5 505.5,-81.5 540.5,-81.5 540.5,-62.5 505.5,-62.5"/>
<text text-anchor="middle" x="523" y="-69.5" font-family="Helvetica,sans-Serif" font-size="10.00">map</text>
</g>
<!-- Node9&#45;&gt;Node13 -->
<g id="edge16" class="edge"><title>Node9&#45;&gt;Node13</title>
<path fill="none" stroke="midnightblue" d="M618.561,-180.404C604.78,-172.235 584.582,-158.997 570,-144 554.277,-127.829 540.6,-105.713 532.116,-90.483"/>
<polygon fill="midnightblue" stroke="midnightblue" points="535.151,-88.7378 527.321,-81.6008 528.992,-92.0631 535.151,-88.7378"/>
</g>
<!-- Node14 -->
<g id="node14" class="node"><title>Node14</title>
<g id="a_node14"><a xlink:href="liboptions_8h_source.html" target="_top" xlink:title="liboptions/liboptions.h">
<polygon fill="none" stroke="black" points="579,-124.5 579,-143.5 689,-143.5 689,-124.5 579,-124.5"/>
<text text-anchor="middle" x="634" y="-131.5" font-family="Helvetica,sans-Serif" font-size="10.00">liboptions/liboptions.h</text>
</a>
</g>
</g>
<!-- Node9&#45;&gt;Node14 -->
<g id="edge17" class="edge"><title>Node9&#45;&gt;Node14</title>
<path fill="none" stroke="midnightblue" d="M634,-180.083C634,-173.006 634,-162.861 634,-153.986"/>
<polygon fill="midnightblue" stroke="midnightblue" points="637.5,-153.751 634,-143.751 630.5,-153.751 637.5,-153.751"/>
</g>
<!-- Node23 -->
<g id="node23" class="node"><title>Node23</title>
<g id="a_node23"><a xlink:href="include_2exception_8h_source.html" target="_top" xlink:title="exception.h">
<polygon fill="none" stroke="black" points="1152.5,-124.5 1152.5,-143.5 1219.5,-143.5 1219.5,-124.5 1152.5,-124.5"/>
<text text-anchor="middle" x="1186" y="-131.5" font-family="Helvetica,sans-Serif" font-size="10.00">exception.h</text>
</a>
</g>
</g>
<!-- Node9&#45;&gt;Node23 -->
<g id="edge32" class="edge"><title>Node9&#45;&gt;Node23</title>
<path fill="none" stroke="midnightblue" d="M665.26,-185.942C758.404,-176.83 1034.28,-149.842 1142.11,-139.294"/>
<polygon fill="midnightblue" stroke="midnightblue" points="1142.7,-142.753 1152.31,-138.296 1142.01,-135.786 1142.7,-142.753"/>
</g>
<!-- Node28 -->
<g id="node28" class="node"><title>Node28</title>
<g id="a_node28"><a xlink:href="typedefs_8h_source.html" target="_top" xlink:title="libmints/typedefs.h">
<polygon fill="none" stroke="black" points="406.5,-124.5 406.5,-143.5 505.5,-143.5 505.5,-124.5 406.5,-124.5"/>
<text text-anchor="middle" x="456" y="-131.5" font-family="Helvetica,sans-Serif" font-size="10.00">libmints/typedefs.h</text>
</a>
</g>
</g>
<!-- Node9&#45;&gt;Node28 -->
<g id="edge38" class="edge"><title>Node9&#45;&gt;Node28</title>
<path fill="none" stroke="midnightblue" d="M605.795,-180.444C575.59,-171.28 527.489,-156.688 493.971,-146.519"/>
<polygon fill="midnightblue" stroke="midnightblue" points="494.658,-143.07 484.073,-143.516 492.626,-149.769 494.658,-143.07"/>
</g>
<!-- Node14&#45;&gt;Node6 -->
<g id="edge18" class="edge"><title>Node14&#45;&gt;Node6</title>
<path fill="none" stroke="midnightblue" d="M625.157,-124.481C605.251,-105.38 557.962,-60.4483 549,-56 512.524,-37.8959 395.629,-21.621 339.561,-14.6259"/>
<polygon fill="midnightblue" stroke="midnightblue" points="339.869,-11.1374 329.517,-13.391 339.015,-18.0851 339.869,-11.1374"/>
</g>
<!-- Node15 -->
<g id="node15" class="node"><title>Node15</title>
<polygon fill="none" stroke="#bfbfbf" points="645,-0.5 645,-19.5 689,-19.5 689,-0.5 645,-0.5"/>
<text text-anchor="middle" x="667" y="-7.5" font-family="Helvetica,sans-Serif" font-size="10.00">vector</text>
</g>
<!-- Node14&#45;&gt;Node15 -->
<g id="edge19" class="edge"><title>Node14&#45;&gt;Node15</title>
<path fill="none" stroke="midnightblue" d="M647.064,-124.436C657.914,-116.471 672.573,-103.515 679,-88 686.9,-68.9284 681.12,-45.2381 675.161,-29.2093"/>
<polygon fill="midnightblue" stroke="midnightblue" points="678.383,-27.8416 671.361,-19.9081 671.903,-30.4891 678.383,-27.8416"/>
</g>
<!-- Node14&#45;&gt;Node13 -->
<g id="edge20" class="edge"><title>Node14&#45;&gt;Node13</title>
<path fill="none" stroke="midnightblue" d="M618.096,-124.403C599.715,-114.468 569.244,-97.9966 547.755,-86.3812"/>
<polygon fill="midnightblue" stroke="midnightblue" points="549.335,-83.2568 538.874,-81.5806 546.007,-89.4148 549.335,-83.2568"/>
</g>
<!-- Node16 -->
<g id="node16" class="node"><title>Node16</title>
<polygon fill="none" stroke="#bfbfbf" points="727.5,-62.5 727.5,-81.5 794.5,-81.5 794.5,-62.5 727.5,-62.5"/>
<text text-anchor="middle" x="761" y="-69.5" font-family="Helvetica,sans-Serif" font-size="10.00">exception.h</text>
</g>
<!-- Node14&#45;&gt;Node16 -->
<g id="edge21" class="edge"><title>Node14&#45;&gt;Node16</title>
<path fill="none" stroke="midnightblue" d="M652.196,-124.403C673.509,-114.334 709.031,-97.5522 733.663,-85.9151"/>
<polygon fill="midnightblue" stroke="midnightblue" points="735.291,-89.0169 742.838,-81.5806 732.301,-82.6877 735.291,-89.0169"/>
</g>
<!-- Node17 -->
<g id="node17" class="node"><title>Node17</title>
<g id="a_node17"><a xlink:href="libutil_8h_source.html" target="_top" xlink:title="libutil/libutil.h">
<polygon fill="none" stroke="black" points="597.5,-62.5 597.5,-81.5 670.5,-81.5 670.5,-62.5 597.5,-62.5"/>
<text text-anchor="middle" x="634" y="-69.5" font-family="Helvetica,sans-Serif" font-size="10.00">libutil/libutil.h</text>
</a>
</g>
</g>
<!-- Node14&#45;&gt;Node17 -->
<g id="edge22" class="edge"><title>Node14&#45;&gt;Node17</title>
<path fill="none" stroke="midnightblue" d="M634,-124.403C634,-115.938 634,-102.728 634,-91.8199"/>
<polygon fill="midnightblue" stroke="midnightblue" points="637.5,-91.5806 634,-81.5806 630.5,-91.5806 637.5,-91.5806"/>
</g>
<!-- Node19 -->
<g id="node19" class="node"><title>Node19</title>
<g id="a_node19"><a xlink:href="libutil_2ref_8h_source.html" target="_top" xlink:title="libutil/ref.h">
<polygon fill="none" stroke="black" points="933,-62.5 933,-81.5 995,-81.5 995,-62.5 933,-62.5"/>
<text text-anchor="middle" x="964" y="-69.5" font-family="Helvetica,sans-Serif" font-size="10.00">libutil/ref.h</text>
</a>
</g>
</g>
<!-- Node14&#45;&gt;Node19 -->
<g id="edge26" class="edge"><title>Node14&#45;&gt;Node19</title>
<path fill="none" stroke="midnightblue" d="M689.314,-125.041C767.087,-113.754 901.791,-93.8215 924,-88 927.228,-87.1537 930.558,-86.1415 933.853,-85.0478"/>
<polygon fill="midnightblue" stroke="midnightblue" points="935.257,-88.263 943.5,-81.6068 932.906,-81.6698 935.257,-88.263"/>
</g>
<!-- Node22 -->
<g id="node22" class="node"><title>Node22</title>
<polygon fill="none" stroke="#bfbfbf" points="813,-57 813,-87 915,-87 915,-57 813,-57"/>
<text text-anchor="start" x="821" y="-75" font-family="Helvetica,sans-Serif" font-size="10.00">boost/python/object</text>
<text text-anchor="middle" x="864" y="-64" font-family="Helvetica,sans-Serif" font-size="10.00">_fwd.hpp</text>
</g>
<!-- Node14&#45;&gt;Node22 -->
<g id="edge31" class="edge"><title>Node14&#45;&gt;Node22</title>
<path fill="none" stroke="midnightblue" d="M666.953,-124.403C702.331,-115.175 759.324,-100.307 802.937,-88.9295"/>
<polygon fill="midnightblue" stroke="midnightblue" points="804.076,-92.2496 812.869,-86.3386 802.309,-85.4763 804.076,-92.2496"/>
</g>
<!-- Node17&#45;&gt;Node6 -->
<g id="edge23" class="edge"><title>Node17&#45;&gt;Node6</title>
<path fill="none" stroke="midnightblue" d="M607.166,-62.4339C599.419,-60.1446 590.918,-57.8074 583,-56 495.685,-36.0694 390.794,-21.3666 339.825,-14.8007"/>
<polygon fill="midnightblue" stroke="midnightblue" points="340.154,-11.3146 329.792,-13.5242 339.271,-18.2586 340.154,-11.3146"/>
</g>
<!-- Node17&#45;&gt;Node15 -->
<g id="edge24" class="edge"><title>Node17&#45;&gt;Node15</title>
<path fill="none" stroke="midnightblue" d="M638.728,-62.4035C643.58,-53.5816 651.266,-39.6075 657.4,-28.4548"/>
<polygon fill="midnightblue" stroke="midnightblue" points="660.528,-30.0295 662.281,-19.5806 654.395,-26.656 660.528,-30.0295"/>
</g>
<!-- Node18 -->
<g id="node18" class="node"><title>Node18</title>
<polygon fill="none" stroke="#bfbfbf" points="565,-0.5 565,-19.5 627,-19.5 627,-0.5 565,-0.5"/>
<text text-anchor="middle" x="596" y="-7.5" font-family="Helvetica,sans-Serif" font-size="10.00">sys/time.h</text>
</g>
<!-- Node17&#45;&gt;Node18 -->
<g id="edge25" class="edge"><title>Node17&#45;&gt;Node18</title>
<path fill="none" stroke="midnightblue" d="M628.556,-62.4035C622.912,-53.4925 613.939,-39.3247 606.841,-28.1177"/>
<polygon fill="midnightblue" stroke="midnightblue" points="609.742,-26.1561 601.434,-19.5806 603.828,-29.9015 609.742,-26.1561"/>
</g>
<!-- Node20 -->
<g id="node20" class="node"><title>Node20</title>
<polygon fill="none" stroke="#bfbfbf" points="936.5,-0.5 936.5,-19.5 985.5,-19.5 985.5,-0.5 936.5,-0.5"/>
<text text-anchor="middle" x="961" y="-7.5" font-family="Helvetica,sans-Serif" font-size="10.00">cstddef</text>
</g>
<!-- Node19&#45;&gt;Node20 -->
<g id="edge27" class="edge"><title>Node19&#45;&gt;Node20</title>
<path fill="none" stroke="midnightblue" d="M963.57,-62.4035C963.147,-53.9381 962.486,-40.7283 961.941,-29.8199"/>
<polygon fill="midnightblue" stroke="midnightblue" points="965.424,-29.3933 961.429,-19.5806 958.433,-29.7429 965.424,-29.3933"/>
</g>
<!-- Node19&#45;&gt;Node2 -->
<g id="edge28" class="edge"><title>Node19&#45;&gt;Node2</title>
<path fill="none" stroke="midnightblue" d="M944.821,-62.4631C938.335,-59.9408 930.968,-57.4652 924,-56 643.032,3.08283 565.362,-40.7445 279,-20 255.782,-18.3181 229.602,-15.9724 209.715,-14.0974"/>
<polygon fill="midnightblue" stroke="midnightblue" points="209.942,-10.6034 199.655,-13.1387 209.278,-17.5718 209.942,-10.6034"/>
</g>
<!-- Node19&#45;&gt;Node3 -->
<g id="edge29" class="edge"><title>Node19&#45;&gt;Node3</title>
<path fill="none" stroke="midnightblue" d="M972.883,-62.4035C982.459,-53.1361 997.911,-38.1828 1009.69,-26.7876"/>
<polygon fill="midnightblue" stroke="midnightblue" points="1012.38,-29.05 1017.13,-19.5806 1007.51,-24.0197 1012.38,-29.05"/>
</g>
<!-- Node21 -->
<g id="node21" class="node"><title>Node21</title>
<polygon fill="none" stroke="#bfbfbf" points="866,-0.5 866,-19.5 918,-19.5 918,-0.5 866,-0.5"/>
<text text-anchor="middle" x="892" y="-7.5" font-family="Helvetica,sans-Serif" font-size="10.00">assert.h</text>
</g>
<!-- Node19&#45;&gt;Node21 -->
<g id="edge30" class="edge"><title>Node19&#45;&gt;Node21</title>
<path fill="none" stroke="midnightblue" d="M953.684,-62.4035C942.349,-52.9579 923.927,-37.6056 910.161,-26.1342"/>
<polygon fill="midnightblue" stroke="midnightblue" points="912.22,-23.2937 902.297,-19.5806 907.738,-28.6713 912.22,-23.2937"/>
</g>
<!-- Node24 -->
<g id="node24" class="node"><title>Node24</title>
<polygon fill="none" stroke="#bfbfbf" points="1118.5,-62.5 1118.5,-81.5 1177.5,-81.5 1177.5,-62.5 1118.5,-62.5"/>
<text text-anchor="middle" x="1148" y="-69.5" font-family="Helvetica,sans-Serif" font-size="10.00">exception</text>
</g>
<!-- Node23&#45;&gt;Node24 -->
<g id="edge33" class="edge"><title>Node23&#45;&gt;Node24</title>
<path fill="none" stroke="midnightblue" d="M1180.56,-124.403C1174.91,-115.493 1165.94,-101.325 1158.84,-90.1177"/>
<polygon fill="midnightblue" stroke="midnightblue" points="1161.74,-88.1561 1153.43,-81.5806 1155.83,-91.9015 1161.74,-88.1561"/>
</g>
<!-- Node25 -->
<g id="node25" class="node"><title>Node25</title>
<polygon fill="none" stroke="#bfbfbf" points="1195.5,-62.5 1195.5,-81.5 1254.5,-81.5 1254.5,-62.5 1195.5,-62.5"/>
<text text-anchor="middle" x="1225" y="-69.5" font-family="Helvetica,sans-Serif" font-size="10.00">stdexcept</text>
</g>
<!-- Node23&#45;&gt;Node25 -->
<g id="edge34" class="edge"><title>Node23&#45;&gt;Node25</title>
<path fill="none" stroke="midnightblue" d="M1191.59,-124.403C1197.38,-115.493 1206.59,-101.325 1213.87,-90.1177"/>
<polygon fill="midnightblue" stroke="midnightblue" points="1216.91,-91.8725 1219.42,-81.5806 1211.04,-88.0576 1216.91,-91.8725"/>
</g>
<!-- Node26 -->
<g id="node26" class="node"><title>Node26</title>
<polygon fill="none" stroke="#bfbfbf" points="1273,-62.5 1273,-81.5 1325,-81.5 1325,-62.5 1273,-62.5"/>
<text text-anchor="middle" x="1299" y="-69.5" font-family="Helvetica,sans-Serif" font-size="10.00">sstream</text>
</g>
<!-- Node23&#45;&gt;Node26 -->
<g id="edge35" class="edge"><title>Node23&#45;&gt;Node26</title>
<path fill="none" stroke="midnightblue" d="M1202.19,-124.403C1220.9,-114.468 1251.92,-97.9966 1273.8,-86.3812"/>
<polygon fill="midnightblue" stroke="midnightblue" points="1275.65,-89.3616 1282.84,-81.5806 1272.37,-83.179 1275.65,-89.3616"/>
</g>
<!-- Node27 -->
<g id="node27" class="node"><title>Node27</title>
<polygon fill="none" stroke="#bfbfbf" points="1051.5,-62.5 1051.5,-81.5 1100.5,-81.5 1100.5,-62.5 1051.5,-62.5"/>
<text text-anchor="middle" x="1076" y="-69.5" font-family="Helvetica,sans-Serif" font-size="10.00">string.h</text>
</g>
<!-- Node23&#45;&gt;Node27 -->
<g id="edge36" class="edge"><title>Node23&#45;&gt;Node27</title>
<path fill="none" stroke="midnightblue" d="M1170.24,-124.403C1152.02,-114.468 1121.83,-97.9966 1100.53,-86.3812"/>
<polygon fill="midnightblue" stroke="midnightblue" points="1102.19,-83.2965 1091.73,-81.5806 1098.83,-89.4418 1102.19,-83.2965"/>
</g>
<!-- Node23&#45;&gt;Node11 -->
<g id="edge37" class="edge"><title>Node23&#45;&gt;Node11</title>
<path fill="none" stroke="midnightblue" d="M1217.95,-124.403C1257.28,-113.822 1324.16,-95.8269 1367.45,-84.1802"/>
<polygon fill="midnightblue" stroke="midnightblue" points="1368.36,-87.5586 1377.11,-81.5806 1366.54,-80.799 1368.36,-87.5586"/>
</g>
<!-- Node29 -->
<g id="node29" class="node"><title>Node29</title>
<g id="a_node29"><a xlink:href="compiler_8h_source.html" target="_top" xlink:title="compiler.h">
<polygon fill="none" stroke="black" points="425,-62.5 425,-81.5 487,-81.5 487,-62.5 425,-62.5"/>
<text text-anchor="middle" x="456" y="-69.5" font-family="Helvetica,sans-Serif" font-size="10.00">compiler.h</text>
</a>
</g>
</g>
<!-- Node28&#45;&gt;Node29 -->
<g id="edge39" class="edge"><title>Node28&#45;&gt;Node29</title>
<path fill="none" stroke="midnightblue" d="M456,-124.403C456,-115.938 456,-102.728 456,-91.8199"/>
<polygon fill="midnightblue" stroke="midnightblue" points="459.5,-91.5806 456,-81.5806 452.5,-91.5806 459.5,-91.5806"/>
</g>
<!-- Node31 -->
<g id="node31" class="node"><title>Node31</title>
<g id="a_node31"><a xlink:href="dimension_8h_source.html" target="_top" xlink:title="dimension.h">
<polygon fill="none" stroke="black" points="337.5,-62.5 337.5,-81.5 406.5,-81.5 406.5,-62.5 337.5,-62.5"/>
<text text-anchor="middle" x="372" y="-69.5" font-family="Helvetica,sans-Serif" font-size="10.00">dimension.h</text>
</a>
</g>
</g>
<!-- Node28&#45;&gt;Node31 -->
<g id="edge41" class="edge"><title>Node28&#45;&gt;Node31</title>
<path fill="none" stroke="midnightblue" d="M443.965,-124.403C430.492,-114.78 408.434,-99.0242 392.285,-87.4891"/>
<polygon fill="midnightblue" stroke="midnightblue" points="394.185,-84.5449 384.013,-81.5806 390.116,-90.2411 394.185,-84.5449"/>
</g>
<!-- Node30 -->
<g id="node30" class="node"><title>Node30</title>
<polygon fill="none" stroke="#bfbfbf" points="424,-0.5 424,-19.5 488,-19.5 488,-0.5 424,-0.5"/>
<text text-anchor="middle" x="456" y="-7.5" font-family="Helvetica,sans-Serif" font-size="10.00">psiconfig.h</text>
</g>
<!-- Node29&#45;&gt;Node30 -->
<g id="edge40" class="edge"><title>Node29&#45;&gt;Node30</title>
<path fill="none" stroke="midnightblue" d="M456,-62.4035C456,-53.9381 456,-40.7283 456,-29.8199"/>
<polygon fill="midnightblue" stroke="midnightblue" points="459.5,-29.5806 456,-19.5806 452.5,-29.5806 459.5,-29.5806"/>
</g>
<!-- Node31&#45;&gt;Node6 -->
<g id="edge42" class="edge"><title>Node31&#45;&gt;Node6</title>
<path fill="none" stroke="midnightblue" d="M362.974,-62.4035C353.243,-53.1361 337.542,-38.1828 325.577,-26.7876"/>
<polygon fill="midnightblue" stroke="midnightblue" points="327.665,-23.9427 318.01,-19.5806 322.837,-29.0117 327.665,-23.9427"/>
</g>
<!-- Node31&#45;&gt;Node2 -->
<g id="edge43" class="edge"><title>Node31&#45;&gt;Node2</title>
<path fill="none" stroke="midnightblue" d="M344.205,-62.4035C308.579,-51.3853 246.967,-32.33 209.598,-20.7725"/>
<polygon fill="midnightblue" stroke="midnightblue" points="210.33,-17.3354 199.742,-17.7244 208.262,-24.0229 210.33,-17.3354"/>
</g>
<!-- Node31&#45;&gt;Node15 -->
<g id="edge44" class="edge"><title>Node31&#45;&gt;Node15</title>
<path fill="none" stroke="midnightblue" d="M394.621,-62.484C401.424,-60.1422 408.954,-57.7645 416,-56 509.013,-32.7074 537.534,-41.2475 634.784,-20.033"/>
<polygon fill="midnightblue" stroke="midnightblue" points="635.735,-23.4069 644.732,-17.8124 634.21,-16.575 635.735,-23.4069"/>
</g>
</g>
</svg>
        <g id="navigator" transform="translate(0 0)" fill="#404254">
                <rect fill="#f2f5e9" fill-opacity="0.5" stroke="#606060" stroke-width=".5" x="0" y="0" width="60" height="60"/>
                <use id="zoomplus" xlink:href="#zoomPlus" x="17" y="9" onmousedown="handleZoom(evt,'in')"/>
                <use id="zoomminus" xlink:href="#zoomMin" x="42" y="9" onmousedown="handleZoom(evt,'out')"/>
                <use id="reset" xlink:href="#resetDef" x="30" y="36" onmousedown="handleReset()"/>
                <g id="arrowUp" xlink:href="#dirArrow" transform="translate(30 24)" onmousedown="handlePan(0,-1)">
                  <use xlink:href="#rim" fill="#404040">
                        <set attributeName="fill" to="#808080" begin="arrowUp.mouseover" end="arrowUp.mouseout"/>
                  </use>
                  <path fill="none" stroke="white" stroke-width="1.5" d="M0,-3.0v7 M-2.5,-0.5L0,-3.0L2.5,-0.5"/>
                </g>
                <g id="arrowRight" xlink:href="#dirArrow" transform="rotate(90) translate(36 -43)" onmousedown="handlePan(1,0)">
                  <use xlink:href="#rim" fill="#404040">
                        <set attributeName="fill" to="#808080" begin="arrowRight.mouseover" end="arrowRight.mouseout"/>
                  </use>
                  <path fill="none" stroke="white" stroke-width="1.5" d="M0,-3.0v7 M-2.5,-0.5L0,-3.0L2.5,-0.5"/>
                </g>
                <g id="arrowDown" xlink:href="#dirArrow" transform="rotate(180) translate(-30 -48)" onmousedown="handlePan(0,1)">
                  <use xlink:href="#rim" fill="#404040">
                        <set attributeName="fill" to="#808080" begin="arrowDown.mouseover" end="arrowDown.mouseout"/>
                  </use>
                  <path fill="none" stroke="white" stroke-width="1.5" d="M0,-3.0v7 M-2.5,-0.5L0,-3.0L2.5,-0.5"/>
                </g>
                <g id="arrowLeft" xlink:href="#dirArrow" transform="rotate(270) translate(-36 17)" onmousedown="handlePan(-1,0)">
                  <use xlink:href="#rim" fill="#404040">
                        <set attributeName="fill" to="#808080" begin="arrowLeft.mouseover" end="arrowLeft.mouseout"/>
                  </use>
                  <path fill="none" stroke="white" stroke-width="1.5" d="M0,-3.0v7 M-2.5,-0.5L0,-3.0L2.5,-0.5"/>
                </g>
        </g>
        <svg viewBox="0 0 15 15" width="100%" height="30px" preserveAspectRatio="xMaxYMin meet">
         <g id="arrow_out" transform="scale(0.3 0.3)">
          <a xlink:href="s3v_8cc__incl_org.svg" target="_base">
           <rect id="button" ry="5" rx="5" y="6" x="6" height="38" width="38"
                fill="#f2f5e9" fill-opacity="0.5" stroke="#606060" stroke-width="1.0"/>
           <path id="arrow"
             d="M 11.500037,31.436501 C 11.940474,20.09759 22.043105,11.32322 32.158766,21.979434 L 37.068811,17.246167 C 37.068811,17.246167 37.088388,32 37.088388,32 L 22.160133,31.978069 C 22.160133,31.978069 26.997745,27.140456 26.997745,27.140456 C 18.528582,18.264221 13.291696,25.230495 11.500037,31.436501 z"
             style="fill:#404040;"/>
          </a>
         </g>
        </svg>
</svg>
