<?xml version="1.0" encoding="UTF-8" standalone="no"?>
<!DOCTYPE svg PUBLIC "-//W3C//DTD SVG 1.1//EN"
 "http://www.w3.org/Graphics/SVG/1.1/DTD/svg11.dtd">
<!-- Generated by graphviz version 2.30.1 (20140110.0959)
 -->
<!-- Title: semicanonical.cc Pages: 1 -->
<svg width="881pt" height="196pt"
 viewBox="0.00 0.00 881.00 196.00" xmlns="http://www.w3.org/2000/svg" xmlns:xlink="http://www.w3.org/1999/xlink">
<g id="graph0" class="graph" transform="scale(1 1) rotate(0) translate(4 192)">
<title>semicanonical.cc</title>
<!-- Node1 -->
<g id="node1" class="node"><title>Node1</title>
<polygon fill="#bfbfbf" stroke="black" points="406,-168.5 406,-187.5 498,-187.5 498,-168.5 406,-168.5"/>
<text text-anchor="middle" x="452" y="-175.5" font-family="Helvetica,sans-Serif" font-size="10.00">semicanonical.cc</text>
</g>
<!-- Node2 -->
<g id="node2" class="node"><title>Node2</title>
<polygon fill="none" stroke="#bfbfbf" points="267.5,-0.5 267.5,-19.5 310.5,-19.5 310.5,-0.5 267.5,-0.5"/>
<text text-anchor="middle" x="289" y="-7.5" font-family="Helvetica,sans-Serif" font-size="10.00">cstdio</text>
</g>
<!-- Node1&#45;&gt;Node2 -->
<g id="edge1" class="edge"><title>Node1&#45;&gt;Node2</title>
<path fill="none" stroke="midnightblue" d="M410.761,-168.469C387.765,-161.875 360.015,-150.625 341,-132 311.831,-103.429 298.054,-55.8413 292.388,-29.6693"/>
<polygon fill="midnightblue" stroke="midnightblue" points="295.766,-28.7129 290.382,-19.5882 288.901,-30.079 295.766,-28.7129"/>
</g>
<!-- Node3 -->
<g id="node3" class="node"><title>Node3</title>
<polygon fill="none" stroke="#bfbfbf" points="499.5,-112.5 499.5,-131.5 544.5,-131.5 544.5,-112.5 499.5,-112.5"/>
<text text-anchor="middle" x="522" y="-119.5" font-family="Helvetica,sans-Serif" font-size="10.00">cstdlib</text>
</g>
<!-- Node1&#45;&gt;Node3 -->
<g id="edge2" class="edge"><title>Node1&#45;&gt;Node3</title>
<path fill="none" stroke="midnightblue" d="M463.247,-168.324C473.797,-160.185 489.801,-147.839 502.442,-138.087"/>
<polygon fill="midnightblue" stroke="midnightblue" points="504.769,-140.713 510.549,-131.834 500.493,-135.171 504.769,-140.713"/>
</g>
<!-- Node4 -->
<g id="node4" class="node"><title>Node4</title>
<g id="a_node4"><a xlink:href="libciomr_8h_source.html" target="_top" xlink:title="libciomr/libciomr.h">
<polygon fill="none" stroke="black" points="96.5,-56.5 96.5,-75.5 191.5,-75.5 191.5,-56.5 96.5,-56.5"/>
<text text-anchor="middle" x="144" y="-63.5" font-family="Helvetica,sans-Serif" font-size="10.00">libciomr/libciomr.h</text>
</a>
</g>
</g>
<!-- Node1&#45;&gt;Node4 -->
<g id="edge3" class="edge"><title>Node1&#45;&gt;Node4</title>
<path fill="none" stroke="midnightblue" d="M405.918,-176.784C354.521,-174.736 270.296,-165.87 207,-132 185.657,-120.579 167.19,-99.3703 155.865,-84.2865"/>
<polygon fill="midnightblue" stroke="midnightblue" points="158.458,-81.8984 149.774,-75.8286 152.778,-85.9889 158.458,-81.8984"/>
</g>
<!-- Node5 -->
<g id="node5" class="node"><title>Node5</title>
<g id="a_node5"><a xlink:href="psio_8h_source.html" target="_top" xlink:title="libpsio/psio.h">
<polygon fill="none" stroke="black" points="4,-56.5 4,-75.5 78,-75.5 78,-56.5 4,-56.5"/>
<text text-anchor="middle" x="41" y="-63.5" font-family="Helvetica,sans-Serif" font-size="10.00">libpsio/psio.h</text>
</a>
</g>
</g>
<!-- Node1&#45;&gt;Node5 -->
<g id="edge5" class="edge"><title>Node1&#45;&gt;Node5</title>
<path fill="none" stroke="midnightblue" d="M405.516,-173.361C350.264,-168.128 255.761,-156.301 178,-132 136.375,-118.992 91.2541,-95.6011 64.5917,-80.7118"/>
<polygon fill="midnightblue" stroke="midnightblue" points="66.071,-77.5273 55.6445,-75.6459 62.622,-83.6187 66.071,-77.5273"/>
</g>
<!-- Node7 -->
<g id="node7" class="node"><title>Node7</title>
<g id="a_node7"><a xlink:href="qt_8h.html" target="_top" xlink:title="Header file for the Quantum Trio LibraryDavid Sherrill 1994.">
<polygon fill="none" stroke="black" points="350,-112.5 350,-131.5 404,-131.5 404,-112.5 350,-112.5"/>
<text text-anchor="middle" x="377" y="-119.5" font-family="Helvetica,sans-Serif" font-size="10.00">libqt/qt.h</text>
</a>
</g>
</g>
<!-- Node1&#45;&gt;Node7 -->
<g id="edge8" class="edge"><title>Node1&#45;&gt;Node7</title>
<path fill="none" stroke="midnightblue" d="M439.95,-168.324C428.537,-160.107 411.169,-147.602 397.565,-137.807"/>
<polygon fill="midnightblue" stroke="midnightblue" points="399.43,-134.837 389.269,-131.834 395.34,-140.517 399.43,-134.837"/>
</g>
<!-- Node9 -->
<g id="node9" class="node"><title>Node9</title>
<g id="a_node9"><a xlink:href="iwl_8h_source.html" target="_top" xlink:title="libiwl/iwl.h">
<polygon fill="none" stroke="black" points="216,-112.5 216,-131.5 278,-131.5 278,-112.5 216,-112.5"/>
<text text-anchor="middle" x="247" y="-119.5" font-family="Helvetica,sans-Serif" font-size="10.00">libiwl/iwl.h</text>
</a>
</g>
</g>
<!-- Node1&#45;&gt;Node9 -->
<g id="edge11" class="edge"><title>Node1&#45;&gt;Node9</title>
<path fill="none" stroke="midnightblue" d="M419.517,-168.444C383.969,-159.08 326.9,-144.047 288.222,-133.859"/>
<polygon fill="midnightblue" stroke="midnightblue" points="288.884,-130.414 278.322,-131.251 287.101,-137.183 288.884,-130.414"/>
</g>
<!-- Node11 -->
<g id="node11" class="node"><title>Node11</title>
<g id="a_node11"><a xlink:href="chkpt_8h_source.html" target="_top" xlink:title="libchkpt/chkpt.h">
<polygon fill="none" stroke="black" points="563,-112.5 563,-131.5 649,-131.5 649,-112.5 563,-112.5"/>
<text text-anchor="middle" x="606" y="-119.5" font-family="Helvetica,sans-Serif" font-size="10.00">libchkpt/chkpt.h</text>
</a>
</g>
</g>
<!-- Node1&#45;&gt;Node11 -->
<g id="edge15" class="edge"><title>Node1&#45;&gt;Node11</title>
<path fill="none" stroke="midnightblue" d="M476.402,-168.444C502.197,-159.399 543.077,-145.064 572.018,-134.916"/>
<polygon fill="midnightblue" stroke="midnightblue" points="573.434,-138.128 581.712,-131.516 571.118,-131.523 573.434,-138.128"/>
</g>
<!-- Node12 -->
<g id="node12" class="node"><title>Node12</title>
<g id="a_node12"><a xlink:href="psifiles_8h_source.html" target="_top" xlink:title="psifiles.h">
<polygon fill="none" stroke="black" points="667,-112.5 667,-131.5 723,-131.5 723,-112.5 667,-112.5"/>
<text text-anchor="middle" x="695" y="-119.5" font-family="Helvetica,sans-Serif" font-size="10.00">psifiles.h</text>
</a>
</g>
</g>
<!-- Node1&#45;&gt;Node12 -->
<g id="edge16" class="edge"><title>Node1&#45;&gt;Node12</title>
<path fill="none" stroke="midnightblue" d="M492.325,-168.484C531.789,-160.086 593.866,-146.701 656.655,-132.272"/>
<polygon fill="midnightblue" stroke="midnightblue" points="657.777,-135.605 666.735,-129.948 656.204,-128.784 657.777,-135.605"/>
</g>
<!-- Node13 -->
<g id="node13" class="node"><title>Node13</title>
<g id="a_node13"><a xlink:href="transqt_2MOInfo_8h.html" target="_top" xlink:title="MOInfo structure.">
<polygon fill="none" stroke="black" points="741.5,-112.5 741.5,-131.5 798.5,-131.5 798.5,-112.5 741.5,-112.5"/>
<text text-anchor="middle" x="770" y="-119.5" font-family="Helvetica,sans-Serif" font-size="10.00">MOInfo.h</text>
</a>
</g>
</g>
<!-- Node1&#45;&gt;Node13 -->
<g id="edge17" class="edge"><title>Node1&#45;&gt;Node13</title>
<path fill="none" stroke="midnightblue" d="M498.263,-170.624C551.923,-162.994 643.244,-149.285 731.504,-131.969"/>
<polygon fill="midnightblue" stroke="midnightblue" points="732.285,-135.383 741.415,-130.007 730.926,-128.516 732.285,-135.383"/>
</g>
<!-- Node14 -->
<g id="node14" class="node"><title>Node14</title>
<g id="a_node14"><a xlink:href="transqt_2Params_8h.html" target="_top" xlink:title="Enter brief description of file here.">
<polygon fill="none" stroke="black" points="422.5,-112.5 422.5,-131.5 481.5,-131.5 481.5,-112.5 422.5,-112.5"/>
<text text-anchor="middle" x="452" y="-119.5" font-family="Helvetica,sans-Serif" font-size="10.00">Params.h</text>
</a>
</g>
</g>
<!-- Node1&#45;&gt;Node14 -->
<g id="edge18" class="edge"><title>Node1&#45;&gt;Node14</title>
<path fill="none" stroke="midnightblue" d="M452,-168.083C452,-161.006 452,-150.861 452,-141.986"/>
<polygon fill="midnightblue" stroke="midnightblue" points="455.5,-141.751 452,-131.751 448.5,-141.751 455.5,-141.751"/>
</g>
<!-- Node15 -->
<g id="node15" class="node"><title>Node15</title>
<g id="a_node15"><a xlink:href="transqt_2globals_8h.html" target="_top" xlink:title="Enter brief description of file here.">
<polygon fill="none" stroke="black" points="817,-112.5 817,-131.5 873,-131.5 873,-112.5 817,-112.5"/>
<text text-anchor="middle" x="845" y="-119.5" font-family="Helvetica,sans-Serif" font-size="10.00">globals.h</text>
</a>
</g>
</g>
<!-- Node1&#45;&gt;Node15 -->
<g id="edge20" class="edge"><title>Node1&#45;&gt;Node15</title>
<path fill="none" stroke="midnightblue" d="M498.193,-172.73C566.162,-166.09 696.968,-151.945 807,-132 807.1,-131.982 807.2,-131.964 807.301,-131.945"/>
<polygon fill="midnightblue" stroke="midnightblue" points="807.738,-135.428 816.848,-130.02 806.354,-128.566 807.738,-135.428"/>
</g>
<!-- Node4&#45;&gt;Node2 -->
<g id="edge4" class="edge"><title>Node4&#45;&gt;Node2</title>
<path fill="none" stroke="midnightblue" d="M166.976,-56.4435C191.441,-47.3322 230.32,-32.8531 257.602,-22.6929"/>
<polygon fill="midnightblue" stroke="midnightblue" points="258.931,-25.9329 267.081,-19.1629 256.488,-19.3731 258.931,-25.9329"/>
</g>
<!-- Node5&#45;&gt;Node2 -->
<g id="edge6" class="edge"><title>Node5&#45;&gt;Node2</title>
<path fill="none" stroke="midnightblue" d="M78.1281,-56.9157C126.893,-46.2975 211.68,-27.8358 257.48,-17.8631"/>
<polygon fill="midnightblue" stroke="midnightblue" points="258.412,-21.2424 267.438,-15.6949 256.922,-14.4027 258.412,-21.2424"/>
</g>
<!-- Node6 -->
<g id="node6" class="node"><title>Node6</title>
<g id="a_node6"><a xlink:href="libpsio_2config_8h_source.html" target="_top" xlink:title="libpsio/config.h">
<polygon fill="none" stroke="black" points="0,-0.5 0,-19.5 82,-19.5 82,-0.5 0,-0.5"/>
<text text-anchor="middle" x="41" y="-7.5" font-family="Helvetica,sans-Serif" font-size="10.00">libpsio/config.h</text>
</a>
</g>
</g>
<!-- Node5&#45;&gt;Node6 -->
<g id="edge7" class="edge"><title>Node5&#45;&gt;Node6</title>
<path fill="none" stroke="midnightblue" d="M41,-56.083C41,-49.0059 41,-38.8611 41,-29.9865"/>
<polygon fill="midnightblue" stroke="midnightblue" points="44.5001,-29.751 41,-19.7511 37.5001,-29.7511 44.5001,-29.751"/>
</g>
<!-- Node7&#45;&gt;Node2 -->
<g id="edge9" class="edge"><title>Node7&#45;&gt;Node2</title>
<path fill="none" stroke="midnightblue" d="M373.423,-112.416C367.747,-99.3934 355.792,-74.2319 341,-56 331.833,-44.7007 319.608,-33.961 309.315,-25.8089"/>
<polygon fill="midnightblue" stroke="midnightblue" points="311.299,-22.9197 301.233,-19.6143 307.041,-28.4755 311.299,-22.9197"/>
</g>
<!-- Node8 -->
<g id="node8" class="node"><title>Node8</title>
<polygon fill="none" stroke="#bfbfbf" points="414.5,-56.5 414.5,-75.5 455.5,-75.5 455.5,-56.5 414.5,-56.5"/>
<text text-anchor="middle" x="435" y="-63.5" font-family="Helvetica,sans-Serif" font-size="10.00">string</text>
</g>
<!-- Node7&#45;&gt;Node8 -->
<g id="edge10" class="edge"><title>Node7&#45;&gt;Node8</title>
<path fill="none" stroke="midnightblue" d="M386.319,-112.324C394.893,-104.341 407.812,-92.3128 418.188,-82.6529"/>
<polygon fill="midnightblue" stroke="midnightblue" points="420.578,-85.2098 425.512,-75.8339 415.808,-80.0865 420.578,-85.2098"/>
</g>
<!-- Node9&#45;&gt;Node2 -->
<g id="edge12" class="edge"><title>Node9&#45;&gt;Node2</title>
<path fill="none" stroke="midnightblue" d="M251.802,-112.22C256.568,-103.282 263.883,-88.9387 269,-76 275.106,-60.5603 280.539,-42.4695 284.195,-29.2991"/>
<polygon fill="midnightblue" stroke="midnightblue" points="287.597,-30.1261 286.825,-19.5594 280.839,-28.3014 287.597,-30.1261"/>
</g>
<!-- Node9&#45;&gt;Node5 -->
<g id="edge13" class="edge"><title>Node9&#45;&gt;Node5</title>
<path fill="none" stroke="midnightblue" d="M215.713,-112.799C180.405,-103.543 122.779,-88.4372 83.4359,-78.124"/>
<polygon fill="midnightblue" stroke="midnightblue" points="84.1647,-74.6968 73.604,-75.5467 82.3897,-81.4681 84.1647,-74.6968"/>
</g>
<!-- Node10 -->
<g id="node10" class="node"><title>Node10</title>
<g id="a_node10"><a xlink:href="libiwl_2config_8h_source.html" target="_top" xlink:title="config.h">
<polygon fill="none" stroke="black" points="209.5,-56.5 209.5,-75.5 260.5,-75.5 260.5,-56.5 209.5,-56.5"/>
<text text-anchor="middle" x="235" y="-63.5" font-family="Helvetica,sans-Serif" font-size="10.00">config.h</text>
</a>
</g>
</g>
<!-- Node9&#45;&gt;Node10 -->
<g id="edge14" class="edge"><title>Node9&#45;&gt;Node10</title>
<path fill="none" stroke="midnightblue" d="M245.018,-112.083C243.428,-104.927 241.141,-94.6353 239.154,-85.6911"/>
<polygon fill="midnightblue" stroke="midnightblue" points="242.531,-84.7537 236.945,-75.7511 235.697,-86.2722 242.531,-84.7537"/>
</g>
<!-- Node14&#45;&gt;Node8 -->
<g id="edge19" class="edge"><title>Node14&#45;&gt;Node8</title>
<path fill="none" stroke="midnightblue" d="M449.193,-112.083C446.915,-104.849 443.629,-94.4087 440.792,-85.3968"/>
<polygon fill="midnightblue" stroke="midnightblue" points="444.096,-84.2385 437.755,-75.7511 437.419,-86.3406 444.096,-84.2385"/>
</g>
</g>
</svg>
