<?xml version="1.0" encoding="UTF-8" standalone="no"?>
<!DOCTYPE svg PUBLIC "-//W3C//DTD SVG 1.1//EN"
 "http://www.w3.org/Graphics/SVG/1.1/DTD/svg11.dtd">
<!-- Generated by graphviz version 2.30.1 (20140110.0959)
 -->
<!-- Title: setup_io.cc Pages: 1 -->
<svg width="1484pt" height="320pt"
 viewBox="0.00 0.00 1484.00 320.00" xmlns="http://www.w3.org/2000/svg" xmlns:xlink="http://www.w3.org/1999/xlink">
<g id="graph0" class="graph" transform="scale(1 1) rotate(0) translate(4 316)">
<title>setup_io.cc</title>
<!-- Node1 -->
<g id="node1" class="node"><title>Node1</title>
<polygon fill="#bfbfbf" stroke="black" points="317.5,-292.5 317.5,-311.5 384.5,-311.5 384.5,-292.5 317.5,-292.5"/>
<text text-anchor="middle" x="351" y="-299.5" font-family="Helvetica,sans-Serif" font-size="10.00">setup_io.cc</text>
</g>
<!-- Node2 -->
<g id="node2" class="node"><title>Node2</title>
<polygon fill="none" stroke="#bfbfbf" points="-0.5,-0.5 -0.5,-19.5 44.5,-19.5 44.5,-0.5 -0.5,-0.5"/>
<text text-anchor="middle" x="22" y="-7.5" font-family="Helvetica,sans-Serif" font-size="10.00">cstdlib</text>
</g>
<!-- Node1&#45;&gt;Node2 -->
<g id="edge1" class="edge"><title>Node1&#45;&gt;Node2</title>
<path fill="none" stroke="midnightblue" d="M317.44,-297.012C233.844,-286.148 23,-252.638 23,-191 23,-191 23,-191 23,-133 23,-96.4127 22.5447,-53.6554 22.2486,-29.712"/>
<polygon fill="midnightblue" stroke="midnightblue" points="25.7466,-29.5329 22.1186,-19.5787 18.7472,-29.6227 25.7466,-29.5329"/>
</g>
<!-- Node3 -->
<g id="node3" class="node"><title>Node3</title>
<polygon fill="none" stroke="#bfbfbf" points="209.5,-0.5 209.5,-19.5 252.5,-19.5 252.5,-0.5 209.5,-0.5"/>
<text text-anchor="middle" x="231" y="-7.5" font-family="Helvetica,sans-Serif" font-size="10.00">cstdio</text>
</g>
<!-- Node1&#45;&gt;Node3 -->
<g id="edge2" class="edge"><title>Node1&#45;&gt;Node3</title>
<path fill="none" stroke="midnightblue" d="M317.317,-298.073C263.494,-291.36 159.628,-269.59 115,-200 73.6819,-135.571 166.494,-57.2298 210.029,-25.4393"/>
<polygon fill="midnightblue" stroke="midnightblue" points="212.165,-28.2143 218.265,-19.5514 208.094,-22.5197 212.165,-28.2143"/>
</g>
<!-- Node4 -->
<g id="node4" class="node"><title>Node4</title>
<polygon fill="none" stroke="#bfbfbf" points="488,-236.5 488,-255.5 534,-255.5 534,-236.5 488,-236.5"/>
<text text-anchor="middle" x="511" y="-243.5" font-family="Helvetica,sans-Serif" font-size="10.00">cstring</text>
</g>
<!-- Node1&#45;&gt;Node4 -->
<g id="edge3" class="edge"><title>Node1&#45;&gt;Node4</title>
<path fill="none" stroke="midnightblue" d="M376.352,-292.444C403.903,-283.145 448.016,-268.257 478.19,-258.073"/>
<polygon fill="midnightblue" stroke="midnightblue" points="479.488,-261.329 487.844,-254.815 477.25,-254.697 479.488,-261.329"/>
</g>
<!-- Node5 -->
<g id="node5" class="node"><title>Node5</title>
<g id="a_node5"><a xlink:href="libciomr_8h_source.html" target="_top" xlink:title="libciomr/libciomr.h">
<polygon fill="none" stroke="black" points="124.5,-180.5 124.5,-199.5 219.5,-199.5 219.5,-180.5 124.5,-180.5"/>
<text text-anchor="middle" x="172" y="-187.5" font-family="Helvetica,sans-Serif" font-size="10.00">libciomr/libciomr.h</text>
</a>
</g>
</g>
<!-- Node1&#45;&gt;Node5 -->
<g id="edge4" class="edge"><title>Node1&#45;&gt;Node5</title>
<path fill="none" stroke="midnightblue" d="M334.876,-292.353C318.585,-283.519 292.781,-269.255 271,-256 243.583,-239.315 212.794,-218.811 192.938,-205.349"/>
<polygon fill="midnightblue" stroke="midnightblue" points="194.872,-202.431 184.636,-199.698 190.933,-208.218 194.872,-202.431"/>
</g>
<!-- Node6 -->
<g id="node6" class="node"><title>Node6</title>
<polygon fill="none" stroke="#bfbfbf" points="552,-236.5 552,-255.5 630,-255.5 630,-236.5 552,-236.5"/>
<text text-anchor="middle" x="591" y="-243.5" font-family="Helvetica,sans-Serif" font-size="10.00">libipv1/ip_lib.h</text>
</g>
<!-- Node1&#45;&gt;Node6 -->
<g id="edge6" class="edge"><title>Node1&#45;&gt;Node6</title>
<path fill="none" stroke="midnightblue" d="M384.624,-293.435C425.848,-284.159 496.005,-268.374 542.92,-257.818"/>
<polygon fill="midnightblue" stroke="midnightblue" points="543.864,-261.193 552.852,-255.583 542.327,-254.364 543.864,-261.193"/>
</g>
<!-- Node7 -->
<g id="node7" class="node"><title>Node7</title>
<g id="a_node7"><a xlink:href="psio_8h_source.html" target="_top" xlink:title="libpsio/psio.h">
<polygon fill="none" stroke="black" points="280,-236.5 280,-255.5 354,-255.5 354,-236.5 280,-236.5"/>
<text text-anchor="middle" x="317" y="-243.5" font-family="Helvetica,sans-Serif" font-size="10.00">libpsio/psio.h</text>
</a>
</g>
</g>
<!-- Node1&#45;&gt;Node7 -->
<g id="edge7" class="edge"><title>Node1&#45;&gt;Node7</title>
<path fill="none" stroke="midnightblue" d="M345.386,-292.083C340.633,-284.534 333.682,-273.495 327.848,-264.23"/>
<polygon fill="midnightblue" stroke="midnightblue" points="330.8,-262.349 322.51,-255.751 324.876,-266.078 330.8,-262.349"/>
</g>
<!-- Node9 -->
<g id="node9" class="node"><title>Node9</title>
<g id="a_node9"><a xlink:href="qt_8h.html" target="_top" xlink:title="Header file for the Quantum Trio LibraryDavid Sherrill 1994.">
<polygon fill="none" stroke="black" points="309,-62.5 309,-81.5 363,-81.5 363,-62.5 309,-62.5"/>
<text text-anchor="middle" x="336" y="-69.5" font-family="Helvetica,sans-Serif" font-size="10.00">libqt/qt.h</text>
</a>
</g>
</g>
<!-- Node1&#45;&gt;Node9 -->
<g id="edge10" class="edge"><title>Node1&#45;&gt;Node9</title>
<path fill="none" stroke="midnightblue" d="M353.79,-292.479C356.606,-283.507 360.836,-268.919 363,-256 368.588,-222.64 371.753,-213.489 367,-180 362.464,-148.04 350.665,-112.272 343.002,-91.2459"/>
<polygon fill="midnightblue" stroke="midnightblue" points="346.212,-89.8352 339.433,-81.693 339.654,-92.2855 346.212,-89.8352"/>
</g>
<!-- Node11 -->
<g id="node11" class="node"><title>Node11</title>
<g id="a_node11"><a xlink:href="attic_2detcas_2globals_8h.html" target="_top" xlink:title="Enter brief description of file here.">
<polygon fill="none" stroke="black" points="414,-236.5 414,-255.5 470,-255.5 470,-236.5 414,-236.5"/>
<text text-anchor="middle" x="442" y="-243.5" font-family="Helvetica,sans-Serif" font-size="10.00">globals.h</text>
</a>
</g>
</g>
<!-- Node1&#45;&gt;Node11 -->
<g id="edge13" class="edge"><title>Node1&#45;&gt;Node11</title>
<path fill="none" stroke="midnightblue" d="M365.621,-292.324C379.949,-283.822 402.013,-270.729 418.749,-260.797"/>
<polygon fill="midnightblue" stroke="midnightblue" points="420.602,-263.768 427.416,-255.655 417.03,-257.748 420.602,-263.768"/>
</g>
<!-- Node5&#45;&gt;Node3 -->
<g id="edge5" class="edge"><title>Node5&#45;&gt;Node3</title>
<path fill="none" stroke="midnightblue" d="M174.846,-180.415C183.896,-153.11 212.163,-67.8317 224.794,-29.7237"/>
<polygon fill="midnightblue" stroke="midnightblue" points="228.22,-30.5118 228.044,-19.9185 221.575,-28.3094 228.22,-30.5118"/>
</g>
<!-- Node7&#45;&gt;Node3 -->
<g id="edge8" class="edge"><title>Node7&#45;&gt;Node3</title>
<path fill="none" stroke="midnightblue" d="M303.263,-236.411C291.707,-228.43 275.714,-215.465 267,-200 235.475,-144.049 230.997,-65.5336 230.721,-29.907"/>
<polygon fill="midnightblue" stroke="midnightblue" points="234.222,-29.5753 230.756,-19.5636 227.222,-29.5518 234.222,-29.5753"/>
</g>
<!-- Node8 -->
<g id="node8" class="node"><title>Node8</title>
<g id="a_node8"><a xlink:href="libpsio_2config_8h_source.html" target="_top" xlink:title="libpsio/config.h">
<polygon fill="none" stroke="black" points="276,-180.5 276,-199.5 358,-199.5 358,-180.5 276,-180.5"/>
<text text-anchor="middle" x="317" y="-187.5" font-family="Helvetica,sans-Serif" font-size="10.00">libpsio/config.h</text>
</a>
</g>
</g>
<!-- Node7&#45;&gt;Node8 -->
<g id="edge9" class="edge"><title>Node7&#45;&gt;Node8</title>
<path fill="none" stroke="midnightblue" d="M317,-236.083C317,-229.006 317,-218.861 317,-209.986"/>
<polygon fill="midnightblue" stroke="midnightblue" points="320.5,-209.751 317,-199.751 313.5,-209.751 320.5,-209.751"/>
</g>
<!-- Node9&#45;&gt;Node3 -->
<g id="edge11" class="edge"><title>Node9&#45;&gt;Node3</title>
<path fill="none" stroke="midnightblue" d="M320.956,-62.4035C303.725,-52.5569 275.26,-36.2915 254.966,-24.6949"/>
<polygon fill="midnightblue" stroke="midnightblue" points="256.435,-21.5032 246.016,-19.5806 252.962,-27.5809 256.435,-21.5032"/>
</g>
<!-- Node10 -->
<g id="node10" class="node"><title>Node10</title>
<polygon fill="none" stroke="#bfbfbf" points="460.5,-0.5 460.5,-19.5 501.5,-19.5 501.5,-0.5 460.5,-0.5"/>
<text text-anchor="middle" x="481" y="-7.5" font-family="Helvetica,sans-Serif" font-size="10.00">string</text>
</g>
<!-- Node9&#45;&gt;Node10 -->
<g id="edge12" class="edge"><title>Node9&#45;&gt;Node10</title>
<path fill="none" stroke="midnightblue" d="M356.775,-62.4035C381.432,-52.2004 422.745,-35.1055 450.902,-23.4544"/>
<polygon fill="midnightblue" stroke="midnightblue" points="452.362,-26.6382 460.264,-19.5806 449.685,-20.1701 452.362,-26.6382"/>
</g>
<!-- Node12 -->
<g id="node12" class="node"><title>Node12</title>
<g id="a_node12"><a xlink:href="calcinfo_8h.html" target="_top" xlink:title="Enter brief description of file here.">
<polygon fill="none" stroke="black" points="797.5,-180.5 797.5,-199.5 856.5,-199.5 856.5,-180.5 797.5,-180.5"/>
<text text-anchor="middle" x="827" y="-187.5" font-family="Helvetica,sans-Serif" font-size="10.00">calcinfo.h</text>
</a>
</g>
</g>
<!-- Node11&#45;&gt;Node12 -->
<g id="edge14" class="edge"><title>Node11&#45;&gt;Node12</title>
<path fill="none" stroke="midnightblue" d="M470.206,-237.762C473.165,-237.116 476.137,-236.513 479,-236 611.905,-212.186 649.99,-223.04 787.205,-199.944"/>
<polygon fill="midnightblue" stroke="midnightblue" points="787.993,-203.36 797.258,-198.221 786.811,-196.46 787.993,-203.36"/>
</g>
<!-- Node13 -->
<g id="node13" class="node"><title>Node13</title>
<g id="a_node13"><a xlink:href="detcas_2params_8h.html" target="_top" xlink:title="Enter brief description of file here.">
<polygon fill="none" stroke="black" points="414.5,-180.5 414.5,-199.5 471.5,-199.5 471.5,-180.5 414.5,-180.5"/>
<text text-anchor="middle" x="443" y="-187.5" font-family="Helvetica,sans-Serif" font-size="10.00">params.h</text>
</a>
</g>
</g>
<!-- Node11&#45;&gt;Node13 -->
<g id="edge15" class="edge"><title>Node11&#45;&gt;Node13</title>
<path fill="none" stroke="midnightblue" d="M442.165,-236.083C442.296,-229.006 442.484,-218.861 442.648,-209.986"/>
<polygon fill="midnightblue" stroke="midnightblue" points="446.152,-209.814 442.838,-199.751 439.153,-209.685 446.152,-209.814"/>
</g>
<!-- Node14 -->
<g id="node14" class="node"><title>Node14</title>
<g id="a_node14"><a xlink:href="psi4-dec_8h_source.html" target="_top" xlink:title="psi4&#45;dec.h">
<polygon fill="none" stroke="black" points="717,-180.5 717,-199.5 779,-199.5 779,-180.5 717,-180.5"/>
<text text-anchor="middle" x="748" y="-187.5" font-family="Helvetica,sans-Serif" font-size="10.00">psi4&#45;dec.h</text>
</a>
</g>
</g>
<!-- Node11&#45;&gt;Node14 -->
<g id="edge17" class="edge"><title>Node11&#45;&gt;Node14</title>
<path fill="none" stroke="midnightblue" d="M470.234,-237.908C473.187,-237.233 476.15,-236.584 479,-236 559.233,-219.554 653.848,-204.788 706.783,-196.941"/>
<polygon fill="midnightblue" stroke="midnightblue" points="707.415,-200.385 716.798,-195.465 706.394,-193.46 707.415,-200.385"/>
</g>
<!-- Node13&#45;&gt;Node10 -->
<g id="edge16" class="edge"><title>Node13&#45;&gt;Node10</title>
<path fill="none" stroke="midnightblue" d="M433.98,-180.34C425.928,-171.932 414.702,-158.363 410,-144 397.832,-106.83 391.148,-90.2678 410,-56 418.713,-40.1617 435.617,-29.1151 450.745,-21.9312"/>
<polygon fill="midnightblue" stroke="midnightblue" points="452.557,-24.9597 460.326,-17.7566 449.76,-18.5424 452.557,-24.9597"/>
</g>
<!-- Node15 -->
<g id="node15" class="node"><title>Node15</title>
<polygon fill="none" stroke="#bfbfbf" points="758,-124.5 758,-143.5 866,-143.5 866,-124.5 758,-124.5"/>
<text text-anchor="middle" x="812" y="-131.5" font-family="Helvetica,sans-Serif" font-size="10.00">boost/shared_ptr.hpp</text>
</g>
<!-- Node14&#45;&gt;Node15 -->
<g id="edge18" class="edge"><title>Node14&#45;&gt;Node15</title>
<path fill="none" stroke="midnightblue" d="M758.283,-180.324C767.836,-172.263 782.28,-160.077 793.784,-150.369"/>
<polygon fill="midnightblue" stroke="midnightblue" points="796.144,-152.958 801.53,-143.834 791.63,-147.608 796.144,-152.958"/>
</g>
<!-- Node16 -->
<g id="node16" class="node"><title>Node16</title>
<polygon fill="none" stroke="#bfbfbf" points="999,-62.5 999,-81.5 1131,-81.5 1131,-62.5 999,-62.5"/>
<text text-anchor="middle" x="1065" y="-69.5" font-family="Helvetica,sans-Serif" font-size="10.00">boost/current_function.hpp</text>
</g>
<!-- Node14&#45;&gt;Node16 -->
<g id="edge19" class="edge"><title>Node14&#45;&gt;Node16</title>
<path fill="none" stroke="midnightblue" d="M772.391,-180.496C797.992,-171.539 839.391,-156.961 875,-144 930.74,-123.712 995.389,-99.3828 1033.09,-85.1144"/>
<polygon fill="midnightblue" stroke="midnightblue" points="1034.41,-88.3556 1042.53,-81.5403 1031.93,-81.8095 1034.41,-88.3556"/>
</g>
<!-- Node14&#45;&gt;Node10 -->
<g id="edge20" class="edge"><title>Node14&#45;&gt;Node10</title>
<path fill="none" stroke="midnightblue" d="M716.864,-181.634C670.939,-169.349 584.695,-140.668 531,-88 513.284,-70.6233 498.624,-45.9034 489.855,-29.1988"/>
<polygon fill="midnightblue" stroke="midnightblue" points="492.822,-27.3107 485.181,-19.9709 486.577,-30.4734 492.822,-27.3107"/>
</g>
<!-- Node17 -->
<g id="node17" class="node"><title>Node17</title>
<polygon fill="none" stroke="#bfbfbf" points="1230.5,-124.5 1230.5,-143.5 1259.5,-143.5 1259.5,-124.5 1230.5,-124.5"/>
<text text-anchor="middle" x="1245" y="-131.5" font-family="Helvetica,sans-Serif" font-size="10.00">list</text>
</g>
<!-- Node14&#45;&gt;Node17 -->
<g id="edge21" class="edge"><title>Node14&#45;&gt;Node17</title>
<path fill="none" stroke="midnightblue" d="M779.365,-181.512C782.274,-180.948 785.186,-180.431 788,-180 975.616,-151.235 1030.71,-185.107 1220.45,-143.421"/>
<polygon fill="midnightblue" stroke="midnightblue" points="1221.48,-146.777 1230.47,-141.177 1219.95,-139.946 1221.48,-146.777"/>
</g>
<!-- Node18 -->
<g id="node18" class="node"><title>Node18</title>
<polygon fill="none" stroke="#bfbfbf" points="1441.5,-62.5 1441.5,-81.5 1476.5,-81.5 1476.5,-62.5 1441.5,-62.5"/>
<text text-anchor="middle" x="1459" y="-69.5" font-family="Helvetica,sans-Serif" font-size="10.00">map</text>
</g>
<!-- Node14&#45;&gt;Node18 -->
<g id="edge22" class="edge"><title>Node14&#45;&gt;Node18</title>
<path fill="none" stroke="midnightblue" d="M779.361,-181.488C782.271,-180.929 785.184,-180.42 788,-180 999.591,-148.435 1058.42,-186.912 1268,-144 1343.46,-128.551 1361.61,-119.271 1432,-88 1433.19,-87.4734 1434.39,-86.9124 1435.59,-86.3282"/>
<polygon fill="midnightblue" stroke="midnightblue" points="1437.43,-89.3176 1444.67,-81.582 1434.19,-83.1146 1437.43,-89.3176"/>
</g>
<!-- Node19 -->
<g id="node19" class="node"><title>Node19</title>
<g id="a_node19"><a xlink:href="liboptions_8h_source.html" target="_top" xlink:title="liboptions/liboptions.h">
<polygon fill="none" stroke="black" points="630,-124.5 630,-143.5 740,-143.5 740,-124.5 630,-124.5"/>
<text text-anchor="middle" x="685" y="-131.5" font-family="Helvetica,sans-Serif" font-size="10.00">liboptions/liboptions.h</text>
</a>
</g>
</g>
<!-- Node14&#45;&gt;Node19 -->
<g id="edge23" class="edge"><title>Node14&#45;&gt;Node19</title>
<path fill="none" stroke="midnightblue" d="M737.878,-180.324C728.474,-172.263 714.256,-160.077 702.931,-150.369"/>
<polygon fill="midnightblue" stroke="midnightblue" points="705.177,-147.684 695.306,-143.834 700.621,-152.999 705.177,-147.684"/>
</g>
<!-- Node28 -->
<g id="node28" class="node"><title>Node28</title>
<g id="a_node28"><a xlink:href="include_2exception_8h_source.html" target="_top" xlink:title="exception.h">
<polygon fill="none" stroke="black" points="1145.5,-124.5 1145.5,-143.5 1212.5,-143.5 1212.5,-124.5 1145.5,-124.5"/>
<text text-anchor="middle" x="1179" y="-131.5" font-family="Helvetica,sans-Serif" font-size="10.00">exception.h</text>
</a>
</g>
</g>
<!-- Node14&#45;&gt;Node28 -->
<g id="edge38" class="edge"><title>Node14&#45;&gt;Node28</title>
<path fill="none" stroke="midnightblue" d="M779.38,-181.607C782.286,-181.023 785.193,-180.476 788,-180 913.211,-158.771 1062.71,-144.648 1135.23,-138.502"/>
<polygon fill="midnightblue" stroke="midnightblue" points="1135.68,-141.976 1145.36,-137.654 1135.1,-135.001 1135.68,-141.976"/>
</g>
<!-- Node33 -->
<g id="node33" class="node"><title>Node33</title>
<g id="a_node33"><a xlink:href="typedefs_8h_source.html" target="_top" xlink:title="libmints/typedefs.h">
<polygon fill="none" stroke="black" points="419.5,-124.5 419.5,-143.5 518.5,-143.5 518.5,-124.5 419.5,-124.5"/>
<text text-anchor="middle" x="469" y="-131.5" font-family="Helvetica,sans-Serif" font-size="10.00">libmints/typedefs.h</text>
</a>
</g>
</g>
<!-- Node14&#45;&gt;Node33 -->
<g id="edge44" class="edge"><title>Node14&#45;&gt;Node33</title>
<path fill="none" stroke="midnightblue" d="M716.807,-182.963C669.992,-173.902 580.918,-156.662 523.291,-145.508"/>
<polygon fill="midnightblue" stroke="midnightblue" points="523.75,-142.032 513.267,-143.568 522.419,-148.904 523.75,-142.032"/>
</g>
<!-- Node19&#45;&gt;Node10 -->
<g id="edge24" class="edge"><title>Node19&#45;&gt;Node10</title>
<path fill="none" stroke="midnightblue" d="M657.442,-124.469C634.286,-116.693 600.779,-103.993 574,-88 558.281,-78.6128 520.712,-46.1843 498.431,-26.5302"/>
<polygon fill="midnightblue" stroke="midnightblue" points="500.524,-23.7084 490.718,-19.6976 495.883,-28.9483 500.524,-23.7084"/>
</g>
<!-- Node20 -->
<g id="node20" class="node"><title>Node20</title>
<polygon fill="none" stroke="#bfbfbf" points="548,-0.5 548,-19.5 592,-19.5 592,-0.5 548,-0.5"/>
<text text-anchor="middle" x="570" y="-7.5" font-family="Helvetica,sans-Serif" font-size="10.00">vector</text>
</g>
<!-- Node19&#45;&gt;Node20 -->
<g id="edge25" class="edge"><title>Node19&#45;&gt;Node20</title>
<path fill="none" stroke="midnightblue" d="M685.033,-124.316C684.643,-108.84 681.73,-76.2178 665,-56 656.359,-45.5578 625.764,-32.0838 601.599,-22.6115"/>
<polygon fill="midnightblue" stroke="midnightblue" points="602.642,-19.2627 592.052,-18.9426 600.131,-25.7968 602.642,-19.2627"/>
</g>
<!-- Node19&#45;&gt;Node18 -->
<g id="edge26" class="edge"><title>Node19&#45;&gt;Node18</title>
<path fill="none" stroke="midnightblue" d="M740.122,-124.938C743.122,-124.596 746.096,-124.28 749,-124 900.286,-109.404 1285.93,-129.985 1432,-88 1433.7,-87.5112 1435.41,-86.8991 1437.1,-86.2037"/>
<polygon fill="midnightblue" stroke="midnightblue" points="1438.96,-89.1881 1446.34,-81.5875 1435.83,-82.9262 1438.96,-89.1881"/>
</g>
<!-- Node21 -->
<g id="node21" class="node"><title>Node21</title>
<polygon fill="none" stroke="#bfbfbf" points="793.5,-62.5 793.5,-81.5 860.5,-81.5 860.5,-62.5 793.5,-62.5"/>
<text text-anchor="middle" x="827" y="-69.5" font-family="Helvetica,sans-Serif" font-size="10.00">exception.h</text>
</g>
<!-- Node19&#45;&gt;Node21 -->
<g id="edge27" class="edge"><title>Node19&#45;&gt;Node21</title>
<path fill="none" stroke="midnightblue" d="M705.345,-124.403C729.387,-114.245 769.597,-97.2547 797.163,-85.6074"/>
<polygon fill="midnightblue" stroke="midnightblue" points="798.843,-88.6968 806.693,-81.5806 796.119,-82.2488 798.843,-88.6968"/>
</g>
<!-- Node22 -->
<g id="node22" class="node"><title>Node22</title>
<g id="a_node22"><a xlink:href="libutil_8h_source.html" target="_top" xlink:title="libutil/libutil.h">
<polygon fill="none" stroke="black" points="583.5,-62.5 583.5,-81.5 656.5,-81.5 656.5,-62.5 583.5,-62.5"/>
<text text-anchor="middle" x="620" y="-69.5" font-family="Helvetica,sans-Serif" font-size="10.00">libutil/libutil.h</text>
</a>
</g>
</g>
<!-- Node19&#45;&gt;Node22 -->
<g id="edge28" class="edge"><title>Node19&#45;&gt;Node22</title>
<path fill="none" stroke="midnightblue" d="M675.687,-124.403C665.551,-115.047 649.136,-99.8948 636.748,-88.4599"/>
<polygon fill="midnightblue" stroke="midnightblue" points="639.018,-85.7916 629.296,-81.5806 634.27,-90.9352 639.018,-85.7916"/>
</g>
<!-- Node24 -->
<g id="node24" class="node"><title>Node24</title>
<g id="a_node24"><a xlink:href="libutil_2ref_8h_source.html" target="_top" xlink:title="libutil/ref.h">
<polygon fill="none" stroke="black" points="53,-62.5 53,-81.5 115,-81.5 115,-62.5 53,-62.5"/>
<text text-anchor="middle" x="84" y="-69.5" font-family="Helvetica,sans-Serif" font-size="10.00">libutil/ref.h</text>
</a>
</g>
</g>
<!-- Node19&#45;&gt;Node24 -->
<g id="edge32" class="edge"><title>Node19&#45;&gt;Node24</title>
<path fill="none" stroke="midnightblue" d="M629.805,-127.49C510.572,-115.586 231.195,-87.695 125.501,-77.1432"/>
<polygon fill="midnightblue" stroke="midnightblue" points="125.538,-73.6295 115.239,-76.1187 124.842,-80.5949 125.538,-73.6295"/>
</g>
<!-- Node27 -->
<g id="node27" class="node"><title>Node27</title>
<polygon fill="none" stroke="#bfbfbf" points="879,-57 879,-87 981,-87 981,-57 879,-57"/>
<text text-anchor="start" x="887" y="-75" font-family="Helvetica,sans-Serif" font-size="10.00">boost/python/object</text>
<text text-anchor="middle" x="930" y="-64" font-family="Helvetica,sans-Serif" font-size="10.00">_fwd.hpp</text>
</g>
<!-- Node19&#45;&gt;Node27 -->
<g id="edge37" class="edge"><title>Node19&#45;&gt;Node27</title>
<path fill="none" stroke="midnightblue" d="M719.935,-124.47C756.949,-115.429 817.098,-100.728 869,-88 869.099,-87.9756 869.199,-87.9513 869.298,-87.9269"/>
<polygon fill="midnightblue" stroke="midnightblue" points="869.869,-91.3908 878.746,-85.6084 868.2,-84.5925 869.869,-91.3908"/>
</g>
<!-- Node22&#45;&gt;Node10 -->
<g id="edge29" class="edge"><title>Node22&#45;&gt;Node10</title>
<path fill="none" stroke="midnightblue" d="M600.085,-62.4035C576.551,-52.245 537.19,-35.2547 510.207,-23.6074"/>
<polygon fill="midnightblue" stroke="midnightblue" points="511.447,-20.3303 500.878,-19.5806 508.672,-26.7572 511.447,-20.3303"/>
</g>
<!-- Node22&#45;&gt;Node20 -->
<g id="edge30" class="edge"><title>Node22&#45;&gt;Node20</title>
<path fill="none" stroke="midnightblue" d="M612.836,-62.4035C605.262,-53.3143 593.13,-38.7559 583.707,-27.4489"/>
<polygon fill="midnightblue" stroke="midnightblue" points="586.241,-25.0222 577.15,-19.5806 580.864,-29.5035 586.241,-25.0222"/>
</g>
<!-- Node23 -->
<g id="node23" class="node"><title>Node23</title>
<polygon fill="none" stroke="#bfbfbf" points="610,-0.5 610,-19.5 672,-19.5 672,-0.5 610,-0.5"/>
<text text-anchor="middle" x="641" y="-7.5" font-family="Helvetica,sans-Serif" font-size="10.00">sys/time.h</text>
</g>
<!-- Node22&#45;&gt;Node23 -->
<g id="edge31" class="edge"><title>Node22&#45;&gt;Node23</title>
<path fill="none" stroke="midnightblue" d="M623.009,-62.4035C626.034,-53.7599 630.79,-40.17 634.653,-29.1341"/>
<polygon fill="midnightblue" stroke="midnightblue" points="637.997,-30.1754 637.997,-19.5806 631.39,-27.8629 637.997,-30.1754"/>
</g>
<!-- Node25 -->
<g id="node25" class="node"><title>Node25</title>
<polygon fill="none" stroke="#bfbfbf" points="62.5,-0.5 62.5,-19.5 111.5,-19.5 111.5,-0.5 62.5,-0.5"/>
<text text-anchor="middle" x="87" y="-7.5" font-family="Helvetica,sans-Serif" font-size="10.00">cstddef</text>
</g>
<!-- Node24&#45;&gt;Node25 -->
<g id="edge33" class="edge"><title>Node24&#45;&gt;Node25</title>
<path fill="none" stroke="midnightblue" d="M84.4298,-62.4035C84.8531,-53.9381 85.5136,-40.7283 86.059,-29.8199"/>
<polygon fill="midnightblue" stroke="midnightblue" points="89.5671,-29.7429 86.571,-19.5806 82.5759,-29.3933 89.5671,-29.7429"/>
</g>
<!-- Node24&#45;&gt;Node3 -->
<g id="edge34" class="edge"><title>Node24&#45;&gt;Node3</title>
<path fill="none" stroke="midnightblue" d="M105.062,-62.4035C130.059,-52.2004 171.942,-35.1055 200.487,-23.4544"/>
<polygon fill="midnightblue" stroke="midnightblue" points="202.042,-26.6001 209.978,-19.5806 199.396,-20.1192 202.042,-26.6001"/>
</g>
<!-- Node24&#45;&gt;Node2 -->
<g id="edge35" class="edge"><title>Node24&#45;&gt;Node2</title>
<path fill="none" stroke="midnightblue" d="M75.1169,-62.4035C65.5406,-53.1361 50.0889,-38.1828 38.3138,-26.7876"/>
<polygon fill="midnightblue" stroke="midnightblue" points="40.4866,-24.0197 30.8666,-19.5806 35.6187,-29.05 40.4866,-24.0197"/>
</g>
<!-- Node26 -->
<g id="node26" class="node"><title>Node26</title>
<polygon fill="none" stroke="#bfbfbf" points="130,-0.5 130,-19.5 182,-19.5 182,-0.5 130,-0.5"/>
<text text-anchor="middle" x="156" y="-7.5" font-family="Helvetica,sans-Serif" font-size="10.00">assert.h</text>
</g>
<!-- Node24&#45;&gt;Node26 -->
<g id="edge36" class="edge"><title>Node24&#45;&gt;Node26</title>
<path fill="none" stroke="midnightblue" d="M94.3158,-62.4035C105.651,-52.9579 124.073,-37.6056 137.839,-26.1342"/>
<polygon fill="midnightblue" stroke="midnightblue" points="140.262,-28.6713 145.703,-19.5806 135.78,-23.2937 140.262,-28.6713"/>
</g>
<!-- Node29 -->
<g id="node29" class="node"><title>Node29</title>
<polygon fill="none" stroke="#bfbfbf" points="1149.5,-62.5 1149.5,-81.5 1208.5,-81.5 1208.5,-62.5 1149.5,-62.5"/>
<text text-anchor="middle" x="1179" y="-69.5" font-family="Helvetica,sans-Serif" font-size="10.00">exception</text>
</g>
<!-- Node28&#45;&gt;Node29 -->
<g id="edge39" class="edge"><title>Node28&#45;&gt;Node29</title>
<path fill="none" stroke="midnightblue" d="M1179,-124.403C1179,-115.938 1179,-102.728 1179,-91.8199"/>
<polygon fill="midnightblue" stroke="midnightblue" points="1182.5,-91.5806 1179,-81.5806 1175.5,-91.5806 1182.5,-91.5806"/>
</g>
<!-- Node30 -->
<g id="node30" class="node"><title>Node30</title>
<polygon fill="none" stroke="#bfbfbf" points="1226.5,-62.5 1226.5,-81.5 1285.5,-81.5 1285.5,-62.5 1226.5,-62.5"/>
<text text-anchor="middle" x="1256" y="-69.5" font-family="Helvetica,sans-Serif" font-size="10.00">stdexcept</text>
</g>
<!-- Node28&#45;&gt;Node30 -->
<g id="edge40" class="edge"><title>Node28&#45;&gt;Node30</title>
<path fill="none" stroke="midnightblue" d="M1190.03,-124.403C1202.27,-114.869 1222.23,-99.3154 1236.99,-87.8106"/>
<polygon fill="midnightblue" stroke="midnightblue" points="1239.25,-90.4879 1244.99,-81.5806 1234.95,-84.9663 1239.25,-90.4879"/>
</g>
<!-- Node31 -->
<g id="node31" class="node"><title>Node31</title>
<polygon fill="none" stroke="#bfbfbf" points="1304,-62.5 1304,-81.5 1356,-81.5 1356,-62.5 1304,-62.5"/>
<text text-anchor="middle" x="1330" y="-69.5" font-family="Helvetica,sans-Serif" font-size="10.00">sstream</text>
</g>
<!-- Node28&#45;&gt;Node31 -->
<g id="edge41" class="edge"><title>Node28&#45;&gt;Node31</title>
<path fill="none" stroke="midnightblue" d="M1201.53,-124.349C1224.76,-115.393 1261.99,-100.928 1294,-88 1295.88,-87.2392 1297.82,-86.4508 1299.77,-85.6516"/>
<polygon fill="midnightblue" stroke="midnightblue" points="1301.57,-88.6973 1309.47,-81.6444 1298.89,-82.2276 1301.57,-88.6973"/>
</g>
<!-- Node32 -->
<g id="node32" class="node"><title>Node32</title>
<polygon fill="none" stroke="#bfbfbf" points="1374.5,-62.5 1374.5,-81.5 1423.5,-81.5 1423.5,-62.5 1374.5,-62.5"/>
<text text-anchor="middle" x="1399" y="-69.5" font-family="Helvetica,sans-Serif" font-size="10.00">string.h</text>
</g>
<!-- Node28&#45;&gt;Node32 -->
<g id="edge42" class="edge"><title>Node28&#45;&gt;Node32</title>
<path fill="none" stroke="midnightblue" d="M1212.86,-125.568C1258.45,-115.432 1337.07,-97.4551 1365,-88 1367.27,-87.2319 1369.59,-86.3712 1371.91,-85.4608"/>
<polygon fill="midnightblue" stroke="midnightblue" points="1373.37,-88.6448 1381.24,-81.549 1370.66,-82.1896 1373.37,-88.6448"/>
</g>
<!-- Node28&#45;&gt;Node16 -->
<g id="edge43" class="edge"><title>Node28&#45;&gt;Node16</title>
<path fill="none" stroke="midnightblue" d="M1162.67,-124.403C1143.79,-114.468 1112.49,-97.9966 1090.42,-86.3812"/>
<polygon fill="midnightblue" stroke="midnightblue" points="1091.78,-83.1409 1081.3,-81.5806 1088.52,-89.3353 1091.78,-83.1409"/>
</g>
<!-- Node34 -->
<g id="node34" class="node"><title>Node34</title>
<g id="a_node34"><a xlink:href="compiler_8h_source.html" target="_top" xlink:title="compiler.h">
<polygon fill="none" stroke="black" points="713,-62.5 713,-81.5 775,-81.5 775,-62.5 713,-62.5"/>
<text text-anchor="middle" x="744" y="-69.5" font-family="Helvetica,sans-Serif" font-size="10.00">compiler.h</text>
</a>
</g>
</g>
<!-- Node33&#45;&gt;Node34 -->
<g id="edge45" class="edge"><title>Node33&#45;&gt;Node34</title>
<path fill="none" stroke="midnightblue" d="M508.109,-124.467C559.685,-113.214 650.046,-93.4991 702.696,-82.0118"/>
<polygon fill="midnightblue" stroke="midnightblue" points="703.676,-85.3803 712.7,-79.829 702.184,-78.5412 703.676,-85.3803"/>
</g>
<!-- Node36 -->
<g id="node36" class="node"><title>Node36</title>
<g id="a_node36"><a xlink:href="dimension_8h_source.html" target="_top" xlink:title="dimension.h">
<polygon fill="none" stroke="black" points="419.5,-62.5 419.5,-81.5 488.5,-81.5 488.5,-62.5 419.5,-62.5"/>
<text text-anchor="middle" x="454" y="-69.5" font-family="Helvetica,sans-Serif" font-size="10.00">dimension.h</text>
</a>
</g>
</g>
<!-- Node33&#45;&gt;Node36 -->
<g id="edge47" class="edge"><title>Node33&#45;&gt;Node36</title>
<path fill="none" stroke="midnightblue" d="M466.851,-124.403C464.712,-115.849 461.362,-102.45 458.619,-91.4762"/>
<polygon fill="midnightblue" stroke="midnightblue" points="461.966,-90.4331 456.145,-81.5806 455.175,-92.1309 461.966,-90.4331"/>
</g>
<!-- Node35 -->
<g id="node35" class="node"><title>Node35</title>
<polygon fill="none" stroke="#bfbfbf" points="712,-0.5 712,-19.5 776,-19.5 776,-0.5 712,-0.5"/>
<text text-anchor="middle" x="744" y="-7.5" font-family="Helvetica,sans-Serif" font-size="10.00">psiconfig.h</text>
</g>
<!-- Node34&#45;&gt;Node35 -->
<g id="edge46" class="edge"><title>Node34&#45;&gt;Node35</title>
<path fill="none" stroke="midnightblue" d="M744,-62.4035C744,-53.9381 744,-40.7283 744,-29.8199"/>
<polygon fill="midnightblue" stroke="midnightblue" points="747.5,-29.5806 744,-19.5806 740.5,-29.5806 747.5,-29.5806"/>
</g>
<!-- Node36&#45;&gt;Node10 -->
<g id="edge48" class="edge"><title>Node36&#45;&gt;Node10</title>
<path fill="none" stroke="midnightblue" d="M457.868,-62.4035C461.798,-53.6707 468,-39.8893 472.993,-28.7936"/>
<polygon fill="midnightblue" stroke="midnightblue" points="476.227,-30.1361 477.139,-19.5806 469.843,-27.2635 476.227,-30.1361"/>
</g>
<!-- Node36&#45;&gt;Node3 -->
<g id="edge49" class="edge"><title>Node36&#45;&gt;Node3</title>
<path fill="none" stroke="midnightblue" d="M422.05,-62.4035C379.549,-50.9682 304.872,-30.8759 262.566,-19.4931"/>
<polygon fill="midnightblue" stroke="midnightblue" points="263.364,-16.0833 252.798,-16.8649 261.545,-22.8429 263.364,-16.0833"/>
</g>
<!-- Node36&#45;&gt;Node20 -->
<g id="edge50" class="edge"><title>Node36&#45;&gt;Node20</title>
<path fill="none" stroke="midnightblue" d="M470.62,-62.4035C489.915,-52.4232 521.959,-35.8487 544.431,-24.2253"/>
<polygon fill="midnightblue" stroke="midnightblue" points="546.137,-27.2836 553.411,-19.5806 542.921,-21.0661 546.137,-27.2836"/>
</g>
</g>
</svg>
