<?xml version="1.0" encoding="UTF-8" standalone="no"?>
<!DOCTYPE svg PUBLIC "-//W3C//DTD SVG 1.1//EN"
 "http://www.w3.org/Graphics/SVG/1.1/DTD/svg11.dtd">
<!-- Generated by graphviz version 2.30.1 (20140110.0959)
 -->
<!-- Title: sigma_full.cc Pages: 1 -->
<svg width="491pt" height="196pt"
 viewBox="0.00 0.00 491.00 196.00" xmlns="http://www.w3.org/2000/svg" xmlns:xlink="http://www.w3.org/1999/xlink">
<g id="graph0" class="graph" transform="scale(1 1) rotate(0) translate(4 192)">
<title>sigma_full.cc</title>
<!-- Node1 -->
<g id="node1" class="node"><title>Node1</title>
<polygon fill="#bfbfbf" stroke="black" points="205,-168.5 205,-187.5 279,-187.5 279,-168.5 205,-168.5"/>
<text text-anchor="middle" x="242" y="-175.5" font-family="Helvetica,sans-Serif" font-size="10.00">sigma_full.cc</text>
</g>
<!-- Node2 -->
<g id="node2" class="node"><title>Node2</title>
<polygon fill="none" stroke="#bfbfbf" points="-0.5,-0.5 -0.5,-19.5 42.5,-19.5 42.5,-0.5 -0.5,-0.5"/>
<text text-anchor="middle" x="21" y="-7.5" font-family="Helvetica,sans-Serif" font-size="10.00">cstdio</text>
</g>
<!-- Node1&#45;&gt;Node2 -->
<g id="edge1" class="edge"><title>Node1&#45;&gt;Node2</title>
<path fill="none" stroke="midnightblue" d="M204.962,-168.461C160.111,-156.085 85.773,-128.649 47,-76 36.6498,-61.9456 29.73,-43.2045 25.649,-29.4578"/>
<polygon fill="midnightblue" stroke="midnightblue" points="28.9907,-28.4091 22.9734,-19.6889 22.2394,-30.2583 28.9907,-28.4091"/>
</g>
<!-- Node3 -->
<g id="node3" class="node"><title>Node3</title>
<polygon fill="none" stroke="#bfbfbf" points="220,-112.5 220,-131.5 264,-131.5 264,-112.5 220,-112.5"/>
<text text-anchor="middle" x="242" y="-119.5" font-family="Helvetica,sans-Serif" font-size="10.00">cmath</text>
</g>
<!-- Node1&#45;&gt;Node3 -->
<g id="edge2" class="edge"><title>Node1&#45;&gt;Node3</title>
<path fill="none" stroke="midnightblue" d="M242,-168.083C242,-161.006 242,-150.861 242,-141.986"/>
<polygon fill="midnightblue" stroke="midnightblue" points="245.5,-141.751 242,-131.751 238.5,-141.751 245.5,-141.751"/>
</g>
<!-- Node4 -->
<g id="node4" class="node"><title>Node4</title>
<g id="a_node4"><a xlink:href="psio_8h_source.html" target="_top" xlink:title="libpsio/psio.h">
<polygon fill="none" stroke="black" points="56,-56.5 56,-75.5 130,-75.5 130,-56.5 56,-56.5"/>
<text text-anchor="middle" x="93" y="-63.5" font-family="Helvetica,sans-Serif" font-size="10.00">libpsio/psio.h</text>
</a>
</g>
</g>
<!-- Node1&#45;&gt;Node4 -->
<g id="edge3" class="edge"><title>Node1&#45;&gt;Node4</title>
<path fill="none" stroke="midnightblue" d="M209.571,-168.393C187.385,-161.312 158.256,-149.554 137,-132 121.443,-119.152 109.163,-99.4226 101.573,-85.0695"/>
<polygon fill="midnightblue" stroke="midnightblue" points="104.508,-83.1134 96.8958,-75.7437 98.2505,-86.2516 104.508,-83.1134"/>
</g>
<!-- Node6 -->
<g id="node6" class="node"><title>Node6</title>
<g id="a_node6"><a xlink:href="cceom_2MOInfo_8h.html" target="_top" xlink:title="Enter brief description of file here.">
<polygon fill="none" stroke="black" points="282.5,-112.5 282.5,-131.5 339.5,-131.5 339.5,-112.5 282.5,-112.5"/>
<text text-anchor="middle" x="311" y="-119.5" font-family="Helvetica,sans-Serif" font-size="10.00">MOInfo.h</text>
</a>
</g>
</g>
<!-- Node1&#45;&gt;Node6 -->
<g id="edge6" class="edge"><title>Node1&#45;&gt;Node6</title>
<path fill="none" stroke="midnightblue" d="M253.086,-168.324C263.486,-160.185 279.261,-147.839 291.722,-138.087"/>
<polygon fill="midnightblue" stroke="midnightblue" points="293.994,-140.753 299.712,-131.834 289.68,-135.241 293.994,-140.753"/>
</g>
<!-- Node7 -->
<g id="node7" class="node"><title>Node7</title>
<g id="a_node7"><a xlink:href="cceom_2Params_8h.html" target="_top" xlink:title="Enter brief description of file here.">
<polygon fill="none" stroke="black" points="424.5,-112.5 424.5,-131.5 483.5,-131.5 483.5,-112.5 424.5,-112.5"/>
<text text-anchor="middle" x="454" y="-119.5" font-family="Helvetica,sans-Serif" font-size="10.00">Params.h</text>
</a>
</g>
</g>
<!-- Node1&#45;&gt;Node7 -->
<g id="edge7" class="edge"><title>Node1&#45;&gt;Node7</title>
<path fill="none" stroke="midnightblue" d="M275.592,-168.444C313.291,-158.841 374.397,-143.276 414.392,-133.089"/>
<polygon fill="midnightblue" stroke="midnightblue" points="415.501,-136.418 424.328,-130.558 413.773,-129.635 415.501,-136.418"/>
</g>
<!-- Node9 -->
<g id="node9" class="node"><title>Node9</title>
<g id="a_node9"><a xlink:href="cceom_2Local_8h.html" target="_top" xlink:title="Enter brief description of file here.">
<polygon fill="none" stroke="black" points="358,-112.5 358,-131.5 406,-131.5 406,-112.5 358,-112.5"/>
<text text-anchor="middle" x="382" y="-119.5" font-family="Helvetica,sans-Serif" font-size="10.00">Local.h</text>
</a>
</g>
</g>
<!-- Node1&#45;&gt;Node9 -->
<g id="edge9" class="edge"><title>Node1&#45;&gt;Node9</title>
<path fill="none" stroke="midnightblue" d="M264.183,-168.444C287.428,-159.478 324.149,-145.314 350.415,-135.183"/>
<polygon fill="midnightblue" stroke="midnightblue" points="351.85,-138.381 359.92,-131.516 349.331,-131.85 351.85,-138.381"/>
</g>
<!-- Node10 -->
<g id="node10" class="node"><title>Node10</title>
<g id="a_node10"><a xlink:href="cceom_2globals_8h.html" target="_top" xlink:title="Enter brief description of file here.">
<polygon fill="none" stroke="black" points="146,-112.5 146,-131.5 202,-131.5 202,-112.5 146,-112.5"/>
<text text-anchor="middle" x="174" y="-119.5" font-family="Helvetica,sans-Serif" font-size="10.00">globals.h</text>
</a>
</g>
</g>
<!-- Node1&#45;&gt;Node10 -->
<g id="edge11" class="edge"><title>Node1&#45;&gt;Node10</title>
<path fill="none" stroke="midnightblue" d="M231.075,-168.324C220.825,-160.185 205.279,-147.839 192.999,-138.087"/>
<polygon fill="midnightblue" stroke="midnightblue" points="195.132,-135.312 185.124,-131.834 190.779,-140.794 195.132,-135.312"/>
</g>
<!-- Node4&#45;&gt;Node2 -->
<g id="edge4" class="edge"><title>Node4&#45;&gt;Node2</title>
<path fill="none" stroke="midnightblue" d="M81.432,-56.324C70.5798,-48.1849 54.1193,-35.8395 41.1166,-26.0874"/>
<polygon fill="midnightblue" stroke="midnightblue" points="42.8786,-23.0339 32.7785,-19.8339 38.6785,-28.6339 42.8786,-23.0339"/>
</g>
<!-- Node5 -->
<g id="node5" class="node"><title>Node5</title>
<g id="a_node5"><a xlink:href="libpsio_2config_8h_source.html" target="_top" xlink:title="libpsio/config.h">
<polygon fill="none" stroke="black" points="61,-0.5 61,-19.5 143,-19.5 143,-0.5 61,-0.5"/>
<text text-anchor="middle" x="102" y="-7.5" font-family="Helvetica,sans-Serif" font-size="10.00">libpsio/config.h</text>
</a>
</g>
</g>
<!-- Node4&#45;&gt;Node5 -->
<g id="edge5" class="edge"><title>Node4&#45;&gt;Node5</title>
<path fill="none" stroke="midnightblue" d="M94.4862,-56.083C95.6788,-48.9272 97.3941,-38.6353 98.8848,-29.6911"/>
<polygon fill="midnightblue" stroke="midnightblue" points="102.35,-30.1904 100.541,-19.7511 95.445,-29.0396 102.35,-30.1904"/>
</g>
<!-- Node8 -->
<g id="node8" class="node"><title>Node8</title>
<polygon fill="none" stroke="#bfbfbf" points="397.5,-56.5 397.5,-75.5 438.5,-75.5 438.5,-56.5 397.5,-56.5"/>
<text text-anchor="middle" x="418" y="-63.5" font-family="Helvetica,sans-Serif" font-size="10.00">string</text>
</g>
<!-- Node7&#45;&gt;Node8 -->
<g id="edge8" class="edge"><title>Node7&#45;&gt;Node8</title>
<path fill="none" stroke="midnightblue" d="M448.055,-112.083C443.023,-104.534 435.663,-93.4948 429.487,-84.2298"/>
<polygon fill="midnightblue" stroke="midnightblue" points="432.293,-82.1301 423.834,-75.7511 426.469,-86.0131 432.293,-82.1301"/>
</g>
<!-- Node9&#45;&gt;Node8 -->
<g id="edge10" class="edge"><title>Node9&#45;&gt;Node8</title>
<path fill="none" stroke="midnightblue" d="M387.945,-112.083C392.977,-104.534 400.337,-93.4948 406.513,-84.2298"/>
<polygon fill="midnightblue" stroke="midnightblue" points="409.531,-86.0131 412.166,-75.7511 403.707,-82.1301 409.531,-86.0131"/>
</g>
<!-- Node11 -->
<g id="node11" class="node"><title>Node11</title>
<g id="a_node11"><a xlink:href="psifiles_8h_source.html" target="_top" xlink:title="psifiles.h">
<polygon fill="none" stroke="black" points="349,-0.5 349,-19.5 405,-19.5 405,-0.5 349,-0.5"/>
<text text-anchor="middle" x="377" y="-7.5" font-family="Helvetica,sans-Serif" font-size="10.00">psifiles.h</text>
</a>
</g>
</g>
<!-- Node10&#45;&gt;Node11 -->
<g id="edge12" class="edge"><title>Node10&#45;&gt;Node11</title>
<path fill="none" stroke="midnightblue" d="M189.929,-112.368C225.209,-93.2515 310.141,-47.229 352.343,-24.361"/>
<polygon fill="midnightblue" stroke="midnightblue" points="354.02,-27.433 361.145,-19.5914 350.685,-21.2784 354.02,-27.433"/>
</g>
<!-- Node12 -->
<g id="node12" class="node"><title>Node12</title>
<g id="a_node12"><a xlink:href="lib_2libdpd_2dpd_8h.html" target="_top" xlink:title="Enter brief description of file here.">
<polygon fill="none" stroke="black" points="148.5,-56.5 148.5,-75.5 217.5,-75.5 217.5,-56.5 148.5,-56.5"/>
<text text-anchor="middle" x="183" y="-63.5" font-family="Helvetica,sans-Serif" font-size="10.00">libdpd/dpd.h</text>
</a>
</g>
</g>
<!-- Node10&#45;&gt;Node12 -->
<g id="edge13" class="edge"><title>Node10&#45;&gt;Node12</title>
<path fill="none" stroke="midnightblue" d="M175.486,-112.083C176.679,-104.927 178.394,-94.6353 179.885,-85.6911"/>
<polygon fill="midnightblue" stroke="midnightblue" points="183.35,-86.1904 181.541,-75.7511 176.445,-85.0396 183.35,-86.1904"/>
</g>
<!-- Node12&#45;&gt;Node2 -->
<g id="edge14" class="edge"><title>Node12&#45;&gt;Node2</title>
<path fill="none" stroke="midnightblue" d="M157.331,-56.4435C128.875,-46.9583 82.968,-31.656 52.3942,-21.4647"/>
<polygon fill="midnightblue" stroke="midnightblue" points="53.2546,-18.0623 42.6609,-18.2203 51.041,-24.703 53.2546,-18.0623"/>
</g>
<!-- Node12&#45;&gt;Node11 -->
<g id="edge15" class="edge"><title>Node12&#45;&gt;Node11</title>
<path fill="none" stroke="midnightblue" d="M213.74,-56.4435C247.725,-46.9836 302.498,-31.7377 339.111,-21.5465"/>
<polygon fill="midnightblue" stroke="midnightblue" points="340.228,-24.8685 348.924,-18.8151 338.351,-18.1249 340.228,-24.8685"/>
</g>
<!-- Node12&#45;&gt;Node5 -->
<g id="edge16" class="edge"><title>Node12&#45;&gt;Node5</title>
<path fill="none" stroke="midnightblue" d="M169.986,-56.324C157.468,-47.979 138.318,-35.2122 123.529,-25.3524"/>
<polygon fill="midnightblue" stroke="midnightblue" points="125.244,-22.2894 114.982,-19.6545 121.361,-28.1137 125.244,-22.2894"/>
</g>
<!-- Node13 -->
<g id="node13" class="node"><title>Node13</title>
<polygon fill="none" stroke="#bfbfbf" points="223,-0.5 223,-19.5 331,-19.5 331,-0.5 223,-0.5"/>
<text text-anchor="middle" x="277" y="-7.5" font-family="Helvetica,sans-Serif" font-size="10.00">boost/shared_ptr.hpp</text>
</g>
<!-- Node12&#45;&gt;Node13 -->
<g id="edge17" class="edge"><title>Node12&#45;&gt;Node13</title>
<path fill="none" stroke="midnightblue" d="M198.103,-56.324C212.903,-47.8215 235.694,-34.7288 252.982,-24.7975"/>
<polygon fill="midnightblue" stroke="midnightblue" points="255.007,-27.6707 261.935,-19.6545 251.52,-21.6009 255.007,-27.6707"/>
</g>
<!-- Node14 -->
<g id="node14" class="node"><title>Node14</title>
<polygon fill="none" stroke="#bfbfbf" points="161,-0.5 161,-19.5 205,-19.5 205,-0.5 161,-0.5"/>
<text text-anchor="middle" x="183" y="-7.5" font-family="Helvetica,sans-Serif" font-size="10.00">vector</text>
</g>
<!-- Node12&#45;&gt;Node14 -->
<g id="edge18" class="edge"><title>Node12&#45;&gt;Node14</title>
<path fill="none" stroke="midnightblue" d="M183,-56.083C183,-49.0059 183,-38.8611 183,-29.9865"/>
<polygon fill="midnightblue" stroke="midnightblue" points="186.5,-29.751 183,-19.7511 179.5,-29.7511 186.5,-29.751"/>
</g>
</g>
</svg>
