<?xml version="1.0" encoding="UTF-8" standalone="no"?>
<!DOCTYPE svg PUBLIC "-//W3C//DTD SVG 1.1//EN"
 "http://www.w3.org/Graphics/SVG/1.1/DTD/svg11.dtd">
<!-- Generated by graphviz version 2.30.1 (20140110.0959)
 -->
<!-- Title: sigmaCC3_RHF.cc Pages: 1 -->
<!--zoomable 196 -->
<svg id="main" version="1.1" xmlns="http://www.w3.org/2000/svg" xmlns:xlink="http://www.w3.org/1999/xlink" xml:space="preserve" onload="init(evt)">
        <defs>
                <circle id="rim" cx="0" cy="0" r="7"/>
                <circle id="rim2" cx="0" cy="0" r="3.5"/>
                <g id="zoomPlus">
                        <use xlink:href="#rim" fill="#404040">
                                <set attributeName="fill" to="#808080" begin="zoomplus.mouseover" end="zoomplus.mouseout"/>
                        </use>
                        <path d="M-4,0h8M0,-4v8" fill="none" stroke="white" stroke-width="1.5" pointer-events="none"/>
                </g>
                <g id="zoomMin">
                        <use xlink:href="#rim" fill="#404040">
                                <set attributeName="fill" to="#808080" begin="zoomminus.mouseover" end="zoomminus.mouseout"/>
                        </use>
                        <path d="M-4,0h8" fill="none" stroke="white" stroke-width="1.5" pointer-events="none"/>
                </g>
                <g id="dirArrow">
                        <path fill="none" stroke="white" stroke-width="1.5" d="M0,-3.0v7 M-2.5,-0.5L0,-3.0L2.5,-0.5"/>
                </g>
               <g id="resetDef">
                       <use xlink:href="#rim2" fill="#404040">
                               <set attributeName="fill" to="#808080" begin="reset.mouseover" end="reset.mouseout"/>
                       </use>
               </g>
        </defs>

<script type="text/javascript">
var viewWidth = 575;
var viewHeight = 196;
var sectionId = 'dynsection-0';
</script>
<script xlink:href="svgpan.js"/>
<svg id="graph" class="graph">
<g id="viewport">
<title>sigmaCC3_RHF.cc</title>
<!-- Node1 -->
<g id="node1" class="node"><title>Node1</title>
<polygon fill="#bfbfbf" stroke="black" points="184.325,-168.5 184.325,-187.5 287.325,-187.5 287.325,-168.5 184.325,-168.5"/>
<text text-anchor="middle" x="235.825" y="-175.5" font-family="Helvetica,sans-Serif" font-size="10.00">sigmaCC3_RHF.cc</text>
</g>
<!-- Node2 -->
<g id="node2" class="node"><title>Node2</title>
<polygon fill="none" stroke="#bfbfbf" points="59.325,-0.5 59.325,-19.5 102.325,-19.5 102.325,-0.5 59.325,-0.5"/>
<text text-anchor="middle" x="80.825" y="-7.5" font-family="Helvetica,sans-Serif" font-size="10.00">cstdio</text>
</g>
<!-- Node1&#45;&gt;Node2 -->
<g id="edge1" class="edge"><title>Node1&#45;&gt;Node2</title>
<path fill="none" stroke="midnightblue" d="M184.314,-174.172C124.311,-169.674 30.5938,-158.508 8.82497,-132 -19.6971,-97.2687 29.8835,-50.0154 60.0956,-26.1392"/>
<polygon fill="midnightblue" stroke="midnightblue" points="62.5756,-28.6482 68.3826,-19.7865 58.3168,-23.0928 62.5756,-28.6482"/>
</g>
<!-- Node3 -->
<g id="node3" class="node"><title>Node3</title>
<polygon fill="none" stroke="#bfbfbf" points="18.325,-112.5 18.325,-131.5 63.325,-131.5 63.325,-112.5 18.325,-112.5"/>
<text text-anchor="middle" x="40.825" y="-119.5" font-family="Helvetica,sans-Serif" font-size="10.00">cstdlib</text>
</g>
<!-- Node1&#45;&gt;Node3 -->
<g id="edge2" class="edge"><title>Node1&#45;&gt;Node3</title>
<path fill="none" stroke="midnightblue" d="M204.564,-168.418C173.666,-159.924 124.792,-146.461 73.2067,-132.097"/>
<polygon fill="midnightblue" stroke="midnightblue" points="74.1193,-128.718 63.5468,-129.405 72.2403,-135.461 74.1193,-128.718"/>
</g>
<!-- Node4 -->
<g id="node4" class="node"><title>Node4</title>
<polygon fill="none" stroke="#bfbfbf" points="81.825,-112.5 81.825,-131.5 125.825,-131.5 125.825,-112.5 81.825,-112.5"/>
<text text-anchor="middle" x="103.825" y="-119.5" font-family="Helvetica,sans-Serif" font-size="10.00">cmath</text>
</g>
<!-- Node1&#45;&gt;Node4 -->
<g id="edge3" class="edge"><title>Node1&#45;&gt;Node4</title>
<path fill="none" stroke="midnightblue" d="M214.909,-168.444C193.089,-159.517 158.675,-145.439 133.933,-135.317"/>
<polygon fill="midnightblue" stroke="midnightblue" points="135.224,-132.063 124.643,-131.516 132.573,-138.542 135.224,-132.063"/>
</g>
<!-- Node5 -->
<g id="node5" class="node"><title>Node5</title>
<g id="a_node5"><a xlink:href="libciomr_8h_source.html" target="_top" xlink:title="libciomr/libciomr.h">
<polygon fill="none" stroke="black" points="60.325,-56.5 60.325,-75.5 155.325,-75.5 155.325,-56.5 60.325,-56.5"/>
<text text-anchor="middle" x="107.825" y="-63.5" font-family="Helvetica,sans-Serif" font-size="10.00">libciomr/libciomr.h</text>
</a>
</g>
</g>
<!-- Node1&#45;&gt;Node5 -->
<g id="edge4" class="edge"><title>Node1&#45;&gt;Node5</title>
<path fill="none" stroke="midnightblue" d="M222.568,-168.464C209.485,-159.827 189.132,-145.814 172.825,-132 154.674,-116.623 135.622,-97.1158 122.874,-83.5012"/>
<polygon fill="midnightblue" stroke="midnightblue" points="125.176,-80.8362 115.814,-75.8754 120.039,-85.5915 125.176,-80.8362"/>
</g>
<!-- Node6 -->
<g id="node6" class="node"><title>Node6</title>
<g id="a_node6"><a xlink:href="lib_2libdpd_2dpd_8h.html" target="_top" xlink:title="Enter brief description of file here.">
<polygon fill="none" stroke="black" points="240.325,-56.5 240.325,-75.5 309.325,-75.5 309.325,-56.5 240.325,-56.5"/>
<text text-anchor="middle" x="274.825" y="-63.5" font-family="Helvetica,sans-Serif" font-size="10.00">libdpd/dpd.h</text>
</a>
</g>
</g>
<!-- Node1&#45;&gt;Node6 -->
<g id="edge6" class="edge"><title>Node1&#45;&gt;Node6</title>
<path fill="none" stroke="midnightblue" d="M238.885,-168.368C245.207,-150.537 259.829,-109.295 268.347,-85.2717"/>
<polygon fill="midnightblue" stroke="midnightblue" points="271.736,-86.1862 271.779,-75.5914 265.138,-83.847 271.736,-86.1862"/>
</g>
<!-- Node11 -->
<g id="node11" class="node"><title>Node11</title>
<g id="a_node11"><a xlink:href="qt_8h.html" target="_top" xlink:title="Header file for the Quantum Trio LibraryDavid Sherrill 1994.">
<polygon fill="none" stroke="black" points="181.825,-112.5 181.825,-131.5 235.825,-131.5 235.825,-112.5 181.825,-112.5"/>
<text text-anchor="middle" x="208.825" y="-119.5" font-family="Helvetica,sans-Serif" font-size="10.00">libqt/qt.h</text>
</a>
</g>
</g>
<!-- Node1&#45;&gt;Node11 -->
<g id="edge12" class="edge"><title>Node1&#45;&gt;Node11</title>
<path fill="none" stroke="midnightblue" d="M231.366,-168.083C227.671,-160.691 222.302,-149.953 217.731,-140.811"/>
<polygon fill="midnightblue" stroke="midnightblue" points="220.803,-139.13 213.201,-131.751 214.542,-142.261 220.803,-139.13"/>
</g>
<!-- Node13 -->
<g id="node13" class="node"><title>Node13</title>
<g id="a_node13"><a xlink:href="cceom_2MOInfo_8h.html" target="_top" xlink:title="Enter brief description of file here.">
<polygon fill="none" stroke="black" points="292.325,-112.5 292.325,-131.5 349.325,-131.5 349.325,-112.5 292.325,-112.5"/>
<text text-anchor="middle" x="320.825" y="-119.5" font-family="Helvetica,sans-Serif" font-size="10.00">MOInfo.h</text>
</a>
</g>
</g>
<!-- Node1&#45;&gt;Node13 -->
<g id="edge15" class="edge"><title>Node1&#45;&gt;Node13</title>
<path fill="none" stroke="midnightblue" d="M249.482,-168.324C262.741,-159.9 283.093,-146.971 298.671,-137.074"/>
<polygon fill="midnightblue" stroke="midnightblue" points="300.638,-139.971 307.202,-131.655 296.885,-134.063 300.638,-139.971"/>
</g>
<!-- Node14 -->
<g id="node14" class="node"><title>Node14</title>
<g id="a_node14"><a xlink:href="cceom_2Params_8h.html" target="_top" xlink:title="Enter brief description of file here.">
<polygon fill="none" stroke="black" points="508.325,-112.5 508.325,-131.5 567.325,-131.5 567.325,-112.5 508.325,-112.5"/>
<text text-anchor="middle" x="537.825" y="-119.5" font-family="Helvetica,sans-Serif" font-size="10.00">Params.h</text>
</a>
</g>
</g>
<!-- Node1&#45;&gt;Node14 -->
<g id="edge16" class="edge"><title>Node1&#45;&gt;Node14</title>
<path fill="none" stroke="midnightblue" d="M287.389,-169.073C338.353,-161.038 418.771,-147.82 497.908,-132.088"/>
<polygon fill="midnightblue" stroke="midnightblue" points="498.935,-135.452 508.053,-130.056 497.56,-128.588 498.935,-135.452"/>
</g>
<!-- Node15 -->
<g id="node15" class="node"><title>Node15</title>
<g id="a_node15"><a xlink:href="cceom_2Local_8h.html" target="_top" xlink:title="Enter brief description of file here.">
<polygon fill="none" stroke="black" points="441.825,-112.5 441.825,-131.5 489.825,-131.5 489.825,-112.5 441.825,-112.5"/>
<text text-anchor="middle" x="465.825" y="-119.5" font-family="Helvetica,sans-Serif" font-size="10.00">Local.h</text>
</a>
</g>
</g>
<!-- Node1&#45;&gt;Node15 -->
<g id="edge18" class="edge"><title>Node1&#45;&gt;Node15</title>
<path fill="none" stroke="midnightblue" d="M275.56,-168.433C313.328,-160.177 371.953,-147.069 431.717,-132.202"/>
<polygon fill="midnightblue" stroke="midnightblue" points="432.853,-135.525 441.705,-129.703 431.154,-128.735 432.853,-135.525"/>
</g>
<!-- Node16 -->
<g id="node16" class="node"><title>Node16</title>
<g id="a_node16"><a xlink:href="cceom_2globals_8h.html" target="_top" xlink:title="Enter brief description of file here.">
<polygon fill="none" stroke="black" points="367.825,-112.5 367.825,-131.5 423.825,-131.5 423.825,-112.5 367.825,-112.5"/>
<text text-anchor="middle" x="395.825" y="-119.5" font-family="Helvetica,sans-Serif" font-size="10.00">globals.h</text>
</a>
</g>
</g>
<!-- Node1&#45;&gt;Node16 -->
<g id="edge20" class="edge"><title>Node1&#45;&gt;Node16</title>
<path fill="none" stroke="midnightblue" d="M261.177,-168.444C288.094,-159.359 330.821,-144.939 360.912,-134.783"/>
<polygon fill="midnightblue" stroke="midnightblue" points="362.235,-138.031 370.591,-131.516 359.997,-131.398 362.235,-138.031"/>
</g>
<!-- Node5&#45;&gt;Node2 -->
<g id="edge5" class="edge"><title>Node5&#45;&gt;Node2</title>
<path fill="none" stroke="midnightblue" d="M103.366,-56.083C99.6706,-48.6913 94.3016,-37.9533 89.7305,-28.8111"/>
<polygon fill="midnightblue" stroke="midnightblue" points="92.8032,-27.1301 85.2005,-19.7511 86.5422,-30.2606 92.8032,-27.1301"/>
</g>
<!-- Node6&#45;&gt;Node2 -->
<g id="edge7" class="edge"><title>Node6&#45;&gt;Node2</title>
<path fill="none" stroke="midnightblue" d="M243.543,-56.4954C212.627,-48.0615 163.739,-34.6474 112.154,-20.066"/>
<polygon fill="midnightblue" stroke="midnightblue" points="113.07,-16.6877 102.495,-17.3307 111.163,-23.4229 113.07,-16.6877"/>
</g>
<!-- Node7 -->
<g id="node7" class="node"><title>Node7</title>
<g id="a_node7"><a xlink:href="psifiles_8h_source.html" target="_top" xlink:title="psifiles.h">
<polygon fill="none" stroke="black" points="408.825,-0.5 408.825,-19.5 464.825,-19.5 464.825,-0.5 408.825,-0.5"/>
<text text-anchor="middle" x="436.825" y="-7.5" font-family="Helvetica,sans-Serif" font-size="10.00">psifiles.h</text>
</a>
</g>
</g>
<!-- Node6&#45;&gt;Node7 -->
<g id="edge8" class="edge"><title>Node6&#45;&gt;Node7</title>
<path fill="none" stroke="midnightblue" d="M300.494,-56.4435C327.748,-47.3591 371.009,-32.9388 401.476,-22.7831"/>
<polygon fill="midnightblue" stroke="midnightblue" points="402.896,-25.9992 411.276,-19.5164 400.682,-19.3584 402.896,-25.9992"/>
</g>
<!-- Node8 -->
<g id="node8" class="node"><title>Node8</title>
<g id="a_node8"><a xlink:href="libpsio_2config_8h_source.html" target="_top" xlink:title="libpsio/config.h">
<polygon fill="none" stroke="black" points="120.825,-0.5 120.825,-19.5 202.825,-19.5 202.825,-0.5 120.825,-0.5"/>
<text text-anchor="middle" x="161.825" y="-7.5" font-family="Helvetica,sans-Serif" font-size="10.00">libpsio/config.h</text>
</a>
</g>
</g>
<!-- Node6&#45;&gt;Node8 -->
<g id="edge9" class="edge"><title>Node6&#45;&gt;Node8</title>
<path fill="none" stroke="midnightblue" d="M256.92,-56.4435C238.571,-47.6751 209.82,-33.9355 188.731,-23.8579"/>
<polygon fill="midnightblue" stroke="midnightblue" points="190.178,-20.6703 179.646,-19.5164 187.16,-26.9862 190.178,-20.6703"/>
</g>
<!-- Node9 -->
<g id="node9" class="node"><title>Node9</title>
<polygon fill="none" stroke="#bfbfbf" points="220.825,-0.5 220.825,-19.5 328.825,-19.5 328.825,-0.5 220.825,-0.5"/>
<text text-anchor="middle" x="274.825" y="-7.5" font-family="Helvetica,sans-Serif" font-size="10.00">boost/shared_ptr.hpp</text>
</g>
<!-- Node6&#45;&gt;Node9 -->
<g id="edge10" class="edge"><title>Node6&#45;&gt;Node9</title>
<path fill="none" stroke="midnightblue" d="M274.825,-56.083C274.825,-49.0059 274.825,-38.8611 274.825,-29.9865"/>
<polygon fill="midnightblue" stroke="midnightblue" points="278.325,-29.751 274.825,-19.7511 271.325,-29.7511 278.325,-29.751"/>
</g>
<!-- Node10 -->
<g id="node10" class="node"><title>Node10</title>
<polygon fill="none" stroke="#bfbfbf" points="346.825,-0.5 346.825,-19.5 390.825,-19.5 390.825,-0.5 346.825,-0.5"/>
<text text-anchor="middle" x="368.825" y="-7.5" font-family="Helvetica,sans-Serif" font-size="10.00">vector</text>
</g>
<!-- Node6&#45;&gt;Node10 -->
<g id="edge11" class="edge"><title>Node6&#45;&gt;Node10</title>
<path fill="none" stroke="midnightblue" d="M289.928,-56.324C304.728,-47.8215 327.519,-34.7288 344.807,-24.7975"/>
<polygon fill="midnightblue" stroke="midnightblue" points="346.832,-27.6707 353.76,-19.6545 343.345,-21.6009 346.832,-27.6707"/>
</g>
<!-- Node11&#45;&gt;Node2 -->
<g id="edge13" class="edge"><title>Node11&#45;&gt;Node2</title>
<path fill="none" stroke="midnightblue" d="M204.61,-112.468C197.648,-99.0633 182.626,-72.8607 163.825,-56 148.625,-42.3694 128.568,-31.35 111.979,-23.6275"/>
<polygon fill="midnightblue" stroke="midnightblue" points="113.232,-20.3541 102.674,-19.4668 110.374,-26.7442 113.232,-20.3541"/>
</g>
<!-- Node12 -->
<g id="node12" class="node"><title>Node12</title>
<polygon fill="none" stroke="#bfbfbf" points="445.325,-56.5 445.325,-75.5 486.325,-75.5 486.325,-56.5 445.325,-56.5"/>
<text text-anchor="middle" x="465.825" y="-63.5" font-family="Helvetica,sans-Serif" font-size="10.00">string</text>
</g>
<!-- Node11&#45;&gt;Node12 -->
<g id="edge14" class="edge"><title>Node11&#45;&gt;Node12</title>
<path fill="none" stroke="midnightblue" d="M235.843,-115.323C283.969,-105.211 384.238,-84.1428 434.984,-73.4801"/>
<polygon fill="midnightblue" stroke="midnightblue" points="435.958,-76.852 445.025,-71.3705 434.519,-70.0016 435.958,-76.852"/>
</g>
<!-- Node14&#45;&gt;Node12 -->
<g id="edge17" class="edge"><title>Node14&#45;&gt;Node12</title>
<path fill="none" stroke="midnightblue" d="M526.257,-112.324C515.405,-104.185 498.944,-91.8395 485.942,-82.0874"/>
<polygon fill="midnightblue" stroke="midnightblue" points="487.704,-79.0339 477.603,-75.8339 483.504,-84.6339 487.704,-79.0339"/>
</g>
<!-- Node15&#45;&gt;Node12 -->
<g id="edge19" class="edge"><title>Node15&#45;&gt;Node12</title>
<path fill="none" stroke="midnightblue" d="M465.825,-112.083C465.825,-105.006 465.825,-94.8611 465.825,-85.9865"/>
<polygon fill="midnightblue" stroke="midnightblue" points="469.325,-85.751 465.825,-75.7511 462.325,-85.7511 469.325,-85.751"/>
</g>
<!-- Node16&#45;&gt;Node7 -->
<g id="edge21" class="edge"><title>Node16&#45;&gt;Node7</title>
<path fill="none" stroke="midnightblue" d="M399.042,-112.368C405.689,-94.5366 421.06,-53.2953 430.015,-29.2717"/>
<polygon fill="midnightblue" stroke="midnightblue" points="433.41,-30.1841 433.623,-19.5914 426.85,-27.7393 433.41,-30.1841"/>
</g>
<!-- Node16&#45;&gt;Node6 -->
<g id="edge22" class="edge"><title>Node16&#45;&gt;Node6</title>
<path fill="none" stroke="midnightblue" d="M376.652,-112.444C356.916,-103.636 325.94,-89.8116 303.332,-79.722"/>
<polygon fill="midnightblue" stroke="midnightblue" points="304.466,-76.3957 293.908,-75.5164 301.614,-82.788 304.466,-76.3957"/>
</g>
</g>
</svg>
        <g id="navigator" transform="translate(0 0)" fill="#404254">
                <rect fill="#f2f5e9" fill-opacity="0.5" stroke="#606060" stroke-width=".5" x="0" y="0" width="60" height="60"/>
                <use id="zoomplus" xlink:href="#zoomPlus" x="17" y="9" onmousedown="handleZoom(evt,'in')"/>
                <use id="zoomminus" xlink:href="#zoomMin" x="42" y="9" onmousedown="handleZoom(evt,'out')"/>
                <use id="reset" xlink:href="#resetDef" x="30" y="36" onmousedown="handleReset()"/>
                <g id="arrowUp" xlink:href="#dirArrow" transform="translate(30 24)" onmousedown="handlePan(0,-1)">
                  <use xlink:href="#rim" fill="#404040">
                        <set attributeName="fill" to="#808080" begin="arrowUp.mouseover" end="arrowUp.mouseout"/>
                  </use>
                  <path fill="none" stroke="white" stroke-width="1.5" d="M0,-3.0v7 M-2.5,-0.5L0,-3.0L2.5,-0.5"/>
                </g>
                <g id="arrowRight" xlink:href="#dirArrow" transform="rotate(90) translate(36 -43)" onmousedown="handlePan(1,0)">
                  <use xlink:href="#rim" fill="#404040">
                        <set attributeName="fill" to="#808080" begin="arrowRight.mouseover" end="arrowRight.mouseout"/>
                  </use>
                  <path fill="none" stroke="white" stroke-width="1.5" d="M0,-3.0v7 M-2.5,-0.5L0,-3.0L2.5,-0.5"/>
                </g>
                <g id="arrowDown" xlink:href="#dirArrow" transform="rotate(180) translate(-30 -48)" onmousedown="handlePan(0,1)">
                  <use xlink:href="#rim" fill="#404040">
                        <set attributeName="fill" to="#808080" begin="arrowDown.mouseover" end="arrowDown.mouseout"/>
                  </use>
                  <path fill="none" stroke="white" stroke-width="1.5" d="M0,-3.0v7 M-2.5,-0.5L0,-3.0L2.5,-0.5"/>
                </g>
                <g id="arrowLeft" xlink:href="#dirArrow" transform="rotate(270) translate(-36 17)" onmousedown="handlePan(-1,0)">
                  <use xlink:href="#rim" fill="#404040">
                        <set attributeName="fill" to="#808080" begin="arrowLeft.mouseover" end="arrowLeft.mouseout"/>
                  </use>
                  <path fill="none" stroke="white" stroke-width="1.5" d="M0,-3.0v7 M-2.5,-0.5L0,-3.0L2.5,-0.5"/>
                </g>
        </g>
        <svg viewBox="0 0 15 15" width="100%" height="30px" preserveAspectRatio="xMaxYMin meet">
         <g id="arrow_out" transform="scale(0.3 0.3)">
          <a xlink:href="sigmaCC3__RHF_8cc__incl_org.svg" target="_base">
           <rect id="button" ry="5" rx="5" y="6" x="6" height="38" width="38"
                fill="#f2f5e9" fill-opacity="0.5" stroke="#606060" stroke-width="1.0"/>
           <path id="arrow"
             d="M 11.500037,31.436501 C 11.940474,20.09759 22.043105,11.32322 32.158766,21.979434 L 37.068811,17.246167 C 37.068811,17.246167 37.088388,32 37.088388,32 L 22.160133,31.978069 C 22.160133,31.978069 26.997745,27.140456 26.997745,27.140456 C 18.528582,18.264221 13.291696,25.230495 11.500037,31.436501 z"
             style="fill:#404040;"/>
          </a>
         </g>
        </svg>
</svg>
