<?xml version="1.0" encoding="UTF-8" standalone="no"?>
<!DOCTYPE svg PUBLIC "-//W3C//DTD SVG 1.1//EN"
 "http://www.w3.org/Graphics/SVG/1.1/DTD/svg11.dtd">
<!-- Generated by graphviz version 2.30.1 (20140110.0959)
 -->
<!-- Title: simple.h Pages: 1 -->
<!--zoomable 432 -->
<svg id="main" version="1.1" xmlns="http://www.w3.org/2000/svg" xmlns:xlink="http://www.w3.org/1999/xlink" xml:space="preserve" onload="init(evt)">
        <defs>
                <circle id="rim" cx="0" cy="0" r="7"/>
                <circle id="rim2" cx="0" cy="0" r="3.5"/>
                <g id="zoomPlus">
                        <use xlink:href="#rim" fill="#404040">
                                <set attributeName="fill" to="#808080" begin="zoomplus.mouseover" end="zoomplus.mouseout"/>
                        </use>
                        <path d="M-4,0h8M0,-4v8" fill="none" stroke="white" stroke-width="1.5" pointer-events="none"/>
                </g>
                <g id="zoomMin">
                        <use xlink:href="#rim" fill="#404040">
                                <set attributeName="fill" to="#808080" begin="zoomminus.mouseover" end="zoomminus.mouseout"/>
                        </use>
                        <path d="M-4,0h8" fill="none" stroke="white" stroke-width="1.5" pointer-events="none"/>
                </g>
                <g id="dirArrow">
                        <path fill="none" stroke="white" stroke-width="1.5" d="M0,-3.0v7 M-2.5,-0.5L0,-3.0L2.5,-0.5"/>
                </g>
               <g id="resetDef">
                       <use xlink:href="#rim2" fill="#404040">
                               <set attributeName="fill" to="#808080" begin="reset.mouseover" end="reset.mouseout"/>
                       </use>
               </g>
        </defs>

<script type="text/javascript">
var viewWidth = 1795;
var viewHeight = 432;
var sectionId = 'dynsection-1';
</script>
<script xlink:href="svgpan.js"/>
<svg id="graph" class="graph">
<g id="viewport">
<title>simple.h</title>
<!-- Node1 -->
<g id="node1" class="node"><title>Node1</title>
<polygon fill="#bfbfbf" stroke="black" points="655.5,-404.5 655.5,-423.5 708.5,-423.5 708.5,-404.5 655.5,-404.5"/>
<text text-anchor="middle" x="682" y="-411.5" font-family="Helvetica,sans-Serif" font-size="10.00">simple.h</text>
</g>
<!-- Node2 -->
<g id="node2" class="node"><title>Node2</title>
<g id="a_node2"><a xlink:href="bend_8h.html" target="_top" xlink:title="BEND class declaration.">
<polygon fill="none" stroke="black" points="584,-348.5 584,-367.5 630,-367.5 630,-348.5 584,-348.5"/>
<text text-anchor="middle" x="607" y="-355.5" font-family="Helvetica,sans-Serif" font-size="10.00">bend.h</text>
</a>
</g>
</g>
<!-- Node1&#45;&gt;Node2 -->
<g id="edge1" class="edge"><title>Node1&#45;&gt;Node2</title>
<path fill="none" stroke="midnightblue" d="M661.695,-398.38C648.139,-388.62 630.758,-376.106 619.269,-367.834"/>
<polygon fill="midnightblue" stroke="midnightblue" points="659.79,-401.321 669.95,-404.324 663.88,-395.641 659.79,-401.321"/>
</g>
<!-- Node4 -->
<g id="node4" class="node"><title>Node4</title>
<g id="a_node4"><a xlink:href="intcos_8h.html" target="_top" xlink:title="internal coordinate includes class declaration">
<polygon fill="none" stroke="black" points="632.5,-292.5 632.5,-311.5 683.5,-311.5 683.5,-292.5 632.5,-292.5"/>
<text text-anchor="middle" x="658" y="-299.5" font-family="Helvetica,sans-Serif" font-size="10.00">intcos.h</text>
</a>
</g>
</g>
<!-- Node1&#45;&gt;Node4 -->
<g id="edge42" class="edge"><title>Node1&#45;&gt;Node4</title>
<path fill="none" stroke="midnightblue" d="M677.93,-394.348C672.674,-370.254 663.74,-329.308 659.874,-311.591"/>
<polygon fill="midnightblue" stroke="midnightblue" points="674.565,-395.344 680.117,-404.368 681.405,-393.852 674.565,-395.344"/>
</g>
<!-- Node26 -->
<g id="node26" class="node"><title>Node26</title>
<g id="a_node26"><a xlink:href="stre_8h.html" target="_top" xlink:title="STRE class declaration.">
<polygon fill="none" stroke="black" points="686.5,-348.5 686.5,-367.5 727.5,-367.5 727.5,-348.5 686.5,-348.5"/>
<text text-anchor="middle" x="707" y="-355.5" font-family="Helvetica,sans-Serif" font-size="10.00">stre.h</text>
</a>
</g>
</g>
<!-- Node1&#45;&gt;Node26 -->
<g id="edge43" class="edge"><title>Node1&#45;&gt;Node26</title>
<path fill="none" stroke="midnightblue" d="M690.341,-394.983C694.585,-385.817 699.55,-375.092 702.949,-367.751"/>
<polygon fill="midnightblue" stroke="midnightblue" points="687.153,-393.538 686.128,-404.083 693.506,-396.479 687.153,-393.538"/>
</g>
<!-- Node28 -->
<g id="node28" class="node"><title>Node28</title>
<g id="a_node28"><a xlink:href="tors_8h.html" target="_top" xlink:title="TORS class declaration.">
<polygon fill="none" stroke="black" points="745.5,-348.5 745.5,-367.5 786.5,-367.5 786.5,-348.5 745.5,-348.5"/>
<text text-anchor="middle" x="766" y="-355.5" font-family="Helvetica,sans-Serif" font-size="10.00">tors.h</text>
</a>
</g>
</g>
<!-- Node1&#45;&gt;Node28 -->
<g id="edge46" class="edge"><title>Node1&#45;&gt;Node28</title>
<path fill="none" stroke="midnightblue" d="M703.932,-398.901C719.335,-388.999 739.446,-376.071 752.537,-367.655"/>
<polygon fill="midnightblue" stroke="midnightblue" points="702.015,-395.972 695.496,-404.324 705.801,-401.86 702.015,-395.972"/>
</g>
<!-- Node3 -->
<g id="node3" class="node"><title>Node3</title>
<g id="a_node3"><a xlink:href="bend_8cc.html" target="_top" xlink:title="bend.cc">
<polygon fill="none" stroke="black" points="-0.5,-6.5 -0.5,-25.5 50.5,-25.5 50.5,-6.5 -0.5,-6.5"/>
<text text-anchor="middle" x="25" y="-13.5" font-family="Helvetica,sans-Serif" font-size="10.00">bend.cc</text>
</a>
</g>
</g>
<!-- Node2&#45;&gt;Node3 -->
<g id="edge2" class="edge"><title>Node2&#45;&gt;Node3</title>
<path fill="none" stroke="midnightblue" d="M573.507,-357.67C451.79,-359.219 40,-356.38 40,-247 40,-247 40,-247 40,-133 40,-92.5899 30.9361,-44.9104 26.8998,-25.6814"/>
<polygon fill="midnightblue" stroke="midnightblue" points="573.768,-361.166 583.716,-357.52 573.666,-354.167 573.768,-361.166"/>
</g>
<!-- Node2&#45;&gt;Node4 -->
<g id="edge3" class="edge"><title>Node2&#45;&gt;Node4</title>
<path fill="none" stroke="midnightblue" d="M622.378,-340.718C631.367,-331.2 642.359,-319.561 649.735,-311.751"/>
<polygon fill="midnightblue" stroke="midnightblue" points="619.743,-338.41 615.422,-348.083 624.832,-343.216 619.743,-338.41"/>
</g>
<!-- Node5 -->
<g id="node5" class="node"><title>Node5</title>
<g id="a_node5"><a xlink:href="frag_8h.html" target="_top" xlink:title="frag.h">
<polygon fill="none" stroke="black" points="637.5,-236.5 637.5,-255.5 678.5,-255.5 678.5,-236.5 637.5,-236.5"/>
<text text-anchor="middle" x="658" y="-243.5" font-family="Helvetica,sans-Serif" font-size="10.00">frag.h</text>
</a>
</g>
</g>
<!-- Node4&#45;&gt;Node5 -->
<g id="edge4" class="edge"><title>Node4&#45;&gt;Node5</title>
<path fill="none" stroke="midnightblue" d="M658,-281.805C658,-272.91 658,-262.78 658,-255.751"/>
<polygon fill="midnightblue" stroke="midnightblue" points="654.5,-282.083 658,-292.083 661.5,-282.083 654.5,-282.083"/>
</g>
<!-- Node6 -->
<g id="node6" class="node"><title>Node6</title>
<g id="a_node6"><a xlink:href="bin_2optking_2molecule_8h_source.html" target="_top" xlink:title="molecule.h">
<polygon fill="none" stroke="black" points="626,-180.5 626,-199.5 690,-199.5 690,-180.5 626,-180.5"/>
<text text-anchor="middle" x="658" y="-187.5" font-family="Helvetica,sans-Serif" font-size="10.00">molecule.h</text>
</a>
</g>
</g>
<!-- Node5&#45;&gt;Node6 -->
<g id="edge5" class="edge"><title>Node5&#45;&gt;Node6</title>
<path fill="none" stroke="midnightblue" d="M658,-225.805C658,-216.91 658,-206.78 658,-199.751"/>
<polygon fill="midnightblue" stroke="midnightblue" points="654.5,-226.083 658,-236.083 661.5,-226.083 654.5,-226.083"/>
</g>
<!-- Node9 -->
<g id="node9" class="node"><title>Node9</title>
<g id="a_node9"><a xlink:href="frag_8cc.html" target="_top" xlink:title="fragment (molecule) class">
<polygon fill="none" stroke="black" points="68.5,-6.5 68.5,-25.5 115.5,-25.5 115.5,-6.5 68.5,-6.5"/>
<text text-anchor="middle" x="92" y="-13.5" font-family="Helvetica,sans-Serif" font-size="10.00">frag.cc</text>
</a>
</g>
</g>
<!-- Node5&#45;&gt;Node9 -->
<g id="edge38" class="edge"><title>Node5&#45;&gt;Node9</title>
<path fill="none" stroke="midnightblue" d="M626.937,-245.544C562.079,-245.756 408.307,-241.412 288,-200 242.379,-184.296 231.41,-175.657 195,-144 151.082,-105.815 111.453,-47.347 97.4058,-25.5665"/>
<polygon fill="midnightblue" stroke="midnightblue" points="627.303,-249.041 637.277,-245.467 627.252,-242.041 627.303,-249.041"/>
</g>
<!-- Node10 -->
<g id="node10" class="node"><title>Node10</title>
<g id="a_node10"><a xlink:href="frag__apply__frozen__constraints_8cc.html" target="_top" xlink:title="apply constraints specified by given strings">
<polygon fill="none" stroke="black" points="1448.5,-6.5 1448.5,-25.5 1609.5,-25.5 1609.5,-6.5 1448.5,-6.5"/>
<text text-anchor="middle" x="1529" y="-13.5" font-family="Helvetica,sans-Serif" font-size="10.00">frag_apply_frozen_constraints.cc</text>
</a>
</g>
</g>
<!-- Node5&#45;&gt;Node10 -->
<g id="edge39" class="edge"><title>Node5&#45;&gt;Node10</title>
<path fill="none" stroke="midnightblue" d="M688.685,-236.968C822.994,-201.81 1358.52,-61.6268 1496.46,-25.5183"/>
<polygon fill="midnightblue" stroke="midnightblue" points="687.459,-233.671 678.671,-239.589 689.232,-240.442 687.459,-233.671"/>
</g>
<!-- Node11 -->
<g id="node11" class="node"><title>Node11</title>
<g id="a_node11"><a xlink:href="frag__disp_8cc.html" target="_top" xlink:title="displace fragment geometry only dq changes to values of coordinates">
<polygon fill="none" stroke="black" points="134,-6.5 134,-25.5 204,-25.5 204,-6.5 134,-6.5"/>
<text text-anchor="middle" x="169" y="-13.5" font-family="Helvetica,sans-Serif" font-size="10.00">frag_disp.cc</text>
</a>
</g>
</g>
<!-- Node5&#45;&gt;Node11 -->
<g id="edge40" class="edge"><title>Node5&#45;&gt;Node11</title>
<path fill="none" stroke="midnightblue" d="M627.213,-241.769C537.432,-231.776 278.312,-198.707 216,-144 179.429,-111.892 171.27,-48.6731 169.487,-25.6484"/>
<polygon fill="midnightblue" stroke="midnightblue" points="626.976,-245.264 637.298,-242.873 627.738,-238.305 626.976,-245.264"/>
</g>
<!-- Node13 -->
<g id="node13" class="node"><title>Node13</title>
<g id="a_node13"><a xlink:href="interfrag__orient_8cc.html" target="_top" xlink:title="function moves the geometry of fragment B so that the interfragment coordinates have the given values...">
<polygon fill="none" stroke="black" points="1627.5,-6.5 1627.5,-25.5 1722.5,-25.5 1722.5,-6.5 1627.5,-6.5"/>
<text text-anchor="middle" x="1675" y="-13.5" font-family="Helvetica,sans-Serif" font-size="10.00">interfrag_orient.cc</text>
</a>
</g>
</g>
<!-- Node5&#45;&gt;Node13 -->
<g id="edge41" class="edge"><title>Node5&#45;&gt;Node13</title>
<path fill="none" stroke="midnightblue" d="M688.6,-239.037C731.458,-230.63 811.774,-214.678 880,-200 1208.87,-129.247 1291.3,-112.149 1618,-32 1626.25,-29.9764 1635.14,-27.6882 1643.39,-25.5197"/>
<polygon fill="midnightblue" stroke="midnightblue" points="687.682,-235.65 678.54,-241.006 689.027,-242.52 687.682,-235.65"/>
</g>
<!-- Node7 -->
<g id="node7" class="node"><title>Node7</title>
<g id="a_node7"><a xlink:href="opt__data_8h.html" target="_top" xlink:title="opt_data.h">
<polygon fill="none" stroke="black" points="225,-124.5 225,-143.5 287,-143.5 287,-124.5 225,-124.5"/>
<text text-anchor="middle" x="256" y="-131.5" font-family="Helvetica,sans-Serif" font-size="10.00">opt_data.h</text>
</a>
</g>
</g>
<!-- Node6&#45;&gt;Node7 -->
<g id="edge6" class="edge"><title>Node6&#45;&gt;Node7</title>
<path fill="none" stroke="midnightblue" d="M615.426,-183.281C534.175,-172.367 358.733,-148.8 287.259,-139.199"/>
<polygon fill="midnightblue" stroke="midnightblue" points="615.405,-186.81 625.782,-184.672 616.337,-179.872 615.405,-186.81"/>
</g>
<!-- Node25 -->
<g id="node25" class="node"><title>Node25</title>
<g id="a_node25"><a xlink:href="IRC__data_8h.html" target="_top" xlink:title="IRC_data.h">
<polygon fill="none" stroke="black" points="524.5,-124.5 524.5,-143.5 591.5,-143.5 591.5,-124.5 524.5,-124.5"/>
<text text-anchor="middle" x="558" y="-131.5" font-family="Helvetica,sans-Serif" font-size="10.00">IRC_data.h</text>
</a>
</g>
</g>
<!-- Node6&#45;&gt;Node25 -->
<g id="edge28" class="edge"><title>Node6&#45;&gt;Node25</title>
<path fill="none" stroke="midnightblue" d="M632.912,-175.453C614.451,-165.483 589.903,-152.228 574.027,-143.655"/>
<polygon fill="midnightblue" stroke="midnightblue" points="631.471,-178.652 641.933,-180.324 634.797,-172.493 631.471,-178.652"/>
</g>
<!-- Node12 -->
<g id="node12" class="node"><title>Node12</title>
<g id="a_node12"><a xlink:href="geom__gradients__io_8cc.html" target="_top" xlink:title="functions to read and write the geometry, the gradient and the Hessian">
<polygon fill="none" stroke="black" points="436,-6.5 436,-25.5 548,-25.5 548,-6.5 436,-6.5"/>
<text text-anchor="middle" x="492" y="-13.5" font-family="Helvetica,sans-Serif" font-size="10.00">geom_gradients_io.cc</text>
</a>
</g>
</g>
<!-- Node6&#45;&gt;Node12 -->
<g id="edge31" class="edge"><title>Node6&#45;&gt;Node12</title>
<path fill="none" stroke="midnightblue" d="M643.888,-172.631C632.308,-159.334 615.373,-140.198 600,-124 564.387,-86.4776 519.999,-43.6899 501.148,-25.6944"/>
<polygon fill="midnightblue" stroke="midnightblue" points="641.46,-175.173 650.655,-180.436 646.749,-170.587 641.46,-175.173"/>
</g>
<!-- Node15 -->
<g id="node15" class="node"><title>Node15</title>
<g id="a_node15"><a xlink:href="molecule__fragments_8cc.html" target="_top" xlink:title="functions to handle fragments">
<polygon fill="none" stroke="black" points="566,-6.5 566,-25.5 684,-25.5 684,-6.5 566,-6.5"/>
<text text-anchor="middle" x="625" y="-13.5" font-family="Helvetica,sans-Serif" font-size="10.00">molecule_fragments.cc</text>
</a>
</g>
</g>
<!-- Node6&#45;&gt;Node15 -->
<g id="edge32" class="edge"><title>Node6&#45;&gt;Node15</title>
<path fill="none" stroke="midnightblue" d="M654.408,-170.278C647.307,-133.269 631.723,-52.0425 626.639,-25.5442"/>
<polygon fill="midnightblue" stroke="midnightblue" points="650.997,-171.073 656.318,-180.234 657.871,-169.754 650.997,-171.073"/>
</g>
<!-- Node16 -->
<g id="node16" class="node"><title>Node16</title>
<g id="a_node16"><a xlink:href="molecule__irc__step_8cc.html" target="_top" xlink:title="molecule_irc_step.cc">
<polygon fill="none" stroke="black" points="308.5,-6.5 308.5,-25.5 417.5,-25.5 417.5,-6.5 308.5,-6.5"/>
<text text-anchor="middle" x="363" y="-13.5" font-family="Helvetica,sans-Serif" font-size="10.00">molecule_irc_step.cc</text>
</a>
</g>
</g>
<!-- Node6&#45;&gt;Node16 -->
<g id="edge33" class="edge"><title>Node6&#45;&gt;Node16</title>
<path fill="none" stroke="midnightblue" d="M615.93,-180.355C586.482,-173.226 546.865,-161.427 515,-144 452.849,-110.01 392.299,-48.4874 371.017,-25.7517"/>
<polygon fill="midnightblue" stroke="midnightblue" points="615.359,-183.815 625.893,-182.683 616.952,-176.999 615.359,-183.815"/>
</g>
<!-- Node17 -->
<g id="node17" class="node"><title>Node17</title>
<g id="a_node17"><a xlink:href="molecule__linesearch__step_8cc.html" target="_top" xlink:title="Generates geometries for a line&#45;search in internal coordinates. Currently, a static line search merel...">
<polygon fill="none" stroke="black" points="974.5,-1 974.5,-31 1079.5,-31 1079.5,-1 974.5,-1"/>
<text text-anchor="start" x="982.5" y="-19" font-family="Helvetica,sans-Serif" font-size="10.00">molecule_linesearch</text>
<text text-anchor="middle" x="1027" y="-8" font-family="Helvetica,sans-Serif" font-size="10.00">_step.cc</text>
</a>
</g>
</g>
<!-- Node6&#45;&gt;Node17 -->
<g id="edge34" class="edge"><title>Node6&#45;&gt;Node17</title>
<path fill="none" stroke="midnightblue" d="M678.615,-174.217C714.017,-149.385 789.301,-98.9839 859,-68 879.959,-58.6827 934.338,-42.6941 975.599,-31.0984"/>
<polygon fill="midnightblue" stroke="midnightblue" points="676.257,-171.598 670.112,-180.229 680.298,-177.313 676.257,-171.598"/>
</g>
<!-- Node18 -->
<g id="node18" class="node"><title>Node18</title>
<g id="a_node18"><a xlink:href="molecule__read__intcos_8cc.html" target="_top" xlink:title="read internal coordinates from file">
<polygon fill="none" stroke="black" points="1097.5,-6.5 1097.5,-25.5 1222.5,-25.5 1222.5,-6.5 1097.5,-6.5"/>
<text text-anchor="middle" x="1160" y="-13.5" font-family="Helvetica,sans-Serif" font-size="10.00">molecule_read_intcos.cc</text>
</a>
</g>
</g>
<!-- Node6&#45;&gt;Node18 -->
<g id="edge35" class="edge"><title>Node6&#45;&gt;Node18</title>
<path fill="none" stroke="midnightblue" d="M686.292,-176.099C747.272,-148.416 889.644,-84.4952 940,-68 972.881,-57.229 1065,-37.0676 1119.04,-25.5842"/>
<polygon fill="midnightblue" stroke="midnightblue" points="684.549,-173.046 676.894,-180.37 687.446,-179.418 684.549,-173.046"/>
</g>
<!-- Node19 -->
<g id="node19" class="node"><title>Node19</title>
<g id="a_node19"><a xlink:href="molecule__sd__step_8cc.html" target="_top" xlink:title="steepest&#45;descent step for molecule">
<polygon fill="none" stroke="black" points="1240.5,-6.5 1240.5,-25.5 1349.5,-25.5 1349.5,-6.5 1240.5,-6.5"/>
<text text-anchor="middle" x="1295" y="-13.5" font-family="Helvetica,sans-Serif" font-size="10.00">molecule_sd_step.cc</text>
</a>
</g>
</g>
<!-- Node6&#45;&gt;Node19 -->
<g id="edge36" class="edge"><title>Node6&#45;&gt;Node19</title>
<path fill="none" stroke="midnightblue" d="M693.534,-177.347C763.68,-154.575 925.115,-103.312 1063,-68 1136.97,-49.0554 1156.49,-48.7133 1231,-32 1240.13,-29.9518 1249.98,-27.6767 1259.15,-25.5303"/>
<polygon fill="midnightblue" stroke="midnightblue" points="692.286,-174.072 683.86,-180.495 694.453,-180.729 692.286,-174.072"/>
</g>
<!-- Node21 -->
<g id="node21" class="node"><title>Node21</title>
<g id="a_node21"><a xlink:href="optking_8cc.html" target="_top" xlink:title="optking.cc">
<polygon fill="none" stroke="black" points="1368,-6.5 1368,-25.5 1430,-25.5 1430,-6.5 1368,-6.5"/>
<text text-anchor="middle" x="1399" y="-13.5" font-family="Helvetica,sans-Serif" font-size="10.00">optking.cc</text>
</a>
</g>
</g>
<!-- Node6&#45;&gt;Node21 -->
<g id="edge37" class="edge"><title>Node6&#45;&gt;Node21</title>
<path fill="none" stroke="midnightblue" d="M700.116,-181.536C809.702,-161.69 1112.29,-104.169 1358,-32 1364.25,-30.1631 1370.93,-27.8675 1377.05,-25.6288"/>
<polygon fill="midnightblue" stroke="midnightblue" points="699.342,-178.119 690.122,-183.338 700.584,-185.008 699.342,-178.119"/>
</g>
<!-- Node8 -->
<g id="node8" class="node"><title>Node8</title>
<g id="a_node8"><a xlink:href="optking_2globals_8h_source.html" target="_top" xlink:title="globals.h">
<polygon fill="none" stroke="black" points="719,-68.5 719,-87.5 775,-87.5 775,-68.5 719,-68.5"/>
<text text-anchor="middle" x="747" y="-75.5" font-family="Helvetica,sans-Serif" font-size="10.00">globals.h</text>
</a>
</g>
</g>
<!-- Node7&#45;&gt;Node8 -->
<g id="edge7" class="edge"><title>Node7&#45;&gt;Node8</title>
<path fill="none" stroke="midnightblue" d="M297.12,-128.478C394.309,-117.789 636.226,-91.1829 718.833,-82.0978"/>
<polygon fill="midnightblue" stroke="midnightblue" points="296.644,-125.009 287.087,-129.581 297.409,-131.967 296.644,-125.009"/>
</g>
<!-- Node7&#45;&gt;Node9 -->
<g id="edge25" class="edge"><title>Node7&#45;&gt;Node9</title>
<path fill="none" stroke="midnightblue" d="M235.545,-118.532C200.949,-94.0615 131.935,-45.2468 104.077,-25.5423"/>
<polygon fill="midnightblue" stroke="midnightblue" points="233.755,-121.553 243.941,-124.47 237.798,-115.838 233.755,-121.553"/>
</g>
<!-- Node7&#45;&gt;Node11 -->
<g id="edge26" class="edge"><title>Node7&#45;&gt;Node11</title>
<path fill="none" stroke="midnightblue" d="M243.291,-116.055C224.413,-90.8842 189.656,-44.5418 175.379,-25.5048"/>
<polygon fill="midnightblue" stroke="midnightblue" points="240.661,-118.381 249.461,-124.281 246.261,-114.181 240.661,-118.381"/>
</g>
<!-- Node20 -->
<g id="node20" class="node"><title>Node20</title>
<g id="a_node20"><a xlink:href="opt__data_8cc.html" target="_top" xlink:title="OPT_DATA associated functions that do not do i/o.">
<polygon fill="none" stroke="black" points="222,-6.5 222,-25.5 290,-25.5 290,-6.5 222,-6.5"/>
<text text-anchor="middle" x="256" y="-13.5" font-family="Helvetica,sans-Serif" font-size="10.00">opt_data.cc</text>
</a>
</g>
</g>
<!-- Node7&#45;&gt;Node20 -->
<g id="edge27" class="edge"><title>Node7&#45;&gt;Node20</title>
<path fill="none" stroke="midnightblue" d="M256,-114.025C256,-88.464 256,-44.0408 256,-25.5048"/>
<polygon fill="midnightblue" stroke="midnightblue" points="252.5,-114.281 256,-124.281 259.5,-114.281 252.5,-114.281"/>
</g>
<!-- Node8&#45;&gt;Node3 -->
<g id="edge8" class="edge"><title>Node8&#45;&gt;Node3</title>
<path fill="none" stroke="midnightblue" d="M708.448,-76.2454C582.437,-73.5026 183.685,-62.5658 59,-32 52.9845,-30.5253 46.6994,-28.0473 41.1928,-25.5258"/>
<polygon fill="midnightblue" stroke="midnightblue" points="708.685,-79.7511 718.758,-76.4646 708.834,-72.7527 708.685,-79.7511"/>
</g>
<!-- Node8&#45;&gt;Node9 -->
<g id="edge9" class="edge"><title>Node8&#45;&gt;Node9</title>
<path fill="none" stroke="midnightblue" d="M708.666,-75.9972C591.027,-72.6415 236.407,-60.3786 125,-32 119.145,-30.5087 113.041,-28.0265 107.698,-25.5063"/>
<polygon fill="midnightblue" stroke="midnightblue" points="708.882,-79.5045 718.976,-76.2856 709.078,-72.5072 708.882,-79.5045"/>
</g>
<!-- Node8&#45;&gt;Node10 -->
<g id="edge10" class="edge"><title>Node8&#45;&gt;Node10</title>
<path fill="none" stroke="midnightblue" d="M785.199,-75.8602C889.988,-72.4435 1190.69,-60.6926 1439,-32 1453.48,-30.3271 1469.17,-27.9194 1483.34,-25.521"/>
<polygon fill="midnightblue" stroke="midnightblue" points="784.988,-72.365 775.106,-76.1831 785.212,-79.3615 784.988,-72.365"/>
</g>
<!-- Node8&#45;&gt;Node11 -->
<g id="edge11" class="edge"><title>Node8&#45;&gt;Node11</title>
<path fill="none" stroke="midnightblue" d="M708.776,-76.964C620.478,-76.192 395.889,-70.2768 213,-32 205.575,-30.4459 197.67,-28.0107 190.639,-25.551"/>
<polygon fill="midnightblue" stroke="midnightblue" points="708.832,-80.4644 718.857,-77.0344 708.881,-73.4645 708.832,-80.4644"/>
</g>
<!-- Node8&#45;&gt;Node12 -->
<g id="edge12" class="edge"><title>Node8&#45;&gt;Node12</title>
<path fill="none" stroke="midnightblue" d="M708.877,-68.0298C660.049,-56.541 576.036,-36.7732 528.169,-25.5105"/>
<polygon fill="midnightblue" stroke="midnightblue" points="708.2,-71.4662 718.736,-70.3497 709.804,-64.6523 708.2,-71.4662"/>
</g>
<!-- Node8&#45;&gt;Node13 -->
<g id="edge13" class="edge"><title>Node8&#45;&gt;Node13</title>
<path fill="none" stroke="midnightblue" d="M785.529,-76.0638C931.971,-72.3417 1453.98,-57.5405 1618,-32 1627.61,-30.5043 1637.93,-28.0531 1647.12,-25.5614"/>
<polygon fill="midnightblue" stroke="midnightblue" points="785.161,-72.5718 775.252,-76.3224 785.337,-79.5696 785.161,-72.5718"/>
</g>
<!-- Node14 -->
<g id="node14" class="node"><title>Node14</title>
<g id="a_node14"><a xlink:href="linear__algebra_8cc.html" target="_top" xlink:title="linear algebra functions which call lapack and blas are in global namespace and preceded with opt...">
<polygon fill="none" stroke="black" points="702,-6.5 702,-25.5 792,-25.5 792,-6.5 702,-6.5"/>
<text text-anchor="middle" x="747" y="-13.5" font-family="Helvetica,sans-Serif" font-size="10.00">linear_algebra.cc</text>
</a>
</g>
</g>
<!-- Node8&#45;&gt;Node14 -->
<g id="edge14" class="edge"><title>Node8&#45;&gt;Node14</title>
<path fill="none" stroke="midnightblue" d="M747,-58.1595C747,-47.2482 747,-34.04 747,-25.5806"/>
<polygon fill="midnightblue" stroke="midnightblue" points="743.5,-58.4034 747,-68.4035 750.5,-58.4035 743.5,-58.4034"/>
</g>
<!-- Node8&#45;&gt;Node15 -->
<g id="edge15" class="edge"><title>Node8&#45;&gt;Node15</title>
<path fill="none" stroke="midnightblue" d="M720.387,-63.9116C696.727,-52.2756 662.817,-35.5983 642.447,-25.5806"/>
<polygon fill="midnightblue" stroke="midnightblue" points="719.002,-67.1309 729.52,-68.4035 722.092,-60.8495 719.002,-67.1309"/>
</g>
<!-- Node8&#45;&gt;Node16 -->
<g id="edge16" class="edge"><title>Node8&#45;&gt;Node16</title>
<path fill="none" stroke="midnightblue" d="M708.408,-72.7168C648.089,-65.7654 527.922,-50.8828 427,-32 417.129,-30.153 406.481,-27.8034 396.758,-25.5149"/>
<polygon fill="midnightblue" stroke="midnightblue" points="708.275,-76.2244 718.608,-73.8823 709.07,-69.2696 708.275,-76.2244"/>
</g>
<!-- Node8&#45;&gt;Node17 -->
<g id="edge17" class="edge"><title>Node8&#45;&gt;Node17</title>
<path fill="none" stroke="midnightblue" d="M785.172,-69.5267C828.759,-60.8992 902.16,-46.0831 965,-32 968.026,-31.3219 971.131,-30.6127 974.263,-29.8873"/>
<polygon fill="midnightblue" stroke="midnightblue" points="784.418,-66.108 775.285,-71.4788 785.774,-72.9755 784.418,-66.108"/>
</g>
<!-- Node8&#45;&gt;Node18 -->
<g id="edge18" class="edge"><title>Node8&#45;&gt;Node18</title>
<path fill="none" stroke="midnightblue" d="M785.718,-72.8381C849.113,-65.8113 978.923,-50.5331 1088,-32 1098.95,-30.1392 1110.78,-27.8108 1121.61,-25.5475"/>
<polygon fill="midnightblue" stroke="midnightblue" points="784.956,-69.4007 775.399,-73.9738 785.722,-76.3587 784.956,-69.4007"/>
</g>
<!-- Node8&#45;&gt;Node19 -->
<g id="edge19" class="edge"><title>Node8&#45;&gt;Node19</title>
<path fill="none" stroke="midnightblue" d="M785.39,-75.2276C867.567,-71.0404 1066.42,-58.8066 1231,-32 1241.36,-30.3121 1252.54,-27.9001 1262.61,-25.5025"/>
<polygon fill="midnightblue" stroke="midnightblue" points="785.082,-71.7385 775.269,-75.7324 785.431,-78.7298 785.082,-71.7385"/>
</g>
<!-- Node8&#45;&gt;Node20 -->
<g id="edge20" class="edge"><title>Node8&#45;&gt;Node20</title>
<path fill="none" stroke="midnightblue" d="M708.539,-76.1761C630.447,-73.8401 448.066,-65.0014 299,-32 291.898,-30.4277 284.347,-28.0482 277.587,-25.6448"/>
<polygon fill="midnightblue" stroke="midnightblue" points="708.758,-79.6835 718.852,-76.4644 708.954,-72.6863 708.758,-79.6835"/>
</g>
<!-- Node8&#45;&gt;Node21 -->
<g id="edge21" class="edge"><title>Node8&#45;&gt;Node21</title>
<path fill="none" stroke="midnightblue" d="M785.365,-75.5652C901.469,-71.0036 1247.84,-55.7241 1358,-32 1364.97,-30.5 1372.34,-28.0792 1378.89,-25.616"/>
<polygon fill="midnightblue" stroke="midnightblue" points="785.035,-72.0752 775.178,-75.961 785.307,-79.07 785.035,-72.0752"/>
</g>
<!-- Node22 -->
<g id="node22" class="node"><title>Node22</title>
<g id="a_node22"><a xlink:href="set__params_8cc.html" target="_top" xlink:title="set optimization parameters">
<polygon fill="none" stroke="black" points="810.5,-6.5 810.5,-25.5 891.5,-25.5 891.5,-6.5 810.5,-6.5"/>
<text text-anchor="middle" x="851" y="-13.5" font-family="Helvetica,sans-Serif" font-size="10.00">set_params.cc</text>
</a>
</g>
</g>
<!-- Node8&#45;&gt;Node22 -->
<g id="edge22" class="edge"><title>Node8&#45;&gt;Node22</title>
<path fill="none" stroke="midnightblue" d="M770.77,-63.2863C790.88,-51.6847 819.072,-35.4202 836.127,-25.5806"/>
<polygon fill="midnightblue" stroke="midnightblue" points="768.813,-60.3745 761.901,-68.4035 772.312,-66.4378 768.813,-60.3745"/>
</g>
<!-- Node23 -->
<g id="node23" class="node"><title>Node23</title>
<g id="a_node23"><a xlink:href="tors_8cc.html" target="_top" xlink:title="tors class">
<polygon fill="none" stroke="black" points="1740.5,-6.5 1740.5,-25.5 1787.5,-25.5 1787.5,-6.5 1740.5,-6.5"/>
<text text-anchor="middle" x="1764" y="-13.5" font-family="Helvetica,sans-Serif" font-size="10.00">tors.cc</text>
</a>
</g>
</g>
<!-- Node8&#45;&gt;Node23 -->
<g id="edge23" class="edge"><title>Node8&#45;&gt;Node23</title>
<path fill="none" stroke="midnightblue" d="M785.427,-77.1819C943.863,-77.6342 1546.73,-76.3452 1731,-32 1736.87,-30.5864 1742.98,-28.1237 1748.32,-25.5974"/>
<polygon fill="midnightblue" stroke="midnightblue" points="785.231,-73.6814 775.22,-77.1485 785.208,-80.6813 785.231,-73.6814"/>
</g>
<!-- Node24 -->
<g id="node24" class="node"><title>Node24</title>
<g id="a_node24"><a xlink:href="v3d_8cc.html" target="_top" xlink:title="v3d functions">
<polygon fill="none" stroke="black" points="910,-6.5 910,-25.5 956,-25.5 956,-6.5 910,-6.5"/>
<text text-anchor="middle" x="933" y="-13.5" font-family="Helvetica,sans-Serif" font-size="10.00">v3d.cc</text>
</a>
</g>
</g>
<!-- Node8&#45;&gt;Node24 -->
<g id="edge24" class="edge"><title>Node8&#45;&gt;Node24</title>
<path fill="none" stroke="midnightblue" d="M785.058,-67.4036C816.312,-59.1435 861.534,-46.3183 900,-32 905.072,-30.112 910.461,-27.7997 915.381,-25.5612"/>
<polygon fill="midnightblue" stroke="midnightblue" points="783.814,-64.1109 775.024,-70.0254 785.584,-70.8836 783.814,-64.1109"/>
</g>
<!-- Node25&#45;&gt;Node8 -->
<g id="edge29" class="edge"><title>Node25&#45;&gt;Node8</title>
<path fill="none" stroke="midnightblue" d="M597.703,-121.656C633.943,-111.302 686.611,-96.2541 718.736,-87.0755"/>
<polygon fill="midnightblue" stroke="midnightblue" points="596.601,-118.331 587.948,-124.444 598.524,-125.062 596.601,-118.331"/>
</g>
<!-- Node25&#45;&gt;Node16 -->
<g id="edge30" class="edge"><title>Node25&#45;&gt;Node16</title>
<path fill="none" stroke="midnightblue" d="M537.46,-118.492C517.897,-104.887 487.446,-84.2603 460,-68 432.827,-51.9017 400.109,-35.2368 380.462,-25.5091"/>
<polygon fill="midnightblue" stroke="midnightblue" points="535.68,-121.518 545.881,-124.382 539.693,-115.782 535.68,-121.518"/>
</g>
<!-- Node26&#45;&gt;Node4 -->
<g id="edge44" class="edge"><title>Node26&#45;&gt;Node4</title>
<path fill="none" stroke="midnightblue" d="M691.966,-340.431C683.378,-330.967 672.957,-319.483 665.941,-311.751"/>
<polygon fill="midnightblue" stroke="midnightblue" points="689.597,-343.029 698.909,-348.083 694.781,-338.325 689.597,-343.029"/>
</g>
<!-- Node27 -->
<g id="node27" class="node"><title>Node27</title>
<g id="a_node27"><a xlink:href="stre_8cc.html" target="_top" xlink:title="stretch class definition">
<polygon fill="none" stroke="black" points="701.5,-292.5 701.5,-311.5 748.5,-311.5 748.5,-292.5 701.5,-292.5"/>
<text text-anchor="middle" x="725" y="-299.5" font-family="Helvetica,sans-Serif" font-size="10.00">stre.cc</text>
</a>
</g>
</g>
<!-- Node26&#45;&gt;Node27 -->
<g id="edge45" class="edge"><title>Node26&#45;&gt;Node27</title>
<path fill="none" stroke="midnightblue" d="M713.201,-338.396C716.213,-329.362 719.688,-318.936 722.083,-311.751"/>
<polygon fill="midnightblue" stroke="midnightblue" points="709.814,-337.489 709.972,-348.083 716.455,-339.703 709.814,-337.489"/>
</g>
<!-- Node28&#45;&gt;Node4 -->
<g id="edge47" class="edge"><title>Node28&#45;&gt;Node4</title>
<path fill="none" stroke="midnightblue" d="M739.452,-343.726C719.454,-333.727 692.613,-320.307 675.309,-311.655"/>
<polygon fill="midnightblue" stroke="midnightblue" points="738.138,-346.982 748.648,-348.324 741.269,-340.721 738.138,-346.982"/>
</g>
<!-- Node28&#45;&gt;Node23 -->
<g id="edge48" class="edge"><title>Node28&#45;&gt;Node23</title>
<path fill="none" stroke="midnightblue" d="M797.079,-356.806C962.597,-355.373 1733,-343.521 1733,-247 1733,-247 1733,-247 1733,-133 1733,-91.5172 1751.73,-44.4326 1760.07,-25.5219"/>
<polygon fill="midnightblue" stroke="midnightblue" points="796.616,-353.31 786.645,-356.889 796.672,-360.309 796.616,-353.31"/>
</g>
</g>
</svg>
        <g id="navigator" transform="translate(0 0)" fill="#404254">
                <rect fill="#f2f5e9" fill-opacity="0.5" stroke="#606060" stroke-width=".5" x="0" y="0" width="60" height="60"/>
                <use id="zoomplus" xlink:href="#zoomPlus" x="17" y="9" onmousedown="handleZoom(evt,'in')"/>
                <use id="zoomminus" xlink:href="#zoomMin" x="42" y="9" onmousedown="handleZoom(evt,'out')"/>
                <use id="reset" xlink:href="#resetDef" x="30" y="36" onmousedown="handleReset()"/>
                <g id="arrowUp" xlink:href="#dirArrow" transform="translate(30 24)" onmousedown="handlePan(0,-1)">
                  <use xlink:href="#rim" fill="#404040">
                        <set attributeName="fill" to="#808080" begin="arrowUp.mouseover" end="arrowUp.mouseout"/>
                  </use>
                  <path fill="none" stroke="white" stroke-width="1.5" d="M0,-3.0v7 M-2.5,-0.5L0,-3.0L2.5,-0.5"/>
                </g>
                <g id="arrowRight" xlink:href="#dirArrow" transform="rotate(90) translate(36 -43)" onmousedown="handlePan(1,0)">
                  <use xlink:href="#rim" fill="#404040">
                        <set attributeName="fill" to="#808080" begin="arrowRight.mouseover" end="arrowRight.mouseout"/>
                  </use>
                  <path fill="none" stroke="white" stroke-width="1.5" d="M0,-3.0v7 M-2.5,-0.5L0,-3.0L2.5,-0.5"/>
                </g>
                <g id="arrowDown" xlink:href="#dirArrow" transform="rotate(180) translate(-30 -48)" onmousedown="handlePan(0,1)">
                  <use xlink:href="#rim" fill="#404040">
                        <set attributeName="fill" to="#808080" begin="arrowDown.mouseover" end="arrowDown.mouseout"/>
                  </use>
                  <path fill="none" stroke="white" stroke-width="1.5" d="M0,-3.0v7 M-2.5,-0.5L0,-3.0L2.5,-0.5"/>
                </g>
                <g id="arrowLeft" xlink:href="#dirArrow" transform="rotate(270) translate(-36 17)" onmousedown="handlePan(-1,0)">
                  <use xlink:href="#rim" fill="#404040">
                        <set attributeName="fill" to="#808080" begin="arrowLeft.mouseover" end="arrowLeft.mouseout"/>
                  </use>
                  <path fill="none" stroke="white" stroke-width="1.5" d="M0,-3.0v7 M-2.5,-0.5L0,-3.0L2.5,-0.5"/>
                </g>
        </g>
        <svg viewBox="0 0 15 15" width="100%" height="30px" preserveAspectRatio="xMaxYMin meet">
         <g id="arrow_out" transform="scale(0.3 0.3)">
          <a xlink:href="simple_8h__dep__incl_org.svg" target="_base">
           <rect id="button" ry="5" rx="5" y="6" x="6" height="38" width="38"
                fill="#f2f5e9" fill-opacity="0.5" stroke="#606060" stroke-width="1.0"/>
           <path id="arrow"
             d="M 11.500037,31.436501 C 11.940474,20.09759 22.043105,11.32322 32.158766,21.979434 L 37.068811,17.246167 C 37.068811,17.246167 37.088388,32 37.088388,32 L 22.160133,31.978069 C 22.160133,31.978069 26.997745,27.140456 26.997745,27.140456 C 18.528582,18.264221 13.291696,25.230495 11.500037,31.436501 z"
             style="fill:#404040;"/>
          </a>
         </g>
        </svg>
</svg>
