<?xml version="1.0" encoding="UTF-8" standalone="no"?>
<!DOCTYPE svg PUBLIC "-//W3C//DTD SVG 1.1//EN"
 "http://www.w3.org/Graphics/SVG/1.1/DTD/svg11.dtd">
<!-- Generated by graphviz version 2.30.1 (20140110.0959)
 -->
<!-- Title: slaterd.h Pages: 1 -->
<svg width="135pt" height="84pt"
 viewBox="0.00 0.00 135.00 84.00" xmlns="http://www.w3.org/2000/svg" xmlns:xlink="http://www.w3.org/1999/xlink">
<g id="graph0" class="graph" transform="scale(1 1) rotate(0) translate(4 80)">
<title>slaterd.h</title>
<!-- Node1 -->
<g id="node1" class="node"><title>Node1</title>
<polygon fill="#bfbfbf" stroke="black" points="34,-56.5 34,-75.5 88,-75.5 88,-56.5 34,-56.5"/>
<text text-anchor="middle" x="61" y="-63.5" font-family="Helvetica,sans-Serif" font-size="10.00">slaterd.h</text>
</g>
<!-- Node2 -->
<g id="node2" class="node"><title>Node2</title>
<g id="a_node2"><a xlink:href="detci_8cc.html" target="_top" xlink:title="Determinant&#45;based CI program.">
<polygon fill="none" stroke="black" points="-0.5,-0.5 -0.5,-19.5 50.5,-19.5 50.5,-0.5 -0.5,-0.5"/>
<text text-anchor="middle" x="25" y="-7.5" font-family="Helvetica,sans-Serif" font-size="10.00">detci.cc</text>
</a>
</g>
</g>
<!-- Node1&#45;&gt;Node2 -->
<g id="edge1" class="edge"><title>Node1&#45;&gt;Node2</title>
<path fill="none" stroke="midnightblue" d="M49.3771,-47.5656C43.1832,-38.2747 35.8323,-27.2484 30.8341,-19.7511"/>
<polygon fill="midnightblue" stroke="midnightblue" points="46.5961,-49.7039 55.0553,-56.083 52.4205,-45.821 46.5961,-49.7039"/>
</g>
<!-- Node3 -->
<g id="node3" class="node"><title>Node3</title>
<g id="a_node3"><a xlink:href="slaterd_8cc.html" target="_top" xlink:title="Enter brief description of file here.">
<polygon fill="none" stroke="black" points="68.5,-0.5 68.5,-19.5 127.5,-19.5 127.5,-0.5 68.5,-0.5"/>
<text text-anchor="middle" x="98" y="-7.5" font-family="Helvetica,sans-Serif" font-size="10.00">slaterd.cc</text>
</a>
</g>
</g>
<!-- Node1&#45;&gt;Node3 -->
<g id="edge2" class="edge"><title>Node1&#45;&gt;Node3</title>
<path fill="none" stroke="midnightblue" d="M72.9458,-47.5656C79.3117,-38.2747 86.8668,-27.2484 92.0039,-19.7511"/>
<polygon fill="midnightblue" stroke="midnightblue" points="69.8749,-45.8553 67.1098,-56.083 75.6494,-49.812 69.8749,-45.8553"/>
</g>
</g>
</svg>
