<?xml version="1.0" encoding="UTF-8" standalone="no"?>
<!DOCTYPE svg PUBLIC "-//W3C//DTD SVG 1.1//EN"
 "http://www.w3.org/Graphics/SVG/1.1/DTD/svg11.dtd">
<!-- Generated by graphviz version 2.30.1 (20140110.0959)
 -->
<!-- Title: slaterd.cc Pages: 1 -->
<svg width="1278pt" height="264pt"
 viewBox="0.00 0.00 1278.00 264.00" xmlns="http://www.w3.org/2000/svg" xmlns:xlink="http://www.w3.org/1999/xlink">
<g id="graph0" class="graph" transform="scale(1 1) rotate(0) translate(4 260)">
<title>slaterd.cc</title>
<!-- Node1 -->
<g id="node1" class="node"><title>Node1</title>
<polygon fill="#bfbfbf" stroke="black" points="353.5,-236.5 353.5,-255.5 412.5,-255.5 412.5,-236.5 353.5,-236.5"/>
<text text-anchor="middle" x="383" y="-243.5" font-family="Helvetica,sans-Serif" font-size="10.00">slaterd.cc</text>
</g>
<!-- Node2 -->
<g id="node2" class="node"><title>Node2</title>
<polygon fill="none" stroke="#bfbfbf" points="200.5,-0.5 200.5,-19.5 243.5,-19.5 243.5,-0.5 200.5,-0.5"/>
<text text-anchor="middle" x="222" y="-7.5" font-family="Helvetica,sans-Serif" font-size="10.00">cstdio</text>
</g>
<!-- Node1&#45;&gt;Node2 -->
<g id="edge1" class="edge"><title>Node1&#45;&gt;Node2</title>
<path fill="none" stroke="midnightblue" d="M364.123,-236.397C323.793,-216.827 229.975,-164.652 194,-88 184.603,-67.9786 196.95,-43.8733 208.094,-28.0306"/>
<polygon fill="midnightblue" stroke="midnightblue" points="211.112,-29.841 214.343,-19.7507 205.525,-25.6241 211.112,-29.841"/>
</g>
<!-- Node3 -->
<g id="node3" class="node"><title>Node3</title>
<polygon fill="none" stroke="#bfbfbf" points="-0.5,-0.5 -0.5,-19.5 44.5,-19.5 44.5,-0.5 -0.5,-0.5"/>
<text text-anchor="middle" x="22" y="-7.5" font-family="Helvetica,sans-Serif" font-size="10.00">cstdlib</text>
</g>
<!-- Node1&#45;&gt;Node3 -->
<g id="edge2" class="edge"><title>Node1&#45;&gt;Node3</title>
<path fill="none" stroke="midnightblue" d="M353.209,-239.368C288.281,-225.541 133.113,-183.825 49,-88 34.5734,-71.5647 27.7277,-46.9508 24.5661,-29.9988"/>
<polygon fill="midnightblue" stroke="midnightblue" points="27.9517,-29.0041 22.918,-19.6815 21.0393,-30.1084 27.9517,-29.0041"/>
</g>
<!-- Node4 -->
<g id="node4" class="node"><title>Node4</title>
<g id="a_node4"><a xlink:href="slaterd_8h.html" target="_top" xlink:title="Enter brief description of file here.">
<polygon fill="none" stroke="black" points="668,-180.5 668,-199.5 722,-199.5 722,-180.5 668,-180.5"/>
<text text-anchor="middle" x="695" y="-187.5" font-family="Helvetica,sans-Serif" font-size="10.00">slaterd.h</text>
</a>
</g>
</g>
<!-- Node1&#45;&gt;Node4 -->
<g id="edge3" class="edge"><title>Node1&#45;&gt;Node4</title>
<path fill="none" stroke="midnightblue" d="M412.558,-241.006C461.548,-234.209 562.826,-219.405 658.133,-200.036"/>
<polygon fill="midnightblue" stroke="midnightblue" points="658.837,-203.465 667.929,-198.025 657.429,-196.608 658.837,-203.465"/>
</g>
<!-- Node5 -->
<g id="node5" class="node"><title>Node5</title>
<g id="a_node5"><a xlink:href="psi4-dec_8h_source.html" target="_top" xlink:title="psi4&#45;dec.h">
<polygon fill="none" stroke="black" points="588,-180.5 588,-199.5 650,-199.5 650,-180.5 588,-180.5"/>
<text text-anchor="middle" x="619" y="-187.5" font-family="Helvetica,sans-Serif" font-size="10.00">psi4&#45;dec.h</text>
</a>
</g>
</g>
<!-- Node1&#45;&gt;Node5 -->
<g id="edge4" class="edge"><title>Node1&#45;&gt;Node5</title>
<path fill="none" stroke="midnightblue" d="M412.89,-238.161C454.72,-228.59 530.871,-211.165 577.979,-200.386"/>
<polygon fill="midnightblue" stroke="midnightblue" points="578.888,-203.769 587.855,-198.126 577.326,-196.945 578.888,-203.769"/>
</g>
<!-- Node6 -->
<g id="node6" class="node"><title>Node6</title>
<polygon fill="none" stroke="#bfbfbf" points="464,-124.5 464,-143.5 572,-143.5 572,-124.5 464,-124.5"/>
<text text-anchor="middle" x="518" y="-131.5" font-family="Helvetica,sans-Serif" font-size="10.00">boost/shared_ptr.hpp</text>
</g>
<!-- Node5&#45;&gt;Node6 -->
<g id="edge5" class="edge"><title>Node5&#45;&gt;Node6</title>
<path fill="none" stroke="midnightblue" d="M602.773,-180.324C586.649,-171.703 561.7,-158.364 543.036,-148.386"/>
<polygon fill="midnightblue" stroke="midnightblue" points="544.656,-145.283 534.187,-143.655 541.356,-151.456 544.656,-145.283"/>
</g>
<!-- Node7 -->
<g id="node7" class="node"><title>Node7</title>
<polygon fill="none" stroke="#bfbfbf" points="604,-62.5 604,-81.5 736,-81.5 736,-62.5 604,-62.5"/>
<text text-anchor="middle" x="670" y="-69.5" font-family="Helvetica,sans-Serif" font-size="10.00">boost/current_function.hpp</text>
</g>
<!-- Node5&#45;&gt;Node7 -->
<g id="edge6" class="edge"><title>Node5&#45;&gt;Node7</title>
<path fill="none" stroke="midnightblue" d="M622.833,-180.281C631.181,-161.294 651.142,-115.892 662.235,-90.6624"/>
<polygon fill="midnightblue" stroke="midnightblue" points="665.44,-92.0678 666.261,-81.5048 659.032,-89.2504 665.44,-92.0678"/>
</g>
<!-- Node8 -->
<g id="node8" class="node"><title>Node8</title>
<polygon fill="none" stroke="#bfbfbf" points="801.5,-0.5 801.5,-19.5 842.5,-19.5 842.5,-0.5 801.5,-0.5"/>
<text text-anchor="middle" x="822" y="-7.5" font-family="Helvetica,sans-Serif" font-size="10.00">string</text>
</g>
<!-- Node5&#45;&gt;Node8 -->
<g id="edge7" class="edge"><title>Node5&#45;&gt;Node8</title>
<path fill="none" stroke="midnightblue" d="M650.417,-181.805C653.316,-181.179 656.21,-180.569 659,-180 865.003,-138.02 990.473,-251.206 1123,-88 1131.97,-76.9593 1132.28,-66.7745 1123,-56 1088.38,-15.8191 922.945,-10.9845 853.161,-10.7689"/>
<polygon fill="midnightblue" stroke="midnightblue" points="852.817,-7.26882 842.817,-10.7693 852.817,-14.2688 852.817,-7.26882"/>
</g>
<!-- Node9 -->
<g id="node9" class="node"><title>Node9</title>
<polygon fill="none" stroke="#bfbfbf" points="666.5,-124.5 666.5,-143.5 695.5,-143.5 695.5,-124.5 666.5,-124.5"/>
<text text-anchor="middle" x="681" y="-131.5" font-family="Helvetica,sans-Serif" font-size="10.00">list</text>
</g>
<!-- Node5&#45;&gt;Node9 -->
<g id="edge8" class="edge"><title>Node5&#45;&gt;Node9</title>
<path fill="none" stroke="midnightblue" d="M628.961,-180.324C638.127,-172.341 651.937,-160.313 663.028,-150.653"/>
<polygon fill="midnightblue" stroke="midnightblue" points="665.615,-153.041 670.857,-143.834 661.018,-147.762 665.615,-153.041"/>
</g>
<!-- Node10 -->
<g id="node10" class="node"><title>Node10</title>
<polygon fill="none" stroke="#bfbfbf" points="550.5,-62.5 550.5,-81.5 585.5,-81.5 585.5,-62.5 550.5,-62.5"/>
<text text-anchor="middle" x="568" y="-69.5" font-family="Helvetica,sans-Serif" font-size="10.00">map</text>
</g>
<!-- Node5&#45;&gt;Node10 -->
<g id="edge9" class="edge"><title>Node5&#45;&gt;Node10</title>
<path fill="none" stroke="midnightblue" d="M615.167,-180.281C606.819,-161.294 586.858,-115.892 575.765,-90.6624"/>
<polygon fill="midnightblue" stroke="midnightblue" points="578.968,-89.2504 571.739,-81.5048 572.56,-92.0678 578.968,-89.2504"/>
</g>
<!-- Node11 -->
<g id="node11" class="node"><title>Node11</title>
<g id="a_node11"><a xlink:href="liboptions_8h_source.html" target="_top" xlink:title="liboptions/liboptions.h">
<polygon fill="none" stroke="black" points="316,-124.5 316,-143.5 426,-143.5 426,-124.5 316,-124.5"/>
<text text-anchor="middle" x="371" y="-131.5" font-family="Helvetica,sans-Serif" font-size="10.00">liboptions/liboptions.h</text>
</a>
</g>
</g>
<!-- Node5&#45;&gt;Node11 -->
<g id="edge10" class="edge"><title>Node5&#45;&gt;Node11</title>
<path fill="none" stroke="midnightblue" d="M587.842,-182.216C545.731,-173.046 470.193,-156.599 420.328,-145.741"/>
<polygon fill="midnightblue" stroke="midnightblue" points="420.922,-142.288 410.407,-143.58 419.433,-149.128 420.922,-142.288"/>
</g>
<!-- Node20 -->
<g id="node20" class="node"><title>Node20</title>
<g id="a_node20"><a xlink:href="include_2exception_8h_source.html" target="_top" xlink:title="exception.h">
<polygon fill="none" stroke="black" points="780.5,-124.5 780.5,-143.5 847.5,-143.5 847.5,-124.5 780.5,-124.5"/>
<text text-anchor="middle" x="814" y="-131.5" font-family="Helvetica,sans-Serif" font-size="10.00">exception.h</text>
</a>
</g>
</g>
<!-- Node5&#45;&gt;Node20 -->
<g id="edge25" class="edge"><title>Node5&#45;&gt;Node20</title>
<path fill="none" stroke="midnightblue" d="M649.898,-180.444C683.274,-171.201 736.594,-156.436 773.349,-146.257"/>
<polygon fill="midnightblue" stroke="midnightblue" points="774.543,-149.558 783.246,-143.516 772.675,-142.812 774.543,-149.558"/>
</g>
<!-- Node25 -->
<g id="node25" class="node"><title>Node25</title>
<g id="a_node25"><a xlink:href="typedefs_8h_source.html" target="_top" xlink:title="libmints/typedefs.h">
<polygon fill="none" stroke="black" points="1171.5,-124.5 1171.5,-143.5 1270.5,-143.5 1270.5,-124.5 1171.5,-124.5"/>
<text text-anchor="middle" x="1221" y="-131.5" font-family="Helvetica,sans-Serif" font-size="10.00">libmints/typedefs.h</text>
</a>
</g>
</g>
<!-- Node5&#45;&gt;Node25 -->
<g id="edge31" class="edge"><title>Node5&#45;&gt;Node25</title>
<path fill="none" stroke="midnightblue" d="M650.36,-181.48C653.27,-180.922 656.183,-180.416 659,-180 878.526,-147.554 936.333,-167.464 1157,-144 1158.46,-143.844 1159.95,-143.681 1161.44,-143.511"/>
<polygon fill="midnightblue" stroke="midnightblue" points="1161.92,-146.979 1171.43,-142.308 1161.08,-140.029 1161.92,-146.979"/>
</g>
<!-- Node11&#45;&gt;Node8 -->
<g id="edge11" class="edge"><title>Node11&#45;&gt;Node8</title>
<path fill="none" stroke="midnightblue" d="M406.636,-124.463C433.83,-117.088 471.656,-104.933 502,-88 521.579,-77.0739 520.554,-65.2031 541,-56 625.719,-17.8657 737.595,-11.4741 791.02,-10.7679"/>
<polygon fill="midnightblue" stroke="midnightblue" points="791.227,-14.2666 801.202,-10.6944 791.177,-7.26682 791.227,-14.2666"/>
</g>
<!-- Node12 -->
<g id="node12" class="node"><title>Node12</title>
<polygon fill="none" stroke="#bfbfbf" points="400,-0.5 400,-19.5 444,-19.5 444,-0.5 400,-0.5"/>
<text text-anchor="middle" x="422" y="-7.5" font-family="Helvetica,sans-Serif" font-size="10.00">vector</text>
</g>
<!-- Node11&#45;&gt;Node12 -->
<g id="edge12" class="edge"><title>Node11&#45;&gt;Node12</title>
<path fill="none" stroke="midnightblue" d="M315.843,-126.95C255.297,-118.098 170.908,-97.887 205,-56 227.883,-27.8846 334.653,-16.7779 389.416,-12.8737"/>
<polygon fill="midnightblue" stroke="midnightblue" points="389.893,-16.3497 399.635,-12.186 389.423,-9.36546 389.893,-16.3497"/>
</g>
<!-- Node11&#45;&gt;Node10 -->
<g id="edge13" class="edge"><title>Node11&#45;&gt;Node10</title>
<path fill="none" stroke="midnightblue" d="M409.596,-124.464C443.413,-116.517 493.64,-103.573 536,-88 537.857,-87.3172 539.754,-86.5684 541.652,-85.7811"/>
<polygon fill="midnightblue" stroke="midnightblue" points="543.239,-88.9059 550.96,-81.6502 540.399,-82.5077 543.239,-88.9059"/>
</g>
<!-- Node13 -->
<g id="node13" class="node"><title>Node13</title>
<polygon fill="none" stroke="#bfbfbf" points="214.5,-62.5 214.5,-81.5 281.5,-81.5 281.5,-62.5 214.5,-62.5"/>
<text text-anchor="middle" x="248" y="-69.5" font-family="Helvetica,sans-Serif" font-size="10.00">exception.h</text>
</g>
<!-- Node11&#45;&gt;Node13 -->
<g id="edge14" class="edge"><title>Node11&#45;&gt;Node13</title>
<path fill="none" stroke="midnightblue" d="M353.377,-124.403C332.826,-114.379 298.636,-97.7006 274.793,-86.0699"/>
<polygon fill="midnightblue" stroke="midnightblue" points="276.112,-82.8192 265.59,-81.5806 273.043,-89.1106 276.112,-82.8192"/>
</g>
<!-- Node14 -->
<g id="node14" class="node"><title>Node14</title>
<g id="a_node14"><a xlink:href="libutil_8h_source.html" target="_top" xlink:title="libutil/libutil.h">
<polygon fill="none" stroke="black" points="420.5,-62.5 420.5,-81.5 493.5,-81.5 493.5,-62.5 420.5,-62.5"/>
<text text-anchor="middle" x="457" y="-69.5" font-family="Helvetica,sans-Serif" font-size="10.00">libutil/libutil.h</text>
</a>
</g>
</g>
<!-- Node11&#45;&gt;Node14 -->
<g id="edge15" class="edge"><title>Node11&#45;&gt;Node14</title>
<path fill="none" stroke="midnightblue" d="M383.322,-124.403C397.116,-114.78 419.699,-99.0242 436.232,-87.4891"/>
<polygon fill="midnightblue" stroke="midnightblue" points="438.503,-90.1729 444.701,-81.5806 434.497,-84.432 438.503,-90.1729"/>
</g>
<!-- Node16 -->
<g id="node16" class="node"><title>Node16</title>
<g id="a_node16"><a xlink:href="libutil_2ref_8h_source.html" target="_top" xlink:title="libutil/ref.h">
<polygon fill="none" stroke="black" points="58,-62.5 58,-81.5 120,-81.5 120,-62.5 58,-62.5"/>
<text text-anchor="middle" x="89" y="-69.5" font-family="Helvetica,sans-Serif" font-size="10.00">libutil/ref.h</text>
</a>
</g>
</g>
<!-- Node11&#45;&gt;Node16 -->
<g id="edge19" class="edge"><title>Node11&#45;&gt;Node16</title>
<path fill="none" stroke="midnightblue" d="M330.896,-124.467C277.611,-113.13 183.956,-93.2035 130.15,-81.7553"/>
<polygon fill="midnightblue" stroke="midnightblue" points="130.774,-78.3098 120.264,-79.652 129.317,-85.1565 130.774,-78.3098"/>
</g>
<!-- Node19 -->
<g id="node19" class="node"><title>Node19</title>
<polygon fill="none" stroke="#bfbfbf" points="300,-57 300,-87 402,-87 402,-57 300,-57"/>
<text text-anchor="start" x="308" y="-75" font-family="Helvetica,sans-Serif" font-size="10.00">boost/python/object</text>
<text text-anchor="middle" x="351" y="-64" font-family="Helvetica,sans-Serif" font-size="10.00">_fwd.hpp</text>
</g>
<!-- Node11&#45;&gt;Node19 -->
<g id="edge24" class="edge"><title>Node11&#45;&gt;Node19</title>
<path fill="none" stroke="midnightblue" d="M368.134,-124.403C365.73,-117.189 362.176,-106.528 358.927,-96.7823"/>
<polygon fill="midnightblue" stroke="midnightblue" points="362.196,-95.5208 355.714,-87.1408 355.556,-97.7345 362.196,-95.5208"/>
</g>
<!-- Node14&#45;&gt;Node8 -->
<g id="edge16" class="edge"><title>Node14&#45;&gt;Node8</title>
<path fill="none" stroke="midnightblue" d="M483.284,-62.4854C491.171,-60.1437 499.884,-57.7656 508,-56 610.625,-33.6756 734.605,-19.6394 791.17,-13.9318"/>
<polygon fill="midnightblue" stroke="midnightblue" points="791.638,-17.4027 801.243,-12.9321 790.947,-10.437 791.638,-17.4027"/>
</g>
<!-- Node14&#45;&gt;Node12 -->
<g id="edge17" class="edge"><title>Node14&#45;&gt;Node12</title>
<path fill="none" stroke="midnightblue" d="M451.985,-62.4035C446.839,-53.5816 438.688,-39.6075 432.182,-28.4548"/>
<polygon fill="midnightblue" stroke="midnightblue" points="435.067,-26.4548 427.005,-19.5806 429.021,-29.982 435.067,-26.4548"/>
</g>
<!-- Node15 -->
<g id="node15" class="node"><title>Node15</title>
<polygon fill="none" stroke="#bfbfbf" points="462,-0.5 462,-19.5 524,-19.5 524,-0.5 462,-0.5"/>
<text text-anchor="middle" x="493" y="-7.5" font-family="Helvetica,sans-Serif" font-size="10.00">sys/time.h</text>
</g>
<!-- Node14&#45;&gt;Node15 -->
<g id="edge18" class="edge"><title>Node14&#45;&gt;Node15</title>
<path fill="none" stroke="midnightblue" d="M462.158,-62.4035C467.451,-53.5816 475.835,-39.6075 482.527,-28.4548"/>
<polygon fill="midnightblue" stroke="midnightblue" points="485.708,-29.9563 487.852,-19.5806 479.705,-26.3548 485.708,-29.9563"/>
</g>
<!-- Node17 -->
<g id="node17" class="node"><title>Node17</title>
<polygon fill="none" stroke="#bfbfbf" points="133.5,-0.5 133.5,-19.5 182.5,-19.5 182.5,-0.5 133.5,-0.5"/>
<text text-anchor="middle" x="158" y="-7.5" font-family="Helvetica,sans-Serif" font-size="10.00">cstddef</text>
</g>
<!-- Node16&#45;&gt;Node17 -->
<g id="edge20" class="edge"><title>Node16&#45;&gt;Node17</title>
<path fill="none" stroke="midnightblue" d="M98.886,-62.4035C109.646,-53.047 127.071,-37.8948 140.221,-26.4599"/>
<polygon fill="midnightblue" stroke="midnightblue" points="142.883,-28.7835 148.132,-19.5806 138.29,-23.5013 142.883,-28.7835"/>
</g>
<!-- Node16&#45;&gt;Node2 -->
<g id="edge21" class="edge"><title>Node16&#45;&gt;Node2</title>
<path fill="none" stroke="midnightblue" d="M108.056,-62.4035C130.475,-52.2896 167.905,-35.4036 193.713,-23.761"/>
<polygon fill="midnightblue" stroke="midnightblue" points="195.304,-26.8832 202.98,-19.5806 192.425,-20.5025 195.304,-26.8832"/>
</g>
<!-- Node16&#45;&gt;Node3 -->
<g id="edge22" class="edge"><title>Node16&#45;&gt;Node3</title>
<path fill="none" stroke="midnightblue" d="M79.4005,-62.4035C68.9525,-53.047 52.0325,-37.8948 39.2635,-26.4599"/>
<polygon fill="midnightblue" stroke="midnightblue" points="41.3661,-23.6445 31.5817,-19.5806 36.6963,-28.8592 41.3661,-23.6445"/>
</g>
<!-- Node18 -->
<g id="node18" class="node"><title>Node18</title>
<polygon fill="none" stroke="#bfbfbf" points="63,-0.5 63,-19.5 115,-19.5 115,-0.5 63,-0.5"/>
<text text-anchor="middle" x="89" y="-7.5" font-family="Helvetica,sans-Serif" font-size="10.00">assert.h</text>
</g>
<!-- Node16&#45;&gt;Node18 -->
<g id="edge23" class="edge"><title>Node16&#45;&gt;Node18</title>
<path fill="none" stroke="midnightblue" d="M89,-62.4035C89,-53.9381 89,-40.7283 89,-29.8199"/>
<polygon fill="midnightblue" stroke="midnightblue" points="92.5001,-29.5806 89,-19.5806 85.5001,-29.5806 92.5001,-29.5806"/>
</g>
<!-- Node21 -->
<g id="node21" class="node"><title>Node21</title>
<polygon fill="none" stroke="#bfbfbf" points="891.5,-62.5 891.5,-81.5 950.5,-81.5 950.5,-62.5 891.5,-62.5"/>
<text text-anchor="middle" x="921" y="-69.5" font-family="Helvetica,sans-Serif" font-size="10.00">exception</text>
</g>
<!-- Node20&#45;&gt;Node21 -->
<g id="edge26" class="edge"><title>Node20&#45;&gt;Node21</title>
<path fill="none" stroke="midnightblue" d="M829.33,-124.403C846.97,-114.512 876.16,-98.1442 896.858,-86.5378"/>
<polygon fill="midnightblue" stroke="midnightblue" points="898.688,-89.5244 905.698,-81.5806 895.264,-83.4188 898.688,-89.5244"/>
</g>
<!-- Node22 -->
<g id="node22" class="node"><title>Node22</title>
<polygon fill="none" stroke="#bfbfbf" points="968.5,-62.5 968.5,-81.5 1027.5,-81.5 1027.5,-62.5 968.5,-62.5"/>
<text text-anchor="middle" x="998" y="-69.5" font-family="Helvetica,sans-Serif" font-size="10.00">stdexcept</text>
</g>
<!-- Node20&#45;&gt;Node22 -->
<g id="edge27" class="edge"><title>Node20&#45;&gt;Node22</title>
<path fill="none" stroke="midnightblue" d="M843.624,-124.432C873.061,-115.772 919.407,-101.741 959,-88 961.609,-87.0947 964.304,-86.127 967.002,-85.1355"/>
<polygon fill="midnightblue" stroke="midnightblue" points="968.511,-88.3071 976.638,-81.5092 966.046,-81.7557 968.511,-88.3071"/>
</g>
<!-- Node23 -->
<g id="node23" class="node"><title>Node23</title>
<polygon fill="none" stroke="#bfbfbf" points="754,-62.5 754,-81.5 806,-81.5 806,-62.5 754,-62.5"/>
<text text-anchor="middle" x="780" y="-69.5" font-family="Helvetica,sans-Serif" font-size="10.00">sstream</text>
</g>
<!-- Node20&#45;&gt;Node23 -->
<g id="edge28" class="edge"><title>Node20&#45;&gt;Node23</title>
<path fill="none" stroke="midnightblue" d="M809.129,-124.403C804.13,-115.582 796.211,-101.608 789.891,-90.4548"/>
<polygon fill="midnightblue" stroke="midnightblue" points="792.838,-88.5553 784.862,-81.5806 786.747,-92.0064 792.838,-88.5553"/>
</g>
<!-- Node24 -->
<g id="node24" class="node"><title>Node24</title>
<polygon fill="none" stroke="#bfbfbf" points="824.5,-62.5 824.5,-81.5 873.5,-81.5 873.5,-62.5 824.5,-62.5"/>
<text text-anchor="middle" x="849" y="-69.5" font-family="Helvetica,sans-Serif" font-size="10.00">string.h</text>
</g>
<!-- Node20&#45;&gt;Node24 -->
<g id="edge29" class="edge"><title>Node20&#45;&gt;Node24</title>
<path fill="none" stroke="midnightblue" d="M819.015,-124.403C824.161,-115.582 832.312,-101.608 838.818,-90.4548"/>
<polygon fill="midnightblue" stroke="midnightblue" points="841.979,-91.982 843.995,-81.5806 835.933,-88.4548 841.979,-91.982"/>
</g>
<!-- Node20&#45;&gt;Node7 -->
<g id="edge30" class="edge"><title>Node20&#45;&gt;Node7</title>
<path fill="none" stroke="midnightblue" d="M793.368,-124.403C768.881,-114.2 727.853,-97.1055 699.891,-85.4544"/>
<polygon fill="midnightblue" stroke="midnightblue" points="701.17,-82.196 690.593,-81.5806 698.478,-88.6576 701.17,-82.196"/>
</g>
<!-- Node26 -->
<g id="node26" class="node"><title>Node26</title>
<g id="a_node26"><a xlink:href="compiler_8h_source.html" target="_top" xlink:title="compiler.h">
<polygon fill="none" stroke="black" points="1190,-62.5 1190,-81.5 1252,-81.5 1252,-62.5 1190,-62.5"/>
<text text-anchor="middle" x="1221" y="-69.5" font-family="Helvetica,sans-Serif" font-size="10.00">compiler.h</text>
</a>
</g>
</g>
<!-- Node25&#45;&gt;Node26 -->
<g id="edge32" class="edge"><title>Node25&#45;&gt;Node26</title>
<path fill="none" stroke="midnightblue" d="M1221,-124.403C1221,-115.938 1221,-102.728 1221,-91.8199"/>
<polygon fill="midnightblue" stroke="midnightblue" points="1224.5,-91.5806 1221,-81.5806 1217.5,-91.5806 1224.5,-91.5806"/>
</g>
<!-- Node28 -->
<g id="node28" class="node"><title>Node28</title>
<g id="a_node28"><a xlink:href="dimension_8h_source.html" target="_top" xlink:title="dimension.h">
<polygon fill="none" stroke="black" points="1045.5,-62.5 1045.5,-81.5 1114.5,-81.5 1114.5,-62.5 1045.5,-62.5"/>
<text text-anchor="middle" x="1080" y="-69.5" font-family="Helvetica,sans-Serif" font-size="10.00">dimension.h</text>
</a>
</g>
</g>
<!-- Node25&#45;&gt;Node28 -->
<g id="edge34" class="edge"><title>Node25&#45;&gt;Node28</title>
<path fill="none" stroke="midnightblue" d="M1200.8,-124.403C1176.93,-114.245 1137,-97.2547 1109.63,-85.6074"/>
<polygon fill="midnightblue" stroke="midnightblue" points="1110.74,-82.2757 1100.16,-81.5806 1108,-88.7167 1110.74,-82.2757"/>
</g>
<!-- Node27 -->
<g id="node27" class="node"><title>Node27</title>
<polygon fill="none" stroke="#bfbfbf" points="1189,-0.5 1189,-19.5 1253,-19.5 1253,-0.5 1189,-0.5"/>
<text text-anchor="middle" x="1221" y="-7.5" font-family="Helvetica,sans-Serif" font-size="10.00">psiconfig.h</text>
</g>
<!-- Node26&#45;&gt;Node27 -->
<g id="edge33" class="edge"><title>Node26&#45;&gt;Node27</title>
<path fill="none" stroke="midnightblue" d="M1221,-62.4035C1221,-53.9381 1221,-40.7283 1221,-29.8199"/>
<polygon fill="midnightblue" stroke="midnightblue" points="1224.5,-29.5806 1221,-19.5806 1217.5,-29.5806 1224.5,-29.5806"/>
</g>
<!-- Node28&#45;&gt;Node8 -->
<g id="edge35" class="edge"><title>Node28&#45;&gt;Node8</title>
<path fill="none" stroke="midnightblue" d="M1056.42,-62.3717C1049.85,-60.133 1042.69,-57.8373 1036,-56 971.504,-38.2955 894.435,-23.6481 852.639,-16.2342"/>
<polygon fill="midnightblue" stroke="midnightblue" points="853.012,-12.7462 842.557,-14.4652 851.802,-19.6409 853.012,-12.7462"/>
</g>
<!-- Node28&#45;&gt;Node2 -->
<g id="edge36" class="edge"><title>Node28&#45;&gt;Node2</title>
<path fill="none" stroke="midnightblue" d="M1058.83,-62.4777C1051.69,-59.9564 1043.61,-57.4776 1036,-56 1026.23,-54.1011 404.195,-20.7444 254.255,-12.7238"/>
<polygon fill="midnightblue" stroke="midnightblue" points="254.075,-9.20928 243.902,-12.1702 253.701,-16.1993 254.075,-9.20928"/>
</g>
<!-- Node28&#45;&gt;Node12 -->
<g id="edge37" class="edge"><title>Node28&#45;&gt;Node12</title>
<path fill="none" stroke="midnightblue" d="M1058.38,-62.349C1051.35,-59.8839 1043.44,-57.4708 1036,-56 784.554,-6.3077 710.64,-62.9859 454.197,-19.8019"/>
<polygon fill="midnightblue" stroke="midnightblue" points="454.661,-16.3305 444.213,-18.0861 453.476,-23.2293 454.661,-16.3305"/>
</g>
</g>
</svg>
