<?xml version="1.0" encoding="UTF-8" standalone="no"?>
<!DOCTYPE svg PUBLIC "-//W3C//DTD SVG 1.1//EN"
 "http://www.w3.org/Graphics/SVG/1.1/DTD/svg11.dtd">
<!-- Generated by graphviz version 2.30.1 (20140110.0959)
 -->
<!-- Title: build_A_UHF.cc Pages: 1 -->
<svg width="1322pt" height="320pt"
 viewBox="0.00 0.00 1322.00 320.00" xmlns="http://www.w3.org/2000/svg" xmlns:xlink="http://www.w3.org/1999/xlink">
<g id="graph0" class="graph" transform="scale(1 1) rotate(0) translate(4 316)">
<title>build_A_UHF.cc</title>
<!-- Node1 -->
<g id="node1" class="node"><title>Node1</title>
<polygon fill="#bfbfbf" stroke="black" points="374.5,-292.5 374.5,-311.5 463.5,-311.5 463.5,-292.5 374.5,-292.5"/>
<text text-anchor="middle" x="419" y="-299.5" font-family="Helvetica,sans-Serif" font-size="10.00">build_A_UHF.cc</text>
</g>
<!-- Node2 -->
<g id="node2" class="node"><title>Node2</title>
<g id="a_node2"><a xlink:href="lib_2libdpd_2dpd_8h.html" target="_top" xlink:title="Enter brief description of file here.">
<polygon fill="none" stroke="black" points="253.5,-236.5 253.5,-255.5 322.5,-255.5 322.5,-236.5 253.5,-236.5"/>
<text text-anchor="middle" x="288" y="-243.5" font-family="Helvetica,sans-Serif" font-size="10.00">libdpd/dpd.h</text>
</a>
</g>
</g>
<!-- Node1&#45;&gt;Node2 -->
<g id="edge1" class="edge"><title>Node1&#45;&gt;Node2</title>
<path fill="none" stroke="midnightblue" d="M398.243,-292.444C376.684,-283.557 342.737,-269.563 318.206,-259.451"/>
<polygon fill="midnightblue" stroke="midnightblue" points="319.239,-256.092 308.66,-255.516 316.572,-262.563 319.239,-256.092"/>
</g>
<!-- Node4 -->
<g id="node4" class="node"><title>Node4</title>
<g id="a_node4"><a xlink:href="psifiles_8h_source.html" target="_top" xlink:title="psifiles.h">
<polygon fill="none" stroke="black" points="348,-180.5 348,-199.5 404,-199.5 404,-180.5 348,-180.5"/>
<text text-anchor="middle" x="376" y="-187.5" font-family="Helvetica,sans-Serif" font-size="10.00">psifiles.h</text>
</a>
</g>
</g>
<!-- Node1&#45;&gt;Node4 -->
<g id="edge7" class="edge"><title>Node1&#45;&gt;Node4</title>
<path fill="none" stroke="midnightblue" d="M408.554,-292.2C399.511,-283.895 386.973,-270.571 381,-256 375.024,-241.42 374.069,-223.475 374.441,-210.136"/>
<polygon fill="midnightblue" stroke="midnightblue" points="377.955,-209.98 375.017,-199.801 370.966,-209.59 377.955,-209.98"/>
</g>
<!-- Node8 -->
<g id="node8" class="node"><title>Node8</title>
<g id="a_node8"><a xlink:href="stable_2MOInfo_8h.html" target="_top" xlink:title="MOInfo structure with info about MO&#39;s from checkpoint.">
<polygon fill="none" stroke="black" points="390.5,-236.5 390.5,-255.5 447.5,-255.5 447.5,-236.5 390.5,-236.5"/>
<text text-anchor="middle" x="419" y="-243.5" font-family="Helvetica,sans-Serif" font-size="10.00">MOInfo.h</text>
</a>
</g>
</g>
<!-- Node1&#45;&gt;Node8 -->
<g id="edge8" class="edge"><title>Node1&#45;&gt;Node8</title>
<path fill="none" stroke="midnightblue" d="M419,-292.083C419,-285.006 419,-274.861 419,-265.986"/>
<polygon fill="midnightblue" stroke="midnightblue" points="422.5,-265.751 419,-255.751 415.5,-265.751 422.5,-265.751"/>
</g>
<!-- Node9 -->
<g id="node9" class="node"><title>Node9</title>
<g id="a_node9"><a xlink:href="stable_2Params_8h.html" target="_top" xlink:title="Enter brief description of file here.">
<polygon fill="none" stroke="black" points="465.5,-236.5 465.5,-255.5 524.5,-255.5 524.5,-236.5 465.5,-236.5"/>
<text text-anchor="middle" x="495" y="-243.5" font-family="Helvetica,sans-Serif" font-size="10.00">Params.h</text>
</a>
</g>
</g>
<!-- Node1&#45;&gt;Node9 -->
<g id="edge9" class="edge"><title>Node1&#45;&gt;Node9</title>
<path fill="none" stroke="midnightblue" d="M431.211,-292.324C442.776,-284.107 460.375,-271.602 474.161,-261.807"/>
<polygon fill="midnightblue" stroke="midnightblue" points="476.443,-264.479 482.567,-255.834 472.388,-258.773 476.443,-264.479"/>
</g>
<!-- Node10 -->
<g id="node10" class="node"><title>Node10</title>
<g id="a_node10"><a xlink:href="stable_2globals_8h.html" target="_top" xlink:title="Enter brief description of file here.">
<polygon fill="none" stroke="black" points="543,-236.5 543,-255.5 599,-255.5 599,-236.5 543,-236.5"/>
<text text-anchor="middle" x="571" y="-243.5" font-family="Helvetica,sans-Serif" font-size="10.00">globals.h</text>
</a>
</g>
</g>
<!-- Node1&#45;&gt;Node10 -->
<g id="edge10" class="edge"><title>Node1&#45;&gt;Node10</title>
<path fill="none" stroke="midnightblue" d="M443.085,-292.444C468.545,-283.399 508.894,-269.064 537.459,-258.916"/>
<polygon fill="midnightblue" stroke="midnightblue" points="538.777,-262.162 547.028,-255.516 536.433,-255.566 538.777,-262.162"/>
</g>
<!-- Node3 -->
<g id="node3" class="node"><title>Node3</title>
<polygon fill="none" stroke="#bfbfbf" points="300.5,-0.5 300.5,-19.5 343.5,-19.5 343.5,-0.5 300.5,-0.5"/>
<text text-anchor="middle" x="322" y="-7.5" font-family="Helvetica,sans-Serif" font-size="10.00">cstdio</text>
</g>
<!-- Node2&#45;&gt;Node3 -->
<g id="edge2" class="edge"><title>Node2&#45;&gt;Node3</title>
<path fill="none" stroke="midnightblue" d="M270.483,-236.454C218.488,-209.99 72.1186,-126.909 129,-56 173.258,-0.826712 215.903,-35.1883 290.605,-19.738"/>
<polygon fill="midnightblue" stroke="midnightblue" points="291.419,-23.1422 300.368,-17.4713 289.836,-16.3235 291.419,-23.1422"/>
</g>
<!-- Node2&#45;&gt;Node4 -->
<g id="edge3" class="edge"><title>Node2&#45;&gt;Node4</title>
<path fill="none" stroke="midnightblue" d="M302.139,-236.324C315.866,-227.9 336.936,-214.971 353.064,-205.074"/>
<polygon fill="midnightblue" stroke="midnightblue" points="355.204,-207.868 361.896,-199.655 351.543,-201.902 355.204,-207.868"/>
</g>
<!-- Node5 -->
<g id="node5" class="node"><title>Node5</title>
<g id="a_node5"><a xlink:href="libpsio_2config_8h_source.html" target="_top" xlink:title="libpsio/config.h">
<polygon fill="none" stroke="black" points="0,-180.5 0,-199.5 82,-199.5 82,-180.5 0,-180.5"/>
<text text-anchor="middle" x="41" y="-187.5" font-family="Helvetica,sans-Serif" font-size="10.00">libpsio/config.h</text>
</a>
</g>
</g>
<!-- Node2&#45;&gt;Node5 -->
<g id="edge4" class="edge"><title>Node2&#45;&gt;Node5</title>
<path fill="none" stroke="midnightblue" d="M253.396,-237.435C210.88,-228.14 138.463,-212.308 90.1787,-201.752"/>
<polygon fill="midnightblue" stroke="midnightblue" points="90.7778,-198.3 80.261,-199.583 89.2827,-205.138 90.7778,-198.3"/>
</g>
<!-- Node6 -->
<g id="node6" class="node"><title>Node6</title>
<polygon fill="none" stroke="#bfbfbf" points="310,-124.5 310,-143.5 418,-143.5 418,-124.5 310,-124.5"/>
<text text-anchor="middle" x="364" y="-131.5" font-family="Helvetica,sans-Serif" font-size="10.00">boost/shared_ptr.hpp</text>
</g>
<!-- Node2&#45;&gt;Node6 -->
<g id="edge5" class="edge"><title>Node2&#45;&gt;Node6</title>
<path fill="none" stroke="midnightblue" d="M293.964,-236.368C306.506,-218.215 335.81,-175.802 352.261,-151.99"/>
<polygon fill="midnightblue" stroke="midnightblue" points="355.259,-153.808 358.064,-143.591 349.5,-149.829 355.259,-153.808"/>
</g>
<!-- Node7 -->
<g id="node7" class="node"><title>Node7</title>
<polygon fill="none" stroke="#bfbfbf" points="475,-0.5 475,-19.5 519,-19.5 519,-0.5 475,-0.5"/>
<text text-anchor="middle" x="497" y="-7.5" font-family="Helvetica,sans-Serif" font-size="10.00">vector</text>
</g>
<!-- Node2&#45;&gt;Node7 -->
<g id="edge6" class="edge"><title>Node2&#45;&gt;Node7</title>
<path fill="none" stroke="midnightblue" d="M285.359,-236.147C277.12,-206.532 255.073,-109.769 301,-56 321.958,-31.4635 414.843,-18.8987 464.854,-13.8098"/>
<polygon fill="midnightblue" stroke="midnightblue" points="465.221,-17.2907 474.833,-12.8358 464.541,-10.3238 465.221,-17.2907"/>
</g>
<!-- Node10&#45;&gt;Node4 -->
<g id="edge11" class="edge"><title>Node10&#45;&gt;Node4</title>
<path fill="none" stroke="midnightblue" d="M542.645,-237.148C508.755,-227.763 451.902,-212.019 414.172,-201.571"/>
<polygon fill="midnightblue" stroke="midnightblue" points="414.644,-198.07 404.073,-198.774 412.776,-204.816 414.644,-198.07"/>
</g>
<!-- Node11 -->
<g id="node11" class="node"><title>Node11</title>
<g id="a_node11"><a xlink:href="psi4-dec_8h_source.html" target="_top" xlink:title="psi4&#45;dec.h">
<polygon fill="none" stroke="black" points="546,-180.5 546,-199.5 608,-199.5 608,-180.5 546,-180.5"/>
<text text-anchor="middle" x="577" y="-187.5" font-family="Helvetica,sans-Serif" font-size="10.00">psi4&#45;dec.h</text>
</a>
</g>
</g>
<!-- Node10&#45;&gt;Node11 -->
<g id="edge12" class="edge"><title>Node10&#45;&gt;Node11</title>
<path fill="none" stroke="midnightblue" d="M571.991,-236.083C572.786,-228.927 573.929,-218.635 574.923,-209.691"/>
<polygon fill="midnightblue" stroke="midnightblue" points="578.402,-210.076 576.028,-199.751 571.445,-209.303 578.402,-210.076"/>
</g>
<!-- Node11&#45;&gt;Node6 -->
<g id="edge13" class="edge"><title>Node11&#45;&gt;Node6</title>
<path fill="none" stroke="midnightblue" d="M545.571,-181.032C509.009,-171.763 448.429,-156.405 407.396,-146.002"/>
<polygon fill="midnightblue" stroke="midnightblue" points="408.223,-142.601 397.67,-143.536 406.503,-149.386 408.223,-142.601"/>
</g>
<!-- Node12 -->
<g id="node12" class="node"><title>Node12</title>
<polygon fill="none" stroke="#bfbfbf" points="1182,-62.5 1182,-81.5 1314,-81.5 1314,-62.5 1182,-62.5"/>
<text text-anchor="middle" x="1248" y="-69.5" font-family="Helvetica,sans-Serif" font-size="10.00">boost/current_function.hpp</text>
</g>
<!-- Node11&#45;&gt;Node12 -->
<g id="edge14" class="edge"><title>Node11&#45;&gt;Node12</title>
<path fill="none" stroke="midnightblue" d="M608.009,-189.216C686.398,-189.108 898.391,-184.742 1069,-144 1125.53,-130.501 1187.83,-102.595 1221.99,-86.0739"/>
<polygon fill="midnightblue" stroke="midnightblue" points="1223.81,-89.0798 1231.25,-81.5389 1220.73,-82.7929 1223.81,-89.0798"/>
</g>
<!-- Node13 -->
<g id="node13" class="node"><title>Node13</title>
<polygon fill="none" stroke="#bfbfbf" points="716.5,-0.5 716.5,-19.5 757.5,-19.5 757.5,-0.5 716.5,-0.5"/>
<text text-anchor="middle" x="737" y="-7.5" font-family="Helvetica,sans-Serif" font-size="10.00">string</text>
</g>
<!-- Node11&#45;&gt;Node13 -->
<g id="edge15" class="edge"><title>Node11&#45;&gt;Node13</title>
<path fill="none" stroke="midnightblue" d="M608.171,-188.916C667.985,-186.794 796.93,-172.214 842,-88 848.711,-75.4606 849.829,-67.8733 842,-56 837.586,-49.306 796.847,-33.1116 767.439,-22.0911"/>
<polygon fill="midnightblue" stroke="midnightblue" points="768.562,-18.7746 757.969,-18.5733 766.124,-25.3365 768.562,-18.7746"/>
</g>
<!-- Node14 -->
<g id="node14" class="node"><title>Node14</title>
<polygon fill="none" stroke="#bfbfbf" points="474.5,-124.5 474.5,-143.5 503.5,-143.5 503.5,-124.5 474.5,-124.5"/>
<text text-anchor="middle" x="489" y="-131.5" font-family="Helvetica,sans-Serif" font-size="10.00">list</text>
</g>
<!-- Node11&#45;&gt;Node14 -->
<g id="edge16" class="edge"><title>Node11&#45;&gt;Node14</title>
<path fill="none" stroke="midnightblue" d="M562.861,-180.324C549.134,-171.9 528.064,-158.971 511.936,-149.074"/>
<polygon fill="midnightblue" stroke="midnightblue" points="513.457,-145.902 503.104,-143.655 509.796,-151.868 513.457,-145.902"/>
</g>
<!-- Node15 -->
<g id="node15" class="node"><title>Node15</title>
<polygon fill="none" stroke="#bfbfbf" points="138.5,-62.5 138.5,-81.5 173.5,-81.5 173.5,-62.5 138.5,-62.5"/>
<text text-anchor="middle" x="156" y="-69.5" font-family="Helvetica,sans-Serif" font-size="10.00">map</text>
</g>
<!-- Node11&#45;&gt;Node15 -->
<g id="edge17" class="edge"><title>Node11&#45;&gt;Node15</title>
<path fill="none" stroke="midnightblue" d="M553.538,-180.376C530.67,-171.784 495.05,-157.9 465,-144 447.678,-135.987 445.143,-129.922 427,-124 322.792,-89.9883 286.817,-123.188 183,-88 181.54,-87.5051 180.067,-86.9322 178.603,-86.305"/>
<polygon fill="midnightblue" stroke="midnightblue" points="179.8,-82.9896 169.293,-81.6309 176.659,-89.2455 179.8,-82.9896"/>
</g>
<!-- Node16 -->
<g id="node16" class="node"><title>Node16</title>
<g id="a_node16"><a xlink:href="liboptions_8h_source.html" target="_top" xlink:title="liboptions/liboptions.h">
<polygon fill="none" stroke="black" points="522,-124.5 522,-143.5 632,-143.5 632,-124.5 522,-124.5"/>
<text text-anchor="middle" x="577" y="-131.5" font-family="Helvetica,sans-Serif" font-size="10.00">liboptions/liboptions.h</text>
</a>
</g>
</g>
<!-- Node11&#45;&gt;Node16 -->
<g id="edge18" class="edge"><title>Node11&#45;&gt;Node16</title>
<path fill="none" stroke="midnightblue" d="M577,-180.083C577,-173.006 577,-162.861 577,-153.986"/>
<polygon fill="midnightblue" stroke="midnightblue" points="580.5,-153.751 577,-143.751 573.5,-153.751 580.5,-153.751"/>
</g>
<!-- Node25 -->
<g id="node25" class="node"><title>Node25</title>
<g id="a_node25"><a xlink:href="include_2exception_8h_source.html" target="_top" xlink:title="exception.h">
<polygon fill="none" stroke="black" points="993.5,-124.5 993.5,-143.5 1060.5,-143.5 1060.5,-124.5 993.5,-124.5"/>
<text text-anchor="middle" x="1027" y="-131.5" font-family="Helvetica,sans-Serif" font-size="10.00">exception.h</text>
</a>
</g>
</g>
<!-- Node11&#45;&gt;Node25 -->
<g id="edge33" class="edge"><title>Node11&#45;&gt;Node25</title>
<path fill="none" stroke="midnightblue" d="M608.286,-185.246C686.893,-175.813 892.839,-151.099 983.309,-140.243"/>
<polygon fill="midnightblue" stroke="midnightblue" points="983.985,-143.687 993.497,-139.02 983.151,-136.737 983.985,-143.687"/>
</g>
<!-- Node30 -->
<g id="node30" class="node"><title>Node30</title>
<g id="a_node30"><a xlink:href="typedefs_8h_source.html" target="_top" xlink:title="libmints/typedefs.h">
<polygon fill="none" stroke="black" points="650.5,-124.5 650.5,-143.5 749.5,-143.5 749.5,-124.5 650.5,-124.5"/>
<text text-anchor="middle" x="700" y="-131.5" font-family="Helvetica,sans-Serif" font-size="10.00">libmints/typedefs.h</text>
</a>
</g>
</g>
<!-- Node11&#45;&gt;Node30 -->
<g id="edge39" class="edge"><title>Node11&#45;&gt;Node30</title>
<path fill="none" stroke="midnightblue" d="M596.49,-180.444C616.642,-171.596 648.323,-157.687 671.331,-147.586"/>
<polygon fill="midnightblue" stroke="midnightblue" points="672.852,-150.741 680.601,-143.516 670.038,-144.332 672.852,-150.741"/>
</g>
<!-- Node16&#45;&gt;Node13 -->
<g id="edge19" class="edge"><title>Node16&#45;&gt;Node13</title>
<path fill="none" stroke="midnightblue" d="M621.976,-124.457C659.688,-116.372 709.488,-103.226 723,-88 736.996,-72.2291 739.168,-47.2829 738.708,-30.0811"/>
<polygon fill="midnightblue" stroke="midnightblue" points="742.173,-29.3905 738.082,-19.6173 735.186,-29.8085 742.173,-29.3905"/>
</g>
<!-- Node16&#45;&gt;Node7 -->
<g id="edge20" class="edge"><title>Node16&#45;&gt;Node7</title>
<path fill="none" stroke="midnightblue" d="M525.174,-124.443C486.085,-116.808 437.186,-104.317 425,-88 416.49,-76.605 418.106,-68.4394 425,-56 433.617,-40.4532 450.091,-29.5682 465.109,-22.4027"/>
<polygon fill="midnightblue" stroke="midnightblue" points="466.911,-25.4344 474.67,-18.2194 464.105,-19.0214 466.911,-25.4344"/>
</g>
<!-- Node16&#45;&gt;Node15 -->
<g id="edge21" class="edge"><title>Node16&#45;&gt;Node15</title>
<path fill="none" stroke="midnightblue" d="M521.696,-125.233C518.416,-124.806 515.166,-124.392 512,-124 366.022,-105.911 323.171,-132.598 183,-88 181.349,-87.4747 179.684,-86.843 178.036,-86.1401"/>
<polygon fill="midnightblue" stroke="midnightblue" points="179.488,-82.9524 168.982,-81.582 176.34,-89.2048 179.488,-82.9524"/>
</g>
<!-- Node17 -->
<g id="node17" class="node"><title>Node17</title>
<polygon fill="none" stroke="#bfbfbf" points="310.5,-62.5 310.5,-81.5 377.5,-81.5 377.5,-62.5 310.5,-62.5"/>
<text text-anchor="middle" x="344" y="-69.5" font-family="Helvetica,sans-Serif" font-size="10.00">exception.h</text>
</g>
<!-- Node16&#45;&gt;Node17 -->
<g id="edge22" class="edge"><title>Node16&#45;&gt;Node17</title>
<path fill="none" stroke="midnightblue" d="M538.904,-124.487C501.371,-115.923 442.483,-102.012 392,-88 388.135,-86.9273 384.112,-85.7566 380.112,-84.5576"/>
<polygon fill="midnightblue" stroke="midnightblue" points="380.904,-81.1399 370.318,-81.5586 378.855,-87.8332 380.904,-81.1399"/>
</g>
<!-- Node18 -->
<g id="node18" class="node"><title>Node18</title>
<g id="a_node18"><a xlink:href="libutil_8h_source.html" target="_top" xlink:title="libutil/libutil.h">
<polygon fill="none" stroke="black" points="641.5,-62.5 641.5,-81.5 714.5,-81.5 714.5,-62.5 641.5,-62.5"/>
<text text-anchor="middle" x="678" y="-69.5" font-family="Helvetica,sans-Serif" font-size="10.00">libutil/libutil.h</text>
</a>
</g>
</g>
<!-- Node16&#45;&gt;Node18 -->
<g id="edge23" class="edge"><title>Node16&#45;&gt;Node18</title>
<path fill="none" stroke="midnightblue" d="M591.471,-124.403C608.046,-114.557 635.426,-98.2915 654.947,-86.6949"/>
<polygon fill="midnightblue" stroke="midnightblue" points="656.746,-89.6971 663.556,-81.5806 653.171,-83.6789 656.746,-89.6971"/>
</g>
<!-- Node20 -->
<g id="node20" class="node"><title>Node20</title>
<g id="a_node20"><a xlink:href="libutil_2ref_8h_source.html" target="_top" xlink:title="libutil/ref.h">
<polygon fill="none" stroke="black" points="192,-62.5 192,-81.5 254,-81.5 254,-62.5 192,-62.5"/>
<text text-anchor="middle" x="223" y="-69.5" font-family="Helvetica,sans-Serif" font-size="10.00">libutil/ref.h</text>
</a>
</g>
</g>
<!-- Node16&#45;&gt;Node20 -->
<g id="edge27" class="edge"><title>Node16&#45;&gt;Node20</title>
<path fill="none" stroke="midnightblue" d="M521.938,-124.493C466.174,-115.768 377.482,-101.586 301,-88 289.029,-85.8734 276.051,-83.4323 264.18,-81.1457"/>
<polygon fill="midnightblue" stroke="midnightblue" points="264.57,-77.6561 254.086,-79.1877 263.237,-84.528 264.57,-77.6561"/>
</g>
<!-- Node24 -->
<g id="node24" class="node"><title>Node24</title>
<polygon fill="none" stroke="#bfbfbf" points="434,-57 434,-87 536,-87 536,-57 434,-57"/>
<text text-anchor="start" x="442" y="-75" font-family="Helvetica,sans-Serif" font-size="10.00">boost/python/object</text>
<text text-anchor="middle" x="485" y="-64" font-family="Helvetica,sans-Serif" font-size="10.00">_fwd.hpp</text>
</g>
<!-- Node16&#45;&gt;Node24 -->
<g id="edge32" class="edge"><title>Node16&#45;&gt;Node24</title>
<path fill="none" stroke="midnightblue" d="M563.819,-124.403C551.242,-116.201 531.836,-103.545 515.428,-92.8441"/>
<polygon fill="midnightblue" stroke="midnightblue" points="516.971,-89.6719 506.683,-87.1408 513.147,-95.5352 516.971,-89.6719"/>
</g>
<!-- Node18&#45;&gt;Node13 -->
<g id="edge24" class="edge"><title>Node18&#45;&gt;Node13</title>
<path fill="none" stroke="midnightblue" d="M686.453,-62.4035C695.566,-53.1361 710.27,-38.1828 721.476,-26.7876"/>
<polygon fill="midnightblue" stroke="midnightblue" points="724.047,-29.1649 728.562,-19.5806 719.055,-24.2569 724.047,-29.1649"/>
</g>
<!-- Node18&#45;&gt;Node7 -->
<g id="edge25" class="edge"><title>Node18&#45;&gt;Node7</title>
<path fill="none" stroke="midnightblue" d="M652.067,-62.4035C619.594,-51.6388 563.978,-33.2026 528.922,-21.582"/>
<polygon fill="midnightblue" stroke="midnightblue" points="529.778,-18.1783 519.184,-18.3539 527.575,-24.8227 529.778,-18.1783"/>
</g>
<!-- Node19 -->
<g id="node19" class="node"><title>Node19</title>
<polygon fill="none" stroke="#bfbfbf" points="636,-0.5 636,-19.5 698,-19.5 698,-0.5 636,-0.5"/>
<text text-anchor="middle" x="667" y="-7.5" font-family="Helvetica,sans-Serif" font-size="10.00">sys/time.h</text>
</g>
<!-- Node18&#45;&gt;Node19 -->
<g id="edge26" class="edge"><title>Node18&#45;&gt;Node19</title>
<path fill="none" stroke="midnightblue" d="M676.424,-62.4035C674.856,-53.849 672.399,-40.4497 670.387,-29.4762"/>
<polygon fill="midnightblue" stroke="midnightblue" points="673.819,-28.7855 668.573,-19.5806 666.934,-30.0478 673.819,-28.7855"/>
</g>
<!-- Node21 -->
<g id="node21" class="node"><title>Node21</title>
<polygon fill="none" stroke="#bfbfbf" points="99.5,-0.5 99.5,-19.5 148.5,-19.5 148.5,-0.5 99.5,-0.5"/>
<text text-anchor="middle" x="124" y="-7.5" font-family="Helvetica,sans-Serif" font-size="10.00">cstddef</text>
</g>
<!-- Node20&#45;&gt;Node21 -->
<g id="edge28" class="edge"><title>Node20&#45;&gt;Node21</title>
<path fill="none" stroke="midnightblue" d="M208.816,-62.4035C192.642,-52.6014 165.974,-36.4385 146.857,-24.8526"/>
<polygon fill="midnightblue" stroke="midnightblue" points="148.524,-21.7705 138.158,-19.5806 144.896,-27.7569 148.524,-21.7705"/>
</g>
<!-- Node20&#45;&gt;Node3 -->
<g id="edge29" class="edge"><title>Node20&#45;&gt;Node3</title>
<path fill="none" stroke="midnightblue" d="M237.184,-62.4035C253.358,-52.6014 280.026,-36.4385 299.143,-24.8526"/>
<polygon fill="midnightblue" stroke="midnightblue" points="301.104,-27.7569 307.842,-19.5806 297.476,-21.7705 301.104,-27.7569"/>
</g>
<!-- Node22 -->
<g id="node22" class="node"><title>Node22</title>
<polygon fill="none" stroke="#bfbfbf" points="166.5,-0.5 166.5,-19.5 211.5,-19.5 211.5,-0.5 166.5,-0.5"/>
<text text-anchor="middle" x="189" y="-7.5" font-family="Helvetica,sans-Serif" font-size="10.00">cstdlib</text>
</g>
<!-- Node20&#45;&gt;Node22 -->
<g id="edge30" class="edge"><title>Node20&#45;&gt;Node22</title>
<path fill="none" stroke="midnightblue" d="M218.129,-62.4035C213.13,-53.5816 205.211,-39.6075 198.891,-28.4548"/>
<polygon fill="midnightblue" stroke="midnightblue" points="201.838,-26.5553 193.862,-19.5806 195.747,-30.0064 201.838,-26.5553"/>
</g>
<!-- Node23 -->
<g id="node23" class="node"><title>Node23</title>
<polygon fill="none" stroke="#bfbfbf" points="230,-0.5 230,-19.5 282,-19.5 282,-0.5 230,-0.5"/>
<text text-anchor="middle" x="256" y="-7.5" font-family="Helvetica,sans-Serif" font-size="10.00">assert.h</text>
</g>
<!-- Node20&#45;&gt;Node23 -->
<g id="edge31" class="edge"><title>Node20&#45;&gt;Node23</title>
<path fill="none" stroke="midnightblue" d="M227.728,-62.4035C232.58,-53.5816 240.266,-39.6075 246.4,-28.4548"/>
<polygon fill="midnightblue" stroke="midnightblue" points="249.528,-30.0295 251.281,-19.5806 243.395,-26.656 249.528,-30.0295"/>
</g>
<!-- Node26 -->
<g id="node26" class="node"><title>Node26</title>
<polygon fill="none" stroke="#bfbfbf" points="1104.5,-62.5 1104.5,-81.5 1163.5,-81.5 1163.5,-62.5 1104.5,-62.5"/>
<text text-anchor="middle" x="1134" y="-69.5" font-family="Helvetica,sans-Serif" font-size="10.00">exception</text>
</g>
<!-- Node25&#45;&gt;Node26 -->
<g id="edge34" class="edge"><title>Node25&#45;&gt;Node26</title>
<path fill="none" stroke="midnightblue" d="M1042.33,-124.403C1059.97,-114.512 1089.16,-98.1442 1109.86,-86.5378"/>
<polygon fill="midnightblue" stroke="midnightblue" points="1111.69,-89.5244 1118.7,-81.5806 1108.26,-83.4188 1111.69,-89.5244"/>
</g>
<!-- Node27 -->
<g id="node27" class="node"><title>Node27</title>
<polygon fill="none" stroke="#bfbfbf" points="889.5,-62.5 889.5,-81.5 948.5,-81.5 948.5,-62.5 889.5,-62.5"/>
<text text-anchor="middle" x="919" y="-69.5" font-family="Helvetica,sans-Serif" font-size="10.00">stdexcept</text>
</g>
<!-- Node25&#45;&gt;Node27 -->
<g id="edge35" class="edge"><title>Node25&#45;&gt;Node27</title>
<path fill="none" stroke="midnightblue" d="M1011.53,-124.403C993.722,-114.512 964.259,-98.1442 943.368,-86.5378"/>
<polygon fill="midnightblue" stroke="midnightblue" points="944.886,-83.3775 934.445,-81.5806 941.487,-89.4966 944.886,-83.3775"/>
</g>
<!-- Node28 -->
<g id="node28" class="node"><title>Node28</title>
<polygon fill="none" stroke="#bfbfbf" points="967,-62.5 967,-81.5 1019,-81.5 1019,-62.5 967,-62.5"/>
<text text-anchor="middle" x="993" y="-69.5" font-family="Helvetica,sans-Serif" font-size="10.00">sstream</text>
</g>
<!-- Node25&#45;&gt;Node28 -->
<g id="edge36" class="edge"><title>Node25&#45;&gt;Node28</title>
<path fill="none" stroke="midnightblue" d="M1022.13,-124.403C1017.13,-115.582 1009.21,-101.608 1002.89,-90.4548"/>
<polygon fill="midnightblue" stroke="midnightblue" points="1005.84,-88.5553 997.862,-81.5806 999.747,-92.0064 1005.84,-88.5553"/>
</g>
<!-- Node29 -->
<g id="node29" class="node"><title>Node29</title>
<polygon fill="none" stroke="#bfbfbf" points="1037.5,-62.5 1037.5,-81.5 1086.5,-81.5 1086.5,-62.5 1037.5,-62.5"/>
<text text-anchor="middle" x="1062" y="-69.5" font-family="Helvetica,sans-Serif" font-size="10.00">string.h</text>
</g>
<!-- Node25&#45;&gt;Node29 -->
<g id="edge37" class="edge"><title>Node25&#45;&gt;Node29</title>
<path fill="none" stroke="midnightblue" d="M1032.01,-124.403C1037.16,-115.582 1045.31,-101.608 1051.82,-90.4548"/>
<polygon fill="midnightblue" stroke="midnightblue" points="1054.98,-91.982 1056.99,-81.5806 1048.93,-88.4548 1054.98,-91.982"/>
</g>
<!-- Node25&#45;&gt;Node12 -->
<g id="edge38" class="edge"><title>Node25&#45;&gt;Node12</title>
<path fill="none" stroke="midnightblue" d="M1058.66,-124.403C1097.56,-113.844 1163.64,-95.9027 1206.55,-84.2538"/>
<polygon fill="midnightblue" stroke="midnightblue" points="1207.66,-87.5785 1216.39,-81.5806 1205.83,-80.823 1207.66,-87.5785"/>
</g>
<!-- Node31 -->
<g id="node31" class="node"><title>Node31</title>
<g id="a_node31"><a xlink:href="compiler_8h_source.html" target="_top" xlink:title="compiler.h">
<polygon fill="none" stroke="black" points="771,-62.5 771,-81.5 833,-81.5 833,-62.5 771,-62.5"/>
<text text-anchor="middle" x="802" y="-69.5" font-family="Helvetica,sans-Serif" font-size="10.00">compiler.h</text>
</a>
</g>
</g>
<!-- Node30&#45;&gt;Node31 -->
<g id="edge40" class="edge"><title>Node30&#45;&gt;Node31</title>
<path fill="none" stroke="midnightblue" d="M714.614,-124.403C731.353,-114.557 759.004,-98.2915 778.719,-86.6949"/>
<polygon fill="midnightblue" stroke="midnightblue" points="780.568,-89.6676 787.413,-81.5806 777.019,-83.6341 780.568,-89.6676"/>
</g>
<!-- Node33 -->
<g id="node33" class="node"><title>Node33</title>
<g id="a_node33"><a xlink:href="dimension_8h_source.html" target="_top" xlink:title="dimension.h">
<polygon fill="none" stroke="black" points="554.5,-62.5 554.5,-81.5 623.5,-81.5 623.5,-62.5 554.5,-62.5"/>
<text text-anchor="middle" x="589" y="-69.5" font-family="Helvetica,sans-Serif" font-size="10.00">dimension.h</text>
</a>
</g>
</g>
<!-- Node30&#45;&gt;Node33 -->
<g id="edge42" class="edge"><title>Node30&#45;&gt;Node33</title>
<path fill="none" stroke="midnightblue" d="M684.096,-124.403C665.715,-114.468 635.244,-97.9966 613.755,-86.3812"/>
<polygon fill="midnightblue" stroke="midnightblue" points="615.335,-83.2568 604.874,-81.5806 612.007,-89.4148 615.335,-83.2568"/>
</g>
<!-- Node32 -->
<g id="node32" class="node"><title>Node32</title>
<polygon fill="none" stroke="#bfbfbf" points="776,-0.5 776,-19.5 840,-19.5 840,-0.5 776,-0.5"/>
<text text-anchor="middle" x="808" y="-7.5" font-family="Helvetica,sans-Serif" font-size="10.00">psiconfig.h</text>
</g>
<!-- Node31&#45;&gt;Node32 -->
<g id="edge41" class="edge"><title>Node31&#45;&gt;Node32</title>
<path fill="none" stroke="midnightblue" d="M802.86,-62.4035C803.706,-53.9381 805.027,-40.7283 806.118,-29.8199"/>
<polygon fill="midnightblue" stroke="midnightblue" points="809.629,-29.8793 807.142,-19.5806 802.664,-29.1827 809.629,-29.8793"/>
</g>
<!-- Node33&#45;&gt;Node13 -->
<g id="edge43" class="edge"><title>Node33&#45;&gt;Node13</title>
<path fill="none" stroke="midnightblue" d="M610.205,-62.4035C635.515,-52.1425 678.02,-34.911 706.768,-23.2564"/>
<polygon fill="midnightblue" stroke="midnightblue" points="708.359,-26.3878 716.312,-19.3871 705.729,-19.9007 708.359,-26.3878"/>
</g>
<!-- Node33&#45;&gt;Node3 -->
<g id="edge44" class="edge"><title>Node33&#45;&gt;Node3</title>
<path fill="none" stroke="midnightblue" d="M565.882,-62.4918C559.198,-60.2034 551.856,-57.8521 545,-56 477.721,-37.8257 397.244,-23.3264 353.726,-16.0703"/>
<polygon fill="midnightblue" stroke="midnightblue" points="354.18,-12.5979 343.744,-14.4252 353.042,-19.5048 354.18,-12.5979"/>
</g>
<!-- Node33&#45;&gt;Node7 -->
<g id="edge45" class="edge"><title>Node33&#45;&gt;Node7</title>
<path fill="none" stroke="midnightblue" d="M575.819,-62.4035C560.926,-52.6905 536.456,-36.7319 518.727,-25.1697"/>
<polygon fill="midnightblue" stroke="midnightblue" points="520.445,-22.1117 510.157,-19.5806 516.621,-27.975 520.445,-22.1117"/>
</g>
</g>
</svg>
