<?xml version="1.0" encoding="UTF-8" standalone="no"?>
<!DOCTYPE svg PUBLIC "-//W3C//DTD SVG 1.1//EN"
 "http://www.w3.org/Graphics/SVG/1.1/DTD/svg11.dtd">
<!-- Generated by graphviz version 2.30.1 (20140110.0959)
 -->
<!-- Title: psi::psio_entry Pages: 1 -->
<svg width="134pt" height="108pt"
 viewBox="0.00 0.00 134.00 108.00" xmlns="http://www.w3.org/2000/svg" xmlns:xlink="http://www.w3.org/1999/xlink">
<g id="graph0" class="graph" transform="scale(1 1) rotate(0) translate(4 104)">
<title>psi::psio_entry</title>
<!-- Node1 -->
<g id="node1" class="node"><title>Node1</title>
<polygon fill="#bfbfbf" stroke="black" points="6,-1.5 6,-20.5 86,-20.5 86,-1.5 6,-1.5"/>
<text text-anchor="middle" x="46" y="-8.5" font-family="Helvetica,sans-Serif" font-size="10.00">psi::psio_entry</text>
</g>
<!-- Node1&#45;&gt;Node1 -->
<g id="edge1" class="edge"><title>Node1&#45;&gt;Node1</title>
<path fill="none" stroke="#9a32cd" stroke-dasharray="5,2" d="M96.2648,-17.0257C101.005,-15.7918 104,-13.7832 104,-11 104,-6.54688 96.3323,-4.07678 86.1186,-3.58972"/>
<polygon fill="#9a32cd" stroke="#9a32cd" points="95.5536,-13.5903 86.1186,-18.4103 96.5001,-20.526 95.5536,-13.5903"/>
<text text-anchor="middle" x="115" y="-14" font-family="Helvetica,sans-Serif" font-size="10.00"> next</text>
<text text-anchor="middle" x="115" y="-3" font-family="Helvetica,sans-Serif" font-size="10.00">last</text>
</g>
<!-- Node2 -->
<g id="node2" class="node"><title>Node2</title>
<g id="a_node2"><a xlink:href="structpsi_1_1psio__address.html" target="_top" xlink:title="psi::psio_address">
<polygon fill="none" stroke="black" points="-0.5,-80.5 -0.5,-99.5 92.5,-99.5 92.5,-80.5 -0.5,-80.5"/>
<text text-anchor="middle" x="46" y="-87.5" font-family="Helvetica,sans-Serif" font-size="10.00">psi::psio_address</text>
</a>
</g>
</g>
<!-- Node2&#45;&gt;Node1 -->
<g id="edge2" class="edge"><title>Node2&#45;&gt;Node1</title>
<path fill="none" stroke="#9a32cd" stroke-dasharray="5,2" d="M46,-70.3145C46,-54.5917 46,-32.8079 46,-20.8094"/>
<polygon fill="#9a32cd" stroke="#9a32cd" points="42.5001,-70.4654 46,-80.4655 49.5001,-70.4655 42.5001,-70.4654"/>
<text text-anchor="middle" x="58.5" y="-54" font-family="Helvetica,sans-Serif" font-size="10.00"> eadd</text>
<text text-anchor="middle" x="58.5" y="-43" font-family="Helvetica,sans-Serif" font-size="10.00">sadd</text>
</g>
</g>
</svg>
