<?xml version="1.0" encoding="UTF-8" standalone="no"?>
<!DOCTYPE svg PUBLIC "-//W3C//DTD SVG 1.1//EN"
 "http://www.w3.org/Graphics/SVG/1.1/DTD/svg11.dtd">
<!-- Generated by graphviz version 2.30.1 (20140110.0959)
 -->
<!-- Title: psi::detci::tpool Pages: 1 -->
<svg width="158pt" height="106pt"
 viewBox="0.00 0.00 158.00 106.00" xmlns="http://www.w3.org/2000/svg" xmlns:xlink="http://www.w3.org/1999/xlink">
<g id="graph0" class="graph" transform="scale(1 1) rotate(0) translate(4 102)">
<title>psi::detci::tpool</title>
<!-- Node1 -->
<g id="node1" class="node"><title>Node1</title>
<polygon fill="#bfbfbf" stroke="black" points="13.5,-0.5 13.5,-19.5 96.5,-19.5 96.5,-0.5 13.5,-0.5"/>
<text text-anchor="middle" x="55" y="-7.5" font-family="Helvetica,sans-Serif" font-size="10.00">psi::detci::tpool</text>
</g>
<!-- Node2 -->
<g id="node2" class="node"><title>Node2</title>
<g id="a_node2"><a xlink:href="structpsi_1_1detci_1_1tpool__work.html" target="_top" xlink:title="psi::detci::tpool_work">
<polygon fill="none" stroke="black" points="0,-78.5 0,-97.5 110,-97.5 110,-78.5 0,-78.5"/>
<text text-anchor="middle" x="55" y="-85.5" font-family="Helvetica,sans-Serif" font-size="10.00">psi::detci::tpool_work</text>
</a>
</g>
</g>
<!-- Node2&#45;&gt;Node1 -->
<g id="edge1" class="edge"><title>Node2&#45;&gt;Node1</title>
<path fill="none" stroke="#9a32cd" stroke-dasharray="5,2" d="M55,-68.2239C55,-52.6974 55,-31.3582 55,-19.6165"/>
<polygon fill="#9a32cd" stroke="#9a32cd" points="51.5001,-68.2818 55,-78.2818 58.5001,-68.2819 51.5001,-68.2818"/>
<text text-anchor="middle" x="81.5" y="-52" font-family="Helvetica,sans-Serif" font-size="10.00"> queue_tail</text>
<text text-anchor="middle" x="81.5" y="-41" font-family="Helvetica,sans-Serif" font-size="10.00">queue_head</text>
</g>
<!-- Node2&#45;&gt;Node2 -->
<g id="edge2" class="edge"><title>Node2&#45;&gt;Node2</title>
<path fill="none" stroke="#9a32cd" stroke-dasharray="5,2" d="M120.001,-93.3472C124.952,-92.1597 128,-90.3773 128,-88 128,-84.2891 120.574,-82.0277 110.073,-81.2159"/>
<polygon fill="#9a32cd" stroke="#9a32cd" points="119.469,-89.8877 110.073,-94.7841 120.472,-96.8155 119.469,-89.8877"/>
<text text-anchor="middle" x="139" y="-85.5" font-family="Helvetica,sans-Serif" font-size="10.00"> next</text>
</g>
</g>
</svg>
