<?xml version="1.0" encoding="UTF-8" standalone="no"?>
<!DOCTYPE svg PUBLIC "-//W3C//DTD SVG 1.1//EN"
 "http://www.w3.org/Graphics/SVG/1.1/DTD/svg11.dtd">
<!-- Generated by graphviz version 2.30.1 (20140110.0959)
 -->
<!-- Title: structs.h Pages: 1 -->
<svg width="3024pt" height="84pt"
 viewBox="0.00 0.00 3024.00 84.00" xmlns="http://www.w3.org/2000/svg" xmlns:xlink="http://www.w3.org/1999/xlink">
<g id="graph0" class="graph" transform="scale(1 1) rotate(0) translate(4 80)">
<title>structs.h</title>
<!-- Node1 -->
<g id="node1" class="node"><title>Node1</title>
<polygon fill="#bfbfbf" stroke="black" points="1617.5,-56.5 1617.5,-75.5 1672.5,-75.5 1672.5,-56.5 1617.5,-56.5"/>
<text text-anchor="middle" x="1645" y="-63.5" font-family="Helvetica,sans-Serif" font-size="10.00">structs.h</text>
</g>
<!-- Node2 -->
<g id="node2" class="node"><title>Node2</title>
<g id="a_node2"><a xlink:href="b2brepl_8cc.html" target="_top" xlink:title="Contains code to do block&#45;to&#45;block single replacement lists.">
<polygon fill="none" stroke="black" points="0,-0.5 0,-19.5 62,-19.5 62,-0.5 0,-0.5"/>
<text text-anchor="middle" x="31" y="-7.5" font-family="Helvetica,sans-Serif" font-size="10.00">b2brepl.cc</text>
</a>
</g>
</g>
<!-- Node1&#45;&gt;Node2 -->
<g id="edge1" class="edge"><title>Node1&#45;&gt;Node2</title>
<path fill="none" stroke="midnightblue" d="M1607.26,-64.908C1398.34,-64.2488 381.933,-59.0539 71,-20 68.175,-19.6452 65.2562,-19.1815 62.342,-18.6517"/>
<polygon fill="midnightblue" stroke="midnightblue" points="1607.4,-68.4083 1617.41,-64.9384 1607.42,-61.4083 1607.4,-68.4083"/>
</g>
<!-- Node3 -->
<g id="node3" class="node"><title>Node3</title>
<g id="a_node3"><a xlink:href="calc__d_8cc.html" target="_top" xlink:title="Enter brief description of file here.">
<polygon fill="none" stroke="black" points="80.5,-0.5 80.5,-19.5 139.5,-19.5 139.5,-0.5 80.5,-0.5"/>
<text text-anchor="middle" x="110" y="-7.5" font-family="Helvetica,sans-Serif" font-size="10.00">calc_d.cc</text>
</a>
</g>
</g>
<!-- Node1&#45;&gt;Node3 -->
<g id="edge2" class="edge"><title>Node1&#45;&gt;Node3</title>
<path fill="none" stroke="midnightblue" d="M1607.21,-64.8704C1404.41,-64.0223 443.468,-58.0293 149,-20 145.968,-19.6084 142.826,-19.0855 139.701,-18.4881"/>
<polygon fill="midnightblue" stroke="midnightblue" points="1607.34,-68.3709 1617.36,-64.9112 1607.37,-61.371 1607.34,-68.3709"/>
</g>
<!-- Node4 -->
<g id="node4" class="node"><title>Node4</title>
<g id="a_node4"><a xlink:href="calc__hd__block_8cc.html" target="_top" xlink:title="Enter brief description of file here.">
<polygon fill="none" stroke="black" points="158,-0.5 158,-19.5 250,-19.5 250,-0.5 158,-0.5"/>
<text text-anchor="middle" x="204" y="-7.5" font-family="Helvetica,sans-Serif" font-size="10.00">calc_hd_block.cc</text>
</a>
</g>
</g>
<!-- Node1&#45;&gt;Node4 -->
<g id="edge3" class="edge"><title>Node1&#45;&gt;Node4</title>
<path fill="none" stroke="midnightblue" d="M1606.98,-64.4337C1412.92,-61.4409 531.352,-46.5914 259,-20 256.111,-19.7179 253.144,-19.3784 250.157,-18.9987"/>
<polygon fill="midnightblue" stroke="midnightblue" points="1607.19,-67.9372 1617.24,-64.5907 1607.3,-60.938 1607.19,-67.9372"/>
</g>
<!-- Node5 -->
<g id="node5" class="node"><title>Node5</title>
<g id="a_node5"><a xlink:href="calc__pt__block_8cc.html" target="_top" xlink:title="Enter brief description of file here.">
<polygon fill="none" stroke="black" points="268,-0.5 268,-19.5 358,-19.5 358,-0.5 268,-0.5"/>
<text text-anchor="middle" x="313" y="-7.5" font-family="Helvetica,sans-Serif" font-size="10.00">calc_pt_block.cc</text>
</a>
</g>
</g>
<!-- Node1&#45;&gt;Node5 -->
<g id="edge4" class="edge"><title>Node1&#45;&gt;Node5</title>
<path fill="none" stroke="midnightblue" d="M1607.32,-64.3349C1423.19,-60.984 616.874,-45.1146 367,-20 364.068,-19.7054 361.055,-19.3501 358.023,-18.9532"/>
<polygon fill="midnightblue" stroke="midnightblue" points="1607.27,-67.8345 1617.33,-64.5159 1607.39,-60.8356 1607.27,-67.8345"/>
</g>
<!-- Node6 -->
<g id="node6" class="node"><title>Node6</title>
<g id="a_node6"><a xlink:href="civect_8cc.html" target="_top" xlink:title="Code for the CI vector class.">
<polygon fill="none" stroke="black" points="376,-0.5 376,-19.5 432,-19.5 432,-0.5 376,-0.5"/>
<text text-anchor="middle" x="404" y="-7.5" font-family="Helvetica,sans-Serif" font-size="10.00">civect.cc</text>
</a>
</g>
</g>
<!-- Node1&#45;&gt;Node6 -->
<g id="edge5" class="edge"><title>Node1&#45;&gt;Node6</title>
<path fill="none" stroke="midnightblue" d="M1607.21,-64.6113C1429.34,-62.6252 674.367,-52.4067 441,-20 438.119,-19.5999 435.135,-19.0715 432.169,-18.4706"/>
<polygon fill="midnightblue" stroke="midnightblue" points="1607.34,-68.1129 1617.38,-64.7229 1607.42,-61.1133 1607.34,-68.1129"/>
</g>
<!-- Node7 -->
<g id="node7" class="node"><title>Node7</title>
<g id="a_node7"><a xlink:href="compute__cc_8cc.html" target="_top" xlink:title="Arbitrary&#45;order coupled&#45;cluster code.">
<polygon fill="none" stroke="black" points="450.5,-0.5 450.5,-19.5 533.5,-19.5 533.5,-0.5 450.5,-0.5"/>
<text text-anchor="middle" x="492" y="-7.5" font-family="Helvetica,sans-Serif" font-size="10.00">compute_cc.cc</text>
</a>
</g>
</g>
<!-- Node1&#45;&gt;Node7 -->
<g id="edge6" class="edge"><title>Node1&#45;&gt;Node7</title>
<path fill="none" stroke="midnightblue" d="M1606.89,-65.3352C1465.46,-66.1791 957.434,-65.645 542,-20 539.282,-19.7014 536.489,-19.3431 533.68,-18.944"/>
<polygon fill="midnightblue" stroke="midnightblue" points="1607.21,-68.8333 1617.19,-65.2673 1607.17,-61.8334 1607.21,-68.8333"/>
</g>
<!-- Node8 -->
<g id="node8" class="node"><title>Node8</title>
<g id="a_node8"><a xlink:href="detci_8cc.html" target="_top" xlink:title="Determinant&#45;based CI program.">
<polygon fill="none" stroke="black" points="551.5,-0.5 551.5,-19.5 602.5,-19.5 602.5,-0.5 551.5,-0.5"/>
<text text-anchor="middle" x="577" y="-7.5" font-family="Helvetica,sans-Serif" font-size="10.00">detci.cc</text>
</a>
</g>
</g>
<!-- Node1&#45;&gt;Node8 -->
<g id="edge7" class="edge"><title>Node1&#45;&gt;Node8</title>
<path fill="none" stroke="midnightblue" d="M1606.96,-64.4407C1444.58,-61.8842 808.739,-50.1143 611,-20 608.344,-19.5955 605.597,-19.0642 602.868,-18.4616"/>
<polygon fill="midnightblue" stroke="midnightblue" points="1607.34,-67.9469 1617.39,-64.6024 1607.45,-60.9477 1607.34,-67.9469"/>
</g>
<!-- Node9 -->
<g id="node9" class="node"><title>Node9</title>
<g id="a_node9"><a xlink:href="form__ov_8cc.html" target="_top" xlink:title="Form OV arrays of Bendazzoli and Evangelisti, JCP 98, 3141 (1993)">
<polygon fill="none" stroke="black" points="620.5,-0.5 620.5,-19.5 685.5,-19.5 685.5,-0.5 620.5,-0.5"/>
<text text-anchor="middle" x="653" y="-7.5" font-family="Helvetica,sans-Serif" font-size="10.00">form_ov.cc</text>
</a>
</g>
</g>
<!-- Node1&#45;&gt;Node9 -->
<g id="edge8" class="edge"><title>Node1&#45;&gt;Node9</title>
<path fill="none" stroke="midnightblue" d="M1607.1,-65.4943C1478.42,-66.6865 1046.62,-66.7051 694,-20 691.255,-19.6364 688.421,-19.1824 685.586,-18.6729"/>
<polygon fill="midnightblue" stroke="midnightblue" points="1607.26,-68.9929 1617.23,-65.3919 1607.19,-61.9933 1607.26,-68.9929"/>
</g>
<!-- Node10 -->
<g id="node10" class="node"><title>Node10</title>
<g id="a_node10"><a xlink:href="detci_2get__mo__info_8cc.html" target="_top" xlink:title="Enter brief description of file here.">
<polygon fill="none" stroke="black" points="703.5,-0.5 703.5,-19.5 786.5,-19.5 786.5,-0.5 703.5,-0.5"/>
<text text-anchor="middle" x="745" y="-7.5" font-family="Helvetica,sans-Serif" font-size="10.00">get_mo_info.cc</text>
</a>
</g>
</g>
<!-- Node1&#45;&gt;Node10 -->
<g id="edge9" class="edge"><title>Node1&#45;&gt;Node10</title>
<path fill="none" stroke="midnightblue" d="M1607.33,-64.6361C1488.06,-63.1349 1108.11,-55.6759 796,-20 792.963,-19.6528 789.833,-19.2391 786.688,-18.7827"/>
<polygon fill="midnightblue" stroke="midnightblue" points="1607.37,-68.1367 1617.41,-64.7564 1607.46,-61.1372 1607.37,-68.1367"/>
</g>
<!-- Node11 -->
<g id="node11" class="node"><title>Node11</title>
<g id="a_node11"><a xlink:href="graphset_8cc.html" target="_top" xlink:title="Routines needed to maintain the GraphSet Object.">
<polygon fill="none" stroke="black" points="805,-0.5 805,-19.5 873,-19.5 873,-0.5 805,-0.5"/>
<text text-anchor="middle" x="839" y="-7.5" font-family="Helvetica,sans-Serif" font-size="10.00">graphset.cc</text>
</a>
</g>
</g>
<!-- Node1&#45;&gt;Node11 -->
<g id="edge10" class="edge"><title>Node1&#45;&gt;Node11</title>
<path fill="none" stroke="midnightblue" d="M1607.44,-64.7403C1496.17,-63.552 1158.82,-56.9277 882,-20 879.127,-19.6168 876.16,-19.149 873.189,-18.6302"/>
<polygon fill="midnightblue" stroke="midnightblue" points="1607.45,-68.2405 1617.49,-64.8392 1607.52,-61.2409 1607.45,-68.2405"/>
</g>
<!-- Node12 -->
<g id="node12" class="node"><title>Node12</title>
<g id="a_node12"><a xlink:href="h0block_8cc.html" target="_top" xlink:title="Some code associated with the H0block structure, which does the preconditioning for the Olsen/Davidso...">
<polygon fill="none" stroke="black" points="891,-0.5 891,-19.5 955,-19.5 955,-0.5 891,-0.5"/>
<text text-anchor="middle" x="923" y="-7.5" font-family="Helvetica,sans-Serif" font-size="10.00">h0block.cc</text>
</a>
</g>
</g>
<!-- Node1&#45;&gt;Node12 -->
<g id="edge11" class="edge"><title>Node1&#45;&gt;Node12</title>
<path fill="none" stroke="midnightblue" d="M1607.01,-64.4854C1503.38,-62.6523 1207.31,-54.5449 964,-20 961.114,-19.5902 958.129,-19.0888 955.146,-18.5344"/>
<polygon fill="midnightblue" stroke="midnightblue" points="1607.22,-67.9894 1617.28,-64.6574 1607.34,-60.9903 1607.22,-67.9894"/>
</g>
<!-- Node13 -->
<g id="node13" class="node"><title>Node13</title>
<g id="a_node13"><a xlink:href="import__vector_8cc.html" target="_top" xlink:title="Enter brief description of file here.">
<polygon fill="none" stroke="black" points="973.5,-0.5 973.5,-19.5 1062.5,-19.5 1062.5,-0.5 973.5,-0.5"/>
<text text-anchor="middle" x="1018" y="-7.5" font-family="Helvetica,sans-Serif" font-size="10.00">import_vector.cc</text>
</a>
</g>
</g>
<!-- Node1&#45;&gt;Node13 -->
<g id="edge12" class="edge"><title>Node1&#45;&gt;Node13</title>
<path fill="none" stroke="midnightblue" d="M1607.29,-63.1734C1515.47,-58.4784 1273.03,-44.5992 1072,-20 1068.98,-19.6306 1065.87,-19.2129 1062.75,-18.7648"/>
<polygon fill="midnightblue" stroke="midnightblue" points="1607.32,-66.679 1617.48,-63.688 1607.67,-59.6879 1607.32,-66.679"/>
</g>
<!-- Node14 -->
<g id="node14" class="node"><title>Node14</title>
<g id="a_node14"><a xlink:href="detci_2ints_8cc.html" target="_top" xlink:title="Enter brief description of file here.">
<polygon fill="none" stroke="black" points="1081,-0.5 1081,-19.5 1127,-19.5 1127,-0.5 1081,-0.5"/>
<text text-anchor="middle" x="1104" y="-7.5" font-family="Helvetica,sans-Serif" font-size="10.00">ints.cc</text>
</a>
</g>
</g>
<!-- Node1&#45;&gt;Node14 -->
<g id="edge13" class="edge"><title>Node1&#45;&gt;Node14</title>
<path fill="none" stroke="midnightblue" d="M1607.27,-64.06C1522.4,-61.4247 1310.27,-51.9226 1136,-20 1133.16,-19.4801 1130.21,-18.8199 1127.3,-18.0941"/>
<polygon fill="midnightblue" stroke="midnightblue" points="1607.35,-67.5637 1617.45,-64.3616 1607.56,-60.5668 1607.35,-67.5637"/>
</g>
<!-- Node15 -->
<g id="node15" class="node"><title>Node15</title>
<g id="a_node15"><a xlink:href="mitrush__iter_8cc.html" target="_top" xlink:title="Mitrushenkov iterative scheme for RAS CI&#39;s.">
<polygon fill="none" stroke="black" points="1145.5,-0.5 1145.5,-19.5 1226.5,-19.5 1226.5,-0.5 1145.5,-0.5"/>
<text text-anchor="middle" x="1186" y="-7.5" font-family="Helvetica,sans-Serif" font-size="10.00">mitrush_iter.cc</text>
</a>
</g>
</g>
<!-- Node1&#45;&gt;Node15 -->
<g id="edge14" class="edge"><title>Node1&#45;&gt;Node15</title>
<path fill="none" stroke="midnightblue" d="M1607.05,-61.7591C1534.54,-55.3632 1371.41,-39.9868 1235,-20 1232.26,-19.5988 1229.44,-19.1572 1226.6,-18.6917"/>
<polygon fill="midnightblue" stroke="midnightblue" points="1606.8,-65.2512 1617.07,-62.6371 1607.42,-58.2779 1606.8,-65.2512"/>
</g>
<!-- Node16 -->
<g id="node16" class="node"><title>Node16</title>
<g id="a_node16"><a xlink:href="mpn_8cc.html" target="_top" xlink:title="Enter brief description of file here.">
<polygon fill="none" stroke="black" points="1244.5,-0.5 1244.5,-19.5 1293.5,-19.5 1293.5,-0.5 1244.5,-0.5"/>
<text text-anchor="middle" x="1269" y="-7.5" font-family="Helvetica,sans-Serif" font-size="10.00">mpn.cc</text>
</a>
</g>
</g>
<!-- Node1&#45;&gt;Node16 -->
<g id="edge15" class="edge"><title>Node1&#45;&gt;Node16</title>
<path fill="none" stroke="midnightblue" d="M1606.89,-61.7053C1543.28,-55.827 1411.65,-42.0395 1302,-20 1299.32,-19.4617 1296.54,-18.8263 1293.78,-18.146"/>
<polygon fill="midnightblue" stroke="midnightblue" points="1606.95,-65.2254 1617.23,-62.6462 1607.58,-58.2542 1606.95,-65.2254"/>
</g>
<!-- Node17 -->
<g id="node17" class="node"><title>Node17</title>
<g id="a_node17"><a xlink:href="og__addr_8cc.html" target="_top" xlink:title="Enter brief description of file here.">
<polygon fill="none" stroke="black" points="1311.5,-0.5 1311.5,-19.5 1376.5,-19.5 1376.5,-0.5 1311.5,-0.5"/>
<text text-anchor="middle" x="1344" y="-7.5" font-family="Helvetica,sans-Serif" font-size="10.00">og_addr.cc</text>
</a>
</g>
</g>
<!-- Node1&#45;&gt;Node17 -->
<g id="edge16" class="edge"><title>Node1&#45;&gt;Node17</title>
<path fill="none" stroke="midnightblue" d="M1607.05,-58.9779C1556.33,-50.8039 1463.69,-35.4383 1385,-20 1382.28,-19.4669 1379.47,-18.8937 1376.65,-18.3041"/>
<polygon fill="midnightblue" stroke="midnightblue" points="1606.79,-62.4807 1617.22,-60.6104 1607.9,-55.5692 1606.79,-62.4807"/>
</g>
<!-- Node18 -->
<g id="node18" class="node"><title>Node18</title>
<g id="a_node18"><a xlink:href="olsengraph_8cc.html" target="_top" xlink:title="Enter brief description of file here.">
<polygon fill="none" stroke="black" points="1394.5,-0.5 1394.5,-19.5 1471.5,-19.5 1471.5,-0.5 1394.5,-0.5"/>
<text text-anchor="middle" x="1433" y="-7.5" font-family="Helvetica,sans-Serif" font-size="10.00">olsengraph.cc</text>
</a>
</g>
</g>
<!-- Node1&#45;&gt;Node18 -->
<g id="edge17" class="edge"><title>Node1&#45;&gt;Node18</title>
<path fill="none" stroke="midnightblue" d="M1607.41,-55.4245C1567.5,-45.2597 1505.01,-29.3431 1466.67,-19.576"/>
<polygon fill="midnightblue" stroke="midnightblue" points="1606.73,-58.8637 1617.28,-57.9404 1608.46,-52.0803 1606.73,-58.8637"/>
</g>
<!-- Node19 -->
<g id="node19" class="node"><title>Node19</title>
<g id="a_node19"><a xlink:href="olsenupdt_8cc.html" target="_top" xlink:title="Enter brief description of file here.">
<polygon fill="none" stroke="black" points="1490,-0.5 1490,-19.5 1562,-19.5 1562,-0.5 1490,-0.5"/>
<text text-anchor="middle" x="1526" y="-7.5" font-family="Helvetica,sans-Serif" font-size="10.00">olsenupdt.cc</text>
</a>
</g>
</g>
<!-- Node1&#45;&gt;Node19 -->
<g id="edge18" class="edge"><title>Node1&#45;&gt;Node19</title>
<path fill="none" stroke="midnightblue" d="M1616.86,-52.2321C1594.6,-42.1312 1564.14,-28.3091 1544.77,-19.5164"/>
<polygon fill="midnightblue" stroke="midnightblue" points="1615.59,-55.4984 1626.14,-56.4435 1618.48,-49.124 1615.59,-55.4984"/>
</g>
<!-- Node20 -->
<g id="node20" class="node"><title>Node20</title>
<g id="a_node20"><a xlink:href="detci_2opdm_8cc.html" target="_top" xlink:title="Enter brief description of file here.">
<polygon fill="none" stroke="black" points="1580,-0.5 1580,-19.5 1634,-19.5 1634,-0.5 1580,-0.5"/>
<text text-anchor="middle" x="1607" y="-7.5" font-family="Helvetica,sans-Serif" font-size="10.00">opdm.cc</text>
</a>
</g>
</g>
<!-- Node1&#45;&gt;Node20 -->
<g id="edge19" class="edge"><title>Node1&#45;&gt;Node20</title>
<path fill="none" stroke="midnightblue" d="M1632.94,-47.8554C1626.36,-38.5048 1618.49,-27.3265 1613.16,-19.7511"/>
<polygon fill="midnightblue" stroke="midnightblue" points="1630.11,-49.9192 1638.73,-56.083 1635.83,-45.8907 1630.11,-49.9192"/>
</g>
<!-- Node21 -->
<g id="node21" class="node"><title>Node21</title>
<g id="a_node21"><a xlink:href="detci_2params_8cc.html" target="_top" xlink:title="Enter brief description of file here.">
<polygon fill="none" stroke="black" points="1652,-0.5 1652,-19.5 1714,-19.5 1714,-0.5 1652,-0.5"/>
<text text-anchor="middle" x="1683" y="-7.5" font-family="Helvetica,sans-Serif" font-size="10.00">params.cc</text>
</a>
</g>
</g>
<!-- Node1&#45;&gt;Node21 -->
<g id="edge20" class="edge"><title>Node1&#45;&gt;Node21</title>
<path fill="none" stroke="midnightblue" d="M1657.06,-47.8554C1663.64,-38.5048 1671.51,-27.3265 1676.84,-19.7511"/>
<polygon fill="midnightblue" stroke="midnightblue" points="1654.17,-45.8907 1651.27,-56.083 1659.89,-49.9192 1654.17,-45.8907"/>
</g>
<!-- Node22 -->
<g id="node22" class="node"><title>Node22</title>
<g id="a_node22"><a xlink:href="printing_8cc.html" target="_top" xlink:title="Enter brief description of file here.">
<polygon fill="none" stroke="black" points="1732,-0.5 1732,-19.5 1794,-19.5 1794,-0.5 1732,-0.5"/>
<text text-anchor="middle" x="1763" y="-7.5" font-family="Helvetica,sans-Serif" font-size="10.00">printing.cc</text>
</a>
</g>
</g>
<!-- Node1&#45;&gt;Node22 -->
<g id="edge21" class="edge"><title>Node1&#45;&gt;Node22</title>
<path fill="none" stroke="midnightblue" d="M1672.9,-52.2321C1694.97,-42.1312 1725.18,-28.3091 1744.39,-19.5164"/>
<polygon fill="midnightblue" stroke="midnightblue" points="1671.33,-49.0997 1663.7,-56.4435 1674.25,-55.4648 1671.33,-49.0997"/>
</g>
<!-- Node23 -->
<g id="node23" class="node"><title>Node23</title>
<g id="a_node23"><a xlink:href="s1_8cc.html" target="_top" xlink:title="Enter brief description of file here.">
<polygon fill="none" stroke="black" points="1812.5,-0.5 1812.5,-19.5 1853.5,-19.5 1853.5,-0.5 1812.5,-0.5"/>
<text text-anchor="middle" x="1833" y="-7.5" font-family="Helvetica,sans-Serif" font-size="10.00">s1.cc</text>
</a>
</g>
</g>
<!-- Node1&#45;&gt;Node23 -->
<g id="edge22" class="edge"><title>Node1&#45;&gt;Node23</title>
<path fill="none" stroke="midnightblue" d="M1682.56,-54.4624C1714.6,-45.4352 1761.87,-32.0256 1803,-20 1806.03,-19.1149 1809.22,-18.1689 1812.35,-17.235"/>
<polygon fill="midnightblue" stroke="midnightblue" points="1681.4,-51.1535 1672.72,-57.232 1683.29,-57.8917 1681.4,-51.1535"/>
</g>
<!-- Node24 -->
<g id="node24" class="node"><title>Node24</title>
<g id="a_node24"><a xlink:href="s1v_8cc.html" target="_top" xlink:title="Enter brief description of file here.">
<polygon fill="none" stroke="black" points="1872,-0.5 1872,-19.5 1918,-19.5 1918,-0.5 1872,-0.5"/>
<text text-anchor="middle" x="1895" y="-7.5" font-family="Helvetica,sans-Serif" font-size="10.00">s1v.cc</text>
</a>
</g>
</g>
<!-- Node1&#45;&gt;Node24 -->
<g id="edge23" class="edge"><title>Node1&#45;&gt;Node24</title>
<path fill="none" stroke="midnightblue" d="M1682.35,-57.9825C1725.71,-49.6671 1799.31,-35.0345 1862,-20 1865.23,-19.2245 1868.63,-18.3576 1871.97,-17.4764"/>
<polygon fill="midnightblue" stroke="midnightblue" points="1681.69,-54.5449 1672.53,-59.8576 1683,-61.4208 1681.69,-54.5449"/>
</g>
<!-- Node25 -->
<g id="node25" class="node"><title>Node25</title>
<g id="a_node25"><a xlink:href="s2_8cc.html" target="_top" xlink:title="Enter brief description of file here.">
<polygon fill="none" stroke="black" points="1936.5,-0.5 1936.5,-19.5 1977.5,-19.5 1977.5,-0.5 1936.5,-0.5"/>
<text text-anchor="middle" x="1957" y="-7.5" font-family="Helvetica,sans-Serif" font-size="10.00">s2.cc</text>
</a>
</g>
</g>
<!-- Node1&#45;&gt;Node25 -->
<g id="edge24" class="edge"><title>Node1&#45;&gt;Node25</title>
<path fill="none" stroke="midnightblue" d="M1683.08,-60.5601C1737.56,-53.8394 1840.69,-39.7414 1927,-20 1930.07,-19.2968 1933.3,-18.4503 1936.44,-17.5615"/>
<polygon fill="midnightblue" stroke="midnightblue" points="1682.36,-57.1222 1672.85,-61.8053 1683.2,-64.0709 1682.36,-57.1222"/>
</g>
<!-- Node26 -->
<g id="node26" class="node"><title>Node26</title>
<g id="a_node26"><a xlink:href="s2v_8cc.html" target="_top" xlink:title="Enter brief description of file here.">
<polygon fill="none" stroke="black" points="1996,-0.5 1996,-19.5 2042,-19.5 2042,-0.5 1996,-0.5"/>
<text text-anchor="middle" x="2019" y="-7.5" font-family="Helvetica,sans-Serif" font-size="10.00">s2v.cc</text>
</a>
</g>
</g>
<!-- Node1&#45;&gt;Node26 -->
<g id="edge25" class="edge"><title>Node1&#45;&gt;Node26</title>
<path fill="none" stroke="midnightblue" d="M1682.89,-61.6864C1746.12,-55.7806 1876.98,-41.9544 1986,-20 1989.14,-19.3669 1992.43,-18.6005 1995.66,-17.7851"/>
<polygon fill="midnightblue" stroke="midnightblue" points="1682.25,-58.2305 1672.61,-62.6319 1682.89,-65.201 1682.25,-58.2305"/>
</g>
<!-- Node27 -->
<g id="node27" class="node"><title>Node27</title>
<g id="a_node27"><a xlink:href="s3_8cc.html" target="_top" xlink:title="Enter brief description of file here.">
<polygon fill="none" stroke="black" points="2060.5,-0.5 2060.5,-19.5 2101.5,-19.5 2101.5,-0.5 2060.5,-0.5"/>
<text text-anchor="middle" x="2081" y="-7.5" font-family="Helvetica,sans-Serif" font-size="10.00">s3.cc</text>
</a>
</g>
</g>
<!-- Node1&#45;&gt;Node27 -->
<g id="edge26" class="edge"><title>Node1&#45;&gt;Node27</title>
<path fill="none" stroke="midnightblue" d="M1682.82,-63.0983C1755.02,-58.9644 1917.21,-47.2494 2051,-20 2054.09,-19.3706 2057.32,-18.5644 2060.47,-17.6938"/>
<polygon fill="midnightblue" stroke="midnightblue" points="1682.63,-59.6037 1672.84,-63.6542 1683.02,-66.5928 1682.63,-59.6037"/>
</g>
<!-- Node28 -->
<g id="node28" class="node"><title>Node28</title>
<g id="a_node28"><a xlink:href="s3__block__bz_8cc.html" target="_top" xlink:title="Enter brief description of file here.">
<polygon fill="none" stroke="black" points="2119.5,-0.5 2119.5,-19.5 2204.5,-19.5 2204.5,-0.5 2119.5,-0.5"/>
<text text-anchor="middle" x="2162" y="-7.5" font-family="Helvetica,sans-Serif" font-size="10.00">s3_block_bz.cc</text>
</a>
</g>
</g>
<!-- Node1&#45;&gt;Node28 -->
<g id="edge27" class="edge"><title>Node1&#45;&gt;Node28</title>
<path fill="none" stroke="midnightblue" d="M1682.59,-62.3226C1761.82,-56.4681 1951.72,-41.3249 2110,-20 2113.09,-19.5841 2116.27,-19.1198 2119.47,-18.6275"/>
<polygon fill="midnightblue" stroke="midnightblue" points="1682.32,-58.8332 1672.6,-63.0548 1682.83,-65.8144 1682.32,-58.8332"/>
</g>
<!-- Node29 -->
<g id="node29" class="node"><title>Node29</title>
<g id="a_node29"><a xlink:href="s3v_8cc.html" target="_top" xlink:title="Enter brief description of file here.">
<polygon fill="none" stroke="black" points="2223,-0.5 2223,-19.5 2269,-19.5 2269,-0.5 2223,-0.5"/>
<text text-anchor="middle" x="2246" y="-7.5" font-family="Helvetica,sans-Serif" font-size="10.00">s3v.cc</text>
</a>
</g>
</g>
<!-- Node1&#45;&gt;Node29 -->
<g id="edge28" class="edge"><title>Node1&#45;&gt;Node29</title>
<path fill="none" stroke="midnightblue" d="M1682.89,-64.4407C1774.59,-62.5585 2015.45,-54.4517 2213,-20 2216.16,-19.4491 2219.45,-18.7301 2222.69,-17.9385"/>
<polygon fill="midnightblue" stroke="midnightblue" points="1682.65,-60.9447 1672.72,-64.6362 1682.78,-67.9434 1682.65,-60.9447"/>
</g>
<!-- Node30 -->
<g id="node30" class="node"><title>Node30</title>
<g id="a_node30"><a xlink:href="sem_8cc.html" target="_top" xlink:title="Enter brief description of file here.">
<polygon fill="none" stroke="black" points="2287.5,-0.5 2287.5,-19.5 2336.5,-19.5 2336.5,-0.5 2287.5,-0.5"/>
<text text-anchor="middle" x="2312" y="-7.5" font-family="Helvetica,sans-Serif" font-size="10.00">sem.cc</text>
</a>
</g>
</g>
<!-- Node1&#45;&gt;Node30 -->
<g id="edge29" class="edge"><title>Node1&#45;&gt;Node30</title>
<path fill="none" stroke="midnightblue" d="M1682.74,-64.7796C1781.32,-63.6735 2054.39,-57.2046 2278,-20 2281.01,-19.4989 2284.14,-18.8503 2287.23,-18.1308"/>
<polygon fill="midnightblue" stroke="midnightblue" points="1682.64,-61.2804 1672.67,-64.8804 1682.71,-68.28 1682.64,-61.2804"/>
</g>
<!-- Node31 -->
<g id="node31" class="node"><title>Node31</title>
<g id="a_node31"><a xlink:href="sem__test_8cc.html" target="_top" xlink:title="Enter brief description of file here.">
<polygon fill="none" stroke="black" points="2354.5,-0.5 2354.5,-19.5 2425.5,-19.5 2425.5,-0.5 2354.5,-0.5"/>
<text text-anchor="middle" x="2390" y="-7.5" font-family="Helvetica,sans-Serif" font-size="10.00">sem_test.cc</text>
</a>
</g>
</g>
<!-- Node1&#45;&gt;Node31 -->
<g id="edge30" class="edge"><title>Node1&#45;&gt;Node31</title>
<path fill="none" stroke="midnightblue" d="M1682.96,-64.3348C1788.41,-62.1046 2093.74,-53.0527 2345,-20 2348,-19.6051 2351.1,-19.1292 2354.21,-18.6049"/>
<polygon fill="midnightblue" stroke="midnightblue" points="1682.73,-60.8385 1672.81,-64.5411 1682.88,-67.837 1682.73,-60.8385"/>
</g>
<!-- Node32 -->
<g id="node32" class="node"><title>Node32</title>
<g id="a_node32"><a xlink:href="set__ciblks_8cc.html" target="_top" xlink:title="Enter brief description of file here.">
<polygon fill="none" stroke="black" points="2444,-0.5 2444,-19.5 2518,-19.5 2518,-0.5 2444,-0.5"/>
<text text-anchor="middle" x="2481" y="-7.5" font-family="Helvetica,sans-Serif" font-size="10.00">set_ciblks.cc</text>
</a>
</g>
</g>
<!-- Node1&#45;&gt;Node32 -->
<g id="edge31" class="edge"><title>Node1&#45;&gt;Node32</title>
<path fill="none" stroke="midnightblue" d="M1683.02,-64.611C1797.18,-63.0618 2146.77,-55.5337 2434,-20 2437.22,-19.6022 2440.54,-19.1167 2443.87,-18.5795"/>
<polygon fill="midnightblue" stroke="midnightblue" points="1682.68,-61.1151 1672.72,-64.743 1682.77,-68.1145 1682.68,-61.1151"/>
</g>
<!-- Node33 -->
<g id="node33" class="node"><title>Node33</title>
<g id="a_node33"><a xlink:href="shift_8cc.html" target="_top" xlink:title="Shifts SCF eigenvalues corresponding to SOCC orbitals for ZAPTn.">
<polygon fill="none" stroke="black" points="2536.5,-0.5 2536.5,-19.5 2585.5,-19.5 2585.5,-0.5 2536.5,-0.5"/>
<text text-anchor="middle" x="2561" y="-7.5" font-family="Helvetica,sans-Serif" font-size="10.00">shift.cc</text>
</a>
</g>
</g>
<!-- Node1&#45;&gt;Node33 -->
<g id="edge32" class="edge"><title>Node1&#45;&gt;Node33</title>
<path fill="none" stroke="midnightblue" d="M1683.03,-64.1119C1829.96,-60.5177 2360.55,-45.9867 2527,-20 2530.02,-19.5291 2533.15,-18.8987 2536.24,-18.1893"/>
<polygon fill="midnightblue" stroke="midnightblue" points="1682.65,-60.6201 1672.73,-64.3611 1682.82,-67.618 1682.65,-60.6201"/>
</g>
<!-- Node34 -->
<g id="node34" class="node"><title>Node34</title>
<g id="a_node34"><a xlink:href="sigma_8cc.html" target="_top" xlink:title="Routines to compute sigma = H * c.">
<polygon fill="none" stroke="black" points="2604,-0.5 2604,-19.5 2660,-19.5 2660,-0.5 2604,-0.5"/>
<text text-anchor="middle" x="2632" y="-7.5" font-family="Helvetica,sans-Serif" font-size="10.00">sigma.cc</text>
</a>
</g>
</g>
<!-- Node1&#45;&gt;Node34 -->
<g id="edge33" class="edge"><title>Node1&#45;&gt;Node34</title>
<path fill="none" stroke="midnightblue" d="M1682.85,-64.1419C1836.41,-60.5155 2413.37,-45.4499 2594,-20 2597.22,-19.546 2600.57,-18.9458 2603.89,-18.2703"/>
<polygon fill="midnightblue" stroke="midnightblue" points="1682.45,-60.6502 1672.53,-64.3832 1682.61,-67.6483 1682.45,-60.6502"/>
</g>
<!-- Node35 -->
<g id="node35" class="node"><title>Node35</title>
<g id="a_node35"><a xlink:href="ssq_8cc.html" target="_top" xlink:title="Compute expectation value of S^2.">
<polygon fill="none" stroke="black" points="2678,-0.5 2678,-19.5 2724,-19.5 2724,-0.5 2678,-0.5"/>
<text text-anchor="middle" x="2701" y="-7.5" font-family="Helvetica,sans-Serif" font-size="10.00">ssq.cc</text>
</a>
</g>
</g>
<!-- Node1&#45;&gt;Node35 -->
<g id="edge34" class="edge"><title>Node1&#45;&gt;Node35</title>
<path fill="none" stroke="midnightblue" d="M1683.21,-64.4972C1844.93,-62.1881 2473.63,-51.3373 2669,-20 2671.85,-19.543 2674.81,-18.9212 2677.72,-18.2164"/>
<polygon fill="midnightblue" stroke="midnightblue" points="1682.77,-61.003 1672.82,-64.643 1682.87,-68.0023 1682.77,-61.003"/>
</g>
<!-- Node36 -->
<g id="node36" class="node"><title>Node36</title>
<g id="a_node36"><a xlink:href="stringlist_8cc.html" target="_top" xlink:title="Code to form the CI space as strings with all single replacements.">
<polygon fill="none" stroke="black" points="2742.5,-0.5 2742.5,-19.5 2809.5,-19.5 2809.5,-0.5 2742.5,-0.5"/>
<text text-anchor="middle" x="2776" y="-7.5" font-family="Helvetica,sans-Serif" font-size="10.00">stringlist.cc</text>
</a>
</g>
</g>
<!-- Node1&#45;&gt;Node36 -->
<g id="edge35" class="edge"><title>Node1&#45;&gt;Node36</title>
<path fill="none" stroke="midnightblue" d="M1682.81,-64.2741C1849.94,-60.937 2523.27,-46.1047 2733,-20 2736.03,-19.6232 2739.16,-19.1444 2742.29,-18.6047"/>
<polygon fill="midnightblue" stroke="midnightblue" points="1682.48,-60.78 1672.55,-64.4773 1682.61,-67.7786 1682.48,-60.78"/>
</g>
<!-- Node37 -->
<g id="node37" class="node"><title>Node37</title>
<g id="a_node37"><a xlink:href="time_8cc.html" target="_top" xlink:title="DETCI&#45;specific timing routines.">
<polygon fill="none" stroke="black" points="2827.5,-0.5 2827.5,-19.5 2876.5,-19.5 2876.5,-0.5 2827.5,-0.5"/>
<text text-anchor="middle" x="2852" y="-7.5" font-family="Helvetica,sans-Serif" font-size="10.00">time.cc</text>
</a>
</g>
</g>
<!-- Node1&#45;&gt;Node37 -->
<g id="edge36" class="edge"><title>Node1&#45;&gt;Node37</title>
<path fill="none" stroke="midnightblue" d="M1682.68,-64.6709C1857.59,-62.9724 2591.35,-53.9204 2818,-20 2821.02,-19.5481 2824.16,-18.9294 2827.25,-18.2263"/>
<polygon fill="midnightblue" stroke="midnightblue" points="1682.64,-61.1711 1672.67,-64.7659 1682.7,-68.1707 1682.64,-61.1711"/>
</g>
<!-- Node38 -->
<g id="node38" class="node"><title>Node38</title>
<g id="a_node38"><a xlink:href="tpdm_8cc.html" target="_top" xlink:title="Compute the two&#45;particle density matrix (TPDM)">
<polygon fill="none" stroke="black" points="2895,-0.5 2895,-19.5 2947,-19.5 2947,-0.5 2895,-0.5"/>
<text text-anchor="middle" x="2921" y="-7.5" font-family="Helvetica,sans-Serif" font-size="10.00">tpdm.cc</text>
</a>
</g>
</g>
<!-- Node1&#45;&gt;Node38 -->
<g id="edge37" class="edge"><title>Node1&#45;&gt;Node38</title>
<path fill="none" stroke="midnightblue" d="M1682.76,-64.6912C1863.82,-63.0482 2644.24,-54.0819 2885,-20 2888.19,-19.5485 2891.51,-18.9301 2894.78,-18.2271"/>
<polygon fill="midnightblue" stroke="midnightblue" points="1682.63,-61.1921 1672.66,-64.7808 1682.69,-68.1918 1682.63,-61.1921"/>
</g>
<!-- Node39 -->
<g id="node39" class="node"><title>Node39</title>
<g id="a_node39"><a xlink:href="tpool_8cc.html" target="_top" xlink:title="Thread pools.">
<polygon fill="none" stroke="black" points="2965.5,-0.5 2965.5,-19.5 3016.5,-19.5 3016.5,-0.5 2965.5,-0.5"/>
<text text-anchor="middle" x="2991" y="-7.5" font-family="Helvetica,sans-Serif" font-size="10.00">tpool.cc</text>
</a>
</g>
</g>
<!-- Node1&#45;&gt;Node39 -->
<g id="edge38" class="edge"><title>Node1&#45;&gt;Node39</title>
<path fill="none" stroke="midnightblue" d="M1682.79,-64.8108C1870.16,-63.7038 2700.61,-56.7726 2956,-20 2958.98,-19.5708 2962.07,-18.9862 2965.13,-18.3194"/>
<polygon fill="midnightblue" stroke="midnightblue" points="1682.6,-61.3118 1672.62,-64.8689 1682.64,-68.3116 1682.6,-61.3118"/>
</g>
</g>
</svg>
