<?xml version="1.0" encoding="UTF-8" standalone="no"?>
<!DOCTYPE svg PUBLIC "-//W3C//DTD SVG 1.1//EN"
 "http://www.w3.org/Graphics/SVG/1.1/DTD/svg11.dtd">
<!-- Generated by graphviz version 2.30.1 (20140110.0959)
 -->
<!-- Title: psi::dpd_gbl Pages: 1 -->
<svg width="318pt" height="118pt"
 viewBox="0.00 0.00 318.00 118.00" xmlns="http://www.w3.org/2000/svg" xmlns:xlink="http://www.w3.org/1999/xlink">
<g id="graph0" class="graph" transform="scale(1 1) rotate(0) translate(4 114)">
<title>psi::dpd_gbl</title>
<!-- Node1 -->
<g id="node1" class="node"><title>Node1</title>
<polygon fill="#bfbfbf" stroke="black" points="99.5,-0.5 99.5,-19.5 168.5,-19.5 168.5,-0.5 99.5,-0.5"/>
<text text-anchor="middle" x="134" y="-7.5" font-family="Helvetica,sans-Serif" font-size="10.00">psi::dpd_gbl</text>
</g>
<!-- Node2 -->
<g id="node2" class="node"><title>Node2</title>
<g id="a_node2"><a xlink:href="structpsi_1_1dpd__file4__cache__entry.html" target="_top" xlink:title="psi::dpd_file4_cache\l_entry">
<polygon fill="none" stroke="black" points="0,-79 0,-109 106,-109 106,-79 0,-79"/>
<text text-anchor="start" x="8" y="-97" font-family="Helvetica,sans-Serif" font-size="10.00">psi::dpd_file4_cache</text>
<text text-anchor="middle" x="53" y="-86" font-family="Helvetica,sans-Serif" font-size="10.00">_entry</text>
</a>
</g>
</g>
<!-- Node2&#45;&gt;Node1 -->
<g id="edge1" class="edge"><title>Node2&#45;&gt;Node1</title>
<path fill="none" stroke="#9a32cd" stroke-dasharray="5,2" d="M66.9129,-70.1334C73.9491,-59.6396 83.0919,-47.4583 93,-38 100.521,-30.8203 110.185,-24.3517 118.242,-19.5471"/>
<polygon fill="#9a32cd" stroke="#9a32cd" points="63.7939,-68.5114 61.3056,-78.8099 69.673,-72.3109 63.7939,-68.5114"/>
<text text-anchor="middle" x="137" y="-52" font-family="Helvetica,sans-Serif" font-size="10.00"> file4_cache_priority</text>
<text text-anchor="middle" x="137" y="-41" font-family="Helvetica,sans-Serif" font-size="10.00">file4_cache</text>
</g>
<!-- Node2&#45;&gt;Node2 -->
<g id="edge2" class="edge"><title>Node2&#45;&gt;Node2</title>
<path fill="none" stroke="#9a32cd" stroke-dasharray="5,2" d="M116.431,-100.131C121.122,-98.756 124,-96.7124 124,-94 124,-89.6602 116.632,-87.0325 106.257,-86.1171"/>
<polygon fill="#9a32cd" stroke="#9a32cd" points="115.518,-96.7363 106.257,-101.883 116.706,-103.635 115.518,-96.7363"/>
<text text-anchor="middle" x="135" y="-97" font-family="Helvetica,sans-Serif" font-size="10.00"> next</text>
<text text-anchor="middle" x="135" y="-86" font-family="Helvetica,sans-Serif" font-size="10.00">last</text>
</g>
<!-- Node3 -->
<g id="node3" class="node"><title>Node3</title>
<g id="a_node3"><a xlink:href="structpsi_1_1dpd__file2__cache__entry.html" target="_top" xlink:title="psi::dpd_file2_cache\l_entry">
<polygon fill="none" stroke="black" points="164,-79 164,-109 270,-109 270,-79 164,-79"/>
<text text-anchor="start" x="172" y="-97" font-family="Helvetica,sans-Serif" font-size="10.00">psi::dpd_file2_cache</text>
<text text-anchor="middle" x="217" y="-86" font-family="Helvetica,sans-Serif" font-size="10.00">_entry</text>
</a>
</g>
</g>
<!-- Node3&#45;&gt;Node1 -->
<g id="edge3" class="edge"><title>Node3&#45;&gt;Node1</title>
<path fill="none" stroke="#9a32cd" stroke-dasharray="5,2" d="M205.118,-69.7995C198.925,-59.2325 190.63,-47.086 181,-38 173.06,-30.5088 162.666,-24.2628 153.671,-19.6717"/>
<polygon fill="#9a32cd" stroke="#9a32cd" points="202.075,-71.5295 209.999,-78.5623 208.19,-68.123 202.075,-71.5295"/>
<text text-anchor="middle" x="224.5" y="-46.5" font-family="Helvetica,sans-Serif" font-size="10.00"> file2_cache</text>
</g>
<!-- Node3&#45;&gt;Node3 -->
<g id="edge4" class="edge"><title>Node3&#45;&gt;Node3</title>
<path fill="none" stroke="#9a32cd" stroke-dasharray="5,2" d="M280.431,-100.131C285.122,-98.756 288,-96.7124 288,-94 288,-89.6602 280.632,-87.0325 270.257,-86.1171"/>
<polygon fill="#9a32cd" stroke="#9a32cd" points="279.518,-96.7363 270.257,-101.883 280.706,-103.635 279.518,-96.7363"/>
<text text-anchor="middle" x="299" y="-97" font-family="Helvetica,sans-Serif" font-size="10.00"> next</text>
<text text-anchor="middle" x="299" y="-86" font-family="Helvetica,sans-Serif" font-size="10.00">last</text>
</g>
</g>
</svg>
