<?xml version="1.0" encoding="UTF-8" standalone="no"?>
<!DOCTYPE svg PUBLIC "-//W3C//DTD SVG 1.1//EN"
 "http://www.w3.org/Graphics/SVG/1.1/DTD/svg11.dtd">
<!-- Generated by graphviz version 2.30.1 (20140110.0959)
 -->
<!-- Title: tocprint.cc Pages: 1 -->
<svg width="437pt" height="140pt"
 viewBox="0.00 0.00 437.41 140.00" xmlns="http://www.w3.org/2000/svg" xmlns:xlink="http://www.w3.org/1999/xlink">
<g id="graph0" class="graph" transform="scale(1 1) rotate(0) translate(4 136)">
<title>tocprint.cc</title>
<!-- Node1 -->
<g id="node1" class="node"><title>Node1</title>
<polygon fill="#bfbfbf" stroke="black" points="90.407,-112.5 90.407,-131.5 152.407,-131.5 152.407,-112.5 90.407,-112.5"/>
<text text-anchor="middle" x="121.407" y="-119.5" font-family="Helvetica,sans-Serif" font-size="10.00">tocprint.cc</text>
</g>
<!-- Node2 -->
<g id="node2" class="node"><title>Node2</title>
<polygon fill="none" stroke="#bfbfbf" points="8.90697,-0.5 8.90697,-19.5 51.907,-19.5 51.907,-0.5 8.90697,-0.5"/>
<text text-anchor="middle" x="30.407" y="-7.5" font-family="Helvetica,sans-Serif" font-size="10.00">cstdio</text>
</g>
<!-- Node1&#45;&gt;Node2 -->
<g id="edge1" class="edge"><title>Node1&#45;&gt;Node2</title>
<path fill="none" stroke="midnightblue" d="M90.3276,-118.537C62.6182,-114.506 23.5659,-103.896 4.40697,-76 -5.96374,-60.8999 4.8891,-41.0497 15.5697,-27.2766"/>
<polygon fill="midnightblue" stroke="midnightblue" points="18.274,-29.4987 22.0063,-19.583 12.9051,-25.0069 18.274,-29.4987"/>
</g>
<!-- Node3 -->
<g id="node3" class="node"><title>Node3</title>
<polygon fill="none" stroke="#bfbfbf" points="13.407,-56.5 13.407,-75.5 121.407,-75.5 121.407,-56.5 13.407,-56.5"/>
<text text-anchor="middle" x="67.407" y="-63.5" font-family="Helvetica,sans-Serif" font-size="10.00">boost/shared_ptr.hpp</text>
</g>
<!-- Node1&#45;&gt;Node3 -->
<g id="edge2" class="edge"><title>Node1&#45;&gt;Node3</title>
<path fill="none" stroke="midnightblue" d="M112.49,-112.083C104.626,-104.22 92.9758,-92.5688 83.4882,-83.0813"/>
<polygon fill="midnightblue" stroke="midnightblue" points="85.704,-80.3473 76.158,-75.7511 80.7543,-85.2971 85.704,-80.3473"/>
</g>
<!-- Node4 -->
<g id="node4" class="node"><title>Node4</title>
<g id="a_node4"><a xlink:href="psio_8h_source.html" target="_top" xlink:title="libpsio/psio.h">
<polygon fill="none" stroke="black" points="139.407,-56.5 139.407,-75.5 213.407,-75.5 213.407,-56.5 139.407,-56.5"/>
<text text-anchor="middle" x="176.407" y="-63.5" font-family="Helvetica,sans-Serif" font-size="10.00">libpsio/psio.h</text>
</a>
</g>
</g>
<!-- Node1&#45;&gt;Node4 -->
<g id="edge3" class="edge"><title>Node1&#45;&gt;Node4</title>
<path fill="none" stroke="midnightblue" d="M130.489,-112.083C138.578,-104.141 150.602,-92.3354 160.317,-82.7973"/>
<polygon fill="midnightblue" stroke="midnightblue" points="162.81,-85.2545 167.494,-75.7511 157.906,-80.2595 162.81,-85.2545"/>
</g>
<!-- Node6 -->
<g id="node6" class="node"><title>Node6</title>
<g id="a_node6"><a xlink:href="psio_8hpp_source.html" target="_top" xlink:title="libpsio/psio.hpp">
<polygon fill="none" stroke="black" points="241.407,-56.5 241.407,-75.5 325.407,-75.5 325.407,-56.5 241.407,-56.5"/>
<text text-anchor="middle" x="283.407" y="-63.5" font-family="Helvetica,sans-Serif" font-size="10.00">libpsio/psio.hpp</text>
</a>
</g>
</g>
<!-- Node1&#45;&gt;Node6 -->
<g id="edge6" class="edge"><title>Node1&#45;&gt;Node6</title>
<path fill="none" stroke="midnightblue" d="M147.076,-112.444C174.33,-103.359 217.591,-88.9388 248.058,-78.7831"/>
<polygon fill="midnightblue" stroke="midnightblue" points="249.478,-81.9992 257.858,-75.5164 247.264,-75.3584 249.478,-81.9992"/>
</g>
<!-- Node4&#45;&gt;Node2 -->
<g id="edge4" class="edge"><title>Node4&#45;&gt;Node2</title>
<path fill="none" stroke="midnightblue" d="M153.273,-56.4435C128.495,-47.2792 89.0357,-32.6846 61.5431,-22.5161"/>
<polygon fill="midnightblue" stroke="midnightblue" points="62.5982,-19.1747 52.005,-18.9883 60.1699,-25.74 62.5982,-19.1747"/>
</g>
<!-- Node5 -->
<g id="node5" class="node"><title>Node5</title>
<g id="a_node5"><a xlink:href="libpsio_2config_8h_source.html" target="_top" xlink:title="libpsio/config.h">
<polygon fill="none" stroke="black" points="125.407,-0.5 125.407,-19.5 207.407,-19.5 207.407,-0.5 125.407,-0.5"/>
<text text-anchor="middle" x="166.407" y="-7.5" font-family="Helvetica,sans-Serif" font-size="10.00">libpsio/config.h</text>
</a>
</g>
</g>
<!-- Node4&#45;&gt;Node5 -->
<g id="edge5" class="edge"><title>Node4&#45;&gt;Node5</title>
<path fill="none" stroke="midnightblue" d="M174.756,-56.083C173.431,-48.9272 171.525,-38.6353 169.868,-29.6911"/>
<polygon fill="midnightblue" stroke="midnightblue" points="173.29,-28.9466 168.028,-19.7511 166.407,-30.2212 173.29,-28.9466"/>
</g>
<!-- Node7 -->
<g id="node7" class="node"><title>Node7</title>
<polygon fill="none" stroke="#bfbfbf" points="225.907,-0.5 225.907,-19.5 266.907,-19.5 266.907,-0.5 225.907,-0.5"/>
<text text-anchor="middle" x="246.407" y="-7.5" font-family="Helvetica,sans-Serif" font-size="10.00">string</text>
</g>
<!-- Node6&#45;&gt;Node7 -->
<g id="edge7" class="edge"><title>Node6&#45;&gt;Node7</title>
<path fill="none" stroke="midnightblue" d="M277.297,-56.083C272.125,-48.5341 264.561,-37.4948 258.213,-28.2298"/>
<polygon fill="midnightblue" stroke="midnightblue" points="260.943,-26.0221 252.403,-19.7511 255.168,-29.9787 260.943,-26.0221"/>
</g>
<!-- Node8 -->
<g id="node8" class="node"><title>Node8</title>
<polygon fill="none" stroke="#bfbfbf" points="284.907,-0.5 284.907,-19.5 319.907,-19.5 319.907,-0.5 284.907,-0.5"/>
<text text-anchor="middle" x="302.407" y="-7.5" font-family="Helvetica,sans-Serif" font-size="10.00">map</text>
</g>
<!-- Node6&#45;&gt;Node8 -->
<g id="edge8" class="edge"><title>Node6&#45;&gt;Node8</title>
<path fill="none" stroke="midnightblue" d="M286.544,-56.083C289.09,-48.8486 292.763,-38.4087 295.934,-29.3968"/>
<polygon fill="midnightblue" stroke="midnightblue" points="299.31,-30.3459 299.328,-19.7511 292.707,-28.0225 299.31,-30.3459"/>
</g>
<!-- Node9 -->
<g id="node9" class="node"><title>Node9</title>
<polygon fill="none" stroke="#bfbfbf" points="338.407,-0.5 338.407,-19.5 368.407,-19.5 368.407,-0.5 338.407,-0.5"/>
<text text-anchor="middle" x="353.407" y="-7.5" font-family="Helvetica,sans-Serif" font-size="10.00">set</text>
</g>
<!-- Node6&#45;&gt;Node9 -->
<g id="edge9" class="edge"><title>Node6&#45;&gt;Node9</title>
<path fill="none" stroke="midnightblue" d="M294.654,-56.324C305.204,-48.1849 321.208,-35.8395 333.849,-26.0874"/>
<polygon fill="midnightblue" stroke="midnightblue" points="336.176,-28.7132 341.956,-19.8339 331.9,-23.1707 336.176,-28.7132"/>
</g>
<!-- Node10 -->
<g id="node10" class="node"><title>Node10</title>
<polygon fill="none" stroke="#bfbfbf" points="386.907,-0.5 386.907,-19.5 429.907,-19.5 429.907,-0.5 386.907,-0.5"/>
<text text-anchor="middle" x="408.407" y="-7.5" font-family="Helvetica,sans-Serif" font-size="10.00">queue</text>
</g>
<!-- Node6&#45;&gt;Node10 -->
<g id="edge10" class="edge"><title>Node6&#45;&gt;Node10</title>
<path fill="none" stroke="midnightblue" d="M303.214,-56.4435C323.694,-47.5961 355.89,-33.6875 379.272,-23.5865"/>
<polygon fill="midnightblue" stroke="midnightblue" points="380.901,-26.6953 388.693,-19.5164 378.125,-20.2692 380.901,-26.6953"/>
</g>
<!-- Node6&#45;&gt;Node5 -->
<g id="edge11" class="edge"><title>Node6&#45;&gt;Node5</title>
<path fill="none" stroke="midnightblue" d="M264.868,-56.4435C245.784,-47.6356 215.832,-33.8116 193.971,-23.722"/>
<polygon fill="midnightblue" stroke="midnightblue" points="195.406,-20.5292 184.859,-19.5164 192.472,-26.8849 195.406,-20.5292"/>
</g>
</g>
</svg>
