<?xml version="1.0" encoding="UTF-8" standalone="no"?>
<!DOCTYPE svg PUBLIC "-//W3C//DTD SVG 1.1//EN"
 "http://www.w3.org/Graphics/SVG/1.1/DTD/svg11.dtd">
<!-- Generated by graphviz version 2.30.1 (20140110.0959)
 -->
<!-- Title: tocread.cc Pages: 1 -->
<svg width="440pt" height="140pt"
 viewBox="0.00 0.00 440.00 140.00" xmlns="http://www.w3.org/2000/svg" xmlns:xlink="http://www.w3.org/1999/xlink">
<g id="graph0" class="graph" transform="scale(1 1) rotate(0) translate(4 136)">
<title>tocread.cc</title>
<!-- Node1 -->
<g id="node1" class="node"><title>Node1</title>
<polygon fill="#bfbfbf" stroke="black" points="99,-112.5 99,-131.5 161,-131.5 161,-112.5 99,-112.5"/>
<text text-anchor="middle" x="130" y="-119.5" font-family="Helvetica,sans-Serif" font-size="10.00">tocread.cc</text>
</g>
<!-- Node2 -->
<g id="node2" class="node"><title>Node2</title>
<polygon fill="none" stroke="#bfbfbf" points="-0.5,-56.5 -0.5,-75.5 50.5,-75.5 50.5,-56.5 -0.5,-56.5"/>
<text text-anchor="middle" x="25" y="-63.5" font-family="Helvetica,sans-Serif" font-size="10.00">unistd.h</text>
</g>
<!-- Node1&#45;&gt;Node2 -->
<g id="edge1" class="edge"><title>Node1&#45;&gt;Node2</title>
<path fill="none" stroke="midnightblue" d="M113.13,-112.324C96.2912,-103.664 70.1935,-90.2424 50.762,-80.249"/>
<polygon fill="midnightblue" stroke="midnightblue" points="52.3218,-77.1155 41.8282,-75.6545 49.1204,-83.3405 52.3218,-77.1155"/>
</g>
<!-- Node3 -->
<g id="node3" class="node"><title>Node3</title>
<polygon fill="none" stroke="#bfbfbf" points="68.5,-56.5 68.5,-75.5 113.5,-75.5 113.5,-56.5 68.5,-56.5"/>
<text text-anchor="middle" x="91" y="-63.5" font-family="Helvetica,sans-Serif" font-size="10.00">cstdlib</text>
</g>
<!-- Node1&#45;&gt;Node3 -->
<g id="edge2" class="edge"><title>Node1&#45;&gt;Node3</title>
<path fill="none" stroke="midnightblue" d="M123.56,-112.083C118.051,-104.455 109.969,-93.2645 103.235,-83.9408"/>
<polygon fill="midnightblue" stroke="midnightblue" points="106.013,-81.8087 97.3202,-75.7511 100.338,-85.9071 106.013,-81.8087"/>
</g>
<!-- Node4 -->
<g id="node4" class="node"><title>Node4</title>
<g id="a_node4"><a xlink:href="psio_8h_source.html" target="_top" xlink:title="libpsio/psio.h">
<polygon fill="none" stroke="black" points="132,-56.5 132,-75.5 206,-75.5 206,-56.5 132,-56.5"/>
<text text-anchor="middle" x="169" y="-63.5" font-family="Helvetica,sans-Serif" font-size="10.00">libpsio/psio.h</text>
</a>
</g>
</g>
<!-- Node1&#45;&gt;Node4 -->
<g id="edge3" class="edge"><title>Node1&#45;&gt;Node4</title>
<path fill="none" stroke="midnightblue" d="M136.44,-112.083C141.949,-104.455 150.031,-93.2645 156.765,-83.9408"/>
<polygon fill="midnightblue" stroke="midnightblue" points="159.662,-85.9071 162.68,-75.7511 153.987,-81.8087 159.662,-85.9071"/>
</g>
<!-- Node7 -->
<g id="node7" class="node"><title>Node7</title>
<g id="a_node7"><a xlink:href="psio_8hpp_source.html" target="_top" xlink:title="libpsio/psio.hpp">
<polygon fill="none" stroke="black" points="244,-56.5 244,-75.5 328,-75.5 328,-56.5 244,-56.5"/>
<text text-anchor="middle" x="286" y="-63.5" font-family="Helvetica,sans-Serif" font-size="10.00">libpsio/psio.hpp</text>
</a>
</g>
</g>
<!-- Node1&#45;&gt;Node7 -->
<g id="edge6" class="edge"><title>Node1&#45;&gt;Node7</title>
<path fill="none" stroke="midnightblue" d="M154.719,-112.444C180.848,-103.399 222.259,-89.064 251.576,-78.9158"/>
<polygon fill="midnightblue" stroke="midnightblue" points="253.092,-82.0951 261.397,-75.5164 250.802,-75.4801 253.092,-82.0951"/>
</g>
<!-- Node5 -->
<g id="node5" class="node"><title>Node5</title>
<polygon fill="none" stroke="#bfbfbf" points="66.5,-0.5 66.5,-19.5 109.5,-19.5 109.5,-0.5 66.5,-0.5"/>
<text text-anchor="middle" x="88" y="-7.5" font-family="Helvetica,sans-Serif" font-size="10.00">cstdio</text>
</g>
<!-- Node4&#45;&gt;Node5 -->
<g id="edge4" class="edge"><title>Node4&#45;&gt;Node5</title>
<path fill="none" stroke="midnightblue" d="M155.986,-56.324C143.468,-47.979 124.318,-35.2122 109.529,-25.3524"/>
<polygon fill="midnightblue" stroke="midnightblue" points="111.244,-22.2894 100.982,-19.6545 107.361,-28.1137 111.244,-22.2894"/>
</g>
<!-- Node6 -->
<g id="node6" class="node"><title>Node6</title>
<g id="a_node6"><a xlink:href="libpsio_2config_8h_source.html" target="_top" xlink:title="libpsio/config.h">
<polygon fill="none" stroke="black" points="128,-0.5 128,-19.5 210,-19.5 210,-0.5 128,-0.5"/>
<text text-anchor="middle" x="169" y="-7.5" font-family="Helvetica,sans-Serif" font-size="10.00">libpsio/config.h</text>
</a>
</g>
</g>
<!-- Node4&#45;&gt;Node6 -->
<g id="edge5" class="edge"><title>Node4&#45;&gt;Node6</title>
<path fill="none" stroke="midnightblue" d="M169,-56.083C169,-49.0059 169,-38.8611 169,-29.9865"/>
<polygon fill="midnightblue" stroke="midnightblue" points="172.5,-29.751 169,-19.7511 165.5,-29.7511 172.5,-29.751"/>
</g>
<!-- Node8 -->
<g id="node8" class="node"><title>Node8</title>
<polygon fill="none" stroke="#bfbfbf" points="228.5,-0.5 228.5,-19.5 269.5,-19.5 269.5,-0.5 228.5,-0.5"/>
<text text-anchor="middle" x="249" y="-7.5" font-family="Helvetica,sans-Serif" font-size="10.00">string</text>
</g>
<!-- Node7&#45;&gt;Node8 -->
<g id="edge7" class="edge"><title>Node7&#45;&gt;Node8</title>
<path fill="none" stroke="midnightblue" d="M279.89,-56.083C274.718,-48.5341 267.154,-37.4948 260.806,-28.2298"/>
<polygon fill="midnightblue" stroke="midnightblue" points="263.536,-26.0221 254.996,-19.7511 257.761,-29.9787 263.536,-26.0221"/>
</g>
<!-- Node9 -->
<g id="node9" class="node"><title>Node9</title>
<polygon fill="none" stroke="#bfbfbf" points="287.5,-0.5 287.5,-19.5 322.5,-19.5 322.5,-0.5 287.5,-0.5"/>
<text text-anchor="middle" x="305" y="-7.5" font-family="Helvetica,sans-Serif" font-size="10.00">map</text>
</g>
<!-- Node7&#45;&gt;Node9 -->
<g id="edge8" class="edge"><title>Node7&#45;&gt;Node9</title>
<path fill="none" stroke="midnightblue" d="M289.137,-56.083C291.683,-48.8486 295.356,-38.4087 298.527,-29.3968"/>
<polygon fill="midnightblue" stroke="midnightblue" points="301.903,-30.3459 301.921,-19.7511 295.3,-28.0225 301.903,-30.3459"/>
</g>
<!-- Node10 -->
<g id="node10" class="node"><title>Node10</title>
<polygon fill="none" stroke="#bfbfbf" points="341,-0.5 341,-19.5 371,-19.5 371,-0.5 341,-0.5"/>
<text text-anchor="middle" x="356" y="-7.5" font-family="Helvetica,sans-Serif" font-size="10.00">set</text>
</g>
<!-- Node7&#45;&gt;Node10 -->
<g id="edge9" class="edge"><title>Node7&#45;&gt;Node10</title>
<path fill="none" stroke="midnightblue" d="M297.247,-56.324C307.797,-48.1849 323.801,-35.8395 336.442,-26.0874"/>
<polygon fill="midnightblue" stroke="midnightblue" points="338.769,-28.7132 344.549,-19.8339 334.493,-23.1707 338.769,-28.7132"/>
</g>
<!-- Node11 -->
<g id="node11" class="node"><title>Node11</title>
<polygon fill="none" stroke="#bfbfbf" points="389.5,-0.5 389.5,-19.5 432.5,-19.5 432.5,-0.5 389.5,-0.5"/>
<text text-anchor="middle" x="411" y="-7.5" font-family="Helvetica,sans-Serif" font-size="10.00">queue</text>
</g>
<!-- Node7&#45;&gt;Node11 -->
<g id="edge10" class="edge"><title>Node7&#45;&gt;Node11</title>
<path fill="none" stroke="midnightblue" d="M305.807,-56.4435C326.287,-47.5961 358.483,-33.6875 381.865,-23.5865"/>
<polygon fill="midnightblue" stroke="midnightblue" points="383.494,-26.6953 391.286,-19.5164 380.718,-20.2692 383.494,-26.6953"/>
</g>
<!-- Node7&#45;&gt;Node6 -->
<g id="edge11" class="edge"><title>Node7&#45;&gt;Node6</title>
<path fill="none" stroke="midnightblue" d="M267.461,-56.4435C248.377,-47.6356 218.425,-33.8116 196.564,-23.722"/>
<polygon fill="midnightblue" stroke="midnightblue" points="197.999,-20.5292 187.452,-19.5164 195.065,-26.8849 197.999,-20.5292"/>
</g>
</g>
</svg>
