<?xml version="1.0" encoding="UTF-8" standalone="no"?>
<!DOCTYPE svg PUBLIC "-//W3C//DTD SVG 1.1//EN"
 "http://www.w3.org/Graphics/SVG/1.1/DTD/svg11.dtd">
<!-- Generated by graphviz version 2.30.1 (20140110.0959)
 -->
<!-- Title: transtwo_uhf.cc Pages: 1 -->
<!--zoomable 196 -->
<svg id="main" version="1.1" xmlns="http://www.w3.org/2000/svg" xmlns:xlink="http://www.w3.org/1999/xlink" xml:space="preserve" onload="init(evt)">
        <defs>
                <circle id="rim" cx="0" cy="0" r="7"/>
                <circle id="rim2" cx="0" cy="0" r="3.5"/>
                <g id="zoomPlus">
                        <use xlink:href="#rim" fill="#404040">
                                <set attributeName="fill" to="#808080" begin="zoomplus.mouseover" end="zoomplus.mouseout"/>
                        </use>
                        <path d="M-4,0h8M0,-4v8" fill="none" stroke="white" stroke-width="1.5" pointer-events="none"/>
                </g>
                <g id="zoomMin">
                        <use xlink:href="#rim" fill="#404040">
                                <set attributeName="fill" to="#808080" begin="zoomminus.mouseover" end="zoomminus.mouseout"/>
                        </use>
                        <path d="M-4,0h8" fill="none" stroke="white" stroke-width="1.5" pointer-events="none"/>
                </g>
                <g id="dirArrow">
                        <path fill="none" stroke="white" stroke-width="1.5" d="M0,-3.0v7 M-2.5,-0.5L0,-3.0L2.5,-0.5"/>
                </g>
               <g id="resetDef">
                       <use xlink:href="#rim2" fill="#404040">
                               <set attributeName="fill" to="#808080" begin="reset.mouseover" end="reset.mouseout"/>
                       </use>
               </g>
        </defs>

<script type="text/javascript">
var viewWidth = 799;
var viewHeight = 196;
var sectionId = 'dynsection-0';
</script>
<script xlink:href="svgpan.js"/>
<svg id="graph" class="graph">
<g id="viewport">
<title>transtwo_uhf.cc</title>
<!-- Node1 -->
<g id="node1" class="node"><title>Node1</title>
<polygon fill="#bfbfbf" stroke="black" points="364.921,-168.5 364.921,-187.5 450.921,-187.5 450.921,-168.5 364.921,-168.5"/>
<text text-anchor="middle" x="407.921" y="-175.5" font-family="Helvetica,sans-Serif" font-size="10.00">transtwo_uhf.cc</text>
</g>
<!-- Node2 -->
<g id="node2" class="node"><title>Node2</title>
<polygon fill="none" stroke="#bfbfbf" points="113.421,-0.5 113.421,-19.5 156.421,-19.5 156.421,-0.5 113.421,-0.5"/>
<text text-anchor="middle" x="134.921" y="-7.5" font-family="Helvetica,sans-Serif" font-size="10.00">cstdio</text>
</g>
<!-- Node1&#45;&gt;Node2 -->
<g id="edge1" class="edge"><title>Node1&#45;&gt;Node2</title>
<path fill="none" stroke="midnightblue" d="M364.659,-175.302C266.435,-171.002 33.2577,-158.124 9.92095,-132 -27.6342,-89.9594 56.0139,-44.9033 104.096,-23.575"/>
<polygon fill="midnightblue" stroke="midnightblue" points="105.69,-26.6988 113.476,-19.5135 102.909,-20.2752 105.69,-26.6988"/>
</g>
<!-- Node3 -->
<g id="node3" class="node"><title>Node3</title>
<polygon fill="none" stroke="#bfbfbf" points="542.421,-112.5 542.421,-131.5 587.421,-131.5 587.421,-112.5 542.421,-112.5"/>
<text text-anchor="middle" x="564.921" y="-119.5" font-family="Helvetica,sans-Serif" font-size="10.00">cstdlib</text>
</g>
<!-- Node1&#45;&gt;Node3 -->
<g id="edge2" class="edge"><title>Node1&#45;&gt;Node3</title>
<path fill="none" stroke="midnightblue" d="M432.798,-168.444C459.832,-159.145 503.118,-144.257 532.726,-134.073"/>
<polygon fill="midnightblue" stroke="midnightblue" points="533.881,-137.377 542.199,-130.815 531.605,-130.758 533.881,-137.377"/>
</g>
<!-- Node4 -->
<g id="node4" class="node"><title>Node4</title>
<polygon fill="none" stroke="#bfbfbf" points="605.921,-112.5 605.921,-131.5 649.921,-131.5 649.921,-112.5 605.921,-112.5"/>
<text text-anchor="middle" x="627.921" y="-119.5" font-family="Helvetica,sans-Serif" font-size="10.00">cmath</text>
</g>
<!-- Node1&#45;&gt;Node4 -->
<g id="edge3" class="edge"><title>Node1&#45;&gt;Node4</title>
<path fill="none" stroke="midnightblue" d="M445.482,-168.466C483.508,-159.719 543.954,-145.522 595.921,-132 596.022,-131.974 596.124,-131.947 596.225,-131.921"/>
<polygon fill="midnightblue" stroke="midnightblue" points="597.172,-135.291 605.918,-129.311 595.352,-128.531 597.172,-135.291"/>
</g>
<!-- Node5 -->
<g id="node5" class="node"><title>Node5</title>
<g id="a_node5"><a xlink:href="libciomr_8h_source.html" target="_top" xlink:title="libciomr/libciomr.h">
<polygon fill="none" stroke="black" points="19.421,-112.5 19.421,-131.5 114.421,-131.5 114.421,-112.5 19.421,-112.5"/>
<text text-anchor="middle" x="66.921" y="-119.5" font-family="Helvetica,sans-Serif" font-size="10.00">libciomr/libciomr.h</text>
</a>
</g>
</g>
<!-- Node1&#45;&gt;Node5 -->
<g id="edge4" class="edge"><title>Node1&#45;&gt;Node5</title>
<path fill="none" stroke="midnightblue" d="M364.733,-170.161C303.877,-160.524 192.747,-142.926 124.797,-132.165"/>
<polygon fill="midnightblue" stroke="midnightblue" points="125.111,-128.671 114.686,-130.564 124.016,-135.585 125.111,-128.671"/>
</g>
<!-- Node6 -->
<g id="node6" class="node"><title>Node6</title>
<g id="a_node6"><a xlink:href="psio_8h_source.html" target="_top" xlink:title="libpsio/psio.h">
<polygon fill="none" stroke="black" points="154.921,-56.5 154.921,-75.5 228.921,-75.5 228.921,-56.5 154.921,-56.5"/>
<text text-anchor="middle" x="191.921" y="-63.5" font-family="Helvetica,sans-Serif" font-size="10.00">libpsio/psio.h</text>
</a>
</g>
</g>
<!-- Node1&#45;&gt;Node6 -->
<g id="edge6" class="edge"><title>Node1&#45;&gt;Node6</title>
<path fill="none" stroke="midnightblue" d="M390.972,-168.368C353.354,-149.211 262.682,-103.036 217.875,-80.2172"/>
<polygon fill="midnightblue" stroke="midnightblue" points="219.291,-77.0106 208.791,-75.5914 216.114,-83.2484 219.291,-77.0106"/>
</g>
<!-- Node8 -->
<g id="node8" class="node"><title>Node8</title>
<g id="a_node8"><a xlink:href="qt_8h.html" target="_top" xlink:title="Header file for the Quantum Trio LibraryDavid Sherrill 1994.">
<polygon fill="none" stroke="black" points="584.921,-56.5 584.921,-75.5 638.921,-75.5 638.921,-56.5 584.921,-56.5"/>
<text text-anchor="middle" x="611.921" y="-63.5" font-family="Helvetica,sans-Serif" font-size="10.00">libqt/qt.h</text>
</a>
</g>
</g>
<!-- Node1&#45;&gt;Node8 -->
<g id="edge9" class="edge"><title>Node1&#45;&gt;Node8</title>
<path fill="none" stroke="midnightblue" d="M412.322,-168.436C419.922,-154.5 436.838,-126.971 458.921,-112 468.633,-105.415 532.574,-87.8186 574.664,-76.6816"/>
<polygon fill="midnightblue" stroke="midnightblue" points="575.809,-79.9997 584.587,-74.0683 574.026,-73.2305 575.809,-79.9997"/>
</g>
<!-- Node10 -->
<g id="node10" class="node"><title>Node10</title>
<g id="a_node10"><a xlink:href="iwl_8h_source.html" target="_top" xlink:title="libiwl/iwl.h">
<polygon fill="none" stroke="black" points="151.921,-112.5 151.921,-131.5 213.921,-131.5 213.921,-112.5 151.921,-112.5"/>
<text text-anchor="middle" x="182.921" y="-119.5" font-family="Helvetica,sans-Serif" font-size="10.00">libiwl/iwl.h</text>
</a>
</g>
</g>
<!-- Node1&#45;&gt;Node10 -->
<g id="edge12" class="edge"><title>Node1&#45;&gt;Node10</title>
<path fill="none" stroke="midnightblue" d="M372.269,-168.444C331.889,-158.752 266.206,-142.988 223.787,-132.808"/>
<polygon fill="midnightblue" stroke="midnightblue" points="224.599,-129.403 214.059,-130.473 222.966,-136.21 224.599,-129.403"/>
</g>
<!-- Node12 -->
<g id="node12" class="node"><title>Node12</title>
<g id="a_node12"><a xlink:href="chkpt_8h_source.html" target="_top" xlink:title="libchkpt/chkpt.h">
<polygon fill="none" stroke="black" points="667.921,-112.5 667.921,-131.5 753.921,-131.5 753.921,-112.5 667.921,-112.5"/>
<text text-anchor="middle" x="710.921" y="-119.5" font-family="Helvetica,sans-Serif" font-size="10.00">libchkpt/chkpt.h</text>
</a>
</g>
</g>
<!-- Node1&#45;&gt;Node12 -->
<g id="edge16" class="edge"><title>Node1&#45;&gt;Node12</title>
<path fill="none" stroke="midnightblue" d="M451.012,-169.32C505.266,-159.651 598.471,-143.041 657.283,-132.559"/>
<polygon fill="midnightblue" stroke="midnightblue" points="658.258,-135.941 667.488,-130.74 657.029,-129.049 658.258,-135.941"/>
</g>
<!-- Node13 -->
<g id="node13" class="node"><title>Node13</title>
<g id="a_node13"><a xlink:href="lib_2libdpd_2dpd_8h.html" target="_top" xlink:title="Enter brief description of file here.">
<polygon fill="none" stroke="black" points="342.421,-112.5 342.421,-131.5 411.421,-131.5 411.421,-112.5 342.421,-112.5"/>
<text text-anchor="middle" x="376.921" y="-119.5" font-family="Helvetica,sans-Serif" font-size="10.00">libdpd/dpd.h</text>
</a>
</g>
</g>
<!-- Node1&#45;&gt;Node13 -->
<g id="edge17" class="edge"><title>Node1&#45;&gt;Node13</title>
<path fill="none" stroke="midnightblue" d="M402.802,-168.083C398.513,-160.613 392.263,-149.724 386.979,-140.52"/>
<polygon fill="midnightblue" stroke="midnightblue" points="389.959,-138.681 381.945,-131.751 383.888,-142.166 389.959,-138.681"/>
</g>
<!-- Node17 -->
<g id="node17" class="node"><title>Node17</title>
<g id="a_node17"><a xlink:href="transqt2_2globals_8h.html" target="_top" xlink:title="Enter brief description of file here.">
<polygon fill="none" stroke="black" points="467.921,-112.5 467.921,-131.5 523.921,-131.5 523.921,-112.5 467.921,-112.5"/>
<text text-anchor="middle" x="495.921" y="-119.5" font-family="Helvetica,sans-Serif" font-size="10.00">globals.h</text>
</a>
</g>
</g>
<!-- Node1&#45;&gt;Node17 -->
<g id="edge23" class="edge"><title>Node1&#45;&gt;Node17</title>
<path fill="none" stroke="midnightblue" d="M422.06,-168.324C435.787,-159.9 456.857,-146.971 472.985,-137.074"/>
<polygon fill="midnightblue" stroke="midnightblue" points="475.125,-139.868 481.817,-131.655 471.464,-133.902 475.125,-139.868"/>
</g>
<!-- Node5&#45;&gt;Node2 -->
<g id="edge5" class="edge"><title>Node5&#45;&gt;Node2</title>
<path fill="none" stroke="midnightblue" d="M64.8492,-112.363C62.1985,-99.2692 59.0415,-74.017 68.921,-56 76.6682,-41.8715 90.9783,-31.2982 104.298,-23.9634"/>
<polygon fill="midnightblue" stroke="midnightblue" points="105.943,-27.0534 113.269,-19.3989 102.769,-20.8146 105.943,-27.0534"/>
</g>
<!-- Node6&#45;&gt;Node2 -->
<g id="edge7" class="edge"><title>Node6&#45;&gt;Node2</title>
<path fill="none" stroke="midnightblue" d="M182.763,-56.324C174.419,-48.4196 161.889,-36.5482 151.744,-26.9377"/>
<polygon fill="midnightblue" stroke="midnightblue" points="153.912,-24.1705 144.246,-19.8339 149.098,-29.2522 153.912,-24.1705"/>
</g>
<!-- Node7 -->
<g id="node7" class="node"><title>Node7</title>
<g id="a_node7"><a xlink:href="libpsio_2config_8h_source.html" target="_top" xlink:title="libpsio/config.h">
<polygon fill="none" stroke="black" points="201.921,-0.5 201.921,-19.5 283.921,-19.5 283.921,-0.5 201.921,-0.5"/>
<text text-anchor="middle" x="242.921" y="-7.5" font-family="Helvetica,sans-Serif" font-size="10.00">libpsio/config.h</text>
</a>
</g>
</g>
<!-- Node6&#45;&gt;Node7 -->
<g id="edge8" class="edge"><title>Node6&#45;&gt;Node7</title>
<path fill="none" stroke="midnightblue" d="M200.343,-56.083C207.769,-48.2195 218.773,-36.5688 227.733,-27.0813"/>
<polygon fill="midnightblue" stroke="midnightblue" points="230.334,-29.4244 234.656,-19.7511 225.245,-24.618 230.334,-29.4244"/>
</g>
<!-- Node8&#45;&gt;Node2 -->
<g id="edge10" class="edge"><title>Node8&#45;&gt;Node2</title>
<path fill="none" stroke="midnightblue" d="M584.887,-57.7756C581.876,-57.11 578.842,-56.4995 575.921,-56 407.394,-27.1842 362.584,-41.1178 192.921,-20 184.366,-18.9352 175.131,-17.5912 166.6,-16.2689"/>
<polygon fill="midnightblue" stroke="midnightblue" points="167.061,-12.7984 156.636,-14.687 165.963,-19.7118 167.061,-12.7984"/>
</g>
<!-- Node9 -->
<g id="node9" class="node"><title>Node9</title>
<polygon fill="none" stroke="#bfbfbf" points="628.421,-0.5 628.421,-19.5 669.421,-19.5 669.421,-0.5 628.421,-0.5"/>
<text text-anchor="middle" x="648.921" y="-7.5" font-family="Helvetica,sans-Serif" font-size="10.00">string</text>
</g>
<!-- Node8&#45;&gt;Node9 -->
<g id="edge11" class="edge"><title>Node8&#45;&gt;Node9</title>
<path fill="none" stroke="midnightblue" d="M618.031,-56.083C623.203,-48.5341 630.767,-37.4948 637.115,-28.2298"/>
<polygon fill="midnightblue" stroke="midnightblue" points="640.16,-29.9787 642.925,-19.7511 634.385,-26.0221 640.16,-29.9787"/>
</g>
<!-- Node10&#45;&gt;Node2 -->
<g id="edge13" class="edge"><title>Node10&#45;&gt;Node2</title>
<path fill="none" stroke="midnightblue" d="M151.681,-117.195C126.508,-112.301 92.647,-101.179 75.921,-76 62.9345,-56.4503 86.9232,-36.8993 108.101,-24.4231"/>
<polygon fill="midnightblue" stroke="midnightblue" points="109.854,-27.4527 116.889,-19.53 106.449,-21.3368 109.854,-27.4527"/>
</g>
<!-- Node10&#45;&gt;Node6 -->
<g id="edge14" class="edge"><title>Node10&#45;&gt;Node6</title>
<path fill="none" stroke="midnightblue" d="M184.407,-112.083C185.6,-104.927 187.315,-94.6353 188.806,-85.6911"/>
<polygon fill="midnightblue" stroke="midnightblue" points="192.271,-86.1904 190.462,-75.7511 185.366,-85.0396 192.271,-86.1904"/>
</g>
<!-- Node11 -->
<g id="node11" class="node"><title>Node11</title>
<g id="a_node11"><a xlink:href="libiwl_2config_8h_source.html" target="_top" xlink:title="config.h">
<polygon fill="none" stroke="black" points="85.421,-56.5 85.421,-75.5 136.421,-75.5 136.421,-56.5 85.421,-56.5"/>
<text text-anchor="middle" x="110.921" y="-63.5" font-family="Helvetica,sans-Serif" font-size="10.00">config.h</text>
</a>
</g>
</g>
<!-- Node10&#45;&gt;Node11 -->
<g id="edge15" class="edge"><title>Node10&#45;&gt;Node11</title>
<path fill="none" stroke="midnightblue" d="M171.353,-112.324C160.501,-104.185 144.04,-91.8395 131.038,-82.0874"/>
<polygon fill="midnightblue" stroke="midnightblue" points="132.8,-79.0339 122.699,-75.8339 128.599,-84.6339 132.8,-79.0339"/>
</g>
<!-- Node13&#45;&gt;Node2 -->
<g id="edge18" class="edge"><title>Node13&#45;&gt;Node2</title>
<path fill="none" stroke="midnightblue" d="M358.995,-112.439C332.583,-99.8656 281.614,-75.7567 237.921,-56 213.208,-44.8254 184.968,-32.5202 164.316,-23.606"/>
<polygon fill="midnightblue" stroke="midnightblue" points="165.688,-20.3861 155.119,-19.6439 162.919,-26.8149 165.688,-20.3861"/>
</g>
<!-- Node14 -->
<g id="node14" class="node"><title>Node14</title>
<g id="a_node14"><a xlink:href="psifiles_8h_source.html" target="_top" xlink:title="psifiles.h">
<polygon fill="none" stroke="black" points="510.921,-56.5 510.921,-75.5 566.921,-75.5 566.921,-56.5 510.921,-56.5"/>
<text text-anchor="middle" x="538.921" y="-63.5" font-family="Helvetica,sans-Serif" font-size="10.00">psifiles.h</text>
</a>
</g>
</g>
<!-- Node13&#45;&gt;Node14 -->
<g id="edge19" class="edge"><title>Node13&#45;&gt;Node14</title>
<path fill="none" stroke="midnightblue" d="M402.59,-112.444C429.844,-103.359 473.105,-88.9388 503.572,-78.7831"/>
<polygon fill="midnightblue" stroke="midnightblue" points="504.992,-81.9992 513.372,-75.5164 502.778,-75.3584 504.992,-81.9992"/>
</g>
<!-- Node13&#45;&gt;Node7 -->
<g id="edge20" class="edge"><title>Node13&#45;&gt;Node7</title>
<path fill="none" stroke="midnightblue" d="M364.038,-112.472C351.064,-103.73 330.633,-89.5357 313.921,-76 294.38,-60.1731 273.282,-40.4956 259.208,-26.9618"/>
<polygon fill="midnightblue" stroke="midnightblue" points="261.414,-24.2259 251.798,-19.7788 256.542,-29.2521 261.414,-24.2259"/>
</g>
<!-- Node15 -->
<g id="node15" class="node"><title>Node15</title>
<polygon fill="none" stroke="#bfbfbf" points="322.921,-56.5 322.921,-75.5 430.921,-75.5 430.921,-56.5 322.921,-56.5"/>
<text text-anchor="middle" x="376.921" y="-63.5" font-family="Helvetica,sans-Serif" font-size="10.00">boost/shared_ptr.hpp</text>
</g>
<!-- Node13&#45;&gt;Node15 -->
<g id="edge21" class="edge"><title>Node13&#45;&gt;Node15</title>
<path fill="none" stroke="midnightblue" d="M376.921,-112.083C376.921,-105.006 376.921,-94.8611 376.921,-85.9865"/>
<polygon fill="midnightblue" stroke="midnightblue" points="380.421,-85.751 376.921,-75.7511 373.421,-85.7511 380.421,-85.751"/>
</g>
<!-- Node16 -->
<g id="node16" class="node"><title>Node16</title>
<polygon fill="none" stroke="#bfbfbf" points="448.921,-56.5 448.921,-75.5 492.921,-75.5 492.921,-56.5 448.921,-56.5"/>
<text text-anchor="middle" x="470.921" y="-63.5" font-family="Helvetica,sans-Serif" font-size="10.00">vector</text>
</g>
<!-- Node13&#45;&gt;Node16 -->
<g id="edge22" class="edge"><title>Node13&#45;&gt;Node16</title>
<path fill="none" stroke="midnightblue" d="M392.024,-112.324C406.824,-103.822 429.615,-90.7288 446.903,-80.7975"/>
<polygon fill="midnightblue" stroke="midnightblue" points="448.928,-83.6707 455.856,-75.6545 445.441,-77.6009 448.928,-83.6707"/>
</g>
<!-- Node17&#45;&gt;Node14 -->
<g id="edge24" class="edge"><title>Node17&#45;&gt;Node14</title>
<path fill="none" stroke="midnightblue" d="M503.022,-112.083C509.158,-104.377 518.191,-93.0333 525.66,-83.6531"/>
<polygon fill="midnightblue" stroke="midnightblue" points="528.461,-85.7542 531.953,-75.7511 522.985,-81.3936 528.461,-85.7542"/>
</g>
<!-- Node18 -->
<g id="node18" class="node"><title>Node18</title>
<g id="a_node18"><a xlink:href="transqt2_2MOInfo_8h.html" target="_top" xlink:title="MOInfo structure with information about MO&#39;s from checkpoint.">
<polygon fill="none" stroke="black" points="734.421,-56.5 734.421,-75.5 791.421,-75.5 791.421,-56.5 734.421,-56.5"/>
<text text-anchor="middle" x="762.921" y="-63.5" font-family="Helvetica,sans-Serif" font-size="10.00">MOInfo.h</text>
</a>
</g>
</g>
<!-- Node17&#45;&gt;Node18 -->
<g id="edge25" class="edge"><title>Node17&#45;&gt;Node18</title>
<path fill="none" stroke="midnightblue" d="M524.11,-114.17C527.412,-113.416 530.738,-112.677 533.921,-112 615.364,-94.6899 638.753,-93.9883 724.416,-76.0192"/>
<polygon fill="midnightblue" stroke="midnightblue" points="725.26,-79.4182 734.319,-73.9238 723.811,-72.5698 725.26,-79.4182"/>
</g>
<!-- Node19 -->
<g id="node19" class="node"><title>Node19</title>
<g id="a_node19"><a xlink:href="transqt2_2Params_8h.html" target="_top" xlink:title="Enter brief description of file here.">
<polygon fill="none" stroke="black" points="657.421,-56.5 657.421,-75.5 716.421,-75.5 716.421,-56.5 657.421,-56.5"/>
<text text-anchor="middle" x="686.921" y="-63.5" font-family="Helvetica,sans-Serif" font-size="10.00">Params.h</text>
</a>
</g>
</g>
<!-- Node17&#45;&gt;Node19 -->
<g id="edge26" class="edge"><title>Node17&#45;&gt;Node19</title>
<path fill="none" stroke="midnightblue" d="M524.104,-113.032C556.733,-103.807 610.693,-88.5514 647.478,-78.1515"/>
<polygon fill="midnightblue" stroke="midnightblue" points="648.695,-81.4447 657.365,-75.3561 646.79,-74.7087 648.695,-81.4447"/>
</g>
<!-- Node19&#45;&gt;Node9 -->
<g id="edge27" class="edge"><title>Node19&#45;&gt;Node9</title>
<path fill="none" stroke="midnightblue" d="M680.646,-56.083C675.278,-48.4554 667.403,-37.2645 660.842,-27.9408"/>
<polygon fill="midnightblue" stroke="midnightblue" points="663.696,-25.9149 655.079,-19.7511 657.972,-29.9434 663.696,-25.9149"/>
</g>
</g>
</svg>
        <g id="navigator" transform="translate(0 0)" fill="#404254">
                <rect fill="#f2f5e9" fill-opacity="0.5" stroke="#606060" stroke-width=".5" x="0" y="0" width="60" height="60"/>
                <use id="zoomplus" xlink:href="#zoomPlus" x="17" y="9" onmousedown="handleZoom(evt,'in')"/>
                <use id="zoomminus" xlink:href="#zoomMin" x="42" y="9" onmousedown="handleZoom(evt,'out')"/>
                <use id="reset" xlink:href="#resetDef" x="30" y="36" onmousedown="handleReset()"/>
                <g id="arrowUp" xlink:href="#dirArrow" transform="translate(30 24)" onmousedown="handlePan(0,-1)">
                  <use xlink:href="#rim" fill="#404040">
                        <set attributeName="fill" to="#808080" begin="arrowUp.mouseover" end="arrowUp.mouseout"/>
                  </use>
                  <path fill="none" stroke="white" stroke-width="1.5" d="M0,-3.0v7 M-2.5,-0.5L0,-3.0L2.5,-0.5"/>
                </g>
                <g id="arrowRight" xlink:href="#dirArrow" transform="rotate(90) translate(36 -43)" onmousedown="handlePan(1,0)">
                  <use xlink:href="#rim" fill="#404040">
                        <set attributeName="fill" to="#808080" begin="arrowRight.mouseover" end="arrowRight.mouseout"/>
                  </use>
                  <path fill="none" stroke="white" stroke-width="1.5" d="M0,-3.0v7 M-2.5,-0.5L0,-3.0L2.5,-0.5"/>
                </g>
                <g id="arrowDown" xlink:href="#dirArrow" transform="rotate(180) translate(-30 -48)" onmousedown="handlePan(0,1)">
                  <use xlink:href="#rim" fill="#404040">
                        <set attributeName="fill" to="#808080" begin="arrowDown.mouseover" end="arrowDown.mouseout"/>
                  </use>
                  <path fill="none" stroke="white" stroke-width="1.5" d="M0,-3.0v7 M-2.5,-0.5L0,-3.0L2.5,-0.5"/>
                </g>
                <g id="arrowLeft" xlink:href="#dirArrow" transform="rotate(270) translate(-36 17)" onmousedown="handlePan(-1,0)">
                  <use xlink:href="#rim" fill="#404040">
                        <set attributeName="fill" to="#808080" begin="arrowLeft.mouseover" end="arrowLeft.mouseout"/>
                  </use>
                  <path fill="none" stroke="white" stroke-width="1.5" d="M0,-3.0v7 M-2.5,-0.5L0,-3.0L2.5,-0.5"/>
                </g>
        </g>
        <svg viewBox="0 0 15 15" width="100%" height="30px" preserveAspectRatio="xMaxYMin meet">
         <g id="arrow_out" transform="scale(0.3 0.3)">
          <a xlink:href="transtwo__uhf_8cc__incl_org.svg" target="_base">
           <rect id="button" ry="5" rx="5" y="6" x="6" height="38" width="38"
                fill="#f2f5e9" fill-opacity="0.5" stroke="#606060" stroke-width="1.0"/>
           <path id="arrow"
             d="M 11.500037,31.436501 C 11.940474,20.09759 22.043105,11.32322 32.158766,21.979434 L 37.068811,17.246167 C 37.068811,17.246167 37.088388,32 37.088388,32 L 22.160133,31.978069 C 22.160133,31.978069 26.997745,27.140456 26.997745,27.140456 C 18.528582,18.264221 13.291696,25.230495 11.500037,31.436501 z"
             style="fill:#404040;"/>
          </a>
         </g>
        </svg>
</svg>
