<?xml version="1.0" encoding="UTF-8" standalone="no"?>
<!DOCTYPE svg PUBLIC "-//W3C//DTD SVG 1.1//EN"
 "http://www.w3.org/Graphics/SVG/1.1/DTD/svg11.dtd">
<!-- Generated by graphviz version 2.30.1 (20140110.0959)
 -->
<!-- Title: idx_error.cc Pages: 1 -->
<svg width="372pt" height="196pt"
 viewBox="0.00 0.00 372.00 196.00" xmlns="http://www.w3.org/2000/svg" xmlns:xlink="http://www.w3.org/1999/xlink">
<g id="graph0" class="graph" transform="scale(1 1) rotate(0) translate(4 192)">
<title>idx_error.cc</title>
<!-- Node1 -->
<g id="node1" class="node"><title>Node1</title>
<polygon fill="#bfbfbf" stroke="black" points="100,-168.5 100,-187.5 168,-187.5 168,-168.5 100,-168.5"/>
<text text-anchor="middle" x="134" y="-175.5" font-family="Helvetica,sans-Serif" font-size="10.00">idx_error.cc</text>
</g>
<!-- Node2 -->
<g id="node2" class="node"><title>Node2</title>
<polygon fill="none" stroke="#bfbfbf" points="-0.5,-112.5 -0.5,-131.5 42.5,-131.5 42.5,-112.5 -0.5,-112.5"/>
<text text-anchor="middle" x="21" y="-119.5" font-family="Helvetica,sans-Serif" font-size="10.00">cstdio</text>
</g>
<!-- Node1&#45;&gt;Node2 -->
<g id="edge1" class="edge"><title>Node1&#45;&gt;Node2</title>
<path fill="none" stroke="midnightblue" d="M116.095,-168.444C97.746,-159.675 68.9946,-145.935 47.9064,-135.858"/>
<polygon fill="midnightblue" stroke="midnightblue" points="49.3532,-132.67 38.8214,-131.516 46.335,-138.986 49.3532,-132.67"/>
</g>
<!-- Node3 -->
<g id="node3" class="node"><title>Node3</title>
<polygon fill="none" stroke="#bfbfbf" points="60.5,-112.5 60.5,-131.5 105.5,-131.5 105.5,-112.5 60.5,-112.5"/>
<text text-anchor="middle" x="83" y="-119.5" font-family="Helvetica,sans-Serif" font-size="10.00">cstdlib</text>
</g>
<!-- Node1&#45;&gt;Node3 -->
<g id="edge2" class="edge"><title>Node1&#45;&gt;Node3</title>
<path fill="none" stroke="midnightblue" d="M125.578,-168.083C118.152,-160.22 107.148,-148.569 98.1878,-139.081"/>
<polygon fill="midnightblue" stroke="midnightblue" points="100.676,-136.618 91.2649,-131.751 95.5866,-141.424 100.676,-136.618"/>
</g>
<!-- Node4 -->
<g id="node4" class="node"><title>Node4</title>
<g id="a_node4"><a xlink:href="psifiles_8h_source.html" target="_top" xlink:title="psifiles.h">
<polygon fill="none" stroke="black" points="123,-56.5 123,-75.5 179,-75.5 179,-56.5 123,-56.5"/>
<text text-anchor="middle" x="151" y="-63.5" font-family="Helvetica,sans-Serif" font-size="10.00">psifiles.h</text>
</a>
</g>
</g>
<!-- Node1&#45;&gt;Node4 -->
<g id="edge3" class="edge"><title>Node1&#45;&gt;Node4</title>
<path fill="none" stroke="midnightblue" d="M135.334,-168.368C138.077,-150.617 144.406,-109.666 148.126,-85.5974"/>
<polygon fill="midnightblue" stroke="midnightblue" points="151.604,-86.0087 149.672,-75.5914 144.686,-84.9395 151.604,-86.0087"/>
</g>
<!-- Node5 -->
<g id="node5" class="node"><title>Node5</title>
<polygon fill="none" stroke="#bfbfbf" points="162.5,-112.5 162.5,-131.5 229.5,-131.5 229.5,-112.5 162.5,-112.5"/>
<text text-anchor="middle" x="196" y="-119.5" font-family="Helvetica,sans-Serif" font-size="10.00">exception.h</text>
</g>
<!-- Node1&#45;&gt;Node5 -->
<g id="edge4" class="edge"><title>Node1&#45;&gt;Node5</title>
<path fill="none" stroke="midnightblue" d="M143.961,-168.324C153.127,-160.341 166.937,-148.313 178.028,-138.653"/>
<polygon fill="midnightblue" stroke="midnightblue" points="180.615,-141.041 185.857,-131.834 176.018,-135.762 180.615,-141.041"/>
</g>
<!-- Node6 -->
<g id="node6" class="node"><title>Node6</title>
<g id="a_node6"><a xlink:href="transqt2_2globals_8h.html" target="_top" xlink:title="Enter brief description of file here.">
<polygon fill="none" stroke="black" points="248,-112.5 248,-131.5 304,-131.5 304,-112.5 248,-112.5"/>
<text text-anchor="middle" x="276" y="-119.5" font-family="Helvetica,sans-Serif" font-size="10.00">globals.h</text>
</a>
</g>
</g>
<!-- Node1&#45;&gt;Node6 -->
<g id="edge5" class="edge"><title>Node1&#45;&gt;Node6</title>
<path fill="none" stroke="midnightblue" d="M156.5,-168.444C180.077,-159.478 217.322,-145.314 243.964,-135.183"/>
<polygon fill="midnightblue" stroke="midnightblue" points="245.502,-138.342 253.605,-131.516 243.014,-131.8 245.502,-138.342"/>
</g>
<!-- Node6&#45;&gt;Node4 -->
<g id="edge6" class="edge"><title>Node6&#45;&gt;Node4</title>
<path fill="none" stroke="midnightblue" d="M256.193,-112.444C235.713,-103.596 203.517,-89.6875 180.135,-79.5865"/>
<polygon fill="midnightblue" stroke="midnightblue" points="181.282,-76.2692 170.714,-75.5164 178.506,-82.6953 181.282,-76.2692"/>
</g>
<!-- Node7 -->
<g id="node7" class="node"><title>Node7</title>
<g id="a_node7"><a xlink:href="transqt2_2MOInfo_8h.html" target="_top" xlink:title="MOInfo structure with information about MO&#39;s from checkpoint.">
<polygon fill="none" stroke="black" points="230.5,-56.5 230.5,-75.5 287.5,-75.5 287.5,-56.5 230.5,-56.5"/>
<text text-anchor="middle" x="259" y="-63.5" font-family="Helvetica,sans-Serif" font-size="10.00">MOInfo.h</text>
</a>
</g>
</g>
<!-- Node6&#45;&gt;Node7 -->
<g id="edge7" class="edge"><title>Node6&#45;&gt;Node7</title>
<path fill="none" stroke="midnightblue" d="M273.193,-112.083C270.915,-104.849 267.629,-94.4087 264.792,-85.3968"/>
<polygon fill="midnightblue" stroke="midnightblue" points="268.096,-84.2385 261.755,-75.7511 261.419,-86.3406 268.096,-84.2385"/>
</g>
<!-- Node8 -->
<g id="node8" class="node"><title>Node8</title>
<g id="a_node8"><a xlink:href="transqt2_2Params_8h.html" target="_top" xlink:title="Enter brief description of file here.">
<polygon fill="none" stroke="black" points="305.5,-56.5 305.5,-75.5 364.5,-75.5 364.5,-56.5 305.5,-56.5"/>
<text text-anchor="middle" x="335" y="-63.5" font-family="Helvetica,sans-Serif" font-size="10.00">Params.h</text>
</a>
</g>
</g>
<!-- Node6&#45;&gt;Node8 -->
<g id="edge8" class="edge"><title>Node6&#45;&gt;Node8</title>
<path fill="none" stroke="midnightblue" d="M285.479,-112.324C294.201,-104.341 307.343,-92.3128 317.898,-82.6529"/>
<polygon fill="midnightblue" stroke="midnightblue" points="320.334,-85.1674 325.348,-75.8339 315.608,-80.0036 320.334,-85.1674"/>
</g>
<!-- Node9 -->
<g id="node9" class="node"><title>Node9</title>
<polygon fill="none" stroke="#bfbfbf" points="314.5,-0.5 314.5,-19.5 355.5,-19.5 355.5,-0.5 314.5,-0.5"/>
<text text-anchor="middle" x="335" y="-7.5" font-family="Helvetica,sans-Serif" font-size="10.00">string</text>
</g>
<!-- Node8&#45;&gt;Node9 -->
<g id="edge9" class="edge"><title>Node8&#45;&gt;Node9</title>
<path fill="none" stroke="midnightblue" d="M335,-56.083C335,-49.0059 335,-38.8611 335,-29.9865"/>
<polygon fill="midnightblue" stroke="midnightblue" points="338.5,-29.751 335,-19.7511 331.5,-29.7511 338.5,-29.751"/>
</g>
</g>
</svg>
