<?xml version="1.0" encoding="UTF-8" standalone="no"?>
<!DOCTYPE svg PUBLIC "-//W3C//DTD SVG 1.1//EN"
 "http://www.w3.org/Graphics/SVG/1.1/DTD/svg11.dtd">
<!-- Generated by graphviz version 2.30.1 (20140110.0959)
 -->
<!-- Title: transform_two_mp2r12a_gr.cc Pages: 1 -->
<svg width="788pt" height="208pt"
 viewBox="0.00 0.00 787.92 208.00" xmlns="http://www.w3.org/2000/svg" xmlns:xlink="http://www.w3.org/1999/xlink">
<g id="graph0" class="graph" transform="scale(1 1) rotate(0) translate(4 204)">
<title>transform_two_mp2r12a_gr.cc</title>
<!-- Node1 -->
<g id="node1" class="node"><title>Node1</title>
<polygon fill="#bfbfbf" stroke="black" points="349.916,-169 349.916,-199 471.916,-199 471.916,-169 349.916,-169"/>
<text text-anchor="start" x="357.916" y="-187" font-family="Helvetica,sans-Serif" font-size="10.00">transform_two_mp2r12a</text>
<text text-anchor="middle" x="410.916" y="-176" font-family="Helvetica,sans-Serif" font-size="10.00">_gr.cc</text>
</g>
<!-- Node2 -->
<g id="node2" class="node"><title>Node2</title>
<polygon fill="none" stroke="#bfbfbf" points="116.416,-0.5 116.416,-19.5 159.416,-19.5 159.416,-0.5 116.416,-0.5"/>
<text text-anchor="middle" x="137.916" y="-7.5" font-family="Helvetica,sans-Serif" font-size="10.00">cstdio</text>
</g>
<!-- Node1&#45;&gt;Node2 -->
<g id="edge1" class="edge"><title>Node1&#45;&gt;Node2</title>
<path fill="none" stroke="midnightblue" d="M349.569,-176.838C245.378,-164.86 41.5362,-134.343 4.91584,-76 -20.2346,-35.9305 59.5504,-19.8778 106.366,-14.0206"/>
<polygon fill="midnightblue" stroke="midnightblue" points="106.833,-17.49 116.363,-12.8606 106.026,-10.5366 106.833,-17.49"/>
</g>
<!-- Node3 -->
<g id="node3" class="node"><title>Node3</title>
<polygon fill="none" stroke="#bfbfbf" points="423.416,-112.5 423.416,-131.5 468.416,-131.5 468.416,-112.5 423.416,-112.5"/>
<text text-anchor="middle" x="445.916" y="-119.5" font-family="Helvetica,sans-Serif" font-size="10.00">cstdlib</text>
</g>
<!-- Node1&#45;&gt;Node3 -->
<g id="edge2" class="edge"><title>Node1&#45;&gt;Node3</title>
<path fill="none" stroke="midnightblue" d="M419.21,-168.781C424.139,-160.332 430.429,-149.548 435.667,-140.569"/>
<polygon fill="midnightblue" stroke="midnightblue" points="438.808,-142.132 440.823,-131.731 432.761,-138.605 438.808,-142.132"/>
</g>
<!-- Node4 -->
<g id="node4" class="node"><title>Node4</title>
<g id="a_node4"><a xlink:href="libciomr_8h_source.html" target="_top" xlink:title="libciomr/libciomr.h">
<polygon fill="none" stroke="black" points="14.4158,-56.5 14.4158,-75.5 109.416,-75.5 109.416,-56.5 14.4158,-56.5"/>
<text text-anchor="middle" x="61.9158" y="-63.5" font-family="Helvetica,sans-Serif" font-size="10.00">libciomr/libciomr.h</text>
</a>
</g>
</g>
<!-- Node1&#45;&gt;Node4 -->
<g id="edge3" class="edge"><title>Node1&#45;&gt;Node4</title>
<path fill="none" stroke="midnightblue" d="M349.714,-176.786C298.369,-170.089 223.865,-156.863 162.916,-132 131.774,-119.296 99.7794,-96.7968 80.3697,-81.8889"/>
<polygon fill="midnightblue" stroke="midnightblue" points="82.4166,-79.0464 72.3856,-75.636 78.1005,-84.5574 82.4166,-79.0464"/>
</g>
<!-- Node5 -->
<g id="node5" class="node"><title>Node5</title>
<g id="a_node5"><a xlink:href="qt_8h.html" target="_top" xlink:title="Header file for the Quantum Trio LibraryDavid Sherrill 1994.">
<polygon fill="none" stroke="black" points="273.916,-112.5 273.916,-131.5 327.916,-131.5 327.916,-112.5 273.916,-112.5"/>
<text text-anchor="middle" x="300.916" y="-119.5" font-family="Helvetica,sans-Serif" font-size="10.00">libqt/qt.h</text>
</a>
</g>
</g>
<!-- Node1&#45;&gt;Node5 -->
<g id="edge5" class="edge"><title>Node1&#45;&gt;Node5</title>
<path fill="none" stroke="midnightblue" d="M385.126,-168.933C367.23,-159.171 343.523,-146.24 325.823,-136.586"/>
<polygon fill="midnightblue" stroke="midnightblue" points="327.138,-133.316 316.683,-131.6 323.786,-139.461 327.138,-133.316"/>
</g>
<!-- Node7 -->
<g id="node7" class="node"><title>Node7</title>
<g id="a_node7"><a xlink:href="iwl_8h_source.html" target="_top" xlink:title="libiwl/iwl.h">
<polygon fill="none" stroke="black" points="171.916,-112.5 171.916,-131.5 233.916,-131.5 233.916,-112.5 171.916,-112.5"/>
<text text-anchor="middle" x="202.916" y="-119.5" font-family="Helvetica,sans-Serif" font-size="10.00">libiwl/iwl.h</text>
</a>
</g>
</g>
<!-- Node1&#45;&gt;Node7 -->
<g id="edge8" class="edge"><title>Node1&#45;&gt;Node7</title>
<path fill="none" stroke="midnightblue" d="M362.149,-168.933C325.695,-158.417 276.486,-144.222 242.466,-134.409"/>
<polygon fill="midnightblue" stroke="midnightblue" points="243.005,-130.921 232.427,-131.513 241.065,-137.647 243.005,-130.921"/>
</g>
<!-- Node11 -->
<g id="node11" class="node"><title>Node11</title>
<g id="a_node11"><a xlink:href="psifiles_8h_source.html" target="_top" xlink:title="psifiles.h">
<polygon fill="none" stroke="black" points="486.916,-112.5 486.916,-131.5 542.916,-131.5 542.916,-112.5 486.916,-112.5"/>
<text text-anchor="middle" x="514.916" y="-119.5" font-family="Helvetica,sans-Serif" font-size="10.00">psifiles.h</text>
</a>
</g>
</g>
<!-- Node1&#45;&gt;Node11 -->
<g id="edge14" class="edge"><title>Node1&#45;&gt;Node11</title>
<path fill="none" stroke="midnightblue" d="M435.299,-168.933C452.062,-159.262 474.218,-146.479 490.901,-136.855"/>
<polygon fill="midnightblue" stroke="midnightblue" points="493.096,-139.629 500.009,-131.6 489.598,-133.566 493.096,-139.629"/>
</g>
<!-- Node12 -->
<g id="node12" class="node"><title>Node12</title>
<g id="a_node12"><a xlink:href="transqt_2MOInfo_8h.html" target="_top" xlink:title="MOInfo structure.">
<polygon fill="none" stroke="black" points="561.416,-112.5 561.416,-131.5 618.416,-131.5 618.416,-112.5 561.416,-112.5"/>
<text text-anchor="middle" x="589.916" y="-119.5" font-family="Helvetica,sans-Serif" font-size="10.00">MOInfo.h</text>
</a>
</g>
</g>
<!-- Node1&#45;&gt;Node12 -->
<g id="edge15" class="edge"><title>Node1&#45;&gt;Node12</title>
<path fill="none" stroke="midnightblue" d="M452.883,-168.933C483.849,-158.553 525.509,-144.589 554.738,-134.792"/>
<polygon fill="midnightblue" stroke="midnightblue" points="556.15,-138.009 564.52,-131.513 553.926,-131.372 556.15,-138.009"/>
</g>
<!-- Node13 -->
<g id="node13" class="node"><title>Node13</title>
<g id="a_node13"><a xlink:href="transqt_2Params_8h.html" target="_top" xlink:title="Enter brief description of file here.">
<polygon fill="none" stroke="black" points="346.416,-112.5 346.416,-131.5 405.416,-131.5 405.416,-112.5 346.416,-112.5"/>
<text text-anchor="middle" x="375.916" y="-119.5" font-family="Helvetica,sans-Serif" font-size="10.00">Params.h</text>
</a>
</g>
</g>
<!-- Node1&#45;&gt;Node13 -->
<g id="edge16" class="edge"><title>Node1&#45;&gt;Node13</title>
<path fill="none" stroke="midnightblue" d="M402.621,-168.781C397.693,-160.332 391.402,-149.548 386.165,-140.569"/>
<polygon fill="midnightblue" stroke="midnightblue" points="389.071,-138.605 381.009,-131.731 383.024,-142.132 389.071,-138.605"/>
</g>
<!-- Node14 -->
<g id="node14" class="node"><title>Node14</title>
<g id="a_node14"><a xlink:href="transqt_2globals_8h.html" target="_top" xlink:title="Enter brief description of file here.">
<polygon fill="none" stroke="black" points="636.916,-112.5 636.916,-131.5 692.916,-131.5 692.916,-112.5 636.916,-112.5"/>
<text text-anchor="middle" x="664.916" y="-119.5" font-family="Helvetica,sans-Serif" font-size="10.00">globals.h</text>
</a>
</g>
</g>
<!-- Node1&#45;&gt;Node14 -->
<g id="edge18" class="edge"><title>Node1&#45;&gt;Node14</title>
<path fill="none" stroke="midnightblue" d="M470.512,-168.94C513.889,-158.704 574.045,-144.503 626.916,-132 627.015,-131.977 627.114,-131.953 627.213,-131.93"/>
<polygon fill="midnightblue" stroke="midnightblue" points="627.769,-135.395 636.695,-129.686 626.157,-128.583 627.769,-135.395"/>
</g>
<!-- Node15 -->
<g id="node15" class="node"><title>Node15</title>
<g id="a_node15"><a xlink:href="yoshimine_8h.html" target="_top" xlink:title="Enter brief description of file here.">
<polygon fill="none" stroke="black" points="711.416,-112.5 711.416,-131.5 780.416,-131.5 780.416,-112.5 711.416,-112.5"/>
<text text-anchor="middle" x="745.916" y="-119.5" font-family="Helvetica,sans-Serif" font-size="10.00">yoshimine.h</text>
</a>
</g>
</g>
<!-- Node1&#45;&gt;Node15 -->
<g id="edge19" class="edge"><title>Node1&#45;&gt;Node15</title>
<path fill="none" stroke="midnightblue" d="M472.039,-172.804C528.798,-163.219 615.916,-148.21 701.465,-132.041"/>
<polygon fill="midnightblue" stroke="midnightblue" points="702.174,-135.469 711.347,-130.167 700.87,-128.592 702.174,-135.469"/>
</g>
<!-- Node4&#45;&gt;Node2 -->
<g id="edge4" class="edge"><title>Node4&#45;&gt;Node2</title>
<path fill="none" stroke="midnightblue" d="M74.1266,-56.324C85.6917,-48.1066 103.291,-35.6017 117.077,-25.8069"/>
<polygon fill="midnightblue" stroke="midnightblue" points="119.358,-28.4791 125.483,-19.8339 115.304,-22.7729 119.358,-28.4791"/>
</g>
<!-- Node5&#45;&gt;Node2 -->
<g id="edge6" class="edge"><title>Node5&#45;&gt;Node2</title>
<path fill="none" stroke="midnightblue" d="M307.536,-112.495C317.082,-99.1267 332.186,-72.9735 318.916,-56 300.699,-32.6993 216.31,-19.7381 169.467,-14.2253"/>
<polygon fill="midnightblue" stroke="midnightblue" points="169.858,-10.7473 159.528,-13.101 169.071,-17.7029 169.858,-10.7473"/>
</g>
<!-- Node6 -->
<g id="node6" class="node"><title>Node6</title>
<polygon fill="none" stroke="#bfbfbf" points="366.416,-56.5 366.416,-75.5 407.416,-75.5 407.416,-56.5 366.416,-56.5"/>
<text text-anchor="middle" x="386.916" y="-63.5" font-family="Helvetica,sans-Serif" font-size="10.00">string</text>
</g>
<!-- Node5&#45;&gt;Node6 -->
<g id="edge7" class="edge"><title>Node5&#45;&gt;Node6</title>
<path fill="none" stroke="midnightblue" d="M314.733,-112.324C328.149,-103.9 348.74,-90.9709 364.501,-81.0741"/>
<polygon fill="midnightblue" stroke="midnightblue" points="366.525,-83.9364 373.133,-75.6545 362.803,-78.0081 366.525,-83.9364"/>
</g>
<!-- Node7&#45;&gt;Node2 -->
<g id="edge9" class="edge"><title>Node7&#45;&gt;Node2</title>
<path fill="none" stroke="midnightblue" d="M191.043,-112.288C180.616,-104.041 165.767,-90.7533 156.916,-76 148.316,-61.6651 143.407,-43.202 140.743,-29.6187"/>
<polygon fill="midnightblue" stroke="midnightblue" points="144.156,-28.8108 139.001,-19.5542 137.258,-30.0047 144.156,-28.8108"/>
</g>
<!-- Node8 -->
<g id="node8" class="node"><title>Node8</title>
<g id="a_node8"><a xlink:href="psio_8h_source.html" target="_top" xlink:title="libpsio/psio.h">
<polygon fill="none" stroke="black" points="235.916,-56.5 235.916,-75.5 309.916,-75.5 309.916,-56.5 235.916,-56.5"/>
<text text-anchor="middle" x="272.916" y="-63.5" font-family="Helvetica,sans-Serif" font-size="10.00">libpsio/psio.h</text>
</a>
</g>
</g>
<!-- Node7&#45;&gt;Node8 -->
<g id="edge10" class="edge"><title>Node7&#45;&gt;Node8</title>
<path fill="none" stroke="midnightblue" d="M214.163,-112.324C224.713,-104.185 240.716,-91.8395 253.358,-82.0874"/>
<polygon fill="midnightblue" stroke="midnightblue" points="255.684,-84.7132 261.464,-75.8339 251.409,-79.1707 255.684,-84.7132"/>
</g>
<!-- Node10 -->
<g id="node10" class="node"><title>Node10</title>
<g id="a_node10"><a xlink:href="libiwl_2config_8h_source.html" target="_top" xlink:title="config.h">
<polygon fill="none" stroke="black" points="166.416,-56.5 166.416,-75.5 217.416,-75.5 217.416,-56.5 166.416,-56.5"/>
<text text-anchor="middle" x="191.916" y="-63.5" font-family="Helvetica,sans-Serif" font-size="10.00">config.h</text>
</a>
</g>
</g>
<!-- Node7&#45;&gt;Node10 -->
<g id="edge13" class="edge"><title>Node7&#45;&gt;Node10</title>
<path fill="none" stroke="midnightblue" d="M201.099,-112.083C199.642,-104.927 197.545,-94.6353 195.723,-85.6911"/>
<polygon fill="midnightblue" stroke="midnightblue" points="199.124,-84.8512 193.698,-75.7511 192.265,-86.2485 199.124,-84.8512"/>
</g>
<!-- Node8&#45;&gt;Node2 -->
<g id="edge11" class="edge"><title>Node8&#45;&gt;Node2</title>
<path fill="none" stroke="midnightblue" d="M251.525,-56.4435C229.209,-47.5171 194.013,-33.4387 168.708,-23.3168"/>
<polygon fill="midnightblue" stroke="midnightblue" points="169.792,-19.9807 159.207,-19.5164 167.192,-26.4801 169.792,-19.9807"/>
</g>
<!-- Node9 -->
<g id="node9" class="node"><title>Node9</title>
<g id="a_node9"><a xlink:href="libpsio_2config_8h_source.html" target="_top" xlink:title="libpsio/config.h">
<polygon fill="none" stroke="black" points="231.916,-0.5 231.916,-19.5 313.916,-19.5 313.916,-0.5 231.916,-0.5"/>
<text text-anchor="middle" x="272.916" y="-7.5" font-family="Helvetica,sans-Serif" font-size="10.00">libpsio/config.h</text>
</a>
</g>
</g>
<!-- Node8&#45;&gt;Node9 -->
<g id="edge12" class="edge"><title>Node8&#45;&gt;Node9</title>
<path fill="none" stroke="midnightblue" d="M272.916,-56.083C272.916,-49.0059 272.916,-38.8611 272.916,-29.9865"/>
<polygon fill="midnightblue" stroke="midnightblue" points="276.416,-29.751 272.916,-19.7511 269.416,-29.7511 276.416,-29.751"/>
</g>
<!-- Node13&#45;&gt;Node6 -->
<g id="edge17" class="edge"><title>Node13&#45;&gt;Node6</title>
<path fill="none" stroke="midnightblue" d="M377.732,-112.083C379.19,-104.927 381.286,-94.6353 383.108,-85.6911"/>
<polygon fill="midnightblue" stroke="midnightblue" points="386.567,-86.2485 385.133,-75.7511 379.708,-84.8512 386.567,-86.2485"/>
</g>
</g>
</svg>
