<?xml version="1.0" encoding="UTF-8" standalone="no"?>
<!DOCTYPE svg PUBLIC "-//W3C//DTD SVG 1.1//EN"
 "http://www.w3.org/Graphics/SVG/1.1/DTD/svg11.dtd">
<!-- Generated by graphviz version 2.30.1 (20140110.0959)
 -->
<!-- Title: globals.h Pages: 1 -->
<svg width="1261pt" height="96pt"
 viewBox="0.00 0.00 1261.00 96.00" xmlns="http://www.w3.org/2000/svg" xmlns:xlink="http://www.w3.org/1999/xlink">
<g id="graph0" class="graph" transform="scale(1 1) rotate(0) translate(4 92)">
<title>globals.h</title>
<!-- Node1 -->
<g id="node1" class="node"><title>Node1</title>
<polygon fill="#bfbfbf" stroke="black" points="526,-68.5 526,-87.5 582,-87.5 582,-68.5 526,-68.5"/>
<text text-anchor="middle" x="554" y="-75.5" font-family="Helvetica,sans-Serif" font-size="10.00">globals.h</text>
</g>
<!-- Node2 -->
<g id="node2" class="node"><title>Node2</title>
<g id="a_node2"><a xlink:href="backsort_8cc.html" target="_top" xlink:title="Enter brief description of file here.">
<polygon fill="none" stroke="black" points="0,-6.5 0,-25.5 68,-25.5 68,-6.5 0,-6.5"/>
<text text-anchor="middle" x="34" y="-13.5" font-family="Helvetica,sans-Serif" font-size="10.00">backsort.cc</text>
</a>
</g>
</g>
<!-- Node1&#45;&gt;Node2 -->
<g id="edge1" class="edge"><title>Node1&#45;&gt;Node2</title>
<path fill="none" stroke="midnightblue" d="M515.663,-76.5083C434.036,-74.7821 237.413,-67.0049 77,-32 69.7388,-30.4155 62.0125,-27.9722 55.1417,-25.5144"/>
<polygon fill="midnightblue" stroke="midnightblue" points="515.883,-80.0131 525.949,-76.7062 516.018,-73.0144 515.883,-80.0131"/>
</g>
<!-- Node3 -->
<g id="node3" class="node"><title>Node3</title>
<g id="a_node3"><a xlink:href="transqt_2cleanup_8cc.html" target="_top" xlink:title="Enter brief description of file here.">
<polygon fill="none" stroke="black" points="86,-6.5 86,-25.5 150,-25.5 150,-6.5 86,-6.5"/>
<text text-anchor="middle" x="118" y="-13.5" font-family="Helvetica,sans-Serif" font-size="10.00">cleanup.cc</text>
</a>
</g>
</g>
<!-- Node1&#45;&gt;Node3 -->
<g id="edge2" class="edge"><title>Node1&#45;&gt;Node3</title>
<path fill="none" stroke="midnightblue" d="M515.557,-75.6435C444.333,-72.4665 287.418,-62.3504 159,-32 152.214,-30.3962 145.01,-28.0078 138.565,-25.606"/>
<polygon fill="midnightblue" stroke="midnightblue" points="515.693,-79.1523 525.833,-76.0797 515.99,-72.1586 515.693,-79.1523"/>
</g>
<!-- Node4 -->
<g id="node4" class="node"><title>Node4</title>
<g id="a_node4"><a xlink:href="semicanonical_8cc.html" target="_top" xlink:title="Enter brief description of file here.">
<polygon fill="none" stroke="black" points="168,-6.5 168,-25.5 260,-25.5 260,-6.5 168,-6.5"/>
<text text-anchor="middle" x="214" y="-13.5" font-family="Helvetica,sans-Serif" font-size="10.00">semicanonical.cc</text>
</a>
</g>
</g>
<!-- Node1&#45;&gt;Node4 -->
<g id="edge3" class="edge"><title>Node1&#45;&gt;Node4</title>
<path fill="none" stroke="midnightblue" d="M515.922,-72.3386C461.037,-65.3147 356.652,-50.8131 269,-32 260.484,-30.1722 251.324,-27.8286 242.969,-25.5397"/>
<polygon fill="midnightblue" stroke="midnightblue" points="515.538,-75.818 525.899,-73.6027 516.418,-68.8735 515.538,-75.818"/>
</g>
<!-- Node5 -->
<g id="node5" class="node"><title>Node5</title>
<g id="a_node5"><a xlink:href="transform__one_8cc.html" target="_top" xlink:title="Enter brief description of file here.">
<polygon fill="none" stroke="black" points="278,-6.5 278,-25.5 370,-25.5 370,-6.5 278,-6.5"/>
<text text-anchor="middle" x="324" y="-13.5" font-family="Helvetica,sans-Serif" font-size="10.00">transform_one.cc</text>
</a>
</g>
</g>
<!-- Node1&#45;&gt;Node5 -->
<g id="edge4" class="edge"><title>Node1&#45;&gt;Node5</title>
<path fill="none" stroke="midnightblue" d="M515.848,-67.3598C480.369,-58.3545 426.058,-44.4665 379,-32 371.25,-29.947 362.899,-27.6915 355.102,-25.5671"/>
<polygon fill="midnightblue" stroke="midnightblue" points="515.226,-70.8127 525.779,-69.8778 516.946,-64.0274 515.226,-70.8127"/>
</g>
<!-- Node6 -->
<g id="node6" class="node"><title>Node6</title>
<g id="a_node6"><a xlink:href="transform__two_8cc.html" target="_top" xlink:title="Enter brief description of file here.">
<polygon fill="none" stroke="black" points="388,-6.5 388,-25.5 480,-25.5 480,-6.5 388,-6.5"/>
<text text-anchor="middle" x="434" y="-13.5" font-family="Helvetica,sans-Serif" font-size="10.00">transform_two.cc</text>
</a>
</g>
</g>
<!-- Node1&#45;&gt;Node6 -->
<g id="edge5" class="edge"><title>Node1&#45;&gt;Node6</title>
<path fill="none" stroke="midnightblue" d="M527.823,-63.9116C504.551,-52.2756 471.197,-35.5983 451.161,-25.5806"/>
<polygon fill="midnightblue" stroke="midnightblue" points="526.297,-67.0618 536.807,-68.4035 529.428,-60.8008 526.297,-67.0618"/>
</g>
<!-- Node7 -->
<g id="node7" class="node"><title>Node7</title>
<g id="a_node7"><a xlink:href="transform__two__backtr__uhf_8cc.html" target="_top" xlink:title="Enter brief description of file here.">
<polygon fill="none" stroke="black" points="498.5,-1 498.5,-31 609.5,-31 609.5,-1 498.5,-1"/>
<text text-anchor="start" x="506.5" y="-19" font-family="Helvetica,sans-Serif" font-size="10.00">transform_two_backtr</text>
<text text-anchor="middle" x="554" y="-8" font-family="Helvetica,sans-Serif" font-size="10.00">_uhf.cc</text>
</a>
</g>
</g>
<!-- Node1&#45;&gt;Node7 -->
<g id="edge6" class="edge"><title>Node1&#45;&gt;Node7</title>
<path fill="none" stroke="midnightblue" d="M554,-58.3707C554,-49.5849 554,-39.2721 554,-31.1408"/>
<polygon fill="midnightblue" stroke="midnightblue" points="550.5,-58.4034 554,-68.4035 557.5,-58.4035 550.5,-58.4034"/>
</g>
<!-- Node8 -->
<g id="node8" class="node"><title>Node8</title>
<g id="a_node8"><a xlink:href="transform__two__mp2_8cc.html" target="_top" xlink:title="Enter brief description of file here.">
<polygon fill="none" stroke="black" points="628,-6.5 628,-25.5 744,-25.5 744,-6.5 628,-6.5"/>
<text text-anchor="middle" x="686" y="-13.5" font-family="Helvetica,sans-Serif" font-size="10.00">transform_two_mp2.cc</text>
</a>
</g>
</g>
<!-- Node1&#45;&gt;Node8 -->
<g id="edge7" class="edge"><title>Node1&#45;&gt;Node8</title>
<path fill="none" stroke="midnightblue" d="M582.115,-64.2207C607.74,-52.5726 644.888,-35.6874 667.123,-25.5806"/>
<polygon fill="midnightblue" stroke="midnightblue" points="580.568,-61.0791 572.912,-68.4035 583.464,-67.4517 580.568,-61.0791"/>
</g>
<!-- Node9 -->
<g id="node9" class="node"><title>Node9</title>
<g id="a_node9"><a xlink:href="transform__two__mp2r12a__gr_8cc.html" target="_top" xlink:title="Enter brief description of file here.">
<polygon fill="none" stroke="black" points="762,-1 762,-31 884,-31 884,-1 762,-1"/>
<text text-anchor="start" x="770" y="-19" font-family="Helvetica,sans-Serif" font-size="10.00">transform_two_mp2r12a</text>
<text text-anchor="middle" x="823" y="-8" font-family="Helvetica,sans-Serif" font-size="10.00">_gr.cc</text>
</a>
</g>
</g>
<!-- Node1&#45;&gt;Node9 -->
<g id="edge8" class="edge"><title>Node1&#45;&gt;Node9</title>
<path fill="none" stroke="midnightblue" d="M591.787,-68.5716C635.961,-58.7188 709.674,-42.2773 761.986,-30.6091"/>
<polygon fill="midnightblue" stroke="midnightblue" points="591.025,-65.1556 582.026,-70.7487 592.549,-71.9877 591.025,-65.1556"/>
</g>
<!-- Node10 -->
<g id="node10" class="node"><title>Node10</title>
<g id="a_node10"><a xlink:href="transform__two__mp2r12a__t_8cc.html" target="_top" xlink:title="Enter brief description of file here.">
<polygon fill="none" stroke="black" points="902.5,-6.5 902.5,-25.5 1045.5,-25.5 1045.5,-6.5 902.5,-6.5"/>
<text text-anchor="middle" x="974" y="-13.5" font-family="Helvetica,sans-Serif" font-size="10.00">transform_two_mp2r12a_t.cc</text>
</a>
</g>
</g>
<!-- Node1&#45;&gt;Node10 -->
<g id="edge9" class="edge"><title>Node1&#45;&gt;Node10</title>
<path fill="none" stroke="midnightblue" d="M592.445,-72.5462C655.402,-65.107 784.36,-49.2583 893,-32 905.147,-30.0703 918.274,-27.7444 930.352,-25.5061"/>
<polygon fill="midnightblue" stroke="midnightblue" points="591.72,-69.1072 582.197,-73.7516 592.538,-76.0593 591.72,-69.1072"/>
</g>
<!-- Node11 -->
<g id="node11" class="node"><title>Node11</title>
<g id="a_node11"><a xlink:href="transform__two__uhf_8cc.html" target="_top" xlink:title="Enter brief description of file here.">
<polygon fill="none" stroke="black" points="1063.5,-6.5 1063.5,-25.5 1174.5,-25.5 1174.5,-6.5 1063.5,-6.5"/>
<text text-anchor="middle" x="1119" y="-13.5" font-family="Helvetica,sans-Serif" font-size="10.00">transform_two_uhf.cc</text>
</a>
</g>
</g>
<!-- Node1&#45;&gt;Node11 -->
<g id="edge10" class="edge"><title>Node1&#45;&gt;Node11</title>
<path fill="none" stroke="midnightblue" d="M592.169,-75.3514C676.12,-71.3353 882.942,-59.3031 1054,-32 1064.52,-30.3206 1075.88,-27.911 1086.1,-25.513"/>
<polygon fill="midnightblue" stroke="midnightblue" points="591.91,-71.8596 582.084,-75.8233 592.237,-78.852 591.91,-71.8596"/>
</g>
<!-- Node12 -->
<g id="node12" class="node"><title>Node12</title>
<g id="a_node12"><a xlink:href="transqt_8cc.html" target="_top" xlink:title="The SO&#45;to&#45;MO integral transformation program.">
<polygon fill="none" stroke="black" points="1193,-6.5 1193,-25.5 1253,-25.5 1253,-6.5 1193,-6.5"/>
<text text-anchor="middle" x="1223" y="-13.5" font-family="Helvetica,sans-Serif" font-size="10.00">transqt.cc</text>
</a>
</g>
</g>
<!-- Node1&#45;&gt;Node12 -->
<g id="edge11" class="edge"><title>Node1&#45;&gt;Node12</title>
<path fill="none" stroke="midnightblue" d="M592.328,-75.6993C710.696,-71.4556 1069.31,-56.8379 1183,-32 1189.81,-30.512 1197.01,-28.0943 1203.4,-25.6303"/>
<polygon fill="midnightblue" stroke="midnightblue" points="592.15,-72.2033 582.28,-76.0552 592.398,-79.1989 592.15,-72.2033"/>
</g>
</g>
</svg>
