<?xml version="1.0" encoding="UTF-8" standalone="no"?>
<!DOCTYPE svg PUBLIC "-//W3C//DTD SVG 1.1//EN"
 "http://www.w3.org/Graphics/SVG/1.1/DTD/svg11.dtd">
<!-- Generated by graphviz version 2.30.1 (20140110.0959)
 -->
<!-- Title: transform_two_uhf.cc Pages: 1 -->
<svg width="825pt" height="196pt"
 viewBox="0.00 0.00 825.00 196.00" xmlns="http://www.w3.org/2000/svg" xmlns:xlink="http://www.w3.org/1999/xlink">
<g id="graph0" class="graph" transform="scale(1 1) rotate(0) translate(4 192)">
<title>transform_two_uhf.cc</title>
<!-- Node1 -->
<g id="node1" class="node"><title>Node1</title>
<polygon fill="#bfbfbf" stroke="black" points="371.5,-168.5 371.5,-187.5 482.5,-187.5 482.5,-168.5 371.5,-168.5"/>
<text text-anchor="middle" x="427" y="-175.5" font-family="Helvetica,sans-Serif" font-size="10.00">transform_two_uhf.cc</text>
</g>
<!-- Node2 -->
<g id="node2" class="node"><title>Node2</title>
<polygon fill="none" stroke="#bfbfbf" points="192.5,-0.5 192.5,-19.5 235.5,-19.5 235.5,-0.5 192.5,-0.5"/>
<text text-anchor="middle" x="214" y="-7.5" font-family="Helvetica,sans-Serif" font-size="10.00">cstdio</text>
</g>
<!-- Node1&#45;&gt;Node2 -->
<g id="edge1" class="edge"><title>Node1&#45;&gt;Node2</title>
<path fill="none" stroke="midnightblue" d="M371.176,-170.994C320.703,-164.374 251.546,-151.935 233,-132 207.136,-104.198 208.11,-56.3062 211.065,-29.8802"/>
<polygon fill="midnightblue" stroke="midnightblue" points="214.571,-30.0689 212.427,-19.6933 207.633,-29.1415 214.571,-30.0689"/>
</g>
<!-- Node3 -->
<g id="node3" class="node"><title>Node3</title>
<polygon fill="none" stroke="#bfbfbf" points="430.5,-112.5 430.5,-131.5 475.5,-131.5 475.5,-112.5 430.5,-112.5"/>
<text text-anchor="middle" x="453" y="-119.5" font-family="Helvetica,sans-Serif" font-size="10.00">cstdlib</text>
</g>
<!-- Node1&#45;&gt;Node3 -->
<g id="edge2" class="edge"><title>Node1&#45;&gt;Node3</title>
<path fill="none" stroke="midnightblue" d="M431.293,-168.083C434.852,-160.691 440.022,-149.953 444.424,-140.811"/>
<polygon fill="midnightblue" stroke="midnightblue" points="447.602,-142.279 448.787,-131.751 441.295,-139.243 447.602,-142.279"/>
</g>
<!-- Node4 -->
<g id="node4" class="node"><title>Node4</title>
<g id="a_node4"><a xlink:href="libciomr_8h_source.html" target="_top" xlink:title="libciomr/libciomr.h">
<polygon fill="none" stroke="black" points="352.5,-56.5 352.5,-75.5 447.5,-75.5 447.5,-56.5 352.5,-56.5"/>
<text text-anchor="middle" x="400" y="-63.5" font-family="Helvetica,sans-Serif" font-size="10.00">libciomr/libciomr.h</text>
</a>
</g>
</g>
<!-- Node1&#45;&gt;Node4 -->
<g id="edge3" class="edge"><title>Node1&#45;&gt;Node4</title>
<path fill="none" stroke="midnightblue" d="M424.881,-168.368C420.524,-150.617 410.473,-109.666 404.565,-85.5974"/>
<polygon fill="midnightblue" stroke="midnightblue" points="407.892,-84.4688 402.109,-75.5914 401.094,-86.1375 407.892,-84.4688"/>
</g>
<!-- Node5 -->
<g id="node5" class="node"><title>Node5</title>
<g id="a_node5"><a xlink:href="iwl_8h_source.html" target="_top" xlink:title="libiwl/iwl.h">
<polygon fill="none" stroke="black" points="107,-112.5 107,-131.5 169,-131.5 169,-112.5 107,-112.5"/>
<text text-anchor="middle" x="138" y="-119.5" font-family="Helvetica,sans-Serif" font-size="10.00">libiwl/iwl.h</text>
</a>
</g>
</g>
<!-- Node1&#45;&gt;Node5 -->
<g id="edge5" class="edge"><title>Node1&#45;&gt;Node5</title>
<path fill="none" stroke="midnightblue" d="M381.207,-168.444C325.7,-158.072 232.97,-140.745 179.48,-130.751"/>
<polygon fill="midnightblue" stroke="midnightblue" points="179.8,-127.25 169.327,-128.854 178.514,-134.131 179.8,-127.25"/>
</g>
<!-- Node9 -->
<g id="node9" class="node"><title>Node9</title>
<g id="a_node9"><a xlink:href="chkpt_8h_source.html" target="_top" xlink:title="libchkpt/chkpt.h">
<polygon fill="none" stroke="black" points="494,-112.5 494,-131.5 580,-131.5 580,-112.5 494,-112.5"/>
<text text-anchor="middle" x="537" y="-119.5" font-family="Helvetica,sans-Serif" font-size="10.00">libchkpt/chkpt.h</text>
</a>
</g>
</g>
<!-- Node1&#45;&gt;Node9 -->
<g id="edge11" class="edge"><title>Node1&#45;&gt;Node9</title>
<path fill="none" stroke="midnightblue" d="M444.673,-168.324C462.394,-159.625 489.903,-146.12 510.288,-136.113"/>
<polygon fill="midnightblue" stroke="midnightblue" points="511.936,-139.203 519.37,-131.655 508.851,-132.919 511.936,-139.203"/>
</g>
<!-- Node10 -->
<g id="node10" class="node"><title>Node10</title>
<g id="a_node10"><a xlink:href="qt_8h.html" target="_top" xlink:title="Header file for the Quantum Trio LibraryDavid Sherrill 1994.">
<polygon fill="none" stroke="black" points="242,-112.5 242,-131.5 296,-131.5 296,-112.5 242,-112.5"/>
<text text-anchor="middle" x="269" y="-119.5" font-family="Helvetica,sans-Serif" font-size="10.00">libqt/qt.h</text>
</a>
</g>
</g>
<!-- Node1&#45;&gt;Node10 -->
<g id="edge12" class="edge"><title>Node1&#45;&gt;Node10</title>
<path fill="none" stroke="midnightblue" d="M401.964,-168.444C375.384,-159.359 333.191,-144.939 303.477,-134.783"/>
<polygon fill="midnightblue" stroke="midnightblue" points="304.513,-131.439 293.918,-131.516 302.249,-138.062 304.513,-131.439"/>
</g>
<!-- Node12 -->
<g id="node12" class="node"><title>Node12</title>
<g id="a_node12"><a xlink:href="transqt_2MOInfo_8h.html" target="_top" xlink:title="MOInfo structure.">
<polygon fill="none" stroke="black" points="598.5,-112.5 598.5,-131.5 655.5,-131.5 655.5,-112.5 598.5,-112.5"/>
<text text-anchor="middle" x="627" y="-119.5" font-family="Helvetica,sans-Serif" font-size="10.00">MOInfo.h</text>
</a>
</g>
</g>
<!-- Node1&#45;&gt;Node12 -->
<g id="edge15" class="edge"><title>Node1&#45;&gt;Node12</title>
<path fill="none" stroke="midnightblue" d="M458.691,-168.444C493.828,-158.956 550.519,-143.65 588.264,-133.459"/>
<polygon fill="midnightblue" stroke="midnightblue" points="589.632,-136.715 598.374,-130.729 587.807,-129.957 589.632,-136.715"/>
</g>
<!-- Node13 -->
<g id="node13" class="node"><title>Node13</title>
<g id="a_node13"><a xlink:href="transqt_2Params_8h.html" target="_top" xlink:title="Enter brief description of file here.">
<polygon fill="none" stroke="black" points="314.5,-112.5 314.5,-131.5 373.5,-131.5 373.5,-112.5 314.5,-112.5"/>
<text text-anchor="middle" x="344" y="-119.5" font-family="Helvetica,sans-Serif" font-size="10.00">Params.h</text>
</a>
</g>
</g>
<!-- Node1&#45;&gt;Node13 -->
<g id="edge16" class="edge"><title>Node1&#45;&gt;Node13</title>
<path fill="none" stroke="midnightblue" d="M413.665,-168.324C400.838,-159.979 381.215,-147.212 366.06,-137.352"/>
<polygon fill="midnightblue" stroke="midnightblue" points="367.593,-134.174 357.302,-131.655 363.776,-140.042 367.593,-134.174"/>
</g>
<!-- Node14 -->
<g id="node14" class="node"><title>Node14</title>
<g id="a_node14"><a xlink:href="transqt_2globals_8h.html" target="_top" xlink:title="Enter brief description of file here.">
<polygon fill="none" stroke="black" points="674,-112.5 674,-131.5 730,-131.5 730,-112.5 674,-112.5"/>
<text text-anchor="middle" x="702" y="-119.5" font-family="Helvetica,sans-Serif" font-size="10.00">globals.h</text>
</a>
</g>
</g>
<!-- Node1&#45;&gt;Node14 -->
<g id="edge18" class="edge"><title>Node1&#45;&gt;Node14</title>
<path fill="none" stroke="midnightblue" d="M475.242,-168.496C523.222,-159.884 598.874,-145.888 664,-132 664.099,-131.979 664.199,-131.958 664.299,-131.936"/>
<polygon fill="midnightblue" stroke="midnightblue" points="664.806,-135.409 673.81,-129.825 663.289,-128.575 664.806,-135.409"/>
</g>
<!-- Node15 -->
<g id="node15" class="node"><title>Node15</title>
<g id="a_node15"><a xlink:href="yoshimine_8h.html" target="_top" xlink:title="Enter brief description of file here.">
<polygon fill="none" stroke="black" points="748.5,-112.5 748.5,-131.5 817.5,-131.5 817.5,-112.5 748.5,-112.5"/>
<text text-anchor="middle" x="783" y="-119.5" font-family="Helvetica,sans-Serif" font-size="10.00">yoshimine.h</text>
</a>
</g>
</g>
<!-- Node1&#45;&gt;Node15 -->
<g id="edge19" class="edge"><title>Node1&#45;&gt;Node15</title>
<path fill="none" stroke="midnightblue" d="M482.67,-169.97C543.123,-162.112 642.747,-148.511 738.59,-131.98"/>
<polygon fill="midnightblue" stroke="midnightblue" points="739.196,-135.427 748.449,-130.266 737.997,-128.53 739.196,-135.427"/>
</g>
<!-- Node4&#45;&gt;Node2 -->
<g id="edge4" class="edge"><title>Node4&#45;&gt;Node2</title>
<path fill="none" stroke="midnightblue" d="M370.528,-56.4435C336.311,-46.5098 280.119,-30.1958 245.188,-20.0544"/>
<polygon fill="midnightblue" stroke="midnightblue" points="246.086,-16.6707 235.506,-17.2437 244.134,-23.3931 246.086,-16.6707"/>
</g>
<!-- Node5&#45;&gt;Node2 -->
<g id="edge6" class="edge"><title>Node5&#45;&gt;Node2</title>
<path fill="none" stroke="midnightblue" d="M143.964,-112.368C156.506,-94.2153 185.81,-51.8015 202.261,-27.9902"/>
<polygon fill="midnightblue" stroke="midnightblue" points="205.259,-29.8083 208.064,-19.5914 199.5,-25.8292 205.259,-29.8083"/>
</g>
<!-- Node6 -->
<g id="node6" class="node"><title>Node6</title>
<g id="a_node6"><a xlink:href="psio_8h_source.html" target="_top" xlink:title="libpsio/psio.h">
<polygon fill="none" stroke="black" points="4,-56.5 4,-75.5 78,-75.5 78,-56.5 4,-56.5"/>
<text text-anchor="middle" x="41" y="-63.5" font-family="Helvetica,sans-Serif" font-size="10.00">libpsio/psio.h</text>
</a>
</g>
</g>
<!-- Node5&#45;&gt;Node6 -->
<g id="edge7" class="edge"><title>Node5&#45;&gt;Node6</title>
<path fill="none" stroke="midnightblue" d="M122.415,-112.324C107.001,-103.743 83.1878,-90.486 65.2903,-80.5224"/>
<polygon fill="midnightblue" stroke="midnightblue" points="66.9858,-77.4606 56.5461,-75.6545 63.5809,-83.5767 66.9858,-77.4606"/>
</g>
<!-- Node8 -->
<g id="node8" class="node"><title>Node8</title>
<g id="a_node8"><a xlink:href="libiwl_2config_8h_source.html" target="_top" xlink:title="config.h">
<polygon fill="none" stroke="black" points="96.5,-56.5 96.5,-75.5 147.5,-75.5 147.5,-56.5 96.5,-56.5"/>
<text text-anchor="middle" x="122" y="-63.5" font-family="Helvetica,sans-Serif" font-size="10.00">config.h</text>
</a>
</g>
</g>
<!-- Node5&#45;&gt;Node8 -->
<g id="edge10" class="edge"><title>Node5&#45;&gt;Node8</title>
<path fill="none" stroke="midnightblue" d="M135.358,-112.083C133.214,-104.849 130.121,-94.4087 127.451,-85.3968"/>
<polygon fill="midnightblue" stroke="midnightblue" points="130.79,-84.3447 124.593,-75.7511 124.078,-86.3334 130.79,-84.3447"/>
</g>
<!-- Node6&#45;&gt;Node2 -->
<g id="edge8" class="edge"><title>Node6&#45;&gt;Node2</title>
<path fill="none" stroke="midnightblue" d="M68.4124,-56.4435C99.4481,-46.7561 149.923,-31.0008 182.54,-20.8199"/>
<polygon fill="midnightblue" stroke="midnightblue" points="183.952,-24.0458 192.455,-17.7251 181.866,-17.3637 183.952,-24.0458"/>
</g>
<!-- Node7 -->
<g id="node7" class="node"><title>Node7</title>
<g id="a_node7"><a xlink:href="libpsio_2config_8h_source.html" target="_top" xlink:title="libpsio/config.h">
<polygon fill="none" stroke="black" points="0,-0.5 0,-19.5 82,-19.5 82,-0.5 0,-0.5"/>
<text text-anchor="middle" x="41" y="-7.5" font-family="Helvetica,sans-Serif" font-size="10.00">libpsio/config.h</text>
</a>
</g>
</g>
<!-- Node6&#45;&gt;Node7 -->
<g id="edge9" class="edge"><title>Node6&#45;&gt;Node7</title>
<path fill="none" stroke="midnightblue" d="M41,-56.083C41,-49.0059 41,-38.8611 41,-29.9865"/>
<polygon fill="midnightblue" stroke="midnightblue" points="44.5001,-29.751 41,-19.7511 37.5001,-29.7511 44.5001,-29.751"/>
</g>
<!-- Node10&#45;&gt;Node2 -->
<g id="edge13" class="edge"><title>Node10&#45;&gt;Node2</title>
<path fill="none" stroke="midnightblue" d="M264.684,-112.368C255.688,-94.376 234.775,-52.5503 222.813,-28.6267"/>
<polygon fill="midnightblue" stroke="midnightblue" points="225.898,-26.9704 218.296,-19.5914 219.637,-30.101 225.898,-26.9704"/>
</g>
<!-- Node11 -->
<g id="node11" class="node"><title>Node11</title>
<polygon fill="none" stroke="#bfbfbf" points="291.5,-56.5 291.5,-75.5 332.5,-75.5 332.5,-56.5 291.5,-56.5"/>
<text text-anchor="middle" x="312" y="-63.5" font-family="Helvetica,sans-Serif" font-size="10.00">string</text>
</g>
<!-- Node10&#45;&gt;Node11 -->
<g id="edge14" class="edge"><title>Node10&#45;&gt;Node11</title>
<path fill="none" stroke="midnightblue" d="M276.101,-112.083C282.237,-104.377 291.27,-93.0333 298.739,-83.6531"/>
<polygon fill="midnightblue" stroke="midnightblue" points="301.54,-85.7542 305.032,-75.7511 296.064,-81.3936 301.54,-85.7542"/>
</g>
<!-- Node13&#45;&gt;Node11 -->
<g id="edge17" class="edge"><title>Node13&#45;&gt;Node11</title>
<path fill="none" stroke="midnightblue" d="M338.716,-112.083C334.289,-104.613 327.837,-93.7244 322.382,-84.5199"/>
<polygon fill="midnightblue" stroke="midnightblue" points="325.295,-82.5697 317.186,-75.7511 319.273,-86.1383 325.295,-82.5697"/>
</g>
</g>
</svg>
