<?xml version="1.0" encoding="UTF-8" standalone="no"?>
<!DOCTYPE svg PUBLIC "-//W3C//DTD SVG 1.1//EN"
 "http://www.w3.org/Graphics/SVG/1.1/DTD/svg11.dtd">
<!-- Generated by graphviz version 2.30.1 (20140110.0959)
 -->
<!-- Title: updater_mk.cc Pages: 1 -->
<svg width="1459pt" height="320pt"
 viewBox="0.00 0.00 1459.00 320.00" xmlns="http://www.w3.org/2000/svg" xmlns:xlink="http://www.w3.org/1999/xlink">
<g id="graph0" class="graph" transform="scale(1 1) rotate(0) translate(4 316)">
<title>updater_mk.cc</title>
<!-- Node1 -->
<g id="node1" class="node"><title>Node1</title>
<polygon fill="#bfbfbf" stroke="black" points="540.5,-292.5 540.5,-311.5 621.5,-311.5 621.5,-292.5 540.5,-292.5"/>
<text text-anchor="middle" x="581" y="-299.5" font-family="Helvetica,sans-Serif" font-size="10.00">updater_mk.cc</text>
</g>
<!-- Node2 -->
<g id="node2" class="node"><title>Node2</title>
<polygon fill="none" stroke="#bfbfbf" points="-0.5,-0.5 -0.5,-19.5 42.5,-19.5 42.5,-0.5 -0.5,-0.5"/>
<text text-anchor="middle" x="21" y="-7.5" font-family="Helvetica,sans-Serif" font-size="10.00">cstdio</text>
</g>
<!-- Node1&#45;&gt;Node2 -->
<g id="edge1" class="edge"><title>Node1&#45;&gt;Node2</title>
<path fill="none" stroke="midnightblue" d="M540.421,-301.624C412.015,-302.52 23,-296.528 23,-191 23,-191 23,-191 23,-133 23,-96.409 22.0894,-53.653 21.4971,-29.7108"/>
<polygon fill="midnightblue" stroke="midnightblue" points="24.9926,-29.485 21.2373,-19.5781 17.9949,-29.6645 24.9926,-29.485"/>
</g>
<!-- Node3 -->
<g id="node3" class="node"><title>Node3</title>
<polygon fill="none" stroke="#bfbfbf" points="984,-236.5 984,-255.5 1028,-255.5 1028,-236.5 984,-236.5"/>
<text text-anchor="middle" x="1006" y="-243.5" font-family="Helvetica,sans-Serif" font-size="10.00">cmath</text>
</g>
<!-- Node1&#45;&gt;Node3 -->
<g id="edge2" class="edge"><title>Node1&#45;&gt;Node3</title>
<path fill="none" stroke="midnightblue" d="M621.575,-298.051C692.605,-292.502 843.92,-278.952 970,-256 971.248,-255.773 972.517,-255.527 973.796,-255.268"/>
<polygon fill="midnightblue" stroke="midnightblue" points="974.633,-258.667 983.629,-253.07 973.107,-251.836 974.633,-258.667"/>
</g>
<!-- Node4 -->
<g id="node4" class="node"><title>Node4</title>
<polygon fill="none" stroke="#bfbfbf" points="827.5,-0.5 827.5,-19.5 868.5,-19.5 868.5,-0.5 827.5,-0.5"/>
<text text-anchor="middle" x="848" y="-7.5" font-family="Helvetica,sans-Serif" font-size="10.00">string</text>
</g>
<!-- Node1&#45;&gt;Node4 -->
<g id="edge3" class="edge"><title>Node1&#45;&gt;Node4</title>
<path fill="none" stroke="midnightblue" d="M621.535,-293.367C687.727,-278.359 816.144,-237.916 861,-144 877.874,-108.671 872.032,-94.5147 865,-56 863.312,-46.7575 859.825,-36.9479 856.446,-28.8546"/>
<polygon fill="midnightblue" stroke="midnightblue" points="859.631,-27.4045 852.366,-19.6928 853.237,-30.2518 859.631,-27.4045"/>
</g>
<!-- Node5 -->
<g id="node5" class="node"><title>Node5</title>
<g id="a_node5"><a xlink:href="libmoinfo_8h_source.html" target="_top" xlink:title="libmoinfo/libmoinfo.h">
<polygon fill="none" stroke="black" points="583,-236.5 583,-255.5 689,-255.5 689,-236.5 583,-236.5"/>
<text text-anchor="middle" x="636" y="-243.5" font-family="Helvetica,sans-Serif" font-size="10.00">libmoinfo/libmoinfo.h</text>
</a>
</g>
</g>
<!-- Node1&#45;&gt;Node5 -->
<g id="edge4" class="edge"><title>Node1&#45;&gt;Node5</title>
<path fill="none" stroke="midnightblue" d="M590.082,-292.083C598.171,-284.141 610.195,-272.335 619.91,-262.797"/>
<polygon fill="midnightblue" stroke="midnightblue" points="622.403,-265.254 627.087,-255.751 617.499,-260.26 622.403,-265.254"/>
</g>
<!-- Node17 -->
<g id="node17" class="node"><title>Node17</title>
<g id="a_node17"><a xlink:href="liboptions_8h_source.html" target="_top" xlink:title="liboptions/liboptions.h">
<polygon fill="none" stroke="black" points="295,-124.5 295,-143.5 405,-143.5 405,-124.5 295,-124.5"/>
<text text-anchor="middle" x="350" y="-131.5" font-family="Helvetica,sans-Serif" font-size="10.00">liboptions/liboptions.h</text>
</a>
</g>
</g>
<!-- Node1&#45;&gt;Node17 -->
<g id="edge25" class="edge"><title>Node1&#45;&gt;Node17</title>
<path fill="none" stroke="midnightblue" d="M540.173,-296.258C490.289,-289.674 409.821,-276.238 388,-256 359.03,-229.132 352.003,-180.478 350.39,-153.782"/>
<polygon fill="midnightblue" stroke="midnightblue" points="353.876,-153.365 349.977,-143.514 346.882,-153.647 353.876,-153.365"/>
</g>
<!-- Node24 -->
<g id="node24" class="node"><title>Node24</title>
<g id="a_node24"><a xlink:href="bin_2psimrcc_2blas_8h.html" target="_top" xlink:title="A class to perform contractions.">
<polygon fill="none" stroke="black" points="997.5,-180.5 997.5,-199.5 1040.5,-199.5 1040.5,-180.5 997.5,-180.5"/>
<text text-anchor="middle" x="1019" y="-187.5" font-family="Helvetica,sans-Serif" font-size="10.00">blas.h</text>
</a>
</g>
</g>
<!-- Node1&#45;&gt;Node24 -->
<g id="edge37" class="edge"><title>Node1&#45;&gt;Node24</title>
<path fill="none" stroke="midnightblue" d="M621.525,-298.402C701.435,-292.856 876.404,-278.502 932,-256 959.98,-244.676 986.988,-222.095 1003.3,-206.765"/>
<polygon fill="midnightblue" stroke="midnightblue" points="1006.05,-208.976 1010.8,-199.507 1001.18,-203.945 1006.05,-208.976"/>
</g>
<!-- Node31 -->
<g id="node31" class="node"><title>Node31</title>
<g id="a_node31"><a xlink:href="heff_8h_source.html" target="_top" xlink:title="heff.h">
<polygon fill="none" stroke="black" points="506.5,-236.5 506.5,-255.5 547.5,-255.5 547.5,-236.5 506.5,-236.5"/>
<text text-anchor="middle" x="527" y="-243.5" font-family="Helvetica,sans-Serif" font-size="10.00">heff.h</text>
</a>
</g>
</g>
<!-- Node1&#45;&gt;Node31 -->
<g id="edge50" class="edge"><title>Node1&#45;&gt;Node31</title>
<path fill="none" stroke="midnightblue" d="M572.083,-292.083C564.22,-284.22 552.569,-272.569 543.081,-263.081"/>
<polygon fill="midnightblue" stroke="midnightblue" points="545.297,-260.347 535.751,-255.751 540.347,-265.297 545.297,-260.347"/>
</g>
<!-- Node32 -->
<g id="node32" class="node"><title>Node32</title>
<g id="a_node32"><a xlink:href="updater_8h.html" target="_top" xlink:title="updater.h">
<polygon fill="none" stroke="black" points="397.5,-236.5 397.5,-255.5 454.5,-255.5 454.5,-236.5 397.5,-236.5"/>
<text text-anchor="middle" x="426" y="-243.5" font-family="Helvetica,sans-Serif" font-size="10.00">updater.h</text>
</a>
</g>
</g>
<!-- Node1&#45;&gt;Node32 -->
<g id="edge52" class="edge"><title>Node1&#45;&gt;Node32</title>
<path fill="none" stroke="midnightblue" d="M556.44,-292.444C530.477,-283.399 489.332,-269.064 460.203,-258.916"/>
<polygon fill="midnightblue" stroke="midnightblue" points="461.04,-255.501 450.445,-255.516 458.737,-262.112 461.04,-255.501"/>
</g>
<!-- Node6 -->
<g id="node6" class="node"><title>Node6</title>
<g id="a_node6"><a xlink:href="moinfo__base_8h.html" target="_top" xlink:title="This class stores all the basic info regarding MOs.">
<polygon fill="none" stroke="black" points="676,-124.5 676,-143.5 756,-143.5 756,-124.5 676,-124.5"/>
<text text-anchor="middle" x="716" y="-131.5" font-family="Helvetica,sans-Serif" font-size="10.00">moinfo_base.h</text>
</a>
</g>
</g>
<!-- Node5&#45;&gt;Node6 -->
<g id="edge5" class="edge"><title>Node5&#45;&gt;Node6</title>
<path fill="none" stroke="midnightblue" d="M643.385,-236.199C650.817,-227.244 662.506,-212.888 672,-200 683.707,-184.108 696.252,-165.391 704.939,-152.134"/>
<polygon fill="midnightblue" stroke="midnightblue" points="707.995,-153.854 710.515,-143.563 702.128,-150.036 707.995,-153.854"/>
</g>
<!-- Node10 -->
<g id="node10" class="node"><title>Node10</title>
<g id="a_node10"><a xlink:href="lib_2libmoinfo_2moinfo_8h_source.html" target="_top" xlink:title="moinfo.h">
<polygon fill="none" stroke="black" points="609,-180.5 609,-199.5 663,-199.5 663,-180.5 609,-180.5"/>
<text text-anchor="middle" x="636" y="-187.5" font-family="Helvetica,sans-Serif" font-size="10.00">moinfo.h</text>
</a>
</g>
</g>
<!-- Node5&#45;&gt;Node10 -->
<g id="edge11" class="edge"><title>Node5&#45;&gt;Node10</title>
<path fill="none" stroke="midnightblue" d="M636,-236.083C636,-229.006 636,-218.861 636,-209.986"/>
<polygon fill="midnightblue" stroke="midnightblue" points="639.5,-209.751 636,-199.751 632.5,-209.751 639.5,-209.751"/>
</g>
<!-- Node13 -->
<g id="node13" class="node"><title>Node13</title>
<g id="a_node13"><a xlink:href="moinfo__scf_8h.html" target="_top" xlink:title="This class stores all the basic info regarding MOs.">
<polygon fill="none" stroke="black" points="719.5,-180.5 719.5,-199.5 792.5,-199.5 792.5,-180.5 719.5,-180.5"/>
<text text-anchor="middle" x="756" y="-187.5" font-family="Helvetica,sans-Serif" font-size="10.00">moinfo_scf.h</text>
</a>
</g>
</g>
<!-- Node5&#45;&gt;Node13 -->
<g id="edge17" class="edge"><title>Node5&#45;&gt;Node13</title>
<path fill="none" stroke="midnightblue" d="M655.014,-236.444C674.588,-227.636 705.308,-213.812 727.729,-203.722"/>
<polygon fill="midnightblue" stroke="midnightblue" points="729.392,-206.812 737.075,-199.516 726.519,-200.428 729.392,-206.812"/>
</g>
<!-- Node14 -->
<g id="node14" class="node"><title>Node14</title>
<g id="a_node14"><a xlink:href="model__space_8h.html" target="_top" xlink:title="This class stores all the basic info regarding the model space.">
<polygon fill="none" stroke="black" points="483.5,-180.5 483.5,-199.5 566.5,-199.5 566.5,-180.5 483.5,-180.5"/>
<text text-anchor="middle" x="525" y="-187.5" font-family="Helvetica,sans-Serif" font-size="10.00">model_space.h</text>
</a>
</g>
</g>
<!-- Node5&#45;&gt;Node14 -->
<g id="edge20" class="edge"><title>Node5&#45;&gt;Node14</title>
<path fill="none" stroke="midnightblue" d="M618.166,-236.324C600.284,-227.625 572.525,-214.12 551.954,-204.113"/>
<polygon fill="midnightblue" stroke="midnightblue" points="553.313,-200.882 542.79,-199.655 550.251,-207.177 553.313,-200.882"/>
</g>
<!-- Node6&#45;&gt;Node4 -->
<g id="edge6" class="edge"><title>Node6&#45;&gt;Node4</title>
<path fill="none" stroke="midnightblue" d="M756.071,-125.137C778.852,-118.729 806.281,-107.442 824,-88 838.561,-72.0237 844.288,-47.3152 846.54,-30.2158"/>
<polygon fill="midnightblue" stroke="midnightblue" points="850.071,-30.0993 847.61,-19.7941 843.107,-29.3843 850.071,-30.0993"/>
</g>
<!-- Node7 -->
<g id="node7" class="node"><title>Node7</title>
<g id="a_node7"><a xlink:href="libutil_8h_source.html" target="_top" xlink:title="libutil/libutil.h">
<polygon fill="none" stroke="black" points="578.5,-62.5 578.5,-81.5 651.5,-81.5 651.5,-62.5 578.5,-62.5"/>
<text text-anchor="middle" x="615" y="-69.5" font-family="Helvetica,sans-Serif" font-size="10.00">libutil/libutil.h</text>
</a>
</g>
</g>
<!-- Node6&#45;&gt;Node7 -->
<g id="edge7" class="edge"><title>Node6&#45;&gt;Node7</title>
<path fill="none" stroke="midnightblue" d="M701.529,-124.403C684.954,-114.557 657.574,-98.2915 638.053,-86.6949"/>
<polygon fill="midnightblue" stroke="midnightblue" points="639.829,-83.6789 629.444,-81.5806 636.254,-89.6971 639.829,-83.6789"/>
</g>
<!-- Node7&#45;&gt;Node4 -->
<g id="edge8" class="edge"><title>Node7&#45;&gt;Node4</title>
<path fill="none" stroke="midnightblue" d="M643.263,-62.4487C650.645,-60.2806 658.606,-58.0005 666,-56 719.046,-41.6485 781.285,-26.6541 817.518,-18.107"/>
<polygon fill="midnightblue" stroke="midnightblue" points="818.521,-21.4668 827.454,-15.7711 816.919,-14.6526 818.521,-21.4668"/>
</g>
<!-- Node8 -->
<g id="node8" class="node"><title>Node8</title>
<polygon fill="none" stroke="#bfbfbf" points="484,-0.5 484,-19.5 528,-19.5 528,-0.5 484,-0.5"/>
<text text-anchor="middle" x="506" y="-7.5" font-family="Helvetica,sans-Serif" font-size="10.00">vector</text>
</g>
<!-- Node7&#45;&gt;Node8 -->
<g id="edge9" class="edge"><title>Node7&#45;&gt;Node8</title>
<path fill="none" stroke="midnightblue" d="M599.383,-62.4035C581.414,-52.5123 551.679,-36.1442 530.594,-24.5378"/>
<polygon fill="midnightblue" stroke="midnightblue" points="532.036,-21.3367 521.588,-19.5806 528.661,-27.4691 532.036,-21.3367"/>
</g>
<!-- Node9 -->
<g id="node9" class="node"><title>Node9</title>
<polygon fill="none" stroke="#bfbfbf" points="584,-0.5 584,-19.5 646,-19.5 646,-0.5 584,-0.5"/>
<text text-anchor="middle" x="615" y="-7.5" font-family="Helvetica,sans-Serif" font-size="10.00">sys/time.h</text>
</g>
<!-- Node7&#45;&gt;Node9 -->
<g id="edge10" class="edge"><title>Node7&#45;&gt;Node9</title>
<path fill="none" stroke="midnightblue" d="M615,-62.4035C615,-53.9381 615,-40.7283 615,-29.8199"/>
<polygon fill="midnightblue" stroke="midnightblue" points="618.5,-29.5806 615,-19.5806 611.5,-29.5806 618.5,-29.5806"/>
</g>
<!-- Node11 -->
<g id="node11" class="node"><title>Node11</title>
<polygon fill="none" stroke="#bfbfbf" points="578.5,-124.5 578.5,-143.5 619.5,-143.5 619.5,-124.5 578.5,-124.5"/>
<text text-anchor="middle" x="599" y="-131.5" font-family="Helvetica,sans-Serif" font-size="10.00">bitset</text>
</g>
<!-- Node10&#45;&gt;Node11 -->
<g id="edge12" class="edge"><title>Node10&#45;&gt;Node11</title>
<path fill="none" stroke="midnightblue" d="M629.89,-180.083C624.718,-172.534 617.154,-161.495 610.806,-152.23"/>
<polygon fill="midnightblue" stroke="midnightblue" points="613.536,-150.022 604.996,-143.751 607.761,-153.979 613.536,-150.022"/>
</g>
<!-- Node10&#45;&gt;Node4 -->
<g id="edge13" class="edge"><title>Node10&#45;&gt;Node4</title>
<path fill="none" stroke="midnightblue" d="M638.032,-180.241C641.635,-166.524 650.376,-139.902 667,-124 696.647,-95.641 716.776,-109.034 752,-88 782.224,-69.9517 813.31,-43.2392 831.628,-26.4916"/>
<polygon fill="midnightblue" stroke="midnightblue" points="834.145,-28.9311 839.097,-19.565 829.385,-23.7985 834.145,-28.9311"/>
</g>
<!-- Node10&#45;&gt;Node8 -->
<g id="edge14" class="edge"><title>Node10&#45;&gt;Node8</title>
<path fill="none" stroke="midnightblue" d="M617.705,-180.369C602.917,-172.612 582.422,-159.992 569,-144 541.497,-111.232 548.745,-94.4545 530,-56 525.532,-46.8335 520.226,-36.8068 515.741,-28.5492"/>
<polygon fill="midnightblue" stroke="midnightblue" points="518.67,-26.6115 510.789,-19.5308 512.535,-29.9809 518.67,-26.6115"/>
</g>
<!-- Node12 -->
<g id="node12" class="node"><title>Node12</title>
<polygon fill="none" stroke="#bfbfbf" points="812,-124.5 812,-143.5 852,-143.5 852,-124.5 812,-124.5"/>
<text text-anchor="middle" x="832" y="-131.5" font-family="Helvetica,sans-Serif" font-size="10.00">utility</text>
</g>
<!-- Node10&#45;&gt;Node12 -->
<g id="edge15" class="edge"><title>Node10&#45;&gt;Node12</title>
<path fill="none" stroke="midnightblue" d="M663.253,-181.492C699.693,-171.452 764.076,-153.714 801.905,-143.291"/>
<polygon fill="midnightblue" stroke="midnightblue" points="803.115,-146.589 811.826,-140.558 801.255,-139.84 803.115,-146.589"/>
</g>
<!-- Node10&#45;&gt;Node6 -->
<g id="edge16" class="edge"><title>Node10&#45;&gt;Node6</title>
<path fill="none" stroke="midnightblue" d="M648.853,-180.324C661.216,-171.979 680.13,-159.212 694.737,-149.352"/>
<polygon fill="midnightblue" stroke="midnightblue" points="696.848,-152.15 703.179,-143.655 692.932,-146.348 696.848,-152.15"/>
</g>
<!-- Node13&#45;&gt;Node4 -->
<g id="edge18" class="edge"><title>Node13&#45;&gt;Node4</title>
<path fill="none" stroke="midnightblue" d="M761.155,-180.471C769.198,-167.518 785.621,-142.448 803,-124 820.325,-105.608 836.032,-110.762 847,-88 855.865,-69.6029 854.507,-45.7461 851.969,-29.4949"/>
<polygon fill="midnightblue" stroke="midnightblue" points="855.402,-28.8124 850.135,-19.6196 848.52,-30.0906 855.402,-28.8124"/>
</g>
<!-- Node13&#45;&gt;Node6 -->
<g id="edge19" class="edge"><title>Node13&#45;&gt;Node6</title>
<path fill="none" stroke="midnightblue" d="M749.395,-180.083C743.745,-172.455 735.455,-161.264 728.549,-151.941"/>
<polygon fill="midnightblue" stroke="midnightblue" points="731.247,-149.703 722.482,-143.751 725.622,-153.87 731.247,-149.703"/>
</g>
<!-- Node15 -->
<g id="node15" class="node"><title>Node15</title>
<g id="a_node15"><a xlink:href="slater__determinant_8h.html" target="_top" xlink:title="This class stores all the basic info regarding a Slater determinant.">
<polygon fill="none" stroke="black" points="416.5,-62.5 416.5,-81.5 521.5,-81.5 521.5,-62.5 416.5,-62.5"/>
<text text-anchor="middle" x="469" y="-69.5" font-family="Helvetica,sans-Serif" font-size="10.00">slater_determinant.h</text>
</a>
</g>
</g>
<!-- Node14&#45;&gt;Node15 -->
<g id="edge21" class="edge"><title>Node14&#45;&gt;Node15</title>
<path fill="none" stroke="midnightblue" d="M520.791,-180.281C511.625,-161.294 489.706,-115.892 477.527,-90.6624"/>
<polygon fill="midnightblue" stroke="midnightblue" points="480.605,-88.9887 473.106,-81.5048 474.301,-92.0319 480.605,-88.9887"/>
</g>
<!-- Node16 -->
<g id="node16" class="node"><title>Node16</title>
<polygon fill="none" stroke="#bfbfbf" points="328.5,-0.5 328.5,-19.5 373.5,-19.5 373.5,-0.5 328.5,-0.5"/>
<text text-anchor="middle" x="351" y="-7.5" font-family="Helvetica,sans-Serif" font-size="10.00">cstdlib</text>
</g>
<!-- Node15&#45;&gt;Node16 -->
<g id="edge22" class="edge"><title>Node15&#45;&gt;Node16</title>
<path fill="none" stroke="midnightblue" d="M452.093,-62.4035C432.466,-52.4232 399.869,-35.8487 377.01,-24.2253"/>
<polygon fill="midnightblue" stroke="midnightblue" points="378.375,-20.9933 367.875,-19.5806 375.203,-27.233 378.375,-20.9933"/>
</g>
<!-- Node15&#45;&gt;Node8 -->
<g id="edge23" class="edge"><title>Node15&#45;&gt;Node8</title>
<path fill="none" stroke="midnightblue" d="M474.301,-62.4035C479.796,-53.4925 488.533,-39.3247 495.444,-28.1177"/>
<polygon fill="midnightblue" stroke="midnightblue" points="498.439,-29.9294 500.709,-19.5806 492.481,-26.2552 498.439,-29.9294"/>
</g>
<!-- Node15&#45;&gt;Node4 -->
<g id="edge24" class="edge"><title>Node15&#45;&gt;Node4</title>
<path fill="none" stroke="midnightblue" d="M521.698,-62.6573C602.042,-49.938 752.635,-26.0973 817.261,-15.8664"/>
<polygon fill="midnightblue" stroke="midnightblue" points="817.898,-19.3092 827.227,-14.2885 816.803,-12.3953 817.898,-19.3092"/>
</g>
<!-- Node17&#45;&gt;Node4 -->
<g id="edge26" class="edge"><title>Node17&#45;&gt;Node4</title>
<path fill="none" stroke="midnightblue" d="M405.078,-133.781C469.029,-132.742 576.415,-124.891 660,-88 680.512,-78.9468 679.219,-66.5563 699,-56 737.446,-35.4827 786.584,-22.9573 817.685,-16.497"/>
<polygon fill="midnightblue" stroke="midnightblue" points="818.379,-19.9275 827.5,-14.5358 817.008,-13.0632 818.379,-19.9275"/>
</g>
<!-- Node17&#45;&gt;Node8 -->
<g id="edge27" class="edge"><title>Node17&#45;&gt;Node8</title>
<path fill="none" stroke="midnightblue" d="M350.247,-124.334C351.165,-108.592 355.34,-75.1593 374,-56 400.404,-28.8892 443.774,-18.1087 473.548,-13.8237"/>
<polygon fill="midnightblue" stroke="midnightblue" points="474.365,-17.2484 483.846,-12.5206 473.486,-10.3037 474.365,-17.2484"/>
</g>
<!-- Node18 -->
<g id="node18" class="node"><title>Node18</title>
<polygon fill="none" stroke="#bfbfbf" points="708.5,-62.5 708.5,-81.5 743.5,-81.5 743.5,-62.5 708.5,-62.5"/>
<text text-anchor="middle" x="726" y="-69.5" font-family="Helvetica,sans-Serif" font-size="10.00">map</text>
</g>
<!-- Node17&#45;&gt;Node18 -->
<g id="edge28" class="edge"><title>Node17&#45;&gt;Node18</title>
<path fill="none" stroke="midnightblue" d="M405.287,-130.995C474.158,-127.316 594.848,-116.964 694,-88 696.286,-87.3323 698.614,-86.5222 700.919,-85.6284"/>
<polygon fill="midnightblue" stroke="midnightblue" points="702.327,-88.8328 710.099,-81.6319 699.533,-82.4146 702.327,-88.8328"/>
</g>
<!-- Node19 -->
<g id="node19" class="node"><title>Node19</title>
<polygon fill="none" stroke="#bfbfbf" points="134.5,-62.5 134.5,-81.5 201.5,-81.5 201.5,-62.5 134.5,-62.5"/>
<text text-anchor="middle" x="168" y="-69.5" font-family="Helvetica,sans-Serif" font-size="10.00">exception.h</text>
</g>
<!-- Node17&#45;&gt;Node19 -->
<g id="edge29" class="edge"><title>Node17&#45;&gt;Node19</title>
<path fill="none" stroke="midnightblue" d="M323.034,-124.468C294.986,-115.548 249.828,-101.056 211,-88 207.927,-86.9669 204.736,-85.8799 201.543,-84.7829"/>
<polygon fill="midnightblue" stroke="midnightblue" points="202.669,-81.469 192.074,-81.5052 200.379,-88.0839 202.669,-81.469"/>
</g>
<!-- Node17&#45;&gt;Node7 -->
<g id="edge30" class="edge"><title>Node17&#45;&gt;Node7</title>
<path fill="none" stroke="midnightblue" d="M387.687,-124.467C435.244,-113.7 517.021,-95.1839 568.437,-83.5426"/>
<polygon fill="midnightblue" stroke="midnightblue" points="569.316,-86.9323 578.296,-81.3104 567.77,-80.1051 569.316,-86.9323"/>
</g>
<!-- Node20 -->
<g id="node20" class="node"><title>Node20</title>
<g id="a_node20"><a xlink:href="libutil_2ref_8h_source.html" target="_top" xlink:title="libutil/ref.h">
<polygon fill="none" stroke="black" points="54,-62.5 54,-81.5 116,-81.5 116,-62.5 54,-62.5"/>
<text text-anchor="middle" x="85" y="-69.5" font-family="Helvetica,sans-Serif" font-size="10.00">libutil/ref.h</text>
</a>
</g>
</g>
<!-- Node17&#45;&gt;Node20 -->
<g id="edge31" class="edge"><title>Node17&#45;&gt;Node20</title>
<path fill="none" stroke="midnightblue" d="M294.85,-124.527C248.933,-116.865 182.076,-104.294 125,-88 121.862,-87.1042 118.621,-86.0732 115.405,-84.9799"/>
<polygon fill="midnightblue" stroke="midnightblue" points="116.556,-81.6743 105.961,-81.5864 114.189,-88.2619 116.556,-81.6743"/>
</g>
<!-- Node23 -->
<g id="node23" class="node"><title>Node23</title>
<polygon fill="none" stroke="#bfbfbf" points="220,-57 220,-87 322,-87 322,-57 220,-57"/>
<text text-anchor="start" x="228" y="-75" font-family="Helvetica,sans-Serif" font-size="10.00">boost/python/object</text>
<text text-anchor="middle" x="271" y="-64" font-family="Helvetica,sans-Serif" font-size="10.00">_fwd.hpp</text>
</g>
<!-- Node17&#45;&gt;Node23 -->
<g id="edge36" class="edge"><title>Node17&#45;&gt;Node23</title>
<path fill="none" stroke="midnightblue" d="M338.681,-124.403C328.082,-116.353 311.833,-104.013 297.914,-93.4406"/>
<polygon fill="midnightblue" stroke="midnightblue" points="299.699,-90.4019 289.619,-87.1408 295.465,-95.9764 299.699,-90.4019"/>
</g>
<!-- Node21 -->
<g id="node21" class="node"><title>Node21</title>
<polygon fill="none" stroke="#bfbfbf" points="131.5,-0.5 131.5,-19.5 180.5,-19.5 180.5,-0.5 131.5,-0.5"/>
<text text-anchor="middle" x="156" y="-7.5" font-family="Helvetica,sans-Serif" font-size="10.00">cstddef</text>
</g>
<!-- Node20&#45;&gt;Node21 -->
<g id="edge32" class="edge"><title>Node20&#45;&gt;Node21</title>
<path fill="none" stroke="midnightblue" d="M95.1726,-62.4035C106.35,-52.9579 124.517,-37.6056 138.091,-26.1342"/>
<polygon fill="midnightblue" stroke="midnightblue" points="140.467,-28.7085 145.846,-19.5806 135.949,-23.3619 140.467,-28.7085"/>
</g>
<!-- Node20&#45;&gt;Node2 -->
<g id="edge33" class="edge"><title>Node20&#45;&gt;Node2</title>
<path fill="none" stroke="midnightblue" d="M75.8304,-62.4035C65.8501,-53.047 49.6877,-37.8948 37.4905,-26.4599"/>
<polygon fill="midnightblue" stroke="midnightblue" points="39.8418,-23.8666 30.1526,-19.5806 35.0542,-28.9734 39.8418,-23.8666"/>
</g>
<!-- Node20&#45;&gt;Node16 -->
<g id="edge34" class="edge"><title>Node20&#45;&gt;Node16</title>
<path fill="none" stroke="midnightblue" d="M105.96,-62.4102C112.035,-60.1205 118.723,-57.789 125,-56 192.675,-36.7112 274.048,-22.6842 318.345,-15.7947"/>
<polygon fill="midnightblue" stroke="midnightblue" points="318.902,-19.2501 328.257,-14.2763 317.842,-12.3308 318.902,-19.2501"/>
</g>
<!-- Node22 -->
<g id="node22" class="node"><title>Node22</title>
<polygon fill="none" stroke="#bfbfbf" points="61,-0.5 61,-19.5 113,-19.5 113,-0.5 61,-0.5"/>
<text text-anchor="middle" x="87" y="-7.5" font-family="Helvetica,sans-Serif" font-size="10.00">assert.h</text>
</g>
<!-- Node20&#45;&gt;Node22 -->
<g id="edge35" class="edge"><title>Node20&#45;&gt;Node22</title>
<path fill="none" stroke="midnightblue" d="M85.2866,-62.4035C85.5687,-53.9381 86.0091,-40.7283 86.3727,-29.8199"/>
<polygon fill="midnightblue" stroke="midnightblue" points="89.8788,-29.6917 86.714,-19.5806 82.8827,-29.4584 89.8788,-29.6917"/>
</g>
<!-- Node25 -->
<g id="node25" class="node"><title>Node25</title>
<polygon fill="none" stroke="#bfbfbf" points="1022.5,-124.5 1022.5,-143.5 1065.5,-143.5 1065.5,-124.5 1022.5,-124.5"/>
<text text-anchor="middle" x="1044" y="-131.5" font-family="Helvetica,sans-Serif" font-size="10.00">deque</text>
</g>
<!-- Node24&#45;&gt;Node25 -->
<g id="edge38" class="edge"><title>Node24&#45;&gt;Node25</title>
<path fill="none" stroke="midnightblue" d="M1023.13,-180.083C1026.51,-172.77 1031.42,-162.181 1035.62,-153.103"/>
<polygon fill="midnightblue" stroke="midnightblue" points="1038.92,-154.296 1039.95,-143.751 1032.57,-151.355 1038.92,-154.296"/>
</g>
<!-- Node24&#45;&gt;Node4 -->
<g id="edge39" class="edge"><title>Node24&#45;&gt;Node4</title>
<path fill="none" stroke="midnightblue" d="M1036.2,-180.386C1049.25,-172.794 1066.23,-160.389 1074,-144 1091.57,-106.918 1037.67,-61.4678 1030,-56 984.217,-23.3537 917.343,-14.276 878.693,-11.8243"/>
<polygon fill="midnightblue" stroke="midnightblue" points="878.751,-8.32263 868.581,-11.2944 878.384,-15.313 878.751,-8.32263"/>
</g>
<!-- Node24&#45;&gt;Node8 -->
<g id="edge40" class="edge"><title>Node24&#45;&gt;Node8</title>
<path fill="none" stroke="midnightblue" d="M1004.15,-180.455C981.799,-167.695 938.079,-143.119 900,-124 835.308,-91.519 821.03,-77.7937 752,-56 712.536,-43.5407 595.433,-24.6837 538.205,-15.8663"/>
<polygon fill="midnightblue" stroke="midnightblue" points="538.663,-12.3957 528.249,-14.3405 537.603,-19.315 538.663,-12.3957"/>
</g>
<!-- Node24&#45;&gt;Node18 -->
<g id="edge41" class="edge"><title>Node24&#45;&gt;Node18</title>
<path fill="none" stroke="midnightblue" d="M999.184,-180.444C969.387,-167.671 911.183,-143.076 861,-124 815.671,-106.769 802.902,-106.315 758,-88 756.36,-87.3309 754.682,-86.6219 752.997,-85.8905"/>
<polygon fill="midnightblue" stroke="midnightblue" points="754.016,-82.5103 743.462,-81.5788 751.132,-88.8884 754.016,-82.5103"/>
</g>
<!-- Node24&#45;&gt;Node12 -->
<g id="edge42" class="edge"><title>Node24&#45;&gt;Node12</title>
<path fill="none" stroke="midnightblue" d="M997.183,-182.7C963.806,-173.062 899.973,-154.629 862.179,-143.715"/>
<polygon fill="midnightblue" stroke="midnightblue" points="862.835,-140.261 852.256,-140.849 860.892,-146.986 862.835,-140.261"/>
</g>
<!-- Node24&#45;&gt;Node17 -->
<g id="edge43" class="edge"><title>Node24&#45;&gt;Node17</title>
<path fill="none" stroke="midnightblue" d="M997.499,-187.264C907.787,-180.023 561.219,-152.049 415.323,-140.273"/>
<polygon fill="midnightblue" stroke="midnightblue" points="415.421,-136.769 405.172,-139.453 414.858,-143.747 415.421,-136.769"/>
</g>
<!-- Node26 -->
<g id="node26" class="node"><title>Node26</title>
<g id="a_node26"><a xlink:href="matrixtmp_8h_source.html" target="_top" xlink:title="matrixtmp.h">
<polygon fill="none" stroke="black" points="1122,-124.5 1122,-143.5 1190,-143.5 1190,-124.5 1122,-124.5"/>
<text text-anchor="middle" x="1156" y="-131.5" font-family="Helvetica,sans-Serif" font-size="10.00">matrixtmp.h</text>
</a>
</g>
</g>
<!-- Node24&#45;&gt;Node26 -->
<g id="edge44" class="edge"><title>Node24&#45;&gt;Node26</title>
<path fill="none" stroke="midnightblue" d="M1040.71,-180.444C1063.35,-171.517 1099.07,-157.439 1124.75,-147.317"/>
<polygon fill="midnightblue" stroke="midnightblue" points="1126.37,-150.44 1134.39,-143.516 1123.81,-143.927 1126.37,-150.44"/>
</g>
<!-- Node27 -->
<g id="node27" class="node"><title>Node27</title>
<g id="a_node27"><a xlink:href="operation_8h_source.html" target="_top" xlink:title="operation.h">
<polygon fill="none" stroke="black" points="956.5,-62.5 956.5,-81.5 1021.5,-81.5 1021.5,-62.5 956.5,-62.5"/>
<text text-anchor="middle" x="989" y="-69.5" font-family="Helvetica,sans-Serif" font-size="10.00">operation.h</text>
</a>
</g>
</g>
<!-- Node24&#45;&gt;Node27 -->
<g id="edge45" class="edge"><title>Node24&#45;&gt;Node27</title>
<path fill="none" stroke="midnightblue" d="M1016.75,-180.281C1011.88,-161.463 1000.3,-116.697 993.743,-91.3399"/>
<polygon fill="midnightblue" stroke="midnightblue" points="997.092,-90.3099 991.2,-81.5048 990.315,-92.0626 997.092,-90.3099"/>
</g>
<!-- Node28 -->
<g id="node28" class="node"><title>Node28</title>
<g id="a_node28"><a xlink:href="index__types_8h_source.html" target="_top" xlink:title="index_types.h">
<polygon fill="none" stroke="black" points="1208.5,-124.5 1208.5,-143.5 1285.5,-143.5 1285.5,-124.5 1208.5,-124.5"/>
<text text-anchor="middle" x="1247" y="-131.5" font-family="Helvetica,sans-Serif" font-size="10.00">index_types.h</text>
</a>
</g>
</g>
<!-- Node24&#45;&gt;Node28 -->
<g id="edge47" class="edge"><title>Node24&#45;&gt;Node28</title>
<path fill="none" stroke="midnightblue" d="M1040.86,-183.822C1077.59,-175.123 1152.44,-157.395 1201.12,-145.865"/>
<polygon fill="midnightblue" stroke="midnightblue" points="1202.17,-149.215 1211.09,-143.505 1200.55,-142.404 1202.17,-149.215"/>
</g>
<!-- Node29 -->
<g id="node29" class="node"><title>Node29</title>
<g id="a_node29"><a xlink:href="matrix__types_8h_source.html" target="_top" xlink:title="matrix_types.h">
<polygon fill="none" stroke="black" points="1303.5,-124.5 1303.5,-143.5 1384.5,-143.5 1384.5,-124.5 1303.5,-124.5"/>
<text text-anchor="middle" x="1344" y="-131.5" font-family="Helvetica,sans-Serif" font-size="10.00">matrix_types.h</text>
</a>
</g>
</g>
<!-- Node24&#45;&gt;Node29 -->
<g id="edge48" class="edge"><title>Node24&#45;&gt;Node29</title>
<path fill="none" stroke="midnightblue" d="M1040.77,-185.559C1085.79,-178.415 1192.65,-161.328 1293.32,-144.094"/>
<polygon fill="midnightblue" stroke="midnightblue" points="1294.09,-147.514 1303.35,-142.373 1292.9,-140.614 1294.09,-147.514"/>
</g>
<!-- Node30 -->
<g id="node30" class="node"><title>Node30</title>
<g id="a_node30"><a xlink:href="types_8h_source.html" target="_top" xlink:title="types.h">
<polygon fill="none" stroke="black" points="1402.5,-124.5 1402.5,-143.5 1451.5,-143.5 1451.5,-124.5 1402.5,-124.5"/>
<text text-anchor="middle" x="1427" y="-131.5" font-family="Helvetica,sans-Serif" font-size="10.00">types.h</text>
</a>
</g>
</g>
<!-- Node24&#45;&gt;Node30 -->
<g id="edge49" class="edge"><title>Node24&#45;&gt;Node30</title>
<path fill="none" stroke="midnightblue" d="M1040.66,-187.453C1097,-183.207 1252.83,-170.044 1392.2,-143.894"/>
<polygon fill="midnightblue" stroke="midnightblue" points="1393.04,-147.297 1402.21,-141.988 1391.73,-140.421 1393.04,-147.297"/>
</g>
<!-- Node27&#45;&gt;Node4 -->
<g id="edge46" class="edge"><title>Node27&#45;&gt;Node4</title>
<path fill="none" stroke="midnightblue" d="M968.798,-62.4035C944.926,-52.245 904.998,-35.2547 877.627,-23.6074"/>
<polygon fill="midnightblue" stroke="midnightblue" points="878.736,-20.2757 868.164,-19.5806 875.995,-26.7167 878.736,-20.2757"/>
</g>
<!-- Node31&#45;&gt;Node8 -->
<g id="edge51" class="edge"><title>Node31&#45;&gt;Node8</title>
<path fill="none" stroke="midnightblue" d="M514.629,-236.341C503.192,-227.934 486.174,-214.366 474,-200 436.5,-155.747 422.447,-143.91 407,-88 403.213,-74.2913 399.3,-67.9577 407,-56 421.625,-33.2871 450.829,-21.9059 473.746,-16.2847"/>
<polygon fill="midnightblue" stroke="midnightblue" points="474.741,-19.6498 483.758,-14.0874 473.24,-12.8125 474.741,-19.6498"/>
</g>
<!-- Node32&#45;&gt;Node17 -->
<g id="edge53" class="edge"><title>Node32&#45;&gt;Node17</title>
<path fill="none" stroke="midnightblue" d="M420.036,-236.368C407.494,-218.215 378.19,-175.802 361.739,-151.99"/>
<polygon fill="midnightblue" stroke="midnightblue" points="364.5,-149.829 355.936,-143.591 358.741,-153.808 364.5,-149.829"/>
</g>
</g>
</svg>
