<?xml version="1.0" encoding="UTF-8" standalone="no"?>
<!DOCTYPE svg PUBLIC "-//W3C//DTD SVG 1.1//EN"
 "http://www.w3.org/Graphics/SVG/1.1/DTD/svg11.dtd">
<!-- Generated by graphviz version 2.30.1 (20140110.0959)
 -->
<!-- Title: updater.h Pages: 1 -->
<svg width="169pt" height="84pt"
 viewBox="0.00 0.00 169.00 84.00" xmlns="http://www.w3.org/2000/svg" xmlns:xlink="http://www.w3.org/1999/xlink">
<g id="graph0" class="graph" transform="scale(1 1) rotate(0) translate(4 80)">
<title>updater.h</title>
<!-- Node1 -->
<g id="node1" class="node"><title>Node1</title>
<polygon fill="#bfbfbf" stroke="black" points="47.5,-56.5 47.5,-75.5 104.5,-75.5 104.5,-56.5 47.5,-56.5"/>
<text text-anchor="middle" x="76" y="-63.5" font-family="Helvetica,sans-Serif" font-size="10.00">updater.h</text>
</g>
<!-- Node2 -->
<g id="node2" class="node"><title>Node2</title>
<g id="a_node2"><a xlink:href="updater_8cc.html" target="_top" xlink:title="Contains methods for updating the CC equations.">
<polygon fill="none" stroke="black" points="0,-0.5 0,-19.5 62,-19.5 62,-0.5 0,-0.5"/>
<text text-anchor="middle" x="31" y="-7.5" font-family="Helvetica,sans-Serif" font-size="10.00">updater.cc</text>
</a>
</g>
</g>
<!-- Node1&#45;&gt;Node2 -->
<g id="edge1" class="edge"><title>Node1&#45;&gt;Node2</title>
<path fill="none" stroke="midnightblue" d="M61.9533,-48.144C54.1131,-38.7357 44.6705,-27.4046 38.2926,-19.7511"/>
<polygon fill="midnightblue" stroke="midnightblue" points="59.4785,-50.6414 68.5692,-56.083 64.8561,-46.1601 59.4785,-50.6414"/>
</g>
<!-- Node3 -->
<g id="node3" class="node"><title>Node3</title>
<g id="a_node3"><a xlink:href="updater__mk_8cc.html" target="_top" xlink:title="Contains methods for updating the CC equations.">
<polygon fill="none" stroke="black" points="80.5,-0.5 80.5,-19.5 161.5,-19.5 161.5,-0.5 80.5,-0.5"/>
<text text-anchor="middle" x="121" y="-7.5" font-family="Helvetica,sans-Serif" font-size="10.00">updater_mk.cc</text>
</a>
</g>
</g>
<!-- Node1&#45;&gt;Node3 -->
<g id="edge2" class="edge"><title>Node1&#45;&gt;Node3</title>
<path fill="none" stroke="midnightblue" d="M90.0467,-48.144C97.8869,-38.7357 107.329,-27.4046 113.707,-19.7511"/>
<polygon fill="midnightblue" stroke="midnightblue" points="87.1439,-46.1601 83.4308,-56.083 92.5215,-50.6414 87.1439,-46.1601"/>
</g>
</g>
</svg>
