<?xml version="1.0" encoding="UTF-8" standalone="no"?>
<!DOCTYPE svg PUBLIC "-//W3C//DTD SVG 1.1//EN"
 "http://www.w3.org/Graphics/SVG/1.1/DTD/svg11.dtd">
<!-- Generated by graphviz version 2.30.1 (20140110.0959)
 -->
<!-- Title: updater.cc Pages: 1 -->
<svg width="1385pt" height="320pt"
 viewBox="0.00 0.00 1385.34 320.00" xmlns="http://www.w3.org/2000/svg" xmlns:xlink="http://www.w3.org/1999/xlink">
<g id="graph0" class="graph" transform="scale(1 1) rotate(0) translate(4 316)">
<title>updater.cc</title>
<!-- Node1 -->
<g id="node1" class="node"><title>Node1</title>
<polygon fill="#bfbfbf" stroke="black" points="703,-292.5 703,-311.5 765,-311.5 765,-292.5 703,-292.5"/>
<text text-anchor="middle" x="734" y="-299.5" font-family="Helvetica,sans-Serif" font-size="10.00">updater.cc</text>
</g>
<!-- Node2 -->
<g id="node2" class="node"><title>Node2</title>
<polygon fill="none" stroke="#bfbfbf" points="770,-0.5 770,-19.5 814,-19.5 814,-0.5 770,-0.5"/>
<text text-anchor="middle" x="792" y="-7.5" font-family="Helvetica,sans-Serif" font-size="10.00">vector</text>
</g>
<!-- Node1&#45;&gt;Node2 -->
<g id="edge1" class="edge"><title>Node1&#45;&gt;Node2</title>
<path fill="none" stroke="midnightblue" d="M735.834,-292.492C742.009,-263.764 762.526,-167.695 778,-88 781.876,-68.0366 786.005,-45.0963 788.767,-29.484"/>
<polygon fill="midnightblue" stroke="midnightblue" points="792.227,-30.0134 790.513,-19.5582 785.333,-28.8007 792.227,-30.0134"/>
</g>
<!-- Node3 -->
<g id="node3" class="node"><title>Node3</title>
<polygon fill="none" stroke="#bfbfbf" points="-0.5,-0.5 -0.5,-19.5 42.5,-19.5 42.5,-0.5 -0.5,-0.5"/>
<text text-anchor="middle" x="21" y="-7.5" font-family="Helvetica,sans-Serif" font-size="10.00">cstdio</text>
</g>
<!-- Node1&#45;&gt;Node3 -->
<g id="edge2" class="edge"><title>Node1&#45;&gt;Node3</title>
<path fill="none" stroke="midnightblue" d="M702.992,-299.529C566.145,-292.635 23,-260.869 23,-191 23,-191 23,-191 23,-133 23,-96.409 22.0894,-53.653 21.4971,-29.7108"/>
<polygon fill="midnightblue" stroke="midnightblue" points="24.9926,-29.485 21.2373,-19.5781 17.9949,-29.6645 24.9926,-29.485"/>
</g>
<!-- Node4 -->
<g id="node4" class="node"><title>Node4</title>
<g id="a_node4"><a xlink:href="libmoinfo_8h_source.html" target="_top" xlink:title="libmoinfo/libmoinfo.h">
<polygon fill="none" stroke="black" points="342,-236.5 342,-255.5 448,-255.5 448,-236.5 342,-236.5"/>
<text text-anchor="middle" x="395" y="-243.5" font-family="Helvetica,sans-Serif" font-size="10.00">libmoinfo/libmoinfo.h</text>
</a>
</g>
</g>
<!-- Node1&#45;&gt;Node4 -->
<g id="edge3" class="edge"><title>Node1&#45;&gt;Node4</title>
<path fill="none" stroke="midnightblue" d="M702.715,-296.017C647.297,-287.189 530.888,-268.646 458.203,-257.068"/>
<polygon fill="midnightblue" stroke="midnightblue" points="458.674,-253.599 448.248,-255.482 457.573,-260.512 458.674,-253.599"/>
</g>
<!-- Node16 -->
<g id="node16" class="node"><title>Node16</title>
<g id="a_node16"><a xlink:href="liboptions_8h_source.html" target="_top" xlink:title="liboptions/liboptions.h">
<polygon fill="none" stroke="black" points="615,-124.5 615,-143.5 725,-143.5 725,-124.5 615,-124.5"/>
<text text-anchor="middle" x="670" y="-131.5" font-family="Helvetica,sans-Serif" font-size="10.00">liboptions/liboptions.h</text>
</a>
</g>
</g>
<!-- Node1&#45;&gt;Node16 -->
<g id="edge24" class="edge"><title>Node1&#45;&gt;Node16</title>
<path fill="none" stroke="midnightblue" d="M730.559,-292.075C720.441,-265.832 690.644,-188.545 676.985,-153.117"/>
<polygon fill="midnightblue" stroke="midnightblue" points="680.166,-151.64 673.303,-143.568 673.635,-154.158 680.166,-151.64"/>
</g>
<!-- Node23 -->
<g id="node23" class="node"><title>Node23</title>
<g id="a_node23"><a xlink:href="bin_2psimrcc_2blas_8h.html" target="_top" xlink:title="A class to perform contractions.">
<polygon fill="none" stroke="black" points="892.5,-180.5 892.5,-199.5 935.5,-199.5 935.5,-180.5 892.5,-180.5"/>
<text text-anchor="middle" x="914" y="-187.5" font-family="Helvetica,sans-Serif" font-size="10.00">blas.h</text>
</a>
</g>
</g>
<!-- Node1&#45;&gt;Node23 -->
<g id="edge36" class="edge"><title>Node1&#45;&gt;Node23</title>
<path fill="none" stroke="midnightblue" d="M748.124,-292.368C779.144,-273.412 853.454,-228.001 891.185,-204.942"/>
<polygon fill="midnightblue" stroke="midnightblue" points="893.234,-207.792 899.941,-199.591 889.583,-201.819 893.234,-207.792"/>
</g>
<!-- Node30 -->
<g id="node30" class="node"><title>Node30</title>
<g id="a_node30"><a xlink:href="bin_2psimrcc_2matrix_8h_source.html" target="_top" xlink:title="matrix.h">
<polygon fill="none" stroke="black" points="1305,-124.5 1305,-143.5 1357,-143.5 1357,-124.5 1305,-124.5"/>
<text text-anchor="middle" x="1331" y="-131.5" font-family="Helvetica,sans-Serif" font-size="10.00">matrix.h</text>
</a>
</g>
</g>
<!-- Node1&#45;&gt;Node30 -->
<g id="edge49" class="edge"><title>Node1&#45;&gt;Node30</title>
<path fill="none" stroke="midnightblue" d="M765.015,-293.744C801.319,-285.155 863.199,-270.219 916,-256 1056.9,-218.057 1223.17,-167.949 1294.99,-146.044"/>
<polygon fill="midnightblue" stroke="midnightblue" points="1296.34,-149.29 1304.89,-143.022 1294.3,-142.595 1296.34,-149.29"/>
</g>
<!-- Node25 -->
<g id="node25" class="node"><title>Node25</title>
<g id="a_node25"><a xlink:href="matrixtmp_8h_source.html" target="_top" xlink:title="matrixtmp.h">
<polygon fill="none" stroke="black" points="1219,-124.5 1219,-143.5 1287,-143.5 1287,-124.5 1219,-124.5"/>
<text text-anchor="middle" x="1253" y="-131.5" font-family="Helvetica,sans-Serif" font-size="10.00">matrixtmp.h</text>
</a>
</g>
</g>
<!-- Node1&#45;&gt;Node25 -->
<g id="edge56" class="edge"><title>Node1&#45;&gt;Node25</title>
<path fill="none" stroke="midnightblue" d="M760.811,-292.425C847.116,-264.82 1117.83,-178.232 1216.53,-146.664"/>
<polygon fill="midnightblue" stroke="midnightblue" points="1217.89,-149.904 1226.35,-143.524 1215.76,-143.237 1217.89,-149.904"/>
</g>
<!-- Node32 -->
<g id="node32" class="node"><title>Node32</title>
<g id="a_node32"><a xlink:href="updater_8h.html" target="_top" xlink:title="updater.h">
<polygon fill="none" stroke="black" points="629.5,-236.5 629.5,-255.5 686.5,-255.5 686.5,-236.5 629.5,-236.5"/>
<text text-anchor="middle" x="658" y="-243.5" font-family="Helvetica,sans-Serif" font-size="10.00">updater.h</text>
</a>
</g>
</g>
<!-- Node1&#45;&gt;Node32 -->
<g id="edge57" class="edge"><title>Node1&#45;&gt;Node32</title>
<path fill="none" stroke="midnightblue" d="M721.789,-292.324C710.224,-284.107 692.625,-271.602 678.839,-261.807"/>
<polygon fill="midnightblue" stroke="midnightblue" points="680.612,-258.773 670.433,-255.834 676.557,-264.479 680.612,-258.773"/>
</g>
<!-- Node5 -->
<g id="node5" class="node"><title>Node5</title>
<g id="a_node5"><a xlink:href="moinfo__base_8h.html" target="_top" xlink:title="This class stores all the basic info regarding MOs.">
<polygon fill="none" stroke="black" points="323,-124.5 323,-143.5 403,-143.5 403,-124.5 323,-124.5"/>
<text text-anchor="middle" x="363" y="-131.5" font-family="Helvetica,sans-Serif" font-size="10.00">moinfo_base.h</text>
</a>
</g>
</g>
<!-- Node4&#45;&gt;Node5 -->
<g id="edge4" class="edge"><title>Node4&#45;&gt;Node5</title>
<path fill="none" stroke="midnightblue" d="M392.489,-236.368C387.302,-218.537 375.304,-177.295 368.315,-153.272"/>
<polygon fill="midnightblue" stroke="midnightblue" points="371.653,-152.216 365.499,-143.591 364.932,-154.171 371.653,-152.216"/>
</g>
<!-- Node9 -->
<g id="node9" class="node"><title>Node9</title>
<g id="a_node9"><a xlink:href="lib_2libmoinfo_2moinfo_8h_source.html" target="_top" xlink:title="moinfo.h">
<polygon fill="none" stroke="black" points="428,-180.5 428,-199.5 482,-199.5 482,-180.5 428,-180.5"/>
<text text-anchor="middle" x="455" y="-187.5" font-family="Helvetica,sans-Serif" font-size="10.00">moinfo.h</text>
</a>
</g>
</g>
<!-- Node4&#45;&gt;Node9 -->
<g id="edge10" class="edge"><title>Node4&#45;&gt;Node9</title>
<path fill="none" stroke="midnightblue" d="M404.64,-236.324C413.51,-228.341 426.875,-216.313 437.608,-206.653"/>
<polygon fill="midnightblue" stroke="midnightblue" points="440.093,-209.125 445.185,-199.834 435.41,-203.922 440.093,-209.125"/>
</g>
<!-- Node12 -->
<g id="node12" class="node"><title>Node12</title>
<g id="a_node12"><a xlink:href="moinfo__scf_8h.html" target="_top" xlink:title="This class stores all the basic info regarding MOs.">
<polygon fill="none" stroke="black" points="293.5,-180.5 293.5,-199.5 366.5,-199.5 366.5,-180.5 293.5,-180.5"/>
<text text-anchor="middle" x="330" y="-187.5" font-family="Helvetica,sans-Serif" font-size="10.00">moinfo_scf.h</text>
</a>
</g>
</g>
<!-- Node4&#45;&gt;Node12 -->
<g id="edge16" class="edge"><title>Node4&#45;&gt;Node12</title>
<path fill="none" stroke="midnightblue" d="M384.557,-236.324C374.854,-228.263 360.185,-216.077 348.5,-206.369"/>
<polygon fill="midnightblue" stroke="midnightblue" points="350.562,-203.532 340.633,-199.834 346.089,-208.916 350.562,-203.532"/>
</g>
<!-- Node13 -->
<g id="node13" class="node"><title>Node13</title>
<g id="a_node13"><a xlink:href="model__space_8h.html" target="_top" xlink:title="This class stores all the basic info regarding the model space.">
<polygon fill="none" stroke="black" points="183.5,-180.5 183.5,-199.5 266.5,-199.5 266.5,-180.5 183.5,-180.5"/>
<text text-anchor="middle" x="225" y="-187.5" font-family="Helvetica,sans-Serif" font-size="10.00">model_space.h</text>
</a>
</g>
</g>
<!-- Node4&#45;&gt;Node13 -->
<g id="edge19" class="edge"><title>Node4&#45;&gt;Node13</title>
<path fill="none" stroke="midnightblue" d="M368.063,-236.444C339.34,-227.32 293.671,-212.813 261.679,-202.651"/>
<polygon fill="midnightblue" stroke="midnightblue" points="262.401,-199.208 251.811,-199.516 260.282,-205.88 262.401,-199.208"/>
</g>
<!-- Node6 -->
<g id="node6" class="node"><title>Node6</title>
<polygon fill="none" stroke="#bfbfbf" points="454.5,-0.5 454.5,-19.5 495.5,-19.5 495.5,-0.5 454.5,-0.5"/>
<text text-anchor="middle" x="475" y="-7.5" font-family="Helvetica,sans-Serif" font-size="10.00">string</text>
</g>
<!-- Node5&#45;&gt;Node6 -->
<g id="edge5" class="edge"><title>Node5&#45;&gt;Node6</title>
<path fill="none" stroke="midnightblue" d="M356.128,-124.068C345.259,-108.772 326.816,-77.167 342,-56 354.124,-39.0992 409.186,-24.7341 444.552,-17.0343"/>
<polygon fill="midnightblue" stroke="midnightblue" points="445.331,-20.4472 454.39,-14.953 443.882,-13.5988 445.331,-20.4472"/>
</g>
<!-- Node7 -->
<g id="node7" class="node"><title>Node7</title>
<g id="a_node7"><a xlink:href="libutil_8h_source.html" target="_top" xlink:title="libutil/libutil.h">
<polygon fill="none" stroke="black" points="351.5,-62.5 351.5,-81.5 424.5,-81.5 424.5,-62.5 351.5,-62.5"/>
<text text-anchor="middle" x="388" y="-69.5" font-family="Helvetica,sans-Serif" font-size="10.00">libutil/libutil.h</text>
</a>
</g>
</g>
<!-- Node5&#45;&gt;Node7 -->
<g id="edge6" class="edge"><title>Node5&#45;&gt;Node7</title>
<path fill="none" stroke="midnightblue" d="M366.582,-124.403C370.183,-115.76 375.846,-102.17 380.444,-91.1341"/>
<polygon fill="midnightblue" stroke="midnightblue" points="383.809,-92.1575 384.425,-81.5806 377.348,-89.4652 383.809,-92.1575"/>
</g>
<!-- Node7&#45;&gt;Node6 -->
<g id="edge7" class="edge"><title>Node7&#45;&gt;Node6</title>
<path fill="none" stroke="midnightblue" d="M400.465,-62.4035C414.419,-52.7797 437.265,-37.0242 453.991,-25.4891"/>
<polygon fill="midnightblue" stroke="midnightblue" points="456.313,-28.1392 462.558,-19.5806 452.339,-22.3767 456.313,-28.1392"/>
</g>
<!-- Node7&#45;&gt;Node2 -->
<g id="edge8" class="edge"><title>Node7&#45;&gt;Node2</title>
<path fill="none" stroke="midnightblue" d="M424.565,-65.5696C502.69,-53.9669 684.827,-26.9168 759.341,-15.8503"/>
<polygon fill="midnightblue" stroke="midnightblue" points="760.152,-19.2684 769.529,-14.3372 759.124,-12.3443 760.152,-19.2684"/>
</g>
<!-- Node8 -->
<g id="node8" class="node"><title>Node8</title>
<polygon fill="none" stroke="#bfbfbf" points="357,-0.5 357,-19.5 419,-19.5 419,-0.5 357,-0.5"/>
<text text-anchor="middle" x="388" y="-7.5" font-family="Helvetica,sans-Serif" font-size="10.00">sys/time.h</text>
</g>
<!-- Node7&#45;&gt;Node8 -->
<g id="edge9" class="edge"><title>Node7&#45;&gt;Node8</title>
<path fill="none" stroke="midnightblue" d="M388,-62.4035C388,-53.9381 388,-40.7283 388,-29.8199"/>
<polygon fill="midnightblue" stroke="midnightblue" points="391.5,-29.5806 388,-19.5806 384.5,-29.5806 391.5,-29.5806"/>
</g>
<!-- Node10 -->
<g id="node10" class="node"><title>Node10</title>
<polygon fill="none" stroke="#bfbfbf" points="459.5,-124.5 459.5,-143.5 500.5,-143.5 500.5,-124.5 459.5,-124.5"/>
<text text-anchor="middle" x="480" y="-131.5" font-family="Helvetica,sans-Serif" font-size="10.00">bitset</text>
</g>
<!-- Node9&#45;&gt;Node10 -->
<g id="edge11" class="edge"><title>Node9&#45;&gt;Node10</title>
<path fill="none" stroke="midnightblue" d="M459.128,-180.083C462.514,-172.77 467.416,-162.181 471.619,-153.103"/>
<polygon fill="midnightblue" stroke="midnightblue" points="474.923,-154.296 475.949,-143.751 468.571,-151.355 474.923,-154.296"/>
</g>
<!-- Node9&#45;&gt;Node6 -->
<g id="edge12" class="edge"><title>Node9&#45;&gt;Node6</title>
<path fill="none" stroke="midnightblue" d="M453.758,-180.397C452.519,-171.358 450.704,-156.715 450,-144 447.702,-102.517 460.507,-54.884 468.647,-29.3899"/>
<polygon fill="midnightblue" stroke="midnightblue" points="472.062,-30.2115 471.89,-19.6181 465.418,-28.0066 472.062,-30.2115"/>
</g>
<!-- Node9&#45;&gt;Node2 -->
<g id="edge13" class="edge"><title>Node9&#45;&gt;Node2</title>
<path fill="none" stroke="midnightblue" d="M468.494,-180.405C480.436,-172.237 497.677,-159 509,-144 534.774,-109.856 514.415,-82.4987 548,-56 580.393,-30.442 700.948,-17.9355 759.574,-13.2595"/>
<polygon fill="midnightblue" stroke="midnightblue" points="760.062,-16.7323 769.765,-12.4761 759.526,-9.75291 760.062,-16.7323"/>
</g>
<!-- Node11 -->
<g id="node11" class="node"><title>Node11</title>
<polygon fill="none" stroke="#bfbfbf" points="557,-124.5 557,-143.5 597,-143.5 597,-124.5 557,-124.5"/>
<text text-anchor="middle" x="577" y="-131.5" font-family="Helvetica,sans-Serif" font-size="10.00">utility</text>
</g>
<!-- Node9&#45;&gt;Node11 -->
<g id="edge14" class="edge"><title>Node9&#45;&gt;Node11</title>
<path fill="none" stroke="midnightblue" d="M474.331,-180.444C494.32,-171.596 525.743,-157.687 548.564,-147.586"/>
<polygon fill="midnightblue" stroke="midnightblue" points="550.032,-150.764 557.759,-143.516 547.198,-144.363 550.032,-150.764"/>
</g>
<!-- Node9&#45;&gt;Node5 -->
<g id="edge15" class="edge"><title>Node9&#45;&gt;Node5</title>
<path fill="none" stroke="midnightblue" d="M440.219,-180.324C425.733,-171.822 403.427,-158.729 386.507,-148.797"/>
<polygon fill="midnightblue" stroke="midnightblue" points="388.141,-145.698 377.745,-143.655 384.597,-151.735 388.141,-145.698"/>
</g>
<!-- Node12&#45;&gt;Node6 -->
<g id="edge17" class="edge"><title>Node12&#45;&gt;Node6</title>
<path fill="none" stroke="midnightblue" d="M325.889,-180.277C321.941,-171.383 316.255,-157.074 314,-144 307.199,-104.57 305.198,-84.7758 333,-56 348.455,-40.0034 407.256,-25.1863 444.171,-17.1864"/>
<polygon fill="midnightblue" stroke="midnightblue" points="445.342,-20.5163 454.401,-15.022 443.893,-13.6679 445.342,-20.5163"/>
</g>
<!-- Node12&#45;&gt;Node5 -->
<g id="edge18" class="edge"><title>Node12&#45;&gt;Node5</title>
<path fill="none" stroke="midnightblue" d="M335.449,-180.083C340.014,-172.613 346.668,-161.724 352.293,-152.52"/>
<polygon fill="midnightblue" stroke="midnightblue" points="355.424,-154.109 357.652,-143.751 349.451,-150.459 355.424,-154.109"/>
</g>
<!-- Node14 -->
<g id="node14" class="node"><title>Node14</title>
<g id="a_node14"><a xlink:href="slater__determinant_8h.html" target="_top" xlink:title="This class stores all the basic info regarding a Slater determinant.">
<polygon fill="none" stroke="black" points="151.5,-62.5 151.5,-81.5 256.5,-81.5 256.5,-62.5 151.5,-62.5"/>
<text text-anchor="middle" x="204" y="-69.5" font-family="Helvetica,sans-Serif" font-size="10.00">slater_determinant.h</text>
</a>
</g>
</g>
<!-- Node13&#45;&gt;Node14 -->
<g id="edge20" class="edge"><title>Node13&#45;&gt;Node14</title>
<path fill="none" stroke="midnightblue" d="M223.422,-180.281C220.03,-161.547 211.983,-117.098 207.382,-91.6822"/>
<polygon fill="midnightblue" stroke="midnightblue" points="210.765,-90.7213 205.54,-81.5048 203.877,-91.9683 210.765,-90.7213"/>
</g>
<!-- Node15 -->
<g id="node15" class="node"><title>Node15</title>
<polygon fill="none" stroke="#bfbfbf" points="198.5,-0.5 198.5,-19.5 243.5,-19.5 243.5,-0.5 198.5,-0.5"/>
<text text-anchor="middle" x="221" y="-7.5" font-family="Helvetica,sans-Serif" font-size="10.00">cstdlib</text>
</g>
<!-- Node14&#45;&gt;Node15 -->
<g id="edge21" class="edge"><title>Node14&#45;&gt;Node15</title>
<path fill="none" stroke="midnightblue" d="M206.436,-62.4035C208.859,-53.849 212.656,-40.4497 215.765,-29.4762"/>
<polygon fill="midnightblue" stroke="midnightblue" points="219.21,-30.156 218.569,-19.5806 212.475,-28.2477 219.21,-30.156"/>
</g>
<!-- Node14&#45;&gt;Node2 -->
<g id="edge22" class="edge"><title>Node14&#45;&gt;Node2</title>
<path fill="none" stroke="midnightblue" d="M256.741,-65.1598C282.454,-62.3399 313.836,-58.9388 342,-56 498.676,-39.6516 686.17,-21.2885 759.943,-14.1101"/>
<polygon fill="midnightblue" stroke="midnightblue" points="760.371,-17.5851 769.985,-13.1338 759.694,-10.618 760.371,-17.5851"/>
</g>
<!-- Node14&#45;&gt;Node6 -->
<g id="edge23" class="edge"><title>Node14&#45;&gt;Node6</title>
<path fill="none" stroke="midnightblue" d="M241.909,-62.4912C251.406,-60.3654 261.575,-58.0946 271,-56 332.588,-42.3131 404.67,-26.4489 444.548,-17.6861"/>
<polygon fill="midnightblue" stroke="midnightblue" points="445.421,-21.078 454.437,-15.5137 443.918,-14.241 445.421,-21.078"/>
</g>
<!-- Node16&#45;&gt;Node6 -->
<g id="edge25" class="edge"><title>Node16&#45;&gt;Node6</title>
<path fill="none" stroke="midnightblue" d="M634.08,-124.444C608.646,-117.304 574.484,-105.454 548,-88 522.983,-71.5126 500.288,-44.8935 487.062,-27.6723"/>
<polygon fill="midnightblue" stroke="midnightblue" points="489.838,-25.5402 481.047,-19.6268 484.232,-29.7317 489.838,-25.5402"/>
</g>
<!-- Node16&#45;&gt;Node2 -->
<g id="edge26" class="edge"><title>Node16&#45;&gt;Node2</title>
<path fill="none" stroke="midnightblue" d="M694.31,-124.414C712.34,-117.045 736.545,-104.922 753,-88 769.282,-71.2558 780.194,-46.3587 786.24,-29.4426"/>
<polygon fill="midnightblue" stroke="midnightblue" points="789.664,-30.2386 789.518,-19.6448 783.026,-28.0178 789.664,-30.2386"/>
</g>
<!-- Node17 -->
<g id="node17" class="node"><title>Node17</title>
<polygon fill="none" stroke="#bfbfbf" points="1200.5,-0.5 1200.5,-19.5 1235.5,-19.5 1235.5,-0.5 1200.5,-0.5"/>
<text text-anchor="middle" x="1218" y="-7.5" font-family="Helvetica,sans-Serif" font-size="10.00">map</text>
</g>
<!-- Node16&#45;&gt;Node17 -->
<g id="edge27" class="edge"><title>Node16&#45;&gt;Node17</title>
<path fill="none" stroke="midnightblue" d="M725.37,-130.02C857.412,-122.681 1181.17,-103.227 1199,-88 1215.57,-73.8487 1218.91,-47.7693 1219.05,-29.9164"/>
<polygon fill="midnightblue" stroke="midnightblue" points="1222.55,-29.7217 1218.8,-19.812 1215.55,-29.8961 1222.55,-29.7217"/>
</g>
<!-- Node18 -->
<g id="node18" class="node"><title>Node18</title>
<polygon fill="none" stroke="#bfbfbf" points="677.5,-62.5 677.5,-81.5 744.5,-81.5 744.5,-62.5 677.5,-62.5"/>
<text text-anchor="middle" x="711" y="-69.5" font-family="Helvetica,sans-Serif" font-size="10.00">exception.h</text>
</g>
<!-- Node16&#45;&gt;Node18 -->
<g id="edge28" class="edge"><title>Node16&#45;&gt;Node18</title>
<path fill="none" stroke="midnightblue" d="M675.874,-124.403C681.963,-115.493 691.645,-101.325 699.303,-90.1177"/>
<polygon fill="midnightblue" stroke="midnightblue" points="702.384,-91.8117 705.137,-81.5806 696.605,-87.8624 702.384,-91.8117"/>
</g>
<!-- Node16&#45;&gt;Node7 -->
<g id="edge29" class="edge"><title>Node16&#45;&gt;Node7</title>
<path fill="none" stroke="midnightblue" d="M629.896,-124.467C578.468,-113.525 489.436,-94.582 434.917,-82.9824"/>
<polygon fill="midnightblue" stroke="midnightblue" points="435.335,-79.4931 424.826,-80.8353 433.879,-86.3398 435.335,-79.4931"/>
</g>
<!-- Node19 -->
<g id="node19" class="node"><title>Node19</title>
<g id="a_node19"><a xlink:href="libutil_2ref_8h_source.html" target="_top" xlink:title="libutil/ref.h">
<polygon fill="none" stroke="black" points="71,-62.5 71,-81.5 133,-81.5 133,-62.5 71,-62.5"/>
<text text-anchor="middle" x="102" y="-69.5" font-family="Helvetica,sans-Serif" font-size="10.00">libutil/ref.h</text>
</a>
</g>
</g>
<!-- Node16&#45;&gt;Node19 -->
<g id="edge30" class="edge"><title>Node16&#45;&gt;Node19</title>
<path fill="none" stroke="midnightblue" d="M614.869,-125.025C611.871,-124.661 608.9,-124.316 606,-124 400.376,-101.587 343.942,-132.756 142,-88 138.49,-87.2222 134.876,-86.2012 131.322,-85.057"/>
<polygon fill="midnightblue" stroke="midnightblue" points="132.199,-81.6544 121.604,-81.6058 129.856,-88.2507 132.199,-81.6544"/>
</g>
<!-- Node22 -->
<g id="node22" class="node"><title>Node22</title>
<polygon fill="none" stroke="#bfbfbf" points="557,-57 557,-87 659,-87 659,-57 557,-57"/>
<text text-anchor="start" x="565" y="-75" font-family="Helvetica,sans-Serif" font-size="10.00">boost/python/object</text>
<text text-anchor="middle" x="608" y="-64" font-family="Helvetica,sans-Serif" font-size="10.00">_fwd.hpp</text>
</g>
<!-- Node16&#45;&gt;Node22 -->
<g id="edge35" class="edge"><title>Node16&#45;&gt;Node22</title>
<path fill="none" stroke="midnightblue" d="M661.117,-124.403C653.034,-116.581 640.765,-104.708 630.054,-94.3424"/>
<polygon fill="midnightblue" stroke="midnightblue" points="632.232,-91.5799 622.612,-87.1408 627.364,-96.6102 632.232,-91.5799"/>
</g>
<!-- Node20 -->
<g id="node20" class="node"><title>Node20</title>
<polygon fill="none" stroke="#bfbfbf" points="60.5,-0.5 60.5,-19.5 109.5,-19.5 109.5,-0.5 60.5,-0.5"/>
<text text-anchor="middle" x="85" y="-7.5" font-family="Helvetica,sans-Serif" font-size="10.00">cstddef</text>
</g>
<!-- Node19&#45;&gt;Node20 -->
<g id="edge31" class="edge"><title>Node19&#45;&gt;Node20</title>
<path fill="none" stroke="midnightblue" d="M99.5643,-62.4035C97.1405,-53.849 93.3441,-40.4497 90.2349,-29.4762"/>
<polygon fill="midnightblue" stroke="midnightblue" points="93.5247,-28.2477 87.4312,-19.5806 86.7898,-30.156 93.5247,-28.2477"/>
</g>
<!-- Node19&#45;&gt;Node3 -->
<g id="edge32" class="edge"><title>Node19&#45;&gt;Node3</title>
<path fill="none" stroke="midnightblue" d="M90.3947,-62.4035C77.5228,-52.8688 56.5258,-37.3154 40.9943,-25.8106"/>
<polygon fill="midnightblue" stroke="midnightblue" points="42.7027,-22.7204 32.5838,-19.5806 38.5361,-28.3454 42.7027,-22.7204"/>
</g>
<!-- Node19&#45;&gt;Node15 -->
<g id="edge33" class="edge"><title>Node19&#45;&gt;Node15</title>
<path fill="none" stroke="midnightblue" d="M119.05,-62.4035C138.844,-52.4232 171.717,-35.8487 194.77,-24.2253"/>
<polygon fill="midnightblue" stroke="midnightblue" points="196.628,-27.208 203.982,-19.5806 193.477,-20.9575 196.628,-27.208"/>
</g>
<!-- Node21 -->
<g id="node21" class="node"><title>Node21</title>
<polygon fill="none" stroke="#bfbfbf" points="128,-0.5 128,-19.5 180,-19.5 180,-0.5 128,-0.5"/>
<text text-anchor="middle" x="154" y="-7.5" font-family="Helvetica,sans-Serif" font-size="10.00">assert.h</text>
</g>
<!-- Node19&#45;&gt;Node21 -->
<g id="edge34" class="edge"><title>Node19&#45;&gt;Node21</title>
<path fill="none" stroke="midnightblue" d="M109.45,-62.4035C117.328,-53.3143 129.945,-38.7559 139.744,-27.4489"/>
<polygon fill="midnightblue" stroke="midnightblue" points="142.659,-29.4298 146.563,-19.5806 137.369,-24.8452 142.659,-29.4298"/>
</g>
<!-- Node24 -->
<g id="node24" class="node"><title>Node24</title>
<polygon fill="none" stroke="#bfbfbf" points="924.5,-124.5 924.5,-143.5 967.5,-143.5 967.5,-124.5 924.5,-124.5"/>
<text text-anchor="middle" x="946" y="-131.5" font-family="Helvetica,sans-Serif" font-size="10.00">deque</text>
</g>
<!-- Node23&#45;&gt;Node24 -->
<g id="edge37" class="edge"><title>Node23&#45;&gt;Node24</title>
<path fill="none" stroke="midnightblue" d="M919.284,-180.083C923.711,-172.613 930.163,-161.724 935.618,-152.52"/>
<polygon fill="midnightblue" stroke="midnightblue" points="938.727,-154.138 940.814,-143.751 932.705,-150.57 938.727,-154.138"/>
</g>
<!-- Node23&#45;&gt;Node6 -->
<g id="edge38" class="edge"><title>Node23&#45;&gt;Node6</title>
<path fill="none" stroke="midnightblue" d="M897.626,-180.358C882.342,-171.962 859.22,-158.403 841,-144 797.608,-109.7 802.24,-81.1946 753,-56 710.209,-34.1053 569.151,-19.2971 506.021,-13.6058"/>
<polygon fill="midnightblue" stroke="midnightblue" points="506.15,-10.1037 495.881,-12.71 505.534,-17.0766 506.15,-10.1037"/>
</g>
<!-- Node23&#45;&gt;Node2 -->
<g id="edge39" class="edge"><title>Node23&#45;&gt;Node2</title>
<path fill="none" stroke="midnightblue" d="M934.223,-180.495C948.771,-173.168 967.301,-161.063 976,-144 990.144,-116.258 965.834,-69.7407 951,-56 916.095,-23.6685 859.686,-14.3418 824.283,-11.7826"/>
<polygon fill="midnightblue" stroke="midnightblue" points="824.204,-8.27218 814.018,-11.1876 823.798,-15.2605 824.204,-8.27218"/>
</g>
<!-- Node23&#45;&gt;Node17 -->
<g id="edge40" class="edge"><title>Node23&#45;&gt;Node17</title>
<path fill="none" stroke="midnightblue" d="M935.688,-188.51C1021.86,-186.345 1336.79,-176.262 1366,-144 1411.73,-93.4938 1299.15,-41.869 1245.05,-20.8261"/>
<polygon fill="midnightblue" stroke="midnightblue" points="1246.27,-17.5458 1235.68,-17.26 1243.78,-24.0881 1246.27,-17.5458"/>
</g>
<!-- Node23&#45;&gt;Node11 -->
<g id="edge41" class="edge"><title>Node23&#45;&gt;Node11</title>
<path fill="none" stroke="midnightblue" d="M892.127,-186.988C842.827,-182.203 719.2,-168.81 606.956,-143.908"/>
<polygon fill="midnightblue" stroke="midnightblue" points="607.697,-140.487 597.172,-141.701 606.157,-147.316 607.697,-140.487"/>
</g>
<!-- Node23&#45;&gt;Node16 -->
<g id="edge42" class="edge"><title>Node23&#45;&gt;Node16</title>
<path fill="none" stroke="midnightblue" d="M892.347,-184.208C853.559,-175.624 771.35,-157.43 718.493,-145.732"/>
<polygon fill="midnightblue" stroke="midnightblue" points="719.178,-142.299 708.658,-143.556 717.666,-149.134 719.178,-142.299"/>
</g>
<!-- Node23&#45;&gt;Node25 -->
<g id="edge43" class="edge"><title>Node23&#45;&gt;Node25</title>
<path fill="none" stroke="midnightblue" d="M935.53,-186.095C984.319,-179.428 1107,-162.2 1209,-144 1209.1,-143.982 1209.2,-143.964 1209.3,-143.946"/>
<polygon fill="midnightblue" stroke="midnightblue" points="1209.74,-147.426 1218.92,-142.147 1208.45,-140.545 1209.74,-147.426"/>
</g>
<!-- Node26 -->
<g id="node26" class="node"><title>Node26</title>
<g id="a_node26"><a xlink:href="operation_8h_source.html" target="_top" xlink:title="operation.h">
<polygon fill="none" stroke="black" points="877.5,-62.5 877.5,-81.5 942.5,-81.5 942.5,-62.5 877.5,-62.5"/>
<text text-anchor="middle" x="910" y="-69.5" font-family="Helvetica,sans-Serif" font-size="10.00">operation.h</text>
</a>
</g>
</g>
<!-- Node23&#45;&gt;Node26 -->
<g id="edge44" class="edge"><title>Node23&#45;&gt;Node26</title>
<path fill="none" stroke="midnightblue" d="M892.191,-180.686C876.774,-173.52 857.267,-161.534 848,-144 836.037,-121.365 861.85,-99.8794 883.736,-86.5917"/>
<polygon fill="midnightblue" stroke="midnightblue" points="885.523,-89.6018 892.45,-81.5847 882.035,-83.5324 885.523,-89.6018"/>
</g>
<!-- Node27 -->
<g id="node27" class="node"><title>Node27</title>
<g id="a_node27"><a xlink:href="index__types_8h_source.html" target="_top" xlink:title="index_types.h">
<polygon fill="none" stroke="black" points="1024.5,-124.5 1024.5,-143.5 1101.5,-143.5 1101.5,-124.5 1024.5,-124.5"/>
<text text-anchor="middle" x="1063" y="-131.5" font-family="Helvetica,sans-Serif" font-size="10.00">index_types.h</text>
</a>
</g>
</g>
<!-- Node23&#45;&gt;Node27 -->
<g id="edge46" class="edge"><title>Node23&#45;&gt;Node27</title>
<path fill="none" stroke="midnightblue" d="M935.666,-181.148C960.358,-172.199 1001,-157.468 1029.72,-147.06"/>
<polygon fill="midnightblue" stroke="midnightblue" points="1031.13,-150.273 1039.34,-143.576 1028.74,-143.692 1031.13,-150.273"/>
</g>
<!-- Node28 -->
<g id="node28" class="node"><title>Node28</title>
<g id="a_node28"><a xlink:href="matrix__types_8h_source.html" target="_top" xlink:title="matrix_types.h">
<polygon fill="none" stroke="black" points="1119.5,-124.5 1119.5,-143.5 1200.5,-143.5 1200.5,-124.5 1119.5,-124.5"/>
<text text-anchor="middle" x="1160" y="-131.5" font-family="Helvetica,sans-Serif" font-size="10.00">matrix_types.h</text>
</a>
</g>
</g>
<!-- Node23&#45;&gt;Node28 -->
<g id="edge47" class="edge"><title>Node23&#45;&gt;Node28</title>
<path fill="none" stroke="midnightblue" d="M935.831,-184.208C974.937,-175.624 1057.82,-157.43 1111.11,-145.732"/>
<polygon fill="midnightblue" stroke="midnightblue" points="1112.01,-149.118 1121.02,-143.556 1110.51,-142.281 1112.01,-149.118"/>
</g>
<!-- Node29 -->
<g id="node29" class="node"><title>Node29</title>
<g id="a_node29"><a xlink:href="types_8h_source.html" target="_top" xlink:title="types.h">
<polygon fill="none" stroke="black" points="857.5,-124.5 857.5,-143.5 906.5,-143.5 906.5,-124.5 857.5,-124.5"/>
<text text-anchor="middle" x="882" y="-131.5" font-family="Helvetica,sans-Serif" font-size="10.00">types.h</text>
</a>
</g>
</g>
<!-- Node23&#45;&gt;Node29 -->
<g id="edge48" class="edge"><title>Node23&#45;&gt;Node29</title>
<path fill="none" stroke="midnightblue" d="M908.716,-180.083C904.289,-172.613 897.837,-161.724 892.382,-152.52"/>
<polygon fill="midnightblue" stroke="midnightblue" points="895.295,-150.57 887.186,-143.751 889.273,-154.138 895.295,-150.57"/>
</g>
<!-- Node26&#45;&gt;Node6 -->
<g id="edge45" class="edge"><title>Node26&#45;&gt;Node6</title>
<path fill="none" stroke="midnightblue" d="M886.332,-62.4627C878.94,-60.0636 870.703,-57.6596 863,-56 732.071,-27.7925 572.222,-16.3246 506.008,-12.5566"/>
<polygon fill="midnightblue" stroke="midnightblue" points="506.018,-9.05193 495.841,-11.9973 505.634,-16.0414 506.018,-9.05193"/>
</g>
<!-- Node31 -->
<g id="node31" class="node"><title>Node31</title>
<g id="a_node31"><a xlink:href="memory__manager_8h_source.html" target="_top" xlink:title="libutil/memory_manager.h">
<polygon fill="none" stroke="black" points="1062,-62.5 1062,-81.5 1190,-81.5 1190,-62.5 1062,-62.5"/>
<text text-anchor="middle" x="1126" y="-69.5" font-family="Helvetica,sans-Serif" font-size="10.00">libutil/memory_manager.h</text>
</a>
</g>
</g>
<!-- Node30&#45;&gt;Node31 -->
<g id="edge50" class="edge"><title>Node30&#45;&gt;Node31</title>
<path fill="none" stroke="midnightblue" d="M1304.62,-125.279C1269.15,-114.899 1205.84,-96.3666 1164.9,-84.3849"/>
<polygon fill="midnightblue" stroke="midnightblue" points="1165.84,-81.0129 1155.26,-81.5629 1163.87,-87.7311 1165.84,-81.0129"/>
</g>
<!-- Node30&#45;&gt;Node2 -->
<g id="edge54" class="edge"><title>Node30&#45;&gt;Node2</title>
<path fill="none" stroke="midnightblue" d="M1320.12,-124.48C1298.48,-108.04 1247.87,-72.1464 1199,-56 1129.4,-33.0058 907.846,-17.8576 824.299,-12.835"/>
<polygon fill="midnightblue" stroke="midnightblue" points="824.322,-9.33036 814.132,-12.2331 823.908,-16.3181 824.322,-9.33036"/>
</g>
<!-- Node30&#45;&gt;Node6 -->
<g id="edge55" class="edge"><title>Node30&#45;&gt;Node6</title>
<path fill="none" stroke="midnightblue" d="M1304.69,-125.921C1301.77,-125.228 1298.83,-124.572 1296,-124 1188.98,-102.375 1159.41,-112.416 1053,-88 1006.69,-77.3748 997.573,-65.3986 951,-56 785.424,-22.5862 582.316,-13.8597 505.964,-11.6857"/>
<polygon fill="midnightblue" stroke="midnightblue" points="505.728,-8.17824 495.638,-11.4103 505.541,-15.1758 505.728,-8.17824"/>
</g>
<!-- Node31&#45;&gt;Node17 -->
<g id="edge51" class="edge"><title>Node31&#45;&gt;Node17</title>
<path fill="none" stroke="midnightblue" d="M1139.18,-62.4035C1154.07,-52.6905 1178.54,-36.7319 1196.27,-25.1697"/>
<polygon fill="midnightblue" stroke="midnightblue" points="1198.38,-27.975 1204.84,-19.5806 1194.56,-22.1117 1198.38,-27.975"/>
</g>
<!-- Node31&#45;&gt;Node2 -->
<g id="edge52" class="edge"><title>Node31&#45;&gt;Node2</title>
<path fill="none" stroke="midnightblue" d="M1082.29,-62.4675C1071.12,-60.3211 1059.12,-58.0466 1048,-56 967.581,-41.2002 872.746,-24.8059 824.195,-16.4894"/>
<polygon fill="midnightblue" stroke="midnightblue" points="824.726,-13.0295 814.279,-14.793 823.546,-19.9292 824.726,-13.0295"/>
</g>
<!-- Node31&#45;&gt;Node6 -->
<g id="edge53" class="edge"><title>Node31&#45;&gt;Node6</title>
<path fill="none" stroke="midnightblue" d="M1086.06,-62.4308C1073.89,-60.0594 1060.44,-57.6787 1048,-56 841.976,-28.1885 591.782,-15.8404 505.764,-12.2065"/>
<polygon fill="midnightblue" stroke="midnightblue" points="505.781,-8.70432 495.644,-11.7876 505.491,-15.6983 505.781,-8.70432"/>
</g>
<!-- Node32&#45;&gt;Node16 -->
<g id="edge58" class="edge"><title>Node32&#45;&gt;Node16</title>
<path fill="none" stroke="midnightblue" d="M658.942,-236.368C660.878,-218.617 665.345,-177.666 667.971,-153.597"/>
<polygon fill="midnightblue" stroke="midnightblue" points="671.458,-153.912 669.063,-143.591 664.499,-153.153 671.458,-153.912"/>
</g>
</g>
</svg>
