<?xml version="1.0" encoding="UTF-8" standalone="no"?>
<!DOCTYPE svg PUBLIC "-//W3C//DTD SVG 1.1//EN"
 "http://www.w3.org/Graphics/SVG/1.1/DTD/svg11.dtd">
<!-- Generated by graphviz version 2.30.1 (20140110.0959)
 -->
<!-- Title: vrr_build.c Pages: 1 -->
<svg width="248pt" height="84pt"
 viewBox="0.00 0.00 248.00 84.00" xmlns="http://www.w3.org/2000/svg" xmlns:xlink="http://www.w3.org/1999/xlink">
<g id="graph0" class="graph" transform="scale(1 1) rotate(0) translate(4 80)">
<title>vrr_build.c</title>
<!-- Node1 -->
<g id="node1" class="node"><title>Node1</title>
<polygon fill="#bfbfbf" stroke="black" points="89,-56.5 89,-75.5 151,-75.5 151,-56.5 89,-56.5"/>
<text text-anchor="middle" x="120" y="-63.5" font-family="Helvetica,sans-Serif" font-size="10.00">vrr_build.c</text>
</g>
<!-- Node2 -->
<g id="node2" class="node"><title>Node2</title>
<polygon fill="none" stroke="#bfbfbf" points="-0.5,-0.5 -0.5,-19.5 46.5,-19.5 46.5,-0.5 -0.5,-0.5"/>
<text text-anchor="middle" x="23" y="-7.5" font-family="Helvetica,sans-Serif" font-size="10.00">math.h</text>
</g>
<!-- Node1&#45;&gt;Node2 -->
<g id="edge1" class="edge"><title>Node1&#45;&gt;Node2</title>
<path fill="none" stroke="midnightblue" d="M104.415,-56.324C89.0009,-47.7428 65.1878,-34.486 47.2903,-24.5224"/>
<polygon fill="midnightblue" stroke="midnightblue" points="48.9858,-21.4606 38.5461,-19.6545 45.5809,-27.5767 48.9858,-21.4606"/>
</g>
<!-- Node3 -->
<g id="node3" class="node"><title>Node3</title>
<polygon fill="none" stroke="#bfbfbf" points="65,-0.5 65,-19.5 111,-19.5 111,-0.5 65,-0.5"/>
<text text-anchor="middle" x="88" y="-7.5" font-family="Helvetica,sans-Serif" font-size="10.00">stdio.h</text>
</g>
<!-- Node1&#45;&gt;Node3 -->
<g id="edge2" class="edge"><title>Node1&#45;&gt;Node3</title>
<path fill="none" stroke="midnightblue" d="M114.716,-56.083C110.289,-48.6127 103.837,-37.7244 98.3821,-28.5199"/>
<polygon fill="midnightblue" stroke="midnightblue" points="101.295,-26.5697 93.1858,-19.7511 95.2729,-30.1383 101.295,-26.5697"/>
</g>
<!-- Node4 -->
<g id="node4" class="node"><title>Node4</title>
<polygon fill="none" stroke="#bfbfbf" points="129,-0.5 129,-19.5 177,-19.5 177,-0.5 129,-0.5"/>
<text text-anchor="middle" x="153" y="-7.5" font-family="Helvetica,sans-Serif" font-size="10.00">stdlib.h</text>
</g>
<!-- Node1&#45;&gt;Node4 -->
<g id="edge3" class="edge"><title>Node1&#45;&gt;Node4</title>
<path fill="none" stroke="midnightblue" d="M125.449,-56.083C130.014,-48.6127 136.668,-37.7244 142.293,-28.5199"/>
<polygon fill="midnightblue" stroke="midnightblue" points="145.424,-30.109 147.652,-19.7511 139.451,-26.4588 145.424,-30.109"/>
</g>
<!-- Node5 -->
<g id="node5" class="node"><title>Node5</title>
<polygon fill="none" stroke="#bfbfbf" points="195.5,-0.5 195.5,-19.5 240.5,-19.5 240.5,-0.5 195.5,-0.5"/>
<text text-anchor="middle" x="218" y="-7.5" font-family="Helvetica,sans-Serif" font-size="10.00">libint.h</text>
</g>
<!-- Node1&#45;&gt;Node5 -->
<g id="edge4" class="edge"><title>Node1&#45;&gt;Node5</title>
<path fill="none" stroke="midnightblue" d="M135.745,-56.324C151.319,-47.7428 175.377,-34.486 193.459,-24.5224"/>
<polygon fill="midnightblue" stroke="midnightblue" points="195.224,-27.546 202.294,-19.6545 191.846,-21.4152 195.224,-27.546"/>
</g>
</g>
</svg>
