<?xml version="1.0" encoding="UTF-8" standalone="no"?>
<!DOCTYPE svg PUBLIC "-//W3C//DTD SVG 1.1//EN"
 "http://www.w3.org/Graphics/SVG/1.1/DTD/svg11.dtd">
<!-- Generated by graphviz version 2.30.1 (20140110.0959)
 -->
<!-- Title: WefabL2.cc Pages: 1 -->
<!--zoomable 196 -->
<svg id="main" version="1.1" xmlns="http://www.w3.org/2000/svg" xmlns:xlink="http://www.w3.org/1999/xlink" xml:space="preserve" onload="init(evt)">
        <defs>
                <circle id="rim" cx="0" cy="0" r="7"/>
                <circle id="rim2" cx="0" cy="0" r="3.5"/>
                <g id="zoomPlus">
                        <use xlink:href="#rim" fill="#404040">
                                <set attributeName="fill" to="#808080" begin="zoomplus.mouseover" end="zoomplus.mouseout"/>
                        </use>
                        <path d="M-4,0h8M0,-4v8" fill="none" stroke="white" stroke-width="1.5" pointer-events="none"/>
                </g>
                <g id="zoomMin">
                        <use xlink:href="#rim" fill="#404040">
                                <set attributeName="fill" to="#808080" begin="zoomminus.mouseover" end="zoomminus.mouseout"/>
                        </use>
                        <path d="M-4,0h8" fill="none" stroke="white" stroke-width="1.5" pointer-events="none"/>
                </g>
                <g id="dirArrow">
                        <path fill="none" stroke="white" stroke-width="1.5" d="M0,-3.0v7 M-2.5,-0.5L0,-3.0L2.5,-0.5"/>
                </g>
               <g id="resetDef">
                       <use xlink:href="#rim2" fill="#404040">
                               <set attributeName="fill" to="#808080" begin="reset.mouseover" end="reset.mouseout"/>
                       </use>
               </g>
        </defs>

<script type="text/javascript">
var viewWidth = 798;
var viewHeight = 196;
var sectionId = 'dynsection-0';
</script>
<script xlink:href="svgpan.js"/>
<svg id="graph" class="graph">
<g id="viewport">
<title>WefabL2.cc</title>
<!-- Node1 -->
<g id="node1" class="node"><title>Node1</title>
<polygon fill="#bfbfbf" stroke="black" points="260.5,-168.5 260.5,-187.5 329.5,-187.5 329.5,-168.5 260.5,-168.5"/>
<text text-anchor="middle" x="295" y="-175.5" font-family="Helvetica,sans-Serif" font-size="10.00">WefabL2.cc</text>
</g>
<!-- Node2 -->
<g id="node2" class="node"><title>Node2</title>
<polygon fill="none" stroke="#bfbfbf" points="373.5,-0.5 373.5,-19.5 416.5,-19.5 416.5,-0.5 373.5,-0.5"/>
<text text-anchor="middle" x="395" y="-7.5" font-family="Helvetica,sans-Serif" font-size="10.00">cstdio</text>
</g>
<!-- Node1&#45;&gt;Node2 -->
<g id="edge1" class="edge"><title>Node1&#45;&gt;Node2</title>
<path fill="none" stroke="midnightblue" d="M296.375,-168.318C300.043,-147.315 311.631,-92.7814 338,-56 346.811,-43.7101 359.877,-33.0586 371.277,-25.2079"/>
<polygon fill="midnightblue" stroke="midnightblue" points="373.498,-27.9379 379.95,-19.5344 369.666,-22.0799 373.498,-27.9379"/>
</g>
<!-- Node3 -->
<g id="node3" class="node"><title>Node3</title>
<polygon fill="none" stroke="#bfbfbf" points="72,-112.5 72,-131.5 118,-131.5 118,-112.5 72,-112.5"/>
<text text-anchor="middle" x="95" y="-119.5" font-family="Helvetica,sans-Serif" font-size="10.00">cstring</text>
</g>
<!-- Node1&#45;&gt;Node3 -->
<g id="edge2" class="edge"><title>Node1&#45;&gt;Node3</title>
<path fill="none" stroke="midnightblue" d="M263.309,-168.444C226.36,-158.467 165.576,-142.056 128.053,-131.924"/>
<polygon fill="midnightblue" stroke="midnightblue" points="128.692,-128.471 118.125,-129.244 126.867,-135.229 128.692,-128.471"/>
</g>
<!-- Node4 -->
<g id="node4" class="node"><title>Node4</title>
<polygon fill="none" stroke="#bfbfbf" points="125.5,-56.5 125.5,-75.5 166.5,-75.5 166.5,-56.5 125.5,-56.5"/>
<text text-anchor="middle" x="146" y="-63.5" font-family="Helvetica,sans-Serif" font-size="10.00">string</text>
</g>
<!-- Node1&#45;&gt;Node4 -->
<g id="edge3" class="edge"><title>Node1&#45;&gt;Node4</title>
<path fill="none" stroke="midnightblue" d="M260.462,-173.77C231.171,-169.224 190.035,-158.289 165,-132 153.228,-119.639 148.698,-100.392 146.981,-86.045"/>
<polygon fill="midnightblue" stroke="midnightblue" points="150.447,-85.4876 146.123,-75.8151 143.471,-86.0727 150.447,-85.4876"/>
</g>
<!-- Node5 -->
<g id="node5" class="node"><title>Node5</title>
<polygon fill="none" stroke="#bfbfbf" points="174,-112.5 174,-131.5 218,-131.5 218,-112.5 174,-112.5"/>
<text text-anchor="middle" x="196" y="-119.5" font-family="Helvetica,sans-Serif" font-size="10.00">cmath</text>
</g>
<!-- Node1&#45;&gt;Node5 -->
<g id="edge4" class="edge"><title>Node1&#45;&gt;Node5</title>
<path fill="none" stroke="midnightblue" d="M279.094,-168.324C263.362,-159.743 239.058,-146.486 220.791,-136.522"/>
<polygon fill="midnightblue" stroke="midnightblue" points="222.322,-133.37 211.867,-131.655 218.97,-139.516 222.322,-133.37"/>
</g>
<!-- Node6 -->
<g id="node6" class="node"><title>Node6</title>
<g id="a_node6"><a xlink:href="qt_8h.html" target="_top" xlink:title="Header file for the Quantum Trio LibraryDavid Sherrill 1994.">
<polygon fill="none" stroke="black" points="0,-112.5 0,-131.5 54,-131.5 54,-112.5 0,-112.5"/>
<text text-anchor="middle" x="27" y="-119.5" font-family="Helvetica,sans-Serif" font-size="10.00">libqt/qt.h</text>
</a>
</g>
</g>
<!-- Node1&#45;&gt;Node6 -->
<g id="edge5" class="edge"><title>Node1&#45;&gt;Node6</title>
<path fill="none" stroke="midnightblue" d="M260.292,-170.865C216.78,-163.044 139.686,-148.756 64.2392,-132.183"/>
<polygon fill="midnightblue" stroke="midnightblue" points="64.6101,-128.68 54.0901,-129.937 63.0978,-135.515 64.6101,-128.68"/>
</g>
<!-- Node7 -->
<g id="node7" class="node"><title>Node7</title>
<g id="a_node7"><a xlink:href="libciomr_8h_source.html" target="_top" xlink:title="libciomr/libciomr.h">
<polygon fill="none" stroke="black" points="347.5,-56.5 347.5,-75.5 442.5,-75.5 442.5,-56.5 347.5,-56.5"/>
<text text-anchor="middle" x="395" y="-63.5" font-family="Helvetica,sans-Serif" font-size="10.00">libciomr/libciomr.h</text>
</a>
</g>
</g>
<!-- Node1&#45;&gt;Node7 -->
<g id="edge8" class="edge"><title>Node1&#45;&gt;Node7</title>
<path fill="none" stroke="midnightblue" d="M303.354,-168.477C312.1,-159.502 326.18,-144.912 338,-132 352.965,-115.654 369.629,-96.5397 381.054,-83.289"/>
<polygon fill="midnightblue" stroke="midnightblue" points="383.871,-85.3812 387.735,-75.516 378.563,-80.8184 383.871,-85.3812"/>
</g>
<!-- Node8 -->
<g id="node8" class="node"><title>Node8</title>
<g id="a_node8"><a xlink:href="lib_2libdpd_2dpd_8h.html" target="_top" xlink:title="Enter brief description of file here.">
<polygon fill="none" stroke="black" points="591.5,-56.5 591.5,-75.5 660.5,-75.5 660.5,-56.5 591.5,-56.5"/>
<text text-anchor="middle" x="626" y="-63.5" font-family="Helvetica,sans-Serif" font-size="10.00">libdpd/dpd.h</text>
</a>
</g>
</g>
<!-- Node1&#45;&gt;Node8 -->
<g id="edge10" class="edge"><title>Node1&#45;&gt;Node8</title>
<path fill="none" stroke="midnightblue" d="M329.739,-175.192C377.665,-171.665 465.97,-161.413 535,-132 563.55,-119.835 591.925,-97.5203 609.213,-82.4734"/>
<polygon fill="midnightblue" stroke="midnightblue" points="611.624,-85.0129 616.761,-75.7468 606.967,-79.7868 611.624,-85.0129"/>
</g>
<!-- Node13 -->
<g id="node13" class="node"><title>Node13</title>
<g id="a_node13"><a xlink:href="cclambda_2MOInfo_8h.html" target="_top" xlink:title="Enter brief description of file here.">
<polygon fill="none" stroke="black" points="390.5,-112.5 390.5,-131.5 447.5,-131.5 447.5,-112.5 390.5,-112.5"/>
<text text-anchor="middle" x="419" y="-119.5" font-family="Helvetica,sans-Serif" font-size="10.00">MOInfo.h</text>
</a>
</g>
</g>
<!-- Node1&#45;&gt;Node13 -->
<g id="edge16" class="edge"><title>Node1&#45;&gt;Node13</title>
<path fill="none" stroke="midnightblue" d="M314.648,-168.444C334.965,-159.596 366.903,-145.687 390.098,-135.586"/>
<polygon fill="midnightblue" stroke="midnightblue" points="391.673,-138.718 399.444,-131.516 388.878,-132.3 391.673,-138.718"/>
</g>
<!-- Node14 -->
<g id="node14" class="node"><title>Node14</title>
<g id="a_node14"><a xlink:href="cclambda_2Params_8h.html" target="_top" xlink:title="Enter brief description of file here.">
<polygon fill="none" stroke="black" points="236.5,-112.5 236.5,-131.5 295.5,-131.5 295.5,-112.5 236.5,-112.5"/>
<text text-anchor="middle" x="266" y="-119.5" font-family="Helvetica,sans-Serif" font-size="10.00">Params.h</text>
</a>
</g>
</g>
<!-- Node1&#45;&gt;Node14 -->
<g id="edge17" class="edge"><title>Node1&#45;&gt;Node14</title>
<path fill="none" stroke="midnightblue" d="M290.211,-168.083C286.242,-160.691 280.475,-149.953 275.565,-140.811"/>
<polygon fill="midnightblue" stroke="midnightblue" points="278.514,-138.905 270.7,-131.751 272.347,-142.217 278.514,-138.905"/>
</g>
<!-- Node15 -->
<g id="node15" class="node"><title>Node15</title>
<g id="a_node15"><a xlink:href="cclambda_2globals_8h.html" target="_top" xlink:title="Enter brief description of file here.">
<polygon fill="none" stroke="black" points="470,-112.5 470,-131.5 526,-131.5 526,-112.5 470,-112.5"/>
<text text-anchor="middle" x="498" y="-119.5" font-family="Helvetica,sans-Serif" font-size="10.00">globals.h</text>
</a>
</g>
</g>
<!-- Node1&#45;&gt;Node15 -->
<g id="edge19" class="edge"><title>Node1&#45;&gt;Node15</title>
<path fill="none" stroke="midnightblue" d="M327.166,-168.444C363.291,-158.834 421.86,-143.254 460.157,-133.067"/>
<polygon fill="midnightblue" stroke="midnightblue" points="461.143,-136.426 469.907,-130.473 459.343,-129.661 461.143,-136.426"/>
</g>
<!-- Node6&#45;&gt;Node2 -->
<g id="edge6" class="edge"><title>Node6&#45;&gt;Node2</title>
<path fill="none" stroke="midnightblue" d="M35.9571,-112.152C51.0565,-97.8087 83.157,-69.7063 116,-56 200.509,-20.732 310.092,-12.9702 363.268,-11.3532"/>
<polygon fill="midnightblue" stroke="midnightblue" points="363.519,-14.8481 373.429,-11.0995 363.344,-7.85032 363.519,-14.8481"/>
</g>
<!-- Node6&#45;&gt;Node4 -->
<g id="edge7" class="edge"><title>Node6&#45;&gt;Node4</title>
<path fill="none" stroke="midnightblue" d="M45.8559,-112.444C65.266,-103.636 95.7301,-89.8116 117.965,-79.722"/>
<polygon fill="midnightblue" stroke="midnightblue" points="119.572,-82.836 127.232,-75.5164 116.68,-76.4615 119.572,-82.836"/>
</g>
<!-- Node7&#45;&gt;Node2 -->
<g id="edge9" class="edge"><title>Node7&#45;&gt;Node2</title>
<path fill="none" stroke="midnightblue" d="M395,-56.083C395,-49.0059 395,-38.8611 395,-29.9865"/>
<polygon fill="midnightblue" stroke="midnightblue" points="398.5,-29.751 395,-19.7511 391.5,-29.7511 398.5,-29.751"/>
</g>
<!-- Node8&#45;&gt;Node2 -->
<g id="edge11" class="edge"><title>Node8&#45;&gt;Node2</title>
<path fill="none" stroke="midnightblue" d="M591.417,-56.9157C546.767,-46.4781 469.697,-28.4616 426.567,-18.3793"/>
<polygon fill="midnightblue" stroke="midnightblue" points="427.162,-14.9242 416.628,-16.0559 425.569,-21.7404 427.162,-14.9242"/>
</g>
<!-- Node9 -->
<g id="node9" class="node"><title>Node9</title>
<g id="a_node9"><a xlink:href="psifiles_8h_source.html" target="_top" xlink:title="psifiles.h">
<polygon fill="none" stroke="black" points="546,-0.5 546,-19.5 602,-19.5 602,-0.5 546,-0.5"/>
<text text-anchor="middle" x="574" y="-7.5" font-family="Helvetica,sans-Serif" font-size="10.00">psifiles.h</text>
</a>
</g>
</g>
<!-- Node8&#45;&gt;Node9 -->
<g id="edge12" class="edge"><title>Node8&#45;&gt;Node9</title>
<path fill="none" stroke="midnightblue" d="M617.413,-56.083C609.841,-48.2195 598.622,-36.5688 589.486,-27.0813"/>
<polygon fill="midnightblue" stroke="midnightblue" points="591.885,-24.5266 582.427,-19.7511 586.842,-29.3821 591.885,-24.5266"/>
</g>
<!-- Node10 -->
<g id="node10" class="node"><title>Node10</title>
<g id="a_node10"><a xlink:href="libpsio_2config_8h_source.html" target="_top" xlink:title="libpsio/config.h">
<polygon fill="none" stroke="black" points="446,-0.5 446,-19.5 528,-19.5 528,-0.5 446,-0.5"/>
<text text-anchor="middle" x="487" y="-7.5" font-family="Helvetica,sans-Serif" font-size="10.00">libpsio/config.h</text>
</a>
</g>
</g>
<!-- Node8&#45;&gt;Node10 -->
<g id="edge13" class="edge"><title>Node8&#45;&gt;Node10</title>
<path fill="none" stroke="midnightblue" d="M603.975,-56.4435C580.896,-47.4776 544.438,-33.314 518.359,-23.1827"/>
<polygon fill="midnightblue" stroke="midnightblue" points="519.511,-19.8753 508.922,-19.5164 516.976,-26.4002 519.511,-19.8753"/>
</g>
<!-- Node11 -->
<g id="node11" class="node"><title>Node11</title>
<polygon fill="none" stroke="#bfbfbf" points="682,-0.5 682,-19.5 790,-19.5 790,-0.5 682,-0.5"/>
<text text-anchor="middle" x="736" y="-7.5" font-family="Helvetica,sans-Serif" font-size="10.00">boost/shared_ptr.hpp</text>
</g>
<!-- Node8&#45;&gt;Node11 -->
<g id="edge14" class="edge"><title>Node8&#45;&gt;Node11</title>
<path fill="none" stroke="midnightblue" d="M643.673,-56.324C661.394,-47.6247 688.903,-34.1202 709.288,-24.113"/>
<polygon fill="midnightblue" stroke="midnightblue" points="710.936,-27.2031 718.37,-19.6545 707.851,-20.9195 710.936,-27.2031"/>
</g>
<!-- Node12 -->
<g id="node12" class="node"><title>Node12</title>
<polygon fill="none" stroke="#bfbfbf" points="620,-0.5 620,-19.5 664,-19.5 664,-0.5 620,-0.5"/>
<text text-anchor="middle" x="642" y="-7.5" font-family="Helvetica,sans-Serif" font-size="10.00">vector</text>
</g>
<!-- Node8&#45;&gt;Node12 -->
<g id="edge15" class="edge"><title>Node8&#45;&gt;Node12</title>
<path fill="none" stroke="midnightblue" d="M628.642,-56.083C630.786,-48.8486 633.879,-38.4087 636.549,-29.3968"/>
<polygon fill="midnightblue" stroke="midnightblue" points="639.922,-30.3334 639.407,-19.7511 633.21,-28.3447 639.922,-30.3334"/>
</g>
<!-- Node14&#45;&gt;Node4 -->
<g id="edge18" class="edge"><title>Node14&#45;&gt;Node4</title>
<path fill="none" stroke="midnightblue" d="M246.986,-112.444C227.412,-103.636 196.692,-89.8116 174.271,-79.722"/>
<polygon fill="midnightblue" stroke="midnightblue" points="175.481,-76.4284 164.925,-75.5164 172.608,-82.8119 175.481,-76.4284"/>
</g>
<!-- Node15&#45;&gt;Node9 -->
<g id="edge20" class="edge"><title>Node15&#45;&gt;Node9</title>
<path fill="none" stroke="midnightblue" d="M508.974,-112.284C519.069,-103.836 533.953,-90.241 544,-76 554.289,-61.4154 562.475,-42.739 567.68,-29.1512"/>
<polygon fill="midnightblue" stroke="midnightblue" points="571.054,-30.1143 571.198,-19.5205 564.479,-27.7125 571.054,-30.1143"/>
</g>
<!-- Node15&#45;&gt;Node8 -->
<g id="edge21" class="edge"><title>Node15&#45;&gt;Node8</title>
<path fill="none" stroke="midnightblue" d="M518.282,-112.444C539.347,-103.557 572.517,-89.5632 596.486,-79.4514"/>
<polygon fill="midnightblue" stroke="midnightblue" points="597.96,-82.6283 605.813,-75.5164 595.239,-76.1787 597.96,-82.6283"/>
</g>
<!-- Node15&#45;&gt;Node7 -->
<g id="edge22" class="edge"><title>Node15&#45;&gt;Node7</title>
<path fill="none" stroke="midnightblue" d="M481.451,-112.324C465.008,-103.703 439.565,-90.3643 420.532,-80.3855"/>
<polygon fill="midnightblue" stroke="midnightblue" points="421.989,-77.198 411.508,-75.6545 418.739,-83.3977 421.989,-77.198"/>
</g>
<!-- Node16 -->
<g id="node16" class="node"><title>Node16</title>
<g id="a_node16"><a xlink:href="psio_8h_source.html" target="_top" xlink:title="libpsio/psio.h">
<polygon fill="none" stroke="black" points="461,-56.5 461,-75.5 535,-75.5 535,-56.5 461,-56.5"/>
<text text-anchor="middle" x="498" y="-63.5" font-family="Helvetica,sans-Serif" font-size="10.00">libpsio/psio.h</text>
</a>
</g>
</g>
<!-- Node15&#45;&gt;Node16 -->
<g id="edge23" class="edge"><title>Node15&#45;&gt;Node16</title>
<path fill="none" stroke="midnightblue" d="M498,-112.083C498,-105.006 498,-94.8611 498,-85.9865"/>
<polygon fill="midnightblue" stroke="midnightblue" points="501.5,-85.751 498,-75.7511 494.5,-85.7511 501.5,-85.751"/>
</g>
<!-- Node16&#45;&gt;Node2 -->
<g id="edge24" class="edge"><title>Node16&#45;&gt;Node2</title>
<path fill="none" stroke="midnightblue" d="M481.451,-56.324C465.008,-47.7034 439.565,-34.3643 420.532,-24.3855"/>
<polygon fill="midnightblue" stroke="midnightblue" points="421.989,-21.198 411.508,-19.6545 418.739,-27.3977 421.989,-21.198"/>
</g>
<!-- Node16&#45;&gt;Node10 -->
<g id="edge25" class="edge"><title>Node16&#45;&gt;Node10</title>
<path fill="none" stroke="midnightblue" d="M496.184,-56.083C494.726,-48.9272 492.629,-38.6353 490.807,-29.6911"/>
<polygon fill="midnightblue" stroke="midnightblue" points="494.208,-28.8512 488.783,-19.7511 487.349,-30.2485 494.208,-28.8512"/>
</g>
</g>
</svg>
        <g id="navigator" transform="translate(0 0)" fill="#404254">
                <rect fill="#f2f5e9" fill-opacity="0.5" stroke="#606060" stroke-width=".5" x="0" y="0" width="60" height="60"/>
                <use id="zoomplus" xlink:href="#zoomPlus" x="17" y="9" onmousedown="handleZoom(evt,'in')"/>
                <use id="zoomminus" xlink:href="#zoomMin" x="42" y="9" onmousedown="handleZoom(evt,'out')"/>
                <use id="reset" xlink:href="#resetDef" x="30" y="36" onmousedown="handleReset()"/>
                <g id="arrowUp" xlink:href="#dirArrow" transform="translate(30 24)" onmousedown="handlePan(0,-1)">
                  <use xlink:href="#rim" fill="#404040">
                        <set attributeName="fill" to="#808080" begin="arrowUp.mouseover" end="arrowUp.mouseout"/>
                  </use>
                  <path fill="none" stroke="white" stroke-width="1.5" d="M0,-3.0v7 M-2.5,-0.5L0,-3.0L2.5,-0.5"/>
                </g>
                <g id="arrowRight" xlink:href="#dirArrow" transform="rotate(90) translate(36 -43)" onmousedown="handlePan(1,0)">
                  <use xlink:href="#rim" fill="#404040">
                        <set attributeName="fill" to="#808080" begin="arrowRight.mouseover" end="arrowRight.mouseout"/>
                  </use>
                  <path fill="none" stroke="white" stroke-width="1.5" d="M0,-3.0v7 M-2.5,-0.5L0,-3.0L2.5,-0.5"/>
                </g>
                <g id="arrowDown" xlink:href="#dirArrow" transform="rotate(180) translate(-30 -48)" onmousedown="handlePan(0,1)">
                  <use xlink:href="#rim" fill="#404040">
                        <set attributeName="fill" to="#808080" begin="arrowDown.mouseover" end="arrowDown.mouseout"/>
                  </use>
                  <path fill="none" stroke="white" stroke-width="1.5" d="M0,-3.0v7 M-2.5,-0.5L0,-3.0L2.5,-0.5"/>
                </g>
                <g id="arrowLeft" xlink:href="#dirArrow" transform="rotate(270) translate(-36 17)" onmousedown="handlePan(-1,0)">
                  <use xlink:href="#rim" fill="#404040">
                        <set attributeName="fill" to="#808080" begin="arrowLeft.mouseover" end="arrowLeft.mouseout"/>
                  </use>
                  <path fill="none" stroke="white" stroke-width="1.5" d="M0,-3.0v7 M-2.5,-0.5L0,-3.0L2.5,-0.5"/>
                </g>
        </g>
        <svg viewBox="0 0 15 15" width="100%" height="30px" preserveAspectRatio="xMaxYMin meet">
         <g id="arrow_out" transform="scale(0.3 0.3)">
          <a xlink:href="WefabL2_8cc__incl_org.svg" target="_base">
           <rect id="button" ry="5" rx="5" y="6" x="6" height="38" width="38"
                fill="#f2f5e9" fill-opacity="0.5" stroke="#606060" stroke-width="1.0"/>
           <path id="arrow"
             d="M 11.500037,31.436501 C 11.940474,20.09759 22.043105,11.32322 32.158766,21.979434 L 37.068811,17.246167 C 37.068811,17.246167 37.088388,32 37.088388,32 L 22.160133,31.978069 C 22.160133,31.978069 26.997745,27.140456 26.997745,27.140456 C 18.528582,18.264221 13.291696,25.230495 11.500037,31.436501 z"
             style="fill:#404040;"/>
          </a>
         </g>
        </svg>
</svg>
