<?xml version="1.0" encoding="UTF-8" standalone="no"?>
<!DOCTYPE svg PUBLIC "-//W3C//DTD SVG 1.1//EN"
 "http://www.w3.org/Graphics/SVG/1.1/DTD/svg11.dtd">
<!-- Generated by graphviz version 2.30.1 (20140110.0959)
 -->
<!-- Title: WmnefDD.cc Pages: 1 -->
<svg width="413pt" height="196pt"
 viewBox="0.00 0.00 413.00 196.00" xmlns="http://www.w3.org/2000/svg" xmlns:xlink="http://www.w3.org/1999/xlink">
<g id="graph0" class="graph" transform="scale(1 1) rotate(0) translate(4 192)">
<title>WmnefDD.cc</title>
<!-- Node1 -->
<g id="node1" class="node"><title>Node1</title>
<polygon fill="#bfbfbf" stroke="black" points="152.5,-168.5 152.5,-187.5 229.5,-187.5 229.5,-168.5 152.5,-168.5"/>
<text text-anchor="middle" x="191" y="-175.5" font-family="Helvetica,sans-Serif" font-size="10.00">WmnefDD.cc</text>
</g>
<!-- Node2 -->
<g id="node2" class="node"><title>Node2</title>
<polygon fill="none" stroke="#bfbfbf" points="-0.5,-0.5 -0.5,-19.5 42.5,-19.5 42.5,-0.5 -0.5,-0.5"/>
<text text-anchor="middle" x="21" y="-7.5" font-family="Helvetica,sans-Serif" font-size="10.00">cstdio</text>
</g>
<!-- Node1&#45;&gt;Node2 -->
<g id="edge1" class="edge"><title>Node1&#45;&gt;Node2</title>
<path fill="none" stroke="midnightblue" d="M152.328,-174.464C121.009,-170.341 77.966,-159.636 52,-132 25.4836,-103.778 20.8764,-56.0523 20.5151,-29.765"/>
<polygon fill="midnightblue" stroke="midnightblue" points="24.0157,-29.657 20.5764,-19.6359 17.0159,-29.6145 24.0157,-29.657"/>
</g>
<!-- Node3 -->
<g id="node3" class="node"><title>Node3</title>
<polygon fill="none" stroke="#bfbfbf" points="135,-112.5 135,-131.5 179,-131.5 179,-112.5 135,-112.5"/>
<text text-anchor="middle" x="157" y="-119.5" font-family="Helvetica,sans-Serif" font-size="10.00">cmath</text>
</g>
<!-- Node1&#45;&gt;Node3 -->
<g id="edge2" class="edge"><title>Node1&#45;&gt;Node3</title>
<path fill="none" stroke="midnightblue" d="M185.386,-168.083C180.633,-160.534 173.682,-149.495 167.848,-140.23"/>
<polygon fill="midnightblue" stroke="midnightblue" points="170.8,-138.349 162.51,-131.751 164.876,-142.078 170.8,-138.349"/>
</g>
<!-- Node4 -->
<g id="node4" class="node"><title>Node4</title>
<g id="a_node4"><a xlink:href="cceom_2MOInfo_8h.html" target="_top" xlink:title="Enter brief description of file here.">
<polygon fill="none" stroke="black" points="197.5,-112.5 197.5,-131.5 254.5,-131.5 254.5,-112.5 197.5,-112.5"/>
<text text-anchor="middle" x="226" y="-119.5" font-family="Helvetica,sans-Serif" font-size="10.00">MOInfo.h</text>
</a>
</g>
</g>
<!-- Node1&#45;&gt;Node4 -->
<g id="edge3" class="edge"><title>Node1&#45;&gt;Node4</title>
<path fill="none" stroke="midnightblue" d="M196.78,-168.083C201.672,-160.534 208.827,-149.495 214.833,-140.23"/>
<polygon fill="midnightblue" stroke="midnightblue" points="217.826,-142.046 220.328,-131.751 211.952,-138.239 217.826,-142.046"/>
</g>
<!-- Node5 -->
<g id="node5" class="node"><title>Node5</title>
<g id="a_node5"><a xlink:href="cceom_2Params_8h.html" target="_top" xlink:title="Enter brief description of file here.">
<polygon fill="none" stroke="black" points="272.5,-112.5 272.5,-131.5 331.5,-131.5 331.5,-112.5 272.5,-112.5"/>
<text text-anchor="middle" x="302" y="-119.5" font-family="Helvetica,sans-Serif" font-size="10.00">Params.h</text>
</a>
</g>
</g>
<!-- Node1&#45;&gt;Node5 -->
<g id="edge4" class="edge"><title>Node1&#45;&gt;Node5</title>
<path fill="none" stroke="midnightblue" d="M208.834,-168.324C226.716,-159.625 254.475,-146.12 275.046,-136.113"/>
<polygon fill="midnightblue" stroke="midnightblue" points="276.749,-139.177 284.21,-131.655 273.687,-132.882 276.749,-139.177"/>
</g>
<!-- Node7 -->
<g id="node7" class="node"><title>Node7</title>
<g id="a_node7"><a xlink:href="cceom_2Local_8h.html" target="_top" xlink:title="Enter brief description of file here.">
<polygon fill="none" stroke="black" points="350,-112.5 350,-131.5 398,-131.5 398,-112.5 350,-112.5"/>
<text text-anchor="middle" x="374" y="-119.5" font-family="Helvetica,sans-Serif" font-size="10.00">Local.h</text>
</a>
</g>
</g>
<!-- Node1&#45;&gt;Node7 -->
<g id="edge6" class="edge"><title>Node1&#45;&gt;Node7</title>
<path fill="none" stroke="midnightblue" d="M219.997,-168.444C252.652,-158.808 305.653,-143.168 340.17,-132.983"/>
<polygon fill="midnightblue" stroke="midnightblue" points="341.214,-136.324 349.814,-130.137 339.232,-129.61 341.214,-136.324"/>
</g>
<!-- Node8 -->
<g id="node8" class="node"><title>Node8</title>
<g id="a_node8"><a xlink:href="cceom_2globals_8h.html" target="_top" xlink:title="Enter brief description of file here.">
<polygon fill="none" stroke="black" points="61,-112.5 61,-131.5 117,-131.5 117,-112.5 61,-112.5"/>
<text text-anchor="middle" x="89" y="-119.5" font-family="Helvetica,sans-Serif" font-size="10.00">globals.h</text>
</a>
</g>
</g>
<!-- Node1&#45;&gt;Node8 -->
<g id="edge8" class="edge"><title>Node1&#45;&gt;Node8</title>
<path fill="none" stroke="midnightblue" d="M174.612,-168.324C158.329,-159.703 133.133,-146.364 114.284,-136.386"/>
<polygon fill="midnightblue" stroke="midnightblue" points="115.823,-133.24 105.347,-131.655 112.548,-139.427 115.823,-133.24"/>
</g>
<!-- Node6 -->
<g id="node6" class="node"><title>Node6</title>
<polygon fill="none" stroke="#bfbfbf" points="317.5,-56.5 317.5,-75.5 358.5,-75.5 358.5,-56.5 317.5,-56.5"/>
<text text-anchor="middle" x="338" y="-63.5" font-family="Helvetica,sans-Serif" font-size="10.00">string</text>
</g>
<!-- Node5&#45;&gt;Node6 -->
<g id="edge5" class="edge"><title>Node5&#45;&gt;Node6</title>
<path fill="none" stroke="midnightblue" d="M307.945,-112.083C312.977,-104.534 320.337,-93.4948 326.513,-84.2298"/>
<polygon fill="midnightblue" stroke="midnightblue" points="329.531,-86.0131 332.166,-75.7511 323.707,-82.1301 329.531,-86.0131"/>
</g>
<!-- Node7&#45;&gt;Node6 -->
<g id="edge7" class="edge"><title>Node7&#45;&gt;Node6</title>
<path fill="none" stroke="midnightblue" d="M368.055,-112.083C363.023,-104.534 355.663,-93.4948 349.487,-84.2298"/>
<polygon fill="midnightblue" stroke="midnightblue" points="352.293,-82.1301 343.834,-75.7511 346.469,-86.0131 352.293,-82.1301"/>
</g>
<!-- Node9 -->
<g id="node9" class="node"><title>Node9</title>
<g id="a_node9"><a xlink:href="psifiles_8h_source.html" target="_top" xlink:title="psifiles.h">
<polygon fill="none" stroke="black" points="61,-0.5 61,-19.5 117,-19.5 117,-0.5 61,-0.5"/>
<text text-anchor="middle" x="89" y="-7.5" font-family="Helvetica,sans-Serif" font-size="10.00">psifiles.h</text>
</a>
</g>
</g>
<!-- Node8&#45;&gt;Node9 -->
<g id="edge9" class="edge"><title>Node8&#45;&gt;Node9</title>
<path fill="none" stroke="midnightblue" d="M89,-112.368C89,-94.617 89,-53.6664 89,-29.5974"/>
<polygon fill="midnightblue" stroke="midnightblue" points="92.5001,-29.5914 89,-19.5914 85.5001,-29.5915 92.5001,-29.5914"/>
</g>
<!-- Node10 -->
<g id="node10" class="node"><title>Node10</title>
<g id="a_node10"><a xlink:href="lib_2libdpd_2dpd_8h.html" target="_top" xlink:title="Enter brief description of file here.">
<polygon fill="none" stroke="black" points="129.5,-56.5 129.5,-75.5 198.5,-75.5 198.5,-56.5 129.5,-56.5"/>
<text text-anchor="middle" x="164" y="-63.5" font-family="Helvetica,sans-Serif" font-size="10.00">libdpd/dpd.h</text>
</a>
</g>
</g>
<!-- Node8&#45;&gt;Node10 -->
<g id="edge10" class="edge"><title>Node8&#45;&gt;Node10</title>
<path fill="none" stroke="midnightblue" d="M101.05,-112.324C112.463,-104.107 129.831,-91.6017 143.435,-81.8069"/>
<polygon fill="midnightblue" stroke="midnightblue" points="145.66,-84.5174 151.731,-75.8339 141.57,-78.8366 145.66,-84.5174"/>
</g>
<!-- Node10&#45;&gt;Node2 -->
<g id="edge11" class="edge"><title>Node10&#45;&gt;Node2</title>
<path fill="none" stroke="midnightblue" d="M141.341,-56.4435C117.319,-47.3721 79.2064,-32.98 52.3191,-22.8268"/>
<polygon fill="midnightblue" stroke="midnightblue" points="53.2084,-19.4214 42.6167,-19.1629 50.7354,-25.9701 53.2084,-19.4214"/>
</g>
<!-- Node10&#45;&gt;Node9 -->
<g id="edge12" class="edge"><title>Node10&#45;&gt;Node9</title>
<path fill="none" stroke="midnightblue" d="M151.95,-56.324C140.537,-48.1066 123.169,-35.6017 109.565,-25.8069"/>
<polygon fill="midnightblue" stroke="midnightblue" points="111.43,-22.8366 101.269,-19.8339 107.34,-28.5174 111.43,-22.8366"/>
</g>
<!-- Node11 -->
<g id="node11" class="node"><title>Node11</title>
<g id="a_node11"><a xlink:href="libpsio_2config_8h_source.html" target="_top" xlink:title="libpsio/config.h">
<polygon fill="none" stroke="black" points="135,-0.5 135,-19.5 217,-19.5 217,-0.5 135,-0.5"/>
<text text-anchor="middle" x="176" y="-7.5" font-family="Helvetica,sans-Serif" font-size="10.00">libpsio/config.h</text>
</a>
</g>
</g>
<!-- Node10&#45;&gt;Node11 -->
<g id="edge13" class="edge"><title>Node10&#45;&gt;Node11</title>
<path fill="none" stroke="midnightblue" d="M165.982,-56.083C167.572,-48.9272 169.859,-38.6353 171.846,-29.6911"/>
<polygon fill="midnightblue" stroke="midnightblue" points="175.303,-30.2722 174.055,-19.7511 168.469,-28.7537 175.303,-30.2722"/>
</g>
<!-- Node12 -->
<g id="node12" class="node"><title>Node12</title>
<polygon fill="none" stroke="#bfbfbf" points="235,-0.5 235,-19.5 343,-19.5 343,-0.5 235,-0.5"/>
<text text-anchor="middle" x="289" y="-7.5" font-family="Helvetica,sans-Serif" font-size="10.00">boost/shared_ptr.hpp</text>
</g>
<!-- Node10&#45;&gt;Node12 -->
<g id="edge14" class="edge"><title>Node10&#45;&gt;Node12</title>
<path fill="none" stroke="midnightblue" d="M183.807,-56.4435C204.287,-47.5961 236.483,-33.6875 259.865,-23.5865"/>
<polygon fill="midnightblue" stroke="midnightblue" points="261.494,-26.6953 269.286,-19.5164 258.718,-20.2692 261.494,-26.6953"/>
</g>
<!-- Node13 -->
<g id="node13" class="node"><title>Node13</title>
<polygon fill="none" stroke="#bfbfbf" points="361,-0.5 361,-19.5 405,-19.5 405,-0.5 361,-0.5"/>
<text text-anchor="middle" x="383" y="-7.5" font-family="Helvetica,sans-Serif" font-size="10.00">vector</text>
</g>
<!-- Node10&#45;&gt;Node13 -->
<g id="edge15" class="edge"><title>Node10&#45;&gt;Node13</title>
<path fill="none" stroke="midnightblue" d="M198.774,-57.1984C234.607,-49.0442 292.301,-35.5967 350.894,-20.2045"/>
<polygon fill="midnightblue" stroke="midnightblue" points="351.911,-23.556 360.684,-17.6164 350.122,-16.7884 351.911,-23.556"/>
</g>
</g>
</svg>
