<?xml version="1.0" encoding="UTF-8" standalone="no"?>
<!DOCTYPE svg PUBLIC "-//W3C//DTD SVG 1.1//EN"
 "http://www.w3.org/Graphics/SVG/1.1/DTD/svg11.dtd">
<!-- Generated by graphviz version 2.30.1 (20140110.0959)
 -->
<!-- Title: write.cc Pages: 1 -->
<svg width="561pt" height="140pt"
 viewBox="0.00 0.00 561.00 140.00" xmlns="http://www.w3.org/2000/svg" xmlns:xlink="http://www.w3.org/1999/xlink">
<g id="graph0" class="graph" transform="scale(1 1) rotate(0) translate(4 136)">
<title>write.cc</title>
<!-- Node1 -->
<g id="node1" class="node"><title>Node1</title>
<polygon fill="#bfbfbf" stroke="black" points="155.5,-112.5 155.5,-131.5 206.5,-131.5 206.5,-112.5 155.5,-112.5"/>
<text text-anchor="middle" x="181" y="-119.5" font-family="Helvetica,sans-Serif" font-size="10.00">write.cc</text>
</g>
<!-- Node2 -->
<g id="node2" class="node"><title>Node2</title>
<polygon fill="none" stroke="#bfbfbf" points="-0.5,-56.5 -0.5,-75.5 44.5,-75.5 44.5,-56.5 -0.5,-56.5"/>
<text text-anchor="middle" x="22" y="-63.5" font-family="Helvetica,sans-Serif" font-size="10.00">cstdlib</text>
</g>
<!-- Node1&#45;&gt;Node2 -->
<g id="edge1" class="edge"><title>Node1&#45;&gt;Node2</title>
<path fill="none" stroke="midnightblue" d="M155.806,-112.444C128.271,-103.092 84.0862,-88.0859 54.0896,-77.8984"/>
<polygon fill="midnightblue" stroke="midnightblue" points="55.0997,-74.5451 44.5054,-74.6433 52.8486,-81.1733 55.0997,-74.5451"/>
</g>
<!-- Node3 -->
<g id="node3" class="node"><title>Node3</title>
<polygon fill="none" stroke="#bfbfbf" points="63,-56.5 63,-75.5 109,-75.5 109,-56.5 63,-56.5"/>
<text text-anchor="middle" x="86" y="-63.5" font-family="Helvetica,sans-Serif" font-size="10.00">cstring</text>
</g>
<!-- Node1&#45;&gt;Node3 -->
<g id="edge2" class="edge"><title>Node1&#45;&gt;Node3</title>
<path fill="none" stroke="midnightblue" d="M165.737,-112.324C150.779,-103.822 127.745,-90.7288 110.273,-80.7975"/>
<polygon fill="midnightblue" stroke="midnightblue" points="111.649,-77.5534 101.226,-75.6545 108.19,-83.639 111.649,-77.5534"/>
</g>
<!-- Node4 -->
<g id="node4" class="node"><title>Node4</title>
<polygon fill="none" stroke="#bfbfbf" points="127,-56.5 127,-75.5 235,-75.5 235,-56.5 127,-56.5"/>
<text text-anchor="middle" x="181" y="-63.5" font-family="Helvetica,sans-Serif" font-size="10.00">boost/shared_ptr.hpp</text>
</g>
<!-- Node1&#45;&gt;Node4 -->
<g id="edge3" class="edge"><title>Node1&#45;&gt;Node4</title>
<path fill="none" stroke="midnightblue" d="M181,-112.083C181,-105.006 181,-94.8611 181,-85.9865"/>
<polygon fill="midnightblue" stroke="midnightblue" points="184.5,-85.751 181,-75.7511 177.5,-85.7511 184.5,-85.751"/>
</g>
<!-- Node5 -->
<g id="node5" class="node"><title>Node5</title>
<g id="a_node5"><a xlink:href="psio_8h_source.html" target="_top" xlink:title="libpsio/psio.h">
<polygon fill="none" stroke="black" points="253,-56.5 253,-75.5 327,-75.5 327,-56.5 253,-56.5"/>
<text text-anchor="middle" x="290" y="-63.5" font-family="Helvetica,sans-Serif" font-size="10.00">libpsio/psio.h</text>
</a>
</g>
</g>
<!-- Node1&#45;&gt;Node5 -->
<g id="edge4" class="edge"><title>Node1&#45;&gt;Node5</title>
<path fill="none" stroke="midnightblue" d="M198.513,-112.324C216.072,-103.625 243.331,-90.1202 263.531,-80.113"/>
<polygon fill="midnightblue" stroke="midnightblue" points="265.124,-83.23 272.531,-75.6545 262.016,-76.9575 265.124,-83.23"/>
</g>
<!-- Node8 -->
<g id="node8" class="node"><title>Node8</title>
<g id="a_node8"><a xlink:href="psio_8hpp_source.html" target="_top" xlink:title="libpsio/psio.hpp">
<polygon fill="none" stroke="black" points="365,-56.5 365,-75.5 449,-75.5 449,-56.5 365,-56.5"/>
<text text-anchor="middle" x="407" y="-63.5" font-family="Helvetica,sans-Serif" font-size="10.00">libpsio/psio.hpp</text>
</a>
</g>
</g>
<!-- Node1&#45;&gt;Node8 -->
<g id="edge7" class="edge"><title>Node1&#45;&gt;Node8</title>
<path fill="none" stroke="midnightblue" d="M206.925,-114.806C244.623,-105.798 315.128,-88.9518 361.569,-77.8552"/>
<polygon fill="midnightblue" stroke="midnightblue" points="362.468,-81.2391 371.381,-75.5108 360.841,-74.4307 362.468,-81.2391"/>
</g>
<!-- Node6 -->
<g id="node6" class="node"><title>Node6</title>
<polygon fill="none" stroke="#bfbfbf" points="187.5,-0.5 187.5,-19.5 230.5,-19.5 230.5,-0.5 187.5,-0.5"/>
<text text-anchor="middle" x="209" y="-7.5" font-family="Helvetica,sans-Serif" font-size="10.00">cstdio</text>
</g>
<!-- Node5&#45;&gt;Node6 -->
<g id="edge5" class="edge"><title>Node5&#45;&gt;Node6</title>
<path fill="none" stroke="midnightblue" d="M276.986,-56.324C264.468,-47.979 245.318,-35.2122 230.529,-25.3524"/>
<polygon fill="midnightblue" stroke="midnightblue" points="232.244,-22.2894 221.982,-19.6545 228.361,-28.1137 232.244,-22.2894"/>
</g>
<!-- Node7 -->
<g id="node7" class="node"><title>Node7</title>
<g id="a_node7"><a xlink:href="libpsio_2config_8h_source.html" target="_top" xlink:title="libpsio/config.h">
<polygon fill="none" stroke="black" points="249,-0.5 249,-19.5 331,-19.5 331,-0.5 249,-0.5"/>
<text text-anchor="middle" x="290" y="-7.5" font-family="Helvetica,sans-Serif" font-size="10.00">libpsio/config.h</text>
</a>
</g>
</g>
<!-- Node5&#45;&gt;Node7 -->
<g id="edge6" class="edge"><title>Node5&#45;&gt;Node7</title>
<path fill="none" stroke="midnightblue" d="M290,-56.083C290,-49.0059 290,-38.8611 290,-29.9865"/>
<polygon fill="midnightblue" stroke="midnightblue" points="293.5,-29.751 290,-19.7511 286.5,-29.7511 293.5,-29.751"/>
</g>
<!-- Node9 -->
<g id="node9" class="node"><title>Node9</title>
<polygon fill="none" stroke="#bfbfbf" points="349.5,-0.5 349.5,-19.5 390.5,-19.5 390.5,-0.5 349.5,-0.5"/>
<text text-anchor="middle" x="370" y="-7.5" font-family="Helvetica,sans-Serif" font-size="10.00">string</text>
</g>
<!-- Node8&#45;&gt;Node9 -->
<g id="edge8" class="edge"><title>Node8&#45;&gt;Node9</title>
<path fill="none" stroke="midnightblue" d="M400.89,-56.083C395.718,-48.5341 388.154,-37.4948 381.806,-28.2298"/>
<polygon fill="midnightblue" stroke="midnightblue" points="384.536,-26.0221 375.996,-19.7511 378.761,-29.9787 384.536,-26.0221"/>
</g>
<!-- Node10 -->
<g id="node10" class="node"><title>Node10</title>
<polygon fill="none" stroke="#bfbfbf" points="408.5,-0.5 408.5,-19.5 443.5,-19.5 443.5,-0.5 408.5,-0.5"/>
<text text-anchor="middle" x="426" y="-7.5" font-family="Helvetica,sans-Serif" font-size="10.00">map</text>
</g>
<!-- Node8&#45;&gt;Node10 -->
<g id="edge9" class="edge"><title>Node8&#45;&gt;Node10</title>
<path fill="none" stroke="midnightblue" d="M410.137,-56.083C412.683,-48.8486 416.356,-38.4087 419.527,-29.3968"/>
<polygon fill="midnightblue" stroke="midnightblue" points="422.903,-30.3459 422.921,-19.7511 416.3,-28.0225 422.903,-30.3459"/>
</g>
<!-- Node11 -->
<g id="node11" class="node"><title>Node11</title>
<polygon fill="none" stroke="#bfbfbf" points="462,-0.5 462,-19.5 492,-19.5 492,-0.5 462,-0.5"/>
<text text-anchor="middle" x="477" y="-7.5" font-family="Helvetica,sans-Serif" font-size="10.00">set</text>
</g>
<!-- Node8&#45;&gt;Node11 -->
<g id="edge10" class="edge"><title>Node8&#45;&gt;Node11</title>
<path fill="none" stroke="midnightblue" d="M418.247,-56.324C428.797,-48.1849 444.801,-35.8395 457.442,-26.0874"/>
<polygon fill="midnightblue" stroke="midnightblue" points="459.769,-28.7132 465.549,-19.8339 455.493,-23.1707 459.769,-28.7132"/>
</g>
<!-- Node12 -->
<g id="node12" class="node"><title>Node12</title>
<polygon fill="none" stroke="#bfbfbf" points="510.5,-0.5 510.5,-19.5 553.5,-19.5 553.5,-0.5 510.5,-0.5"/>
<text text-anchor="middle" x="532" y="-7.5" font-family="Helvetica,sans-Serif" font-size="10.00">queue</text>
</g>
<!-- Node8&#45;&gt;Node12 -->
<g id="edge11" class="edge"><title>Node8&#45;&gt;Node12</title>
<path fill="none" stroke="midnightblue" d="M426.807,-56.4435C447.287,-47.5961 479.483,-33.6875 502.865,-23.5865"/>
<polygon fill="midnightblue" stroke="midnightblue" points="504.494,-26.6953 512.286,-19.5164 501.718,-20.2692 504.494,-26.6953"/>
</g>
<!-- Node8&#45;&gt;Node7 -->
<g id="edge12" class="edge"><title>Node8&#45;&gt;Node7</title>
<path fill="none" stroke="midnightblue" d="M388.461,-56.4435C369.377,-47.6356 339.425,-33.8116 317.564,-23.722"/>
<polygon fill="midnightblue" stroke="midnightblue" points="318.999,-20.5292 308.452,-19.5164 316.065,-26.8849 318.999,-20.5292"/>
</g>
</g>
</svg>
