<?xml version="1.0" encoding="UTF-8" standalone="no"?>
<!DOCTYPE svg PUBLIC "-//W3C//DTD SVG 1.1//EN"
 "http://www.w3.org/Graphics/SVG/1.1/DTD/svg11.dtd">
<!-- Generated by graphviz version 2.30.1 (20140110.0959)
 -->
<!-- Title: X2.cc Pages: 1 -->
<svg width="876pt" height="140pt"
 viewBox="0.00 0.00 876.00 140.00" xmlns="http://www.w3.org/2000/svg" xmlns:xlink="http://www.w3.org/1999/xlink">
<g id="graph0" class="graph" transform="scale(1 1) rotate(0) translate(4 136)">
<title>X2.cc</title>
<!-- Node1 -->
<g id="node1" class="node"><title>Node1</title>
<polygon fill="#bfbfbf" stroke="black" points="448,-112.5 448,-131.5 490,-131.5 490,-112.5 448,-112.5"/>
<text text-anchor="middle" x="469" y="-119.5" font-family="Helvetica,sans-Serif" font-size="10.00">X2.cc</text>
</g>
<!-- Node2 -->
<g id="node2" class="node"><title>Node2</title>
<polygon fill="none" stroke="#bfbfbf" points="141.5,-0.5 141.5,-19.5 184.5,-19.5 184.5,-0.5 141.5,-0.5"/>
<text text-anchor="middle" x="163" y="-7.5" font-family="Helvetica,sans-Serif" font-size="10.00">cstdio</text>
</g>
<!-- Node1&#45;&gt;Node2 -->
<g id="edge1" class="edge"><title>Node1&#45;&gt;Node2</title>
<path fill="none" stroke="midnightblue" d="M447.757,-119.857C375.533,-115.757 142.719,-100.708 121,-76 107.252,-60.3603 125.544,-39.8337 142.121,-26.0695"/>
<polygon fill="midnightblue" stroke="midnightblue" points="144.735,-28.4685 150.454,-19.5499 140.421,-22.9553 144.735,-28.4685"/>
</g>
<!-- Node3 -->
<g id="node3" class="node"><title>Node3</title>
<polygon fill="none" stroke="#bfbfbf" points="621.5,-56.5 621.5,-75.5 666.5,-75.5 666.5,-56.5 621.5,-56.5"/>
<text text-anchor="middle" x="644" y="-63.5" font-family="Helvetica,sans-Serif" font-size="10.00">cstdlib</text>
</g>
<!-- Node1&#45;&gt;Node3 -->
<g id="edge2" class="edge"><title>Node1&#45;&gt;Node3</title>
<path fill="none" stroke="midnightblue" d="M490.109,-114.486C520.309,-105.167 576.107,-87.95 611.57,-77.007"/>
<polygon fill="midnightblue" stroke="midnightblue" points="612.91,-80.2564 621.433,-73.9634 610.846,-73.5676 612.91,-80.2564"/>
</g>
<!-- Node4 -->
<g id="node4" class="node"><title>Node4</title>
<polygon fill="none" stroke="#bfbfbf" points="685,-56.5 685,-75.5 731,-75.5 731,-56.5 685,-56.5"/>
<text text-anchor="middle" x="708" y="-63.5" font-family="Helvetica,sans-Serif" font-size="10.00">cstring</text>
</g>
<!-- Node1&#45;&gt;Node4 -->
<g id="edge3" class="edge"><title>Node1&#45;&gt;Node4</title>
<path fill="none" stroke="midnightblue" d="M490.137,-116.755C527.546,-109.159 607.806,-92.4905 675,-76 675.101,-75.9752 675.202,-75.9504 675.303,-75.9254"/>
<polygon fill="midnightblue" stroke="midnightblue" points="676.145,-79.3229 684.96,-73.4451 674.404,-72.5429 676.145,-79.3229"/>
</g>
<!-- Node5 -->
<g id="node5" class="node"><title>Node5</title>
<polygon fill="none" stroke="#bfbfbf" points="749,-56.5 749,-75.5 793,-75.5 793,-56.5 749,-56.5"/>
<text text-anchor="middle" x="771" y="-63.5" font-family="Helvetica,sans-Serif" font-size="10.00">cmath</text>
</g>
<!-- Node1&#45;&gt;Node5 -->
<g id="edge4" class="edge"><title>Node1&#45;&gt;Node5</title>
<path fill="none" stroke="midnightblue" d="M490.249,-118.341C534.682,-112.597 640.783,-97.9223 738.953,-76.0183"/>
<polygon fill="midnightblue" stroke="midnightblue" points="739.75,-79.4265 748.731,-73.8061 738.205,-72.5991 739.75,-79.4265"/>
</g>
<!-- Node6 -->
<g id="node6" class="node"><title>Node6</title>
<g id="a_node6"><a xlink:href="lib_2libdpd_2dpd_8h.html" target="_top" xlink:title="Enter brief description of file here.">
<polygon fill="none" stroke="black" points="243.5,-56.5 243.5,-75.5 312.5,-75.5 312.5,-56.5 243.5,-56.5"/>
<text text-anchor="middle" x="278" y="-63.5" font-family="Helvetica,sans-Serif" font-size="10.00">libdpd/dpd.h</text>
</a>
</g>
</g>
<!-- Node1&#45;&gt;Node6 -->
<g id="edge5" class="edge"><title>Node1&#45;&gt;Node6</title>
<path fill="none" stroke="midnightblue" d="M447.83,-115.015C416.647,-106.199 357.794,-89.5595 318.233,-78.3749"/>
<polygon fill="midnightblue" stroke="midnightblue" points="318.947,-74.9394 308.372,-75.5868 317.042,-81.6754 318.947,-74.9394"/>
</g>
<!-- Node11 -->
<g id="node11" class="node"><title>Node11</title>
<g id="a_node11"><a xlink:href="qt_8h.html" target="_top" xlink:title="Header file for the Quantum Trio LibraryDavid Sherrill 1994.">
<polygon fill="none" stroke="black" points="405,-56.5 405,-75.5 459,-75.5 459,-56.5 405,-56.5"/>
<text text-anchor="middle" x="432" y="-63.5" font-family="Helvetica,sans-Serif" font-size="10.00">libqt/qt.h</text>
</a>
</g>
</g>
<!-- Node1&#45;&gt;Node11 -->
<g id="edge11" class="edge"><title>Node1&#45;&gt;Node11</title>
<path fill="none" stroke="midnightblue" d="M462.89,-112.083C457.718,-104.534 450.154,-93.4948 443.806,-84.2298"/>
<polygon fill="midnightblue" stroke="midnightblue" points="446.536,-82.0221 437.996,-75.7511 440.761,-85.9787 446.536,-82.0221"/>
</g>
<!-- Node13 -->
<g id="node13" class="node"><title>Node13</title>
<g id="a_node13"><a xlink:href="psio_8h_source.html" target="_top" xlink:title="libpsio/psio.h">
<polygon fill="none" stroke="black" points="0,-56.5 0,-75.5 74,-75.5 74,-56.5 0,-56.5"/>
<text text-anchor="middle" x="37" y="-63.5" font-family="Helvetica,sans-Serif" font-size="10.00">libpsio/psio.h</text>
</a>
</g>
</g>
<!-- Node1&#45;&gt;Node13 -->
<g id="edge14" class="edge"><title>Node1&#45;&gt;Node13</title>
<path fill="none" stroke="midnightblue" d="M447.88,-118.933C390.121,-113.189 224.734,-96.1228 88,-76 86.7241,-75.8122 85.4311,-75.6172 84.1268,-75.4164"/>
<polygon fill="midnightblue" stroke="midnightblue" points="84.4364,-71.9213 74.007,-73.7864 83.3231,-78.8322 84.4364,-71.9213"/>
</g>
<!-- Node14 -->
<g id="node14" class="node"><title>Node14</title>
<g id="a_node14"><a xlink:href="libciomr_8h_source.html" target="_top" xlink:title="libciomr/libciomr.h">
<polygon fill="none" stroke="black" points="130.5,-56.5 130.5,-75.5 225.5,-75.5 225.5,-56.5 130.5,-56.5"/>
<text text-anchor="middle" x="178" y="-63.5" font-family="Helvetica,sans-Serif" font-size="10.00">libciomr/libciomr.h</text>
</a>
</g>
</g>
<!-- Node1&#45;&gt;Node14 -->
<g id="edge17" class="edge"><title>Node1&#45;&gt;Node14</title>
<path fill="none" stroke="midnightblue" d="M447.602,-117.029C403.061,-108.764 299.131,-89.4778 234.102,-77.4106"/>
<polygon fill="midnightblue" stroke="midnightblue" points="234.485,-73.922 224.014,-75.5386 233.207,-80.8045 234.485,-73.922"/>
</g>
<!-- Node15 -->
<g id="node15" class="node"><title>Node15</title>
<g id="a_node15"><a xlink:href="ccresponse_2MOInfo_8h.html" target="_top" xlink:title="Enter brief description of file here.">
<polygon fill="none" stroke="black" points="811.5,-56.5 811.5,-75.5 868.5,-75.5 868.5,-56.5 811.5,-56.5"/>
<text text-anchor="middle" x="840" y="-63.5" font-family="Helvetica,sans-Serif" font-size="10.00">MOInfo.h</text>
</a>
</g>
</g>
<!-- Node1&#45;&gt;Node15 -->
<g id="edge19" class="edge"><title>Node1&#45;&gt;Node15</title>
<path fill="none" stroke="midnightblue" d="M490.153,-118.871C541.612,-113.539 677.562,-98.5289 801.398,-75.9364"/>
<polygon fill="midnightblue" stroke="midnightblue" points="802.232,-79.3416 811.43,-74.0842 800.961,-72.458 802.232,-79.3416"/>
</g>
<!-- Node16 -->
<g id="node16" class="node"><title>Node16</title>
<g id="a_node16"><a xlink:href="ccresponse_2Params_8h.html" target="_top" xlink:title="Enter brief description of file here.">
<polygon fill="none" stroke="black" points="477.5,-56.5 477.5,-75.5 536.5,-75.5 536.5,-56.5 477.5,-56.5"/>
<text text-anchor="middle" x="507" y="-63.5" font-family="Helvetica,sans-Serif" font-size="10.00">Params.h</text>
</a>
</g>
</g>
<!-- Node1&#45;&gt;Node16 -->
<g id="edge20" class="edge"><title>Node1&#45;&gt;Node16</title>
<path fill="none" stroke="midnightblue" d="M475.275,-112.083C480.642,-104.455 488.518,-93.2645 495.079,-83.9408"/>
<polygon fill="midnightblue" stroke="midnightblue" points="497.949,-85.9434 500.842,-75.7511 492.225,-81.9149 497.949,-85.9434"/>
</g>
<!-- Node17 -->
<g id="node17" class="node"><title>Node17</title>
<g id="a_node17"><a xlink:href="ccresponse_2Local_8h.html" target="_top" xlink:title="Enter brief description of file here.">
<polygon fill="none" stroke="black" points="555,-56.5 555,-75.5 603,-75.5 603,-56.5 555,-56.5"/>
<text text-anchor="middle" x="579" y="-63.5" font-family="Helvetica,sans-Serif" font-size="10.00">Local.h</text>
</a>
</g>
</g>
<!-- Node1&#45;&gt;Node17 -->
<g id="edge22" class="edge"><title>Node1&#45;&gt;Node17</title>
<path fill="none" stroke="midnightblue" d="M486.673,-112.324C504.394,-103.625 531.903,-90.1202 552.288,-80.113"/>
<polygon fill="midnightblue" stroke="midnightblue" points="553.936,-83.2031 561.37,-75.6545 550.851,-76.9195 553.936,-83.2031"/>
</g>
<!-- Node18 -->
<g id="node18" class="node"><title>Node18</title>
<g id="a_node18"><a xlink:href="ccresponse_2globals_8h.html" target="_top" xlink:title="Enter brief description of file here.">
<polygon fill="none" stroke="black" points="331,-56.5 331,-75.5 387,-75.5 387,-56.5 331,-56.5"/>
<text text-anchor="middle" x="359" y="-63.5" font-family="Helvetica,sans-Serif" font-size="10.00">globals.h</text>
</a>
</g>
</g>
<!-- Node1&#45;&gt;Node18 -->
<g id="edge24" class="edge"><title>Node1&#45;&gt;Node18</title>
<path fill="none" stroke="midnightblue" d="M451.327,-112.324C433.606,-103.625 406.097,-90.1202 385.712,-80.113"/>
<polygon fill="midnightblue" stroke="midnightblue" points="387.149,-76.9195 376.63,-75.6545 384.064,-83.2031 387.149,-76.9195"/>
</g>
<!-- Node6&#45;&gt;Node2 -->
<g id="edge6" class="edge"><title>Node6&#45;&gt;Node2</title>
<path fill="none" stroke="midnightblue" d="M259.778,-56.4435C241.104,-47.6751 211.844,-33.9355 190.383,-23.8579"/>
<polygon fill="midnightblue" stroke="midnightblue" points="191.676,-20.5988 181.137,-19.5164 188.701,-26.935 191.676,-20.5988"/>
</g>
<!-- Node7 -->
<g id="node7" class="node"><title>Node7</title>
<g id="a_node7"><a xlink:href="psifiles_8h_source.html" target="_top" xlink:title="psifiles.h">
<polygon fill="none" stroke="black" points="391,-0.5 391,-19.5 447,-19.5 447,-0.5 391,-0.5"/>
<text text-anchor="middle" x="419" y="-7.5" font-family="Helvetica,sans-Serif" font-size="10.00">psifiles.h</text>
</a>
</g>
</g>
<!-- Node6&#45;&gt;Node7 -->
<g id="edge7" class="edge"><title>Node6&#45;&gt;Node7</title>
<path fill="none" stroke="midnightblue" d="M300.342,-56.4435C323.753,-47.4776 360.736,-33.314 387.19,-23.1827"/>
<polygon fill="midnightblue" stroke="midnightblue" points="388.676,-26.3615 396.763,-19.5164 386.172,-19.8245 388.676,-26.3615"/>
</g>
<!-- Node8 -->
<g id="node8" class="node"><title>Node8</title>
<g id="a_node8"><a xlink:href="libpsio_2config_8h_source.html" target="_top" xlink:title="libpsio/config.h">
<polygon fill="none" stroke="black" points="11,-0.5 11,-19.5 93,-19.5 93,-0.5 11,-0.5"/>
<text text-anchor="middle" x="52" y="-7.5" font-family="Helvetica,sans-Serif" font-size="10.00">libpsio/config.h</text>
</a>
</g>
</g>
<!-- Node6&#45;&gt;Node8 -->
<g id="edge8" class="edge"><title>Node6&#45;&gt;Node8</title>
<path fill="none" stroke="midnightblue" d="M243.183,-56.6808C204.095,-47.3412 140.525,-32.1521 97.525,-21.8777"/>
<polygon fill="midnightblue" stroke="midnightblue" points="98.1426,-18.4268 87.6029,-19.5069 96.5157,-25.2351 98.1426,-18.4268"/>
</g>
<!-- Node9 -->
<g id="node9" class="node"><title>Node9</title>
<polygon fill="none" stroke="#bfbfbf" points="203,-0.5 203,-19.5 311,-19.5 311,-0.5 203,-0.5"/>
<text text-anchor="middle" x="257" y="-7.5" font-family="Helvetica,sans-Serif" font-size="10.00">boost/shared_ptr.hpp</text>
</g>
<!-- Node6&#45;&gt;Node9 -->
<g id="edge9" class="edge"><title>Node6&#45;&gt;Node9</title>
<path fill="none" stroke="midnightblue" d="M274.532,-56.083C271.688,-48.77 267.571,-38.1814 264.04,-29.1034"/>
<polygon fill="midnightblue" stroke="midnightblue" points="267.29,-27.8025 260.403,-19.7511 260.766,-30.3397 267.29,-27.8025"/>
</g>
<!-- Node10 -->
<g id="node10" class="node"><title>Node10</title>
<polygon fill="none" stroke="#bfbfbf" points="329,-0.5 329,-19.5 373,-19.5 373,-0.5 329,-0.5"/>
<text text-anchor="middle" x="351" y="-7.5" font-family="Helvetica,sans-Serif" font-size="10.00">vector</text>
</g>
<!-- Node6&#45;&gt;Node10 -->
<g id="edge10" class="edge"><title>Node6&#45;&gt;Node10</title>
<path fill="none" stroke="midnightblue" d="M289.729,-56.324C300.837,-48.1066 317.742,-35.6017 330.983,-25.8069"/>
<polygon fill="midnightblue" stroke="midnightblue" points="333.1,-28.5948 339.058,-19.8339 328.937,-22.9671 333.1,-28.5948"/>
</g>
<!-- Node11&#45;&gt;Node2 -->
<g id="edge12" class="edge"><title>Node11&#45;&gt;Node2</title>
<path fill="none" stroke="midnightblue" d="M404.92,-58.0184C401.917,-57.3073 398.898,-56.6197 396,-56 309.872,-37.5819 284.52,-40.5081 194.418,-19.8709"/>
<polygon fill="midnightblue" stroke="midnightblue" points="195.136,-16.4445 184.603,-17.5894 193.551,-23.2628 195.136,-16.4445"/>
</g>
<!-- Node12 -->
<g id="node12" class="node"><title>Node12</title>
<polygon fill="none" stroke="#bfbfbf" points="486.5,-0.5 486.5,-19.5 527.5,-19.5 527.5,-0.5 486.5,-0.5"/>
<text text-anchor="middle" x="507" y="-7.5" font-family="Helvetica,sans-Serif" font-size="10.00">string</text>
</g>
<!-- Node11&#45;&gt;Node12 -->
<g id="edge13" class="edge"><title>Node11&#45;&gt;Node12</title>
<path fill="none" stroke="midnightblue" d="M444.05,-56.324C455.463,-48.1066 472.831,-35.6017 486.435,-25.8069"/>
<polygon fill="midnightblue" stroke="midnightblue" points="488.66,-28.5174 494.731,-19.8339 484.57,-22.8366 488.66,-28.5174"/>
</g>
<!-- Node13&#45;&gt;Node2 -->
<g id="edge15" class="edge"><title>Node13&#45;&gt;Node2</title>
<path fill="none" stroke="midnightblue" d="M56.9651,-56.4435C77.6091,-47.5961 110.063,-33.6875 133.632,-23.5865"/>
<polygon fill="midnightblue" stroke="midnightblue" points="135.316,-26.6727 143.128,-19.5164 132.558,-20.2387 135.316,-26.6727"/>
</g>
<!-- Node13&#45;&gt;Node8 -->
<g id="edge16" class="edge"><title>Node13&#45;&gt;Node8</title>
<path fill="none" stroke="midnightblue" d="M39.4769,-56.083C41.4865,-48.8486 44.3865,-38.4087 46.8898,-29.3968"/>
<polygon fill="midnightblue" stroke="midnightblue" points="50.2649,-30.323 49.5691,-19.7511 43.5203,-28.4495 50.2649,-30.323"/>
</g>
<!-- Node14&#45;&gt;Node2 -->
<g id="edge18" class="edge"><title>Node14&#45;&gt;Node2</title>
<path fill="none" stroke="midnightblue" d="M175.523,-56.083C173.514,-48.8486 170.614,-38.4087 168.11,-29.3968"/>
<polygon fill="midnightblue" stroke="midnightblue" points="171.48,-28.4495 165.431,-19.7511 164.735,-30.323 171.48,-28.4495"/>
</g>
<!-- Node16&#45;&gt;Node12 -->
<g id="edge21" class="edge"><title>Node16&#45;&gt;Node12</title>
<path fill="none" stroke="midnightblue" d="M507,-56.083C507,-49.0059 507,-38.8611 507,-29.9865"/>
<polygon fill="midnightblue" stroke="midnightblue" points="510.5,-29.751 507,-19.7511 503.5,-29.7511 510.5,-29.751"/>
</g>
<!-- Node17&#45;&gt;Node12 -->
<g id="edge23" class="edge"><title>Node17&#45;&gt;Node12</title>
<path fill="none" stroke="midnightblue" d="M567.432,-56.324C556.58,-48.1849 540.119,-35.8395 527.117,-26.0874"/>
<polygon fill="midnightblue" stroke="midnightblue" points="528.879,-23.0339 518.779,-19.8339 524.679,-28.6339 528.879,-23.0339"/>
</g>
<!-- Node18&#45;&gt;Node7 -->
<g id="edge25" class="edge"><title>Node18&#45;&gt;Node7</title>
<path fill="none" stroke="midnightblue" d="M368.64,-56.324C377.51,-48.3414 390.875,-36.3128 401.608,-26.6529"/>
<polygon fill="midnightblue" stroke="midnightblue" points="404.093,-29.1251 409.185,-19.8339 399.41,-23.922 404.093,-29.1251"/>
</g>
<!-- Node18&#45;&gt;Node2 -->
<g id="edge26" class="edge"><title>Node18&#45;&gt;Node2</title>
<path fill="none" stroke="midnightblue" d="M330.934,-57.4952C299.932,-49.1724 248.292,-35.2134 194.396,-20.0774"/>
<polygon fill="midnightblue" stroke="midnightblue" points="195.242,-16.6796 184.667,-17.3393 193.345,-23.4178 195.242,-16.6796"/>
</g>
</g>
</svg>
