<?xml version="1.0" encoding="UTF-8" standalone="no"?>
<!DOCTYPE svg PUBLIC "-//W3C//DTD SVG 1.1//EN"
 "http://www.w3.org/Graphics/SVG/1.1/DTD/svg11.dtd">
<!-- Generated by graphviz version 2.30.1 (20140110.0959)
 -->
<!-- Title: x_Gijab_uhf.cc Pages: 1 -->
<!--zoomable 196 -->
<svg id="main" version="1.1" xmlns="http://www.w3.org/2000/svg" xmlns:xlink="http://www.w3.org/1999/xlink" xml:space="preserve" onload="init(evt)">
        <defs>
                <circle id="rim" cx="0" cy="0" r="7"/>
                <circle id="rim2" cx="0" cy="0" r="3.5"/>
                <g id="zoomPlus">
                        <use xlink:href="#rim" fill="#404040">
                                <set attributeName="fill" to="#808080" begin="zoomplus.mouseover" end="zoomplus.mouseout"/>
                        </use>
                        <path d="M-4,0h8M0,-4v8" fill="none" stroke="white" stroke-width="1.5" pointer-events="none"/>
                </g>
                <g id="zoomMin">
                        <use xlink:href="#rim" fill="#404040">
                                <set attributeName="fill" to="#808080" begin="zoomminus.mouseover" end="zoomminus.mouseout"/>
                        </use>
                        <path d="M-4,0h8" fill="none" stroke="white" stroke-width="1.5" pointer-events="none"/>
                </g>
                <g id="dirArrow">
                        <path fill="none" stroke="white" stroke-width="1.5" d="M0,-3.0v7 M-2.5,-0.5L0,-3.0L2.5,-0.5"/>
                </g>
               <g id="resetDef">
                       <use xlink:href="#rim2" fill="#404040">
                               <set attributeName="fill" to="#808080" begin="reset.mouseover" end="reset.mouseout"/>
                       </use>
               </g>
        </defs>

<script type="text/javascript">
var viewWidth = 501;
var viewHeight = 196;
var sectionId = 'dynsection-0';
</script>
<script xlink:href="svgpan.js"/>
<svg id="graph" class="graph">
<g id="viewport">
<title>x_Gijab_uhf.cc</title>
<!-- Node1 -->
<g id="node1" class="node"><title>Node1</title>
<polygon fill="#bfbfbf" stroke="black" points="245.085,-168.5 245.085,-187.5 327.085,-187.5 327.085,-168.5 245.085,-168.5"/>
<text text-anchor="middle" x="286.085" y="-175.5" font-family="Helvetica,sans-Serif" font-size="10.00">x_Gijab_uhf.cc</text>
</g>
<!-- Node2 -->
<g id="node2" class="node"><title>Node2</title>
<polygon fill="none" stroke="#bfbfbf" points="44.5847,-0.5 44.5847,-19.5 87.5847,-19.5 87.5847,-0.5 44.5847,-0.5"/>
<text text-anchor="middle" x="66.0847" y="-7.5" font-family="Helvetica,sans-Serif" font-size="10.00">cstdio</text>
</g>
<!-- Node1&#45;&gt;Node2 -->
<g id="edge1" class="edge"><title>Node1&#45;&gt;Node2</title>
<path fill="none" stroke="midnightblue" d="M245.045,-176.109C181.082,-172.236 59.2447,-154.347 4.08474,-76 -9.80278,-56.2747 15.7299,-36.6549 38.1142,-24.215"/>
<polygon fill="midnightblue" stroke="midnightblue" points="39.8551,-27.254 47.0757,-19.5006 36.5961,-21.0589 39.8551,-27.254"/>
</g>
<!-- Node3 -->
<g id="node3" class="node"><title>Node3</title>
<g id="a_node3"><a xlink:href="lib_2libdpd_2dpd_8h.html" target="_top" xlink:title="Enter brief description of file here.">
<polygon fill="none" stroke="black" points="257.585,-56.5 257.585,-75.5 326.585,-75.5 326.585,-56.5 257.585,-56.5"/>
<text text-anchor="middle" x="292.085" y="-63.5" font-family="Helvetica,sans-Serif" font-size="10.00">libdpd/dpd.h</text>
</a>
</g>
</g>
<!-- Node1&#45;&gt;Node3 -->
<g id="edge2" class="edge"><title>Node1&#45;&gt;Node3</title>
<path fill="none" stroke="midnightblue" d="M283.183,-168.149C279.456,-155.622 273.836,-132.017 277.085,-112 278.552,-102.957 281.577,-93.275 284.529,-85.2176"/>
<polygon fill="midnightblue" stroke="midnightblue" points="287.848,-86.3393 288.229,-75.7514 281.328,-83.7907 287.848,-86.3393"/>
</g>
<!-- Node8 -->
<g id="node8" class="node"><title>Node8</title>
<g id="a_node8"><a xlink:href="ccdensity_2MOInfo_8h.html" target="_top" xlink:title="Enter brief description of file here.">
<polygon fill="none" stroke="black" points="286.585,-112.5 286.585,-131.5 343.585,-131.5 343.585,-112.5 286.585,-112.5"/>
<text text-anchor="middle" x="315.085" y="-119.5" font-family="Helvetica,sans-Serif" font-size="10.00">MOInfo.h</text>
</a>
</g>
</g>
<!-- Node1&#45;&gt;Node8 -->
<g id="edge8" class="edge"><title>Node1&#45;&gt;Node8</title>
<path fill="none" stroke="midnightblue" d="M290.874,-168.083C294.843,-160.691 300.61,-149.953 305.52,-140.811"/>
<polygon fill="midnightblue" stroke="midnightblue" points="308.737,-142.217 310.385,-131.751 302.57,-138.905 308.737,-142.217"/>
</g>
<!-- Node9 -->
<g id="node9" class="node"><title>Node9</title>
<g id="a_node9"><a xlink:href="ccdensity_2Params_8h.html" target="_top" xlink:title="Enter brief description of file here.">
<polygon fill="none" stroke="black" points="361.585,-112.5 361.585,-131.5 420.585,-131.5 420.585,-112.5 361.585,-112.5"/>
<text text-anchor="middle" x="391.085" y="-119.5" font-family="Helvetica,sans-Serif" font-size="10.00">Params.h</text>
</a>
</g>
</g>
<!-- Node1&#45;&gt;Node9 -->
<g id="edge9" class="edge"><title>Node1&#45;&gt;Node9</title>
<path fill="none" stroke="midnightblue" d="M302.955,-168.324C319.794,-159.664 345.891,-146.242 365.323,-136.249"/>
<polygon fill="midnightblue" stroke="midnightblue" points="366.964,-139.341 374.257,-131.655 363.763,-133.116 366.964,-139.341"/>
</g>
<!-- Node11 -->
<g id="node11" class="node"><title>Node11</title>
<g id="a_node11"><a xlink:href="Frozen_8h.html" target="_top" xlink:title="Enter brief description of file here.">
<polygon fill="none" stroke="black" points="438.585,-112.5 438.585,-131.5 493.585,-131.5 493.585,-112.5 438.585,-112.5"/>
<text text-anchor="middle" x="466.085" y="-119.5" font-family="Helvetica,sans-Serif" font-size="10.00">Frozen.h</text>
</a>
</g>
</g>
<!-- Node1&#45;&gt;Node11 -->
<g id="edge11" class="edge"><title>Node1&#45;&gt;Node11</title>
<path fill="none" stroke="midnightblue" d="M314.606,-168.444C345.421,-159.199 394.653,-144.43 428.581,-134.251"/>
<polygon fill="midnightblue" stroke="midnightblue" points="430.01,-137.477 438.582,-131.251 427.998,-130.772 430.01,-137.477"/>
</g>
<!-- Node12 -->
<g id="node12" class="node"><title>Node12</title>
<g id="a_node12"><a xlink:href="ccdensity_2globals_8h.html" target="_top" xlink:title="Enter brief description of file here.">
<polygon fill="none" stroke="black" points="174.085,-112.5 174.085,-131.5 230.085,-131.5 230.085,-112.5 174.085,-112.5"/>
<text text-anchor="middle" x="202.085" y="-119.5" font-family="Helvetica,sans-Serif" font-size="10.00">globals.h</text>
</a>
</g>
</g>
<!-- Node1&#45;&gt;Node12 -->
<g id="edge12" class="edge"><title>Node1&#45;&gt;Node12</title>
<path fill="none" stroke="midnightblue" d="M272.589,-168.324C259.485,-159.9 239.373,-146.971 223.978,-137.074"/>
<polygon fill="midnightblue" stroke="midnightblue" points="225.852,-134.118 215.547,-131.655 222.066,-140.006 225.852,-134.118"/>
</g>
<!-- Node3&#45;&gt;Node2 -->
<g id="edge3" class="edge"><title>Node3&#45;&gt;Node2</title>
<path fill="none" stroke="midnightblue" d="M257.585,-56.8389C219.686,-47.8615 157.03,-32.9829 103.085,-20 101.205,-19.5475 99.2713,-19.081 97.3212,-18.6095"/>
<polygon fill="midnightblue" stroke="midnightblue" points="98.1452,-15.2079 87.602,-16.2526 96.4955,-22.0107 98.1452,-15.2079"/>
</g>
<!-- Node4 -->
<g id="node4" class="node"><title>Node4</title>
<g id="a_node4"><a xlink:href="psifiles_8h_source.html" target="_top" xlink:title="psifiles.h">
<polygon fill="none" stroke="black" points="212.085,-0.5 212.085,-19.5 268.085,-19.5 268.085,-0.5 212.085,-0.5"/>
<text text-anchor="middle" x="240.085" y="-7.5" font-family="Helvetica,sans-Serif" font-size="10.00">psifiles.h</text>
</a>
</g>
</g>
<!-- Node3&#45;&gt;Node4 -->
<g id="edge4" class="edge"><title>Node3&#45;&gt;Node4</title>
<path fill="none" stroke="midnightblue" d="M283.498,-56.083C275.926,-48.2195 264.707,-36.5688 255.57,-27.0813"/>
<polygon fill="midnightblue" stroke="midnightblue" points="257.969,-24.5266 248.512,-19.7511 252.927,-29.3821 257.969,-24.5266"/>
</g>
<!-- Node5 -->
<g id="node5" class="node"><title>Node5</title>
<g id="a_node5"><a xlink:href="libpsio_2config_8h_source.html" target="_top" xlink:title="libpsio/config.h">
<polygon fill="none" stroke="black" points="112.085,-0.5 112.085,-19.5 194.085,-19.5 194.085,-0.5 112.085,-0.5"/>
<text text-anchor="middle" x="153.085" y="-7.5" font-family="Helvetica,sans-Serif" font-size="10.00">libpsio/config.h</text>
</a>
</g>
</g>
<!-- Node3&#45;&gt;Node5 -->
<g id="edge5" class="edge"><title>Node3&#45;&gt;Node5</title>
<path fill="none" stroke="midnightblue" d="M270.06,-56.4435C246.981,-47.4776 210.523,-33.314 184.444,-23.1827"/>
<polygon fill="midnightblue" stroke="midnightblue" points="185.595,-19.8753 175.007,-19.5164 183.061,-26.4002 185.595,-19.8753"/>
</g>
<!-- Node6 -->
<g id="node6" class="node"><title>Node6</title>
<polygon fill="none" stroke="#bfbfbf" points="348.085,-0.5 348.085,-19.5 456.085,-19.5 456.085,-0.5 348.085,-0.5"/>
<text text-anchor="middle" x="402.085" y="-7.5" font-family="Helvetica,sans-Serif" font-size="10.00">boost/shared_ptr.hpp</text>
</g>
<!-- Node3&#45;&gt;Node6 -->
<g id="edge6" class="edge"><title>Node3&#45;&gt;Node6</title>
<path fill="none" stroke="midnightblue" d="M309.758,-56.324C327.479,-47.6247 354.988,-34.1202 375.373,-24.113"/>
<polygon fill="midnightblue" stroke="midnightblue" points="377.021,-27.2031 384.455,-19.6545 373.936,-20.9195 377.021,-27.2031"/>
</g>
<!-- Node7 -->
<g id="node7" class="node"><title>Node7</title>
<polygon fill="none" stroke="#bfbfbf" points="286.085,-0.5 286.085,-19.5 330.085,-19.5 330.085,-0.5 286.085,-0.5"/>
<text text-anchor="middle" x="308.085" y="-7.5" font-family="Helvetica,sans-Serif" font-size="10.00">vector</text>
</g>
<!-- Node3&#45;&gt;Node7 -->
<g id="edge7" class="edge"><title>Node3&#45;&gt;Node7</title>
<path fill="none" stroke="midnightblue" d="M294.727,-56.083C296.87,-48.8486 299.964,-38.4087 302.634,-29.3968"/>
<polygon fill="midnightblue" stroke="midnightblue" points="306.007,-30.3334 305.492,-19.7511 299.295,-28.3447 306.007,-30.3334"/>
</g>
<!-- Node10 -->
<g id="node10" class="node"><title>Node10</title>
<polygon fill="none" stroke="#bfbfbf" points="370.585,-56.5 370.585,-75.5 411.585,-75.5 411.585,-56.5 370.585,-56.5"/>
<text text-anchor="middle" x="391.085" y="-63.5" font-family="Helvetica,sans-Serif" font-size="10.00">string</text>
</g>
<!-- Node9&#45;&gt;Node10 -->
<g id="edge10" class="edge"><title>Node9&#45;&gt;Node10</title>
<path fill="none" stroke="midnightblue" d="M391.085,-112.083C391.085,-105.006 391.085,-94.8611 391.085,-85.9865"/>
<polygon fill="midnightblue" stroke="midnightblue" points="394.585,-85.751 391.085,-75.7511 387.585,-85.7511 394.585,-85.751"/>
</g>
<!-- Node12&#45;&gt;Node4 -->
<g id="edge13" class="edge"><title>Node12&#45;&gt;Node4</title>
<path fill="none" stroke="midnightblue" d="M205.067,-112.368C211.227,-94.5366 225.474,-53.2953 233.773,-29.2717"/>
<polygon fill="midnightblue" stroke="midnightblue" points="237.16,-30.1862 237.117,-19.5914 230.543,-27.9005 237.16,-30.1862"/>
</g>
<!-- Node12&#45;&gt;Node3 -->
<g id="edge14" class="edge"><title>Node12&#45;&gt;Node3</title>
<path fill="none" stroke="midnightblue" d="M216.545,-112.324C230.584,-103.9 252.133,-90.9709 268.628,-81.0741"/>
<polygon fill="midnightblue" stroke="midnightblue" points="270.886,-83.8007 277.661,-75.6545 267.285,-77.7983 270.886,-83.8007"/>
</g>
<!-- Node13 -->
<g id="node13" class="node"><title>Node13</title>
<g id="a_node13"><a xlink:href="psio_8h_source.html" target="_top" xlink:title="libpsio/psio.h">
<polygon fill="none" stroke="black" points="127.085,-56.5 127.085,-75.5 201.085,-75.5 201.085,-56.5 127.085,-56.5"/>
<text text-anchor="middle" x="164.085" y="-63.5" font-family="Helvetica,sans-Serif" font-size="10.00">libpsio/psio.h</text>
</a>
</g>
</g>
<!-- Node12&#45;&gt;Node13 -->
<g id="edge15" class="edge"><title>Node12&#45;&gt;Node13</title>
<path fill="none" stroke="midnightblue" d="M195.81,-112.083C190.442,-104.455 182.567,-93.2645 176.006,-83.9408"/>
<polygon fill="midnightblue" stroke="midnightblue" points="178.86,-81.9149 170.243,-75.7511 173.136,-85.9434 178.86,-81.9149"/>
</g>
<!-- Node14 -->
<g id="node14" class="node"><title>Node14</title>
<g id="a_node14"><a xlink:href="libciomr_8h_source.html" target="_top" xlink:title="libciomr/libciomr.h">
<polygon fill="none" stroke="black" points="13.5847,-56.5 13.5847,-75.5 108.585,-75.5 108.585,-56.5 13.5847,-56.5"/>
<text text-anchor="middle" x="61.0847" y="-63.5" font-family="Helvetica,sans-Serif" font-size="10.00">libciomr/libciomr.h</text>
</a>
</g>
</g>
<!-- Node12&#45;&gt;Node14 -->
<g id="edge18" class="edge"><title>Node12&#45;&gt;Node14</title>
<path fill="none" stroke="midnightblue" d="M179.743,-112.444C156.332,-103.478 119.349,-89.314 92.8951,-79.1827"/>
<polygon fill="midnightblue" stroke="midnightblue" points="93.9124,-75.8245 83.3221,-75.5164 91.4089,-82.3615 93.9124,-75.8245"/>
</g>
<!-- Node13&#45;&gt;Node2 -->
<g id="edge16" class="edge"><title>Node13&#45;&gt;Node2</title>
<path fill="none" stroke="midnightblue" d="M148.339,-56.324C132.766,-47.7428 108.707,-34.486 90.6254,-24.5224"/>
<polygon fill="midnightblue" stroke="midnightblue" points="92.2386,-21.4152 81.7911,-19.6545 88.8603,-27.546 92.2386,-21.4152"/>
</g>
<!-- Node13&#45;&gt;Node5 -->
<g id="edge17" class="edge"><title>Node13&#45;&gt;Node5</title>
<path fill="none" stroke="midnightblue" d="M162.268,-56.083C160.811,-48.9272 158.714,-38.6353 156.892,-29.6911"/>
<polygon fill="midnightblue" stroke="midnightblue" points="160.293,-28.8512 154.867,-19.7511 153.434,-30.2485 160.293,-28.8512"/>
</g>
<!-- Node14&#45;&gt;Node2 -->
<g id="edge19" class="edge"><title>Node14&#45;&gt;Node2</title>
<path fill="none" stroke="midnightblue" d="M61.9104,-56.083C62.5657,-49.0059 63.505,-38.8611 64.3267,-29.9865"/>
<polygon fill="midnightblue" stroke="midnightblue" points="67.8375,-30.0312 65.2745,-19.7511 60.8673,-29.3858 67.8375,-30.0312"/>
</g>
</g>
</svg>
        <g id="navigator" transform="translate(0 0)" fill="#404254">
                <rect fill="#f2f5e9" fill-opacity="0.5" stroke="#606060" stroke-width=".5" x="0" y="0" width="60" height="60"/>
                <use id="zoomplus" xlink:href="#zoomPlus" x="17" y="9" onmousedown="handleZoom(evt,'in')"/>
                <use id="zoomminus" xlink:href="#zoomMin" x="42" y="9" onmousedown="handleZoom(evt,'out')"/>
                <use id="reset" xlink:href="#resetDef" x="30" y="36" onmousedown="handleReset()"/>
                <g id="arrowUp" xlink:href="#dirArrow" transform="translate(30 24)" onmousedown="handlePan(0,-1)">
                  <use xlink:href="#rim" fill="#404040">
                        <set attributeName="fill" to="#808080" begin="arrowUp.mouseover" end="arrowUp.mouseout"/>
                  </use>
                  <path fill="none" stroke="white" stroke-width="1.5" d="M0,-3.0v7 M-2.5,-0.5L0,-3.0L2.5,-0.5"/>
                </g>
                <g id="arrowRight" xlink:href="#dirArrow" transform="rotate(90) translate(36 -43)" onmousedown="handlePan(1,0)">
                  <use xlink:href="#rim" fill="#404040">
                        <set attributeName="fill" to="#808080" begin="arrowRight.mouseover" end="arrowRight.mouseout"/>
                  </use>
                  <path fill="none" stroke="white" stroke-width="1.5" d="M0,-3.0v7 M-2.5,-0.5L0,-3.0L2.5,-0.5"/>
                </g>
                <g id="arrowDown" xlink:href="#dirArrow" transform="rotate(180) translate(-30 -48)" onmousedown="handlePan(0,1)">
                  <use xlink:href="#rim" fill="#404040">
                        <set attributeName="fill" to="#808080" begin="arrowDown.mouseover" end="arrowDown.mouseout"/>
                  </use>
                  <path fill="none" stroke="white" stroke-width="1.5" d="M0,-3.0v7 M-2.5,-0.5L0,-3.0L2.5,-0.5"/>
                </g>
                <g id="arrowLeft" xlink:href="#dirArrow" transform="rotate(270) translate(-36 17)" onmousedown="handlePan(-1,0)">
                  <use xlink:href="#rim" fill="#404040">
                        <set attributeName="fill" to="#808080" begin="arrowLeft.mouseover" end="arrowLeft.mouseout"/>
                  </use>
                  <path fill="none" stroke="white" stroke-width="1.5" d="M0,-3.0v7 M-2.5,-0.5L0,-3.0L2.5,-0.5"/>
                </g>
        </g>
        <svg viewBox="0 0 15 15" width="100%" height="30px" preserveAspectRatio="xMaxYMin meet">
         <g id="arrow_out" transform="scale(0.3 0.3)">
          <a xlink:href="x__Gijab__uhf_8cc__incl_org.svg" target="_base">
           <rect id="button" ry="5" rx="5" y="6" x="6" height="38" width="38"
                fill="#f2f5e9" fill-opacity="0.5" stroke="#606060" stroke-width="1.0"/>
           <path id="arrow"
             d="M 11.500037,31.436501 C 11.940474,20.09759 22.043105,11.32322 32.158766,21.979434 L 37.068811,17.246167 C 37.068811,17.246167 37.088388,32 37.088388,32 L 22.160133,31.978069 C 22.160133,31.978069 26.997745,27.140456 26.997745,27.140456 C 18.528582,18.264221 13.291696,25.230495 11.500037,31.436501 z"
             style="fill:#404040;"/>
          </a>
         </g>
        </svg>
</svg>
