<?xml version="1.0" encoding="UTF-8" standalone="no"?>
<!DOCTYPE svg PUBLIC "-//W3C//DTD SVG 1.1//EN"
 "http://www.w3.org/Graphics/SVG/1.1/DTD/svg11.dtd">
<!-- Generated by graphviz version 2.30.1 (20140110.0959)
 -->
<!-- Title: x_te_intermediates_rhf.cc Pages: 1 -->
<svg width="501pt" height="208pt"
 viewBox="0.00 0.00 501.00 208.00" xmlns="http://www.w3.org/2000/svg" xmlns:xlink="http://www.w3.org/1999/xlink">
<g id="graph0" class="graph" transform="scale(1 1) rotate(0) translate(4 204)">
<title>x_te_intermediates_rhf.cc</title>
<!-- Node1 -->
<g id="node1" class="node"><title>Node1</title>
<polygon fill="#bfbfbf" stroke="black" points="236.497,-169 236.497,-199 335.497,-199 335.497,-169 236.497,-169"/>
<text text-anchor="start" x="244.497" y="-187" font-family="Helvetica,sans-Serif" font-size="10.00">x_te_intermediates</text>
<text text-anchor="middle" x="285.997" y="-176" font-family="Helvetica,sans-Serif" font-size="10.00">_rhf.cc</text>
</g>
<!-- Node2 -->
<g id="node2" class="node"><title>Node2</title>
<polygon fill="none" stroke="#bfbfbf" points="44.4966,-0.5 44.4966,-19.5 87.4966,-19.5 87.4966,-0.5 44.4966,-0.5"/>
<text text-anchor="middle" x="65.9966" y="-7.5" font-family="Helvetica,sans-Serif" font-size="10.00">cstdio</text>
</g>
<!-- Node1&#45;&gt;Node2 -->
<g id="edge1" class="edge"><title>Node1&#45;&gt;Node2</title>
<path fill="none" stroke="midnightblue" d="M236.488,-180.459C170.649,-174.106 56.4926,-152.067 3.99658,-76 -9.62777,-56.2584 15.5,-36.7753 37.7322,-24.3663"/>
<polygon fill="midnightblue" stroke="midnightblue" points="39.4396,-27.4228 46.6477,-19.658 36.1706,-21.233 39.4396,-27.4228"/>
</g>
<!-- Node3 -->
<g id="node3" class="node"><title>Node3</title>
<g id="a_node3"><a xlink:href="lib_2libdpd_2dpd_8h.html" target="_top" xlink:title="Enter brief description of file here.">
<polygon fill="none" stroke="black" points="257.497,-56.5 257.497,-75.5 326.497,-75.5 326.497,-56.5 257.497,-56.5"/>
<text text-anchor="middle" x="291.997" y="-63.5" font-family="Helvetica,sans-Serif" font-size="10.00">libdpd/dpd.h</text>
</a>
</g>
</g>
<!-- Node1&#45;&gt;Node3 -->
<g id="edge2" class="edge"><title>Node1&#45;&gt;Node3</title>
<path fill="none" stroke="midnightblue" d="M281.805,-168.814C278.124,-154.452 273.812,-131.623 276.997,-112 278.464,-102.957 281.489,-93.275 284.44,-85.2176"/>
<polygon fill="midnightblue" stroke="midnightblue" points="287.76,-86.3393 288.141,-75.7514 281.24,-83.7907 287.76,-86.3393"/>
</g>
<!-- Node8 -->
<g id="node8" class="node"><title>Node8</title>
<g id="a_node8"><a xlink:href="ccdensity_2MOInfo_8h.html" target="_top" xlink:title="Enter brief description of file here.">
<polygon fill="none" stroke="black" points="286.497,-112.5 286.497,-131.5 343.497,-131.5 343.497,-112.5 286.497,-112.5"/>
<text text-anchor="middle" x="314.997" y="-119.5" font-family="Helvetica,sans-Serif" font-size="10.00">MOInfo.h</text>
</a>
</g>
</g>
<!-- Node1&#45;&gt;Node8 -->
<g id="edge8" class="edge"><title>Node1&#45;&gt;Node8</title>
<path fill="none" stroke="midnightblue" d="M292.869,-168.781C296.909,-160.422 302.054,-149.777 306.366,-140.856"/>
<polygon fill="midnightblue" stroke="midnightblue" points="309.576,-142.257 310.777,-131.731 303.274,-139.211 309.576,-142.257"/>
</g>
<!-- Node9 -->
<g id="node9" class="node"><title>Node9</title>
<g id="a_node9"><a xlink:href="ccdensity_2Params_8h.html" target="_top" xlink:title="Enter brief description of file here.">
<polygon fill="none" stroke="black" points="361.497,-112.5 361.497,-131.5 420.497,-131.5 420.497,-112.5 361.497,-112.5"/>
<text text-anchor="middle" x="390.997" y="-119.5" font-family="Helvetica,sans-Serif" font-size="10.00">Params.h</text>
</a>
</g>
</g>
<!-- Node1&#45;&gt;Node9 -->
<g id="edge9" class="edge"><title>Node1&#45;&gt;Node9</title>
<path fill="none" stroke="midnightblue" d="M310.614,-168.933C327.696,-159.171 350.326,-146.24 367.222,-136.586"/>
<polygon fill="midnightblue" stroke="midnightblue" points="369.001,-139.6 375.947,-131.6 365.528,-133.523 369.001,-139.6"/>
</g>
<!-- Node11 -->
<g id="node11" class="node"><title>Node11</title>
<g id="a_node11"><a xlink:href="Frozen_8h.html" target="_top" xlink:title="Enter brief description of file here.">
<polygon fill="none" stroke="black" points="438.497,-112.5 438.497,-131.5 493.497,-131.5 493.497,-112.5 438.497,-112.5"/>
<text text-anchor="middle" x="465.997" y="-119.5" font-family="Helvetica,sans-Serif" font-size="10.00">Frozen.h</text>
</a>
</g>
</g>
<!-- Node1&#45;&gt;Node11 -->
<g id="edge11" class="edge"><title>Node1&#45;&gt;Node11</title>
<path fill="none" stroke="midnightblue" d="M328.199,-168.933C359.337,-158.553 401.23,-144.589 430.622,-134.792"/>
<polygon fill="midnightblue" stroke="midnightblue" points="432.078,-137.995 440.458,-131.513 429.865,-131.355 432.078,-137.995"/>
</g>
<!-- Node12 -->
<g id="node12" class="node"><title>Node12</title>
<g id="a_node12"><a xlink:href="ccdensity_2globals_8h.html" target="_top" xlink:title="Enter brief description of file here.">
<polygon fill="none" stroke="black" points="173.997,-112.5 173.997,-131.5 229.997,-131.5 229.997,-112.5 173.997,-112.5"/>
<text text-anchor="middle" x="201.997" y="-119.5" font-family="Helvetica,sans-Serif" font-size="10.00">globals.h</text>
</a>
</g>
</g>
<!-- Node1&#45;&gt;Node12 -->
<g id="edge12" class="edge"><title>Node1&#45;&gt;Node12</title>
<path fill="none" stroke="midnightblue" d="M266.09,-168.781C253.003,-159.433 235.915,-147.227 222.675,-137.77"/>
<polygon fill="midnightblue" stroke="midnightblue" points="224.391,-134.695 214.219,-131.731 220.322,-140.391 224.391,-134.695"/>
</g>
<!-- Node3&#45;&gt;Node2 -->
<g id="edge3" class="edge"><title>Node3&#45;&gt;Node2</title>
<path fill="none" stroke="midnightblue" d="M257.496,-56.8389C219.598,-47.8615 156.942,-32.9829 102.997,-20 101.117,-19.5475 99.1831,-19.081 97.233,-18.6095"/>
<polygon fill="midnightblue" stroke="midnightblue" points="98.057,-15.2079 87.5138,-16.2526 96.4073,-22.0107 98.057,-15.2079"/>
</g>
<!-- Node4 -->
<g id="node4" class="node"><title>Node4</title>
<g id="a_node4"><a xlink:href="psifiles_8h_source.html" target="_top" xlink:title="psifiles.h">
<polygon fill="none" stroke="black" points="211.997,-0.5 211.997,-19.5 267.997,-19.5 267.997,-0.5 211.997,-0.5"/>
<text text-anchor="middle" x="239.997" y="-7.5" font-family="Helvetica,sans-Serif" font-size="10.00">psifiles.h</text>
</a>
</g>
</g>
<!-- Node3&#45;&gt;Node4 -->
<g id="edge4" class="edge"><title>Node3&#45;&gt;Node4</title>
<path fill="none" stroke="midnightblue" d="M283.41,-56.083C275.838,-48.2195 264.618,-36.5688 255.482,-27.0813"/>
<polygon fill="midnightblue" stroke="midnightblue" points="257.881,-24.5266 248.424,-19.7511 252.839,-29.3821 257.881,-24.5266"/>
</g>
<!-- Node5 -->
<g id="node5" class="node"><title>Node5</title>
<g id="a_node5"><a xlink:href="libpsio_2config_8h_source.html" target="_top" xlink:title="libpsio/config.h">
<polygon fill="none" stroke="black" points="111.997,-0.5 111.997,-19.5 193.997,-19.5 193.997,-0.5 111.997,-0.5"/>
<text text-anchor="middle" x="152.997" y="-7.5" font-family="Helvetica,sans-Serif" font-size="10.00">libpsio/config.h</text>
</a>
</g>
</g>
<!-- Node3&#45;&gt;Node5 -->
<g id="edge5" class="edge"><title>Node3&#45;&gt;Node5</title>
<path fill="none" stroke="midnightblue" d="M269.972,-56.4435C246.893,-47.4776 210.435,-33.314 184.356,-23.1827"/>
<polygon fill="midnightblue" stroke="midnightblue" points="185.507,-19.8753 174.918,-19.5164 182.972,-26.4002 185.507,-19.8753"/>
</g>
<!-- Node6 -->
<g id="node6" class="node"><title>Node6</title>
<polygon fill="none" stroke="#bfbfbf" points="347.997,-0.5 347.997,-19.5 455.997,-19.5 455.997,-0.5 347.997,-0.5"/>
<text text-anchor="middle" x="401.997" y="-7.5" font-family="Helvetica,sans-Serif" font-size="10.00">boost/shared_ptr.hpp</text>
</g>
<!-- Node3&#45;&gt;Node6 -->
<g id="edge6" class="edge"><title>Node3&#45;&gt;Node6</title>
<path fill="none" stroke="midnightblue" d="M309.67,-56.324C327.391,-47.6247 354.9,-34.1202 375.285,-24.113"/>
<polygon fill="midnightblue" stroke="midnightblue" points="376.933,-27.2031 384.367,-19.6545 373.848,-20.9195 376.933,-27.2031"/>
</g>
<!-- Node7 -->
<g id="node7" class="node"><title>Node7</title>
<polygon fill="none" stroke="#bfbfbf" points="285.997,-0.5 285.997,-19.5 329.997,-19.5 329.997,-0.5 285.997,-0.5"/>
<text text-anchor="middle" x="307.997" y="-7.5" font-family="Helvetica,sans-Serif" font-size="10.00">vector</text>
</g>
<!-- Node3&#45;&gt;Node7 -->
<g id="edge7" class="edge"><title>Node3&#45;&gt;Node7</title>
<path fill="none" stroke="midnightblue" d="M294.639,-56.083C296.782,-48.8486 299.875,-38.4087 302.546,-29.3968"/>
<polygon fill="midnightblue" stroke="midnightblue" points="305.919,-30.3334 305.404,-19.7511 299.207,-28.3447 305.919,-30.3334"/>
</g>
<!-- Node10 -->
<g id="node10" class="node"><title>Node10</title>
<polygon fill="none" stroke="#bfbfbf" points="370.497,-56.5 370.497,-75.5 411.497,-75.5 411.497,-56.5 370.497,-56.5"/>
<text text-anchor="middle" x="390.997" y="-63.5" font-family="Helvetica,sans-Serif" font-size="10.00">string</text>
</g>
<!-- Node9&#45;&gt;Node10 -->
<g id="edge10" class="edge"><title>Node9&#45;&gt;Node10</title>
<path fill="none" stroke="midnightblue" d="M390.997,-112.083C390.997,-105.006 390.997,-94.8611 390.997,-85.9865"/>
<polygon fill="midnightblue" stroke="midnightblue" points="394.497,-85.751 390.997,-75.7511 387.497,-85.7511 394.497,-85.751"/>
</g>
<!-- Node12&#45;&gt;Node4 -->
<g id="edge13" class="edge"><title>Node12&#45;&gt;Node4</title>
<path fill="none" stroke="midnightblue" d="M204.978,-112.368C211.138,-94.5366 225.385,-53.2953 233.685,-29.2717"/>
<polygon fill="midnightblue" stroke="midnightblue" points="237.072,-30.1862 237.029,-19.5914 230.455,-27.9005 237.072,-30.1862"/>
</g>
<!-- Node12&#45;&gt;Node3 -->
<g id="edge14" class="edge"><title>Node12&#45;&gt;Node3</title>
<path fill="none" stroke="midnightblue" d="M216.457,-112.324C230.496,-103.9 252.045,-90.9709 268.54,-81.0741"/>
<polygon fill="midnightblue" stroke="midnightblue" points="270.798,-83.8007 277.572,-75.6545 267.197,-77.7983 270.798,-83.8007"/>
</g>
<!-- Node13 -->
<g id="node13" class="node"><title>Node13</title>
<g id="a_node13"><a xlink:href="psio_8h_source.html" target="_top" xlink:title="libpsio/psio.h">
<polygon fill="none" stroke="black" points="126.997,-56.5 126.997,-75.5 200.997,-75.5 200.997,-56.5 126.997,-56.5"/>
<text text-anchor="middle" x="163.997" y="-63.5" font-family="Helvetica,sans-Serif" font-size="10.00">libpsio/psio.h</text>
</a>
</g>
</g>
<!-- Node12&#45;&gt;Node13 -->
<g id="edge15" class="edge"><title>Node12&#45;&gt;Node13</title>
<path fill="none" stroke="midnightblue" d="M195.722,-112.083C190.354,-104.455 182.479,-93.2645 175.918,-83.9408"/>
<polygon fill="midnightblue" stroke="midnightblue" points="178.772,-81.9149 170.155,-75.7511 173.047,-85.9434 178.772,-81.9149"/>
</g>
<!-- Node14 -->
<g id="node14" class="node"><title>Node14</title>
<g id="a_node14"><a xlink:href="libciomr_8h_source.html" target="_top" xlink:title="libciomr/libciomr.h">
<polygon fill="none" stroke="black" points="13.4966,-56.5 13.4966,-75.5 108.497,-75.5 108.497,-56.5 13.4966,-56.5"/>
<text text-anchor="middle" x="60.9966" y="-63.5" font-family="Helvetica,sans-Serif" font-size="10.00">libciomr/libciomr.h</text>
</a>
</g>
</g>
<!-- Node12&#45;&gt;Node14 -->
<g id="edge18" class="edge"><title>Node12&#45;&gt;Node14</title>
<path fill="none" stroke="midnightblue" d="M179.655,-112.444C156.244,-103.478 119.261,-89.314 92.8069,-79.1827"/>
<polygon fill="midnightblue" stroke="midnightblue" points="93.8243,-75.8245 83.2339,-75.5164 91.3207,-82.3615 93.8243,-75.8245"/>
</g>
<!-- Node13&#45;&gt;Node2 -->
<g id="edge16" class="edge"><title>Node13&#45;&gt;Node2</title>
<path fill="none" stroke="midnightblue" d="M148.251,-56.324C132.678,-47.7428 108.619,-34.486 90.5373,-24.5224"/>
<polygon fill="midnightblue" stroke="midnightblue" points="92.1504,-21.4152 81.7029,-19.6545 88.7722,-27.546 92.1504,-21.4152"/>
</g>
<!-- Node13&#45;&gt;Node5 -->
<g id="edge17" class="edge"><title>Node13&#45;&gt;Node5</title>
<path fill="none" stroke="midnightblue" d="M162.18,-56.083C160.722,-48.9272 158.626,-38.6353 156.804,-29.6911"/>
<polygon fill="midnightblue" stroke="midnightblue" points="160.205,-28.8512 154.779,-19.7511 153.346,-30.2485 160.205,-28.8512"/>
</g>
<!-- Node14&#45;&gt;Node2 -->
<g id="edge19" class="edge"><title>Node14&#45;&gt;Node2</title>
<path fill="none" stroke="midnightblue" d="M61.8222,-56.083C62.4775,-49.0059 63.4168,-38.8611 64.2386,-29.9865"/>
<polygon fill="midnightblue" stroke="midnightblue" points="67.7493,-30.0312 65.1863,-19.7511 60.7791,-29.3858 67.7493,-30.0312"/>
</g>
</g>
</svg>
