<?xml version="1.0" encoding="UTF-8" standalone="no"?>
<!DOCTYPE svg PUBLIC "-//W3C//DTD SVG 1.1//EN"
 "http://www.w3.org/Graphics/SVG/1.1/DTD/svg11.dtd">
<!-- Generated by graphviz version 2.30.1 (20140110.0959)
 -->
<!-- Title: x_xi2_uhf.cc Pages: 1 -->
<!--zoomable 196 -->
<svg id="main" version="1.1" xmlns="http://www.w3.org/2000/svg" xmlns:xlink="http://www.w3.org/1999/xlink" xml:space="preserve" onload="init(evt)">
        <defs>
                <circle id="rim" cx="0" cy="0" r="7"/>
                <circle id="rim2" cx="0" cy="0" r="3.5"/>
                <g id="zoomPlus">
                        <use xlink:href="#rim" fill="#404040">
                                <set attributeName="fill" to="#808080" begin="zoomplus.mouseover" end="zoomplus.mouseout"/>
                        </use>
                        <path d="M-4,0h8M0,-4v8" fill="none" stroke="white" stroke-width="1.5" pointer-events="none"/>
                </g>
                <g id="zoomMin">
                        <use xlink:href="#rim" fill="#404040">
                                <set attributeName="fill" to="#808080" begin="zoomminus.mouseover" end="zoomminus.mouseout"/>
                        </use>
                        <path d="M-4,0h8" fill="none" stroke="white" stroke-width="1.5" pointer-events="none"/>
                </g>
                <g id="dirArrow">
                        <path fill="none" stroke="white" stroke-width="1.5" d="M0,-3.0v7 M-2.5,-0.5L0,-3.0L2.5,-0.5"/>
                </g>
               <g id="resetDef">
                       <use xlink:href="#rim2" fill="#404040">
                               <set attributeName="fill" to="#808080" begin="reset.mouseover" end="reset.mouseout"/>
                       </use>
               </g>
        </defs>

<script type="text/javascript">
var viewWidth = 560;
var viewHeight = 196;
var sectionId = 'dynsection-0';
</script>
<script xlink:href="svgpan.js"/>
<svg id="graph" class="graph">
<g id="viewport">
<title>x_xi2_uhf.cc</title>
<!-- Node1 -->
<g id="node1" class="node"><title>Node1</title>
<polygon fill="#bfbfbf" stroke="black" points="268.072,-168.5 268.072,-187.5 340.072,-187.5 340.072,-168.5 268.072,-168.5"/>
<text text-anchor="middle" x="304.072" y="-175.5" font-family="Helvetica,sans-Serif" font-size="10.00">x_xi2_uhf.cc</text>
</g>
<!-- Node2 -->
<g id="node2" class="node"><title>Node2</title>
<polygon fill="none" stroke="#bfbfbf" points="44.5725,-0.5 44.5725,-19.5 87.5725,-19.5 87.5725,-0.5 44.5725,-0.5"/>
<text text-anchor="middle" x="66.0725" y="-7.5" font-family="Helvetica,sans-Serif" font-size="10.00">cstdio</text>
</g>
<!-- Node1&#45;&gt;Node2 -->
<g id="edge1" class="edge"><title>Node1&#45;&gt;Node2</title>
<path fill="none" stroke="midnightblue" d="M268.052,-177.4C202.414,-175.922 64.5379,-162.136 4.07247,-76 -9.70892,-56.3677 15.4505,-36.8625 37.733,-24.4186"/>
<polygon fill="midnightblue" stroke="midnightblue" points="39.4642,-27.4625 46.67,-19.6954 36.1933,-21.2736 39.4642,-27.4625"/>
</g>
<!-- Node3 -->
<g id="node3" class="node"><title>Node3</title>
<g id="a_node3"><a xlink:href="lib_2libdpd_2dpd_8h.html" target="_top" xlink:title="Enter brief description of file here.">
<polygon fill="none" stroke="black" points="257.572,-56.5 257.572,-75.5 326.572,-75.5 326.572,-56.5 257.572,-56.5"/>
<text text-anchor="middle" x="292.072" y="-63.5" font-family="Helvetica,sans-Serif" font-size="10.00">libdpd/dpd.h</text>
</a>
</g>
</g>
<!-- Node1&#45;&gt;Node3 -->
<g id="edge2" class="edge"><title>Node1&#45;&gt;Node3</title>
<path fill="none" stroke="midnightblue" d="M295.053,-168.34C287,-159.932 275.775,-146.363 271.072,-132 265.839,-116.014 272.852,-97.7874 280.147,-84.7114"/>
<polygon fill="midnightblue" stroke="midnightblue" points="283.344,-86.1939 285.583,-75.8384 277.375,-82.5373 283.344,-86.1939"/>
</g>
<!-- Node8 -->
<g id="node8" class="node"><title>Node8</title>
<polygon fill="none" stroke="#bfbfbf" points="280.572,-112.5 280.572,-131.5 327.572,-131.5 327.572,-112.5 280.572,-112.5"/>
<text text-anchor="middle" x="304.072" y="-119.5" font-family="Helvetica,sans-Serif" font-size="10.00">math.h</text>
</g>
<!-- Node1&#45;&gt;Node8 -->
<g id="edge8" class="edge"><title>Node1&#45;&gt;Node8</title>
<path fill="none" stroke="midnightblue" d="M304.072,-168.083C304.072,-161.006 304.072,-150.861 304.072,-141.986"/>
<polygon fill="midnightblue" stroke="midnightblue" points="307.573,-141.751 304.072,-131.751 300.573,-141.751 307.573,-141.751"/>
</g>
<!-- Node9 -->
<g id="node9" class="node"><title>Node9</title>
<g id="a_node9"><a xlink:href="ccdensity_2MOInfo_8h.html" target="_top" xlink:title="Enter brief description of file here.">
<polygon fill="none" stroke="black" points="345.572,-112.5 345.572,-131.5 402.572,-131.5 402.572,-112.5 345.572,-112.5"/>
<text text-anchor="middle" x="374.072" y="-119.5" font-family="Helvetica,sans-Serif" font-size="10.00">MOInfo.h</text>
</a>
</g>
</g>
<!-- Node1&#45;&gt;Node9 -->
<g id="edge9" class="edge"><title>Node1&#45;&gt;Node9</title>
<path fill="none" stroke="midnightblue" d="M315.319,-168.324C325.87,-160.185 341.873,-147.839 354.515,-138.087"/>
<polygon fill="midnightblue" stroke="midnightblue" points="356.841,-140.713 362.621,-131.834 352.565,-135.171 356.841,-140.713"/>
</g>
<!-- Node10 -->
<g id="node10" class="node"><title>Node10</title>
<g id="a_node10"><a xlink:href="ccdensity_2Params_8h.html" target="_top" xlink:title="Enter brief description of file here.">
<polygon fill="none" stroke="black" points="420.572,-112.5 420.572,-131.5 479.572,-131.5 479.572,-112.5 420.572,-112.5"/>
<text text-anchor="middle" x="450.072" y="-119.5" font-family="Helvetica,sans-Serif" font-size="10.00">Params.h</text>
</a>
</g>
</g>
<!-- Node1&#45;&gt;Node10 -->
<g id="edge10" class="edge"><title>Node1&#45;&gt;Node10</title>
<path fill="none" stroke="midnightblue" d="M327.207,-168.444C351.555,-159.438 390.08,-145.189 417.495,-135.049"/>
<polygon fill="midnightblue" stroke="midnightblue" points="418.882,-138.268 427.047,-131.516 416.453,-131.703 418.882,-138.268"/>
</g>
<!-- Node12 -->
<g id="node12" class="node"><title>Node12</title>
<g id="a_node12"><a xlink:href="Frozen_8h.html" target="_top" xlink:title="Enter brief description of file here.">
<polygon fill="none" stroke="black" points="497.572,-112.5 497.572,-131.5 552.572,-131.5 552.572,-112.5 497.572,-112.5"/>
<text text-anchor="middle" x="525.072" y="-119.5" font-family="Helvetica,sans-Serif" font-size="10.00">Frozen.h</text>
</a>
</g>
</g>
<!-- Node1&#45;&gt;Node12 -->
<g id="edge12" class="edge"><title>Node1&#45;&gt;Node12</title>
<path fill="none" stroke="midnightblue" d="M339.091,-168.444C379.681,-158.525 446.302,-142.247 487.82,-132.102"/>
<polygon fill="midnightblue" stroke="midnightblue" points="488.666,-135.499 497.55,-129.725 487.005,-128.699 488.666,-135.499"/>
</g>
<!-- Node13 -->
<g id="node13" class="node"><title>Node13</title>
<g id="a_node13"><a xlink:href="ccdensity_2globals_8h.html" target="_top" xlink:title="Enter brief description of file here.">
<polygon fill="none" stroke="black" points="168.072,-112.5 168.072,-131.5 224.072,-131.5 224.072,-112.5 168.072,-112.5"/>
<text text-anchor="middle" x="196.072" y="-119.5" font-family="Helvetica,sans-Serif" font-size="10.00">globals.h</text>
</a>
</g>
</g>
<!-- Node1&#45;&gt;Node13 -->
<g id="edge13" class="edge"><title>Node1&#45;&gt;Node13</title>
<path fill="none" stroke="midnightblue" d="M286.72,-168.324C269.401,-159.664 242.557,-146.242 222.571,-136.249"/>
<polygon fill="midnightblue" stroke="midnightblue" points="223.891,-132.996 213.381,-131.655 220.76,-139.257 223.891,-132.996"/>
</g>
<!-- Node3&#45;&gt;Node2 -->
<g id="edge3" class="edge"><title>Node3&#45;&gt;Node2</title>
<path fill="none" stroke="midnightblue" d="M257.572,-56.8389C219.674,-47.8615 157.018,-32.9829 103.072,-20 101.192,-19.5475 99.259,-19.081 97.3089,-18.6095"/>
<polygon fill="midnightblue" stroke="midnightblue" points="98.1329,-15.2079 87.5897,-16.2526 96.4832,-22.0107 98.1329,-15.2079"/>
</g>
<!-- Node4 -->
<g id="node4" class="node"><title>Node4</title>
<g id="a_node4"><a xlink:href="psifiles_8h_source.html" target="_top" xlink:title="psifiles.h">
<polygon fill="none" stroke="black" points="212.072,-0.5 212.072,-19.5 268.072,-19.5 268.072,-0.5 212.072,-0.5"/>
<text text-anchor="middle" x="240.072" y="-7.5" font-family="Helvetica,sans-Serif" font-size="10.00">psifiles.h</text>
</a>
</g>
</g>
<!-- Node3&#45;&gt;Node4 -->
<g id="edge4" class="edge"><title>Node3&#45;&gt;Node4</title>
<path fill="none" stroke="midnightblue" d="M283.486,-56.083C275.913,-48.2195 264.694,-36.5688 255.558,-27.0813"/>
<polygon fill="midnightblue" stroke="midnightblue" points="257.957,-24.5266 248.499,-19.7511 252.915,-29.3821 257.957,-24.5266"/>
</g>
<!-- Node5 -->
<g id="node5" class="node"><title>Node5</title>
<g id="a_node5"><a xlink:href="libpsio_2config_8h_source.html" target="_top" xlink:title="libpsio/config.h">
<polygon fill="none" stroke="black" points="112.072,-0.5 112.072,-19.5 194.072,-19.5 194.072,-0.5 112.072,-0.5"/>
<text text-anchor="middle" x="153.072" y="-7.5" font-family="Helvetica,sans-Serif" font-size="10.00">libpsio/config.h</text>
</a>
</g>
</g>
<!-- Node3&#45;&gt;Node5 -->
<g id="edge5" class="edge"><title>Node3&#45;&gt;Node5</title>
<path fill="none" stroke="midnightblue" d="M270.048,-56.4435C246.969,-47.4776 210.51,-33.314 184.432,-23.1827"/>
<polygon fill="midnightblue" stroke="midnightblue" points="185.583,-19.8753 174.994,-19.5164 183.048,-26.4002 185.583,-19.8753"/>
</g>
<!-- Node6 -->
<g id="node6" class="node"><title>Node6</title>
<polygon fill="none" stroke="#bfbfbf" points="348.072,-0.5 348.072,-19.5 456.072,-19.5 456.072,-0.5 348.072,-0.5"/>
<text text-anchor="middle" x="402.072" y="-7.5" font-family="Helvetica,sans-Serif" font-size="10.00">boost/shared_ptr.hpp</text>
</g>
<!-- Node3&#45;&gt;Node6 -->
<g id="edge6" class="edge"><title>Node3&#45;&gt;Node6</title>
<path fill="none" stroke="midnightblue" d="M309.746,-56.324C327.467,-47.6247 354.976,-34.1202 375.361,-24.113"/>
<polygon fill="midnightblue" stroke="midnightblue" points="377.009,-27.2031 384.443,-19.6545 373.924,-20.9195 377.009,-27.2031"/>
</g>
<!-- Node7 -->
<g id="node7" class="node"><title>Node7</title>
<polygon fill="none" stroke="#bfbfbf" points="286.072,-0.5 286.072,-19.5 330.072,-19.5 330.072,-0.5 286.072,-0.5"/>
<text text-anchor="middle" x="308.072" y="-7.5" font-family="Helvetica,sans-Serif" font-size="10.00">vector</text>
</g>
<!-- Node3&#45;&gt;Node7 -->
<g id="edge7" class="edge"><title>Node3&#45;&gt;Node7</title>
<path fill="none" stroke="midnightblue" d="M294.715,-56.083C296.858,-48.8486 299.951,-38.4087 302.622,-29.3968"/>
<polygon fill="midnightblue" stroke="midnightblue" points="305.994,-30.3334 305.48,-19.7511 299.283,-28.3447 305.994,-30.3334"/>
</g>
<!-- Node11 -->
<g id="node11" class="node"><title>Node11</title>
<polygon fill="none" stroke="#bfbfbf" points="429.572,-56.5 429.572,-75.5 470.572,-75.5 470.572,-56.5 429.572,-56.5"/>
<text text-anchor="middle" x="450.072" y="-63.5" font-family="Helvetica,sans-Serif" font-size="10.00">string</text>
</g>
<!-- Node10&#45;&gt;Node11 -->
<g id="edge11" class="edge"><title>Node10&#45;&gt;Node11</title>
<path fill="none" stroke="midnightblue" d="M450.072,-112.083C450.072,-105.006 450.072,-94.8611 450.072,-85.9865"/>
<polygon fill="midnightblue" stroke="midnightblue" points="453.573,-85.751 450.072,-75.7511 446.573,-85.7511 453.573,-85.751"/>
</g>
<!-- Node13&#45;&gt;Node4 -->
<g id="edge14" class="edge"><title>Node13&#45;&gt;Node4</title>
<path fill="none" stroke="midnightblue" d="M199.525,-112.368C206.69,-94.4563 223.303,-52.9233 232.893,-28.9482"/>
<polygon fill="midnightblue" stroke="midnightblue" points="236.172,-30.1761 236.636,-19.5914 229.672,-27.5763 236.172,-30.1761"/>
</g>
<!-- Node13&#45;&gt;Node3 -->
<g id="edge15" class="edge"><title>Node13&#45;&gt;Node3</title>
<path fill="none" stroke="midnightblue" d="M211.497,-112.324C226.612,-103.822 249.888,-90.7288 267.544,-80.7975"/>
<polygon fill="midnightblue" stroke="midnightblue" points="269.687,-83.6077 276.687,-75.6545 266.255,-77.5066 269.687,-83.6077"/>
</g>
<!-- Node14 -->
<g id="node14" class="node"><title>Node14</title>
<g id="a_node14"><a xlink:href="psio_8h_source.html" target="_top" xlink:title="libpsio/psio.h">
<polygon fill="none" stroke="black" points="127.072,-56.5 127.072,-75.5 201.072,-75.5 201.072,-56.5 127.072,-56.5"/>
<text text-anchor="middle" x="164.072" y="-63.5" font-family="Helvetica,sans-Serif" font-size="10.00">libpsio/psio.h</text>
</a>
</g>
</g>
<!-- Node13&#45;&gt;Node14 -->
<g id="edge16" class="edge"><title>Node13&#45;&gt;Node14</title>
<path fill="none" stroke="midnightblue" d="M190.788,-112.083C186.361,-104.613 179.909,-93.7244 174.455,-84.5199"/>
<polygon fill="midnightblue" stroke="midnightblue" points="177.367,-82.5697 169.258,-75.7511 171.345,-86.1383 177.367,-82.5697"/>
</g>
<!-- Node15 -->
<g id="node15" class="node"><title>Node15</title>
<g id="a_node15"><a xlink:href="libciomr_8h_source.html" target="_top" xlink:title="libciomr/libciomr.h">
<polygon fill="none" stroke="black" points="13.5725,-56.5 13.5725,-75.5 108.572,-75.5 108.572,-56.5 13.5725,-56.5"/>
<text text-anchor="middle" x="61.0725" y="-63.5" font-family="Helvetica,sans-Serif" font-size="10.00">libciomr/libciomr.h</text>
</a>
</g>
</g>
<!-- Node13&#45;&gt;Node15 -->
<g id="edge19" class="edge"><title>Node13&#45;&gt;Node15</title>
<path fill="none" stroke="midnightblue" d="M174.681,-112.444C152.365,-103.517 117.169,-89.4387 91.8645,-79.3168"/>
<polygon fill="midnightblue" stroke="midnightblue" points="92.9482,-75.9807 82.3635,-75.5164 90.3484,-82.4801 92.9482,-75.9807"/>
</g>
<!-- Node14&#45;&gt;Node2 -->
<g id="edge17" class="edge"><title>Node14&#45;&gt;Node2</title>
<path fill="none" stroke="midnightblue" d="M148.327,-56.324C132.754,-47.7428 108.695,-34.486 90.6132,-24.5224"/>
<polygon fill="midnightblue" stroke="midnightblue" points="92.2263,-21.4152 81.7788,-19.6545 88.848,-27.546 92.2263,-21.4152"/>
</g>
<!-- Node14&#45;&gt;Node5 -->
<g id="edge18" class="edge"><title>Node14&#45;&gt;Node5</title>
<path fill="none" stroke="midnightblue" d="M162.256,-56.083C160.798,-48.9272 158.702,-38.6353 156.88,-29.6911"/>
<polygon fill="midnightblue" stroke="midnightblue" points="160.281,-28.8512 154.855,-19.7511 153.422,-30.2485 160.281,-28.8512"/>
</g>
<!-- Node15&#45;&gt;Node2 -->
<g id="edge20" class="edge"><title>Node15&#45;&gt;Node2</title>
<path fill="none" stroke="midnightblue" d="M61.8981,-56.083C62.5534,-49.0059 63.4927,-38.8611 64.3145,-29.9865"/>
<polygon fill="midnightblue" stroke="midnightblue" points="67.8252,-30.0312 65.2622,-19.7511 60.855,-29.3858 67.8252,-30.0312"/>
</g>
</g>
</svg>
        <g id="navigator" transform="translate(0 0)" fill="#404254">
                <rect fill="#f2f5e9" fill-opacity="0.5" stroke="#606060" stroke-width=".5" x="0" y="0" width="60" height="60"/>
                <use id="zoomplus" xlink:href="#zoomPlus" x="17" y="9" onmousedown="handleZoom(evt,'in')"/>
                <use id="zoomminus" xlink:href="#zoomMin" x="42" y="9" onmousedown="handleZoom(evt,'out')"/>
                <use id="reset" xlink:href="#resetDef" x="30" y="36" onmousedown="handleReset()"/>
                <g id="arrowUp" xlink:href="#dirArrow" transform="translate(30 24)" onmousedown="handlePan(0,-1)">
                  <use xlink:href="#rim" fill="#404040">
                        <set attributeName="fill" to="#808080" begin="arrowUp.mouseover" end="arrowUp.mouseout"/>
                  </use>
                  <path fill="none" stroke="white" stroke-width="1.5" d="M0,-3.0v7 M-2.5,-0.5L0,-3.0L2.5,-0.5"/>
                </g>
                <g id="arrowRight" xlink:href="#dirArrow" transform="rotate(90) translate(36 -43)" onmousedown="handlePan(1,0)">
                  <use xlink:href="#rim" fill="#404040">
                        <set attributeName="fill" to="#808080" begin="arrowRight.mouseover" end="arrowRight.mouseout"/>
                  </use>
                  <path fill="none" stroke="white" stroke-width="1.5" d="M0,-3.0v7 M-2.5,-0.5L0,-3.0L2.5,-0.5"/>
                </g>
                <g id="arrowDown" xlink:href="#dirArrow" transform="rotate(180) translate(-30 -48)" onmousedown="handlePan(0,1)">
                  <use xlink:href="#rim" fill="#404040">
                        <set attributeName="fill" to="#808080" begin="arrowDown.mouseover" end="arrowDown.mouseout"/>
                  </use>
                  <path fill="none" stroke="white" stroke-width="1.5" d="M0,-3.0v7 M-2.5,-0.5L0,-3.0L2.5,-0.5"/>
                </g>
                <g id="arrowLeft" xlink:href="#dirArrow" transform="rotate(270) translate(-36 17)" onmousedown="handlePan(-1,0)">
                  <use xlink:href="#rim" fill="#404040">
                        <set attributeName="fill" to="#808080" begin="arrowLeft.mouseover" end="arrowLeft.mouseout"/>
                  </use>
                  <path fill="none" stroke="white" stroke-width="1.5" d="M0,-3.0v7 M-2.5,-0.5L0,-3.0L2.5,-0.5"/>
                </g>
        </g>
        <svg viewBox="0 0 15 15" width="100%" height="30px" preserveAspectRatio="xMaxYMin meet">
         <g id="arrow_out" transform="scale(0.3 0.3)">
          <a xlink:href="x__xi2__uhf_8cc__incl_org.svg" target="_base">
           <rect id="button" ry="5" rx="5" y="6" x="6" height="38" width="38"
                fill="#f2f5e9" fill-opacity="0.5" stroke="#606060" stroke-width="1.0"/>
           <path id="arrow"
             d="M 11.500037,31.436501 C 11.940474,20.09759 22.043105,11.32322 32.158766,21.979434 L 37.068811,17.246167 C 37.068811,17.246167 37.088388,32 37.088388,32 L 22.160133,31.978069 C 22.160133,31.978069 26.997745,27.140456 26.997745,27.140456 C 18.528582,18.264221 13.291696,25.230495 11.500037,31.436501 z"
             style="fill:#404040;"/>
          </a>
         </g>
        </svg>
</svg>
