<?xml version="1.0" encoding="UTF-8" standalone="no"?>
<!DOCTYPE svg PUBLIC "-//W3C//DTD SVG 1.1//EN"
 "http://www.w3.org/Graphics/SVG/1.1/DTD/svg11.dtd">
<!-- Generated by graphviz version 2.30.1 (20140110.0959)
 -->
<!-- Title: zmat_point.cc Pages: 1 -->
<svg width="1307pt" height="264pt"
 viewBox="0.00 0.00 1307.00 264.00" xmlns="http://www.w3.org/2000/svg" xmlns:xlink="http://www.w3.org/1999/xlink">
<g id="graph0" class="graph" transform="scale(1 1) rotate(0) translate(4 260)">
<title>zmat_point.cc</title>
<!-- Node1 -->
<g id="node1" class="node"><title>Node1</title>
<polygon fill="#bfbfbf" stroke="black" points="167,-236.5 167,-255.5 245,-255.5 245,-236.5 167,-236.5"/>
<text text-anchor="middle" x="206" y="-243.5" font-family="Helvetica,sans-Serif" font-size="10.00">zmat_point.cc</text>
</g>
<!-- Node2 -->
<g id="node2" class="node"><title>Node2</title>
<polygon fill="none" stroke="#bfbfbf" points="0,-180.5 0,-199.5 46,-199.5 46,-180.5 0,-180.5"/>
<text text-anchor="middle" x="23" y="-187.5" font-family="Helvetica,sans-Serif" font-size="10.00">stdio.h</text>
</g>
<!-- Node1&#45;&gt;Node2 -->
<g id="edge1" class="edge"><title>Node1&#45;&gt;Node2</title>
<path fill="none" stroke="midnightblue" d="M177.003,-236.444C143.981,-226.699 90.1535,-210.816 55.6736,-200.641"/>
<polygon fill="midnightblue" stroke="midnightblue" points="56.6487,-197.28 46.067,-197.807 54.6676,-203.994 56.6487,-197.28"/>
</g>
<!-- Node3 -->
<g id="node3" class="node"><title>Node3</title>
<polygon fill="none" stroke="#bfbfbf" points="64,-180.5 64,-199.5 112,-199.5 112,-180.5 64,-180.5"/>
<text text-anchor="middle" x="88" y="-187.5" font-family="Helvetica,sans-Serif" font-size="10.00">stdlib.h</text>
</g>
<!-- Node1&#45;&gt;Node3 -->
<g id="edge2" class="edge"><title>Node1&#45;&gt;Node3</title>
<path fill="none" stroke="midnightblue" d="M187.303,-236.444C168.056,-227.636 137.848,-213.812 115.8,-203.722"/>
<polygon fill="midnightblue" stroke="midnightblue" points="117.16,-200.495 106.61,-199.516 114.247,-206.86 117.16,-200.495"/>
</g>
<!-- Node4 -->
<g id="node4" class="node"><title>Node4</title>
<polygon fill="none" stroke="#bfbfbf" points="130.5,-180.5 130.5,-199.5 177.5,-199.5 177.5,-180.5 130.5,-180.5"/>
<text text-anchor="middle" x="154" y="-187.5" font-family="Helvetica,sans-Serif" font-size="10.00">math.h</text>
</g>
<!-- Node1&#45;&gt;Node4 -->
<g id="edge3" class="edge"><title>Node1&#45;&gt;Node4</title>
<path fill="none" stroke="midnightblue" d="M197.413,-236.083C189.841,-228.22 178.622,-216.569 169.486,-207.081"/>
<polygon fill="midnightblue" stroke="midnightblue" points="171.885,-204.527 162.427,-199.751 166.842,-209.382 171.885,-204.527"/>
</g>
<!-- Node5 -->
<g id="node5" class="node"><title>Node5</title>
<g id="a_node5"><a xlink:href="qt_8h.html" target="_top" xlink:title="Header file for the Quantum Trio LibraryDavid Sherrill 1994.">
<polygon fill="none" stroke="black" points="170,-62.5 170,-81.5 224,-81.5 224,-62.5 170,-62.5"/>
<text text-anchor="middle" x="197" y="-69.5" font-family="Helvetica,sans-Serif" font-size="10.00">libqt/qt.h</text>
</a>
</g>
</g>
<!-- Node1&#45;&gt;Node5 -->
<g id="edge4" class="edge"><title>Node1&#45;&gt;Node5</title>
<path fill="none" stroke="midnightblue" d="M205.541,-236.234C204.145,-209.548 199.924,-128.877 197.989,-91.8931"/>
<polygon fill="midnightblue" stroke="midnightblue" points="201.465,-91.3476 197.447,-81.5442 194.474,-91.7135 201.465,-91.3476"/>
</g>
<!-- Node8 -->
<g id="node8" class="node"><title>Node8</title>
<polygon fill="none" stroke="#bfbfbf" points="234,-180.5 234,-199.5 304,-199.5 304,-180.5 234,-180.5"/>
<text text-anchor="middle" x="269" y="-187.5" font-family="Helvetica,sans-Serif" font-size="10.00">physconst.h</text>
</g>
<!-- Node1&#45;&gt;Node8 -->
<g id="edge7" class="edge"><title>Node1&#45;&gt;Node8</title>
<path fill="none" stroke="midnightblue" d="M216.122,-236.324C225.526,-228.263 239.744,-216.077 251.069,-206.369"/>
<polygon fill="midnightblue" stroke="midnightblue" points="253.379,-208.999 258.694,-199.834 248.823,-203.684 253.379,-208.999"/>
</g>
<!-- Node9 -->
<g id="node9" class="node"><title>Node9</title>
<g id="a_node9"><a xlink:href="psifiles_8h_source.html" target="_top" xlink:title="psifiles.h">
<polygon fill="none" stroke="black" points="322,-180.5 322,-199.5 378,-199.5 378,-180.5 322,-180.5"/>
<text text-anchor="middle" x="350" y="-187.5" font-family="Helvetica,sans-Serif" font-size="10.00">psifiles.h</text>
</a>
</g>
</g>
<!-- Node1&#45;&gt;Node9 -->
<g id="edge8" class="edge"><title>Node1&#45;&gt;Node9</title>
<path fill="none" stroke="midnightblue" d="M228.817,-236.444C252.832,-227.438 290.829,-213.189 317.869,-203.049"/>
<polygon fill="midnightblue" stroke="midnightblue" points="319.155,-206.305 327.29,-199.516 316.697,-199.751 319.155,-206.305"/>
</g>
<!-- Node10 -->
<g id="node10" class="node"><title>Node10</title>
<g id="a_node10"><a xlink:href="psi4-dec_8h_source.html" target="_top" xlink:title="psi4&#45;dec.h">
<polygon fill="none" stroke="black" points="598,-180.5 598,-199.5 660,-199.5 660,-180.5 598,-180.5"/>
<text text-anchor="middle" x="629" y="-187.5" font-family="Helvetica,sans-Serif" font-size="10.00">psi4&#45;dec.h</text>
</a>
</g>
</g>
<!-- Node1&#45;&gt;Node10 -->
<g id="edge9" class="edge"><title>Node1&#45;&gt;Node10</title>
<path fill="none" stroke="midnightblue" d="M245.037,-240.017C324.8,-229.834 505.822,-206.725 587.568,-196.289"/>
<polygon fill="midnightblue" stroke="midnightblue" points="588.484,-199.701 597.96,-194.963 587.597,-192.757 588.484,-199.701"/>
</g>
<!-- Node6 -->
<g id="node6" class="node"><title>Node6</title>
<polygon fill="none" stroke="#bfbfbf" points="204.5,-0.5 204.5,-19.5 247.5,-19.5 247.5,-0.5 204.5,-0.5"/>
<text text-anchor="middle" x="226" y="-7.5" font-family="Helvetica,sans-Serif" font-size="10.00">cstdio</text>
</g>
<!-- Node5&#45;&gt;Node6 -->
<g id="edge5" class="edge"><title>Node5&#45;&gt;Node6</title>
<path fill="none" stroke="midnightblue" d="M201.155,-62.4035C205.376,-53.6707 212.037,-39.8893 217.4,-28.7936"/>
<polygon fill="midnightblue" stroke="midnightblue" points="220.652,-30.1072 221.853,-19.5806 214.35,-27.061 220.652,-30.1072"/>
</g>
<!-- Node7 -->
<g id="node7" class="node"><title>Node7</title>
<polygon fill="none" stroke="#bfbfbf" points="355.5,-0.5 355.5,-19.5 396.5,-19.5 396.5,-0.5 355.5,-0.5"/>
<text text-anchor="middle" x="376" y="-7.5" font-family="Helvetica,sans-Serif" font-size="10.00">string</text>
</g>
<!-- Node5&#45;&gt;Node7 -->
<g id="edge6" class="edge"><title>Node5&#45;&gt;Node7</title>
<path fill="none" stroke="midnightblue" d="M219.934,-62.4465C225.809,-60.3005 232.126,-58.0314 238,-56 274.907,-43.2357 317.7,-29.4351 345.729,-20.5302"/>
<polygon fill="midnightblue" stroke="midnightblue" points="346.874,-23.8391 355.349,-17.4819 344.759,-17.1661 346.874,-23.8391"/>
</g>
<!-- Node11 -->
<g id="node11" class="node"><title>Node11</title>
<polygon fill="none" stroke="#bfbfbf" points="773,-124.5 773,-143.5 881,-143.5 881,-124.5 773,-124.5"/>
<text text-anchor="middle" x="827" y="-131.5" font-family="Helvetica,sans-Serif" font-size="10.00">boost/shared_ptr.hpp</text>
</g>
<!-- Node10&#45;&gt;Node11 -->
<g id="edge10" class="edge"><title>Node10&#45;&gt;Node11</title>
<path fill="none" stroke="midnightblue" d="M660.374,-180.444C694.263,-171.201 748.403,-156.436 785.724,-146.257"/>
<polygon fill="midnightblue" stroke="midnightblue" points="787.046,-149.524 795.773,-143.516 785.205,-142.771 787.046,-149.524"/>
</g>
<!-- Node12 -->
<g id="node12" class="node"><title>Node12</title>
<polygon fill="none" stroke="#bfbfbf" points="875,-62.5 875,-81.5 1007,-81.5 1007,-62.5 875,-62.5"/>
<text text-anchor="middle" x="941" y="-69.5" font-family="Helvetica,sans-Serif" font-size="10.00">boost/current_function.hpp</text>
</g>
<!-- Node10&#45;&gt;Node12 -->
<g id="edge11" class="edge"><title>Node10&#45;&gt;Node12</title>
<path fill="none" stroke="midnightblue" d="M644.823,-180.299C669.651,-166.896 719.526,-140.976 764,-124 807.558,-107.374 858.911,-93.1439 895.052,-83.9734"/>
<polygon fill="midnightblue" stroke="midnightblue" points="895.975,-87.3504 904.823,-81.5232 894.272,-80.5606 895.975,-87.3504"/>
</g>
<!-- Node10&#45;&gt;Node7 -->
<g id="edge12" class="edge"><title>Node10&#45;&gt;Node7</title>
<path fill="none" stroke="midnightblue" d="M597.777,-185.385C517.383,-175.326 307.038,-144.004 271,-88 263.304,-76.04 263.171,-67.8733 271,-56 287.336,-31.2263 320.445,-20.0393 345.14,-15.0198"/>
<polygon fill="midnightblue" stroke="midnightblue" points="345.911,-18.4374 355.134,-13.2246 344.673,-11.5477 345.911,-18.4374"/>
</g>
<!-- Node13 -->
<g id="node13" class="node"><title>Node13</title>
<polygon fill="none" stroke="#bfbfbf" points="403.5,-124.5 403.5,-143.5 432.5,-143.5 432.5,-124.5 403.5,-124.5"/>
<text text-anchor="middle" x="418" y="-131.5" font-family="Helvetica,sans-Serif" font-size="10.00">list</text>
</g>
<!-- Node10&#45;&gt;Node13 -->
<g id="edge13" class="edge"><title>Node10&#45;&gt;Node13</title>
<path fill="none" stroke="midnightblue" d="M597.913,-182.741C562.445,-175.334 502.588,-162.029 442.301,-143.78"/>
<polygon fill="midnightblue" stroke="midnightblue" points="443.212,-140.399 432.625,-140.809 441.157,-147.091 443.212,-140.399"/>
</g>
<!-- Node14 -->
<g id="node14" class="node"><title>Node14</title>
<polygon fill="none" stroke="#bfbfbf" points="741.5,-62.5 741.5,-81.5 776.5,-81.5 776.5,-62.5 741.5,-62.5"/>
<text text-anchor="middle" x="759" y="-69.5" font-family="Helvetica,sans-Serif" font-size="10.00">map</text>
</g>
<!-- Node10&#45;&gt;Node14 -->
<g id="edge14" class="edge"><title>Node10&#45;&gt;Node14</title>
<path fill="none" stroke="midnightblue" d="M640.879,-180.429C652.837,-171.653 671.658,-157.433 687,-144 707.506,-126.047 729.62,-103.757 743.851,-88.9927"/>
<polygon fill="midnightblue" stroke="midnightblue" points="746.501,-91.2854 750.885,-81.6401 741.443,-86.4463 746.501,-91.2854"/>
</g>
<!-- Node15 -->
<g id="node15" class="node"><title>Node15</title>
<g id="a_node15"><a xlink:href="liboptions_8h_source.html" target="_top" xlink:title="liboptions/liboptions.h">
<polygon fill="none" stroke="black" points="451,-124.5 451,-143.5 561,-143.5 561,-124.5 451,-124.5"/>
<text text-anchor="middle" x="506" y="-131.5" font-family="Helvetica,sans-Serif" font-size="10.00">liboptions/liboptions.h</text>
</a>
</g>
</g>
<!-- Node10&#45;&gt;Node15 -->
<g id="edge15" class="edge"><title>Node10&#45;&gt;Node15</title>
<path fill="none" stroke="midnightblue" d="M609.51,-180.444C589.358,-171.596 557.677,-157.687 534.669,-147.586"/>
<polygon fill="midnightblue" stroke="midnightblue" points="535.962,-144.332 525.399,-143.516 533.148,-150.741 535.962,-144.332"/>
</g>
<!-- Node25 -->
<g id="node25" class="node"><title>Node25</title>
<g id="a_node25"><a xlink:href="include_2exception_8h_source.html" target="_top" xlink:title="exception.h">
<polygon fill="none" stroke="black" points="1059.5,-124.5 1059.5,-143.5 1126.5,-143.5 1126.5,-124.5 1059.5,-124.5"/>
<text text-anchor="middle" x="1093" y="-131.5" font-family="Helvetica,sans-Serif" font-size="10.00">exception.h</text>
</a>
</g>
</g>
<!-- Node10&#45;&gt;Node25 -->
<g id="edge30" class="edge"><title>Node10&#45;&gt;Node25</title>
<path fill="none" stroke="midnightblue" d="M660.165,-185.373C740.774,-175.992 956.322,-150.907 1049.31,-140.085"/>
<polygon fill="midnightblue" stroke="midnightblue" points="1049.97,-143.532 1059.5,-138.899 1049.16,-136.579 1049.97,-143.532"/>
</g>
<!-- Node30 -->
<g id="node30" class="node"><title>Node30</title>
<g id="a_node30"><a xlink:href="typedefs_8h_source.html" target="_top" xlink:title="libmints/typedefs.h">
<polygon fill="none" stroke="black" points="579.5,-124.5 579.5,-143.5 678.5,-143.5 678.5,-124.5 579.5,-124.5"/>
<text text-anchor="middle" x="629" y="-131.5" font-family="Helvetica,sans-Serif" font-size="10.00">libmints/typedefs.h</text>
</a>
</g>
</g>
<!-- Node10&#45;&gt;Node30 -->
<g id="edge36" class="edge"><title>Node10&#45;&gt;Node30</title>
<path fill="none" stroke="midnightblue" d="M629,-180.083C629,-173.006 629,-162.861 629,-153.986"/>
<polygon fill="midnightblue" stroke="midnightblue" points="632.5,-153.751 629,-143.751 625.5,-153.751 632.5,-153.751"/>
</g>
<!-- Node15&#45;&gt;Node7 -->
<g id="edge16" class="edge"><title>Node15&#45;&gt;Node7</title>
<path fill="none" stroke="midnightblue" d="M459.415,-124.444C436.959,-118.02 411.405,-106.94 395,-88 381.084,-71.9328 377.042,-47.2431 376.026,-30.1728"/>
<polygon fill="midnightblue" stroke="midnightblue" points="379.513,-29.6652 375.722,-19.7718 372.516,-29.8698 379.513,-29.6652"/>
</g>
<!-- Node16 -->
<g id="node16" class="node"><title>Node16</title>
<polygon fill="none" stroke="#bfbfbf" points="658,-0.5 658,-19.5 702,-19.5 702,-0.5 658,-0.5"/>
<text text-anchor="middle" x="680" y="-7.5" font-family="Helvetica,sans-Serif" font-size="10.00">vector</text>
</g>
<!-- Node15&#45;&gt;Node16 -->
<g id="edge17" class="edge"><title>Node15&#45;&gt;Node16</title>
<path fill="none" stroke="midnightblue" d="M554.961,-124.436C607.423,-114.764 684.372,-98.9505 693,-88 706.326,-71.0865 698.113,-45.5209 689.957,-28.5495"/>
<polygon fill="midnightblue" stroke="midnightblue" points="693.057,-26.9243 685.325,-19.6805 686.852,-30.1647 693.057,-26.9243"/>
</g>
<!-- Node15&#45;&gt;Node14 -->
<g id="edge18" class="edge"><title>Node15&#45;&gt;Node14</title>
<path fill="none" stroke="midnightblue" d="M561.438,-125.452C606.716,-118.403 671.985,-106.207 727,-88 729.13,-87.2952 731.304,-86.4857 733.466,-85.6158"/>
<polygon fill="midnightblue" stroke="midnightblue" points="734.954,-88.785 742.697,-81.5532 732.134,-82.378 734.954,-88.785"/>
</g>
<!-- Node17 -->
<g id="node17" class="node"><title>Node17</title>
<polygon fill="none" stroke="#bfbfbf" points="280.5,-62.5 280.5,-81.5 347.5,-81.5 347.5,-62.5 280.5,-62.5"/>
<text text-anchor="middle" x="314" y="-69.5" font-family="Helvetica,sans-Serif" font-size="10.00">exception.h</text>
</g>
<!-- Node15&#45;&gt;Node17 -->
<g id="edge19" class="edge"><title>Node15&#45;&gt;Node17</title>
<path fill="none" stroke="midnightblue" d="M478.491,-124.403C445.129,-113.978 388.738,-96.3557 351.437,-84.6992"/>
<polygon fill="midnightblue" stroke="midnightblue" points="352.047,-81.2227 341.458,-81.5806 349.959,-87.9041 352.047,-81.2227"/>
</g>
<!-- Node18 -->
<g id="node18" class="node"><title>Node18</title>
<g id="a_node18"><a xlink:href="libutil_8h_source.html" target="_top" xlink:title="libutil/libutil.h">
<polygon fill="none" stroke="black" points="611.5,-62.5 611.5,-81.5 684.5,-81.5 684.5,-62.5 611.5,-62.5"/>
<text text-anchor="middle" x="648" y="-69.5" font-family="Helvetica,sans-Serif" font-size="10.00">libutil/libutil.h</text>
</a>
</g>
</g>
<!-- Node15&#45;&gt;Node18 -->
<g id="edge20" class="edge"><title>Node15&#45;&gt;Node18</title>
<path fill="none" stroke="midnightblue" d="M526.345,-124.403C550.387,-114.245 590.597,-97.2547 618.163,-85.6074"/>
<polygon fill="midnightblue" stroke="midnightblue" points="619.843,-88.6968 627.693,-81.5806 617.119,-82.2488 619.843,-88.6968"/>
</g>
<!-- Node20 -->
<g id="node20" class="node"><title>Node20</title>
<g id="a_node20"><a xlink:href="libutil_2ref_8h_source.html" target="_top" xlink:title="libutil/ref.h">
<polygon fill="none" stroke="black" points="90,-62.5 90,-81.5 152,-81.5 152,-62.5 90,-62.5"/>
<text text-anchor="middle" x="121" y="-69.5" font-family="Helvetica,sans-Serif" font-size="10.00">libutil/ref.h</text>
</a>
</g>
</g>
<!-- Node15&#45;&gt;Node20 -->
<g id="edge24" class="edge"><title>Node15&#45;&gt;Node20</title>
<path fill="none" stroke="midnightblue" d="M450.687,-125.304C447.41,-124.86 444.162,-124.422 441,-124 316.635,-107.396 282.773,-118.229 161,-88 157.585,-87.1524 154.063,-86.1038 150.589,-84.9579"/>
<polygon fill="midnightblue" stroke="midnightblue" points="151.656,-81.6225 141.062,-81.5566 149.303,-88.215 151.656,-81.6225"/>
</g>
<!-- Node24 -->
<g id="node24" class="node"><title>Node24</title>
<polygon fill="none" stroke="#bfbfbf" points="404,-57 404,-87 506,-87 506,-57 404,-57"/>
<text text-anchor="start" x="412" y="-75" font-family="Helvetica,sans-Serif" font-size="10.00">boost/python/object</text>
<text text-anchor="middle" x="455" y="-64" font-family="Helvetica,sans-Serif" font-size="10.00">_fwd.hpp</text>
</g>
<!-- Node15&#45;&gt;Node24 -->
<g id="edge29" class="edge"><title>Node15&#45;&gt;Node24</title>
<path fill="none" stroke="midnightblue" d="M498.693,-124.403C492.173,-116.733 482.342,-105.167 473.656,-94.9478"/>
<polygon fill="midnightblue" stroke="midnightblue" points="476.163,-92.4934 467.02,-87.1408 470.829,-97.027 476.163,-92.4934"/>
</g>
<!-- Node18&#45;&gt;Node7 -->
<g id="edge21" class="edge"><title>Node18&#45;&gt;Node7</title>
<path fill="none" stroke="midnightblue" d="M623.332,-62.3599C616.473,-60.1211 608.989,-57.8284 602,-56 532.992,-37.9464 450.48,-23.212 406.75,-15.9307"/>
<polygon fill="midnightblue" stroke="midnightblue" points="407.189,-12.456 396.753,-14.284 406.051,-19.3629 407.189,-12.456"/>
</g>
<!-- Node18&#45;&gt;Node16 -->
<g id="edge22" class="edge"><title>Node18&#45;&gt;Node16</title>
<path fill="none" stroke="midnightblue" d="M652.585,-62.4035C657.29,-53.5816 664.743,-39.6075 670.691,-28.4548"/>
<polygon fill="midnightblue" stroke="midnightblue" points="673.806,-30.0512 675.424,-19.5806 667.63,-26.7571 673.806,-30.0512"/>
</g>
<!-- Node19 -->
<g id="node19" class="node"><title>Node19</title>
<polygon fill="none" stroke="#bfbfbf" points="578,-0.5 578,-19.5 640,-19.5 640,-0.5 578,-0.5"/>
<text text-anchor="middle" x="609" y="-7.5" font-family="Helvetica,sans-Serif" font-size="10.00">sys/time.h</text>
</g>
<!-- Node18&#45;&gt;Node19 -->
<g id="edge23" class="edge"><title>Node18&#45;&gt;Node19</title>
<path fill="none" stroke="midnightblue" d="M642.412,-62.4035C636.62,-53.4925 627.411,-39.3247 620.126,-28.1177"/>
<polygon fill="midnightblue" stroke="midnightblue" points="622.962,-26.0576 614.577,-19.5806 617.093,-29.8725 622.962,-26.0576"/>
</g>
<!-- Node21 -->
<g id="node21" class="node"><title>Node21</title>
<polygon fill="none" stroke="#bfbfbf" points="3.5,-0.5 3.5,-19.5 52.5,-19.5 52.5,-0.5 3.5,-0.5"/>
<text text-anchor="middle" x="28" y="-7.5" font-family="Helvetica,sans-Serif" font-size="10.00">cstddef</text>
</g>
<!-- Node20&#45;&gt;Node21 -->
<g id="edge25" class="edge"><title>Node20&#45;&gt;Node21</title>
<path fill="none" stroke="midnightblue" d="M107.675,-62.4035C92.6203,-52.6905 67.8844,-36.7319 49.9631,-25.1697"/>
<polygon fill="midnightblue" stroke="midnightblue" points="51.6004,-22.0609 41.2999,-19.5806 47.8054,-27.9429 51.6004,-22.0609"/>
</g>
<!-- Node20&#45;&gt;Node6 -->
<g id="edge26" class="edge"><title>Node20&#45;&gt;Node6</title>
<path fill="none" stroke="midnightblue" d="M136.044,-62.4035C153.275,-52.5569 181.74,-36.2915 202.034,-24.6949"/>
<polygon fill="midnightblue" stroke="midnightblue" points="204.038,-27.5809 210.984,-19.5806 200.565,-21.5032 204.038,-27.5809"/>
</g>
<!-- Node22 -->
<g id="node22" class="node"><title>Node22</title>
<polygon fill="none" stroke="#bfbfbf" points="70.5,-0.5 70.5,-19.5 115.5,-19.5 115.5,-0.5 70.5,-0.5"/>
<text text-anchor="middle" x="93" y="-7.5" font-family="Helvetica,sans-Serif" font-size="10.00">cstdlib</text>
</g>
<!-- Node20&#45;&gt;Node22 -->
<g id="edge27" class="edge"><title>Node20&#45;&gt;Node22</title>
<path fill="none" stroke="midnightblue" d="M116.988,-62.4035C112.913,-53.6707 106.482,-39.8893 101.304,-28.7936"/>
<polygon fill="midnightblue" stroke="midnightblue" points="104.405,-27.1623 97.0043,-19.5806 98.0615,-30.1225 104.405,-27.1623"/>
</g>
<!-- Node23 -->
<g id="node23" class="node"><title>Node23</title>
<polygon fill="none" stroke="#bfbfbf" points="134,-0.5 134,-19.5 186,-19.5 186,-0.5 134,-0.5"/>
<text text-anchor="middle" x="160" y="-7.5" font-family="Helvetica,sans-Serif" font-size="10.00">assert.h</text>
</g>
<!-- Node20&#45;&gt;Node23 -->
<g id="edge28" class="edge"><title>Node20&#45;&gt;Node23</title>
<path fill="none" stroke="midnightblue" d="M126.588,-62.4035C132.38,-53.4925 141.589,-39.3247 148.874,-28.1177"/>
<polygon fill="midnightblue" stroke="midnightblue" points="151.907,-29.8725 154.423,-19.5806 146.038,-26.0576 151.907,-29.8725"/>
</g>
<!-- Node26 -->
<g id="node26" class="node"><title>Node26</title>
<polygon fill="none" stroke="#bfbfbf" points="1025.5,-62.5 1025.5,-81.5 1084.5,-81.5 1084.5,-62.5 1025.5,-62.5"/>
<text text-anchor="middle" x="1055" y="-69.5" font-family="Helvetica,sans-Serif" font-size="10.00">exception</text>
</g>
<!-- Node25&#45;&gt;Node26 -->
<g id="edge31" class="edge"><title>Node25&#45;&gt;Node26</title>
<path fill="none" stroke="midnightblue" d="M1087.56,-124.403C1081.91,-115.493 1072.94,-101.325 1065.84,-90.1177"/>
<polygon fill="midnightblue" stroke="midnightblue" points="1068.74,-88.1561 1060.43,-81.5806 1062.83,-91.9015 1068.74,-88.1561"/>
</g>
<!-- Node27 -->
<g id="node27" class="node"><title>Node27</title>
<polygon fill="none" stroke="#bfbfbf" points="1102.5,-62.5 1102.5,-81.5 1161.5,-81.5 1161.5,-62.5 1102.5,-62.5"/>
<text text-anchor="middle" x="1132" y="-69.5" font-family="Helvetica,sans-Serif" font-size="10.00">stdexcept</text>
</g>
<!-- Node25&#45;&gt;Node27 -->
<g id="edge32" class="edge"><title>Node25&#45;&gt;Node27</title>
<path fill="none" stroke="midnightblue" d="M1098.59,-124.403C1104.38,-115.493 1113.59,-101.325 1120.87,-90.1177"/>
<polygon fill="midnightblue" stroke="midnightblue" points="1123.91,-91.8725 1126.42,-81.5806 1118.04,-88.0576 1123.91,-91.8725"/>
</g>
<!-- Node28 -->
<g id="node28" class="node"><title>Node28</title>
<polygon fill="none" stroke="#bfbfbf" points="1180,-62.5 1180,-81.5 1232,-81.5 1232,-62.5 1180,-62.5"/>
<text text-anchor="middle" x="1206" y="-69.5" font-family="Helvetica,sans-Serif" font-size="10.00">sstream</text>
</g>
<!-- Node25&#45;&gt;Node28 -->
<g id="edge33" class="edge"><title>Node25&#45;&gt;Node28</title>
<path fill="none" stroke="midnightblue" d="M1109.19,-124.403C1127.9,-114.468 1158.92,-97.9966 1180.8,-86.3812"/>
<polygon fill="midnightblue" stroke="midnightblue" points="1182.65,-89.3616 1189.84,-81.5806 1179.37,-83.179 1182.65,-89.3616"/>
</g>
<!-- Node29 -->
<g id="node29" class="node"><title>Node29</title>
<polygon fill="none" stroke="#bfbfbf" points="1250.5,-62.5 1250.5,-81.5 1299.5,-81.5 1299.5,-62.5 1250.5,-62.5"/>
<text text-anchor="middle" x="1275" y="-69.5" font-family="Helvetica,sans-Serif" font-size="10.00">string.h</text>
</g>
<!-- Node25&#45;&gt;Node29 -->
<g id="edge34" class="edge"><title>Node25&#45;&gt;Node29</title>
<path fill="none" stroke="midnightblue" d="M1125.13,-124.437C1155.36,-116.097 1201.72,-102.575 1241,-88 1243.11,-87.2158 1245.28,-86.3663 1247.45,-85.4839"/>
<polygon fill="midnightblue" stroke="midnightblue" points="1248.98,-88.6382 1256.81,-81.5052 1246.24,-82.1959 1248.98,-88.6382"/>
</g>
<!-- Node25&#45;&gt;Node12 -->
<g id="edge35" class="edge"><title>Node25&#45;&gt;Node12</title>
<path fill="none" stroke="midnightblue" d="M1071.22,-124.403C1045.26,-114.156 1001.69,-96.9561 972.165,-85.3021"/>
<polygon fill="midnightblue" stroke="midnightblue" points="973.324,-81.9968 962.737,-81.5806 970.754,-88.5079 973.324,-81.9968"/>
</g>
<!-- Node31 -->
<g id="node31" class="node"><title>Node31</title>
<g id="a_node31"><a xlink:href="compiler_8h_source.html" target="_top" xlink:title="compiler.h">
<polygon fill="none" stroke="black" points="795,-62.5 795,-81.5 857,-81.5 857,-62.5 795,-62.5"/>
<text text-anchor="middle" x="826" y="-69.5" font-family="Helvetica,sans-Serif" font-size="10.00">compiler.h</text>
</a>
</g>
</g>
<!-- Node30&#45;&gt;Node31 -->
<g id="edge37" class="edge"><title>Node30&#45;&gt;Node31</title>
<path fill="none" stroke="midnightblue" d="M661.168,-124.428C692.851,-115.819 742.532,-101.875 785,-88 787.931,-87.0423 790.967,-86.0101 793.999,-84.9512"/>
<polygon fill="midnightblue" stroke="midnightblue" points="795.305,-88.2012 803.542,-81.5372 792.947,-81.6102 795.305,-88.2012"/>
</g>
<!-- Node33 -->
<g id="node33" class="node"><title>Node33</title>
<g id="a_node33"><a xlink:href="dimension_8h_source.html" target="_top" xlink:title="dimension.h">
<polygon fill="none" stroke="black" points="524.5,-62.5 524.5,-81.5 593.5,-81.5 593.5,-62.5 524.5,-62.5"/>
<text text-anchor="middle" x="559" y="-69.5" font-family="Helvetica,sans-Serif" font-size="10.00">dimension.h</text>
</a>
</g>
</g>
<!-- Node30&#45;&gt;Node33 -->
<g id="edge39" class="edge"><title>Node30&#45;&gt;Node33</title>
<path fill="none" stroke="midnightblue" d="M618.971,-124.403C607.951,-114.958 590.04,-99.6056 576.657,-88.1342"/>
<polygon fill="midnightblue" stroke="midnightblue" points="578.881,-85.4311 569.011,-81.5806 574.325,-90.7459 578.881,-85.4311"/>
</g>
<!-- Node32 -->
<g id="node32" class="node"><title>Node32</title>
<polygon fill="none" stroke="#bfbfbf" points="794,-0.5 794,-19.5 858,-19.5 858,-0.5 794,-0.5"/>
<text text-anchor="middle" x="826" y="-7.5" font-family="Helvetica,sans-Serif" font-size="10.00">psiconfig.h</text>
</g>
<!-- Node31&#45;&gt;Node32 -->
<g id="edge38" class="edge"><title>Node31&#45;&gt;Node32</title>
<path fill="none" stroke="midnightblue" d="M826,-62.4035C826,-53.9381 826,-40.7283 826,-29.8199"/>
<polygon fill="midnightblue" stroke="midnightblue" points="829.5,-29.5806 826,-19.5806 822.5,-29.5806 829.5,-29.5806"/>
</g>
<!-- Node33&#45;&gt;Node7 -->
<g id="edge40" class="edge"><title>Node33&#45;&gt;Node7</title>
<path fill="none" stroke="midnightblue" d="M533.893,-62.366C527.722,-60.2644 521.127,-58.036 515,-56 477.698,-43.6043 434.621,-29.726 406.431,-20.7024"/>
<polygon fill="midnightblue" stroke="midnightblue" points="407.347,-17.321 396.756,-17.6093 405.215,-23.9885 407.347,-17.321"/>
</g>
<!-- Node33&#45;&gt;Node6 -->
<g id="edge41" class="edge"><title>Node33&#45;&gt;Node6</title>
<path fill="none" stroke="midnightblue" d="M536.387,-62.4496C529.585,-60.1069 522.053,-57.7372 515,-56 422.977,-33.3331 311.521,-19.7983 257.882,-14.1281"/>
<polygon fill="midnightblue" stroke="midnightblue" points="257.951,-10.6167 247.644,-13.0678 257.23,-17.5795 257.951,-10.6167"/>
</g>
<!-- Node33&#45;&gt;Node16 -->
<g id="edge42" class="edge"><title>Node33&#45;&gt;Node16</title>
<path fill="none" stroke="midnightblue" d="M576.336,-62.4035C596.553,-52.3787 630.187,-35.7006 653.642,-24.0699"/>
<polygon fill="midnightblue" stroke="midnightblue" points="655.292,-27.1588 662.696,-19.5806 652.182,-20.8875 655.292,-27.1588"/>
</g>
</g>
</svg>
